<?xml version="1.0" encoding="UTF-8"?> <svg xmlns="http://www.w3.org/2000/svg" xmlns:xlink="http://www.w3.org/1999/xlink" width="360" zoomAndPan="magnify" viewBox="0 0 270 359.999987" height="480" preserveAspectRatio="xMidYMid meet" version="1.0"><defs><g></g><clipPath id="c48a556f76"><rect x="0" width="244" y="0" height="133"></rect></clipPath></defs><g transform="matrix(1, 0, 0, 1, 14, 114)"><g clip-path="url(#c48a556f76)"><g fill="#000000" fill-opacity="1"><g transform="translate(0.586416, 98.412701)"><g><path d="M 194.03125 -72.15625 C 194.03125 -68.375 191.457031 -64.460938 186.3125 -60.421875 C 182.851562 -57.691406 178.601562 -55.171875 173.5625 -52.859375 C 167.195312 -49.921875 159.867188 -47.71875 151.578125 -46.25 C 148.316406 -40.78125 145.035156 -35.289062 141.734375 -29.78125 C 137.785156 -23.425781 134.03125 -18.226562 130.46875 -14.1875 C 125.945312 -9.03125 121.085938 -4.984375 115.890625 -2.046875 C 114.835938 -1.472656 113.992188 -1.109375 113.359375 -0.953125 L 113.359375 -0.859375 C 115.046875 -0.753906 117.304688 -0.703125 120.140625 -0.703125 C 123.398438 -0.703125 126.101562 -1.304688 128.25 -2.515625 C 128.9375 -2.890625 131.144531 -4.546875 134.875 -7.484375 L 135.03125 -7.40625 L 135.109375 -7.25 C 135.003906 -6.988281 134.820312 -6.722656 134.5625 -6.453125 C 129.625 -1.203125 124.210938 1.421875 118.328125 1.421875 C 117.535156 1.421875 116.390625 1.25 114.890625 0.90625 C 113.398438 0.5625 112.285156 0.390625 111.546875 0.390625 C 111.234375 0.390625 110.367188 0.507812 108.953125 0.75 C 107.535156 0.988281 106.457031 1.109375 105.71875 1.109375 C 103.46875 1.109375 102.34375 0.554688 102.34375 -0.546875 C 102.34375 -1.179688 103.257812 -1.5 105.09375 -1.5 C 105.832031 -1.5 106.945312 -1.429688 108.4375 -1.296875 C 109.9375 -1.171875 111.054688 -1.109375 111.796875 -1.109375 C 116.992188 -3.304688 122.453125 -8.375 128.171875 -16.3125 C 129.910156 -18.726562 133.878906 -25.109375 140.078125 -35.453125 C 141.703125 -38.128906 143.828125 -41.460938 146.453125 -45.453125 C 141.722656 -44.878906 137.914062 -44.59375 135.03125 -44.59375 C 129.46875 -38.8125 123.875 -33.113281 118.25 -27.5 C 125.757812 -25.550781 129.804688 -23.316406 130.390625 -20.796875 L 130.390625 -20.71875 C 128.910156 -22.394531 124.46875 -24.179688 117.0625 -26.078125 C 105.9375 -14.941406 95.222656 -6.800781 84.921875 -1.65625 C 73.003906 4.382812 59.953125 7.40625 45.765625 7.40625 C 42.722656 7.40625 39.707031 7.171875 36.71875 6.703125 C 36.925781 15.472656 41.441406 22.21875 50.265625 26.9375 C 57.347656 30.664062 65.722656 32.53125 75.390625 32.53125 C 85.316406 32.53125 93.929688 30.691406 101.234375 27.015625 C 108.742188 23.179688 112.5 18.847656 112.5 14.015625 C 112.5 11.921875 111.921875 10.21875 110.765625 8.90625 C 110.554688 8.75 110.320312 8.457031 110.0625 8.03125 C 110.113281 7.976562 110.191406 7.953125 110.296875 7.953125 C 111.242188 7.953125 112.160156 8.78125 113.046875 10.4375 C 113.941406 12.09375 114.390625 13.472656 114.390625 14.578125 C 114.390625 19.566406 110.375 23.976562 102.34375 27.8125 C 94.507812 31.539062 85.523438 33.40625 75.390625 33.40625 C 64.992188 33.40625 56.300781 31.539062 49.3125 27.8125 C 40.4375 23.082031 35.972656 15.988281 35.921875 6.53125 C 28.253906 5.21875 22.132812 2.566406 17.5625 -1.421875 C 12.257812 -5.984375 9.609375 -11.914062 9.609375 -19.21875 C 9.609375 -24.3125 11.160156 -29.222656 14.265625 -33.953125 C 17.046875 -38.210938 20.773438 -41.863281 25.453125 -44.90625 C 35.640625 -51.570312 47.140625 -54.90625 59.953125 -54.90625 C 67.929688 -54.90625 74.992188 -53.617188 81.140625 -51.046875 C 89.335938 -47.578125 93.4375 -42.429688 93.4375 -35.609375 C 93.4375 -33.828125 93.144531 -32.015625 92.5625 -30.171875 C 92.832031 -30.171875 93.332031 -30.195312 94.0625 -30.25 C 94.695312 -30.25 95.222656 -30.25 95.640625 -30.25 C 102.523438 -30.25 108.773438 -29.671875 114.390625 -28.515625 C 116.753906 -30.722656 122.191406 -36.082031 130.703125 -44.59375 C 122.191406 -44.800781 114.8125 -46.191406 108.5625 -48.765625 C 99.789062 -52.285156 95.40625 -57.5625 95.40625 -64.59375 C 95.40625 -69.375 97.503906 -73.210938 101.703125 -76.109375 C 105.429688 -78.628906 109.789062 -79.890625 114.78125 -79.890625 C 120.40625 -79.890625 124.6875 -78.546875 127.625 -75.859375 C 129.519531 -74.128906 130.46875 -72.53125 130.46875 -71.0625 C 130.46875 -70.476562 130.359375 -70.1875 130.140625 -70.1875 C 129.671875 -73.1875 127.753906 -75.445312 124.390625 -76.96875 C 121.660156 -78.226562 118.585938 -78.859375 115.171875 -78.859375 C 110.453125 -78.859375 106.382812 -77.648438 102.96875 -75.234375 C 99.1875 -72.554688 97.296875 -68.929688 97.296875 -64.359375 C 97.296875 -57.585938 101.550781 -52.519531 110.0625 -49.15625 C 116.039062 -46.789062 123.128906 -45.503906 131.328125 -45.296875 C 152.597656 -67.515625 170.484375 -78.625 184.984375 -78.625 C 191.015625 -78.625 194.03125 -76.46875 194.03125 -72.15625 Z M 193.09375 -72.15625 C 193.09375 -74.101562 192.226562 -75.578125 190.5 -76.578125 C 189.125 -77.421875 187.390625 -77.84375 185.296875 -77.84375 C 176.578125 -77.84375 167.359375 -74.113281 157.640625 -66.65625 C 152.078125 -62.394531 144.695312 -55.300781 135.5 -45.375 C 139.019531 -45.476562 142.800781 -45.847656 146.84375 -46.484375 C 151.832031 -53.835938 156.691406 -59.957031 161.421875 -64.84375 C 168.722656 -72.351562 175.050781 -76.109375 180.40625 -76.109375 C 182.71875 -76.109375 183.71875 -75.789062 183.40625 -75.15625 L 183.09375 -74.921875 L 180.71875 -75.390625 C 176.675781 -75.390625 172.476562 -73.265625 168.125 -69.015625 C 165.601562 -66.546875 162.53125 -62.710938 158.90625 -57.515625 C 155.851562 -53.097656 153.59375 -49.707031 152.125 -47.34375 C 160.425781 -49.1875 167.410156 -51.5 173.078125 -54.28125 C 186.421875 -60.789062 193.09375 -66.75 193.09375 -72.15625 Z M 90.828125 -28.59375 C 82.378906 -28.226562 74.398438 -26.863281 66.890625 -24.5 C 57.898438 -21.769531 50.832031 -17.960938 45.6875 -13.078125 L 45.6875 -13 C 48.582031 -12.414062 51.34375 -12.125 53.96875 -12.125 C 61.050781 -12.125 67.957031 -13.414062 74.6875 -16 C 82.71875 -19.09375 88.097656 -23.289062 90.828125 -28.59375 Z M 113.125 -26.9375 C 107.507812 -28.144531 101.207031 -28.75 94.21875 -28.75 C 93.539062 -28.75 92.832031 -28.722656 92.09375 -28.671875 C 89.625 -22.742188 84.503906 -18.070312 76.734375 -14.65625 C 70.015625 -11.65625 63.03125 -10.15625 55.78125 -10.15625 C 51.570312 -10.15625 47.84375 -10.707031 44.59375 -11.8125 C 39.601562 -6.925781 37.003906 -1.226562 36.796875 5.28125 C 39.628906 5.800781 42.671875 6.0625 45.921875 6.0625 C 58.691406 6.0625 70.984375 2.859375 82.796875 -3.546875 C 92.253906 -8.640625 102.363281 -16.4375 113.125 -26.9375 Z M 92.640625 -35.609375 C 92.640625 -41.753906 88.414062 -46.191406 79.96875 -48.921875 C 74.289062 -50.765625 67.59375 -51.6875 59.875 -51.6875 C 48.53125 -51.6875 37.972656 -49.132812 28.203125 -44.03125 C 16.390625 -37.84375 10.484375 -29.597656 10.484375 -19.296875 C 10.484375 -12.367188 13.082031 -6.695312 18.28125 -2.28125 C 22.6875 1.445312 28.566406 3.96875 35.921875 5.28125 C 36.128906 -1.019531 38.648438 -6.820312 43.484375 -12.125 C 36.453125 -14.707031 32.9375 -18.359375 32.9375 -23.078125 C 32.9375 -23.609375 33.015625 -24.316406 33.171875 -25.203125 C 33.378906 -26.304688 33.613281 -26.859375 33.875 -26.859375 C 34.03125 -26.859375 34.160156 -26.832031 34.265625 -26.78125 C 34.210938 -26.570312 34.082031 -25.96875 33.875 -24.96875 C 33.71875 -24.1875 33.640625 -23.609375 33.640625 -23.234375 C 33.640625 -20.816406 34.953125 -18.640625 37.578125 -16.703125 C 39.578125 -15.285156 41.96875 -14.15625 44.75 -13.3125 C 50.050781 -18.613281 57.320312 -22.765625 66.5625 -25.765625 C 74.34375 -28.285156 82.671875 -29.726562 91.546875 -30.09375 C 92.273438 -31.875 92.640625 -33.710938 92.640625 -35.609375 Z M 92.640625 -35.609375 "></path></g></g></g><g fill="#000000" fill-opacity="1"><g transform="translate(135.055973, 98.412701)"><g><path d="M 28.90625 -7.71875 C 28.90625 -7.507812 28.066406 -6.695312 26.390625 -5.28125 C 24.972656 -4.019531 23.945312 -3.148438 23.3125 -2.671875 C 20.476562 -0.578125 18.117188 0.46875 16.234375 0.46875 C 14.648438 0.46875 13.859375 -0.0546875 13.859375 -1.109375 C 13.859375 -2.472656 15.023438 -4.519531 17.359375 -7.25 C 19.703125 -9.976562 20.875 -11.472656 20.875 -11.734375 C 20.875 -11.992188 20.691406 -12.125 20.328125 -12.125 C 18.753906 -12.125 15.457031 -10.050781 10.4375 -5.90625 C 5.425781 -1.757812 2.472656 0.3125 1.578125 0.3125 C 0.679688 0.3125 0.234375 0.15625 0.234375 -0.15625 C 0.234375 -0.894531 1.492188 -2.929688 4.015625 -6.265625 C 6.535156 -9.597656 7.820312 -11.289062 7.875 -11.34375 C 7.769531 -11.65625 7.613281 -11.8125 7.40625 -11.8125 C 6.507812 -11.8125 4.90625 -10.785156 2.59375 -8.734375 C 0.289062 -6.691406 -0.890625 -5.671875 -0.953125 -5.671875 C -1.160156 -5.671875 -1.265625 -5.773438 -1.265625 -5.984375 C -1.265625 -6.566406 0.191406 -7.957031 3.109375 -10.15625 C 6.023438 -12.363281 8.113281 -13.46875 9.375 -13.46875 C 10.6875 -13.46875 11.34375 -12.863281 11.34375 -11.65625 C 11.34375 -10.769531 9.660156 -8.144531 6.296875 -3.78125 L 6.53125 -3.703125 C 14.257812 -10.210938 19.382812 -13.46875 21.90625 -13.46875 C 23.53125 -13.46875 24.34375 -12.890625 24.34375 -11.734375 C 24.34375 -10.796875 23.316406 -9.0625 21.265625 -6.53125 C 19.222656 -4.007812 18.203125 -2.410156 18.203125 -1.734375 L 18.28125 -1.421875 C 18.4375 -1.367188 18.617188 -1.34375 18.828125 -1.34375 C 19.984375 -1.34375 21.875 -2.429688 24.5 -4.609375 C 27.125 -6.785156 28.488281 -7.875 28.59375 -7.875 C 28.695312 -7.820312 28.773438 -7.78125 28.828125 -7.75 C 28.878906 -7.726562 28.90625 -7.71875 28.90625 -7.71875 Z M 28.90625 -7.71875 "></path></g></g></g><g fill="#000000" fill-opacity="1"><g transform="translate(162.784907, 98.412701)"><g><path d="M 26.78125 -7.796875 C 26.675781 -7.015625 24.863281 -5.304688 21.34375 -2.671875 C 18.5625 -0.578125 16.203125 0.46875 14.265625 0.46875 C 12.523438 0.46875 11.65625 -0.132812 11.65625 -1.34375 C 11.65625 -2.707031 12.847656 -4.675781 15.234375 -7.25 C 17.628906 -9.820312 18.828125 -11.289062 18.828125 -11.65625 C 18.828125 -11.914062 18.617188 -12.046875 18.203125 -12.046875 C 15.472656 -12.046875 10.164062 -7.164062 2.28125 2.59375 C -0.863281 6.476562 -5.878906 13.203125 -12.765625 22.765625 C -13.765625 24.234375 -14.757812 25.703125 -15.75 27.171875 C -17.175781 29.117188 -18.253906 30.394531 -18.984375 31 C -19.722656 31.601562 -20.351562 31.90625 -20.875 31.90625 C -22.082031 31.90625 -22.6875 31.25 -22.6875 29.9375 C -22.6875 28.625 -21.820312 26.679688 -20.09375 24.109375 C -9.6875 8.929688 -0.335938 -3.644531 7.953125 -13.625 L 7.875 -13.625 C 2.3125 -8.425781 -0.707031 -5.828125 -1.1875 -5.828125 C -0.914062 -6.460938 3.628906 -10.769531 12.453125 -18.75 C 13.609375 -19.800781 14.628906 -20.328125 15.515625 -20.328125 C 16.304688 -20.328125 16.703125 -20.222656 16.703125 -20.015625 C 16.703125 -19.910156 16.28125 -19.359375 15.4375 -18.359375 C 12.550781 -14.992188 7.722656 -8.847656 0.953125 0.078125 C -5.242188 8.171875 -10.367188 15.179688 -14.421875 21.109375 C -17.773438 25.992188 -19.453125 28.726562 -19.453125 29.3125 L -19.453125 29.546875 C -19.398438 29.597656 -19.347656 29.625 -19.296875 29.625 C -18.722656 29.625 -15.8125 25.894531 -10.5625 18.4375 C -3.9375 9.03125 1.316406 2.125 5.203125 -2.28125 C 11.660156 -9.738281 16.625 -13.46875 20.09375 -13.46875 C 21.71875 -13.46875 22.53125 -12.941406 22.53125 -11.890625 C 22.53125 -10.847656 21.441406 -9.128906 19.265625 -6.734375 C 17.085938 -4.347656 16 -2.785156 16 -2.046875 C 16 -1.578125 16.257812 -1.34375 16.78125 -1.34375 C 17.9375 -1.34375 19.828125 -2.40625 22.453125 -4.53125 C 25.078125 -6.65625 26.519531 -7.742188 26.78125 -7.796875 Z M 26.78125 -7.796875 "></path></g></g></g><g fill="#000000" fill-opacity="1"><g transform="translate(188.465673, 98.412701)"><g><path d="M 17.890625 -7.71875 C 17.890625 -7.5625 17.648438 -7.25 17.171875 -6.78125 C 15.234375 -4.78125 13.082031 -3.097656 10.71875 -1.734375 C 7.925781 -0.109375 5.351562 0.703125 3 0.703125 C 0.101562 0.703125 -1.34375 -0.265625 -1.34375 -2.203125 C -1.34375 -3.617188 -0.710938 -5.171875 0.546875 -6.859375 L 0.46875 -6.859375 C -0.257812 -6.066406 -0.757812 -5.671875 -1.03125 -5.671875 C -1.082031 -5.671875 -1.132812 -5.695312 -1.1875 -5.75 L -1.1875 -5.90625 C -1.1875 -5.90625 -1.160156 -6.007812 -1.109375 -6.21875 C 0.367188 -7.851562 2.523438 -9.457031 5.359375 -11.03125 C 8.398438 -12.65625 10.894531 -13.46875 12.84375 -13.46875 C 14.363281 -13.46875 15.125 -12.785156 15.125 -11.421875 C 15.125 -9.054688 11.160156 -6.613281 3.234375 -4.09375 C 2.910156 -3.039062 2.75 -2.332031 2.75 -1.96875 C 2.75 -1.019531 3.351562 -0.546875 4.5625 -0.546875 C 6.195312 -0.546875 8.117188 -1.175781 10.328125 -2.4375 C 11.847656 -3.332031 13.5 -4.515625 15.28125 -5.984375 C 16.800781 -7.296875 17.585938 -7.953125 17.640625 -7.953125 C 17.804688 -7.953125 17.890625 -7.875 17.890625 -7.71875 Z M 12.375 -11.734375 C 12.375 -12.210938 12.054688 -12.453125 11.421875 -12.453125 C 10.367188 -12.453125 8.925781 -11.453125 7.09375 -9.453125 C 5.675781 -7.929688 4.546875 -6.4375 3.703125 -4.96875 L 3.703125 -4.890625 C 9.484375 -6.722656 12.375 -9.003906 12.375 -11.734375 Z M 12.375 -11.734375 "></path></g></g></g><g fill="#000000" fill-opacity="1"><g transform="translate(205.166047, 98.412701)"><g><path d="M 23.234375 -7.640625 C 23.078125 -6.898438 21.375 -5.269531 18.125 -2.75 C 15.5 -0.707031 13.289062 0.3125 11.5 0.3125 C 10.03125 0.3125 9.296875 -0.34375 9.296875 -1.65625 C 9.296875 -2.601562 10.210938 -4.3125 12.046875 -6.78125 C 9.421875 -4.414062 7.664062 -2.914062 6.78125 -2.28125 C 4.414062 -0.550781 2.441406 0.3125 0.859375 0.3125 C -0.660156 0.3125 -1.421875 -0.289062 -1.421875 -1.5 C -1.421875 -1.8125 -1.394531 -2.125 -1.34375 -2.4375 L -1.265625 -2.4375 C -0.835938 -3.800781 0.109375 -4.484375 1.578125 -4.484375 C 2.472656 -4.484375 2.921875 -4.222656 2.921875 -3.703125 C 2.921875 -3.546875 2.863281 -3.28125 2.75 -2.90625 C 2.644531 -2.539062 2.59375 -2.253906 2.59375 -2.046875 C 2.59375 -1.992188 2.644531 -1.8125 2.75 -1.5 C 2.914062 -1.445312 3.078125 -1.421875 3.234375 -1.421875 C 4.234375 -1.421875 6.726562 -3.097656 10.71875 -6.453125 C 13.1875 -8.609375 15.679688 -10.765625 18.203125 -12.921875 C 18.617188 -13.234375 19.457031 -13.390625 20.71875 -13.390625 C 21.132812 -13.390625 21.34375 -13.285156 21.34375 -13.078125 C 21.34375 -12.972656 20.003906 -11.316406 17.328125 -8.109375 C 14.648438 -4.910156 13.3125 -2.890625 13.3125 -2.046875 C 13.46875 -1.578125 13.648438 -1.34375 13.859375 -1.34375 C 14.753906 -1.34375 16.359375 -2.351562 18.671875 -4.375 C 20.984375 -6.394531 22.503906 -7.484375 23.234375 -7.640625 Z M 23.234375 -7.640625 "></path></g></g></g><g fill="#000000" fill-opacity="1"><g transform="translate(227.459487, 98.412701)"><g><path d="M 14.890625 -7.71875 C 14.890625 -7.351562 14.101562 -6.539062 12.53125 -5.28125 C 11.425781 -4.488281 9.691406 -3.28125 7.328125 -1.65625 L 6.703125 -1.5 C 4.285156 -0.1875 2.472656 0.46875 1.265625 0.46875 C -0.523438 0.46875 -1.421875 -0.160156 -1.421875 -1.421875 C -1.421875 -1.992188 -1.007812 -3.066406 -0.1875 -4.640625 C 0.625 -6.222656 1.472656 -7.429688 2.359375 -8.265625 C 2.460938 -8.429688 2.59375 -8.617188 2.75 -8.828125 C -0.0820312 -6.773438 -1.550781 -5.75 -1.65625 -5.75 L -1.734375 -5.984375 C -1.734375 -6.242188 0.578125 -7.953125 5.203125 -11.109375 C 5.410156 -11.316406 5.722656 -11.578125 6.140625 -11.890625 C 7.503906 -12.941406 8.632812 -13.46875 9.53125 -13.46875 C 10.320312 -13.46875 10.796875 -13.390625 10.953125 -13.234375 C 9.429688 -11.347656 7.929688 -9.457031 6.453125 -7.5625 C 4.097656 -4.570312 2.921875 -2.707031 2.921875 -1.96875 C 2.921875 -1.914062 3 -1.796875 3.15625 -1.609375 C 3.3125 -1.429688 3.519531 -1.34375 3.78125 -1.34375 C 4.46875 -1.34375 5.492188 -1.972656 6.859375 -3.234375 C 7.222656 -4.859375 8.085938 -5.851562 9.453125 -6.21875 L 9.453125 -7.875 L 9.53125 -7.953125 C 9.582031 -8.003906 9.632812 -8.03125 9.6875 -8.03125 C 10.53125 -8.03125 10.953125 -7.476562 10.953125 -6.375 C 10.953125 -5.59375 10.375 -4.625 9.21875 -3.46875 C 9.738281 -3.9375 10.578125 -4.644531 11.734375 -5.59375 C 13.578125 -7.113281 14.601562 -7.875 14.8125 -7.875 C 14.863281 -7.820312 14.890625 -7.769531 14.890625 -7.71875 Z M 14.890625 -7.71875 "></path></g></g></g></g></g></svg> 