<?xml version="1.0" encoding="UTF-8"?> <svg xmlns="http://www.w3.org/2000/svg" xmlns:xlink="http://www.w3.org/1999/xlink" width="360" zoomAndPan="magnify" viewBox="0 0 270 359.999987" height="480" preserveAspectRatio="xMidYMid meet" version="1.0"><defs><clipPath id="0753b1df43"><path d="M 6.839844 51.136719 L 263.339844 51.136719 L 263.339844 309 L 6.839844 309 Z M 6.839844 51.136719 " clip-rule="nonzero"></path></clipPath></defs><g clip-path="url(#0753b1df43)"><path fill="#ffffff" d="M 225.78125 88.6875 C 201.691406 64.574219 169.65625 51.265625 135.519531 51.265625 C 65.179688 51.265625 7.933594 108.5 7.910156 178.863281 C 7.910156 201.347656 13.777344 223.3125 24.945312 242.65625 L 6.839844 308.777344 L 74.488281 291.027344 C 93.128906 301.199219 114.113281 306.546875 135.46875 306.5625 L 135.519531 306.5625 C 205.839844 306.5625 263.101562 249.3125 263.113281 178.964844 C 263.113281 144.867188 249.871094 112.816406 225.769531 88.6875 Z M 135.519531 285.015625 L 135.480469 285.015625 C 116.457031 285.015625 97.777344 279.898438 81.492188 270.234375 L 77.621094 267.929688 L 37.476562 278.460938 L 48.183594 239.320312 L 45.660156 235.308594 C 35.042969 218.425781 29.441406 198.90625 29.453125 178.863281 C 29.480469 120.394531 77.0625 72.8125 135.554688 72.8125 C 163.886719 72.8125 190.511719 83.863281 210.539062 103.917969 C 230.570312 123.957031 241.582031 150.609375 241.570312 178.953125 C 241.542969 237.433594 193.960938 285.015625 135.503906 285.015625 Z M 193.695312 205.589844 C 190.511719 203.996094 174.835938 196.28125 171.910156 195.222656 C 168.980469 194.15625 166.867188 193.632812 164.738281 196.816406 C 162.613281 200.011719 156.5 207.195312 154.644531 209.320312 C 152.785156 211.445312 150.925781 211.714844 147.730469 210.109375 C 144.546875 208.519531 134.269531 205.144531 122.085938 194.28125 C 112.613281 185.828125 106.207031 175.386719 104.347656 172.191406 C 102.488281 168.996094 104.15625 167.277344 105.75 165.683594 C 107.175781 164.257812 108.933594 161.953125 110.535156 160.09375 C 112.128906 158.234375 112.664062 156.898438 113.71875 154.773438 C 114.789062 152.644531 114.253906 150.785156 113.453125 149.183594 C 112.648438 147.589844 106.285156 131.890625 103.621094 125.511719 C 101.039062 119.296875 98.402344 120.140625 96.453125 120.035156 C 94.59375 119.949219 92.46875 119.921875 90.339844 119.921875 C 88.214844 119.921875 84.765625 120.710938 81.835938 123.90625 C 78.90625 127.105469 70.683594 134.820312 70.683594 150.507812 C 70.683594 166.195312 82.105469 181.359375 83.707031 183.496094 C 85.300781 185.625 106.195312 217.824219 138.179688 231.640625 C 145.78125 234.925781 151.726562 236.886719 156.363281 238.363281 C 164 240.796875 170.953125 240.453125 176.441406 239.625 C 182.566406 238.707031 195.296875 231.90625 197.960938 224.460938 C 200.621094 217.011719 200.621094 210.632812 199.820312 209.292969 C 199.015625 207.957031 196.890625 207.167969 193.707031 205.5625 Z M 193.695312 205.589844 " fill-opacity="1" fill-rule="evenodd"></path></g></svg> 