<?xml version="1.0" encoding="UTF-8"?> <svg xmlns="http://www.w3.org/2000/svg" xmlns:xlink="http://www.w3.org/1999/xlink" width="360" zoomAndPan="magnify" viewBox="0 0 270 359.999987" height="480" preserveAspectRatio="xMidYMid meet" version="1.0"><defs><g></g><clipPath id="366c2fdd55"><rect x="0" width="270" y="0" height="31"></rect></clipPath></defs><g transform="matrix(1, 0, 0, 1, -0, 163)"><g clip-path="url(#366c2fdd55)"><g fill="#000000" fill-opacity="1"><g transform="translate(0.000005025, 21.53185)"><g><path d="M 4.5625 -14.671875 C 3.550781 -14.671875 2.789062 -14.410156 2.28125 -13.890625 C 1.769531 -13.378906 1.40625 -12.503906 1.1875 -11.265625 C 1.1875 -11.234375 1.140625 -11.21875 1.046875 -11.21875 C 0.960938 -11.21875 0.921875 -11.234375 0.921875 -11.265625 C 0.984375 -11.847656 1.050781 -12.601562 1.125 -13.53125 C 1.207031 -14.46875 1.25 -15.171875 1.25 -15.640625 C 1.25 -15.722656 1.289062 -15.765625 1.375 -15.765625 C 1.46875 -15.765625 1.515625 -15.722656 1.515625 -15.640625 C 1.515625 -15.285156 1.953125 -15.109375 2.828125 -15.109375 C 4.191406 -15.054688 5.8125 -15.03125 7.6875 -15.03125 C 8.632812 -15.03125 9.640625 -15.046875 10.703125 -15.078125 L 12.359375 -15.109375 C 12.929688 -15.109375 13.359375 -15.144531 13.640625 -15.21875 C 13.921875 -15.300781 14.101562 -15.46875 14.1875 -15.71875 C 14.207031 -15.78125 14.253906 -15.8125 14.328125 -15.8125 C 14.410156 -15.8125 14.453125 -15.78125 14.453125 -15.71875 C 14.398438 -15.25 14.347656 -14.535156 14.296875 -13.578125 C 14.253906 -12.628906 14.234375 -11.859375 14.234375 -11.265625 C 14.234375 -11.234375 14.1875 -11.21875 14.09375 -11.21875 C 14 -11.21875 13.953125 -11.234375 13.953125 -11.265625 C 13.898438 -12.523438 13.640625 -13.40625 13.171875 -13.90625 C 12.703125 -14.414062 11.929688 -14.671875 10.859375 -14.671875 C 10.128906 -14.671875 9.609375 -14.640625 9.296875 -14.578125 C 8.992188 -14.515625 8.785156 -14.375 8.671875 -14.15625 C 8.566406 -13.945312 8.515625 -13.59375 8.515625 -13.09375 L 8.515625 -1.953125 C 8.515625 -1.453125 8.566406 -1.085938 8.671875 -0.859375 C 8.785156 -0.640625 9.003906 -0.488281 9.328125 -0.40625 C 9.648438 -0.332031 10.160156 -0.296875 10.859375 -0.296875 C 10.898438 -0.296875 10.921875 -0.242188 10.921875 -0.140625 C 10.921875 -0.046875 10.898438 0 10.859375 0 C 10.328125 0 9.898438 -0.0078125 9.578125 -0.03125 L 7.6875 -0.046875 L 5.875 -0.03125 C 5.550781 -0.0078125 5.109375 0 4.546875 0 C 4.515625 0 4.5 -0.046875 4.5 -0.140625 C 4.5 -0.242188 4.515625 -0.296875 4.546875 -0.296875 C 5.234375 -0.296875 5.738281 -0.332031 6.0625 -0.40625 C 6.382812 -0.488281 6.601562 -0.644531 6.71875 -0.875 C 6.84375 -1.113281 6.90625 -1.472656 6.90625 -1.953125 L 6.90625 -13.15625 C 6.90625 -13.65625 6.847656 -14.003906 6.734375 -14.203125 C 6.628906 -14.398438 6.421875 -14.523438 6.109375 -14.578125 C 5.804688 -14.640625 5.289062 -14.671875 4.5625 -14.671875 Z M 4.5625 -14.671875 "></path></g></g></g><g fill="#000000" fill-opacity="1"><g transform="translate(15.009315, 21.53185)"><g><path d="M 8.84375 0.296875 C 7.34375 0.296875 6.007812 -0.0507812 4.84375 -0.75 C 3.675781 -1.457031 2.773438 -2.410156 2.140625 -3.609375 C 1.503906 -4.816406 1.1875 -6.128906 1.1875 -7.546875 C 1.1875 -9.203125 1.601562 -10.617188 2.4375 -11.796875 C 3.28125 -12.984375 4.359375 -13.875 5.671875 -14.46875 C 6.984375 -15.070312 8.320312 -15.375 9.6875 -15.375 C 11.21875 -15.375 12.5625 -15.015625 13.71875 -14.296875 C 14.882812 -13.578125 15.773438 -12.628906 16.390625 -11.453125 C 17.015625 -10.273438 17.328125 -9.023438 17.328125 -7.703125 C 17.328125 -6.242188 16.941406 -4.898438 16.171875 -3.671875 C 15.398438 -2.453125 14.363281 -1.484375 13.0625 -0.765625 C 11.769531 -0.0546875 10.363281 0.296875 8.84375 0.296875 Z M 9.6875 -0.21875 C 10.789062 -0.21875 11.78125 -0.484375 12.65625 -1.015625 C 13.53125 -1.546875 14.222656 -2.328125 14.734375 -3.359375 C 15.242188 -4.390625 15.5 -5.613281 15.5 -7.03125 C 15.5 -8.550781 15.210938 -9.894531 14.640625 -11.0625 C 14.078125 -12.238281 13.285156 -13.15625 12.265625 -13.8125 C 11.242188 -14.476562 10.046875 -14.8125 8.671875 -14.8125 C 6.898438 -14.8125 5.515625 -14.238281 4.515625 -13.09375 C 3.515625 -11.957031 3.015625 -10.390625 3.015625 -8.390625 C 3.015625 -6.867188 3.296875 -5.484375 3.859375 -4.234375 C 4.429688 -2.992188 5.222656 -2.015625 6.234375 -1.296875 C 7.253906 -0.578125 8.40625 -0.21875 9.6875 -0.21875 Z M 9.6875 -0.21875 "></path></g></g></g><g fill="#000000" fill-opacity="1"><g transform="translate(33.523232, 21.53185)"><g><path d="M 9.765625 -16.265625 C 9.203125 -16.265625 8.660156 -16.367188 8.140625 -16.578125 C 7.628906 -16.785156 7.21875 -17.054688 6.90625 -17.390625 C 6.59375 -17.734375 6.4375 -18.09375 6.4375 -18.46875 C 6.4375 -18.695312 6.492188 -18.875 6.609375 -19 C 6.734375 -19.125 6.898438 -19.1875 7.109375 -19.1875 C 7.410156 -19.1875 7.617188 -19.09375 7.734375 -18.90625 C 7.859375 -18.726562 7.976562 -18.4375 8.09375 -18.03125 C 8.40625 -17.050781 8.953125 -16.5625 9.734375 -16.5625 C 10.191406 -16.5625 10.5625 -16.695312 10.84375 -16.96875 C 11.132812 -17.238281 11.335938 -17.59375 11.453125 -18.03125 C 11.566406 -18.414062 11.6875 -18.703125 11.8125 -18.890625 C 11.945312 -19.085938 12.160156 -19.1875 12.453125 -19.1875 C 12.898438 -19.1875 13.125 -18.9375 13.125 -18.4375 C 13.125 -18.070312 12.960938 -17.71875 12.640625 -17.375 C 12.316406 -17.039062 11.894531 -16.769531 11.375 -16.5625 C 10.863281 -16.363281 10.328125 -16.265625 9.765625 -16.265625 Z M 17.6875 -0.296875 C 17.738281 -0.296875 17.765625 -0.242188 17.765625 -0.140625 C 17.765625 -0.046875 17.738281 0 17.6875 0 C 17.1875 0 16.785156 -0.0078125 16.484375 -0.03125 L 14.8125 -0.046875 L 13.046875 -0.03125 C 12.765625 -0.0078125 12.390625 0 11.921875 0 C 11.867188 0 11.84375 -0.046875 11.84375 -0.140625 C 11.84375 -0.242188 11.867188 -0.296875 11.921875 -0.296875 C 12.546875 -0.296875 13.003906 -0.332031 13.296875 -0.40625 C 13.585938 -0.488281 13.78125 -0.640625 13.875 -0.859375 C 13.96875 -1.085938 14.015625 -1.453125 14.015625 -1.953125 L 14.015625 -13.09375 L 3.625 0.21875 C 3.570312 0.28125 3.472656 0.3125 3.328125 0.3125 C 3.085938 0.3125 2.96875 0.253906 2.96875 0.140625 L 2.96875 -13.15625 C 2.96875 -13.632812 2.914062 -13.984375 2.8125 -14.203125 C 2.707031 -14.429688 2.503906 -14.585938 2.203125 -14.671875 C 1.910156 -14.765625 1.457031 -14.8125 0.84375 -14.8125 C 0.8125 -14.8125 0.796875 -14.859375 0.796875 -14.953125 C 0.796875 -15.054688 0.8125 -15.109375 0.84375 -15.109375 L 2.109375 -15.078125 C 2.785156 -15.046875 3.332031 -15.03125 3.75 -15.03125 C 4.21875 -15.03125 4.804688 -15.046875 5.515625 -15.078125 L 6.640625 -15.109375 C 6.691406 -15.109375 6.71875 -15.054688 6.71875 -14.953125 C 6.71875 -14.859375 6.691406 -14.8125 6.640625 -14.8125 C 6.015625 -14.8125 5.554688 -14.765625 5.265625 -14.671875 C 4.972656 -14.585938 4.78125 -14.429688 4.6875 -14.203125 C 4.59375 -13.984375 4.546875 -13.632812 4.546875 -13.15625 L 4.546875 -1.859375 L 14.96875 -15.234375 C 15.007812 -15.273438 15.097656 -15.296875 15.234375 -15.296875 C 15.472656 -15.296875 15.59375 -15.238281 15.59375 -15.125 L 15.59375 -1.953125 C 15.59375 -1.472656 15.644531 -1.113281 15.75 -0.875 C 15.851562 -0.644531 16.050781 -0.488281 16.34375 -0.40625 C 16.632812 -0.332031 17.082031 -0.296875 17.6875 -0.296875 Z M 17.6875 -0.296875 "></path></g></g></g><g fill="#000000" fill-opacity="1"><g transform="translate(52.109665, 21.53185)"><g><path d="M 1.015625 0 C 0.984375 0 0.96875 -0.046875 0.96875 -0.140625 C 0.96875 -0.242188 0.984375 -0.296875 1.015625 -0.296875 C 1.628906 -0.296875 2.078125 -0.332031 2.359375 -0.40625 C 2.648438 -0.488281 2.847656 -0.644531 2.953125 -0.875 C 3.066406 -1.113281 3.125 -1.472656 3.125 -1.953125 L 3.125 -13.15625 C 3.125 -13.632812 3.066406 -13.984375 2.953125 -14.203125 C 2.847656 -14.429688 2.65625 -14.585938 2.375 -14.671875 C 2.09375 -14.765625 1.648438 -14.8125 1.046875 -14.8125 C 1.003906 -14.8125 0.984375 -14.859375 0.984375 -14.953125 C 0.984375 -15.054688 1.003906 -15.109375 1.046875 -15.109375 L 11.265625 -15.109375 C 11.421875 -15.109375 11.5 -15.035156 11.5 -14.890625 L 11.546875 -11.71875 C 11.546875 -11.675781 11.5 -11.65625 11.40625 -11.65625 C 11.3125 -11.65625 11.265625 -11.675781 11.265625 -11.71875 C 11.203125 -12.625 10.925781 -13.328125 10.4375 -13.828125 C 9.957031 -14.335938 9.332031 -14.59375 8.5625 -14.59375 L 6.640625 -14.59375 C 6.097656 -14.59375 5.6875 -14.550781 5.40625 -14.46875 C 5.132812 -14.394531 4.945312 -14.253906 4.84375 -14.046875 C 4.738281 -13.835938 4.6875 -13.53125 4.6875 -13.125 L 4.6875 -2.046875 C 4.6875 -1.535156 4.753906 -1.160156 4.890625 -0.921875 C 5.023438 -0.691406 5.296875 -0.53125 5.703125 -0.4375 C 6.109375 -0.34375 6.742188 -0.296875 7.609375 -0.296875 C 7.660156 -0.296875 7.6875 -0.242188 7.6875 -0.140625 C 7.6875 -0.046875 7.660156 0 7.609375 0 C 6.953125 0 6.4375 -0.0078125 6.0625 -0.03125 L 3.890625 -0.046875 L 2.25 -0.03125 C 1.957031 -0.0078125 1.546875 0 1.015625 0 Z M 1.015625 0 "></path></g></g></g><g fill="#000000" fill-opacity="1"><g transform="translate(64.194452, 21.53185)"><g><path d="M 8.84375 0.296875 C 7.34375 0.296875 6.007812 -0.0507812 4.84375 -0.75 C 3.675781 -1.457031 2.773438 -2.410156 2.140625 -3.609375 C 1.503906 -4.816406 1.1875 -6.128906 1.1875 -7.546875 C 1.1875 -9.203125 1.601562 -10.617188 2.4375 -11.796875 C 3.28125 -12.984375 4.359375 -13.875 5.671875 -14.46875 C 6.984375 -15.070312 8.320312 -15.375 9.6875 -15.375 C 11.21875 -15.375 12.5625 -15.015625 13.71875 -14.296875 C 14.882812 -13.578125 15.773438 -12.628906 16.390625 -11.453125 C 17.015625 -10.273438 17.328125 -9.023438 17.328125 -7.703125 C 17.328125 -6.242188 16.941406 -4.898438 16.171875 -3.671875 C 15.398438 -2.453125 14.363281 -1.484375 13.0625 -0.765625 C 11.769531 -0.0546875 10.363281 0.296875 8.84375 0.296875 Z M 9.6875 -0.21875 C 10.789062 -0.21875 11.78125 -0.484375 12.65625 -1.015625 C 13.53125 -1.546875 14.222656 -2.328125 14.734375 -3.359375 C 15.242188 -4.390625 15.5 -5.613281 15.5 -7.03125 C 15.5 -8.550781 15.210938 -9.894531 14.640625 -11.0625 C 14.078125 -12.238281 13.285156 -13.15625 12.265625 -13.8125 C 11.242188 -14.476562 10.046875 -14.8125 8.671875 -14.8125 C 6.898438 -14.8125 5.515625 -14.238281 4.515625 -13.09375 C 3.515625 -11.957031 3.015625 -10.390625 3.015625 -8.390625 C 3.015625 -6.867188 3.296875 -5.484375 3.859375 -4.234375 C 4.429688 -2.992188 5.222656 -2.015625 6.234375 -1.296875 C 7.253906 -0.578125 8.40625 -0.21875 9.6875 -0.21875 Z M 9.6875 -0.21875 "></path></g></g></g><g fill="#000000" fill-opacity="1"><g transform="translate(82.708369, 21.53185)"><g></g></g></g><g fill="#000000" fill-opacity="1"><g transform="translate(88.364071, 21.53185)"><g><path d="M 14.28125 -0.296875 C 14.332031 -0.296875 14.359375 -0.242188 14.359375 -0.140625 C 14.359375 -0.046875 14.332031 0 14.28125 0 C 13.78125 0 13.378906 -0.0078125 13.078125 -0.03125 L 11.40625 -0.046875 L 9.6875 -0.03125 C 9.414062 -0.0078125 9.03125 0 8.53125 0 C 8.476562 0 8.453125 -0.046875 8.453125 -0.140625 C 8.453125 -0.242188 8.476562 -0.296875 8.53125 -0.296875 C 9.144531 -0.296875 9.59375 -0.332031 9.875 -0.40625 C 10.15625 -0.488281 10.34375 -0.640625 10.4375 -0.859375 C 10.539062 -1.085938 10.59375 -1.453125 10.59375 -1.953125 L 10.59375 -7.375 C 9.25 -6.425781 7.863281 -5.953125 6.4375 -5.953125 C 5.113281 -5.953125 4.046875 -6.304688 3.234375 -7.015625 C 2.429688 -7.722656 2.03125 -8.671875 2.03125 -9.859375 L 2.03125 -13.15625 C 2.03125 -13.632812 1.976562 -13.984375 1.875 -14.203125 C 1.769531 -14.429688 1.578125 -14.585938 1.296875 -14.671875 C 1.015625 -14.765625 0.570312 -14.8125 -0.03125 -14.8125 C -0.0703125 -14.8125 -0.09375 -14.859375 -0.09375 -14.953125 C -0.09375 -15.054688 -0.0703125 -15.109375 -0.03125 -15.109375 L 0.984375 -15.078125 C 1.628906 -15.046875 2.210938 -15.03125 2.734375 -15.03125 C 3.210938 -15.03125 3.773438 -15.046875 4.421875 -15.078125 L 5.359375 -15.109375 C 5.410156 -15.109375 5.4375 -15.054688 5.4375 -14.953125 C 5.4375 -14.859375 5.410156 -14.8125 5.359375 -14.8125 C 4.847656 -14.8125 4.46875 -14.765625 4.21875 -14.671875 C 3.96875 -14.578125 3.796875 -14.410156 3.703125 -14.171875 C 3.617188 -13.941406 3.578125 -13.582031 3.578125 -13.09375 L 3.578125 -10.703125 C 3.578125 -9.335938 3.875 -8.300781 4.46875 -7.59375 C 5.0625 -6.882812 5.914062 -6.53125 7.03125 -6.53125 C 8.238281 -6.53125 9.425781 -6.929688 10.59375 -7.734375 L 10.59375 -13.09375 C 10.59375 -13.582031 10.546875 -13.941406 10.453125 -14.171875 C 10.367188 -14.410156 10.203125 -14.578125 9.953125 -14.671875 C 9.710938 -14.765625 9.328125 -14.8125 8.796875 -14.8125 C 8.765625 -14.8125 8.75 -14.859375 8.75 -14.953125 C 8.75 -15.054688 8.765625 -15.109375 8.796875 -15.109375 L 9.859375 -15.078125 C 10.503906 -15.046875 11.019531 -15.03125 11.40625 -15.03125 C 11.84375 -15.03125 12.398438 -15.046875 13.078125 -15.078125 L 14.28125 -15.109375 C 14.332031 -15.109375 14.359375 -15.054688 14.359375 -14.953125 C 14.359375 -14.859375 14.332031 -14.8125 14.28125 -14.8125 C 13.664062 -14.8125 13.207031 -14.765625 12.90625 -14.671875 C 12.613281 -14.585938 12.414062 -14.429688 12.3125 -14.203125 C 12.207031 -13.984375 12.15625 -13.632812 12.15625 -13.15625 L 12.15625 -1.953125 C 12.15625 -1.472656 12.207031 -1.113281 12.3125 -0.875 C 12.414062 -0.644531 12.613281 -0.488281 12.90625 -0.40625 C 13.207031 -0.332031 13.664062 -0.296875 14.28125 -0.296875 Z M 14.28125 -0.296875 "></path></g></g></g><g fill="#000000" fill-opacity="1"><g transform="translate(103.518414, 21.53185)"><g><path d="M 11.484375 -3.609375 C 11.484375 -3.640625 11.515625 -3.65625 11.578125 -3.65625 C 11.628906 -3.65625 11.671875 -3.644531 11.703125 -3.625 C 11.742188 -3.613281 11.765625 -3.585938 11.765625 -3.546875 C 11.617188 -2.535156 11.546875 -1.472656 11.546875 -0.359375 C 11.546875 -0.234375 11.519531 -0.140625 11.46875 -0.078125 C 11.414062 -0.0234375 11.316406 0 11.171875 0 L 1.046875 0 C 1.003906 0 0.984375 -0.046875 0.984375 -0.140625 C 0.984375 -0.242188 1.003906 -0.296875 1.046875 -0.296875 C 1.648438 -0.296875 2.09375 -0.332031 2.375 -0.40625 C 2.65625 -0.488281 2.847656 -0.644531 2.953125 -0.875 C 3.066406 -1.113281 3.125 -1.472656 3.125 -1.953125 L 3.125 -13.15625 C 3.125 -13.632812 3.066406 -13.984375 2.953125 -14.203125 C 2.847656 -14.429688 2.65625 -14.585938 2.375 -14.671875 C 2.09375 -14.765625 1.648438 -14.8125 1.046875 -14.8125 C 1.003906 -14.8125 0.984375 -14.859375 0.984375 -14.953125 C 0.984375 -15.054688 1.003906 -15.109375 1.046875 -15.109375 L 10.75 -15.109375 C 10.894531 -15.109375 10.96875 -15.035156 10.96875 -14.890625 L 11.015625 -11.921875 C 11.015625 -11.867188 10.972656 -11.835938 10.890625 -11.828125 C 10.816406 -11.816406 10.769531 -11.835938 10.75 -11.890625 C 10.707031 -12.742188 10.453125 -13.40625 9.984375 -13.875 C 9.515625 -14.351562 8.894531 -14.59375 8.125 -14.59375 L 6.640625 -14.59375 C 6.078125 -14.59375 5.660156 -14.546875 5.390625 -14.453125 C 5.128906 -14.367188 4.945312 -14.21875 4.84375 -14 C 4.738281 -13.789062 4.6875 -13.46875 4.6875 -13.03125 L 4.6875 -8.125 L 7.640625 -8.125 C 8.410156 -8.125 8.960938 -8.25 9.296875 -8.5 C 9.628906 -8.757812 9.796875 -9.195312 9.796875 -9.8125 C 9.796875 -9.84375 9.84375 -9.859375 9.9375 -9.859375 C 10.03125 -9.859375 10.078125 -9.84375 10.078125 -9.8125 L 10.0625 -7.859375 C 10.0625 -7.390625 10.066406 -7.035156 10.078125 -6.796875 L 10.109375 -5.625 C 10.109375 -5.59375 10.054688 -5.578125 9.953125 -5.578125 C 9.859375 -5.578125 9.8125 -5.59375 9.8125 -5.625 C 9.8125 -6.34375 9.640625 -6.851562 9.296875 -7.15625 C 8.953125 -7.457031 8.375 -7.609375 7.5625 -7.609375 L 4.6875 -7.609375 L 4.6875 -2.046875 C 4.6875 -1.597656 4.734375 -1.269531 4.828125 -1.0625 C 4.929688 -0.851562 5.109375 -0.707031 5.359375 -0.625 C 5.617188 -0.539062 6.023438 -0.5 6.578125 -0.5 L 8.515625 -0.5 C 9.285156 -0.5 9.925781 -0.773438 10.4375 -1.328125 C 10.957031 -1.878906 11.304688 -2.640625 11.484375 -3.609375 Z M 11.484375 -3.609375 "></path></g></g></g><g fill="#000000" fill-opacity="1"><g transform="translate(116.497504, 21.53185)"><g><path d="M 9.765625 -16.265625 C 9.203125 -16.265625 8.660156 -16.367188 8.140625 -16.578125 C 7.628906 -16.785156 7.21875 -17.054688 6.90625 -17.390625 C 6.59375 -17.734375 6.4375 -18.09375 6.4375 -18.46875 C 6.4375 -18.695312 6.492188 -18.875 6.609375 -19 C 6.734375 -19.125 6.898438 -19.1875 7.109375 -19.1875 C 7.410156 -19.1875 7.617188 -19.09375 7.734375 -18.90625 C 7.859375 -18.726562 7.976562 -18.4375 8.09375 -18.03125 C 8.40625 -17.050781 8.953125 -16.5625 9.734375 -16.5625 C 10.191406 -16.5625 10.5625 -16.695312 10.84375 -16.96875 C 11.132812 -17.238281 11.335938 -17.59375 11.453125 -18.03125 C 11.566406 -18.414062 11.6875 -18.703125 11.8125 -18.890625 C 11.945312 -19.085938 12.160156 -19.1875 12.453125 -19.1875 C 12.898438 -19.1875 13.125 -18.9375 13.125 -18.4375 C 13.125 -18.070312 12.960938 -17.71875 12.640625 -17.375 C 12.316406 -17.039062 11.894531 -16.769531 11.375 -16.5625 C 10.863281 -16.363281 10.328125 -16.265625 9.765625 -16.265625 Z M 17.6875 -0.296875 C 17.738281 -0.296875 17.765625 -0.242188 17.765625 -0.140625 C 17.765625 -0.046875 17.738281 0 17.6875 0 C 17.1875 0 16.785156 -0.0078125 16.484375 -0.03125 L 14.8125 -0.046875 L 13.046875 -0.03125 C 12.765625 -0.0078125 12.390625 0 11.921875 0 C 11.867188 0 11.84375 -0.046875 11.84375 -0.140625 C 11.84375 -0.242188 11.867188 -0.296875 11.921875 -0.296875 C 12.546875 -0.296875 13.003906 -0.332031 13.296875 -0.40625 C 13.585938 -0.488281 13.78125 -0.640625 13.875 -0.859375 C 13.96875 -1.085938 14.015625 -1.453125 14.015625 -1.953125 L 14.015625 -13.09375 L 3.625 0.21875 C 3.570312 0.28125 3.472656 0.3125 3.328125 0.3125 C 3.085938 0.3125 2.96875 0.253906 2.96875 0.140625 L 2.96875 -13.15625 C 2.96875 -13.632812 2.914062 -13.984375 2.8125 -14.203125 C 2.707031 -14.429688 2.503906 -14.585938 2.203125 -14.671875 C 1.910156 -14.765625 1.457031 -14.8125 0.84375 -14.8125 C 0.8125 -14.8125 0.796875 -14.859375 0.796875 -14.953125 C 0.796875 -15.054688 0.8125 -15.109375 0.84375 -15.109375 L 2.109375 -15.078125 C 2.785156 -15.046875 3.332031 -15.03125 3.75 -15.03125 C 4.21875 -15.03125 4.804688 -15.046875 5.515625 -15.078125 L 6.640625 -15.109375 C 6.691406 -15.109375 6.71875 -15.054688 6.71875 -14.953125 C 6.71875 -14.859375 6.691406 -14.8125 6.640625 -14.8125 C 6.015625 -14.8125 5.554688 -14.765625 5.265625 -14.671875 C 4.972656 -14.585938 4.78125 -14.429688 4.6875 -14.203125 C 4.59375 -13.984375 4.546875 -13.632812 4.546875 -13.15625 L 4.546875 -1.859375 L 14.96875 -15.234375 C 15.007812 -15.273438 15.097656 -15.296875 15.234375 -15.296875 C 15.472656 -15.296875 15.59375 -15.238281 15.59375 -15.125 L 15.59375 -1.953125 C 15.59375 -1.472656 15.644531 -1.113281 15.75 -0.875 C 15.851562 -0.644531 16.050781 -0.488281 16.34375 -0.40625 C 16.632812 -0.332031 17.082031 -0.296875 17.6875 -0.296875 Z M 17.6875 -0.296875 "></path></g></g></g><g fill="#000000" fill-opacity="1"><g transform="translate(135.083937, 21.53185)"><g><path d="M 17.6875 -0.296875 C 17.738281 -0.296875 17.765625 -0.242188 17.765625 -0.140625 C 17.765625 -0.046875 17.738281 0 17.6875 0 C 17.1875 0 16.785156 -0.0078125 16.484375 -0.03125 L 14.8125 -0.046875 L 13.046875 -0.03125 C 12.765625 -0.0078125 12.390625 0 11.921875 0 C 11.867188 0 11.84375 -0.046875 11.84375 -0.140625 C 11.84375 -0.242188 11.867188 -0.296875 11.921875 -0.296875 C 12.546875 -0.296875 13.003906 -0.332031 13.296875 -0.40625 C 13.585938 -0.488281 13.78125 -0.640625 13.875 -0.859375 C 13.96875 -1.085938 14.015625 -1.453125 14.015625 -1.953125 L 14.015625 -13.09375 L 3.625 0.21875 C 3.570312 0.28125 3.472656 0.3125 3.328125 0.3125 C 3.085938 0.3125 2.96875 0.253906 2.96875 0.140625 L 2.96875 -13.15625 C 2.96875 -13.632812 2.914062 -13.984375 2.8125 -14.203125 C 2.707031 -14.429688 2.503906 -14.585938 2.203125 -14.671875 C 1.910156 -14.765625 1.457031 -14.8125 0.84375 -14.8125 C 0.8125 -14.8125 0.796875 -14.859375 0.796875 -14.953125 C 0.796875 -15.054688 0.8125 -15.109375 0.84375 -15.109375 L 2.109375 -15.078125 C 2.785156 -15.046875 3.332031 -15.03125 3.75 -15.03125 C 4.21875 -15.03125 4.804688 -15.046875 5.515625 -15.078125 L 6.640625 -15.109375 C 6.691406 -15.109375 6.71875 -15.054688 6.71875 -14.953125 C 6.71875 -14.859375 6.691406 -14.8125 6.640625 -14.8125 C 6.015625 -14.8125 5.554688 -14.765625 5.265625 -14.671875 C 4.972656 -14.585938 4.78125 -14.429688 4.6875 -14.203125 C 4.59375 -13.984375 4.546875 -13.632812 4.546875 -13.15625 L 4.546875 -1.859375 L 14.96875 -15.234375 C 15.007812 -15.273438 15.097656 -15.296875 15.234375 -15.296875 C 15.472656 -15.296875 15.59375 -15.238281 15.59375 -15.125 L 15.59375 -1.953125 C 15.59375 -1.472656 15.644531 -1.113281 15.75 -0.875 C 15.851562 -0.644531 16.050781 -0.488281 16.34375 -0.40625 C 16.632812 -0.332031 17.082031 -0.296875 17.6875 -0.296875 Z M 17.6875 -0.296875 "></path></g></g></g><g fill="#000000" fill-opacity="1"><g transform="translate(153.67037, 21.53185)"><g><path d="M 17.453125 -0.296875 C 17.503906 -0.296875 17.53125 -0.242188 17.53125 -0.140625 C 17.53125 -0.046875 17.503906 0 17.453125 0 C 16.953125 0 16.554688 -0.0078125 16.265625 -0.03125 L 14.59375 -0.046875 L 12.8125 -0.03125 C 12.539062 -0.0078125 12.160156 0 11.671875 0 C 11.628906 0 11.609375 -0.046875 11.609375 -0.140625 C 11.609375 -0.242188 11.628906 -0.296875 11.671875 -0.296875 C 12.304688 -0.296875 12.765625 -0.332031 13.046875 -0.40625 C 13.335938 -0.488281 13.535156 -0.644531 13.640625 -0.875 C 13.742188 -1.113281 13.796875 -1.472656 13.796875 -1.953125 L 13.796875 -7.609375 L 4.515625 -7.609375 L 4.515625 -1.953125 C 4.515625 -1.472656 4.566406 -1.113281 4.671875 -0.875 C 4.773438 -0.644531 4.972656 -0.488281 5.265625 -0.40625 C 5.554688 -0.332031 6.015625 -0.296875 6.640625 -0.296875 C 6.679688 -0.296875 6.703125 -0.242188 6.703125 -0.140625 C 6.703125 -0.046875 6.679688 0 6.640625 0 C 6.140625 0 5.75 -0.0078125 5.46875 -0.03125 L 3.71875 -0.046875 L 2.046875 -0.03125 C 1.765625 -0.0078125 1.363281 0 0.84375 0 C 0.8125 0 0.796875 -0.046875 0.796875 -0.140625 C 0.796875 -0.242188 0.8125 -0.296875 0.84375 -0.296875 C 1.457031 -0.296875 1.910156 -0.332031 2.203125 -0.40625 C 2.503906 -0.488281 2.707031 -0.644531 2.8125 -0.875 C 2.914062 -1.113281 2.96875 -1.472656 2.96875 -1.953125 L 2.96875 -13.15625 C 2.96875 -13.632812 2.914062 -13.984375 2.8125 -14.203125 C 2.707031 -14.429688 2.507812 -14.585938 2.21875 -14.671875 C 1.925781 -14.765625 1.476562 -14.8125 0.875 -14.8125 C 0.84375 -14.8125 0.828125 -14.859375 0.828125 -14.953125 C 0.828125 -15.054688 0.84375 -15.109375 0.875 -15.109375 L 2.109375 -15.078125 C 2.785156 -15.046875 3.320312 -15.03125 3.71875 -15.03125 C 4.1875 -15.03125 4.773438 -15.046875 5.484375 -15.078125 L 6.640625 -15.109375 C 6.679688 -15.109375 6.703125 -15.054688 6.703125 -14.953125 C 6.703125 -14.859375 6.679688 -14.8125 6.640625 -14.8125 C 6.035156 -14.8125 5.582031 -14.765625 5.28125 -14.671875 C 4.976562 -14.578125 4.773438 -14.410156 4.671875 -14.171875 C 4.566406 -13.941406 4.515625 -13.582031 4.515625 -13.09375 L 4.515625 -8.125 L 13.796875 -8.125 L 13.796875 -13.09375 C 13.796875 -13.582031 13.742188 -13.941406 13.640625 -14.171875 C 13.535156 -14.410156 13.335938 -14.578125 13.046875 -14.671875 C 12.765625 -14.765625 12.304688 -14.8125 11.671875 -14.8125 C 11.628906 -14.8125 11.609375 -14.859375 11.609375 -14.953125 C 11.609375 -15.054688 11.628906 -15.109375 11.671875 -15.109375 L 12.8125 -15.078125 C 13.519531 -15.046875 14.113281 -15.03125 14.59375 -15.03125 C 15.03125 -15.03125 15.585938 -15.046875 16.265625 -15.078125 L 17.453125 -15.109375 C 17.503906 -15.109375 17.53125 -15.054688 17.53125 -14.953125 C 17.53125 -14.859375 17.503906 -14.8125 17.453125 -14.8125 C 16.835938 -14.8125 16.382812 -14.765625 16.09375 -14.671875 C 15.800781 -14.585938 15.601562 -14.429688 15.5 -14.203125 C 15.394531 -13.984375 15.34375 -13.632812 15.34375 -13.15625 L 15.34375 -1.953125 C 15.34375 -1.472656 15.394531 -1.113281 15.5 -0.875 C 15.601562 -0.644531 15.800781 -0.488281 16.09375 -0.40625 C 16.382812 -0.332031 16.835938 -0.296875 17.453125 -0.296875 Z M 17.453125 -0.296875 "></path></g></g></g><g fill="#000000" fill-opacity="1"><g transform="translate(172.015098, 21.53185)"><g></g></g></g><g fill="#000000" fill-opacity="1"><g transform="translate(177.670801, 21.53185)"><g><path d="M 15.65625 -0.296875 C 15.695312 -0.296875 15.71875 -0.242188 15.71875 -0.140625 C 15.71875 -0.046875 15.695312 0 15.65625 0 L 12.625 0 C 12.394531 0 12.191406 -0.0546875 12.015625 -0.171875 C 11.847656 -0.296875 11.570312 -0.613281 11.1875 -1.125 C 10.800781 -1.644531 10.109375 -2.625 9.109375 -4.0625 C 8.316406 -5.1875 7.742188 -5.96875 7.390625 -6.40625 C 7.035156 -6.84375 6.671875 -7.148438 6.296875 -7.328125 C 5.929688 -7.515625 5.4375 -7.609375 4.8125 -7.609375 C 4.664062 -7.609375 4.5625 -7.601562 4.5 -7.59375 L 4.5 -1.953125 C 4.5 -1.472656 4.550781 -1.113281 4.65625 -0.875 C 4.757812 -0.644531 4.953125 -0.488281 5.234375 -0.40625 C 5.515625 -0.332031 5.96875 -0.296875 6.59375 -0.296875 C 6.625 -0.296875 6.640625 -0.242188 6.640625 -0.140625 C 6.640625 -0.046875 6.625 0 6.59375 0 C 6.09375 0 5.703125 -0.0078125 5.421875 -0.03125 L 3.671875 -0.046875 L 2.03125 -0.03125 C 1.738281 -0.0078125 1.335938 0 0.828125 0 C 0.796875 0 0.78125 -0.046875 0.78125 -0.140625 C 0.78125 -0.242188 0.796875 -0.296875 0.828125 -0.296875 C 1.429688 -0.296875 1.878906 -0.332031 2.171875 -0.40625 C 2.460938 -0.488281 2.660156 -0.644531 2.765625 -0.875 C 2.867188 -1.113281 2.921875 -1.472656 2.921875 -1.953125 L 2.921875 -13.15625 C 2.921875 -13.632812 2.867188 -13.984375 2.765625 -14.203125 C 2.660156 -14.429688 2.46875 -14.585938 2.1875 -14.671875 C 1.90625 -14.765625 1.457031 -14.8125 0.84375 -14.8125 C 0.8125 -14.8125 0.796875 -14.859375 0.796875 -14.953125 C 0.796875 -15.054688 0.8125 -15.109375 0.84375 -15.109375 L 2.03125 -15.078125 C 2.707031 -15.046875 3.253906 -15.03125 3.671875 -15.03125 C 4.140625 -15.03125 4.726562 -15.046875 5.4375 -15.078125 L 6.59375 -15.109375 C 6.625 -15.109375 6.640625 -15.054688 6.640625 -14.953125 C 6.640625 -14.859375 6.625 -14.8125 6.59375 -14.8125 C 5.988281 -14.8125 5.539062 -14.765625 5.25 -14.671875 C 4.957031 -14.578125 4.757812 -14.410156 4.65625 -14.171875 C 4.550781 -13.941406 4.5 -13.582031 4.5 -13.09375 L 4.5 -8 C 5.363281 -8.03125 5.898438 -8.046875 6.109375 -8.046875 L 6.578125 -8.046875 L 9.5 -12.140625 C 10.226562 -13.140625 10.59375 -13.832031 10.59375 -14.21875 C 10.59375 -14.425781 10.488281 -14.578125 10.28125 -14.671875 C 10.082031 -14.765625 9.773438 -14.8125 9.359375 -14.8125 C 9.328125 -14.8125 9.3125 -14.859375 9.3125 -14.953125 C 9.3125 -15.054688 9.328125 -15.109375 9.359375 -15.109375 L 10.390625 -15.078125 C 11.003906 -15.046875 11.578125 -15.03125 12.109375 -15.03125 C 12.660156 -15.03125 13.222656 -15.046875 13.796875 -15.078125 L 14.671875 -15.109375 C 14.722656 -15.109375 14.75 -15.054688 14.75 -14.953125 C 14.75 -14.859375 14.722656 -14.8125 14.671875 -14.8125 C 13.835938 -14.8125 13.097656 -14.601562 12.453125 -14.1875 C 11.804688 -13.78125 11.113281 -13.085938 10.375 -12.109375 L 7.125 -7.984375 C 7.550781 -7.910156 7.914062 -7.757812 8.21875 -7.53125 C 8.519531 -7.3125 8.816406 -7.007812 9.109375 -6.625 C 9.398438 -6.25 9.910156 -5.554688 10.640625 -4.546875 C 11.390625 -3.484375 12 -2.664062 12.46875 -2.09375 C 12.9375 -1.53125 13.425781 -1.09375 13.9375 -0.78125 C 14.457031 -0.46875 15.03125 -0.304688 15.65625 -0.296875 Z M 15.65625 -0.296875 "></path></g></g></g><g fill="#000000" fill-opacity="1"><g transform="translate(193.550258, 21.53185)"><g><path d="M 16.890625 -0.296875 C 16.960938 -0.296875 17 -0.242188 17 -0.140625 C 17 -0.046875 16.960938 0 16.890625 0 C 16.585938 0 16.113281 -0.015625 15.46875 -0.046875 C 14.820312 -0.078125 14.351562 -0.09375 14.0625 -0.09375 C 13.707031 -0.09375 13.257812 -0.078125 12.71875 -0.046875 C 12.195312 -0.015625 11.800781 0 11.53125 0 C 11.46875 0 11.4375 -0.046875 11.4375 -0.140625 C 11.4375 -0.242188 11.46875 -0.296875 11.53125 -0.296875 C 12.125 -0.296875 12.554688 -0.347656 12.828125 -0.453125 C 13.109375 -0.566406 13.25 -0.765625 13.25 -1.046875 C 13.25 -1.265625 13.144531 -1.609375 12.9375 -2.078125 L 10.78125 -6.640625 L 5.03125 -6.640625 L 3.5 -3.0625 C 3.28125 -2.519531 3.171875 -2.078125 3.171875 -1.734375 C 3.171875 -1.234375 3.363281 -0.867188 3.75 -0.640625 C 4.144531 -0.410156 4.738281 -0.296875 5.53125 -0.296875 C 5.613281 -0.296875 5.65625 -0.242188 5.65625 -0.140625 C 5.65625 -0.046875 5.613281 0 5.53125 0 C 5.238281 0 4.820312 -0.015625 4.28125 -0.046875 C 3.664062 -0.078125 3.132812 -0.09375 2.6875 -0.09375 C 2.257812 -0.09375 1.773438 -0.078125 1.234375 -0.046875 C 0.742188 -0.015625 0.34375 0 0.03125 0 C -0.0507812 0 -0.09375 -0.046875 -0.09375 -0.140625 C -0.09375 -0.242188 -0.0507812 -0.296875 0.03125 -0.296875 C 0.476562 -0.296875 0.859375 -0.378906 1.171875 -0.546875 C 1.484375 -0.710938 1.78125 -1.007812 2.0625 -1.4375 C 2.34375 -1.863281 2.65625 -2.476562 3 -3.28125 L 8.09375 -15.328125 C 8.125 -15.367188 8.179688 -15.390625 8.265625 -15.390625 C 8.347656 -15.390625 8.394531 -15.367188 8.40625 -15.328125 L 14.109375 -3.3125 C 14.660156 -2.113281 15.128906 -1.3125 15.515625 -0.90625 C 15.898438 -0.5 16.359375 -0.296875 16.890625 -0.296875 Z M 5.21875 -7.125 L 10.5625 -7.125 L 7.734375 -13.09375 Z M 5.21875 -7.125 "></path></g></g></g><g fill="#000000" fill-opacity="1"><g transform="translate(210.517319, 21.53185)"><g><path d="M 16.890625 -0.296875 C 16.960938 -0.296875 17 -0.242188 17 -0.140625 C 17 -0.046875 16.960938 0 16.890625 0 C 16.585938 0 16.113281 -0.015625 15.46875 -0.046875 C 14.820312 -0.078125 14.351562 -0.09375 14.0625 -0.09375 C 13.707031 -0.09375 13.257812 -0.078125 12.71875 -0.046875 C 12.195312 -0.015625 11.800781 0 11.53125 0 C 11.46875 0 11.4375 -0.046875 11.4375 -0.140625 C 11.4375 -0.242188 11.46875 -0.296875 11.53125 -0.296875 C 12.125 -0.296875 12.554688 -0.347656 12.828125 -0.453125 C 13.109375 -0.566406 13.25 -0.765625 13.25 -1.046875 C 13.25 -1.265625 13.144531 -1.609375 12.9375 -2.078125 L 7.734375 -13.09375 L 3.5 -3.0625 C 3.28125 -2.519531 3.171875 -2.078125 3.171875 -1.734375 C 3.171875 -1.234375 3.363281 -0.867188 3.75 -0.640625 C 4.144531 -0.410156 4.738281 -0.296875 5.53125 -0.296875 C 5.613281 -0.296875 5.65625 -0.242188 5.65625 -0.140625 C 5.65625 -0.046875 5.613281 0 5.53125 0 C 5.238281 0 4.820312 -0.015625 4.28125 -0.046875 C 3.664062 -0.078125 3.132812 -0.09375 2.6875 -0.09375 C 2.257812 -0.09375 1.773438 -0.078125 1.234375 -0.046875 C 0.742188 -0.015625 0.34375 0 0.03125 0 C -0.0507812 0 -0.09375 -0.046875 -0.09375 -0.140625 C -0.09375 -0.242188 -0.0507812 -0.296875 0.03125 -0.296875 C 0.476562 -0.296875 0.859375 -0.378906 1.171875 -0.546875 C 1.484375 -0.710938 1.78125 -1.007812 2.0625 -1.4375 C 2.34375 -1.863281 2.65625 -2.476562 3 -3.28125 L 8.09375 -15.328125 C 8.125 -15.367188 8.179688 -15.390625 8.265625 -15.390625 C 8.347656 -15.390625 8.394531 -15.367188 8.40625 -15.328125 L 14.109375 -3.3125 C 14.660156 -2.113281 15.128906 -1.3125 15.515625 -0.90625 C 15.898438 -0.5 16.359375 -0.296875 16.890625 -0.296875 Z M 16.890625 -0.296875 "></path></g></g></g><g fill="#000000" fill-opacity="1"><g transform="translate(227.484379, 21.53185)"><g><path d="M 16.25 -0.5625 C 16.375 -0.5625 16.445312 -0.546875 16.46875 -0.515625 C 16.5 -0.492188 16.515625 -0.421875 16.515625 -0.296875 C 16.515625 -0.210938 16.5 0.00390625 16.46875 0.359375 C 16.351562 1.265625 16.296875 2.382812 16.296875 3.71875 C 16.296875 3.800781 16.242188 3.84375 16.140625 3.84375 C 16.046875 3.84375 16 3.800781 16 3.71875 C 16 2.425781 15.679688 1.484375 15.046875 0.890625 C 14.421875 0.296875 13.394531 0 11.96875 0 L 4.59375 0 C 2.320312 0 1.1875 1.238281 1.1875 3.71875 C 1.1875 3.800781 1.140625 3.84375 1.046875 3.84375 C 0.960938 3.84375 0.921875 3.800781 0.921875 3.71875 C 0.921875 2.414062 0.851562 1.378906 0.71875 0.609375 C 0.675781 0.296875 0.65625 -0.00390625 0.65625 -0.296875 C 0.65625 -0.421875 0.671875 -0.492188 0.703125 -0.515625 C 0.734375 -0.546875 0.804688 -0.5625 0.921875 -0.5625 L 2.4375 -0.5625 L 8.484375 -15.328125 C 8.503906 -15.367188 8.554688 -15.390625 8.640625 -15.390625 C 8.734375 -15.390625 8.785156 -15.367188 8.796875 -15.328125 L 14.9375 -0.5625 Z M 3.0625 -0.5625 L 13.25 -0.5625 L 8.125 -12.9375 Z M 3.0625 -0.5625 "></path></g></g></g><g fill="#000000" fill-opacity="1"><g transform="translate(244.644831, 21.53185)"><g><path d="M 7.421875 -8.53125 C 8.953125 -8.53125 10.144531 -8.222656 11 -7.609375 C 11.851562 -7.003906 12.28125 -5.988281 12.28125 -4.5625 C 12.28125 -3.644531 12.070312 -2.832031 11.65625 -2.125 C 11.25 -1.414062 10.675781 -0.867188 9.9375 -0.484375 C 9.195312 -0.0976562 8.347656 0.09375 7.390625 0.09375 C 6.972656 0.09375 6.472656 0.0703125 5.890625 0.03125 C 5.671875 0.0078125 5.382812 -0.00390625 5.03125 -0.015625 C 4.6875 -0.0351562 4.304688 -0.046875 3.890625 -0.046875 L 2.296875 -0.03125 C 1.992188 -0.0078125 1.578125 0 1.046875 0 C 1.003906 0 0.984375 -0.046875 0.984375 -0.140625 C 0.984375 -0.242188 1.003906 -0.296875 1.046875 -0.296875 C 1.648438 -0.304688 2.097656 -0.351562 2.390625 -0.4375 C 2.679688 -0.519531 2.878906 -0.671875 2.984375 -0.890625 C 3.085938 -1.117188 3.140625 -1.472656 3.140625 -1.953125 L 3.140625 -13.15625 C 3.140625 -13.632812 3.09375 -13.984375 3 -14.203125 C 2.90625 -14.429688 2.710938 -14.585938 2.421875 -14.671875 C 2.140625 -14.753906 1.695312 -14.800781 1.09375 -14.8125 C 1.039062 -14.8125 1.015625 -14.859375 1.015625 -14.953125 C 1.015625 -15.054688 1.039062 -15.109375 1.09375 -15.109375 L 2.25 -15.078125 C 2.894531 -15.046875 3.441406 -15.03125 3.890625 -15.03125 C 4.359375 -15.03125 4.945312 -15.046875 5.65625 -15.078125 L 6.84375 -15.109375 C 6.875 -15.109375 6.890625 -15.054688 6.890625 -14.953125 C 6.890625 -14.859375 6.875 -14.8125 6.84375 -14.8125 C 6.207031 -14.800781 5.742188 -14.753906 5.453125 -14.671875 C 5.171875 -14.585938 4.976562 -14.425781 4.875 -14.1875 C 4.769531 -13.957031 4.71875 -13.59375 4.71875 -13.09375 L 4.71875 -8.265625 C 5.632812 -8.441406 6.535156 -8.53125 7.421875 -8.53125 Z M 19.40625 -0.296875 C 19.457031 -0.296875 19.484375 -0.242188 19.484375 -0.140625 C 19.484375 -0.046875 19.457031 0 19.40625 0 C 18.925781 0 18.539062 -0.0078125 18.25 -0.03125 L 16.53125 -0.046875 L 14.859375 -0.03125 C 14.578125 -0.0078125 14.1875 0 13.6875 0 C 13.632812 0 13.609375 -0.046875 13.609375 -0.140625 C 13.609375 -0.242188 13.632812 -0.296875 13.6875 -0.296875 C 14.289062 -0.296875 14.734375 -0.332031 15.015625 -0.40625 C 15.304688 -0.488281 15.503906 -0.644531 15.609375 -0.875 C 15.710938 -1.113281 15.765625 -1.472656 15.765625 -1.953125 L 15.765625 -13.15625 C 15.765625 -13.632812 15.710938 -13.984375 15.609375 -14.203125 C 15.503906 -14.429688 15.304688 -14.585938 15.015625 -14.671875 C 14.734375 -14.765625 14.289062 -14.8125 13.6875 -14.8125 C 13.632812 -14.8125 13.609375 -14.859375 13.609375 -14.953125 C 13.609375 -15.054688 13.632812 -15.109375 13.6875 -15.109375 L 14.859375 -15.078125 C 15.535156 -15.046875 16.09375 -15.03125 16.53125 -15.03125 C 17.019531 -15.03125 17.601562 -15.046875 18.28125 -15.078125 L 19.40625 -15.109375 C 19.457031 -15.109375 19.484375 -15.054688 19.484375 -14.953125 C 19.484375 -14.859375 19.457031 -14.8125 19.40625 -14.8125 C 18.8125 -14.8125 18.375 -14.765625 18.09375 -14.671875 C 17.8125 -14.578125 17.617188 -14.410156 17.515625 -14.171875 C 17.410156 -13.941406 17.359375 -13.582031 17.359375 -13.09375 L 17.359375 -1.953125 C 17.359375 -1.472656 17.40625 -1.113281 17.5 -0.875 C 17.59375 -0.644531 17.78125 -0.488281 18.0625 -0.40625 C 18.34375 -0.332031 18.789062 -0.296875 19.40625 -0.296875 Z M 6.90625 -0.34375 C 8.21875 -0.34375 9.160156 -0.632812 9.734375 -1.21875 C 10.304688 -1.8125 10.59375 -2.734375 10.59375 -3.984375 C 10.59375 -5.429688 10.269531 -6.46875 9.625 -7.09375 C 8.976562 -7.726562 8.039062 -8.046875 6.8125 -8.046875 C 6.1875 -8.046875 5.488281 -7.96875 4.71875 -7.8125 L 4.71875 -1.953125 C 4.71875 -1.390625 4.859375 -0.976562 5.140625 -0.71875 C 5.429688 -0.46875 6.019531 -0.34375 6.90625 -0.34375 Z M 6.90625 -0.34375 "></path></g></g></g><g fill="#000000" fill-opacity="1"><g transform="translate(265.213171, 21.53185)"><g><path d="M 2.390625 -6.53125 C 2.066406 -6.53125 1.804688 -6.625 1.609375 -6.8125 C 1.421875 -7.007812 1.328125 -7.269531 1.328125 -7.59375 C 1.328125 -7.894531 1.421875 -8.132812 1.609375 -8.3125 C 1.804688 -8.488281 2.066406 -8.578125 2.390625 -8.578125 C 2.734375 -8.578125 2.992188 -8.488281 3.171875 -8.3125 C 3.359375 -8.132812 3.453125 -7.894531 3.453125 -7.59375 C 3.453125 -7.269531 3.359375 -7.007812 3.171875 -6.8125 C 2.992188 -6.625 2.734375 -6.53125 2.390625 -6.53125 Z M 2.390625 0.265625 C 2.066406 0.265625 1.804688 0.171875 1.609375 -0.015625 C 1.421875 -0.210938 1.328125 -0.472656 1.328125 -0.796875 C 1.328125 -1.097656 1.421875 -1.335938 1.609375 -1.515625 C 1.804688 -1.691406 2.066406 -1.78125 2.390625 -1.78125 C 2.734375 -1.78125 2.992188 -1.691406 3.171875 -1.515625 C 3.359375 -1.335938 3.453125 -1.097656 3.453125 -0.796875 C 3.453125 -0.472656 3.359375 -0.210938 3.171875 -0.015625 C 2.992188 0.171875 2.734375 0.265625 2.390625 0.265625 Z M 2.390625 0.265625 "></path></g></g></g></g></g></svg> 