<?xml version="1.0" encoding="UTF-8"?> <svg xmlns="http://www.w3.org/2000/svg" xmlns:xlink="http://www.w3.org/1999/xlink" width="360" zoomAndPan="magnify" viewBox="0 0 270 359.999987" height="480" preserveAspectRatio="xMidYMid meet" version="1.0"><defs><g></g><clipPath id="cae3460672"><path d="M 0.121094 40 L 16 40 L 16 58 L 0.121094 58 Z M 0.121094 40 " clip-rule="nonzero"></path></clipPath><clipPath id="17cfaf4025"><rect x="0" width="192" y="0" height="64"></rect></clipPath></defs><g transform="matrix(1, 0, 0, 1, 39, 12)"><g clip-path="url(#17cfaf4025)"><g fill="#143578" fill-opacity="1"><g transform="translate(6.578328, 25.010744)"><g><path d="M 8.03125 -16.25 C 9.789062 -16.257812 11.171875 -15.945312 12.171875 -15.3125 C 13.171875 -14.6875 13.671875 -13.765625 13.671875 -12.546875 C 13.671875 -12.328125 13.664062 -12.15625 13.65625 -12.03125 C 13.5625 -11.3125 13.226562 -10.65625 12.65625 -10.0625 C 12.082031 -9.476562 11.273438 -9.046875 10.234375 -8.765625 L 10.234375 -8.75 C 11.679688 -8.519531 12.753906 -8.023438 13.453125 -7.265625 C 14.160156 -6.503906 14.488281 -5.617188 14.4375 -4.609375 C 14.363281 -3.140625 13.789062 -2.003906 12.71875 -1.203125 C 11.65625 -0.398438 10.289062 0 8.625 0 L 0.8125 0 L 0.90625 -1.53125 C 1.300781 -1.539062 1.609375 -1.585938 1.828125 -1.671875 C 2.054688 -1.765625 2.238281 -1.945312 2.375 -2.21875 C 2.519531 -2.5 2.609375 -2.941406 2.640625 -3.546875 L 3.09375 -12.40625 C 3.144531 -13.28125 3.21875 -13.972656 3.3125 -14.484375 L 1.578125 -14.421875 L 1.671875 -16.203125 Z M 7.9375 -14.625 C 7.613281 -14.625 7.347656 -14.582031 7.140625 -14.5 C 6.941406 -14.425781 6.773438 -14.242188 6.640625 -13.953125 C 6.515625 -13.671875 6.4375 -13.25 6.40625 -12.6875 L 6.21875 -9.09375 L 7.421875 -9.125 C 8.398438 -9.132812 9.101562 -9.445312 9.53125 -10.0625 C 9.96875 -10.675781 10.1875 -11.472656 10.1875 -12.453125 C 10.1875 -13.203125 9.96875 -13.75 9.53125 -14.09375 C 9.101562 -14.445312 8.570312 -14.625 7.9375 -14.625 Z M 8 -7.46875 C 7.15625 -7.46875 6.53125 -7.460938 6.125 -7.453125 L 5.953125 -3.671875 C 5.898438 -2.847656 5.828125 -2.171875 5.734375 -1.640625 C 6.753906 -1.640625 7.507812 -1.648438 8 -1.671875 C 8.945312 -1.710938 9.660156 -2.019531 10.140625 -2.59375 C 10.617188 -3.175781 10.859375 -3.945312 10.859375 -4.90625 C 10.859375 -5.800781 10.585938 -6.453125 10.046875 -6.859375 C 9.503906 -7.265625 8.820312 -7.46875 8 -7.46875 Z M 8 -7.46875 "></path></g></g></g><g fill="#143578" fill-opacity="1"><g transform="translate(21.821984, 25.010744)"><g><path d="M 7.40625 -7.59375 C 8.457031 -7.59375 9.3125 -7.316406 9.96875 -6.765625 C 10.632812 -6.222656 10.96875 -5.394531 10.96875 -4.28125 C 10.96875 -3.382812 10.75 -2.59375 10.3125 -1.90625 C 9.882812 -1.21875 9.273438 -0.6875 8.484375 -0.3125 C 7.703125 0.0507812 6.800781 0.234375 5.78125 0.234375 C 4.5625 0.234375 3.644531 -0.046875 3.03125 -0.609375 C 2.414062 -1.171875 2.109375 -1.925781 2.109375 -2.875 C 2.109375 -3.007812 2.125 -3.203125 2.15625 -3.453125 C 2.34375 -4.941406 2.488281 -6.035156 2.59375 -6.734375 C 2.625 -7.023438 2.671875 -7.429688 2.734375 -7.953125 C 2.804688 -8.484375 2.84375 -8.863281 2.84375 -9.09375 C 2.84375 -9.476562 2.742188 -9.671875 2.546875 -9.671875 C 2.097656 -9.671875 1.710938 -9.0625 1.390625 -7.84375 L 0.140625 -8.21875 C 0.398438 -9.1875 0.832031 -10.03125 1.4375 -10.75 C 2.039062 -11.46875 2.785156 -11.828125 3.671875 -11.828125 C 5.109375 -11.828125 5.828125 -10.953125 5.828125 -9.203125 C 5.828125 -8.878906 5.804688 -8.539062 5.765625 -8.1875 L 5.625 -7.25 C 6.226562 -7.476562 6.820312 -7.59375 7.40625 -7.59375 Z M 17.765625 -3.359375 C 17.660156 -2.859375 17.453125 -2.328125 17.140625 -1.765625 C 16.835938 -1.203125 16.4375 -0.722656 15.9375 -0.328125 C 15.4375 0.0546875 14.867188 0.25 14.234375 0.25 C 13.628906 0.25 13.125 0.0703125 12.71875 -0.28125 C 12.3125 -0.632812 12.109375 -1.234375 12.109375 -2.078125 C 12.109375 -2.578125 12.191406 -3.503906 12.359375 -4.859375 C 12.648438 -7.078125 12.796875 -8.835938 12.796875 -10.140625 C 12.796875 -10.785156 12.78125 -11.265625 12.75 -11.578125 L 15.84375 -11.578125 C 15.894531 -11.140625 15.921875 -10.765625 15.921875 -10.453125 C 15.921875 -9.960938 15.863281 -9.242188 15.75 -8.296875 C 15.644531 -7.347656 15.53125 -6.414062 15.40625 -5.5 C 15.175781 -3.820312 15.0625 -2.820312 15.0625 -2.5 C 15.0625 -2.09375 15.171875 -1.890625 15.390625 -1.890625 C 15.785156 -1.890625 16.15625 -2.5 16.5 -3.71875 Z M 8.28125 -3.984375 C 8.28125 -5.429688 7.753906 -6.15625 6.703125 -6.15625 C 6.316406 -6.15625 5.894531 -6.0625 5.4375 -5.875 L 5.140625 -3.671875 C 5.109375 -3.492188 5.09375 -3.25 5.09375 -2.9375 C 5.09375 -2.414062 5.191406 -2.035156 5.390625 -1.796875 C 5.585938 -1.554688 5.90625 -1.4375 6.34375 -1.4375 C 7.632812 -1.4375 8.28125 -2.285156 8.28125 -3.984375 Z M 8.28125 -3.984375 "></path></g></g></g><g fill="#143578" fill-opacity="1"><g transform="translate(39.725763, 25.010744)"><g><path d="M 5.625 0.25 C 4.1875 0.25 3.03125 -0.320312 2.15625 -1.46875 C 1.289062 -2.613281 0.859375 -4.269531 0.859375 -6.4375 C 0.859375 -6.789062 0.863281 -7.0625 0.875 -7.25 C 0.957031 -9.050781 1.25 -10.628906 1.75 -11.984375 C 2.257812 -13.335938 3.132812 -14.414062 4.375 -15.21875 C 4.957031 -15.613281 5.546875 -15.890625 6.140625 -16.046875 C 6.734375 -16.210938 7.460938 -16.363281 8.328125 -16.5 C 9.148438 -16.601562 9.722656 -16.726562 10.046875 -16.875 C 10.242188 -16.96875 10.40625 -17.070312 10.53125 -17.1875 C 10.664062 -17.3125 10.832031 -17.519531 11.03125 -17.8125 L 12.0625 -17.453125 C 11.820312 -16.648438 11.609375 -16.023438 11.421875 -15.578125 C 11.242188 -15.140625 11.035156 -14.804688 10.796875 -14.578125 C 10.566406 -14.347656 10.273438 -14.160156 9.921875 -14.015625 C 9.523438 -13.910156 8.898438 -13.828125 8.046875 -13.765625 C 7.515625 -13.722656 7.066406 -13.671875 6.703125 -13.609375 C 6.347656 -13.554688 6.003906 -13.476562 5.671875 -13.375 C 4.679688 -13.050781 3.894531 -12.453125 3.3125 -11.578125 C 2.726562 -10.710938 2.347656 -9.609375 2.171875 -8.265625 L 2.25 -8.265625 C 2.695312 -9.222656 3.320312 -9.9375 4.125 -10.40625 C 4.9375 -10.882812 5.8125 -11.132812 6.75 -11.15625 C 7.582031 -11.15625 8.359375 -10.960938 9.078125 -10.578125 C 9.796875 -10.203125 10.367188 -9.640625 10.796875 -8.890625 C 11.234375 -8.148438 11.453125 -7.253906 11.453125 -6.203125 C 11.453125 -4.921875 11.191406 -3.789062 10.671875 -2.8125 C 10.160156 -1.832031 9.460938 -1.078125 8.578125 -0.546875 C 7.691406 -0.015625 6.707031 0.25 5.625 0.25 Z M 6.046875 -1.265625 C 6.816406 -1.265625 7.363281 -1.65625 7.6875 -2.4375 C 8.007812 -3.21875 8.203125 -4.21875 8.265625 -5.4375 C 8.304688 -6.550781 8.1875 -7.523438 7.90625 -8.359375 C 7.632812 -9.191406 7.164062 -9.609375 6.5 -9.609375 C 5.851562 -9.609375 5.316406 -9.25 4.890625 -8.53125 C 4.472656 -7.820312 4.238281 -7.007812 4.1875 -6.09375 C 4.144531 -4.8125 4.273438 -3.6875 4.578125 -2.71875 C 4.890625 -1.75 5.378906 -1.265625 6.046875 -1.265625 Z M 6.046875 -1.265625 "></path></g></g></g><g fill="#143578" fill-opacity="1"><g transform="translate(52.101113, 25.010744)"><g><path d="M 6.484375 -11.828125 C 7.546875 -11.828125 8.390625 -11.585938 9.015625 -11.109375 C 9.640625 -10.628906 9.953125 -9.894531 9.953125 -8.90625 C 9.953125 -7.78125 9.363281 -6.929688 8.1875 -6.359375 C 7.019531 -5.785156 5.554688 -5.378906 3.796875 -5.140625 C 3.796875 -3.929688 3.992188 -3.082031 4.390625 -2.59375 C 4.796875 -2.113281 5.289062 -1.875 5.875 -1.875 C 6.40625 -1.875 6.945312 -2.03125 7.5 -2.34375 C 8.050781 -2.664062 8.515625 -3.25 8.890625 -4.09375 L 10.1875 -3.46875 C 9.5625 -2.050781 8.832031 -1.078125 8 -0.546875 C 7.164062 -0.015625 6.226562 0.25 5.1875 0.25 C 3.75 0.25 2.628906 -0.171875 1.828125 -1.015625 C 1.023438 -1.867188 0.625 -3.128906 0.625 -4.796875 C 0.625 -5.867188 0.835938 -6.945312 1.265625 -8.03125 C 1.703125 -9.113281 2.359375 -10.015625 3.234375 -10.734375 C 4.117188 -11.460938 5.203125 -11.828125 6.484375 -11.828125 Z M 6.21875 -10.296875 C 5.507812 -10.296875 4.96875 -9.941406 4.59375 -9.234375 C 4.21875 -8.523438 3.972656 -7.660156 3.859375 -6.640625 C 5.035156 -6.859375 5.894531 -7.1875 6.4375 -7.625 C 6.976562 -8.0625 7.25 -8.582031 7.25 -9.1875 C 7.25 -9.5625 7.144531 -9.835938 6.9375 -10.015625 C 6.726562 -10.203125 6.488281 -10.296875 6.21875 -10.296875 Z M 6.21875 -10.296875 "></path></g></g></g><g fill="#143578" fill-opacity="1"><g transform="translate(62.972918, 25.010744)"><g><path d="M 9.09375 -11.828125 C 10.1875 -11.828125 11.03125 -11.425781 11.625 -10.625 C 12.21875 -9.820312 12.515625 -8.75 12.515625 -7.40625 C 12.515625 -5.90625 12.269531 -4.582031 11.78125 -3.4375 C 11.300781 -2.289062 10.570312 -1.390625 9.59375 -0.734375 C 8.625 -0.078125 7.425781 0.25 6 0.25 C 5.664062 0.25 5.414062 0.242188 5.25 0.234375 L 5.15625 2.125 C 5.113281 2.894531 5.050781 3.59375 4.96875 4.21875 C 5.46875 4.164062 5.976562 4.140625 6.5 4.140625 L 6.5 5.90625 L 0.640625 5.90625 L 0.640625 4.390625 C 1.171875 4.390625 1.53125 4.21875 1.71875 3.875 C 1.914062 3.539062 2.046875 3.019531 2.109375 2.3125 C 2.648438 -3.519531 2.921875 -7.289062 2.921875 -9 C 2.921875 -9.445312 2.800781 -9.671875 2.5625 -9.671875 C 2.164062 -9.671875 1.796875 -9.0625 1.453125 -7.84375 L 0.203125 -8.21875 C 0.378906 -9.125 0.71875 -9.953125 1.21875 -10.703125 C 1.71875 -11.453125 2.414062 -11.828125 3.3125 -11.828125 C 3.882812 -11.828125 4.34375 -11.664062 4.6875 -11.34375 C 5.03125 -11.019531 5.203125 -10.476562 5.203125 -9.71875 C 5.203125 -9.269531 5.171875 -8.804688 5.109375 -8.328125 L 5.140625 -8.328125 C 5.628906 -9.597656 6.226562 -10.5 6.9375 -11.03125 C 7.644531 -11.5625 8.363281 -11.828125 9.09375 -11.828125 Z M 8.234375 -9.71875 C 7.484375 -9.71875 6.867188 -9.015625 6.390625 -7.609375 C 5.910156 -6.203125 5.5625 -4.132812 5.34375 -1.40625 C 5.664062 -1.3125 5.972656 -1.265625 6.265625 -1.265625 C 7.066406 -1.265625 7.695312 -1.613281 8.15625 -2.3125 C 8.625 -3.019531 8.941406 -3.835938 9.109375 -4.765625 C 9.285156 -5.703125 9.375 -6.570312 9.375 -7.375 C 9.375 -8.9375 8.992188 -9.71875 8.234375 -9.71875 Z M 8.234375 -9.71875 "></path></g></g></g><g fill="#143578" fill-opacity="1"><g transform="translate(76.273527, 25.010744)"><g><path d="M 3.46875 -11.828125 C 4.289062 -11.828125 4.863281 -11.609375 5.1875 -11.171875 C 5.507812 -10.742188 5.671875 -10.085938 5.671875 -9.203125 C 5.671875 -8.515625 5.5625 -7.335938 5.34375 -5.671875 C 5.15625 -4.191406 5.0625 -3.25 5.0625 -2.84375 C 5.0625 -2.507812 5.113281 -2.265625 5.21875 -2.109375 C 5.320312 -1.953125 5.488281 -1.875 5.71875 -1.875 C 6.132812 -1.875 6.582031 -2.3125 7.0625 -3.1875 C 7.550781 -4.070312 7.960938 -5.148438 8.296875 -6.421875 C 8.628906 -7.691406 8.796875 -8.851562 8.796875 -9.90625 C 8.796875 -10.644531 8.769531 -11.203125 8.71875 -11.578125 L 11.703125 -11.578125 C 11.753906 -11.140625 11.78125 -10.765625 11.78125 -10.453125 C 11.78125 -9.960938 11.722656 -9.242188 11.609375 -8.296875 C 11.503906 -7.347656 11.390625 -6.414062 11.265625 -5.5 C 11.035156 -3.820312 10.921875 -2.820312 10.921875 -2.5 C 10.921875 -2.09375 11.03125 -1.890625 11.25 -1.890625 C 11.644531 -1.890625 12.015625 -2.5 12.359375 -3.71875 L 13.609375 -3.359375 C 13.441406 -2.441406 13.109375 -1.609375 12.609375 -0.859375 C 12.117188 -0.117188 11.425781 0.25 10.53125 0.25 C 9.957031 0.25 9.488281 0.0859375 9.125 -0.234375 C 8.757812 -0.554688 8.578125 -1.09375 8.578125 -1.84375 C 8.578125 -2.125 8.59375 -2.40625 8.625 -2.6875 C 8.65625 -2.976562 8.679688 -3.203125 8.703125 -3.359375 L 8.671875 -3.359375 C 7.765625 -0.953125 6.5 0.25 4.875 0.25 C 3.925781 0.25 3.226562 -0.0625 2.78125 -0.6875 C 2.332031 -1.3125 2.109375 -2.1875 2.109375 -3.3125 C 2.109375 -3.800781 2.15625 -4.367188 2.25 -5.015625 C 2.34375 -5.671875 2.394531 -6.066406 2.40625 -6.203125 C 2.601562 -7.460938 2.703125 -8.421875 2.703125 -9.078125 C 2.703125 -9.472656 2.582031 -9.671875 2.34375 -9.671875 C 1.9375 -9.671875 1.5625 -9.0625 1.21875 -7.84375 L -0.015625 -8.21875 C 0.0664062 -8.726562 0.257812 -9.257812 0.5625 -9.8125 C 0.863281 -10.363281 1.257812 -10.835938 1.75 -11.234375 C 2.25 -11.628906 2.820312 -11.828125 3.46875 -11.828125 Z M 3.46875 -11.828125 "></path></g></g></g><g fill="#143578" fill-opacity="1"><g transform="translate(90.106164, 25.010744)"><g><path d="M 15.25 -11.828125 C 16.207031 -11.828125 16.910156 -11.515625 17.359375 -10.890625 C 17.816406 -10.265625 18.046875 -9.390625 18.046875 -8.265625 C 18.046875 -7.703125 17.953125 -6.742188 17.765625 -5.390625 C 17.566406 -4.128906 17.46875 -3.164062 17.46875 -2.5 C 17.46875 -2.09375 17.582031 -1.890625 17.8125 -1.890625 C 18.21875 -1.890625 18.585938 -2.5 18.921875 -3.71875 L 20.203125 -3.359375 C 20.097656 -2.847656 19.894531 -2.3125 19.59375 -1.75 C 19.289062 -1.195312 18.890625 -0.722656 18.390625 -0.328125 C 17.898438 0.0546875 17.332031 0.25 16.6875 0.25 C 15.863281 0.25 15.296875 0.0351562 14.984375 -0.390625 C 14.671875 -0.828125 14.515625 -1.484375 14.515625 -2.359375 C 14.515625 -3.054688 14.617188 -4.238281 14.828125 -5.90625 C 14.859375 -6.164062 14.910156 -6.613281 14.984375 -7.25 C 15.054688 -7.894531 15.09375 -8.382812 15.09375 -8.71875 C 15.09375 -9.070312 15.046875 -9.320312 14.953125 -9.46875 C 14.859375 -9.625 14.6875 -9.703125 14.4375 -9.703125 C 13.988281 -9.703125 13.519531 -9.269531 13.03125 -8.40625 C 12.550781 -7.550781 12.148438 -6.5 11.828125 -5.25 C 11.503906 -4 11.34375 -2.84375 11.34375 -1.78125 C 11.34375 -1.175781 11.363281 -0.582031 11.40625 0 L 8.421875 0 C 8.378906 -0.425781 8.359375 -0.941406 8.359375 -1.546875 C 8.359375 -2.460938 8.40625 -3.421875 8.5 -4.421875 C 8.601562 -5.421875 8.660156 -6 8.671875 -6.15625 C 8.816406 -7.40625 8.890625 -8.257812 8.890625 -8.71875 C 8.890625 -9.070312 8.835938 -9.320312 8.734375 -9.46875 C 8.628906 -9.625 8.460938 -9.703125 8.234375 -9.703125 C 7.785156 -9.703125 7.304688 -9.257812 6.796875 -8.375 C 6.296875 -7.5 5.875 -6.425781 5.53125 -5.15625 C 5.1875 -3.894531 5.015625 -2.734375 5.015625 -1.671875 C 5.015625 -1.296875 5.039062 -0.738281 5.09375 0 L 2.125 0 C 2.082031 -0.425781 2.0625 -0.796875 2.0625 -1.109375 C 2.0625 -1.597656 2.113281 -2.316406 2.21875 -3.265625 C 2.332031 -4.222656 2.445312 -5.15625 2.5625 -6.0625 C 2.59375 -6.34375 2.65625 -6.847656 2.75 -7.578125 C 2.84375 -8.304688 2.890625 -8.804688 2.890625 -9.078125 C 2.890625 -9.472656 2.78125 -9.671875 2.5625 -9.671875 C 2.164062 -9.671875 1.796875 -9.0625 1.453125 -7.84375 L 0.1875 -8.21875 C 0.382812 -9.144531 0.722656 -9.976562 1.203125 -10.71875 C 1.691406 -11.457031 2.382812 -11.828125 3.28125 -11.828125 C 3.851562 -11.828125 4.320312 -11.664062 4.6875 -11.34375 C 5.050781 -11.019531 5.234375 -10.476562 5.234375 -9.71875 C 5.234375 -9.425781 5.210938 -9.148438 5.171875 -8.890625 C 5.128906 -8.640625 5.101562 -8.453125 5.09375 -8.328125 L 5.109375 -8.328125 C 5.609375 -9.609375 6.210938 -10.507812 6.921875 -11.03125 C 7.628906 -11.5625 8.367188 -11.828125 9.140625 -11.828125 C 9.878906 -11.828125 10.441406 -11.59375 10.828125 -11.125 C 11.210938 -10.664062 11.40625 -10.007812 11.40625 -9.15625 C 11.40625 -8.800781 11.390625 -8.523438 11.359375 -8.328125 L 11.390625 -8.328125 C 12.296875 -10.660156 13.582031 -11.828125 15.25 -11.828125 Z M 15.25 -11.828125 "></path></g></g></g><g fill="#143578" fill-opacity="1"><g transform="translate(110.415611, 25.010744)"><g><path d="M 6.484375 -11.828125 C 7.546875 -11.828125 8.390625 -11.585938 9.015625 -11.109375 C 9.640625 -10.628906 9.953125 -9.894531 9.953125 -8.90625 C 9.953125 -7.78125 9.363281 -6.929688 8.1875 -6.359375 C 7.019531 -5.785156 5.554688 -5.378906 3.796875 -5.140625 C 3.796875 -3.929688 3.992188 -3.082031 4.390625 -2.59375 C 4.796875 -2.113281 5.289062 -1.875 5.875 -1.875 C 6.40625 -1.875 6.945312 -2.03125 7.5 -2.34375 C 8.050781 -2.664062 8.515625 -3.25 8.890625 -4.09375 L 10.1875 -3.46875 C 9.5625 -2.050781 8.832031 -1.078125 8 -0.546875 C 7.164062 -0.015625 6.226562 0.25 5.1875 0.25 C 3.75 0.25 2.628906 -0.171875 1.828125 -1.015625 C 1.023438 -1.867188 0.625 -3.128906 0.625 -4.796875 C 0.625 -5.867188 0.835938 -6.945312 1.265625 -8.03125 C 1.703125 -9.113281 2.359375 -10.015625 3.234375 -10.734375 C 4.117188 -11.460938 5.203125 -11.828125 6.484375 -11.828125 Z M 6.21875 -10.296875 C 5.507812 -10.296875 4.96875 -9.941406 4.59375 -9.234375 C 4.21875 -8.523438 3.972656 -7.660156 3.859375 -6.640625 C 5.035156 -6.859375 5.894531 -7.1875 6.4375 -7.625 C 6.976562 -8.0625 7.25 -8.582031 7.25 -9.1875 C 7.25 -9.5625 7.144531 -9.835938 6.9375 -10.015625 C 6.726562 -10.203125 6.488281 -10.296875 6.21875 -10.296875 Z M 6.21875 -10.296875 "></path></g></g></g><g fill="#143578" fill-opacity="1"><g transform="translate(121.287417, 25.010744)"><g></g></g></g><g fill="#143578" fill-opacity="1"><g transform="translate(127.371008, 25.010744)"><g><path d="M 13.953125 -3.359375 C 13.660156 -2.367188 13.21875 -1.519531 12.625 -0.8125 C 12.039062 -0.113281 11.25 0.238281 10.25 0.25 C 9.570312 0.25 9.070312 0.0351562 8.75 -0.390625 C 8.425781 -0.828125 8.265625 -1.429688 8.265625 -2.203125 C 8.265625 -2.410156 8.296875 -2.765625 8.359375 -3.265625 L 8.5 -4.234375 C 8.050781 -4.171875 7.609375 -4.125 7.171875 -4.09375 C 6.921875 -4.082031 6.722656 -4.03125 6.578125 -3.9375 C 6.429688 -3.851562 6.289062 -3.679688 6.15625 -3.421875 C 6.019531 -3.160156 5.863281 -2.753906 5.6875 -2.203125 C 5.414062 -1.316406 5.09375 -0.6875 4.71875 -0.3125 C 4.351562 0.0507812 3.859375 0.234375 3.234375 0.234375 C 1.785156 0.234375 0.785156 -0.710938 0.234375 -2.609375 L 1.390625 -3.03125 C 1.742188 -2.03125 2.117188 -1.53125 2.515625 -1.53125 C 2.703125 -1.53125 2.859375 -1.65625 2.984375 -1.90625 C 3.117188 -2.164062 3.257812 -2.59375 3.40625 -3.1875 C 3.613281 -4.039062 4.035156 -4.617188 4.671875 -4.921875 C 4.128906 -5.234375 3.703125 -5.648438 3.390625 -6.171875 C 3.078125 -6.703125 2.925781 -7.304688 2.9375 -7.984375 C 2.96875 -8.816406 3.257812 -9.523438 3.8125 -10.109375 C 4.375 -10.691406 5.070312 -11.125 5.90625 -11.40625 C 6.738281 -11.695312 7.59375 -11.84375 8.46875 -11.84375 C 9.144531 -11.84375 9.769531 -11.820312 10.34375 -11.78125 C 10.914062 -11.75 11.546875 -11.703125 12.234375 -11.640625 C 12.253906 -10.960938 12.203125 -10.101562 12.078125 -9.0625 C 11.953125 -8.019531 11.769531 -6.601562 11.53125 -4.8125 L 11.25 -2.734375 C 11.226562 -2.671875 11.21875 -2.578125 11.21875 -2.453125 C 11.21875 -2.078125 11.320312 -1.890625 11.53125 -1.890625 C 11.707031 -1.890625 11.90625 -2.050781 12.125 -2.375 C 12.351562 -2.707031 12.546875 -3.15625 12.703125 -3.71875 Z M 7.40625 -5.625 C 7.789062 -5.625 8.226562 -5.675781 8.71875 -5.78125 C 8.925781 -7.175781 9.0625 -8.421875 9.125 -9.515625 L 9.15625 -10.015625 C 8.757812 -10.109375 8.398438 -10.15625 8.078125 -10.15625 C 7.378906 -10.15625 6.8125 -9.929688 6.375 -9.484375 C 5.945312 -9.035156 5.734375 -8.410156 5.734375 -7.609375 C 5.734375 -6.992188 5.875 -6.507812 6.15625 -6.15625 C 6.445312 -5.800781 6.863281 -5.625 7.40625 -5.625 Z M 7.40625 -5.625 "></path></g></g></g><g fill="#143578" fill-opacity="1"><g transform="translate(141.458087, 25.010744)"><g><path d="M 4.84375 0.390625 C 3.957031 0.390625 3.171875 0.253906 2.484375 -0.015625 C 1.796875 -0.285156 1.257812 -0.640625 0.875 -1.078125 C 0.488281 -1.515625 0.296875 -1.976562 0.296875 -2.46875 C 0.296875 -2.914062 0.441406 -3.300781 0.734375 -3.625 C 1.035156 -3.957031 1.421875 -4.125 1.890625 -4.125 C 2.367188 -4.125 2.71875 -3.984375 2.9375 -3.703125 C 3.164062 -3.421875 3.28125 -3.085938 3.28125 -2.703125 C 3.28125 -2.429688 3.195312 -2.140625 3.03125 -1.828125 C 3.070312 -1.609375 3.269531 -1.410156 3.625 -1.234375 C 3.988281 -1.054688 4.363281 -0.96875 4.75 -0.96875 C 5.488281 -0.96875 6.054688 -1.175781 6.453125 -1.59375 C 6.859375 -2.007812 7.0625 -2.582031 7.0625 -3.3125 C 7.0625 -4.695312 6.304688 -5.390625 4.796875 -5.390625 C 4.347656 -5.390625 3.929688 -5.351562 3.546875 -5.28125 L 3.328125 -6.453125 C 4.242188 -6.648438 4.941406 -6.851562 5.421875 -7.0625 C 5.910156 -7.269531 6.25 -7.515625 6.4375 -7.796875 C 6.632812 -8.085938 6.734375 -8.457031 6.734375 -8.90625 C 6.734375 -9.4375 6.582031 -9.828125 6.28125 -10.078125 C 5.976562 -10.328125 5.585938 -10.453125 5.109375 -10.453125 C 4.804688 -10.453125 4.503906 -10.398438 4.203125 -10.296875 C 3.898438 -10.203125 3.6875 -10.070312 3.5625 -9.90625 C 3.695312 -9.769531 3.785156 -9.628906 3.828125 -9.484375 C 3.878906 -9.347656 3.90625 -9.15625 3.90625 -8.90625 C 3.90625 -8.582031 3.773438 -8.300781 3.515625 -8.0625 C 3.253906 -7.820312 2.921875 -7.703125 2.515625 -7.703125 C 2.117188 -7.703125 1.789062 -7.828125 1.53125 -8.078125 C 1.269531 -8.328125 1.140625 -8.660156 1.140625 -9.078125 C 1.140625 -9.546875 1.320312 -9.992188 1.6875 -10.421875 C 2.0625 -10.847656 2.578125 -11.191406 3.234375 -11.453125 C 3.890625 -11.710938 4.617188 -11.84375 5.421875 -11.84375 C 6.753906 -11.84375 7.8125 -11.609375 8.59375 -11.140625 C 9.375 -10.671875 9.765625 -10 9.765625 -9.125 C 9.765625 -7.882812 8.835938 -6.988281 6.984375 -6.4375 L 6.984375 -6.359375 C 8.066406 -6.253906 8.878906 -5.941406 9.421875 -5.421875 C 9.972656 -4.910156 10.25 -4.285156 10.25 -3.546875 C 10.25 -2.847656 10.0625 -2.203125 9.6875 -1.609375 C 9.3125 -1.015625 8.71875 -0.53125 7.90625 -0.15625 C 7.09375 0.207031 6.070312 0.390625 4.84375 0.390625 Z M 4.84375 0.390625 "></path></g></g></g><g fill="#143578" fill-opacity="1"><g transform="translate(152.653737, 25.010744)"><g><path d="M 7.40625 -7.59375 C 8.457031 -7.59375 9.3125 -7.316406 9.96875 -6.765625 C 10.632812 -6.222656 10.96875 -5.394531 10.96875 -4.28125 C 10.96875 -3.382812 10.75 -2.59375 10.3125 -1.90625 C 9.882812 -1.21875 9.273438 -0.6875 8.484375 -0.3125 C 7.703125 0.0507812 6.800781 0.234375 5.78125 0.234375 C 4.5625 0.234375 3.644531 -0.046875 3.03125 -0.609375 C 2.414062 -1.171875 2.109375 -1.925781 2.109375 -2.875 C 2.109375 -3.007812 2.125 -3.203125 2.15625 -3.453125 C 2.34375 -4.941406 2.488281 -6.035156 2.59375 -6.734375 C 2.625 -7.023438 2.671875 -7.429688 2.734375 -7.953125 C 2.804688 -8.484375 2.84375 -8.863281 2.84375 -9.09375 C 2.84375 -9.476562 2.742188 -9.671875 2.546875 -9.671875 C 2.097656 -9.671875 1.710938 -9.0625 1.390625 -7.84375 L 0.140625 -8.21875 C 0.398438 -9.1875 0.832031 -10.03125 1.4375 -10.75 C 2.039062 -11.46875 2.785156 -11.828125 3.671875 -11.828125 C 5.109375 -11.828125 5.828125 -10.953125 5.828125 -9.203125 C 5.828125 -8.878906 5.804688 -8.539062 5.765625 -8.1875 L 5.625 -7.25 C 6.226562 -7.476562 6.820312 -7.59375 7.40625 -7.59375 Z M 17.765625 -3.359375 C 17.660156 -2.859375 17.453125 -2.328125 17.140625 -1.765625 C 16.835938 -1.203125 16.4375 -0.722656 15.9375 -0.328125 C 15.4375 0.0546875 14.867188 0.25 14.234375 0.25 C 13.628906 0.25 13.125 0.0703125 12.71875 -0.28125 C 12.3125 -0.632812 12.109375 -1.234375 12.109375 -2.078125 C 12.109375 -2.578125 12.191406 -3.503906 12.359375 -4.859375 C 12.648438 -7.078125 12.796875 -8.835938 12.796875 -10.140625 C 12.796875 -10.785156 12.78125 -11.265625 12.75 -11.578125 L 15.84375 -11.578125 C 15.894531 -11.140625 15.921875 -10.765625 15.921875 -10.453125 C 15.921875 -9.960938 15.863281 -9.242188 15.75 -8.296875 C 15.644531 -7.347656 15.53125 -6.414062 15.40625 -5.5 C 15.175781 -3.820312 15.0625 -2.820312 15.0625 -2.5 C 15.0625 -2.09375 15.171875 -1.890625 15.390625 -1.890625 C 15.785156 -1.890625 16.15625 -2.5 16.5 -3.71875 Z M 8.28125 -3.984375 C 8.28125 -5.429688 7.753906 -6.15625 6.703125 -6.15625 C 6.316406 -6.15625 5.894531 -6.0625 5.4375 -5.875 L 5.140625 -3.671875 C 5.109375 -3.492188 5.09375 -3.25 5.09375 -2.9375 C 5.09375 -2.414062 5.191406 -2.035156 5.390625 -1.796875 C 5.585938 -1.554688 5.90625 -1.4375 6.34375 -1.4375 C 7.632812 -1.4375 8.28125 -2.285156 8.28125 -3.984375 Z M 8.28125 -3.984375 "></path></g></g></g><g fill="#143578" fill-opacity="1"><g transform="translate(170.55752, 25.010744)"><g><path d="M 13.984375 -3.359375 C 13.921875 -2.796875 13.753906 -2.238281 13.484375 -1.6875 C 13.222656 -1.132812 12.859375 -0.671875 12.390625 -0.296875 C 11.921875 0.0664062 11.363281 0.25 10.71875 0.25 C 9.207031 0.25 8.40625 -0.671875 8.3125 -2.515625 C 8.257812 -3.492188 8.132812 -4.191406 7.9375 -4.609375 C 7.738281 -5.035156 7.40625 -5.25 6.9375 -5.25 L 5.421875 -5.234375 C 5.234375 -3.722656 5.140625 -2.570312 5.140625 -1.78125 C 5.140625 -1.382812 5.160156 -0.789062 5.203125 0 L 2.125 0 C 2.082031 -0.3125 2.0625 -0.679688 2.0625 -1.109375 C 2.0625 -1.597656 2.113281 -2.316406 2.21875 -3.265625 C 2.332031 -4.222656 2.445312 -5.15625 2.5625 -6.0625 C 2.59375 -6.34375 2.65625 -6.847656 2.75 -7.578125 C 2.84375 -8.304688 2.890625 -8.804688 2.890625 -9.078125 C 2.890625 -9.304688 2.863281 -9.460938 2.8125 -9.546875 C 2.769531 -9.628906 2.6875 -9.671875 2.5625 -9.671875 C 2.164062 -9.671875 1.796875 -9.0625 1.453125 -7.84375 L 0.1875 -8.21875 C 0.289062 -8.726562 0.5 -9.257812 0.8125 -9.8125 C 1.132812 -10.363281 1.550781 -10.835938 2.0625 -11.234375 C 2.582031 -11.628906 3.179688 -11.828125 3.859375 -11.828125 C 5.203125 -11.828125 5.875 -10.929688 5.875 -9.140625 C 5.875 -8.722656 5.78125 -7.90625 5.59375 -6.6875 L 6.15625 -6.6875 C 6.757812 -6.6875 7.253906 -6.828125 7.640625 -7.109375 C 8.023438 -7.398438 8.332031 -7.921875 8.5625 -8.671875 C 8.851562 -9.691406 9.269531 -10.472656 9.8125 -11.015625 C 10.351562 -11.554688 10.96875 -11.828125 11.65625 -11.828125 C 12.195312 -11.828125 12.644531 -11.671875 13 -11.359375 C 13.351562 -11.054688 13.53125 -10.65625 13.53125 -10.15625 C 13.53125 -9.707031 13.394531 -9.320312 13.125 -9 C 12.863281 -8.675781 12.507812 -8.515625 12.0625 -8.515625 C 11.738281 -8.515625 11.457031 -8.597656 11.21875 -8.765625 C 10.976562 -8.941406 10.832031 -9.175781 10.78125 -9.46875 C 10.5625 -9.320312 10.394531 -9.160156 10.28125 -8.984375 C 10.164062 -8.804688 10.015625 -8.523438 9.828125 -8.140625 C 9.585938 -7.617188 9.332031 -7.203125 9.0625 -6.890625 C 8.789062 -6.585938 8.476562 -6.363281 8.125 -6.21875 C 9 -6.15625 9.671875 -5.894531 10.140625 -5.4375 C 10.617188 -4.976562 10.894531 -4.300781 10.96875 -3.40625 C 11.007812 -2.78125 11.082031 -2.359375 11.1875 -2.140625 C 11.300781 -1.921875 11.441406 -1.816406 11.609375 -1.828125 C 11.785156 -1.828125 11.960938 -1.960938 12.140625 -2.234375 C 12.316406 -2.503906 12.515625 -3 12.734375 -3.71875 Z M 13.984375 -3.359375 "></path></g></g></g><g clip-path="url(#cae3460672)"><g fill="#143578" fill-opacity="1"><g transform="translate(0.266719, 57.170685)"><g><path d="M 14.90625 -10.96875 L 13.375 -10.96875 C 13.4375 -12.1875 13.234375 -13.109375 12.765625 -13.734375 C 12.296875 -14.359375 11.613281 -14.660156 10.71875 -14.640625 L 9.609375 -14.640625 L 9.046875 -3.796875 C 9.003906 -2.910156 8.9375 -2.21875 8.84375 -1.71875 C 9.332031 -1.757812 9.945312 -1.78125 10.6875 -1.78125 L 10.59375 0 L 3.890625 0 L 3.984375 -1.53125 C 4.398438 -1.539062 4.71875 -1.585938 4.9375 -1.671875 C 5.164062 -1.765625 5.347656 -1.945312 5.484375 -2.21875 C 5.617188 -2.5 5.703125 -2.941406 5.734375 -3.546875 L 6.3125 -14.625 L 5.25 -14.625 C 4.34375 -14.613281 3.625 -14.304688 3.09375 -13.703125 C 2.5625 -13.097656 2.265625 -12.1875 2.203125 -10.96875 L 0.671875 -10.96875 L 1.0625 -16.203125 L 15.046875 -16.203125 Z M 14.90625 -10.96875 "></path></g></g></g></g><g fill="#143578" fill-opacity="1"><g transform="translate(15.255928, 57.170685)"><g><path d="M 3.46875 -11.828125 C 4.289062 -11.828125 4.863281 -11.609375 5.1875 -11.171875 C 5.507812 -10.742188 5.671875 -10.085938 5.671875 -9.203125 C 5.671875 -8.515625 5.5625 -7.335938 5.34375 -5.671875 C 5.15625 -4.191406 5.0625 -3.25 5.0625 -2.84375 C 5.0625 -2.507812 5.113281 -2.265625 5.21875 -2.109375 C 5.320312 -1.953125 5.488281 -1.875 5.71875 -1.875 C 6.132812 -1.875 6.582031 -2.3125 7.0625 -3.1875 C 7.550781 -4.070312 7.960938 -5.148438 8.296875 -6.421875 C 8.628906 -7.691406 8.796875 -8.851562 8.796875 -9.90625 C 8.796875 -10.644531 8.769531 -11.203125 8.71875 -11.578125 L 11.703125 -11.578125 C 11.753906 -11.140625 11.78125 -10.765625 11.78125 -10.453125 C 11.78125 -9.960938 11.722656 -9.242188 11.609375 -8.296875 C 11.503906 -7.347656 11.390625 -6.414062 11.265625 -5.5 C 11.035156 -3.820312 10.921875 -2.820312 10.921875 -2.5 C 10.921875 -2.09375 11.03125 -1.890625 11.25 -1.890625 C 11.644531 -1.890625 12.015625 -2.5 12.359375 -3.71875 L 13.609375 -3.359375 C 13.441406 -2.441406 13.109375 -1.609375 12.609375 -0.859375 C 12.117188 -0.117188 11.425781 0.25 10.53125 0.25 C 9.957031 0.25 9.488281 0.0859375 9.125 -0.234375 C 8.757812 -0.554688 8.578125 -1.09375 8.578125 -1.84375 C 8.578125 -2.125 8.59375 -2.40625 8.625 -2.6875 C 8.65625 -2.976562 8.679688 -3.203125 8.703125 -3.359375 L 8.671875 -3.359375 C 7.765625 -0.953125 6.5 0.25 4.875 0.25 C 3.925781 0.25 3.226562 -0.0625 2.78125 -0.6875 C 2.332031 -1.3125 2.109375 -2.1875 2.109375 -3.3125 C 2.109375 -3.800781 2.15625 -4.367188 2.25 -5.015625 C 2.34375 -5.671875 2.394531 -6.066406 2.40625 -6.203125 C 2.601562 -7.460938 2.703125 -8.421875 2.703125 -9.078125 C 2.703125 -9.472656 2.582031 -9.671875 2.34375 -9.671875 C 1.9375 -9.671875 1.5625 -9.0625 1.21875 -7.84375 L -0.015625 -8.21875 C 0.0664062 -8.726562 0.257812 -9.257812 0.5625 -9.8125 C 0.863281 -10.363281 1.257812 -10.835938 1.75 -11.234375 C 2.25 -11.628906 2.820312 -11.828125 3.46875 -11.828125 Z M 3.46875 -11.828125 "></path></g></g></g><g fill="#143578" fill-opacity="1"><g transform="translate(29.088565, 57.170685)"><g><path d="M 14.46875 -3.359375 C 14.375 -2.859375 14.171875 -2.328125 13.859375 -1.765625 C 13.554688 -1.203125 13.148438 -0.722656 12.640625 -0.328125 C 12.140625 0.0546875 11.578125 0.25 10.953125 0.25 C 10.347656 0.25 9.835938 0.0703125 9.421875 -0.28125 C 9.015625 -0.632812 8.8125 -1.234375 8.8125 -2.078125 C 8.8125 -2.546875 8.898438 -3.472656 9.078125 -4.859375 C 9.347656 -6.878906 9.492188 -8.59375 9.515625 -10 L 8.859375 -9.96875 C 8.585938 -9.9375 8.390625 -9.785156 8.265625 -9.515625 C 7.660156 -6.484375 6.867188 -4.097656 5.890625 -2.359375 C 4.921875 -0.617188 3.597656 0.25 1.921875 0.25 C 1.367188 0.25 0.910156 0.0859375 0.546875 -0.234375 C 0.179688 -0.566406 0 -0.984375 0 -1.484375 C 0 -1.929688 0.148438 -2.3125 0.453125 -2.625 C 0.753906 -2.9375 1.097656 -3.09375 1.484375 -3.09375 C 1.867188 -3.09375 2.179688 -2.984375 2.421875 -2.765625 C 2.671875 -2.554688 2.796875 -2.28125 2.796875 -1.9375 C 2.796875 -1.820312 2.789062 -1.734375 2.78125 -1.671875 C 3.625 -1.878906 4.34375 -2.765625 4.9375 -4.328125 C 5.53125 -5.898438 6.003906 -7.78125 6.359375 -9.96875 L 4.234375 -9.953125 L 4.375 -11.578125 L 12.5625 -11.578125 C 12.613281 -11.140625 12.640625 -10.765625 12.640625 -10.453125 C 12.640625 -9.960938 12.582031 -9.242188 12.46875 -8.296875 C 12.363281 -7.347656 12.25 -6.414062 12.125 -5.5 C 11.894531 -3.820312 11.78125 -2.820312 11.78125 -2.5 C 11.78125 -2.09375 11.890625 -1.890625 12.109375 -1.890625 C 12.503906 -1.890625 12.875 -2.5 13.21875 -3.71875 Z M 14.46875 -3.359375 "></path></g></g></g><g fill="#143578" fill-opacity="1"><g transform="translate(43.684539, 57.170685)"><g><path d="M 5.375 0.25 C 4.457031 0.25 3.640625 0.0546875 2.921875 -0.328125 C 2.203125 -0.722656 1.640625 -1.296875 1.234375 -2.046875 C 0.828125 -2.796875 0.625 -3.6875 0.625 -4.71875 C 0.625 -6.03125 0.882812 -7.207031 1.40625 -8.25 C 1.9375 -9.300781 2.632812 -10.117188 3.5 -10.703125 C 4.375 -11.285156 5.3125 -11.578125 6.3125 -11.578125 C 6.820312 -11.578125 7.265625 -11.484375 7.640625 -11.296875 C 8.023438 -11.117188 8.363281 -10.816406 8.65625 -10.390625 C 8.5625 -12.253906 8.203125 -13.664062 7.578125 -14.625 C 6.953125 -15.59375 6.160156 -16.078125 5.203125 -16.078125 C 4.484375 -16.078125 3.738281 -15.816406 2.96875 -15.296875 L 2.265625 -16.171875 C 2.867188 -16.640625 3.421875 -16.988281 3.921875 -17.21875 C 4.421875 -17.445312 4.972656 -17.5625 5.578125 -17.5625 C 6.804688 -17.5625 7.859375 -17.15625 8.734375 -16.34375 C 9.617188 -15.539062 10.289062 -14.425781 10.75 -13 C 11.207031 -11.582031 11.4375 -9.957031 11.4375 -8.125 C 11.4375 -7.59375 11.425781 -7.191406 11.40625 -6.921875 C 11.332031 -5.234375 11.003906 -3.851562 10.421875 -2.78125 C 9.847656 -1.71875 9.117188 -0.945312 8.234375 -0.46875 C 7.359375 0.0078125 6.40625 0.25 5.375 0.25 Z M 5.625 -1.265625 C 6.363281 -1.265625 6.988281 -1.6875 7.5 -2.53125 C 8.007812 -3.375 8.332031 -4.613281 8.46875 -6.25 C 8.5 -6.644531 8.515625 -6.9375 8.515625 -7.125 C 8.515625 -7.957031 8.367188 -8.640625 8.078125 -9.171875 C 7.796875 -9.703125 7.351562 -9.96875 6.75 -9.96875 C 6.21875 -9.96875 5.722656 -9.753906 5.265625 -9.328125 C 4.804688 -8.910156 4.4375 -8.300781 4.15625 -7.5 C 3.882812 -6.695312 3.75 -5.75 3.75 -4.65625 C 3.75 -3.53125 3.925781 -2.679688 4.28125 -2.109375 C 4.632812 -1.546875 5.082031 -1.265625 5.625 -1.265625 Z M 5.625 -1.265625 "></path></g></g></g><g fill="#143578" fill-opacity="1"><g transform="translate(55.805442, 57.170685)"><g><path d="M 3.46875 -11.828125 C 4.289062 -11.828125 4.863281 -11.609375 5.1875 -11.171875 C 5.507812 -10.742188 5.671875 -10.085938 5.671875 -9.203125 C 5.671875 -8.515625 5.5625 -7.335938 5.34375 -5.671875 C 5.15625 -4.191406 5.0625 -3.25 5.0625 -2.84375 C 5.0625 -2.507812 5.113281 -2.265625 5.21875 -2.109375 C 5.320312 -1.953125 5.488281 -1.875 5.71875 -1.875 C 6.132812 -1.875 6.582031 -2.3125 7.0625 -3.1875 C 7.550781 -4.070312 7.960938 -5.148438 8.296875 -6.421875 C 8.628906 -7.691406 8.796875 -8.851562 8.796875 -9.90625 C 8.796875 -10.644531 8.769531 -11.203125 8.71875 -11.578125 L 11.703125 -11.578125 C 11.753906 -11.140625 11.78125 -10.765625 11.78125 -10.453125 C 11.78125 -9.960938 11.722656 -9.242188 11.609375 -8.296875 C 11.503906 -7.347656 11.390625 -6.414062 11.265625 -5.5 C 11.035156 -3.820312 10.921875 -2.820312 10.921875 -2.5 C 10.921875 -2.09375 11.03125 -1.890625 11.25 -1.890625 C 11.644531 -1.890625 12.015625 -2.5 12.359375 -3.71875 L 13.609375 -3.359375 C 13.441406 -2.441406 13.109375 -1.609375 12.609375 -0.859375 C 12.117188 -0.117188 11.425781 0.25 10.53125 0.25 C 9.957031 0.25 9.488281 0.0859375 9.125 -0.234375 C 8.757812 -0.554688 8.578125 -1.09375 8.578125 -1.84375 C 8.578125 -2.125 8.59375 -2.40625 8.625 -2.6875 C 8.65625 -2.976562 8.679688 -3.203125 8.703125 -3.359375 L 8.671875 -3.359375 C 7.765625 -0.953125 6.5 0.25 4.875 0.25 C 3.925781 0.25 3.226562 -0.0625 2.78125 -0.6875 C 2.332031 -1.3125 2.109375 -2.1875 2.109375 -3.3125 C 2.109375 -3.800781 2.15625 -4.367188 2.25 -5.015625 C 2.34375 -5.671875 2.394531 -6.066406 2.40625 -6.203125 C 2.601562 -7.460938 2.703125 -8.421875 2.703125 -9.078125 C 2.703125 -9.472656 2.582031 -9.671875 2.34375 -9.671875 C 1.9375 -9.671875 1.5625 -9.0625 1.21875 -7.84375 L -0.015625 -8.21875 C 0.0664062 -8.726562 0.257812 -9.257812 0.5625 -9.8125 C 0.863281 -10.363281 1.257812 -10.835938 1.75 -11.234375 C 2.25 -11.628906 2.820312 -11.828125 3.46875 -11.828125 Z M 3.46875 -11.828125 "></path></g></g></g><g fill="#143578" fill-opacity="1"><g transform="translate(69.638079, 57.170685)"><g></g></g></g><g fill="#143578" fill-opacity="1"><g transform="translate(75.721664, 57.170685)"><g><path d="M 15.25 -11.828125 C 16.207031 -11.828125 16.910156 -11.515625 17.359375 -10.890625 C 17.816406 -10.265625 18.046875 -9.390625 18.046875 -8.265625 C 18.046875 -7.703125 17.953125 -6.742188 17.765625 -5.390625 C 17.566406 -4.128906 17.46875 -3.164062 17.46875 -2.5 C 17.46875 -2.09375 17.582031 -1.890625 17.8125 -1.890625 C 18.21875 -1.890625 18.585938 -2.5 18.921875 -3.71875 L 20.203125 -3.359375 C 20.097656 -2.847656 19.894531 -2.3125 19.59375 -1.75 C 19.289062 -1.195312 18.890625 -0.722656 18.390625 -0.328125 C 17.898438 0.0546875 17.332031 0.25 16.6875 0.25 C 15.863281 0.25 15.296875 0.0351562 14.984375 -0.390625 C 14.671875 -0.828125 14.515625 -1.484375 14.515625 -2.359375 C 14.515625 -3.054688 14.617188 -4.238281 14.828125 -5.90625 C 14.859375 -6.164062 14.910156 -6.613281 14.984375 -7.25 C 15.054688 -7.894531 15.09375 -8.382812 15.09375 -8.71875 C 15.09375 -9.070312 15.046875 -9.320312 14.953125 -9.46875 C 14.859375 -9.625 14.6875 -9.703125 14.4375 -9.703125 C 13.988281 -9.703125 13.519531 -9.269531 13.03125 -8.40625 C 12.550781 -7.550781 12.148438 -6.5 11.828125 -5.25 C 11.503906 -4 11.34375 -2.84375 11.34375 -1.78125 C 11.34375 -1.175781 11.363281 -0.582031 11.40625 0 L 8.421875 0 C 8.378906 -0.425781 8.359375 -0.941406 8.359375 -1.546875 C 8.359375 -2.460938 8.40625 -3.421875 8.5 -4.421875 C 8.601562 -5.421875 8.660156 -6 8.671875 -6.15625 C 8.816406 -7.40625 8.890625 -8.257812 8.890625 -8.71875 C 8.890625 -9.070312 8.835938 -9.320312 8.734375 -9.46875 C 8.628906 -9.625 8.460938 -9.703125 8.234375 -9.703125 C 7.785156 -9.703125 7.304688 -9.257812 6.796875 -8.375 C 6.296875 -7.5 5.875 -6.425781 5.53125 -5.15625 C 5.1875 -3.894531 5.015625 -2.734375 5.015625 -1.671875 C 5.015625 -1.296875 5.039062 -0.738281 5.09375 0 L 2.125 0 C 2.082031 -0.425781 2.0625 -0.796875 2.0625 -1.109375 C 2.0625 -1.597656 2.113281 -2.316406 2.21875 -3.265625 C 2.332031 -4.222656 2.445312 -5.15625 2.5625 -6.0625 C 2.59375 -6.34375 2.65625 -6.847656 2.75 -7.578125 C 2.84375 -8.304688 2.890625 -8.804688 2.890625 -9.078125 C 2.890625 -9.472656 2.78125 -9.671875 2.5625 -9.671875 C 2.164062 -9.671875 1.796875 -9.0625 1.453125 -7.84375 L 0.1875 -8.21875 C 0.382812 -9.144531 0.722656 -9.976562 1.203125 -10.71875 C 1.691406 -11.457031 2.382812 -11.828125 3.28125 -11.828125 C 3.851562 -11.828125 4.320312 -11.664062 4.6875 -11.34375 C 5.050781 -11.019531 5.234375 -10.476562 5.234375 -9.71875 C 5.234375 -9.425781 5.210938 -9.148438 5.171875 -8.890625 C 5.128906 -8.640625 5.101562 -8.453125 5.09375 -8.328125 L 5.109375 -8.328125 C 5.609375 -9.609375 6.210938 -10.507812 6.921875 -11.03125 C 7.628906 -11.5625 8.367188 -11.828125 9.140625 -11.828125 C 9.878906 -11.828125 10.441406 -11.59375 10.828125 -11.125 C 11.210938 -10.664062 11.40625 -10.007812 11.40625 -9.15625 C 11.40625 -8.800781 11.390625 -8.523438 11.359375 -8.328125 L 11.390625 -8.328125 C 12.296875 -10.660156 13.582031 -11.828125 15.25 -11.828125 Z M 15.25 -11.828125 "></path></g></g></g><g fill="#143578" fill-opacity="1"><g transform="translate(96.031123, 57.170685)"><g><path d="M 7.5625 -11.828125 C 8.414062 -11.828125 9.53125 -11.664062 10.90625 -11.34375 L 10.71875 -10.109375 C 10.6875 -9.835938 10.53125 -8.710938 10.25 -6.734375 C 9.96875 -4.753906 9.828125 -3.363281 9.828125 -2.5625 C 9.828125 -2.113281 9.9375 -1.890625 10.15625 -1.890625 C 10.601562 -1.890625 11 -2.5 11.34375 -3.71875 L 12.59375 -3.359375 C 12.414062 -2.472656 12.0625 -1.648438 11.53125 -0.890625 C 11 -0.128906 10.28125 0.25 9.375 0.25 C 8.132812 0.25 7.515625 -0.445312 7.515625 -1.84375 C 7.515625 -2.382812 7.546875 -2.832031 7.609375 -3.1875 L 7.59375 -3.1875 C 7.0625 -1.925781 6.460938 -1.035156 5.796875 -0.515625 C 5.140625 -0.00390625 4.425781 0.25 3.65625 0.25 C 2.757812 0.25 2.019531 -0.101562 1.4375 -0.8125 C 0.863281 -1.53125 0.578125 -2.578125 0.578125 -3.953125 C 0.578125 -5.390625 0.851562 -6.707031 1.40625 -7.90625 C 1.96875 -9.101562 2.773438 -10.054688 3.828125 -10.765625 C 4.890625 -11.472656 6.132812 -11.828125 7.5625 -11.828125 Z M 6.703125 -10.296875 C 5.816406 -10.296875 5.101562 -9.734375 4.5625 -8.609375 C 4.019531 -7.492188 3.75 -5.90625 3.75 -3.84375 C 3.75 -3.207031 3.828125 -2.707031 3.984375 -2.34375 C 4.140625 -1.988281 4.351562 -1.8125 4.625 -1.8125 C 5.15625 -1.8125 5.640625 -2.242188 6.078125 -3.109375 C 6.515625 -3.984375 6.867188 -5.066406 7.140625 -6.359375 C 7.421875 -7.660156 7.59375 -8.925781 7.65625 -10.15625 C 7.332031 -10.25 7.015625 -10.296875 6.703125 -10.296875 Z M 6.703125 -10.296875 "></path></g></g></g><g fill="#143578" fill-opacity="1"><g transform="translate(108.730311, 57.170685)"><g><path d="M 13.984375 -3.359375 C 13.890625 -2.859375 13.6875 -2.328125 13.375 -1.765625 C 13.0625 -1.203125 12.65625 -0.722656 12.15625 -0.328125 C 11.65625 0.0546875 11.085938 0.25 10.453125 0.25 C 9.859375 0.25 9.351562 0.0703125 8.9375 -0.28125 C 8.53125 -0.632812 8.328125 -1.234375 8.328125 -2.078125 C 8.328125 -2.523438 8.394531 -3.34375 8.53125 -4.53125 L 8.609375 -5.015625 L 5.390625 -5 C 5.222656 -3.695312 5.140625 -2.625 5.140625 -1.78125 C 5.140625 -1.382812 5.160156 -0.789062 5.203125 0 L 2.125 0 C 2.082031 -0.3125 2.0625 -0.679688 2.0625 -1.109375 C 2.0625 -1.597656 2.113281 -2.316406 2.21875 -3.265625 C 2.332031 -4.222656 2.445312 -5.15625 2.5625 -6.0625 C 2.59375 -6.34375 2.65625 -6.847656 2.75 -7.578125 C 2.84375 -8.304688 2.890625 -8.804688 2.890625 -9.078125 C 2.890625 -9.304688 2.863281 -9.460938 2.8125 -9.546875 C 2.769531 -9.628906 2.6875 -9.671875 2.5625 -9.671875 C 2.164062 -9.671875 1.796875 -9.0625 1.453125 -7.84375 L 0.1875 -8.21875 C 0.289062 -8.726562 0.492188 -9.257812 0.796875 -9.8125 C 1.109375 -10.363281 1.515625 -10.835938 2.015625 -11.234375 C 2.523438 -11.628906 3.101562 -11.828125 3.75 -11.828125 C 4.425781 -11.828125 4.945312 -11.617188 5.3125 -11.203125 C 5.6875 -10.796875 5.875 -10.109375 5.875 -9.140625 C 5.875 -8.941406 5.8125 -8.316406 5.6875 -7.265625 C 5.65625 -7.109375 5.625 -6.894531 5.59375 -6.625 L 8.796875 -6.625 C 8.953125 -7.882812 9.03125 -9.070312 9.03125 -10.1875 C 9.03125 -10.488281 9.015625 -10.953125 8.984375 -11.578125 L 12.078125 -11.578125 C 12.128906 -11.140625 12.15625 -10.765625 12.15625 -10.453125 C 12.15625 -9.960938 12.097656 -9.242188 11.984375 -8.296875 C 11.878906 -7.347656 11.765625 -6.414062 11.640625 -5.5 C 11.410156 -3.820312 11.296875 -2.820312 11.296875 -2.5 C 11.296875 -2.09375 11.398438 -1.890625 11.609375 -1.890625 C 12.015625 -1.890625 12.390625 -2.5 12.734375 -3.71875 Z M 13.984375 -3.359375 "></path></g></g></g><g fill="#143578" fill-opacity="1"><g transform="translate(122.840525, 57.170685)"><g><path d="M 5.375 0.25 C 4.457031 0.25 3.640625 0.0546875 2.921875 -0.328125 C 2.203125 -0.722656 1.640625 -1.296875 1.234375 -2.046875 C 0.828125 -2.796875 0.625 -3.6875 0.625 -4.71875 C 0.625 -6.03125 0.882812 -7.207031 1.40625 -8.25 C 1.9375 -9.300781 2.632812 -10.117188 3.5 -10.703125 C 4.375 -11.285156 5.3125 -11.578125 6.3125 -11.578125 C 6.820312 -11.578125 7.265625 -11.484375 7.640625 -11.296875 C 8.023438 -11.117188 8.363281 -10.816406 8.65625 -10.390625 C 8.5625 -12.253906 8.203125 -13.664062 7.578125 -14.625 C 6.953125 -15.59375 6.160156 -16.078125 5.203125 -16.078125 C 4.484375 -16.078125 3.738281 -15.816406 2.96875 -15.296875 L 2.265625 -16.171875 C 2.867188 -16.640625 3.421875 -16.988281 3.921875 -17.21875 C 4.421875 -17.445312 4.972656 -17.5625 5.578125 -17.5625 C 6.804688 -17.5625 7.859375 -17.15625 8.734375 -16.34375 C 9.617188 -15.539062 10.289062 -14.425781 10.75 -13 C 11.207031 -11.582031 11.4375 -9.957031 11.4375 -8.125 C 11.4375 -7.59375 11.425781 -7.191406 11.40625 -6.921875 C 11.332031 -5.234375 11.003906 -3.851562 10.421875 -2.78125 C 9.847656 -1.71875 9.117188 -0.945312 8.234375 -0.46875 C 7.359375 0.0078125 6.40625 0.25 5.375 0.25 Z M 5.625 -1.265625 C 6.363281 -1.265625 6.988281 -1.6875 7.5 -2.53125 C 8.007812 -3.375 8.332031 -4.613281 8.46875 -6.25 C 8.5 -6.644531 8.515625 -6.9375 8.515625 -7.125 C 8.515625 -7.957031 8.367188 -8.640625 8.078125 -9.171875 C 7.796875 -9.703125 7.351562 -9.96875 6.75 -9.96875 C 6.21875 -9.96875 5.722656 -9.753906 5.265625 -9.328125 C 4.804688 -8.910156 4.4375 -8.300781 4.15625 -7.5 C 3.882812 -6.695312 3.75 -5.75 3.75 -4.65625 C 3.75 -3.53125 3.925781 -2.679688 4.28125 -2.109375 C 4.632812 -1.546875 5.082031 -1.265625 5.625 -1.265625 Z M 5.625 -1.265625 "></path></g></g></g><g fill="#143578" fill-opacity="1"><g transform="translate(134.961428, 57.170685)"><g><path d="M 7.5625 -11.828125 C 8.414062 -11.828125 9.53125 -11.664062 10.90625 -11.34375 L 10.71875 -10.109375 C 10.6875 -9.835938 10.53125 -8.710938 10.25 -6.734375 C 9.96875 -4.753906 9.828125 -3.363281 9.828125 -2.5625 C 9.828125 -2.113281 9.9375 -1.890625 10.15625 -1.890625 C 10.601562 -1.890625 11 -2.5 11.34375 -3.71875 L 12.59375 -3.359375 C 12.414062 -2.472656 12.0625 -1.648438 11.53125 -0.890625 C 11 -0.128906 10.28125 0.25 9.375 0.25 C 8.132812 0.25 7.515625 -0.445312 7.515625 -1.84375 C 7.515625 -2.382812 7.546875 -2.832031 7.609375 -3.1875 L 7.59375 -3.1875 C 7.0625 -1.925781 6.460938 -1.035156 5.796875 -0.515625 C 5.140625 -0.00390625 4.425781 0.25 3.65625 0.25 C 2.757812 0.25 2.019531 -0.101562 1.4375 -0.8125 C 0.863281 -1.53125 0.578125 -2.578125 0.578125 -3.953125 C 0.578125 -5.390625 0.851562 -6.707031 1.40625 -7.90625 C 1.96875 -9.101562 2.773438 -10.054688 3.828125 -10.765625 C 4.890625 -11.472656 6.132812 -11.828125 7.5625 -11.828125 Z M 6.703125 -10.296875 C 5.816406 -10.296875 5.101562 -9.734375 4.5625 -8.609375 C 4.019531 -7.492188 3.75 -5.90625 3.75 -3.84375 C 3.75 -3.207031 3.828125 -2.707031 3.984375 -2.34375 C 4.140625 -1.988281 4.351562 -1.8125 4.625 -1.8125 C 5.15625 -1.8125 5.640625 -2.242188 6.078125 -3.109375 C 6.515625 -3.984375 6.867188 -5.066406 7.140625 -6.359375 C 7.421875 -7.660156 7.59375 -8.925781 7.65625 -10.15625 C 7.332031 -10.25 7.015625 -10.296875 6.703125 -10.296875 Z M 6.703125 -10.296875 "></path></g></g></g><g fill="#143578" fill-opacity="1"><g transform="translate(147.660616, 57.170685)"><g><path d="M 13.171875 -1.453125 C 13.054688 -1.242188 13 -1.019531 13 -0.78125 C 13 -0.539062 13.0625 -0.316406 13.1875 -0.109375 C 13.445312 0.316406 13.578125 0.757812 13.578125 1.21875 C 13.578125 2.332031 12.851562 3.46875 11.40625 4.625 L 10.53125 3.75 C 10.945312 3.269531 11.210938 2.882812 11.328125 2.59375 C 11.441406 2.3125 11.484375 2.007812 11.453125 1.6875 C 11.441406 1.59375 11.4375 1.460938 11.4375 1.296875 C 11.4375 1.066406 11.457031 0.867188 11.5 0.703125 C 11.550781 0.546875 11.644531 0.332031 11.78125 0.0625 L 11.59375 0 C 11.21875 0.164062 10.835938 0.25 10.453125 0.25 C 9.859375 0.25 9.351562 0.0703125 8.9375 -0.28125 C 8.53125 -0.632812 8.328125 -1.234375 8.328125 -2.078125 C 8.328125 -2.523438 8.394531 -3.34375 8.53125 -4.53125 L 8.609375 -5.015625 L 5.390625 -5 C 5.222656 -3.695312 5.140625 -2.625 5.140625 -1.78125 C 5.140625 -1.382812 5.160156 -0.789062 5.203125 0 L 2.125 0 C 2.082031 -0.3125 2.0625 -0.679688 2.0625 -1.109375 C 2.0625 -1.597656 2.113281 -2.316406 2.21875 -3.265625 C 2.332031 -4.222656 2.445312 -5.15625 2.5625 -6.0625 C 2.59375 -6.34375 2.65625 -6.847656 2.75 -7.578125 C 2.84375 -8.304688 2.890625 -8.804688 2.890625 -9.078125 C 2.890625 -9.304688 2.863281 -9.460938 2.8125 -9.546875 C 2.769531 -9.628906 2.6875 -9.671875 2.5625 -9.671875 C 2.164062 -9.671875 1.796875 -9.0625 1.453125 -7.84375 L 0.1875 -8.21875 C 0.289062 -8.726562 0.492188 -9.257812 0.796875 -9.8125 C 1.109375 -10.363281 1.515625 -10.835938 2.015625 -11.234375 C 2.523438 -11.628906 3.101562 -11.828125 3.75 -11.828125 C 4.425781 -11.828125 4.945312 -11.617188 5.3125 -11.203125 C 5.6875 -10.796875 5.875 -10.109375 5.875 -9.140625 C 5.875 -8.941406 5.8125 -8.316406 5.6875 -7.265625 C 5.65625 -7.109375 5.625 -6.894531 5.59375 -6.625 L 8.796875 -6.625 C 8.953125 -7.882812 9.03125 -9.070312 9.03125 -10.1875 C 9.03125 -10.488281 9.015625 -10.953125 8.984375 -11.578125 L 12.078125 -11.578125 C 12.128906 -11.140625 12.15625 -10.765625 12.15625 -10.453125 C 12.15625 -9.960938 12.097656 -9.242188 11.984375 -8.296875 C 11.878906 -7.347656 11.765625 -6.414062 11.640625 -5.5 C 11.410156 -3.820312 11.296875 -2.820312 11.296875 -2.5 C 11.296875 -2.09375 11.398438 -1.890625 11.609375 -1.890625 C 12.015625 -1.890625 12.390625 -2.5 12.734375 -3.71875 L 13.984375 -3.359375 C 13.835938 -2.679688 13.566406 -2.046875 13.171875 -1.453125 Z M 13.171875 -1.453125 "></path></g></g></g><g fill="#143578" fill-opacity="1"><g transform="translate(162.626703, 57.170685)"><g><path d="M 7.40625 -7.59375 C 8.457031 -7.59375 9.3125 -7.316406 9.96875 -6.765625 C 10.632812 -6.222656 10.96875 -5.394531 10.96875 -4.28125 C 10.96875 -3.382812 10.75 -2.59375 10.3125 -1.90625 C 9.882812 -1.21875 9.273438 -0.6875 8.484375 -0.3125 C 7.703125 0.0507812 6.800781 0.234375 5.78125 0.234375 C 4.5625 0.234375 3.644531 -0.046875 3.03125 -0.609375 C 2.414062 -1.171875 2.109375 -1.925781 2.109375 -2.875 C 2.109375 -3.007812 2.125 -3.203125 2.15625 -3.453125 C 2.34375 -4.941406 2.488281 -6.035156 2.59375 -6.734375 C 2.625 -7.023438 2.671875 -7.429688 2.734375 -7.953125 C 2.804688 -8.484375 2.84375 -8.863281 2.84375 -9.09375 C 2.84375 -9.476562 2.742188 -9.671875 2.546875 -9.671875 C 2.097656 -9.671875 1.710938 -9.0625 1.390625 -7.84375 L 0.140625 -8.21875 C 0.398438 -9.1875 0.832031 -10.03125 1.4375 -10.75 C 2.039062 -11.46875 2.785156 -11.828125 3.671875 -11.828125 C 5.109375 -11.828125 5.828125 -10.953125 5.828125 -9.203125 C 5.828125 -8.878906 5.804688 -8.539062 5.765625 -8.1875 L 5.625 -7.25 C 6.226562 -7.476562 6.820312 -7.59375 7.40625 -7.59375 Z M 17.765625 -3.359375 C 17.660156 -2.859375 17.453125 -2.328125 17.140625 -1.765625 C 16.835938 -1.203125 16.4375 -0.722656 15.9375 -0.328125 C 15.4375 0.0546875 14.867188 0.25 14.234375 0.25 C 13.628906 0.25 13.125 0.0703125 12.71875 -0.28125 C 12.3125 -0.632812 12.109375 -1.234375 12.109375 -2.078125 C 12.109375 -2.578125 12.191406 -3.503906 12.359375 -4.859375 C 12.648438 -7.078125 12.796875 -8.835938 12.796875 -10.140625 C 12.796875 -10.785156 12.78125 -11.265625 12.75 -11.578125 L 15.84375 -11.578125 C 15.894531 -11.140625 15.921875 -10.765625 15.921875 -10.453125 C 15.921875 -9.960938 15.863281 -9.242188 15.75 -8.296875 C 15.644531 -7.347656 15.53125 -6.414062 15.40625 -5.5 C 15.175781 -3.820312 15.0625 -2.820312 15.0625 -2.5 C 15.0625 -2.09375 15.171875 -1.890625 15.390625 -1.890625 C 15.785156 -1.890625 16.15625 -2.5 16.5 -3.71875 Z M 8.28125 -3.984375 C 8.28125 -5.429688 7.753906 -6.15625 6.703125 -6.15625 C 6.316406 -6.15625 5.894531 -6.0625 5.4375 -5.875 L 5.140625 -3.671875 C 5.109375 -3.492188 5.09375 -3.25 5.09375 -2.9375 C 5.09375 -2.414062 5.191406 -2.035156 5.390625 -1.796875 C 5.585938 -1.554688 5.90625 -1.4375 6.34375 -1.4375 C 7.632812 -1.4375 8.28125 -2.285156 8.28125 -3.984375 Z M 8.28125 -3.984375 "></path></g></g></g><g fill="#143578" fill-opacity="1"><g transform="translate(180.530476, 57.170685)"><g><path d="M 4.84375 0.390625 C 3.957031 0.390625 3.171875 0.253906 2.484375 -0.015625 C 1.796875 -0.285156 1.257812 -0.640625 0.875 -1.078125 C 0.488281 -1.515625 0.296875 -1.976562 0.296875 -2.46875 C 0.296875 -2.914062 0.441406 -3.300781 0.734375 -3.625 C 1.035156 -3.957031 1.421875 -4.125 1.890625 -4.125 C 2.367188 -4.125 2.71875 -3.984375 2.9375 -3.703125 C 3.164062 -3.421875 3.28125 -3.085938 3.28125 -2.703125 C 3.28125 -2.429688 3.195312 -2.140625 3.03125 -1.828125 C 3.070312 -1.609375 3.269531 -1.410156 3.625 -1.234375 C 3.988281 -1.054688 4.363281 -0.96875 4.75 -0.96875 C 5.488281 -0.96875 6.054688 -1.175781 6.453125 -1.59375 C 6.859375 -2.007812 7.0625 -2.582031 7.0625 -3.3125 C 7.0625 -4.695312 6.304688 -5.390625 4.796875 -5.390625 C 4.347656 -5.390625 3.929688 -5.351562 3.546875 -5.28125 L 3.328125 -6.453125 C 4.242188 -6.648438 4.941406 -6.851562 5.421875 -7.0625 C 5.910156 -7.269531 6.25 -7.515625 6.4375 -7.796875 C 6.632812 -8.085938 6.734375 -8.457031 6.734375 -8.90625 C 6.734375 -9.4375 6.582031 -9.828125 6.28125 -10.078125 C 5.976562 -10.328125 5.585938 -10.453125 5.109375 -10.453125 C 4.804688 -10.453125 4.503906 -10.398438 4.203125 -10.296875 C 3.898438 -10.203125 3.6875 -10.070312 3.5625 -9.90625 C 3.695312 -9.769531 3.785156 -9.628906 3.828125 -9.484375 C 3.878906 -9.347656 3.90625 -9.15625 3.90625 -8.90625 C 3.90625 -8.582031 3.773438 -8.300781 3.515625 -8.0625 C 3.253906 -7.820312 2.921875 -7.703125 2.515625 -7.703125 C 2.117188 -7.703125 1.789062 -7.828125 1.53125 -8.078125 C 1.269531 -8.328125 1.140625 -8.660156 1.140625 -9.078125 C 1.140625 -9.546875 1.320312 -9.992188 1.6875 -10.421875 C 2.0625 -10.847656 2.578125 -11.191406 3.234375 -11.453125 C 3.890625 -11.710938 4.617188 -11.84375 5.421875 -11.84375 C 6.753906 -11.84375 7.8125 -11.609375 8.59375 -11.140625 C 9.375 -10.671875 9.765625 -10 9.765625 -9.125 C 9.765625 -7.882812 8.835938 -6.988281 6.984375 -6.4375 L 6.984375 -6.359375 C 8.066406 -6.253906 8.878906 -5.941406 9.421875 -5.421875 C 9.972656 -4.910156 10.25 -4.285156 10.25 -3.546875 C 10.25 -2.847656 10.0625 -2.203125 9.6875 -1.609375 C 9.3125 -1.015625 8.71875 -0.53125 7.90625 -0.15625 C 7.09375 0.207031 6.070312 0.390625 4.84375 0.390625 Z M 4.84375 0.390625 "></path></g></g></g></g></g></svg> 