<?xml version="1.0" encoding="UTF-8"?> <svg xmlns="http://www.w3.org/2000/svg" xmlns:xlink="http://www.w3.org/1999/xlink" width="360" zoomAndPan="magnify" viewBox="0 0 270 359.999987" height="480" preserveAspectRatio="xMidYMid meet" version="1.0"><defs><clipPath id="5da3c48c19"><path d="M 20.035156 151 L 136 151 L 136 282 L 20.035156 282 Z M 20.035156 151 " clip-rule="nonzero"></path></clipPath></defs><path fill="#000000" d="M 229.652344 275.273438 C 228.265625 275.277344 226.945312 274.980469 225.691406 274.386719 C 224.4375 273.789062 223.378906 272.953125 222.503906 271.875 L 186.597656 227.65625 C 186.15625 227.699219 185.734375 227.71875 185.328125 227.71875 C 184.5 227.722656 183.675781 227.652344 182.859375 227.515625 C 182.046875 227.378906 181.246094 227.179688 180.464844 226.910156 C 179.683594 226.640625 178.925781 226.308594 178.199219 225.910156 C 177.472656 225.515625 176.785156 225.0625 176.132812 224.554688 C 175.484375 224.042969 174.878906 223.484375 174.320312 222.875 C 173.761719 222.261719 173.261719 221.609375 172.8125 220.917969 C 172.363281 220.222656 171.976562 219.496094 171.648438 218.734375 C 171.320312 217.976562 171.058594 217.195312 170.859375 216.394531 C 163.601562 187.070312 169.480469 171.871094 174.027344 165.125 C 172.652344 161.789062 168.722656 150.378906 155.863281 109.542969 C 155.570312 108.585938 155.472656 107.613281 155.578125 106.617188 C 155.683594 105.625 155.980469 104.691406 156.472656 103.816406 C 156.957031 102.941406 157.597656 102.203125 158.394531 101.59375 C 159.1875 100.988281 160.074219 100.5625 161.042969 100.320312 C 161.503906 100.214844 161.972656 100.152344 162.445312 100.136719 C 162.917969 100.117188 163.386719 100.144531 163.855469 100.21875 C 164.324219 100.289062 164.78125 100.40625 165.226562 100.566406 C 165.671875 100.722656 166.097656 100.925781 166.503906 101.164062 C 166.914062 101.40625 167.292969 101.679688 167.648438 101.996094 C 168.003906 102.308594 168.324219 102.652344 168.613281 103.023438 C 168.902344 103.398438 169.15625 103.796875 169.367188 104.21875 C 169.582031 104.640625 169.753906 105.082031 169.882812 105.535156 L 185.128906 155.199219 L 204.226562 162.136719 L 245.566406 186.335938 C 245.976562 186.5625 246.359375 186.828125 246.71875 187.128906 C 247.078125 187.429688 247.40625 187.761719 247.703125 188.121094 C 248 188.484375 248.261719 188.871094 248.488281 189.28125 C 248.710938 189.695312 248.894531 190.121094 249.039062 190.570312 C 249.183594 191.015625 249.28125 191.46875 249.339844 191.933594 C 249.398438 192.398438 249.410156 192.867188 249.382812 193.332031 C 249.351562 193.800781 249.277344 194.261719 249.160156 194.714844 C 249.042969 195.167969 248.886719 195.605469 248.6875 196.03125 C 248.464844 196.476562 248.199219 196.894531 247.890625 197.289062 C 247.582031 197.679688 247.234375 198.035156 246.855469 198.355469 C 246.472656 198.675781 246.0625 198.957031 245.625 199.191406 C 245.183594 199.429688 244.726562 199.617188 244.246094 199.761719 C 243.769531 199.902344 243.28125 199.996094 242.785156 200.039062 C 242.289062 200.078125 241.792969 200.070312 241.296875 200.011719 C 240.800781 199.953125 240.320312 199.84375 239.84375 199.683594 C 239.371094 199.527344 238.921875 199.320312 238.492188 199.070312 L 201.476562 177.398438 C 201.183594 178.144531 200.835938 178.863281 200.429688 179.550781 C 198.726562 182.214844 197.707031 185.117188 197.375 188.261719 C 197.101562 195.238281 197.882812 202.097656 199.726562 208.832031 C 200.21875 210.863281 200.304688 212.910156 199.988281 214.972656 L 236.792969 260.296875 C 237.339844 260.972656 237.78125 261.707031 238.121094 262.507812 C 238.457031 263.308594 238.675781 264.136719 238.777344 265 C 238.878906 265.859375 238.859375 266.71875 238.71875 267.574219 C 238.578125 268.429688 238.320312 269.25 237.949219 270.03125 C 237.574219 270.8125 237.101562 271.53125 236.523438 272.179688 C 235.949219 272.828125 235.292969 273.382812 234.5625 273.847656 C 233.828125 274.3125 233.042969 274.664062 232.210938 274.90625 C 231.378906 275.148438 230.527344 275.269531 229.660156 275.273438 Z M 187.269531 224.429688 C 187.765625 224.429688 188.175781 224.625 188.488281 225.011719 L 224.945312 269.902344 C 225.199219 270.203125 225.484375 270.476562 225.792969 270.722656 C 226.101562 270.96875 226.429688 271.183594 226.78125 271.367188 C 227.128906 271.546875 227.492188 271.695312 227.871094 271.8125 C 228.25 271.925781 228.636719 272.003906 229.027344 272.042969 C 229.421875 272.085938 229.8125 272.089844 230.207031 272.054688 C 230.601562 272.019531 230.988281 271.949219 231.367188 271.84375 C 231.746094 271.734375 232.113281 271.59375 232.464844 271.414062 C 232.820312 271.238281 233.152344 271.03125 233.464844 270.789062 C 233.773438 270.539062 234.054688 270.261719 234.308594 269.953125 C 234.5625 269.648438 234.78125 269.320312 234.972656 268.972656 C 235.160156 268.621094 235.3125 268.257812 235.429688 267.878906 C 235.546875 267.496094 235.628906 267.109375 235.667969 266.714844 C 235.710938 266.320312 235.710938 265.925781 235.675781 265.53125 C 235.636719 265.132812 235.5625 264.746094 235.449219 264.363281 C 235.335938 263.984375 235.1875 263.617188 235.003906 263.265625 C 234.816406 262.914062 234.601562 262.585938 234.351562 262.277344 L 197.089844 216.390625 C 196.777344 216.007812 196.671875 215.574219 196.773438 215.089844 C 197.144531 213.246094 197.109375 211.40625 196.667969 209.578125 C 194.75 202.519531 193.9375 195.332031 194.238281 188.023438 C 194.621094 184.398438 195.789062 181.046875 197.738281 177.964844 C 198.339844 176.941406 198.777344 175.847656 199.050781 174.691406 C 199.105469 174.449219 199.214844 174.234375 199.375 174.042969 C 199.535156 173.851562 199.730469 173.710938 199.957031 173.609375 C 200.1875 173.511719 200.425781 173.472656 200.675781 173.488281 C 200.921875 173.503906 201.15625 173.574219 201.371094 173.699219 L 240.074219 196.367188 C 240.320312 196.503906 240.578125 196.613281 240.847656 196.699219 C 241.117188 196.785156 241.390625 196.839844 241.671875 196.871094 C 241.953125 196.902344 242.234375 196.90625 242.515625 196.878906 C 242.796875 196.851562 243.070312 196.800781 243.339844 196.71875 C 243.613281 196.636719 243.871094 196.53125 244.121094 196.398438 C 244.371094 196.265625 244.601562 196.109375 244.820312 195.929688 C 245.039062 195.75 245.238281 195.550781 245.414062 195.332031 C 245.59375 195.113281 245.746094 194.878906 245.878906 194.632812 C 246.097656 194.132812 246.21875 193.609375 246.238281 193.0625 C 246.261719 192.519531 246.1875 191.988281 246.011719 191.472656 C 245.835938 190.957031 245.574219 190.488281 245.226562 190.070312 C 244.875 189.648438 244.460938 189.308594 243.984375 189.042969 L 201.929688 164.53125 L 183.332031 157.890625 C 182.839844 157.714844 182.515625 157.375 182.363281 156.875 L 166.886719 106.460938 C 166.734375 105.933594 166.492188 105.453125 166.160156 105.015625 C 165.828125 104.578125 165.425781 104.21875 164.957031 103.933594 C 164.488281 103.644531 163.984375 103.453125 163.441406 103.355469 C 162.902344 103.261719 162.363281 103.265625 161.824219 103.371094 C 161.546875 103.4375 161.285156 103.535156 161.03125 103.65625 C 160.777344 103.78125 160.539062 103.925781 160.3125 104.097656 C 160.089844 104.269531 159.886719 104.460938 159.699219 104.671875 C 159.515625 104.886719 159.355469 105.117188 159.214844 105.363281 C 159.078125 105.605469 158.964844 105.863281 158.878906 106.132812 C 158.792969 106.402344 158.734375 106.675781 158.707031 106.957031 C 158.675781 107.234375 158.675781 107.515625 158.703125 107.796875 C 158.730469 108.078125 158.785156 108.351562 158.867188 108.621094 C 165.527344 129.765625 175.808594 161.875 177.0625 164.425781 C 177.261719 164.703125 177.359375 165.007812 177.359375 165.347656 C 177.359375 165.6875 177.261719 165.992188 177.0625 166.265625 C 172.78125 172.195312 166.6875 186.492188 173.90625 215.648438 C 174.0625 216.28125 174.269531 216.898438 174.527344 217.496094 C 174.785156 218.097656 175.089844 218.671875 175.445312 219.21875 C 175.800781 219.765625 176.195312 220.28125 176.636719 220.765625 C 177.078125 221.246094 177.554688 221.6875 178.070312 222.089844 C 178.582031 222.496094 179.125 222.851562 179.699219 223.164062 C 180.273438 223.476562 180.871094 223.738281 181.488281 223.949219 C 182.105469 224.164062 182.734375 224.324219 183.378906 224.429688 C 184.023438 224.539062 184.671875 224.59375 185.324219 224.59375 C 185.902344 224.589844 186.472656 224.542969 187.042969 224.453125 C 187.117188 224.441406 187.191406 224.433594 187.269531 224.429688 Z M 187.269531 224.429688 " fill-opacity="1" fill-rule="nonzero"></path><path fill="#000000" d="M 171.941406 281.917969 C 171.242188 281.917969 170.550781 281.84375 169.867188 281.691406 C 169.277344 281.550781 168.707031 281.359375 168.15625 281.109375 C 167.605469 280.859375 167.085938 280.558594 166.59375 280.207031 C 166.101562 279.855469 165.652344 279.460938 165.238281 279.019531 C 164.824219 278.578125 164.457031 278.101562 164.136719 277.589844 C 163.816406 277.078125 163.550781 276.539062 163.339844 275.972656 C 163.125 275.40625 162.96875 274.828125 162.871094 274.230469 C 162.769531 273.636719 162.730469 273.035156 162.75 272.433594 C 162.765625 271.828125 162.84375 271.234375 162.980469 270.644531 L 174.324219 221.820312 C 174.371094 221.621094 174.457031 221.433594 174.578125 221.265625 C 174.699219 221.097656 174.847656 220.957031 175.023438 220.847656 C 175.199219 220.738281 175.390625 220.667969 175.59375 220.632812 C 175.800781 220.601562 176.003906 220.605469 176.207031 220.652344 C 176.410156 220.699219 176.59375 220.785156 176.761719 220.90625 C 176.933594 221.027344 177.070312 221.175781 177.183594 221.351562 C 177.292969 221.527344 177.363281 221.71875 177.398438 221.921875 C 177.433594 222.125 177.425781 222.328125 177.378906 222.53125 L 166.035156 271.351562 C 165.945312 271.742188 165.894531 272.132812 165.882812 272.53125 C 165.871094 272.929688 165.894531 273.324219 165.960938 273.714844 C 166.027344 274.109375 166.128906 274.492188 166.269531 274.863281 C 166.410156 275.234375 166.585938 275.589844 166.796875 275.929688 C 167.003906 276.265625 167.246094 276.582031 167.519531 276.871094 C 167.789062 277.160156 168.085938 277.421875 168.410156 277.65625 C 168.734375 277.886719 169.078125 278.085938 169.4375 278.25 C 169.800781 278.414062 170.175781 278.542969 170.5625 278.636719 C 171.019531 278.734375 171.476562 278.785156 171.941406 278.785156 C 172.628906 278.785156 173.292969 278.671875 173.941406 278.445312 C 174.585938 278.21875 175.175781 277.894531 175.710938 277.464844 C 176.246094 277.039062 176.695312 276.535156 177.058594 275.953125 C 177.421875 275.375 177.679688 274.75 177.832031 274.082031 L 188.335938 228.828125 C 188.378906 228.621094 188.460938 228.433594 188.582031 228.261719 C 188.703125 228.089844 188.851562 227.945312 189.027344 227.835938 C 189.207031 227.722656 189.398438 227.648438 189.605469 227.613281 C 189.8125 227.578125 190.019531 227.582031 190.222656 227.632812 C 190.429688 227.679688 190.617188 227.765625 190.785156 227.886719 C 190.957031 228.007812 191.097656 228.160156 191.207031 228.339844 C 191.316406 228.519531 191.386719 228.710938 191.417969 228.917969 C 191.449219 229.125 191.441406 229.332031 191.390625 229.535156 L 180.886719 274.789062 C 180.773438 275.292969 180.617188 275.785156 180.421875 276.261719 C 180.222656 276.738281 179.988281 277.195312 179.714844 277.628906 C 179.441406 278.066406 179.132812 278.480469 178.789062 278.863281 C 178.445312 279.246094 178.070312 279.601562 177.667969 279.921875 C 177.261719 280.246094 176.835938 280.53125 176.382812 280.777344 C 175.929688 281.027344 175.460938 281.238281 174.972656 281.40625 C 174.488281 281.578125 173.988281 281.707031 173.480469 281.789062 C 172.972656 281.875 172.457031 281.917969 171.941406 281.917969 Z M 171.941406 281.917969 " fill-opacity="1" fill-rule="nonzero"></path><path fill="#000000" d="M 204.257812 156.164062 C 203.269531 156.164062 202.289062 156.066406 201.320312 155.875 C 200.351562 155.683594 199.410156 155.394531 198.496094 155.019531 C 197.582031 154.640625 196.714844 154.175781 195.894531 153.628906 C 195.070312 153.078125 194.3125 152.457031 193.613281 151.757812 C 192.914062 151.058594 192.289062 150.296875 191.738281 149.476562 C 191.191406 148.65625 190.726562 147.789062 190.347656 146.875 C 189.96875 145.964844 189.683594 145.023438 189.492188 144.054688 C 189.296875 143.085938 189.203125 142.105469 189.203125 141.117188 C 189.203125 140.132812 189.296875 139.152344 189.492188 138.183594 C 189.683594 137.214844 189.96875 136.273438 190.347656 135.363281 C 190.726562 134.449219 191.191406 133.582031 191.738281 132.761719 C 192.289062 131.941406 192.914062 131.179688 193.613281 130.480469 C 194.3125 129.78125 195.070312 129.160156 195.894531 128.609375 C 196.714844 128.0625 197.582031 127.597656 198.496094 127.21875 C 199.410156 126.84375 200.351562 126.554688 201.320312 126.363281 C 202.289062 126.171875 203.269531 126.074219 204.257812 126.074219 C 205.246094 126.074219 206.226562 126.171875 207.195312 126.363281 C 208.164062 126.554688 209.105469 126.84375 210.019531 127.21875 C 210.933594 127.597656 211.800781 128.0625 212.625 128.609375 C 213.445312 129.160156 214.207031 129.78125 214.90625 130.480469 C 215.605469 131.179688 216.230469 131.941406 216.777344 132.761719 C 217.328125 133.582031 217.792969 134.449219 218.167969 135.363281 C 218.546875 136.273438 218.832031 137.214844 219.027344 138.183594 C 219.21875 139.152344 219.316406 140.132812 219.316406 141.117188 C 219.316406 142.105469 219.21875 143.085938 219.023438 144.054688 C 218.832031 145.023438 218.542969 145.960938 218.167969 146.875 C 217.789062 147.785156 217.324219 148.652344 216.773438 149.472656 C 216.226562 150.296875 215.601562 151.054688 214.902344 151.753906 C 214.203125 152.453125 213.441406 153.074219 212.621094 153.625 C 211.800781 154.171875 210.933594 154.636719 210.019531 155.015625 C 209.105469 155.394531 208.164062 155.679688 207.195312 155.871094 C 206.226562 156.066406 205.246094 156.164062 204.257812 156.164062 Z M 204.257812 129.210938 C 203.476562 129.210938 202.699219 129.285156 201.933594 129.4375 C 201.164062 129.589844 200.421875 129.816406 199.695312 130.117188 C 198.972656 130.414062 198.285156 130.78125 197.636719 131.214844 C 196.984375 131.652344 196.382812 132.144531 195.828125 132.699219 C 195.277344 133.25 194.78125 133.851562 194.347656 134.503906 C 193.914062 135.152344 193.546875 135.839844 193.246094 136.5625 C 192.945312 137.285156 192.71875 138.027344 192.566406 138.796875 C 192.414062 139.5625 192.339844 140.335938 192.339844 141.117188 C 192.339844 141.902344 192.414062 142.675781 192.566406 143.441406 C 192.71875 144.210938 192.945312 144.953125 193.246094 145.675781 C 193.546875 146.398438 193.914062 147.085938 194.347656 147.734375 C 194.78125 148.386719 195.277344 148.988281 195.828125 149.539062 C 196.382812 150.09375 196.984375 150.585938 197.636719 151.023438 C 198.285156 151.457031 198.972656 151.824219 199.695312 152.121094 C 200.421875 152.421875 201.164062 152.648438 201.933594 152.800781 C 202.699219 152.953125 203.476562 153.027344 204.257812 153.027344 C 205.042969 153.027344 205.816406 152.953125 206.585938 152.800781 C 207.351562 152.648438 208.097656 152.421875 208.820312 152.121094 C 209.542969 151.824219 210.230469 151.457031 210.882812 151.023438 C 211.53125 150.585938 212.132812 150.09375 212.6875 149.539062 C 213.242188 148.988281 213.734375 148.386719 214.167969 147.734375 C 214.605469 147.085938 214.972656 146.398438 215.269531 145.675781 C 215.570312 144.953125 215.796875 144.210938 215.949219 143.441406 C 216.101562 142.675781 216.179688 141.902344 216.179688 141.117188 C 216.179688 140.335938 216.101562 139.5625 215.949219 138.796875 C 215.796875 138.03125 215.570312 137.285156 215.269531 136.5625 C 214.96875 135.84375 214.601562 135.15625 214.167969 134.507812 C 213.730469 133.855469 213.238281 133.253906 212.683594 132.703125 C 212.132812 132.148438 211.527344 131.65625 210.878906 131.222656 C 210.226562 130.789062 209.542969 130.421875 208.816406 130.125 C 208.09375 129.824219 207.351562 129.597656 206.582031 129.445312 C 205.816406 129.292969 205.039062 129.21875 204.257812 129.21875 Z M 204.257812 129.210938 " fill-opacity="1" fill-rule="nonzero"></path><g clip-path="url(#5da3c48c19)"><path fill="#000000" d="M 83.078125 281.917969 C 82.746094 281.917969 82.417969 281.898438 82.089844 281.855469 C 81.761719 281.816406 81.4375 281.753906 81.117188 281.675781 C 80.796875 281.59375 80.484375 281.492188 80.175781 281.375 C 79.867188 281.253906 79.570312 281.117188 79.277344 280.960938 C 78.988281 280.804688 78.707031 280.628906 78.4375 280.4375 C 78.167969 280.246094 77.914062 280.042969 77.667969 279.820312 C 77.425781 279.597656 77.195312 279.359375 76.980469 279.109375 C 76.769531 278.855469 76.570312 278.59375 76.386719 278.320312 C 76.207031 278.042969 76.042969 277.757812 75.894531 277.460938 C 75.75 277.167969 75.621094 276.863281 75.511719 276.550781 C 75.402344 276.238281 75.3125 275.921875 75.242188 275.601562 C 75.171875 275.277344 75.125 274.953125 75.09375 274.625 C 75.066406 274.296875 75.054688 273.964844 75.066406 273.636719 C 75.078125 273.304688 75.109375 272.980469 75.160156 272.652344 C 75.210938 272.328125 75.285156 272.003906 75.375 271.6875 C 75.46875 271.371094 75.578125 271.0625 75.707031 270.757812 L 88 242.011719 L 77.960938 228.472656 L 73.300781 243.019531 C 73.074219 244.089844 72.632812 245.066406 71.984375 245.945312 L 53.824219 271.0625 C 53.511719 271.484375 53.164062 271.875 52.777344 272.226562 C 52.390625 272.582031 51.976562 272.894531 51.527344 273.167969 C 51.078125 273.441406 50.609375 273.664062 50.117188 273.847656 C 49.625 274.027344 49.121094 274.15625 48.605469 274.238281 C 48.085938 274.320312 47.566406 274.351562 47.042969 274.332031 C 46.519531 274.308594 46 274.238281 45.492188 274.117188 C 44.980469 273.996094 44.488281 273.824219 44.011719 273.605469 C 43.535156 273.386719 43.085938 273.125 42.660156 272.820312 C 42.234375 272.511719 41.84375 272.167969 41.488281 271.785156 C 41.128906 271.398438 40.8125 270.984375 40.539062 270.539062 C 40.261719 270.09375 40.03125 269.628906 39.847656 269.136719 C 39.664062 268.648438 39.53125 268.144531 39.445312 267.625 C 39.359375 267.109375 39.324219 266.589844 39.34375 266.066406 C 39.359375 265.542969 39.425781 265.027344 39.546875 264.515625 C 39.664062 264.007812 39.832031 263.511719 40.046875 263.035156 C 40.261719 262.558594 40.519531 262.105469 40.824219 261.679688 L 57.90625 238.046875 L 62.640625 167.007812 L 49.277344 181.003906 C 48.988281 181.308594 48.671875 181.582031 48.335938 181.824219 C 47.996094 182.070312 47.636719 182.28125 47.261719 182.464844 C 46.886719 182.644531 46.496094 182.789062 46.09375 182.898438 C 45.6875 183.011719 45.28125 183.085938 44.863281 183.121094 C 44.449219 183.160156 44.03125 183.15625 43.613281 183.121094 C 43.199219 183.082031 42.789062 183.007812 42.386719 182.894531 C 41.984375 182.785156 41.59375 182.636719 41.21875 182.457031 C 40.84375 182.273438 40.484375 182.058594 40.148438 181.8125 L 23.109375 169.347656 C 22.742188 169.078125 22.402344 168.777344 22.097656 168.441406 C 21.789062 168.105469 21.515625 167.742188 21.277344 167.351562 C 21.042969 166.960938 20.847656 166.554688 20.691406 166.125 C 20.535156 165.695312 20.421875 165.257812 20.351562 164.808594 C 20.285156 164.355469 20.257812 163.902344 20.277344 163.449219 C 20.300781 162.992188 20.363281 162.542969 20.472656 162.101562 C 20.582031 161.660156 20.730469 161.230469 20.921875 160.816406 C 21.117188 160.40625 21.347656 160.015625 21.617188 159.648438 C 21.886719 159.28125 22.191406 158.941406 22.527344 158.636719 C 22.863281 158.328125 23.226562 158.054688 23.617188 157.820312 C 24.007812 157.582031 24.414062 157.386719 24.84375 157.230469 C 25.273438 157.074219 25.710938 156.960938 26.164062 156.894531 C 26.613281 156.824219 27.066406 156.800781 27.523438 156.820312 C 27.976562 156.839844 28.425781 156.902344 28.871094 157.011719 C 29.3125 157.121094 29.742188 157.269531 30.15625 157.464844 C 30.566406 157.65625 30.957031 157.886719 31.328125 158.15625 L 43.445312 167.027344 L 56.277344 153.574219 C 57.082031 152.734375 58.035156 152.128906 59.144531 151.769531 C 60.25 151.40625 61.378906 151.328125 62.523438 151.53125 L 92.691406 156.925781 C 93.277344 157.03125 93.839844 157.210938 94.378906 157.460938 C 94.917969 157.714844 95.414062 158.027344 95.875 158.40625 C 96.332031 158.785156 96.734375 159.214844 97.085938 159.695312 C 97.433594 160.179688 97.714844 160.695312 97.929688 161.25 L 107.214844 185.152344 L 126.792969 180.699219 C 127.234375 180.597656 127.6875 180.542969 128.140625 180.527344 C 128.597656 180.515625 129.050781 180.546875 129.5 180.621094 C 129.949219 180.699219 130.386719 180.820312 130.8125 180.980469 C 131.238281 181.144531 131.644531 181.347656 132.03125 181.589844 C 132.417969 181.832031 132.777344 182.109375 133.105469 182.421875 C 133.4375 182.734375 133.734375 183.078125 134 183.449219 C 134.261719 183.824219 134.488281 184.21875 134.671875 184.632812 C 134.859375 185.050781 135 185.480469 135.101562 185.925781 C 135.203125 186.367188 135.257812 186.816406 135.269531 187.273438 C 135.285156 187.726562 135.25 188.179688 135.175781 188.628906 C 135.097656 189.078125 134.976562 189.515625 134.816406 189.9375 C 134.652344 190.363281 134.449219 190.769531 134.207031 191.15625 C 133.964844 191.539062 133.6875 191.898438 133.371094 192.226562 C 133.058594 192.558594 132.71875 192.855469 132.34375 193.121094 C 131.972656 193.382812 131.578125 193.605469 131.164062 193.792969 C 130.746094 193.980469 130.316406 194.121094 129.875 194.222656 L 104.453125 200.007812 C 104.050781 200.097656 103.640625 200.148438 103.230469 200.164062 C 102.820312 200.179688 102.410156 200.160156 102 200.105469 C 101.59375 200.046875 101.191406 199.957031 100.800781 199.828125 C 100.40625 199.703125 100.03125 199.542969 99.664062 199.351562 C 99.300781 199.15625 98.957031 198.933594 98.632812 198.679688 C 98.308594 198.425781 98.007812 198.144531 97.734375 197.839844 C 97.457031 197.53125 97.210938 197.203125 96.996094 196.855469 C 96.777344 196.503906 96.589844 196.140625 96.4375 195.757812 L 90.164062 179.613281 L 90.164062 214.988281 L 103.851562 237.027344 C 104.539062 238.136719 104.933594 239.34375 105.03125 240.644531 C 105.132812 241.945312 104.925781 243.195312 104.414062 244.398438 L 90.445312 277.054688 C 90.136719 277.773438 89.730469 278.4375 89.230469 279.039062 C 88.726562 279.640625 88.148438 280.160156 87.492188 280.59375 C 86.835938 281.023438 86.132812 281.355469 85.382812 281.578125 C 84.628906 281.804688 83.863281 281.917969 83.078125 281.917969 Z M 77.394531 223.515625 C 77.917969 223.515625 78.335938 223.722656 78.648438 224.144531 L 91.054688 240.859375 C 91.222656 241.082031 91.320312 241.332031 91.351562 241.609375 C 91.386719 241.886719 91.347656 242.152344 91.238281 242.410156 L 78.589844 271.992188 C 78.464844 272.289062 78.367188 272.589844 78.300781 272.90625 C 78.238281 273.21875 78.203125 273.535156 78.199219 273.855469 C 78.195312 274.175781 78.222656 274.492188 78.28125 274.808594 C 78.339844 275.121094 78.429688 275.425781 78.550781 275.722656 C 78.667969 276.019531 78.816406 276.304688 78.992188 276.570312 C 79.167969 276.839844 79.367188 277.089844 79.589844 277.316406 C 79.816406 277.546875 80.058594 277.75 80.324219 277.933594 C 80.585938 278.113281 80.867188 278.265625 81.160156 278.394531 C 81.457031 278.511719 81.761719 278.601562 82.074219 278.664062 C 82.386719 278.726562 82.703125 278.757812 83.023438 278.757812 C 83.339844 278.757812 83.65625 278.726562 83.96875 278.667969 C 84.285156 278.609375 84.585938 278.519531 84.882812 278.398438 C 85.179688 278.28125 85.460938 278.136719 85.730469 277.960938 C 85.996094 277.789062 86.246094 277.59375 86.476562 277.371094 C 86.707031 277.152344 86.914062 276.910156 87.097656 276.648438 C 87.28125 276.390625 87.4375 276.113281 87.566406 275.824219 L 101.535156 243.15625 C 101.847656 242.425781 101.972656 241.664062 101.910156 240.871094 C 101.851562 240.082031 101.613281 239.347656 101.195312 238.671875 L 87.269531 216.25 C 87.113281 216 87.035156 215.722656 87.035156 215.425781 L 87.035156 171.238281 C 87.035156 170.859375 87.15625 170.527344 87.394531 170.238281 C 87.636719 169.949219 87.941406 169.769531 88.3125 169.699219 C 88.683594 169.628906 89.035156 169.6875 89.363281 169.871094 C 89.695312 170.050781 89.925781 170.320312 90.0625 170.671875 L 99.363281 194.621094 C 99.53125 195.046875 99.765625 195.425781 100.070312 195.765625 C 100.375 196.105469 100.726562 196.382812 101.128906 196.597656 C 101.53125 196.808594 101.960938 196.945312 102.410156 197.007812 C 102.863281 197.070312 103.3125 197.050781 103.753906 196.953125 L 129.171875 191.167969 C 129.664062 191.054688 130.117188 190.855469 130.527344 190.5625 C 130.941406 190.273438 131.28125 189.914062 131.550781 189.488281 C 131.816406 189.058594 131.996094 188.597656 132.078125 188.101562 C 132.164062 187.605469 132.152344 187.109375 132.039062 186.617188 C 131.925781 186.125 131.726562 185.675781 131.433594 185.261719 C 131.144531 184.851562 130.785156 184.511719 130.355469 184.242188 C 129.929688 183.972656 129.46875 183.796875 128.96875 183.710938 C 128.472656 183.628906 127.976562 183.640625 127.484375 183.753906 L 106.589844 188.511719 C 106.40625 188.550781 106.222656 188.558594 106.035156 188.535156 C 105.851562 188.511719 105.675781 188.453125 105.507812 188.367188 C 105.34375 188.277344 105.195312 188.164062 105.070312 188.023438 C 104.945312 187.882812 104.847656 187.726562 104.78125 187.550781 L 95.007812 162.378906 C 94.765625 161.761719 94.386719 161.242188 93.875 160.820312 C 93.363281 160.398438 92.78125 160.128906 92.128906 160.007812 L 61.960938 154.617188 C 61.332031 154.503906 60.714844 154.546875 60.105469 154.746094 C 59.5 154.945312 58.976562 155.273438 58.535156 155.738281 L 44.753906 170.183594 C 44.625 170.320312 44.472656 170.433594 44.300781 170.515625 C 44.128906 170.597656 43.949219 170.648438 43.757812 170.664062 C 43.570312 170.679688 43.382812 170.664062 43.199219 170.613281 C 43.015625 170.5625 42.847656 170.480469 42.691406 170.367188 L 29.460938 160.683594 C 29.054688 160.386719 28.605469 160.179688 28.117188 160.058594 C 27.625 159.9375 27.132812 159.917969 26.632812 159.996094 C 26.132812 160.070312 25.667969 160.242188 25.238281 160.503906 C 24.808594 160.765625 24.441406 161.097656 24.144531 161.503906 C 23.847656 161.910156 23.636719 162.359375 23.515625 162.851562 C 23.398438 163.339844 23.375 163.832031 23.453125 164.332031 C 23.53125 164.828125 23.699219 165.292969 23.960938 165.726562 C 24.222656 166.15625 24.558594 166.519531 24.964844 166.816406 L 42.003906 179.285156 C 42.375 179.558594 42.785156 179.757812 43.230469 179.882812 C 43.675781 180.007812 44.128906 180.046875 44.589844 180.007812 C 45.050781 179.96875 45.488281 179.847656 45.90625 179.644531 C 46.324219 179.445312 46.691406 179.175781 47.011719 178.84375 L 62.066406 163.070312 C 62.457031 162.664062 62.925781 162.511719 63.480469 162.609375 L 64.679688 162.820312 C 64.867188 162.851562 65.046875 162.917969 65.210938 163.019531 C 65.375 163.117188 65.519531 163.242188 65.636719 163.394531 C 65.757812 163.546875 65.84375 163.714844 65.902344 163.898438 C 65.957031 164.085938 65.980469 164.273438 65.964844 164.464844 L 61.007812 238.703125 C 60.988281 239.003906 60.890625 239.277344 60.714844 239.519531 L 43.367188 263.515625 C 43.179688 263.773438 43.019531 264.050781 42.886719 264.339844 C 42.753906 264.632812 42.648438 264.933594 42.574219 265.246094 C 42.5 265.558594 42.457031 265.871094 42.445312 266.191406 C 42.433594 266.511719 42.453125 266.832031 42.503906 267.148438 C 42.558594 267.460938 42.636719 267.769531 42.75 268.070312 C 42.863281 268.371094 43 268.65625 43.167969 268.929688 C 43.335938 269.203125 43.53125 269.457031 43.75 269.691406 C 43.96875 269.925781 44.207031 270.136719 44.464844 270.324219 C 44.726562 270.511719 45 270.671875 45.292969 270.804688 C 45.582031 270.9375 45.886719 271.042969 46.195312 271.113281 C 46.507812 271.1875 46.824219 271.230469 47.144531 271.242188 C 47.464844 271.253906 47.785156 271.234375 48.101562 271.183594 C 48.417969 271.132812 48.726562 271.050781 49.023438 270.941406 C 49.324219 270.828125 49.613281 270.6875 49.882812 270.519531 C 50.15625 270.351562 50.410156 270.160156 50.644531 269.941406 C 50.878906 269.722656 51.089844 269.484375 51.28125 269.226562 L 69.4375 244.105469 C 69.847656 243.535156 70.125 242.910156 70.265625 242.222656 L 75.910156 224.601562 C 76 224.324219 76.15625 224.085938 76.378906 223.894531 C 76.601562 223.703125 76.859375 223.582031 77.148438 223.535156 C 77.230469 223.523438 77.3125 223.515625 77.394531 223.515625 Z M 77.394531 223.515625 " fill-opacity="1" fill-rule="nonzero"></path></g><path fill="#000000" d="M 83.65625 150.53125 C 82.652344 150.53125 81.65625 150.433594 80.671875 150.238281 C 79.6875 150.042969 78.730469 149.753906 77.800781 149.371094 C 76.875 148.984375 75.992188 148.515625 75.15625 147.957031 C 74.320312 147.398438 73.546875 146.765625 72.839844 146.054688 C 72.128906 145.347656 71.492188 144.574219 70.933594 143.742188 C 70.378906 142.90625 69.90625 142.023438 69.523438 141.097656 C 69.136719 140.171875 68.847656 139.214844 68.652344 138.230469 C 68.453125 137.246094 68.355469 136.253906 68.355469 135.25 C 68.355469 134.246094 68.453125 133.25 68.652344 132.265625 C 68.847656 131.28125 69.136719 130.324219 69.519531 129.398438 C 69.90625 128.472656 70.375 127.589844 70.933594 126.757812 C 71.492188 125.921875 72.128906 125.148438 72.835938 124.441406 C 73.546875 123.730469 74.320312 123.097656 75.15625 122.539062 C 75.992188 121.980469 76.871094 121.511719 77.800781 121.125 C 78.730469 120.742188 79.683594 120.453125 80.671875 120.257812 C 81.65625 120.0625 82.652344 119.964844 83.65625 119.964844 C 84.660156 119.964844 85.65625 120.0625 86.640625 120.257812 C 87.625 120.453125 88.582031 120.742188 89.507812 121.125 C 90.4375 121.511719 91.320312 121.980469 92.15625 122.539062 C 92.988281 123.097656 93.761719 123.730469 94.472656 124.441406 C 95.183594 125.152344 95.816406 125.921875 96.375 126.757812 C 96.933594 127.589844 97.402344 128.472656 97.789062 129.398438 C 98.171875 130.328125 98.460938 131.285156 98.660156 132.269531 C 98.855469 133.253906 98.953125 134.246094 98.953125 135.25 C 98.949219 136.253906 98.851562 137.246094 98.65625 138.230469 C 98.457031 139.214844 98.167969 140.167969 97.78125 141.09375 C 97.398438 142.023438 96.925781 142.902344 96.367188 143.734375 C 95.808594 144.570312 95.175781 145.339844 94.464844 146.050781 C 93.757812 146.761719 92.984375 147.394531 92.148438 147.949219 C 91.316406 148.507812 90.433594 148.980469 89.507812 149.363281 C 88.578125 149.75 87.625 150.039062 86.640625 150.234375 C 85.65625 150.433594 84.660156 150.53125 83.65625 150.53125 Z M 83.65625 123.097656 C 82.859375 123.097656 82.066406 123.175781 81.285156 123.332031 C 80.5 123.488281 79.738281 123.71875 79.003906 124.023438 C 78.265625 124.328125 77.5625 124.703125 76.898438 125.144531 C 76.234375 125.589844 75.621094 126.09375 75.058594 126.65625 C 74.492188 127.222656 73.988281 127.835938 73.542969 128.496094 C 73.101562 129.160156 72.726562 129.863281 72.417969 130.597656 C 72.113281 131.335938 71.882812 132.09375 71.726562 132.878906 C 71.570312 133.660156 71.492188 134.449219 71.492188 135.25 C 71.492188 136.046875 71.570312 136.835938 71.726562 137.617188 C 71.882812 138.402344 72.113281 139.160156 72.417969 139.898438 C 72.722656 140.636719 73.097656 141.335938 73.542969 142 C 73.984375 142.664062 74.488281 143.277344 75.054688 143.839844 C 75.621094 144.40625 76.234375 144.910156 76.898438 145.351562 C 77.5625 145.796875 78.261719 146.167969 79 146.476562 C 79.738281 146.78125 80.496094 147.011719 81.28125 147.167969 C 82.0625 147.320312 82.855469 147.398438 83.652344 147.398438 C 84.453125 147.398438 85.242188 147.324219 86.027344 147.167969 C 86.808594 147.011719 87.570312 146.78125 88.308594 146.476562 C 89.046875 146.171875 89.746094 145.796875 90.410156 145.351562 C 91.074219 144.910156 91.6875 144.40625 92.253906 143.839844 C 92.816406 143.277344 93.320312 142.664062 93.765625 142 C 94.210938 141.335938 94.582031 140.636719 94.890625 139.898438 C 95.195312 139.164062 95.425781 138.402344 95.582031 137.621094 C 95.738281 136.835938 95.816406 136.046875 95.816406 135.25 C 95.8125 134.453125 95.734375 133.664062 95.578125 132.878906 C 95.421875 132.097656 95.191406 131.339844 94.886719 130.601562 C 94.578125 129.867188 94.207031 129.167969 93.761719 128.503906 C 93.316406 127.839844 92.8125 127.226562 92.25 126.664062 C 91.683594 126.097656 91.070312 125.59375 90.410156 125.152344 C 89.746094 124.707031 89.042969 124.335938 88.308594 124.027344 C 87.570312 123.722656 86.808594 123.492188 86.027344 123.335938 C 85.246094 123.179688 84.453125 123.101562 83.65625 123.097656 Z M 83.65625 123.097656 " fill-opacity="1" fill-rule="nonzero"></path><path fill="#000000" d="M 111.269531 120.226562 C 110.628906 120.300781 109.996094 120.273438 109.371094 120.144531 C 108.742188 120.015625 108.148438 119.789062 107.59375 119.46875 C 107.039062 119.148438 106.546875 118.75 106.117188 118.273438 C 105.691406 117.796875 105.347656 117.261719 105.09375 116.675781 C 104.144531 113.609375 106.910156 110.125 111.386719 108.734375 C 113.296875 108.113281 115.230469 108.019531 117.1875 108.457031 C 118.078125 108.621094 118.871094 109 119.5625 109.582031 C 120.253906 110.167969 120.757812 110.882812 121.070312 111.734375 C 122.019531 114.796875 119.253906 118.28125 114.773438 119.671875 C 113.632812 120.035156 112.464844 120.21875 111.269531 120.226562 Z M 114.914062 111.328125 C 114.027344 111.339844 113.160156 111.476562 112.316406 111.746094 C 109.457031 112.628906 107.726562 114.59375 108.089844 115.761719 C 108.449219 116.929688 110.988281 117.574219 113.847656 116.691406 C 116.703125 115.808594 118.433594 113.839844 118.074219 112.671875 C 117.910156 112.355469 117.679688 112.089844 117.386719 111.886719 C 117.09375 111.679688 116.769531 111.554688 116.414062 111.507812 C 115.921875 111.386719 115.421875 111.328125 114.914062 111.328125 Z M 111.851562 110.242188 Z M 111.851562 110.242188 " fill-opacity="1" fill-rule="nonzero"></path><path fill="#000000" d="M 135.132812 111.605469 C 134.363281 111.613281 133.601562 111.519531 132.855469 111.335938 C 131.964844 111.171875 131.171875 110.796875 130.480469 110.210938 C 129.785156 109.628906 129.285156 108.910156 128.972656 108.0625 C 128.75 107.183594 128.757812 106.308594 129 105.4375 C 129.242188 104.5625 129.683594 103.808594 130.324219 103.167969 C 131.691406 101.699219 133.335938 100.683594 135.261719 100.125 C 139.742188 98.742188 143.992188 100.054688 144.945312 103.121094 C 145.164062 104 145.15625 104.875 144.914062 105.746094 C 144.675781 106.617188 144.234375 107.375 143.59375 108.011719 C 142.226562 109.484375 140.578125 110.5 138.648438 111.058594 C 137.503906 111.417969 136.332031 111.601562 135.132812 111.605469 Z M 138.800781 102.707031 C 137.910156 102.714844 137.042969 102.855469 136.195312 103.125 C 134.832031 103.511719 133.660156 104.21875 132.679688 105.242188 C 132.410156 105.480469 132.210938 105.765625 132.085938 106.101562 C 131.960938 106.4375 131.921875 106.785156 131.96875 107.140625 C 132.132812 107.460938 132.359375 107.722656 132.652344 107.925781 C 132.945312 108.132812 133.273438 108.257812 133.628906 108.300781 C 134.308594 108.429688 135 108.472656 135.691406 108.433594 C 136.382812 108.394531 137.0625 108.273438 137.726562 108.066406 C 138.390625 107.863281 139.019531 107.582031 139.613281 107.222656 C 140.207031 106.863281 140.75 106.441406 141.242188 105.949219 C 141.511719 105.710938 141.707031 105.425781 141.832031 105.089844 C 141.957031 104.753906 141.996094 104.40625 141.949219 104.050781 C 141.707031 103.257812 140.464844 102.707031 138.800781 102.707031 Z M 138.800781 102.707031 " fill-opacity="1" fill-rule="nonzero"></path><path fill="#000000" d="M 119.578125 113.769531 C 119.371094 113.769531 119.171875 113.730469 118.976562 113.652344 C 118.785156 113.570312 118.617188 113.457031 118.46875 113.3125 C 118.324219 113.164062 118.207031 112.996094 118.128906 112.800781 C 118.050781 112.609375 118.011719 112.410156 118.011719 112.203125 L 118.011719 88.679688 C 118.011719 88.3125 118.066406 87.953125 118.179688 87.601562 C 118.292969 87.25 118.453125 86.921875 118.667969 86.621094 C 118.882812 86.320312 119.136719 86.058594 119.433594 85.839844 C 119.730469 85.617188 120.050781 85.445312 120.398438 85.324219 L 140.425781 78.386719 C 140.691406 78.296875 140.964844 78.238281 141.25 78.210938 C 141.53125 78.183594 141.8125 78.191406 142.089844 78.234375 C 142.371094 78.273438 142.640625 78.347656 142.90625 78.453125 C 143.167969 78.558594 143.414062 78.691406 143.644531 78.855469 C 143.875 79.019531 144.082031 79.210938 144.265625 79.421875 C 144.453125 79.636719 144.609375 79.871094 144.738281 80.121094 C 144.867188 80.371094 144.964844 80.636719 145.035156 80.910156 C 145.101562 81.183594 145.132812 81.464844 145.132812 81.746094 L 145.132812 103.578125 C 145.132812 103.785156 145.09375 103.988281 145.015625 104.179688 C 144.933594 104.371094 144.820312 104.539062 144.675781 104.6875 C 144.527344 104.835938 144.359375 104.949219 144.164062 105.027344 C 143.972656 105.105469 143.773438 105.144531 143.566406 105.144531 C 143.355469 105.144531 143.15625 105.105469 142.964844 105.027344 C 142.773438 104.949219 142.601562 104.835938 142.457031 104.6875 C 142.308594 104.539062 142.195312 104.371094 142.117188 104.179688 C 142.035156 103.988281 141.996094 103.785156 141.996094 103.578125 L 141.996094 81.746094 C 141.996094 81.601562 141.9375 81.488281 141.820312 81.402344 C 141.703125 81.316406 141.578125 81.300781 141.441406 81.351562 L 121.421875 88.285156 C 121.234375 88.351562 121.136719 88.480469 121.136719 88.679688 L 121.136719 112.203125 C 121.136719 112.410156 121.097656 112.609375 121.019531 112.800781 C 120.941406 112.992188 120.828125 113.160156 120.683594 113.308594 C 120.535156 113.453125 120.367188 113.566406 120.175781 113.648438 C 119.984375 113.726562 119.785156 113.769531 119.578125 113.769531 Z M 119.578125 113.769531 " fill-opacity="1" fill-rule="nonzero"></path><path fill="#000000" d="M 201.210938 115.726562 C 199.929688 115.71875 198.679688 115.507812 197.464844 115.097656 C 193.019531 113.609375 190.335938 110.0625 191.355469 107.019531 C 191.6875 106.175781 192.207031 105.472656 192.914062 104.90625 C 193.617188 104.335938 194.417969 103.980469 195.3125 103.835938 C 196.28125 103.660156 197.253906 103.605469 198.234375 103.675781 C 199.214844 103.742188 200.171875 103.933594 201.105469 104.246094 C 202.039062 104.558594 202.917969 104.984375 203.742188 105.515625 C 204.566406 106.050781 205.3125 106.679688 205.976562 107.40625 C 206.601562 108.058594 207.027344 108.824219 207.246094 109.703125 C 207.46875 110.578125 207.457031 111.453125 207.214844 112.324219 C 206.882812 113.167969 206.363281 113.875 205.660156 114.441406 C 204.953125 115.007812 204.152344 115.367188 203.257812 115.511719 C 202.585938 115.660156 201.902344 115.730469 201.210938 115.726562 Z M 197.347656 106.742188 C 196.898438 106.738281 196.453125 106.785156 196.015625 106.878906 C 195.65625 106.917969 195.328125 107.035156 195.03125 107.234375 C 194.734375 107.433594 194.5 107.691406 194.328125 108.007812 C 193.941406 109.164062 195.625 111.167969 198.460938 112.117188 C 199.796875 112.597656 201.160156 112.707031 202.550781 112.449219 C 202.910156 112.414062 203.238281 112.292969 203.535156 112.09375 C 203.835938 111.894531 204.066406 111.636719 204.238281 111.320312 C 204.292969 110.964844 204.261719 110.621094 204.144531 110.28125 C 204.027344 109.945312 203.835938 109.652344 203.574219 109.410156 C 202.617188 108.363281 201.460938 107.632812 200.109375 107.210938 C 199.214844 106.90625 198.292969 106.75 197.347656 106.742188 Z M 197.347656 106.742188 " fill-opacity="1" fill-rule="nonzero"></path><path fill="#000000" d="M 225.636719 122.65625 C 224.355469 122.648438 223.105469 122.441406 221.890625 122.03125 C 217.445312 120.542969 214.757812 116.992188 215.78125 113.949219 C 216.800781 110.902344 221.085938 109.6875 225.527344 111.175781 C 227.441406 111.78125 229.066406 112.832031 230.398438 114.332031 C 230.726562 114.640625 231.003906 114.992188 231.234375 115.378906 C 231.460938 115.765625 231.628906 116.179688 231.738281 116.613281 C 231.847656 117.050781 231.894531 117.492188 231.878906 117.941406 C 231.859375 118.390625 231.78125 118.832031 231.636719 119.257812 C 231.496094 119.683594 231.292969 120.082031 231.035156 120.449219 C 230.78125 120.820312 230.476562 121.144531 230.125 121.425781 C 229.773438 121.710938 229.390625 121.9375 228.976562 122.109375 C 228.558594 122.28125 228.128906 122.390625 227.679688 122.441406 C 227.007812 122.589844 226.328125 122.660156 225.636719 122.65625 Z M 221.761719 113.671875 C 220.1875 113.671875 219.007812 114.183594 218.753906 114.941406 C 218.367188 116.097656 220.050781 118.105469 222.886719 119.054688 C 224.21875 119.53125 225.585938 119.640625 226.976562 119.382812 C 227.335938 119.347656 227.664062 119.226562 227.960938 119.027344 C 228.257812 118.828125 228.492188 118.570312 228.660156 118.253906 C 228.71875 117.902344 228.6875 117.554688 228.566406 117.21875 C 228.449219 116.878906 228.257812 116.585938 227.996094 116.34375 C 227.039062 115.300781 225.882812 114.566406 224.53125 114.144531 C 223.632812 113.835938 222.710938 113.679688 221.761719 113.667969 Z M 221.761719 113.671875 " fill-opacity="1" fill-rule="nonzero"></path><path fill="#000000" d="M 230.246094 120.386719 C 229.949219 120.386719 229.679688 120.3125 229.425781 120.160156 C 229.175781 120.003906 228.984375 119.796875 228.847656 119.535156 C 228.714844 119.273438 228.65625 118.996094 228.679688 118.703125 C 228.703125 118.410156 228.800781 118.144531 228.972656 117.90625 L 241.726562 100.175781 C 241.8125 100.058594 241.832031 99.933594 241.785156 99.796875 C 241.738281 99.65625 241.648438 99.570312 241.507812 99.53125 L 221.199219 93.480469 C 221.007812 93.425781 220.855469 93.476562 220.742188 93.636719 L 206.992188 112.734375 C 206.871094 112.902344 206.722656 113.042969 206.546875 113.152344 C 206.371094 113.261719 206.179688 113.332031 205.972656 113.367188 C 205.769531 113.398438 205.566406 113.394531 205.363281 113.347656 C 205.160156 113.296875 204.976562 113.214844 204.804688 113.09375 C 204.636719 112.972656 204.5 112.824219 204.390625 112.644531 C 204.28125 112.46875 204.207031 112.277344 204.175781 112.074219 C 204.140625 111.867188 204.148438 111.664062 204.195312 111.464844 C 204.242188 111.261719 204.328125 111.074219 204.449219 110.90625 L 218.191406 91.8125 C 218.410156 91.511719 218.664062 91.25 218.960938 91.03125 C 219.257812 90.8125 219.582031 90.640625 219.929688 90.523438 C 220.28125 90.402344 220.640625 90.339844 221.007812 90.332031 C 221.378906 90.324219 221.742188 90.371094 222.09375 90.476562 L 242.402344 96.523438 C 242.675781 96.605469 242.933594 96.71875 243.179688 96.859375 C 243.421875 97.003906 243.648438 97.171875 243.851562 97.367188 C 244.058594 97.566406 244.234375 97.78125 244.386719 98.023438 C 244.539062 98.261719 244.660156 98.515625 244.753906 98.78125 C 244.84375 99.050781 244.902344 99.324219 244.929688 99.605469 C 244.957031 99.890625 244.949219 100.171875 244.90625 100.449219 C 244.863281 100.730469 244.789062 101.003906 244.683594 101.265625 C 244.578125 101.527344 244.441406 101.773438 244.273438 102.003906 L 231.519531 119.734375 C 231.207031 120.171875 230.78125 120.386719 230.246094 120.386719 Z M 230.246094 120.386719 " fill-opacity="1" fill-rule="nonzero"></path></svg> 