<?xml version="1.0" encoding="UTF-8"?> <svg xmlns="http://www.w3.org/2000/svg" xmlns:xlink="http://www.w3.org/1999/xlink" width="360" zoomAndPan="magnify" viewBox="0 0 270 359.999987" height="480" preserveAspectRatio="xMidYMid meet" version="1.0"><defs><g></g><clipPath id="3df07ba927"><rect x="0" width="268" y="0" height="32"></rect></clipPath></defs><g transform="matrix(1, 0, 0, 1, 1, 164)"><g clip-path="url(#3df07ba927)"><g fill="#000000" fill-opacity="1"><g transform="translate(0.991968, 23.56945)"><g><path d="M 4.875 -15.671875 C 3.789062 -15.671875 2.976562 -15.394531 2.4375 -14.84375 C 1.894531 -14.300781 1.503906 -13.363281 1.265625 -12.03125 C 1.265625 -12 1.21875 -11.984375 1.125 -11.984375 C 1.03125 -11.984375 0.984375 -12 0.984375 -12.03125 C 1.046875 -12.65625 1.117188 -13.46875 1.203125 -14.46875 C 1.296875 -15.46875 1.34375 -16.210938 1.34375 -16.703125 C 1.34375 -16.796875 1.390625 -16.84375 1.484375 -16.84375 C 1.578125 -16.84375 1.625 -16.796875 1.625 -16.703125 C 1.625 -16.328125 2.085938 -16.140625 3.015625 -16.140625 C 4.484375 -16.085938 6.21875 -16.0625 8.21875 -16.0625 C 9.226562 -16.0625 10.300781 -16.078125 11.4375 -16.109375 L 13.203125 -16.140625 C 13.816406 -16.140625 14.273438 -16.179688 14.578125 -16.265625 C 14.878906 -16.359375 15.070312 -16.53125 15.15625 -16.78125 C 15.175781 -16.851562 15.226562 -16.890625 15.3125 -16.890625 C 15.394531 -16.890625 15.4375 -16.851562 15.4375 -16.78125 C 15.394531 -16.289062 15.347656 -15.535156 15.296875 -14.515625 C 15.242188 -13.492188 15.21875 -12.664062 15.21875 -12.03125 C 15.21875 -12 15.164062 -11.984375 15.0625 -11.984375 C 14.957031 -11.984375 14.90625 -12 14.90625 -12.03125 C 14.851562 -13.375 14.578125 -14.316406 14.078125 -14.859375 C 13.578125 -15.398438 12.75 -15.671875 11.59375 -15.671875 C 10.820312 -15.671875 10.269531 -15.632812 9.9375 -15.5625 C 9.613281 -15.5 9.390625 -15.351562 9.265625 -15.125 C 9.148438 -14.90625 9.09375 -14.53125 9.09375 -14 L 9.09375 -2.09375 C 9.09375 -1.5625 9.148438 -1.171875 9.265625 -0.921875 C 9.390625 -0.679688 9.625 -0.519531 9.96875 -0.4375 C 10.3125 -0.351562 10.851562 -0.3125 11.59375 -0.3125 C 11.644531 -0.3125 11.671875 -0.257812 11.671875 -0.15625 C 11.671875 -0.0507812 11.644531 0 11.59375 0 C 11.03125 0 10.578125 -0.0078125 10.234375 -0.03125 L 8.21875 -0.046875 L 6.28125 -0.03125 C 5.9375 -0.0078125 5.460938 0 4.859375 0 C 4.816406 0 4.796875 -0.0507812 4.796875 -0.15625 C 4.796875 -0.257812 4.816406 -0.3125 4.859375 -0.3125 C 5.597656 -0.3125 6.140625 -0.351562 6.484375 -0.4375 C 6.828125 -0.519531 7.0625 -0.6875 7.1875 -0.9375 C 7.320312 -1.1875 7.390625 -1.570312 7.390625 -2.09375 L 7.390625 -14.046875 C 7.390625 -14.578125 7.328125 -14.953125 7.203125 -15.171875 C 7.085938 -15.390625 6.863281 -15.523438 6.53125 -15.578125 C 6.207031 -15.640625 5.65625 -15.671875 4.875 -15.671875 Z M 4.875 -15.671875 "></path></g></g></g><g fill="#000000" fill-opacity="1"><g transform="translate(17.362407, 23.56945)"><g><path d="M 9.453125 0.3125 C 7.847656 0.3125 6.421875 -0.0625 5.171875 -0.8125 C 3.929688 -1.5625 2.96875 -2.578125 2.28125 -3.859375 C 1.601562 -5.140625 1.265625 -6.539062 1.265625 -8.0625 C 1.265625 -9.832031 1.710938 -11.347656 2.609375 -12.609375 C 3.503906 -13.878906 4.648438 -14.832031 6.046875 -15.46875 C 7.453125 -16.101562 8.890625 -16.421875 10.359375 -16.421875 C 11.992188 -16.421875 13.429688 -16.035156 14.671875 -15.265625 C 15.910156 -14.503906 16.859375 -13.492188 17.515625 -12.234375 C 18.179688 -10.984375 18.515625 -9.648438 18.515625 -8.234375 C 18.515625 -6.671875 18.101562 -5.234375 17.28125 -3.921875 C 16.457031 -2.617188 15.347656 -1.585938 13.953125 -0.828125 C 12.566406 -0.0664062 11.066406 0.3125 9.453125 0.3125 Z M 10.359375 -0.234375 C 11.523438 -0.234375 12.578125 -0.515625 13.515625 -1.078125 C 14.453125 -1.648438 15.191406 -2.488281 15.734375 -3.59375 C 16.285156 -4.695312 16.5625 -6.003906 16.5625 -7.515625 C 16.5625 -9.128906 16.257812 -10.566406 15.65625 -11.828125 C 15.050781 -13.085938 14.203125 -14.066406 13.109375 -14.765625 C 12.015625 -15.472656 10.734375 -15.828125 9.265625 -15.828125 C 7.378906 -15.828125 5.898438 -15.21875 4.828125 -14 C 3.765625 -12.78125 3.234375 -11.101562 3.234375 -8.96875 C 3.234375 -7.34375 3.53125 -5.863281 4.125 -4.53125 C 4.726562 -3.195312 5.570312 -2.144531 6.65625 -1.375 C 7.75 -0.613281 8.984375 -0.234375 10.359375 -0.234375 Z M 10.359375 -0.234375 "></path></g></g></g><g fill="#000000" fill-opacity="1"><g transform="translate(37.141201, 23.56945)"><g><path d="M 10.4375 -17.375 C 9.832031 -17.375 9.253906 -17.484375 8.703125 -17.703125 C 8.148438 -17.929688 7.707031 -18.226562 7.375 -18.59375 C 7.039062 -18.957031 6.875 -19.335938 6.875 -19.734375 C 6.875 -19.972656 6.9375 -20.160156 7.0625 -20.296875 C 7.1875 -20.429688 7.363281 -20.5 7.59375 -20.5 C 7.914062 -20.5 8.140625 -20.398438 8.265625 -20.203125 C 8.398438 -20.003906 8.53125 -19.691406 8.65625 -19.265625 C 8.976562 -18.210938 9.5625 -17.6875 10.40625 -17.6875 C 10.882812 -17.6875 11.28125 -17.832031 11.59375 -18.125 C 11.90625 -18.425781 12.125 -18.804688 12.25 -19.265625 C 12.363281 -19.679688 12.488281 -19.988281 12.625 -20.1875 C 12.769531 -20.394531 12.992188 -20.5 13.296875 -20.5 C 13.785156 -20.5 14.03125 -20.234375 14.03125 -19.703125 C 14.03125 -19.304688 13.851562 -18.925781 13.5 -18.5625 C 13.15625 -18.207031 12.707031 -17.921875 12.15625 -17.703125 C 11.613281 -17.484375 11.039062 -17.375 10.4375 -17.375 Z M 18.90625 -0.3125 C 18.957031 -0.3125 18.984375 -0.257812 18.984375 -0.15625 C 18.984375 -0.0507812 18.957031 0 18.90625 0 C 18.375 0 17.941406 -0.0078125 17.609375 -0.03125 L 15.828125 -0.046875 L 13.953125 -0.03125 C 13.640625 -0.0078125 13.234375 0 12.734375 0 C 12.679688 0 12.65625 -0.0507812 12.65625 -0.15625 C 12.65625 -0.257812 12.679688 -0.3125 12.734375 -0.3125 C 13.398438 -0.3125 13.890625 -0.351562 14.203125 -0.4375 C 14.515625 -0.519531 14.722656 -0.679688 14.828125 -0.921875 C 14.929688 -1.171875 14.984375 -1.5625 14.984375 -2.09375 L 14.984375 -14 L 3.875 0.234375 C 3.820312 0.296875 3.71875 0.328125 3.5625 0.328125 C 3.300781 0.328125 3.171875 0.269531 3.171875 0.15625 L 3.171875 -14.046875 C 3.171875 -14.566406 3.113281 -14.945312 3 -15.1875 C 2.894531 -15.425781 2.679688 -15.59375 2.359375 -15.6875 C 2.046875 -15.78125 1.5625 -15.828125 0.90625 -15.828125 C 0.875 -15.828125 0.859375 -15.878906 0.859375 -15.984375 C 0.859375 -16.085938 0.875 -16.140625 0.90625 -16.140625 L 2.25 -16.109375 C 2.96875 -16.078125 3.550781 -16.0625 4 -16.0625 C 4.5 -16.0625 5.128906 -16.078125 5.890625 -16.109375 L 7.109375 -16.140625 C 7.160156 -16.140625 7.1875 -16.085938 7.1875 -15.984375 C 7.1875 -15.878906 7.160156 -15.828125 7.109375 -15.828125 C 6.429688 -15.828125 5.9375 -15.78125 5.625 -15.6875 C 5.320312 -15.59375 5.117188 -15.425781 5.015625 -15.1875 C 4.910156 -14.945312 4.859375 -14.566406 4.859375 -14.046875 L 4.859375 -1.984375 L 15.984375 -16.265625 C 16.035156 -16.316406 16.128906 -16.34375 16.265625 -16.34375 C 16.523438 -16.34375 16.65625 -16.285156 16.65625 -16.171875 L 16.65625 -2.09375 C 16.65625 -1.570312 16.710938 -1.1875 16.828125 -0.9375 C 16.941406 -0.6875 17.148438 -0.519531 17.453125 -0.4375 C 17.765625 -0.351562 18.25 -0.3125 18.90625 -0.3125 Z M 18.90625 -0.3125 "></path></g></g></g><g fill="#000000" fill-opacity="1"><g transform="translate(56.997465, 23.56945)"><g></g></g></g><g fill="#000000" fill-opacity="1"><g transform="translate(63.039555, 23.56945)"><g><path d="M 18.203125 -0.3125 C 18.253906 -0.3125 18.28125 -0.257812 18.28125 -0.15625 C 18.28125 -0.0507812 18.253906 0 18.203125 0 C 17.648438 0 17.222656 -0.0078125 16.921875 -0.03125 L 15.15625 -0.046875 L 13.328125 -0.03125 C 13.015625 -0.0078125 12.59375 0 12.0625 0 C 12.007812 0 11.984375 -0.0507812 11.984375 -0.15625 C 11.984375 -0.257812 12.007812 -0.3125 12.0625 -0.3125 C 12.71875 -0.3125 13.195312 -0.351562 13.5 -0.4375 C 13.8125 -0.519531 14.019531 -0.6875 14.125 -0.9375 C 14.226562 -1.1875 14.28125 -1.570312 14.28125 -2.09375 L 14.28125 -13.953125 C 14.28125 -14.535156 14.25 -14.921875 14.1875 -15.109375 C 14.132812 -15.296875 13.984375 -15.414062 13.734375 -15.46875 C 13.492188 -15.519531 13.003906 -15.546875 12.265625 -15.546875 L 6.96875 -15.546875 C 6.195312 -15.546875 5.679688 -15.519531 5.421875 -15.46875 C 5.160156 -15.414062 4.992188 -15.289062 4.921875 -15.09375 C 4.859375 -14.894531 4.828125 -14.515625 4.828125 -13.953125 L 4.828125 -2.09375 C 4.828125 -1.570312 4.882812 -1.1875 5 -0.9375 C 5.113281 -0.6875 5.316406 -0.519531 5.609375 -0.4375 C 5.910156 -0.351562 6.398438 -0.3125 7.078125 -0.3125 C 7.109375 -0.3125 7.125 -0.257812 7.125 -0.15625 C 7.125 -0.0507812 7.109375 0 7.078125 0 C 6.546875 0 6.125 -0.0078125 5.8125 -0.03125 L 3.953125 -0.046875 L 2.203125 -0.03125 C 1.890625 -0.0078125 1.457031 0 0.90625 0 C 0.875 0 0.859375 -0.0507812 0.859375 -0.15625 C 0.859375 -0.257812 0.875 -0.3125 0.90625 -0.3125 C 1.5625 -0.3125 2.046875 -0.351562 2.359375 -0.4375 C 2.679688 -0.519531 2.894531 -0.6875 3 -0.9375 C 3.113281 -1.1875 3.171875 -1.570312 3.171875 -2.09375 L 3.171875 -13.734375 C 3.171875 -14.273438 3.113281 -14.691406 3 -14.984375 C 2.894531 -15.273438 2.675781 -15.488281 2.34375 -15.625 C 2.019531 -15.757812 1.550781 -15.828125 0.9375 -15.828125 C 0.894531 -15.828125 0.875 -15.878906 0.875 -15.984375 C 0.875 -16.085938 0.894531 -16.140625 0.9375 -16.140625 C 1.519531 -16.140625 2.078125 -16.128906 2.609375 -16.109375 C 4.847656 -16.078125 7.195312 -16.0625 9.65625 -16.0625 C 11.894531 -16.0625 14.460938 -16.085938 17.359375 -16.140625 L 18.203125 -16.140625 C 18.253906 -16.140625 18.28125 -16.085938 18.28125 -15.984375 C 18.28125 -15.878906 18.253906 -15.828125 18.203125 -15.828125 C 17.304688 -15.828125 16.707031 -15.671875 16.40625 -15.359375 C 16.113281 -15.054688 15.96875 -14.515625 15.96875 -13.734375 L 15.96875 -2.09375 C 15.96875 -1.570312 16.019531 -1.1875 16.125 -0.9375 C 16.238281 -0.6875 16.453125 -0.519531 16.765625 -0.4375 C 17.078125 -0.351562 17.554688 -0.3125 18.203125 -0.3125 Z M 18.203125 -0.3125 "></path></g></g></g><g fill="#000000" fill-opacity="1"><g transform="translate(82.172833, 23.56945)"><g><path d="M 4.953125 -2.203125 C 4.953125 -1.648438 5.023438 -1.25 5.171875 -1 C 5.316406 -0.75 5.597656 -0.570312 6.015625 -0.46875 C 6.441406 -0.363281 7.113281 -0.3125 8.03125 -0.3125 C 8.082031 -0.3125 8.109375 -0.257812 8.109375 -0.15625 C 8.109375 -0.0507812 8.082031 0 8.03125 0 C 7.320312 0 6.769531 -0.0078125 6.375 -0.03125 L 4.125 -0.046875 L 2.40625 -0.03125 C 2.070312 -0.0078125 1.628906 0 1.078125 0 C 1.046875 0 1.03125 -0.0507812 1.03125 -0.15625 C 1.03125 -0.257812 1.046875 -0.3125 1.078125 -0.3125 C 1.734375 -0.3125 2.210938 -0.351562 2.515625 -0.4375 C 2.816406 -0.519531 3.019531 -0.6875 3.125 -0.9375 C 3.226562 -1.1875 3.28125 -1.570312 3.28125 -2.09375 L 3.28125 -14.046875 C 3.28125 -14.566406 3.226562 -14.945312 3.125 -15.1875 C 3.019531 -15.425781 2.816406 -15.59375 2.515625 -15.6875 C 2.210938 -15.78125 1.734375 -15.828125 1.078125 -15.828125 C 1.046875 -15.828125 1.03125 -15.878906 1.03125 -15.984375 C 1.03125 -16.085938 1.046875 -16.140625 1.078125 -16.140625 L 2.375 -16.109375 C 3.101562 -16.078125 3.679688 -16.0625 4.109375 -16.0625 C 4.535156 -16.0625 5.015625 -16.085938 5.546875 -16.140625 C 5.753906 -16.140625 6.082031 -16.148438 6.53125 -16.171875 C 6.976562 -16.203125 7.367188 -16.21875 7.703125 -16.21875 C 9.285156 -16.21875 10.550781 -15.863281 11.5 -15.15625 C 12.457031 -14.457031 12.9375 -13.382812 12.9375 -11.9375 C 12.9375 -10.800781 12.65625 -9.84375 12.09375 -9.0625 C 11.539062 -8.289062 10.828125 -7.710938 9.953125 -7.328125 C 9.085938 -6.953125 8.1875 -6.765625 7.25 -6.765625 C 6.738281 -6.765625 6.316406 -6.804688 5.984375 -6.890625 C 5.941406 -6.890625 5.921875 -6.9375 5.921875 -7.03125 C 5.921875 -7.082031 5.929688 -7.128906 5.953125 -7.171875 C 5.972656 -7.222656 6.003906 -7.242188 6.046875 -7.234375 C 6.316406 -7.160156 6.625 -7.125 6.96875 -7.125 C 8.101562 -7.125 9.0625 -7.492188 9.84375 -8.234375 C 10.632812 -8.972656 11.03125 -10.039062 11.03125 -11.4375 C 11.03125 -12.800781 10.660156 -13.875 9.921875 -14.65625 C 9.179688 -15.4375 8.234375 -15.828125 7.078125 -15.828125 C 6.453125 -15.828125 6.003906 -15.789062 5.734375 -15.71875 C 5.460938 -15.65625 5.265625 -15.5 5.140625 -15.25 C 5.015625 -15 4.953125 -14.582031 4.953125 -14 Z M 4.953125 -2.203125 "></path></g></g></g><g fill="#000000" fill-opacity="1"><g transform="translate(96.193571, 23.56945)"><g><path d="M 9.453125 0.3125 C 7.847656 0.3125 6.421875 -0.0625 5.171875 -0.8125 C 3.929688 -1.5625 2.96875 -2.578125 2.28125 -3.859375 C 1.601562 -5.140625 1.265625 -6.539062 1.265625 -8.0625 C 1.265625 -9.832031 1.710938 -11.347656 2.609375 -12.609375 C 3.503906 -13.878906 4.648438 -14.832031 6.046875 -15.46875 C 7.453125 -16.101562 8.890625 -16.421875 10.359375 -16.421875 C 11.992188 -16.421875 13.429688 -16.035156 14.671875 -15.265625 C 15.910156 -14.503906 16.859375 -13.492188 17.515625 -12.234375 C 18.179688 -10.984375 18.515625 -9.648438 18.515625 -8.234375 C 18.515625 -6.671875 18.101562 -5.234375 17.28125 -3.921875 C 16.457031 -2.617188 15.347656 -1.585938 13.953125 -0.828125 C 12.566406 -0.0664062 11.066406 0.3125 9.453125 0.3125 Z M 10.359375 -0.234375 C 11.523438 -0.234375 12.578125 -0.515625 13.515625 -1.078125 C 14.453125 -1.648438 15.191406 -2.488281 15.734375 -3.59375 C 16.285156 -4.695312 16.5625 -6.003906 16.5625 -7.515625 C 16.5625 -9.128906 16.257812 -10.566406 15.65625 -11.828125 C 15.050781 -13.085938 14.203125 -14.066406 13.109375 -14.765625 C 12.015625 -15.472656 10.734375 -15.828125 9.265625 -15.828125 C 7.378906 -15.828125 5.898438 -15.21875 4.828125 -14 C 3.765625 -12.78125 3.234375 -11.101562 3.234375 -8.96875 C 3.234375 -7.34375 3.53125 -5.863281 4.125 -4.53125 C 4.726562 -3.195312 5.570312 -2.144531 6.65625 -1.375 C 7.75 -0.613281 8.984375 -0.234375 10.359375 -0.234375 Z M 10.359375 -0.234375 "></path></g></g></g><g fill="#000000" fill-opacity="1"><g transform="translate(115.972365, 23.56945)"><g><path d="M 1.078125 0 C 1.046875 0 1.03125 -0.0507812 1.03125 -0.15625 C 1.03125 -0.257812 1.046875 -0.3125 1.078125 -0.3125 C 1.734375 -0.3125 2.21875 -0.351562 2.53125 -0.4375 C 2.84375 -0.519531 3.050781 -0.6875 3.15625 -0.9375 C 3.269531 -1.1875 3.328125 -1.570312 3.328125 -2.09375 L 3.328125 -14.046875 C 3.328125 -14.566406 3.269531 -14.945312 3.15625 -15.1875 C 3.050781 -15.425781 2.847656 -15.59375 2.546875 -15.6875 C 2.242188 -15.78125 1.765625 -15.828125 1.109375 -15.828125 C 1.078125 -15.828125 1.0625 -15.878906 1.0625 -15.984375 C 1.0625 -16.085938 1.078125 -16.140625 1.109375 -16.140625 L 12.03125 -16.140625 C 12.207031 -16.140625 12.296875 -16.0625 12.296875 -15.90625 L 12.34375 -12.53125 C 12.34375 -12.476562 12.289062 -12.453125 12.1875 -12.453125 C 12.082031 -12.453125 12.03125 -12.476562 12.03125 -12.53125 C 11.96875 -13.488281 11.675781 -14.238281 11.15625 -14.78125 C 10.644531 -15.320312 9.972656 -15.59375 9.140625 -15.59375 L 7.109375 -15.59375 C 6.515625 -15.59375 6.070312 -15.550781 5.78125 -15.46875 C 5.488281 -15.382812 5.285156 -15.226562 5.171875 -15 C 5.066406 -14.78125 5.015625 -14.457031 5.015625 -14.03125 L 5.015625 -2.203125 C 5.015625 -1.648438 5.085938 -1.25 5.234375 -1 C 5.378906 -0.75 5.664062 -0.570312 6.09375 -0.46875 C 6.519531 -0.363281 7.203125 -0.3125 8.140625 -0.3125 C 8.191406 -0.3125 8.21875 -0.257812 8.21875 -0.15625 C 8.21875 -0.0507812 8.191406 0 8.140625 0 C 7.429688 0 6.878906 -0.0078125 6.484375 -0.03125 L 4.15625 -0.046875 L 2.40625 -0.03125 C 2.09375 -0.0078125 1.648438 0 1.078125 0 Z M 1.078125 0 "></path></g></g></g><g fill="#000000" fill-opacity="1"><g transform="translate(129.218483, 23.56945)"><g><path d="M 4.953125 -2.203125 C 4.953125 -1.648438 5.023438 -1.25 5.171875 -1 C 5.316406 -0.75 5.597656 -0.570312 6.015625 -0.46875 C 6.441406 -0.363281 7.113281 -0.3125 8.03125 -0.3125 C 8.082031 -0.3125 8.109375 -0.257812 8.109375 -0.15625 C 8.109375 -0.0507812 8.082031 0 8.03125 0 C 7.320312 0 6.769531 -0.0078125 6.375 -0.03125 L 4.125 -0.046875 L 2.40625 -0.03125 C 2.070312 -0.0078125 1.628906 0 1.078125 0 C 1.046875 0 1.03125 -0.0507812 1.03125 -0.15625 C 1.03125 -0.257812 1.046875 -0.3125 1.078125 -0.3125 C 1.734375 -0.3125 2.210938 -0.351562 2.515625 -0.4375 C 2.816406 -0.519531 3.019531 -0.6875 3.125 -0.9375 C 3.226562 -1.1875 3.28125 -1.570312 3.28125 -2.09375 L 3.28125 -14.046875 C 3.28125 -14.566406 3.226562 -14.945312 3.125 -15.1875 C 3.019531 -15.425781 2.816406 -15.59375 2.515625 -15.6875 C 2.210938 -15.78125 1.734375 -15.828125 1.078125 -15.828125 C 1.046875 -15.828125 1.03125 -15.878906 1.03125 -15.984375 C 1.03125 -16.085938 1.046875 -16.140625 1.078125 -16.140625 L 2.375 -16.109375 C 3.101562 -16.078125 3.679688 -16.0625 4.109375 -16.0625 C 4.535156 -16.0625 5.015625 -16.085938 5.546875 -16.140625 C 5.753906 -16.140625 6.082031 -16.148438 6.53125 -16.171875 C 6.976562 -16.203125 7.367188 -16.21875 7.703125 -16.21875 C 9.285156 -16.21875 10.550781 -15.863281 11.5 -15.15625 C 12.457031 -14.457031 12.9375 -13.382812 12.9375 -11.9375 C 12.9375 -10.800781 12.65625 -9.84375 12.09375 -9.0625 C 11.539062 -8.289062 10.828125 -7.710938 9.953125 -7.328125 C 9.085938 -6.953125 8.1875 -6.765625 7.25 -6.765625 C 6.738281 -6.765625 6.316406 -6.804688 5.984375 -6.890625 C 5.941406 -6.890625 5.921875 -6.9375 5.921875 -7.03125 C 5.921875 -7.082031 5.929688 -7.128906 5.953125 -7.171875 C 5.972656 -7.222656 6.003906 -7.242188 6.046875 -7.234375 C 6.316406 -7.160156 6.625 -7.125 6.96875 -7.125 C 8.101562 -7.125 9.0625 -7.492188 9.84375 -8.234375 C 10.632812 -8.972656 11.03125 -10.039062 11.03125 -11.4375 C 11.03125 -12.800781 10.660156 -13.875 9.921875 -14.65625 C 9.179688 -15.4375 8.234375 -15.828125 7.078125 -15.828125 C 6.453125 -15.828125 6.003906 -15.789062 5.734375 -15.71875 C 5.460938 -15.65625 5.265625 -15.5 5.140625 -15.25 C 5.015625 -15 4.953125 -14.582031 4.953125 -14 Z M 4.953125 -2.203125 "></path></g></g></g><g fill="#000000" fill-opacity="1"><g transform="translate(143.239221, 23.56945)"><g><path d="M 18.046875 -0.3125 C 18.117188 -0.3125 18.15625 -0.257812 18.15625 -0.15625 C 18.15625 -0.0507812 18.117188 0 18.046875 0 C 17.722656 0 17.21875 -0.015625 16.53125 -0.046875 C 15.84375 -0.0859375 15.34375 -0.109375 15.03125 -0.109375 C 14.65625 -0.109375 14.171875 -0.0859375 13.578125 -0.046875 C 13.035156 -0.015625 12.613281 0 12.3125 0 C 12.25 0 12.21875 -0.0507812 12.21875 -0.15625 C 12.21875 -0.257812 12.25 -0.3125 12.3125 -0.3125 C 12.957031 -0.3125 13.425781 -0.367188 13.71875 -0.484375 C 14.007812 -0.609375 14.15625 -0.816406 14.15625 -1.109375 C 14.15625 -1.347656 14.039062 -1.71875 13.8125 -2.21875 L 11.515625 -7.109375 L 5.375 -7.109375 L 3.75 -3.28125 C 3.507812 -2.695312 3.390625 -2.222656 3.390625 -1.859375 C 3.390625 -1.328125 3.597656 -0.9375 4.015625 -0.6875 C 4.441406 -0.4375 5.078125 -0.3125 5.921875 -0.3125 C 6.003906 -0.3125 6.046875 -0.257812 6.046875 -0.15625 C 6.046875 -0.0507812 6.003906 0 5.921875 0 C 5.609375 0 5.160156 -0.015625 4.578125 -0.046875 C 3.921875 -0.0859375 3.347656 -0.109375 2.859375 -0.109375 C 2.421875 -0.109375 1.90625 -0.0859375 1.3125 -0.046875 C 0.800781 -0.015625 0.375 0 0.03125 0 C -0.0625 0 -0.109375 -0.0507812 -0.109375 -0.15625 C -0.109375 -0.257812 -0.0625 -0.3125 0.03125 -0.3125 C 0.507812 -0.3125 0.914062 -0.398438 1.25 -0.578125 C 1.582031 -0.765625 1.898438 -1.082031 2.203125 -1.53125 C 2.503906 -1.988281 2.835938 -2.648438 3.203125 -3.515625 L 8.65625 -16.375 C 8.6875 -16.425781 8.742188 -16.453125 8.828125 -16.453125 C 8.921875 -16.453125 8.972656 -16.425781 8.984375 -16.375 L 15.078125 -3.53125 C 15.671875 -2.257812 16.171875 -1.40625 16.578125 -0.96875 C 16.992188 -0.53125 17.484375 -0.3125 18.046875 -0.3125 Z M 5.578125 -7.625 L 11.28125 -7.625 L 8.265625 -14 Z M 5.578125 -7.625 "></path></g></g></g><g fill="#000000" fill-opacity="1"><g transform="translate(161.365478, 23.56945)"><g><path d="M 20.96875 -0.3125 C 21.019531 -0.3125 21.046875 -0.257812 21.046875 -0.15625 C 21.046875 -0.0507812 21.019531 0 20.96875 0 C 20.4375 0 20.015625 -0.0078125 19.703125 -0.03125 L 17.921875 -0.046875 L 16.265625 -0.03125 C 15.992188 -0.0078125 15.609375 0 15.109375 0 C 15.078125 0 15.0625 -0.0507812 15.0625 -0.15625 C 15.0625 -0.257812 15.078125 -0.3125 15.109375 -0.3125 C 15.691406 -0.3125 16.125 -0.359375 16.40625 -0.453125 C 16.695312 -0.546875 16.890625 -0.710938 16.984375 -0.953125 C 17.078125 -1.191406 17.109375 -1.570312 17.078125 -2.09375 L 16.609375 -13.84375 L 10.71875 -0.1875 C 10.6875 -0.113281 10.617188 -0.078125 10.515625 -0.078125 C 10.429688 -0.078125 10.351562 -0.113281 10.28125 -0.1875 L 3.921875 -13.6875 L 3.6875 -2.8125 C 3.675781 -1.90625 3.832031 -1.257812 4.15625 -0.875 C 4.488281 -0.5 5.066406 -0.3125 5.890625 -0.3125 C 5.921875 -0.3125 5.9375 -0.257812 5.9375 -0.15625 C 5.9375 -0.0507812 5.921875 0 5.890625 0 C 5.410156 0 5.039062 -0.0078125 4.78125 -0.03125 L 3.390625 -0.046875 L 2.046875 -0.03125 C 1.796875 -0.0078125 1.445312 0 1 0 C 0.96875 0 0.953125 -0.0507812 0.953125 -0.15625 C 0.953125 -0.257812 0.96875 -0.3125 1 -0.3125 C 1.726562 -0.3125 2.25 -0.503906 2.5625 -0.890625 C 2.882812 -1.273438 3.054688 -1.914062 3.078125 -2.8125 L 3.3125 -14.796875 C 2.789062 -15.484375 2.082031 -15.828125 1.1875 -15.828125 C 1.15625 -15.828125 1.140625 -15.878906 1.140625 -15.984375 C 1.140625 -16.085938 1.15625 -16.140625 1.1875 -16.140625 L 2.140625 -16.109375 C 2.316406 -16.097656 2.554688 -16.09375 2.859375 -16.09375 C 3.171875 -16.09375 3.4375 -16.097656 3.65625 -16.109375 C 3.875 -16.128906 4.039062 -16.140625 4.15625 -16.140625 C 4.382812 -16.140625 4.570312 -16.054688 4.71875 -15.890625 C 4.863281 -15.734375 5.070312 -15.367188 5.34375 -14.796875 L 11.109375 -2.65625 L 16.734375 -15.5 C 16.921875 -15.925781 17.179688 -16.140625 17.515625 -16.140625 C 17.597656 -16.140625 17.71875 -16.128906 17.875 -16.109375 C 18.039062 -16.097656 18.265625 -16.09375 18.546875 -16.09375 L 19.765625 -16.109375 C 19.953125 -16.128906 20.234375 -16.140625 20.609375 -16.140625 C 20.660156 -16.140625 20.6875 -16.085938 20.6875 -15.984375 C 20.6875 -15.878906 20.660156 -15.828125 20.609375 -15.828125 C 19.742188 -15.828125 19.125 -15.703125 18.75 -15.453125 C 18.382812 -15.203125 18.210938 -14.734375 18.234375 -14.046875 L 18.75 -2.09375 C 18.769531 -1.5625 18.832031 -1.171875 18.9375 -0.921875 C 19.050781 -0.679688 19.253906 -0.519531 19.546875 -0.4375 C 19.835938 -0.351562 20.3125 -0.3125 20.96875 -0.3125 Z M 20.96875 -0.3125 "></path></g></g></g><g fill="#000000" fill-opacity="1"><g transform="translate(182.951738, 23.56945)"><g><path d="M 20.96875 -0.3125 C 21.019531 -0.3125 21.046875 -0.257812 21.046875 -0.15625 C 21.046875 -0.0507812 21.019531 0 20.96875 0 C 20.4375 0 20.015625 -0.0078125 19.703125 -0.03125 L 17.921875 -0.046875 L 16.265625 -0.03125 C 15.992188 -0.0078125 15.609375 0 15.109375 0 C 15.078125 0 15.0625 -0.0507812 15.0625 -0.15625 C 15.0625 -0.257812 15.078125 -0.3125 15.109375 -0.3125 C 15.691406 -0.3125 16.125 -0.359375 16.40625 -0.453125 C 16.695312 -0.546875 16.890625 -0.710938 16.984375 -0.953125 C 17.078125 -1.191406 17.109375 -1.570312 17.078125 -2.09375 L 16.609375 -13.84375 L 10.71875 -0.1875 C 10.6875 -0.113281 10.617188 -0.078125 10.515625 -0.078125 C 10.429688 -0.078125 10.351562 -0.113281 10.28125 -0.1875 L 3.921875 -13.6875 L 3.6875 -2.8125 C 3.675781 -1.90625 3.832031 -1.257812 4.15625 -0.875 C 4.488281 -0.5 5.066406 -0.3125 5.890625 -0.3125 C 5.921875 -0.3125 5.9375 -0.257812 5.9375 -0.15625 C 5.9375 -0.0507812 5.921875 0 5.890625 0 C 5.410156 0 5.039062 -0.0078125 4.78125 -0.03125 L 3.390625 -0.046875 L 2.046875 -0.03125 C 1.796875 -0.0078125 1.445312 0 1 0 C 0.96875 0 0.953125 -0.0507812 0.953125 -0.15625 C 0.953125 -0.257812 0.96875 -0.3125 1 -0.3125 C 1.726562 -0.3125 2.25 -0.503906 2.5625 -0.890625 C 2.882812 -1.273438 3.054688 -1.914062 3.078125 -2.8125 L 3.3125 -14.796875 C 2.789062 -15.484375 2.082031 -15.828125 1.1875 -15.828125 C 1.15625 -15.828125 1.140625 -15.878906 1.140625 -15.984375 C 1.140625 -16.085938 1.15625 -16.140625 1.1875 -16.140625 L 2.140625 -16.109375 C 2.316406 -16.097656 2.554688 -16.09375 2.859375 -16.09375 C 3.171875 -16.09375 3.4375 -16.097656 3.65625 -16.109375 C 3.875 -16.128906 4.039062 -16.140625 4.15625 -16.140625 C 4.382812 -16.140625 4.570312 -16.054688 4.71875 -15.890625 C 4.863281 -15.734375 5.070312 -15.367188 5.34375 -14.796875 L 11.109375 -2.65625 L 16.734375 -15.5 C 16.921875 -15.925781 17.179688 -16.140625 17.515625 -16.140625 C 17.597656 -16.140625 17.71875 -16.128906 17.875 -16.109375 C 18.039062 -16.097656 18.265625 -16.09375 18.546875 -16.09375 L 19.765625 -16.109375 C 19.953125 -16.128906 20.234375 -16.140625 20.609375 -16.140625 C 20.660156 -16.140625 20.6875 -16.085938 20.6875 -15.984375 C 20.6875 -15.878906 20.660156 -15.828125 20.609375 -15.828125 C 19.742188 -15.828125 19.125 -15.703125 18.75 -15.453125 C 18.382812 -15.203125 18.210938 -14.734375 18.234375 -14.046875 L 18.75 -2.09375 C 18.769531 -1.5625 18.832031 -1.171875 18.9375 -0.921875 C 19.050781 -0.679688 19.253906 -0.519531 19.546875 -0.4375 C 19.835938 -0.351562 20.3125 -0.3125 20.96875 -0.3125 Z M 20.96875 -0.3125 "></path></g></g></g><g fill="#000000" fill-opacity="1"><g transform="translate(204.537998, 23.56945)"><g><path d="M 18.046875 -0.3125 C 18.117188 -0.3125 18.15625 -0.257812 18.15625 -0.15625 C 18.15625 -0.0507812 18.117188 0 18.046875 0 C 17.722656 0 17.21875 -0.015625 16.53125 -0.046875 C 15.84375 -0.0859375 15.34375 -0.109375 15.03125 -0.109375 C 14.65625 -0.109375 14.171875 -0.0859375 13.578125 -0.046875 C 13.035156 -0.015625 12.613281 0 12.3125 0 C 12.25 0 12.21875 -0.0507812 12.21875 -0.15625 C 12.21875 -0.257812 12.25 -0.3125 12.3125 -0.3125 C 12.957031 -0.3125 13.425781 -0.367188 13.71875 -0.484375 C 14.007812 -0.609375 14.15625 -0.816406 14.15625 -1.109375 C 14.15625 -1.347656 14.039062 -1.71875 13.8125 -2.21875 L 11.515625 -7.109375 L 5.375 -7.109375 L 3.75 -3.28125 C 3.507812 -2.695312 3.390625 -2.222656 3.390625 -1.859375 C 3.390625 -1.328125 3.597656 -0.9375 4.015625 -0.6875 C 4.441406 -0.4375 5.078125 -0.3125 5.921875 -0.3125 C 6.003906 -0.3125 6.046875 -0.257812 6.046875 -0.15625 C 6.046875 -0.0507812 6.003906 0 5.921875 0 C 5.609375 0 5.160156 -0.015625 4.578125 -0.046875 C 3.921875 -0.0859375 3.347656 -0.109375 2.859375 -0.109375 C 2.421875 -0.109375 1.90625 -0.0859375 1.3125 -0.046875 C 0.800781 -0.015625 0.375 0 0.03125 0 C -0.0625 0 -0.109375 -0.0507812 -0.109375 -0.15625 C -0.109375 -0.257812 -0.0625 -0.3125 0.03125 -0.3125 C 0.507812 -0.3125 0.914062 -0.398438 1.25 -0.578125 C 1.582031 -0.765625 1.898438 -1.082031 2.203125 -1.53125 C 2.503906 -1.988281 2.835938 -2.648438 3.203125 -3.515625 L 8.65625 -16.375 C 8.6875 -16.425781 8.742188 -16.453125 8.828125 -16.453125 C 8.921875 -16.453125 8.972656 -16.425781 8.984375 -16.375 L 15.078125 -3.53125 C 15.671875 -2.257812 16.171875 -1.40625 16.578125 -0.96875 C 16.992188 -0.53125 17.484375 -0.3125 18.046875 -0.3125 Z M 5.578125 -7.625 L 11.28125 -7.625 L 8.265625 -14 Z M 5.578125 -7.625 "></path></g></g></g><g fill="#000000" fill-opacity="1"><g transform="translate(222.664255, 23.56945)"><g><path d="M 10.71875 -16.421875 C 11.539062 -16.421875 12.375 -16.34375 13.21875 -16.1875 C 14.0625 -16.039062 14.734375 -15.816406 15.234375 -15.515625 C 15.390625 -15.453125 15.488281 -15.378906 15.53125 -15.296875 C 15.570312 -15.222656 15.601562 -15.09375 15.625 -14.90625 L 15.90625 -12.015625 C 15.90625 -11.960938 15.863281 -11.929688 15.78125 -11.921875 C 15.695312 -11.910156 15.644531 -11.929688 15.625 -11.984375 C 15.25 -13.304688 14.546875 -14.28125 13.515625 -14.90625 C 12.492188 -15.539062 11.226562 -15.859375 9.71875 -15.859375 C 8.40625 -15.859375 7.253906 -15.566406 6.265625 -14.984375 C 5.285156 -14.410156 4.53125 -13.597656 4 -12.546875 C 3.46875 -11.503906 3.203125 -10.289062 3.203125 -8.90625 C 3.203125 -7.3125 3.53125 -5.832031 4.1875 -4.46875 C 4.851562 -3.101562 5.75 -2.023438 6.875 -1.234375 C 8.007812 -0.441406 9.226562 -0.046875 10.53125 -0.046875 C 11.769531 -0.046875 12.847656 -0.382812 13.765625 -1.0625 C 14.679688 -1.75 15.378906 -2.796875 15.859375 -4.203125 C 15.859375 -4.253906 15.894531 -4.28125 15.96875 -4.28125 C 16.019531 -4.28125 16.066406 -4.269531 16.109375 -4.25 C 16.148438 -4.238281 16.171875 -4.21875 16.171875 -4.1875 L 15.8125 -1.265625 C 15.769531 -1.054688 15.726562 -0.921875 15.6875 -0.859375 C 15.644531 -0.804688 15.546875 -0.742188 15.390625 -0.671875 C 13.835938 -0.015625 12.203125 0.3125 10.484375 0.3125 C 8.421875 0.3125 6.695312 -0.101562 5.3125 -0.9375 C 3.925781 -1.78125 2.90625 -2.84375 2.25 -4.125 C 1.59375 -5.414062 1.265625 -6.78125 1.265625 -8.21875 C 1.265625 -9.800781 1.703125 -11.21875 2.578125 -12.46875 C 3.460938 -13.726562 4.625 -14.703125 6.0625 -15.390625 C 7.507812 -16.078125 9.0625 -16.421875 10.71875 -16.421875 Z M 10.71875 -16.421875 "></path></g></g></g><g fill="#000000" fill-opacity="1"><g transform="translate(239.938432, 23.56945)"><g><path d="M 7.921875 -9.125 C 9.566406 -9.125 10.84375 -8.796875 11.75 -8.140625 C 12.664062 -7.484375 13.125 -6.394531 13.125 -4.875 C 13.125 -3.894531 12.898438 -3.023438 12.453125 -2.265625 C 12.015625 -1.515625 11.398438 -0.929688 10.609375 -0.515625 C 9.816406 -0.0976562 8.914062 0.109375 7.90625 0.109375 C 7.457031 0.109375 6.921875 0.0820312 6.296875 0.03125 C 6.054688 0.0078125 5.75 -0.00390625 5.375 -0.015625 C 5.007812 -0.0351562 4.601562 -0.046875 4.15625 -0.046875 L 2.453125 -0.03125 C 2.128906 -0.0078125 1.679688 0 1.109375 0 C 1.078125 0 1.0625 -0.0507812 1.0625 -0.15625 C 1.0625 -0.257812 1.078125 -0.3125 1.109375 -0.3125 C 1.765625 -0.320312 2.242188 -0.367188 2.546875 -0.453125 C 2.859375 -0.546875 3.070312 -0.710938 3.1875 -0.953125 C 3.300781 -1.191406 3.359375 -1.570312 3.359375 -2.09375 L 3.359375 -14.046875 C 3.359375 -14.566406 3.304688 -14.945312 3.203125 -15.1875 C 3.097656 -15.425781 2.894531 -15.585938 2.59375 -15.671875 C 2.289062 -15.765625 1.8125 -15.816406 1.15625 -15.828125 C 1.101562 -15.828125 1.078125 -15.878906 1.078125 -15.984375 C 1.078125 -16.085938 1.101562 -16.140625 1.15625 -16.140625 L 2.40625 -16.109375 C 3.09375 -16.078125 3.675781 -16.0625 4.15625 -16.0625 C 4.65625 -16.0625 5.285156 -16.078125 6.046875 -16.109375 L 7.3125 -16.140625 C 7.34375 -16.140625 7.359375 -16.085938 7.359375 -15.984375 C 7.359375 -15.878906 7.34375 -15.828125 7.3125 -15.828125 C 6.632812 -15.816406 6.140625 -15.765625 5.828125 -15.671875 C 5.523438 -15.585938 5.316406 -15.421875 5.203125 -15.171875 C 5.085938 -14.921875 5.03125 -14.53125 5.03125 -14 L 5.03125 -8.828125 C 6.019531 -9.023438 6.984375 -9.125 7.921875 -9.125 Z M 20.734375 -0.3125 C 20.785156 -0.3125 20.8125 -0.257812 20.8125 -0.15625 C 20.8125 -0.0507812 20.785156 0 20.734375 0 C 20.222656 0 19.8125 -0.0078125 19.5 -0.03125 L 17.671875 -0.046875 L 15.890625 -0.03125 C 15.578125 -0.0078125 15.15625 0 14.625 0 C 14.570312 0 14.546875 -0.0507812 14.546875 -0.15625 C 14.546875 -0.257812 14.570312 -0.3125 14.625 -0.3125 C 15.269531 -0.3125 15.742188 -0.351562 16.046875 -0.4375 C 16.347656 -0.519531 16.554688 -0.6875 16.671875 -0.9375 C 16.785156 -1.1875 16.84375 -1.570312 16.84375 -2.09375 L 16.84375 -14.046875 C 16.84375 -14.566406 16.785156 -14.945312 16.671875 -15.1875 C 16.554688 -15.425781 16.347656 -15.59375 16.046875 -15.6875 C 15.742188 -15.78125 15.269531 -15.828125 14.625 -15.828125 C 14.570312 -15.828125 14.546875 -15.878906 14.546875 -15.984375 C 14.546875 -16.085938 14.570312 -16.140625 14.625 -16.140625 L 15.890625 -16.109375 C 16.609375 -16.078125 17.203125 -16.0625 17.671875 -16.0625 C 18.179688 -16.0625 18.800781 -16.078125 19.53125 -16.109375 L 20.734375 -16.140625 C 20.785156 -16.140625 20.8125 -16.085938 20.8125 -15.984375 C 20.8125 -15.878906 20.785156 -15.828125 20.734375 -15.828125 C 20.097656 -15.828125 19.628906 -15.773438 19.328125 -15.671875 C 19.023438 -15.566406 18.816406 -15.390625 18.703125 -15.140625 C 18.597656 -14.898438 18.546875 -14.519531 18.546875 -14 L 18.546875 -2.09375 C 18.546875 -1.570312 18.597656 -1.1875 18.703125 -0.9375 C 18.804688 -0.6875 19.007812 -0.519531 19.3125 -0.4375 C 19.613281 -0.351562 20.085938 -0.3125 20.734375 -0.3125 Z M 7.390625 -0.359375 C 8.785156 -0.359375 9.785156 -0.671875 10.390625 -1.296875 C 11.003906 -1.929688 11.3125 -2.921875 11.3125 -4.265625 C 11.3125 -5.816406 10.96875 -6.925781 10.28125 -7.59375 C 9.59375 -8.257812 8.59375 -8.59375 7.28125 -8.59375 C 6.613281 -8.59375 5.863281 -8.507812 5.03125 -8.34375 L 5.03125 -2.09375 C 5.03125 -1.488281 5.1875 -1.046875 5.5 -0.765625 C 5.8125 -0.492188 6.441406 -0.359375 7.390625 -0.359375 Z M 7.390625 -0.359375 "></path></g></g></g><g fill="#000000" fill-opacity="1"><g transform="translate(261.912008, 23.56945)"><g><path d="M 2.5625 -6.96875 C 2.21875 -6.96875 1.941406 -7.070312 1.734375 -7.28125 C 1.523438 -7.488281 1.421875 -7.765625 1.421875 -8.109375 C 1.421875 -8.429688 1.523438 -8.6875 1.734375 -8.875 C 1.941406 -9.070312 2.21875 -9.171875 2.5625 -9.171875 C 2.914062 -9.171875 3.191406 -9.070312 3.390625 -8.875 C 3.585938 -8.6875 3.6875 -8.429688 3.6875 -8.109375 C 3.6875 -7.765625 3.585938 -7.488281 3.390625 -7.28125 C 3.191406 -7.070312 2.914062 -6.96875 2.5625 -6.96875 Z M 2.5625 0.28125 C 2.21875 0.28125 1.941406 0.179688 1.734375 -0.015625 C 1.523438 -0.222656 1.421875 -0.503906 1.421875 -0.859375 C 1.421875 -1.179688 1.523438 -1.4375 1.734375 -1.625 C 1.941406 -1.8125 2.21875 -1.90625 2.5625 -1.90625 C 2.914062 -1.90625 3.191406 -1.8125 3.390625 -1.625 C 3.585938 -1.4375 3.6875 -1.179688 3.6875 -0.859375 C 3.6875 -0.503906 3.585938 -0.222656 3.390625 -0.015625 C 3.191406 0.179688 2.914062 0.28125 2.5625 0.28125 Z M 2.5625 0.28125 "></path></g></g></g></g></g></svg> 