<?xml version="1.0" encoding="UTF-8"?> <svg xmlns="http://www.w3.org/2000/svg" xmlns:xlink="http://www.w3.org/1999/xlink" width="360" zoomAndPan="magnify" viewBox="0 0 270 359.999987" height="480" preserveAspectRatio="xMidYMid meet" version="1.0"><defs><g></g><clipPath id="58925cfee8"><rect x="0" width="232" y="0" height="170"></rect></clipPath></defs><g transform="matrix(1, 0, 0, 1, 17, 82)"><g clip-path="url(#58925cfee8)"><g fill="#000000" fill-opacity="1"><g transform="translate(8.402348, 98.625691)"><g><path d="M 26.515625 -66.28125 C 26.660156 -66.425781 26.84375 -66.421875 27.0625 -66.265625 C 27.289062 -66.117188 27.328125 -65.9375 27.171875 -65.71875 C 25.835938 -63.269531 24.445312 -60.816406 23 -58.359375 C 21.550781 -55.910156 20.160156 -53.425781 18.828125 -50.90625 C 16.523438 -46.445312 14.238281 -41.953125 11.96875 -37.421875 C 9.707031 -32.890625 7.535156 -28.285156 5.453125 -23.609375 C 4.492188 -21.304688 3.53125 -19.003906 2.5625 -16.703125 C 1.59375 -14.398438 0.664062 -12.097656 -0.21875 -9.796875 C -1.1875 -7.421875 -2.097656 -5.046875 -2.953125 -2.671875 C -3.804688 -0.296875 -4.753906 2.003906 -5.796875 4.234375 C -5.867188 4.453125 -6.035156 4.503906 -6.296875 4.390625 C -6.554688 4.285156 -6.648438 4.125 -6.578125 3.90625 C -5.984375 1.15625 -5.203125 -1.554688 -4.234375 -4.234375 C -3.265625 -6.910156 -2.257812 -9.507812 -1.21875 -12.03125 C 0.632812 -16.78125 2.597656 -21.492188 4.671875 -26.171875 C 6.753906 -30.847656 8.945312 -35.453125 11.25 -39.984375 C 12.4375 -42.210938 13.625 -44.441406 14.8125 -46.671875 C 16 -48.898438 17.1875 -51.128906 18.375 -53.359375 C 19.632812 -55.515625 20.929688 -57.6875 22.265625 -59.875 C 23.609375 -62.0625 25.023438 -64.195312 26.515625 -66.28125 Z M 84.21875 -78.53125 C 84.582031 -78.457031 84.742188 -78.253906 84.703125 -77.921875 C 84.671875 -77.585938 84.46875 -77.421875 84.09375 -77.421875 C 82.757812 -77.492188 81.441406 -77.640625 80.140625 -77.859375 C 78.847656 -78.085938 77.53125 -78.273438 76.1875 -78.421875 C 73.59375 -78.785156 71.066406 -79.007812 68.609375 -79.09375 C 59.484375 -79.601562 50.351562 -78.96875 41.21875 -77.1875 C 36.6875 -76.445312 32.226562 -75.335938 27.84375 -73.859375 C 25.613281 -73.109375 23.441406 -72.320312 21.328125 -71.5 C 19.210938 -70.6875 17.078125 -69.835938 14.921875 -68.953125 C 14.847656 -68.878906 14.789062 -68.894531 14.75 -69 C 14.71875 -69.113281 14.738281 -69.207031 14.8125 -69.28125 C 17.039062 -70.539062 19.359375 -71.691406 21.765625 -72.734375 C 24.179688 -73.773438 26.617188 -74.703125 29.078125 -75.515625 C 37.835938 -78.492188 46.929688 -80.28125 56.359375 -80.875 C 58.734375 -81.019531 61.09375 -81.070312 63.4375 -81.03125 C 65.78125 -81 68.101562 -80.910156 70.40625 -80.765625 C 71.59375 -80.679688 72.757812 -80.582031 73.90625 -80.46875 C 75.0625 -80.363281 76.234375 -80.238281 77.421875 -80.09375 C 78.535156 -79.9375 79.6875 -79.75 80.875 -79.53125 C 82.0625 -79.3125 83.175781 -78.976562 84.21875 -78.53125 Z M 84.21875 -78.53125 "></path></g></g></g><g fill="#000000" fill-opacity="1"><g transform="translate(55.299185, 98.625691)"><g><path d="M 37.3125 -19.9375 C 37.539062 -20.082031 37.726562 -20.046875 37.875 -19.828125 C 38.019531 -19.609375 37.984375 -19.421875 37.765625 -19.265625 C 37.015625 -18.972656 36.304688 -18.601562 35.640625 -18.15625 C 34.972656 -17.707031 34.304688 -17.300781 33.640625 -16.9375 C 29.109375 -14.257812 24.765625 -11.320312 20.609375 -8.125 C 16.453125 -4.9375 12.515625 -1.484375 8.796875 2.234375 C 8.054688 4.753906 7.332031 7.273438 6.625 9.796875 C 5.914062 12.328125 5.191406 14.851562 4.453125 17.375 C 3.410156 21.007812 2.273438 24.628906 1.046875 28.234375 C -0.171875 31.835938 -1.519531 35.421875 -3 38.984375 C -4.414062 42.398438 -5.882812 45.816406 -7.40625 49.234375 C -8.925781 52.648438 -10.835938 55.84375 -13.140625 58.8125 C -14.109375 60.144531 -15.203125 61.382812 -16.421875 62.53125 C -17.648438 63.6875 -19.117188 64.414062 -20.828125 64.71875 C -22.460938 64.9375 -23.800781 64.640625 -24.84375 63.828125 C -25.363281 63.453125 -25.753906 62.945312 -26.015625 62.3125 C -26.273438 61.6875 -26.476562 61.039062 -26.625 60.375 C -26.84375 58.664062 -26.75 56.957031 -26.34375 55.25 C -25.9375 53.539062 -25.507812 51.90625 -25.0625 50.34375 C -24.46875 48.414062 -23.78125 46.5625 -23 44.78125 C -22.21875 43 -21.382812 41.253906 -20.5 39.546875 C -17.226562 33.234375 -13.53125 27.195312 -9.40625 21.4375 C -5.289062 15.6875 -0.816406 10.210938 4.015625 5.015625 C 4.535156 4.421875 5.050781 3.863281 5.5625 3.34375 C 6.082031 2.820312 6.601562 2.300781 7.125 1.78125 C 8.164062 -1.78125 9.296875 -5.320312 10.515625 -8.84375 C 11.742188 -12.375 13.101562 -15.8125 14.59375 -19.15625 C 14.144531 -18.632812 13.695312 -18.148438 13.25 -17.703125 C 12.8125 -17.265625 12.367188 -16.820312 11.921875 -16.375 C 11.179688 -15.632812 10.382812 -14.890625 9.53125 -14.140625 C 8.675781 -13.398438 7.835938 -12.695312 7.015625 -12.03125 C 6.203125 -11.4375 5.367188 -10.84375 4.515625 -10.25 C 3.660156 -9.65625 2.785156 -9.132812 1.890625 -8.6875 C 1.078125 -8.238281 0.0976562 -7.90625 -1.046875 -7.6875 C -2.203125 -7.46875 -3.265625 -7.523438 -4.234375 -7.859375 C -5.203125 -8.191406 -5.796875 -8.988281 -6.015625 -10.25 C -6.234375 -11.289062 -6.101562 -12.367188 -5.625 -13.484375 C -5.144531 -14.597656 -4.679688 -15.597656 -4.234375 -16.484375 C -3.785156 -17.453125 -3.265625 -18.378906 -2.671875 -19.265625 C -2.078125 -20.160156 -1.445312 -21.050781 -0.78125 -21.9375 C 0.40625 -23.726562 1.816406 -25.472656 3.453125 -27.171875 C 3.828125 -27.546875 4.21875 -27.9375 4.625 -28.34375 C 5.03125 -28.757812 5.492188 -29.113281 6.015625 -29.40625 C 6.390625 -29.78125 6.816406 -30.078125 7.296875 -30.296875 C 7.773438 -30.515625 8.273438 -30.738281 8.796875 -30.96875 C 9.097656 -30.96875 9.171875 -30.894531 9.015625 -30.75 C 8.578125 -30.375 8.148438 -29.960938 7.734375 -29.515625 C 7.328125 -29.066406 6.898438 -28.660156 6.453125 -28.296875 C 5.640625 -27.703125 4.863281 -26.957031 4.125 -26.0625 C 3.375 -25.25 2.628906 -24.359375 1.890625 -23.390625 C 1.148438 -22.421875 0.445312 -21.457031 -0.21875 -20.5 C -0.738281 -19.75 -1.238281 -18.96875 -1.71875 -18.15625 C -2.207031 -17.34375 -2.632812 -16.523438 -3 -15.703125 C -3.519531 -14.660156 -3.929688 -13.695312 -4.234375 -12.8125 C -4.378906 -12.363281 -4.507812 -11.878906 -4.625 -11.359375 C -4.738281 -10.835938 -4.644531 -10.351562 -4.34375 -9.90625 C -3.96875 -9.3125 -3.410156 -9.035156 -2.671875 -9.078125 C -1.929688 -9.117188 -1.265625 -9.175781 -0.671875 -9.25 C 0.148438 -9.539062 0.929688 -9.910156 1.671875 -10.359375 C 2.410156 -10.804688 3.113281 -11.289062 3.78125 -11.8125 C 7.050781 -14.039062 10.019531 -16.601562 12.6875 -19.5 C 15.363281 -22.394531 17.742188 -25.507812 19.828125 -28.84375 C 20.117188 -29.289062 20.503906 -29.382812 20.984375 -29.125 C 21.472656 -28.863281 21.570312 -28.472656 21.28125 -27.953125 C 20.832031 -27.210938 20.382812 -26.488281 19.9375 -25.78125 C 19.488281 -25.082031 19.082031 -24.359375 18.71875 -23.609375 C 16.78125 -19.972656 15.085938 -16.222656 13.640625 -12.359375 C 12.191406 -8.503906 10.875 -4.609375 9.6875 -0.671875 C 11.25 -2.222656 12.882812 -3.722656 14.59375 -5.171875 C 16.300781 -6.628906 18.007812 -8.023438 19.71875 -9.359375 C 21.125 -10.398438 22.550781 -11.421875 24 -12.421875 C 25.445312 -13.421875 26.878906 -14.40625 28.296875 -15.375 C 29.773438 -16.257812 31.273438 -17.054688 32.796875 -17.765625 C 34.328125 -18.472656 35.832031 -19.195312 37.3125 -19.9375 Z M -1.453125 30.078125 C -0.179688 26.734375 0.953125 23.367188 1.953125 19.984375 C 2.953125 16.609375 3.9375 13.210938 4.90625 9.796875 C 5.125 8.984375 5.34375 8.148438 5.5625 7.296875 C 5.789062 6.441406 6.050781 5.609375 6.34375 4.796875 C 5.601562 5.460938 4.898438 6.164062 4.234375 6.90625 C 3.566406 7.644531 2.898438 8.390625 2.234375 9.140625 C -2.296875 14.179688 -6.53125 19.578125 -10.46875 25.328125 C -14.40625 31.085938 -17.785156 37.050781 -20.609375 43.21875 C -21.347656 44.925781 -22.070312 46.6875 -22.78125 48.5 C -23.488281 50.320312 -24.023438 52.203125 -24.390625 54.140625 C -24.546875 54.878906 -24.695312 55.675781 -24.84375 56.53125 C -24.988281 57.382812 -25.0625 58.21875 -25.0625 59.03125 C -25.0625 59.625 -24.988281 60.253906 -24.84375 60.921875 C -24.695312 61.597656 -24.363281 62.15625 -23.84375 62.59375 C -23.25 63.039062 -22.539062 63.226562 -21.71875 63.15625 C -20.90625 63.082031 -20.203125 62.894531 -19.609375 62.59375 C -18.785156 62.226562 -18.078125 61.785156 -17.484375 61.265625 C -16.890625 60.742188 -16.332031 60.1875 -15.8125 59.59375 C -14.625 58.257812 -13.566406 56.828125 -12.640625 55.296875 C -11.710938 53.773438 -10.84375 52.238281 -10.03125 50.6875 C -9.207031 49.050781 -8.460938 47.414062 -7.796875 45.78125 C -7.128906 44.144531 -6.425781 42.507812 -5.6875 40.875 C -4.863281 39.09375 -4.097656 37.3125 -3.390625 35.53125 C -2.691406 33.75 -2.046875 31.929688 -1.453125 30.078125 Z M -1.453125 30.078125 "></path></g></g></g><g fill="#000000" fill-opacity="1"><g transform="translate(94.398538, 98.625691)"><g><path d="M 50.015625 -21.390625 C 50.304688 -21.535156 50.507812 -21.476562 50.625 -21.21875 C 50.738281 -20.957031 50.679688 -20.753906 50.453125 -20.609375 C 46.523438 -17.785156 42.257812 -15.410156 37.65625 -13.484375 C 36.238281 -12.890625 34.769531 -12.347656 33.25 -11.859375 C 31.726562 -11.378906 30.222656 -11.03125 28.734375 -10.8125 C 27.398438 -10.582031 26.046875 -10.46875 24.671875 -10.46875 C 23.296875 -10.46875 22.015625 -10.800781 20.828125 -11.46875 C 19.347656 -12.21875 18.363281 -13.332031 17.875 -14.8125 C 17.394531 -16.300781 17.226562 -17.820312 17.375 -19.375 C 17.519531 -20.570312 17.742188 -21.648438 18.046875 -22.609375 C 17.742188 -22.316406 17.484375 -22.039062 17.265625 -21.78125 C 17.046875 -21.519531 16.785156 -21.238281 16.484375 -20.9375 C 14.328125 -18.5625 12.023438 -16.519531 9.578125 -14.8125 C 8.535156 -14.070312 7.421875 -13.382812 6.234375 -12.75 C 5.046875 -12.125 3.820312 -11.660156 2.5625 -11.359375 C 1.375 -11.140625 0.222656 -11.195312 -0.890625 -11.53125 C -2.003906 -11.863281 -2.785156 -12.625 -3.234375 -13.8125 C -3.679688 -15.300781 -3.492188 -16.675781 -2.671875 -17.9375 C -2.378906 -18.675781 -1.972656 -19.195312 -1.453125 -19.5 C -1.222656 -19.71875 -0.957031 -19.898438 -0.65625 -20.046875 C -0.363281 -20.191406 -0.109375 -20.34375 0.109375 -20.5 C 0.253906 -20.570312 0.347656 -20.570312 0.390625 -20.5 C 0.429688 -20.425781 0.410156 -20.347656 0.328125 -20.265625 C -0.191406 -19.753906 -0.671875 -19.203125 -1.109375 -18.609375 C -1.554688 -18.015625 -1.851562 -17.34375 -2 -16.59375 C -2.15625 -15.851562 -2.117188 -15.128906 -1.890625 -14.421875 C -1.671875 -13.710938 -1.191406 -13.210938 -0.453125 -12.921875 C 0.441406 -12.617188 1.390625 -12.632812 2.390625 -12.96875 C 3.398438 -13.3125 4.273438 -13.628906 5.015625 -13.921875 C 6.128906 -14.515625 7.1875 -15.164062 8.1875 -15.875 C 9.1875 -16.582031 10.171875 -17.34375 11.140625 -18.15625 C 13.140625 -19.863281 15.007812 -21.753906 16.75 -23.828125 C 18.5 -25.910156 20.15625 -27.992188 21.71875 -30.078125 C 21.789062 -30.148438 21.828125 -30.222656 21.828125 -30.296875 C 22.203125 -30.671875 22.609375 -30.671875 23.046875 -30.296875 C 23.492188 -29.921875 23.570312 -29.550781 23.28125 -29.1875 C 22.90625 -28.8125 22.609375 -28.398438 22.390625 -27.953125 C 21.347656 -26.472656 20.507812 -24.84375 19.875 -23.0625 C 19.25 -21.28125 18.9375 -19.457031 18.9375 -17.59375 C 18.9375 -16.1875 19.34375 -15.019531 20.15625 -14.09375 C 20.976562 -13.164062 22.054688 -12.550781 23.390625 -12.25 C 24.578125 -12.03125 25.765625 -12.007812 26.953125 -12.1875 C 28.140625 -12.375 29.328125 -12.617188 30.515625 -12.921875 C 34.003906 -13.816406 37.304688 -15.097656 40.421875 -16.765625 C 43.546875 -18.429688 46.742188 -19.972656 50.015625 -21.390625 Z M 50.015625 -21.390625 "></path></g></g></g><g fill="#000000" fill-opacity="1"><g transform="translate(146.196852, 98.625691)"><g><path d="M 13.484375 -27.953125 C 13.773438 -28.398438 14.160156 -28.492188 14.640625 -28.234375 C 15.128906 -27.972656 15.222656 -27.617188 14.921875 -27.171875 C 14.328125 -26.285156 13.75 -25.394531 13.1875 -24.5 C 12.632812 -23.613281 12.097656 -22.6875 11.578125 -21.71875 C 9.722656 -18.082031 8.035156 -14.367188 6.515625 -10.578125 C 4.992188 -6.796875 3.378906 -3.046875 1.671875 0.671875 C 1.296875 1.554688 0.90625 2.441406 0.5 3.328125 C 0.09375 4.222656 -0.332031 5.117188 -0.78125 6.015625 C 0.476562 6.085938 1.757812 6.289062 3.0625 6.625 C 4.363281 6.957031 5.609375 7.347656 6.796875 7.796875 C 6.941406 7.867188 7.015625 8.015625 7.015625 8.234375 C 7.015625 8.460938 6.90625 8.578125 6.6875 8.578125 C 5.863281 8.429688 5.039062 8.335938 4.21875 8.296875 C 3.40625 8.265625 2.59375 8.207031 1.78125 8.125 C 1.257812 8.050781 0.71875 7.992188 0.15625 7.953125 C -0.394531 7.921875 -0.96875 7.90625 -1.5625 7.90625 C -2.300781 9.46875 -3.0625 11.023438 -3.84375 12.578125 C -4.625 14.140625 -5.421875 15.703125 -6.234375 17.265625 C -9.203125 22.910156 -12.523438 28.40625 -16.203125 33.75 C -19.878906 39.09375 -24.171875 43.804688 -29.078125 47.890625 C -31.378906 49.898438 -33.863281 51.664062 -36.53125 53.1875 C -39.207031 54.707031 -42.03125 55.914062 -45 56.8125 C -46.488281 57.257812 -48.066406 57.554688 -49.734375 57.703125 C -51.398438 57.847656 -52.976562 57.625 -54.46875 57.03125 C -56.175781 56.363281 -57.363281 55.226562 -58.03125 53.625 C -58.695312 52.03125 -59.03125 50.34375 -59.03125 48.5625 C -58.882812 44.625 -57.882812 40.910156 -56.03125 37.421875 C -54.175781 33.929688 -52.019531 30.738281 -49.5625 27.84375 C -45.113281 22.5 -39.734375 17.929688 -33.421875 14.140625 C -30.367188 12.285156 -27.207031 10.707031 -23.9375 9.40625 C -20.675781 8.113281 -17.335938 7.171875 -13.921875 6.578125 C -11.992188 6.203125 -10.0625 5.9375 -8.125 5.78125 C -6.195312 5.632812 -4.304688 5.640625 -2.453125 5.796875 C -1.554688 3.859375 -0.664062 1.890625 0.21875 -0.109375 C 1.113281 -2.117188 1.96875 -4.160156 2.78125 -6.234375 C 3.75 -8.390625 4.675781 -10.539062 5.5625 -12.6875 C 6.457031 -14.84375 7.425781 -16.960938 8.46875 -19.046875 C 8.09375 -18.671875 7.703125 -18.316406 7.296875 -17.984375 C 6.890625 -17.648438 6.5 -17.300781 6.125 -16.9375 C 5.382812 -16.34375 4.660156 -15.75 3.953125 -15.15625 C 3.242188 -14.5625 2.484375 -13.960938 1.671875 -13.359375 C 0.929688 -12.847656 0.117188 -12.3125 -0.765625 -11.75 C -1.660156 -11.195312 -2.554688 -10.84375 -3.453125 -10.6875 C -4.191406 -10.613281 -4.875 -10.800781 -5.5 -11.25 C -6.132812 -11.695312 -6.492188 -12.289062 -6.578125 -13.03125 C -6.648438 -13.851562 -6.460938 -14.648438 -6.015625 -15.421875 C -5.566406 -16.203125 -5.117188 -16.925781 -4.671875 -17.59375 C -3.410156 -19.226562 -2.054688 -20.75 -0.609375 -22.15625 C 0.835938 -23.570312 2.414062 -24.765625 4.125 -25.734375 C 4.863281 -26.097656 5.625 -26.46875 6.40625 -26.84375 C 7.1875 -27.21875 7.984375 -27.441406 8.796875 -27.515625 C 9.460938 -27.585938 10.113281 -27.546875 10.75 -27.390625 C 11.382812 -27.242188 12.035156 -27.0625 12.703125 -26.84375 C 12.847656 -27.0625 12.992188 -27.265625 13.140625 -27.453125 C 13.285156 -27.640625 13.398438 -27.804688 13.484375 -27.953125 Z M -4.90625 10.8125 C -4.601562 10.289062 -4.335938 9.785156 -4.109375 9.296875 C -3.890625 8.816406 -3.671875 8.316406 -3.453125 7.796875 C -4.191406 7.796875 -4.953125 7.796875 -5.734375 7.796875 C -6.515625 7.796875 -7.3125 7.832031 -8.125 7.90625 C -11.394531 8.132812 -14.664062 8.691406 -17.9375 9.578125 C -21.195312 10.472656 -24.367188 11.660156 -27.453125 13.140625 C -30.535156 14.628906 -33.488281 16.335938 -36.3125 18.265625 C -39.132812 20.203125 -41.804688 22.394531 -44.328125 24.84375 C -46.859375 27.289062 -49.125 29.925781 -51.125 32.75 C -52.238281 34.3125 -53.222656 35.925781 -54.078125 37.59375 C -54.929688 39.257812 -55.65625 40.988281 -56.25 42.78125 C -56.769531 44.5625 -57.101562 46.414062 -57.25 48.34375 C -57.25 49.238281 -57.175781 50.148438 -57.03125 51.078125 C -56.882812 52.003906 -56.550781 52.875 -56.03125 53.6875 C -55.0625 55.019531 -53.722656 55.757812 -52.015625 55.90625 C -50.304688 56.0625 -48.75 55.988281 -47.34375 55.6875 C -44.519531 55.019531 -41.769531 53.984375 -39.09375 52.578125 C -36.5 51.242188 -34.03125 49.644531 -31.6875 47.78125 C -29.351562 45.925781 -27.179688 43.960938 -25.171875 41.890625 C -20.867188 37.429688 -17.097656 32.523438 -13.859375 27.171875 C -10.628906 21.828125 -7.644531 16.375 -4.90625 10.8125 Z M -0.5625 -13.8125 C 4.632812 -17.15625 8.941406 -21.3125 12.359375 -26.28125 C 11.691406 -26.4375 11.003906 -26.53125 10.296875 -26.5625 C 9.597656 -26.601562 8.914062 -26.507812 8.25 -26.28125 C 7.425781 -26.0625 6.644531 -25.726562 5.90625 -25.28125 C 5.164062 -24.84375 4.421875 -24.363281 3.671875 -23.84375 C 2.265625 -22.875 0.953125 -21.773438 -0.265625 -20.546875 C -1.492188 -19.328125 -2.628906 -17.972656 -3.671875 -16.484375 C -3.972656 -16.035156 -4.34375 -15.421875 -4.78125 -14.640625 C -5.226562 -13.867188 -5.269531 -13.1875 -4.90625 -12.59375 C -4.457031 -11.914062 -3.726562 -11.875 -2.71875 -12.46875 C -1.71875 -13.0625 -1 -13.507812 -0.5625 -13.8125 Z M -0.5625 -13.8125 "></path></g></g></g><g fill="#000000" fill-opacity="1"><g transform="translate(168.0301, 98.625691)"><g><path d="M 25.28125 -20.71875 C 25.507812 -20.789062 25.675781 -20.734375 25.78125 -20.546875 C 25.894531 -20.359375 25.878906 -20.191406 25.734375 -20.046875 C 25.140625 -19.453125 24.46875 -18.914062 23.71875 -18.4375 C 22.976562 -17.957031 22.238281 -17.492188 21.5 -17.046875 C 20.832031 -16.597656 20.144531 -16.207031 19.4375 -15.875 C 18.726562 -15.539062 17.96875 -15.1875 17.15625 -14.8125 C 14.332031 -13.550781 11.320312 -12.734375 8.125 -12.359375 C 6.414062 -12.140625 4.539062 -12.066406 2.5 -12.140625 C 0.457031 -12.210938 -1.265625 -12.84375 -2.671875 -14.03125 C -3.410156 -14.625 -3.910156 -15.40625 -4.171875 -16.375 C -4.429688 -17.34375 -4.453125 -18.269531 -4.234375 -19.15625 C -3.859375 -20.414062 -3.171875 -21.507812 -2.171875 -22.4375 C -1.171875 -23.375 -0.148438 -24.175781 0.890625 -24.84375 C 2.148438 -25.582031 3.503906 -26.191406 4.953125 -26.671875 C 6.398438 -27.160156 7.832031 -27.253906 9.25 -26.953125 C 10.726562 -26.660156 11.410156 -25.898438 11.296875 -24.671875 C 11.191406 -23.441406 10.726562 -22.421875 9.90625 -21.609375 C 8.207031 -19.972656 6.09375 -19.046875 3.5625 -18.828125 C 1.632812 -18.597656 -0.253906 -19.003906 -2.109375 -20.046875 C -2.484375 -19.378906 -2.707031 -18.65625 -2.78125 -17.875 C -2.851562 -17.09375 -2.628906 -16.367188 -2.109375 -15.703125 C -1.671875 -15.179688 -1.113281 -14.789062 -0.4375 -14.53125 C 0.226562 -14.269531 0.894531 -14.066406 1.5625 -13.921875 C 3.269531 -13.628906 5.066406 -13.570312 6.953125 -13.75 C 8.847656 -13.9375 10.613281 -14.253906 12.25 -14.703125 C 14.332031 -15.367188 16.523438 -16.222656 18.828125 -17.265625 C 19.867188 -17.859375 20.925781 -18.46875 22 -19.09375 C 23.070312 -19.726562 24.164062 -20.269531 25.28125 -20.71875 Z M 3.90625 -24.5 C 2.9375 -24.0625 1.945312 -23.523438 0.9375 -22.890625 C -0.0625 -22.253906 -0.929688 -21.492188 -1.671875 -20.609375 C -1.671875 -20.609375 -1.6875 -20.585938 -1.71875 -20.546875 C -1.757812 -20.515625 -1.78125 -20.5 -1.78125 -20.5 C 0.0703125 -19.832031 2.003906 -19.71875 4.015625 -20.15625 C 5.046875 -20.3125 6.117188 -20.703125 7.234375 -21.328125 C 8.347656 -21.960938 9.128906 -22.757812 9.578125 -23.71875 C 9.722656 -24.019531 9.796875 -24.316406 9.796875 -24.609375 C 9.796875 -24.910156 9.613281 -25.097656 9.25 -25.171875 C 8.945312 -25.316406 8.644531 -25.390625 8.34375 -25.390625 C 8.050781 -25.390625 7.722656 -25.390625 7.359375 -25.390625 C 6.835938 -25.390625 6.28125 -25.296875 5.6875 -25.109375 C 5.09375 -24.929688 4.5 -24.726562 3.90625 -24.5 Z M 3.90625 -24.5 "></path></g></g></g><g fill="#000000" fill-opacity="1"><g transform="translate(196.101441, 98.625691)"><g><path d="M 29.515625 -21.9375 C 29.742188 -22.09375 29.929688 -22.054688 30.078125 -21.828125 C 30.222656 -21.609375 30.222656 -21.425781 30.078125 -21.28125 C 29.253906 -20.3125 28.226562 -19.4375 27 -18.65625 C 25.78125 -17.875 24.578125 -17.1875 23.390625 -16.59375 C 22.203125 -16 20.957031 -15.460938 19.65625 -14.984375 C 18.363281 -14.503906 17.046875 -14.078125 15.703125 -13.703125 C 13.847656 -13.179688 11.914062 -12.789062 9.90625 -12.53125 C 7.90625 -12.269531 5.941406 -12.210938 4.015625 -12.359375 C 2.597656 -12.429688 1.148438 -12.765625 -0.328125 -13.359375 C -1.816406 -13.960938 -2.75 -15.039062 -3.125 -16.59375 C -3.488281 -18.15625 -3.28125 -19.546875 -2.5 -20.765625 C -1.726562 -21.992188 -0.710938 -23.050781 0.546875 -23.9375 C 1.816406 -24.832031 3.046875 -25.539062 4.234375 -26.0625 C 5.273438 -26.4375 6.441406 -26.753906 7.734375 -27.015625 C 9.035156 -27.273438 10.171875 -27.109375 11.140625 -26.515625 C 12.109375 -25.992188 12.441406 -25.304688 12.140625 -24.453125 C 11.847656 -23.597656 11.40625 -22.875 10.8125 -22.28125 C 10.726562 -22.207031 10.648438 -22.222656 10.578125 -22.328125 C 10.503906 -22.441406 10.503906 -22.535156 10.578125 -22.609375 C 10.953125 -23.128906 11.191406 -23.722656 11.296875 -24.390625 C 11.410156 -25.054688 11.023438 -25.46875 10.140625 -25.625 C 9.617188 -25.769531 9.039062 -25.785156 8.40625 -25.671875 C 7.78125 -25.566406 7.171875 -25.4375 6.578125 -25.28125 C 4.492188 -24.613281 2.488281 -23.5 0.5625 -21.9375 C -0.03125 -21.34375 -0.550781 -20.675781 -1 -19.9375 C -1.445312 -19.195312 -1.632812 -18.34375 -1.5625 -17.375 C -1.488281 -16.257812 -0.894531 -15.40625 0.21875 -14.8125 C 1.332031 -14.289062 2.539062 -13.992188 3.84375 -13.921875 C 5.144531 -13.847656 6.390625 -13.847656 7.578125 -13.921875 C 11.429688 -14.148438 15.144531 -14.929688 18.71875 -16.265625 C 19.675781 -16.628906 20.617188 -17.035156 21.546875 -17.484375 C 22.484375 -17.929688 23.394531 -18.378906 24.28125 -18.828125 C 25.175781 -19.347656 26.050781 -19.882812 26.90625 -20.4375 C 27.757812 -21 28.628906 -21.5 29.515625 -21.9375 Z M 29.515625 -21.9375 "></path></g></g></g></g></g></svg> 