<?xml version="1.0" encoding="UTF-8"?> <svg xmlns="http://www.w3.org/2000/svg" xmlns:xlink="http://www.w3.org/1999/xlink" width="360" zoomAndPan="magnify" viewBox="0 0 270 359.999987" height="480" preserveAspectRatio="xMidYMid meet" version="1.0"><defs><filter x="0%" y="0%" width="100%" height="100%" id="5b9fac06a2"><feColorMatrix values="0 0 0 0 1 0 0 0 0 1 0 0 0 0 1 0 0 0 1 0" color-interpolation-filters="sRGB"></feColorMatrix></filter><g></g><mask id="23793c836e"><g filter="url(#5b9fac06a2)"><rect x="-27" width="324" fill="#000000" y="-35.999999" height="431.999984" fill-opacity="0.3"></rect></g></mask><clipPath id="c0b75ed2ce"><path d="M 0.679688 0.238281 L 247.640625 0.238281 L 247.640625 164.878906 L 0.679688 164.878906 Z M 0.679688 0.238281 " clip-rule="nonzero"></path></clipPath><clipPath id="ec514f6338"><rect x="0" width="248" y="0" height="165"></rect></clipPath><clipPath id="7c6aab069b"><rect x="0" width="248" y="0" height="165"></rect></clipPath></defs><g mask="url(#23793c836e)"><g transform="matrix(1, 0, 0, 1, 7, 96)"><g clip-path="url(#7c6aab069b)"><g clip-path="url(#c0b75ed2ce)"><g><g clip-path="url(#ec514f6338)"><g fill="#000000" fill-opacity="1"><g transform="translate(9.705899, 94.271484)"><g><path d="M 53.15625 -74.328125 C 53.300781 -74.472656 53.425781 -74.523438 53.53125 -74.484375 C 53.632812 -74.453125 53.648438 -74.363281 53.578125 -74.21875 C 52.359375 -71.195312 51.023438 -68.207031 49.578125 -65.25 C 48.140625 -62.300781 46.703125 -59.347656 45.265625 -56.390625 C 42.816406 -51.273438 40.296875 -46.109375 37.703125 -40.890625 C 35.109375 -35.671875 32.550781 -30.503906 30.03125 -25.390625 C 28.8125 -22.796875 27.570312 -20.179688 26.3125 -17.546875 C 25.050781 -14.921875 23.734375 -12.273438 22.359375 -9.609375 C 21.859375 -8.460938 21.265625 -7.222656 20.578125 -5.890625 C 19.890625 -4.554688 19.257812 -3.207031 18.6875 -1.84375 C 18.039062 -0.6875 17.390625 0.554688 16.734375 1.890625 C 16.085938 3.222656 15.332031 4.46875 14.46875 5.625 C 14.257812 5.90625 13.992188 5.988281 13.671875 5.875 C 13.347656 5.769531 13.253906 5.539062 13.390625 5.1875 C 13.753906 3.601562 14.332031 2.085938 15.125 0.640625 C 15.914062 -0.796875 16.632812 -2.234375 17.28125 -3.671875 C 18 -5.109375 18.71875 -6.546875 19.4375 -7.984375 C 20.164062 -9.429688 20.890625 -10.945312 21.609375 -12.53125 C 26.796875 -22.6875 31.976562 -33.054688 37.15625 -43.640625 C 38.53125 -46.160156 39.863281 -48.71875 41.15625 -51.3125 C 42.457031 -53.90625 43.753906 -56.460938 45.046875 -58.984375 C 46.347656 -61.503906 47.660156 -64.078125 48.984375 -66.703125 C 50.316406 -69.335938 51.707031 -71.878906 53.15625 -74.328125 Z M 98.734375 -72.59375 C 99.023438 -72.519531 99.148438 -72.320312 99.109375 -72 C 99.078125 -71.675781 98.882812 -71.515625 98.53125 -71.515625 C 96.582031 -72.015625 94.648438 -72.515625 92.734375 -73.015625 C 90.828125 -73.523438 88.867188 -74 86.859375 -74.4375 C 84.910156 -74.863281 82.945312 -75.238281 80.96875 -75.5625 C 78.988281 -75.882812 77.0625 -76.15625 75.1875 -76.375 C 68.0625 -77.3125 60.953125 -77.65625 53.859375 -77.40625 C 46.765625 -77.15625 39.6875 -76.378906 32.625 -75.078125 C 29.09375 -74.429688 25.613281 -73.640625 22.1875 -72.703125 C 18.769531 -71.765625 15.40625 -70.6875 12.09375 -69.46875 C 8.78125 -68.3125 5.503906 -67.015625 2.265625 -65.578125 C -0.972656 -64.140625 -4.101562 -62.554688 -7.125 -60.828125 C -7.269531 -60.753906 -7.378906 -60.804688 -7.453125 -60.984375 C -7.523438 -61.160156 -7.488281 -61.25 -7.34375 -61.25 C -5.613281 -62.257812 -3.882812 -63.269531 -2.15625 -64.28125 C -0.425781 -65.289062 1.335938 -66.226562 3.140625 -67.09375 C 6.878906 -68.882812 10.585938 -70.394531 14.265625 -71.625 C 20.960938 -74 27.859375 -75.816406 34.953125 -77.078125 C 42.046875 -78.335938 49.15625 -79.003906 56.28125 -79.078125 C 63.414062 -79.222656 70.617188 -78.789062 77.890625 -77.78125 C 79.691406 -77.5625 81.457031 -77.269531 83.1875 -76.90625 C 84.914062 -76.550781 86.609375 -76.195312 88.265625 -75.84375 C 90.066406 -75.40625 91.847656 -74.929688 93.609375 -74.421875 C 95.367188 -73.921875 97.078125 -73.3125 98.734375 -72.59375 Z M 98.734375 -72.59375 "></path></g></g></g><g fill="#000000" fill-opacity="1"><g transform="translate(65.208249, 94.271484)"><g><path d="M 25.0625 -22.796875 C 25.207031 -22.867188 25.332031 -22.847656 25.4375 -22.734375 C 25.550781 -22.628906 25.570312 -22.503906 25.5 -22.359375 C 25.132812 -21.640625 24.609375 -20.9375 23.921875 -20.25 C 23.242188 -19.570312 22.613281 -18.941406 22.03125 -18.359375 C 21.382812 -17.785156 20.703125 -17.242188 19.984375 -16.734375 C 19.265625 -16.234375 18.507812 -15.769531 17.71875 -15.34375 C 15.414062 -13.90625 12.785156 -12.894531 9.828125 -12.3125 C 8.460938 -12.09375 7.078125 -12 5.671875 -12.03125 C 4.265625 -12.070312 2.914062 -12.347656 1.625 -12.859375 C 0.25 -13.429688 -0.757812 -14.382812 -1.40625 -15.71875 C -2.050781 -17.050781 -2.265625 -18.472656 -2.046875 -19.984375 C -1.765625 -21.421875 -1.191406 -22.929688 -0.328125 -24.515625 C 0.109375 -25.171875 0.578125 -25.859375 1.078125 -26.578125 C 1.585938 -27.296875 2.128906 -27.90625 2.703125 -28.40625 C 2.847656 -28.476562 2.957031 -28.476562 3.03125 -28.40625 C 3.101562 -28.332031 3.101562 -28.265625 3.03125 -28.203125 C 2.300781 -26.753906 1.519531 -25.238281 0.6875 -23.65625 C -0.132812 -22.070312 -0.507812 -20.453125 -0.4375 -18.796875 C -0.363281 -16.773438 0.410156 -15.40625 1.890625 -14.6875 C 3.367188 -13.96875 5.0625 -13.644531 6.96875 -13.71875 C 8.875 -13.789062 10.515625 -14.007812 11.890625 -14.375 C 13.109375 -14.726562 14.273438 -15.175781 15.390625 -15.71875 C 16.503906 -16.257812 17.601562 -16.890625 18.6875 -17.609375 C 19.257812 -17.972656 19.816406 -18.367188 20.359375 -18.796875 C 20.898438 -19.234375 21.425781 -19.664062 21.9375 -20.09375 C 22.507812 -20.457031 23.046875 -20.90625 23.546875 -21.4375 C 24.054688 -21.976562 24.5625 -22.429688 25.0625 -22.796875 Z M 5.296875 -31.65625 C 4.578125 -31.507812 4.144531 -31.757812 4 -32.40625 C 3.78125 -32.84375 3.921875 -33.3125 4.421875 -33.8125 C 4.566406 -33.957031 4.710938 -34.082031 4.859375 -34.1875 C 5.003906 -34.300781 5.148438 -34.359375 5.296875 -34.359375 C 5.441406 -34.429688 5.640625 -34.46875 5.890625 -34.46875 C 6.140625 -34.46875 6.335938 -34.394531 6.484375 -34.25 C 6.984375 -33.8125 7.054688 -33.269531 6.703125 -32.625 C 6.554688 -32.40625 6.351562 -32.1875 6.09375 -31.96875 C 5.84375 -31.757812 5.578125 -31.65625 5.296875 -31.65625 Z M 5.296875 -31.65625 "></path></g></g></g><g fill="#000000" fill-opacity="1"><g transform="translate(89.721125, 94.271484)"><g><path d="M 66.328125 -21.5 C 66.546875 -21.644531 66.742188 -21.585938 66.921875 -21.328125 C 67.109375 -21.078125 67.09375 -20.878906 66.875 -20.734375 C 63.769531 -18.285156 60.347656 -16.234375 56.609375 -14.578125 C 55.023438 -13.859375 53.421875 -13.242188 51.796875 -12.734375 C 50.179688 -12.234375 48.546875 -11.804688 46.890625 -11.453125 C 45.515625 -11.234375 44.085938 -11.125 42.609375 -11.125 C 41.140625 -11.125 39.753906 -11.378906 38.453125 -11.890625 C 37.304688 -12.316406 36.300781 -12.960938 35.4375 -13.828125 C 34.925781 -14.398438 34.523438 -15.0625 34.234375 -15.8125 C 33.953125 -16.570312 33.597656 -17.28125 33.171875 -17.9375 C 32.441406 -18.875 31.484375 -19.125 30.296875 -18.6875 C 29.109375 -18.257812 28.117188 -17.863281 27.328125 -17.5 C 24.953125 -16.5625 22.722656 -15.484375 20.640625 -14.265625 C 20.273438 -14.046875 19.984375 -14.113281 19.765625 -14.46875 C 19.554688 -14.832031 19.554688 -15.160156 19.765625 -15.453125 C 20.847656 -16.816406 21.820312 -18.238281 22.6875 -19.71875 C 23.550781 -21.195312 24.34375 -22.726562 25.0625 -24.3125 C 25.351562 -24.882812 25.585938 -25.566406 25.765625 -26.359375 C 25.941406 -27.148438 25.707031 -27.726562 25.0625 -28.09375 C 24.5625 -28.445312 23.894531 -28.625 23.0625 -28.625 C 22.238281 -28.625 21.535156 -28.625 20.953125 -28.625 C 17.566406 -28.625 14.21875 -28.015625 10.90625 -26.796875 C 10.039062 -24.703125 8.941406 -22.664062 7.609375 -20.6875 C 6.285156 -18.707031 4.828125 -16.890625 3.234375 -15.234375 C 2.515625 -14.515625 1.6875 -13.773438 0.75 -13.015625 C -0.175781 -12.265625 -1.179688 -11.851562 -2.265625 -11.78125 C -3.640625 -11.707031 -4.453125 -12.207031 -4.703125 -13.28125 C -4.953125 -14.363281 -4.859375 -15.375 -4.421875 -16.3125 C -4.210938 -16.882812 -3.890625 -17.457031 -3.453125 -18.03125 C -3.023438 -18.613281 -2.59375 -19.15625 -2.15625 -19.65625 C -1.726562 -20.238281 -1.257812 -20.78125 -0.75 -21.28125 C -0.25 -21.78125 0.25 -22.25 0.75 -22.6875 C 2.84375 -24.5625 5.222656 -26.109375 7.890625 -27.328125 C 8.242188 -27.546875 8.632812 -27.742188 9.0625 -27.921875 C 9.5 -28.109375 9.9375 -28.269531 10.375 -28.40625 C 10.519531 -28.84375 10.695312 -29.296875 10.90625 -29.765625 C 11.125 -30.234375 11.304688 -30.71875 11.453125 -31.21875 C 11.453125 -31.582031 11.5625 -31.90625 11.78125 -32.1875 C 11.851562 -32.476562 11.992188 -32.585938 12.203125 -32.515625 C 12.421875 -32.441406 12.492188 -32.265625 12.421875 -31.984375 C 12.347656 -31.472656 12.238281 -30.960938 12.09375 -30.453125 C 11.957031 -29.953125 11.816406 -29.414062 11.671875 -28.84375 C 15.992188 -30.28125 20.242188 -30.640625 24.421875 -29.921875 C 25.929688 -29.703125 26.863281 -28.875 27.21875 -27.4375 C 27.363281 -26.789062 27.328125 -26.125 27.109375 -25.4375 C 26.898438 -24.757812 26.648438 -24.128906 26.359375 -23.546875 C 25.859375 -22.398438 25.300781 -21.285156 24.6875 -20.203125 C 24.070312 -19.117188 23.40625 -18.070312 22.6875 -17.0625 C 23.40625 -17.425781 24.125 -17.769531 24.84375 -18.09375 C 25.5625 -18.414062 26.285156 -18.722656 27.015625 -19.015625 C 28.015625 -19.367188 29.109375 -19.742188 30.296875 -20.140625 C 31.484375 -20.535156 32.546875 -20.410156 33.484375 -19.765625 C 34.203125 -19.265625 34.707031 -18.597656 35 -17.765625 C 35.289062 -16.941406 35.6875 -16.207031 36.1875 -15.5625 C 36.832031 -14.550781 37.695312 -13.828125 38.78125 -13.390625 C 40.007812 -12.890625 41.34375 -12.65625 42.78125 -12.6875 C 44.21875 -12.726562 45.625 -12.894531 47 -13.1875 C 48.726562 -13.539062 50.421875 -14.003906 52.078125 -14.578125 C 53.734375 -15.160156 55.351562 -15.8125 56.9375 -16.53125 C 58.519531 -17.320312 60.101562 -18.113281 61.6875 -18.90625 C 63.269531 -19.695312 64.816406 -20.5625 66.328125 -21.5 Z M 4.21875 -18.46875 C 6.226562 -20.914062 7.921875 -23.472656 9.296875 -26.140625 C 8.359375 -25.785156 7.53125 -25.351562 6.8125 -24.84375 C 4.570312 -23.625 2.625 -22.1875 0.96875 -20.53125 C 0.539062 -20.09375 0.113281 -19.65625 -0.3125 -19.21875 C -0.75 -18.789062 -1.148438 -18.328125 -1.515625 -17.828125 C -1.796875 -17.390625 -2.117188 -16.9375 -2.484375 -16.46875 C -2.847656 -16 -3.097656 -15.515625 -3.234375 -15.015625 C -3.304688 -14.585938 -3.320312 -14.191406 -3.28125 -13.828125 C -3.25 -13.460938 -2.984375 -13.28125 -2.484375 -13.28125 C -2.054688 -13.28125 -1.640625 -13.390625 -1.234375 -13.609375 C -0.835938 -13.828125 -0.5 -14.046875 -0.21875 -14.265625 C 0.644531 -14.835938 1.4375 -15.5 2.15625 -16.25 C 2.875 -17.007812 3.5625 -17.75 4.21875 -18.46875 Z M 4.21875 -18.46875 "></path></g></g></g><g fill="#000000" fill-opacity="1"><g transform="translate(157.861553, 94.271484)"><g><path d="M 25.0625 -22.796875 C 25.207031 -22.867188 25.332031 -22.847656 25.4375 -22.734375 C 25.550781 -22.628906 25.570312 -22.503906 25.5 -22.359375 C 25.132812 -21.640625 24.609375 -20.9375 23.921875 -20.25 C 23.242188 -19.570312 22.613281 -18.941406 22.03125 -18.359375 C 21.382812 -17.785156 20.703125 -17.242188 19.984375 -16.734375 C 19.265625 -16.234375 18.507812 -15.769531 17.71875 -15.34375 C 15.414062 -13.90625 12.785156 -12.894531 9.828125 -12.3125 C 8.460938 -12.09375 7.078125 -12 5.671875 -12.03125 C 4.265625 -12.070312 2.914062 -12.347656 1.625 -12.859375 C 0.25 -13.429688 -0.757812 -14.382812 -1.40625 -15.71875 C -2.050781 -17.050781 -2.265625 -18.472656 -2.046875 -19.984375 C -1.765625 -21.421875 -1.191406 -22.929688 -0.328125 -24.515625 C 0.109375 -25.171875 0.578125 -25.859375 1.078125 -26.578125 C 1.585938 -27.296875 2.128906 -27.90625 2.703125 -28.40625 C 2.847656 -28.476562 2.957031 -28.476562 3.03125 -28.40625 C 3.101562 -28.332031 3.101562 -28.265625 3.03125 -28.203125 C 2.300781 -26.753906 1.519531 -25.238281 0.6875 -23.65625 C -0.132812 -22.070312 -0.507812 -20.453125 -0.4375 -18.796875 C -0.363281 -16.773438 0.410156 -15.40625 1.890625 -14.6875 C 3.367188 -13.96875 5.0625 -13.644531 6.96875 -13.71875 C 8.875 -13.789062 10.515625 -14.007812 11.890625 -14.375 C 13.109375 -14.726562 14.273438 -15.175781 15.390625 -15.71875 C 16.503906 -16.257812 17.601562 -16.890625 18.6875 -17.609375 C 19.257812 -17.972656 19.816406 -18.367188 20.359375 -18.796875 C 20.898438 -19.234375 21.425781 -19.664062 21.9375 -20.09375 C 22.507812 -20.457031 23.046875 -20.90625 23.546875 -21.4375 C 24.054688 -21.976562 24.5625 -22.429688 25.0625 -22.796875 Z M 5.296875 -31.65625 C 4.578125 -31.507812 4.144531 -31.757812 4 -32.40625 C 3.78125 -32.84375 3.921875 -33.3125 4.421875 -33.8125 C 4.566406 -33.957031 4.710938 -34.082031 4.859375 -34.1875 C 5.003906 -34.300781 5.148438 -34.359375 5.296875 -34.359375 C 5.441406 -34.429688 5.640625 -34.46875 5.890625 -34.46875 C 6.140625 -34.46875 6.335938 -34.394531 6.484375 -34.25 C 6.984375 -33.8125 7.054688 -33.269531 6.703125 -32.625 C 6.554688 -32.40625 6.351562 -32.1875 6.09375 -31.96875 C 5.84375 -31.757812 5.578125 -31.65625 5.296875 -31.65625 Z M 5.296875 -31.65625 "></path></g></g></g><g fill="#000000" fill-opacity="1"><g transform="translate(183.454705, 94.271484)"><g><path d="M 39.75 -21.71875 C 39.96875 -21.863281 40.148438 -21.828125 40.296875 -21.609375 C 40.441406 -21.390625 40.441406 -21.171875 40.296875 -20.953125 C 39.503906 -20.085938 38.617188 -19.296875 37.640625 -18.578125 C 36.671875 -17.859375 35.679688 -17.210938 34.671875 -16.640625 C 32.515625 -15.265625 30.359375 -14.21875 28.203125 -13.5 C 26.109375 -12.78125 24.085938 -12.382812 22.140625 -12.3125 C 21.421875 -12.3125 20.664062 -12.398438 19.875 -12.578125 C 19.082031 -12.765625 18.4375 -13.179688 17.9375 -13.828125 C 17.425781 -14.617188 17.242188 -15.484375 17.390625 -16.421875 C 17.535156 -17.359375 17.679688 -18.222656 17.828125 -19.015625 C 17.972656 -19.804688 18.097656 -20.757812 18.203125 -21.875 C 18.304688 -22.988281 17.859375 -23.765625 16.859375 -24.203125 C 16.128906 -24.554688 15.332031 -24.625 14.46875 -24.40625 C 13.613281 -24.195312 12.859375 -23.984375 12.203125 -23.765625 C 11.054688 -23.472656 9.941406 -23.078125 8.859375 -22.578125 C 7.773438 -22.078125 6.695312 -21.535156 5.625 -20.953125 C 3.601562 -19.878906 1.65625 -18.582031 -0.21875 -17.0625 C -0.644531 -16.707031 -1.054688 -16.332031 -1.453125 -15.9375 C -1.847656 -15.539062 -2.265625 -15.160156 -2.703125 -14.796875 C -2.992188 -14.515625 -3.316406 -14.207031 -3.671875 -13.875 C -4.035156 -13.550781 -4.320312 -13.175781 -4.53125 -12.75 C -4.675781 -12.382812 -4.960938 -12.289062 -5.390625 -12.46875 C -5.828125 -12.65625 -5.972656 -12.925781 -5.828125 -13.28125 C -4.460938 -16.664062 -2.625 -19.90625 -0.3125 -23 C 1.988281 -26.101562 4.6875 -28.628906 7.78125 -30.578125 C 7.925781 -30.648438 8.03125 -30.628906 8.09375 -30.515625 C 8.164062 -30.410156 8.171875 -30.320312 8.109375 -30.25 C 6.734375 -29.019531 5.429688 -27.753906 4.203125 -26.453125 C 2.984375 -25.160156 1.832031 -23.796875 0.75 -22.359375 C 0.101562 -21.492188 -0.488281 -20.609375 -1.03125 -19.703125 C -1.570312 -18.804688 -2.09375 -17.859375 -2.59375 -16.859375 C -2.300781 -17.140625 -2.03125 -17.390625 -1.78125 -17.609375 C -1.53125 -17.828125 -1.257812 -18.039062 -0.96875 -18.25 C 0.90625 -19.90625 3.03125 -21.3125 5.40625 -22.46875 C 6.476562 -23.039062 7.554688 -23.578125 8.640625 -24.078125 C 9.722656 -24.585938 10.835938 -24.988281 11.984375 -25.28125 C 12.710938 -25.425781 13.488281 -25.566406 14.3125 -25.703125 C 15.144531 -25.847656 15.921875 -25.851562 16.640625 -25.71875 C 18.078125 -25.425781 18.9375 -24.738281 19.21875 -23.65625 C 19.507812 -22.570312 19.546875 -21.382812 19.328125 -20.09375 C 19.117188 -18.800781 18.941406 -17.6875 18.796875 -16.75 C 18.722656 -16.238281 18.722656 -15.726562 18.796875 -15.21875 C 18.867188 -14.71875 19.15625 -14.328125 19.65625 -14.046875 C 20.019531 -13.828125 20.4375 -13.695312 20.90625 -13.65625 C 21.375 -13.625 21.785156 -13.609375 22.140625 -13.609375 C 23.222656 -13.679688 24.285156 -13.84375 25.328125 -14.09375 C 26.378906 -14.34375 27.367188 -14.613281 28.296875 -14.90625 C 29.378906 -15.269531 30.425781 -15.71875 31.4375 -16.25 C 32.445312 -16.789062 33.421875 -17.351562 34.359375 -17.9375 C 35.296875 -18.507812 36.191406 -19.117188 37.046875 -19.765625 C 37.910156 -20.410156 38.8125 -21.0625 39.75 -21.71875 Z M 39.75 -21.71875 "></path></g></g></g><g fill="#000000" fill-opacity="1"><g transform="translate(223.950198, 94.271484)"><g><path d="M 13.078125 -27.109375 C 13.359375 -27.546875 13.734375 -27.640625 14.203125 -27.390625 C 14.671875 -27.140625 14.757812 -26.796875 14.46875 -26.359375 C 13.894531 -25.492188 13.335938 -24.628906 12.796875 -23.765625 C 12.253906 -22.898438 11.734375 -22 11.234375 -21.0625 C 9.429688 -17.53125 7.789062 -13.925781 6.3125 -10.25 C 4.84375 -6.582031 3.28125 -2.953125 1.625 0.640625 C 1.257812 1.503906 0.878906 2.367188 0.484375 3.234375 C 0.0859375 4.097656 -0.320312 4.960938 -0.75 5.828125 C 0.46875 5.898438 1.707031 6.097656 2.96875 6.421875 C 4.226562 6.742188 5.4375 7.125 6.59375 7.5625 C 6.738281 7.632812 6.8125 7.773438 6.8125 7.984375 C 6.8125 8.203125 6.703125 8.3125 6.484375 8.3125 C 5.691406 8.175781 4.898438 8.085938 4.109375 8.046875 C 3.316406 8.015625 2.523438 7.960938 1.734375 7.890625 C 1.222656 7.816406 0.695312 7.757812 0.15625 7.71875 C -0.375 7.6875 -0.929688 7.671875 -1.515625 7.671875 C -2.234375 9.179688 -2.96875 10.691406 -3.71875 12.203125 C -4.476562 13.710938 -5.253906 15.226562 -6.046875 16.75 C -8.929688 22.21875 -12.15625 27.546875 -15.71875 32.734375 C -19.28125 37.921875 -23.441406 42.492188 -28.203125 46.453125 C -30.429688 48.398438 -32.84375 50.109375 -35.4375 51.578125 C -38.03125 53.054688 -40.765625 54.226562 -43.640625 55.09375 C -45.085938 55.53125 -46.617188 55.816406 -48.234375 55.953125 C -49.859375 56.097656 -51.390625 55.882812 -52.828125 55.3125 C -54.484375 54.664062 -55.632812 53.566406 -56.28125 52.015625 C -56.925781 50.460938 -57.25 48.828125 -57.25 47.109375 C -57.113281 43.285156 -56.144531 39.679688 -54.34375 36.296875 C -52.539062 32.910156 -50.453125 29.816406 -48.078125 27.015625 C -43.753906 21.828125 -38.53125 17.394531 -32.40625 13.71875 C -29.457031 11.914062 -26.394531 10.382812 -23.21875 9.125 C -20.050781 7.863281 -16.8125 6.945312 -13.5 6.375 C -11.625 6.007812 -9.75 5.753906 -7.875 5.609375 C -6.007812 5.472656 -4.175781 5.476562 -2.375 5.625 C -1.507812 3.75 -0.644531 1.835938 0.21875 -0.109375 C 1.082031 -2.054688 1.910156 -4.035156 2.703125 -6.046875 C 3.640625 -8.140625 4.539062 -10.226562 5.40625 -12.3125 C 6.269531 -14.40625 7.203125 -16.457031 8.203125 -18.46875 C 7.847656 -18.113281 7.472656 -17.769531 7.078125 -17.4375 C 6.679688 -17.113281 6.300781 -16.773438 5.9375 -16.421875 C 5.21875 -15.847656 4.515625 -15.269531 3.828125 -14.6875 C 3.148438 -14.113281 2.414062 -13.539062 1.625 -12.96875 C 0.90625 -12.457031 0.113281 -11.929688 -0.75 -11.390625 C -1.613281 -10.859375 -2.476562 -10.519531 -3.34375 -10.375 C -4.0625 -10.300781 -4.726562 -10.476562 -5.34375 -10.90625 C -5.957031 -11.34375 -6.300781 -11.921875 -6.375 -12.640625 C -6.445312 -13.429688 -6.265625 -14.203125 -5.828125 -14.953125 C -5.398438 -15.710938 -4.96875 -16.414062 -4.53125 -17.0625 C -3.3125 -18.65625 -2 -20.132812 -0.59375 -21.5 C 0.8125 -22.863281 2.34375 -24.015625 4 -24.953125 C 4.71875 -25.316406 5.453125 -25.675781 6.203125 -26.03125 C 6.960938 -26.394531 7.738281 -26.613281 8.53125 -26.6875 C 9.175781 -26.757812 9.804688 -26.722656 10.421875 -26.578125 C 11.035156 -26.429688 11.664062 -26.25 12.3125 -26.03125 C 12.457031 -26.25 12.601562 -26.445312 12.75 -26.625 C 12.894531 -26.8125 13.003906 -26.972656 13.078125 -27.109375 Z M -4.75 10.484375 C -4.46875 9.972656 -4.21875 9.484375 -4 9.015625 C -3.78125 8.546875 -3.5625 8.0625 -3.34375 7.5625 C -4.0625 7.5625 -4.800781 7.5625 -5.5625 7.5625 C -6.320312 7.5625 -7.097656 7.597656 -7.890625 7.671875 C -11.054688 7.890625 -14.222656 8.429688 -17.390625 9.296875 C -20.554688 10.160156 -23.632812 11.3125 -26.625 12.75 C -29.613281 14.1875 -32.476562 15.84375 -35.21875 17.71875 C -37.957031 19.59375 -40.550781 21.71875 -43 24.09375 C -45.445312 26.46875 -47.644531 29.023438 -49.59375 31.765625 C -50.664062 33.273438 -51.613281 34.835938 -52.4375 36.453125 C -53.269531 38.078125 -53.976562 39.753906 -54.5625 41.484375 C -55.0625 43.210938 -55.382812 45.015625 -55.53125 46.890625 C -55.53125 47.753906 -55.457031 48.632812 -55.3125 49.53125 C -55.164062 50.425781 -54.84375 51.273438 -54.34375 52.078125 C -53.40625 53.367188 -52.109375 54.085938 -50.453125 54.234375 C -48.796875 54.378906 -47.28125 54.304688 -45.90625 54.015625 C -43.175781 53.367188 -40.515625 52.359375 -37.921875 50.984375 C -35.398438 49.691406 -33.003906 48.144531 -30.734375 46.34375 C -28.460938 44.539062 -26.359375 42.632812 -24.421875 40.625 C -20.242188 36.300781 -16.585938 31.546875 -13.453125 26.359375 C -10.316406 21.171875 -7.414062 15.878906 -4.75 10.484375 Z M -0.546875 -13.390625 C 4.492188 -16.628906 8.671875 -20.664062 11.984375 -25.5 C 11.335938 -25.644531 10.671875 -25.734375 9.984375 -25.765625 C 9.304688 -25.796875 8.644531 -25.707031 8 -25.5 C 7.207031 -25.28125 6.445312 -24.953125 5.71875 -24.515625 C 5 -24.085938 4.28125 -23.625 3.5625 -23.125 C 2.195312 -22.1875 0.921875 -21.125 -0.265625 -19.9375 C -1.453125 -18.75 -2.550781 -17.429688 -3.5625 -15.984375 C -3.851562 -15.554688 -4.210938 -14.960938 -4.640625 -14.203125 C -5.078125 -13.453125 -5.113281 -12.785156 -4.75 -12.203125 C -4.320312 -11.554688 -3.617188 -11.519531 -2.640625 -12.09375 C -1.671875 -12.675781 -0.972656 -13.109375 -0.546875 -13.390625 Z M -0.546875 -13.390625 "></path></g></g></g></g></g></g></g></g></g></svg> 