<?xml version="1.0" encoding="UTF-8"?> <svg xmlns="http://www.w3.org/2000/svg" xmlns:xlink="http://www.w3.org/1999/xlink" width="360" zoomAndPan="magnify" viewBox="0 0 270 359.999987" height="480" preserveAspectRatio="xMidYMid meet" version="1.0"><defs><g></g><clipPath id="f01cfaee09"><path d="M 0.398438 1 L 11 1 L 11 8 L 0.398438 8 Z M 0.398438 1 " clip-rule="nonzero"></path></clipPath><clipPath id="c842b025b9"><rect x="0" width="267" y="0" height="12"></rect></clipPath></defs><g transform="matrix(1, 0, 0, 1, 2, 174)"><g clip-path="url(#c842b025b9)"><g clip-path="url(#f01cfaee09)"><g fill="#000000" fill-opacity="1"><g transform="translate(0.493047, 7.826948)"><g><path d="M 9.578125 -0.109375 C 9.585938 -0.109375 9.59375 -0.0859375 9.59375 -0.046875 C 9.59375 -0.015625 9.585938 0 9.578125 0 L 8.34375 0 C 8.257812 0 8.1875 -0.0195312 8.125 -0.0625 C 8.070312 -0.113281 7.972656 -0.242188 7.828125 -0.453125 C 7.691406 -0.660156 7.429688 -1.054688 7.046875 -1.640625 C 6.742188 -2.097656 6.523438 -2.414062 6.390625 -2.59375 C 6.253906 -2.769531 6.113281 -2.894531 5.96875 -2.96875 C 5.820312 -3.039062 5.617188 -3.078125 5.359375 -3.078125 L 5.140625 -3.0625 L 5.140625 -0.796875 C 5.140625 -0.585938 5.160156 -0.4375 5.203125 -0.34375 C 5.242188 -0.257812 5.320312 -0.195312 5.4375 -0.15625 C 5.550781 -0.125 5.734375 -0.109375 5.984375 -0.109375 C 6.003906 -0.109375 6.015625 -0.0859375 6.015625 -0.046875 C 6.015625 -0.015625 6.003906 0 5.984375 0 C 5.785156 0 5.628906 -0.00390625 5.515625 -0.015625 L 4.15625 -0.015625 C 4.039062 -0.00390625 3.878906 0 3.671875 0 C 3.648438 0 3.640625 -0.015625 3.640625 -0.046875 C 3.640625 -0.0859375 3.648438 -0.109375 3.671875 -0.109375 C 3.921875 -0.109375 4.101562 -0.125 4.21875 -0.15625 C 4.332031 -0.195312 4.410156 -0.265625 4.453125 -0.359375 C 4.503906 -0.453125 4.53125 -0.597656 4.53125 -0.796875 L 4.53125 -3.046875 C 4.40625 -3.066406 4.320312 -3.078125 4.28125 -3.078125 C 4.03125 -3.078125 3.832031 -3.039062 3.6875 -2.96875 C 3.539062 -2.894531 3.394531 -2.769531 3.25 -2.59375 C 3.113281 -2.425781 2.894531 -2.113281 2.59375 -1.65625 L 2.40625 -1.34375 C 2.15625 -0.96875 1.957031 -0.671875 1.8125 -0.453125 C 1.664062 -0.234375 1.566406 -0.101562 1.515625 -0.0625 C 1.460938 -0.0195312 1.394531 0 1.3125 0 L 0.09375 0 C 0.0703125 0 0.0625 -0.015625 0.0625 -0.046875 C 0.0625 -0.0859375 0.0703125 -0.109375 0.09375 -0.109375 C 0.332031 -0.117188 0.546875 -0.179688 0.734375 -0.296875 C 0.929688 -0.421875 1.117188 -0.59375 1.296875 -0.8125 C 1.484375 -1.039062 1.726562 -1.378906 2.03125 -1.828125 C 2.375 -2.359375 2.613281 -2.707031 2.75 -2.875 C 2.894531 -3.039062 3.054688 -3.148438 3.234375 -3.203125 L 2.09375 -4.890625 C 1.820312 -5.285156 1.550781 -5.566406 1.28125 -5.734375 C 1.019531 -5.898438 0.707031 -5.984375 0.34375 -5.984375 C 0.332031 -5.984375 0.328125 -6 0.328125 -6.03125 C 0.328125 -6.070312 0.332031 -6.09375 0.34375 -6.09375 L 0.71875 -6.078125 C 0.945312 -6.066406 1.171875 -6.0625 1.390625 -6.0625 C 1.597656 -6.0625 1.832031 -6.066406 2.09375 -6.078125 L 2.546875 -6.09375 C 2.566406 -6.09375 2.578125 -6.070312 2.578125 -6.03125 C 2.578125 -6 2.566406 -5.984375 2.546875 -5.984375 C 2.359375 -5.984375 2.222656 -5.960938 2.140625 -5.921875 C 2.066406 -5.890625 2.03125 -5.832031 2.03125 -5.75 C 2.03125 -5.664062 2.0625 -5.554688 2.125 -5.421875 C 2.195312 -5.296875 2.304688 -5.109375 2.453125 -4.859375 L 3.4375 -3.234375 C 3.507812 -3.242188 3.625 -3.25 3.78125 -3.25 L 4.3125 -3.234375 C 4.351562 -3.234375 4.425781 -3.234375 4.53125 -3.234375 L 4.53125 -5.296875 C 4.53125 -5.492188 4.5 -5.640625 4.4375 -5.734375 C 4.382812 -5.828125 4.289062 -5.890625 4.15625 -5.921875 C 4.03125 -5.960938 3.84375 -5.984375 3.59375 -5.984375 C 3.570312 -5.984375 3.5625 -6 3.5625 -6.03125 C 3.5625 -6.070312 3.570312 -6.09375 3.59375 -6.09375 L 4.109375 -6.078125 C 4.410156 -6.066406 4.644531 -6.0625 4.8125 -6.0625 C 5 -6.0625 5.25 -6.066406 5.5625 -6.078125 L 6.078125 -6.09375 C 6.097656 -6.09375 6.109375 -6.070312 6.109375 -6.03125 C 6.109375 -6 6.097656 -5.984375 6.078125 -5.984375 C 5.835938 -5.984375 5.648438 -5.960938 5.515625 -5.921875 C 5.378906 -5.878906 5.28125 -5.804688 5.21875 -5.703125 C 5.164062 -5.609375 5.140625 -5.46875 5.140625 -5.28125 L 5.140625 -3.234375 C 5.546875 -3.242188 5.789062 -3.25 5.875 -3.25 C 6.03125 -3.25 6.140625 -3.242188 6.203125 -3.234375 L 7.203125 -4.859375 C 7.347656 -5.097656 7.453125 -5.285156 7.515625 -5.421875 C 7.585938 -5.554688 7.625 -5.664062 7.625 -5.75 C 7.625 -5.832031 7.582031 -5.890625 7.5 -5.921875 C 7.425781 -5.960938 7.300781 -5.984375 7.125 -5.984375 C 7.101562 -5.984375 7.09375 -6 7.09375 -6.03125 C 7.09375 -6.070312 7.101562 -6.09375 7.125 -6.09375 L 7.5625 -6.078125 C 7.820312 -6.066406 8.0625 -6.0625 8.28125 -6.0625 C 8.488281 -6.0625 8.710938 -6.066406 8.953125 -6.078125 L 9.3125 -6.09375 C 9.320312 -6.09375 9.328125 -6.070312 9.328125 -6.03125 C 9.328125 -6 9.320312 -5.984375 9.3125 -5.984375 C 8.945312 -5.984375 8.628906 -5.898438 8.359375 -5.734375 C 8.097656 -5.566406 7.832031 -5.285156 7.5625 -4.890625 L 6.421875 -3.203125 C 6.585938 -3.148438 6.734375 -3.050781 6.859375 -2.90625 C 6.992188 -2.757812 7.210938 -2.460938 7.515625 -2.015625 L 7.640625 -1.828125 C 7.929688 -1.378906 8.164062 -1.039062 8.34375 -0.8125 C 8.53125 -0.59375 8.71875 -0.421875 8.90625 -0.296875 C 9.101562 -0.179688 9.328125 -0.117188 9.578125 -0.109375 Z M 9.578125 -0.109375 "></path></g></g></g></g><g fill="#000000" fill-opacity="1"><g transform="translate(10.149032, 7.826948)"><g><path d="M 4.625 -1.453125 C 4.625 -1.460938 4.640625 -1.46875 4.671875 -1.46875 C 4.691406 -1.46875 4.707031 -1.460938 4.71875 -1.453125 C 4.738281 -1.453125 4.75 -1.445312 4.75 -1.4375 C 4.6875 -1.019531 4.65625 -0.585938 4.65625 -0.140625 C 4.65625 -0.0859375 4.644531 -0.0507812 4.625 -0.03125 C 4.601562 -0.0078125 4.5625 0 4.5 0 L 0.421875 0 C 0.410156 0 0.40625 -0.015625 0.40625 -0.046875 C 0.40625 -0.0859375 0.410156 -0.109375 0.421875 -0.109375 C 0.671875 -0.109375 0.847656 -0.125 0.953125 -0.15625 C 1.066406 -0.195312 1.144531 -0.265625 1.1875 -0.359375 C 1.226562 -0.453125 1.25 -0.597656 1.25 -0.796875 L 1.25 -5.296875 C 1.25 -5.492188 1.226562 -5.640625 1.1875 -5.734375 C 1.144531 -5.828125 1.066406 -5.890625 0.953125 -5.921875 C 0.847656 -5.960938 0.671875 -5.984375 0.421875 -5.984375 C 0.410156 -5.984375 0.40625 -6 0.40625 -6.03125 C 0.40625 -6.070312 0.410156 -6.09375 0.421875 -6.09375 L 4.34375 -6.09375 C 4.394531 -6.09375 4.421875 -6.0625 4.421875 -6 L 4.453125 -4.8125 C 4.453125 -4.789062 4.429688 -4.773438 4.390625 -4.765625 C 4.359375 -4.765625 4.34375 -4.773438 4.34375 -4.796875 C 4.320312 -5.140625 4.21875 -5.40625 4.03125 -5.59375 C 3.84375 -5.789062 3.59375 -5.890625 3.28125 -5.890625 L 2.6875 -5.890625 C 2.457031 -5.890625 2.285156 -5.867188 2.171875 -5.828125 C 2.066406 -5.796875 1.992188 -5.734375 1.953125 -5.640625 C 1.910156 -5.554688 1.890625 -5.425781 1.890625 -5.25 L 1.890625 -3.28125 L 3.078125 -3.28125 C 3.390625 -3.28125 3.613281 -3.332031 3.75 -3.4375 C 3.882812 -3.539062 3.953125 -3.710938 3.953125 -3.953125 C 3.953125 -3.972656 3.96875 -3.984375 4 -3.984375 C 4.039062 -3.984375 4.0625 -3.972656 4.0625 -3.953125 L 4.0625 -3.171875 C 4.0625 -2.984375 4.0625 -2.835938 4.0625 -2.734375 L 4.078125 -2.265625 C 4.078125 -2.253906 4.054688 -2.25 4.015625 -2.25 C 3.972656 -2.25 3.953125 -2.253906 3.953125 -2.265625 C 3.953125 -2.554688 3.882812 -2.765625 3.75 -2.890625 C 3.613281 -3.015625 3.378906 -3.078125 3.046875 -3.078125 L 1.890625 -3.078125 L 1.890625 -0.828125 C 1.890625 -0.648438 1.910156 -0.515625 1.953125 -0.421875 C 1.992188 -0.335938 2.066406 -0.28125 2.171875 -0.25 C 2.273438 -0.21875 2.4375 -0.203125 2.65625 -0.203125 L 3.4375 -0.203125 C 3.75 -0.203125 4.007812 -0.3125 4.21875 -0.53125 C 4.425781 -0.757812 4.5625 -1.066406 4.625 -1.453125 Z M 4.625 -1.453125 "></path></g></g></g><g fill="#000000" fill-opacity="1"><g transform="translate(15.381384, 7.826948)"><g><path d="M 1.84375 -5.921875 C 1.4375 -5.921875 1.128906 -5.816406 0.921875 -5.609375 C 0.710938 -5.398438 0.566406 -5.046875 0.484375 -4.546875 C 0.484375 -4.535156 0.460938 -4.53125 0.421875 -4.53125 C 0.390625 -4.53125 0.375 -4.535156 0.375 -4.546875 C 0.394531 -4.773438 0.421875 -5.078125 0.453125 -5.453125 C 0.484375 -5.835938 0.5 -6.125 0.5 -6.3125 C 0.5 -6.34375 0.515625 -6.359375 0.546875 -6.359375 C 0.585938 -6.359375 0.609375 -6.34375 0.609375 -6.3125 C 0.609375 -6.164062 0.785156 -6.09375 1.140625 -6.09375 C 1.691406 -6.070312 2.34375 -6.0625 3.09375 -6.0625 C 3.476562 -6.0625 3.882812 -6.066406 4.3125 -6.078125 L 4.984375 -6.09375 C 5.210938 -6.09375 5.382812 -6.109375 5.5 -6.140625 C 5.613281 -6.171875 5.6875 -6.238281 5.71875 -6.34375 C 5.726562 -6.363281 5.75 -6.375 5.78125 -6.375 C 5.8125 -6.375 5.828125 -6.363281 5.828125 -6.34375 C 5.804688 -6.144531 5.785156 -5.851562 5.765625 -5.46875 C 5.753906 -5.09375 5.75 -4.785156 5.75 -4.546875 C 5.75 -4.535156 5.726562 -4.53125 5.6875 -4.53125 C 5.644531 -4.53125 5.625 -4.535156 5.625 -4.546875 C 5.601562 -5.046875 5.5 -5.398438 5.3125 -5.609375 C 5.125 -5.816406 4.8125 -5.921875 4.375 -5.921875 C 4.082031 -5.921875 3.875 -5.90625 3.75 -5.875 C 3.625 -5.851562 3.539062 -5.800781 3.5 -5.71875 C 3.457031 -5.632812 3.4375 -5.488281 3.4375 -5.28125 L 3.4375 -0.796875 C 3.4375 -0.585938 3.457031 -0.4375 3.5 -0.34375 C 3.539062 -0.257812 3.625 -0.195312 3.75 -0.15625 C 3.882812 -0.125 4.09375 -0.109375 4.375 -0.109375 C 4.394531 -0.109375 4.40625 -0.0859375 4.40625 -0.046875 C 4.40625 -0.015625 4.394531 0 4.375 0 C 4.164062 0 3.992188 -0.00390625 3.859375 -0.015625 L 2.375 -0.015625 C 2.238281 -0.00390625 2.054688 0 1.828125 0 C 1.816406 0 1.8125 -0.015625 1.8125 -0.046875 C 1.8125 -0.0859375 1.816406 -0.109375 1.828125 -0.109375 C 2.109375 -0.109375 2.3125 -0.125 2.4375 -0.15625 C 2.570312 -0.195312 2.660156 -0.265625 2.703125 -0.359375 C 2.753906 -0.453125 2.78125 -0.597656 2.78125 -0.796875 L 2.78125 -5.296875 C 2.78125 -5.503906 2.757812 -5.644531 2.71875 -5.71875 C 2.675781 -5.800781 2.59375 -5.851562 2.46875 -5.875 C 2.34375 -5.90625 2.132812 -5.921875 1.84375 -5.921875 Z M 1.84375 -5.921875 "></path></g></g></g><g fill="#000000" fill-opacity="1"><g transform="translate(21.558867, 7.826948)"><g><path d="M 5.984375 -6.09375 C 5.992188 -6.09375 6 -6.070312 6 -6.03125 C 6 -6 5.992188 -5.984375 5.984375 -5.984375 C 5.753906 -5.984375 5.515625 -5.894531 5.265625 -5.71875 C 5.023438 -5.539062 4.8125 -5.304688 4.625 -5.015625 L 3.328125 -3 L 3.328125 -0.796875 C 3.328125 -0.585938 3.34375 -0.4375 3.375 -0.34375 C 3.414062 -0.257812 3.492188 -0.195312 3.609375 -0.15625 C 3.722656 -0.125 3.90625 -0.109375 4.15625 -0.109375 C 4.175781 -0.109375 4.1875 -0.0859375 4.1875 -0.046875 C 4.1875 -0.015625 4.175781 0 4.15625 0 C 3.945312 0 3.789062 -0.00390625 3.6875 -0.015625 L 2.328125 -0.015625 C 2.210938 -0.00390625 2.054688 0 1.859375 0 C 1.835938 0 1.828125 -0.015625 1.828125 -0.046875 C 1.828125 -0.0859375 1.835938 -0.109375 1.859375 -0.109375 C 2.097656 -0.109375 2.273438 -0.125 2.390625 -0.15625 C 2.503906 -0.195312 2.582031 -0.265625 2.625 -0.359375 C 2.664062 -0.453125 2.6875 -0.597656 2.6875 -0.796875 L 2.6875 -2.84375 L 1.078125 -5.21875 C 0.890625 -5.5 0.710938 -5.695312 0.546875 -5.8125 C 0.390625 -5.925781 0.203125 -5.984375 -0.015625 -5.984375 C -0.0234375 -5.984375 -0.03125 -6 -0.03125 -6.03125 C -0.03125 -6.070312 -0.0234375 -6.09375 -0.015625 -6.09375 C 0.0664062 -6.09375 0.1875 -6.085938 0.34375 -6.078125 L 0.6875 -6.0625 C 0.90625 -6.0625 1.179688 -6.066406 1.515625 -6.078125 L 2.046875 -6.09375 C 2.054688 -6.09375 2.0625 -6.070312 2.0625 -6.03125 C 2.0625 -6 2.054688 -5.984375 2.046875 -5.984375 C 1.710938 -5.984375 1.546875 -5.910156 1.546875 -5.765625 C 1.546875 -5.703125 1.578125 -5.625 1.640625 -5.53125 L 3.203125 -3.234375 L 4.390625 -5.046875 C 4.535156 -5.273438 4.609375 -5.46875 4.609375 -5.625 C 4.609375 -5.863281 4.429688 -5.984375 4.078125 -5.984375 C 4.066406 -5.984375 4.0625 -6 4.0625 -6.03125 C 4.0625 -6.070312 4.066406 -6.09375 4.078125 -6.09375 L 4.546875 -6.078125 C 4.785156 -6.066406 5.007812 -6.0625 5.21875 -6.0625 C 5.332031 -6.0625 5.46875 -6.066406 5.625 -6.078125 Z M 5.984375 -6.09375 "></path></g></g></g><g fill="#000000" fill-opacity="1"><g transform="translate(27.492758, 7.826948)"><g><path d="M 5.984375 -6.09375 C 5.992188 -6.09375 6 -6.070312 6 -6.03125 C 6 -6 5.992188 -5.984375 5.984375 -5.984375 C 5.753906 -5.984375 5.515625 -5.894531 5.265625 -5.71875 C 5.023438 -5.539062 4.8125 -5.304688 4.625 -5.015625 L 3.328125 -3 L 3.328125 -0.796875 C 3.328125 -0.585938 3.34375 -0.4375 3.375 -0.34375 C 3.414062 -0.257812 3.492188 -0.195312 3.609375 -0.15625 C 3.722656 -0.125 3.90625 -0.109375 4.15625 -0.109375 C 4.175781 -0.109375 4.1875 -0.0859375 4.1875 -0.046875 C 4.1875 -0.015625 4.175781 0 4.15625 0 C 3.945312 0 3.789062 -0.00390625 3.6875 -0.015625 L 2.328125 -0.015625 C 2.210938 -0.00390625 2.054688 0 1.859375 0 C 1.835938 0 1.828125 -0.015625 1.828125 -0.046875 C 1.828125 -0.0859375 1.835938 -0.109375 1.859375 -0.109375 C 2.097656 -0.109375 2.273438 -0.125 2.390625 -0.15625 C 2.503906 -0.195312 2.582031 -0.265625 2.625 -0.359375 C 2.664062 -0.453125 2.6875 -0.597656 2.6875 -0.796875 L 2.6875 -2.84375 L 1.078125 -5.21875 C 0.890625 -5.5 0.710938 -5.695312 0.546875 -5.8125 C 0.390625 -5.925781 0.203125 -5.984375 -0.015625 -5.984375 C -0.0234375 -5.984375 -0.03125 -6 -0.03125 -6.03125 C -0.03125 -6.070312 -0.0234375 -6.09375 -0.015625 -6.09375 C 0.0664062 -6.09375 0.1875 -6.085938 0.34375 -6.078125 L 0.6875 -6.0625 C 0.90625 -6.0625 1.179688 -6.066406 1.515625 -6.078125 L 2.046875 -6.09375 C 2.054688 -6.09375 2.0625 -6.070312 2.0625 -6.03125 C 2.0625 -6 2.054688 -5.984375 2.046875 -5.984375 C 1.710938 -5.984375 1.546875 -5.910156 1.546875 -5.765625 C 1.546875 -5.703125 1.578125 -5.625 1.640625 -5.53125 L 3.203125 -3.234375 L 4.390625 -5.046875 C 4.535156 -5.273438 4.609375 -5.46875 4.609375 -5.625 C 4.609375 -5.863281 4.429688 -5.984375 4.078125 -5.984375 C 4.066406 -5.984375 4.0625 -6 4.0625 -6.03125 C 4.0625 -6.070312 4.066406 -6.09375 4.078125 -6.09375 L 4.546875 -6.078125 C 4.785156 -6.066406 5.007812 -6.0625 5.21875 -6.0625 C 5.332031 -6.0625 5.46875 -6.066406 5.625 -6.078125 Z M 5.984375 -6.09375 "></path></g></g></g><g fill="#000000" fill-opacity="1"><g transform="translate(33.42665, 7.826948)"><g></g></g></g><g fill="#000000" fill-opacity="1"><g transform="translate(35.706673, 7.826948)"><g><path d="M 5.984375 -6.09375 C 5.992188 -6.09375 6 -6.070312 6 -6.03125 C 6 -6 5.992188 -5.984375 5.984375 -5.984375 C 5.753906 -5.984375 5.515625 -5.894531 5.265625 -5.71875 C 5.023438 -5.539062 4.8125 -5.304688 4.625 -5.015625 L 3.328125 -3 L 3.328125 -0.796875 C 3.328125 -0.585938 3.34375 -0.4375 3.375 -0.34375 C 3.414062 -0.257812 3.492188 -0.195312 3.609375 -0.15625 C 3.722656 -0.125 3.90625 -0.109375 4.15625 -0.109375 C 4.175781 -0.109375 4.1875 -0.0859375 4.1875 -0.046875 C 4.1875 -0.015625 4.175781 0 4.15625 0 C 3.945312 0 3.789062 -0.00390625 3.6875 -0.015625 L 2.328125 -0.015625 C 2.210938 -0.00390625 2.054688 0 1.859375 0 C 1.835938 0 1.828125 -0.015625 1.828125 -0.046875 C 1.828125 -0.0859375 1.835938 -0.109375 1.859375 -0.109375 C 2.097656 -0.109375 2.273438 -0.125 2.390625 -0.15625 C 2.503906 -0.195312 2.582031 -0.265625 2.625 -0.359375 C 2.664062 -0.453125 2.6875 -0.597656 2.6875 -0.796875 L 2.6875 -2.84375 L 1.078125 -5.21875 C 0.890625 -5.5 0.710938 -5.695312 0.546875 -5.8125 C 0.390625 -5.925781 0.203125 -5.984375 -0.015625 -5.984375 C -0.0234375 -5.984375 -0.03125 -6 -0.03125 -6.03125 C -0.03125 -6.070312 -0.0234375 -6.09375 -0.015625 -6.09375 C 0.0664062 -6.09375 0.1875 -6.085938 0.34375 -6.078125 L 0.6875 -6.0625 C 0.90625 -6.0625 1.179688 -6.066406 1.515625 -6.078125 L 2.046875 -6.09375 C 2.054688 -6.09375 2.0625 -6.070312 2.0625 -6.03125 C 2.0625 -6 2.054688 -5.984375 2.046875 -5.984375 C 1.710938 -5.984375 1.546875 -5.910156 1.546875 -5.765625 C 1.546875 -5.703125 1.578125 -5.625 1.640625 -5.53125 L 3.203125 -3.234375 L 4.390625 -5.046875 C 4.535156 -5.273438 4.609375 -5.46875 4.609375 -5.625 C 4.609375 -5.863281 4.429688 -5.984375 4.078125 -5.984375 C 4.066406 -5.984375 4.0625 -6 4.0625 -6.03125 C 4.0625 -6.070312 4.066406 -6.09375 4.078125 -6.09375 L 4.546875 -6.078125 C 4.785156 -6.066406 5.007812 -6.0625 5.21875 -6.0625 C 5.332031 -6.0625 5.46875 -6.066406 5.625 -6.078125 Z M 5.984375 -6.09375 "></path></g></g></g><g fill="#000000" fill-opacity="1"><g transform="translate(41.640565, 7.826948)"><g><path d="M 5.765625 -0.109375 C 5.785156 -0.109375 5.796875 -0.0859375 5.796875 -0.046875 C 5.796875 -0.015625 5.785156 0 5.765625 0 C 5.554688 0 5.394531 -0.00390625 5.28125 -0.015625 L 3.90625 -0.015625 C 3.800781 -0.00390625 3.644531 0 3.4375 0 C 3.414062 0 3.40625 -0.015625 3.40625 -0.046875 C 3.40625 -0.0859375 3.414062 -0.109375 3.4375 -0.109375 C 3.6875 -0.109375 3.867188 -0.125 3.984375 -0.15625 C 4.097656 -0.195312 4.171875 -0.257812 4.203125 -0.34375 C 4.242188 -0.4375 4.265625 -0.585938 4.265625 -0.796875 L 4.265625 -2.96875 C 3.734375 -2.59375 3.175781 -2.40625 2.59375 -2.40625 C 2.0625 -2.40625 1.628906 -2.546875 1.296875 -2.828125 C 0.972656 -3.109375 0.8125 -3.492188 0.8125 -3.984375 L 0.8125 -5.296875 C 0.8125 -5.492188 0.789062 -5.640625 0.75 -5.734375 C 0.707031 -5.828125 0.628906 -5.890625 0.515625 -5.921875 C 0.398438 -5.960938 0.222656 -5.984375 -0.015625 -5.984375 C -0.0234375 -5.984375 -0.03125 -6 -0.03125 -6.03125 C -0.03125 -6.070312 -0.0234375 -6.09375 -0.015625 -6.09375 L 0.40625 -6.078125 C 0.664062 -6.066406 0.898438 -6.0625 1.109375 -6.0625 C 1.296875 -6.0625 1.519531 -6.066406 1.78125 -6.078125 L 2.171875 -6.09375 C 2.179688 -6.09375 2.1875 -6.070312 2.1875 -6.03125 C 2.1875 -6 2.179688 -5.984375 2.171875 -5.984375 C 1.960938 -5.984375 1.804688 -5.960938 1.703125 -5.921875 C 1.597656 -5.878906 1.523438 -5.8125 1.484375 -5.71875 C 1.453125 -5.625 1.4375 -5.476562 1.4375 -5.28125 L 1.4375 -4.3125 C 1.4375 -3.757812 1.554688 -3.335938 1.796875 -3.046875 C 2.046875 -2.765625 2.394531 -2.625 2.84375 -2.625 C 3.320312 -2.625 3.796875 -2.789062 4.265625 -3.125 L 4.265625 -5.28125 C 4.265625 -5.476562 4.242188 -5.625 4.203125 -5.71875 C 4.171875 -5.8125 4.109375 -5.878906 4.015625 -5.921875 C 3.921875 -5.960938 3.765625 -5.984375 3.546875 -5.984375 C 3.535156 -5.984375 3.53125 -6 3.53125 -6.03125 C 3.53125 -6.070312 3.535156 -6.09375 3.546875 -6.09375 L 3.984375 -6.078125 C 4.242188 -6.066406 4.453125 -6.0625 4.609375 -6.0625 C 4.773438 -6.0625 5 -6.066406 5.28125 -6.078125 L 5.765625 -6.09375 C 5.785156 -6.09375 5.796875 -6.070312 5.796875 -6.03125 C 5.796875 -6 5.785156 -5.984375 5.765625 -5.984375 C 5.515625 -5.984375 5.328125 -5.960938 5.203125 -5.921875 C 5.085938 -5.890625 5.007812 -5.828125 4.96875 -5.734375 C 4.925781 -5.640625 4.90625 -5.492188 4.90625 -5.296875 L 4.90625 -0.796875 C 4.90625 -0.597656 4.925781 -0.453125 4.96875 -0.359375 C 5.007812 -0.265625 5.085938 -0.195312 5.203125 -0.15625 C 5.328125 -0.125 5.515625 -0.109375 5.765625 -0.109375 Z M 5.765625 -0.109375 "></path></g></g></g><g fill="#000000" fill-opacity="1"><g transform="translate(47.749841, 7.826948)"><g><path d="M 5.984375 -6.09375 C 5.992188 -6.09375 6 -6.070312 6 -6.03125 C 6 -6 5.992188 -5.984375 5.984375 -5.984375 C 5.753906 -5.984375 5.515625 -5.894531 5.265625 -5.71875 C 5.023438 -5.539062 4.8125 -5.304688 4.625 -5.015625 L 3.328125 -3 L 3.328125 -0.796875 C 3.328125 -0.585938 3.34375 -0.4375 3.375 -0.34375 C 3.414062 -0.257812 3.492188 -0.195312 3.609375 -0.15625 C 3.722656 -0.125 3.90625 -0.109375 4.15625 -0.109375 C 4.175781 -0.109375 4.1875 -0.0859375 4.1875 -0.046875 C 4.1875 -0.015625 4.175781 0 4.15625 0 C 3.945312 0 3.789062 -0.00390625 3.6875 -0.015625 L 2.328125 -0.015625 C 2.210938 -0.00390625 2.054688 0 1.859375 0 C 1.835938 0 1.828125 -0.015625 1.828125 -0.046875 C 1.828125 -0.0859375 1.835938 -0.109375 1.859375 -0.109375 C 2.097656 -0.109375 2.273438 -0.125 2.390625 -0.15625 C 2.503906 -0.195312 2.582031 -0.265625 2.625 -0.359375 C 2.664062 -0.453125 2.6875 -0.597656 2.6875 -0.796875 L 2.6875 -2.84375 L 1.078125 -5.21875 C 0.890625 -5.5 0.710938 -5.695312 0.546875 -5.8125 C 0.390625 -5.925781 0.203125 -5.984375 -0.015625 -5.984375 C -0.0234375 -5.984375 -0.03125 -6 -0.03125 -6.03125 C -0.03125 -6.070312 -0.0234375 -6.09375 -0.015625 -6.09375 C 0.0664062 -6.09375 0.1875 -6.085938 0.34375 -6.078125 L 0.6875 -6.0625 C 0.90625 -6.0625 1.179688 -6.066406 1.515625 -6.078125 L 2.046875 -6.09375 C 2.054688 -6.09375 2.0625 -6.070312 2.0625 -6.03125 C 2.0625 -6 2.054688 -5.984375 2.046875 -5.984375 C 1.710938 -5.984375 1.546875 -5.910156 1.546875 -5.765625 C 1.546875 -5.703125 1.578125 -5.625 1.640625 -5.53125 L 3.203125 -3.234375 L 4.390625 -5.046875 C 4.535156 -5.273438 4.609375 -5.46875 4.609375 -5.625 C 4.609375 -5.863281 4.429688 -5.984375 4.078125 -5.984375 C 4.066406 -5.984375 4.0625 -6 4.0625 -6.03125 C 4.0625 -6.070312 4.066406 -6.09375 4.078125 -6.09375 L 4.546875 -6.078125 C 4.785156 -6.066406 5.007812 -6.0625 5.21875 -6.0625 C 5.332031 -6.0625 5.46875 -6.066406 5.625 -6.078125 Z M 5.984375 -6.09375 "></path></g></g></g><g fill="#000000" fill-opacity="1"><g transform="translate(53.683733, 7.826948)"><g><path d="M 7.046875 -0.109375 C 7.054688 -0.109375 7.0625 -0.0859375 7.0625 -0.046875 C 7.0625 -0.015625 7.054688 0 7.046875 0 C 6.835938 0 6.675781 -0.00390625 6.5625 -0.015625 L 5.171875 -0.015625 C 5.054688 -0.00390625 4.898438 0 4.703125 0 C 4.691406 0 4.6875 -0.015625 4.6875 -0.046875 C 4.6875 -0.0859375 4.691406 -0.109375 4.703125 -0.109375 C 4.960938 -0.109375 5.148438 -0.125 5.265625 -0.15625 C 5.378906 -0.195312 5.457031 -0.265625 5.5 -0.359375 C 5.539062 -0.453125 5.5625 -0.597656 5.5625 -0.796875 L 5.5625 -3.078125 L 1.828125 -3.078125 L 1.828125 -0.796875 C 1.828125 -0.597656 1.847656 -0.453125 1.890625 -0.359375 C 1.929688 -0.265625 2.007812 -0.195312 2.125 -0.15625 C 2.238281 -0.125 2.425781 -0.109375 2.6875 -0.109375 C 2.695312 -0.109375 2.703125 -0.0859375 2.703125 -0.046875 C 2.703125 -0.015625 2.695312 0 2.6875 0 C 2.476562 0 2.316406 -0.00390625 2.203125 -0.015625 L 0.828125 -0.015625 C 0.710938 -0.00390625 0.550781 0 0.34375 0 C 0.332031 0 0.328125 -0.015625 0.328125 -0.046875 C 0.328125 -0.0859375 0.332031 -0.109375 0.34375 -0.109375 C 0.59375 -0.109375 0.773438 -0.125 0.890625 -0.15625 C 1.015625 -0.195312 1.097656 -0.265625 1.140625 -0.359375 C 1.179688 -0.453125 1.203125 -0.597656 1.203125 -0.796875 L 1.203125 -5.296875 C 1.203125 -5.492188 1.179688 -5.640625 1.140625 -5.734375 C 1.097656 -5.828125 1.015625 -5.890625 0.890625 -5.921875 C 0.773438 -5.960938 0.59375 -5.984375 0.34375 -5.984375 C 0.332031 -5.984375 0.328125 -6 0.328125 -6.03125 C 0.328125 -6.070312 0.332031 -6.09375 0.34375 -6.09375 L 0.84375 -6.078125 C 1.113281 -6.066406 1.332031 -6.0625 1.5 -6.0625 C 1.6875 -6.0625 1.925781 -6.066406 2.21875 -6.078125 L 2.6875 -6.09375 C 2.695312 -6.09375 2.703125 -6.070312 2.703125 -6.03125 C 2.703125 -6 2.695312 -5.984375 2.6875 -5.984375 C 2.4375 -5.984375 2.25 -5.960938 2.125 -5.921875 C 2.007812 -5.878906 1.929688 -5.8125 1.890625 -5.71875 C 1.847656 -5.625 1.828125 -5.476562 1.828125 -5.28125 L 1.828125 -3.28125 L 5.5625 -3.28125 L 5.5625 -5.28125 C 5.5625 -5.476562 5.539062 -5.625 5.5 -5.71875 C 5.457031 -5.8125 5.378906 -5.878906 5.265625 -5.921875 C 5.148438 -5.960938 4.960938 -5.984375 4.703125 -5.984375 C 4.691406 -5.984375 4.6875 -6 4.6875 -6.03125 C 4.6875 -6.070312 4.691406 -6.09375 4.703125 -6.09375 L 5.171875 -6.078125 C 5.453125 -6.066406 5.691406 -6.0625 5.890625 -6.0625 C 6.066406 -6.0625 6.289062 -6.066406 6.5625 -6.078125 L 7.046875 -6.09375 C 7.054688 -6.09375 7.0625 -6.070312 7.0625 -6.03125 C 7.0625 -6 7.054688 -5.984375 7.046875 -5.984375 C 6.796875 -5.984375 6.609375 -5.960938 6.484375 -5.921875 C 6.367188 -5.890625 6.289062 -5.828125 6.25 -5.734375 C 6.207031 -5.640625 6.1875 -5.492188 6.1875 -5.296875 L 6.1875 -0.796875 C 6.1875 -0.597656 6.207031 -0.453125 6.25 -0.359375 C 6.289062 -0.265625 6.367188 -0.195312 6.484375 -0.15625 C 6.609375 -0.125 6.796875 -0.109375 7.046875 -0.109375 Z M 7.046875 -0.109375 "></path></g></g></g><g fill="#000000" fill-opacity="1"><g transform="translate(61.079172, 7.826948)"><g></g></g></g><g fill="#000000" fill-opacity="1"><g transform="translate(63.359195, 7.826948)"><g><path d="M 9.578125 -0.109375 C 9.585938 -0.109375 9.59375 -0.0859375 9.59375 -0.046875 C 9.59375 -0.015625 9.585938 0 9.578125 0 L 8.34375 0 C 8.257812 0 8.1875 -0.0195312 8.125 -0.0625 C 8.070312 -0.113281 7.972656 -0.242188 7.828125 -0.453125 C 7.691406 -0.660156 7.429688 -1.054688 7.046875 -1.640625 C 6.742188 -2.097656 6.523438 -2.414062 6.390625 -2.59375 C 6.253906 -2.769531 6.113281 -2.894531 5.96875 -2.96875 C 5.820312 -3.039062 5.617188 -3.078125 5.359375 -3.078125 L 5.140625 -3.0625 L 5.140625 -0.796875 C 5.140625 -0.585938 5.160156 -0.4375 5.203125 -0.34375 C 5.242188 -0.257812 5.320312 -0.195312 5.4375 -0.15625 C 5.550781 -0.125 5.734375 -0.109375 5.984375 -0.109375 C 6.003906 -0.109375 6.015625 -0.0859375 6.015625 -0.046875 C 6.015625 -0.015625 6.003906 0 5.984375 0 C 5.785156 0 5.628906 -0.00390625 5.515625 -0.015625 L 4.15625 -0.015625 C 4.039062 -0.00390625 3.878906 0 3.671875 0 C 3.648438 0 3.640625 -0.015625 3.640625 -0.046875 C 3.640625 -0.0859375 3.648438 -0.109375 3.671875 -0.109375 C 3.921875 -0.109375 4.101562 -0.125 4.21875 -0.15625 C 4.332031 -0.195312 4.410156 -0.265625 4.453125 -0.359375 C 4.503906 -0.453125 4.53125 -0.597656 4.53125 -0.796875 L 4.53125 -3.046875 C 4.40625 -3.066406 4.320312 -3.078125 4.28125 -3.078125 C 4.03125 -3.078125 3.832031 -3.039062 3.6875 -2.96875 C 3.539062 -2.894531 3.394531 -2.769531 3.25 -2.59375 C 3.113281 -2.425781 2.894531 -2.113281 2.59375 -1.65625 L 2.40625 -1.34375 C 2.15625 -0.96875 1.957031 -0.671875 1.8125 -0.453125 C 1.664062 -0.234375 1.566406 -0.101562 1.515625 -0.0625 C 1.460938 -0.0195312 1.394531 0 1.3125 0 L 0.09375 0 C 0.0703125 0 0.0625 -0.015625 0.0625 -0.046875 C 0.0625 -0.0859375 0.0703125 -0.109375 0.09375 -0.109375 C 0.332031 -0.117188 0.546875 -0.179688 0.734375 -0.296875 C 0.929688 -0.421875 1.117188 -0.59375 1.296875 -0.8125 C 1.484375 -1.039062 1.726562 -1.378906 2.03125 -1.828125 C 2.375 -2.359375 2.613281 -2.707031 2.75 -2.875 C 2.894531 -3.039062 3.054688 -3.148438 3.234375 -3.203125 L 2.09375 -4.890625 C 1.820312 -5.285156 1.550781 -5.566406 1.28125 -5.734375 C 1.019531 -5.898438 0.707031 -5.984375 0.34375 -5.984375 C 0.332031 -5.984375 0.328125 -6 0.328125 -6.03125 C 0.328125 -6.070312 0.332031 -6.09375 0.34375 -6.09375 L 0.71875 -6.078125 C 0.945312 -6.066406 1.171875 -6.0625 1.390625 -6.0625 C 1.597656 -6.0625 1.832031 -6.066406 2.09375 -6.078125 L 2.546875 -6.09375 C 2.566406 -6.09375 2.578125 -6.070312 2.578125 -6.03125 C 2.578125 -6 2.566406 -5.984375 2.546875 -5.984375 C 2.359375 -5.984375 2.222656 -5.960938 2.140625 -5.921875 C 2.066406 -5.890625 2.03125 -5.832031 2.03125 -5.75 C 2.03125 -5.664062 2.0625 -5.554688 2.125 -5.421875 C 2.195312 -5.296875 2.304688 -5.109375 2.453125 -4.859375 L 3.4375 -3.234375 C 3.507812 -3.242188 3.625 -3.25 3.78125 -3.25 L 4.3125 -3.234375 C 4.351562 -3.234375 4.425781 -3.234375 4.53125 -3.234375 L 4.53125 -5.296875 C 4.53125 -5.492188 4.5 -5.640625 4.4375 -5.734375 C 4.382812 -5.828125 4.289062 -5.890625 4.15625 -5.921875 C 4.03125 -5.960938 3.84375 -5.984375 3.59375 -5.984375 C 3.570312 -5.984375 3.5625 -6 3.5625 -6.03125 C 3.5625 -6.070312 3.570312 -6.09375 3.59375 -6.09375 L 4.109375 -6.078125 C 4.410156 -6.066406 4.644531 -6.0625 4.8125 -6.0625 C 5 -6.0625 5.25 -6.066406 5.5625 -6.078125 L 6.078125 -6.09375 C 6.097656 -6.09375 6.109375 -6.070312 6.109375 -6.03125 C 6.109375 -6 6.097656 -5.984375 6.078125 -5.984375 C 5.835938 -5.984375 5.648438 -5.960938 5.515625 -5.921875 C 5.378906 -5.878906 5.28125 -5.804688 5.21875 -5.703125 C 5.164062 -5.609375 5.140625 -5.46875 5.140625 -5.28125 L 5.140625 -3.234375 C 5.546875 -3.242188 5.789062 -3.25 5.875 -3.25 C 6.03125 -3.25 6.140625 -3.242188 6.203125 -3.234375 L 7.203125 -4.859375 C 7.347656 -5.097656 7.453125 -5.285156 7.515625 -5.421875 C 7.585938 -5.554688 7.625 -5.664062 7.625 -5.75 C 7.625 -5.832031 7.582031 -5.890625 7.5 -5.921875 C 7.425781 -5.960938 7.300781 -5.984375 7.125 -5.984375 C 7.101562 -5.984375 7.09375 -6 7.09375 -6.03125 C 7.09375 -6.070312 7.101562 -6.09375 7.125 -6.09375 L 7.5625 -6.078125 C 7.820312 -6.066406 8.0625 -6.0625 8.28125 -6.0625 C 8.488281 -6.0625 8.710938 -6.066406 8.953125 -6.078125 L 9.3125 -6.09375 C 9.320312 -6.09375 9.328125 -6.070312 9.328125 -6.03125 C 9.328125 -6 9.320312 -5.984375 9.3125 -5.984375 C 8.945312 -5.984375 8.628906 -5.898438 8.359375 -5.734375 C 8.097656 -5.566406 7.832031 -5.285156 7.5625 -4.890625 L 6.421875 -3.203125 C 6.585938 -3.148438 6.734375 -3.050781 6.859375 -2.90625 C 6.992188 -2.757812 7.210938 -2.460938 7.515625 -2.015625 L 7.640625 -1.828125 C 7.929688 -1.378906 8.164062 -1.039062 8.34375 -0.8125 C 8.53125 -0.59375 8.71875 -0.421875 8.90625 -0.296875 C 9.101562 -0.179688 9.328125 -0.117188 9.578125 -0.109375 Z M 9.578125 -0.109375 "></path></g></g></g><g fill="#000000" fill-opacity="1"><g transform="translate(72.674149, 7.826948)"><g><path d="M 3.5625 0.109375 C 2.957031 0.109375 2.421875 -0.03125 1.953125 -0.3125 C 1.484375 -0.59375 1.117188 -0.972656 0.859375 -1.453125 C 0.609375 -1.941406 0.484375 -2.472656 0.484375 -3.046875 C 0.484375 -3.710938 0.648438 -4.285156 0.984375 -4.765625 C 1.316406 -5.242188 1.75 -5.601562 2.28125 -5.84375 C 2.8125 -6.082031 3.351562 -6.203125 3.90625 -6.203125 C 4.53125 -6.203125 5.070312 -6.054688 5.53125 -5.765625 C 6 -5.472656 6.359375 -5.085938 6.609375 -4.609375 C 6.859375 -4.140625 6.984375 -3.640625 6.984375 -3.109375 C 6.984375 -2.515625 6.828125 -1.96875 6.515625 -1.46875 C 6.203125 -0.976562 5.785156 -0.59375 5.265625 -0.3125 C 4.742188 -0.03125 4.175781 0.109375 3.5625 0.109375 Z M 3.90625 -0.09375 C 4.351562 -0.09375 4.753906 -0.195312 5.109375 -0.40625 C 5.460938 -0.625 5.738281 -0.941406 5.9375 -1.359375 C 6.144531 -1.773438 6.25 -2.269531 6.25 -2.84375 C 6.25 -3.445312 6.132812 -3.984375 5.90625 -4.453125 C 5.675781 -4.929688 5.351562 -5.304688 4.9375 -5.578125 C 4.53125 -5.847656 4.050781 -5.984375 3.5 -5.984375 C 2.78125 -5.984375 2.21875 -5.75 1.8125 -5.28125 C 1.414062 -4.820312 1.21875 -4.191406 1.21875 -3.390625 C 1.21875 -2.773438 1.332031 -2.210938 1.5625 -1.703125 C 1.789062 -1.203125 2.109375 -0.804688 2.515625 -0.515625 C 2.921875 -0.234375 3.382812 -0.09375 3.90625 -0.09375 Z M 3.90625 -0.09375 "></path></g></g></g><g fill="#000000" fill-opacity="1"><g transform="translate(80.137794, 7.826948)"><g><path d="M 0.40625 0 C 0.394531 0 0.390625 -0.015625 0.390625 -0.046875 C 0.390625 -0.0859375 0.394531 -0.109375 0.40625 -0.109375 C 0.65625 -0.109375 0.835938 -0.125 0.953125 -0.15625 C 1.066406 -0.195312 1.144531 -0.265625 1.1875 -0.359375 C 1.226562 -0.453125 1.25 -0.597656 1.25 -0.796875 L 1.25 -5.296875 C 1.25 -5.492188 1.226562 -5.640625 1.1875 -5.734375 C 1.144531 -5.828125 1.066406 -5.890625 0.953125 -5.921875 C 0.847656 -5.960938 0.671875 -5.984375 0.421875 -5.984375 C 0.410156 -5.984375 0.40625 -6 0.40625 -6.03125 C 0.40625 -6.070312 0.410156 -6.09375 0.421875 -6.09375 L 4.546875 -6.09375 C 4.609375 -6.09375 4.640625 -6.0625 4.640625 -6 L 4.65625 -4.734375 C 4.65625 -4.710938 4.632812 -4.703125 4.59375 -4.703125 C 4.5625 -4.703125 4.546875 -4.710938 4.546875 -4.734375 C 4.515625 -5.097656 4.398438 -5.378906 4.203125 -5.578125 C 4.015625 -5.785156 3.765625 -5.890625 3.453125 -5.890625 L 2.6875 -5.890625 C 2.457031 -5.890625 2.285156 -5.875 2.171875 -5.84375 C 2.066406 -5.8125 1.992188 -5.75 1.953125 -5.65625 C 1.910156 -5.570312 1.890625 -5.453125 1.890625 -5.296875 L 1.890625 -0.828125 C 1.890625 -0.617188 1.914062 -0.46875 1.96875 -0.375 C 2.03125 -0.28125 2.140625 -0.210938 2.296875 -0.171875 C 2.460938 -0.128906 2.722656 -0.109375 3.078125 -0.109375 C 3.085938 -0.109375 3.09375 -0.0859375 3.09375 -0.046875 C 3.09375 -0.015625 3.085938 0 3.078125 0 C 2.804688 0 2.597656 -0.00390625 2.453125 -0.015625 L 0.90625 -0.015625 C 0.789062 -0.00390625 0.625 0 0.40625 0 Z M 0.40625 0 "></path></g></g></g><g fill="#000000" fill-opacity="1"><g transform="translate(85.009619, 7.826948)"><g><path d="M 3.5625 0.109375 C 2.957031 0.109375 2.421875 -0.03125 1.953125 -0.3125 C 1.484375 -0.59375 1.117188 -0.972656 0.859375 -1.453125 C 0.609375 -1.941406 0.484375 -2.472656 0.484375 -3.046875 C 0.484375 -3.710938 0.648438 -4.285156 0.984375 -4.765625 C 1.316406 -5.242188 1.75 -5.601562 2.28125 -5.84375 C 2.8125 -6.082031 3.351562 -6.203125 3.90625 -6.203125 C 4.53125 -6.203125 5.070312 -6.054688 5.53125 -5.765625 C 6 -5.472656 6.359375 -5.085938 6.609375 -4.609375 C 6.859375 -4.140625 6.984375 -3.640625 6.984375 -3.109375 C 6.984375 -2.515625 6.828125 -1.96875 6.515625 -1.46875 C 6.203125 -0.976562 5.785156 -0.59375 5.265625 -0.3125 C 4.742188 -0.03125 4.175781 0.109375 3.5625 0.109375 Z M 3.90625 -0.09375 C 4.351562 -0.09375 4.753906 -0.195312 5.109375 -0.40625 C 5.460938 -0.625 5.738281 -0.941406 5.9375 -1.359375 C 6.144531 -1.773438 6.25 -2.269531 6.25 -2.84375 C 6.25 -3.445312 6.132812 -3.984375 5.90625 -4.453125 C 5.675781 -4.929688 5.351562 -5.304688 4.9375 -5.578125 C 4.53125 -5.847656 4.050781 -5.984375 3.5 -5.984375 C 2.78125 -5.984375 2.21875 -5.75 1.8125 -5.28125 C 1.414062 -4.820312 1.21875 -4.191406 1.21875 -3.390625 C 1.21875 -2.773438 1.332031 -2.210938 1.5625 -1.703125 C 1.789062 -1.203125 2.109375 -0.804688 2.515625 -0.515625 C 2.921875 -0.234375 3.382812 -0.09375 3.90625 -0.09375 Z M 3.90625 -0.09375 "></path></g></g></g><g fill="#000000" fill-opacity="1"><g transform="translate(92.473264, 7.826948)"><g><path d="M 1.875 -0.828125 C 1.875 -0.617188 1.898438 -0.46875 1.953125 -0.375 C 2.003906 -0.28125 2.109375 -0.210938 2.265625 -0.171875 C 2.429688 -0.128906 2.6875 -0.109375 3.03125 -0.109375 C 3.050781 -0.109375 3.0625 -0.0859375 3.0625 -0.046875 C 3.0625 -0.015625 3.050781 0 3.03125 0 C 2.757812 0 2.550781 -0.00390625 2.40625 -0.015625 L 0.90625 -0.015625 C 0.78125 -0.00390625 0.613281 0 0.40625 0 C 0.394531 0 0.390625 -0.015625 0.390625 -0.046875 C 0.390625 -0.0859375 0.394531 -0.109375 0.40625 -0.109375 C 0.65625 -0.109375 0.835938 -0.125 0.953125 -0.15625 C 1.066406 -0.195312 1.140625 -0.265625 1.171875 -0.359375 C 1.210938 -0.453125 1.234375 -0.597656 1.234375 -0.796875 L 1.234375 -5.296875 C 1.234375 -5.492188 1.210938 -5.640625 1.171875 -5.734375 C 1.140625 -5.828125 1.066406 -5.890625 0.953125 -5.921875 C 0.835938 -5.960938 0.65625 -5.984375 0.40625 -5.984375 C 0.394531 -5.984375 0.390625 -6 0.390625 -6.03125 C 0.390625 -6.070312 0.394531 -6.09375 0.40625 -6.09375 L 0.890625 -6.078125 C 1.171875 -6.066406 1.390625 -6.0625 1.546875 -6.0625 C 1.710938 -6.0625 1.894531 -6.070312 2.09375 -6.09375 C 2.175781 -6.09375 2.300781 -6.097656 2.46875 -6.109375 C 2.632812 -6.117188 2.78125 -6.125 2.90625 -6.125 C 3.5 -6.125 3.976562 -5.988281 4.34375 -5.71875 C 4.707031 -5.457031 4.890625 -5.050781 4.890625 -4.5 C 4.890625 -4.070312 4.78125 -3.710938 4.5625 -3.421875 C 4.351562 -3.128906 4.082031 -2.910156 3.75 -2.765625 C 3.425781 -2.617188 3.085938 -2.546875 2.734375 -2.546875 C 2.546875 -2.546875 2.390625 -2.566406 2.265625 -2.609375 C 2.242188 -2.609375 2.234375 -2.625 2.234375 -2.65625 C 2.234375 -2.675781 2.238281 -2.691406 2.25 -2.703125 C 2.257812 -2.722656 2.269531 -2.734375 2.28125 -2.734375 C 2.382812 -2.703125 2.5 -2.6875 2.625 -2.6875 C 3.0625 -2.6875 3.425781 -2.828125 3.71875 -3.109375 C 4.007812 -3.390625 4.15625 -3.789062 4.15625 -4.3125 C 4.15625 -4.832031 4.015625 -5.238281 3.734375 -5.53125 C 3.460938 -5.832031 3.109375 -5.984375 2.671875 -5.984375 C 2.441406 -5.984375 2.273438 -5.96875 2.171875 -5.9375 C 2.066406 -5.914062 1.988281 -5.851562 1.9375 -5.75 C 1.894531 -5.65625 1.875 -5.5 1.875 -5.28125 Z M 1.875 -0.828125 "></path></g></g></g><g fill="#000000" fill-opacity="1"><g transform="translate(97.764084, 7.826948)"><g><path d="M 6 -6.09375 C 6.019531 -6.09375 6.03125 -6.070312 6.03125 -6.03125 C 6.03125 -6 6.019531 -5.984375 6 -5.984375 C 5.832031 -5.984375 5.671875 -5.921875 5.515625 -5.796875 C 5.367188 -5.671875 5.238281 -5.488281 5.125 -5.25 L 3.3125 -1.390625 C 3.125 -0.972656 3.007812 -0.707031 2.96875 -0.59375 C 2.882812 -0.394531 2.820312 -0.257812 2.78125 -0.1875 C 2.738281 -0.113281 2.691406 -0.0625 2.640625 -0.03125 C 2.597656 -0.0078125 2.535156 0 2.453125 0 L 0.96875 0 C 0.957031 0 0.953125 -0.015625 0.953125 -0.046875 C 0.953125 -0.0859375 0.957031 -0.109375 0.96875 -0.109375 C 1.445312 -0.109375 1.859375 -0.207031 2.203125 -0.40625 C 2.554688 -0.613281 2.835938 -0.941406 3.046875 -1.390625 L 0.953125 -5.28125 C 0.804688 -5.539062 0.675781 -5.722656 0.5625 -5.828125 C 0.445312 -5.929688 0.289062 -5.984375 0.09375 -5.984375 C 0.0820312 -5.984375 0.078125 -6 0.078125 -6.03125 C 0.078125 -6.070312 0.0820312 -6.09375 0.09375 -6.09375 L 0.484375 -6.078125 C 0.679688 -6.066406 0.847656 -6.0625 0.984375 -6.0625 C 1.222656 -6.0625 1.476562 -6.066406 1.75 -6.078125 L 2.15625 -6.09375 C 2.164062 -6.09375 2.171875 -6.070312 2.171875 -6.03125 C 2.171875 -6 2.164062 -5.984375 2.15625 -5.984375 C 1.75 -5.984375 1.546875 -5.878906 1.546875 -5.671875 C 1.546875 -5.597656 1.578125 -5.5 1.640625 -5.375 L 3.40625 -2.125 L 4.90625 -5.296875 C 4.957031 -5.421875 4.984375 -5.523438 4.984375 -5.609375 C 4.984375 -5.859375 4.726562 -5.984375 4.21875 -5.984375 C 4.195312 -5.984375 4.1875 -6 4.1875 -6.03125 C 4.1875 -6.070312 4.195312 -6.09375 4.21875 -6.09375 L 4.625 -6.078125 C 4.84375 -6.066406 5.039062 -6.0625 5.21875 -6.0625 C 5.332031 -6.0625 5.46875 -6.066406 5.625 -6.078125 Z M 6 -6.09375 "></path></g></g></g><g fill="#000000" fill-opacity="1"><g transform="translate(103.162082, 7.826948)"><g><path d="M 6.546875 -0.21875 C 6.597656 -0.21875 6.628906 -0.210938 6.640625 -0.203125 C 6.648438 -0.191406 6.65625 -0.160156 6.65625 -0.109375 C 6.65625 -0.078125 6.648438 0.00390625 6.640625 0.140625 C 6.597656 0.503906 6.578125 0.957031 6.578125 1.5 C 6.578125 1.53125 6.554688 1.546875 6.515625 1.546875 C 6.472656 1.546875 6.453125 1.53125 6.453125 1.5 C 6.453125 0.976562 6.320312 0.597656 6.0625 0.359375 C 5.8125 0.117188 5.398438 0 4.828125 0 L 1.859375 0 C 0.941406 0 0.484375 0.5 0.484375 1.5 C 0.484375 1.53125 0.460938 1.546875 0.421875 1.546875 C 0.390625 1.546875 0.375 1.53125 0.375 1.5 C 0.375 0.976562 0.347656 0.5625 0.296875 0.25 C 0.273438 0.125 0.265625 0.00390625 0.265625 -0.109375 C 0.265625 -0.160156 0.269531 -0.191406 0.28125 -0.203125 C 0.289062 -0.210938 0.320312 -0.21875 0.375 -0.21875 L 0.984375 -0.21875 L 3.421875 -6.1875 C 3.429688 -6.195312 3.453125 -6.203125 3.484375 -6.203125 C 3.523438 -6.203125 3.546875 -6.195312 3.546875 -6.1875 L 6.03125 -0.21875 Z M 1.234375 -0.21875 L 5.34375 -0.21875 L 3.28125 -5.21875 Z M 1.234375 -0.21875 "></path></g></g></g><g fill="#000000" fill-opacity="1"><g transform="translate(110.080096, 7.826948)"><g><path d="M 6.8125 -0.109375 C 6.84375 -0.109375 6.859375 -0.0859375 6.859375 -0.046875 C 6.859375 -0.015625 6.84375 0 6.8125 0 C 6.6875 0 6.492188 -0.00390625 6.234375 -0.015625 C 5.972656 -0.0234375 5.785156 -0.03125 5.671875 -0.03125 C 5.523438 -0.03125 5.34375 -0.0234375 5.125 -0.015625 C 4.914062 -0.00390625 4.757812 0 4.65625 0 C 4.625 0 4.609375 -0.015625 4.609375 -0.046875 C 4.609375 -0.0859375 4.625 -0.109375 4.65625 -0.109375 C 4.894531 -0.109375 5.066406 -0.128906 5.171875 -0.171875 C 5.285156 -0.222656 5.34375 -0.304688 5.34375 -0.421875 C 5.34375 -0.515625 5.300781 -0.65625 5.21875 -0.84375 L 4.34375 -2.6875 L 2.03125 -2.6875 L 1.40625 -1.234375 C 1.320312 -1.015625 1.28125 -0.835938 1.28125 -0.703125 C 1.28125 -0.503906 1.359375 -0.351562 1.515625 -0.25 C 1.671875 -0.15625 1.910156 -0.109375 2.234375 -0.109375 C 2.265625 -0.109375 2.28125 -0.0859375 2.28125 -0.046875 C 2.28125 -0.015625 2.265625 0 2.234375 0 C 2.117188 0 1.945312 -0.00390625 1.71875 -0.015625 C 1.476562 -0.0234375 1.265625 -0.03125 1.078125 -0.03125 C 0.910156 -0.03125 0.71875 -0.0234375 0.5 -0.015625 C 0.300781 -0.00390625 0.140625 0 0.015625 0 C -0.015625 0 -0.03125 -0.015625 -0.03125 -0.046875 C -0.03125 -0.0859375 -0.015625 -0.109375 0.015625 -0.109375 C 0.191406 -0.109375 0.34375 -0.144531 0.46875 -0.21875 C 0.59375 -0.289062 0.710938 -0.410156 0.828125 -0.578125 C 0.941406 -0.753906 1.066406 -1.003906 1.203125 -1.328125 L 3.265625 -6.1875 C 3.273438 -6.195312 3.296875 -6.203125 3.328125 -6.203125 C 3.367188 -6.203125 3.390625 -6.195312 3.390625 -6.1875 L 5.6875 -1.328125 C 5.914062 -0.847656 6.109375 -0.523438 6.265625 -0.359375 C 6.421875 -0.191406 6.601562 -0.109375 6.8125 -0.109375 Z M 2.109375 -2.875 L 4.265625 -2.875 L 3.125 -5.28125 Z M 2.109375 -2.875 "></path></g></g></g><g fill="#000000" fill-opacity="1"><g transform="translate(116.920146, 7.826948)"><g><path d="M 0.40625 0 C 0.394531 0 0.390625 -0.015625 0.390625 -0.046875 C 0.390625 -0.0859375 0.394531 -0.109375 0.40625 -0.109375 C 0.65625 -0.109375 0.835938 -0.125 0.953125 -0.15625 C 1.066406 -0.195312 1.144531 -0.265625 1.1875 -0.359375 C 1.226562 -0.453125 1.25 -0.597656 1.25 -0.796875 L 1.25 -5.296875 C 1.25 -5.492188 1.226562 -5.640625 1.1875 -5.734375 C 1.144531 -5.828125 1.066406 -5.890625 0.953125 -5.921875 C 0.847656 -5.960938 0.671875 -5.984375 0.421875 -5.984375 C 0.410156 -5.984375 0.40625 -6 0.40625 -6.03125 C 0.40625 -6.070312 0.410156 -6.09375 0.421875 -6.09375 L 4.546875 -6.09375 C 4.609375 -6.09375 4.640625 -6.0625 4.640625 -6 L 4.65625 -4.734375 C 4.65625 -4.710938 4.632812 -4.703125 4.59375 -4.703125 C 4.5625 -4.703125 4.546875 -4.710938 4.546875 -4.734375 C 4.515625 -5.097656 4.398438 -5.378906 4.203125 -5.578125 C 4.015625 -5.785156 3.765625 -5.890625 3.453125 -5.890625 L 2.6875 -5.890625 C 2.457031 -5.890625 2.285156 -5.875 2.171875 -5.84375 C 2.066406 -5.8125 1.992188 -5.75 1.953125 -5.65625 C 1.910156 -5.570312 1.890625 -5.453125 1.890625 -5.296875 L 1.890625 -0.828125 C 1.890625 -0.617188 1.914062 -0.46875 1.96875 -0.375 C 2.03125 -0.28125 2.140625 -0.210938 2.296875 -0.171875 C 2.460938 -0.128906 2.722656 -0.109375 3.078125 -0.109375 C 3.085938 -0.109375 3.09375 -0.0859375 3.09375 -0.046875 C 3.09375 -0.015625 3.085938 0 3.078125 0 C 2.804688 0 2.597656 -0.00390625 2.453125 -0.015625 L 0.90625 -0.015625 C 0.789062 -0.00390625 0.625 0 0.40625 0 Z M 0.40625 0 "></path></g></g></g><g fill="#000000" fill-opacity="1"><g transform="translate(121.918645, 7.826948)"><g><path d="M 3 -3.4375 C 3.613281 -3.4375 4.09375 -3.3125 4.4375 -3.0625 C 4.78125 -2.820312 4.953125 -2.414062 4.953125 -1.84375 C 4.953125 -1.46875 4.867188 -1.132812 4.703125 -0.84375 C 4.535156 -0.5625 4.300781 -0.34375 4 -0.1875 C 3.707031 -0.0390625 3.367188 0.03125 2.984375 0.03125 C 2.816406 0.03125 2.613281 0.0234375 2.375 0.015625 C 2.289062 0.00390625 2.175781 0 2.03125 0 C 1.894531 -0.0078125 1.738281 -0.015625 1.5625 -0.015625 L 0.921875 -0.015625 C 0.796875 -0.00390625 0.628906 0 0.421875 0 C 0.410156 0 0.40625 -0.015625 0.40625 -0.046875 C 0.40625 -0.0859375 0.410156 -0.109375 0.421875 -0.109375 C 0.671875 -0.117188 0.851562 -0.140625 0.96875 -0.171875 C 1.082031 -0.203125 1.160156 -0.265625 1.203125 -0.359375 C 1.242188 -0.453125 1.265625 -0.597656 1.265625 -0.796875 L 1.265625 -5.296875 C 1.265625 -5.492188 1.242188 -5.640625 1.203125 -5.734375 C 1.171875 -5.828125 1.097656 -5.890625 0.984375 -5.921875 C 0.867188 -5.953125 0.6875 -5.972656 0.4375 -5.984375 C 0.414062 -5.984375 0.40625 -6 0.40625 -6.03125 C 0.40625 -6.070312 0.414062 -6.09375 0.4375 -6.09375 L 0.90625 -6.078125 C 1.164062 -6.066406 1.382812 -6.0625 1.5625 -6.0625 C 1.757812 -6.0625 2 -6.066406 2.28125 -6.078125 L 2.765625 -6.09375 C 2.773438 -6.09375 2.78125 -6.070312 2.78125 -6.03125 C 2.78125 -6 2.773438 -5.984375 2.765625 -5.984375 C 2.503906 -5.972656 2.316406 -5.953125 2.203125 -5.921875 C 2.085938 -5.890625 2.007812 -5.828125 1.96875 -5.734375 C 1.925781 -5.640625 1.90625 -5.488281 1.90625 -5.28125 L 1.90625 -3.328125 C 2.269531 -3.398438 2.632812 -3.4375 3 -3.4375 Z M 7.828125 -0.109375 C 7.847656 -0.109375 7.859375 -0.0859375 7.859375 -0.046875 C 7.859375 -0.015625 7.847656 0 7.828125 0 C 7.628906 0 7.472656 -0.00390625 7.359375 -0.015625 L 6 -0.015625 C 5.882812 -0.00390625 5.722656 0 5.515625 0 C 5.492188 0 5.484375 -0.015625 5.484375 -0.046875 C 5.484375 -0.0859375 5.492188 -0.109375 5.515625 -0.109375 C 5.765625 -0.109375 5.945312 -0.125 6.0625 -0.15625 C 6.175781 -0.195312 6.253906 -0.265625 6.296875 -0.359375 C 6.335938 -0.453125 6.359375 -0.597656 6.359375 -0.796875 L 6.359375 -5.296875 C 6.359375 -5.492188 6.335938 -5.640625 6.296875 -5.734375 C 6.253906 -5.828125 6.175781 -5.890625 6.0625 -5.921875 C 5.945312 -5.960938 5.765625 -5.984375 5.515625 -5.984375 C 5.492188 -5.984375 5.484375 -6 5.484375 -6.03125 C 5.484375 -6.070312 5.492188 -6.09375 5.515625 -6.09375 L 6 -6.078125 C 6.269531 -6.066406 6.492188 -6.0625 6.671875 -6.0625 C 6.867188 -6.0625 7.101562 -6.066406 7.375 -6.078125 L 7.828125 -6.09375 C 7.847656 -6.09375 7.859375 -6.070312 7.859375 -6.03125 C 7.859375 -6 7.847656 -5.984375 7.828125 -5.984375 C 7.585938 -5.984375 7.410156 -5.960938 7.296875 -5.921875 C 7.179688 -5.878906 7.101562 -5.8125 7.0625 -5.71875 C 7.019531 -5.625 7 -5.476562 7 -5.28125 L 7 -0.796875 C 7 -0.597656 7.019531 -0.453125 7.0625 -0.359375 C 7.101562 -0.265625 7.175781 -0.195312 7.28125 -0.15625 C 7.394531 -0.125 7.578125 -0.109375 7.828125 -0.109375 Z M 2.78125 -0.140625 C 3.3125 -0.140625 3.691406 -0.253906 3.921875 -0.484375 C 4.148438 -0.722656 4.265625 -1.097656 4.265625 -1.609375 C 4.265625 -2.191406 4.132812 -2.609375 3.875 -2.859375 C 3.613281 -3.117188 3.238281 -3.25 2.75 -3.25 C 2.5 -3.25 2.21875 -3.21875 1.90625 -3.15625 L 1.90625 -0.796875 C 1.90625 -0.566406 1.960938 -0.398438 2.078125 -0.296875 C 2.191406 -0.191406 2.425781 -0.140625 2.78125 -0.140625 Z M 2.78125 -0.140625 "></path></g></g></g><g fill="#000000" fill-opacity="1"><g transform="translate(130.210504, 7.826948)"><g></g></g></g><g fill="#000000" fill-opacity="1"><g transform="translate(132.490527, 7.826948)"><g><path d="M 6.3125 -0.109375 C 6.332031 -0.109375 6.34375 -0.0859375 6.34375 -0.046875 C 6.34375 -0.015625 6.332031 0 6.3125 0 L 5.09375 0 C 5 0 4.914062 -0.0195312 4.84375 -0.0625 C 4.78125 -0.113281 4.671875 -0.242188 4.515625 -0.453125 C 4.359375 -0.660156 4.078125 -1.054688 3.671875 -1.640625 C 3.359375 -2.097656 3.128906 -2.410156 2.984375 -2.578125 C 2.835938 -2.753906 2.691406 -2.878906 2.546875 -2.953125 C 2.398438 -3.035156 2.195312 -3.078125 1.9375 -3.078125 C 1.882812 -3.078125 1.84375 -3.070312 1.8125 -3.0625 L 1.8125 -0.796875 C 1.8125 -0.597656 1.832031 -0.453125 1.875 -0.359375 C 1.914062 -0.265625 1.992188 -0.195312 2.109375 -0.15625 C 2.222656 -0.125 2.40625 -0.109375 2.65625 -0.109375 C 2.675781 -0.109375 2.6875 -0.0859375 2.6875 -0.046875 C 2.6875 -0.015625 2.675781 0 2.65625 0 C 2.457031 0 2.300781 -0.00390625 2.1875 -0.015625 L 0.8125 -0.015625 C 0.695312 -0.00390625 0.535156 0 0.328125 0 C 0.316406 0 0.3125 -0.015625 0.3125 -0.046875 C 0.3125 -0.0859375 0.316406 -0.109375 0.328125 -0.109375 C 0.578125 -0.109375 0.757812 -0.125 0.875 -0.15625 C 0.988281 -0.195312 1.066406 -0.265625 1.109375 -0.359375 C 1.160156 -0.453125 1.1875 -0.597656 1.1875 -0.796875 L 1.1875 -5.296875 C 1.1875 -5.492188 1.160156 -5.640625 1.109375 -5.734375 C 1.066406 -5.828125 0.988281 -5.890625 0.875 -5.921875 C 0.769531 -5.960938 0.59375 -5.984375 0.34375 -5.984375 C 0.332031 -5.984375 0.328125 -6 0.328125 -6.03125 C 0.328125 -6.070312 0.332031 -6.09375 0.34375 -6.09375 L 0.8125 -6.078125 C 1.09375 -6.066406 1.316406 -6.0625 1.484375 -6.0625 C 1.671875 -6.0625 1.90625 -6.066406 2.1875 -6.078125 L 2.65625 -6.09375 C 2.675781 -6.09375 2.6875 -6.070312 2.6875 -6.03125 C 2.6875 -6 2.675781 -5.984375 2.65625 -5.984375 C 2.414062 -5.984375 2.234375 -5.960938 2.109375 -5.921875 C 1.992188 -5.878906 1.914062 -5.8125 1.875 -5.71875 C 1.832031 -5.625 1.8125 -5.476562 1.8125 -5.28125 L 1.8125 -3.234375 C 2.164062 -3.242188 2.382812 -3.25 2.46875 -3.25 L 2.65625 -3.25 L 3.828125 -4.890625 C 4.117188 -5.296875 4.265625 -5.578125 4.265625 -5.734375 C 4.265625 -5.816406 4.222656 -5.878906 4.140625 -5.921875 C 4.066406 -5.960938 3.941406 -5.984375 3.765625 -5.984375 C 3.753906 -5.984375 3.75 -6 3.75 -6.03125 C 3.75 -6.070312 3.753906 -6.09375 3.765625 -6.09375 L 4.1875 -6.078125 C 4.4375 -6.066406 4.671875 -6.0625 4.890625 -6.0625 C 5.109375 -6.0625 5.332031 -6.066406 5.5625 -6.078125 L 5.921875 -6.09375 C 5.941406 -6.09375 5.953125 -6.070312 5.953125 -6.03125 C 5.953125 -6 5.941406 -5.984375 5.921875 -5.984375 C 5.578125 -5.984375 5.273438 -5.898438 5.015625 -5.734375 C 4.753906 -5.566406 4.476562 -5.285156 4.1875 -4.890625 L 2.875 -3.21875 C 3.039062 -3.1875 3.1875 -3.125 3.3125 -3.03125 C 3.4375 -2.945312 3.554688 -2.828125 3.671875 -2.671875 C 3.785156 -2.523438 3.992188 -2.242188 4.296875 -1.828125 C 4.597656 -1.398438 4.84375 -1.070312 5.03125 -0.84375 C 5.21875 -0.613281 5.414062 -0.4375 5.625 -0.3125 C 5.832031 -0.1875 6.0625 -0.117188 6.3125 -0.109375 Z M 6.3125 -0.109375 "></path></g></g></g><g fill="#000000" fill-opacity="1"><g transform="translate(138.892125, 7.826948)"><g><path d="M 6.8125 -0.109375 C 6.84375 -0.109375 6.859375 -0.0859375 6.859375 -0.046875 C 6.859375 -0.015625 6.84375 0 6.8125 0 C 6.6875 0 6.492188 -0.00390625 6.234375 -0.015625 C 5.972656 -0.0234375 5.785156 -0.03125 5.671875 -0.03125 C 5.523438 -0.03125 5.34375 -0.0234375 5.125 -0.015625 C 4.914062 -0.00390625 4.757812 0 4.65625 0 C 4.625 0 4.609375 -0.015625 4.609375 -0.046875 C 4.609375 -0.0859375 4.625 -0.109375 4.65625 -0.109375 C 4.894531 -0.109375 5.066406 -0.128906 5.171875 -0.171875 C 5.285156 -0.222656 5.34375 -0.304688 5.34375 -0.421875 C 5.34375 -0.515625 5.300781 -0.65625 5.21875 -0.84375 L 4.34375 -2.6875 L 2.03125 -2.6875 L 1.40625 -1.234375 C 1.320312 -1.015625 1.28125 -0.835938 1.28125 -0.703125 C 1.28125 -0.503906 1.359375 -0.351562 1.515625 -0.25 C 1.671875 -0.15625 1.910156 -0.109375 2.234375 -0.109375 C 2.265625 -0.109375 2.28125 -0.0859375 2.28125 -0.046875 C 2.28125 -0.015625 2.265625 0 2.234375 0 C 2.117188 0 1.945312 -0.00390625 1.71875 -0.015625 C 1.476562 -0.0234375 1.265625 -0.03125 1.078125 -0.03125 C 0.910156 -0.03125 0.71875 -0.0234375 0.5 -0.015625 C 0.300781 -0.00390625 0.140625 0 0.015625 0 C -0.015625 0 -0.03125 -0.015625 -0.03125 -0.046875 C -0.03125 -0.0859375 -0.015625 -0.109375 0.015625 -0.109375 C 0.191406 -0.109375 0.34375 -0.144531 0.46875 -0.21875 C 0.59375 -0.289062 0.710938 -0.410156 0.828125 -0.578125 C 0.941406 -0.753906 1.066406 -1.003906 1.203125 -1.328125 L 3.265625 -6.1875 C 3.273438 -6.195312 3.296875 -6.203125 3.328125 -6.203125 C 3.367188 -6.203125 3.390625 -6.195312 3.390625 -6.1875 L 5.6875 -1.328125 C 5.914062 -0.847656 6.109375 -0.523438 6.265625 -0.359375 C 6.421875 -0.191406 6.601562 -0.109375 6.8125 -0.109375 Z M 2.109375 -2.875 L 4.265625 -2.875 L 3.125 -5.28125 Z M 2.109375 -2.875 "></path></g></g></g><g fill="#000000" fill-opacity="1"><g transform="translate(145.732175, 7.826948)"><g><path d="M 1.875 -0.828125 C 1.875 -0.617188 1.898438 -0.46875 1.953125 -0.375 C 2.003906 -0.28125 2.109375 -0.210938 2.265625 -0.171875 C 2.429688 -0.128906 2.6875 -0.109375 3.03125 -0.109375 C 3.050781 -0.109375 3.0625 -0.0859375 3.0625 -0.046875 C 3.0625 -0.015625 3.050781 0 3.03125 0 C 2.757812 0 2.550781 -0.00390625 2.40625 -0.015625 L 0.90625 -0.015625 C 0.78125 -0.00390625 0.613281 0 0.40625 0 C 0.394531 0 0.390625 -0.015625 0.390625 -0.046875 C 0.390625 -0.0859375 0.394531 -0.109375 0.40625 -0.109375 C 0.65625 -0.109375 0.835938 -0.125 0.953125 -0.15625 C 1.066406 -0.195312 1.140625 -0.265625 1.171875 -0.359375 C 1.210938 -0.453125 1.234375 -0.597656 1.234375 -0.796875 L 1.234375 -5.296875 C 1.234375 -5.492188 1.210938 -5.640625 1.171875 -5.734375 C 1.140625 -5.828125 1.066406 -5.890625 0.953125 -5.921875 C 0.835938 -5.960938 0.65625 -5.984375 0.40625 -5.984375 C 0.394531 -5.984375 0.390625 -6 0.390625 -6.03125 C 0.390625 -6.070312 0.394531 -6.09375 0.40625 -6.09375 L 0.890625 -6.078125 C 1.171875 -6.066406 1.390625 -6.0625 1.546875 -6.0625 C 1.710938 -6.0625 1.894531 -6.070312 2.09375 -6.09375 C 2.175781 -6.09375 2.300781 -6.097656 2.46875 -6.109375 C 2.632812 -6.117188 2.78125 -6.125 2.90625 -6.125 C 3.5 -6.125 3.976562 -5.988281 4.34375 -5.71875 C 4.707031 -5.457031 4.890625 -5.050781 4.890625 -4.5 C 4.890625 -4.070312 4.78125 -3.710938 4.5625 -3.421875 C 4.351562 -3.128906 4.082031 -2.910156 3.75 -2.765625 C 3.425781 -2.617188 3.085938 -2.546875 2.734375 -2.546875 C 2.546875 -2.546875 2.390625 -2.566406 2.265625 -2.609375 C 2.242188 -2.609375 2.234375 -2.625 2.234375 -2.65625 C 2.234375 -2.675781 2.238281 -2.691406 2.25 -2.703125 C 2.257812 -2.722656 2.269531 -2.734375 2.28125 -2.734375 C 2.382812 -2.703125 2.5 -2.6875 2.625 -2.6875 C 3.0625 -2.6875 3.425781 -2.828125 3.71875 -3.109375 C 4.007812 -3.390625 4.15625 -3.789062 4.15625 -4.3125 C 4.15625 -4.832031 4.015625 -5.238281 3.734375 -5.53125 C 3.460938 -5.832031 3.109375 -5.984375 2.671875 -5.984375 C 2.441406 -5.984375 2.273438 -5.96875 2.171875 -5.9375 C 2.066406 -5.914062 1.988281 -5.851562 1.9375 -5.75 C 1.894531 -5.65625 1.875 -5.5 1.875 -5.28125 Z M 1.875 -0.828125 "></path></g></g></g><g fill="#000000" fill-opacity="1"><g transform="translate(151.022994, 7.826948)"><g><path d="M 1.84375 -5.921875 C 1.4375 -5.921875 1.128906 -5.816406 0.921875 -5.609375 C 0.710938 -5.398438 0.566406 -5.046875 0.484375 -4.546875 C 0.484375 -4.535156 0.460938 -4.53125 0.421875 -4.53125 C 0.390625 -4.53125 0.375 -4.535156 0.375 -4.546875 C 0.394531 -4.773438 0.421875 -5.078125 0.453125 -5.453125 C 0.484375 -5.835938 0.5 -6.125 0.5 -6.3125 C 0.5 -6.34375 0.515625 -6.359375 0.546875 -6.359375 C 0.585938 -6.359375 0.609375 -6.34375 0.609375 -6.3125 C 0.609375 -6.164062 0.785156 -6.09375 1.140625 -6.09375 C 1.691406 -6.070312 2.34375 -6.0625 3.09375 -6.0625 C 3.476562 -6.0625 3.882812 -6.066406 4.3125 -6.078125 L 4.984375 -6.09375 C 5.210938 -6.09375 5.382812 -6.109375 5.5 -6.140625 C 5.613281 -6.171875 5.6875 -6.238281 5.71875 -6.34375 C 5.726562 -6.363281 5.75 -6.375 5.78125 -6.375 C 5.8125 -6.375 5.828125 -6.363281 5.828125 -6.34375 C 5.804688 -6.144531 5.785156 -5.851562 5.765625 -5.46875 C 5.753906 -5.09375 5.75 -4.785156 5.75 -4.546875 C 5.75 -4.535156 5.726562 -4.53125 5.6875 -4.53125 C 5.644531 -4.53125 5.625 -4.535156 5.625 -4.546875 C 5.601562 -5.046875 5.5 -5.398438 5.3125 -5.609375 C 5.125 -5.816406 4.8125 -5.921875 4.375 -5.921875 C 4.082031 -5.921875 3.875 -5.90625 3.75 -5.875 C 3.625 -5.851562 3.539062 -5.800781 3.5 -5.71875 C 3.457031 -5.632812 3.4375 -5.488281 3.4375 -5.28125 L 3.4375 -0.796875 C 3.4375 -0.585938 3.457031 -0.4375 3.5 -0.34375 C 3.539062 -0.257812 3.625 -0.195312 3.75 -0.15625 C 3.882812 -0.125 4.09375 -0.109375 4.375 -0.109375 C 4.394531 -0.109375 4.40625 -0.0859375 4.40625 -0.046875 C 4.40625 -0.015625 4.394531 0 4.375 0 C 4.164062 0 3.992188 -0.00390625 3.859375 -0.015625 L 2.375 -0.015625 C 2.238281 -0.00390625 2.054688 0 1.828125 0 C 1.816406 0 1.8125 -0.015625 1.8125 -0.046875 C 1.8125 -0.0859375 1.816406 -0.109375 1.828125 -0.109375 C 2.109375 -0.109375 2.3125 -0.125 2.4375 -0.15625 C 2.570312 -0.195312 2.660156 -0.265625 2.703125 -0.359375 C 2.753906 -0.453125 2.78125 -0.597656 2.78125 -0.796875 L 2.78125 -5.296875 C 2.78125 -5.503906 2.757812 -5.644531 2.71875 -5.71875 C 2.675781 -5.800781 2.59375 -5.851562 2.46875 -5.875 C 2.34375 -5.90625 2.132812 -5.921875 1.84375 -5.921875 Z M 1.84375 -5.921875 "></path></g></g></g><g fill="#000000" fill-opacity="1"><g transform="translate(156.518414, 7.826948)"><g><path d="M 6.8125 -0.109375 C 6.84375 -0.109375 6.859375 -0.0859375 6.859375 -0.046875 C 6.859375 -0.015625 6.84375 0 6.8125 0 C 6.6875 0 6.492188 -0.00390625 6.234375 -0.015625 C 5.972656 -0.0234375 5.785156 -0.03125 5.671875 -0.03125 C 5.523438 -0.03125 5.34375 -0.0234375 5.125 -0.015625 C 4.914062 -0.00390625 4.757812 0 4.65625 0 C 4.625 0 4.609375 -0.015625 4.609375 -0.046875 C 4.609375 -0.0859375 4.625 -0.109375 4.65625 -0.109375 C 4.894531 -0.109375 5.066406 -0.128906 5.171875 -0.171875 C 5.285156 -0.222656 5.34375 -0.304688 5.34375 -0.421875 C 5.34375 -0.515625 5.300781 -0.65625 5.21875 -0.84375 L 4.34375 -2.6875 L 2.03125 -2.6875 L 1.40625 -1.234375 C 1.320312 -1.015625 1.28125 -0.835938 1.28125 -0.703125 C 1.28125 -0.503906 1.359375 -0.351562 1.515625 -0.25 C 1.671875 -0.15625 1.910156 -0.109375 2.234375 -0.109375 C 2.265625 -0.109375 2.28125 -0.0859375 2.28125 -0.046875 C 2.28125 -0.015625 2.265625 0 2.234375 0 C 2.117188 0 1.945312 -0.00390625 1.71875 -0.015625 C 1.476562 -0.0234375 1.265625 -0.03125 1.078125 -0.03125 C 0.910156 -0.03125 0.71875 -0.0234375 0.5 -0.015625 C 0.300781 -0.00390625 0.140625 0 0.015625 0 C -0.015625 0 -0.03125 -0.015625 -0.03125 -0.046875 C -0.03125 -0.0859375 -0.015625 -0.109375 0.015625 -0.109375 C 0.191406 -0.109375 0.34375 -0.144531 0.46875 -0.21875 C 0.59375 -0.289062 0.710938 -0.410156 0.828125 -0.578125 C 0.941406 -0.753906 1.066406 -1.003906 1.203125 -1.328125 L 3.265625 -6.1875 C 3.273438 -6.195312 3.296875 -6.203125 3.328125 -6.203125 C 3.367188 -6.203125 3.390625 -6.195312 3.390625 -6.1875 L 5.6875 -1.328125 C 5.914062 -0.847656 6.109375 -0.523438 6.265625 -0.359375 C 6.421875 -0.191406 6.601562 -0.109375 6.8125 -0.109375 Z M 2.109375 -2.875 L 4.265625 -2.875 L 3.125 -5.28125 Z M 2.109375 -2.875 "></path></g></g></g><g fill="#000000" fill-opacity="1"><g transform="translate(163.358465, 7.826948)"><g><path d="M 6.8125 -0.109375 C 6.84375 -0.109375 6.859375 -0.0859375 6.859375 -0.046875 C 6.859375 -0.015625 6.84375 0 6.8125 0 C 6.6875 0 6.492188 -0.00390625 6.234375 -0.015625 C 5.972656 -0.0234375 5.785156 -0.03125 5.671875 -0.03125 C 5.523438 -0.03125 5.34375 -0.0234375 5.125 -0.015625 C 4.914062 -0.00390625 4.757812 0 4.65625 0 C 4.625 0 4.609375 -0.015625 4.609375 -0.046875 C 4.609375 -0.0859375 4.625 -0.109375 4.65625 -0.109375 C 4.894531 -0.109375 5.066406 -0.128906 5.171875 -0.171875 C 5.285156 -0.222656 5.34375 -0.304688 5.34375 -0.421875 C 5.34375 -0.515625 5.300781 -0.65625 5.21875 -0.84375 L 3.125 -5.28125 L 1.40625 -1.234375 C 1.320312 -1.015625 1.28125 -0.835938 1.28125 -0.703125 C 1.28125 -0.503906 1.359375 -0.351562 1.515625 -0.25 C 1.671875 -0.15625 1.910156 -0.109375 2.234375 -0.109375 C 2.265625 -0.109375 2.28125 -0.0859375 2.28125 -0.046875 C 2.28125 -0.015625 2.265625 0 2.234375 0 C 2.117188 0 1.945312 -0.00390625 1.71875 -0.015625 C 1.476562 -0.0234375 1.265625 -0.03125 1.078125 -0.03125 C 0.910156 -0.03125 0.71875 -0.0234375 0.5 -0.015625 C 0.300781 -0.00390625 0.140625 0 0.015625 0 C -0.015625 0 -0.03125 -0.015625 -0.03125 -0.046875 C -0.03125 -0.0859375 -0.015625 -0.109375 0.015625 -0.109375 C 0.191406 -0.109375 0.34375 -0.144531 0.46875 -0.21875 C 0.59375 -0.289062 0.710938 -0.410156 0.828125 -0.578125 C 0.941406 -0.753906 1.066406 -1.003906 1.203125 -1.328125 L 3.265625 -6.1875 C 3.273438 -6.195312 3.296875 -6.203125 3.328125 -6.203125 C 3.367188 -6.203125 3.390625 -6.195312 3.390625 -6.1875 L 5.6875 -1.328125 C 5.914062 -0.847656 6.109375 -0.523438 6.265625 -0.359375 C 6.421875 -0.191406 6.601562 -0.109375 6.8125 -0.109375 Z M 6.8125 -0.109375 "></path></g></g></g><g fill="#000000" fill-opacity="1"><g transform="translate(170.198515, 7.826948)"><g><path d="M 6.8125 -0.109375 C 6.84375 -0.109375 6.859375 -0.0859375 6.859375 -0.046875 C 6.859375 -0.015625 6.84375 0 6.8125 0 C 6.6875 0 6.492188 -0.00390625 6.234375 -0.015625 C 5.972656 -0.0234375 5.785156 -0.03125 5.671875 -0.03125 C 5.523438 -0.03125 5.34375 -0.0234375 5.125 -0.015625 C 4.914062 -0.00390625 4.757812 0 4.65625 0 C 4.625 0 4.609375 -0.015625 4.609375 -0.046875 C 4.609375 -0.0859375 4.625 -0.109375 4.65625 -0.109375 C 4.894531 -0.109375 5.066406 -0.128906 5.171875 -0.171875 C 5.285156 -0.222656 5.34375 -0.304688 5.34375 -0.421875 C 5.34375 -0.515625 5.300781 -0.65625 5.21875 -0.84375 L 4.34375 -2.6875 L 2.03125 -2.6875 L 1.40625 -1.234375 C 1.320312 -1.015625 1.28125 -0.835938 1.28125 -0.703125 C 1.28125 -0.503906 1.359375 -0.351562 1.515625 -0.25 C 1.671875 -0.15625 1.910156 -0.109375 2.234375 -0.109375 C 2.265625 -0.109375 2.28125 -0.0859375 2.28125 -0.046875 C 2.28125 -0.015625 2.265625 0 2.234375 0 C 2.117188 0 1.945312 -0.00390625 1.71875 -0.015625 C 1.476562 -0.0234375 1.265625 -0.03125 1.078125 -0.03125 C 0.910156 -0.03125 0.71875 -0.0234375 0.5 -0.015625 C 0.300781 -0.00390625 0.140625 0 0.015625 0 C -0.015625 0 -0.03125 -0.015625 -0.03125 -0.046875 C -0.03125 -0.0859375 -0.015625 -0.109375 0.015625 -0.109375 C 0.191406 -0.109375 0.34375 -0.144531 0.46875 -0.21875 C 0.59375 -0.289062 0.710938 -0.410156 0.828125 -0.578125 C 0.941406 -0.753906 1.066406 -1.003906 1.203125 -1.328125 L 3.265625 -6.1875 C 3.273438 -6.195312 3.296875 -6.203125 3.328125 -6.203125 C 3.367188 -6.203125 3.390625 -6.195312 3.390625 -6.1875 L 5.6875 -1.328125 C 5.914062 -0.847656 6.109375 -0.523438 6.265625 -0.359375 C 6.421875 -0.191406 6.601562 -0.109375 6.8125 -0.109375 Z M 2.109375 -2.875 L 4.265625 -2.875 L 3.125 -5.28125 Z M 2.109375 -2.875 "></path></g></g></g><g fill="#000000" fill-opacity="1"><g transform="translate(177.038565, 7.826948)"><g><path d="M 1.875 -0.828125 C 1.875 -0.617188 1.898438 -0.46875 1.953125 -0.375 C 2.003906 -0.28125 2.109375 -0.210938 2.265625 -0.171875 C 2.429688 -0.128906 2.6875 -0.109375 3.03125 -0.109375 C 3.050781 -0.109375 3.0625 -0.0859375 3.0625 -0.046875 C 3.0625 -0.015625 3.050781 0 3.03125 0 C 2.757812 0 2.550781 -0.00390625 2.40625 -0.015625 L 0.90625 -0.015625 C 0.78125 -0.00390625 0.613281 0 0.40625 0 C 0.394531 0 0.390625 -0.015625 0.390625 -0.046875 C 0.390625 -0.0859375 0.394531 -0.109375 0.40625 -0.109375 C 0.65625 -0.109375 0.835938 -0.125 0.953125 -0.15625 C 1.066406 -0.195312 1.140625 -0.265625 1.171875 -0.359375 C 1.210938 -0.453125 1.234375 -0.597656 1.234375 -0.796875 L 1.234375 -5.296875 C 1.234375 -5.492188 1.210938 -5.640625 1.171875 -5.734375 C 1.140625 -5.828125 1.066406 -5.890625 0.953125 -5.921875 C 0.835938 -5.960938 0.65625 -5.984375 0.40625 -5.984375 C 0.394531 -5.984375 0.390625 -6 0.390625 -6.03125 C 0.390625 -6.070312 0.394531 -6.09375 0.40625 -6.09375 L 0.890625 -6.078125 C 1.171875 -6.066406 1.390625 -6.0625 1.546875 -6.0625 C 1.710938 -6.0625 1.894531 -6.070312 2.09375 -6.09375 C 2.175781 -6.09375 2.300781 -6.097656 2.46875 -6.109375 C 2.632812 -6.117188 2.78125 -6.125 2.90625 -6.125 C 3.5 -6.125 3.976562 -5.988281 4.34375 -5.71875 C 4.707031 -5.457031 4.890625 -5.050781 4.890625 -4.5 C 4.890625 -4.070312 4.78125 -3.710938 4.5625 -3.421875 C 4.351562 -3.128906 4.082031 -2.910156 3.75 -2.765625 C 3.425781 -2.617188 3.085938 -2.546875 2.734375 -2.546875 C 2.546875 -2.546875 2.390625 -2.566406 2.265625 -2.609375 C 2.242188 -2.609375 2.234375 -2.625 2.234375 -2.65625 C 2.234375 -2.675781 2.238281 -2.691406 2.25 -2.703125 C 2.257812 -2.722656 2.269531 -2.734375 2.28125 -2.734375 C 2.382812 -2.703125 2.5 -2.6875 2.625 -2.6875 C 3.0625 -2.6875 3.425781 -2.828125 3.71875 -3.109375 C 4.007812 -3.390625 4.15625 -3.789062 4.15625 -4.3125 C 4.15625 -4.832031 4.015625 -5.238281 3.734375 -5.53125 C 3.460938 -5.832031 3.109375 -5.984375 2.671875 -5.984375 C 2.441406 -5.984375 2.273438 -5.96875 2.171875 -5.9375 C 2.066406 -5.914062 1.988281 -5.851562 1.9375 -5.75 C 1.894531 -5.65625 1.875 -5.5 1.875 -5.28125 Z M 1.875 -0.828125 "></path></g></g></g><g fill="#000000" fill-opacity="1"><g transform="translate(181.890913, 7.826948)"><g><path d="M 6.546875 -0.21875 C 6.597656 -0.21875 6.628906 -0.210938 6.640625 -0.203125 C 6.648438 -0.191406 6.65625 -0.160156 6.65625 -0.109375 C 6.65625 -0.078125 6.648438 0.00390625 6.640625 0.140625 C 6.597656 0.503906 6.578125 0.957031 6.578125 1.5 C 6.578125 1.53125 6.554688 1.546875 6.515625 1.546875 C 6.472656 1.546875 6.453125 1.53125 6.453125 1.5 C 6.453125 0.976562 6.320312 0.597656 6.0625 0.359375 C 5.8125 0.117188 5.398438 0 4.828125 0 L 1.859375 0 C 0.941406 0 0.484375 0.5 0.484375 1.5 C 0.484375 1.53125 0.460938 1.546875 0.421875 1.546875 C 0.390625 1.546875 0.375 1.53125 0.375 1.5 C 0.375 0.976562 0.347656 0.5625 0.296875 0.25 C 0.273438 0.125 0.265625 0.00390625 0.265625 -0.109375 C 0.265625 -0.160156 0.269531 -0.191406 0.28125 -0.203125 C 0.289062 -0.210938 0.320312 -0.21875 0.375 -0.21875 L 0.984375 -0.21875 L 3.421875 -6.1875 C 3.429688 -6.195312 3.453125 -6.203125 3.484375 -6.203125 C 3.523438 -6.203125 3.546875 -6.195312 3.546875 -6.1875 L 6.03125 -0.21875 Z M 1.234375 -0.21875 L 5.34375 -0.21875 L 3.28125 -5.21875 Z M 1.234375 -0.21875 "></path></g></g></g><g fill="#000000" fill-opacity="1"><g transform="translate(188.808927, 7.826948)"><g><path d="M 3 -3.4375 C 3.613281 -3.4375 4.09375 -3.3125 4.4375 -3.0625 C 4.78125 -2.820312 4.953125 -2.414062 4.953125 -1.84375 C 4.953125 -1.46875 4.867188 -1.132812 4.703125 -0.84375 C 4.535156 -0.5625 4.300781 -0.34375 4 -0.1875 C 3.707031 -0.0390625 3.367188 0.03125 2.984375 0.03125 C 2.816406 0.03125 2.613281 0.0234375 2.375 0.015625 C 2.289062 0.00390625 2.175781 0 2.03125 0 C 1.894531 -0.0078125 1.738281 -0.015625 1.5625 -0.015625 L 0.921875 -0.015625 C 0.796875 -0.00390625 0.628906 0 0.421875 0 C 0.410156 0 0.40625 -0.015625 0.40625 -0.046875 C 0.40625 -0.0859375 0.410156 -0.109375 0.421875 -0.109375 C 0.671875 -0.117188 0.851562 -0.140625 0.96875 -0.171875 C 1.082031 -0.203125 1.160156 -0.265625 1.203125 -0.359375 C 1.242188 -0.453125 1.265625 -0.597656 1.265625 -0.796875 L 1.265625 -5.296875 C 1.265625 -5.492188 1.242188 -5.640625 1.203125 -5.734375 C 1.171875 -5.828125 1.097656 -5.890625 0.984375 -5.921875 C 0.867188 -5.953125 0.6875 -5.972656 0.4375 -5.984375 C 0.414062 -5.984375 0.40625 -6 0.40625 -6.03125 C 0.40625 -6.070312 0.414062 -6.09375 0.4375 -6.09375 L 0.90625 -6.078125 C 1.164062 -6.066406 1.382812 -6.0625 1.5625 -6.0625 C 1.757812 -6.0625 2 -6.066406 2.28125 -6.078125 L 2.765625 -6.09375 C 2.773438 -6.09375 2.78125 -6.070312 2.78125 -6.03125 C 2.78125 -6 2.773438 -5.984375 2.765625 -5.984375 C 2.503906 -5.972656 2.316406 -5.953125 2.203125 -5.921875 C 2.085938 -5.890625 2.007812 -5.828125 1.96875 -5.734375 C 1.925781 -5.640625 1.90625 -5.488281 1.90625 -5.28125 L 1.90625 -3.328125 C 2.269531 -3.398438 2.632812 -3.4375 3 -3.4375 Z M 7.828125 -0.109375 C 7.847656 -0.109375 7.859375 -0.0859375 7.859375 -0.046875 C 7.859375 -0.015625 7.847656 0 7.828125 0 C 7.628906 0 7.472656 -0.00390625 7.359375 -0.015625 L 6 -0.015625 C 5.882812 -0.00390625 5.722656 0 5.515625 0 C 5.492188 0 5.484375 -0.015625 5.484375 -0.046875 C 5.484375 -0.0859375 5.492188 -0.109375 5.515625 -0.109375 C 5.765625 -0.109375 5.945312 -0.125 6.0625 -0.15625 C 6.175781 -0.195312 6.253906 -0.265625 6.296875 -0.359375 C 6.335938 -0.453125 6.359375 -0.597656 6.359375 -0.796875 L 6.359375 -5.296875 C 6.359375 -5.492188 6.335938 -5.640625 6.296875 -5.734375 C 6.253906 -5.828125 6.175781 -5.890625 6.0625 -5.921875 C 5.945312 -5.960938 5.765625 -5.984375 5.515625 -5.984375 C 5.492188 -5.984375 5.484375 -6 5.484375 -6.03125 C 5.484375 -6.070312 5.492188 -6.09375 5.515625 -6.09375 L 6 -6.078125 C 6.269531 -6.066406 6.492188 -6.0625 6.671875 -6.0625 C 6.867188 -6.0625 7.101562 -6.066406 7.375 -6.078125 L 7.828125 -6.09375 C 7.847656 -6.09375 7.859375 -6.070312 7.859375 -6.03125 C 7.859375 -6 7.847656 -5.984375 7.828125 -5.984375 C 7.585938 -5.984375 7.410156 -5.960938 7.296875 -5.921875 C 7.179688 -5.878906 7.101562 -5.8125 7.0625 -5.71875 C 7.019531 -5.625 7 -5.476562 7 -5.28125 L 7 -0.796875 C 7 -0.597656 7.019531 -0.453125 7.0625 -0.359375 C 7.101562 -0.265625 7.175781 -0.195312 7.28125 -0.15625 C 7.394531 -0.125 7.578125 -0.109375 7.828125 -0.109375 Z M 2.78125 -0.140625 C 3.3125 -0.140625 3.691406 -0.253906 3.921875 -0.484375 C 4.148438 -0.722656 4.265625 -1.097656 4.265625 -1.609375 C 4.265625 -2.191406 4.132812 -2.609375 3.875 -2.859375 C 3.613281 -3.117188 3.238281 -3.25 2.75 -3.25 C 2.5 -3.25 2.21875 -3.21875 1.90625 -3.15625 L 1.90625 -0.796875 C 1.90625 -0.566406 1.960938 -0.398438 2.078125 -0.296875 C 2.191406 -0.191406 2.425781 -0.140625 2.78125 -0.140625 Z M 2.78125 -0.140625 "></path></g></g></g><g fill="#000000" fill-opacity="1"><g transform="translate(197.100786, 7.826948)"><g></g></g></g><g fill="#000000" fill-opacity="1"><g transform="translate(199.380809, 7.826948)"><g><path d="M 6.3125 -0.109375 C 6.332031 -0.109375 6.34375 -0.0859375 6.34375 -0.046875 C 6.34375 -0.015625 6.332031 0 6.3125 0 L 5.09375 0 C 5 0 4.914062 -0.0195312 4.84375 -0.0625 C 4.78125 -0.113281 4.671875 -0.242188 4.515625 -0.453125 C 4.359375 -0.660156 4.078125 -1.054688 3.671875 -1.640625 C 3.359375 -2.097656 3.128906 -2.410156 2.984375 -2.578125 C 2.835938 -2.753906 2.691406 -2.878906 2.546875 -2.953125 C 2.398438 -3.035156 2.195312 -3.078125 1.9375 -3.078125 C 1.882812 -3.078125 1.84375 -3.070312 1.8125 -3.0625 L 1.8125 -0.796875 C 1.8125 -0.597656 1.832031 -0.453125 1.875 -0.359375 C 1.914062 -0.265625 1.992188 -0.195312 2.109375 -0.15625 C 2.222656 -0.125 2.40625 -0.109375 2.65625 -0.109375 C 2.675781 -0.109375 2.6875 -0.0859375 2.6875 -0.046875 C 2.6875 -0.015625 2.675781 0 2.65625 0 C 2.457031 0 2.300781 -0.00390625 2.1875 -0.015625 L 0.8125 -0.015625 C 0.695312 -0.00390625 0.535156 0 0.328125 0 C 0.316406 0 0.3125 -0.015625 0.3125 -0.046875 C 0.3125 -0.0859375 0.316406 -0.109375 0.328125 -0.109375 C 0.578125 -0.109375 0.757812 -0.125 0.875 -0.15625 C 0.988281 -0.195312 1.066406 -0.265625 1.109375 -0.359375 C 1.160156 -0.453125 1.1875 -0.597656 1.1875 -0.796875 L 1.1875 -5.296875 C 1.1875 -5.492188 1.160156 -5.640625 1.109375 -5.734375 C 1.066406 -5.828125 0.988281 -5.890625 0.875 -5.921875 C 0.769531 -5.960938 0.59375 -5.984375 0.34375 -5.984375 C 0.332031 -5.984375 0.328125 -6 0.328125 -6.03125 C 0.328125 -6.070312 0.332031 -6.09375 0.34375 -6.09375 L 0.8125 -6.078125 C 1.09375 -6.066406 1.316406 -6.0625 1.484375 -6.0625 C 1.671875 -6.0625 1.90625 -6.066406 2.1875 -6.078125 L 2.65625 -6.09375 C 2.675781 -6.09375 2.6875 -6.070312 2.6875 -6.03125 C 2.6875 -6 2.675781 -5.984375 2.65625 -5.984375 C 2.414062 -5.984375 2.234375 -5.960938 2.109375 -5.921875 C 1.992188 -5.878906 1.914062 -5.8125 1.875 -5.71875 C 1.832031 -5.625 1.8125 -5.476562 1.8125 -5.28125 L 1.8125 -3.234375 C 2.164062 -3.242188 2.382812 -3.25 2.46875 -3.25 L 2.65625 -3.25 L 3.828125 -4.890625 C 4.117188 -5.296875 4.265625 -5.578125 4.265625 -5.734375 C 4.265625 -5.816406 4.222656 -5.878906 4.140625 -5.921875 C 4.066406 -5.960938 3.941406 -5.984375 3.765625 -5.984375 C 3.753906 -5.984375 3.75 -6 3.75 -6.03125 C 3.75 -6.070312 3.753906 -6.09375 3.765625 -6.09375 L 4.1875 -6.078125 C 4.4375 -6.066406 4.671875 -6.0625 4.890625 -6.0625 C 5.109375 -6.0625 5.332031 -6.066406 5.5625 -6.078125 L 5.921875 -6.09375 C 5.941406 -6.09375 5.953125 -6.070312 5.953125 -6.03125 C 5.953125 -6 5.941406 -5.984375 5.921875 -5.984375 C 5.578125 -5.984375 5.273438 -5.898438 5.015625 -5.734375 C 4.753906 -5.566406 4.476562 -5.285156 4.1875 -4.890625 L 2.875 -3.21875 C 3.039062 -3.1875 3.1875 -3.125 3.3125 -3.03125 C 3.4375 -2.945312 3.554688 -2.828125 3.671875 -2.671875 C 3.785156 -2.523438 3.992188 -2.242188 4.296875 -1.828125 C 4.597656 -1.398438 4.84375 -1.070312 5.03125 -0.84375 C 5.21875 -0.613281 5.414062 -0.4375 5.625 -0.3125 C 5.832031 -0.1875 6.0625 -0.117188 6.3125 -0.109375 Z M 6.3125 -0.109375 "></path></g></g></g><g fill="#000000" fill-opacity="1"><g transform="translate(205.441375, 7.826948)"><g><path d="M 3.5625 0.109375 C 2.957031 0.109375 2.421875 -0.03125 1.953125 -0.3125 C 1.484375 -0.59375 1.117188 -0.972656 0.859375 -1.453125 C 0.609375 -1.941406 0.484375 -2.472656 0.484375 -3.046875 C 0.484375 -3.710938 0.648438 -4.285156 0.984375 -4.765625 C 1.316406 -5.242188 1.75 -5.601562 2.28125 -5.84375 C 2.8125 -6.082031 3.351562 -6.203125 3.90625 -6.203125 C 4.53125 -6.203125 5.070312 -6.054688 5.53125 -5.765625 C 6 -5.472656 6.359375 -5.085938 6.609375 -4.609375 C 6.859375 -4.140625 6.984375 -3.640625 6.984375 -3.109375 C 6.984375 -2.515625 6.828125 -1.96875 6.515625 -1.46875 C 6.203125 -0.976562 5.785156 -0.59375 5.265625 -0.3125 C 4.742188 -0.03125 4.175781 0.109375 3.5625 0.109375 Z M 3.90625 -0.09375 C 4.351562 -0.09375 4.753906 -0.195312 5.109375 -0.40625 C 5.460938 -0.625 5.738281 -0.941406 5.9375 -1.359375 C 6.144531 -1.773438 6.25 -2.269531 6.25 -2.84375 C 6.25 -3.445312 6.132812 -3.984375 5.90625 -4.453125 C 5.675781 -4.929688 5.351562 -5.304688 4.9375 -5.578125 C 4.53125 -5.847656 4.050781 -5.984375 3.5 -5.984375 C 2.78125 -5.984375 2.21875 -5.75 1.8125 -5.28125 C 1.414062 -4.820312 1.21875 -4.191406 1.21875 -3.390625 C 1.21875 -2.773438 1.332031 -2.210938 1.5625 -1.703125 C 1.789062 -1.203125 2.109375 -0.804688 2.515625 -0.515625 C 2.921875 -0.234375 3.382812 -0.09375 3.90625 -0.09375 Z M 3.90625 -0.09375 "></path></g></g></g><g fill="#000000" fill-opacity="1"><g transform="translate(212.788103, 7.826948)"><g><path d="M 6.8125 -0.109375 C 6.84375 -0.109375 6.859375 -0.0859375 6.859375 -0.046875 C 6.859375 -0.015625 6.84375 0 6.8125 0 C 6.6875 0 6.492188 -0.00390625 6.234375 -0.015625 C 5.972656 -0.0234375 5.785156 -0.03125 5.671875 -0.03125 C 5.523438 -0.03125 5.34375 -0.0234375 5.125 -0.015625 C 4.914062 -0.00390625 4.757812 0 4.65625 0 C 4.625 0 4.609375 -0.015625 4.609375 -0.046875 C 4.609375 -0.0859375 4.625 -0.109375 4.65625 -0.109375 C 4.894531 -0.109375 5.066406 -0.128906 5.171875 -0.171875 C 5.285156 -0.222656 5.34375 -0.304688 5.34375 -0.421875 C 5.34375 -0.515625 5.300781 -0.65625 5.21875 -0.84375 L 3.125 -5.28125 L 1.40625 -1.234375 C 1.320312 -1.015625 1.28125 -0.835938 1.28125 -0.703125 C 1.28125 -0.503906 1.359375 -0.351562 1.515625 -0.25 C 1.671875 -0.15625 1.910156 -0.109375 2.234375 -0.109375 C 2.265625 -0.109375 2.28125 -0.0859375 2.28125 -0.046875 C 2.28125 -0.015625 2.265625 0 2.234375 0 C 2.117188 0 1.945312 -0.00390625 1.71875 -0.015625 C 1.476562 -0.0234375 1.265625 -0.03125 1.078125 -0.03125 C 0.910156 -0.03125 0.71875 -0.0234375 0.5 -0.015625 C 0.300781 -0.00390625 0.140625 0 0.015625 0 C -0.015625 0 -0.03125 -0.015625 -0.03125 -0.046875 C -0.03125 -0.0859375 -0.015625 -0.109375 0.015625 -0.109375 C 0.191406 -0.109375 0.34375 -0.144531 0.46875 -0.21875 C 0.59375 -0.289062 0.710938 -0.410156 0.828125 -0.578125 C 0.941406 -0.753906 1.066406 -1.003906 1.203125 -1.328125 L 3.265625 -6.1875 C 3.273438 -6.195312 3.296875 -6.203125 3.328125 -6.203125 C 3.367188 -6.203125 3.390625 -6.195312 3.390625 -6.1875 L 5.6875 -1.328125 C 5.914062 -0.847656 6.109375 -0.523438 6.265625 -0.359375 C 6.421875 -0.191406 6.601562 -0.109375 6.8125 -0.109375 Z M 6.8125 -0.109375 "></path></g></g></g><g fill="#000000" fill-opacity="1"><g transform="translate(219.628153, 7.826948)"><g><path d="M 6.546875 -0.21875 C 6.597656 -0.21875 6.628906 -0.210938 6.640625 -0.203125 C 6.648438 -0.191406 6.65625 -0.160156 6.65625 -0.109375 C 6.65625 -0.078125 6.648438 0.00390625 6.640625 0.140625 C 6.597656 0.503906 6.578125 0.957031 6.578125 1.5 C 6.578125 1.53125 6.554688 1.546875 6.515625 1.546875 C 6.472656 1.546875 6.453125 1.53125 6.453125 1.5 C 6.453125 0.976562 6.320312 0.597656 6.0625 0.359375 C 5.8125 0.117188 5.398438 0 4.828125 0 L 1.859375 0 C 0.941406 0 0.484375 0.5 0.484375 1.5 C 0.484375 1.53125 0.460938 1.546875 0.421875 1.546875 C 0.390625 1.546875 0.375 1.53125 0.375 1.5 C 0.375 0.976562 0.347656 0.5625 0.296875 0.25 C 0.273438 0.125 0.265625 0.00390625 0.265625 -0.109375 C 0.265625 -0.160156 0.269531 -0.191406 0.28125 -0.203125 C 0.289062 -0.210938 0.320312 -0.21875 0.375 -0.21875 L 0.984375 -0.21875 L 3.421875 -6.1875 C 3.429688 -6.195312 3.453125 -6.203125 3.484375 -6.203125 C 3.523438 -6.203125 3.546875 -6.195312 3.546875 -6.1875 L 6.03125 -0.21875 Z M 1.234375 -0.21875 L 5.34375 -0.21875 L 3.28125 -5.21875 Z M 1.234375 -0.21875 "></path></g></g></g><g fill="#000000" fill-opacity="1"><g transform="translate(226.42925, 7.826948)"><g><path d="M 3.5625 0.109375 C 2.957031 0.109375 2.421875 -0.03125 1.953125 -0.3125 C 1.484375 -0.59375 1.117188 -0.972656 0.859375 -1.453125 C 0.609375 -1.941406 0.484375 -2.472656 0.484375 -3.046875 C 0.484375 -3.710938 0.648438 -4.285156 0.984375 -4.765625 C 1.316406 -5.242188 1.75 -5.601562 2.28125 -5.84375 C 2.8125 -6.082031 3.351562 -6.203125 3.90625 -6.203125 C 4.53125 -6.203125 5.070312 -6.054688 5.53125 -5.765625 C 6 -5.472656 6.359375 -5.085938 6.609375 -4.609375 C 6.859375 -4.140625 6.984375 -3.640625 6.984375 -3.109375 C 6.984375 -2.515625 6.828125 -1.96875 6.515625 -1.46875 C 6.203125 -0.976562 5.785156 -0.59375 5.265625 -0.3125 C 4.742188 -0.03125 4.175781 0.109375 3.5625 0.109375 Z M 3.90625 -0.09375 C 4.351562 -0.09375 4.753906 -0.195312 5.109375 -0.40625 C 5.460938 -0.625 5.738281 -0.941406 5.9375 -1.359375 C 6.144531 -1.773438 6.25 -2.269531 6.25 -2.84375 C 6.25 -3.445312 6.132812 -3.984375 5.90625 -4.453125 C 5.675781 -4.929688 5.351562 -5.304688 4.9375 -5.578125 C 4.53125 -5.847656 4.050781 -5.984375 3.5 -5.984375 C 2.78125 -5.984375 2.21875 -5.75 1.8125 -5.28125 C 1.414062 -4.820312 1.21875 -4.191406 1.21875 -3.390625 C 1.21875 -2.773438 1.332031 -2.210938 1.5625 -1.703125 C 1.789062 -1.203125 2.109375 -0.804688 2.515625 -0.515625 C 2.921875 -0.234375 3.382812 -0.09375 3.90625 -0.09375 Z M 3.90625 -0.09375 "></path></g></g></g><g fill="#000000" fill-opacity="1"><g transform="translate(233.892895, 7.826948)"><g><path d="M 7.046875 -0.109375 C 7.054688 -0.109375 7.0625 -0.0859375 7.0625 -0.046875 C 7.0625 -0.015625 7.054688 0 7.046875 0 C 6.835938 0 6.675781 -0.00390625 6.5625 -0.015625 L 5.171875 -0.015625 C 5.054688 -0.00390625 4.898438 0 4.703125 0 C 4.691406 0 4.6875 -0.015625 4.6875 -0.046875 C 4.6875 -0.0859375 4.691406 -0.109375 4.703125 -0.109375 C 4.960938 -0.109375 5.148438 -0.125 5.265625 -0.15625 C 5.378906 -0.195312 5.457031 -0.265625 5.5 -0.359375 C 5.539062 -0.453125 5.5625 -0.597656 5.5625 -0.796875 L 5.5625 -3.078125 L 1.828125 -3.078125 L 1.828125 -0.796875 C 1.828125 -0.597656 1.847656 -0.453125 1.890625 -0.359375 C 1.929688 -0.265625 2.007812 -0.195312 2.125 -0.15625 C 2.238281 -0.125 2.425781 -0.109375 2.6875 -0.109375 C 2.695312 -0.109375 2.703125 -0.0859375 2.703125 -0.046875 C 2.703125 -0.015625 2.695312 0 2.6875 0 C 2.476562 0 2.316406 -0.00390625 2.203125 -0.015625 L 0.828125 -0.015625 C 0.710938 -0.00390625 0.550781 0 0.34375 0 C 0.332031 0 0.328125 -0.015625 0.328125 -0.046875 C 0.328125 -0.0859375 0.332031 -0.109375 0.34375 -0.109375 C 0.59375 -0.109375 0.773438 -0.125 0.890625 -0.15625 C 1.015625 -0.195312 1.097656 -0.265625 1.140625 -0.359375 C 1.179688 -0.453125 1.203125 -0.597656 1.203125 -0.796875 L 1.203125 -5.296875 C 1.203125 -5.492188 1.179688 -5.640625 1.140625 -5.734375 C 1.097656 -5.828125 1.015625 -5.890625 0.890625 -5.921875 C 0.773438 -5.960938 0.59375 -5.984375 0.34375 -5.984375 C 0.332031 -5.984375 0.328125 -6 0.328125 -6.03125 C 0.328125 -6.070312 0.332031 -6.09375 0.34375 -6.09375 L 0.84375 -6.078125 C 1.113281 -6.066406 1.332031 -6.0625 1.5 -6.0625 C 1.6875 -6.0625 1.925781 -6.066406 2.21875 -6.078125 L 2.6875 -6.09375 C 2.695312 -6.09375 2.703125 -6.070312 2.703125 -6.03125 C 2.703125 -6 2.695312 -5.984375 2.6875 -5.984375 C 2.4375 -5.984375 2.25 -5.960938 2.125 -5.921875 C 2.007812 -5.878906 1.929688 -5.8125 1.890625 -5.71875 C 1.847656 -5.625 1.828125 -5.476562 1.828125 -5.28125 L 1.828125 -3.28125 L 5.5625 -3.28125 L 5.5625 -5.28125 C 5.5625 -5.476562 5.539062 -5.625 5.5 -5.71875 C 5.457031 -5.8125 5.378906 -5.878906 5.265625 -5.921875 C 5.148438 -5.960938 4.960938 -5.984375 4.703125 -5.984375 C 4.691406 -5.984375 4.6875 -6 4.6875 -6.03125 C 4.6875 -6.070312 4.691406 -6.09375 4.703125 -6.09375 L 5.171875 -6.078125 C 5.453125 -6.066406 5.691406 -6.0625 5.890625 -6.0625 C 6.066406 -6.0625 6.289062 -6.066406 6.5625 -6.078125 L 7.046875 -6.09375 C 7.054688 -6.09375 7.0625 -6.070312 7.0625 -6.03125 C 7.0625 -6 7.054688 -5.984375 7.046875 -5.984375 C 6.796875 -5.984375 6.609375 -5.960938 6.484375 -5.921875 C 6.367188 -5.890625 6.289062 -5.828125 6.25 -5.734375 C 6.207031 -5.640625 6.1875 -5.492188 6.1875 -5.296875 L 6.1875 -0.796875 C 6.1875 -0.597656 6.207031 -0.453125 6.25 -0.359375 C 6.289062 -0.265625 6.367188 -0.195312 6.484375 -0.15625 C 6.609375 -0.125 6.796875 -0.109375 7.046875 -0.109375 Z M 7.046875 -0.109375 "></path></g></g></g><g fill="#000000" fill-opacity="1"><g transform="translate(241.288334, 7.826948)"><g><path d="M 6 -6.09375 C 6.019531 -6.09375 6.03125 -6.070312 6.03125 -6.03125 C 6.03125 -6 6.019531 -5.984375 6 -5.984375 C 5.832031 -5.984375 5.671875 -5.921875 5.515625 -5.796875 C 5.367188 -5.671875 5.238281 -5.488281 5.125 -5.25 L 3.3125 -1.390625 C 3.125 -0.972656 3.007812 -0.707031 2.96875 -0.59375 C 2.882812 -0.394531 2.820312 -0.257812 2.78125 -0.1875 C 2.738281 -0.113281 2.691406 -0.0625 2.640625 -0.03125 C 2.597656 -0.0078125 2.535156 0 2.453125 0 L 0.96875 0 C 0.957031 0 0.953125 -0.015625 0.953125 -0.046875 C 0.953125 -0.0859375 0.957031 -0.109375 0.96875 -0.109375 C 1.445312 -0.109375 1.859375 -0.207031 2.203125 -0.40625 C 2.554688 -0.613281 2.835938 -0.941406 3.046875 -1.390625 L 0.953125 -5.28125 C 0.804688 -5.539062 0.675781 -5.722656 0.5625 -5.828125 C 0.445312 -5.929688 0.289062 -5.984375 0.09375 -5.984375 C 0.0820312 -5.984375 0.078125 -6 0.078125 -6.03125 C 0.078125 -6.070312 0.0820312 -6.09375 0.09375 -6.09375 L 0.484375 -6.078125 C 0.679688 -6.066406 0.847656 -6.0625 0.984375 -6.0625 C 1.222656 -6.0625 1.476562 -6.066406 1.75 -6.078125 L 2.15625 -6.09375 C 2.164062 -6.09375 2.171875 -6.070312 2.171875 -6.03125 C 2.171875 -6 2.164062 -5.984375 2.15625 -5.984375 C 1.75 -5.984375 1.546875 -5.878906 1.546875 -5.671875 C 1.546875 -5.597656 1.578125 -5.5 1.640625 -5.375 L 3.40625 -2.125 L 4.90625 -5.296875 C 4.957031 -5.421875 4.984375 -5.523438 4.984375 -5.609375 C 4.984375 -5.859375 4.726562 -5.984375 4.21875 -5.984375 C 4.195312 -5.984375 4.1875 -6 4.1875 -6.03125 C 4.1875 -6.070312 4.195312 -6.09375 4.21875 -6.09375 L 4.625 -6.078125 C 4.84375 -6.066406 5.039062 -6.0625 5.21875 -6.0625 C 5.332031 -6.0625 5.46875 -6.066406 5.625 -6.078125 Z M 6 -6.09375 "></path></g></g></g><g fill="#000000" fill-opacity="1"><g transform="translate(247.241721, 7.826948)"><g><path d="M 7.046875 -6.09375 C 7.054688 -6.09375 7.0625 -6.070312 7.0625 -6.03125 C 7.0625 -6 7.054688 -5.984375 7.046875 -5.984375 C 6.796875 -5.984375 6.609375 -5.960938 6.484375 -5.921875 C 6.367188 -5.890625 6.289062 -5.828125 6.25 -5.734375 C 6.207031 -5.640625 6.1875 -5.492188 6.1875 -5.296875 L 6.1875 -0.796875 C 6.1875 -0.546875 6.195312 -0.378906 6.21875 -0.296875 C 6.25 -0.222656 6.304688 -0.171875 6.390625 -0.140625 C 6.484375 -0.117188 6.664062 -0.109375 6.9375 -0.109375 C 6.976562 -0.109375 7.003906 -0.101562 7.015625 -0.09375 C 7.023438 -0.09375 7.03125 -0.0625 7.03125 0 L 7.03125 0.28125 C 7.019531 0.601562 7.015625 1.117188 7.015625 1.828125 C 7.015625 1.859375 6.992188 1.875 6.953125 1.875 C 6.910156 1.875 6.890625 1.859375 6.890625 1.828125 C 6.890625 1.160156 6.78125 0.6875 6.5625 0.40625 C 6.351562 0.132812 5.992188 0 5.484375 0 L 4.703125 0 C 4.691406 0 4.6875 -0.015625 4.6875 -0.046875 C 4.6875 -0.0859375 4.691406 -0.109375 4.703125 -0.109375 C 4.960938 -0.109375 5.148438 -0.125 5.265625 -0.15625 C 5.378906 -0.195312 5.457031 -0.265625 5.5 -0.359375 C 5.539062 -0.453125 5.5625 -0.597656 5.5625 -0.796875 L 5.5625 -3.078125 L 1.828125 -3.078125 L 1.828125 -0.796875 C 1.828125 -0.597656 1.847656 -0.453125 1.890625 -0.359375 C 1.929688 -0.265625 2.007812 -0.195312 2.125 -0.15625 C 2.238281 -0.125 2.425781 -0.109375 2.6875 -0.109375 C 2.695312 -0.109375 2.703125 -0.0859375 2.703125 -0.046875 C 2.703125 -0.015625 2.695312 0 2.6875 0 C 2.476562 0 2.316406 -0.00390625 2.203125 -0.015625 L 0.828125 -0.015625 C 0.710938 -0.00390625 0.550781 0 0.34375 0 C 0.332031 0 0.328125 -0.015625 0.328125 -0.046875 C 0.328125 -0.0859375 0.332031 -0.109375 0.34375 -0.109375 C 0.59375 -0.109375 0.773438 -0.125 0.890625 -0.15625 C 1.015625 -0.195312 1.097656 -0.265625 1.140625 -0.359375 C 1.179688 -0.453125 1.203125 -0.597656 1.203125 -0.796875 L 1.203125 -5.296875 C 1.203125 -5.492188 1.179688 -5.640625 1.140625 -5.734375 C 1.097656 -5.828125 1.015625 -5.890625 0.890625 -5.921875 C 0.773438 -5.960938 0.59375 -5.984375 0.34375 -5.984375 C 0.332031 -5.984375 0.328125 -6 0.328125 -6.03125 C 0.328125 -6.070312 0.332031 -6.09375 0.34375 -6.09375 L 0.84375 -6.078125 C 1.113281 -6.066406 1.332031 -6.0625 1.5 -6.0625 C 1.6875 -6.0625 1.925781 -6.066406 2.21875 -6.078125 L 2.6875 -6.09375 C 2.695312 -6.09375 2.703125 -6.070312 2.703125 -6.03125 C 2.703125 -6 2.695312 -5.984375 2.6875 -5.984375 C 2.4375 -5.984375 2.25 -5.960938 2.125 -5.921875 C 2.007812 -5.878906 1.929688 -5.8125 1.890625 -5.71875 C 1.847656 -5.625 1.828125 -5.476562 1.828125 -5.28125 L 1.828125 -3.28125 L 5.5625 -3.28125 L 5.5625 -5.28125 C 5.5625 -5.476562 5.539062 -5.625 5.5 -5.71875 C 5.457031 -5.8125 5.378906 -5.878906 5.265625 -5.921875 C 5.148438 -5.960938 4.960938 -5.984375 4.703125 -5.984375 C 4.691406 -5.984375 4.6875 -6 4.6875 -6.03125 C 4.6875 -6.070312 4.691406 -6.09375 4.703125 -6.09375 L 5.171875 -6.078125 C 5.453125 -6.066406 5.691406 -6.0625 5.890625 -6.0625 C 6.066406 -6.0625 6.289062 -6.066406 6.5625 -6.078125 Z M 7.046875 -6.09375 "></path></g></g></g><g fill="#000000" fill-opacity="1"><g transform="translate(254.63716, 7.826948)"><g><path d="M 6 -6.09375 C 6.019531 -6.09375 6.03125 -6.070312 6.03125 -6.03125 C 6.03125 -6 6.019531 -5.984375 6 -5.984375 C 5.832031 -5.984375 5.671875 -5.921875 5.515625 -5.796875 C 5.367188 -5.671875 5.238281 -5.488281 5.125 -5.25 L 3.3125 -1.390625 C 3.125 -0.972656 3.007812 -0.707031 2.96875 -0.59375 C 2.882812 -0.394531 2.820312 -0.257812 2.78125 -0.1875 C 2.738281 -0.113281 2.691406 -0.0625 2.640625 -0.03125 C 2.597656 -0.0078125 2.535156 0 2.453125 0 L 0.96875 0 C 0.957031 0 0.953125 -0.015625 0.953125 -0.046875 C 0.953125 -0.0859375 0.957031 -0.109375 0.96875 -0.109375 C 1.445312 -0.109375 1.859375 -0.207031 2.203125 -0.40625 C 2.554688 -0.613281 2.835938 -0.941406 3.046875 -1.390625 L 0.953125 -5.28125 C 0.804688 -5.539062 0.675781 -5.722656 0.5625 -5.828125 C 0.445312 -5.929688 0.289062 -5.984375 0.09375 -5.984375 C 0.0820312 -5.984375 0.078125 -6 0.078125 -6.03125 C 0.078125 -6.070312 0.0820312 -6.09375 0.09375 -6.09375 L 0.484375 -6.078125 C 0.679688 -6.066406 0.847656 -6.0625 0.984375 -6.0625 C 1.222656 -6.0625 1.476562 -6.066406 1.75 -6.078125 L 2.15625 -6.09375 C 2.164062 -6.09375 2.171875 -6.070312 2.171875 -6.03125 C 2.171875 -6 2.164062 -5.984375 2.15625 -5.984375 C 1.75 -5.984375 1.546875 -5.878906 1.546875 -5.671875 C 1.546875 -5.597656 1.578125 -5.5 1.640625 -5.375 L 3.40625 -2.125 L 4.90625 -5.296875 C 4.957031 -5.421875 4.984375 -5.523438 4.984375 -5.609375 C 4.984375 -5.859375 4.726562 -5.984375 4.21875 -5.984375 C 4.195312 -5.984375 4.1875 -6 4.1875 -6.03125 C 4.1875 -6.070312 4.195312 -6.09375 4.21875 -6.09375 L 4.625 -6.078125 C 4.84375 -6.066406 5.039062 -6.0625 5.21875 -6.0625 C 5.332031 -6.0625 5.46875 -6.066406 5.625 -6.078125 Z M 6 -6.09375 "></path></g></g></g><g fill="#000000" fill-opacity="1"><g transform="translate(260.590548, 7.826948)"><g><path d="M 2.890625 -3.28125 C 3.335938 -3.25 3.703125 -3.09375 3.984375 -2.8125 C 4.273438 -2.53125 4.421875 -2.175781 4.421875 -1.75 C 4.421875 -1.382812 4.320312 -1.0625 4.125 -0.78125 C 3.925781 -0.5 3.65625 -0.28125 3.3125 -0.125 C 2.976562 0.03125 2.601562 0.109375 2.1875 0.109375 C 1.925781 0.109375 1.664062 0.078125 1.40625 0.015625 C 1.15625 -0.046875 0.957031 -0.132812 0.8125 -0.25 C 0.75 -0.28125 0.710938 -0.304688 0.703125 -0.328125 C 0.691406 -0.359375 0.679688 -0.410156 0.671875 -0.484375 L 0.5625 -1.5625 C 0.5625 -1.582031 0.578125 -1.59375 0.609375 -1.59375 C 0.640625 -1.601562 0.660156 -1.597656 0.671875 -1.578125 C 0.765625 -1.054688 0.972656 -0.664062 1.296875 -0.40625 C 1.628906 -0.15625 2 -0.03125 2.40625 -0.03125 C 2.832031 -0.03125 3.148438 -0.175781 3.359375 -0.46875 C 3.578125 -0.769531 3.6875 -1.132812 3.6875 -1.5625 C 3.6875 -2.09375 3.535156 -2.492188 3.234375 -2.765625 C 2.941406 -3.035156 2.515625 -3.171875 1.953125 -3.171875 C 1.929688 -3.171875 1.921875 -3.1875 1.921875 -3.21875 C 1.921875 -3.257812 1.929688 -3.28125 1.953125 -3.28125 C 2.460938 -3.28125 2.84375 -3.40625 3.09375 -3.65625 C 3.351562 -3.90625 3.484375 -4.242188 3.484375 -4.671875 C 3.484375 -5.097656 3.375 -5.4375 3.15625 -5.6875 C 2.945312 -5.945312 2.664062 -6.078125 2.3125 -6.078125 C 1.96875 -6.078125 1.664062 -5.953125 1.40625 -5.703125 C 1.144531 -5.453125 0.945312 -5.082031 0.8125 -4.59375 C 0.8125 -4.582031 0.800781 -4.578125 0.78125 -4.578125 C 0.769531 -4.578125 0.753906 -4.582031 0.734375 -4.59375 C 0.722656 -4.601562 0.71875 -4.609375 0.71875 -4.609375 L 0.84375 -5.71875 C 0.863281 -5.789062 0.878906 -5.835938 0.890625 -5.859375 C 0.898438 -5.890625 0.9375 -5.914062 1 -5.9375 C 1.5 -6.113281 1.976562 -6.203125 2.4375 -6.203125 C 2.988281 -6.203125 3.410156 -6.070312 3.703125 -5.8125 C 4.003906 -5.5625 4.15625 -5.25 4.15625 -4.875 C 4.15625 -4.519531 4.023438 -4.191406 3.765625 -3.890625 C 3.515625 -3.597656 3.222656 -3.394531 2.890625 -3.28125 Z M 2.890625 -3.28125 "></path></g></g></g></g></g></svg> 