<?xml version="1.0" encoding="UTF-8"?> <svg xmlns="http://www.w3.org/2000/svg" xmlns:xlink="http://www.w3.org/1999/xlink" width="360" zoomAndPan="magnify" viewBox="0 0 270 359.999987" height="480" preserveAspectRatio="xMidYMid meet" version="1.0"><defs><filter x="0%" y="0%" width="100%" height="100%" id="6c7b567d85"><feColorMatrix values="0 0 0 0 1 0 0 0 0 1 0 0 0 0 1 0 0 0 1 0" color-interpolation-filters="sRGB"></feColorMatrix></filter><g></g><mask id="40f9abdfae"><g filter="url(#6c7b567d85)"><rect x="-27" width="324" fill="#000000" y="-35.999999" height="431.999984" fill-opacity="0.3"></rect></g></mask><clipPath id="26ddf1167a"><path d="M 0 0.601562 L 267.121094 0.601562 L 267.121094 217.558594 L 0 217.558594 Z M 0 0.601562 " clip-rule="nonzero"></path></clipPath><clipPath id="f449421347"><rect x="0" width="268" y="0" height="218"></rect></clipPath><clipPath id="d126729fb5"><rect x="0" width="268" y="0" height="218"></rect></clipPath></defs><g mask="url(#40f9abdfae)"><g transform="matrix(1, 0, 0, 1, -0, 69)"><g clip-path="url(#d126729fb5)"><g clip-path="url(#26ddf1167a)"><g transform="matrix(1, 0, 0, 1, -0, 0)"><g clip-path="url(#f449421347)"><g fill="#000000" fill-opacity="1"><g transform="translate(8.891539, 124.548993)"><g><path d="M 68.96875 -55 C 69.25 -54.90625 69.390625 -54.691406 69.390625 -54.359375 C 69.390625 -54.023438 69.25 -53.8125 68.96875 -53.71875 C 67.539062 -53.4375 66.113281 -53.269531 64.6875 -53.21875 C 63.269531 -53.175781 61.847656 -53.109375 60.421875 -53.015625 C 59.085938 -52.921875 57.753906 -52.847656 56.421875 -52.796875 C 55.097656 -52.742188 53.769531 -52.71875 52.4375 -52.71875 C 48.445312 -52.53125 44.457031 -52.289062 40.46875 -52 C 36.476562 -51.71875 32.488281 -51.34375 28.5 -50.875 C 26.789062 -50.6875 25.054688 -50.492188 23.296875 -50.296875 C 21.535156 -50.109375 19.753906 -49.921875 17.953125 -49.734375 C 16.523438 -47.078125 15.144531 -44.441406 13.8125 -41.828125 C 12.488281 -39.210938 11.160156 -36.523438 9.828125 -33.765625 C 8.597656 -31.109375 7.363281 -28.445312 6.125 -25.78125 C 4.894531 -23.125 3.707031 -20.421875 2.5625 -17.671875 C 1.332031 -15.015625 0.171875 -12.332031 -0.921875 -9.625 C -2.015625 -6.914062 -3.226562 -4.273438 -4.5625 -1.703125 C -4.65625 -1.421875 -4.867188 -1.328125 -5.203125 -1.421875 C -5.535156 -1.515625 -5.65625 -1.753906 -5.5625 -2.140625 C -4.800781 -5.367188 -3.773438 -8.523438 -2.484375 -11.609375 C -1.203125 -14.703125 0.0507812 -17.769531 1.28125 -20.8125 C 3.46875 -25.65625 5.722656 -30.472656 8.046875 -35.265625 C 10.378906 -40.066406 12.78125 -44.796875 15.25 -49.453125 C 14.300781 -49.359375 13.328125 -49.257812 12.328125 -49.15625 C 11.328125 -49.0625 10.351562 -48.921875 9.40625 -48.734375 C 8.738281 -48.640625 8.070312 -48.566406 7.40625 -48.515625 C 6.738281 -48.472656 6.023438 -48.40625 5.265625 -48.3125 C 4.984375 -48.3125 4.695312 -48.285156 4.40625 -48.234375 C 4.125 -48.191406 3.84375 -48.171875 3.5625 -48.171875 C 3.1875 -48.066406 2.851562 -48.0625 2.5625 -48.15625 C 2.28125 -48.257812 1.898438 -48.265625 1.421875 -48.171875 C 1.328125 -48.171875 1.28125 -48.238281 1.28125 -48.375 C 1.28125 -48.519531 1.328125 -48.59375 1.421875 -48.59375 C 1.609375 -48.6875 1.820312 -48.800781 2.0625 -48.9375 C 2.300781 -49.082031 2.5625 -49.15625 2.84375 -49.15625 C 3.039062 -49.257812 3.234375 -49.3125 3.421875 -49.3125 C 3.609375 -49.3125 3.75 -49.359375 3.84375 -49.453125 C 4.226562 -49.453125 4.585938 -49.472656 4.921875 -49.515625 C 5.253906 -49.566406 5.609375 -49.640625 5.984375 -49.734375 C 6.648438 -49.828125 7.316406 -49.921875 7.984375 -50.015625 C 8.648438 -50.109375 9.3125 -50.203125 9.96875 -50.296875 C 11.019531 -50.492188 12.066406 -50.6875 13.109375 -50.875 C 14.148438 -51.0625 15.195312 -51.203125 16.25 -51.296875 C 16.4375 -51.484375 16.578125 -51.695312 16.671875 -51.9375 C 16.765625 -52.175781 16.859375 -52.34375 16.953125 -52.4375 C 19.804688 -57.757812 22.800781 -62.890625 25.9375 -67.828125 C 27.550781 -70.296875 29.140625 -72.789062 30.703125 -75.3125 C 32.273438 -77.832031 33.960938 -80.226562 35.765625 -82.5 C 35.953125 -82.789062 36.1875 -82.816406 36.46875 -82.578125 C 36.757812 -82.335938 36.8125 -82.078125 36.625 -81.796875 C 35.007812 -78.941406 33.320312 -76.113281 31.5625 -73.3125 C 29.800781 -70.507812 28.066406 -67.6875 26.359375 -64.84375 C 25.128906 -62.65625 23.894531 -60.46875 22.65625 -58.28125 C 21.425781 -56.09375 20.238281 -53.910156 19.09375 -51.734375 C 26.5 -52.867188 34.003906 -53.722656 41.609375 -54.296875 C 43.703125 -54.484375 45.789062 -54.644531 47.875 -54.78125 C 49.96875 -54.925781 52.0625 -55.046875 54.15625 -55.140625 C 56.625 -55.242188 59.113281 -55.34375 61.625 -55.4375 C 64.144531 -55.53125 66.59375 -55.382812 68.96875 -55 Z M 101.609375 -97.46875 C 102.078125 -97.375 102.285156 -97.113281 102.234375 -96.6875 C 102.191406 -96.257812 101.929688 -96.046875 101.453125 -96.046875 C 99.941406 -96.140625 98.445312 -96.304688 96.96875 -96.546875 C 95.5 -96.785156 94.050781 -97 92.625 -97.1875 C 91.101562 -97.375 89.601562 -97.535156 88.125 -97.671875 C 86.65625 -97.816406 85.160156 -97.941406 83.640625 -98.046875 C 78.234375 -98.328125 72.84375 -98.273438 67.46875 -97.890625 C 62.101562 -97.515625 56.757812 -96.804688 51.4375 -95.765625 C 46.3125 -94.804688 41.132812 -93.519531 35.90625 -91.90625 C 33.34375 -91.050781 30.828125 -90.148438 28.359375 -89.203125 C 25.890625 -88.253906 23.421875 -87.257812 20.953125 -86.21875 C 20.859375 -86.113281 20.785156 -86.15625 20.734375 -86.34375 C 20.679688 -86.539062 20.707031 -86.6875 20.8125 -86.78125 C 23.375 -88.300781 26.054688 -89.628906 28.859375 -90.765625 C 31.660156 -91.910156 34.484375 -92.957031 37.328125 -93.90625 C 42.460938 -95.707031 47.6875 -97.109375 53 -98.109375 C 58.320312 -99.109375 63.691406 -99.796875 69.109375 -100.171875 C 74.523438 -100.460938 80.035156 -100.460938 85.640625 -100.171875 C 86.972656 -100.078125 88.300781 -99.957031 89.625 -99.8125 C 90.957031 -99.675781 92.289062 -99.515625 93.625 -99.328125 C 94.957031 -99.128906 96.3125 -98.890625 97.6875 -98.609375 C 99.0625 -98.328125 100.367188 -97.945312 101.609375 -97.46875 Z M 101.609375 -97.46875 "></path></g></g></g><g fill="#000000" fill-opacity="1"><g transform="translate(84.10034, 124.548993)"><g><path d="M 52.875 -33.0625 C 53.15625 -33.15625 53.34375 -33.054688 53.4375 -32.765625 C 53.53125 -32.484375 53.4375 -32.296875 53.15625 -32.203125 C 47.644531 -30.109375 42.273438 -27.585938 37.046875 -24.640625 C 31.828125 -21.703125 26.363281 -19.425781 20.65625 -17.8125 C 18.28125 -17.144531 15.8125 -16.644531 13.25 -16.3125 C 10.6875 -15.976562 8.21875 -16.144531 5.84375 -16.8125 C 3.945312 -15.863281 1.8125 -15.195312 -0.5625 -14.8125 C -2.9375 -14.4375 -4.789062 -15.296875 -6.125 -17.390625 C -7.070312 -18.804688 -7.304688 -20.273438 -6.828125 -21.796875 C -6.359375 -23.316406 -5.53125 -24.765625 -4.34375 -26.140625 C -3.15625 -27.523438 -2.039062 -28.644531 -1 -29.5 C 0.519531 -30.726562 2.226562 -31.796875 4.125 -32.703125 C 6.03125 -33.609375 7.976562 -34.109375 9.96875 -34.203125 C 10.820312 -34.390625 11.675781 -34.503906 12.53125 -34.546875 C 13.394531 -34.597656 14.207031 -34.390625 14.96875 -33.921875 C 16.007812 -33.441406 16.789062 -32.703125 17.3125 -31.703125 C 17.832031 -30.703125 17.859375 -29.632812 17.390625 -28.5 C 17.003906 -27.363281 16.40625 -26.296875 15.59375 -25.296875 C 14.789062 -24.296875 14.007812 -23.367188 13.25 -22.515625 C 11.726562 -20.804688 10.019531 -19.378906 8.125 -18.234375 C 9.457031 -18.046875 10.832031 -18.019531 12.25 -18.15625 C 13.675781 -18.300781 15.007812 -18.472656 16.25 -18.671875 C 18.425781 -19.140625 20.535156 -19.726562 22.578125 -20.4375 C 24.628906 -21.15625 26.648438 -21.941406 28.640625 -22.796875 C 32.628906 -24.597656 36.59375 -26.5 40.53125 -28.5 C 44.476562 -30.5 48.59375 -32.019531 52.875 -33.0625 Z M 15.53125 -30.921875 C 15.25 -31.773438 14.535156 -32.296875 13.390625 -32.484375 C 11.679688 -32.960938 9.875 -32.675781 7.96875 -31.625 C 6.070312 -30.582031 4.554688 -29.445312 3.421875 -28.21875 C 2.847656 -27.644531 2.347656 -27.023438 1.921875 -26.359375 C 1.492188 -25.691406 1.28125 -24.976562 1.28125 -24.21875 C 1.1875 -23.269531 1.421875 -22.414062 1.984375 -21.65625 C 2.554688 -20.894531 3.175781 -20.28125 3.84375 -19.8125 C 4.132812 -19.71875 4.421875 -19.570312 4.703125 -19.375 C 4.984375 -19.1875 5.269531 -19.046875 5.5625 -18.953125 C 6.507812 -19.429688 7.410156 -19.976562 8.265625 -20.59375 C 9.117188 -21.207031 9.878906 -21.847656 10.546875 -22.515625 C 11.304688 -23.273438 12.039062 -24.054688 12.75 -24.859375 C 13.46875 -25.671875 14.109375 -26.503906 14.671875 -27.359375 C 14.960938 -27.835938 15.25 -28.382812 15.53125 -29 C 15.8125 -29.613281 15.8125 -30.253906 15.53125 -30.921875 Z M -1.5625 -16.8125 C -0.707031 -16.71875 0.144531 -16.789062 1 -17.03125 C 1.851562 -17.269531 2.660156 -17.578125 3.421875 -17.953125 C 2.085938 -18.710938 0.992188 -19.804688 0.140625 -21.234375 C -0.710938 -22.660156 -0.851562 -24.226562 -0.28125 -25.9375 C -0.09375 -26.601562 0.1875 -27.195312 0.5625 -27.71875 C 0.945312 -28.238281 1.328125 -28.738281 1.703125 -29.21875 C 1.140625 -28.832031 0.476562 -28.351562 -0.28125 -27.78125 C -1.132812 -27.019531 -1.960938 -26.164062 -2.765625 -25.21875 C -3.578125 -24.269531 -4.222656 -23.226562 -4.703125 -22.09375 C -5.179688 -20.757812 -5.179688 -19.570312 -4.703125 -18.53125 C -4.035156 -17.570312 -2.988281 -17 -1.5625 -16.8125 Z M -1.5625 -16.8125 "></path></g></g></g><g fill="#000000" fill-opacity="1"><g transform="translate(132.673818, 124.548993)"><g><path d="M 34.203125 -40.46875 C 35.628906 -39.425781 36.007812 -38 35.34375 -36.1875 C 35.25 -35.90625 35.007812 -35.832031 34.625 -35.96875 C 34.25 -36.113281 34.109375 -36.378906 34.203125 -36.765625 C 34.484375 -38.003906 34.003906 -38.785156 32.765625 -39.109375 C 31.535156 -39.441406 30.492188 -39.609375 29.640625 -39.609375 C 28.691406 -39.703125 27.765625 -39.675781 26.859375 -39.53125 C 25.953125 -39.394531 25.023438 -39.234375 24.078125 -39.046875 C 19.421875 -38.097656 15.21875 -36.148438 11.46875 -33.203125 C 7.71875 -30.253906 4.414062 -26.804688 1.5625 -22.859375 C -1.28125 -18.921875 -3.554688 -14.816406 -5.265625 -10.546875 C -5.460938 -10.066406 -5.84375 -9.898438 -6.40625 -10.046875 C -6.976562 -10.191406 -7.171875 -10.546875 -6.984375 -11.109375 C -4.984375 -16.816406 -2.414062 -22.425781 0.71875 -27.9375 C 1.570312 -29.257812 2.425781 -30.5625 3.28125 -31.84375 C 4.132812 -33.125 5.035156 -34.382812 5.984375 -35.625 C 6.929688 -36.863281 7.90625 -38.078125 8.90625 -39.265625 C 9.90625 -40.453125 10.972656 -41.519531 12.109375 -42.46875 C 12.296875 -42.65625 12.484375 -42.65625 12.671875 -42.46875 C 12.867188 -42.28125 12.875 -42.085938 12.6875 -41.890625 C 11.832031 -40.660156 10.90625 -39.472656 9.90625 -38.328125 C 8.90625 -37.191406 7.976562 -36.003906 7.125 -34.765625 C 6.175781 -33.535156 5.296875 -32.300781 4.484375 -31.0625 C 3.679688 -29.832031 2.898438 -28.550781 2.140625 -27.21875 C 2.046875 -27.03125 1.945312 -26.835938 1.84375 -26.640625 C 1.75 -26.453125 1.65625 -26.265625 1.5625 -26.078125 C 3.75 -28.828125 6.242188 -31.34375 9.046875 -33.625 C 11.847656 -35.90625 14.863281 -37.757812 18.09375 -39.1875 C 19.800781 -39.945312 21.601562 -40.539062 23.5 -40.96875 C 25.40625 -41.394531 27.257812 -41.609375 29.0625 -41.609375 C 30.019531 -41.609375 30.945312 -41.5625 31.84375 -41.46875 C 32.75 -41.375 33.535156 -41.039062 34.203125 -40.46875 Z M 34.203125 -40.46875 "></path></g></g></g><g fill="#000000" fill-opacity="1"><g transform="translate(171.134157, 124.548993)"><g><path d="M 87.5 -28.359375 C 87.78125 -28.546875 88.039062 -28.472656 88.28125 -28.140625 C 88.519531 -27.804688 88.492188 -27.546875 88.203125 -27.359375 C 84.117188 -24.128906 79.609375 -21.421875 74.671875 -19.234375 C 72.578125 -18.285156 70.460938 -17.476562 68.328125 -16.8125 C 66.191406 -16.144531 64.03125 -15.578125 61.84375 -15.109375 C 60.039062 -14.816406 58.164062 -14.671875 56.21875 -14.671875 C 54.269531 -14.671875 52.441406 -15.003906 50.734375 -15.671875 C 49.210938 -16.242188 47.878906 -17.097656 46.734375 -18.234375 C 46.078125 -18.992188 45.554688 -19.875 45.171875 -20.875 C 44.796875 -21.875 44.320312 -22.800781 43.75 -23.65625 C 42.800781 -24.882812 41.539062 -25.210938 39.96875 -24.640625 C 38.40625 -24.078125 37.097656 -23.554688 36.046875 -23.078125 C 32.910156 -21.847656 29.96875 -20.425781 27.21875 -18.8125 C 26.738281 -18.519531 26.359375 -18.613281 26.078125 -19.09375 C 25.796875 -19.570312 25.796875 -20 26.078125 -20.375 C 27.503906 -22.175781 28.785156 -24.050781 29.921875 -26 C 31.066406 -27.945312 32.113281 -29.96875 33.0625 -32.0625 C 33.4375 -32.820312 33.742188 -33.722656 33.984375 -34.765625 C 34.222656 -35.816406 33.914062 -36.578125 33.0625 -37.046875 C 32.394531 -37.523438 31.515625 -37.765625 30.421875 -37.765625 C 29.328125 -37.765625 28.398438 -37.765625 27.640625 -37.765625 C 23.179688 -37.765625 18.765625 -36.957031 14.390625 -35.34375 C 13.253906 -32.582031 11.804688 -29.894531 10.046875 -27.28125 C 8.285156 -24.675781 6.363281 -22.28125 4.28125 -20.09375 C 3.320312 -19.144531 2.222656 -18.171875 0.984375 -17.171875 C -0.242188 -16.171875 -1.570312 -15.625 -3 -15.53125 C -4.800781 -15.4375 -5.867188 -16.101562 -6.203125 -17.53125 C -6.535156 -18.957031 -6.414062 -20.285156 -5.84375 -21.515625 C -5.5625 -22.273438 -5.132812 -23.035156 -4.5625 -23.796875 C -3.988281 -24.554688 -3.414062 -25.269531 -2.84375 -25.9375 C -2.28125 -26.695312 -1.664062 -27.40625 -1 -28.0625 C -0.332031 -28.726562 0.332031 -29.347656 1 -29.921875 C 3.75 -32.390625 6.882812 -34.429688 10.40625 -36.046875 C 10.875 -36.335938 11.394531 -36.597656 11.96875 -36.828125 C 12.539062 -37.066406 13.113281 -37.285156 13.6875 -37.484375 C 13.875 -38.046875 14.109375 -38.632812 14.390625 -39.25 C 14.671875 -39.875 14.910156 -40.519531 15.109375 -41.1875 C 15.109375 -41.65625 15.25 -42.082031 15.53125 -42.46875 C 15.625 -42.84375 15.8125 -42.984375 16.09375 -42.890625 C 16.382812 -42.796875 16.484375 -42.5625 16.390625 -42.1875 C 16.296875 -41.519531 16.148438 -40.851562 15.953125 -40.1875 C 15.765625 -39.519531 15.578125 -38.804688 15.390625 -38.046875 C 21.085938 -39.941406 26.691406 -40.414062 32.203125 -39.46875 C 34.203125 -39.1875 35.4375 -38.09375 35.90625 -36.1875 C 36.09375 -35.332031 36.046875 -34.453125 35.765625 -33.546875 C 35.484375 -32.648438 35.148438 -31.820312 34.765625 -31.0625 C 34.097656 -29.539062 33.359375 -28.066406 32.546875 -26.640625 C 31.742188 -25.222656 30.867188 -23.847656 29.921875 -22.515625 C 30.867188 -22.992188 31.816406 -23.445312 32.765625 -23.875 C 33.722656 -24.300781 34.675781 -24.703125 35.625 -25.078125 C 36.957031 -25.554688 38.40625 -26.054688 39.96875 -26.578125 C 41.539062 -27.097656 42.941406 -26.929688 44.171875 -26.078125 C 45.117188 -25.410156 45.78125 -24.53125 46.15625 -23.4375 C 46.539062 -22.34375 47.066406 -21.367188 47.734375 -20.515625 C 48.585938 -19.191406 49.726562 -18.242188 51.15625 -17.671875 C 52.769531 -17.003906 54.523438 -16.691406 56.421875 -16.734375 C 58.328125 -16.785156 60.179688 -17.003906 61.984375 -17.390625 C 64.265625 -17.859375 66.5 -18.472656 68.6875 -19.234375 C 70.875 -19.992188 73.007812 -20.847656 75.09375 -21.796875 C 77.1875 -22.847656 79.273438 -23.894531 81.359375 -24.9375 C 83.453125 -25.976562 85.5 -27.117188 87.5 -28.359375 Z M 5.5625 -24.375 C 8.21875 -27.601562 10.445312 -30.972656 12.25 -34.484375 C 11.019531 -34.003906 9.929688 -33.4375 8.984375 -32.78125 C 6.035156 -31.164062 3.46875 -29.265625 1.28125 -27.078125 C 0.707031 -26.503906 0.140625 -25.929688 -0.421875 -25.359375 C -0.992188 -24.796875 -1.519531 -24.179688 -2 -23.515625 C -2.375 -22.941406 -2.796875 -22.347656 -3.265625 -21.734375 C -3.742188 -21.117188 -4.082031 -20.476562 -4.28125 -19.8125 C -4.375 -19.238281 -4.394531 -18.710938 -4.34375 -18.234375 C -4.300781 -17.765625 -3.945312 -17.53125 -3.28125 -17.53125 C -2.707031 -17.53125 -2.160156 -17.671875 -1.640625 -17.953125 C -1.117188 -18.234375 -0.664062 -18.519531 -0.28125 -18.8125 C 0.851562 -19.570312 1.894531 -20.445312 2.84375 -21.4375 C 3.800781 -22.4375 4.707031 -23.414062 5.5625 -24.375 Z M 5.5625 -24.375 "></path></g></g></g></g></g></g></g></g></g></svg> 