<?xml version="1.0" encoding="UTF-8"?> <svg xmlns="http://www.w3.org/2000/svg" xmlns:xlink="http://www.w3.org/1999/xlink" width="360" zoomAndPan="magnify" viewBox="0 0 270 359.999987" height="480" preserveAspectRatio="xMidYMid meet" version="1.0"><defs><g></g><clipPath id="f0e1101c66"><rect x="0" width="266" y="0" height="92"></rect></clipPath></defs><g transform="matrix(1, 0, 0, 1, 2, 134)"><g clip-path="url(#f0e1101c66)"><g fill="#660208" fill-opacity="1"><g transform="translate(1.281667, 68.057552)"><g><path d="M 132.265625 -49.1875 C 132.265625 -46.613281 130.507812 -43.945312 127 -41.1875 C 124.644531 -39.320312 121.75 -37.601562 118.3125 -36.03125 C 113.976562 -34.03125 108.984375 -32.53125 103.328125 -31.53125 C 101.109375 -27.800781 98.867188 -24.054688 96.609375 -20.296875 C 93.921875 -15.960938 91.363281 -12.421875 88.9375 -9.671875 C 85.851562 -6.160156 82.539062 -3.398438 79 -1.390625 C 78.28125 -1.003906 77.707031 -0.753906 77.28125 -0.640625 L 77.28125 -0.59375 C 78.425781 -0.519531 79.960938 -0.484375 81.890625 -0.484375 C 84.117188 -0.484375 85.960938 -0.894531 87.421875 -1.71875 C 87.890625 -1.96875 89.394531 -3.097656 91.9375 -5.109375 L 92.046875 -5.046875 L 92.09375 -4.9375 C 92.03125 -4.757812 91.90625 -4.582031 91.71875 -4.40625 C 88.351562 -0.820312 84.664062 0.96875 80.65625 0.96875 C 80.125 0.96875 79.347656 0.847656 78.328125 0.609375 C 77.304688 0.378906 76.546875 0.265625 76.046875 0.265625 C 75.828125 0.265625 75.234375 0.34375 74.265625 0.5 C 73.304688 0.664062 72.570312 0.75 72.0625 0.75 C 70.53125 0.75 69.765625 0.375 69.765625 -0.375 C 69.765625 -0.800781 70.390625 -1.015625 71.640625 -1.015625 C 72.140625 -1.015625 72.898438 -0.96875 73.921875 -0.875 C 74.941406 -0.789062 75.703125 -0.75 76.203125 -0.75 C 79.742188 -2.25 83.46875 -5.703125 87.375 -11.109375 C 88.550781 -12.765625 91.253906 -17.117188 95.484375 -24.171875 C 96.597656 -25.992188 98.046875 -28.265625 99.828125 -30.984375 C 96.609375 -30.585938 94.015625 -30.390625 92.046875 -30.390625 C 88.253906 -26.453125 84.441406 -22.570312 80.609375 -18.75 C 85.722656 -17.414062 88.476562 -15.890625 88.875 -14.171875 L 88.875 -14.125 C 87.875 -15.269531 84.847656 -16.488281 79.796875 -17.78125 C 72.210938 -10.1875 64.910156 -4.632812 57.890625 -1.125 C 49.765625 2.988281 40.867188 5.046875 31.203125 5.046875 C 29.128906 5.046875 27.070312 4.882812 25.03125 4.5625 C 25.164062 10.539062 28.242188 15.140625 34.265625 18.359375 C 39.097656 20.898438 44.804688 22.171875 51.390625 22.171875 C 58.160156 22.171875 64.035156 20.921875 69.015625 18.421875 C 74.128906 15.804688 76.6875 12.851562 76.6875 9.5625 C 76.6875 8.125 76.289062 6.957031 75.5 6.0625 C 75.363281 5.957031 75.203125 5.765625 75.015625 5.484375 C 75.054688 5.441406 75.113281 5.421875 75.1875 5.421875 C 75.832031 5.421875 76.457031 5.984375 77.0625 7.109375 C 77.675781 8.242188 77.984375 9.1875 77.984375 9.9375 C 77.984375 13.332031 75.242188 16.335938 69.765625 18.953125 C 64.429688 21.492188 58.304688 22.765625 51.390625 22.765625 C 44.304688 22.765625 38.382812 21.492188 33.625 18.953125 C 27.570312 15.734375 24.523438 10.898438 24.484375 4.453125 C 19.253906 3.554688 15.082031 1.75 11.96875 -0.96875 C 8.351562 -4.082031 6.546875 -8.128906 6.546875 -13.109375 C 6.546875 -16.578125 7.601562 -19.921875 9.71875 -23.140625 C 11.613281 -26.046875 14.15625 -28.535156 17.34375 -30.609375 C 24.289062 -35.160156 32.132812 -37.4375 40.875 -37.4375 C 46.3125 -37.4375 51.125 -36.554688 55.3125 -34.796875 C 60.894531 -32.429688 63.6875 -28.925781 63.6875 -24.28125 C 63.6875 -23.0625 63.488281 -21.820312 63.09375 -20.5625 C 63.28125 -20.5625 63.625 -20.582031 64.125 -20.625 C 64.550781 -20.625 64.910156 -20.625 65.203125 -20.625 C 69.890625 -20.625 74.148438 -20.226562 77.984375 -19.4375 C 79.585938 -20.945312 83.289062 -24.597656 89.09375 -30.390625 C 83.289062 -30.535156 78.257812 -31.488281 74 -33.25 C 68.019531 -35.644531 65.03125 -39.238281 65.03125 -44.03125 C 65.03125 -47.289062 66.460938 -49.90625 69.328125 -51.875 C 71.867188 -53.59375 74.84375 -54.453125 78.25 -54.453125 C 82.070312 -54.453125 84.988281 -53.539062 87 -51.71875 C 88.289062 -50.53125 88.9375 -49.4375 88.9375 -48.4375 C 88.9375 -48.039062 88.863281 -47.84375 88.71875 -47.84375 C 88.394531 -49.882812 87.085938 -51.425781 84.796875 -52.46875 C 82.929688 -53.320312 80.835938 -53.75 78.515625 -53.75 C 75.296875 -53.75 72.519531 -52.925781 70.1875 -51.28125 C 67.613281 -49.457031 66.328125 -46.988281 66.328125 -43.875 C 66.328125 -39.257812 69.222656 -35.804688 75.015625 -33.515625 C 79.097656 -31.898438 83.929688 -31.019531 89.515625 -30.875 C 104.015625 -46.019531 116.207031 -53.59375 126.09375 -53.59375 C 130.207031 -53.59375 132.265625 -52.125 132.265625 -49.1875 Z M 131.625 -49.1875 C 131.625 -50.507812 131.035156 -51.515625 129.859375 -52.203125 C 128.921875 -52.773438 127.738281 -53.0625 126.3125 -53.0625 C 120.363281 -53.0625 114.078125 -50.519531 107.453125 -45.4375 C 103.660156 -42.53125 98.632812 -37.695312 92.375 -30.9375 C 94.769531 -31.007812 97.347656 -31.257812 100.109375 -31.6875 C 103.503906 -36.695312 106.8125 -40.867188 110.03125 -44.203125 C 115.007812 -49.316406 119.328125 -51.875 122.984375 -51.875 C 124.554688 -51.875 125.234375 -51.660156 125.015625 -51.234375 L 124.8125 -51.078125 L 123.1875 -51.390625 C 120.4375 -51.390625 117.578125 -49.941406 114.609375 -47.046875 C 112.890625 -45.359375 110.789062 -42.742188 108.3125 -39.203125 C 106.238281 -36.191406 104.703125 -33.882812 103.703125 -32.28125 C 109.359375 -33.53125 114.117188 -35.101562 117.984375 -37 C 127.078125 -41.4375 131.625 -45.5 131.625 -49.1875 Z M 61.921875 -19.5 C 56.160156 -19.25 50.71875 -18.316406 45.59375 -16.703125 C 39.46875 -14.835938 34.648438 -12.242188 31.140625 -8.921875 L 31.140625 -8.859375 C 33.109375 -8.460938 34.988281 -8.265625 36.78125 -8.265625 C 41.613281 -8.265625 46.320312 -9.144531 50.90625 -10.90625 C 56.382812 -13.007812 60.054688 -15.875 61.921875 -19.5 Z M 77.125 -18.359375 C 73.289062 -19.191406 68.992188 -19.609375 64.234375 -19.609375 C 63.765625 -19.609375 63.28125 -19.585938 62.78125 -19.546875 C 61.09375 -15.503906 57.601562 -12.316406 52.3125 -9.984375 C 47.726562 -7.941406 42.960938 -6.921875 38.015625 -6.921875 C 35.148438 -6.921875 32.609375 -7.300781 30.390625 -8.0625 C 26.992188 -4.726562 25.222656 -0.84375 25.078125 3.59375 C 27.015625 3.957031 29.09375 4.140625 31.3125 4.140625 C 40.007812 4.140625 48.382812 1.953125 56.4375 -2.421875 C 62.882812 -5.890625 69.78125 -11.203125 77.125 -18.359375 Z M 63.15625 -24.28125 C 63.15625 -28.46875 60.273438 -31.488281 54.515625 -33.34375 C 50.640625 -34.601562 46.070312 -35.234375 40.8125 -35.234375 C 33.082031 -35.234375 25.882812 -33.492188 19.21875 -30.015625 C 11.164062 -25.796875 7.140625 -20.175781 7.140625 -13.15625 C 7.140625 -8.425781 8.910156 -4.5625 12.453125 -1.5625 C 15.460938 0.976562 19.472656 2.695312 24.484375 3.59375 C 24.628906 -0.695312 26.347656 -4.648438 29.640625 -8.265625 C 24.847656 -10.023438 22.453125 -12.515625 22.453125 -15.734375 C 22.453125 -16.085938 22.503906 -16.570312 22.609375 -17.1875 C 22.753906 -17.9375 22.914062 -18.3125 23.09375 -18.3125 C 23.195312 -18.3125 23.285156 -18.296875 23.359375 -18.265625 C 23.328125 -18.117188 23.238281 -17.707031 23.09375 -17.03125 C 22.988281 -16.488281 22.9375 -16.09375 22.9375 -15.84375 C 22.9375 -14.195312 23.828125 -12.710938 25.609375 -11.390625 C 26.972656 -10.421875 28.601562 -9.648438 30.5 -9.078125 C 34.113281 -12.691406 39.070312 -15.519531 45.375 -17.5625 C 50.675781 -19.28125 56.351562 -20.265625 62.40625 -20.515625 C 62.90625 -21.734375 63.15625 -22.988281 63.15625 -24.28125 Z M 63.15625 -24.28125 "></path></g></g></g><g fill="#660208" fill-opacity="1"><g transform="translate(92.956736, 68.057552)"><g><path d="M 16.0625 -5.265625 C 16.0625 -4.722656 14.59375 -3.453125 11.65625 -1.453125 C 9.71875 -0.0859375 7.925781 1.078125 6.28125 2.046875 C 0.09375 11.347656 -6.046875 17.554688 -12.140625 20.671875 C -13.609375 21.421875 -14.84375 21.796875 -15.84375 21.796875 C -17.5625 21.796875 -18.421875 21.171875 -18.421875 19.921875 C -18.421875 18.273438 -16.863281 16.164062 -13.75 13.59375 C -11.488281 11.6875 -8.335938 9.484375 -4.296875 6.984375 C -1.753906 5.472656 0.804688 3.953125 3.390625 2.421875 C 4.242188 1.273438 5.367188 -0.351562 6.765625 -2.46875 L 6.765625 -2.53125 C 4.515625 -0.625 2.5625 0.328125 0.90625 0.328125 C -0.445312 0.328125 -1.125 -0.265625 -1.125 -1.453125 C -1.125 -2.597656 -0.625 -3.65625 0.375 -4.625 L 0.375 -4.671875 C -0.269531 -4.128906 -0.628906 -3.859375 -0.703125 -3.859375 C -0.734375 -3.859375 -0.769531 -3.878906 -0.8125 -3.921875 L -0.8125 -4.03125 C -0.8125 -4.03125 -0.789062 -4.101562 -0.75 -4.25 C 0.21875 -5.351562 1.726562 -6.453125 3.78125 -7.546875 C 5.84375 -8.640625 7.554688 -9.1875 8.921875 -9.1875 C 10.203125 -9.1875 10.773438 -8.578125 10.640625 -7.359375 L 10.6875 -7.359375 C 11.757812 -8.578125 12.617188 -9.1875 13.265625 -9.1875 C 13.910156 -9.1875 14.234375 -9.0625 14.234375 -8.8125 C 14.234375 -8.695312 13.953125 -8.304688 13.390625 -7.640625 C 12.835938 -6.984375 10.628906 -4.039062 6.765625 1.1875 L 6.765625 1.234375 L 9.234375 -0.375 C 10.847656 -1.414062 12.265625 -2.421875 13.484375 -3.390625 C 13.941406 -3.890625 14.78125 -4.550781 16 -5.375 C 16.039062 -5.332031 16.0625 -5.296875 16.0625 -5.265625 Z M 10.15625 -7.671875 C 10.15625 -8.316406 9.832031 -8.640625 9.1875 -8.640625 C 8.25 -8.640625 6.6875 -7.609375 4.5 -5.546875 C 2.320312 -3.492188 1.234375 -2.019531 1.234375 -1.125 C 1.234375 -0.695312 1.484375 -0.484375 1.984375 -0.484375 C 3.023438 -0.484375 4.644531 -1.445312 6.84375 -3.375 C 9.050781 -5.3125 10.15625 -6.742188 10.15625 -7.671875 Z M 2.90625 3.328125 L 2.90625 3.28125 C -4.082031 7.675781 -7.878906 10.09375 -8.484375 10.53125 C -13.859375 14.394531 -16.546875 17.472656 -16.546875 19.765625 C -16.546875 20.660156 -16.039062 21.109375 -15.03125 21.109375 C -11.5625 21.109375 -5.582031 15.179688 2.90625 3.328125 Z M 2.90625 3.328125 "></path></g></g></g><g fill="#660208" fill-opacity="1"><g transform="translate(108.26276, 68.057552)"><g><path d="M 18.265625 -5.3125 C 18.191406 -4.78125 16.953125 -3.617188 14.546875 -1.828125 C 12.648438 -0.390625 11.039062 0.328125 9.71875 0.328125 C 8.539062 0.328125 7.953125 -0.0820312 7.953125 -0.90625 C 7.953125 -1.84375 8.765625 -3.1875 10.390625 -4.9375 C 12.015625 -6.695312 12.828125 -7.703125 12.828125 -7.953125 C 12.828125 -8.128906 12.6875 -8.21875 12.40625 -8.21875 C 10.539062 -8.21875 6.925781 -4.890625 1.5625 1.765625 C -0.59375 4.421875 -4.015625 9.003906 -8.703125 15.515625 C -9.378906 16.523438 -10.054688 17.53125 -10.734375 18.53125 C -11.703125 19.851562 -12.4375 20.71875 -12.9375 21.125 C -13.4375 21.539062 -13.867188 21.75 -14.234375 21.75 C -15.054688 21.75 -15.46875 21.300781 -15.46875 20.40625 C -15.46875 19.507812 -14.875 18.1875 -13.6875 16.4375 C -6.601562 6.082031 -0.234375 -2.492188 5.421875 -9.296875 L 5.375 -9.296875 C 1.570312 -5.742188 -0.488281 -3.96875 -0.8125 -3.96875 C -0.625 -4.40625 2.472656 -7.34375 8.484375 -12.78125 C 9.273438 -13.5 9.972656 -13.859375 10.578125 -13.859375 C 11.117188 -13.859375 11.390625 -13.785156 11.390625 -13.640625 C 11.390625 -13.566406 11.101562 -13.191406 10.53125 -12.515625 C 8.5625 -10.222656 5.265625 -6.035156 0.640625 0.046875 C -3.578125 5.566406 -7.066406 10.347656 -9.828125 14.390625 C -12.117188 17.722656 -13.265625 19.585938 -13.265625 19.984375 L -13.265625 20.140625 C -13.234375 20.171875 -13.195312 20.1875 -13.15625 20.1875 C -12.757812 20.1875 -10.773438 17.644531 -7.203125 12.5625 C -2.679688 6.15625 0.898438 1.445312 3.546875 -1.5625 C 7.953125 -6.644531 11.332031 -9.1875 13.6875 -9.1875 C 14.800781 -9.1875 15.359375 -8.828125 15.359375 -8.109375 C 15.359375 -7.390625 14.613281 -6.210938 13.125 -4.578125 C 11.644531 -2.953125 10.90625 -1.890625 10.90625 -1.390625 C 10.90625 -1.066406 11.082031 -0.90625 11.4375 -0.90625 C 12.226562 -0.90625 13.515625 -1.628906 15.296875 -3.078125 C 17.085938 -4.535156 18.078125 -5.28125 18.265625 -5.3125 Z M 18.265625 -5.3125 "></path></g></g></g><g fill="#660208" fill-opacity="1"><g transform="translate(125.770709, 68.057552)"><g><path d="M 12.1875 -5.265625 C 12.1875 -5.160156 12.023438 -4.945312 11.703125 -4.625 C 10.378906 -3.257812 8.910156 -2.113281 7.296875 -1.1875 C 5.398438 -0.0703125 3.648438 0.484375 2.046875 0.484375 C 0.078125 0.484375 -0.90625 -0.175781 -0.90625 -1.5 C -0.90625 -2.46875 -0.476562 -3.523438 0.375 -4.671875 L 0.328125 -4.671875 C -0.171875 -4.128906 -0.515625 -3.859375 -0.703125 -3.859375 C -0.734375 -3.859375 -0.769531 -3.878906 -0.8125 -3.921875 L -0.8125 -4.03125 C -0.8125 -4.03125 -0.789062 -4.101562 -0.75 -4.25 C 0.25 -5.351562 1.71875 -6.441406 3.65625 -7.515625 C 5.726562 -8.628906 7.425781 -9.1875 8.75 -9.1875 C 9.789062 -9.1875 10.3125 -8.71875 10.3125 -7.78125 C 10.3125 -6.175781 7.609375 -4.515625 2.203125 -2.796875 C 1.984375 -2.078125 1.875 -1.59375 1.875 -1.34375 C 1.875 -0.695312 2.285156 -0.375 3.109375 -0.375 C 4.222656 -0.375 5.53125 -0.804688 7.03125 -1.671875 C 8.070312 -2.273438 9.203125 -3.078125 10.421875 -4.078125 C 11.453125 -4.972656 11.988281 -5.421875 12.03125 -5.421875 C 12.132812 -5.421875 12.1875 -5.367188 12.1875 -5.265625 Z M 8.4375 -8 C 8.4375 -8.320312 8.21875 -8.484375 7.78125 -8.484375 C 7.070312 -8.484375 6.085938 -7.800781 4.828125 -6.4375 C 3.867188 -5.40625 3.101562 -4.390625 2.53125 -3.390625 L 2.53125 -3.328125 C 6.46875 -4.578125 8.4375 -6.132812 8.4375 -8 Z M 8.4375 -8 "></path></g></g></g><g fill="#660208" fill-opacity="1"><g transform="translate(137.156242, 68.057552)"><g><path d="M 11.875 -4.9375 C 11.875 -4.476562 10.726562 -3.457031 8.4375 -1.875 C 6.144531 -0.300781 4.03125 0.484375 2.09375 0.484375 C 0.195312 0.484375 -0.75 -0.160156 -0.75 -1.453125 C -0.75 -2.554688 -0.226562 -3.753906 0.8125 -5.046875 L 0.75 -5.046875 C 0.425781 -4.691406 -0.09375 -4.316406 -0.8125 -3.921875 L -0.8125 -4.03125 C -0.8125 -4.101562 -0.789062 -4.175781 -0.75 -4.25 C 0.0703125 -5.25 1.535156 -6.320312 3.640625 -7.46875 C 5.753906 -8.613281 7.40625 -9.1875 8.59375 -9.1875 C 9.84375 -9.1875 10.46875 -8.679688 10.46875 -7.671875 C 10.46875 -7.140625 10.28125 -6.613281 9.90625 -6.09375 C 9.53125 -5.570312 9.09375 -5.3125 8.59375 -5.3125 C 8.09375 -5.3125 7.84375 -5.5625 7.84375 -6.0625 C 7.84375 -6.28125 7.984375 -6.640625 8.265625 -7.140625 C 8.554688 -7.640625 8.703125 -8.015625 8.703125 -8.265625 C 8.703125 -8.515625 8.519531 -8.640625 8.15625 -8.640625 C 7.257812 -8.640625 6.003906 -7.679688 4.390625 -5.765625 C 2.785156 -3.859375 1.984375 -2.398438 1.984375 -1.390625 C 1.984375 -0.710938 2.394531 -0.375 3.21875 -0.375 C 4.6875 -0.375 6.484375 -1.144531 8.609375 -2.6875 C 10.742188 -4.226562 11.8125 -5 11.8125 -5 L 11.875 -5 Z M 11.875 -4.9375 "></path></g></g></g><g fill="#660208" fill-opacity="1"><g transform="translate(148.595481, 68.057552)"><g></g></g></g><g fill="#660208" fill-opacity="1"><g transform="translate(156.812397, 68.057552)"><g><path d="M 17.890625 -5.265625 C 17.890625 -4.835938 16.671875 -3.691406 14.234375 -1.828125 C 12.335938 -0.390625 10.796875 0.328125 9.609375 0.328125 C 8.503906 0.328125 7.953125 -0.101562 7.953125 -0.96875 C 7.953125 -2.039062 8.9375 -3.5625 10.90625 -5.53125 L 10.796875 -5.640625 C 5.992188 -1.660156 2.804688 0.328125 1.234375 0.328125 C 0.0546875 0.328125 -0.53125 -0.101562 -0.53125 -0.96875 C -0.53125 -2.363281 1.078125 -4.597656 4.296875 -7.671875 L 4.296875 -7.734375 C 3.722656 -7.335938 2.863281 -6.691406 1.71875 -5.796875 C 1.289062 -5.398438 0.644531 -4.847656 -0.21875 -4.140625 C -0.425781 -3.992188 -0.601562 -3.921875 -0.75 -3.921875 L -0.8125 -4.03125 C -0.195312 -5 0.96875 -6.054688 2.6875 -7.203125 C 4.550781 -8.453125 6.019531 -9.078125 7.09375 -9.078125 C 7.445312 -9.078125 7.660156 -9.023438 7.734375 -8.921875 C 7.691406 -8.847656 6.707031 -7.578125 4.78125 -5.109375 C 3.164062 -3.066406 2.359375 -1.789062 2.359375 -1.28125 C 2.398438 -1.25 2.453125 -1.175781 2.515625 -1.0625 C 2.585938 -0.957031 2.71875 -0.90625 2.90625 -0.90625 C 3.757812 -0.90625 7.320312 -3.46875 13.59375 -8.59375 C 14.050781 -8.988281 14.566406 -9.1875 15.140625 -9.1875 C 15.890625 -9.1875 16.265625 -9.097656 16.265625 -8.921875 C 16.265625 -8.734375 15.359375 -7.566406 13.546875 -5.421875 C 11.742188 -3.273438 10.84375 -1.929688 10.84375 -1.390625 C 10.84375 -1.253906 10.878906 -1.140625 10.953125 -1.046875 C 11.023438 -0.953125 11.132812 -0.90625 11.28125 -0.90625 C 12.5 -0.90625 14.46875 -2.269531 17.1875 -5 L 17.890625 -5.3125 Z M 17.890625 -5.265625 "></path></g></g></g><g fill="#660208" fill-opacity="1"><g transform="translate(182.215031, 68.057552)"><g><path d="M 16.0625 -5.265625 C 16.0625 -4.722656 14.59375 -3.453125 11.65625 -1.453125 C 9.71875 -0.0859375 7.925781 1.078125 6.28125 2.046875 C 0.09375 11.347656 -6.046875 17.554688 -12.140625 20.671875 C -13.609375 21.421875 -14.84375 21.796875 -15.84375 21.796875 C -17.5625 21.796875 -18.421875 21.171875 -18.421875 19.921875 C -18.421875 18.273438 -16.863281 16.164062 -13.75 13.59375 C -11.488281 11.6875 -8.335938 9.484375 -4.296875 6.984375 C -1.753906 5.472656 0.804688 3.953125 3.390625 2.421875 C 4.242188 1.273438 5.367188 -0.351562 6.765625 -2.46875 L 6.765625 -2.53125 C 4.515625 -0.625 2.5625 0.328125 0.90625 0.328125 C -0.445312 0.328125 -1.125 -0.265625 -1.125 -1.453125 C -1.125 -2.597656 -0.625 -3.65625 0.375 -4.625 L 0.375 -4.671875 C -0.269531 -4.128906 -0.628906 -3.859375 -0.703125 -3.859375 C -0.734375 -3.859375 -0.769531 -3.878906 -0.8125 -3.921875 L -0.8125 -4.03125 C -0.8125 -4.03125 -0.789062 -4.101562 -0.75 -4.25 C 0.21875 -5.351562 1.726562 -6.453125 3.78125 -7.546875 C 5.84375 -8.640625 7.554688 -9.1875 8.921875 -9.1875 C 10.203125 -9.1875 10.773438 -8.578125 10.640625 -7.359375 L 10.6875 -7.359375 C 11.757812 -8.578125 12.617188 -9.1875 13.265625 -9.1875 C 13.910156 -9.1875 14.234375 -9.0625 14.234375 -8.8125 C 14.234375 -8.695312 13.953125 -8.304688 13.390625 -7.640625 C 12.835938 -6.984375 10.628906 -4.039062 6.765625 1.1875 L 6.765625 1.234375 L 9.234375 -0.375 C 10.847656 -1.414062 12.265625 -2.421875 13.484375 -3.390625 C 13.941406 -3.890625 14.78125 -4.550781 16 -5.375 C 16.039062 -5.332031 16.0625 -5.296875 16.0625 -5.265625 Z M 10.15625 -7.671875 C 10.15625 -8.316406 9.832031 -8.640625 9.1875 -8.640625 C 8.25 -8.640625 6.6875 -7.609375 4.5 -5.546875 C 2.320312 -3.492188 1.234375 -2.019531 1.234375 -1.125 C 1.234375 -0.695312 1.484375 -0.484375 1.984375 -0.484375 C 3.023438 -0.484375 4.644531 -1.445312 6.84375 -3.375 C 9.050781 -5.3125 10.15625 -6.742188 10.15625 -7.671875 Z M 2.90625 3.328125 L 2.90625 3.28125 C -4.082031 7.675781 -7.878906 10.09375 -8.484375 10.53125 C -13.859375 14.394531 -16.546875 17.472656 -16.546875 19.765625 C -16.546875 20.660156 -16.039062 21.109375 -15.03125 21.109375 C -11.5625 21.109375 -5.582031 15.179688 2.90625 3.328125 Z M 2.90625 3.328125 "></path></g></g></g><g fill="#660208" fill-opacity="1"><g transform="translate(197.521054, 68.057552)"><g><path d="M 16.21875 -5.3125 C 16.21875 -4.957031 14.984375 -3.796875 12.515625 -1.828125 C 10.722656 -0.390625 9.179688 0.328125 7.890625 0.328125 C 6.859375 0.328125 6.34375 -0.101562 6.34375 -0.96875 C 6.34375 -1.613281 6.59375 -2.203125 7.09375 -2.734375 L 7.03125 -2.734375 C 4.78125 -0.691406 2.757812 0.328125 0.96875 0.328125 C -0.394531 0.328125 -1.078125 -0.265625 -1.078125 -1.453125 C -1.078125 -2.484375 -0.578125 -3.570312 0.421875 -4.71875 L 0.375 -4.71875 C -0.15625 -4.144531 -0.492188 -3.859375 -0.640625 -3.859375 C -0.710938 -3.859375 -0.769531 -3.878906 -0.8125 -3.921875 L -0.8125 -4.03125 C -0.8125 -4.03125 -0.789062 -4.101562 -0.75 -4.25 C 0.144531 -5.320312 1.640625 -6.421875 3.734375 -7.546875 C 5.828125 -8.671875 7.5 -9.234375 8.75 -9.234375 C 10.007812 -9.234375 10.640625 -8.769531 10.640625 -7.84375 C 10.640625 -7.625 10.601562 -7.390625 10.53125 -7.140625 L 10.578125 -7.140625 C 11.796875 -8.503906 12.90625 -9.1875 13.90625 -9.1875 C 14.375 -9.1875 14.609375 -9.128906 14.609375 -9.015625 C 14.609375 -8.910156 13.691406 -7.753906 11.859375 -5.546875 C 10.035156 -3.347656 9.125 -1.894531 9.125 -1.1875 L 9.234375 -0.90625 C 9.335938 -0.875 9.460938 -0.859375 9.609375 -0.859375 C 10.359375 -0.859375 11.601562 -1.597656 13.34375 -3.078125 C 15.082031 -4.566406 16.023438 -5.332031 16.171875 -5.375 C 16.203125 -5.332031 16.21875 -5.3125 16.21875 -5.3125 Z M 10.15625 -7.671875 C 10.15625 -8.316406 9.8125 -8.640625 9.125 -8.640625 C 8.195312 -8.640625 6.648438 -7.601562 4.484375 -5.53125 C 2.316406 -3.457031 1.234375 -1.988281 1.234375 -1.125 C 1.234375 -0.695312 1.46875 -0.484375 1.9375 -0.484375 C 2.96875 -0.484375 4.59375 -1.445312 6.8125 -3.375 C 9.039062 -5.3125 10.15625 -6.742188 10.15625 -7.671875 Z M 10.15625 -7.671875 "></path></g></g></g><g fill="#660208" fill-opacity="1"><g transform="translate(212.988208, 68.057552)"><g><path d="M 28.1875 -5.265625 C 28.1875 -4.835938 26.953125 -3.691406 24.484375 -1.828125 C 22.554688 -0.390625 20.945312 0.328125 19.65625 0.328125 C 18.613281 0.328125 18.09375 -0.0820312 18.09375 -0.90625 C 18.09375 -1.726562 18.878906 -3.070312 20.453125 -4.9375 C 22.035156 -6.800781 22.828125 -7.820312 22.828125 -8 C 22.828125 -8.175781 22.703125 -8.265625 22.453125 -8.265625 C 21.378906 -8.265625 19.15625 -6.847656 15.78125 -4.015625 C 12.414062 -1.191406 10.378906 0.21875 9.671875 0.21875 C 9.097656 0.21875 8.8125 0.109375 8.8125 -0.109375 C 8.8125 -0.828125 9.710938 -2.285156 11.515625 -4.484375 C 13.328125 -6.679688 14.234375 -7.835938 14.234375 -7.953125 C 14.234375 -8.160156 14.085938 -8.265625 13.796875 -8.265625 C 12.835938 -8.265625 10.617188 -6.847656 7.140625 -4.015625 C 3.671875 -1.191406 1.648438 0.21875 1.078125 0.21875 C 0.460938 0.21875 0.15625 0.109375 0.15625 -0.109375 C 0.15625 -0.609375 1.015625 -1.992188 2.734375 -4.265625 C 4.453125 -6.535156 5.332031 -7.691406 5.375 -7.734375 C 5.300781 -7.953125 5.191406 -8.0625 5.046875 -8.0625 C 4.441406 -8.0625 3.347656 -7.359375 1.765625 -5.953125 C 0.191406 -4.554688 -0.609375 -3.859375 -0.640625 -3.859375 C -0.785156 -3.859375 -0.859375 -3.929688 -0.859375 -4.078125 C -0.859375 -4.296875 0.300781 -5.390625 2.625 -7.359375 C 4.0625 -8.578125 5.316406 -9.1875 6.390625 -9.1875 C 7.285156 -9.1875 7.734375 -8.773438 7.734375 -7.953125 C 7.734375 -7.335938 6.585938 -5.546875 4.296875 -2.578125 L 4.453125 -2.53125 C 9.722656 -6.96875 13.195312 -9.1875 14.875 -9.1875 C 16.019531 -9.1875 16.59375 -8.773438 16.59375 -7.953125 C 16.59375 -7.335938 16.109375 -6.421875 15.140625 -5.203125 C 14.390625 -4.347656 13.640625 -3.472656 12.890625 -2.578125 L 13.046875 -2.53125 C 18.304688 -6.96875 21.796875 -9.1875 23.515625 -9.1875 C 24.628906 -9.1875 25.1875 -8.789062 25.1875 -8 C 25.1875 -7.394531 24.488281 -6.222656 23.09375 -4.484375 C 21.695312 -2.742188 21 -1.644531 21 -1.1875 L 21.046875 -0.96875 C 21.160156 -0.925781 21.285156 -0.90625 21.421875 -0.90625 C 22.179688 -0.90625 23.328125 -1.535156 24.859375 -2.796875 C 26.796875 -4.335938 27.90625 -5.175781 28.1875 -5.3125 Z M 28.1875 -5.265625 "></path></g></g></g><g fill="#660208" fill-opacity="1"><g transform="translate(240.485356, 68.057552)"><g><path d="M 16.21875 -5.3125 C 16.21875 -4.957031 14.984375 -3.796875 12.515625 -1.828125 C 10.722656 -0.390625 9.179688 0.328125 7.890625 0.328125 C 6.859375 0.328125 6.34375 -0.101562 6.34375 -0.96875 C 6.34375 -1.613281 6.59375 -2.203125 7.09375 -2.734375 L 7.03125 -2.734375 C 4.78125 -0.691406 2.757812 0.328125 0.96875 0.328125 C -0.394531 0.328125 -1.078125 -0.265625 -1.078125 -1.453125 C -1.078125 -2.484375 -0.578125 -3.570312 0.421875 -4.71875 L 0.375 -4.71875 C -0.15625 -4.144531 -0.492188 -3.859375 -0.640625 -3.859375 C -0.710938 -3.859375 -0.769531 -3.878906 -0.8125 -3.921875 L -0.8125 -4.03125 C -0.8125 -4.03125 -0.789062 -4.101562 -0.75 -4.25 C 0.144531 -5.320312 1.640625 -6.421875 3.734375 -7.546875 C 5.828125 -8.671875 7.5 -9.234375 8.75 -9.234375 C 10.007812 -9.234375 10.640625 -8.769531 10.640625 -7.84375 C 10.640625 -7.625 10.601562 -7.390625 10.53125 -7.140625 L 10.578125 -7.140625 C 11.796875 -8.503906 12.90625 -9.1875 13.90625 -9.1875 C 14.375 -9.1875 14.609375 -9.128906 14.609375 -9.015625 C 14.609375 -8.910156 13.691406 -7.753906 11.859375 -5.546875 C 10.035156 -3.347656 9.125 -1.894531 9.125 -1.1875 L 9.234375 -0.90625 C 9.335938 -0.875 9.460938 -0.859375 9.609375 -0.859375 C 10.359375 -0.859375 11.601562 -1.597656 13.34375 -3.078125 C 15.082031 -4.566406 16.023438 -5.332031 16.171875 -5.375 C 16.203125 -5.332031 16.21875 -5.3125 16.21875 -5.3125 Z M 10.15625 -7.671875 C 10.15625 -8.316406 9.8125 -8.640625 9.125 -8.640625 C 8.195312 -8.640625 6.648438 -7.601562 4.484375 -5.53125 C 2.316406 -3.457031 1.234375 -1.988281 1.234375 -1.125 C 1.234375 -0.695312 1.46875 -0.484375 1.9375 -0.484375 C 2.96875 -0.484375 4.59375 -1.445312 6.8125 -3.375 C 9.039062 -5.3125 10.15625 -6.742188 10.15625 -7.671875 Z M 10.15625 -7.671875 "></path></g></g></g><g fill="#660208" fill-opacity="1"><g transform="translate(255.952495, 68.057552)"><g><path d="M 6.71875 -7.09375 C 6.71875 -6.59375 6.367188 -6.085938 5.671875 -5.578125 C 4.972656 -5.078125 4.351562 -4.828125 3.8125 -4.828125 C 3.664062 -4.972656 3.59375 -5.242188 3.59375 -5.640625 C 3.59375 -6.992188 4.347656 -7.671875 5.859375 -7.671875 C 6.429688 -7.671875 6.71875 -7.476562 6.71875 -7.09375 Z M 4.140625 -1.765625 C 4.140625 -1.265625 3.789062 -0.765625 3.09375 -0.265625 C 2.394531 0.234375 1.773438 0.484375 1.234375 0.484375 C 1.085938 0.335938 1.015625 0.0664062 1.015625 -0.328125 C 1.015625 -1.679688 1.769531 -2.359375 3.28125 -2.359375 C 3.851562 -2.359375 4.140625 -2.160156 4.140625 -1.765625 Z M 4.140625 -1.765625 "></path></g></g></g></g></g></svg> 