<?xml version="1.0" encoding="UTF-8"?> <svg xmlns="http://www.w3.org/2000/svg" xmlns:xlink="http://www.w3.org/1999/xlink" width="360" zoomAndPan="magnify" viewBox="0 0 270 359.999987" height="480" preserveAspectRatio="xMidYMid meet" version="1.0"><defs><g></g><clipPath id="aab18e2995"><rect x="0" width="226" y="0" height="126"></rect></clipPath></defs><g transform="matrix(1, 0, 0, 1, 25, 117)"><g clip-path="url(#aab18e2995)"><g fill="#ffffff" fill-opacity="1"><g transform="translate(2.017977, 79.014656)"><g><path d="M 120.40625 -59.859375 L 119.734375 -59.421875 C 111.734375 -54.554688 102.238281 -45.140625 91.25 -31.171875 C 80.644531 -17.785156 75.34375 -8.960938 75.34375 -4.703125 C 75.34375 -2.085938 76.425781 -0.78125 78.59375 -0.78125 C 81.582031 -0.78125 86.660156 -5.488281 93.828125 -14.90625 L 94.390625 -14.34375 C 87.441406 -4.78125 82.140625 0 78.484375 0 C 75.566406 0 74.109375 -1.71875 74.109375 -5.15625 C 74.109375 -9.644531 76.125 -15.285156 80.15625 -22.078125 C 81.207031 -23.804688 82.515625 -25.710938 84.078125 -27.796875 L 75.78125 -27.796875 C 75.039062 -26.828125 73.957031 -25.519531 72.53125 -23.875 C 57.957031 -7.28125 43.125 1.015625 28.03125 1.015625 C 23.09375 1.015625 18.71875 -0.519531 14.90625 -3.59375 C 11.695312 -6.28125 9.679688 -9.269531 8.859375 -12.5625 C 2.953125 -16 0 -21.226562 0 -28.25 C 0 -35.28125 2.632812 -41.332031 7.90625 -46.40625 C 13.175781 -51.488281 19.804688 -54.03125 27.796875 -54.03125 C 34.523438 -54.03125 39.535156 -51.488281 42.828125 -46.40625 C 46.191406 -45.664062 48.992188 -44.132812 51.234375 -41.8125 C 53.472656 -39.5 54.59375 -36.695312 54.59375 -33.40625 C 54.59375 -31.988281 54.40625 -30.457031 54.03125 -28.8125 L 66.03125 -28.8125 C 81.945312 -49.507812 99.550781 -59.9375 118.84375 -60.09375 C 119.882812 -60.09375 120.40625 -60.015625 120.40625 -59.859375 Z M 117.9375 -59.3125 C 110.613281 -59.3125 104.222656 -57.703125 98.765625 -54.484375 C 94.578125 -51.941406 90.46875 -48.054688 86.4375 -42.828125 C 83.144531 -38.191406 79.859375 -33.519531 76.578125 -28.8125 L 84.859375 -28.8125 C 89.578125 -34.863281 95.484375 -41.101562 102.578125 -47.53125 C 108.929688 -53.21875 114.050781 -57.144531 117.9375 -59.3125 Z M 53.46875 -33.640625 C 53.46875 -39.390625 50.21875 -43.050781 43.71875 -44.625 C 44.46875 -42.976562 44.84375 -41.070312 44.84375 -38.90625 C 44.769531 -35.238281 43.648438 -31.910156 41.484375 -28.921875 C 39.015625 -25.554688 35.722656 -23.351562 31.609375 -22.3125 C 30.785156 -22.3125 30.335938 -22.421875 30.265625 -22.640625 C 30.265625 -23.085938 30.453125 -23.332031 30.828125 -23.375 C 31.203125 -23.414062 31.765625 -23.507812 32.515625 -23.65625 C 35.878906 -24.695312 38.601562 -26.675781 40.6875 -29.59375 C 42.78125 -32.507812 43.867188 -35.6875 43.953125 -39.125 C 43.953125 -41.144531 43.460938 -43.085938 42.484375 -44.953125 C 40.992188 -45.109375 39.800781 -45.1875 38.90625 -45.1875 C 30.757812 -45.1875 23.65625 -42.34375 17.59375 -36.65625 C 11.84375 -31.28125 8.96875 -25.300781 8.96875 -18.71875 C 8.96875 -16.40625 9.15625 -14.613281 9.53125 -13.34375 C 12.519531 -11.101562 17.113281 -9.984375 23.3125 -9.984375 C 29.445312 -9.984375 35.316406 -11.550781 40.921875 -14.6875 C 46.898438 -18.125 50.785156 -22.492188 52.578125 -27.796875 L 46.75 -27.796875 L 47.640625 -28.8125 L 52.921875 -28.8125 C 53.285156 -30.082031 53.46875 -31.691406 53.46875 -33.640625 Z M 41.25 -46.640625 C 38.34375 -50.378906 33.859375 -52.25 27.796875 -52.25 C 20.328125 -52.25 13.992188 -49.835938 8.796875 -45.015625 C 3.609375 -40.191406 1.015625 -34.453125 1.015625 -27.796875 C 1.015625 -21.816406 3.515625 -17.148438 8.515625 -13.796875 C 8.140625 -15.660156 7.953125 -17.226562 7.953125 -18.5 C 7.953125 -25.675781 10.535156 -32.03125 15.703125 -37.5625 C 21.523438 -43.757812 29.144531 -46.859375 38.5625 -46.859375 C 39.164062 -46.859375 40.0625 -46.785156 41.25 -46.640625 Z M 65.140625 -27.796875 L 53.703125 -27.796875 C 51.910156 -22.191406 47.875 -17.597656 41.59375 -14.015625 C 35.6875 -10.648438 29.59375 -8.96875 23.3125 -8.96875 C 17.78125 -8.96875 13.335938 -9.976562 9.984375 -12 C 10.953125 -8.9375 12.96875 -6.242188 16.03125 -3.921875 C 19.539062 -1.234375 23.503906 0.109375 27.921875 0.109375 C 35.535156 0.109375 42.445312 -2.503906 48.65625 -7.734375 C 51.71875 -10.421875 55.941406 -15.351562 61.328125 -22.53125 C 61.992188 -23.5 63.265625 -25.253906 65.140625 -27.796875 Z M 65.140625 -27.796875 "></path></g></g><g transform="translate(92.03643, 79.014656)"><g><path d="M 32.171875 -13.5625 C 29.410156 -9.75 26.195312 -6.382812 22.53125 -3.46875 C 19.320312 -0.925781 15.660156 1.015625 11.546875 2.359375 L 5.15625 12.109375 C 2.164062 16.671875 -0.929688 20.3125 -4.140625 23.03125 C -7.359375 25.757812 -10.015625 27.125 -12.109375 27.125 C -14.128906 27.125 -15.140625 26.117188 -15.140625 24.109375 C -15.140625 21.191406 -12.929688 17.582031 -8.515625 13.28125 C -4.109375 8.988281 1.378906 5.382812 7.953125 2.46875 C 8.929688 0.96875 11.0625 -2.429688 14.34375 -7.734375 C 9.1875 -2.578125 5.5625 0 3.46875 0 C 1.300781 0 0.21875 -1.421875 0.21875 -4.265625 C 0.144531 -9.566406 2.6875 -14.5 7.84375 -19.0625 C 12.625 -23.164062 17.1875 -25.21875 21.53125 -25.21875 C 23.320312 -25.21875 24.21875 -24.132812 24.21875 -21.96875 L 26.015625 -24.546875 L 26.125 -24.546875 L 26.234375 -24.78125 C 26.828125 -24.550781 27.570312 -24.4375 28.46875 -24.4375 C 29.59375 -24.4375 30.378906 -24.550781 30.828125 -24.78125 C 22.003906 -12.519531 15.875 -3.921875 12.4375 1.015625 C 16.101562 -0.335938 19.28125 -2.054688 21.96875 -4.140625 C 25.40625 -6.835938 28.617188 -10.164062 31.609375 -14.125 Z M 23.4375 -22.765625 C 23.4375 -23.953125 22.722656 -24.546875 21.296875 -24.546875 C 18.679688 -24.546875 14.796875 -21.613281 9.640625 -15.75 C 4.484375 -9.882812 1.90625 -5.457031 1.90625 -2.46875 C 2.050781 -1.414062 2.6875 -0.890625 3.8125 -0.890625 C 4.9375 -0.890625 6.632812 -1.84375 8.90625 -3.75 C 11.1875 -5.65625 13.265625 -7.804688 15.140625 -10.203125 C 17.679688 -13.492188 19.695312 -16.179688 21.1875 -18.265625 C 22.6875 -20.359375 23.4375 -21.859375 23.4375 -22.765625 Z M 7.171875 3.8125 C 1.347656 6.5 -3.617188 9.9375 -7.734375 14.125 C -11.847656 18.3125 -13.90625 21.710938 -13.90625 24.328125 C -13.90625 25.523438 -13.304688 26.125 -12.109375 26.125 C -10.691406 26.125 -8.898438 25.148438 -6.734375 23.203125 C -4.109375 20.816406 0.523438 14.351562 7.171875 3.8125 Z M 7.171875 3.8125 "></path></g></g><g transform="translate(120.286305, 79.014656)"><g><path d="M 6.390625 -11.890625 C 8.035156 -13.160156 9.378906 -13.796875 10.421875 -13.796875 C 11.171875 -13.796875 12.101562 -13.566406 13.21875 -13.109375 C 14.34375 -12.660156 15.207031 -12.4375 15.8125 -12.4375 C 16.332031 -12.4375 16.890625 -12.550781 17.484375 -12.78125 C 17.710938 -12.851562 17.898438 -12.925781 18.046875 -13 C 19.691406 -15.695312 20.515625 -18.128906 20.515625 -20.296875 C 20.515625 -22.984375 19.394531 -24.328125 17.15625 -24.328125 C 13.9375 -24.328125 8.925781 -19.878906 2.125 -10.984375 L 1.453125 -11.546875 C 8.410156 -20.585938 13.71875 -25.109375 17.375 -25.109375 C 21.332031 -25.109375 23.3125 -22.90625 23.3125 -18.5 C 23.3125 -13.863281 20.921875 -9.488281 16.140625 -5.375 C 14.046875 -3.582031 12.03125 -2.238281 10.09375 -1.34375 C 13.601562 -1.570312 17.300781 -2.804688 21.1875 -5.046875 C 25.144531 -7.429688 28.546875 -10.570312 31.390625 -14.46875 L 32.0625 -13.90625 C 25.257812 -5.082031 17.039062 -0.5625 7.40625 -0.34375 C 6.351562 -0.0390625 5.304688 0.109375 4.265625 0.109375 C 2.460938 0.109375 1.5625 -0.75 1.5625 -2.46875 C 1.5625 -3.882812 2.046875 -5.191406 3.015625 -6.390625 C 3.992188 -7.585938 5.003906 -8.1875 6.046875 -8.1875 C 7.316406 -8.1875 7.953125 -7.585938 7.953125 -6.390625 C 7.953125 -5.265625 7.128906 -4.253906 5.484375 -3.359375 C 3.847656 -2.460938 3.03125 -1.828125 3.03125 -1.453125 C 3.03125 -0.929688 3.441406 -0.671875 4.265625 -0.671875 C 6.804688 -0.671875 10.128906 -3.097656 14.234375 -7.953125 C 15.578125 -9.453125 16.695312 -10.875 17.59375 -12.21875 L 17.484375 -12.21875 C 16.515625 -11.695312 15.734375 -11.4375 15.140625 -11.4375 C 14.460938 -11.4375 13.5625 -11.660156 12.4375 -12.109375 C 11.320312 -12.554688 10.425781 -12.78125 9.75 -12.78125 C 8.78125 -12.78125 7.734375 -12.441406 6.609375 -11.765625 C 6.460938 -11.765625 6.390625 -11.804688 6.390625 -11.890625 Z M 6.390625 -11.890625 "></path></g></g><g transform="translate(147.863564, 79.014656)"><g><path d="M 27.921875 -24.78125 C 28.367188 -24.550781 29.078125 -24.4375 30.046875 -24.4375 C 31.085938 -24.4375 31.910156 -24.550781 32.515625 -24.78125 C 30.566406 -22.164062 28.132812 -19.304688 25.21875 -16.203125 C 22.3125 -13.097656 19.695312 -10.015625 17.375 -6.953125 C 16.550781 -5.898438 15.894531 -5.019531 15.40625 -4.3125 C 14.925781 -3.601562 14.6875 -2.953125 14.6875 -2.359375 C 14.6875 -1.304688 15.25 -0.78125 16.375 -0.78125 C 16.820312 -0.78125 17.625 -1.335938 18.78125 -2.453125 C 19.9375 -3.578125 21.28125 -4.976562 22.8125 -6.65625 C 24.34375 -8.34375 26.003906 -10.175781 27.796875 -12.15625 C 29.597656 -14.144531 31.359375 -16.015625 33.078125 -17.765625 C 34.796875 -19.523438 36.398438 -21.039062 37.890625 -22.3125 C 39.390625 -23.582031 40.625 -24.328125 41.59375 -24.546875 C 41.59375 -24.628906 41.554688 -24.554688 41.484375 -24.328125 L 41.59375 -24.4375 L 41.59375 -24.546875 C 41.664062 -24.546875 41.703125 -24.566406 41.703125 -24.609375 C 41.703125 -24.648438 41.738281 -24.671875 41.8125 -24.671875 C 41.8125 -24.585938 41.789062 -24.546875 41.75 -24.546875 C 41.71875 -24.546875 41.703125 -24.507812 41.703125 -24.4375 C 42.078125 -24.4375 42.75 -24.4375 43.71875 -24.4375 C 44.84375 -24.4375 45.664062 -24.550781 46.1875 -24.78125 C 40.957031 -18.800781 36.097656 -12.820312 31.609375 -6.84375 C 30.117188 -4.820312 29.375 -3.328125 29.375 -2.359375 C 29.375 -1.304688 29.894531 -0.78125 30.9375 -0.78125 C 33.851562 -0.78125 38.785156 -5.226562 45.734375 -14.125 L 46.40625 -13.5625 C 39.082031 -4.519531 33.851562 0 30.71875 0 C 29 0 28.140625 -1.082031 28.140625 -3.25 C 28.140625 -6.613281 29.597656 -10.085938 32.515625 -13.671875 L 41.03125 -23.765625 C 38.414062 -21.828125 35.816406 -19.507812 33.234375 -16.8125 C 30.660156 -14.125 28.269531 -11.523438 26.0625 -9.015625 C 23.863281 -6.515625 21.882812 -4.382812 20.125 -2.625 C 18.363281 -0.875 17.035156 0 16.140625 0 C 14.273438 0 13.34375 -1.15625 13.34375 -3.46875 C 13.34375 -5.1875 13.734375 -6.679688 14.515625 -7.953125 C 15.304688 -9.222656 16.148438 -10.609375 17.046875 -12.109375 L 26.234375 -22.421875 C 26.378906 -22.867188 26.226562 -22.921875 25.78125 -22.578125 C 25.332031 -22.242188 24.695312 -21.664062 23.875 -20.84375 C 23.050781 -20.03125 22.113281 -19.039062 21.0625 -17.875 C 20.019531 -16.71875 18.957031 -15.519531 17.875 -14.28125 C 16.789062 -13.050781 15.742188 -11.894531 14.734375 -10.8125 C 13.734375 -9.726562 12.859375 -8.816406 12.109375 -8.078125 C 10.460938 -6.429688 9.113281 -5.082031 8.0625 -4.03125 C 7.019531 -2.988281 6.160156 -2.1875 5.484375 -1.625 C 4.816406 -1.0625 4.273438 -0.664062 3.859375 -0.4375 C 3.453125 -0.21875 3.0625 -0.109375 2.6875 -0.109375 C 0.96875 -0.109375 -0.1875 -0.664062 -0.78125 -1.78125 C -1.382812 -2.90625 -1.59375 -4.195312 -1.40625 -5.65625 C -1.21875 -7.113281 -0.804688 -8.585938 -0.171875 -10.078125 C 0.460938 -11.578125 1.15625 -12.703125 1.90625 -13.453125 C 2.945312 -14.578125 3.765625 -15.191406 4.359375 -15.296875 C 4.960938 -15.410156 5.335938 -15.257812 5.484375 -14.84375 C 5.640625 -14.4375 5.546875 -13.914062 5.203125 -13.28125 C 4.867188 -12.644531 4.332031 -12.101562 3.59375 -11.65625 C 2.46875 -10.757812 1.550781 -9.65625 0.84375 -8.34375 C 0.132812 -7.039062 -0.289062 -5.8125 -0.4375 -4.65625 C -0.59375 -3.5 -0.460938 -2.523438 -0.046875 -1.734375 C 0.359375 -0.953125 1.082031 -0.632812 2.125 -0.78125 C 2.570312 -0.851562 3.410156 -1.429688 4.640625 -2.515625 C 5.878906 -3.597656 7.285156 -4.941406 8.859375 -6.546875 C 10.429688 -8.160156 12.128906 -9.9375 13.953125 -11.875 C 15.785156 -13.820312 17.5625 -15.671875 19.28125 -17.421875 C 21 -19.179688 22.566406 -20.753906 23.984375 -22.140625 C 25.410156 -23.523438 26.535156 -24.476562 27.359375 -25 Z M 27.921875 -24.78125 "></path></g></g><g transform="translate(190.686788, 79.014656)"><g><path d="M 31.28125 -13.5625 C 24.550781 -4.519531 19.503906 0 16.140625 0 C 14.203125 0 13.234375 -1.15625 13.234375 -3.46875 C 13.234375 -4.96875 13.53125 -6.390625 14.125 -7.734375 C 12.707031 -6.316406 11.285156 -4.894531 9.859375 -3.46875 C 7.242188 -1.15625 5.113281 0 3.46875 0 C 1.15625 0 0 -1.457031 0 -4.375 C -0.0703125 -9.53125 2.503906 -14.390625 7.734375 -18.953125 C 12.441406 -23.128906 16.925781 -25.21875 21.1875 -25.21875 C 23.050781 -25.21875 23.984375 -24.132812 23.984375 -21.96875 L 26.125 -24.78125 C 26.71875 -24.550781 27.425781 -24.4375 28.25 -24.4375 C 29.144531 -24.4375 29.96875 -24.550781 30.71875 -24.78125 C 27.800781 -21.34375 22.832031 -14.875 15.8125 -5.375 C 15.0625 -4.40625 14.6875 -3.398438 14.6875 -2.359375 C 14.6875 -1.304688 15.25 -0.78125 16.375 -0.78125 C 19.4375 -0.78125 24.179688 -5.226562 30.609375 -14.125 Z M 23.203125 -22.53125 C 23.203125 -23.800781 22.566406 -24.4375 21.296875 -24.4375 C 18.679688 -24.4375 14.757812 -21.613281 9.53125 -15.96875 C 4.300781 -10.332031 1.6875 -5.90625 1.6875 -2.6875 C 1.757812 -1.488281 2.394531 -0.890625 3.59375 -0.890625 C 5.976562 -0.890625 9.378906 -3.546875 13.796875 -8.859375 C 17.378906 -13.191406 19.914062 -16.367188 21.40625 -18.390625 C 22.601562 -20.035156 23.203125 -21.414062 23.203125 -22.53125 Z M 23.203125 -22.53125 "></path></g></g></g></g></g></svg> 