<?xml version="1.0" encoding="UTF-8"?> <svg xmlns="http://www.w3.org/2000/svg" xmlns:xlink="http://www.w3.org/1999/xlink" width="360" zoomAndPan="magnify" viewBox="0 0 270 359.999987" height="480" preserveAspectRatio="xMidYMid meet" version="1.0"><defs><g></g><clipPath id="70ef2720d1"><rect x="0" width="259" y="0" height="78"></rect></clipPath><clipPath id="984e3cdff9"><path d="M 84.4375 149.644531 L 88.113281 149.644531 L 88.113281 153.375 L 84.4375 153.375 Z M 84.4375 149.644531 " clip-rule="nonzero"></path></clipPath><clipPath id="20a7227ed5"><path d="M 85.140625 150.171875 C 87.175781 149.308594 87.738281 149.742188 87.953125 150.085938 C 88.128906 150.390625 88.128906 150.867188 88 151.300781 C 87.867188 151.777344 87.433594 152.46875 87.046875 152.816406 C 86.742188 153.074219 86.4375 153.246094 86.09375 153.335938 C 85.703125 153.378906 85.054688 153.335938 84.75 153.074219 C 84.492188 152.769531 84.359375 151.992188 84.535156 151.472656 C 84.75 150.910156 85.964844 149.871094 86.265625 149.914062 C 86.394531 149.914062 86.527344 150.261719 86.527344 150.261719 C 86.527344 150.261719 86.265625 149.871094 86.308594 149.871094 C 86.308594 149.871094 86.570312 150.042969 86.570312 150.171875 C 86.570312 150.476562 85.097656 151.167969 84.921875 151.6875 C 84.792969 152.078125 84.878906 152.640625 85.097656 152.816406 C 85.398438 153.03125 86.222656 152.859375 86.613281 152.640625 C 87.046875 152.382812 87.433594 151.601562 87.609375 151.167969 C 87.695312 150.910156 87.695312 150.605469 87.609375 150.390625 C 87.523438 150.128906 87.261719 149.785156 87.003906 149.742188 C 86.570312 149.652344 85.574219 150.648438 85.3125 150.5625 C 85.183594 150.519531 85.140625 150.171875 85.140625 150.171875 " clip-rule="nonzero"></path></clipPath><clipPath id="24e047d62d"><path d="M 0.4375 0.644531 L 4.113281 0.644531 L 4.113281 4.375 L 0.4375 4.375 Z M 0.4375 0.644531 " clip-rule="nonzero"></path></clipPath><clipPath id="c46b91a4d1"><path d="M 1.140625 1.171875 C 3.175781 0.308594 3.738281 0.742188 3.953125 1.085938 C 4.128906 1.390625 4.128906 1.867188 4 2.300781 C 3.867188 2.777344 3.433594 3.46875 3.046875 3.816406 C 2.742188 4.074219 2.4375 4.246094 2.09375 4.335938 C 1.703125 4.378906 1.054688 4.335938 0.75 4.074219 C 0.492188 3.769531 0.359375 2.992188 0.535156 2.472656 C 0.75 1.910156 1.964844 0.871094 2.265625 0.914062 C 2.394531 0.914062 2.527344 1.261719 2.527344 1.261719 C 2.527344 1.261719 2.265625 0.871094 2.308594 0.871094 C 2.308594 0.871094 2.570312 1.042969 2.570312 1.171875 C 2.570312 1.476562 1.097656 2.167969 0.921875 2.6875 C 0.792969 3.078125 0.878906 3.640625 1.097656 3.816406 C 1.398438 4.03125 2.222656 3.859375 2.613281 3.640625 C 3.046875 3.382812 3.433594 2.601562 3.609375 2.167969 C 3.695312 1.910156 3.695312 1.605469 3.609375 1.390625 C 3.523438 1.128906 3.261719 0.785156 3.003906 0.742188 C 2.570312 0.652344 1.574219 1.648438 1.3125 1.5625 C 1.183594 1.519531 1.140625 1.171875 1.140625 1.171875 " clip-rule="nonzero"></path></clipPath><clipPath id="9d540f33e5"><rect x="0" width="5" y="0" height="5"></rect></clipPath></defs><g transform="matrix(1, 0, 0, 1, 10, 123)"><g clip-path="url(#70ef2720d1)"><g fill="#492c01" fill-opacity="1"><g transform="translate(0.962183, 27.399355)"><g><path d="M 42.1875 -11.265625 C 43.769531 -12.953125 45.289062 -14.46875 46.75 -15.8125 C 48.21875 -17.15625 49.5625 -18.257812 50.78125 -19.125 C 50.050781 -19.144531 49.160156 -19.195312 48.109375 -19.28125 C 47.054688 -19.363281 46.015625 -19.460938 44.984375 -19.578125 C 43.910156 -18.578125 42.960938 -17.664062 42.140625 -16.84375 C 41.328125 -16.019531 40.550781 -15.21875 39.8125 -14.4375 C 39.070312 -13.65625 38.316406 -12.832031 37.546875 -11.96875 C 36.773438 -11.101562 35.910156 -10.117188 34.953125 -9.015625 C 34.410156 -8.390625 33.765625 -7.632812 33.015625 -6.75 C 32.273438 -5.875 31.515625 -4.941406 30.734375 -3.953125 C 29.960938 -2.972656 29.273438 -2.03125 28.671875 -1.125 C 28.484375 -0.820312 28.273438 -0.476562 28.046875 -0.09375 C 27.828125 0.289062 27.625 0.6875 27.4375 1.09375 C 26.945312 1.09375 26.703125 0.765625 26.703125 0.109375 C 26.703125 -0.523438 26.960938 -1.285156 27.484375 -2.171875 C 27.765625 -2.640625 28.132812 -3.1875 28.59375 -3.8125 C 29.0625 -4.445312 29.578125 -5.101562 30.140625 -5.78125 C 30.703125 -6.46875 31.242188 -7.113281 31.765625 -7.71875 C 32.296875 -8.332031 32.75 -8.835938 33.125 -9.234375 C 33.6875 -9.859375 34.382812 -10.609375 35.21875 -11.484375 C 36.050781 -12.367188 36.945312 -13.300781 37.90625 -14.28125 C 38.863281 -15.257812 39.828125 -16.222656 40.796875 -17.171875 C 41.765625 -18.117188 42.671875 -18.976562 43.515625 -19.75 C 42.535156 -19.875 41.613281 -20 40.75 -20.125 C 39.882812 -20.25 39.191406 -20.347656 38.671875 -20.421875 C 37.410156 -19.234375 36.109375 -17.925781 34.765625 -16.5 C 33.421875 -15.070312 32.113281 -13.675781 30.84375 -12.3125 C 29.582031 -10.957031 28.4375 -9.753906 27.40625 -8.703125 C 25.113281 -6.359375 22.875 -4.332031 20.6875 -2.625 C 18.5 -0.914062 16.3125 0.394531 14.125 1.3125 C 11.9375 2.238281 9.660156 2.703125 7.296875 2.703125 C 6.335938 2.703125 5.4375 2.566406 4.59375 2.296875 C 3.75 2.023438 3.070312 1.5625 2.5625 0.90625 C 2.050781 0.257812 1.796875 -0.640625 1.796875 -1.796875 C 1.796875 -2.867188 2.015625 -3.925781 2.453125 -4.96875 C 2.898438 -6.007812 3.453125 -7 4.109375 -7.9375 C 3.898438 -8.125 3.613281 -8.46875 3.25 -8.96875 C 2.882812 -9.46875 2.703125 -10.316406 2.703125 -11.515625 C 2.703125 -12.753906 3.035156 -14.046875 3.703125 -15.390625 C 4.367188 -16.734375 5.441406 -17.988281 6.921875 -19.15625 C 8.410156 -20.332031 10.363281 -21.285156 12.78125 -22.015625 C 15.207031 -22.753906 18.1875 -23.125 21.71875 -23.125 C 24.4375 -23.125 27.171875 -22.957031 29.921875 -22.625 C 32.671875 -22.300781 35.539062 -21.875 38.53125 -21.34375 C 38.863281 -21.59375 39.242188 -21.847656 39.671875 -22.109375 C 40.109375 -22.367188 40.582031 -22.59375 41.09375 -22.78125 C 41.1875 -22.820312 41.3125 -22.859375 41.46875 -22.890625 C 41.632812 -22.929688 41.765625 -22.953125 41.859375 -22.953125 C 41.984375 -22.953125 42.046875 -22.914062 42.046875 -22.84375 C 42.046875 -22.75 41.988281 -22.679688 41.875 -22.640625 C 41.769531 -22.609375 41.628906 -22.5625 41.453125 -22.5 C 41.078125 -22.351562 40.710938 -22.15625 40.359375 -21.90625 C 40.003906 -21.664062 39.6875 -21.414062 39.40625 -21.15625 C 39.894531 -21.0625 40.578125 -20.953125 41.453125 -20.828125 C 42.335938 -20.703125 43.28125 -20.566406 44.28125 -20.421875 C 44.78125 -20.796875 45.144531 -20.984375 45.375 -20.984375 C 45.5625 -20.984375 45.65625 -20.878906 45.65625 -20.671875 C 45.65625 -20.503906 45.597656 -20.363281 45.484375 -20.25 C 46.535156 -20.101562 47.59375 -19.976562 48.65625 -19.875 C 49.71875 -19.769531 50.660156 -19.695312 51.484375 -19.65625 C 52.367188 -20.1875 53.335938 -20.632812 54.390625 -21 C 55.441406 -21.363281 56.484375 -21.546875 57.515625 -21.546875 C 58.640625 -21.546875 59.414062 -21.398438 59.84375 -21.109375 C 60.28125 -20.816406 60.5 -20.492188 60.5 -20.140625 C 60.5 -19.816406 60.300781 -19.519531 59.90625 -19.25 C 59.507812 -18.976562 58.722656 -18.84375 57.546875 -18.84375 C 56.566406 -18.84375 55.601562 -18.863281 54.65625 -18.90625 C 53.707031 -18.957031 52.875 -19.007812 52.15625 -19.0625 C 51.238281 -18.40625 50.222656 -17.539062 49.109375 -16.46875 C 48.003906 -15.40625 46.890625 -14.257812 45.765625 -13.03125 C 44.640625 -11.800781 43.597656 -10.628906 42.640625 -9.515625 C 41.066406 -7.660156 39.75 -6.066406 38.6875 -4.734375 C 37.625 -3.398438 36.753906 -2.28125 36.078125 -1.375 C 35.628906 -0.757812 35.273438 -0.265625 35.015625 0.109375 C 34.765625 0.484375 34.507812 0.671875 34.25 0.671875 C 33.945312 0.671875 33.800781 0.488281 33.8125 0.125 C 33.820312 -0.238281 33.910156 -0.597656 34.078125 -0.953125 C 34.566406 -1.953125 35.253906 -3.046875 36.140625 -4.234375 C 37.035156 -5.429688 38.015625 -6.640625 39.078125 -7.859375 C 40.140625 -9.078125 41.175781 -10.210938 42.1875 -11.265625 Z M 37.65625 -20.59375 C 35.125 -20.945312 32.539062 -21.253906 29.90625 -21.515625 C 27.28125 -21.773438 24.539062 -21.90625 21.6875 -21.90625 C 18.382812 -21.90625 15.5625 -21.59375 13.21875 -20.96875 C 10.882812 -20.34375 8.976562 -19.523438 7.5 -18.515625 C 6.03125 -17.515625 4.953125 -16.410156 4.265625 -15.203125 C 3.578125 -14.003906 3.234375 -12.820312 3.234375 -11.65625 C 3.234375 -10.789062 3.34375 -10.070312 3.5625 -9.5 C 3.78125 -8.925781 4.03125 -8.5 4.3125 -8.21875 C 4.925781 -8.988281 5.625 -9.738281 6.40625 -10.46875 C 7.1875 -11.207031 8.046875 -11.90625 8.984375 -12.5625 C 9.941406 -13.21875 11.03125 -13.828125 12.25 -14.390625 C 13.46875 -14.953125 14.742188 -15.40625 16.078125 -15.75 C 17.410156 -16.101562 18.695312 -16.28125 19.9375 -16.28125 C 20.707031 -16.28125 21.425781 -16.1875 22.09375 -16 C 22.757812 -15.8125 23.296875 -15.492188 23.703125 -15.046875 C 24.109375 -14.609375 24.3125 -13.988281 24.3125 -13.1875 C 24.3125 -12.863281 24.273438 -12.648438 24.203125 -12.546875 C 24.140625 -12.441406 24.085938 -12.390625 24.046875 -12.390625 C 23.953125 -12.390625 23.910156 -12.460938 23.921875 -12.609375 C 23.929688 -12.765625 23.925781 -12.957031 23.90625 -13.1875 C 23.851562 -13.9375 23.535156 -14.554688 22.953125 -15.046875 C 22.367188 -15.546875 21.535156 -15.796875 20.453125 -15.796875 C 19.359375 -15.796875 18.160156 -15.566406 16.859375 -15.109375 C 15.566406 -14.648438 14.3125 -14.085938 13.09375 -13.421875 C 11.875 -12.753906 10.796875 -12.082031 9.859375 -11.40625 C 9.160156 -10.894531 8.378906 -10.28125 7.515625 -9.5625 C 6.648438 -8.851562 5.828125 -8.070312 5.046875 -7.21875 C 4.273438 -6.363281 3.640625 -5.46875 3.140625 -4.53125 C 2.640625 -3.59375 2.390625 -2.644531 2.390625 -1.6875 C 2.390625 -0.675781 2.613281 0.0976562 3.0625 0.640625 C 3.519531 1.191406 4.117188 1.578125 4.859375 1.796875 C 5.597656 2.023438 6.363281 2.140625 7.15625 2.140625 C 8.601562 2.140625 10.09375 1.820312 11.625 1.1875 C 13.164062 0.5625 14.722656 -0.285156 16.296875 -1.359375 C 17.878906 -2.441406 19.457031 -3.664062 21.03125 -5.03125 C 22.613281 -6.40625 24.175781 -7.828125 25.71875 -9.296875 C 27.875 -11.285156 29.957031 -13.285156 31.96875 -15.296875 C 33.976562 -17.304688 35.875 -19.070312 37.65625 -20.59375 Z M 57.765625 -19.296875 C 59.304688 -19.296875 60.078125 -19.578125 60.078125 -20.140625 C 60.078125 -20.816406 59.222656 -21.15625 57.515625 -21.15625 C 56.765625 -21.15625 55.96875 -21.003906 55.125 -20.703125 C 54.289062 -20.398438 53.5 -20.015625 52.75 -19.546875 C 53.46875 -19.472656 54.265625 -19.410156 55.140625 -19.359375 C 56.023438 -19.316406 56.898438 -19.296875 57.765625 -19.296875 Z M 57.765625 -19.296875 "></path></g></g></g><g fill="#492c01" fill-opacity="1"><g transform="translate(41.932782, 27.399355)"><g><path d="M 0.109375 0.3125 C -0.316406 0.3125 -0.722656 0.207031 -1.109375 0 C -1.492188 -0.207031 -1.6875 -0.648438 -1.6875 -1.328125 C -1.6875 -1.796875 -1.507812 -2.453125 -1.15625 -3.296875 C -0.800781 -4.140625 -0.0664062 -5.097656 1.046875 -6.171875 C 1.847656 -6.921875 2.710938 -7.609375 3.640625 -8.234375 C 4.578125 -8.867188 5.484375 -9.382812 6.359375 -9.78125 C 7.242188 -10.1875 7.96875 -10.390625 8.53125 -10.390625 C 8.875 -10.390625 9.132812 -10.304688 9.3125 -10.140625 C 9.488281 -9.972656 9.578125 -9.765625 9.578125 -9.515625 C 9.578125 -9.140625 9.390625 -8.734375 9.015625 -8.296875 C 8.640625 -7.867188 8.207031 -7.488281 7.71875 -7.15625 C 7.15625 -6.78125 6.519531 -6.457031 5.8125 -6.1875 C 5.113281 -5.925781 4.5 -5.796875 3.96875 -5.796875 C 3.707031 -5.796875 3.484375 -5.84375 3.296875 -5.9375 C 2.710938 -5.394531 2.140625 -4.804688 1.578125 -4.171875 C 1.015625 -3.546875 0.546875 -2.9375 0.171875 -2.34375 C -0.203125 -1.757812 -0.390625 -1.28125 -0.390625 -0.90625 C -0.390625 -0.4375 -0.117188 -0.203125 0.421875 -0.203125 C 0.773438 -0.203125 1.21875 -0.304688 1.75 -0.515625 C 2.289062 -0.734375 2.851562 -1.03125 3.4375 -1.40625 C 4.28125 -1.9375 5.101562 -2.535156 5.90625 -3.203125 C 6.71875 -3.878906 7.347656 -4.414062 7.796875 -4.8125 C 7.910156 -4.925781 8.023438 -5.015625 8.140625 -5.078125 C 8.253906 -5.148438 8.347656 -5.15625 8.421875 -5.09375 C 8.492188 -5.019531 8.5 -4.9375 8.4375 -4.84375 C 8.382812 -4.75 8.320312 -4.664062 8.25 -4.59375 C 7.664062 -4.0625 7.03125 -3.519531 6.34375 -2.96875 C 5.664062 -2.414062 4.941406 -1.867188 4.171875 -1.328125 C 3.585938 -0.929688 2.929688 -0.554688 2.203125 -0.203125 C 1.484375 0.140625 0.785156 0.3125 0.109375 0.3125 Z M 8.984375 -9.75 C 8.984375 -9.894531 8.898438 -9.96875 8.734375 -9.96875 C 8.503906 -9.96875 8.070312 -9.757812 7.4375 -9.34375 C 6.8125 -8.9375 6.140625 -8.441406 5.421875 -7.859375 C 4.710938 -7.273438 4.085938 -6.710938 3.546875 -6.171875 C 3.640625 -6.128906 3.734375 -6.109375 3.828125 -6.109375 C 4.179688 -6.109375 4.691406 -6.25 5.359375 -6.53125 C 6.023438 -6.8125 6.679688 -7.21875 7.328125 -7.75 C 7.828125 -8.15625 8.226562 -8.535156 8.53125 -8.890625 C 8.832031 -9.253906 8.984375 -9.539062 8.984375 -9.75 Z M 8.984375 -9.75 "></path></g></g></g><g fill="#492c01" fill-opacity="1"><g transform="translate(49.509708, 27.399355)"><g><path d="M 11.4375 -13.40625 C 10.851562 -13.144531 10.328125 -12.804688 9.859375 -12.390625 C 9.222656 -11.867188 8.484375 -11.21875 7.640625 -10.4375 C 6.804688 -9.65625 5.988281 -8.859375 5.1875 -8.046875 C 4.394531 -7.242188 3.726562 -6.539062 3.1875 -5.9375 C 3.164062 -5.90625 3.160156 -5.878906 3.171875 -5.859375 C 3.179688 -5.835938 3.203125 -5.835938 3.234375 -5.859375 C 3.578125 -6.191406 4.066406 -6.609375 4.703125 -7.109375 C 5.335938 -7.609375 6.015625 -8.109375 6.734375 -8.609375 C 7.460938 -9.117188 8.15625 -9.539062 8.8125 -9.875 C 9.46875 -10.21875 10.003906 -10.390625 10.421875 -10.390625 C 10.773438 -10.390625 11.003906 -10.28125 11.109375 -10.0625 C 11.210938 -9.851562 11.265625 -9.597656 11.265625 -9.296875 C 11.265625 -8.578125 11.007812 -7.765625 10.5 -6.859375 C 10 -5.960938 9.378906 -5.140625 8.640625 -4.390625 C 7.085938 -2.816406 5.640625 -1.648438 4.296875 -0.890625 C 2.953125 -0.128906 1.726562 0.25 0.625 0.25 C 0.1875 0.25 -0.160156 0.144531 -0.421875 -0.0625 C -0.585938 -0.207031 -0.679688 -0.390625 -0.703125 -0.609375 C -0.722656 -0.835938 -0.675781 -0.960938 -0.5625 -0.984375 C -0.46875 -1.003906 -0.398438 -0.976562 -0.359375 -0.90625 C -0.328125 -0.84375 -0.300781 -0.773438 -0.28125 -0.703125 C -0.226562 -0.609375 -0.148438 -0.515625 -0.046875 -0.421875 C 0.0546875 -0.328125 0.222656 -0.28125 0.453125 -0.28125 C 0.898438 -0.28125 1.375 -0.40625 1.875 -0.65625 C 2.375 -0.914062 3.019531 -1.414062 3.8125 -2.15625 C 4.613281 -2.894531 5.691406 -3.953125 7.046875 -5.328125 C 7.492188 -5.773438 7.972656 -6.265625 8.484375 -6.796875 C 9.003906 -7.335938 9.453125 -7.851562 9.828125 -8.34375 C 10.203125 -8.84375 10.390625 -9.207031 10.390625 -9.4375 C 10.390625 -9.625 10.269531 -9.71875 10.03125 -9.71875 C 9.6875 -9.71875 9.144531 -9.515625 8.40625 -9.109375 C 7.664062 -8.703125 6.847656 -8.164062 5.953125 -7.5 C 5.066406 -6.832031 4.1875 -6.109375 3.3125 -5.328125 C 2.4375 -4.554688 1.660156 -3.832031 0.984375 -3.15625 C -0.648438 -1.519531 -2.375 0.300781 -4.1875 2.3125 C -6 4.320312 -7.890625 6.6875 -9.859375 9.40625 C -10.066406 9.707031 -10.253906 9.972656 -10.421875 10.203125 C -10.585938 10.441406 -10.71875 10.5625 -10.8125 10.5625 C -10.945312 10.5625 -11.007812 10.414062 -11 10.125 C -10.988281 9.832031 -10.945312 9.566406 -10.875 9.328125 C -10.6875 8.679688 -10.226562 7.804688 -9.5 6.703125 C -8.78125 5.597656 -7.914062 4.425781 -6.90625 3.1875 C -5.738281 1.757812 -4.570312 0.40625 -3.40625 -0.875 C -2.238281 -2.164062 -1.171875 -3.304688 -0.203125 -4.296875 C 0.753906 -5.296875 1.5 -6.0625 2.03125 -6.59375 C 2.59375 -7.15625 3.289062 -7.828125 4.125 -8.609375 C 4.957031 -9.398438 5.800781 -10.15625 6.65625 -10.875 C 7.507812 -11.601562 8.226562 -12.175781 8.8125 -12.59375 C 9.0625 -12.78125 9.320312 -12.941406 9.59375 -13.078125 C 9.863281 -13.222656 10.117188 -13.320312 10.359375 -13.375 C 10.546875 -13.414062 10.738281 -13.4375 10.9375 -13.4375 C 11.132812 -13.4375 11.300781 -13.425781 11.4375 -13.40625 Z M 11.4375 -13.40625 "></path></g></g></g><g fill="#492c01" fill-opacity="1"><g transform="translate(60.489156, 27.399355)"><g><path d="M 0.109375 0.3125 C -0.316406 0.3125 -0.722656 0.207031 -1.109375 0 C -1.492188 -0.207031 -1.6875 -0.648438 -1.6875 -1.328125 C -1.6875 -1.796875 -1.507812 -2.453125 -1.15625 -3.296875 C -0.800781 -4.140625 -0.0664062 -5.097656 1.046875 -6.171875 C 1.847656 -6.921875 2.710938 -7.609375 3.640625 -8.234375 C 4.578125 -8.867188 5.484375 -9.382812 6.359375 -9.78125 C 7.242188 -10.1875 7.96875 -10.390625 8.53125 -10.390625 C 8.875 -10.390625 9.132812 -10.304688 9.3125 -10.140625 C 9.488281 -9.972656 9.578125 -9.765625 9.578125 -9.515625 C 9.578125 -9.140625 9.390625 -8.734375 9.015625 -8.296875 C 8.640625 -7.867188 8.207031 -7.488281 7.71875 -7.15625 C 7.15625 -6.78125 6.519531 -6.457031 5.8125 -6.1875 C 5.113281 -5.925781 4.5 -5.796875 3.96875 -5.796875 C 3.707031 -5.796875 3.484375 -5.84375 3.296875 -5.9375 C 2.710938 -5.394531 2.140625 -4.804688 1.578125 -4.171875 C 1.015625 -3.546875 0.546875 -2.9375 0.171875 -2.34375 C -0.203125 -1.757812 -0.390625 -1.28125 -0.390625 -0.90625 C -0.390625 -0.4375 -0.117188 -0.203125 0.421875 -0.203125 C 0.773438 -0.203125 1.21875 -0.304688 1.75 -0.515625 C 2.289062 -0.734375 2.851562 -1.03125 3.4375 -1.40625 C 4.28125 -1.9375 5.101562 -2.535156 5.90625 -3.203125 C 6.71875 -3.878906 7.347656 -4.414062 7.796875 -4.8125 C 7.910156 -4.925781 8.023438 -5.015625 8.140625 -5.078125 C 8.253906 -5.148438 8.347656 -5.15625 8.421875 -5.09375 C 8.492188 -5.019531 8.5 -4.9375 8.4375 -4.84375 C 8.382812 -4.75 8.320312 -4.664062 8.25 -4.59375 C 7.664062 -4.0625 7.03125 -3.519531 6.34375 -2.96875 C 5.664062 -2.414062 4.941406 -1.867188 4.171875 -1.328125 C 3.585938 -0.929688 2.929688 -0.554688 2.203125 -0.203125 C 1.484375 0.140625 0.785156 0.3125 0.109375 0.3125 Z M 8.984375 -9.75 C 8.984375 -9.894531 8.898438 -9.96875 8.734375 -9.96875 C 8.503906 -9.96875 8.070312 -9.757812 7.4375 -9.34375 C 6.8125 -8.9375 6.140625 -8.441406 5.421875 -7.859375 C 4.710938 -7.273438 4.085938 -6.710938 3.546875 -6.171875 C 3.640625 -6.128906 3.734375 -6.109375 3.828125 -6.109375 C 4.179688 -6.109375 4.691406 -6.25 5.359375 -6.53125 C 6.023438 -6.8125 6.679688 -7.21875 7.328125 -7.75 C 7.828125 -8.15625 8.226562 -8.535156 8.53125 -8.890625 C 8.832031 -9.253906 8.984375 -9.539062 8.984375 -9.75 Z M 8.984375 -9.75 "></path></g></g></g><g fill="#492c01" fill-opacity="1"><g transform="translate(67.785285, 27.399355)"><g><path d="M 5.578125 -0.59375 C 5.578125 -0.363281 5.707031 -0.25 5.96875 -0.25 C 6.226562 -0.25 6.539062 -0.34375 6.90625 -0.53125 C 7.28125 -0.71875 7.671875 -0.9375 8.078125 -1.1875 C 8.492188 -1.445312 8.84375 -1.679688 9.125 -1.890625 C 9.519531 -2.191406 9.953125 -2.535156 10.421875 -2.921875 C 10.890625 -3.316406 11.332031 -3.6875 11.75 -4.03125 C 12.175781 -4.382812 12.503906 -4.664062 12.734375 -4.875 C 12.972656 -5.113281 13.148438 -5.160156 13.265625 -5.015625 C 13.359375 -4.941406 13.3125 -4.8125 13.125 -4.625 C 12.820312 -4.375 12.4375 -4.039062 11.96875 -3.625 C 11.5 -3.21875 11.03125 -2.820312 10.5625 -2.4375 C 10.09375 -2.050781 9.71875 -1.753906 9.4375 -1.546875 C 8.875 -1.117188 8.234375 -0.703125 7.515625 -0.296875 C 6.804688 0.109375 6.160156 0.3125 5.578125 0.3125 C 4.765625 0.3125 4.359375 -0.0625 4.359375 -0.8125 C 4.359375 -1.1875 4.476562 -1.625 4.71875 -2.125 C 4.96875 -2.625 5.28125 -3.132812 5.65625 -3.65625 C 5.9375 -4.03125 6.238281 -4.394531 6.5625 -4.75 C 6.882812 -5.113281 7.222656 -5.472656 7.578125 -5.828125 C 7.316406 -5.660156 6.953125 -5.445312 6.484375 -5.1875 C 6.023438 -4.9375 5.59375 -4.8125 5.1875 -4.8125 C 4.863281 -4.8125 4.613281 -4.890625 4.4375 -5.046875 C 4.257812 -5.210938 4.03125 -5.296875 3.75 -5.296875 C 3.5625 -5.296875 3.332031 -5.203125 3.0625 -5.015625 C 2.800781 -4.828125 2.550781 -4.628906 2.3125 -4.421875 C 2.082031 -4.210938 1.921875 -4.0625 1.828125 -3.96875 C 1.148438 -3.289062 0.515625 -2.582031 -0.078125 -1.84375 C -0.679688 -1.101562 -1.285156 -0.335938 -1.890625 0.453125 C -2.035156 0.453125 -2.144531 0.367188 -2.21875 0.203125 C -2.300781 0.046875 -2.34375 -0.132812 -2.34375 -0.34375 C -2.34375 -0.65625 -2.101562 -1.171875 -1.625 -1.890625 C -1.144531 -2.617188 -0.550781 -3.425781 0.15625 -4.3125 C 0.875 -5.207031 1.59375 -6.023438 2.3125 -6.765625 C 2.875 -7.378906 3.445312 -7.9375 4.03125 -8.4375 C 4.613281 -8.9375 5.117188 -9.328125 5.546875 -9.609375 C 5.847656 -9.796875 6.226562 -9.9375 6.6875 -10.03125 C 7.144531 -10.125 7.59375 -10.171875 8.03125 -10.171875 C 7.59375 -9.867188 7.054688 -9.441406 6.421875 -8.890625 C 5.785156 -8.347656 5.140625 -7.742188 4.484375 -7.078125 C 3.835938 -6.410156 3.234375 -5.75 2.671875 -5.09375 C 2.992188 -5.34375 3.335938 -5.578125 3.703125 -5.796875 C 4.066406 -6.023438 4.375 -6.140625 4.625 -6.140625 C 4.957031 -6.140625 5.238281 -6.066406 5.46875 -5.921875 C 5.707031 -5.785156 5.96875 -5.71875 6.25 -5.71875 C 6.644531 -5.71875 7.082031 -5.847656 7.5625 -6.109375 C 8.039062 -6.367188 8.488281 -6.695312 8.90625 -7.09375 C 9.519531 -7.65625 10.140625 -8.191406 10.765625 -8.703125 C 11.398438 -9.210938 11.929688 -9.585938 12.359375 -9.828125 C 12.609375 -9.960938 12.929688 -10.0625 13.328125 -10.125 C 13.734375 -10.1875 14.050781 -10.203125 14.28125 -10.171875 C 13.28125 -9.265625 12.296875 -8.347656 11.328125 -7.421875 C 10.367188 -6.492188 9.507812 -5.632812 8.75 -4.84375 C 7.988281 -4.050781 7.398438 -3.40625 6.984375 -2.90625 C 6.585938 -2.414062 6.253906 -1.972656 5.984375 -1.578125 C 5.710938 -1.179688 5.578125 -0.851562 5.578125 -0.59375 Z M 5.578125 -0.59375 "></path></g></g></g><g fill="#492c01" fill-opacity="1"><g transform="translate(79.922125, 27.399355)"><g></g></g></g><g fill="#492c01" fill-opacity="1"><g transform="translate(87.218254, 27.399355)"><g><path d="M 13.46875 -10.25 C 12.507812 -9.351562 11.507812 -8.375 10.46875 -7.3125 C 9.425781 -6.25 8.285156 -5.003906 7.046875 -3.578125 C 5.929688 -2.296875 4.628906 -0.878906 3.140625 0.671875 C 1.648438 2.234375 0.0976562 3.644531 -1.515625 4.90625 C -3.734375 6.613281 -5.992188 7.90625 -8.296875 8.78125 C -10.597656 9.664062 -12.695312 10.097656 -14.59375 10.078125 C -15.695312 10.046875 -16.726562 9.875 -17.6875 9.5625 C -18.644531 9.25 -19.445312 8.78125 -20.09375 8.15625 C -20.738281 7.539062 -21.15625 6.785156 -21.34375 5.890625 C -21.457031 5.328125 -21.394531 5.023438 -21.15625 4.984375 C -21.0625 4.929688 -21 4.972656 -20.96875 5.109375 C -20.9375 5.253906 -20.90625 5.398438 -20.875 5.546875 C -20.71875 6.390625 -20.332031 7.101562 -19.71875 7.6875 C -19.113281 8.269531 -18.367188 8.707031 -17.484375 9 C -16.609375 9.289062 -15.707031 9.445312 -14.78125 9.46875 C -13.351562 9.5 -11.945312 9.273438 -10.5625 8.796875 C -9.1875 8.316406 -7.859375 7.679688 -6.578125 6.890625 C -5.304688 6.109375 -4.15625 5.304688 -3.125 4.484375 C -2.425781 3.929688 -1.675781 3.296875 -0.875 2.578125 C -0.0820312 1.867188 0.695312 1.140625 1.46875 0.390625 C 2.238281 -0.359375 2.941406 -1.0625 3.578125 -1.71875 C 4.210938 -2.375 4.71875 -2.925781 5.09375 -3.375 C 5.132812 -3.414062 5.144531 -3.445312 5.125 -3.46875 C 5.101562 -3.5 5.066406 -3.488281 5.015625 -3.4375 C 4.660156 -3.132812 4.273438 -2.796875 3.859375 -2.421875 C 3.441406 -2.046875 3.160156 -1.800781 3.015625 -1.6875 C 2.410156 -1.21875 1.765625 -0.773438 1.078125 -0.359375 C 0.398438 0.046875 -0.164062 0.25 -0.625 0.25 C -1.070312 0.25 -1.382812 0.148438 -1.5625 -0.046875 C -1.738281 -0.242188 -1.828125 -0.5 -1.828125 -0.8125 C -1.828125 -1.394531 -1.59375 -2.066406 -1.125 -2.828125 C -0.65625 -3.585938 -0.0234375 -4.398438 0.765625 -5.265625 C 1.234375 -5.753906 1.796875 -6.285156 2.453125 -6.859375 C 3.109375 -7.429688 3.769531 -7.96875 4.4375 -8.46875 C 5.101562 -8.976562 5.671875 -9.359375 6.140625 -9.609375 C 6.398438 -9.773438 6.769531 -9.894531 7.25 -9.96875 C 7.726562 -10.039062 8.082031 -10.0625 8.3125 -10.03125 C 7.28125 -9.195312 6.269531 -8.328125 5.28125 -7.421875 C 4.289062 -6.523438 3.414062 -5.679688 2.65625 -4.890625 C 1.894531 -4.109375 1.300781 -3.460938 0.875 -2.953125 C 0.457031 -2.429688 0.101562 -1.96875 -0.1875 -1.5625 C -0.476562 -1.15625 -0.625 -0.84375 -0.625 -0.625 C -0.625 -0.414062 -0.519531 -0.3125 -0.3125 -0.3125 C 0.0078125 -0.3125 0.472656 -0.507812 1.078125 -0.90625 C 1.691406 -1.3125 2.253906 -1.703125 2.765625 -2.078125 C 3.078125 -2.304688 3.460938 -2.628906 3.921875 -3.046875 C 4.390625 -3.472656 4.875 -3.921875 5.375 -4.390625 C 5.882812 -4.859375 6.328125 -5.265625 6.703125 -5.609375 C 7.191406 -6.109375 7.722656 -6.628906 8.296875 -7.171875 C 8.867188 -7.722656 9.441406 -8.242188 10.015625 -8.734375 C 10.585938 -9.222656 11.109375 -9.609375 11.578125 -9.890625 C 11.765625 -10.015625 12.066406 -10.109375 12.484375 -10.171875 C 12.910156 -10.242188 13.238281 -10.269531 13.46875 -10.25 Z M 13.46875 -10.25 "></path></g></g></g><g fill="#492c01" fill-opacity="1"><g transform="translate(97.95216, 27.399355)"><g><path d="M 11.4375 -13.40625 C 10.851562 -13.144531 10.328125 -12.804688 9.859375 -12.390625 C 9.222656 -11.867188 8.484375 -11.21875 7.640625 -10.4375 C 6.804688 -9.65625 5.988281 -8.859375 5.1875 -8.046875 C 4.394531 -7.242188 3.726562 -6.539062 3.1875 -5.9375 C 3.164062 -5.90625 3.160156 -5.878906 3.171875 -5.859375 C 3.179688 -5.835938 3.203125 -5.835938 3.234375 -5.859375 C 3.578125 -6.191406 4.066406 -6.609375 4.703125 -7.109375 C 5.335938 -7.609375 6.015625 -8.109375 6.734375 -8.609375 C 7.460938 -9.117188 8.15625 -9.539062 8.8125 -9.875 C 9.46875 -10.21875 10.003906 -10.390625 10.421875 -10.390625 C 10.773438 -10.390625 11.003906 -10.28125 11.109375 -10.0625 C 11.210938 -9.851562 11.265625 -9.597656 11.265625 -9.296875 C 11.265625 -8.578125 11.007812 -7.765625 10.5 -6.859375 C 10 -5.960938 9.378906 -5.140625 8.640625 -4.390625 C 7.085938 -2.816406 5.640625 -1.648438 4.296875 -0.890625 C 2.953125 -0.128906 1.726562 0.25 0.625 0.25 C 0.1875 0.25 -0.160156 0.144531 -0.421875 -0.0625 C -0.585938 -0.207031 -0.679688 -0.390625 -0.703125 -0.609375 C -0.722656 -0.835938 -0.675781 -0.960938 -0.5625 -0.984375 C -0.46875 -1.003906 -0.398438 -0.976562 -0.359375 -0.90625 C -0.328125 -0.84375 -0.300781 -0.773438 -0.28125 -0.703125 C -0.226562 -0.609375 -0.148438 -0.515625 -0.046875 -0.421875 C 0.0546875 -0.328125 0.222656 -0.28125 0.453125 -0.28125 C 0.898438 -0.28125 1.375 -0.40625 1.875 -0.65625 C 2.375 -0.914062 3.019531 -1.414062 3.8125 -2.15625 C 4.613281 -2.894531 5.691406 -3.953125 7.046875 -5.328125 C 7.492188 -5.773438 7.972656 -6.265625 8.484375 -6.796875 C 9.003906 -7.335938 9.453125 -7.851562 9.828125 -8.34375 C 10.203125 -8.84375 10.390625 -9.207031 10.390625 -9.4375 C 10.390625 -9.625 10.269531 -9.71875 10.03125 -9.71875 C 9.6875 -9.71875 9.144531 -9.515625 8.40625 -9.109375 C 7.664062 -8.703125 6.847656 -8.164062 5.953125 -7.5 C 5.066406 -6.832031 4.1875 -6.109375 3.3125 -5.328125 C 2.4375 -4.554688 1.660156 -3.832031 0.984375 -3.15625 C -0.648438 -1.519531 -2.375 0.300781 -4.1875 2.3125 C -6 4.320312 -7.890625 6.6875 -9.859375 9.40625 C -10.066406 9.707031 -10.253906 9.972656 -10.421875 10.203125 C -10.585938 10.441406 -10.71875 10.5625 -10.8125 10.5625 C -10.945312 10.5625 -11.007812 10.414062 -11 10.125 C -10.988281 9.832031 -10.945312 9.566406 -10.875 9.328125 C -10.6875 8.679688 -10.226562 7.804688 -9.5 6.703125 C -8.78125 5.597656 -7.914062 4.425781 -6.90625 3.1875 C -5.738281 1.757812 -4.570312 0.40625 -3.40625 -0.875 C -2.238281 -2.164062 -1.171875 -3.304688 -0.203125 -4.296875 C 0.753906 -5.296875 1.5 -6.0625 2.03125 -6.59375 C 2.59375 -7.15625 3.289062 -7.828125 4.125 -8.609375 C 4.957031 -9.398438 5.800781 -10.15625 6.65625 -10.875 C 7.507812 -11.601562 8.226562 -12.175781 8.8125 -12.59375 C 9.0625 -12.78125 9.320312 -12.941406 9.59375 -13.078125 C 9.863281 -13.222656 10.117188 -13.320312 10.359375 -13.375 C 10.546875 -13.414062 10.738281 -13.4375 10.9375 -13.4375 C 11.132812 -13.4375 11.300781 -13.425781 11.4375 -13.40625 Z M 11.4375 -13.40625 "></path></g></g></g><g fill="#492c01" fill-opacity="1"><g transform="translate(108.650812, 27.399355)"><g><path d="M 10.921875 0.3125 C 10.097656 0.3125 9.6875 -0.0625 9.6875 -0.8125 C 9.6875 -1.320312 9.910156 -1.953125 10.359375 -2.703125 C 10.117188 -2.492188 9.851562 -2.269531 9.5625 -2.03125 C 9.269531 -1.800781 9.050781 -1.628906 8.90625 -1.515625 C 8.375 -1.085938 7.804688 -0.675781 7.203125 -0.28125 C 6.609375 0.113281 6.03125 0.3125 5.46875 0.3125 C 4.65625 0.3125 4.25 -0.0351562 4.25 -0.734375 C 4.25 -1.390625 4.488281 -2.054688 4.96875 -2.734375 C 5.445312 -3.410156 6.019531 -4.066406 6.6875 -4.703125 C 7.351562 -5.335938 7.957031 -5.898438 8.5 -6.390625 C 8.59375 -6.484375 8.617188 -6.535156 8.578125 -6.546875 C 8.546875 -6.554688 8.492188 -6.539062 8.421875 -6.5 C 8.117188 -6.238281 7.738281 -5.914062 7.28125 -5.53125 C 6.820312 -5.144531 6.363281 -4.757812 5.90625 -4.375 C 5.457031 -3.988281 5.054688 -3.65625 4.703125 -3.375 C 4.117188 -2.90625 3.441406 -2.375 2.671875 -1.78125 C 1.898438 -1.195312 1.144531 -0.703125 0.40625 -0.296875 C -0.332031 0.109375 -0.972656 0.3125 -1.515625 0.3125 C -2.378906 0.3125 -2.8125 -0.0820312 -2.8125 -0.875 C -2.8125 -1.226562 -2.707031 -1.628906 -2.5 -2.078125 C -2.300781 -2.535156 -2.019531 -2.953125 -1.65625 -3.328125 C -1.4375 -3.546875 -1.21875 -3.722656 -1 -3.859375 C -0.78125 -4.003906 -0.550781 -4.078125 -0.3125 -4.078125 C -0.0820312 -4.078125 0.03125 -3.957031 0.03125 -3.71875 C 0.03125 -3.507812 -0.0664062 -3.285156 -0.265625 -3.046875 C -0.460938 -2.816406 -0.691406 -2.597656 -0.953125 -2.390625 C -1.785156 -1.773438 -2.203125 -1.234375 -2.203125 -0.765625 C -2.203125 -0.328125 -1.972656 -0.109375 -1.515625 -0.109375 C -1.109375 -0.109375 -0.59375 -0.28125 0.03125 -0.625 C 0.664062 -0.976562 1.335938 -1.414062 2.046875 -1.9375 C 2.765625 -2.46875 3.457031 -3.007812 4.125 -3.5625 C 4.789062 -4.113281 5.347656 -4.578125 5.796875 -4.953125 C 6.609375 -5.628906 7.429688 -6.285156 8.265625 -6.921875 C 9.097656 -7.566406 9.859375 -8.132812 10.546875 -8.625 C 11.234375 -9.125 11.773438 -9.488281 12.171875 -9.71875 C 12.484375 -9.90625 12.832031 -10.035156 13.21875 -10.109375 C 13.601562 -10.179688 13.96875 -10.203125 14.3125 -10.171875 C 13.3125 -9.265625 12.320312 -8.347656 11.34375 -7.421875 C 10.375 -6.492188 9.503906 -5.632812 8.734375 -4.84375 C 7.960938 -4.050781 7.367188 -3.40625 6.953125 -2.90625 C 6.503906 -2.394531 6.144531 -1.929688 5.875 -1.515625 C 5.601562 -1.109375 5.46875 -0.789062 5.46875 -0.5625 C 5.46875 -0.351562 5.585938 -0.25 5.828125 -0.25 C 6.148438 -0.25 6.597656 -0.441406 7.171875 -0.828125 C 7.742188 -1.210938 8.242188 -1.566406 8.671875 -1.890625 C 9.765625 -2.753906 10.582031 -3.460938 11.125 -4.015625 C 11.664062 -4.566406 12.050781 -4.957031 12.28125 -5.1875 C 12.75 -5.65625 13.316406 -6.207031 13.984375 -6.84375 C 14.648438 -7.476562 15.316406 -8.066406 15.984375 -8.609375 C 16.648438 -9.160156 17.21875 -9.566406 17.6875 -9.828125 C 17.945312 -9.960938 18.273438 -10.0625 18.671875 -10.125 C 19.066406 -10.1875 19.382812 -10.203125 19.625 -10.171875 C 18.613281 -9.265625 17.628906 -8.347656 16.671875 -7.421875 C 15.710938 -6.492188 14.851562 -5.632812 14.09375 -4.84375 C 13.332031 -4.050781 12.738281 -3.40625 12.3125 -2.90625 C 11.894531 -2.394531 11.554688 -1.945312 11.296875 -1.5625 C 11.046875 -1.175781 10.921875 -0.851562 10.921875 -0.59375 C 10.921875 -0.363281 11.046875 -0.25 11.296875 -0.25 C 11.554688 -0.25 11.875 -0.34375 12.25 -0.53125 C 12.625 -0.71875 13.015625 -0.9375 13.421875 -1.1875 C 13.828125 -1.445312 14.171875 -1.679688 14.453125 -1.890625 C 14.859375 -2.191406 15.285156 -2.535156 15.734375 -2.921875 C 16.191406 -3.316406 16.628906 -3.6875 17.046875 -4.03125 C 17.472656 -4.382812 17.800781 -4.664062 18.03125 -4.875 C 18.289062 -5.113281 18.46875 -5.160156 18.5625 -5.015625 C 18.65625 -4.921875 18.617188 -4.789062 18.453125 -4.625 C 18.148438 -4.375 17.757812 -4.039062 17.28125 -3.625 C 16.800781 -3.21875 16.332031 -2.820312 15.875 -2.4375 C 15.425781 -2.050781 15.0625 -1.753906 14.78125 -1.546875 C 14.1875 -1.117188 13.53125 -0.703125 12.8125 -0.296875 C 12.101562 0.109375 11.472656 0.3125 10.921875 0.3125 Z M 10.921875 0.3125 "></path></g></g></g><g fill="#492c01" fill-opacity="1"><g transform="translate(126.119446, 27.399355)"><g><path d="M 13.46875 -10.03125 C 12.46875 -9.125 11.5 -8.210938 10.5625 -7.296875 C 9.625 -6.390625 8.789062 -5.554688 8.0625 -4.796875 C 7.34375 -4.035156 6.773438 -3.40625 6.359375 -2.90625 C 5.910156 -2.394531 5.550781 -1.945312 5.28125 -1.5625 C 5.007812 -1.175781 4.875 -0.863281 4.875 -0.625 C 4.875 -0.414062 4.992188 -0.3125 5.234375 -0.3125 C 5.460938 -0.3125 5.769531 -0.421875 6.15625 -0.640625 C 6.539062 -0.867188 6.941406 -1.128906 7.359375 -1.421875 C 7.785156 -1.710938 8.148438 -1.972656 8.453125 -2.203125 C 9.015625 -2.648438 9.59375 -3.132812 10.1875 -3.65625 C 10.789062 -4.1875 11.300781 -4.640625 11.71875 -5.015625 C 11.789062 -5.066406 11.875 -5.113281 11.96875 -5.15625 C 12.0625 -5.207031 12.144531 -5.1875 12.21875 -5.09375 C 12.3125 -5 12.25 -4.859375 12.03125 -4.671875 C 11.519531 -4.179688 10.957031 -3.675781 10.34375 -3.15625 C 9.738281 -2.644531 9.21875 -2.210938 8.78125 -1.859375 C 8.425781 -1.578125 8.019531 -1.269531 7.5625 -0.9375 C 7.101562 -0.613281 6.644531 -0.332031 6.1875 -0.09375 C 5.738281 0.132812 5.335938 0.25 4.984375 0.25 C 4.160156 0.25 3.75 -0.148438 3.75 -0.953125 C 3.75 -1.203125 3.828125 -1.515625 3.984375 -1.890625 C 4.140625 -2.265625 4.398438 -2.675781 4.765625 -3.125 C 3.765625 -2.207031 2.757812 -1.414062 1.75 -0.75 C 0.75 -0.0820312 -0.03125 0.25 -0.59375 0.25 C -1.394531 0.25 -1.796875 -0.132812 -1.796875 -0.90625 C -1.816406 -1.539062 -1.5625 -2.316406 -1.03125 -3.234375 C -0.507812 -4.160156 0.148438 -5.023438 0.953125 -5.828125 C 1.742188 -6.640625 2.644531 -7.390625 3.65625 -8.078125 C 4.675781 -8.773438 5.675781 -9.332031 6.65625 -9.75 C 7.644531 -10.175781 8.46875 -10.390625 9.125 -10.390625 C 9.445312 -10.390625 9.710938 -10.335938 9.921875 -10.234375 C 10.140625 -10.128906 10.25 -9.921875 10.25 -9.609375 C 10.25 -9.421875 10.175781 -9.179688 10.03125 -8.890625 C 9.894531 -8.597656 9.628906 -8.253906 9.234375 -7.859375 C 9.203125 -7.835938 9.191406 -7.820312 9.203125 -7.8125 C 9.222656 -7.800781 9.242188 -7.804688 9.265625 -7.828125 C 9.804688 -8.367188 10.34375 -8.820312 10.875 -9.1875 C 11.414062 -9.5625 11.828125 -9.796875 12.109375 -9.890625 C 12.296875 -9.960938 12.476562 -10.003906 12.65625 -10.015625 C 12.832031 -10.023438 13.007812 -10.03125 13.1875 -10.03125 Z M 9.75 -9.46875 C 9.75 -9.726562 9.609375 -9.859375 9.328125 -9.859375 C 8.835938 -9.859375 8 -9.441406 6.8125 -8.609375 C 5.632812 -7.785156 4.21875 -6.578125 2.5625 -4.984375 C 1.695312 -4.117188 0.941406 -3.273438 0.296875 -2.453125 C -0.347656 -1.640625 -0.671875 -1.03125 -0.671875 -0.625 C -0.671875 -0.53125 -0.648438 -0.445312 -0.609375 -0.375 C -0.578125 -0.3125 -0.476562 -0.28125 -0.3125 -0.28125 C -0.0078125 -0.28125 0.476562 -0.488281 1.15625 -0.90625 C 1.832031 -1.332031 2.617188 -1.921875 3.515625 -2.671875 C 4.421875 -3.421875 5.332031 -4.257812 6.25 -5.1875 C 6.664062 -5.613281 7.148438 -6.097656 7.703125 -6.640625 C 8.253906 -7.191406 8.734375 -7.726562 9.140625 -8.25 C 9.546875 -8.78125 9.75 -9.1875 9.75 -9.46875 Z M 9.75 -9.46875 "></path></g></g></g><g fill="#492c01" fill-opacity="1"><g transform="translate(137.133815, 27.399355)"><g><path d="M 11.328125 -10.3125 C 11.960938 -10.3125 12.28125 -10.007812 12.28125 -9.40625 C 12.28125 -9.144531 12.222656 -8.847656 12.109375 -8.515625 C 11.992188 -8.191406 11.804688 -7.890625 11.546875 -7.609375 C 12.222656 -8.054688 12.910156 -8.488281 13.609375 -8.90625 C 14.316406 -9.332031 14.976562 -9.679688 15.59375 -9.953125 C 16.21875 -10.222656 16.71875 -10.359375 17.09375 -10.359375 C 17.488281 -10.359375 17.765625 -10.242188 17.921875 -10.015625 C 18.085938 -9.796875 18.171875 -9.554688 18.171875 -9.296875 C 18.171875 -8.898438 17.984375 -8.441406 17.609375 -7.921875 C 17.242188 -7.410156 16.804688 -6.910156 16.296875 -6.421875 C 15.796875 -5.929688 15.335938 -5.5 14.921875 -5.125 C 14.359375 -4.613281 13.84375 -4.128906 13.375 -3.671875 C 12.90625 -3.210938 12.484375 -2.785156 12.109375 -2.390625 C 11.734375 -1.992188 11.425781 -1.640625 11.1875 -1.328125 C 10.957031 -1.023438 10.84375 -0.78125 10.84375 -0.59375 C 10.84375 -0.363281 10.972656 -0.25 11.234375 -0.25 C 11.535156 -0.25 11.945312 -0.378906 12.46875 -0.640625 C 13 -0.910156 13.554688 -1.257812 14.140625 -1.6875 C 14.890625 -2.21875 15.554688 -2.726562 16.140625 -3.21875 C 16.722656 -3.71875 17.226562 -4.140625 17.65625 -4.484375 C 18.050781 -4.859375 18.304688 -4.988281 18.421875 -4.875 C 18.492188 -4.832031 18.507812 -4.765625 18.46875 -4.671875 C 18.4375 -4.578125 18.375 -4.492188 18.28125 -4.421875 C 18 -4.191406 17.625 -3.875 17.15625 -3.46875 C 16.6875 -3.070312 16.195312 -2.660156 15.6875 -2.234375 C 15.175781 -1.816406 14.695312 -1.457031 14.25 -1.15625 C 13.632812 -0.707031 13.03125 -0.347656 12.4375 -0.078125 C 11.84375 0.179688 11.320312 0.3125 10.875 0.3125 C 10.570312 0.3125 10.289062 0.207031 10.03125 0 C 9.78125 -0.207031 9.65625 -0.535156 9.65625 -0.984375 C 9.65625 -1.523438 9.898438 -2.15625 10.390625 -2.875 C 10.828125 -3.488281 11.253906 -4.007812 11.671875 -4.4375 C 12.097656 -4.875 12.675781 -5.421875 13.40625 -6.078125 C 13.78125 -6.421875 14.238281 -6.820312 14.78125 -7.28125 C 15.332031 -7.738281 15.832031 -8.179688 16.28125 -8.609375 C 16.726562 -9.046875 16.953125 -9.367188 16.953125 -9.578125 C 16.953125 -9.722656 16.878906 -9.796875 16.734375 -9.796875 C 16.503906 -9.796875 16.054688 -9.632812 15.390625 -9.3125 C 14.722656 -9 13.972656 -8.582031 13.140625 -8.0625 C 12.304688 -7.550781 11.484375 -7.003906 10.671875 -6.421875 C 9.941406 -5.859375 9.207031 -5.253906 8.46875 -4.609375 C 7.738281 -3.972656 6.972656 -3.207031 6.171875 -2.3125 C 5.828125 -1.914062 5.4375 -1.453125 5 -0.921875 C 4.570312 -0.398438 4.203125 0.0546875 3.890625 0.453125 C 3.796875 0.453125 3.703125 0.367188 3.609375 0.203125 C 3.515625 0.046875 3.46875 -0.148438 3.46875 -0.390625 C 3.46875 -0.617188 3.65625 -1.035156 4.03125 -1.640625 C 4.40625 -2.253906 4.914062 -2.957031 5.5625 -3.75 C 6.207031 -4.550781 6.90625 -5.328125 7.65625 -6.078125 C 8 -6.421875 8.453125 -6.828125 9.015625 -7.296875 C 9.578125 -7.765625 10.070312 -8.210938 10.5 -8.640625 C 10.9375 -9.078125 11.15625 -9.390625 11.15625 -9.578125 C 11.15625 -9.722656 11.085938 -9.796875 10.953125 -9.796875 C 10.648438 -9.796875 10.15625 -9.628906 9.46875 -9.296875 C 8.789062 -8.972656 8.03125 -8.539062 7.1875 -8 C 6.351562 -7.457031 5.519531 -6.882812 4.6875 -6.28125 C 3.851562 -5.675781 3.144531 -5.09375 2.5625 -4.53125 C 1.4375 -3.445312 0.515625 -2.488281 -0.203125 -1.65625 C -0.929688 -0.832031 -1.492188 -0.128906 -1.890625 0.453125 C -1.984375 0.453125 -2.082031 0.367188 -2.1875 0.203125 C -2.289062 0.046875 -2.34375 -0.160156 -2.34375 -0.421875 C -2.34375 -0.679688 -2.125 -1.144531 -1.6875 -1.8125 C -1.257812 -2.476562 -0.695312 -3.253906 0 -4.140625 C 0.695312 -5.023438 1.46875 -5.898438 2.3125 -6.765625 C 2.875 -7.378906 3.453125 -7.9375 4.046875 -8.4375 C 4.648438 -8.9375 5.160156 -9.328125 5.578125 -9.609375 C 5.878906 -9.796875 6.242188 -9.9375 6.671875 -10.03125 C 7.109375 -10.125 7.550781 -10.171875 8 -10.171875 C 7.394531 -9.753906 6.644531 -9.144531 5.75 -8.34375 C 4.863281 -7.550781 4.035156 -6.710938 3.265625 -5.828125 C 3.210938 -5.773438 3.191406 -5.738281 3.203125 -5.71875 C 3.222656 -5.695312 3.242188 -5.695312 3.265625 -5.71875 C 3.710938 -6.09375 4.285156 -6.535156 4.984375 -7.046875 C 5.679688 -7.566406 6.425781 -8.078125 7.21875 -8.578125 C 8.019531 -9.078125 8.78125 -9.488281 9.5 -9.8125 C 10.226562 -10.144531 10.835938 -10.3125 11.328125 -10.3125 Z M 11.328125 -10.3125 "></path></g></g></g><g fill="#492c01" fill-opacity="1"><g transform="translate(154.637513, 27.399355)"><g><path d="M 11.328125 -10.3125 C 11.960938 -10.3125 12.28125 -10.007812 12.28125 -9.40625 C 12.28125 -9.144531 12.222656 -8.847656 12.109375 -8.515625 C 11.992188 -8.191406 11.804688 -7.890625 11.546875 -7.609375 C 12.222656 -8.054688 12.910156 -8.488281 13.609375 -8.90625 C 14.316406 -9.332031 14.976562 -9.679688 15.59375 -9.953125 C 16.21875 -10.222656 16.71875 -10.359375 17.09375 -10.359375 C 17.488281 -10.359375 17.765625 -10.242188 17.921875 -10.015625 C 18.085938 -9.796875 18.171875 -9.554688 18.171875 -9.296875 C 18.171875 -8.898438 17.984375 -8.441406 17.609375 -7.921875 C 17.242188 -7.410156 16.804688 -6.910156 16.296875 -6.421875 C 15.796875 -5.929688 15.335938 -5.5 14.921875 -5.125 C 14.359375 -4.613281 13.84375 -4.128906 13.375 -3.671875 C 12.90625 -3.210938 12.484375 -2.785156 12.109375 -2.390625 C 11.734375 -1.992188 11.425781 -1.640625 11.1875 -1.328125 C 10.957031 -1.023438 10.84375 -0.78125 10.84375 -0.59375 C 10.84375 -0.363281 10.972656 -0.25 11.234375 -0.25 C 11.535156 -0.25 11.945312 -0.378906 12.46875 -0.640625 C 13 -0.910156 13.554688 -1.257812 14.140625 -1.6875 C 14.890625 -2.21875 15.554688 -2.726562 16.140625 -3.21875 C 16.722656 -3.71875 17.226562 -4.140625 17.65625 -4.484375 C 18.050781 -4.859375 18.304688 -4.988281 18.421875 -4.875 C 18.492188 -4.832031 18.507812 -4.765625 18.46875 -4.671875 C 18.4375 -4.578125 18.375 -4.492188 18.28125 -4.421875 C 18 -4.191406 17.625 -3.875 17.15625 -3.46875 C 16.6875 -3.070312 16.195312 -2.660156 15.6875 -2.234375 C 15.175781 -1.816406 14.695312 -1.457031 14.25 -1.15625 C 13.632812 -0.707031 13.03125 -0.347656 12.4375 -0.078125 C 11.84375 0.179688 11.320312 0.3125 10.875 0.3125 C 10.570312 0.3125 10.289062 0.207031 10.03125 0 C 9.78125 -0.207031 9.65625 -0.535156 9.65625 -0.984375 C 9.65625 -1.523438 9.898438 -2.15625 10.390625 -2.875 C 10.828125 -3.488281 11.253906 -4.007812 11.671875 -4.4375 C 12.097656 -4.875 12.675781 -5.421875 13.40625 -6.078125 C 13.78125 -6.421875 14.238281 -6.820312 14.78125 -7.28125 C 15.332031 -7.738281 15.832031 -8.179688 16.28125 -8.609375 C 16.726562 -9.046875 16.953125 -9.367188 16.953125 -9.578125 C 16.953125 -9.722656 16.878906 -9.796875 16.734375 -9.796875 C 16.503906 -9.796875 16.054688 -9.632812 15.390625 -9.3125 C 14.722656 -9 13.972656 -8.582031 13.140625 -8.0625 C 12.304688 -7.550781 11.484375 -7.003906 10.671875 -6.421875 C 9.941406 -5.859375 9.207031 -5.253906 8.46875 -4.609375 C 7.738281 -3.972656 6.972656 -3.207031 6.171875 -2.3125 C 5.828125 -1.914062 5.4375 -1.453125 5 -0.921875 C 4.570312 -0.398438 4.203125 0.0546875 3.890625 0.453125 C 3.796875 0.453125 3.703125 0.367188 3.609375 0.203125 C 3.515625 0.046875 3.46875 -0.148438 3.46875 -0.390625 C 3.46875 -0.617188 3.65625 -1.035156 4.03125 -1.640625 C 4.40625 -2.253906 4.914062 -2.957031 5.5625 -3.75 C 6.207031 -4.550781 6.90625 -5.328125 7.65625 -6.078125 C 8 -6.421875 8.453125 -6.828125 9.015625 -7.296875 C 9.578125 -7.765625 10.070312 -8.210938 10.5 -8.640625 C 10.9375 -9.078125 11.15625 -9.390625 11.15625 -9.578125 C 11.15625 -9.722656 11.085938 -9.796875 10.953125 -9.796875 C 10.648438 -9.796875 10.15625 -9.628906 9.46875 -9.296875 C 8.789062 -8.972656 8.03125 -8.539062 7.1875 -8 C 6.351562 -7.457031 5.519531 -6.882812 4.6875 -6.28125 C 3.851562 -5.675781 3.144531 -5.09375 2.5625 -4.53125 C 1.4375 -3.445312 0.515625 -2.488281 -0.203125 -1.65625 C -0.929688 -0.832031 -1.492188 -0.128906 -1.890625 0.453125 C -1.984375 0.453125 -2.082031 0.367188 -2.1875 0.203125 C -2.289062 0.046875 -2.34375 -0.160156 -2.34375 -0.421875 C -2.34375 -0.679688 -2.125 -1.144531 -1.6875 -1.8125 C -1.257812 -2.476562 -0.695312 -3.253906 0 -4.140625 C 0.695312 -5.023438 1.46875 -5.898438 2.3125 -6.765625 C 2.875 -7.378906 3.453125 -7.9375 4.046875 -8.4375 C 4.648438 -8.9375 5.160156 -9.328125 5.578125 -9.609375 C 5.878906 -9.796875 6.242188 -9.9375 6.671875 -10.03125 C 7.109375 -10.125 7.550781 -10.171875 8 -10.171875 C 7.394531 -9.753906 6.644531 -9.144531 5.75 -8.34375 C 4.863281 -7.550781 4.035156 -6.710938 3.265625 -5.828125 C 3.210938 -5.773438 3.191406 -5.738281 3.203125 -5.71875 C 3.222656 -5.695312 3.242188 -5.695312 3.265625 -5.71875 C 3.710938 -6.09375 4.285156 -6.535156 4.984375 -7.046875 C 5.679688 -7.566406 6.425781 -8.078125 7.21875 -8.578125 C 8.019531 -9.078125 8.78125 -9.488281 9.5 -9.8125 C 10.226562 -10.144531 10.835938 -10.3125 11.328125 -10.3125 Z M 11.328125 -10.3125 "></path></g></g></g><g fill="#492c01" fill-opacity="1"><g transform="translate(172.14121, 27.399355)"><g><path d="M 8.703125 -10.390625 C 9.585938 -10.390625 10.03125 -10.050781 10.03125 -9.375 C 10.03125 -8.851562 9.773438 -8.15625 9.265625 -7.28125 C 8.753906 -6.40625 7.945312 -5.414062 6.84375 -4.3125 C 5.4375 -2.882812 4.113281 -1.753906 2.875 -0.921875 C 1.632812 -0.0976562 0.664062 0.3125 -0.03125 0.3125 C -1.039062 0.3125 -1.546875 -0.234375 -1.546875 -1.328125 C -1.546875 -1.960938 -1.304688 -2.726562 -0.828125 -3.625 C -0.347656 -4.53125 0.320312 -5.425781 1.1875 -6.3125 C 2.007812 -7.132812 2.875 -7.847656 3.78125 -8.453125 C 4.695312 -9.066406 5.585938 -9.539062 6.453125 -9.875 C 7.316406 -10.21875 8.066406 -10.390625 8.703125 -10.390625 Z M 9.46875 -9.515625 C 9.46875 -9.765625 9.328125 -9.890625 9.046875 -9.890625 C 8.515625 -9.890625 7.648438 -9.4375 6.453125 -8.53125 C 5.265625 -7.632812 3.941406 -6.453125 2.484375 -4.984375 C 1.691406 -4.117188 0.984375 -3.300781 0.359375 -2.53125 C -0.253906 -1.757812 -0.5625 -1.148438 -0.5625 -0.703125 C -0.5625 -0.304688 -0.375 -0.109375 0 -0.109375 C 0.539062 -0.109375 1.394531 -0.585938 2.5625 -1.546875 C 3.726562 -2.503906 5.023438 -3.71875 6.453125 -5.1875 C 6.847656 -5.613281 7.28125 -6.097656 7.75 -6.640625 C 8.21875 -7.191406 8.617188 -7.726562 8.953125 -8.25 C 9.296875 -8.78125 9.46875 -9.203125 9.46875 -9.515625 Z M 9.46875 -9.515625 "></path></g></g></g><g fill="#492c01" fill-opacity="1"><g transform="translate(181.26161, 27.399355)"><g><path d="M 8.703125 -10.390625 C 9.585938 -10.390625 10.03125 -10.050781 10.03125 -9.375 C 10.03125 -8.851562 9.773438 -8.15625 9.265625 -7.28125 C 8.753906 -6.40625 7.945312 -5.414062 6.84375 -4.3125 C 5.4375 -2.882812 4.113281 -1.753906 2.875 -0.921875 C 1.632812 -0.0976562 0.664062 0.3125 -0.03125 0.3125 C -1.039062 0.3125 -1.546875 -0.234375 -1.546875 -1.328125 C -1.546875 -1.960938 -1.304688 -2.726562 -0.828125 -3.625 C -0.347656 -4.53125 0.320312 -5.425781 1.1875 -6.3125 C 2.007812 -7.132812 2.875 -7.847656 3.78125 -8.453125 C 4.695312 -9.066406 5.585938 -9.539062 6.453125 -9.875 C 7.316406 -10.21875 8.066406 -10.390625 8.703125 -10.390625 Z M 9.46875 -9.515625 C 9.46875 -9.765625 9.328125 -9.890625 9.046875 -9.890625 C 8.515625 -9.890625 7.648438 -9.4375 6.453125 -8.53125 C 5.265625 -7.632812 3.941406 -6.453125 2.484375 -4.984375 C 1.691406 -4.117188 0.984375 -3.300781 0.359375 -2.53125 C -0.253906 -1.757812 -0.5625 -1.148438 -0.5625 -0.703125 C -0.5625 -0.304688 -0.375 -0.109375 0 -0.109375 C 0.539062 -0.109375 1.394531 -0.585938 2.5625 -1.546875 C 3.726562 -2.503906 5.023438 -3.71875 6.453125 -5.1875 C 6.847656 -5.613281 7.28125 -6.097656 7.75 -6.640625 C 8.21875 -7.191406 8.617188 -7.726562 8.953125 -8.25 C 9.296875 -8.78125 9.46875 -9.203125 9.46875 -9.515625 Z M 9.46875 -9.515625 "></path></g></g></g><g fill="#492c01" fill-opacity="1"><g transform="translate(190.031014, 27.399355)"><g></g></g></g><g fill="#492c01" fill-opacity="1"><g transform="translate(197.327144, 27.399355)"><g><path d="M 10.921875 0.3125 C 10.097656 0.3125 9.6875 -0.0625 9.6875 -0.8125 C 9.6875 -1.320312 9.910156 -1.953125 10.359375 -2.703125 C 10.117188 -2.492188 9.851562 -2.269531 9.5625 -2.03125 C 9.269531 -1.800781 9.050781 -1.628906 8.90625 -1.515625 C 8.375 -1.085938 7.804688 -0.675781 7.203125 -0.28125 C 6.609375 0.113281 6.03125 0.3125 5.46875 0.3125 C 4.65625 0.3125 4.25 -0.0351562 4.25 -0.734375 C 4.25 -1.390625 4.488281 -2.054688 4.96875 -2.734375 C 5.445312 -3.410156 6.019531 -4.066406 6.6875 -4.703125 C 7.351562 -5.335938 7.957031 -5.898438 8.5 -6.390625 C 8.59375 -6.484375 8.617188 -6.535156 8.578125 -6.546875 C 8.546875 -6.554688 8.492188 -6.539062 8.421875 -6.5 C 8.117188 -6.238281 7.738281 -5.914062 7.28125 -5.53125 C 6.820312 -5.144531 6.363281 -4.757812 5.90625 -4.375 C 5.457031 -3.988281 5.054688 -3.65625 4.703125 -3.375 C 4.117188 -2.90625 3.441406 -2.375 2.671875 -1.78125 C 1.898438 -1.195312 1.144531 -0.703125 0.40625 -0.296875 C -0.332031 0.109375 -0.972656 0.3125 -1.515625 0.3125 C -2.378906 0.3125 -2.8125 -0.0820312 -2.8125 -0.875 C -2.8125 -1.226562 -2.707031 -1.628906 -2.5 -2.078125 C -2.300781 -2.535156 -2.019531 -2.953125 -1.65625 -3.328125 C -1.4375 -3.546875 -1.21875 -3.722656 -1 -3.859375 C -0.78125 -4.003906 -0.550781 -4.078125 -0.3125 -4.078125 C -0.0820312 -4.078125 0.03125 -3.957031 0.03125 -3.71875 C 0.03125 -3.507812 -0.0664062 -3.285156 -0.265625 -3.046875 C -0.460938 -2.816406 -0.691406 -2.597656 -0.953125 -2.390625 C -1.785156 -1.773438 -2.203125 -1.234375 -2.203125 -0.765625 C -2.203125 -0.328125 -1.972656 -0.109375 -1.515625 -0.109375 C -1.109375 -0.109375 -0.59375 -0.28125 0.03125 -0.625 C 0.664062 -0.976562 1.335938 -1.414062 2.046875 -1.9375 C 2.765625 -2.46875 3.457031 -3.007812 4.125 -3.5625 C 4.789062 -4.113281 5.347656 -4.578125 5.796875 -4.953125 C 6.609375 -5.628906 7.429688 -6.285156 8.265625 -6.921875 C 9.097656 -7.566406 9.859375 -8.132812 10.546875 -8.625 C 11.234375 -9.125 11.773438 -9.488281 12.171875 -9.71875 C 12.484375 -9.90625 12.832031 -10.035156 13.21875 -10.109375 C 13.601562 -10.179688 13.96875 -10.203125 14.3125 -10.171875 C 13.3125 -9.265625 12.320312 -8.347656 11.34375 -7.421875 C 10.375 -6.492188 9.503906 -5.632812 8.734375 -4.84375 C 7.960938 -4.050781 7.367188 -3.40625 6.953125 -2.90625 C 6.503906 -2.394531 6.144531 -1.929688 5.875 -1.515625 C 5.601562 -1.109375 5.46875 -0.789062 5.46875 -0.5625 C 5.46875 -0.351562 5.585938 -0.25 5.828125 -0.25 C 6.148438 -0.25 6.597656 -0.441406 7.171875 -0.828125 C 7.742188 -1.210938 8.242188 -1.566406 8.671875 -1.890625 C 9.765625 -2.753906 10.582031 -3.460938 11.125 -4.015625 C 11.664062 -4.566406 12.050781 -4.957031 12.28125 -5.1875 C 12.75 -5.65625 13.316406 -6.207031 13.984375 -6.84375 C 14.648438 -7.476562 15.316406 -8.066406 15.984375 -8.609375 C 16.648438 -9.160156 17.21875 -9.566406 17.6875 -9.828125 C 17.945312 -9.960938 18.273438 -10.0625 18.671875 -10.125 C 19.066406 -10.1875 19.382812 -10.203125 19.625 -10.171875 C 18.613281 -9.265625 17.628906 -8.347656 16.671875 -7.421875 C 15.710938 -6.492188 14.851562 -5.632812 14.09375 -4.84375 C 13.332031 -4.050781 12.738281 -3.40625 12.3125 -2.90625 C 11.894531 -2.394531 11.554688 -1.945312 11.296875 -1.5625 C 11.046875 -1.175781 10.921875 -0.851562 10.921875 -0.59375 C 10.921875 -0.363281 11.046875 -0.25 11.296875 -0.25 C 11.554688 -0.25 11.875 -0.34375 12.25 -0.53125 C 12.625 -0.71875 13.015625 -0.9375 13.421875 -1.1875 C 13.828125 -1.445312 14.171875 -1.679688 14.453125 -1.890625 C 14.859375 -2.191406 15.285156 -2.535156 15.734375 -2.921875 C 16.191406 -3.316406 16.628906 -3.6875 17.046875 -4.03125 C 17.472656 -4.382812 17.800781 -4.664062 18.03125 -4.875 C 18.289062 -5.113281 18.46875 -5.160156 18.5625 -5.015625 C 18.65625 -4.921875 18.617188 -4.789062 18.453125 -4.625 C 18.148438 -4.375 17.757812 -4.039062 17.28125 -3.625 C 16.800781 -3.21875 16.332031 -2.820312 15.875 -2.4375 C 15.425781 -2.050781 15.0625 -1.753906 14.78125 -1.546875 C 14.1875 -1.117188 13.53125 -0.703125 12.8125 -0.296875 C 12.101562 0.109375 11.472656 0.3125 10.921875 0.3125 Z M 10.921875 0.3125 "></path></g></g></g><g fill="#492c01" fill-opacity="1"><g transform="translate(214.795777, 27.399355)"><g><path d="M 0.109375 0.3125 C -0.316406 0.3125 -0.722656 0.207031 -1.109375 0 C -1.492188 -0.207031 -1.6875 -0.648438 -1.6875 -1.328125 C -1.6875 -1.796875 -1.507812 -2.453125 -1.15625 -3.296875 C -0.800781 -4.140625 -0.0664062 -5.097656 1.046875 -6.171875 C 1.847656 -6.921875 2.710938 -7.609375 3.640625 -8.234375 C 4.578125 -8.867188 5.484375 -9.382812 6.359375 -9.78125 C 7.242188 -10.1875 7.96875 -10.390625 8.53125 -10.390625 C 8.875 -10.390625 9.132812 -10.304688 9.3125 -10.140625 C 9.488281 -9.972656 9.578125 -9.765625 9.578125 -9.515625 C 9.578125 -9.140625 9.390625 -8.734375 9.015625 -8.296875 C 8.640625 -7.867188 8.207031 -7.488281 7.71875 -7.15625 C 7.15625 -6.78125 6.519531 -6.457031 5.8125 -6.1875 C 5.113281 -5.925781 4.5 -5.796875 3.96875 -5.796875 C 3.707031 -5.796875 3.484375 -5.84375 3.296875 -5.9375 C 2.710938 -5.394531 2.140625 -4.804688 1.578125 -4.171875 C 1.015625 -3.546875 0.546875 -2.9375 0.171875 -2.34375 C -0.203125 -1.757812 -0.390625 -1.28125 -0.390625 -0.90625 C -0.390625 -0.4375 -0.117188 -0.203125 0.421875 -0.203125 C 0.773438 -0.203125 1.21875 -0.304688 1.75 -0.515625 C 2.289062 -0.734375 2.851562 -1.03125 3.4375 -1.40625 C 4.28125 -1.9375 5.101562 -2.535156 5.90625 -3.203125 C 6.71875 -3.878906 7.347656 -4.414062 7.796875 -4.8125 C 7.910156 -4.925781 8.023438 -5.015625 8.140625 -5.078125 C 8.253906 -5.148438 8.347656 -5.15625 8.421875 -5.09375 C 8.492188 -5.019531 8.5 -4.9375 8.4375 -4.84375 C 8.382812 -4.75 8.320312 -4.664062 8.25 -4.59375 C 7.664062 -4.0625 7.03125 -3.519531 6.34375 -2.96875 C 5.664062 -2.414062 4.941406 -1.867188 4.171875 -1.328125 C 3.585938 -0.929688 2.929688 -0.554688 2.203125 -0.203125 C 1.484375 0.140625 0.785156 0.3125 0.109375 0.3125 Z M 8.984375 -9.75 C 8.984375 -9.894531 8.898438 -9.96875 8.734375 -9.96875 C 8.503906 -9.96875 8.070312 -9.757812 7.4375 -9.34375 C 6.8125 -8.9375 6.140625 -8.441406 5.421875 -7.859375 C 4.710938 -7.273438 4.085938 -6.710938 3.546875 -6.171875 C 3.640625 -6.128906 3.734375 -6.109375 3.828125 -6.109375 C 4.179688 -6.109375 4.691406 -6.25 5.359375 -6.53125 C 6.023438 -6.8125 6.679688 -7.21875 7.328125 -7.75 C 7.828125 -8.15625 8.226562 -8.535156 8.53125 -8.890625 C 8.832031 -9.253906 8.984375 -9.539062 8.984375 -9.75 Z M 8.984375 -9.75 "></path></g></g></g><g fill="#492c01" fill-opacity="1"><g transform="translate(222.091906, 27.399355)"><g><path d="M 5.578125 -0.59375 C 5.578125 -0.363281 5.707031 -0.25 5.96875 -0.25 C 6.226562 -0.25 6.539062 -0.34375 6.90625 -0.53125 C 7.28125 -0.71875 7.671875 -0.9375 8.078125 -1.1875 C 8.492188 -1.445312 8.84375 -1.679688 9.125 -1.890625 C 9.519531 -2.191406 9.953125 -2.535156 10.421875 -2.921875 C 10.890625 -3.316406 11.332031 -3.6875 11.75 -4.03125 C 12.175781 -4.382812 12.503906 -4.664062 12.734375 -4.875 C 12.972656 -5.113281 13.148438 -5.160156 13.265625 -5.015625 C 13.359375 -4.941406 13.3125 -4.8125 13.125 -4.625 C 12.820312 -4.375 12.4375 -4.039062 11.96875 -3.625 C 11.5 -3.21875 11.03125 -2.820312 10.5625 -2.4375 C 10.09375 -2.050781 9.71875 -1.753906 9.4375 -1.546875 C 8.875 -1.117188 8.234375 -0.703125 7.515625 -0.296875 C 6.804688 0.109375 6.160156 0.3125 5.578125 0.3125 C 4.765625 0.3125 4.359375 -0.0625 4.359375 -0.8125 C 4.359375 -1.1875 4.476562 -1.625 4.71875 -2.125 C 4.96875 -2.625 5.28125 -3.132812 5.65625 -3.65625 C 5.9375 -4.03125 6.238281 -4.394531 6.5625 -4.75 C 6.882812 -5.113281 7.222656 -5.472656 7.578125 -5.828125 C 7.316406 -5.660156 6.953125 -5.445312 6.484375 -5.1875 C 6.023438 -4.9375 5.59375 -4.8125 5.1875 -4.8125 C 4.863281 -4.8125 4.613281 -4.890625 4.4375 -5.046875 C 4.257812 -5.210938 4.03125 -5.296875 3.75 -5.296875 C 3.5625 -5.296875 3.332031 -5.203125 3.0625 -5.015625 C 2.800781 -4.828125 2.550781 -4.628906 2.3125 -4.421875 C 2.082031 -4.210938 1.921875 -4.0625 1.828125 -3.96875 C 1.148438 -3.289062 0.515625 -2.582031 -0.078125 -1.84375 C -0.679688 -1.101562 -1.285156 -0.335938 -1.890625 0.453125 C -2.035156 0.453125 -2.144531 0.367188 -2.21875 0.203125 C -2.300781 0.046875 -2.34375 -0.132812 -2.34375 -0.34375 C -2.34375 -0.65625 -2.101562 -1.171875 -1.625 -1.890625 C -1.144531 -2.617188 -0.550781 -3.425781 0.15625 -4.3125 C 0.875 -5.207031 1.59375 -6.023438 2.3125 -6.765625 C 2.875 -7.378906 3.445312 -7.9375 4.03125 -8.4375 C 4.613281 -8.9375 5.117188 -9.328125 5.546875 -9.609375 C 5.847656 -9.796875 6.226562 -9.9375 6.6875 -10.03125 C 7.144531 -10.125 7.59375 -10.171875 8.03125 -10.171875 C 7.59375 -9.867188 7.054688 -9.441406 6.421875 -8.890625 C 5.785156 -8.347656 5.140625 -7.742188 4.484375 -7.078125 C 3.835938 -6.410156 3.234375 -5.75 2.671875 -5.09375 C 2.992188 -5.34375 3.335938 -5.578125 3.703125 -5.796875 C 4.066406 -6.023438 4.375 -6.140625 4.625 -6.140625 C 4.957031 -6.140625 5.238281 -6.066406 5.46875 -5.921875 C 5.707031 -5.785156 5.96875 -5.71875 6.25 -5.71875 C 6.644531 -5.71875 7.082031 -5.847656 7.5625 -6.109375 C 8.039062 -6.367188 8.488281 -6.695312 8.90625 -7.09375 C 9.519531 -7.65625 10.140625 -8.191406 10.765625 -8.703125 C 11.398438 -9.210938 11.929688 -9.585938 12.359375 -9.828125 C 12.609375 -9.960938 12.929688 -10.0625 13.328125 -10.125 C 13.734375 -10.1875 14.050781 -10.203125 14.28125 -10.171875 C 13.28125 -9.265625 12.296875 -8.347656 11.328125 -7.421875 C 10.367188 -6.492188 9.507812 -5.632812 8.75 -4.84375 C 7.988281 -4.050781 7.398438 -3.40625 6.984375 -2.90625 C 6.585938 -2.414062 6.253906 -1.972656 5.984375 -1.578125 C 5.710938 -1.179688 5.578125 -0.851562 5.578125 -0.59375 Z M 5.578125 -0.59375 "></path></g></g></g><g fill="#492c01" fill-opacity="1"><g transform="translate(234.228746, 27.399355)"><g><path d="M 0.109375 0.3125 C -0.316406 0.3125 -0.722656 0.207031 -1.109375 0 C -1.492188 -0.207031 -1.6875 -0.648438 -1.6875 -1.328125 C -1.6875 -1.796875 -1.507812 -2.453125 -1.15625 -3.296875 C -0.800781 -4.140625 -0.0664062 -5.097656 1.046875 -6.171875 C 1.847656 -6.921875 2.710938 -7.609375 3.640625 -8.234375 C 4.578125 -8.867188 5.484375 -9.382812 6.359375 -9.78125 C 7.242188 -10.1875 7.96875 -10.390625 8.53125 -10.390625 C 8.875 -10.390625 9.132812 -10.304688 9.3125 -10.140625 C 9.488281 -9.972656 9.578125 -9.765625 9.578125 -9.515625 C 9.578125 -9.140625 9.390625 -8.734375 9.015625 -8.296875 C 8.640625 -7.867188 8.207031 -7.488281 7.71875 -7.15625 C 7.15625 -6.78125 6.519531 -6.457031 5.8125 -6.1875 C 5.113281 -5.925781 4.5 -5.796875 3.96875 -5.796875 C 3.707031 -5.796875 3.484375 -5.84375 3.296875 -5.9375 C 2.710938 -5.394531 2.140625 -4.804688 1.578125 -4.171875 C 1.015625 -3.546875 0.546875 -2.9375 0.171875 -2.34375 C -0.203125 -1.757812 -0.390625 -1.28125 -0.390625 -0.90625 C -0.390625 -0.4375 -0.117188 -0.203125 0.421875 -0.203125 C 0.773438 -0.203125 1.21875 -0.304688 1.75 -0.515625 C 2.289062 -0.734375 2.851562 -1.03125 3.4375 -1.40625 C 4.28125 -1.9375 5.101562 -2.535156 5.90625 -3.203125 C 6.71875 -3.878906 7.347656 -4.414062 7.796875 -4.8125 C 7.910156 -4.925781 8.023438 -5.015625 8.140625 -5.078125 C 8.253906 -5.148438 8.347656 -5.15625 8.421875 -5.09375 C 8.492188 -5.019531 8.5 -4.9375 8.4375 -4.84375 C 8.382812 -4.75 8.320312 -4.664062 8.25 -4.59375 C 7.664062 -4.0625 7.03125 -3.519531 6.34375 -2.96875 C 5.664062 -2.414062 4.941406 -1.867188 4.171875 -1.328125 C 3.585938 -0.929688 2.929688 -0.554688 2.203125 -0.203125 C 1.484375 0.140625 0.785156 0.3125 0.109375 0.3125 Z M 8.984375 -9.75 C 8.984375 -9.894531 8.898438 -9.96875 8.734375 -9.96875 C 8.503906 -9.96875 8.070312 -9.757812 7.4375 -9.34375 C 6.8125 -8.9375 6.140625 -8.441406 5.421875 -7.859375 C 4.710938 -7.273438 4.085938 -6.710938 3.546875 -6.171875 C 3.640625 -6.128906 3.734375 -6.109375 3.828125 -6.109375 C 4.179688 -6.109375 4.691406 -6.25 5.359375 -6.53125 C 6.023438 -6.8125 6.679688 -7.21875 7.328125 -7.75 C 7.828125 -8.15625 8.226562 -8.535156 8.53125 -8.890625 C 8.832031 -9.253906 8.984375 -9.539062 8.984375 -9.75 Z M 8.984375 -9.75 "></path></g></g></g><g fill="#492c01" fill-opacity="1"><g transform="translate(241.524875, 27.399355)"><g><path d="M 5.578125 -0.59375 C 5.578125 -0.363281 5.707031 -0.25 5.96875 -0.25 C 6.226562 -0.25 6.539062 -0.34375 6.90625 -0.53125 C 7.28125 -0.71875 7.671875 -0.9375 8.078125 -1.1875 C 8.492188 -1.445312 8.84375 -1.679688 9.125 -1.890625 C 9.519531 -2.191406 9.953125 -2.535156 10.421875 -2.921875 C 10.890625 -3.316406 11.332031 -3.6875 11.75 -4.03125 C 12.175781 -4.382812 12.503906 -4.664062 12.734375 -4.875 C 12.972656 -5.113281 13.148438 -5.160156 13.265625 -5.015625 C 13.359375 -4.941406 13.3125 -4.8125 13.125 -4.625 C 12.820312 -4.375 12.4375 -4.039062 11.96875 -3.625 C 11.5 -3.21875 11.03125 -2.820312 10.5625 -2.4375 C 10.09375 -2.050781 9.71875 -1.753906 9.4375 -1.546875 C 8.875 -1.117188 8.234375 -0.703125 7.515625 -0.296875 C 6.804688 0.109375 6.160156 0.3125 5.578125 0.3125 C 4.765625 0.3125 4.359375 -0.0625 4.359375 -0.8125 C 4.359375 -1.1875 4.476562 -1.625 4.71875 -2.125 C 4.96875 -2.625 5.28125 -3.132812 5.65625 -3.65625 C 5.9375 -4.03125 6.238281 -4.394531 6.5625 -4.75 C 6.882812 -5.113281 7.222656 -5.472656 7.578125 -5.828125 C 7.316406 -5.660156 6.953125 -5.445312 6.484375 -5.1875 C 6.023438 -4.9375 5.59375 -4.8125 5.1875 -4.8125 C 4.863281 -4.8125 4.613281 -4.890625 4.4375 -5.046875 C 4.257812 -5.210938 4.03125 -5.296875 3.75 -5.296875 C 3.5625 -5.296875 3.332031 -5.203125 3.0625 -5.015625 C 2.800781 -4.828125 2.550781 -4.628906 2.3125 -4.421875 C 2.082031 -4.210938 1.921875 -4.0625 1.828125 -3.96875 C 1.148438 -3.289062 0.515625 -2.582031 -0.078125 -1.84375 C -0.679688 -1.101562 -1.285156 -0.335938 -1.890625 0.453125 C -2.035156 0.453125 -2.144531 0.367188 -2.21875 0.203125 C -2.300781 0.046875 -2.34375 -0.132812 -2.34375 -0.34375 C -2.34375 -0.65625 -2.101562 -1.171875 -1.625 -1.890625 C -1.144531 -2.617188 -0.550781 -3.425781 0.15625 -4.3125 C 0.875 -5.207031 1.59375 -6.023438 2.3125 -6.765625 C 2.875 -7.378906 3.445312 -7.9375 4.03125 -8.4375 C 4.613281 -8.9375 5.117188 -9.328125 5.546875 -9.609375 C 5.847656 -9.796875 6.226562 -9.9375 6.6875 -10.03125 C 7.144531 -10.125 7.59375 -10.171875 8.03125 -10.171875 C 7.59375 -9.867188 7.054688 -9.441406 6.421875 -8.890625 C 5.785156 -8.347656 5.140625 -7.742188 4.484375 -7.078125 C 3.835938 -6.410156 3.234375 -5.75 2.671875 -5.09375 C 2.992188 -5.34375 3.335938 -5.578125 3.703125 -5.796875 C 4.066406 -6.023438 4.375 -6.140625 4.625 -6.140625 C 4.957031 -6.140625 5.238281 -6.066406 5.46875 -5.921875 C 5.707031 -5.785156 5.96875 -5.71875 6.25 -5.71875 C 6.644531 -5.71875 7.082031 -5.847656 7.5625 -6.109375 C 8.039062 -6.367188 8.488281 -6.695312 8.90625 -7.09375 C 9.519531 -7.65625 10.140625 -8.191406 10.765625 -8.703125 C 11.398438 -9.210938 11.929688 -9.585938 12.359375 -9.828125 C 12.609375 -9.960938 12.929688 -10.0625 13.328125 -10.125 C 13.734375 -10.1875 14.050781 -10.203125 14.28125 -10.171875 C 13.28125 -9.265625 12.296875 -8.347656 11.328125 -7.421875 C 10.367188 -6.492188 9.507812 -5.632812 8.75 -4.84375 C 7.988281 -4.050781 7.398438 -3.40625 6.984375 -2.90625 C 6.585938 -2.414062 6.253906 -1.972656 5.984375 -1.578125 C 5.710938 -1.179688 5.578125 -0.851562 5.578125 -0.59375 Z M 5.578125 -0.59375 "></path></g></g></g><g fill="#492c01" fill-opacity="1"><g transform="translate(66.711596, 61.673761)"><g></g></g></g><g fill="#492c01" fill-opacity="1"><g transform="translate(74.014381, 61.673761)"><g><path d="M 11.328125 -10.3125 C 11.960938 -10.3125 12.28125 -10.007812 12.28125 -9.40625 C 12.28125 -9.144531 12.222656 -8.847656 12.109375 -8.515625 C 11.992188 -8.191406 11.804688 -7.890625 11.546875 -7.609375 C 12.222656 -8.054688 12.910156 -8.488281 13.609375 -8.90625 C 14.316406 -9.332031 14.976562 -9.679688 15.59375 -9.953125 C 16.21875 -10.222656 16.71875 -10.359375 17.09375 -10.359375 C 17.488281 -10.359375 17.765625 -10.242188 17.921875 -10.015625 C 18.085938 -9.796875 18.171875 -9.554688 18.171875 -9.296875 C 18.171875 -8.898438 17.984375 -8.441406 17.609375 -7.921875 C 17.242188 -7.410156 16.804688 -6.910156 16.296875 -6.421875 C 15.796875 -5.929688 15.335938 -5.5 14.921875 -5.125 C 14.359375 -4.613281 13.84375 -4.128906 13.375 -3.671875 C 12.90625 -3.210938 12.484375 -2.785156 12.109375 -2.390625 C 11.734375 -1.992188 11.425781 -1.640625 11.1875 -1.328125 C 10.957031 -1.023438 10.84375 -0.78125 10.84375 -0.59375 C 10.84375 -0.363281 10.972656 -0.25 11.234375 -0.25 C 11.535156 -0.25 11.945312 -0.378906 12.46875 -0.640625 C 13 -0.910156 13.554688 -1.257812 14.140625 -1.6875 C 14.890625 -2.21875 15.554688 -2.726562 16.140625 -3.21875 C 16.722656 -3.71875 17.226562 -4.140625 17.65625 -4.484375 C 18.050781 -4.859375 18.304688 -4.988281 18.421875 -4.875 C 18.492188 -4.832031 18.507812 -4.765625 18.46875 -4.671875 C 18.4375 -4.578125 18.375 -4.492188 18.28125 -4.421875 C 18 -4.191406 17.625 -3.875 17.15625 -3.46875 C 16.6875 -3.070312 16.195312 -2.660156 15.6875 -2.234375 C 15.175781 -1.816406 14.695312 -1.457031 14.25 -1.15625 C 13.632812 -0.707031 13.03125 -0.347656 12.4375 -0.078125 C 11.84375 0.179688 11.320312 0.3125 10.875 0.3125 C 10.570312 0.3125 10.289062 0.207031 10.03125 0 C 9.78125 -0.207031 9.65625 -0.535156 9.65625 -0.984375 C 9.65625 -1.523438 9.898438 -2.15625 10.390625 -2.875 C 10.828125 -3.488281 11.253906 -4.007812 11.671875 -4.4375 C 12.097656 -4.875 12.675781 -5.421875 13.40625 -6.078125 C 13.78125 -6.421875 14.238281 -6.820312 14.78125 -7.28125 C 15.332031 -7.738281 15.832031 -8.179688 16.28125 -8.609375 C 16.726562 -9.046875 16.953125 -9.367188 16.953125 -9.578125 C 16.953125 -9.722656 16.878906 -9.796875 16.734375 -9.796875 C 16.503906 -9.796875 16.054688 -9.632812 15.390625 -9.3125 C 14.722656 -9 13.972656 -8.582031 13.140625 -8.0625 C 12.304688 -7.550781 11.484375 -7.003906 10.671875 -6.421875 C 9.941406 -5.859375 9.207031 -5.253906 8.46875 -4.609375 C 7.738281 -3.972656 6.972656 -3.207031 6.171875 -2.3125 C 5.828125 -1.914062 5.4375 -1.453125 5 -0.921875 C 4.570312 -0.398438 4.203125 0.0546875 3.890625 0.453125 C 3.796875 0.453125 3.703125 0.367188 3.609375 0.203125 C 3.515625 0.046875 3.46875 -0.148438 3.46875 -0.390625 C 3.46875 -0.617188 3.65625 -1.035156 4.03125 -1.640625 C 4.40625 -2.253906 4.914062 -2.957031 5.5625 -3.75 C 6.207031 -4.550781 6.90625 -5.328125 7.65625 -6.078125 C 8 -6.421875 8.453125 -6.828125 9.015625 -7.296875 C 9.578125 -7.765625 10.070312 -8.210938 10.5 -8.640625 C 10.9375 -9.078125 11.15625 -9.390625 11.15625 -9.578125 C 11.15625 -9.722656 11.085938 -9.796875 10.953125 -9.796875 C 10.648438 -9.796875 10.15625 -9.628906 9.46875 -9.296875 C 8.789062 -8.972656 8.03125 -8.539062 7.1875 -8 C 6.351562 -7.457031 5.519531 -6.882812 4.6875 -6.28125 C 3.851562 -5.675781 3.144531 -5.09375 2.5625 -4.53125 C 1.4375 -3.445312 0.515625 -2.488281 -0.203125 -1.65625 C -0.929688 -0.832031 -1.492188 -0.128906 -1.890625 0.453125 C -1.984375 0.453125 -2.082031 0.367188 -2.1875 0.203125 C -2.289062 0.046875 -2.34375 -0.160156 -2.34375 -0.421875 C -2.34375 -0.679688 -2.125 -1.144531 -1.6875 -1.8125 C -1.257812 -2.476562 -0.695312 -3.253906 0 -4.140625 C 0.695312 -5.023438 1.46875 -5.898438 2.3125 -6.765625 C 2.875 -7.378906 3.453125 -7.9375 4.046875 -8.4375 C 4.648438 -8.9375 5.160156 -9.328125 5.578125 -9.609375 C 5.878906 -9.796875 6.242188 -9.9375 6.671875 -10.03125 C 7.109375 -10.125 7.550781 -10.171875 8 -10.171875 C 7.394531 -9.753906 6.644531 -9.144531 5.75 -8.34375 C 4.863281 -7.550781 4.035156 -6.710938 3.265625 -5.828125 C 3.210938 -5.773438 3.191406 -5.738281 3.203125 -5.71875 C 3.222656 -5.695312 3.242188 -5.695312 3.265625 -5.71875 C 3.710938 -6.09375 4.285156 -6.535156 4.984375 -7.046875 C 5.679688 -7.566406 6.425781 -8.078125 7.21875 -8.578125 C 8.019531 -9.078125 8.78125 -9.488281 9.5 -9.8125 C 10.226562 -10.144531 10.835938 -10.3125 11.328125 -10.3125 Z M 11.328125 -10.3125 "></path></g></g></g><g fill="#492c01" fill-opacity="1"><g transform="translate(91.518079, 61.673761)"><g><path d="M 8.703125 -10.390625 C 9.585938 -10.390625 10.03125 -10.050781 10.03125 -9.375 C 10.03125 -8.851562 9.773438 -8.15625 9.265625 -7.28125 C 8.753906 -6.40625 7.945312 -5.414062 6.84375 -4.3125 C 5.4375 -2.882812 4.113281 -1.753906 2.875 -0.921875 C 1.632812 -0.0976562 0.664062 0.3125 -0.03125 0.3125 C -1.039062 0.3125 -1.546875 -0.234375 -1.546875 -1.328125 C -1.546875 -1.960938 -1.304688 -2.726562 -0.828125 -3.625 C -0.347656 -4.53125 0.320312 -5.425781 1.1875 -6.3125 C 2.007812 -7.132812 2.875 -7.847656 3.78125 -8.453125 C 4.695312 -9.066406 5.585938 -9.539062 6.453125 -9.875 C 7.316406 -10.21875 8.066406 -10.390625 8.703125 -10.390625 Z M 9.46875 -9.515625 C 9.46875 -9.765625 9.328125 -9.890625 9.046875 -9.890625 C 8.515625 -9.890625 7.648438 -9.4375 6.453125 -8.53125 C 5.265625 -7.632812 3.941406 -6.453125 2.484375 -4.984375 C 1.691406 -4.117188 0.984375 -3.300781 0.359375 -2.53125 C -0.253906 -1.757812 -0.5625 -1.148438 -0.5625 -0.703125 C -0.5625 -0.304688 -0.375 -0.109375 0 -0.109375 C 0.539062 -0.109375 1.394531 -0.585938 2.5625 -1.546875 C 3.726562 -2.503906 5.023438 -3.71875 6.453125 -5.1875 C 6.847656 -5.613281 7.28125 -6.097656 7.75 -6.640625 C 8.21875 -7.191406 8.617188 -7.726562 8.953125 -8.25 C 9.296875 -8.78125 9.46875 -9.203125 9.46875 -9.515625 Z M 9.46875 -9.515625 "></path></g></g></g><g fill="#492c01" fill-opacity="1"><g transform="translate(100.568279, 61.673761)"><g><path d="M 15.4375 -14.140625 C 15.53125 -14.140625 15.578125 -14.09375 15.578125 -14 C 15.578125 -13.976562 15.539062 -13.910156 15.46875 -13.796875 C 14.820312 -13.179688 14.050781 -12.609375 13.15625 -12.078125 C 12.269531 -11.554688 11.300781 -11.296875 10.25 -11.296875 C 8.914062 -11.296875 8.25 -11.789062 8.25 -12.78125 C 8.25 -13.144531 8.378906 -13.460938 8.640625 -13.734375 C 8.910156 -14.003906 9.164062 -14.140625 9.40625 -14.140625 C 9.5 -14.140625 9.546875 -14.101562 9.546875 -14.03125 C 9.546875 -14.007812 9.515625 -13.941406 9.453125 -13.828125 C 9.398438 -13.710938 9.375 -13.5625 9.375 -13.375 C 9.375 -13 9.519531 -12.71875 9.8125 -12.53125 C 10.101562 -12.34375 10.484375 -12.25 10.953125 -12.25 C 11.765625 -12.25 12.566406 -12.460938 13.359375 -12.890625 C 14.160156 -13.328125 14.785156 -13.722656 15.234375 -14.078125 C 15.328125 -14.117188 15.394531 -14.140625 15.4375 -14.140625 Z M 13.46875 -10.25 C 12.46875 -9.332031 11.503906 -8.40625 10.578125 -7.46875 C 9.648438 -6.539062 8.820312 -5.679688 8.09375 -4.890625 C 7.375 -4.109375 6.804688 -3.460938 6.390625 -2.953125 C 5.960938 -2.429688 5.597656 -1.96875 5.296875 -1.5625 C 4.992188 -1.15625 4.84375 -0.84375 4.84375 -0.625 C 4.84375 -0.414062 4.957031 -0.3125 5.1875 -0.3125 C 5.425781 -0.3125 5.738281 -0.414062 6.125 -0.625 C 6.507812 -0.84375 6.898438 -1.097656 7.296875 -1.390625 C 7.691406 -1.679688 8.019531 -1.921875 8.28125 -2.109375 C 8.84375 -2.578125 9.429688 -3.070312 10.046875 -3.59375 C 10.671875 -4.125 11.21875 -4.585938 11.6875 -4.984375 C 11.78125 -5.023438 11.859375 -5.0625 11.921875 -5.09375 C 11.992188 -5.132812 12.066406 -5.117188 12.140625 -5.046875 C 12.253906 -4.929688 12.21875 -4.804688 12.03125 -4.671875 C 11.707031 -4.390625 11.328125 -4.0625 10.890625 -3.6875 C 10.460938 -3.3125 10.039062 -2.953125 9.625 -2.609375 C 9.21875 -2.273438 8.890625 -2.003906 8.640625 -1.796875 C 8.078125 -1.367188 7.453125 -0.921875 6.765625 -0.453125 C 6.085938 0.015625 5.484375 0.25 4.953125 0.25 C 4.484375 0.25 4.160156 0.140625 3.984375 -0.078125 C 3.804688 -0.304688 3.71875 -0.597656 3.71875 -0.953125 C 3.71875 -1.460938 3.941406 -2.09375 4.390625 -2.84375 C 4.148438 -2.601562 3.921875 -2.394531 3.703125 -2.21875 C 3.484375 -2.050781 3.300781 -1.910156 3.15625 -1.796875 C 2.613281 -1.347656 1.976562 -0.894531 1.25 -0.4375 C 0.53125 0.0195312 -0.09375 0.25 -0.625 0.25 C -1.070312 0.25 -1.382812 0.148438 -1.5625 -0.046875 C -1.738281 -0.242188 -1.828125 -0.5 -1.828125 -0.8125 C -1.828125 -1.394531 -1.59375 -2.066406 -1.125 -2.828125 C -0.65625 -3.585938 -0.0234375 -4.398438 0.765625 -5.265625 C 1.234375 -5.753906 1.796875 -6.285156 2.453125 -6.859375 C 3.109375 -7.429688 3.769531 -7.96875 4.4375 -8.46875 C 5.101562 -8.976562 5.671875 -9.359375 6.140625 -9.609375 C 6.398438 -9.773438 6.769531 -9.894531 7.25 -9.96875 C 7.726562 -10.039062 8.082031 -10.0625 8.3125 -10.03125 C 7.28125 -9.195312 6.269531 -8.328125 5.28125 -7.421875 C 4.289062 -6.523438 3.414062 -5.679688 2.65625 -4.890625 C 1.894531 -4.109375 1.300781 -3.460938 0.875 -2.953125 C 0.457031 -2.429688 0.101562 -1.96875 -0.1875 -1.5625 C -0.476562 -1.15625 -0.625 -0.84375 -0.625 -0.625 C -0.625 -0.414062 -0.519531 -0.3125 -0.3125 -0.3125 C -0.0820312 -0.3125 0.226562 -0.414062 0.625 -0.625 C 1.03125 -0.84375 1.441406 -1.097656 1.859375 -1.390625 C 2.273438 -1.679688 2.625 -1.941406 2.90625 -2.171875 C 3.21875 -2.410156 3.597656 -2.734375 4.046875 -3.140625 C 4.503906 -3.546875 4.9375 -3.953125 5.34375 -4.359375 C 5.757812 -4.773438 6.0625 -5.078125 6.25 -5.265625 C 6.71875 -5.753906 7.273438 -6.300781 7.921875 -6.90625 C 8.578125 -7.519531 9.234375 -8.097656 9.890625 -8.640625 C 10.546875 -9.191406 11.109375 -9.609375 11.578125 -9.890625 C 11.765625 -10.015625 12.066406 -10.109375 12.484375 -10.171875 C 12.910156 -10.242188 13.238281 -10.269531 13.46875 -10.25 Z M 13.46875 -10.25 "></path></g></g></g><g fill="#492c01" fill-opacity="1"><g transform="translate(111.547561, 61.673761)"><g></g></g></g><g fill="#492c01" fill-opacity="1"><g transform="translate(118.84369, 61.673761)"><g><path d="M 9.75 -9.234375 C 9.75 -9.421875 9.691406 -9.578125 9.578125 -9.703125 C 9.460938 -9.828125 9.273438 -9.890625 9.015625 -9.890625 C 8.429688 -9.890625 7.769531 -9.679688 7.03125 -9.265625 C 6.300781 -8.847656 5.617188 -8.40625 4.984375 -7.9375 C 4.328125 -7.4375 3.597656 -6.847656 2.796875 -6.171875 C 2.003906 -5.492188 1.34375 -4.921875 0.8125 -4.453125 C 0.625 -4.296875 0.46875 -4.273438 0.34375 -4.390625 C 0.28125 -4.503906 0.316406 -4.628906 0.453125 -4.765625 C 0.566406 -4.859375 0.796875 -5.054688 1.140625 -5.359375 C 1.484375 -5.671875 1.875 -6.019531 2.3125 -6.40625 C 2.757812 -6.789062 3.195312 -7.164062 3.625 -7.53125 C 4.0625 -7.894531 4.429688 -8.179688 4.734375 -8.390625 C 5.316406 -8.804688 6.019531 -9.25 6.84375 -9.71875 C 7.664062 -10.1875 8.507812 -10.410156 9.375 -10.390625 C 9.9375 -10.367188 10.363281 -10.203125 10.65625 -9.890625 C 10.945312 -9.585938 11.09375 -9.191406 11.09375 -8.703125 C 11.09375 -7.910156 10.816406 -7.066406 10.265625 -6.171875 C 9.710938 -5.285156 8.992188 -4.429688 8.109375 -3.609375 C 7.335938 -2.890625 6.5 -2.234375 5.59375 -1.640625 C 4.695312 -1.054688 3.847656 -0.585938 3.046875 -0.234375 C 2.253906 0.109375 1.585938 0.28125 1.046875 0.28125 C 0.742188 0.28125 0.488281 0.203125 0.28125 0.046875 C 0.0703125 -0.0976562 -0.03125 -0.347656 -0.03125 -0.703125 C -0.03125 -1.097656 0.0664062 -1.488281 0.265625 -1.875 C 0.460938 -2.257812 0.710938 -2.628906 1.015625 -2.984375 C 1.128906 -3.097656 1.269531 -3.222656 1.4375 -3.359375 C 1.601562 -3.503906 1.78125 -3.585938 1.96875 -3.609375 C 2.15625 -3.660156 2.304688 -3.640625 2.421875 -3.546875 C 2.535156 -3.453125 2.59375 -3.320312 2.59375 -3.15625 C 2.59375 -2.988281 2.488281 -2.804688 2.28125 -2.609375 C 2.070312 -2.410156 1.863281 -2.242188 1.65625 -2.109375 C 1.1875 -1.804688 0.859375 -1.535156 0.671875 -1.296875 C 0.484375 -1.066406 0.390625 -0.859375 0.390625 -0.671875 C 0.390625 -0.335938 0.539062 -0.171875 0.84375 -0.171875 C 1.164062 -0.171875 1.585938 -0.335938 2.109375 -0.671875 C 2.640625 -1.015625 3.195312 -1.429688 3.78125 -1.921875 C 4.375 -2.421875 4.925781 -2.90625 5.4375 -3.375 C 5.957031 -3.84375 6.34375 -4.203125 6.59375 -4.453125 C 6.800781 -4.640625 7.03125 -4.851562 7.28125 -5.09375 C 7.53125 -5.34375 7.710938 -5.539062 7.828125 -5.6875 C 7.617188 -5.570312 7.363281 -5.40625 7.0625 -5.1875 C 6.769531 -4.976562 6.460938 -4.875 6.140625 -4.875 C 5.953125 -4.875 5.753906 -4.921875 5.546875 -5.015625 C 5.335938 -5.109375 5.140625 -5.15625 4.953125 -5.15625 C 4.597656 -5.15625 4.148438 -4.898438 3.609375 -4.390625 C 3.566406 -4.335938 3.503906 -4.296875 3.421875 -4.265625 C 3.335938 -4.234375 3.273438 -4.238281 3.234375 -4.28125 C 3.160156 -4.332031 3.140625 -4.394531 3.171875 -4.46875 C 3.210938 -4.550781 3.265625 -4.628906 3.328125 -4.703125 C 3.585938 -4.984375 3.921875 -5.28125 4.328125 -5.59375 C 4.742188 -5.914062 5.140625 -6.078125 5.515625 -6.078125 C 5.742188 -6.078125 5.960938 -6.03125 6.171875 -5.9375 C 6.390625 -5.84375 6.578125 -5.796875 6.734375 -5.796875 C 7.128906 -5.796875 7.523438 -5.921875 7.921875 -6.171875 C 8.328125 -6.429688 8.671875 -6.75 8.953125 -7.125 C 9.234375 -7.519531 9.4375 -7.90625 9.5625 -8.28125 C 9.6875 -8.65625 9.75 -8.972656 9.75 -9.234375 Z M 9.75 -9.234375 "></path></g></g></g><g fill="#492c01" fill-opacity="1"><g transform="translate(129.050593, 61.673761)"><g><path d="M 9.75 -9.234375 C 9.75 -9.421875 9.691406 -9.578125 9.578125 -9.703125 C 9.460938 -9.828125 9.273438 -9.890625 9.015625 -9.890625 C 8.429688 -9.890625 7.769531 -9.679688 7.03125 -9.265625 C 6.300781 -8.847656 5.617188 -8.40625 4.984375 -7.9375 C 4.328125 -7.4375 3.597656 -6.847656 2.796875 -6.171875 C 2.003906 -5.492188 1.34375 -4.921875 0.8125 -4.453125 C 0.625 -4.296875 0.46875 -4.273438 0.34375 -4.390625 C 0.28125 -4.503906 0.316406 -4.628906 0.453125 -4.765625 C 0.566406 -4.859375 0.796875 -5.054688 1.140625 -5.359375 C 1.484375 -5.671875 1.875 -6.019531 2.3125 -6.40625 C 2.757812 -6.789062 3.195312 -7.164062 3.625 -7.53125 C 4.0625 -7.894531 4.429688 -8.179688 4.734375 -8.390625 C 5.316406 -8.804688 6.019531 -9.25 6.84375 -9.71875 C 7.664062 -10.1875 8.507812 -10.410156 9.375 -10.390625 C 9.9375 -10.367188 10.363281 -10.203125 10.65625 -9.890625 C 10.945312 -9.585938 11.09375 -9.191406 11.09375 -8.703125 C 11.09375 -7.910156 10.816406 -7.066406 10.265625 -6.171875 C 9.710938 -5.285156 8.992188 -4.429688 8.109375 -3.609375 C 7.335938 -2.890625 6.5 -2.234375 5.59375 -1.640625 C 4.695312 -1.054688 3.847656 -0.585938 3.046875 -0.234375 C 2.253906 0.109375 1.585938 0.28125 1.046875 0.28125 C 0.742188 0.28125 0.488281 0.203125 0.28125 0.046875 C 0.0703125 -0.0976562 -0.03125 -0.347656 -0.03125 -0.703125 C -0.03125 -1.097656 0.0664062 -1.488281 0.265625 -1.875 C 0.460938 -2.257812 0.710938 -2.628906 1.015625 -2.984375 C 1.128906 -3.097656 1.269531 -3.222656 1.4375 -3.359375 C 1.601562 -3.503906 1.78125 -3.585938 1.96875 -3.609375 C 2.15625 -3.660156 2.304688 -3.640625 2.421875 -3.546875 C 2.535156 -3.453125 2.59375 -3.320312 2.59375 -3.15625 C 2.59375 -2.988281 2.488281 -2.804688 2.28125 -2.609375 C 2.070312 -2.410156 1.863281 -2.242188 1.65625 -2.109375 C 1.1875 -1.804688 0.859375 -1.535156 0.671875 -1.296875 C 0.484375 -1.066406 0.390625 -0.859375 0.390625 -0.671875 C 0.390625 -0.335938 0.539062 -0.171875 0.84375 -0.171875 C 1.164062 -0.171875 1.585938 -0.335938 2.109375 -0.671875 C 2.640625 -1.015625 3.195312 -1.429688 3.78125 -1.921875 C 4.375 -2.421875 4.925781 -2.90625 5.4375 -3.375 C 5.957031 -3.84375 6.34375 -4.203125 6.59375 -4.453125 C 6.800781 -4.640625 7.03125 -4.851562 7.28125 -5.09375 C 7.53125 -5.34375 7.710938 -5.539062 7.828125 -5.6875 C 7.617188 -5.570312 7.363281 -5.40625 7.0625 -5.1875 C 6.769531 -4.976562 6.460938 -4.875 6.140625 -4.875 C 5.953125 -4.875 5.753906 -4.921875 5.546875 -5.015625 C 5.335938 -5.109375 5.140625 -5.15625 4.953125 -5.15625 C 4.597656 -5.15625 4.148438 -4.898438 3.609375 -4.390625 C 3.566406 -4.335938 3.503906 -4.296875 3.421875 -4.265625 C 3.335938 -4.234375 3.273438 -4.238281 3.234375 -4.28125 C 3.160156 -4.332031 3.140625 -4.394531 3.171875 -4.46875 C 3.210938 -4.550781 3.265625 -4.628906 3.328125 -4.703125 C 3.585938 -4.984375 3.921875 -5.28125 4.328125 -5.59375 C 4.742188 -5.914062 5.140625 -6.078125 5.515625 -6.078125 C 5.742188 -6.078125 5.960938 -6.03125 6.171875 -5.9375 C 6.390625 -5.84375 6.578125 -5.796875 6.734375 -5.796875 C 7.128906 -5.796875 7.523438 -5.921875 7.921875 -6.171875 C 8.328125 -6.429688 8.671875 -6.75 8.953125 -7.125 C 9.234375 -7.519531 9.4375 -7.90625 9.5625 -8.28125 C 9.6875 -8.65625 9.75 -8.972656 9.75 -9.234375 Z M 9.75 -9.234375 "></path></g></g></g><g fill="#492c01" fill-opacity="1"><g transform="translate(140.310504, 61.673761)"><g><path d="M 5.609375 0.3125 C 4.796875 0.3125 4.390625 -0.0625 4.390625 -0.8125 C 4.390625 -1.320312 4.539062 -1.835938 4.84375 -2.359375 C 5.144531 -2.890625 5.519531 -3.414062 5.96875 -3.9375 C 6.363281 -4.394531 6.789062 -4.828125 7.25 -5.234375 C 7.707031 -5.648438 8.125 -6.035156 8.5 -6.390625 C 8.59375 -6.484375 8.617188 -6.535156 8.578125 -6.546875 C 8.546875 -6.554688 8.492188 -6.539062 8.421875 -6.5 C 7.835938 -6 7.222656 -5.476562 6.578125 -4.9375 C 5.929688 -4.40625 5.304688 -3.882812 4.703125 -3.375 C 4.140625 -2.875 3.472656 -2.335938 2.703125 -1.765625 C 1.929688 -1.191406 1.171875 -0.703125 0.421875 -0.296875 C -0.328125 0.109375 -0.972656 0.3125 -1.515625 0.3125 C -2.378906 0.3125 -2.8125 -0.0820312 -2.8125 -0.875 C -2.8125 -1.226562 -2.707031 -1.628906 -2.5 -2.078125 C -2.300781 -2.535156 -2.019531 -2.953125 -1.65625 -3.328125 C -1.4375 -3.546875 -1.21875 -3.722656 -1 -3.859375 C -0.78125 -4.003906 -0.550781 -4.078125 -0.3125 -4.078125 C -0.0820312 -4.078125 0.03125 -3.957031 0.03125 -3.71875 C 0.03125 -3.507812 -0.0664062 -3.285156 -0.265625 -3.046875 C -0.460938 -2.816406 -0.691406 -2.597656 -0.953125 -2.390625 C -1.785156 -1.773438 -2.203125 -1.234375 -2.203125 -0.765625 C -2.203125 -0.328125 -1.972656 -0.109375 -1.515625 -0.109375 C -1.109375 -0.109375 -0.59375 -0.28125 0.03125 -0.625 C 0.664062 -0.976562 1.335938 -1.414062 2.046875 -1.9375 C 2.765625 -2.46875 3.457031 -3.007812 4.125 -3.5625 C 4.789062 -4.113281 5.347656 -4.578125 5.796875 -4.953125 C 6.609375 -5.628906 7.429688 -6.285156 8.265625 -6.921875 C 9.097656 -7.566406 9.859375 -8.132812 10.546875 -8.625 C 11.234375 -9.125 11.773438 -9.488281 12.171875 -9.71875 C 12.484375 -9.90625 12.832031 -10.035156 13.21875 -10.109375 C 13.601562 -10.179688 13.96875 -10.203125 14.3125 -10.171875 C 13.3125 -9.265625 12.332031 -8.347656 11.375 -7.421875 C 10.414062 -6.492188 9.554688 -5.632812 8.796875 -4.84375 C 8.035156 -4.050781 7.441406 -3.40625 7.015625 -2.90625 C 6.597656 -2.394531 6.257812 -1.945312 6 -1.5625 C 5.738281 -1.175781 5.609375 -0.851562 5.609375 -0.59375 C 5.609375 -0.363281 5.738281 -0.25 6 -0.25 C 6.257812 -0.25 6.578125 -0.34375 6.953125 -0.53125 C 7.328125 -0.71875 7.71875 -0.9375 8.125 -1.1875 C 8.53125 -1.445312 8.875 -1.679688 9.15625 -1.890625 C 9.550781 -2.191406 9.984375 -2.535156 10.453125 -2.921875 C 10.921875 -3.316406 11.359375 -3.6875 11.765625 -4.03125 C 12.179688 -4.382812 12.503906 -4.664062 12.734375 -4.875 C 12.992188 -5.113281 13.171875 -5.160156 13.265625 -5.015625 C 13.359375 -4.921875 13.320312 -4.789062 13.15625 -4.625 C 12.851562 -4.375 12.460938 -4.039062 11.984375 -3.625 C 11.503906 -3.21875 11.035156 -2.820312 10.578125 -2.4375 C 10.117188 -2.050781 9.75 -1.753906 9.46875 -1.546875 C 8.914062 -1.117188 8.28125 -0.703125 7.5625 -0.296875 C 6.851562 0.109375 6.203125 0.3125 5.609375 0.3125 Z M 5.609375 0.3125 "></path></g></g></g><g fill="#492c01" fill-opacity="1"><g transform="translate(152.482431, 61.673761)"><g><path d="M 0.109375 0.3125 C -0.316406 0.3125 -0.722656 0.207031 -1.109375 0 C -1.492188 -0.207031 -1.6875 -0.648438 -1.6875 -1.328125 C -1.6875 -1.796875 -1.507812 -2.453125 -1.15625 -3.296875 C -0.800781 -4.140625 -0.0664062 -5.097656 1.046875 -6.171875 C 1.847656 -6.921875 2.710938 -7.609375 3.640625 -8.234375 C 4.578125 -8.867188 5.484375 -9.382812 6.359375 -9.78125 C 7.242188 -10.1875 7.96875 -10.390625 8.53125 -10.390625 C 8.875 -10.390625 9.132812 -10.304688 9.3125 -10.140625 C 9.488281 -9.972656 9.578125 -9.765625 9.578125 -9.515625 C 9.578125 -9.140625 9.390625 -8.734375 9.015625 -8.296875 C 8.640625 -7.867188 8.207031 -7.488281 7.71875 -7.15625 C 7.15625 -6.78125 6.519531 -6.457031 5.8125 -6.1875 C 5.113281 -5.925781 4.5 -5.796875 3.96875 -5.796875 C 3.707031 -5.796875 3.484375 -5.84375 3.296875 -5.9375 C 2.710938 -5.394531 2.140625 -4.804688 1.578125 -4.171875 C 1.015625 -3.546875 0.546875 -2.9375 0.171875 -2.34375 C -0.203125 -1.757812 -0.390625 -1.28125 -0.390625 -0.90625 C -0.390625 -0.4375 -0.117188 -0.203125 0.421875 -0.203125 C 0.773438 -0.203125 1.21875 -0.304688 1.75 -0.515625 C 2.289062 -0.734375 2.851562 -1.03125 3.4375 -1.40625 C 4.28125 -1.9375 5.101562 -2.535156 5.90625 -3.203125 C 6.71875 -3.878906 7.347656 -4.414062 7.796875 -4.8125 C 7.910156 -4.925781 8.023438 -5.015625 8.140625 -5.078125 C 8.253906 -5.148438 8.347656 -5.15625 8.421875 -5.09375 C 8.492188 -5.019531 8.5 -4.9375 8.4375 -4.84375 C 8.382812 -4.75 8.320312 -4.664062 8.25 -4.59375 C 7.664062 -4.0625 7.03125 -3.519531 6.34375 -2.96875 C 5.664062 -2.414062 4.941406 -1.867188 4.171875 -1.328125 C 3.585938 -0.929688 2.929688 -0.554688 2.203125 -0.203125 C 1.484375 0.140625 0.785156 0.3125 0.109375 0.3125 Z M 8.984375 -9.75 C 8.984375 -9.894531 8.898438 -9.96875 8.734375 -9.96875 C 8.503906 -9.96875 8.070312 -9.757812 7.4375 -9.34375 C 6.8125 -8.9375 6.140625 -8.441406 5.421875 -7.859375 C 4.710938 -7.273438 4.085938 -6.710938 3.546875 -6.171875 C 3.640625 -6.128906 3.734375 -6.109375 3.828125 -6.109375 C 4.179688 -6.109375 4.691406 -6.25 5.359375 -6.53125 C 6.023438 -6.8125 6.679688 -7.21875 7.328125 -7.75 C 7.828125 -8.15625 8.226562 -8.535156 8.53125 -8.890625 C 8.832031 -9.253906 8.984375 -9.539062 8.984375 -9.75 Z M 8.984375 -9.75 "></path></g></g></g><g fill="#492c01" fill-opacity="1"><g transform="translate(160.059356, 61.673761)"><g><path d="M 11.4375 -13.40625 C 10.851562 -13.144531 10.328125 -12.804688 9.859375 -12.390625 C 9.222656 -11.867188 8.484375 -11.21875 7.640625 -10.4375 C 6.804688 -9.65625 5.988281 -8.859375 5.1875 -8.046875 C 4.394531 -7.242188 3.726562 -6.539062 3.1875 -5.9375 C 3.164062 -5.90625 3.160156 -5.878906 3.171875 -5.859375 C 3.179688 -5.835938 3.203125 -5.835938 3.234375 -5.859375 C 3.578125 -6.191406 4.066406 -6.609375 4.703125 -7.109375 C 5.335938 -7.609375 6.015625 -8.109375 6.734375 -8.609375 C 7.460938 -9.117188 8.15625 -9.539062 8.8125 -9.875 C 9.46875 -10.21875 10.003906 -10.390625 10.421875 -10.390625 C 10.773438 -10.390625 11.003906 -10.28125 11.109375 -10.0625 C 11.210938 -9.851562 11.265625 -9.597656 11.265625 -9.296875 C 11.265625 -8.578125 11.007812 -7.765625 10.5 -6.859375 C 10 -5.960938 9.378906 -5.140625 8.640625 -4.390625 C 7.085938 -2.816406 5.640625 -1.648438 4.296875 -0.890625 C 2.953125 -0.128906 1.726562 0.25 0.625 0.25 C 0.1875 0.25 -0.160156 0.144531 -0.421875 -0.0625 C -0.585938 -0.207031 -0.679688 -0.390625 -0.703125 -0.609375 C -0.722656 -0.835938 -0.675781 -0.960938 -0.5625 -0.984375 C -0.46875 -1.003906 -0.398438 -0.976562 -0.359375 -0.90625 C -0.328125 -0.84375 -0.300781 -0.773438 -0.28125 -0.703125 C -0.226562 -0.609375 -0.148438 -0.515625 -0.046875 -0.421875 C 0.0546875 -0.328125 0.222656 -0.28125 0.453125 -0.28125 C 0.898438 -0.28125 1.375 -0.40625 1.875 -0.65625 C 2.375 -0.914062 3.019531 -1.414062 3.8125 -2.15625 C 4.613281 -2.894531 5.691406 -3.953125 7.046875 -5.328125 C 7.492188 -5.773438 7.972656 -6.265625 8.484375 -6.796875 C 9.003906 -7.335938 9.453125 -7.851562 9.828125 -8.34375 C 10.203125 -8.84375 10.390625 -9.207031 10.390625 -9.4375 C 10.390625 -9.625 10.269531 -9.71875 10.03125 -9.71875 C 9.6875 -9.71875 9.144531 -9.515625 8.40625 -9.109375 C 7.664062 -8.703125 6.847656 -8.164062 5.953125 -7.5 C 5.066406 -6.832031 4.1875 -6.109375 3.3125 -5.328125 C 2.4375 -4.554688 1.660156 -3.832031 0.984375 -3.15625 C -0.648438 -1.519531 -2.375 0.300781 -4.1875 2.3125 C -6 4.320312 -7.890625 6.6875 -9.859375 9.40625 C -10.066406 9.707031 -10.253906 9.972656 -10.421875 10.203125 C -10.585938 10.441406 -10.71875 10.5625 -10.8125 10.5625 C -10.945312 10.5625 -11.007812 10.414062 -11 10.125 C -10.988281 9.832031 -10.945312 9.566406 -10.875 9.328125 C -10.6875 8.679688 -10.226562 7.804688 -9.5 6.703125 C -8.78125 5.597656 -7.914062 4.425781 -6.90625 3.1875 C -5.738281 1.757812 -4.570312 0.40625 -3.40625 -0.875 C -2.238281 -2.164062 -1.171875 -3.304688 -0.203125 -4.296875 C 0.753906 -5.296875 1.5 -6.0625 2.03125 -6.59375 C 2.59375 -7.15625 3.289062 -7.828125 4.125 -8.609375 C 4.957031 -9.398438 5.800781 -10.15625 6.65625 -10.875 C 7.507812 -11.601562 8.226562 -12.175781 8.8125 -12.59375 C 9.0625 -12.78125 9.320312 -12.941406 9.59375 -13.078125 C 9.863281 -13.222656 10.117188 -13.320312 10.359375 -13.375 C 10.546875 -13.414062 10.738281 -13.4375 10.9375 -13.4375 C 11.132812 -13.4375 11.300781 -13.425781 11.4375 -13.40625 Z M 11.4375 -13.40625 "></path></g></g></g><g fill="#492c01" fill-opacity="1"><g transform="translate(170.758008, 61.673761)"><g><path d="M 13.46875 -10.25 C 12.46875 -9.332031 11.503906 -8.40625 10.578125 -7.46875 C 9.648438 -6.539062 8.820312 -5.679688 8.09375 -4.890625 C 7.375 -4.109375 6.804688 -3.460938 6.390625 -2.953125 C 5.960938 -2.429688 5.597656 -1.96875 5.296875 -1.5625 C 4.992188 -1.15625 4.84375 -0.84375 4.84375 -0.625 C 4.84375 -0.414062 4.957031 -0.3125 5.1875 -0.3125 C 5.425781 -0.3125 5.738281 -0.414062 6.125 -0.625 C 6.507812 -0.84375 6.898438 -1.097656 7.296875 -1.390625 C 7.691406 -1.679688 8.019531 -1.921875 8.28125 -2.109375 C 8.84375 -2.578125 9.429688 -3.070312 10.046875 -3.59375 C 10.671875 -4.125 11.21875 -4.585938 11.6875 -4.984375 C 11.78125 -5.023438 11.859375 -5.0625 11.921875 -5.09375 C 11.992188 -5.132812 12.066406 -5.117188 12.140625 -5.046875 C 12.253906 -4.929688 12.21875 -4.804688 12.03125 -4.671875 C 11.707031 -4.390625 11.328125 -4.0625 10.890625 -3.6875 C 10.460938 -3.3125 10.039062 -2.953125 9.625 -2.609375 C 9.21875 -2.273438 8.890625 -2.003906 8.640625 -1.796875 C 8.078125 -1.367188 7.453125 -0.921875 6.765625 -0.453125 C 6.085938 0.015625 5.484375 0.25 4.953125 0.25 C 4.484375 0.25 4.160156 0.140625 3.984375 -0.078125 C 3.804688 -0.304688 3.71875 -0.597656 3.71875 -0.953125 C 3.71875 -1.460938 3.941406 -2.09375 4.390625 -2.84375 C 4.148438 -2.601562 3.921875 -2.394531 3.703125 -2.21875 C 3.484375 -2.050781 3.300781 -1.910156 3.15625 -1.796875 C 2.613281 -1.347656 1.976562 -0.894531 1.25 -0.4375 C 0.53125 0.0195312 -0.09375 0.25 -0.625 0.25 C -1.070312 0.25 -1.382812 0.148438 -1.5625 -0.046875 C -1.738281 -0.242188 -1.828125 -0.5 -1.828125 -0.8125 C -1.828125 -1.394531 -1.59375 -2.066406 -1.125 -2.828125 C -0.65625 -3.585938 -0.0234375 -4.398438 0.765625 -5.265625 C 1.234375 -5.753906 1.796875 -6.285156 2.453125 -6.859375 C 3.109375 -7.429688 3.769531 -7.96875 4.4375 -8.46875 C 5.101562 -8.976562 5.671875 -9.359375 6.140625 -9.609375 C 6.398438 -9.773438 6.769531 -9.894531 7.25 -9.96875 C 7.726562 -10.039062 8.082031 -10.0625 8.3125 -10.03125 C 7.28125 -9.195312 6.269531 -8.328125 5.28125 -7.421875 C 4.289062 -6.523438 3.414062 -5.679688 2.65625 -4.890625 C 1.894531 -4.109375 1.300781 -3.460938 0.875 -2.953125 C 0.457031 -2.429688 0.101562 -1.96875 -0.1875 -1.5625 C -0.476562 -1.15625 -0.625 -0.84375 -0.625 -0.625 C -0.625 -0.414062 -0.519531 -0.3125 -0.3125 -0.3125 C -0.0820312 -0.3125 0.226562 -0.414062 0.625 -0.625 C 1.03125 -0.84375 1.441406 -1.097656 1.859375 -1.390625 C 2.273438 -1.679688 2.625 -1.941406 2.90625 -2.171875 C 3.21875 -2.410156 3.597656 -2.734375 4.046875 -3.140625 C 4.503906 -3.546875 4.9375 -3.953125 5.34375 -4.359375 C 5.757812 -4.773438 6.0625 -5.078125 6.25 -5.265625 C 6.71875 -5.753906 7.273438 -6.300781 7.921875 -6.90625 C 8.578125 -7.519531 9.234375 -8.097656 9.890625 -8.640625 C 10.546875 -9.191406 11.109375 -9.609375 11.578125 -9.890625 C 11.765625 -10.015625 12.066406 -10.109375 12.484375 -10.171875 C 12.910156 -10.242188 13.238281 -10.269531 13.46875 -10.25 Z M 13.46875 -10.25 "></path></g></g></g><g fill="#492c01" fill-opacity="1"><g transform="translate(183.176405, 61.673761)"><g><path d="M 3.09375 -5.828125 C 2.832031 -5.828125 2.609375 -5.921875 2.421875 -6.109375 C 2.234375 -6.296875 2.140625 -6.515625 2.140625 -6.765625 C 2.140625 -7.023438 2.234375 -7.242188 2.421875 -7.421875 C 2.609375 -7.597656 2.832031 -7.6875 3.09375 -7.6875 C 3.34375 -7.6875 3.554688 -7.597656 3.734375 -7.421875 C 3.910156 -7.242188 4 -7.023438 4 -6.765625 C 4 -6.515625 3.910156 -6.296875 3.734375 -6.109375 C 3.554688 -5.921875 3.34375 -5.828125 3.09375 -5.828125 Z M -1.046875 0.203125 C -1.285156 0.203125 -1.503906 0.113281 -1.703125 -0.0625 C -1.898438 -0.25 -2 -0.472656 -2 -0.734375 C -2 -0.992188 -1.898438 -1.21875 -1.703125 -1.40625 C -1.503906 -1.59375 -1.285156 -1.6875 -1.046875 -1.6875 C -0.796875 -1.6875 -0.578125 -1.59375 -0.390625 -1.40625 C -0.203125 -1.21875 -0.109375 -0.992188 -0.109375 -0.734375 C -0.109375 -0.472656 -0.203125 -0.25 -0.390625 -0.0625 C -0.578125 0.113281 -0.796875 0.203125 -1.046875 0.203125 Z M -1.046875 0.203125 "></path></g></g></g></g></g><g clip-path="url(#984e3cdff9)"><g clip-path="url(#20a7227ed5)"><g transform="matrix(1, 0, 0, 1, 84, 149)"><g clip-path="url(#9d540f33e5)"><g clip-path="url(#24e047d62d)"><g clip-path="url(#c46b91a4d1)"><rect x="-143.4" width="388.8" fill="#492c01" height="518.399981" y="-228.199997" fill-opacity="1"></rect></g></g></g></g></g></g></svg> 