<?xml version="1.0" encoding="UTF-8"?> <svg xmlns="http://www.w3.org/2000/svg" xmlns:xlink="http://www.w3.org/1999/xlink" width="360" zoomAndPan="magnify" viewBox="0 0 270 359.999987" height="480" preserveAspectRatio="xMidYMid meet" version="1.0"><defs><clipPath id="9f4d83f2ef"><path d="M 171.886719 201.582031 L 172.296875 201.582031 L 172.296875 201.863281 L 171.886719 201.863281 Z M 171.886719 201.582031 " clip-rule="nonzero"></path></clipPath><clipPath id="c03051a60b"><path d="M 172.273438 201.75 C 171.523438 202.050781 172.125 201.601562 172.125 201.601562 " clip-rule="nonzero"></path></clipPath><clipPath id="b6b0513797"><path d="M 0.886719 0.582031 L 1.296875 0.582031 L 1.296875 0.863281 L 0.886719 0.863281 Z M 0.886719 0.582031 " clip-rule="nonzero"></path></clipPath><clipPath id="de5f0d3350"><path d="M 1.273438 0.75 C 0.523438 1.050781 1.125 0.601562 1.125 0.601562 " clip-rule="nonzero"></path></clipPath><clipPath id="f2049ed6ed"><rect x="0" width="2" y="0" height="1"></rect></clipPath><clipPath id="d1c5c983ca"><path d="M 55 70 L 235 70 L 235 253 L 55 253 Z M 55 70 " clip-rule="nonzero"></path></clipPath><clipPath id="162d2f3488"><path d="M 109.164062 30.933594 L 285.460938 194.886719 L 160.839844 328.894531 L -15.460938 164.941406 Z M 109.164062 30.933594 " clip-rule="nonzero"></path></clipPath><clipPath id="5d34d38eed"><path d="M 109.164062 30.933594 L 285.460938 194.886719 L 160.839844 328.894531 L -15.460938 164.941406 Z M 109.164062 30.933594 " clip-rule="nonzero"></path></clipPath><clipPath id="e62e3a68a2"><path d="M 109.164062 30.933594 L 285.460938 194.886719 L 160.839844 328.894531 L -15.460938 164.941406 Z M 109.164062 30.933594 " clip-rule="nonzero"></path></clipPath></defs><g clip-path="url(#9f4d83f2ef)"><g clip-path="url(#c03051a60b)"><g transform="matrix(1, 0, 0, 1, 171, 201)"><g clip-path="url(#f2049ed6ed)"><g clip-path="url(#b6b0513797)"><g clip-path="url(#de5f0d3350)"><rect x="-230.4" width="388.8" fill="#492c01" height="518.399981" y="-280.199997" fill-opacity="1"></rect></g></g></g></g></g></g><g clip-path="url(#d1c5c983ca)"><g clip-path="url(#162d2f3488)"><g clip-path="url(#5d34d38eed)"><g clip-path="url(#e62e3a68a2)"><path fill="#51252f" d="M 162.984375 145.3125 C 159.527344 136.484375 153.871094 128.136719 146.199219 121.121094 C 146.347656 119.890625 166.648438 114 169.511719 112.628906 C 171.453125 111.699219 176.007812 109.9375 176.136719 107.796875 C 176.203125 106.664062 169.121094 87.886719 168.070312 86.625 C 164.621094 82.5 157.039062 79.976562 151.988281 77.742188 C 147.941406 75.957031 136.164062 70.835938 132.335938 70.605469 C 131.011719 70.527344 110.089844 77.988281 109.359375 78.96875 C 106.816406 82.386719 119.808594 105.738281 120.933594 110.34375 C 97.6875 108.257812 74.339844 113.984375 62.621094 136.027344 C 38.855469 180.707031 80.382812 228.085938 125.945312 215.855469 C 126.761719 218.261719 127.789062 220.667969 129.066406 223.070312 C 154.96875 271.738281 226.820312 257.972656 233.570312 202.386719 C 238.546875 161.40625 200.257812 137.136719 162.988281 145.3125 Z M 152.652344 130.980469 C 175.097656 159.300781 165.789062 196.140625 136.386719 210.515625 C 136.007812 208.515625 135.757812 206.457031 135.621094 204.367188 C 139.605469 202.09375 143.394531 199.164062 146.855469 195.527344 C 169.472656 171.761719 158.824219 143.890625 137.128906 124.582031 C 143.699219 118.792969 148.453125 125.6875 152.652344 130.984375 Z M 165.871094 155.085938 C 183.683594 151.390625 209.976562 156.640625 220.144531 176.003906 C 245.414062 224.144531 174.539062 268.324219 142.535156 225.472656 C 139.726562 221.714844 137.785156 217.023438 136.664062 211.890625 C 137.167969 211.648438 137.671875 211.402344 138.179688 211.144531 C 161.828125 199.078125 170.226562 176.601562 165.871094 155.089844 Z M 135.546875 202.925781 C 134.921875 187.167969 140.878906 169.960938 152.332031 162.777344 C 152.367188 162.757812 155.808594 161.160156 157.050781 160.582031 C 158.5625 169.339844 156.769531 177.535156 152.5625 185.273438 C 148.121094 193.449219 142.207031 199.21875 135.546875 202.929688 Z M 129.890625 123.925781 C 130.441406 124.253906 132.679688 123.460938 135.371094 126.015625 C 144.511719 134.695312 150.53125 142.867188 153.964844 150.613281 C 147.75 154.175781 144.015625 156.488281 140.34375 160.347656 C 128.101562 173.21875 121.671875 190.488281 123.90625 207.238281 C 92.75 213.75 55.199219 185.582031 68.152344 148.535156 C 75.023438 128.894531 106.554688 113.179688 125.625 121.644531 C 128.597656 122.964844 129.53125 123.714844 129.886719 123.921875 Z M 130.890625 122.339844 L 128.371094 92.511719 C 129.078125 91.796875 145.167969 98.691406 147.21875 99.574219 C 148.324219 100.042969 154.164062 102.449219 154.308594 103.03125 L 130.886719 122.34375 Z M 132.539062 123.632812 C 132.265625 123.398438 133.496094 121.867188 133.707031 121.648438 C 135.226562 120.085938 154.019531 105.105469 155.289062 104.578125 C 157.183594 103.792969 168.628906 107.316406 170.585938 108.375 C 171.203125 108.707031 171.25 108.976562 171.433594 109.589844 Z M 168.007812 90.5 L 173.226562 106.214844 L 172.347656 106.9375 L 157.882812 101.285156 Z M 167.160156 89.285156 C 167.054688 89.96875 158.058594 97.003906 157.449219 99.136719 C 156.433594 99.195312 150.773438 81.863281 151.621094 79.808594 C 154.335938 81.328125 167.71875 85.78125 167.15625 89.28125 Z M 155.558594 100.242188 L 129.746094 90.0625 L 148.675781 80.160156 C 150.457031 80.597656 154.957031 97.511719 155.558594 100.242188 Z M 139.089844 74.191406 C 140.273438 74.597656 148.613281 78.046875 148.292969 79.152344 L 129.652344 87.789062 L 130.5 72.84375 C 131.480469 71.730469 137.710938 73.714844 139.09375 74.1875 Z M 128.5625 72.8125 L 127.300781 88.6875 L 113.203125 80.976562 C 112.277344 79.308594 126.972656 74.015625 128.5625 72.816406 Z M 112.371094 82.828125 L 127.0625 91.085938 L 129.113281 120.703125 Z M 120.28125 215.652344 C 51.734375 227.414062 28.199219 117.996094 107.894531 111.472656 C 109.660156 111.324219 120.75 111.5625 121.578125 112.035156 C 122.304688 112.449219 124.273438 117.707031 124.9375 118.835938 C 94.023438 115.128906 61.226562 130.34375 64.125 166.238281 C 66.6875 197.96875 97.1875 215.957031 124.175781 209.007812 C 124.496094 210.84375 124.933594 212.683594 125.5 214.527344 C 123.804688 214.964844 122.066406 215.347656 120.277344 215.652344 Z M 127.328125 215.464844 C 127.304688 215.335938 126.941406 214.363281 126.9375 214.128906 C 126.433594 212.324219 126.046875 210.46875 125.777344 208.5625 C 125.734375 208.164062 125.710938 207.511719 125.566406 206.863281 C 124.460938 196.433594 126.816406 184.589844 133.992188 171.796875 C 134.855469 170.25 139.539062 163.324219 142.066406 160.605469 C 142.210938 160.449219 153.265625 151.878906 153.90625 151.964844 C 154.804688 152.085938 156.410156 157.617188 156.453125 158.773438 C 156.5 160.085938 151.707031 161.285156 149.0625 163.308594 C 139.367188 170.726562 132.621094 187.527344 133.777344 204.070312 C 133.769531 204.546875 133.824219 205.34375 133.878906 205.316406 C 134.070312 207.3125 134.851562 211.703125 134.949219 211.898438 C 137.433594 222.5 143.640625 232.339844 154.964844 238.710938 C 191.113281 259.046875 234.421875 227.03125 225.460938 186.472656 C 218.953125 157.011719 191.476562 149.339844 165.605469 153.828125 C 165.089844 151.535156 164.421875 149.257812 163.617188 147.007812 C 166.402344 145.914062 171.886719 145.839844 175.167969 145.585938 C 217.121094 142.339844 244.617188 181.277344 227.308594 219.761719 C 205.515625 268.21875 139.726562 255.347656 127.328125 215.46875 Z M 127.328125 215.464844 " fill-opacity="1" fill-rule="nonzero"></path></g></g></g></g></svg> 