<?xml version="1.0" encoding="UTF-8"?> <svg xmlns="http://www.w3.org/2000/svg" xmlns:xlink="http://www.w3.org/1999/xlink" width="360" zoomAndPan="magnify" viewBox="0 0 270 359.999987" height="480" preserveAspectRatio="xMidYMid meet" version="1.0"><defs><clipPath id="6d6da08c56"><path d="M 18.925781 63.925781 L 251.074219 63.925781 L 251.074219 296.074219 L 18.925781 296.074219 Z M 18.925781 63.925781 " clip-rule="nonzero"></path></clipPath><clipPath id="5ef4ad0642"><path d="M 135 63.925781 C 70.894531 63.925781 18.925781 115.894531 18.925781 180 C 18.925781 244.105469 70.894531 296.074219 135 296.074219 C 199.105469 296.074219 251.074219 244.105469 251.074219 180 C 251.074219 115.894531 199.105469 63.925781 135 63.925781 Z M 135 63.925781 " clip-rule="nonzero"></path></clipPath><clipPath id="3f8f7377bb"><path d="M 0.925781 0.925781 L 233.074219 0.925781 L 233.074219 233.074219 L 0.925781 233.074219 Z M 0.925781 0.925781 " clip-rule="nonzero"></path></clipPath><clipPath id="d5b66d489b"><path d="M 117 0.925781 C 52.894531 0.925781 0.925781 52.894531 0.925781 117 C 0.925781 181.105469 52.894531 233.074219 117 233.074219 C 181.105469 233.074219 233.074219 181.105469 233.074219 117 C 233.074219 52.894531 181.105469 0.925781 117 0.925781 Z M 117 0.925781 " clip-rule="nonzero"></path></clipPath><clipPath id="f586edd82c"><rect x="0" width="234" y="0" height="234"></rect></clipPath></defs><g clip-path="url(#6d6da08c56)"><g clip-path="url(#5ef4ad0642)"><g transform="matrix(1, 0, 0, 1, 18, 63)"><g clip-path="url(#f586edd82c)"><g clip-path="url(#3f8f7377bb)"><g clip-path="url(#d5b66d489b)"><path fill="#5f0000" d="M 0.925781 0.925781 L 233.074219 0.925781 L 233.074219 233.074219 L 0.925781 233.074219 Z M 0.925781 0.925781 " fill-opacity="1" fill-rule="nonzero"></path></g></g></g></g></g></g></svg> 