<?xml version="1.0" encoding="UTF-8"?> <svg xmlns="http://www.w3.org/2000/svg" xmlns:xlink="http://www.w3.org/1999/xlink" width="360" zoomAndPan="magnify" viewBox="0 0 270 359.999987" height="480" preserveAspectRatio="xMidYMid meet" version="1.0"><defs><clipPath id="9f7fa97e21"><path d="M 140 68.160156 L 247.730469 68.160156 L 247.730469 287 L 140 287 Z M 140 68.160156 " clip-rule="nonzero"></path></clipPath><clipPath id="e4ffca7504"><path d="M 21.980469 72 L 137 72 L 137 291.660156 L 21.980469 291.660156 Z M 21.980469 72 " clip-rule="nonzero"></path></clipPath></defs><g clip-path="url(#9f7fa97e21)"><path fill="#5f0000" d="M 247.863281 212.078125 C 247.714844 211.570312 247.4375 211.125 246.933594 210.882812 C 246.066406 210.464844 245.015625 210.949219 244.242188 211.367188 C 241.097656 213.066406 237.371094 215.554688 233.472656 216.800781 C 226.820312 218.933594 220.6875 216.722656 216.042969 211.792969 C 212.996094 208.558594 210.039062 202.953125 207.710938 198.941406 C 207.679688 198.890625 207.679688 198.832031 207.710938 198.777344 C 207.757812 198.703125 207.859375 198.679688 207.933594 198.726562 C 208.503906 199.078125 211.96875 200.316406 216.5625 200.792969 C 222.109375 201.363281 227.074219 199.074219 231.714844 195.867188 C 234.679688 193.816406 237.25 191.136719 238.921875 187.925781 C 240.535156 184.820312 241.128906 179.328125 236.988281 177.730469 C 234.5 176.765625 231.703125 176.8125 229.097656 177.148438 C 225.9375 177.5625 222.800781 178.304688 220.035156 179.945312 C 217.355469 181.539062 215.199219 183.496094 213.0625 185.132812 C 210.527344 187.066406 208.421875 189.242188 206.519531 191.300781 C 206.4375 191.394531 206.324219 191.453125 206.203125 191.472656 C 205.902344 191.519531 205.625 191.3125 205.578125 191.011719 C 205.144531 188.226562 205.476562 185.839844 206.578125 183.851562 C 207.238281 182.664062 208.695312 181.230469 210.941406 179.558594 C 215.570312 176.113281 219.691406 172.714844 223.6875 168.277344 C 227.359375 164.207031 229.679688 158.875 232.265625 152.707031 C 233.003906 150.957031 233.953125 148.359375 235.125 144.914062 C 235.882812 142.699219 236.304688 140.453125 236.402344 138.195312 C 236.59375 133.5625 236.269531 129 235.429688 124.488281 C 234.472656 119.367188 233.667969 115.683594 233.019531 113.441406 C 232.136719 110.382812 231.039062 107.414062 229.726562 104.53125 C 228.226562 101.246094 226.167969 96.722656 223.542969 90.972656 C 220.765625 84.898438 217.632812 79.789062 213.652344 72.726562 C 212.894531 71.386719 212.027344 70.074219 211.058594 68.792969 C 210.859375 68.527344 210.554688 68.363281 210.21875 68.339844 C 206.300781 68.078125 202.199219 68.101562 197.90625 68.410156 C 193.566406 68.722656 190.417969 69.003906 188.472656 69.265625 C 184.191406 69.828125 178.875 70.882812 172.519531 72.414062 C 166.464844 73.875 159.363281 75.949219 151.207031 78.636719 C 147.113281 79.980469 143.925781 81.511719 141.003906 84.070312 C 140.714844 84.316406 140.570312 84.6875 140.597656 85.070312 C 140.773438 87.179688 141.246094 88.910156 141.378906 90.914062 C 142.015625 100.457031 146.238281 125.421875 146.578125 127.257812 C 147.660156 133.078125 148.417969 136.800781 148.859375 138.421875 C 149.03125 139.046875 153.242188 152.105469 155.546875 156.585938 C 157.199219 159.808594 159.707031 163.546875 163.066406 167.8125 C 165.316406 170.675781 167.640625 173.03125 170.039062 174.894531 C 174.972656 178.730469 180.75 181.636719 186.664062 183.609375 C 189.023438 184.394531 191.496094 184.992188 193.636719 186.304688 C 195.773438 187.617188 197.730469 188.800781 199.746094 190.105469 C 199.929688 190.222656 199.976562 190.550781 199.648438 190.441406 C 197.871094 189.839844 196.21875 188.660156 194.597656 187.742188 C 192.34375 186.460938 190.023438 185.601562 187.542969 184.832031 C 185.941406 184.339844 184.324219 183.871094 182.664062 183.644531 C 177.679688 182.964844 171.222656 185.066406 170.976562 190.941406 C 170.972656 191.050781 170.96875 191.15625 170.96875 191.265625 C 170.960938 193.964844 171.796875 196.304688 173.480469 198.292969 C 174.75 199.792969 175.964844 201.023438 177.734375 201.859375 C 184.746094 205.183594 193.699219 202.820312 199.855469 198.667969 C 200.121094 198.484375 200.425781 198.378906 200.777344 198.351562 L 200.835938 198.351562 C 200.949219 198.367188 201.027344 198.480469 201.007812 198.589844 C 200.097656 203.554688 198.949219 207.90625 197.558594 211.644531 C 195.738281 216.511719 193.382812 221.679688 190.472656 227.15625 C 189.796875 228.433594 189.011719 229.683594 188.089844 230.796875 C 187.617188 231.363281 187.09375 231.941406 186.453125 232.324219 C 185.476562 232.910156 183.226562 232.867188 181.917969 232.398438 C 181.476562 232.238281 181.25 231.886719 180.722656 231.894531 C 179.722656 231.90625 178.953125 232.882812 178.449219 233.636719 C 177.683594 234.773438 177.007812 235.964844 176.429688 237.207031 C 176.128906 237.859375 175.855469 238.519531 175.609375 239.191406 C 175.441406 239.652344 174.640625 241.015625 175.25 241.351562 C 175.640625 241.570312 176.460938 241.117188 176.777344 240.894531 C 177.339844 240.488281 177.703125 239.855469 178.035156 239.265625 C 178.78125 237.945312 179.386719 236.554688 179.882812 235.125 C 180.011719 234.769531 180.46875 234.328125 181.21875 234.65625 C 183.519531 235.667969 186.496094 235.066406 188.566406 233.074219 C 190.027344 231.667969 191.472656 229.582031 192.363281 227.773438 C 193.90625 224.652344 195.699219 221.660156 197.027344 218.359375 C 198.855469 213.828125 200.0625 210.738281 200.640625 209.105469 C 201.308594 207.207031 201.703125 205.882812 201.816406 205.140625 C 201.832031 205.046875 201.890625 204.972656 201.972656 204.925781 C 202.125 204.84375 202.316406 204.894531 202.398438 205.046875 L 202.367188 205.066406 C 202.484375 205.28125 202.585938 205.636719 202.679688 206.125 C 203.402344 209.964844 204.019531 213.195312 204.535156 215.824219 C 205.949219 223.023438 206.496094 229.75 207.421875 238.234375 C 207.648438 240.273438 208.289062 242.132812 208.289062 243.917969 C 208.289062 244.785156 208.488281 246.214844 208.875 248.195312 C 209.121094 249.445312 209.292969 250.902344 209.386719 252.570312 C 209.574219 255.902344 210.390625 260.664062 210.621094 262.746094 C 211 266.167969 211.734375 269.210938 211.945312 273.019531 C 211.984375 273.679688 211.652344 274.066406 210.949219 274.1875 C 205.964844 275.023438 201.238281 276.011719 196.785156 277.148438 C 193.683594 277.9375 190.996094 279.375 188.71875 281.46875 C 188.160156 281.988281 187.960938 282.582031 188.121094 283.261719 C 188.160156 283.457031 188.3125 283.605469 188.503906 283.652344 C 199.09375 286.160156 209.128906 286.683594 218.605469 285.210938 C 222.835938 284.550781 228.375 283.152344 235.210938 281.003906 C 236.667969 280.554688 238.265625 279.769531 239.421875 279.351562 C 240.53125 278.949219 241.585938 278.386719 242.539062 277.695312 L 246.21875 275.019531 L 246.230469 275.007812 C 246.40625 274.867188 246.4375 274.609375 246.296875 274.433594 C 245.765625 273.769531 245.039062 273.261719 244.109375 272.921875 C 241.390625 271.921875 238.453125 271.292969 235.292969 271.035156 C 230.289062 270.621094 226.4375 270.515625 221.757812 271.140625 C 220.980469 271.246094 220.523438 270.964844 220.382812 270.292969 C 219.871094 267.894531 219.179688 264.949219 218.289062 261.453125 C 216.550781 254.609375 215.714844 250.328125 213.972656 241.980469 C 213.164062 238.09375 212.523438 234.535156 212.050781 231.304688 C 211.550781 227.871094 210.789062 222.730469 209.765625 215.886719 C 209.617188 214.921875 209.453125 213.585938 209.253906 211.886719 C 208.992188 209.648438 208.59375 207.648438 208.066406 205.890625 C 208.054688 205.855469 208.054688 205.8125 208.070312 205.777344 C 208.113281 205.707031 208.199219 205.671875 208.277344 205.707031 C 208.476562 205.796875 208.613281 205.960938 208.695312 206.210938 C 209.023438 207.246094 209.457031 208.125 209.988281 208.835938 C 211.378906 210.710938 213.097656 212.617188 215.144531 214.542969 C 219.679688 218.824219 224.941406 220.472656 230.941406 219.476562 C 234.511719 218.890625 237.5625 217.417969 240.839844 215.707031 C 241.886719 215.15625 242.824219 214.730469 243.648438 214.433594 L 243.65625 214.433594 C 243.886719 214.355469 244.132812 214.472656 244.207031 214.703125 C 244.496094 215.570312 245.859375 217.261719 246.964844 216.796875 C 247.851562 216.421875 247.910156 214.640625 247.976562 213.835938 C 248.019531 213.296875 248.023438 212.644531 247.863281 212.078125 Z M 207.714844 194.046875 C 208.339844 193.296875 210.90625 191.324219 212.457031 190.128906 C 214.296875 188.710938 216.09375 187.242188 217.941406 185.832031 C 219.941406 184.3125 221.839844 182.828125 224.320312 182.226562 C 226.792969 181.625 229.320312 181.449219 231.855469 181.609375 C 233.660156 181.726562 235.179688 182.152344 235.070312 184.289062 C 234.953125 186.667969 232.964844 188.964844 231.265625 190.699219 C 228.042969 193.988281 226.808594 196.15625 222.34375 197.265625 C 218.066406 198.332031 214.679688 198.332031 209.679688 196.519531 C 207.652344 195.785156 207.242188 194.613281 207.714844 194.046875 Z M 151.359375 137.296875 C 151.246094 137.332031 151.128906 137.261719 151.09375 137.152344 C 149.964844 133.171875 149.046875 129.53125 148.335938 126.226562 C 147.988281 124.609375 147.765625 122.785156 147.660156 120.761719 C 147.535156 118.453125 147.085938 116.382812 146.765625 113.476562 C 146.347656 109.75 145.949219 106.15625 145.566406 102.695312 C 144.949219 97.207031 144.683594 92.140625 144.398438 87.160156 C 144.257812 84.660156 149.683594 82.777344 150.488281 82.410156 C 155.09375 80.292969 159.867188 78.597656 164.804688 77.324219 C 172.179688 75.417969 179.804688 73.796875 187.691406 72.441406 C 190.605469 71.941406 193.546875 71.621094 196.488281 71.328125 C 197.851562 71.191406 205.835938 70.636719 206.394531 70.636719 C 206.523438 70.636719 206.527344 70.8125 206.421875 70.84375 C 202.910156 71.9375 199.226562 73.460938 195.25 75.070312 C 190.742188 76.90625 187.183594 77.824219 181.894531 79.492188 C 172.742188 82.378906 162.90625 83.949219 152.386719 84.203125 C 150.554688 84.25 149.226562 84.328125 148.179688 84.898438 C 147.832031 85.089844 147.816406 85.621094 148.136719 85.859375 C 149.515625 86.890625 156.132812 86.402344 159.167969 86.378906 C 164.683594 86.332031 170.628906 85.378906 175.667969 83.769531 C 179.757812 82.460938 181.398438 82.101562 185.363281 80.941406 C 187.195312 80.40625 188.589844 79.957031 189.554688 79.597656 C 196.09375 77.171875 201.714844 74.902344 206.429688 72.796875 C 207.328125 72.398438 208.136719 71.832031 208.851562 71.109375 C 208.882812 71.078125 208.910156 71.054688 208.945312 71.039062 C 209.117188 70.949219 209.328125 71.019531 209.417969 71.195312 C 210.757812 73.914062 212.273438 76.28125 213.472656 78.792969 C 214.199219 80.316406 215.769531 83.292969 218.171875 87.71875 C 219.273438 89.734375 220.082031 91.757812 221.078125 93.582031 C 222.898438 96.925781 224.976562 101.285156 227.316406 106.640625 C 227.851562 107.871094 229.570312 112.53125 230.386719 114.46875 C 230.535156 114.828125 229.804688 114.972656 227.859375 115.949219 C 226.503906 116.632812 219.035156 122.488281 213.433594 124.261719 C 209.964844 125.363281 206.683594 125.128906 202.589844 124.425781 C 197.710938 123.585938 192.21875 123.09375 187.683594 124.621094 C 182.769531 126.277344 177.9375 130.75 171.03125 131.023438 C 159.277344 131.492188 157.484375 132.558594 151.429688 137.265625 C 151.410156 137.28125 151.386719 137.292969 151.359375 137.300781 Z M 199.292969 196.066406 C 194.289062 199.648438 188.761719 201.21875 182.78125 200.402344 C 179.253906 199.917969 176.941406 198.472656 174.789062 195.386719 C 173.566406 193.625 173.183594 191.699219 173.644531 189.59375 C 174.46875 185.816406 180.171875 185.808594 183.003906 186.429688 C 186.109375 187.109375 195.527344 190.925781 199.3125 192.324219 C 201.449219 193.113281 199.617188 195.835938 199.292969 196.066406 Z M 202.320312 188.460938 C 202.417969 189.335938 201.734375 189.8125 201.46875 189.464844 C 198.953125 186.1875 191.179688 182.511719 187.492188 180.648438 C 186.210938 180.003906 184.082031 179.585938 181.441406 178.480469 C 173.808594 175.289062 167.675781 170.414062 163.035156 163.855469 C 159.519531 158.898438 156.949219 154.320312 155.328125 150.128906 C 154.046875 146.8125 152.910156 143.460938 151.921875 140.074219 C 151.871094 139.882812 151.953125 139.703125 152.105469 139.574219 C 154.753906 137.304688 157.464844 135.207031 161.113281 134.332031 C 164.015625 133.636719 167.050781 133.855469 169.976562 133.65625 C 175.695312 133.257812 180.3125 131.53125 185.613281 128.433594 C 188.191406 126.929688 191.066406 126.648438 194.011719 126.285156 C 196.925781 125.921875 200.050781 126.457031 202.921875 126.972656 C 205.613281 127.453125 207.988281 127.914062 210.707031 127.40625 C 213.53125 126.882812 216.171875 125.980469 218.617188 124.691406 C 218.847656 124.566406 227.101562 119.082031 230.386719 117.128906 C 230.554688 117.023438 230.773438 117.074219 230.886719 117.242188 C 231.109375 117.582031 231.265625 117.945312 231.355469 118.324219 C 233.199219 126.242188 234.175781 134.210938 232.878906 141.738281 C 232.261719 145.339844 230.191406 150.246094 229.460938 152.832031 C 228.78125 155.238281 226.808594 158.824219 225.929688 160.851562 C 225.277344 162.351562 220.890625 167.972656 219.835938 169.207031 C 219.179688 169.976562 218.167969 170.894531 216.804688 171.960938 C 215.71875 172.800781 214.644531 173.65625 213.601562 174.546875 C 212.664062 175.347656 211.808594 176.179688 210.738281 176.800781 C 209.667969 177.421875 208.566406 178.136719 207.53125 178.878906 C 204.132812 181.316406 201.882812 184.503906 202.320312 188.460938 Z M 209.949219 230.988281 C 211.914062 245.503906 214.949219 259.847656 217.980469 274.175781 C 218.0625 274.570312 218.160156 274.988281 218.453125 275.265625 C 218.808594 275.597656 219.34375 275.625 219.828125 275.628906 C 227.058594 275.730469 234.296875 275.5625 241.515625 275.125 C 240.945312 275.988281 239.914062 276.398438 238.9375 276.742188 C 224.851562 281.730469 209.625 283.472656 194.773438 281.792969 C 200.519531 278.734375 206.839844 276.753906 213.304688 275.992188 C 213.730469 275.941406 214.226562 275.851562 214.417969 275.46875 C 214.53125 275.238281 214.496094 274.96875 214.460938 274.714844 C 214.460938 271.910156 213.648438 268.875 213.257812 266.09375 C 212.863281 263.273438 212.492188 260.453125 212.15625 257.628906 L 210.347656 245.617188 C 209.851562 243.019531 209.824219 240.390625 209.351562 237.351562 C 207.289062 224.058594 204.871094 210.671875 203.800781 197.265625 C 207.515625 208.09375 208.417969 219.644531 209.949219 230.988281 Z M 209.949219 230.988281 " fill-opacity="1" fill-rule="nonzero"></path></g><g clip-path="url(#e4ffca7504)"><path fill="#5f0000" d="M 136.296875 87.109375 C 136.285156 86.519531 135.148438 85.691406 133.605469 84.917969 C 129.164062 82.703125 122.976562 81 121.253906 80.503906 C 109.078125 76.976562 97.324219 74.425781 85.992188 72.84375 C 83.441406 72.488281 80.292969 72.296875 76.554688 72.253906 C 76.347656 72.253906 75.25 72.230469 74.796875 72.195312 C 72.46875 72.035156 69.875 72.058594 67.015625 72.265625 C 66.175781 72.324219 65.457031 72.546875 64.878906 72.929688 C 64.742188 73.019531 64.628906 73.148438 64.558594 73.296875 C 60.550781 81.457031 57.773438 87.171875 56.234375 90.429688 C 52.730469 97.863281 49.605469 106.429688 46.878906 116.125 C 45.308594 121.6875 44.191406 127.015625 43.507812 132.105469 C 42.667969 138.433594 43.011719 144.796875 44.539062 151.1875 C 47.226562 162.421875 54.941406 172.15625 63.730469 179.246094 C 65.375 180.574219 67.242188 181.6875 68.992188 182.871094 C 72.523438 185.253906 76.414062 186.945312 78.265625 191.058594 C 78.320312 191.175781 78.289062 191.316406 78.1875 191.398438 C 78.066406 191.5 77.886719 191.480469 77.789062 191.359375 L 76.707031 190.082031 C 76.605469 189.957031 76.488281 189.847656 76.367188 189.753906 C 73.585938 187.578125 70.503906 185.75 67.109375 184.273438 C 63.925781 182.886719 61.535156 181.773438 58.433594 181.234375 C 53.488281 180.378906 46.683594 181.515625 44.992188 186.960938 C 43.367188 192.175781 46.859375 196.128906 51.09375 198.902344 C 56.949219 202.742188 63.332031 204.289062 70.226562 203.546875 C 72.328125 203.324219 74.40625 202.9375 76.472656 202.378906 C 76.605469 202.34375 76.75 202.367188 76.859375 202.449219 C 77.058594 202.59375 77.101562 202.878906 76.953125 203.082031 L 75.136719 205.503906 C 75.136719 205.503906 75.125 205.515625 75.113281 205.527344 C 71.742188 208.902344 67.816406 211.304688 63.316406 212.738281 C 60.441406 213.660156 57.003906 213.773438 54.144531 214.125 C 48.289062 214.84375 44.171875 217.730469 39.46875 221.238281 C 37.816406 222.46875 35.753906 223.734375 33.703125 223.453125 C 32.859375 223.332031 31.539062 223.082031 29.734375 222.699219 C 26.398438 221.980469 24.871094 219.46875 23.265625 216.984375 C 23.140625 216.789062 22.929688 216.671875 22.703125 216.664062 C 22.320312 216.660156 22 216.960938 21.996094 217.34375 C 21.90625 221.265625 25.570312 224.039062 29.0625 224.890625 C 32.34375 225.691406 35.457031 225.480469 38.394531 224.25 C 38.996094 223.996094 40.265625 223.164062 42.199219 221.734375 C 46 218.941406 49.375 216.753906 54.164062 216.164062 C 57.515625 215.753906 59.339844 215.53125 59.628906 215.496094 C 64.390625 214.863281 68.683594 213.144531 72.503906 210.34375 C 74.644531 208.773438 75.746094 207.46875 77.359375 205.371094 C 77.421875 205.292969 77.527344 205.269531 77.621094 205.304688 C 77.726562 205.351562 77.773438 205.476562 77.726562 205.582031 C 77.03125 207.144531 76.867188 208.746094 76.601562 210.480469 C 75.71875 216.226562 75.273438 221.421875 75.269531 226.078125 C 75.257812 232.023438 74.855469 237.039062 74.328125 241.519531 C 72.964844 252.980469 71.988281 261.148438 71.386719 266.023438 C 71.015625 269.042969 70.5 272.414062 69.824219 276.136719 C 69.625 277.230469 69.035156 277.28125 68.09375 277.234375 C 61.566406 276.871094 54.949219 278.152344 49.113281 280.140625 C 47.503906 280.6875 45.792969 281.597656 43.96875 282.871094 C 43.609375 283.125 43.464844 283.613281 43.679688 283.996094 C 44.023438 284.601562 44.761719 285.214844 45.816406 285.769531 C 47.4375 286.628906 49.328125 287.070312 51.171875 287.839844 C 53.542969 288.828125 56.242188 289.492188 58.445312 289.796875 C 62.386719 290.355469 67.035156 290.867188 72.394531 291.351562 C 82.367188 292.246094 91.714844 292.261719 100.929688 288.285156 C 101.65625 287.96875 102.25 287.582031 102.710938 287.117188 C 102.859375 286.96875 102.863281 286.734375 102.734375 286.578125 C 101.6875 285.277344 100.050781 284.636719 98.414062 283.890625 C 97.617188 283.53125 96.777344 283.21875 95.882812 282.960938 C 90.179688 281.277344 84.234375 280.347656 78.054688 280.179688 C 77.902344 280.179688 77.785156 280.050781 77.785156 279.898438 C 77.75 267.738281 78.308594 255.859375 79.457031 244.265625 C 80.414062 234.535156 80.921875 229 80.980469 227.660156 C 81.027344 226.402344 81.378906 220.859375 82.03125 211.027344 C 82.25 207.679688 82.753906 204.039062 83.25 201.179688 C 83.261719 201.132812 83.289062 201.089844 83.332031 201.066406 C 83.40625 201.03125 83.5 201.066406 83.542969 201.136719 C 83.542969 201.136719 86.339844 204.171875 88.570312 206.617188 C 89.1875 207.285156 91.042969 208.9375 94.136719 211.574219 C 95.023438 212.332031 96.136719 213.050781 97.472656 213.730469 C 100.441406 215.25 103.535156 216.390625 106.007812 216.242188 C 109.214844 216.046875 112.355469 215.660156 114.753906 216.335938 C 115.707031 216.601562 116.140625 217.195312 116.058594 218.113281 C 115.945312 219.398438 116.304688 220.574219 117.140625 221.640625 C 117.160156 221.664062 117.175781 221.679688 117.195312 221.699219 C 117.433594 221.933594 117.804688 221.933594 118.027344 221.703125 C 118.816406 220.886719 118.824219 218.5625 118.664062 217.660156 C 117.980469 213.707031 112.90625 213.796875 109.929688 214.300781 C 109.753906 214.332031 108.351562 214.507812 107.328125 214.488281 C 104.078125 214.433594 101.976562 213.34375 100.882812 212.761719 C 96.585938 210.46875 91.996094 206.355469 88.0625 203.230469 C 86.382812 201.898438 87.25 201.992188 87.417969 202.042969 C 90.785156 203.039062 97.726562 202.3125 103.078125 199.507812 C 105.988281 197.980469 108.226562 195.996094 109.699219 193.347656 C 110.398438 192.082031 110.835938 190.875 110.621094 189.796875 C 109.367188 183.550781 99.011719 187.234375 94.90625 188.90625 C 91.292969 190.378906 86.570312 193.621094 85.019531 195.511719 C 84.789062 195.796875 83.894531 195.847656 84.304688 194.953125 C 84.996094 193.449219 86.671875 191.941406 87.113281 191.5 C 90.445312 188.144531 95.175781 186.503906 99.484375 185.203125 C 103.289062 184.050781 105.480469 183.308594 106.058594 182.980469 C 108.132812 181.792969 109.976562 180.503906 111.578125 179.117188 C 112.574219 178.253906 114.003906 176.535156 115.859375 173.953125 C 117.566406 171.585938 118.976562 169.601562 120.082031 168.003906 C 121.828125 165.480469 123.492188 162.335938 125.0625 158.558594 C 126.542969 154.984375 127.484375 152.539062 127.875 151.214844 C 130.535156 142.15625 132.460938 132.847656 133.640625 123.285156 C 134.253906 118.382812 134.769531 113.996094 135.199219 110.132812 C 135.492188 107.515625 135.679688 105.21875 135.773438 103.253906 C 135.988281 98.636719 136.375 95.515625 136.347656 91.527344 L 136.351562 91.535156 C 136.367188 91.191406 136.375 90.347656 136.300781 87.109375 Z M 68.417969 73.917969 L 68.417969 73.929688 C 68.894531 73.847656 69.734375 73.796875 70.945312 73.765625 C 77.972656 73.589844 84.417969 74.066406 90.289062 75.195312 C 102.054688 77.464844 111.835938 79.769531 126.230469 84.609375 C 126.515625 84.707031 130.433594 86.273438 131.320312 87.296875 C 131.34375 87.378906 131.300781 87.46875 131.214844 87.492188 C 131.132812 87.515625 124.296875 87.867188 117.839844 87.570312 C 111.292969 87.269531 102.835938 85.0625 101.371094 84.710938 C 90.761719 82.152344 83.925781 81.007812 75.261719 77.3125 C 72.617188 76.183594 70.164062 75.144531 68.375 74.171875 C 68.332031 74.15625 68.304688 74.113281 68.296875 74.066406 C 68.292969 73.996094 68.339844 73.925781 68.414062 73.921875 Z M 68.800781 199.859375 L 68.792969 199.859375 C 66.003906 199.675781 62.335938 199.121094 57.785156 198.191406 C 52.152344 197.042969 46.882812 194.039062 47.207031 187.511719 C 47.21875 187.253906 47.296875 187.007812 47.417969 186.785156 C 48.589844 184.808594 50.617188 184.066406 52.992188 184.171875 C 56.484375 184.324219 59.824219 185.074219 63.019531 186.414062 C 67.433594 188.269531 71.84375 190.359375 75.359375 193.957031 C 76.382812 194.996094 78.125 197.164062 78.289062 198.75 C 78.304688 198.9375 78.175781 199.113281 77.988281 199.148438 C 74.546875 199.796875 71.480469 200.035156 68.796875 199.859375 Z M 75.648438 282.832031 C 75.707031 282.988281 75.855469 283.097656 76.019531 283.109375 C 81.246094 283.539062 84.839844 283.835938 86.804688 284 C 90.835938 284.347656 94.691406 285.261719 98.382812 286.742188 C 98.441406 286.765625 98.488281 286.820312 98.503906 286.882812 C 98.539062 286.996094 98.476562 287.113281 98.363281 287.148438 C 94.960938 288.171875 91.46875 288.683594 87.878906 288.699219 C 80.140625 288.734375 72.082031 288.488281 64.472656 286.871094 C 58.972656 285.707031 56.328125 285.3125 50.335938 284.011719 C 50.230469 283.988281 50.140625 283.90625 50.113281 283.800781 C 50.066406 283.644531 50.160156 283.476562 50.320312 283.429688 C 57.34375 281.460938 64.476562 280.84375 71.703125 281.585938 L 71.816406 281.585938 C 72.097656 281.554688 72.296875 281.304688 72.269531 281.019531 C 71.988281 278.59375 71.929688 276.625 72.320312 273.964844 C 72.953125 269.707031 73.476562 265.121094 73.898438 260.207031 C 73.921875 259.964844 74.902344 251.496094 75.613281 244.582031 C 75.765625 243.066406 76.050781 241.027344 76.445312 238.46875 C 76.84375 235.898438 77.089844 233.859375 77.191406 232.335938 C 77.730469 224.089844 78.121094 218.289062 78.335938 214.9375 C 78.441406 213.335938 78.824219 210.484375 79.488281 206.386719 C 79.730469 204.886719 79.753906 202.894531 80.476562 201.316406 C 80.496094 201.289062 80.53125 201.265625 80.566406 201.269531 C 80.613281 201.269531 80.648438 201.316406 80.644531 201.363281 C 80.132812 205.0625 79.765625 208.792969 79.519531 212.796875 C 78.691406 226.523438 78.0625 235.0625 77.617188 238.414062 C 77.398438 240.070312 77.226562 241.953125 77.097656 244.0625 C 76.945312 246.621094 76.796875 248.496094 76.652344 249.703125 L 76.652344 249.707031 C 75.5 259.132812 74.933594 268.765625 74.945312 278.59375 C 74.945312 280.207031 75.1875 281.617188 75.652344 282.828125 Z M 88.960938 194.382812 C 93.035156 191.664062 97.917969 189.164062 103.121094 188.519531 C 106.140625 188.144531 107.59375 188.921875 108.042969 189.574219 C 108.664062 190.488281 107.457031 191.859375 106.933594 192.539062 C 106.222656 193.46875 105.359375 194.296875 104.4375 195.015625 C 99.65625 198.75 94.546875 199.613281 88.449219 199.640625 C 87.792969 199.644531 87.132812 199.609375 86.480469 199.527344 C 86.246094 199.5 84.289062 199.347656 84.601562 198.925781 C 85.941406 197.101562 87.71875 195.210938 88.960938 194.382812 Z M 129.585938 133.195312 C 128.945312 137.140625 128.25 140.644531 127.492188 143.71875 L 127.492188 143.722656 C 125.582031 151.460938 122.683594 159.699219 118.132812 166.316406 C 115.921875 169.53125 113.535156 172.53125 110.957031 175.3125 C 109.945312 176.40625 108.207031 177.6875 105.738281 179.15625 C 103.171875 180.679688 100.757812 181.933594 97.773438 182.957031 C 94.636719 184.03125 92.589844 184.75 91.640625 185.09375 C 87.589844 186.589844 84.988281 188.757812 83.125 192.695312 C 82.808594 193.359375 82.433594 194.308594 81.988281 194.785156 C 81.964844 194.808594 81.675781 194.808594 81.648438 194.695312 C 80.988281 192.289062 80.484375 191.132812 80.125 190.152344 C 78.785156 186.476562 76.976562 184.675781 73.402344 182.578125 C 70.105469 180.644531 67.671875 178.992188 66.101562 177.628906 C 61.238281 173.40625 56.429688 168.703125 53.113281 163.371094 C 47.515625 154.355469 45.367188 144.40625 46.667969 133.523438 C 46.691406 133.316406 46.839844 133.148438 47.03125 133.082031 C 50.414062 132.058594 54.347656 131.269531 57.792969 131.695312 C 57.964844 131.710938 58.128906 131.753906 58.285156 131.804688 C 60.921875 132.769531 63.007812 133.371094 64.554688 133.613281 C 66.199219 133.863281 68.257812 132.917969 70.074219 131.992188 C 74.390625 129.796875 78.621094 128.773438 83.851562 130.707031 C 88.25 132.335938 92.25 134.972656 96.976562 135.574219 C 99.554688 135.902344 102.179688 135.53125 104.617188 134.660156 C 106.925781 133.839844 108.761719 132.050781 111.003906 131.253906 C 113.621094 130.324219 116.765625 130.148438 120.4375 130.730469 C 123.523438 131.21875 126.511719 131.929688 129.382812 132.871094 C 129.519531 132.910156 129.609375 133.054688 129.585938 133.195312 Z M 129.75 129.601562 L 129.75 129.59375 C 129.75 129.59375 129.75 129.613281 129.742188 129.625 C 129.695312 129.765625 129.542969 129.835938 129.402344 129.789062 C 124.320312 128.097656 118.417969 127.144531 113.097656 128.125 C 109.585938 128.773438 106.820312 131.023438 103.492188 132.074219 C 100.105469 133.140625 96.300781 132.679688 92.953125 131.714844 C 88.65625 130.484375 85.117188 127.714844 80.582031 127.015625 C 77.585938 126.550781 74.394531 126.847656 71.644531 128.1875 C 69.738281 129.121094 67.886719 130.425781 65.746094 130.753906 C 63.574219 131.082031 61.511719 129.894531 59.417969 129.527344 C 56.972656 129.097656 54.425781 129.140625 52.003906 129.695312 C 50.277344 130.09375 48.773438 130.246094 47.015625 131.113281 C 46.960938 131.136719 46.902344 131.148438 46.84375 131.136719 C 46.691406 131.113281 46.585938 130.960938 46.609375 130.804688 C 47.230469 127.332031 47.984375 124.003906 48.871094 120.832031 C 51.453125 111.613281 54.109375 103.660156 56.84375 96.972656 C 59.65625 90.105469 62.789062 83.089844 66.242188 75.929688 C 66.242188 75.929688 66.242188 75.917969 66.246094 75.917969 C 66.398438 75.625 66.765625 75.503906 67.058594 75.660156 C 73.75 79.109375 80.824219 81.808594 88.273438 83.761719 C 95.613281 85.683594 102.589844 87.300781 109.210938 88.617188 C 115.699219 89.90625 122.566406 90.242188 129.808594 89.609375 C 132.613281 89.371094 133.296875 88.871094 133.203125 92.28125 C 132.957031 102.59375 132.398438 111.3125 131.527344 118.441406 C 131.019531 122.605469 130.425781 126.324219 129.75 129.601562 Z M 129.75 129.601562 " fill-opacity="1" fill-rule="nonzero"></path></g></svg> 