<?xml version="1.0" encoding="UTF-8"?> <svg xmlns="http://www.w3.org/2000/svg" xmlns:xlink="http://www.w3.org/1999/xlink" width="360" zoomAndPan="magnify" viewBox="0 0 270 359.999987" height="480" preserveAspectRatio="xMidYMid meet" version="1.0"><defs><clipPath id="86af186a03"><path d="M 6.410156 85 L 28 85 L 28 276 L 6.410156 276 Z M 6.410156 85 " clip-rule="nonzero"></path></clipPath><clipPath id="3c79ffa62d"><path d="M 248 176 L 263.660156 176 L 263.660156 276 L 248 276 Z M 248 176 " clip-rule="nonzero"></path></clipPath><clipPath id="caaaeb170f"><path d="M 41 82.269531 L 235 82.269531 L 235 274 L 41 274 Z M 41 82.269531 " clip-rule="nonzero"></path></clipPath></defs><path fill="#5f0000" d="M 24.25 271.667969 C 28.425781 270.679688 31.453125 266.613281 31.734375 262.425781 C 31.757812 262.035156 31.183594 262.058594 31.136719 262.425781 C 30.585938 266.648438 27.941406 269.671875 24.117188 271.351562 C 23.933594 271.433594 24.066406 271.710938 24.25 271.667969 " fill-opacity="1" fill-rule="nonzero"></path><path fill="#5f0000" d="M 20.011719 270.816406 C 17.785156 268.714844 16.34375 266.628906 15.382812 263.703125 C 15.308594 263.472656 14.972656 263.566406 15.023438 263.804688 C 15.609375 266.585938 17.480469 269.441406 19.898438 270.964844 C 19.988281 271.019531 20.089844 270.890625 20.011719 270.816406 " fill-opacity="1" fill-rule="nonzero"></path><path fill="#5f0000" d="M 28.070312 145.867188 C 25.339844 150.019531 24.773438 155.421875 26.101562 160.15625 C 26.175781 160.429688 26.582031 160.316406 26.523438 160.039062 C 25.402344 155.023438 26.152344 150.613281 28.324219 146.011719 C 28.402344 145.847656 28.171875 145.710938 28.070312 145.867188 " fill-opacity="1" fill-rule="nonzero"></path><path fill="#5f0000" d="M 23.46875 197.433594 C 24.070312 209.160156 24.859375 220.882812 25.589844 232.605469 C 25.945312 238.308594 26.316406 244.011719 26.71875 249.714844 C 27.101562 255.113281 28.808594 262.105469 26.042969 267.070312 C 25.8125 267.488281 26.425781 267.839844 26.679688 267.441406 C 29.332031 263.292969 28.101562 257.726562 27.765625 253.121094 C 27.3125 246.9375 26.890625 240.75 26.464844 234.566406 C 25.613281 222.1875 24.871094 209.777344 23.632812 197.433594 C 23.625 197.332031 23.464844 197.328125 23.46875 197.433594 " fill-opacity="1" fill-rule="nonzero"></path><path fill="#5f0000" d="M 254.144531 271.753906 C 258.332031 270.785156 261.382812 266.734375 261.6875 262.542969 C 261.710938 262.210938 261.148438 262.128906 261.105469 262.464844 C 260.523438 266.726562 257.894531 269.761719 254.011719 271.4375 C 253.828125 271.519531 253.964844 271.796875 254.144531 271.753906 " fill-opacity="1" fill-rule="nonzero"></path><path fill="#5f0000" d="M 249.90625 270.878906 C 247.6875 268.761719 246.257812 266.667969 245.3125 263.730469 C 245.238281 263.5 244.902344 263.59375 244.949219 263.832031 C 245.523438 266.621094 247.382812 269.488281 249.792969 271.027344 C 249.882812 271.082031 249.984375 270.953125 249.90625 270.878906 " fill-opacity="1" fill-rule="nonzero"></path><path fill="#5f0000" d="M 253.785156 196.9375 C 254.519531 215.695312 255.839844 234.445312 257.023438 253.175781 C 257.335938 258.15625 257.835938 263.238281 255.21875 267.785156 C 254.976562 268.199219 255.59375 268.546875 255.851562 268.15625 C 258.414062 264.316406 258.230469 259.542969 257.949219 255.132812 C 257.667969 250.65625 257.386719 246.179688 257.09375 241.707031 C 256.304688 229.753906 255.460938 217.804688 254.652344 205.855469 C 254.449219 202.882812 254.207031 199.910156 253.949219 196.9375 C 253.9375 196.835938 253.78125 196.832031 253.785156 196.9375 " fill-opacity="1" fill-rule="nonzero"></path><path fill="#5f0000" d="M 255.566406 114 C 255.226562 131.046875 255.296875 148.152344 255.425781 165.203125 C 255.445312 167.613281 255.511719 169.972656 255.511719 172.480469 L 255.722656 172.480469 C 255.722656 155.433594 255.960938 138.332031 255.792969 121.277344 C 255.769531 118.863281 255.710938 116.433594 255.660156 114.023438 C 255.660156 113.960938 255.570312 113.941406 255.566406 114 " fill-opacity="1" fill-rule="nonzero"></path><path fill="#5f0000" d="M 80.085938 148.917969 C 86.210938 137.253906 95.78125 127.761719 107.515625 121.761719 C 118.925781 115.921875 131.394531 113.867188 144.105469 114.566406 C 144.378906 114.582031 144.367188 114.179688 144.105469 114.148438 C 118.023438 111.390625 91.867188 125.574219 80.003906 148.871094 C 79.976562 148.925781 80.058594 148.972656 80.085938 148.917969 " fill-opacity="1" fill-rule="nonzero"></path><path fill="#5f0000" d="M 90.953125 138.71875 C 96.570312 132.550781 103.105469 127.222656 110.597656 123.5 C 118.339844 119.652344 126.664062 117.890625 135.253906 117.433594 C 135.425781 117.425781 135.429688 117.15625 135.253906 117.160156 C 117.867188 117.328125 102.152344 125.675781 90.859375 138.625 C 90.804688 138.6875 90.894531 138.78125 90.953125 138.71875 " fill-opacity="1" fill-rule="nonzero"></path><path fill="#5f0000" d="M 133.488281 240.304688 C 153.867188 243.007812 175.390625 233.699219 187.632812 217.230469 C 187.738281 217.082031 187.496094 216.945312 187.390625 217.085938 C 174.828125 233.503906 153.941406 241.980469 133.488281 240.117188 C 133.363281 240.105469 133.371094 240.289062 133.488281 240.304688 " fill-opacity="1" fill-rule="nonzero"></path><path fill="#5f0000" d="M 98.054688 136.789062 C 105.96875 129.226562 115.304688 123.289062 126.289062 121.75 C 126.453125 121.726562 126.417969 121.445312 126.25 121.460938 C 115.347656 122.300781 105.53125 129.269531 98.003906 136.738281 C 97.972656 136.769531 98.023438 136.816406 98.054688 136.789062 " fill-opacity="1" fill-rule="nonzero"></path><path fill="#5f0000" d="M 163.929688 231.527344 C 171.917969 228.621094 179.257812 223.320312 184.074219 216.253906 C 184.183594 216.097656 183.9375 215.964844 183.824219 216.105469 C 178.527344 222.976562 172.023438 228.238281 163.902344 231.421875 C 163.835938 231.445312 163.863281 231.550781 163.929688 231.527344 " fill-opacity="1" fill-rule="nonzero"></path><path fill="#5f0000" d="M 163.28125 264.054688 C 188.878906 256.316406 211.066406 238.144531 221.339844 213.160156 C 224.289062 205.980469 226.214844 198.40625 226.84375 190.667969 C 226.867188 190.363281 226.40625 190.371094 226.375 190.667969 C 224.433594 208.019531 217.15625 224.316406 205.429688 237.28125 C 194.082031 249.824219 179.265625 258.707031 163.230469 263.875 C 163.117188 263.910156 163.164062 264.089844 163.28125 264.054688 " fill-opacity="1" fill-rule="nonzero"></path><path fill="#5f0000" d="M 63.636719 123.886719 C 49.269531 145.519531 44.800781 172.179688 50.304688 197.476562 C 50.371094 197.789062 50.839844 197.65625 50.78125 197.347656 C 45.878906 171.828125 49.917969 146.101562 63.722656 123.9375 C 63.761719 123.878906 63.671875 123.832031 63.636719 123.886719 " fill-opacity="1" fill-rule="nonzero"></path><path fill="#5f0000" d="M 36.660156 134.242188 C 33.179688 138.984375 27.59375 140.695312 21.917969 140.636719 C 16.898438 140.585938 9.882812 137.828125 9.089844 132.082031 C 9.011719 131.527344 8.226562 131.730469 8.179688 132.203125 C 7.574219 138.179688 16.003906 141.824219 20.757812 142.113281 C 27.128906 142.5 33.835938 140.289062 37.066406 134.480469 C 37.21875 134.210938 36.835938 134.003906 36.660156 134.242188 " fill-opacity="1" fill-rule="nonzero"></path><path fill="#5f0000" d="M 30.167969 254.773438 C 29.574219 259.351562 29.976562 267.84375 23.300781 268.207031 C 20.164062 268.378906 17.394531 265.292969 16.519531 262.535156 C 15.738281 260.085938 16.527344 257.578125 16.53125 255.089844 C 16.53125 254.390625 15.554688 254.292969 15.347656 254.929688 C 14.3125 258.074219 14.003906 261.625 15.609375 264.640625 C 17.015625 267.285156 19.765625 269.773438 22.902344 269.828125 C 25.570312 269.875 28.328125 267.957031 29.664062 265.707031 C 31.546875 262.53125 30.734375 258.230469 30.6875 254.773438 C 30.679688 254.433594 30.210938 254.453125 30.167969 254.773438 " fill-opacity="1" fill-rule="nonzero"></path><path fill="#5f0000" d="M 260.171875 254.808594 C 259.511719 259.6875 260.089844 266.316406 254.175781 268.007812 C 250.882812 268.953125 247.894531 266.070312 246.714844 263.199219 C 245.625 260.542969 246.488281 257.859375 246.511719 255.109375 C 246.515625 254.410156 245.535156 254.320312 245.324219 254.953125 C 244.269531 258.097656 243.945312 261.652344 245.535156 264.675781 C 246.929688 267.328125 249.667969 269.832031 252.808594 269.90625 C 255.480469 269.964844 258.25 268.058594 259.601562 265.8125 C 261.5 262.644531 260.710938 258.335938 260.683594 254.875 C 260.679688 254.597656 260.214844 254.511719 260.171875 254.808594 " fill-opacity="1" fill-rule="nonzero"></path><path fill="#5f0000" d="M 256.523438 89.792969 C 248.570312 93.292969 247.246094 102.941406 246.644531 110.664062 C 246.164062 116.839844 246.503906 122.984375 246.523438 129.160156 C 246.558594 140.671875 246.367188 152.191406 246.710938 163.695312 C 246.824219 167.523438 246.957031 171.367188 246.976562 175.195312 C 246.976562 175.457031 247.386719 175.457031 247.382812 175.195312 C 247.34375 166.230469 247.699219 157.269531 247.597656 148.300781 C 247.488281 138.53125 247.167969 128.703125 247.398438 118.933594 C 247.53125 113.335938 248.023438 107.804688 249.160156 102.320312 C 249.609375 100.160156 250.136719 97.96875 251.171875 96.003906 C 252.488281 93.515625 254.578125 91.789062 256.6875 90 C 256.808594 89.894531 256.652344 89.734375 256.523438 89.792969 " fill-opacity="1" fill-rule="nonzero"></path><path fill="#5f0000" d="M 256.875 178.34375 C 254.574219 180.652344 249.066406 180.847656 246.726562 178.5625 C 246.5625 178.402344 246.351562 178.636719 246.484375 178.808594 C 248.910156 181.917969 254.867188 181.761719 257.15625 178.5625 C 257.277344 178.394531 257.015625 178.203125 256.875 178.34375 " fill-opacity="1" fill-rule="nonzero"></path><path fill="#5f0000" d="M 94.96875 227.632812 C 86.082031 220.199219 78.921875 210.347656 75.414062 199.242188 C 72.226562 189.152344 71.550781 178.265625 72.765625 167.785156 C 73.953125 157.527344 77.0625 147.132812 83.070312 138.628906 C 89.570312 129.4375 99.101562 122.410156 109.242188 117.710938 C 121.675781 111.945312 135.457031 110.058594 148.949219 112.570312 C 149.804688 112.726562 150.171875 111.40625 149.308594 111.253906 C 125.3125 107.011719 99.8125 115.484375 83.953125 134.195312 C 70.007812 150.648438 67.097656 175.890625 72.183594 196.300781 C 75.402344 209.230469 83.09375 220.800781 93.25 229.347656 C 94.441406 230.351562 96.167969 228.636719 94.96875 227.632812 " fill-opacity="1" fill-rule="nonzero"></path><path fill="#5f0000" d="M 183.917969 129.632812 C 191.933594 137.28125 198.152344 146.730469 201.289062 157.40625 C 204.242188 167.46875 204.625 178.394531 203.007812 188.726562 C 199.761719 209.425781 186.359375 227.601562 167.636719 237.09375 C 155.515625 243.242188 142.425781 243.507812 129.164062 242.503906 C 127.882812 242.410156 127.574219 244.535156 128.859375 244.765625 C 140.5 246.851562 153.738281 245.675781 164.6875 241.136719 C 174.808594 236.9375 183.722656 229.929688 190.722656 221.546875 C 204.675781 204.851562 209.222656 181.890625 204.421875 160.773438 C 201.570312 148.238281 194.652344 136.988281 185.269531 128.28125 C 184.367188 127.449219 183.023438 128.78125 183.917969 129.632812 " fill-opacity="1" fill-rule="nonzero"></path><path fill="#5f0000" d="M 37.023438 85.015625 C 36.414062 88.5 36.308594 92.070312 36.101562 95.601562 C 35.679688 102.8125 35.535156 110.007812 35.566406 117.230469 C 35.582031 120.429688 35.601562 123.621094 35.648438 126.816406 C 35.695312 130.0625 36.058594 133.4375 35.753906 136.664062 C 35.222656 142.210938 30.597656 144.828125 27.992188 149.25 C 26.707031 151.425781 25.734375 153.644531 25.324219 156.144531 C 24.253906 162.617188 24.527344 169.421875 24.65625 175.964844 C 24.789062 183.003906 25.210938 190.03125 25.496094 197.0625 C 26.082031 211.585938 27.132812 226.101562 28.136719 240.597656 C 28.453125 245.140625 28.796875 249.675781 29.183594 254.214844 C 29.371094 256.394531 29.847656 258.53125 30.027344 260.714844 C 30.296875 263.964844 30.164062 267.570312 27.925781 270.160156 C 26.09375 272.28125 23.421875 273.324219 20.746094 272.292969 C 19.167969 271.683594 18.039062 274.328125 19.585938 275.039062 C 23.476562 276.828125 27.664062 275.300781 30.355469 272.117188 C 33.703125 268.160156 33.609375 262.707031 32.980469 257.847656 C 32.59375 254.882812 32.394531 251.941406 32.199219 248.953125 C 31.3125 235.449219 30.191406 221.957031 29.472656 208.441406 C 28.71875 194.304688 27.691406 180.125 28.003906 165.960938 C 28.085938 162.203125 27.945312 158.144531 29.105469 154.519531 C 30.210938 151.058594 32.6875 148.632812 34.984375 145.925781 C 38.589844 141.675781 39.308594 137.382812 39.179688 131.921875 C 39.121094 129.296875 39.109375 126.671875 39.105469 124.046875 C 39.09375 115.65625 39.25 107.265625 38.890625 98.878906 C 38.691406 94.273438 38.707031 89.574219 37.992188 85.015625 C 37.917969 84.535156 37.109375 84.542969 37.023438 85.015625 " fill-opacity="1" fill-rule="nonzero"></path><g clip-path="url(#86af186a03)"><path fill="#5f0000" d="M 7.320312 86.320312 C 6.425781 99.851562 6.863281 113.34375 6.925781 126.886719 C 6.941406 130.125 6.652344 133.445312 6.945312 136.664062 C 7.421875 141.917969 10.480469 145.097656 13.757812 148.898438 C 18.292969 154.164062 18.007812 161.027344 18.097656 167.601562 C 18.277344 180.925781 17.347656 194.238281 16.648438 207.535156 C 15.949219 220.789062 14.957031 234.027344 13.988281 247.265625 C 13.777344 250.128906 13.695312 253.015625 13.367188 255.871094 C 12.761719 261.144531 11.847656 266.960938 15.257812 271.539062 C 17.882812 275.070312 22.34375 276.941406 26.484375 275.039062 C 28.015625 274.335938 26.921875 271.675781 25.328125 272.292969 C 19.824219 274.414062 16.167969 268.53125 15.960938 263.785156 C 15.828125 260.824219 16.507812 257.96875 16.816406 255.046875 C 17.128906 252.097656 17.332031 249.128906 17.542969 246.171875 C 18.453125 233.398438 19.246094 220.617188 20.042969 207.835938 C 20.851562 194.84375 21.59375 181.738281 21.46875 168.710938 C 21.414062 162.800781 21.761719 156.183594 18.949219 150.785156 C 17.089844 147.214844 13.847656 144.816406 11.820312 141.390625 C 9.671875 137.757812 10.304688 133.507812 10.359375 129.476562 C 10.460938 121.847656 10.398438 114.199219 10.167969 106.574219 C 9.964844 99.808594 9.335938 93.078125 8.980469 86.320312 C 8.925781 85.25 7.390625 85.257812 7.320312 86.320312 " fill-opacity="1" fill-rule="nonzero"></path></g><path fill="#5f0000" d="M 33.378906 85.050781 C 32.867188 87.054688 32.882812 89.234375 32.785156 91.292969 C 32.636719 94.285156 32.476562 97.28125 32.378906 100.277344 C 32.160156 106.675781 31.957031 113.082031 31.832031 119.484375 C 31.789062 121.699219 31.984375 124.097656 31.648438 126.289062 C 31.523438 127.136719 31.710938 127.480469 30.796875 127.019531 C 30.011719 126.625 30.167969 126.300781 30.140625 125.480469 C 30.125 125.09375 30.132812 124.703125 30.132812 124.320312 C 30.121094 123.34375 30.109375 122.367188 30.097656 121.394531 C 30.019531 115.421875 29.960938 109.449219 29.835938 103.480469 C 29.699219 97.273438 29.027344 91.109375 28.832031 84.914062 C 28.8125 84.289062 27.878906 84.285156 27.859375 84.914062 C 27.691406 91.214844 27.195312 97.492188 27.234375 103.804688 C 27.277344 110.289062 27.386719 116.773438 27.417969 123.257812 C 27.429688 125.683594 27.058594 128.816406 29.691406 130.011719 C 32.96875 131.496094 34.359375 127.984375 34.429688 125.40625 C 34.609375 119.003906 34.519531 112.589844 34.476562 106.183594 C 34.453125 102.152344 34.40625 98.121094 34.328125 94.09375 C 34.269531 91.136719 34.496094 87.957031 33.894531 85.050781 C 33.839844 84.789062 33.445312 84.800781 33.378906 85.050781 " fill-opacity="1" fill-rule="nonzero"></path><path fill="#5f0000" d="M 25.015625 85.050781 C 24.5 87.054688 24.519531 89.234375 24.425781 91.292969 C 24.289062 94.285156 24.140625 97.28125 24.046875 100.277344 C 23.851562 106.675781 23.671875 113.082031 23.5625 119.484375 C 23.523438 121.699219 23.722656 124.097656 23.390625 126.289062 C 23.261719 127.136719 23.449219 127.480469 22.539062 127.019531 C 21.75 126.625 21.90625 126.296875 21.878906 125.480469 C 21.863281 125.035156 21.875 124.585938 21.875 124.140625 C 21.871094 123.074219 21.867188 122.003906 21.867188 120.9375 C 21.851562 114.832031 21.941406 108.71875 21.851562 102.609375 C 21.765625 96.703125 21.253906 90.832031 21.074219 84.933594 C 21.054688 84.308594 20.117188 84.308594 20.101562 84.933594 C 19.9375 90.941406 19.367188 96.921875 19.265625 102.933594 C 19.148438 109.605469 19.195312 116.285156 19.171875 122.960938 C 19.160156 125.449219 18.71875 128.777344 21.433594 130.011719 C 24.710938 131.496094 26.097656 127.988281 26.167969 125.40625 C 26.34375 119.003906 26.230469 112.589844 26.167969 106.183594 C 26.128906 102.152344 26.070312 98.121094 25.976562 94.09375 C 25.910156 91.136719 26.132812 87.957031 25.53125 85.050781 C 25.476562 84.789062 25.078125 84.800781 25.015625 85.050781 " fill-opacity="1" fill-rule="nonzero"></path><path fill="#5f0000" d="M 17.253906 85.050781 C 16.738281 87.054688 16.753906 89.234375 16.65625 91.292969 C 16.507812 94.394531 16.339844 97.5 16.238281 100.601562 C 16.035156 106.984375 15.828125 113.367188 15.699219 119.753906 C 15.675781 120.898438 15.652344 122.046875 15.628906 123.191406 C 15.605469 124.183594 15.847656 125.730469 15.484375 126.65625 C 14.824219 128.347656 14.042969 126.3125 14.011719 125.328125 C 14 124.941406 14.003906 124.550781 14 124.160156 C 13.984375 123.03125 13.964844 121.902344 13.9375 120.773438 C 13.8125 114.726562 13.71875 108.671875 13.46875 102.632812 C 13.222656 96.714844 12.5 90.828125 12.308594 84.914062 C 12.289062 84.289062 11.355469 84.285156 11.339844 84.914062 C 11.179688 90.929688 10.816406 96.925781 10.882812 102.953125 C 10.957031 109.566406 11.210938 116.175781 11.28125 122.789062 C 11.308594 125.289062 10.785156 128.785156 13.566406 130.011719 C 16.753906 131.414062 18.195312 128.164062 18.300781 125.585938 C 18.5625 119.132812 18.390625 112.640625 18.351562 106.183594 C 18.324219 102.152344 18.277344 98.121094 18.199219 94.09375 C 18.140625 91.132812 18.371094 87.957031 17.765625 85.050781 C 17.714844 84.789062 17.316406 84.800781 17.253906 85.050781 " fill-opacity="1" fill-rule="nonzero"></path><path fill="#5f0000" d="M 11.96875 84.546875 C 10.863281 84.019531 9.828125 84.078125 8.632812 84.246094 C 8.097656 84.320312 7.753906 84.519531 7.523438 85.027344 C 7.164062 85.835938 7.363281 86.65625 7.730469 87.417969 C 7.894531 87.757812 8.457031 87.75 8.621094 87.417969 C 8.898438 86.863281 9.113281 86.335938 9.152344 85.683594 C 9.179688 85.265625 9.058594 85.90625 8.941406 85.808594 C 8.960938 85.824219 9.378906 85.648438 9.476562 85.613281 C 10.304688 85.324219 11.179688 85.144531 11.96875 84.765625 C 12.050781 84.726562 12.050781 84.589844 11.96875 84.546875 " fill-opacity="1" fill-rule="nonzero"></path><path fill="#5f0000" d="M 20.96875 85.777344 C 21.101562 85.371094 21.144531 84.9375 20.886719 84.570312 C 20.511719 84.035156 19.605469 84.125 19.035156 84.121094 C 18.601562 84.121094 18 84.140625 17.617188 84.390625 C 17.015625 84.785156 16.953125 85.585938 17.132812 86.207031 C 17.246094 86.589844 17.769531 86.570312 17.886719 86.207031 C 17.980469 85.933594 18.023438 85.6875 18.078125 85.40625 C 18.101562 85.300781 18.101562 85.171875 18.1875 85.09375 C 18.367188 84.925781 18.824219 84.953125 19.035156 84.945312 C 19.394531 84.933594 20.128906 84.777344 20.378906 85.054688 C 20.519531 85.214844 20.652344 85.570312 20.726562 85.777344 C 20.765625 85.894531 20.929688 85.898438 20.96875 85.777344 " fill-opacity="1" fill-rule="nonzero"></path><path fill="#5f0000" d="M 28.679688 85.777344 C 28.8125 85.371094 28.863281 84.941406 28.609375 84.570312 C 28.242188 84.039062 27.359375 84.125 26.800781 84.121094 C 26.375 84.121094 25.785156 84.140625 25.414062 84.390625 C 24.824219 84.785156 24.757812 85.589844 24.941406 86.207031 C 25.054688 86.589844 25.574219 86.570312 25.695312 86.207031 C 25.789062 85.933594 25.835938 85.691406 25.882812 85.40625 C 25.898438 85.308594 25.902344 85.167969 25.976562 85.09375 C 26.152344 84.925781 26.59375 84.953125 26.800781 84.945312 C 27.15625 84.933594 27.867188 84.78125 28.101562 85.070312 C 28.238281 85.238281 28.367188 85.566406 28.4375 85.777344 C 28.480469 85.894531 28.640625 85.898438 28.679688 85.777344 " fill-opacity="1" fill-rule="nonzero"></path><path fill="#5f0000" d="M 37.839844 85.777344 C 37.964844 85.328125 37.976562 84.824219 37.617188 84.476562 C 37.132812 84.007812 36.117188 84.125 35.503906 84.121094 C 35.007812 84.121094 34.332031 84.109375 33.875 84.351562 C 33.171875 84.714844 33.09375 85.523438 33.261719 86.207031 C 33.355469 86.59375 33.90625 86.566406 34.015625 86.207031 C 34.128906 85.828125 34.140625 85.289062 34.484375 85.082031 C 34.757812 84.917969 35.207031 84.957031 35.503906 84.945312 C 35.90625 84.933594 36.570312 84.804688 36.960938 84.921875 C 37.289062 85.019531 37.503906 85.472656 37.597656 85.777344 C 37.632812 85.890625 37.804688 85.898438 37.839844 85.777344 " fill-opacity="1" fill-rule="nonzero"></path><g clip-path="url(#3c79ffa62d)"><path fill="#5f0000" d="M 258.953125 177.085938 C 258.316406 178.898438 258.082031 180.773438 257.3125 182.554688 C 256.832031 183.671875 256.148438 184.753906 255.867188 185.949219 C 255.46875 187.652344 255.632812 189.65625 255.59375 191.386719 C 255.542969 193.535156 255.597656 195.695312 255.644531 197.847656 C 255.859375 207.28125 256.371094 216.71875 256.972656 226.140625 C 257.578125 235.621094 258.277344 245.109375 259.160156 254.570312 C 259.550781 258.773438 260.65625 263.136719 259.382812 267.296875 C 258.230469 271.0625 254.539062 273.765625 250.625 272.359375 C 249.027344 271.785156 247.945312 274.347656 249.464844 275.109375 C 254.265625 277.511719 259.839844 274.203125 262 269.703125 C 263.453125 266.667969 263.59375 263.238281 263.265625 259.945312 C 262.867188 255.863281 262.300781 251.804688 261.945312 247.714844 C 260.5 231.148438 259.234375 214.480469 259.128906 197.847656 C 259.113281 195.691406 259.136719 193.539062 259.183594 191.386719 C 259.226562 189.476562 258.960938 187.46875 259.339844 185.589844 C 259.914062 182.738281 260.8125 180 259.921875 177.085938 C 259.769531 176.597656 259.117188 176.628906 258.953125 177.085938 " fill-opacity="1" fill-rule="nonzero"></path></g><path fill="#5f0000" d="M 245.550781 182.375 C 246.082031 183.660156 245.832031 185.371094 245.792969 186.714844 C 245.71875 189.480469 245.589844 192.238281 245.628906 195.007812 C 245.746094 202.792969 245.585938 210.582031 245.277344 218.359375 C 244.792969 230.519531 244.503906 242.769531 243.421875 254.894531 C 242.992188 259.65625 241.742188 264.253906 243.582031 268.921875 C 245.492188 273.78125 251.273438 277.640625 256.371094 275.136719 C 257.886719 274.394531 256.828125 271.835938 255.210938 272.390625 C 252.472656 273.332031 249.894531 272.402344 248.070312 270.171875 C 245.746094 267.335938 245.816406 263.3125 246.167969 259.851562 C 246.371094 257.875 246.765625 255.953125 246.875 253.972656 C 247.152344 249.148438 247.457031 244.324219 247.644531 239.5 C 248.207031 224.738281 249.164062 209.988281 249.214844 195.214844 C 249.226562 192.1875 248.996094 189.195312 248.453125 186.21875 C 248.191406 184.785156 247.949219 182.949219 247.070312 181.738281 C 246.566406 181.046875 245.160156 181.433594 245.550781 182.375 " fill-opacity="1" fill-rule="nonzero"></path><path fill="#5f0000" d="M 260.253906 180.257812 C 261.152344 169.582031 261.527344 158.9375 261.738281 148.226562 C 262.082031 131.117188 262 114 261.4375 96.894531 C 261.308594 93 261.308594 89.082031 261.324219 85.183594 C 261.328125 83.269531 258.351562 83.265625 258.347656 85.183594 C 258.308594 95.863281 257.761719 106.535156 257.582031 117.214844 C 257.292969 134.285156 256.996094 151.492188 257.9375 168.546875 C 258.15625 172.453125 258.449219 176.355469 258.75 180.257812 C 258.824219 181.226562 260.171875 181.222656 260.253906 180.257812 " fill-opacity="1" fill-rule="nonzero"></path><path fill="#5f0000" d="M 259.65625 84.164062 C 257.542969 83.015625 254.824219 84.535156 252.988281 85.6875 C 250.292969 87.378906 248.007812 89.800781 246.371094 92.515625 C 243.175781 97.8125 242.128906 104.121094 241.691406 110.199219 C 241.300781 115.675781 241.457031 121.1875 241.5 126.675781 C 241.613281 140.46875 241.6875 154.257812 241.855469 168.050781 C 241.886719 170.640625 241.894531 173.226562 242.257812 175.796875 C 242.972656 180.839844 245.445312 185.136719 245.914062 190.292969 C 246.070312 192.011719 248.398438 191.996094 248.578125 190.292969 C 249.03125 185.921875 247.078125 182.417969 245.996094 178.402344 C 245.21875 175.503906 245.15625 172.515625 245.160156 169.53125 C 245.167969 164.390625 245.15625 159.246094 245.144531 154.105469 C 245.117188 142.5 245.03125 130.894531 245.066406 119.289062 C 245.085938 112.964844 245.183594 106.433594 246.949219 100.316406 C 247.984375 96.746094 249.6875 93.296875 252.285156 90.59375 C 253.554688 89.277344 255.015625 88.152344 256.589844 87.222656 C 257.832031 86.488281 259.0625 86.089844 259.824219 84.808594 C 259.953125 84.59375 259.878906 84.285156 259.65625 84.164062 " fill-opacity="1" fill-rule="nonzero"></path><g clip-path="url(#caaaeb170f)"><path fill="#5f0000" d="M 153.273438 86.550781 C 189.628906 91.625 221.25 121.039062 228.253906 157.148438 C 231.96875 176.316406 230.234375 197.636719 222.410156 215.609375 C 214.675781 233.394531 199.96875 248.863281 183.234375 258.480469 C 165.054688 268.925781 143.128906 270.984375 122.667969 267.542969 C 104.046875 264.410156 86.011719 255.644531 72.460938 242.425781 C 59.886719 230.152344 51.324219 214.527344 48.019531 197.277344 C 44.683594 179.832031 45.726562 161.175781 51.082031 144.242188 C 53.617188 136.230469 57.238281 128.480469 62.296875 121.742188 C 67.992188 114.148438 75.238281 107.578125 83.058594 102.234375 C 99.132812 91.246094 118.554688 84.578125 138.121094 84.882812 C 140.59375 84.921875 142.996094 85.144531 145.4375 85.535156 C 148.042969 85.957031 150.683594 86.042969 153.273438 86.550781 C 154.992188 86.886719 155.71875 84.242188 154 83.921875 C 148.945312 82.984375 143.632812 82.855469 138.503906 82.585938 C 133.386719 82.320312 128.246094 82.527344 123.160156 83.164062 C 113.160156 84.414062 103.332031 87.21875 94.195312 91.480469 C 76.859375 99.566406 60.894531 112.984375 52.199219 130.246094 C 43.777344 146.957031 40.734375 166.421875 41.917969 185 C 43.097656 203.53125 48.90625 220.863281 60.179688 235.714844 C 71.90625 251.160156 88.042969 262.144531 106.304688 268.464844 C 116.855469 272.117188 128.070312 273.753906 139.21875 273.882812 C 150.078125 274.007812 161.234375 272.800781 171.527344 269.203125 C 191.273438 262.300781 208.152344 247.796875 219.609375 230.46875 C 231.082031 213.121094 235.414062 191.792969 234.34375 171.191406 C 233.320312 151.449219 226.519531 132.863281 214.007812 117.503906 C 202.085938 102.867188 185.425781 91.882812 167.28125 86.679688 C 162.8125 85.394531 158.242188 84.492188 153.636719 83.875 C 152.128906 83.671875 151.753906 86.339844 153.273438 86.550781 " fill-opacity="1" fill-rule="nonzero"></path></g></svg> 