<?xml version="1.0" encoding="UTF-8"?> <svg xmlns="http://www.w3.org/2000/svg" xmlns:xlink="http://www.w3.org/1999/xlink" width="360" zoomAndPan="magnify" viewBox="0 0 270 359.999987" height="480" preserveAspectRatio="xMidYMid meet" version="1.0"><path fill="#000000" d="M 132.476562 196.570312 C 132.066406 196.035156 131.128906 194.753906 130.390625 193.71875 C 124.925781 186.042969 116.953125 180.761719 106.554688 177.933594 L 104.46875 177.363281 L 102.746094 177.800781 C 100.40625 178.390625 98.574219 179.277344 95.253906 181.433594 C 92.042969 183.523438 91.535156 183.75 90.097656 183.75 C 89.28125 183.722656 88.53125 183.484375 87.847656 183.035156 C 87.167969 182.585938 86.652344 181.988281 86.3125 181.25 C 85.476562 179.648438 87.160156 177.484375 90.21875 176.238281 L 91.515625 175.707031 L 86.664062 175.703125 C 80.835938 175.695312 75.660156 176.042969 74.3125 176.53125 C 72.863281 177.054688 70.945312 178.554688 68.460938 181.113281 C 63.789062 185.929688 62.714844 186.695312 60.34375 186.910156 C 57.921875 187.128906 56.644531 186.183594 56.644531 184.167969 C 56.644531 182.230469 58.042969 180.292969 60.46875 178.882812 C 61.199219 178.460938 61.414062 178.257812 61.046875 178.332031 C 42.730469 182.21875 38.171875 182.957031 33.554688 182.777344 C 31.035156 182.679688 30.640625 182.71875 30.066406 183.105469 C 28.25 184.234375 26.320312 185.113281 24.277344 185.75 C 22.367188 186.335938 21.960938 186.375 17.835938 186.378906 C 13.960938 186.386719 13.199219 186.320312 11.484375 185.859375 C 6.347656 184.46875 2.628906 181.804688 0.851562 178.238281 C 0.046875 176.621094 0 176.398438 0 174.328125 C 0.00390625 172.496094 0.0898438 171.96875 0.523438 171.160156 C 2.449219 167.558594 7.667969 165.867188 12.277344 167.347656 C 15.394531 168.347656 16.59375 170.3125 15.492188 172.617188 C 14.957031 173.738281 12.851562 175.5625 11.171875 176.359375 C 9.367188 177.21875 6.601562 177.863281 6.601562 177.429688 C 6.601562 177.257812 7.242188 176.972656 8.132812 176.753906 C 10.847656 176.074219 12.859375 174.796875 14.285156 172.84375 C 15.035156 171.820312 15.152344 170.578125 14.578125 169.761719 C 13.679688 168.492188 10.179688 167.472656 7.664062 167.753906 C 3.6875 168.195312 1.292969 170.089844 0.753906 173.210938 C 0.53125 174.503906 0.558594 174.867188 1 176.308594 C 2.179688 180.164062 5.503906 182.9375 10.933594 184.601562 C 12.847656 185.191406 13.242188 185.226562 17.375 185.226562 C 21.527344 185.226562 21.894531 185.191406 23.863281 184.589844 C 25.191406 184.164062 26.484375 183.636719 27.730469 183.007812 L 29.515625 182.066406 L 28.632812 181.214844 C 27.433594 180.0625 27.238281 179.015625 27.960938 177.585938 C 28.664062 176.1875 29.988281 175.472656 31.875 175.472656 C 33.042969 175.472656 33.273438 175.546875 33.691406 176.078125 C 34.597656 177.21875 34.140625 179.042969 32.492188 180.90625 L 31.746094 181.753906 L 35.101562 181.617188 C 39.078125 181.457031 42.964844 180.835938 52.625 178.824219 C 56.558594 178.003906 60.5 177.203125 61.386719 177.042969 L 63.003906 176.753906 L 61.503906 176.457031 C 57.808594 175.726562 55.0625 174.238281 54.15625 172.476562 C 53.5 171.199219 53.5 170.675781 54.160156 169.695312 C 55.019531 168.414062 56.167969 167.988281 58.734375 168.007812 C 61.671875 168.03125 62.742188 168.476562 66.429688 171.203125 C 71.480469 174.941406 72.511719 175.296875 77.035156 174.859375 C 78.757812 174.691406 82.429688 174.527344 85.191406 174.496094 C 89.25 174.445312 90.074219 174.386719 89.472656 174.175781 C 85.441406 172.785156 82.835938 169.929688 82.832031 166.890625 C 82.824219 162.117188 88.140625 161.503906 92.515625 165.769531 C 93.25 166.488281 94.671875 168.078125 95.667969 169.304688 C 97.628906 171.636719 99.882812 173.636719 102.433594 175.304688 C 103.46875 175.820312 104.550781 176.210938 105.679688 176.476562 C 116.40625 179.179688 125.269531 184.835938 130.96875 192.613281 C 131.65625 193.5625 132.289062 194.546875 132.859375 195.570312 C 133.976562 197.691406 133.765625 198.25 132.476562 196.574219 Z M 62.109375 185.40625 C 63.15625 184.6875 64.117188 183.863281 64.988281 182.9375 C 66.070312 181.835938 67.820312 180.117188 68.878906 179.125 L 70.800781 177.320312 L 69.277344 177.996094 C 67.480469 178.820312 65.832031 179.871094 64.328125 181.148438 C 63.886719 181.542969 63.402344 181.871094 62.871094 182.140625 C 62.117188 182.140625 64.898438 179.414062 67.105469 177.992188 L 68.578125 177.042969 L 67.652344 177.207031 C 64.730469 177.722656 60.984375 179.34375 59.300781 180.816406 C 57.339844 182.53125 56.757812 184.636719 57.980469 185.597656 C 58.511719 186.019531 58.824219 186.082031 59.90625 185.984375 C 60.671875 185.910156 61.40625 185.71875 62.109375 185.40625 Z M 91.269531 182.277344 C 92.269531 181.757812 93.234375 181.179688 94.160156 180.542969 C 96.003906 179.3125 97.941406 178.246094 99.972656 177.351562 C 100.472656 177.121094 100.390625 177.101562 99.394531 177.21875 C 97.308594 177.558594 95.339844 178.238281 93.488281 179.253906 C 90.265625 181.171875 89.148438 181.351562 91.523438 179.558594 C 93.082031 178.351562 94.8125 177.480469 96.714844 176.941406 C 98.617188 176.394531 98.527344 176.289062 95.960938 176.039062 C 94.042969 175.851562 92.566406 176.160156 90.328125 177.210938 C 87.777344 178.40625 86.625 180.066406 87.53125 181.246094 C 88.195312 181.953125 89.003906 182.402344 89.960938 182.597656 C 90.414062 182.558594 90.851562 182.449219 91.269531 182.273438 Z M 31.507812 180.242188 C 32.660156 178.914062 33.054688 178.105469 32.96875 177.234375 C 32.910156 176.617188 32.792969 176.492188 32.222656 176.425781 C 30.558594 176.238281 28.820312 177.140625 28.515625 178.351562 C 28.320312 179.117188 28.902344 180.316406 29.710938 180.816406 C 29.957031 180.980469 30.222656 181.113281 30.503906 181.210938 C 30.886719 180.9375 31.222656 180.613281 31.507812 180.242188 Z M 66.144531 175.257812 C 64.304688 174.757812 62.316406 173.917969 61.953125 173.484375 C 61.542969 172.996094 61.992188 173.0625 66.058594 174.085938 C 68.066406 174.59375 69.867188 175.007812 70.058594 175.007812 C 70.246094 175.007812 69.835938 174.664062 69.140625 174.25 C 68.449219 173.832031 66.816406 172.703125 65.519531 171.738281 C 62.566406 169.550781 61.105469 168.957031 58.613281 168.929688 C 53.78125 168.878906 53.164062 171.875 57.546875 174.074219 C 59.804688 175.207031 61.929688 175.625 65.566406 175.652344 L 67.648438 175.667969 Z M 95.367188 173.386719 C 92.730469 171.957031 89.546875 169.578125 89.546875 169.03125 C 89.546875 168.640625 89.765625 168.746094 91.21875 169.832031 C 93.277344 171.265625 95.457031 172.496094 97.753906 173.511719 L 99.125 174.117188 L 97.355469 172.476562 C 96.128906 171.300781 94.980469 170.058594 93.90625 168.742188 C 91.960938 166.320312 90.027344 164.804688 88.214844 164.28125 C 85.808594 163.585938 84.273438 164.347656 84.046875 166.355469 C 83.792969 168.585938 85.285156 170.699219 88.089844 172.09375 C 90.09375 173.085938 90.917969 173.347656 93.675781 173.859375 C 97.125 174.496094 97.320312 174.441406 95.367188 173.386719 Z M 135.199219 197.203125 C 135.421875 196.425781 135.75 195.691406 136.1875 195.007812 C 140.167969 188.074219 147.828125 181.917969 156.855469 178.398438 C 159.410156 177.46875 162.011719 176.691406 164.65625 176.0625 C 165.566406 175.867188 168.484375 173.855469 170.363281 172.128906 C 171.535156 171.003906 172.636719 169.816406 173.664062 168.554688 C 176.488281 165.035156 178.492188 163.542969 181.140625 162.992188 C 181.507812 162.898438 181.882812 162.859375 182.261719 162.871094 C 182.640625 162.886719 183.011719 162.957031 183.371094 163.078125 C 183.730469 163.199219 184.066406 163.371094 184.375 163.589844 C 184.683594 163.8125 184.953125 164.070312 185.183594 164.367188 C 185.738281 165.085938 185.816406 165.402344 185.816406 166.820312 C 185.816406 169.925781 183.976562 172.140625 179.925781 173.90625 L 178.402344 174.574219 L 180.050781 174.433594 C 181.710938 174.292969 189.910156 174.632812 193.113281 174.976562 C 196.011719 175.285156 197.804688 174.566406 201.964844 171.421875 C 204.949219 169.167969 206.152344 168.5 207.898438 168.132812 C 212.304688 167.207031 215.671875 169.011719 214.875 171.875 C 214.375 173.675781 211.203125 175.628906 207.550781 176.382812 C 206.429688 176.613281 205.746094 176.8125 206.03125 176.824219 C 206.3125 176.839844 210.589844 177.683594 215.527344 178.707031 C 220.46875 179.726562 226.230469 180.8125 228.332031 181.121094 C 231.851562 181.632812 236.675781 181.875 236.675781 181.539062 C 236.476562 181.183594 236.234375 180.867188 235.949219 180.578125 C 234.488281 178.925781 234.136719 176.890625 235.152344 175.945312 C 236.300781 174.875 239.105469 175.476562 240.472656 177.085938 C 240.953125 177.613281 241.15625 178.234375 241.078125 178.941406 C 241.078125 179.949219 240.972656 180.195312 240.148438 181.082031 L 239.21875 182.085938 L 241.015625 183.003906 C 244.421875 184.742188 247.113281 185.359375 251.289062 185.359375 C 258.84375 185.359375 264.765625 182.480469 267.179688 177.625 C 267.78125 176.628906 268.054688 175.550781 267.996094 174.390625 C 267.996094 170.71875 265.691406 168.421875 261.421875 167.816406 C 258.257812 167.367188 254.667969 168.527344 253.945312 170.230469 C 253.019531 172.421875 255.941406 175.363281 260.410156 176.730469 C 262.5625 177.390625 262.691406 177.820312 260.609375 177.390625 C 257.277344 176.703125 254.304688 174.773438 253.238281 172.609375 C 252.203125 170.503906 252.863281 168.945312 255.28125 167.78125 C 260.300781 165.363281 267.238281 167.675781 268.566406 172.203125 C 270.015625 177.164062 266.09375 182.714844 259.441406 185.125 C 256.34375 186.246094 253.96875 186.582031 250 186.449219 C 245.421875 186.300781 242.199219 185.410156 239.183594 183.460938 L 237.949219 182.664062 L 235.152344 182.773438 C 231.066406 182.933594 226.984375 182.351562 215.300781 179.933594 C 211.378906 179.121094 208.042969 178.457031 207.886719 178.457031 C 207.730469 178.457031 208.128906 178.808594 208.773438 179.238281 C 210.996094 180.726562 212.117188 182.417969 212.117188 184.289062 C 212.117188 186.167969 210.777344 187.125 208.445312 186.914062 C 206.160156 186.710938 205.082031 185.96875 200.695312 181.609375 C 195.625 176.566406 195.335938 176.402344 190.917969 176.011719 C 189.132812 175.855469 185.324219 175.726562 182.460938 175.722656 L 177.246094 175.714844 L 178.460938 176.238281 C 182.34375 177.902344 183.582031 180.351562 181.59375 182.429688 C 181.226562 182.871094 180.777344 183.210938 180.25 183.441406 C 179.71875 183.671875 179.167969 183.773438 178.589844 183.746094 C 177.191406 183.742188 176.15625 183.273438 173.378906 181.390625 C 171.101562 179.765625 168.621094 178.5625 165.929688 177.777344 C 164.304688 177.371094 164.28125 177.371094 162.3125 177.894531 C 157.257812 179.222656 152.539062 181.308594 148.164062 184.152344 C 144.3125 186.851562 140.988281 190.085938 138.195312 193.855469 C 137.371094 195.050781 136.363281 196.394531 135.949219 196.847656 C 135.3125 197.546875 135.199219 197.601562 135.195312 197.203125 Z M 210.851562 185.488281 C 211.183594 185.15625 211.375 184.761719 211.417969 184.292969 C 211.417969 183.324219 210.546875 181.765625 209.519531 180.894531 C 207.710938 179.355469 203.570312 177.570312 200.992188 177.21875 L 199.949219 177.078125 L 201.289062 177.808594 C 202.773438 178.613281 206.363281 181.914062 205.929688 182.070312 C 205.777344 182.125 204.851562 181.535156 203.867188 180.761719 C 202.453125 179.644531 198.851562 177.539062 198.355469 177.539062 C 198.300781 177.539062 199.941406 179.210938 202 181.25 C 206.089844 185.3125 207.183594 186.042969 209.167969 186.046875 C 210.039062 186.046875 210.402344 185.929688 210.847656 185.488281 Z M 179.898438 182.261719 C 180.757812 181.820312 181.53125 180.835938 181.53125 180.183594 C 181.53125 178.929688 179.472656 177.398438 176.546875 176.480469 C 175.351562 176.015625 174.113281 175.871094 172.839844 176.042969 C 170.039062 176.265625 169.851562 176.390625 171.632812 176.851562 C 172.601562 177.113281 173.542969 177.453125 174.453125 177.871094 C 175.921875 178.582031 178.515625 180.425781 178.515625 180.753906 C 178.515625 181.054688 178.203125 180.917969 175.570312 179.46875 C 173.609375 178.316406 171.5 177.566406 169.25 177.210938 C 168.257812 177.082031 168.3125 177.125 170.292969 178.082031 C 171.765625 178.820312 173.195312 179.636719 174.578125 180.53125 C 177.859375 182.6875 178.597656 182.929688 179.898438 182.261719 Z M 239.359375 180.4375 C 240.664062 179.144531 240.367188 177.5625 238.671875 176.765625 C 237.667969 176.289062 236.128906 176.277344 235.746094 176.738281 C 235.507812 177.019531 235.53125 177.289062 235.867188 178.160156 C 236.273438 179.214844 237.898438 181.222656 238.347656 181.222656 C 238.738281 181.027344 239.074219 180.765625 239.359375 180.4375 Z M 208.394531 175.132812 C 210.230469 174.640625 212.34375 173.546875 213.253906 172.613281 C 214.261719 171.578125 214.324219 170.574219 213.425781 169.804688 C 212.238281 168.789062 210.359375 168.554688 208.101562 169.140625 C 206.277344 169.613281 205.449219 170.066406 202.496094 172.222656 C 201.382812 173.058594 200.222656 173.832031 199.023438 174.546875 C 197.617188 175.246094 198.566406 175.125 202.566406 174.085938 C 206.203125 173.144531 207.152344 172.992188 206.898438 173.402344 C 206.648438 173.796875 205.042969 174.519531 203.035156 175.128906 L 201.109375 175.714844 L 204.121094 175.59375 C 205.558594 175.554688 206.984375 175.402344 208.398438 175.132812 Z M 176.167969 173.621094 C 180.121094 172.84375 183.140625 170.992188 184.226562 168.679688 C 184.851562 167.351562 184.90625 166.566406 184.445312 165.46875 C 183.824219 163.996094 182.238281 163.617188 180.089844 164.425781 C 178.320312 165.097656 176.867188 166.246094 175.234375 168.277344 C 174.445312 169.257812 172.859375 170.980469 171.710938 172.105469 L 169.621094 174.148438 L 172.851562 172.515625 C 174.449219 171.71875 175.988281 170.828125 177.46875 169.835938 C 178.863281 168.792969 179.214844 168.625 179.214844 169 C 179.214844 169.53125 176.058594 171.882812 173.183594 173.496094 L 171.683594 174.339844 L 172.84375 174.191406 C 173.480469 174.109375 174.976562 173.851562 176.171875 173.617188 Z M 133.847656 193.585938 C 133.65625 193.285156 133.523438 192.957031 133.453125 192.605469 C 132.871094 190.011719 131.683594 188.3125 127.355469 183.898438 C 122.3125 178.746094 120.847656 176.429688 120.644531 173.269531 C 120.421875 169.816406 122.042969 167.800781 125.046875 167.800781 C 128.078125 167.796875 131.703125 170.589844 133.546875 174.355469 L 134.414062 176.125 L 134.71875 175.277344 C 135.796875 172.71875 137.484375 170.644531 139.777344 169.058594 C 144.015625 166.355469 148.160156 168.175781 148.164062 172.742188 C 148.164062 175.890625 146.355469 178.808594 140.988281 184.3125 C 137.800781 187.578125 136.957031 188.589844 136.269531 189.949219 C 135.851562 190.75 135.523438 191.582031 135.28125 192.453125 C 135.042969 193.777344 134.417969 194.269531 133.847656 193.585938 Z M 136.265625 187.488281 C 137.558594 185.878906 138.933594 184.339844 140.386719 182.871094 C 144.105469 179.019531 145.082031 177.777344 146.121094 175.570312 C 148.6875 170.121094 144.472656 166.8125 139.765625 170.582031 C 137.851562 172.117188 135.445312 175.828125 135.007812 177.917969 C 134.871094 178.585938 134.699219 178.824219 134.308594 178.878906 C 133.886719 178.941406 133.796875 178.84375 133.796875 178.304688 C 133.574219 177.339844 133.222656 176.421875 132.746094 175.550781 C 129.730469 169.523438 123.902344 166.910156 122.164062 170.808594 C 121.351562 172.632812 121.875 174.878906 123.777344 177.730469 C 125.050781 179.355469 126.414062 180.902344 127.871094 182.371094 C 131.617188 186.25 132.789062 187.746094 133.691406 189.808594 L 134.351562 191.304688 L 134.878906 190.015625 C 135.265625 189.132812 135.726562 188.289062 136.265625 187.488281 Z M 136.265625 187.488281 " fill-opacity="1" fill-rule="nonzero"></path></svg> 