<?xml version="1.0" encoding="UTF-8"?> <svg xmlns="http://www.w3.org/2000/svg" xmlns:xlink="http://www.w3.org/1999/xlink" width="360" zoomAndPan="magnify" viewBox="0 0 270 359.999987" height="480" preserveAspectRatio="xMidYMid meet" version="1.0"><defs><g></g><clipPath id="6744845bb1"><path d="M 0 8 L 18 8 L 18 26 L 0 26 Z M 0 8 " clip-rule="nonzero"></path></clipPath><clipPath id="d3b9cbfe8f"><rect x="0" width="270" y="0" height="35"></rect></clipPath></defs><g transform="matrix(1, 0, 0, 1, -0, 162)"><g clip-path="url(#d3b9cbfe8f)"><g clip-path="url(#6744845bb1)"><g fill="#000000" fill-opacity="1"><g transform="translate(0.0672082, 25.885165)"><g><path d="M 17.15625 -17.453125 C 17.1875 -17.453125 17.203125 -17.394531 17.203125 -17.28125 C 17.203125 -17.175781 17.1875 -17.125 17.15625 -17.125 C 16.476562 -17.125 15.796875 -16.875 15.109375 -16.375 C 14.421875 -15.882812 13.804688 -15.210938 13.265625 -14.359375 L 9.53125 -8.609375 L 9.53125 -2.265625 C 9.53125 -1.679688 9.582031 -1.257812 9.6875 -1 C 9.800781 -0.738281 10.019531 -0.5625 10.34375 -0.46875 C 10.675781 -0.375 11.195312 -0.328125 11.90625 -0.328125 C 11.957031 -0.328125 11.984375 -0.269531 11.984375 -0.15625 C 11.984375 -0.0507812 11.957031 0 11.90625 0 C 11.320312 0 10.875 -0.0078125 10.5625 -0.03125 L 8.609375 -0.0625 L 6.671875 -0.03125 C 6.335938 -0.0078125 5.882812 0 5.3125 0 C 5.25 0 5.21875 -0.0507812 5.21875 -0.15625 C 5.21875 -0.269531 5.25 -0.328125 5.3125 -0.328125 C 6.019531 -0.328125 6.535156 -0.375 6.859375 -0.46875 C 7.179688 -0.5625 7.398438 -0.742188 7.515625 -1.015625 C 7.640625 -1.285156 7.703125 -1.703125 7.703125 -2.265625 L 7.703125 -8.15625 L 3.078125 -14.953125 C 2.554688 -15.765625 2.0625 -16.328125 1.59375 -16.640625 C 1.125 -16.960938 0.582031 -17.125 -0.03125 -17.125 C -0.0820312 -17.125 -0.109375 -17.175781 -0.109375 -17.28125 C -0.109375 -17.394531 -0.0820312 -17.453125 -0.03125 -17.453125 C 0.195312 -17.453125 0.535156 -17.4375 0.984375 -17.40625 L 1.953125 -17.375 C 2.585938 -17.375 3.390625 -17.394531 4.359375 -17.4375 L 5.859375 -17.453125 C 5.898438 -17.453125 5.921875 -17.394531 5.921875 -17.28125 C 5.921875 -17.175781 5.898438 -17.125 5.859375 -17.125 C 4.898438 -17.125 4.421875 -16.925781 4.421875 -16.53125 C 4.421875 -16.332031 4.507812 -16.101562 4.6875 -15.84375 L 9.1875 -9.25 L 12.59375 -14.46875 C 13.007812 -15.125 13.21875 -15.675781 13.21875 -16.125 C 13.21875 -16.789062 12.710938 -17.125 11.703125 -17.125 C 11.671875 -17.125 11.65625 -17.175781 11.65625 -17.28125 C 11.65625 -17.394531 11.671875 -17.453125 11.703125 -17.453125 L 13.015625 -17.4375 C 13.722656 -17.394531 14.375 -17.375 14.96875 -17.375 C 15.289062 -17.375 15.675781 -17.394531 16.125 -17.4375 Z M 17.15625 -17.453125 "></path></g></g></g></g><g fill="#000000" fill-opacity="1"><g transform="translate(14.731852, 25.885165)"><g><path d="M 7.234375 -12.984375 C 6.597656 -12.984375 6 -13.101562 5.4375 -13.34375 C 4.882812 -13.59375 4.441406 -13.914062 4.109375 -14.3125 C 3.773438 -14.71875 3.609375 -15.132812 3.609375 -15.5625 C 3.609375 -16.101562 3.878906 -16.375 4.421875 -16.375 C 4.765625 -16.375 5.003906 -16.269531 5.140625 -16.0625 C 5.273438 -15.851562 5.40625 -15.507812 5.53125 -15.03125 C 5.625 -14.632812 5.710938 -14.332031 5.796875 -14.125 C 5.878906 -13.925781 6.03125 -13.75 6.25 -13.59375 C 6.476562 -13.4375 6.796875 -13.359375 7.203125 -13.359375 C 7.765625 -13.359375 8.164062 -13.503906 8.40625 -13.796875 C 8.644531 -14.097656 8.820312 -14.507812 8.9375 -15.03125 C 9.050781 -15.476562 9.175781 -15.8125 9.3125 -16.03125 C 9.457031 -16.257812 9.695312 -16.375 10.03125 -16.375 C 10.59375 -16.375 10.875 -16.09375 10.875 -15.53125 C 10.875 -15.082031 10.695312 -14.660156 10.34375 -14.265625 C 10 -13.878906 9.546875 -13.566406 8.984375 -13.328125 C 8.429688 -13.097656 7.847656 -12.984375 7.234375 -12.984375 Z M 13.515625 -0.328125 C 13.554688 -0.328125 13.578125 -0.269531 13.578125 -0.15625 C 13.578125 -0.0507812 13.554688 0 13.515625 0 C 13.054688 0 12.695312 -0.0078125 12.4375 -0.03125 L 11 -0.0625 L 9.5 -0.03125 C 9.21875 -0.0078125 8.851562 0 8.40625 0 C 8.351562 0 8.328125 -0.0507812 8.328125 -0.15625 C 8.328125 -0.269531 8.351562 -0.328125 8.40625 -0.328125 C 8.925781 -0.328125 9.304688 -0.375 9.546875 -0.46875 C 9.796875 -0.5625 9.96875 -0.742188 10.0625 -1.015625 C 10.15625 -1.285156 10.203125 -1.703125 10.203125 -2.265625 L 10.203125 -8.765625 L 2.984375 0.203125 C 2.929688 0.253906 2.867188 0.28125 2.796875 0.28125 C 2.722656 0.28125 2.65625 0.265625 2.59375 0.234375 C 2.539062 0.210938 2.515625 0.179688 2.515625 0.140625 L 2.515625 -8.515625 C 2.515625 -9.078125 2.472656 -9.492188 2.390625 -9.765625 C 2.304688 -10.035156 2.140625 -10.21875 1.890625 -10.3125 C 1.648438 -10.40625 1.269531 -10.453125 0.75 -10.453125 C 0.71875 -10.453125 0.703125 -10.503906 0.703125 -10.609375 C 0.703125 -10.722656 0.71875 -10.78125 0.75 -10.78125 C 1.195312 -10.78125 1.539062 -10.769531 1.78125 -10.75 L 3.265625 -10.734375 L 4.890625 -10.75 C 5.148438 -10.769531 5.472656 -10.78125 5.859375 -10.78125 C 5.921875 -10.78125 5.953125 -10.722656 5.953125 -10.609375 C 5.953125 -10.503906 5.921875 -10.453125 5.859375 -10.453125 C 5.335938 -10.453125 4.957031 -10.40625 4.71875 -10.3125 C 4.476562 -10.21875 4.3125 -10.035156 4.21875 -9.765625 C 4.125 -9.492188 4.078125 -9.078125 4.078125 -8.515625 L 4.078125 -2.015625 L 11.28125 -10.984375 C 11.34375 -11.035156 11.410156 -11.0625 11.484375 -11.0625 C 11.554688 -11.0625 11.617188 -11.046875 11.671875 -11.015625 C 11.734375 -10.992188 11.765625 -10.960938 11.765625 -10.921875 L 11.765625 -2.265625 C 11.765625 -1.703125 11.8125 -1.285156 11.90625 -1.015625 C 12 -0.742188 12.160156 -0.5625 12.390625 -0.46875 C 12.617188 -0.375 12.992188 -0.328125 13.515625 -0.328125 Z M 13.515625 -0.328125 "></path></g></g></g><g fill="#000000" fill-opacity="1"><g transform="translate(29.006119, 25.885165)"><g><path d="M 12.515625 -0.328125 C 12.609375 -0.328125 12.65625 -0.269531 12.65625 -0.15625 C 12.65625 -0.0507812 12.609375 0 12.515625 0 C 12.234375 0 11.796875 -0.0195312 11.203125 -0.0625 C 10.609375 -0.09375 10.160156 -0.109375 9.859375 -0.109375 C 9.597656 -0.109375 9.207031 -0.09375 8.6875 -0.0625 C 8.164062 -0.0195312 7.796875 0 7.578125 0 C 7.492188 0 7.453125 -0.0507812 7.453125 -0.15625 C 7.453125 -0.269531 7.492188 -0.328125 7.578125 -0.328125 C 7.929688 -0.328125 8.203125 -0.398438 8.390625 -0.546875 C 8.585938 -0.703125 8.6875 -0.929688 8.6875 -1.234375 C 8.6875 -1.566406 8.582031 -1.9375 8.375 -2.34375 L 5.421875 -8.65625 L 3.21875 -3.4375 C 2.875 -2.65625 2.703125 -2.019531 2.703125 -1.53125 C 2.703125 -0.726562 3.140625 -0.328125 4.015625 -0.328125 C 4.109375 -0.328125 4.15625 -0.269531 4.15625 -0.15625 C 4.15625 -0.0507812 4.109375 0 4.015625 0 C 3.816406 0 3.550781 -0.0195312 3.21875 -0.0625 C 2.800781 -0.09375 2.425781 -0.109375 2.09375 -0.109375 C 1.71875 -0.109375 1.347656 -0.09375 0.984375 -0.0625 C 0.640625 -0.0195312 0.335938 0 0.078125 0 C -0.015625 0 -0.0625 -0.0507812 -0.0625 -0.15625 C -0.0625 -0.269531 -0.015625 -0.328125 0.078125 -0.328125 C 0.421875 -0.328125 0.773438 -0.5625 1.140625 -1.03125 C 1.515625 -1.5 1.988281 -2.382812 2.5625 -3.6875 L 5.78125 -11.203125 C 5.820312 -11.273438 5.882812 -11.3125 5.96875 -11.3125 C 6.050781 -11.3125 6.101562 -11.273438 6.125 -11.203125 L 9.578125 -3.828125 C 10.085938 -2.742188 10.472656 -1.976562 10.734375 -1.53125 C 10.992188 -1.082031 11.253906 -0.769531 11.515625 -0.59375 C 11.773438 -0.414062 12.109375 -0.328125 12.515625 -0.328125 Z M 12.515625 -0.328125 "></path></g></g></g><g fill="#000000" fill-opacity="1"><g transform="translate(41.101379, 25.885165)"><g><path d="M 6.953125 -11.140625 C 8.054688 -11.140625 9.015625 -10.867188 9.828125 -10.328125 C 10.648438 -9.796875 11.28125 -9.085938 11.71875 -8.203125 C 12.15625 -7.316406 12.375 -6.378906 12.375 -5.390625 C 12.375 -4.234375 12.101562 -3.222656 11.5625 -2.359375 C 11.019531 -1.492188 10.296875 -0.820312 9.390625 -0.34375 C 8.492188 0.125 7.515625 0.359375 6.453125 0.359375 C 5.367188 0.359375 4.410156 0.09375 3.578125 -0.4375 C 2.753906 -0.96875 2.117188 -1.679688 1.671875 -2.578125 C 1.222656 -3.484375 1 -4.46875 1 -5.53125 C 1 -6.738281 1.289062 -7.765625 1.875 -8.609375 C 2.46875 -9.460938 3.222656 -10.097656 4.140625 -10.515625 C 5.066406 -10.929688 6.003906 -11.140625 6.953125 -11.140625 Z M 6.03125 -10.609375 C 5.03125 -10.609375 4.253906 -10.242188 3.703125 -9.515625 C 3.148438 -8.796875 2.875 -7.753906 2.875 -6.390625 C 2.875 -6.078125 2.882812 -5.835938 2.90625 -5.671875 L 10.421875 -5.671875 C 10.253906 -7.160156 9.769531 -8.351562 8.96875 -9.25 C 8.164062 -10.15625 7.1875 -10.609375 6.03125 -10.609375 Z M 7.265625 -0.171875 C 8.285156 -0.171875 9.070312 -0.53125 9.625 -1.25 C 10.1875 -1.976562 10.46875 -3.097656 10.46875 -4.609375 L 10.46875 -5.109375 L 2.96875 -5.109375 C 3.164062 -3.660156 3.648438 -2.472656 4.421875 -1.546875 C 5.203125 -0.628906 6.148438 -0.171875 7.265625 -0.171875 Z M 7.265625 -0.171875 "></path></g></g></g><g fill="#000000" fill-opacity="1"><g transform="translate(54.481769, 25.885165)"><g><path d="M 13.546875 -0.328125 C 13.585938 -0.328125 13.609375 -0.269531 13.609375 -0.15625 C 13.609375 -0.0507812 13.585938 0 13.546875 0 C 13.066406 0 12.6875 -0.0078125 12.40625 -0.03125 L 11 -0.0625 L 9.5 -0.03125 C 9.238281 -0.0078125 8.875 0 8.40625 0 C 8.351562 0 8.328125 -0.0507812 8.328125 -0.15625 C 8.328125 -0.269531 8.351562 -0.328125 8.40625 -0.328125 C 8.925781 -0.328125 9.304688 -0.375 9.546875 -0.46875 C 9.796875 -0.5625 9.96875 -0.742188 10.0625 -1.015625 C 10.15625 -1.285156 10.203125 -1.703125 10.203125 -2.265625 L 10.203125 -5.109375 L 4.25 -5.109375 L 4.25 -2.265625 C 4.25 -1.703125 4.289062 -1.285156 4.375 -1.015625 C 4.457031 -0.742188 4.625 -0.5625 4.875 -0.46875 C 5.125 -0.375 5.507812 -0.328125 6.03125 -0.328125 C 6.070312 -0.328125 6.09375 -0.269531 6.09375 -0.15625 C 6.09375 -0.0507812 6.070312 0 6.03125 0 C 5.550781 0 5.171875 -0.0078125 4.890625 -0.03125 L 3.484375 -0.0625 L 2.015625 -0.03125 C 1.753906 -0.0078125 1.378906 0 0.890625 0 C 0.835938 0 0.8125 -0.0507812 0.8125 -0.15625 C 0.8125 -0.269531 0.835938 -0.328125 0.890625 -0.328125 C 1.410156 -0.328125 1.796875 -0.375 2.046875 -0.46875 C 2.304688 -0.5625 2.476562 -0.742188 2.5625 -1.015625 C 2.644531 -1.285156 2.6875 -1.703125 2.6875 -2.265625 L 2.6875 -8.515625 C 2.6875 -9.078125 2.644531 -9.492188 2.5625 -9.765625 C 2.476562 -10.035156 2.3125 -10.21875 2.0625 -10.3125 C 1.820312 -10.40625 1.441406 -10.453125 0.921875 -10.453125 C 0.867188 -10.453125 0.84375 -10.503906 0.84375 -10.609375 C 0.84375 -10.722656 0.867188 -10.78125 0.921875 -10.78125 C 1.390625 -10.78125 1.753906 -10.769531 2.015625 -10.75 L 3.484375 -10.734375 L 4.921875 -10.75 C 5.203125 -10.769531 5.570312 -10.78125 6.03125 -10.78125 C 6.070312 -10.78125 6.09375 -10.722656 6.09375 -10.609375 C 6.09375 -10.503906 6.070312 -10.453125 6.03125 -10.453125 C 5.507812 -10.453125 5.125 -10.394531 4.875 -10.28125 C 4.625 -10.164062 4.457031 -9.972656 4.375 -9.703125 C 4.289062 -9.429688 4.25 -9.019531 4.25 -8.46875 L 4.25 -5.671875 L 10.203125 -5.671875 L 10.203125 -8.515625 C 10.203125 -9.078125 10.160156 -9.492188 10.078125 -9.765625 C 9.992188 -10.035156 9.828125 -10.21875 9.578125 -10.3125 C 9.335938 -10.40625 8.957031 -10.453125 8.4375 -10.453125 C 8.382812 -10.453125 8.359375 -10.503906 8.359375 -10.609375 C 8.359375 -10.722656 8.382812 -10.78125 8.4375 -10.78125 C 8.90625 -10.78125 9.269531 -10.769531 9.53125 -10.75 L 11 -10.734375 L 12.4375 -10.75 C 12.707031 -10.769531 13.078125 -10.78125 13.546875 -10.78125 C 13.585938 -10.78125 13.609375 -10.722656 13.609375 -10.609375 C 13.609375 -10.503906 13.585938 -10.453125 13.546875 -10.453125 C 13.023438 -10.453125 12.640625 -10.394531 12.390625 -10.28125 C 12.140625 -10.164062 11.972656 -9.972656 11.890625 -9.703125 C 11.804688 -9.429688 11.765625 -9.019531 11.765625 -8.46875 L 11.765625 -2.265625 C 11.765625 -1.703125 11.804688 -1.285156 11.890625 -1.015625 C 11.972656 -0.742188 12.140625 -0.5625 12.390625 -0.46875 C 12.640625 -0.375 13.023438 -0.328125 13.546875 -0.328125 Z M 13.546875 -0.328125 "></path></g></g></g><g fill="#000000" fill-opacity="1"><g transform="translate(68.895714, 25.885165)"><g><path d="M 12.046875 -10.78125 C 12.078125 -10.78125 12.09375 -10.722656 12.09375 -10.609375 C 12.09375 -10.503906 12.078125 -10.453125 12.046875 -10.453125 C 11.578125 -10.453125 11.175781 -10.296875 10.84375 -9.984375 C 10.507812 -9.679688 10.191406 -9.15625 9.890625 -8.40625 L 6.953125 -1.09375 L 6.953125 5.421875 C 6.953125 5.984375 6.992188 6.394531 7.078125 6.65625 C 7.160156 6.914062 7.328125 7.09375 7.578125 7.1875 C 7.835938 7.289062 8.226562 7.34375 8.75 7.34375 C 8.78125 7.34375 8.796875 7.398438 8.796875 7.515625 C 8.796875 7.628906 8.78125 7.6875 8.75 7.6875 C 8.300781 7.6875 7.945312 7.675781 7.6875 7.65625 L 6.140625 7.625 L 4.609375 7.65625 C 4.347656 7.675781 3.992188 7.6875 3.546875 7.6875 C 3.503906 7.6875 3.484375 7.628906 3.484375 7.515625 C 3.484375 7.398438 3.503906 7.34375 3.546875 7.34375 C 4.046875 7.34375 4.414062 7.289062 4.65625 7.1875 C 4.90625 7.09375 5.078125 6.914062 5.171875 6.65625 C 5.265625 6.394531 5.3125 5.984375 5.3125 5.421875 L 5.3125 -0.75 L 1.875 -8.46875 C 1.519531 -9.28125 1.210938 -9.8125 0.953125 -10.0625 C 0.691406 -10.320312 0.375 -10.453125 0 -10.453125 C -0.0507812 -10.453125 -0.078125 -10.503906 -0.078125 -10.609375 C -0.078125 -10.722656 -0.0507812 -10.78125 0 -10.78125 C 0.375 -10.78125 0.660156 -10.769531 0.859375 -10.75 L 1.921875 -10.734375 L 3.75 -10.75 C 4.019531 -10.769531 4.390625 -10.78125 4.859375 -10.78125 C 4.910156 -10.78125 4.9375 -10.722656 4.9375 -10.609375 C 4.9375 -10.503906 4.910156 -10.453125 4.859375 -10.453125 C 3.742188 -10.453125 3.1875 -10.226562 3.1875 -9.78125 C 3.1875 -9.644531 3.222656 -9.503906 3.296875 -9.359375 L 6.765625 -1.671875 L 9.328125 -8.546875 C 9.441406 -8.867188 9.5 -9.140625 9.5 -9.359375 C 9.5 -9.734375 9.328125 -10.007812 8.984375 -10.1875 C 8.640625 -10.363281 8.082031 -10.453125 7.3125 -10.453125 C 7.28125 -10.453125 7.265625 -10.503906 7.265625 -10.609375 C 7.265625 -10.722656 7.28125 -10.78125 7.3125 -10.78125 C 7.820312 -10.78125 8.207031 -10.769531 8.46875 -10.75 L 10.140625 -10.734375 L 11.140625 -10.75 C 11.328125 -10.769531 11.628906 -10.78125 12.046875 -10.78125 Z M 12.046875 -10.78125 "></path></g></g></g><g fill="#000000" fill-opacity="1"><g transform="translate(81.41025, 25.885165)"><g><path d="M 12.046875 -10.78125 C 12.078125 -10.78125 12.09375 -10.722656 12.09375 -10.609375 C 12.09375 -10.503906 12.078125 -10.453125 12.046875 -10.453125 C 11.578125 -10.453125 11.175781 -10.296875 10.84375 -9.984375 C 10.507812 -9.679688 10.191406 -9.15625 9.890625 -8.40625 L 6.953125 -1.09375 L 6.953125 5.421875 C 6.953125 5.984375 6.992188 6.394531 7.078125 6.65625 C 7.160156 6.914062 7.328125 7.09375 7.578125 7.1875 C 7.835938 7.289062 8.226562 7.34375 8.75 7.34375 C 8.78125 7.34375 8.796875 7.398438 8.796875 7.515625 C 8.796875 7.628906 8.78125 7.6875 8.75 7.6875 C 8.300781 7.6875 7.945312 7.675781 7.6875 7.65625 L 6.140625 7.625 L 4.609375 7.65625 C 4.347656 7.675781 3.992188 7.6875 3.546875 7.6875 C 3.503906 7.6875 3.484375 7.628906 3.484375 7.515625 C 3.484375 7.398438 3.503906 7.34375 3.546875 7.34375 C 4.046875 7.34375 4.414062 7.289062 4.65625 7.1875 C 4.90625 7.09375 5.078125 6.914062 5.171875 6.65625 C 5.265625 6.394531 5.3125 5.984375 5.3125 5.421875 L 5.3125 -0.75 L 1.875 -8.46875 C 1.519531 -9.28125 1.210938 -9.8125 0.953125 -10.0625 C 0.691406 -10.320312 0.375 -10.453125 0 -10.453125 C -0.0507812 -10.453125 -0.078125 -10.503906 -0.078125 -10.609375 C -0.078125 -10.722656 -0.0507812 -10.78125 0 -10.78125 C 0.375 -10.78125 0.660156 -10.769531 0.859375 -10.75 L 1.921875 -10.734375 L 3.75 -10.75 C 4.019531 -10.769531 4.390625 -10.78125 4.859375 -10.78125 C 4.910156 -10.78125 4.9375 -10.722656 4.9375 -10.609375 C 4.9375 -10.503906 4.910156 -10.453125 4.859375 -10.453125 C 3.742188 -10.453125 3.1875 -10.226562 3.1875 -9.78125 C 3.1875 -9.644531 3.222656 -9.503906 3.296875 -9.359375 L 6.765625 -1.671875 L 9.328125 -8.546875 C 9.441406 -8.867188 9.5 -9.140625 9.5 -9.359375 C 9.5 -9.734375 9.328125 -10.007812 8.984375 -10.1875 C 8.640625 -10.363281 8.082031 -10.453125 7.3125 -10.453125 C 7.28125 -10.453125 7.265625 -10.503906 7.265625 -10.609375 C 7.265625 -10.722656 7.28125 -10.78125 7.3125 -10.78125 C 7.820312 -10.78125 8.207031 -10.769531 8.46875 -10.75 L 10.140625 -10.734375 L 11.140625 -10.75 C 11.328125 -10.769531 11.628906 -10.78125 12.046875 -10.78125 Z M 12.046875 -10.78125 "></path></g></g></g><g fill="#000000" fill-opacity="1"><g transform="translate(93.533599, 25.885165)"><g></g></g></g><g fill="#000000" fill-opacity="1"><g transform="translate(100.070158, 25.885165)"><g><path d="M 3.40625 0 C 3.375 0 3.359375 -0.0507812 3.359375 -0.15625 C 3.359375 -0.269531 3.375 -0.328125 3.40625 -0.328125 C 3.925781 -0.328125 4.3125 -0.375 4.5625 -0.46875 C 4.8125 -0.5625 4.976562 -0.742188 5.0625 -1.015625 C 5.15625 -1.285156 5.203125 -1.703125 5.203125 -2.265625 L 5.203125 -8.46875 C 5.203125 -9.226562 5.113281 -9.734375 4.9375 -9.984375 C 4.769531 -10.234375 4.410156 -10.359375 3.859375 -10.359375 C 3.015625 -10.359375 2.394531 -10.109375 2 -9.609375 C 1.613281 -9.109375 1.40625 -8.289062 1.375 -7.15625 C 1.375 -7.113281 1.320312 -7.09375 1.21875 -7.09375 C 1.113281 -7.09375 1.0625 -7.113281 1.0625 -7.15625 L 1 -8.828125 C 0.988281 -9.035156 0.972656 -9.28125 0.953125 -9.5625 C 0.929688 -9.851562 0.921875 -10.1875 0.921875 -10.5625 C 0.921875 -10.675781 0.929688 -10.742188 0.953125 -10.765625 C 0.972656 -10.796875 1.035156 -10.8125 1.140625 -10.8125 C 1.535156 -10.8125 1.878906 -10.800781 2.171875 -10.78125 L 5.921875 -10.75 L 9.75 -10.78125 C 10.0625 -10.800781 10.414062 -10.8125 10.8125 -10.8125 C 10.9375 -10.8125 11.007812 -10.796875 11.03125 -10.765625 C 11.050781 -10.742188 11.0625 -10.675781 11.0625 -10.5625 C 10.96875 -8.695312 10.921875 -7.5625 10.921875 -7.15625 C 10.921875 -7.113281 10.867188 -7.09375 10.765625 -7.09375 C 10.660156 -7.09375 10.601562 -7.113281 10.59375 -7.15625 C 10.550781 -8.289062 10.332031 -9.109375 9.9375 -9.609375 C 9.550781 -10.109375 8.945312 -10.359375 8.125 -10.359375 C 7.570312 -10.359375 7.207031 -10.234375 7.03125 -9.984375 C 6.863281 -9.734375 6.78125 -9.226562 6.78125 -8.46875 L 6.78125 -2.265625 C 6.78125 -1.703125 6.820312 -1.285156 6.90625 -1.015625 C 7 -0.742188 7.164062 -0.5625 7.40625 -0.46875 C 7.644531 -0.375 8.023438 -0.328125 8.546875 -0.328125 C 8.597656 -0.328125 8.625 -0.269531 8.625 -0.15625 C 8.625 -0.0507812 8.597656 0 8.546875 0 C 8.078125 0 7.710938 -0.0078125 7.453125 -0.03125 L 6 -0.0625 L 4.578125 -0.03125 C 4.296875 -0.0078125 3.90625 0 3.40625 0 Z M 3.40625 0 "></path></g></g></g><g fill="#000000" fill-opacity="1"><g transform="translate(112.053829, 25.885165)"><g><path d="M 6.453125 0.359375 C 5.367188 0.359375 4.410156 0.09375 3.578125 -0.4375 C 2.753906 -0.96875 2.117188 -1.679688 1.671875 -2.578125 C 1.222656 -3.484375 1 -4.46875 1 -5.53125 C 1 -6.738281 1.289062 -7.765625 1.875 -8.609375 C 2.46875 -9.460938 3.222656 -10.097656 4.140625 -10.515625 C 5.066406 -10.929688 6.003906 -11.140625 6.953125 -11.140625 C 8.054688 -11.140625 9.015625 -10.867188 9.828125 -10.328125 C 10.648438 -9.796875 11.28125 -9.085938 11.71875 -8.203125 C 12.15625 -7.316406 12.375 -6.378906 12.375 -5.390625 C 12.375 -4.234375 12.101562 -3.222656 11.5625 -2.359375 C 11.019531 -1.492188 10.296875 -0.820312 9.390625 -0.34375 C 8.492188 0.125 7.515625 0.359375 6.453125 0.359375 Z M 7.265625 -0.171875 C 8.285156 -0.171875 9.070312 -0.53125 9.625 -1.25 C 10.1875 -1.976562 10.46875 -3.097656 10.46875 -4.609375 C 10.46875 -5.765625 10.273438 -6.796875 9.890625 -7.703125 C 9.515625 -8.617188 8.988281 -9.332031 8.3125 -9.84375 C 7.644531 -10.351562 6.882812 -10.609375 6.03125 -10.609375 C 5.03125 -10.609375 4.253906 -10.242188 3.703125 -9.515625 C 3.148438 -8.796875 2.875 -7.753906 2.875 -6.390625 C 2.875 -5.253906 3.0625 -4.210938 3.4375 -3.265625 C 3.8125 -2.316406 4.332031 -1.5625 5 -1 C 5.664062 -0.445312 6.421875 -0.171875 7.265625 -0.171875 Z M 7.265625 -0.171875 "></path></g></g></g><g fill="#000000" fill-opacity="1"><g transform="translate(125.434218, 25.885165)"><g><path d="M 7.234375 -12.984375 C 6.597656 -12.984375 6 -13.101562 5.4375 -13.34375 C 4.882812 -13.59375 4.441406 -13.914062 4.109375 -14.3125 C 3.773438 -14.71875 3.609375 -15.132812 3.609375 -15.5625 C 3.609375 -16.101562 3.878906 -16.375 4.421875 -16.375 C 4.765625 -16.375 5.003906 -16.269531 5.140625 -16.0625 C 5.273438 -15.851562 5.40625 -15.507812 5.53125 -15.03125 C 5.625 -14.632812 5.710938 -14.332031 5.796875 -14.125 C 5.878906 -13.925781 6.03125 -13.75 6.25 -13.59375 C 6.476562 -13.4375 6.796875 -13.359375 7.203125 -13.359375 C 7.765625 -13.359375 8.164062 -13.503906 8.40625 -13.796875 C 8.644531 -14.097656 8.820312 -14.507812 8.9375 -15.03125 C 9.050781 -15.476562 9.175781 -15.8125 9.3125 -16.03125 C 9.457031 -16.257812 9.695312 -16.375 10.03125 -16.375 C 10.59375 -16.375 10.875 -16.09375 10.875 -15.53125 C 10.875 -15.082031 10.695312 -14.660156 10.34375 -14.265625 C 10 -13.878906 9.546875 -13.566406 8.984375 -13.328125 C 8.429688 -13.097656 7.847656 -12.984375 7.234375 -12.984375 Z M 13.515625 -0.328125 C 13.554688 -0.328125 13.578125 -0.269531 13.578125 -0.15625 C 13.578125 -0.0507812 13.554688 0 13.515625 0 C 13.054688 0 12.695312 -0.0078125 12.4375 -0.03125 L 11 -0.0625 L 9.5 -0.03125 C 9.21875 -0.0078125 8.851562 0 8.40625 0 C 8.351562 0 8.328125 -0.0507812 8.328125 -0.15625 C 8.328125 -0.269531 8.351562 -0.328125 8.40625 -0.328125 C 8.925781 -0.328125 9.304688 -0.375 9.546875 -0.46875 C 9.796875 -0.5625 9.96875 -0.742188 10.0625 -1.015625 C 10.15625 -1.285156 10.203125 -1.703125 10.203125 -2.265625 L 10.203125 -8.765625 L 2.984375 0.203125 C 2.929688 0.253906 2.867188 0.28125 2.796875 0.28125 C 2.722656 0.28125 2.65625 0.265625 2.59375 0.234375 C 2.539062 0.210938 2.515625 0.179688 2.515625 0.140625 L 2.515625 -8.515625 C 2.515625 -9.078125 2.472656 -9.492188 2.390625 -9.765625 C 2.304688 -10.035156 2.140625 -10.21875 1.890625 -10.3125 C 1.648438 -10.40625 1.269531 -10.453125 0.75 -10.453125 C 0.71875 -10.453125 0.703125 -10.503906 0.703125 -10.609375 C 0.703125 -10.722656 0.71875 -10.78125 0.75 -10.78125 C 1.195312 -10.78125 1.539062 -10.769531 1.78125 -10.75 L 3.265625 -10.734375 L 4.890625 -10.75 C 5.148438 -10.769531 5.472656 -10.78125 5.859375 -10.78125 C 5.921875 -10.78125 5.953125 -10.722656 5.953125 -10.609375 C 5.953125 -10.503906 5.921875 -10.453125 5.859375 -10.453125 C 5.335938 -10.453125 4.957031 -10.40625 4.71875 -10.3125 C 4.476562 -10.21875 4.3125 -10.035156 4.21875 -9.765625 C 4.125 -9.492188 4.078125 -9.078125 4.078125 -8.515625 L 4.078125 -2.015625 L 11.28125 -10.984375 C 11.34375 -11.035156 11.410156 -11.0625 11.484375 -11.0625 C 11.554688 -11.0625 11.617188 -11.046875 11.671875 -11.015625 C 11.734375 -10.992188 11.765625 -10.960938 11.765625 -10.921875 L 11.765625 -2.265625 C 11.765625 -1.703125 11.8125 -1.285156 11.90625 -1.015625 C 12 -0.742188 12.160156 -0.5625 12.390625 -0.46875 C 12.617188 -0.375 12.992188 -0.328125 13.515625 -0.328125 Z M 13.515625 -0.328125 "></path></g></g></g><g fill="#000000" fill-opacity="1"><g transform="translate(139.708485, 25.885165)"><g><path d="M 9.25 -10.78125 C 9.363281 -10.78125 9.425781 -10.765625 9.4375 -10.734375 C 9.457031 -10.710938 9.46875 -10.644531 9.46875 -10.53125 C 9.46875 -10.15625 9.457031 -9.820312 9.4375 -9.53125 C 9.425781 -9.25 9.410156 -9.003906 9.390625 -8.796875 L 9.328125 -7.15625 C 9.328125 -7.113281 9.273438 -7.09375 9.171875 -7.09375 C 9.078125 -7.09375 9.019531 -7.113281 9 -7.15625 C 8.925781 -8.34375 8.671875 -9.175781 8.234375 -9.65625 C 7.804688 -10.144531 7.128906 -10.390625 6.203125 -10.390625 C 5.640625 -10.390625 5.222656 -10.332031 4.953125 -10.21875 C 4.679688 -10.113281 4.492188 -9.925781 4.390625 -9.65625 C 4.296875 -9.382812 4.25 -8.988281 4.25 -8.46875 L 4.25 -2.265625 C 4.25 -1.703125 4.289062 -1.285156 4.375 -1.015625 C 4.457031 -0.742188 4.625 -0.5625 4.875 -0.46875 C 5.125 -0.375 5.507812 -0.328125 6.03125 -0.328125 C 6.070312 -0.328125 6.09375 -0.269531 6.09375 -0.15625 C 6.09375 -0.0507812 6.070312 0 6.03125 0 C 5.550781 0 5.171875 -0.0078125 4.890625 -0.03125 L 3.484375 -0.0625 L 2.015625 -0.03125 C 1.753906 -0.0078125 1.378906 0 0.890625 0 C 0.835938 0 0.8125 -0.0507812 0.8125 -0.15625 C 0.8125 -0.269531 0.835938 -0.328125 0.890625 -0.328125 C 1.410156 -0.328125 1.796875 -0.375 2.046875 -0.46875 C 2.304688 -0.5625 2.476562 -0.742188 2.5625 -1.015625 C 2.644531 -1.285156 2.6875 -1.703125 2.6875 -2.265625 L 2.6875 -8.515625 C 2.6875 -9.078125 2.644531 -9.492188 2.5625 -9.765625 C 2.476562 -10.035156 2.3125 -10.21875 2.0625 -10.3125 C 1.820312 -10.40625 1.441406 -10.453125 0.921875 -10.453125 C 0.867188 -10.453125 0.84375 -10.503906 0.84375 -10.609375 C 0.84375 -10.722656 0.867188 -10.78125 0.921875 -10.78125 Z M 9.25 -10.78125 "></path></g></g></g><g fill="#000000" fill-opacity="1"><g transform="translate(150.09993, 25.885165)"><g><path d="M 6.453125 0.359375 C 5.367188 0.359375 4.410156 0.09375 3.578125 -0.4375 C 2.753906 -0.96875 2.117188 -1.679688 1.671875 -2.578125 C 1.222656 -3.484375 1 -4.46875 1 -5.53125 C 1 -6.738281 1.289062 -7.765625 1.875 -8.609375 C 2.46875 -9.460938 3.222656 -10.097656 4.140625 -10.515625 C 5.066406 -10.929688 6.003906 -11.140625 6.953125 -11.140625 C 8.054688 -11.140625 9.015625 -10.867188 9.828125 -10.328125 C 10.648438 -9.796875 11.28125 -9.085938 11.71875 -8.203125 C 12.15625 -7.316406 12.375 -6.378906 12.375 -5.390625 C 12.375 -4.234375 12.101562 -3.222656 11.5625 -2.359375 C 11.019531 -1.492188 10.296875 -0.820312 9.390625 -0.34375 C 8.492188 0.125 7.515625 0.359375 6.453125 0.359375 Z M 7.265625 -0.171875 C 8.285156 -0.171875 9.070312 -0.53125 9.625 -1.25 C 10.1875 -1.976562 10.46875 -3.097656 10.46875 -4.609375 C 10.46875 -5.765625 10.273438 -6.796875 9.890625 -7.703125 C 9.515625 -8.617188 8.988281 -9.332031 8.3125 -9.84375 C 7.644531 -10.351562 6.882812 -10.609375 6.03125 -10.609375 C 5.03125 -10.609375 4.253906 -10.242188 3.703125 -9.515625 C 3.148438 -8.796875 2.875 -7.753906 2.875 -6.390625 C 2.875 -5.253906 3.0625 -4.210938 3.4375 -3.265625 C 3.8125 -2.316406 4.332031 -1.5625 5 -1 C 5.664062 -0.445312 6.421875 -0.171875 7.265625 -0.171875 Z M 7.265625 -0.171875 "></path></g></g></g><g fill="#000000" fill-opacity="1"><g transform="translate(163.48032, 25.885165)"><g></g></g></g><g fill="#000000" fill-opacity="1"><g transform="translate(170.016879, 25.885165)"><g><path d="M 11 -0.328125 C 11.0625 -0.328125 11.09375 -0.269531 11.09375 -0.15625 C 11.09375 -0.0507812 11.0625 0 11 0 C 10.539062 0 10.171875 -0.0078125 9.890625 -0.03125 L 8.5 -0.0625 L 7.015625 -0.03125 C 6.734375 -0.0078125 6.347656 0 5.859375 0 C 5.828125 0 5.8125 -0.0507812 5.8125 -0.15625 C 5.8125 -0.269531 5.828125 -0.328125 5.859375 -0.328125 C 6.390625 -0.328125 6.78125 -0.378906 7.03125 -0.484375 C 7.28125 -0.585938 7.453125 -0.769531 7.546875 -1.03125 C 7.640625 -1.289062 7.6875 -1.703125 7.6875 -2.265625 L 7.6875 -5.109375 C 7.101562 -4.722656 6.515625 -4.441406 5.921875 -4.265625 C 5.328125 -4.085938 4.769531 -4 4.25 -4 C 3.257812 -4 2.507812 -4.269531 2 -4.8125 C 1.5 -5.363281 1.25 -6.171875 1.25 -7.234375 L 1.25 -8.515625 C 1.25 -9.078125 1.222656 -9.492188 1.171875 -9.765625 C 1.117188 -10.035156 1.015625 -10.21875 0.859375 -10.3125 C 0.710938 -10.40625 0.472656 -10.453125 0.140625 -10.453125 C 0.0859375 -10.453125 0.0625 -10.503906 0.0625 -10.609375 C 0.0625 -10.722656 0.0859375 -10.78125 0.140625 -10.78125 C 0.492188 -10.78125 0.765625 -10.769531 0.953125 -10.75 L 2.0625 -10.734375 L 3.265625 -10.75 C 3.503906 -10.769531 3.820312 -10.78125 4.21875 -10.78125 C 4.269531 -10.78125 4.296875 -10.722656 4.296875 -10.609375 C 4.296875 -10.503906 4.269531 -10.453125 4.21875 -10.453125 C 3.644531 -10.453125 3.257812 -10.320312 3.0625 -10.0625 C 2.863281 -9.800781 2.765625 -9.269531 2.765625 -8.46875 L 2.765625 -7.453125 C 2.765625 -5.796875 3.582031 -4.96875 5.21875 -4.96875 C 5.570312 -4.96875 5.972656 -5.023438 6.421875 -5.140625 C 6.867188 -5.253906 7.289062 -5.40625 7.6875 -5.59375 L 7.6875 -8.515625 C 7.6875 -9.078125 7.644531 -9.492188 7.5625 -9.765625 C 7.488281 -10.035156 7.351562 -10.21875 7.15625 -10.3125 C 6.96875 -10.40625 6.671875 -10.453125 6.265625 -10.453125 C 6.222656 -10.453125 6.203125 -10.503906 6.203125 -10.609375 C 6.203125 -10.722656 6.222656 -10.78125 6.265625 -10.78125 C 6.671875 -10.78125 6.992188 -10.769531 7.234375 -10.75 L 8.5 -10.734375 L 9.921875 -10.75 C 10.203125 -10.769531 10.5625 -10.78125 11 -10.78125 C 11.0625 -10.78125 11.09375 -10.722656 11.09375 -10.609375 C 11.09375 -10.503906 11.0625 -10.453125 11 -10.453125 C 10.476562 -10.453125 10.097656 -10.394531 9.859375 -10.28125 C 9.617188 -10.164062 9.457031 -9.972656 9.375 -9.703125 C 9.289062 -9.429688 9.25 -9.019531 9.25 -8.46875 L 9.25 -2.265625 C 9.25 -1.703125 9.289062 -1.285156 9.375 -1.015625 C 9.457031 -0.742188 9.617188 -0.5625 9.859375 -0.46875 C 10.097656 -0.375 10.476562 -0.328125 11 -0.328125 Z M 11 -0.328125 "></path></g></g></g><g fill="#000000" fill-opacity="1"><g transform="translate(181.916764, 25.885165)"><g><path d="M 11.59375 -1.515625 C 11.664062 -1.515625 11.710938 -1.46875 11.734375 -1.375 C 11.753906 -1.289062 11.726562 -1.234375 11.65625 -1.203125 L 8.765625 0.171875 C 8.691406 0.203125 8.617188 0.21875 8.546875 0.21875 C 8.304688 0.21875 8.09375 0.0546875 7.90625 -0.265625 C 7.71875 -0.585938 7.597656 -1.03125 7.546875 -1.59375 L 6.09375 -0.640625 C 5.625 -0.347656 5.210938 -0.132812 4.859375 0 C 4.503906 0.132812 4.132812 0.203125 3.75 0.203125 C 3.050781 0.203125 2.507812 0.0195312 2.125 -0.34375 C 1.75 -0.707031 1.5625 -1.171875 1.5625 -1.734375 C 1.5625 -2.285156 1.785156 -2.765625 2.234375 -3.171875 C 2.679688 -3.585938 3.414062 -3.984375 4.4375 -4.359375 L 7.515625 -5.5 L 7.515625 -7.40625 C 7.515625 -9.488281 6.925781 -10.53125 5.75 -10.53125 C 5.125 -10.53125 4.644531 -10.320312 4.3125 -9.90625 C 3.988281 -9.488281 3.769531 -9.007812 3.65625 -8.46875 C 3.601562 -8.132812 3.5 -7.859375 3.34375 -7.640625 C 3.195312 -7.421875 2.945312 -7.3125 2.59375 -7.3125 C 2.300781 -7.3125 2.070312 -7.394531 1.90625 -7.5625 C 1.75 -7.738281 1.671875 -7.9375 1.671875 -8.15625 C 1.671875 -8.601562 1.957031 -9.050781 2.53125 -9.5 C 3.113281 -9.945312 3.804688 -10.316406 4.609375 -10.609375 C 5.410156 -10.910156 6.128906 -11.0625 6.765625 -11.0625 C 7.523438 -11.0625 8.097656 -10.816406 8.484375 -10.328125 C 8.878906 -9.847656 9.078125 -9.148438 9.078125 -8.234375 L 9.078125 -3.015625 C 9.078125 -2.367188 9.160156 -1.894531 9.328125 -1.59375 C 9.492188 -1.289062 9.773438 -1.140625 10.171875 -1.140625 C 10.523438 -1.140625 10.976562 -1.265625 11.53125 -1.515625 Z M 7.515625 -1.984375 L 7.515625 -5.109375 L 4.921875 -4.109375 C 4.398438 -3.898438 4.019531 -3.660156 3.78125 -3.390625 C 3.550781 -3.117188 3.4375 -2.800781 3.4375 -2.4375 C 3.4375 -1.988281 3.578125 -1.609375 3.859375 -1.296875 C 4.148438 -0.992188 4.53125 -0.84375 5 -0.84375 C 5.375 -0.84375 5.820312 -0.988281 6.34375 -1.28125 Z M 7.515625 -1.984375 "></path></g></g></g><g fill="#000000" fill-opacity="1"><g transform="translate(193.6211, 25.885165)"><g><path d="M 12.84375 -0.328125 C 12.882812 -0.328125 12.90625 -0.269531 12.90625 -0.15625 C 12.90625 -0.0507812 12.882812 0 12.84375 0 L 9.75 0 C 9.613281 0 9.523438 -0.03125 9.484375 -0.09375 C 9.441406 -0.164062 9.289062 -0.421875 9.03125 -0.859375 C 8.78125 -1.304688 8.429688 -1.914062 7.984375 -2.6875 C 7.523438 -3.445312 7.140625 -4.007812 6.828125 -4.375 C 6.523438 -4.75 6.207031 -5.003906 5.875 -5.140625 C 5.550781 -5.285156 5.140625 -5.359375 4.640625 -5.359375 L 4.1875 -5.359375 L 4.1875 -2.265625 C 4.1875 -1.703125 4.226562 -1.285156 4.3125 -1.015625 C 4.394531 -0.742188 4.554688 -0.5625 4.796875 -0.46875 C 5.046875 -0.375 5.429688 -0.328125 5.953125 -0.328125 C 5.984375 -0.328125 6 -0.269531 6 -0.15625 C 6 -0.0507812 5.984375 0 5.953125 0 C 5.484375 0 5.109375 -0.0078125 4.828125 -0.03125 L 3.4375 -0.0625 L 1.921875 -0.03125 C 1.660156 -0.0078125 1.300781 0 0.84375 0 C 0.78125 0 0.75 -0.0507812 0.75 -0.15625 C 0.75 -0.269531 0.78125 -0.328125 0.84375 -0.328125 C 1.363281 -0.328125 1.742188 -0.375 1.984375 -0.46875 C 2.222656 -0.5625 2.382812 -0.742188 2.46875 -1.015625 C 2.550781 -1.285156 2.59375 -1.703125 2.59375 -2.265625 L 2.59375 -8.515625 C 2.59375 -9.078125 2.550781 -9.492188 2.46875 -9.765625 C 2.382812 -10.035156 2.222656 -10.21875 1.984375 -10.3125 C 1.742188 -10.40625 1.367188 -10.453125 0.859375 -10.453125 C 0.804688 -10.453125 0.78125 -10.503906 0.78125 -10.609375 C 0.78125 -10.722656 0.804688 -10.78125 0.859375 -10.78125 C 1.304688 -10.78125 1.660156 -10.769531 1.921875 -10.75 L 3.4375 -10.734375 L 5.0625 -10.75 C 5.351562 -10.769531 5.753906 -10.78125 6.265625 -10.78125 C 6.316406 -10.78125 6.34375 -10.722656 6.34375 -10.609375 C 6.34375 -10.503906 6.316406 -10.453125 6.265625 -10.453125 C 5.660156 -10.453125 5.210938 -10.398438 4.921875 -10.296875 C 4.640625 -10.191406 4.445312 -10 4.34375 -9.71875 C 4.238281 -9.4375 4.1875 -9.019531 4.1875 -8.46875 L 4.1875 -5.8125 C 4.414062 -5.8125 4.695312 -5.828125 5.03125 -5.859375 L 5.921875 -5.890625 C 6.390625 -5.890625 6.851562 -6.335938 7.3125 -7.234375 C 7.375 -7.347656 7.425781 -7.445312 7.46875 -7.53125 C 7.519531 -7.613281 7.5625 -7.691406 7.59375 -7.765625 C 8.226562 -8.992188 8.734375 -9.84375 9.109375 -10.3125 C 9.492188 -10.789062 9.988281 -11.03125 10.59375 -11.03125 C 11 -11.03125 11.3125 -10.9375 11.53125 -10.75 C 11.757812 -10.5625 11.875 -10.332031 11.875 -10.0625 C 11.875 -9.757812 11.769531 -9.503906 11.5625 -9.296875 C 11.363281 -9.097656 11.09375 -9 10.75 -9 C 10.550781 -9 10.335938 -9.0625 10.109375 -9.1875 C 9.890625 -9.320312 9.710938 -9.390625 9.578125 -9.390625 C 9.210938 -9.390625 8.597656 -8.625 7.734375 -7.09375 C 7.441406 -6.539062 7.15625 -6.125 6.875 -5.84375 C 7.414062 -5.769531 7.859375 -5.554688 8.203125 -5.203125 C 8.546875 -4.859375 9.015625 -4.203125 9.609375 -3.234375 L 10 -2.59375 C 10.375 -2 10.671875 -1.554688 10.890625 -1.265625 C 11.117188 -0.984375 11.378906 -0.757812 11.671875 -0.59375 C 11.972656 -0.4375 12.363281 -0.347656 12.84375 -0.328125 Z M 12.84375 -0.328125 "></path></g></g></g><g fill="#000000" fill-opacity="1"><g transform="translate(206.470733, 25.885165)"><g><path d="M 7.125 -6.34375 C 9.582031 -6.34375 10.8125 -5.375 10.8125 -3.4375 C 10.8125 -2.414062 10.445312 -1.578125 9.71875 -0.921875 C 8.988281 -0.265625 8.078125 0.0625 6.984375 0.0625 C 6.703125 0.0625 6.171875 0.0390625 5.390625 0 C 4.492188 -0.0390625 3.859375 -0.0625 3.484375 -0.0625 L 2.015625 -0.03125 C 1.753906 -0.0078125 1.378906 0 0.890625 0 C 0.835938 0 0.8125 -0.0507812 0.8125 -0.15625 C 0.8125 -0.269531 0.835938 -0.328125 0.890625 -0.328125 C 1.410156 -0.328125 1.796875 -0.375 2.046875 -0.46875 C 2.304688 -0.5625 2.476562 -0.742188 2.5625 -1.015625 C 2.644531 -1.285156 2.6875 -1.703125 2.6875 -2.265625 L 2.6875 -8.515625 C 2.6875 -9.078125 2.644531 -9.492188 2.5625 -9.765625 C 2.476562 -10.035156 2.3125 -10.21875 2.0625 -10.3125 C 1.820312 -10.40625 1.441406 -10.453125 0.921875 -10.453125 C 0.867188 -10.453125 0.84375 -10.503906 0.84375 -10.609375 C 0.84375 -10.722656 0.867188 -10.78125 0.921875 -10.78125 C 1.390625 -10.78125 1.753906 -10.769531 2.015625 -10.75 L 3.484375 -10.734375 L 5.109375 -10.75 C 5.410156 -10.769531 5.820312 -10.78125 6.34375 -10.78125 C 6.394531 -10.78125 6.421875 -10.722656 6.421875 -10.609375 C 6.421875 -10.503906 6.394531 -10.453125 6.34375 -10.453125 C 5.726562 -10.453125 5.273438 -10.394531 4.984375 -10.28125 C 4.691406 -10.164062 4.492188 -9.972656 4.390625 -9.703125 C 4.296875 -9.429688 4.25 -9.019531 4.25 -8.46875 L 4.25 -5.921875 C 5.0625 -6.203125 6.019531 -6.34375 7.125 -6.34375 Z M 16.84375 -0.328125 C 16.882812 -0.328125 16.90625 -0.269531 16.90625 -0.15625 C 16.90625 -0.0507812 16.882812 0 16.84375 0 C 16.375 0 16.003906 -0.0078125 15.734375 -0.03125 L 14.328125 -0.0625 L 12.828125 -0.03125 C 12.566406 -0.0078125 12.203125 0 11.734375 0 C 11.679688 0 11.65625 -0.0507812 11.65625 -0.15625 C 11.65625 -0.269531 11.679688 -0.328125 11.734375 -0.328125 C 12.253906 -0.328125 12.632812 -0.375 12.875 -0.46875 C 13.125 -0.5625 13.289062 -0.742188 13.375 -1.015625 C 13.457031 -1.285156 13.5 -1.703125 13.5 -2.265625 L 13.5 -8.515625 C 13.5 -9.078125 13.457031 -9.492188 13.375 -9.765625 C 13.289062 -10.035156 13.125 -10.21875 12.875 -10.3125 C 12.632812 -10.40625 12.265625 -10.453125 11.765625 -10.453125 C 11.703125 -10.453125 11.671875 -10.503906 11.671875 -10.609375 C 11.671875 -10.722656 11.703125 -10.78125 11.765625 -10.78125 C 12.210938 -10.78125 12.566406 -10.769531 12.828125 -10.75 L 14.328125 -10.734375 L 15.75 -10.75 C 16.03125 -10.769531 16.394531 -10.78125 16.84375 -10.78125 C 16.882812 -10.78125 16.90625 -10.722656 16.90625 -10.609375 C 16.90625 -10.503906 16.882812 -10.453125 16.84375 -10.453125 C 16.320312 -10.453125 15.941406 -10.394531 15.703125 -10.28125 C 15.460938 -10.164062 15.300781 -9.972656 15.21875 -9.703125 C 15.132812 -9.429688 15.09375 -9.019531 15.09375 -8.46875 L 15.09375 -2.265625 C 15.09375 -1.703125 15.132812 -1.285156 15.21875 -1.015625 C 15.300781 -0.742188 15.460938 -0.5625 15.703125 -0.46875 C 15.941406 -0.375 16.320312 -0.328125 16.84375 -0.328125 Z M 6.453125 -0.359375 C 8.179688 -0.359375 9.046875 -1.171875 9.046875 -2.796875 C 9.046875 -3.742188 8.804688 -4.488281 8.328125 -5.03125 C 7.859375 -5.570312 7.128906 -5.84375 6.140625 -5.84375 C 5.472656 -5.84375 4.84375 -5.738281 4.25 -5.53125 L 4.25 -2.265625 C 4.25 -1.554688 4.394531 -1.0625 4.6875 -0.78125 C 4.988281 -0.5 5.578125 -0.359375 6.453125 -0.359375 Z M 6.453125 -0.359375 "></path></g></g></g><g fill="#000000" fill-opacity="1"><g transform="translate(224.208807, 25.885165)"><g><path d="M 8.765625 -11.140625 C 9.535156 -11.140625 10.242188 -10.9375 10.890625 -10.53125 C 11.546875 -10.125 12.066406 -9.53125 12.453125 -8.75 C 12.847656 -7.96875 13.046875 -7.050781 13.046875 -6 C 13.046875 -4.601562 12.726562 -3.425781 12.09375 -2.46875 C 11.457031 -1.507812 10.675781 -0.796875 9.75 -0.328125 C 8.832031 0.128906 7.929688 0.359375 7.046875 0.359375 C 6.441406 0.359375 5.914062 0.304688 5.46875 0.203125 C 5.03125 0.109375 4.566406 -0.078125 4.078125 -0.359375 L 4.078125 5.421875 C 4.078125 5.984375 4.144531 6.394531 4.28125 6.65625 C 4.425781 6.914062 4.691406 7.09375 5.078125 7.1875 C 5.472656 7.289062 6.070312 7.34375 6.875 7.34375 C 6.925781 7.34375 6.953125 7.398438 6.953125 7.515625 C 6.953125 7.628906 6.925781 7.6875 6.875 7.6875 C 6.21875 7.6875 5.707031 7.675781 5.34375 7.65625 L 3.296875 7.625 L 1.640625 7.65625 C 1.367188 7.675781 0.976562 7.6875 0.46875 7.6875 C 0.414062 7.6875 0.390625 7.628906 0.390625 7.515625 C 0.390625 7.398438 0.414062 7.34375 0.46875 7.34375 C 1.070312 7.34375 1.507812 7.289062 1.78125 7.1875 C 2.0625 7.09375 2.253906 6.914062 2.359375 6.65625 C 2.460938 6.394531 2.515625 5.984375 2.515625 5.421875 L 2.515625 -8.515625 C 2.515625 -9.054688 2.441406 -9.460938 2.296875 -9.734375 C 2.160156 -10.003906 1.929688 -10.191406 1.609375 -10.296875 C 1.285156 -10.398438 0.804688 -10.453125 0.171875 -10.453125 C 0.109375 -10.453125 0.078125 -10.503906 0.078125 -10.609375 C 0.078125 -10.722656 0.109375 -10.78125 0.171875 -10.78125 L 3.546875 -10.78125 C 3.773438 -10.78125 3.921875 -10.734375 3.984375 -10.640625 C 4.046875 -10.546875 4.078125 -10.351562 4.078125 -10.0625 L 4.078125 -8.75 C 4.878906 -9.5625 5.660156 -10.160156 6.421875 -10.546875 C 7.191406 -10.941406 7.972656 -11.140625 8.765625 -11.140625 Z M 7.875 -0.21875 C 8.863281 -0.21875 9.675781 -0.65625 10.3125 -1.53125 C 10.945312 -2.40625 11.265625 -3.609375 11.265625 -5.140625 C 11.265625 -6.703125 10.914062 -7.914062 10.21875 -8.78125 C 9.53125 -9.644531 8.648438 -10.078125 7.578125 -10.078125 C 6.921875 -10.078125 6.3125 -9.921875 5.75 -9.609375 C 5.195312 -9.296875 4.640625 -8.835938 4.078125 -8.234375 L 4.078125 -2.015625 C 4.578125 -1.429688 5.117188 -0.984375 5.703125 -0.671875 C 6.296875 -0.367188 7.019531 -0.21875 7.875 -0.21875 Z M 7.875 -0.21875 "></path></g></g></g><g fill="#000000" fill-opacity="1"><g transform="translate(238.315481, 25.885165)"><g><path d="M 12.046875 -10.78125 C 12.097656 -10.78125 12.125 -10.722656 12.125 -10.609375 C 12.125 -10.503906 12.097656 -10.453125 12.046875 -10.453125 C 11.578125 -10.453125 11.175781 -10.285156 10.84375 -9.953125 C 10.507812 -9.628906 10.191406 -9.078125 9.890625 -8.296875 L 5.359375 3.359375 C 4.878906 4.585938 4.519531 5.738281 4.28125 6.8125 C 4.1875 7.207031 4.109375 7.453125 4.046875 7.546875 C 3.992188 7.640625 3.851562 7.6875 3.625 7.6875 L 0 7.6875 C -0.0390625 7.6875 -0.0625 7.628906 -0.0625 7.515625 C -0.0625 7.398438 -0.0390625 7.34375 0 7.34375 C 1.082031 7.3125 2.007812 7.003906 2.78125 6.421875 C 3.550781 5.847656 4.265625 4.769531 4.921875 3.1875 L 6.171875 0.171875 L 1.921875 -8.46875 C 1.492188 -9.28125 1.164062 -9.8125 0.9375 -10.0625 C 0.71875 -10.320312 0.429688 -10.453125 0.078125 -10.453125 C 0.046875 -10.453125 0.03125 -10.503906 0.03125 -10.609375 C 0.03125 -10.722656 0.046875 -10.78125 0.078125 -10.78125 L 1.03125 -10.75 C 1.257812 -10.738281 1.566406 -10.734375 1.953125 -10.734375 L 3.75 -10.75 C 4.007812 -10.769531 4.367188 -10.78125 4.828125 -10.78125 C 4.867188 -10.78125 4.890625 -10.722656 4.890625 -10.609375 C 4.890625 -10.503906 4.867188 -10.453125 4.828125 -10.453125 C 3.753906 -10.453125 3.21875 -10.238281 3.21875 -9.8125 C 3.21875 -9.695312 3.265625 -9.546875 3.359375 -9.359375 L 7.015625 -1.875 L 9.28125 -8.21875 C 9.425781 -8.664062 9.5 -9.019531 9.5 -9.28125 C 9.5 -9.707031 9.332031 -10.007812 9 -10.1875 C 8.664062 -10.363281 8.113281 -10.453125 7.34375 -10.453125 C 7.3125 -10.453125 7.296875 -10.503906 7.296875 -10.609375 C 7.296875 -10.722656 7.3125 -10.78125 7.34375 -10.78125 C 7.851562 -10.78125 8.238281 -10.769531 8.5 -10.75 L 10.171875 -10.734375 L 11.171875 -10.75 C 11.359375 -10.769531 11.648438 -10.78125 12.046875 -10.78125 Z M 12.046875 -10.78125 "></path></g></g></g><g fill="#000000" fill-opacity="1"><g transform="translate(250.857953, 25.885165)"><g><path d="M 12.046875 -10.78125 C 12.097656 -10.78125 12.125 -10.722656 12.125 -10.609375 C 12.125 -10.503906 12.097656 -10.453125 12.046875 -10.453125 C 11.578125 -10.453125 11.175781 -10.285156 10.84375 -9.953125 C 10.507812 -9.628906 10.191406 -9.078125 9.890625 -8.296875 L 5.359375 3.359375 C 4.878906 4.585938 4.519531 5.738281 4.28125 6.8125 C 4.1875 7.207031 4.109375 7.453125 4.046875 7.546875 C 3.992188 7.640625 3.851562 7.6875 3.625 7.6875 L 0 7.6875 C -0.0390625 7.6875 -0.0625 7.628906 -0.0625 7.515625 C -0.0625 7.398438 -0.0390625 7.34375 0 7.34375 C 1.082031 7.3125 2.007812 7.003906 2.78125 6.421875 C 3.550781 5.847656 4.265625 4.769531 4.921875 3.1875 L 6.171875 0.171875 L 1.921875 -8.46875 C 1.492188 -9.28125 1.164062 -9.8125 0.9375 -10.0625 C 0.71875 -10.320312 0.429688 -10.453125 0.078125 -10.453125 C 0.046875 -10.453125 0.03125 -10.503906 0.03125 -10.609375 C 0.03125 -10.722656 0.046875 -10.78125 0.078125 -10.78125 L 1.03125 -10.75 C 1.257812 -10.738281 1.566406 -10.734375 1.953125 -10.734375 L 3.75 -10.75 C 4.007812 -10.769531 4.367188 -10.78125 4.828125 -10.78125 C 4.867188 -10.78125 4.890625 -10.722656 4.890625 -10.609375 C 4.890625 -10.503906 4.867188 -10.453125 4.828125 -10.453125 C 3.753906 -10.453125 3.21875 -10.238281 3.21875 -9.8125 C 3.21875 -9.695312 3.265625 -9.546875 3.359375 -9.359375 L 7.015625 -1.875 L 9.28125 -8.21875 C 9.425781 -8.664062 9.5 -9.019531 9.5 -9.28125 C 9.5 -9.707031 9.332031 -10.007812 9 -10.1875 C 8.664062 -10.363281 8.113281 -10.453125 7.34375 -10.453125 C 7.3125 -10.453125 7.296875 -10.503906 7.296875 -10.609375 C 7.296875 -10.722656 7.3125 -10.78125 7.34375 -10.78125 C 7.851562 -10.78125 8.238281 -10.769531 8.5 -10.75 L 10.171875 -10.734375 L 11.171875 -10.75 C 11.359375 -10.769531 11.648438 -10.78125 12.046875 -10.78125 Z M 12.046875 -10.78125 "></path></g></g></g><g fill="#000000" fill-opacity="1"><g transform="translate(263.009238, 25.885165)"><g><path d="M 2.171875 -17.328125 C 2.160156 -17.398438 2.289062 -17.457031 2.5625 -17.5 C 2.84375 -17.550781 3.144531 -17.578125 3.46875 -17.578125 C 3.78125 -17.578125 4.078125 -17.550781 4.359375 -17.5 C 4.640625 -17.457031 4.757812 -17.398438 4.71875 -17.328125 C 4.425781 -15.722656 4.203125 -14.003906 4.046875 -12.171875 C 3.898438 -10.347656 3.753906 -8.050781 3.609375 -5.28125 C 3.609375 -5.226562 3.539062 -5.203125 3.40625 -5.203125 C 3.257812 -5.203125 3.1875 -5.226562 3.1875 -5.28125 C 3.09375 -7.8125 2.972656 -10.046875 2.828125 -11.984375 C 2.691406 -13.921875 2.472656 -15.703125 2.171875 -17.328125 Z M 3.328125 0.3125 C 2.953125 0.3125 2.648438 0.203125 2.421875 -0.015625 C 2.203125 -0.242188 2.09375 -0.546875 2.09375 -0.921875 C 2.09375 -1.273438 2.203125 -1.550781 2.421875 -1.75 C 2.648438 -1.957031 2.953125 -2.0625 3.328125 -2.0625 C 3.710938 -2.0625 4.007812 -1.957031 4.21875 -1.75 C 4.4375 -1.550781 4.546875 -1.273438 4.546875 -0.921875 C 4.546875 -0.546875 4.4375 -0.242188 4.21875 -0.015625 C 4.007812 0.203125 3.710938 0.3125 3.328125 0.3125 Z M 3.328125 0.3125 "></path></g></g></g></g></g></svg> 