<?xml version="1.0" encoding="UTF-8"?> <svg xmlns="http://www.w3.org/2000/svg" xmlns:xlink="http://www.w3.org/1999/xlink" width="360" zoomAndPan="magnify" viewBox="0 0 270 359.999987" height="480" preserveAspectRatio="xMidYMid meet" version="1.0"><defs><clipPath id="420ba15a5d"><path d="M 83 70.164062 L 187 70.164062 L 187 226 L 83 226 Z M 83 70.164062 " clip-rule="nonzero"></path></clipPath><clipPath id="133923a04e"><path d="M 14 187 L 256.21875 187 L 256.21875 289.914062 L 14 289.914062 Z M 14 187 " clip-rule="nonzero"></path></clipPath><clipPath id="ee5936d6cd"><path d="M 129 221 L 246 221 L 246 289.914062 L 129 289.914062 Z M 129 221 " clip-rule="nonzero"></path></clipPath><clipPath id="91e72917c4"><path d="M 13.96875 231 L 82 231 L 82 289.914062 L 13.96875 289.914062 Z M 13.96875 231 " clip-rule="nonzero"></path></clipPath><clipPath id="094e421803"><path d="M 198 233 L 225 233 L 225 289.914062 L 198 289.914062 Z M 198 233 " clip-rule="nonzero"></path></clipPath><clipPath id="29178902aa"><path d="M 71 240 L 121 240 L 121 289.914062 L 71 289.914062 Z M 71 240 " clip-rule="nonzero"></path></clipPath></defs><path fill="#5f0000" d="M 134.988281 143.390625 C 122.644531 143.390625 112.570312 133.316406 112.570312 120.972656 C 112.570312 108.628906 122.644531 98.554688 134.988281 98.554688 C 147.332031 98.554688 157.40625 108.628906 157.40625 120.972656 C 157.40625 133.316406 147.332031 143.390625 134.988281 143.390625 Z M 134.988281 103.378906 C 125.339844 103.378906 117.394531 111.324219 117.394531 120.972656 C 117.394531 130.761719 125.339844 138.566406 134.988281 138.566406 C 144.777344 138.566406 152.722656 130.761719 152.722656 120.972656 C 152.722656 111.324219 144.777344 103.378906 134.988281 103.378906 Z M 134.988281 103.378906 " fill-opacity="1" fill-rule="evenodd"></path><g clip-path="url(#420ba15a5d)"><path fill="#5f0000" d="M 134.988281 225.261719 C 134.136719 225.261719 133.425781 224.835938 133 224.125 C 129.027344 217.03125 124.0625 208.800781 118.953125 200.148438 C 107.320312 180.851562 94.265625 159 87.738281 143.53125 C 85.609375 138.566406 76.101562 112.742188 93.554688 91.742188 C 94.972656 89.613281 107.601562 70.742188 134.988281 70.175781 C 162.371094 70.742188 175 89.613281 176.417969 91.742188 C 188.480469 106.355469 190.324219 129.484375 180.535156 146.796875 L 137.117188 224.125 C 136.691406 224.835938 135.839844 225.261719 134.988281 225.261719 Z M 134.988281 75 C 109.304688 75.425781 97.671875 94.15625 97.527344 94.296875 C 97.527344 94.4375 97.386719 94.582031 97.386719 94.722656 C 81.496094 113.59375 90.148438 137.148438 92.136719 141.6875 C 98.519531 156.871094 111.574219 178.578125 122.925781 197.734375 C 127.324219 204.972656 131.441406 211.921875 134.988281 218.167969 L 176.417969 144.382812 C 185.214844 128.777344 183.65625 107.777344 172.730469 94.722656 C 172.589844 94.582031 172.589844 94.4375 172.445312 94.296875 C 172.019531 93.585938 160.667969 75.425781 134.988281 75 Z M 134.988281 75 " fill-opacity="1" fill-rule="evenodd"></path></g><g clip-path="url(#133923a04e)"><path fill="#5f0000" d="M 253.75 289.820312 C 253.75 289.820312 253.75 289.820312 253.609375 289.820312 L 16.367188 289.820312 C 15.65625 289.820312 14.949219 289.539062 14.523438 288.96875 C 14.097656 288.542969 13.953125 287.835938 14.097656 287.125 L 30.699219 189.789062 C 30.980469 188.652344 31.832031 187.800781 33.109375 187.800781 L 115.691406 187.800781 C 116.542969 187.800781 117.25 188.226562 117.675781 188.9375 C 119.519531 191.917969 121.222656 194.753906 122.925781 197.734375 C 127.324219 204.972656 131.441406 211.921875 134.988281 218.167969 L 151.445312 188.9375 C 151.730469 188.226562 152.582031 187.800781 153.433594 187.800781 L 237.007812 187.800781 C 238.140625 187.800781 239.136719 188.652344 239.277344 189.789062 L 255.878906 286.699219 C 256.019531 286.984375 256.019531 287.265625 256.019531 287.550781 C 256.019531 288.828125 255.027344 289.820312 253.75 289.820312 Z M 19.203125 285.140625 L 250.910156 285.140625 L 235.019531 192.484375 L 154.851562 192.484375 L 137.117188 224.125 C 136.265625 225.546875 133.710938 225.546875 133 224.125 C 129.027344 217.03125 124.0625 208.800781 118.8125 200.148438 C 117.394531 197.59375 115.832031 195.039062 114.414062 192.484375 L 35.097656 192.484375 Z M 19.203125 285.140625 " fill-opacity="1" fill-rule="evenodd"></path></g><path fill="#5f0000" d="M 163.648438 271.519531 C 163.367188 271.519531 163.082031 271.519531 162.65625 271.375 L 28.144531 215.898438 C 26.867188 215.328125 26.300781 213.910156 26.867188 212.773438 C 27.292969 211.496094 28.710938 210.929688 29.988281 211.496094 L 164.5 266.976562 C 165.777344 267.542969 166.34375 268.820312 165.777344 270.097656 C 165.492188 270.949219 164.5 271.519531 163.648438 271.519531 Z M 163.648438 271.519531 " fill-opacity="1" fill-rule="evenodd"></path><g clip-path="url(#ee5936d6cd)"><path fill="#5f0000" d="M 131.867188 289.820312 C 131.015625 289.820312 130.304688 289.394531 129.738281 288.6875 C 129.167969 287.550781 129.59375 286.132812 130.730469 285.421875 L 241.546875 221.429688 C 242.683594 220.863281 244.101562 221.148438 244.808594 222.28125 C 245.378906 223.417969 244.953125 224.835938 243.816406 225.546875 L 133 289.539062 C 132.71875 289.820312 132.292969 289.820312 131.867188 289.820312 Z M 131.867188 289.820312 " fill-opacity="1" fill-rule="evenodd"></path></g><g clip-path="url(#91e72917c4)"><path fill="#5f0000" d="M 16.367188 289.820312 C 15.65625 289.820312 15.089844 289.539062 14.523438 288.96875 C 13.671875 287.976562 13.8125 286.558594 14.804688 285.707031 L 77.523438 232.496094 C 78.515625 231.644531 79.933594 231.789062 80.785156 232.78125 C 81.636719 233.773438 81.496094 235.195312 80.5 236.046875 L 17.929688 289.253906 C 17.503906 289.679688 16.933594 289.820312 16.367188 289.820312 Z M 16.367188 289.820312 " fill-opacity="1" fill-rule="evenodd"></path></g><path fill="#5f0000" d="M 56.097656 227.246094 C 54.820312 227.246094 53.824219 226.113281 53.824219 224.835938 L 53.824219 190.214844 C 53.824219 188.796875 54.820312 187.800781 56.097656 187.800781 C 57.375 187.800781 58.507812 188.796875 58.507812 190.214844 L 58.507812 224.835938 C 58.507812 226.113281 57.375 227.246094 56.097656 227.246094 Z M 56.097656 227.246094 " fill-opacity="1" fill-rule="evenodd"></path><g clip-path="url(#094e421803)"><path fill="#5f0000" d="M 221.824219 289.820312 C 220.40625 289.820312 219.410156 288.828125 219.410156 287.550781 L 219.410156 235.621094 C 219.410156 234.34375 220.40625 233.207031 221.824219 233.207031 C 223.101562 233.207031 224.09375 234.34375 224.09375 235.621094 L 224.09375 287.550781 C 224.09375 288.828125 223.101562 289.820312 221.824219 289.820312 Z M 201.390625 289.820312 C 200.113281 289.820312 198.980469 288.828125 198.980469 287.550781 L 198.980469 247.394531 C 198.980469 246.121094 200.113281 244.984375 201.390625 244.984375 C 202.667969 244.984375 203.804688 246.121094 203.804688 247.394531 L 203.804688 287.550781 C 203.804688 288.828125 202.667969 289.820312 201.390625 289.820312 Z M 201.390625 289.820312 " fill-opacity="1" fill-rule="evenodd"></path></g><g clip-path="url(#29178902aa)"><path fill="#5f0000" d="M 96.25 289.820312 L 74.398438 289.820312 C 73.546875 289.820312 72.699219 289.394531 72.273438 288.6875 C 71.847656 287.976562 71.847656 286.984375 72.273438 286.273438 L 98.945312 242.144531 C 99.65625 241.011719 101.074219 240.585938 102.210938 241.296875 C 103.347656 242.003906 103.628906 243.421875 103.0625 244.558594 L 78.515625 285.140625 L 94.832031 285.140625 L 116.542969 249.382812 C 117.109375 248.246094 118.667969 247.820312 119.664062 248.53125 C 120.796875 249.242188 121.222656 250.660156 120.515625 251.792969 L 98.238281 288.6875 C 97.8125 289.394531 97.101562 289.820312 96.25 289.820312 Z M 96.25 289.820312 " fill-opacity="1" fill-rule="evenodd"></path></g><path fill="#5f0000" d="M 163.648438 271.519531 C 162.796875 271.519531 162.089844 271.09375 161.664062 270.382812 L 133 224.125 C 132.292969 223.132812 132.71875 221.570312 133.710938 220.863281 C 134.84375 220.296875 136.265625 220.578125 136.972656 221.714844 L 165.636719 267.96875 C 166.34375 269.105469 165.917969 270.523438 164.925781 271.234375 C 164.5 271.375 164.074219 271.519531 163.648438 271.519531 Z M 163.648438 271.519531 " fill-opacity="1" fill-rule="evenodd"></path><path fill="#5f0000" d="M 148.609375 247.253906 C 147.757812 247.253906 147.046875 246.828125 146.621094 246.121094 C 145.914062 244.984375 146.195312 243.566406 147.332031 242.855469 L 235.730469 188.085938 C 236.863281 187.519531 238.285156 187.800781 238.992188 188.9375 C 239.703125 190.074219 239.277344 191.492188 238.285156 192.199219 L 149.886719 246.828125 C 149.460938 247.113281 149.035156 247.253906 148.609375 247.253906 Z M 148.609375 247.253906 " fill-opacity="1" fill-rule="evenodd"></path></svg> 