<?xml version="1.0" encoding="UTF-8"?> <svg xmlns="http://www.w3.org/2000/svg" xmlns:xlink="http://www.w3.org/1999/xlink" width="360" zoomAndPan="magnify" viewBox="0 0 270 359.999987" height="480" preserveAspectRatio="xMidYMid meet" version="1.0"><defs><g></g><clipPath id="86cf824835"><rect x="0" width="262" y="0" height="140"></rect></clipPath></defs><g transform="matrix(1, 0, 0, 1, -0, 110)"><g clip-path="url(#86cf824835)"><g fill="#000000" fill-opacity="1"><g transform="translate(12.393742, 81.044537)"><g><path d="M 84.625 -64.21875 C 84.6875 -64.15625 84.671875 -64.109375 84.578125 -64.078125 C 84.484375 -64.046875 84.410156 -64.0625 84.359375 -64.125 C 84.046875 -64.914062 83.570312 -65.597656 82.9375 -66.171875 C 82.300781 -66.753906 81.617188 -67.195312 80.890625 -67.5 C 79.191406 -68.40625 77.367188 -68.796875 75.421875 -68.671875 C 73.484375 -68.554688 71.660156 -68.164062 69.953125 -67.5 C 68.140625 -66.832031 66.378906 -65.953125 64.671875 -64.859375 C 62.972656 -63.765625 61.394531 -62.550781 59.9375 -61.21875 C 58.363281 -59.820312 56.847656 -58.316406 55.390625 -56.703125 C 53.929688 -55.097656 52.53125 -53.472656 51.1875 -51.828125 C 49.675781 -50.128906 48.25 -48.398438 46.90625 -46.640625 C 45.570312 -44.878906 44.207031 -43.085938 42.8125 -41.265625 C 42.632812 -41.023438 42.4375 -40.722656 42.21875 -40.359375 C 42.007812 -39.992188 41.753906 -39.660156 41.453125 -39.359375 C 44.722656 -39.109375 47.878906 -38.046875 50.921875 -36.171875 C 51.347656 -35.859375 51.785156 -35.503906 52.234375 -35.109375 C 52.691406 -34.722656 53.101562 -34.316406 53.46875 -33.890625 C 53.59375 -34.003906 53.710938 -34.148438 53.828125 -34.328125 C 53.953125 -34.515625 54.046875 -34.703125 54.109375 -34.890625 C 55.140625 -36.648438 56.15625 -38.378906 57.15625 -40.078125 C 58.164062 -41.773438 59.242188 -43.476562 60.390625 -45.1875 C 60.941406 -46.03125 61.503906 -46.890625 62.078125 -47.765625 C 62.660156 -48.648438 63.285156 -49.488281 63.953125 -50.28125 C 64.429688 -51.007812 64.976562 -51.738281 65.59375 -52.46875 C 65.957031 -52.957031 66.289062 -53.382812 66.59375 -53.75 C 66.894531 -54.113281 67.226562 -54.414062 67.59375 -54.65625 C 67.65625 -54.78125 67.710938 -54.8125 67.765625 -54.75 C 67.828125 -54.6875 67.832031 -54.65625 67.78125 -54.65625 C 67.46875 -54.226562 67.160156 -53.738281 66.859375 -53.1875 C 66.554688 -52.644531 66.253906 -52.132812 65.953125 -51.65625 C 65.648438 -51.226562 65.359375 -50.785156 65.078125 -50.328125 C 64.804688 -49.867188 64.519531 -49.398438 64.21875 -48.921875 C 63.613281 -47.941406 63.003906 -46.984375 62.390625 -46.046875 C 61.785156 -45.109375 61.179688 -44.179688 60.578125 -43.265625 C 59.484375 -41.566406 58.445312 -39.835938 57.46875 -38.078125 C 56.5 -36.316406 55.53125 -34.554688 54.5625 -32.796875 C 55.78125 -31.210938 56.691406 -29.539062 57.296875 -27.78125 C 57.597656 -26.9375 57.796875 -26.054688 57.890625 -25.140625 C 57.984375 -24.234375 58 -23.351562 57.9375 -22.5 C 57.875 -21.53125 57.71875 -20.664062 57.46875 -19.90625 C 57.226562 -19.144531 56.898438 -18.367188 56.484375 -17.578125 C 56.234375 -17.148438 55.925781 -17.054688 55.5625 -17.296875 C 55.195312 -17.546875 55.140625 -17.820312 55.390625 -18.125 C 56.171875 -19.644531 56.5625 -21.285156 56.5625 -23.046875 C 56.6875 -24.566406 56.488281 -26.066406 55.96875 -27.546875 C 55.457031 -29.035156 54.75 -30.359375 53.84375 -31.515625 C 53.050781 -29.992188 52.273438 -28.425781 51.515625 -26.8125 C 50.753906 -25.207031 49.945312 -23.617188 49.09375 -22.046875 C 48.3125 -20.285156 47.539062 -18.476562 46.78125 -16.625 C 46.019531 -14.769531 45.273438 -12.929688 44.546875 -11.109375 C 43.753906 -9.234375 43.039062 -7.335938 42.40625 -5.421875 C 41.769531 -3.503906 41.117188 -1.609375 40.453125 0.265625 C 40.390625 0.578125 40.175781 0.703125 39.8125 0.640625 C 39.445312 0.578125 39.296875 0.363281 39.359375 0 C 39.960938 -2.1875 40.644531 -4.375 41.40625 -6.5625 C 42.164062 -8.75 42.9375 -10.90625 43.71875 -13.03125 C 45.113281 -16.425781 46.570312 -19.765625 48.09375 -23.046875 C 49.613281 -26.328125 51.253906 -29.578125 53.015625 -32.796875 C 51.742188 -34.128906 50.253906 -35.21875 48.546875 -36.0625 C 46.847656 -36.914062 45.117188 -37.492188 43.359375 -37.796875 C 42.390625 -38.046875 41.507812 -38.203125 40.71875 -38.265625 C 38.53125 -35.160156 36.421875 -32.015625 34.390625 -28.828125 C 32.359375 -25.640625 30.367188 -22.46875 28.421875 -19.3125 C 26.296875 -15.789062 24.0625 -12.296875 21.71875 -8.828125 C 19.382812 -5.367188 16.703125 -2.179688 13.671875 0.734375 C 12.265625 2.066406 10.800781 3.335938 9.28125 4.546875 C 7.769531 5.765625 6.101562 6.707031 4.28125 7.375 C 2.695312 8.039062 1.007812 8.476562 -0.78125 8.6875 C -2.570312 8.90625 -4.253906 8.617188 -5.828125 7.828125 C -8.078125 6.734375 -9.550781 5.15625 -10.25 3.09375 C -10.945312 1.03125 -11.097656 -1.148438 -10.703125 -3.453125 C -10.304688 -5.765625 -9.6875 -7.832031 -8.84375 -9.65625 C -7.070312 -13.113281 -4.925781 -16.238281 -2.40625 -19.03125 C 0.101562 -21.832031 2.847656 -24.328125 5.828125 -26.515625 C 9.046875 -28.816406 12.460938 -30.894531 16.078125 -32.75 C 19.691406 -34.601562 23.351562 -36.132812 27.0625 -37.34375 C 31.25 -38.925781 35.554688 -39.625 39.984375 -39.4375 C 41.378906 -41.5625 42.851562 -43.625 44.40625 -45.625 C 45.957031 -47.632812 47.519531 -49.582031 49.09375 -51.46875 C 50.4375 -53.050781 51.832031 -54.644531 53.28125 -56.25 C 54.738281 -57.863281 56.226562 -59.394531 57.75 -60.84375 C 59.144531 -62.125 60.617188 -63.351562 62.171875 -64.53125 C 63.722656 -65.71875 65.347656 -66.707031 67.046875 -67.5 C 68.679688 -68.351562 70.425781 -68.960938 72.28125 -69.328125 C 74.132812 -69.691406 75.910156 -69.75 77.609375 -69.5 C 79.191406 -69.257812 80.648438 -68.710938 81.984375 -67.859375 C 83.316406 -67.015625 84.195312 -65.800781 84.625 -64.21875 Z M 33.890625 -30.515625 C 34.796875 -31.910156 35.671875 -33.226562 36.515625 -34.46875 C 37.367188 -35.71875 38.222656 -37.007812 39.078125 -38.34375 C 35.617188 -38.46875 32.21875 -37.953125 28.875 -36.796875 C 25.53125 -35.648438 22.3125 -34.375 19.21875 -32.96875 C 15.820312 -31.394531 12.53125 -29.570312 9.34375 -27.5 C 6.15625 -25.4375 3.222656 -23.070312 0.546875 -20.40625 C -0.722656 -19.1875 -1.953125 -17.847656 -3.140625 -16.390625 C -4.328125 -14.929688 -5.375 -13.414062 -6.28125 -11.84375 C -7.132812 -10.445312 -7.894531 -8.941406 -8.5625 -7.328125 C -9.226562 -5.722656 -9.625 -4.070312 -9.75 -2.375 C -9.863281 -0.664062 -9.675781 0.941406 -9.1875 2.453125 C -8.707031 3.972656 -7.707031 5.25 -6.1875 6.28125 C -4.789062 7.195312 -3.195312 7.578125 -1.40625 7.421875 C 0.382812 7.273438 2.035156 6.894531 3.546875 6.28125 C 5.304688 5.488281 6.929688 4.5 8.421875 3.3125 C 9.910156 2.132812 11.320312 0.941406 12.65625 -0.265625 C 14.113281 -1.722656 15.492188 -3.242188 16.796875 -4.828125 C 18.109375 -6.410156 19.34375 -8.019531 20.5 -9.65625 C 22.925781 -13.050781 25.21875 -16.523438 27.375 -20.078125 C 29.53125 -23.640625 31.703125 -27.117188 33.890625 -30.515625 Z M 33.890625 -30.515625 "></path></g></g></g><g fill="#000000" fill-opacity="1"><g transform="translate(79.797466, 81.044537)"><g><path d="M 11.015625 -22.859375 C 11.265625 -23.222656 11.585938 -23.300781 11.984375 -23.09375 C 12.378906 -22.882812 12.453125 -22.597656 12.203125 -22.234375 C 11.722656 -21.503906 11.253906 -20.773438 10.796875 -20.046875 C 10.335938 -19.316406 9.894531 -18.554688 9.46875 -17.765625 C 7.957031 -14.785156 6.578125 -11.75 5.328125 -8.65625 C 4.085938 -5.5625 2.765625 -2.492188 1.359375 0.546875 C 1.054688 1.273438 0.738281 2.003906 0.40625 2.734375 C 0.0703125 3.460938 -0.273438 4.191406 -0.640625 4.921875 C 0.390625 4.984375 1.4375 5.148438 2.5 5.421875 C 3.5625 5.691406 4.582031 6.007812 5.5625 6.375 C 5.675781 6.4375 5.734375 6.554688 5.734375 6.734375 C 5.734375 6.921875 5.644531 7.015625 5.46875 7.015625 C 4.800781 6.890625 4.128906 6.8125 3.453125 6.78125 C 2.785156 6.75 2.117188 6.707031 1.453125 6.65625 C 1.023438 6.59375 0.582031 6.546875 0.125 6.515625 C -0.320312 6.484375 -0.789062 6.46875 -1.28125 6.46875 C -1.882812 7.738281 -2.503906 9.007812 -3.140625 10.28125 C -3.773438 11.5625 -4.425781 12.84375 -5.09375 14.125 C -7.53125 18.738281 -10.25 23.226562 -13.25 27.59375 C -16.257812 31.96875 -19.769531 35.828125 -23.78125 39.171875 C -25.65625 40.804688 -27.6875 42.242188 -29.875 43.484375 C -32.0625 44.734375 -34.367188 45.722656 -36.796875 46.453125 C -38.015625 46.816406 -39.304688 47.0625 -40.671875 47.1875 C -42.035156 47.3125 -43.328125 47.128906 -44.546875 46.640625 C -45.941406 46.085938 -46.910156 45.160156 -47.453125 43.859375 C -48.003906 42.554688 -48.28125 41.175781 -48.28125 39.71875 C -48.15625 36.5 -47.332031 33.460938 -45.8125 30.609375 C -44.300781 27.753906 -42.539062 25.144531 -40.53125 22.78125 C -36.894531 18.40625 -32.492188 14.664062 -27.328125 11.5625 C -24.835938 10.050781 -22.253906 8.765625 -19.578125 7.703125 C -16.910156 6.640625 -14.179688 5.863281 -11.390625 5.375 C -9.804688 5.070312 -8.222656 4.859375 -6.640625 4.734375 C -5.066406 4.617188 -3.519531 4.617188 -2 4.734375 C -1.269531 3.160156 -0.539062 1.554688 0.1875 -0.078125 C 0.914062 -1.722656 1.613281 -3.394531 2.28125 -5.09375 C 3.070312 -6.863281 3.828125 -8.628906 4.546875 -10.390625 C 5.273438 -12.148438 6.066406 -13.878906 6.921875 -15.578125 C 6.617188 -15.273438 6.300781 -14.984375 5.96875 -14.703125 C 5.632812 -14.429688 5.316406 -14.144531 5.015625 -13.84375 C 4.398438 -13.363281 3.804688 -12.878906 3.234375 -12.390625 C 2.660156 -11.898438 2.035156 -11.414062 1.359375 -10.9375 C 0.753906 -10.507812 0.0859375 -10.066406 -0.640625 -9.609375 C -1.367188 -9.148438 -2.097656 -8.863281 -2.828125 -8.75 C -3.429688 -8.6875 -3.988281 -8.835938 -4.5 -9.203125 C -5.019531 -9.566406 -5.3125 -10.050781 -5.375 -10.65625 C -5.4375 -11.320312 -5.285156 -11.972656 -4.921875 -12.609375 C -4.554688 -13.253906 -4.191406 -13.847656 -3.828125 -14.390625 C -2.796875 -15.722656 -1.6875 -16.96875 -0.5 -18.125 C 0.6875 -19.28125 1.976562 -20.253906 3.375 -21.046875 C 3.976562 -21.347656 4.597656 -21.648438 5.234375 -21.953125 C 5.867188 -22.253906 6.523438 -22.4375 7.203125 -22.5 C 7.742188 -22.5625 8.269531 -22.53125 8.78125 -22.40625 C 9.300781 -22.289062 9.835938 -22.140625 10.390625 -21.953125 C 10.503906 -22.140625 10.625 -22.304688 10.75 -22.453125 C 10.875 -22.609375 10.960938 -22.742188 11.015625 -22.859375 Z M -4.015625 8.84375 C -3.765625 8.414062 -3.546875 8.003906 -3.359375 7.609375 C -3.179688 7.210938 -3.003906 6.800781 -2.828125 6.375 C -3.429688 6.375 -4.050781 6.375 -4.6875 6.375 C -5.320312 6.375 -5.976562 6.40625 -6.65625 6.46875 C -9.320312 6.644531 -11.992188 7.097656 -14.671875 7.828125 C -17.335938 8.554688 -19.929688 9.53125 -22.453125 10.75 C -24.972656 11.96875 -27.390625 13.363281 -29.703125 14.9375 C -32.003906 16.519531 -34.1875 18.3125 -36.25 20.3125 C -38.320312 22.3125 -40.175781 24.46875 -41.8125 26.78125 C -42.71875 28.050781 -43.519531 29.367188 -44.21875 30.734375 C -44.925781 32.109375 -45.519531 33.523438 -46 34.984375 C -46.425781 36.441406 -46.703125 37.957031 -46.828125 39.53125 C -46.828125 40.257812 -46.765625 41.003906 -46.640625 41.765625 C -46.515625 42.523438 -46.238281 43.238281 -45.8125 43.90625 C -45.03125 45 -43.941406 45.601562 -42.546875 45.71875 C -41.148438 45.84375 -39.875 45.785156 -38.71875 45.546875 C -36.40625 45.003906 -34.15625 44.15625 -31.96875 43 C -29.84375 41.90625 -27.820312 40.597656 -25.90625 39.078125 C -24 37.554688 -22.226562 35.945312 -20.59375 34.25 C -17.0625 30.601562 -13.972656 26.59375 -11.328125 22.21875 C -8.691406 17.851562 -6.253906 13.394531 -4.015625 8.84375 Z M -0.453125 -11.296875 C 3.796875 -14.023438 7.316406 -17.425781 10.109375 -21.5 C 9.566406 -21.625 9.003906 -21.695312 8.421875 -21.71875 C 7.847656 -21.75 7.285156 -21.675781 6.734375 -21.5 C 6.066406 -21.3125 5.429688 -21.035156 4.828125 -20.671875 C 4.222656 -20.304688 3.613281 -19.914062 3 -19.5 C 1.851562 -18.707031 0.78125 -17.804688 -0.21875 -16.796875 C -1.226562 -15.796875 -2.15625 -14.691406 -3 -13.484375 C -3.25 -13.117188 -3.554688 -12.613281 -3.921875 -11.96875 C -4.285156 -11.332031 -4.316406 -10.773438 -4.015625 -10.296875 C -3.648438 -9.742188 -3.054688 -9.710938 -2.234375 -10.203125 C -1.410156 -10.691406 -0.816406 -11.054688 -0.453125 -11.296875 Z M -0.453125 -11.296875 "></path></g></g></g><g fill="#000000" fill-opacity="1"><g transform="translate(97.650324, 81.044537)"><g><path d="M 39.171875 -19.671875 C 39.410156 -19.859375 39.601562 -19.859375 39.75 -19.671875 C 39.90625 -19.492188 39.925781 -19.28125 39.8125 -19.03125 C 37.988281 -16.789062 35.769531 -14.910156 33.15625 -13.390625 C 32.125 -12.785156 31.015625 -12.238281 29.828125 -11.75 C 28.648438 -11.257812 27.453125 -10.863281 26.234375 -10.5625 C 25.265625 -10.320312 24.289062 -10.15625 23.3125 -10.0625 C 22.34375 -9.96875 21.34375 -10.046875 20.3125 -10.296875 C 19.519531 -10.535156 18.789062 -10.894531 18.125 -11.375 C 17.457031 -11.863281 17.003906 -12.503906 16.765625 -13.296875 C 16.515625 -13.898438 16.484375 -14.539062 16.671875 -15.21875 C 16.066406 -14.726562 15.472656 -14.253906 14.890625 -13.796875 C 14.316406 -13.347656 13.695312 -12.910156 13.03125 -12.484375 C 10.957031 -11.203125 8.707031 -10.289062 6.28125 -9.75 C 5.3125 -9.5 4.25 -9.390625 3.09375 -9.421875 C 1.9375 -9.453125 0.90625 -9.773438 0 -10.390625 C -1.15625 -11.234375 -1.734375 -12.304688 -1.734375 -13.609375 C -1.734375 -14.921875 -1.457031 -16.15625 -0.90625 -17.3125 C -0.601562 -17.976562 -0.242188 -18.582031 0.171875 -19.125 C 0.597656 -19.675781 1.023438 -20.222656 1.453125 -20.765625 C 1.878906 -21.253906 2.363281 -21.710938 2.90625 -22.140625 C 3.457031 -22.566406 4.035156 -22.835938 4.640625 -22.953125 C 4.703125 -23.015625 4.75 -23.015625 4.78125 -22.953125 C 4.8125 -22.890625 4.796875 -22.832031 4.734375 -22.78125 C 4.304688 -22.226562 3.847656 -21.738281 3.359375 -21.3125 C 2.878906 -20.882812 2.425781 -20.398438 2 -19.859375 C 1.570312 -19.304688 1.175781 -18.695312 0.8125 -18.03125 C 0.445312 -17.363281 0.113281 -16.695312 -0.1875 -16.03125 C -0.425781 -15.425781 -0.5625 -14.800781 -0.59375 -14.15625 C -0.625 -13.519531 -0.488281 -12.898438 -0.1875 -12.296875 C 0.300781 -11.503906 1.0625 -11.019531 2.09375 -10.84375 C 3.125 -10.59375 4.15625 -10.585938 5.1875 -10.828125 C 6.21875 -11.078125 7.222656 -11.351562 8.203125 -11.65625 C 10.328125 -12.320312 12.238281 -13.351562 13.9375 -14.75 C 15.632812 -16.15625 17.332031 -17.523438 19.03125 -18.859375 C 19.34375 -19.160156 19.664062 -19.144531 20 -18.8125 C 20.332031 -18.476562 20.316406 -18.160156 19.953125 -17.859375 C 19.335938 -17.242188 18.757812 -16.46875 18.21875 -15.53125 C 17.675781 -14.59375 17.796875 -13.695312 18.578125 -12.84375 C 19.367188 -11.988281 20.3125 -11.515625 21.40625 -11.421875 C 22.5 -11.335938 23.632812 -11.429688 24.8125 -11.703125 C 26 -11.972656 27.050781 -12.234375 27.96875 -12.484375 C 30.09375 -13.210938 32.078125 -14.210938 33.921875 -15.484375 C 35.773438 -16.765625 37.523438 -18.160156 39.171875 -19.671875 Z M 39.171875 -19.671875 "></path></g></g></g><g fill="#000000" fill-opacity="1"><g transform="translate(134.813457, 81.044537)"><g><path d="M 40.90625 -17.484375 C 41.144531 -17.609375 41.304688 -17.5625 41.390625 -17.34375 C 41.484375 -17.132812 41.441406 -16.972656 41.265625 -16.859375 C 38.046875 -14.546875 34.554688 -12.597656 30.796875 -11.015625 C 29.640625 -10.535156 28.4375 -10.097656 27.1875 -9.703125 C 25.945312 -9.304688 24.71875 -9.019531 23.5 -8.84375 C 22.40625 -8.65625 21.296875 -8.5625 20.171875 -8.5625 C 19.046875 -8.5625 18 -8.832031 17.03125 -9.375 C 15.820312 -9.988281 15.019531 -10.898438 14.625 -12.109375 C 14.226562 -13.328125 14.085938 -14.570312 14.203125 -15.84375 C 14.328125 -16.820312 14.507812 -17.703125 14.75 -18.484375 C 14.507812 -18.242188 14.296875 -18.015625 14.109375 -17.796875 C 13.929688 -17.585938 13.722656 -17.363281 13.484375 -17.125 C 11.722656 -15.175781 9.835938 -13.503906 7.828125 -12.109375 C 6.984375 -11.503906 6.070312 -10.941406 5.09375 -10.421875 C 4.125 -9.910156 3.125 -9.535156 2.09375 -9.296875 C 1.125 -9.109375 0.1875 -9.148438 -0.71875 -9.421875 C -1.632812 -9.703125 -2.273438 -10.328125 -2.640625 -11.296875 C -3.003906 -12.515625 -2.851562 -13.640625 -2.1875 -14.671875 C -1.945312 -15.273438 -1.613281 -15.695312 -1.1875 -15.9375 C -1 -16.125 -0.785156 -16.273438 -0.546875 -16.390625 C -0.304688 -16.515625 -0.09375 -16.640625 0.09375 -16.765625 C 0.207031 -16.828125 0.28125 -16.828125 0.3125 -16.765625 C 0.34375 -16.703125 0.328125 -16.640625 0.265625 -16.578125 C -0.148438 -16.148438 -0.539062 -15.691406 -0.90625 -15.203125 C -1.269531 -14.722656 -1.515625 -14.179688 -1.640625 -13.578125 C -1.765625 -12.960938 -1.734375 -12.367188 -1.546875 -11.796875 C -1.367188 -11.222656 -0.972656 -10.8125 -0.359375 -10.5625 C 0.367188 -10.320312 1.140625 -10.335938 1.953125 -10.609375 C 2.773438 -10.878906 3.488281 -11.140625 4.09375 -11.390625 C 5.007812 -11.867188 5.875 -12.394531 6.6875 -12.96875 C 7.507812 -13.550781 8.316406 -14.175781 9.109375 -14.84375 C 10.742188 -16.238281 12.273438 -17.785156 13.703125 -19.484375 C 15.128906 -21.191406 16.484375 -22.894531 17.765625 -24.59375 C 17.828125 -24.65625 17.859375 -24.71875 17.859375 -24.78125 C 18.160156 -25.082031 18.492188 -25.082031 18.859375 -24.78125 C 19.222656 -24.476562 19.28125 -24.171875 19.03125 -23.859375 C 18.726562 -23.554688 18.488281 -23.222656 18.3125 -22.859375 C 17.457031 -21.648438 16.769531 -20.316406 16.25 -18.859375 C 15.738281 -17.398438 15.484375 -15.910156 15.484375 -14.390625 C 15.484375 -13.234375 15.816406 -12.273438 16.484375 -11.515625 C 17.148438 -10.765625 18.03125 -10.265625 19.125 -10.015625 C 20.101562 -9.835938 21.078125 -9.820312 22.046875 -9.96875 C 23.015625 -10.125 23.984375 -10.320312 24.953125 -10.5625 C 27.804688 -11.289062 30.507812 -12.335938 33.0625 -13.703125 C 35.613281 -15.078125 38.226562 -16.335938 40.90625 -17.484375 Z M 40.90625 -17.484375 "></path></g></g></g><g fill="#000000" fill-opacity="1"><g transform="translate(178.079361, 81.044537)"><g><path d="M 20.671875 -16.9375 C 20.859375 -17 20.992188 -16.953125 21.078125 -16.796875 C 21.171875 -16.648438 21.160156 -16.515625 21.046875 -16.390625 C 20.554688 -15.910156 20.003906 -15.472656 19.390625 -15.078125 C 18.785156 -14.679688 18.179688 -14.300781 17.578125 -13.9375 C 17.035156 -13.570312 16.472656 -13.253906 15.890625 -12.984375 C 15.316406 -12.710938 14.695312 -12.421875 14.03125 -12.109375 C 11.71875 -11.078125 9.257812 -10.410156 6.65625 -10.109375 C 5.257812 -9.929688 3.722656 -9.867188 2.046875 -9.921875 C 0.378906 -9.984375 -1.03125 -10.503906 -2.1875 -11.484375 C -2.789062 -11.960938 -3.195312 -12.597656 -3.40625 -13.390625 C -3.625 -14.179688 -3.644531 -14.941406 -3.46875 -15.671875 C -3.15625 -16.703125 -2.585938 -17.597656 -1.765625 -18.359375 C -0.953125 -19.117188 -0.117188 -19.769531 0.734375 -20.3125 C 1.765625 -20.914062 2.867188 -21.414062 4.046875 -21.8125 C 5.234375 -22.207031 6.40625 -22.285156 7.5625 -22.046875 C 8.769531 -21.804688 9.328125 -21.179688 9.234375 -20.171875 C 9.148438 -19.171875 8.773438 -18.335938 8.109375 -17.671875 C 6.710938 -16.335938 4.984375 -15.578125 2.921875 -15.390625 C 1.335938 -15.210938 -0.210938 -15.546875 -1.734375 -16.390625 C -2.035156 -15.847656 -2.21875 -15.257812 -2.28125 -14.625 C -2.34375 -13.988281 -2.160156 -13.394531 -1.734375 -12.84375 C -1.367188 -12.414062 -0.910156 -12.09375 -0.359375 -11.875 C 0.179688 -11.664062 0.726562 -11.503906 1.28125 -11.390625 C 2.675781 -11.140625 4.144531 -11.09375 5.6875 -11.25 C 7.238281 -11.40625 8.679688 -11.664062 10.015625 -12.03125 C 11.722656 -12.570312 13.515625 -13.269531 15.390625 -14.125 C 16.242188 -14.601562 17.109375 -15.097656 17.984375 -15.609375 C 18.867188 -16.128906 19.765625 -16.570312 20.671875 -16.9375 Z M 3.1875 -20.046875 C 2.394531 -19.679688 1.585938 -19.238281 0.765625 -18.71875 C -0.046875 -18.207031 -0.753906 -17.585938 -1.359375 -16.859375 C -1.359375 -16.859375 -1.375 -16.84375 -1.40625 -16.8125 C -1.4375 -16.78125 -1.453125 -16.765625 -1.453125 -16.765625 C 0.0546875 -16.210938 1.632812 -16.117188 3.28125 -16.484375 C 4.132812 -16.609375 5.015625 -16.925781 5.921875 -17.4375 C 6.828125 -17.957031 7.460938 -18.613281 7.828125 -19.40625 C 7.953125 -19.644531 8.015625 -19.882812 8.015625 -20.125 C 8.015625 -20.375 7.863281 -20.53125 7.5625 -20.59375 C 7.320312 -20.707031 7.078125 -20.765625 6.828125 -20.765625 C 6.585938 -20.765625 6.316406 -20.765625 6.015625 -20.765625 C 5.585938 -20.765625 5.128906 -20.6875 4.640625 -20.53125 C 4.160156 -20.382812 3.675781 -20.222656 3.1875 -20.046875 Z M 3.1875 -20.046875 "></path></g></g></g><g fill="#000000" fill-opacity="1"><g transform="translate(200.122184, 81.044537)"><g><path d="M 55.9375 -18.125 C 56.113281 -18.25 56.273438 -18.203125 56.421875 -17.984375 C 56.578125 -17.773438 56.566406 -17.609375 56.390625 -17.484375 C 53.773438 -15.421875 50.890625 -13.691406 47.734375 -12.296875 C 46.398438 -11.691406 45.046875 -11.175781 43.671875 -10.75 C 42.304688 -10.320312 40.925781 -9.957031 39.53125 -9.65625 C 38.375 -9.46875 37.171875 -9.375 35.921875 -9.375 C 34.679688 -9.375 33.515625 -9.585938 32.421875 -10.015625 C 31.453125 -10.378906 30.601562 -10.925781 29.875 -11.65625 C 29.445312 -12.144531 29.113281 -12.707031 28.875 -13.34375 C 28.632812 -13.976562 28.332031 -14.570312 27.96875 -15.125 C 27.363281 -15.914062 26.554688 -16.128906 25.546875 -15.765625 C 24.546875 -15.398438 23.710938 -15.0625 23.046875 -14.75 C 21.046875 -13.96875 19.164062 -13.0625 17.40625 -12.03125 C 17.09375 -11.84375 16.84375 -11.898438 16.65625 -12.203125 C 16.476562 -12.503906 16.484375 -12.78125 16.671875 -13.03125 C 17.578125 -14.175781 18.394531 -15.367188 19.125 -16.609375 C 19.851562 -17.859375 20.523438 -19.15625 21.140625 -20.5 C 21.378906 -20.976562 21.570312 -21.550781 21.71875 -22.21875 C 21.875 -22.894531 21.679688 -23.382812 21.140625 -23.6875 C 20.710938 -23.988281 20.148438 -24.140625 19.453125 -24.140625 C 18.753906 -24.140625 18.160156 -24.140625 17.671875 -24.140625 C 14.816406 -24.140625 11.992188 -23.625 9.203125 -22.59375 C 8.472656 -20.832031 7.546875 -19.113281 6.421875 -17.4375 C 5.296875 -15.769531 4.066406 -14.238281 2.734375 -12.84375 C 2.128906 -12.238281 1.429688 -11.613281 0.640625 -10.96875 C -0.148438 -10.332031 -1 -9.984375 -1.90625 -9.921875 C -3.0625 -9.867188 -3.742188 -10.296875 -3.953125 -11.203125 C -4.171875 -12.117188 -4.097656 -12.96875 -3.734375 -13.75 C -3.554688 -14.238281 -3.285156 -14.722656 -2.921875 -15.203125 C -2.554688 -15.691406 -2.191406 -16.148438 -1.828125 -16.578125 C -1.460938 -17.066406 -1.066406 -17.519531 -0.640625 -17.9375 C -0.210938 -18.363281 0.210938 -18.757812 0.640625 -19.125 C 2.398438 -20.707031 4.40625 -22.015625 6.65625 -23.046875 C 6.957031 -23.222656 7.289062 -23.390625 7.65625 -23.546875 C 8.019531 -23.703125 8.382812 -23.835938 8.75 -23.953125 C 8.863281 -24.316406 9.007812 -24.695312 9.1875 -25.09375 C 9.375 -25.488281 9.53125 -25.898438 9.65625 -26.328125 C 9.65625 -26.628906 9.742188 -26.898438 9.921875 -27.140625 C 9.984375 -27.390625 10.101562 -27.484375 10.28125 -27.421875 C 10.46875 -27.359375 10.53125 -27.207031 10.46875 -26.96875 C 10.414062 -26.539062 10.328125 -26.113281 10.203125 -25.6875 C 10.078125 -25.257812 9.957031 -24.804688 9.84375 -24.328125 C 13.476562 -25.535156 17.0625 -25.835938 20.59375 -25.234375 C 21.863281 -25.046875 22.648438 -24.347656 22.953125 -23.140625 C 23.078125 -22.585938 23.046875 -22.023438 22.859375 -21.453125 C 22.679688 -20.878906 22.472656 -20.347656 22.234375 -19.859375 C 21.804688 -18.890625 21.332031 -17.945312 20.8125 -17.03125 C 20.300781 -16.125 19.738281 -15.242188 19.125 -14.390625 C 19.738281 -14.691406 20.347656 -14.976562 20.953125 -15.25 C 21.554688 -15.53125 22.164062 -15.789062 22.78125 -16.03125 C 23.625 -16.332031 24.546875 -16.648438 25.546875 -16.984375 C 26.554688 -17.316406 27.453125 -17.210938 28.234375 -16.671875 C 28.847656 -16.242188 29.273438 -15.679688 29.515625 -14.984375 C 29.753906 -14.285156 30.085938 -13.664062 30.515625 -13.125 C 31.066406 -12.269531 31.796875 -11.660156 32.703125 -11.296875 C 33.734375 -10.867188 34.851562 -10.671875 36.0625 -10.703125 C 37.28125 -10.734375 38.46875 -10.867188 39.625 -11.109375 C 41.082031 -11.410156 42.507812 -11.804688 43.90625 -12.296875 C 45.300781 -12.785156 46.664062 -13.332031 48 -13.9375 C 49.34375 -14.601562 50.679688 -15.269531 52.015625 -15.9375 C 53.347656 -16.601562 54.65625 -17.332031 55.9375 -18.125 Z M 3.546875 -15.578125 C 5.253906 -17.640625 6.679688 -19.796875 7.828125 -22.046875 C 7.046875 -21.742188 6.347656 -21.378906 5.734375 -20.953125 C 3.859375 -19.921875 2.21875 -18.707031 0.8125 -17.3125 C 0.445312 -16.945312 0.0859375 -16.582031 -0.265625 -16.21875 C -0.628906 -15.851562 -0.96875 -15.457031 -1.28125 -15.03125 C -1.519531 -14.664062 -1.789062 -14.285156 -2.09375 -13.890625 C -2.394531 -13.492188 -2.609375 -13.082031 -2.734375 -12.65625 C -2.796875 -12.289062 -2.8125 -11.957031 -2.78125 -11.65625 C -2.75 -11.351562 -2.519531 -11.203125 -2.09375 -11.203125 C -1.726562 -11.203125 -1.378906 -11.289062 -1.046875 -11.46875 C -0.710938 -11.65625 -0.425781 -11.84375 -0.1875 -12.03125 C 0.539062 -12.507812 1.207031 -13.066406 1.8125 -13.703125 C 2.425781 -14.347656 3.003906 -14.972656 3.546875 -15.578125 Z M 3.546875 -15.578125 "></path></g></g></g></g></g></svg> 