<?xml version="1.0" encoding="UTF-8"?> <svg xmlns="http://www.w3.org/2000/svg" xmlns:xlink="http://www.w3.org/1999/xlink" width="360" zoomAndPan="magnify" viewBox="0 0 270 359.999987" height="480" preserveAspectRatio="xMidYMid meet" version="1.0"><defs><clipPath id="d288e7c570"><path d="M 19 89 L 251 89 L 251 271.019531 L 19 271.019531 Z M 19 89 " clip-rule="nonzero"></path></clipPath></defs><g clip-path="url(#d288e7c570)"><path fill="#5f0000" d="M 167.726562 271.230469 C 165.554688 271.230469 163.453125 270.503906 161.714844 269.128906 L 119.070312 235.679688 L 97.203125 266.449219 C 96.550781 267.390625 95.394531 267.683594 94.378906 267.320312 C 93.367188 266.886719 92.714844 265.871094 92.859375 264.785156 L 99.59375 207.585938 C 99.664062 206.933594 99.953125 206.355469 100.460938 205.992188 L 178.152344 142.203125 L 89.457031 189.773438 L 89.457031 228.871094 C 89.457031 230.03125 88.585938 231.042969 87.5 231.261719 C 86.34375 231.480469 85.183594 230.828125 84.75 229.742188 L 67.15625 184.125 L 24.292969 161.609375 C 20.671875 159.726562 18.644531 155.816406 19.078125 151.761719 C 19.585938 147.707031 22.410156 144.375 26.390625 143.363281 L 238.464844 89.710938 C 242.160156 88.769531 245.921875 90 248.386719 92.894531 C 250.847656 95.792969 251.355469 99.773438 249.832031 103.25 L 176.703125 265.363281 C 175.472656 268.117188 173.011719 270.144531 170.113281 270.867188 C 169.320312 271.15625 168.523438 271.230469 167.726562 271.230469 Z M 118.5625 229.742188 C 119.070312 229.742188 119.648438 229.886719 120.082031 230.25 L 164.683594 265.292969 C 165.914062 266.234375 167.4375 266.59375 168.882812 266.234375 C 170.40625 265.871094 171.5625 264.859375 172.214844 263.480469 L 245.34375 101.367188 C 246.140625 99.628906 245.851562 97.675781 244.621094 96.152344 C 243.390625 94.632812 241.507812 94.054688 239.625 94.5625 L 27.550781 148.214844 C 25.085938 148.792969 24.074219 150.820312 23.855469 152.414062 C 23.640625 154.078125 24.21875 156.179688 26.464844 157.335938 L 70.125 180.214844 C 70.628906 180.507812 71.066406 180.941406 71.28125 181.519531 L 84.53125 215.765625 L 84.53125 188.324219 C 84.53125 187.457031 85.039062 186.589844 85.835938 186.152344 L 197.773438 125.984375 C 198.859375 125.40625 200.234375 125.695312 200.960938 126.78125 C 201.683594 127.796875 201.464844 129.242188 200.453125 130.039062 L 104.152344 209.105469 L 98.652344 255.878906 L 116.535156 230.828125 C 116.898438 230.320312 117.476562 229.957031 118.199219 229.8125 C 118.34375 229.742188 118.417969 229.742188 118.5625 229.742188 Z M 118.5625 229.742188 " fill-opacity="1" fill-rule="nonzero"></path></g></svg> 