<?xml version="1.0" encoding="UTF-8"?> <svg xmlns="http://www.w3.org/2000/svg" xmlns:xlink="http://www.w3.org/1999/xlink" width="360" zoomAndPan="magnify" viewBox="0 0 270 359.999987" height="480" preserveAspectRatio="xMidYMid meet" version="1.0"><defs><g></g><clipPath id="f5ee2ef8b8"><rect x="0" width="264" y="0" height="116"></rect></clipPath></defs><g transform="matrix(1, 0, 0, 1, 4, 121)"><g clip-path="url(#f5ee2ef8b8)"><g fill="#5f0000" fill-opacity="1"><g transform="translate(0.204087, 87.074073)"><g><path d="M 166.609375 -51.71875 C 166.609375 -46.0625 164.398438 -41.457031 159.984375 -37.90625 C 155.890625 -34.632812 150.945312 -33 145.15625 -33 C 142.113281 -33 139.519531 -33.703125 137.375 -35.109375 C 134.875 -36.753906 133.625 -39.007812 133.625 -41.875 C 133.625 -45.0625 134.988281 -47.679688 137.71875 -49.734375 C 137.894531 -49.867188 138.191406 -50.023438 138.609375 -50.203125 L 138.8125 -50.078125 C 138.71875 -49.890625 138.515625 -49.660156 138.203125 -49.390625 C 135.648438 -47.160156 134.375 -44.65625 134.375 -41.875 C 134.375 -39.375 135.554688 -37.484375 137.921875 -36.203125 C 139.742188 -35.242188 142.046875 -34.765625 144.828125 -34.765625 C 150.109375 -34.765625 154.820312 -36.25 158.96875 -39.21875 C 163.5625 -42.488281 165.859375 -46.65625 165.859375 -51.71875 C 165.859375 -56.132812 164.035156 -59.523438 160.390625 -61.890625 C 157.253906 -63.890625 153.363281 -64.890625 148.71875 -64.890625 C 136.875 -64.890625 125.578125 -60.222656 114.828125 -50.890625 C 116.878906 -46.515625 117.90625 -41.617188 117.90625 -36.203125 C 117.90625 -29.554688 116.3125 -23.410156 113.125 -17.765625 C 109.9375 -12.117188 105.492188 -7.472656 99.796875 -3.828125 C 92.378906 0.910156 81.519531 3.28125 67.21875 3.28125 C 63.125 3.28125 58.410156 3.003906 53.078125 2.453125 C 52.804688 2.453125 51.78125 2.316406 50 2.046875 C 48.6875 1.867188 47.640625 1.78125 46.859375 1.78125 C 46.628906 1.78125 45.195312 2.03125 42.5625 2.53125 C 39.738281 3.070312 38.078125 3.367188 37.578125 3.421875 C 31.609375 4.191406 25.09375 4.578125 18.03125 4.578125 C 6.78125 4.578125 1.15625 3.734375 1.15625 2.046875 C 1.15625 -0.140625 7.488281 -1.234375 20.15625 -1.234375 C 25.03125 -1.234375 32.109375 -0.753906 41.390625 0.203125 C 45.492188 0.660156 47.429688 0.890625 47.203125 0.890625 C 47.390625 0.890625 48.28125 0.679688 49.875 0.265625 C 56.019531 -1.328125 61.53125 -3.828125 66.40625 -7.234375 C 71.820312 -11.015625 78.21875 -17.070312 85.59375 -25.40625 C 96.34375 -37.570312 105.5 -46.5 113.0625 -52.1875 C 107.550781 -62.84375 96.253906 -68.171875 79.171875 -68.171875 C 71.660156 -68.171875 64.394531 -66.875 57.375 -64.28125 C 49.632812 -61.457031 43.46875 -57.492188 38.875 -52.390625 C 33.675781 -46.648438 31.078125 -40.484375 31.078125 -33.890625 C 31.078125 -28.921875 32.625 -24.96875 35.71875 -22.03125 C 38.820312 -19.09375 42.851562 -17.625 47.8125 -17.625 C 54.96875 -17.625 61.515625 -20.015625 67.453125 -24.796875 C 73.398438 -29.578125 76.375 -34.835938 76.375 -40.578125 C 76.375 -43.765625 75.347656 -46.328125 73.296875 -48.265625 C 71.242188 -50.203125 68.625 -51.171875 65.4375 -51.171875 C 61.15625 -51.171875 57.3125 -49.710938 53.90625 -46.796875 C 50.300781 -43.703125 48.5 -40.054688 48.5 -35.859375 C 48.5 -35.679688 48.53125 -35.476562 48.59375 -35.25 C 48.664062 -35.019531 48.703125 -34.835938 48.703125 -34.703125 C 48.703125 -34.566406 48.632812 -34.5 48.5 -34.5 C 48.09375 -34.5 47.890625 -35.132812 47.890625 -36.40625 C 47.890625 -40.738281 49.753906 -44.472656 53.484375 -47.609375 C 57.085938 -50.617188 61.070312 -52.125 65.4375 -52.125 C 69.351562 -52.125 72.4375 -50.972656 74.6875 -48.671875 C 76.945312 -46.367188 78.078125 -43.285156 78.078125 -39.421875 C 78.078125 -33.046875 74.957031 -27.46875 68.71875 -22.6875 C 62.894531 -18.175781 56.703125 -15.921875 50.140625 -15.921875 C 44.398438 -15.921875 39.734375 -17.398438 36.140625 -20.359375 C 32.265625 -23.546875 30.328125 -27.941406 30.328125 -33.546875 C 30.328125 -43.972656 35.539062 -52.828125 45.96875 -60.109375 C 55.488281 -66.765625 66.535156 -70.09375 79.109375 -70.09375 C 86.253906 -70.09375 92.832031 -68.703125 98.84375 -65.921875 C 105.582031 -62.867188 110.570312 -58.472656 113.8125 -52.734375 C 125.507812 -61.335938 137.144531 -65.640625 148.71875 -65.640625 C 153.726562 -65.640625 157.828125 -64.59375 161.015625 -62.5 C 164.742188 -60.039062 166.609375 -56.445312 166.609375 -51.71875 Z M 116.125 -38.25 C 116.125 -42.445312 115.421875 -46.410156 114.015625 -50.140625 C 110.140625 -46.722656 105.878906 -42.421875 101.234375 -37.234375 C 97.234375 -32.679688 93.25 -28.125 89.28125 -23.5625 C 78.351562 -11.082031 65.054688 -2.84375 49.390625 1.15625 L 49.390625 1.234375 C 56.222656 1.910156 62.078125 2.25 66.953125 2.25 C 70.046875 2.25 72.773438 2.113281 75.140625 1.84375 C 82.429688 1.019531 89.238281 -1.390625 95.5625 -5.390625 C 101.894531 -9.398438 106.953125 -14.503906 110.734375 -20.703125 C 114.328125 -26.660156 116.125 -32.507812 116.125 -38.25 Z M 44.203125 1.5 L 44.203125 1.4375 C 33.859375 0.15625 25.796875 -0.484375 20.015625 -0.484375 C 13.546875 -0.484375 8.742188 -0.140625 5.609375 0.546875 C 3.285156 1.046875 2.125 1.546875 2.125 2.046875 C 2.125 2.273438 2.507812 2.457031 3.28125 2.59375 C 4.644531 2.863281 7.375 3 11.46875 3 L 18.109375 3 C 29.398438 3 38.097656 2.5 44.203125 1.5 Z M 44.203125 1.5 "></path></g></g></g><g fill="#5f0000" fill-opacity="1"><g transform="translate(110.365062, 87.074073)"><g><path d="M 23.21875 -6.765625 C 23.132812 -6.078125 21.566406 -4.597656 18.515625 -2.328125 C 16.097656 -0.503906 14.046875 0.40625 12.359375 0.40625 C 10.859375 0.40625 10.109375 -0.113281 10.109375 -1.15625 C 10.109375 -2.34375 11.144531 -4.050781 13.21875 -6.28125 C 15.289062 -8.507812 16.328125 -9.785156 16.328125 -10.109375 C 16.328125 -10.335938 16.144531 -10.453125 15.78125 -10.453125 C 13.414062 -10.453125 8.816406 -6.21875 1.984375 2.25 C -0.753906 5.625 -5.101562 11.457031 -11.0625 19.75 C -11.925781 21.019531 -12.789062 22.289062 -13.65625 23.5625 C -14.882812 25.25 -15.816406 26.351562 -16.453125 26.875 C -17.097656 27.40625 -17.648438 27.671875 -18.109375 27.671875 C -19.148438 27.671875 -19.671875 27.097656 -19.671875 25.953125 C -19.671875 24.816406 -18.921875 23.132812 -17.421875 20.90625 C -8.398438 7.738281 -0.289062 -3.164062 6.90625 -11.8125 L 6.828125 -11.8125 C 2.003906 -7.3125 -0.613281 -5.0625 -1.03125 -5.0625 C -0.800781 -5.601562 3.140625 -9.335938 10.796875 -16.265625 C 11.796875 -17.171875 12.679688 -17.625 13.453125 -17.625 C 14.140625 -17.625 14.484375 -17.53125 14.484375 -17.34375 C 14.484375 -17.257812 14.117188 -16.785156 13.390625 -15.921875 C 10.878906 -13.003906 6.6875 -7.675781 0.8125 0.0625 C -4.550781 7.082031 -8.988281 13.164062 -12.5 18.3125 C -15.414062 22.539062 -16.875 24.90625 -16.875 25.40625 L -16.875 25.609375 C -16.832031 25.660156 -16.785156 25.6875 -16.734375 25.6875 C -16.234375 25.6875 -13.707031 22.453125 -9.15625 15.984375 C -3.414062 7.828125 1.140625 1.835938 4.515625 -1.984375 C 10.109375 -8.453125 14.410156 -11.6875 17.421875 -11.6875 C 18.828125 -11.6875 19.53125 -11.226562 19.53125 -10.3125 C 19.53125 -9.40625 18.585938 -7.914062 16.703125 -5.84375 C 14.816406 -3.769531 13.875 -2.414062 13.875 -1.78125 C 13.875 -1.363281 14.097656 -1.15625 14.546875 -1.15625 C 15.546875 -1.15625 17.1875 -2.078125 19.46875 -3.921875 C 21.75 -5.765625 23 -6.710938 23.21875 -6.765625 Z M 23.21875 -6.765625 "></path></g></g></g><g fill="#5f0000" fill-opacity="1"><g transform="translate(132.629444, 87.074073)"><g><path d="M 15.5 -6.6875 C 15.5 -6.550781 15.296875 -6.28125 14.890625 -5.875 C 13.203125 -4.144531 11.335938 -2.6875 9.296875 -1.5 C 6.878906 -0.09375 4.644531 0.609375 2.59375 0.609375 C 0.09375 0.609375 -1.15625 -0.226562 -1.15625 -1.90625 C -1.15625 -3.132812 -0.609375 -4.476562 0.484375 -5.9375 L 0.40625 -5.9375 C -0.226562 -5.257812 -0.660156 -4.921875 -0.890625 -4.921875 C -0.929688 -4.921875 -0.976562 -4.941406 -1.03125 -4.984375 L -1.03125 -5.125 C -1.03125 -5.125 -1.003906 -5.210938 -0.953125 -5.390625 C 0.316406 -6.804688 2.179688 -8.195312 4.640625 -9.5625 C 7.285156 -10.976562 9.453125 -11.6875 11.140625 -11.6875 C 12.453125 -11.6875 13.109375 -11.09375 13.109375 -9.90625 C 13.109375 -7.851562 9.671875 -5.734375 2.796875 -3.546875 C 2.523438 -2.640625 2.390625 -2.023438 2.390625 -1.703125 C 2.390625 -0.890625 2.914062 -0.484375 3.96875 -0.484375 C 5.375 -0.484375 7.035156 -1.03125 8.953125 -2.125 C 10.273438 -2.894531 11.707031 -3.914062 13.25 -5.1875 C 14.570312 -6.332031 15.253906 -6.90625 15.296875 -6.90625 C 15.429688 -6.90625 15.5 -6.832031 15.5 -6.6875 Z M 10.71875 -10.171875 C 10.71875 -10.585938 10.445312 -10.796875 9.90625 -10.796875 C 8.988281 -10.796875 7.734375 -9.929688 6.140625 -8.203125 C 4.910156 -6.878906 3.929688 -5.578125 3.203125 -4.296875 L 3.203125 -4.234375 C 8.210938 -5.828125 10.71875 -7.804688 10.71875 -10.171875 Z M 10.71875 -10.171875 "></path></g></g></g><g fill="#5f0000" fill-opacity="1"><g transform="translate(147.108146, 87.074073)"><g><path d="M 15.09375 -6.28125 C 15.09375 -5.6875 13.632812 -4.390625 10.71875 -2.390625 C 7.8125 -0.390625 5.128906 0.609375 2.671875 0.609375 C 0.253906 0.609375 -0.953125 -0.207031 -0.953125 -1.84375 C -0.953125 -3.257812 -0.289062 -4.785156 1.03125 -6.421875 L 0.953125 -6.421875 C 0.546875 -5.960938 -0.113281 -5.484375 -1.03125 -4.984375 L -1.03125 -5.125 C -1.03125 -5.21875 -1.003906 -5.304688 -0.953125 -5.390625 C 0.0859375 -6.671875 1.953125 -8.039062 4.640625 -9.5 C 7.328125 -10.957031 9.425781 -11.6875 10.9375 -11.6875 C 12.53125 -11.6875 13.328125 -11.046875 13.328125 -9.765625 C 13.328125 -9.085938 13.085938 -8.414062 12.609375 -7.75 C 12.128906 -7.09375 11.570312 -6.765625 10.9375 -6.765625 C 10.289062 -6.765625 9.96875 -7.082031 9.96875 -7.71875 C 9.96875 -7.988281 10.148438 -8.441406 10.515625 -9.078125 C 10.878906 -9.722656 11.0625 -10.203125 11.0625 -10.515625 C 11.0625 -10.835938 10.835938 -11 10.390625 -11 C 9.242188 -11 7.644531 -9.78125 5.59375 -7.34375 C 3.550781 -4.90625 2.53125 -3.050781 2.53125 -1.78125 C 2.53125 -0.914062 3.050781 -0.484375 4.09375 -0.484375 C 5.96875 -0.484375 8.257812 -1.460938 10.96875 -3.421875 C 13.675781 -5.378906 15.03125 -6.359375 15.03125 -6.359375 L 15.09375 -6.359375 Z M 15.09375 -6.28125 "></path></g></g></g><g fill="#5f0000" fill-opacity="1"><g transform="translate(161.655125, 87.074073)"><g><path d="M 15.09375 -6.28125 C 15.09375 -5.6875 13.632812 -4.390625 10.71875 -2.390625 C 7.8125 -0.390625 5.128906 0.609375 2.671875 0.609375 C 0.253906 0.609375 -0.953125 -0.207031 -0.953125 -1.84375 C -0.953125 -3.257812 -0.289062 -4.785156 1.03125 -6.421875 L 0.953125 -6.421875 C 0.546875 -5.960938 -0.113281 -5.484375 -1.03125 -4.984375 L -1.03125 -5.125 C -1.03125 -5.21875 -1.003906 -5.304688 -0.953125 -5.390625 C 0.0859375 -6.671875 1.953125 -8.039062 4.640625 -9.5 C 7.328125 -10.957031 9.425781 -11.6875 10.9375 -11.6875 C 12.53125 -11.6875 13.328125 -11.046875 13.328125 -9.765625 C 13.328125 -9.085938 13.085938 -8.414062 12.609375 -7.75 C 12.128906 -7.09375 11.570312 -6.765625 10.9375 -6.765625 C 10.289062 -6.765625 9.96875 -7.082031 9.96875 -7.71875 C 9.96875 -7.988281 10.148438 -8.441406 10.515625 -9.078125 C 10.878906 -9.722656 11.0625 -10.203125 11.0625 -10.515625 C 11.0625 -10.835938 10.835938 -11 10.390625 -11 C 9.242188 -11 7.644531 -9.78125 5.59375 -7.34375 C 3.550781 -4.90625 2.53125 -3.050781 2.53125 -1.78125 C 2.53125 -0.914062 3.050781 -0.484375 4.09375 -0.484375 C 5.96875 -0.484375 8.257812 -1.460938 10.96875 -3.421875 C 13.675781 -5.378906 15.03125 -6.359375 15.03125 -6.359375 L 15.09375 -6.359375 Z M 15.09375 -6.28125 "></path></g></g></g><g fill="#5f0000" fill-opacity="1"><g transform="translate(176.202104, 87.074073)"><g><path d="M 13.328125 -4.4375 L 13.1875 -4.09375 L 12.90625 -4.296875 C 12.457031 -5.023438 11.546875 -5.390625 10.171875 -5.390625 C 9.585938 -5.390625 8.734375 -5.285156 7.609375 -5.078125 C 6.492188 -4.878906 5.644531 -4.78125 5.0625 -4.78125 C 3.550781 -4.78125 2.726562 -5.144531 2.59375 -5.875 L 2.671875 -6.078125 L 2.796875 -6.078125 C 3.253906 -5.847656 3.664062 -5.734375 4.03125 -5.734375 C 4.800781 -5.734375 5.847656 -6.109375 7.171875 -6.859375 C 8.492188 -7.617188 9.539062 -8 10.3125 -8 C 12.363281 -8 13.367188 -6.8125 13.328125 -4.4375 Z M 13.328125 -4.4375 "></path></g></g></g><g fill="#5f0000" fill-opacity="1"><g transform="translate(192.934561, 87.074073)"><g><path d="M 22.203125 -6.6875 C 22.203125 -6.46875 21.492188 -5.71875 20.078125 -4.4375 C 18.941406 -3.4375 18.078125 -2.707031 17.484375 -2.25 C 15.117188 -0.476562 13.160156 0.40625 11.609375 0.40625 C 10.609375 0.40625 9.925781 0.0390625 9.5625 -0.6875 C 9.382812 -1.132812 9.296875 -1.929688 9.296875 -3.078125 C 9.296875 -4.765625 8.929688 -5.46875 8.203125 -5.1875 C 8.648438 -5.601562 9.332031 -5.8125 10.25 -5.8125 C 11.476562 -5.8125 12.238281 -5.046875 12.53125 -3.515625 C 12.832031 -1.992188 13.253906 -1.234375 13.796875 -1.234375 C 14.796875 -1.234375 16.378906 -2.140625 18.546875 -3.953125 C 20.710938 -5.773438 21.929688 -6.710938 22.203125 -6.765625 Z M 19.328125 -9.765625 C 19.328125 -8.398438 18.625 -7.71875 17.21875 -7.71875 C 16.164062 -7.71875 15.640625 -7.945312 15.640625 -8.40625 C 15.640625 -8.488281 15.71875 -8.703125 15.875 -9.046875 C 16.039062 -9.390625 16.125 -9.65625 16.125 -9.84375 C 16.125 -10.476562 15.78125 -10.796875 15.09375 -10.796875 C 13.40625 -10.796875 10.546875 -8.953125 6.515625 -5.265625 C 2.492188 -1.578125 0.00390625 0.265625 -0.953125 0.265625 C -1.503906 0.265625 -1.867188 0.195312 -2.046875 0.0625 C -2.046875 0.0195312 -2.046875 -0.0664062 -2.046875 -0.203125 C -2.046875 -1.390625 -0.429688 -3.988281 2.796875 -8 L 2.796875 -8.0625 C 1.109375 -6.375 0.0859375 -5.53125 -0.265625 -5.53125 C -0.359375 -5.53125 -0.40625 -5.554688 -0.40625 -5.609375 C -0.3125 -6.054688 0.835938 -7.191406 3.046875 -9.015625 C 5.253906 -10.835938 6.628906 -11.75 7.171875 -11.75 C 8.035156 -11.75 8.46875 -11.476562 8.46875 -10.9375 L 8.46875 -10.796875 C 7.28125 -9.109375 5.457031 -6.601562 3 -3.28125 L 3.140625 -3.203125 C 6.148438 -5.890625 8.203125 -7.644531 9.296875 -8.46875 C 12.160156 -10.613281 14.570312 -11.6875 16.53125 -11.6875 C 18.394531 -11.6875 19.328125 -11.046875 19.328125 -9.765625 Z M 19.328125 -9.765625 "></path></g></g></g><g fill="#5f0000" fill-opacity="1"><g transform="translate(214.242806, 87.074073)"><g><path d="M 17.890625 -6.625 C 17.890625 -6.082031 17.023438 -5.265625 15.296875 -4.171875 C 13.566406 -3.078125 12.363281 -2.53125 11.6875 -2.53125 C 11.09375 -2.53125 10.679688 -2.597656 10.453125 -2.734375 C 7.265625 -0.503906 4.671875 0.609375 2.671875 0.609375 C 0.429688 0.609375 -0.6875 -0.226562 -0.6875 -1.90625 C -0.6875 -3.59375 -0.046875 -5.164062 1.234375 -6.625 L 1.234375 -6.6875 C 0.046875 -5.507812 -0.679688 -4.921875 -0.953125 -4.921875 C -1.003906 -4.921875 -1.03125 -4.941406 -1.03125 -4.984375 L -1.03125 -5.125 C -1.03125 -5.125 -1.003906 -5.210938 -0.953125 -5.390625 C 0.453125 -6.898438 2.363281 -8.3125 4.78125 -9.625 C 7.375 -11 9.601562 -11.707031 11.46875 -11.75 L 11.890625 -11.40625 C 11.835938 -11.363281 11.585938 -11.226562 11.140625 -11 C 9.628906 -10.269531 7.828125 -8.832031 5.734375 -6.6875 C 3.410156 -4.320312 2.25 -2.4375 2.25 -1.03125 C 2.25 -0.382812 2.566406 -0.0625 3.203125 -0.0625 C 4.984375 -0.0625 7.101562 -1.453125 9.5625 -4.234375 C 10.15625 -6.597656 11.296875 -8.144531 12.984375 -8.875 C 13.117188 -9.195312 13.1875 -9.769531 13.1875 -10.59375 C 13.1875 -10.675781 13.148438 -10.796875 13.078125 -10.953125 C 13.015625 -11.117188 12.984375 -11.25 12.984375 -11.34375 C 12.984375 -11.519531 13.117188 -11.609375 13.390625 -11.609375 C 13.796875 -11.609375 14.144531 -11.320312 14.4375 -10.75 C 14.738281 -10.1875 14.890625 -9.675781 14.890625 -9.21875 C 14.890625 -7.625 13.59375 -5.617188 11 -3.203125 C 11.132812 -3.160156 11.269531 -3.140625 11.40625 -3.140625 C 12.457031 -3.140625 13.640625 -3.6875 14.953125 -4.78125 C 16.460938 -6.007812 17.421875 -6.671875 17.828125 -6.765625 C 17.867188 -6.710938 17.890625 -6.664062 17.890625 -6.625 Z M 17.890625 -6.625 "></path></g></g></g><g fill="#5f0000" fill-opacity="1"><g transform="translate(231.180127, 87.074073)"><g><path d="M 20.421875 -6.6875 C 20.421875 -6.007812 18.554688 -4.394531 14.828125 -1.84375 C 12.367188 -0.113281 10.09375 1.363281 8 2.59375 C 0.113281 14.4375 -7.695312 22.335938 -15.4375 26.296875 C -17.300781 27.253906 -18.875 27.734375 -20.15625 27.734375 C -22.34375 27.734375 -23.4375 26.9375 -23.4375 25.34375 C -23.4375 23.25 -21.453125 20.5625 -17.484375 17.28125 C -14.617188 14.863281 -10.613281 12.0625 -5.46875 8.875 C -2.226562 6.96875 1.023438 5.035156 4.296875 3.078125 C 5.390625 1.617188 6.828125 -0.453125 8.609375 -3.140625 L 8.609375 -3.203125 C 5.734375 -0.796875 3.25 0.40625 1.15625 0.40625 C -0.570312 0.40625 -1.4375 -0.34375 -1.4375 -1.84375 C -1.4375 -3.300781 -0.796875 -4.644531 0.484375 -5.875 L 0.484375 -5.9375 C -0.335938 -5.257812 -0.796875 -4.921875 -0.890625 -4.921875 C -0.929688 -4.921875 -0.976562 -4.941406 -1.03125 -4.984375 L -1.03125 -5.125 C -1.03125 -5.125 -1.003906 -5.210938 -0.953125 -5.390625 C 0.273438 -6.804688 2.195312 -8.207031 4.8125 -9.59375 C 7.4375 -10.988281 9.613281 -11.6875 11.34375 -11.6875 C 12.976562 -11.6875 13.707031 -10.910156 13.53125 -9.359375 L 13.59375 -9.359375 C 14.957031 -10.910156 16.050781 -11.6875 16.875 -11.6875 C 17.695312 -11.6875 18.109375 -11.523438 18.109375 -11.203125 C 18.109375 -11.066406 17.753906 -10.578125 17.046875 -9.734375 C 16.335938 -8.890625 13.523438 -5.144531 8.609375 1.5 L 8.609375 1.578125 L 11.75 -0.484375 C 13.800781 -1.796875 15.597656 -3.066406 17.140625 -4.296875 C 17.734375 -4.941406 18.804688 -5.785156 20.359375 -6.828125 C 20.398438 -6.785156 20.421875 -6.738281 20.421875 -6.6875 Z M 12.90625 -9.765625 C 12.90625 -10.585938 12.5 -11 11.6875 -11 C 10.5 -11 8.515625 -9.6875 5.734375 -7.0625 C 2.960938 -4.445312 1.578125 -2.570312 1.578125 -1.4375 C 1.578125 -0.882812 1.894531 -0.609375 2.53125 -0.609375 C 3.851562 -0.609375 5.910156 -1.835938 8.703125 -4.296875 C 11.503906 -6.765625 12.90625 -8.585938 12.90625 -9.765625 Z M 3.6875 4.234375 L 3.6875 4.171875 C -5.1875 9.765625 -10.015625 12.835938 -10.796875 13.390625 C -17.628906 18.304688 -21.046875 22.222656 -21.046875 25.140625 C -21.046875 26.273438 -20.40625 26.84375 -19.125 26.84375 C -14.707031 26.84375 -7.101562 19.304688 3.6875 4.234375 Z M 3.6875 4.234375 "></path></g></g></g><g fill="#5f0000" fill-opacity="1"><g transform="translate(250.644408, 87.074073)"><g><path d="M 8.53125 -9.015625 C 8.53125 -8.378906 8.085938 -7.738281 7.203125 -7.09375 C 6.316406 -6.457031 5.53125 -6.140625 4.84375 -6.140625 C 4.664062 -6.328125 4.578125 -6.671875 4.578125 -7.171875 C 4.578125 -8.898438 5.535156 -9.765625 7.453125 -9.765625 C 8.171875 -9.765625 8.53125 -9.515625 8.53125 -9.015625 Z M 5.265625 -2.25 C 5.265625 -1.613281 4.816406 -0.976562 3.921875 -0.34375 C 3.035156 0.289062 2.253906 0.609375 1.578125 0.609375 C 1.390625 0.429688 1.296875 0.09375 1.296875 -0.40625 C 1.296875 -2.132812 2.253906 -3 4.171875 -3 C 4.898438 -3 5.265625 -2.75 5.265625 -2.25 Z M 5.265625 -2.25 "></path></g></g></g></g></g></svg> 