<?xml version="1.0" encoding="UTF-8"?> <svg xmlns="http://www.w3.org/2000/svg" xmlns:xlink="http://www.w3.org/1999/xlink" width="360" zoomAndPan="magnify" viewBox="0 0 270 359.999987" height="480" preserveAspectRatio="xMidYMid meet" version="1.0"><defs><g></g><clipPath id="7bf6f9333e"><rect x="0" width="270" y="0" height="277"></rect></clipPath></defs><g transform="matrix(1, 0, 0, 1, -0, 41)"><g clip-path="url(#7bf6f9333e)"><g fill="#000000" fill-opacity="1"><g transform="translate(135.217659, 245.691685)"><g><path d="M -18.875 0.484375 C -18.851562 0.285156 -18.851562 0.0664062 -18.875 -0.171875 C -18.894531 -0.410156 -18.953125 -0.632812 -19.046875 -0.84375 C -19.140625 -1.050781 -19.25 -1.234375 -19.375 -1.390625 C -19.5 -1.554688 -19.660156 -1.648438 -19.859375 -1.671875 L -19.828125 -2.046875 L -15.03125 -1.546875 L -15.0625 -1.171875 C -15.257812 -1.191406 -15.4375 -1.140625 -15.59375 -1.015625 C -15.757812 -0.898438 -15.898438 -0.742188 -16.015625 -0.546875 C -16.140625 -0.347656 -16.238281 -0.132812 -16.3125 0.09375 C -16.382812 0.320312 -16.429688 0.535156 -16.453125 0.734375 L -17.484375 10.734375 L -10 -1.359375 L -5.3125 11.234375 L -4.359375 1.984375 C -4.335938 1.785156 -4.335938 1.566406 -4.359375 1.328125 C -4.390625 1.085938 -4.441406 0.863281 -4.515625 0.65625 C -4.585938 0.445312 -4.6875 0.257812 -4.8125 0.09375 C -4.945312 -0.0625 -5.113281 -0.148438 -5.3125 -0.171875 L -5.28125 -0.546875 L -1.703125 -0.171875 L -1.734375 0.203125 C -1.929688 0.179688 -2.109375 0.234375 -2.265625 0.359375 C -2.429688 0.492188 -2.566406 0.65625 -2.671875 0.84375 C -2.785156 1.03125 -2.878906 1.238281 -2.953125 1.46875 C -3.023438 1.695312 -3.070312 1.910156 -3.09375 2.109375 L -4.203125 12.953125 C -4.253906 13.390625 -4.242188 13.820312 -4.171875 14.25 C -4.109375 14.6875 -3.804688 14.9375 -3.265625 15 L -3.3125 15.375 L -6.59375 15.03125 L -11.0625 2.875 L -17.921875 13.859375 L -21.4375 13.5 L -21.390625 13.125 C -21.015625 13.164062 -20.695312 12.96875 -20.4375 12.53125 C -20.175781 12.09375 -20.023438 11.691406 -19.984375 11.328125 Z M -18.875 0.484375 "></path></g></g></g><g fill="#000000" fill-opacity="1"><g transform="translate(114.96949, 243.554572)"><g><path d="M -5.90625 -7.171875 C -5.289062 -8.085938 -4.675781 -8.648438 -4.0625 -8.859375 C -3.445312 -9.078125 -2.867188 -9.109375 -2.328125 -8.953125 C -1.960938 -8.859375 -1.648438 -8.707031 -1.390625 -8.5 C -1.140625 -8.300781 -0.925781 -8.101562 -0.75 -7.90625 C -0.582031 -7.707031 -0.457031 -7.53125 -0.375 -7.375 C -0.300781 -7.226562 -0.265625 -7.15625 -0.265625 -7.15625 L -2.265625 -4.578125 C -2.253906 -4.992188 -2.285156 -5.351562 -2.359375 -5.65625 C -2.421875 -5.925781 -2.53125 -6.179688 -2.6875 -6.421875 C -2.84375 -6.671875 -3.078125 -6.84375 -3.390625 -6.9375 C -3.960938 -7.09375 -4.53125 -6.800781 -5.09375 -6.0625 L -8.046875 -2.140625 L -5.96875 12.515625 C -5.894531 12.960938 -5.800781 13.367188 -5.6875 13.734375 C -5.570312 14.109375 -5.269531 14.363281 -4.78125 14.5 L -4.890625 14.859375 L -9.515625 13.5625 L -9.40625 13.203125 C -9.3125 13.222656 -9.171875 13.171875 -8.984375 13.046875 C -8.796875 12.921875 -8.664062 12.726562 -8.59375 12.46875 C -8.53125 12.28125 -8.523438 12.078125 -8.578125 11.859375 L -10.140625 0.46875 L -17.28125 9.65625 C -17.394531 9.800781 -17.46875 9.945312 -17.5 10.09375 C -17.570312 10.332031 -17.550781 10.539062 -17.4375 10.71875 C -17.320312 10.90625 -17.175781 11.023438 -17 11.078125 L -17.109375 11.4375 L -20.59375 10.453125 L -20.484375 10.09375 C -20.097656 10.207031 -19.722656 10.140625 -19.359375 9.890625 C -18.992188 9.640625 -18.675781 9.335938 -18.40625 8.984375 Z M -5.90625 -7.171875 "></path></g></g></g><g fill="#000000" fill-opacity="1"><g transform="translate(99.227329, 239.108244)"><g><path d="M -15.625 6.265625 C -15.382812 5.722656 -14.890625 5.242188 -14.140625 4.828125 C -13.390625 4.410156 -12.523438 4.191406 -11.546875 4.171875 C -12.703125 3.347656 -13.410156 2.476562 -13.671875 1.5625 C -13.941406 0.644531 -13.914062 -0.179688 -13.59375 -0.921875 C -13.28125 -1.628906 -12.835938 -2.179688 -12.265625 -2.578125 C -11.691406 -2.972656 -11.035156 -3.222656 -10.296875 -3.328125 C -9.566406 -3.441406 -8.789062 -3.429688 -7.96875 -3.296875 C -7.144531 -3.160156 -6.332031 -2.921875 -5.53125 -2.578125 C -4.78125 -2.253906 -4.140625 -1.890625 -3.609375 -1.484375 C -3.078125 -1.078125 -2.632812 -0.691406 -2.28125 -0.328125 C -1.9375 0.0234375 -1.648438 0.335938 -1.421875 0.609375 C -1.203125 0.890625 -1.007812 1.066406 -0.84375 1.140625 L -2.046875 3.90625 L -2.359375 3.765625 C -2.203125 3.265625 -2.175781 2.765625 -2.28125 2.265625 C -2.394531 1.765625 -2.601562 1.296875 -2.90625 0.859375 C -3.21875 0.421875 -3.613281 0.015625 -4.09375 -0.359375 C -4.570312 -0.734375 -5.09375 -1.039062 -5.65625 -1.28125 C -6.175781 -1.507812 -6.710938 -1.675781 -7.265625 -1.78125 C -7.828125 -1.894531 -8.359375 -1.914062 -8.859375 -1.84375 C -9.367188 -1.78125 -9.828125 -1.617188 -10.234375 -1.359375 C -10.640625 -1.109375 -10.945312 -0.742188 -11.15625 -0.265625 C -11.375 0.222656 -11.4375 0.726562 -11.34375 1.25 C -11.25 1.769531 -11.035156 2.265625 -10.703125 2.734375 C -10.367188 3.203125 -9.96875 3.613281 -9.5 3.96875 C -9.03125 4.332031 -8.53125 4.628906 -8 4.859375 L -6.921875 5.34375 L -7.390625 6.453125 L -8.578125 5.9375 C -9.054688 5.726562 -9.550781 5.601562 -10.0625 5.5625 C -10.570312 5.519531 -11.039062 5.554688 -11.46875 5.671875 C -11.894531 5.785156 -12.273438 5.960938 -12.609375 6.203125 C -12.953125 6.453125 -13.195312 6.75 -13.34375 7.09375 C -13.519531 7.507812 -13.570312 7.921875 -13.5 8.328125 C -13.425781 8.742188 -13.253906 9.140625 -12.984375 9.515625 C -12.722656 9.898438 -12.394531 10.25 -12 10.5625 C -11.613281 10.882812 -11.179688 11.148438 -10.703125 11.359375 C -10.273438 11.546875 -9.832031 11.675781 -9.375 11.75 C -8.925781 11.832031 -8.488281 11.832031 -8.0625 11.75 C -7.632812 11.664062 -7.234375 11.5 -6.859375 11.25 C -6.492188 11.007812 -6.175781 10.664062 -5.90625 10.21875 L -5.59375 10.34375 L -6.765625 13 C -6.941406 12.925781 -7.117188 12.878906 -7.296875 12.859375 C -7.484375 12.847656 -7.707031 12.859375 -7.96875 12.890625 C -8.40625 12.921875 -8.921875 12.90625 -9.515625 12.84375 C -10.117188 12.78125 -10.816406 12.578125 -11.609375 12.234375 C -13.390625 11.460938 -14.625 10.546875 -15.3125 9.484375 C -16 8.429688 -16.101562 7.359375 -15.625 6.265625 Z M -15.625 6.265625 "></path></g></g></g><g fill="#000000" fill-opacity="1"><g transform="translate(87.356406, 234.512371)"><g><path d="M -14.328125 -9.28125 L -14.53125 -8.96875 C -14.6875 -9.0625 -14.859375 -9.09375 -15.046875 -9.0625 C -15.242188 -9.03125 -15.445312 -8.957031 -15.65625 -8.84375 C -15.875 -8.726562 -16.066406 -8.582031 -16.234375 -8.40625 C -16.398438 -8.238281 -16.535156 -8.070312 -16.640625 -7.90625 L -22.5625 1.234375 C -22.65625 1.378906 -22.742188 1.554688 -22.828125 1.765625 C -22.921875 1.984375 -22.96875 2.207031 -22.96875 2.4375 C -22.976562 2.664062 -22.960938 2.878906 -22.921875 3.078125 C -22.878906 3.273438 -22.78125 3.421875 -22.625 3.515625 L -22.828125 3.828125 L -26.890625 1.203125 L -26.6875 0.890625 C -26.375 1.085938 -26 1.050781 -25.5625 0.78125 C -25.125 0.519531 -24.800781 0.234375 -24.59375 -0.078125 L -18.671875 -9.21875 C -18.566406 -9.382812 -18.46875 -9.578125 -18.375 -9.796875 C -18.289062 -10.023438 -18.238281 -10.253906 -18.21875 -10.484375 C -18.207031 -10.710938 -18.222656 -10.925781 -18.265625 -11.125 C -18.316406 -11.332031 -18.425781 -11.488281 -18.59375 -11.59375 L -18.390625 -11.90625 Z M -11.78125 2.921875 C -13.6875 1.679688 -14.875 0.410156 -15.34375 -0.890625 C -15.8125 -2.203125 -15.707031 -3.378906 -15.03125 -4.421875 C -14.695312 -4.941406 -14.257812 -5.351562 -13.71875 -5.65625 C -13.1875 -5.957031 -12.570312 -6.117188 -11.875 -6.140625 C -11.1875 -6.171875 -10.414062 -6.046875 -9.5625 -5.765625 C -8.707031 -5.492188 -7.78125 -5.035156 -6.78125 -4.390625 L -1.46875 -0.953125 L -1.671875 -0.640625 C -1.816406 -0.734375 -1.988281 -0.757812 -2.1875 -0.71875 C -2.382812 -0.6875 -2.585938 -0.613281 -2.796875 -0.5 C -3.003906 -0.382812 -3.191406 -0.238281 -3.359375 -0.0625 C -3.535156 0.101562 -3.675781 0.269531 -3.78125 0.4375 L -9.703125 9.578125 C -9.796875 9.722656 -9.882812 9.898438 -9.96875 10.109375 C -10.050781 10.328125 -10.097656 10.550781 -10.109375 10.78125 C -10.117188 11.007812 -10.097656 11.21875 -10.046875 11.40625 C -10.003906 11.601562 -9.910156 11.75 -9.765625 11.84375 L -9.96875 12.15625 L -14.015625 9.53125 L -13.8125 9.21875 C -13.507812 9.414062 -13.140625 9.382812 -12.703125 9.125 C -12.265625 8.863281 -11.941406 8.578125 -11.734375 8.265625 L -9.3125 4.53125 Z M -7.390625 -3.3125 C -8.753906 -4.207031 -9.890625 -4.628906 -10.796875 -4.578125 C -11.703125 -4.523438 -12.375 -4.164062 -12.8125 -3.5 C -13.050781 -3.125 -13.203125 -2.703125 -13.265625 -2.234375 C -13.328125 -1.765625 -13.28125 -1.273438 -13.125 -0.765625 C -12.976562 -0.265625 -12.707031 0.234375 -12.3125 0.734375 C -11.925781 1.234375 -11.410156 1.691406 -10.765625 2.109375 L -8.640625 3.5 L -5.171875 -1.875 Z M -7.390625 -3.3125 "></path></g></g></g><g fill="#000000" fill-opacity="1"><g transform="translate(68.728711, 222.242203)"><g><path d="M -11.453125 -6.703125 C -11.378906 -7.003906 -11.328125 -7.347656 -11.296875 -7.734375 C -11.273438 -8.117188 -11.296875 -8.507812 -11.359375 -8.90625 C -11.421875 -9.300781 -11.507812 -9.664062 -11.625 -10 C -11.75 -10.332031 -11.921875 -10.597656 -12.140625 -10.796875 L -11.890625 -11.078125 L -10.859375 -10.125 C -10.015625 -9.34375 -9.523438 -8.566406 -9.390625 -7.796875 C -9.253906 -7.035156 -9.285156 -6.300781 -9.484375 -5.59375 L -10.453125 -1.984375 C -10.609375 -1.410156 -10.582031 -0.757812 -10.375 -0.03125 C -10.175781 0.6875 -9.8125 1.289062 -9.28125 1.78125 L -5.671875 -2.078125 C -5.535156 -2.222656 -5.40625 -2.390625 -5.28125 -2.578125 C -5.15625 -2.773438 -5.0625 -2.976562 -5 -3.1875 C -4.9375 -3.394531 -4.910156 -3.597656 -4.921875 -3.796875 C -4.941406 -4.003906 -5.023438 -4.175781 -5.171875 -4.3125 L -4.921875 -4.59375 L -1.421875 -1.328125 L -1.671875 -1.046875 C -1.785156 -1.148438 -1.945312 -1.207031 -2.15625 -1.21875 C -2.375 -1.238281 -2.585938 -1.210938 -2.796875 -1.140625 C -3.003906 -1.066406 -3.203125 -0.960938 -3.390625 -0.828125 C -3.578125 -0.691406 -3.738281 -0.550781 -3.875 -0.40625 L -11.34375 7.59375 C -11.457031 7.71875 -11.578125 7.878906 -11.703125 8.078125 C -11.828125 8.285156 -11.925781 8.488281 -12 8.6875 C -12.070312 8.894531 -12.097656 9.097656 -12.078125 9.296875 C -12.054688 9.503906 -11.96875 9.679688 -11.8125 9.828125 L -12.078125 10.09375 L -15.5625 6.84375 L -15.296875 6.578125 C -15.160156 6.703125 -15 6.757812 -14.8125 6.75 C -14.625 6.75 -14.425781 6.707031 -14.21875 6.625 C -14.007812 6.550781 -13.804688 6.445312 -13.609375 6.3125 C -13.410156 6.175781 -13.253906 6.046875 -13.140625 5.921875 L -10.53125 3.125 C -11.945312 3.0625 -13.335938 3 -14.703125 2.9375 C -16.066406 2.875 -17.457031 2.828125 -18.875 2.796875 C -18.894531 2.804688 -18.921875 2.8125 -18.953125 2.8125 C -18.992188 2.820312 -19.019531 2.832031 -19.03125 2.84375 C -19.113281 2.9375 -19.109375 3.023438 -19.015625 3.109375 L -19.28125 3.375 L -21.65625 1.171875 L -21.390625 0.90625 C -21.296875 0.988281 -21.160156 1.0625 -20.984375 1.125 C -20.816406 1.195312 -20.628906 1.25 -20.421875 1.28125 C -20.210938 1.351562 -19.988281 1.40625 -19.75 1.4375 C -18.28125 1.5 -16.800781 1.550781 -15.3125 1.59375 C -13.832031 1.644531 -12.367188 1.710938 -10.921875 1.796875 C -11.703125 1.066406 -12.203125 0.320312 -12.421875 -0.4375 C -12.648438 -1.207031 -12.644531 -2.0625 -12.40625 -3 Z M -11.453125 -6.703125 "></path></g></g></g><g fill="#000000" fill-opacity="1"><g transform="translate(57.358256, 211.788178)"><g><path d="M -7.1875 -8.984375 L -8.65625 -7.796875 L -8.40625 -7.75 C -7.53125 -7.65625 -6.707031 -7.40625 -5.9375 -7 C -5.164062 -6.59375 -4.421875 -5.941406 -3.703125 -5.046875 C -3.160156 -4.378906 -2.769531 -3.738281 -2.53125 -3.125 C -2.300781 -2.519531 -2.203125 -1.945312 -2.234375 -1.40625 C -2.265625 -0.863281 -2.40625 -0.375 -2.65625 0.0625 C -2.914062 0.5 -3.25 0.878906 -3.65625 1.203125 C -4.320312 1.734375 -5.046875 2.019531 -5.828125 2.0625 C -6.617188 2.101562 -7.476562 1.941406 -8.40625 1.578125 C -9.332031 1.222656 -10.347656 0.679688 -11.453125 -0.046875 C -12.554688 -0.773438 -13.769531 -1.644531 -15.09375 -2.65625 C -15.8125 -2.019531 -16.296875 -1.375 -16.546875 -0.71875 C -16.796875 -0.0703125 -16.90625 0.535156 -16.875 1.109375 C -16.84375 1.679688 -16.703125 2.203125 -16.453125 2.671875 C -16.210938 3.148438 -15.976562 3.535156 -15.75 3.828125 C -15.34375 4.328125 -14.914062 4.710938 -14.46875 4.984375 C -14.019531 5.265625 -13.554688 5.453125 -13.078125 5.546875 C -12.597656 5.640625 -12.125 5.65625 -11.65625 5.59375 C -11.195312 5.53125 -10.78125 5.425781 -10.40625 5.28125 L -10.203125 5.546875 L -12.46875 7.359375 C -12.601562 7.179688 -12.828125 7.023438 -13.140625 6.890625 C -13.453125 6.753906 -13.8125 6.585938 -14.21875 6.390625 C -14.632812 6.203125 -15.085938 5.929688 -15.578125 5.578125 C -16.066406 5.222656 -16.566406 4.722656 -17.078125 4.078125 C -17.929688 3.015625 -18.484375 2.046875 -18.734375 1.171875 C -18.992188 0.304688 -19.039062 -0.484375 -18.875 -1.203125 C -18.71875 -1.921875 -18.398438 -2.566406 -17.921875 -3.140625 C -17.453125 -3.710938 -16.914062 -4.238281 -16.3125 -4.71875 L -10.5625 -9.3125 C -10.175781 -9.625 -9.890625 -10.015625 -9.703125 -10.484375 C -9.523438 -10.953125 -9.566406 -11.347656 -9.828125 -11.671875 L -9.53125 -11.90625 Z M -9.9375 -6.78125 L -14.109375 -3.453125 L -13.8125 -3.203125 C -13.320312 -2.828125 -12.707031 -2.382812 -11.96875 -1.875 C -11.238281 -1.363281 -10.476562 -0.929688 -9.6875 -0.578125 C -8.90625 -0.222656 -8.128906 -0.00390625 -7.359375 0.078125 C -6.597656 0.160156 -5.9375 -0.0195312 -5.375 -0.46875 C -4.757812 -0.957031 -4.445312 -1.617188 -4.4375 -2.453125 C -4.4375 -3.285156 -4.765625 -4.109375 -5.421875 -4.921875 C -5.921875 -5.554688 -6.503906 -6.003906 -7.171875 -6.265625 C -7.847656 -6.523438 -8.578125 -6.675781 -9.359375 -6.71875 Z M -9.9375 -6.78125 "></path></g></g></g><g fill="#000000" fill-opacity="1"><g transform="translate(47.536232, 199.26657)"><g></g></g></g><g fill="#000000" fill-opacity="1"><g transform="translate(42.62134, 192.37173)"><g><path d="M -9.890625 -16.0625 C -9.710938 -16.144531 -9.523438 -16.253906 -9.328125 -16.390625 C -9.128906 -16.535156 -8.960938 -16.703125 -8.828125 -16.890625 C -8.691406 -17.078125 -8.585938 -17.265625 -8.515625 -17.453125 C -8.453125 -17.648438 -8.457031 -17.835938 -8.53125 -18.015625 L -8.1875 -18.171875 L -6.203125 -13.78125 L -6.546875 -13.625 C -6.628906 -13.800781 -6.765625 -13.925781 -6.953125 -14 C -7.140625 -14.070312 -7.347656 -14.113281 -7.578125 -14.125 C -7.804688 -14.132812 -8.039062 -14.113281 -8.28125 -14.0625 C -8.519531 -14.007812 -8.726562 -13.941406 -8.90625 -13.859375 L -18.0625 -9.734375 L -3.84375 -9.328125 L -12.390625 1.046875 L -3.90625 -2.765625 C -3.726562 -2.847656 -3.539062 -2.960938 -3.34375 -3.109375 C -3.144531 -3.253906 -2.972656 -3.410156 -2.828125 -3.578125 C -2.679688 -3.753906 -2.570312 -3.9375 -2.5 -4.125 C -2.4375 -4.320312 -2.445312 -4.507812 -2.53125 -4.6875 L -2.1875 -4.84375 L -0.703125 -1.5625 L -1.046875 -1.40625 C -1.128906 -1.59375 -1.265625 -1.722656 -1.453125 -1.796875 C -1.648438 -1.867188 -1.859375 -1.90625 -2.078125 -1.90625 C -2.296875 -1.90625 -2.519531 -1.875 -2.75 -1.8125 C -2.988281 -1.757812 -3.195312 -1.691406 -3.375 -1.609375 L -13.3125 2.859375 C -13.71875 3.046875 -14.09375 3.273438 -14.4375 3.546875 C -14.78125 3.816406 -14.835938 4.203125 -14.609375 4.703125 L -14.953125 4.859375 L -16.3125 1.84375 L -8.03125 -8.125 L -21 -8.53125 L -22.4375 -11.75 L -22.09375 -11.90625 C -21.945312 -11.5625 -21.617188 -11.382812 -21.109375 -11.375 C -20.597656 -11.363281 -20.171875 -11.4375 -19.828125 -11.59375 Z M -9.890625 -16.0625 "></path></g></g></g><g fill="#000000" fill-opacity="1"><g transform="translate(34.294008, 173.795401)"><g><path d="M 3.234375 -8.703125 C 4.328125 -8.640625 5.125 -8.394531 5.625 -7.96875 C 6.125 -7.539062 6.441406 -7.054688 6.578125 -6.515625 C 6.671875 -6.148438 6.691406 -5.804688 6.640625 -5.484375 C 6.597656 -5.160156 6.53125 -4.875 6.4375 -4.625 C 6.351562 -4.375 6.265625 -4.175781 6.171875 -4.03125 C 6.085938 -3.894531 6.046875 -3.828125 6.046875 -3.828125 L 2.8125 -4.265625 C 3.175781 -4.460938 3.46875 -4.664062 3.6875 -4.875 C 3.894531 -5.0625 4.066406 -5.285156 4.203125 -5.546875 C 4.335938 -5.816406 4.367188 -6.109375 4.296875 -6.421875 C 4.140625 -6.992188 3.601562 -7.34375 2.6875 -7.46875 L -2.1875 -8.03125 L -13.8125 1.125 C -14.164062 1.414062 -14.472656 1.703125 -14.734375 1.984375 C -14.992188 2.265625 -15.0625 2.644531 -14.9375 3.125 L -15.296875 3.21875 L -16.5 -1.421875 L -16.140625 -1.515625 C -16.117188 -1.421875 -16.003906 -1.320312 -15.796875 -1.21875 C -15.597656 -1.113281 -15.367188 -1.09375 -15.109375 -1.15625 C -14.910156 -1.207031 -14.726562 -1.3125 -14.5625 -1.46875 L -5.5 -8.53125 L -17.03125 -10.078125 C -17.21875 -10.109375 -17.382812 -10.109375 -17.53125 -10.078125 C -17.769531 -10.015625 -17.9375 -9.882812 -18.03125 -9.6875 C -18.132812 -9.5 -18.164062 -9.320312 -18.125 -9.15625 L -18.484375 -9.0625 L -19.375 -12.546875 L -19.015625 -12.640625 C -18.921875 -12.265625 -18.675781 -11.976562 -18.28125 -11.78125 C -17.882812 -11.582031 -17.457031 -11.457031 -17 -11.40625 Z M 3.234375 -8.703125 "></path></g></g></g><g fill="#000000" fill-opacity="1"><g transform="translate(30.23183, 157.946856)"><g><path d="M -13.28125 -10.359375 C -12.6875 -10.429688 -12.019531 -10.25 -11.28125 -9.8125 C -10.539062 -9.375 -9.914062 -8.734375 -9.40625 -7.890625 C -9.28125 -9.304688 -8.890625 -10.351562 -8.234375 -11.03125 C -7.578125 -11.71875 -6.84375 -12.109375 -6.03125 -12.203125 C -5.269531 -12.296875 -4.570312 -12.191406 -3.9375 -11.890625 C -3.300781 -11.597656 -2.75 -11.160156 -2.28125 -10.578125 C -1.820312 -10.003906 -1.441406 -9.328125 -1.140625 -8.546875 C -0.847656 -7.765625 -0.648438 -6.9375 -0.546875 -6.0625 C -0.453125 -5.257812 -0.445312 -4.53125 -0.53125 -3.875 C -0.625 -3.21875 -0.734375 -2.640625 -0.859375 -2.140625 C -0.992188 -1.648438 -1.117188 -1.242188 -1.234375 -0.921875 C -1.359375 -0.597656 -1.410156 -0.347656 -1.390625 -0.171875 L -4.390625 0.171875 L -4.4375 -0.171875 C -3.925781 -0.273438 -3.484375 -0.492188 -3.109375 -0.828125 C -2.734375 -1.171875 -2.429688 -1.585938 -2.203125 -2.078125 C -1.972656 -2.578125 -1.816406 -3.125 -1.734375 -3.71875 C -1.660156 -4.3125 -1.660156 -4.914062 -1.734375 -5.53125 C -1.796875 -6.09375 -1.921875 -6.640625 -2.109375 -7.171875 C -2.296875 -7.710938 -2.546875 -8.1875 -2.859375 -8.59375 C -3.171875 -9 -3.539062 -9.316406 -3.96875 -9.546875 C -4.394531 -9.773438 -4.863281 -9.859375 -5.375 -9.796875 C -5.914062 -9.734375 -6.382812 -9.523438 -6.78125 -9.171875 C -7.175781 -8.828125 -7.492188 -8.398438 -7.734375 -7.890625 C -7.972656 -7.378906 -8.128906 -6.820312 -8.203125 -6.21875 C -8.285156 -5.613281 -8.296875 -5.03125 -8.234375 -4.46875 L -8.09375 -3.28125 L -9.28125 -3.140625 L -9.4375 -4.4375 C -9.488281 -4.945312 -9.628906 -5.4375 -9.859375 -5.90625 C -10.085938 -6.375 -10.359375 -6.765625 -10.671875 -7.078125 C -10.984375 -7.390625 -11.328125 -7.628906 -11.703125 -7.796875 C -12.085938 -7.960938 -12.46875 -8.019531 -12.84375 -7.96875 C -13.289062 -7.925781 -13.671875 -7.765625 -13.984375 -7.484375 C -14.296875 -7.210938 -14.550781 -6.863281 -14.75 -6.4375 C -14.957031 -6.019531 -15.097656 -5.5625 -15.171875 -5.0625 C -15.253906 -4.5625 -15.265625 -4.054688 -15.203125 -3.546875 C -15.148438 -3.078125 -15.039062 -2.628906 -14.875 -2.203125 C -14.71875 -1.773438 -14.492188 -1.394531 -14.203125 -1.0625 C -13.910156 -0.726562 -13.566406 -0.46875 -13.171875 -0.28125 C -12.785156 -0.09375 -12.328125 0.0078125 -11.796875 0.03125 L -11.75 0.359375 L -14.640625 0.6875 C -14.671875 0.5 -14.726562 0.320312 -14.8125 0.15625 C -14.894531 -0.0078125 -15.007812 -0.195312 -15.15625 -0.40625 C -15.382812 -0.78125 -15.625 -1.238281 -15.875 -1.78125 C -16.125 -2.332031 -16.300781 -3.039062 -16.40625 -3.90625 C -16.625 -5.820312 -16.453125 -7.34375 -15.890625 -8.46875 C -15.328125 -9.59375 -14.457031 -10.222656 -13.28125 -10.359375 Z M -13.28125 -10.359375 "></path></g></g></g><g fill="#000000" fill-opacity="1"><g transform="translate(28.24021, 145.376617)"><g><path d="M 0.828125 -17.0625 L 0.453125 -17.078125 C 0.460938 -17.253906 0.398438 -17.414062 0.265625 -17.5625 C 0.140625 -17.71875 -0.0195312 -17.859375 -0.21875 -17.984375 C -0.425781 -18.109375 -0.644531 -18.203125 -0.875 -18.265625 C -1.113281 -18.328125 -1.332031 -18.359375 -1.53125 -18.359375 L -12.40625 -18.890625 C -12.582031 -18.898438 -12.785156 -18.882812 -13.015625 -18.84375 C -13.242188 -18.8125 -13.457031 -18.742188 -13.65625 -18.640625 C -13.863281 -18.535156 -14.035156 -18.410156 -14.171875 -18.265625 C -14.316406 -18.128906 -14.394531 -17.972656 -14.40625 -17.796875 L -14.78125 -17.8125 L -14.546875 -22.625 L -14.171875 -22.609375 C -14.191406 -22.242188 -13.976562 -21.9375 -13.53125 -21.6875 C -13.082031 -21.445312 -12.671875 -21.316406 -12.296875 -21.296875 L -1.421875 -20.765625 C -1.222656 -20.765625 -1.003906 -20.78125 -0.765625 -20.8125 C -0.523438 -20.84375 -0.300781 -20.910156 -0.09375 -21.015625 C 0.113281 -21.128906 0.289062 -21.253906 0.4375 -21.390625 C 0.59375 -21.523438 0.675781 -21.691406 0.6875 -21.890625 L 1.0625 -21.875 Z M -8.4375 -8.703125 C -8.332031 -10.984375 -7.832031 -12.65625 -6.9375 -13.71875 C -6.039062 -14.789062 -4.972656 -15.296875 -3.734375 -15.234375 C -3.109375 -15.203125 -2.53125 -15.03125 -2 -14.71875 C -1.46875 -14.40625 -1.015625 -13.953125 -0.640625 -13.359375 C -0.273438 -12.773438 0 -12.039062 0.1875 -11.15625 C 0.382812 -10.28125 0.453125 -9.25 0.390625 -8.0625 L 0.078125 -1.75 L -0.296875 -1.765625 C -0.285156 -1.941406 -0.34375 -2.101562 -0.46875 -2.25 C -0.59375 -2.40625 -0.753906 -2.546875 -0.953125 -2.671875 C -1.160156 -2.796875 -1.382812 -2.890625 -1.625 -2.953125 C -1.863281 -3.015625 -2.082031 -3.046875 -2.28125 -3.046875 L -13.15625 -3.578125 C -13.332031 -3.585938 -13.53125 -3.570312 -13.75 -3.53125 C -13.976562 -3.5 -14.191406 -3.429688 -14.390625 -3.328125 C -14.597656 -3.222656 -14.773438 -3.097656 -14.921875 -2.953125 C -15.066406 -2.816406 -15.144531 -2.660156 -15.15625 -2.484375 L -15.53125 -2.5 L -15.296875 -7.328125 L -14.921875 -7.3125 C -14.929688 -6.945312 -14.710938 -6.640625 -14.265625 -6.390625 C -13.816406 -6.148438 -13.40625 -6.019531 -13.03125 -6 L -8.578125 -5.78125 Z M -0.84375 -8.046875 C -0.769531 -9.679688 -0.976562 -10.878906 -1.46875 -11.640625 C -1.96875 -12.398438 -2.613281 -12.796875 -3.40625 -12.828125 C -3.851562 -12.859375 -4.296875 -12.78125 -4.734375 -12.59375 C -5.179688 -12.414062 -5.578125 -12.128906 -5.921875 -11.734375 C -6.273438 -11.347656 -6.570312 -10.863281 -6.8125 -10.28125 C -7.050781 -9.695312 -7.191406 -9.019531 -7.234375 -8.25 L -7.34375 -5.734375 L -0.96875 -5.421875 Z M -0.84375 -8.046875 "></path></g></g></g><g fill="#000000" fill-opacity="1"><g transform="translate(29.491155, 123.106072)"><g><path d="M 0.046875 -13.265625 C 0.335938 -13.359375 0.660156 -13.488281 1.015625 -13.65625 C 1.367188 -13.832031 1.695312 -14.039062 2 -14.28125 C 2.300781 -14.53125 2.566406 -14.796875 2.796875 -15.078125 C 3.035156 -15.359375 3.1875 -15.640625 3.25 -15.921875 L 3.609375 -15.84375 L 3.296875 -14.46875 C 3.046875 -13.351562 2.617188 -12.546875 2.015625 -12.046875 C 1.421875 -11.546875 0.773438 -11.203125 0.078125 -11.015625 L -3.546875 -10.046875 C -4.117188 -9.890625 -4.660156 -9.535156 -5.171875 -8.984375 C -5.691406 -8.441406 -6.035156 -7.820312 -6.203125 -7.125 L -1.046875 -5.953125 C -0.859375 -5.910156 -0.648438 -5.882812 -0.421875 -5.875 C -0.191406 -5.863281 0.0234375 -5.878906 0.234375 -5.921875 C 0.453125 -5.972656 0.644531 -6.054688 0.8125 -6.171875 C 0.976562 -6.296875 1.085938 -6.453125 1.140625 -6.640625 L 1.5 -6.5625 L 0.4375 -1.890625 L 0.078125 -1.96875 C 0.109375 -2.132812 0.078125 -2.3125 -0.015625 -2.5 C -0.117188 -2.6875 -0.253906 -2.847656 -0.421875 -2.984375 C -0.597656 -3.128906 -0.789062 -3.25 -1 -3.34375 C -1.207031 -3.445312 -1.40625 -3.519531 -1.59375 -3.5625 L -12.265625 -6 C -12.429688 -6.039062 -12.632812 -6.0625 -12.875 -6.0625 C -13.113281 -6.0625 -13.335938 -6.039062 -13.546875 -6 C -13.753906 -5.96875 -13.941406 -5.890625 -14.109375 -5.765625 C -14.285156 -5.648438 -14.394531 -5.488281 -14.4375 -5.28125 L -14.796875 -5.359375 L -13.75 -10 L -13.390625 -9.921875 C -13.429688 -9.753906 -13.394531 -9.585938 -13.28125 -9.421875 C -13.175781 -9.253906 -13.039062 -9.101562 -12.875 -8.96875 C -12.707031 -8.832031 -12.515625 -8.710938 -12.296875 -8.609375 C -12.078125 -8.503906 -11.882812 -8.429688 -11.71875 -8.390625 L -7.984375 -7.53125 C -8.660156 -8.789062 -9.304688 -10.023438 -9.921875 -11.234375 C -10.546875 -12.453125 -11.207031 -13.679688 -11.90625 -14.921875 C -11.925781 -14.929688 -11.945312 -14.953125 -11.96875 -14.984375 C -11.988281 -15.015625 -12.007812 -15.03125 -12.03125 -15.03125 C -12.15625 -15.0625 -12.226562 -15.015625 -12.25 -14.890625 L -12.609375 -14.96875 L -11.890625 -18.125 L -11.53125 -18.046875 C -11.5625 -17.921875 -11.554688 -17.765625 -11.515625 -17.578125 C -11.484375 -17.398438 -11.4375 -17.210938 -11.375 -17.015625 C -11.320312 -16.796875 -11.253906 -16.570312 -11.171875 -16.34375 C -10.484375 -15.050781 -9.785156 -13.75 -9.078125 -12.4375 C -8.378906 -11.132812 -7.695312 -9.832031 -7.03125 -8.53125 C -6.789062 -9.582031 -6.398438 -10.394531 -5.859375 -10.96875 C -5.316406 -11.539062 -4.570312 -11.960938 -3.625 -12.234375 Z M 0.046875 -13.265625 "></path></g></g></g><g fill="#000000" fill-opacity="1"><g transform="translate(32.817512, 108.023171)"><g><path d="M 4.15625 -10.71875 L 2.390625 -11.40625 L 2.484375 -11.171875 C 2.835938 -10.359375 3.03125 -9.515625 3.0625 -8.640625 C 3.101562 -7.773438 2.921875 -6.804688 2.515625 -5.734375 C 2.203125 -4.929688 1.835938 -4.273438 1.421875 -3.765625 C 1.015625 -3.265625 0.570312 -2.890625 0.09375 -2.640625 C -0.382812 -2.398438 -0.878906 -2.273438 -1.390625 -2.265625 C -1.898438 -2.265625 -2.394531 -2.359375 -2.875 -2.546875 C -3.664062 -2.859375 -4.28125 -3.34375 -4.71875 -4 C -5.15625 -4.664062 -5.445312 -5.488281 -5.59375 -6.46875 C -5.738281 -7.457031 -5.773438 -8.609375 -5.703125 -9.921875 C -5.640625 -11.242188 -5.5 -12.726562 -5.28125 -14.375 C -6.195312 -14.675781 -6.992188 -14.769531 -7.671875 -14.65625 C -8.359375 -14.550781 -8.941406 -14.335938 -9.421875 -14.015625 C -9.910156 -13.703125 -10.300781 -13.320312 -10.59375 -12.875 C -10.882812 -12.4375 -11.097656 -12.039062 -11.234375 -11.6875 C -11.460938 -11.09375 -11.578125 -10.53125 -11.578125 -10 C -11.585938 -9.46875 -11.515625 -8.972656 -11.359375 -8.515625 C -11.203125 -8.054688 -10.984375 -7.644531 -10.703125 -7.28125 C -10.421875 -6.914062 -10.117188 -6.601562 -9.796875 -6.34375 L -9.921875 -6.03125 L -12.625 -7.078125 C -12.539062 -7.285156 -12.519531 -7.554688 -12.5625 -7.890625 C -12.601562 -8.234375 -12.640625 -8.628906 -12.671875 -9.078125 C -12.710938 -9.535156 -12.703125 -10.0625 -12.640625 -10.65625 C -12.578125 -11.257812 -12.398438 -11.945312 -12.109375 -12.71875 C -11.617188 -13.988281 -11.054688 -14.953125 -10.421875 -15.609375 C -9.796875 -16.265625 -9.128906 -16.703125 -8.421875 -16.921875 C -7.722656 -17.148438 -7.007812 -17.203125 -6.28125 -17.078125 C -5.550781 -16.953125 -4.828125 -16.75 -4.109375 -16.46875 L 2.75 -13.8125 C 3.21875 -13.632812 3.695312 -13.582031 4.1875 -13.65625 C 4.6875 -13.738281 5.015625 -13.972656 5.171875 -14.359375 L 5.515625 -14.21875 Z M 0.859375 -12 L -4.109375 -13.921875 L -4.171875 -13.546875 C -4.242188 -12.941406 -4.316406 -12.191406 -4.390625 -11.296875 C -4.472656 -10.410156 -4.46875 -9.535156 -4.375 -8.671875 C -4.28125 -7.816406 -4.078125 -7.035156 -3.765625 -6.328125 C -3.453125 -5.617188 -2.960938 -5.132812 -2.296875 -4.875 C -1.554688 -4.59375 -0.828125 -4.660156 -0.109375 -5.078125 C 0.609375 -5.492188 1.15625 -6.1875 1.53125 -7.15625 C 1.820312 -7.914062 1.910156 -8.648438 1.796875 -9.359375 C 1.691406 -10.066406 1.460938 -10.769531 1.109375 -11.46875 Z M 0.859375 -12 "></path></g></g></g><g fill="#000000" fill-opacity="1"><g transform="translate(38.713476, 93.233514)"><g></g></g></g><g fill="#000000" fill-opacity="1"><g transform="translate(42.204875, 85.521746)"><g><path d="M 8.921875 -16.625 C 9.078125 -16.507812 9.265625 -16.398438 9.484375 -16.296875 C 9.710938 -16.203125 9.941406 -16.144531 10.171875 -16.125 C 10.398438 -16.101562 10.613281 -16.109375 10.8125 -16.140625 C 11.007812 -16.171875 11.164062 -16.269531 11.28125 -16.4375 L 11.59375 -16.21875 L 8.796875 -12.296875 L 8.484375 -12.515625 C 8.597656 -12.671875 8.640625 -12.847656 8.609375 -13.046875 C 8.585938 -13.242188 8.519531 -13.441406 8.40625 -13.640625 C 8.300781 -13.835938 8.164062 -14.023438 8 -14.203125 C 7.832031 -14.390625 7.671875 -14.539062 7.515625 -14.65625 L -0.65625 -20.5 L 6.125 -8.015625 L -7.125 -10.171875 L 0.4375 -4.765625 C 0.59375 -4.648438 0.78125 -4.539062 1 -4.4375 C 1.226562 -4.34375 1.453125 -4.273438 1.671875 -4.234375 C 1.890625 -4.203125 2.097656 -4.203125 2.296875 -4.234375 C 2.503906 -4.273438 2.664062 -4.378906 2.78125 -4.546875 L 3.09375 -4.328125 L 1 -1.390625 L 0.6875 -1.609375 C 0.800781 -1.773438 0.84375 -1.957031 0.8125 -2.15625 C 0.78125 -2.363281 0.707031 -2.5625 0.59375 -2.75 C 0.488281 -2.9375 0.347656 -3.117188 0.171875 -3.296875 C 0.00390625 -3.472656 -0.15625 -3.617188 -0.3125 -3.734375 L -9.171875 -10.078125 C -9.535156 -10.335938 -9.921875 -10.546875 -10.328125 -10.703125 C -10.734375 -10.859375 -11.09375 -10.710938 -11.40625 -10.265625 L -11.703125 -10.484375 L -9.78125 -13.171875 L 3 -11.03125 L -3.15625 -22.4375 L -1.109375 -25.3125 L -0.8125 -25.09375 C -1.03125 -24.789062 -1.015625 -24.414062 -0.765625 -23.96875 C -0.515625 -23.519531 -0.238281 -23.1875 0.0625 -22.96875 Z M 8.921875 -16.625 "></path></g></g></g><g fill="#000000" fill-opacity="1"><g transform="translate(54.080465, 68.993847)"><g><path d="M 9.15625 -1.578125 C 9.644531 -0.597656 9.828125 0.210938 9.703125 0.859375 C 9.585938 1.503906 9.332031 2.023438 8.9375 2.421875 C 8.664062 2.679688 8.378906 2.867188 8.078125 2.984375 C 7.785156 3.109375 7.503906 3.195312 7.234375 3.25 C 6.972656 3.300781 6.757812 3.320312 6.59375 3.3125 C 6.425781 3.3125 6.34375 3.3125 6.34375 3.3125 L 5.109375 0.296875 C 5.460938 0.503906 5.785156 0.648438 6.078125 0.734375 C 6.335938 0.828125 6.613281 0.863281 6.90625 0.84375 C 7.207031 0.832031 7.472656 0.710938 7.703125 0.484375 C 8.128906 0.0664062 8.160156 -0.566406 7.796875 -1.421875 L 5.84375 -5.9375 L -7.90625 -11.390625 C -8.332031 -11.535156 -8.734375 -11.648438 -9.109375 -11.734375 C -9.492188 -11.816406 -9.863281 -11.6875 -10.21875 -11.34375 L -10.484375 -11.609375 L -7.078125 -14.96875 L -6.8125 -14.703125 C -6.875 -14.640625 -6.898438 -14.492188 -6.890625 -14.265625 C -6.878906 -14.046875 -6.78125 -13.835938 -6.59375 -13.640625 C -6.445312 -13.503906 -6.269531 -13.398438 -6.0625 -13.328125 L 4.609375 -9.0625 L 0.171875 -19.78125 C 0.0976562 -19.957031 0.015625 -20.097656 -0.078125 -20.203125 C -0.253906 -20.378906 -0.453125 -20.460938 -0.671875 -20.453125 C -0.890625 -20.441406 -1.0625 -20.375 -1.1875 -20.25 L -1.453125 -20.515625 L 1.109375 -23.0625 L 1.375 -22.796875 C 1.09375 -22.515625 0.96875 -22.15625 1 -21.71875 C 1.03125 -21.28125 1.132812 -20.851562 1.3125 -20.4375 Z M 9.15625 -1.578125 "></path></g></g></g><g fill="#000000" fill-opacity="1"><g transform="translate(65.744982, 57.515998)"><g><path d="M 2.296875 -16.671875 C 2.648438 -16.203125 2.820312 -15.539062 2.8125 -14.6875 C 2.800781 -13.832031 2.5625 -12.96875 2.09375 -12.09375 C 3.382812 -12.695312 4.488281 -12.882812 5.40625 -12.65625 C 6.332031 -12.4375 7.039062 -12.003906 7.53125 -11.359375 C 7.988281 -10.734375 8.25 -10.070312 8.3125 -9.375 C 8.375 -8.675781 8.269531 -7.976562 8 -7.28125 C 7.738281 -6.59375 7.34375 -5.925781 6.8125 -5.28125 C 6.289062 -4.632812 5.675781 -4.050781 4.96875 -3.53125 C 4.320312 -3.039062 3.691406 -2.664062 3.078125 -2.40625 C 2.460938 -2.15625 1.910156 -1.960938 1.421875 -1.828125 C 0.929688 -1.703125 0.507812 -1.609375 0.15625 -1.546875 C -0.1875 -1.484375 -0.425781 -1.398438 -0.5625 -1.296875 L -2.359375 -3.71875 L -2.09375 -3.921875 C -1.738281 -3.535156 -1.316406 -3.265625 -0.828125 -3.109375 C -0.347656 -2.960938 0.15625 -2.910156 0.6875 -2.953125 C 1.226562 -3.003906 1.773438 -3.144531 2.328125 -3.375 C 2.890625 -3.601562 3.414062 -3.898438 3.90625 -4.265625 C 4.375 -4.609375 4.789062 -4.992188 5.15625 -5.421875 C 5.519531 -5.859375 5.796875 -6.3125 5.984375 -6.78125 C 6.179688 -7.257812 6.269531 -7.738281 6.25 -8.21875 C 6.238281 -8.695312 6.078125 -9.144531 5.765625 -9.5625 C 5.441406 -10 5.023438 -10.300781 4.515625 -10.46875 C 4.015625 -10.632812 3.484375 -10.691406 2.921875 -10.640625 C 2.359375 -10.597656 1.800781 -10.457031 1.25 -10.21875 C 0.695312 -9.988281 0.191406 -9.703125 -0.265625 -9.359375 L -1.21875 -8.640625 L -1.953125 -9.609375 L -0.90625 -10.390625 C -0.488281 -10.703125 -0.140625 -11.066406 0.140625 -11.484375 C 0.429688 -11.910156 0.632812 -12.335938 0.75 -12.765625 C 0.863281 -13.203125 0.894531 -13.625 0.84375 -14.03125 C 0.800781 -14.445312 0.671875 -14.804688 0.453125 -15.109375 C 0.179688 -15.472656 -0.148438 -15.722656 -0.546875 -15.859375 C -0.941406 -15.992188 -1.367188 -16.039062 -1.828125 -16 C -2.296875 -15.957031 -2.765625 -15.84375 -3.234375 -15.65625 C -3.703125 -15.476562 -4.144531 -15.234375 -4.5625 -14.921875 C -4.9375 -14.640625 -5.269531 -14.320312 -5.5625 -13.96875 C -5.851562 -13.613281 -6.066406 -13.226562 -6.203125 -12.8125 C -6.347656 -12.394531 -6.40625 -11.96875 -6.375 -11.53125 C -6.34375 -11.101562 -6.195312 -10.660156 -5.9375 -10.203125 L -6.21875 -9.984375 L -7.96875 -12.3125 C -7.8125 -12.4375 -7.675781 -12.570312 -7.5625 -12.71875 C -7.457031 -12.875 -7.351562 -13.070312 -7.25 -13.3125 C -7.050781 -13.695312 -6.773438 -14.132812 -6.421875 -14.625 C -6.078125 -15.113281 -5.5625 -15.617188 -4.875 -16.140625 C -3.320312 -17.296875 -1.914062 -17.910156 -0.65625 -17.984375 C 0.59375 -18.054688 1.578125 -17.617188 2.296875 -16.671875 Z M 2.296875 -16.671875 "></path></g></g></g><g fill="#000000" fill-opacity="1"><g transform="translate(75.611603, 49.481604)"><g><path d="M 15.171875 -7.859375 L 15 -8.1875 C 15.15625 -8.269531 15.265625 -8.398438 15.328125 -8.578125 C 15.390625 -8.765625 15.425781 -8.976562 15.4375 -9.21875 C 15.445312 -9.46875 15.414062 -9.707031 15.34375 -9.9375 C 15.269531 -10.175781 15.191406 -10.382812 15.109375 -10.5625 L 10.09375 -20.234375 C 10.007812 -20.390625 9.894531 -20.554688 9.75 -20.734375 C 9.613281 -20.910156 9.445312 -21.054688 9.25 -21.171875 C 9.050781 -21.296875 8.859375 -21.382812 8.671875 -21.4375 C 8.484375 -21.5 8.3125 -21.488281 8.15625 -21.40625 L 7.984375 -21.734375 L 12.265625 -23.953125 L 12.4375 -23.625 C 12.113281 -23.457031 11.957031 -23.113281 11.96875 -22.59375 C 11.988281 -22.082031 12.082031 -21.664062 12.25 -21.34375 L 17.265625 -11.671875 C 17.347656 -11.492188 17.46875 -11.304688 17.625 -11.109375 C 17.78125 -10.921875 17.953125 -10.765625 18.140625 -10.640625 C 18.328125 -10.515625 18.519531 -10.421875 18.71875 -10.359375 C 18.914062 -10.296875 19.101562 -10.3125 19.28125 -10.40625 L 19.453125 -10.078125 Z M 3.28125 -11.671875 C 5.3125 -12.722656 7.007812 -13.128906 8.375 -12.890625 C 9.75 -12.648438 10.71875 -11.976562 11.28125 -10.875 C 11.570312 -10.320312 11.710938 -9.734375 11.703125 -9.109375 C 11.703125 -8.492188 11.539062 -7.878906 11.21875 -7.265625 C 10.90625 -6.660156 10.414062 -6.050781 9.75 -5.4375 C 9.082031 -4.832031 8.222656 -4.257812 7.171875 -3.71875 L 1.546875 -0.8125 L 1.375 -1.140625 C 1.539062 -1.210938 1.65625 -1.34375 1.71875 -1.53125 C 1.78125 -1.71875 1.816406 -1.929688 1.828125 -2.171875 C 1.835938 -2.410156 1.804688 -2.644531 1.734375 -2.875 C 1.660156 -3.113281 1.582031 -3.320312 1.5 -3.5 L -3.515625 -13.171875 C -3.597656 -13.328125 -3.707031 -13.492188 -3.84375 -13.671875 C -3.988281 -13.847656 -4.160156 -14 -4.359375 -14.125 C -4.554688 -14.25 -4.75 -14.335938 -4.9375 -14.390625 C -5.125 -14.441406 -5.300781 -14.429688 -5.46875 -14.359375 L -5.640625 -14.6875 L -1.34375 -16.90625 L -1.171875 -16.578125 C -1.492188 -16.410156 -1.644531 -16.066406 -1.625 -15.546875 C -1.613281 -15.035156 -1.523438 -14.617188 -1.359375 -14.296875 L 0.6875 -10.328125 Z M 6.546875 -4.765625 C 7.992188 -5.523438 8.921875 -6.3125 9.328125 -7.125 C 9.734375 -7.9375 9.753906 -8.691406 9.390625 -9.390625 C 9.179688 -9.785156 8.890625 -10.128906 8.515625 -10.421875 C 8.140625 -10.710938 7.691406 -10.914062 7.171875 -11.03125 C 6.648438 -11.144531 6.078125 -11.15625 5.453125 -11.0625 C 4.835938 -10.96875 4.1875 -10.742188 3.5 -10.390625 L 1.265625 -9.234375 L 4.203125 -3.5625 Z M 6.546875 -4.765625 "></path></g></g></g><g fill="#000000" fill-opacity="1"><g transform="translate(95.496072, 39.374901)"><g><path d="M 11.5 -6.640625 C 11.71875 -6.421875 11.988281 -6.203125 12.3125 -5.984375 C 12.644531 -5.765625 12.992188 -5.585938 13.359375 -5.453125 C 13.734375 -5.316406 14.097656 -5.21875 14.453125 -5.15625 C 14.804688 -5.09375 15.125 -5.109375 15.40625 -5.203125 L 15.515625 -4.84375 L 14.171875 -4.421875 C 13.078125 -4.078125 12.160156 -4.035156 11.421875 -4.296875 C 10.691406 -4.566406 10.070312 -4.957031 9.5625 -5.46875 L 6.90625 -8.109375 C 6.488281 -8.523438 5.914062 -8.820312 5.1875 -9 C 4.457031 -9.175781 3.75 -9.15625 3.0625 -8.9375 L 4.625 -3.890625 C 4.6875 -3.703125 4.765625 -3.503906 4.859375 -3.296875 C 4.960938 -3.097656 5.09375 -2.921875 5.25 -2.765625 C 5.40625 -2.609375 5.570312 -2.488281 5.75 -2.40625 C 5.9375 -2.320312 6.125 -2.304688 6.3125 -2.359375 L 6.421875 -2 L 1.84375 -0.578125 L 1.734375 -0.9375 C 1.898438 -0.988281 2.035156 -1.101562 2.140625 -1.28125 C 2.253906 -1.457031 2.328125 -1.65625 2.359375 -1.875 C 2.398438 -2.09375 2.410156 -2.316406 2.390625 -2.546875 C 2.378906 -2.773438 2.34375 -2.984375 2.28125 -3.171875 L -0.96875 -13.609375 C -1.019531 -13.785156 -1.109375 -13.976562 -1.234375 -14.1875 C -1.359375 -14.394531 -1.488281 -14.578125 -1.625 -14.734375 C -1.757812 -14.898438 -1.921875 -15.023438 -2.109375 -15.109375 C -2.296875 -15.191406 -2.492188 -15.203125 -2.703125 -15.140625 L -2.8125 -15.5 L 1.75 -16.921875 L 1.859375 -16.5625 C 1.679688 -16.507812 1.546875 -16.394531 1.453125 -16.21875 C 1.367188 -16.050781 1.304688 -15.859375 1.265625 -15.640625 C 1.234375 -15.421875 1.226562 -15.191406 1.25 -14.953125 C 1.28125 -14.710938 1.320312 -14.503906 1.375 -14.328125 L 2.515625 -10.6875 C 3.253906 -11.894531 3.988281 -13.078125 4.71875 -14.234375 C 5.457031 -15.390625 6.191406 -16.578125 6.921875 -17.796875 C 6.910156 -17.816406 6.910156 -17.835938 6.921875 -17.859375 C 6.941406 -17.890625 6.953125 -17.914062 6.953125 -17.9375 C 6.910156 -18.0625 6.832031 -18.109375 6.71875 -18.078125 L 6.609375 -18.4375 L 9.6875 -19.40625 L 9.796875 -19.046875 C 9.679688 -19.003906 9.550781 -18.921875 9.40625 -18.796875 C 9.257812 -18.671875 9.117188 -18.535156 8.984375 -18.390625 C 8.828125 -18.234375 8.675781 -18.0625 8.53125 -17.875 C 7.75 -16.632812 6.96875 -15.378906 6.1875 -14.109375 C 5.40625 -12.835938 4.625 -11.59375 3.84375 -10.375 C 4.875 -10.695312 5.773438 -10.765625 6.546875 -10.578125 C 7.316406 -10.398438 8.054688 -9.96875 8.765625 -9.28125 Z M 11.5 -6.640625 "></path></g></g></g><g fill="#000000" fill-opacity="1"><g transform="translate(110.208232, 34.674022)"><g><path d="M 11.359375 -1.796875 L 11.0625 -3.671875 L 10.90625 -3.46875 C 10.382812 -2.75 9.753906 -2.15625 9.015625 -1.6875 C 8.285156 -1.21875 7.351562 -0.890625 6.21875 -0.703125 C 5.363281 -0.566406 4.613281 -0.550781 3.96875 -0.65625 C 3.332031 -0.757812 2.785156 -0.957031 2.328125 -1.25 C 1.878906 -1.539062 1.523438 -1.90625 1.265625 -2.34375 C 1.015625 -2.78125 0.847656 -3.253906 0.765625 -3.765625 C 0.628906 -4.597656 0.738281 -5.367188 1.09375 -6.078125 C 1.445312 -6.796875 2.007812 -7.460938 2.78125 -8.078125 C 3.5625 -8.703125 4.539062 -9.316406 5.71875 -9.921875 C 6.894531 -10.535156 8.25 -11.160156 9.78125 -11.796875 C 9.570312 -12.734375 9.25 -13.472656 8.8125 -14.015625 C 8.382812 -14.554688 7.910156 -14.953125 7.390625 -15.203125 C 6.878906 -15.460938 6.351562 -15.601562 5.8125 -15.625 C 5.28125 -15.644531 4.832031 -15.625 4.46875 -15.5625 C 3.820312 -15.46875 3.269531 -15.289062 2.8125 -15.03125 C 2.363281 -14.78125 1.976562 -14.472656 1.65625 -14.109375 C 1.332031 -13.742188 1.082031 -13.347656 0.90625 -12.921875 C 0.738281 -12.492188 0.625 -12.070312 0.5625 -11.65625 L 0.234375 -11.59375 L -0.21875 -14.46875 C 0 -14.507812 0.242188 -14.628906 0.515625 -14.828125 C 0.785156 -15.035156 1.101562 -15.269531 1.46875 -15.53125 C 1.84375 -15.789062 2.304688 -16.046875 2.859375 -16.296875 C 3.410156 -16.546875 4.09375 -16.738281 4.90625 -16.875 C 6.257812 -17.082031 7.378906 -17.078125 8.265625 -16.859375 C 9.148438 -16.640625 9.863281 -16.285156 10.40625 -15.796875 C 10.945312 -15.304688 11.347656 -14.710938 11.609375 -14.015625 C 11.867188 -13.316406 12.054688 -12.585938 12.171875 -11.828125 L 13.328125 -4.5625 C 13.398438 -4.070312 13.59375 -3.628906 13.90625 -3.234375 C 14.226562 -2.847656 14.59375 -2.6875 15 -2.75 L 15.0625 -2.375 Z M 10.8125 -5.28125 L 9.96875 -10.546875 L 9.609375 -10.40625 C 9.046875 -10.164062 8.359375 -9.851562 7.546875 -9.46875 C 6.742188 -9.09375 5.992188 -8.648438 5.296875 -8.140625 C 4.609375 -7.640625 4.035156 -7.070312 3.578125 -6.4375 C 3.117188 -5.8125 2.945312 -5.144531 3.0625 -4.4375 C 3.1875 -3.65625 3.609375 -3.054688 4.328125 -2.640625 C 5.046875 -2.234375 5.914062 -2.109375 6.9375 -2.265625 C 7.738281 -2.390625 8.421875 -2.675781 8.984375 -3.125 C 9.554688 -3.582031 10.050781 -4.140625 10.46875 -4.796875 Z M 10.8125 -5.28125 "></path></g></g></g><g fill="#000000" fill-opacity="1"><g transform="translate(125.961765, 32.335375)"><g></g></g></g><g fill="#000000" fill-opacity="1"><g transform="translate(134.382728, 31.481613)"><g><path d="M 18.875 -0.640625 C 18.851562 -0.441406 18.851562 -0.222656 18.875 0.015625 C 18.894531 0.253906 18.953125 0.476562 19.046875 0.6875 C 19.148438 0.894531 19.265625 1.078125 19.390625 1.234375 C 19.515625 1.398438 19.675781 1.488281 19.875 1.5 L 19.84375 1.875 L 15.046875 1.421875 L 15.078125 1.046875 C 15.273438 1.066406 15.453125 1.015625 15.609375 0.890625 C 15.765625 0.773438 15.898438 0.613281 16.015625 0.40625 C 16.128906 0.207031 16.222656 -0.00390625 16.296875 -0.234375 C 16.378906 -0.460938 16.429688 -0.675781 16.453125 -0.875 L 17.390625 -10.875 L 10 1.28125 L 5.21875 -11.28125 L 4.34375 -2.015625 C 4.320312 -1.816406 4.320312 -1.597656 4.34375 -1.359375 C 4.375 -1.117188 4.429688 -0.894531 4.515625 -0.6875 C 4.597656 -0.476562 4.703125 -0.296875 4.828125 -0.140625 C 4.960938 0.015625 5.125 0.101562 5.3125 0.125 L 5.28125 0.5 L 1.71875 0.15625 L 1.75 -0.21875 C 1.9375 -0.195312 2.109375 -0.25 2.265625 -0.375 C 2.429688 -0.507812 2.566406 -0.671875 2.671875 -0.859375 C 2.773438 -1.054688 2.863281 -1.269531 2.9375 -1.5 C 3.007812 -1.726562 3.054688 -1.941406 3.078125 -2.140625 L 4.09375 -12.984375 C 4.132812 -13.429688 4.117188 -13.867188 4.046875 -14.296875 C 3.984375 -14.734375 3.6875 -14.976562 3.15625 -15.03125 L 3.1875 -15.40625 L 6.46875 -15.09375 L 11.046875 -2.953125 L 17.796875 -14.015625 L 21.3125 -13.6875 L 21.28125 -13.3125 C 20.90625 -13.34375 20.585938 -13.140625 20.328125 -12.703125 C 20.078125 -12.265625 19.929688 -11.859375 19.890625 -11.484375 Z M 18.875 -0.640625 "></path></g></g></g><g fill="#000000" fill-opacity="1"><g transform="translate(154.636848, 33.451132)"><g><path d="M 5.96875 7.125 C 5.363281 8.039062 4.753906 8.609375 4.140625 8.828125 C 3.523438 9.046875 2.945312 9.082031 2.40625 8.9375 C 2.039062 8.84375 1.726562 8.695312 1.46875 8.5 C 1.21875 8.300781 1.003906 8.097656 0.828125 7.890625 C 0.648438 7.691406 0.519531 7.519531 0.4375 7.375 C 0.363281 7.226562 0.328125 7.15625 0.328125 7.15625 L 2.296875 4.5625 C 2.296875 4.96875 2.335938 5.320312 2.421875 5.625 C 2.460938 5.894531 2.566406 6.15625 2.734375 6.40625 C 2.898438 6.65625 3.140625 6.820312 3.453125 6.90625 C 4.023438 7.0625 4.585938 6.769531 5.140625 6.03125 L 8.0625 2.078125 L 5.875 -12.546875 C 5.78125 -13.003906 5.675781 -13.414062 5.5625 -13.78125 C 5.457031 -14.15625 5.160156 -14.40625 4.671875 -14.53125 L 4.765625 -14.890625 L 9.40625 -13.640625 L 9.3125 -13.28125 C 9.21875 -13.300781 9.070312 -13.25 8.875 -13.125 C 8.6875 -13 8.554688 -12.804688 8.484375 -12.546875 C 8.429688 -12.359375 8.429688 -12.148438 8.484375 -11.921875 L 10.140625 -0.5625 L 17.203125 -9.796875 C 17.304688 -9.941406 17.378906 -10.085938 17.421875 -10.234375 C 17.484375 -10.472656 17.457031 -10.679688 17.34375 -10.859375 C 17.226562 -11.046875 17.085938 -11.164062 16.921875 -11.21875 L 17.015625 -11.578125 L 20.5 -10.625 L 20.40625 -10.265625 C 20.019531 -10.367188 19.644531 -10.296875 19.28125 -10.046875 C 18.914062 -9.796875 18.597656 -9.492188 18.328125 -9.140625 Z M 5.96875 7.125 "></path></g></g></g><g fill="#000000" fill-opacity="1"><g transform="translate(170.423161, 37.767038)"><g><path d="M 15.578125 -6.40625 C 15.347656 -5.851562 14.859375 -5.363281 14.109375 -4.9375 C 13.367188 -4.519531 12.5 -4.296875 11.5 -4.265625 C 12.675781 -3.453125 13.394531 -2.585938 13.65625 -1.671875 C 13.925781 -0.765625 13.90625 0.0546875 13.59375 0.796875 C 13.289062 1.503906 12.851562 2.0625 12.28125 2.46875 C 11.707031 2.875 11.050781 3.132812 10.3125 3.25 C 9.582031 3.363281 8.804688 3.359375 7.984375 3.234375 C 7.160156 3.109375 6.347656 2.875 5.546875 2.53125 C 4.796875 2.207031 4.15625 1.847656 3.625 1.453125 C 3.09375 1.054688 2.644531 0.675781 2.28125 0.3125 C 1.925781 -0.0390625 1.632812 -0.351562 1.40625 -0.625 C 1.1875 -0.894531 0.992188 -1.066406 0.828125 -1.140625 L 2.015625 -3.921875 L 2.34375 -3.78125 C 2.175781 -3.28125 2.148438 -2.78125 2.265625 -2.28125 C 2.390625 -1.789062 2.601562 -1.320312 2.90625 -0.875 C 3.21875 -0.4375 3.613281 -0.0351562 4.09375 0.328125 C 4.570312 0.691406 5.09375 0.992188 5.65625 1.234375 C 6.1875 1.460938 6.726562 1.625 7.28125 1.71875 C 7.84375 1.820312 8.375 1.835938 8.875 1.765625 C 9.382812 1.703125 9.84375 1.539062 10.25 1.28125 C 10.65625 1.019531 10.957031 0.648438 11.15625 0.171875 C 11.375 -0.316406 11.429688 -0.820312 11.328125 -1.34375 C 11.234375 -1.863281 11.019531 -2.351562 10.6875 -2.8125 C 10.351562 -3.28125 9.945312 -3.691406 9.46875 -4.046875 C 8.988281 -4.410156 8.484375 -4.707031 7.953125 -4.9375 L 6.875 -5.40625 L 7.34375 -6.515625 L 8.53125 -6 C 9.007812 -5.800781 9.503906 -5.679688 10.015625 -5.640625 C 10.523438 -5.609375 10.992188 -5.648438 11.421875 -5.765625 C 11.847656 -5.878906 12.226562 -6.054688 12.5625 -6.296875 C 12.894531 -6.546875 13.132812 -6.847656 13.28125 -7.203125 C 13.457031 -7.609375 13.503906 -8.019531 13.421875 -8.4375 C 13.347656 -8.851562 13.175781 -9.25 12.90625 -9.625 C 12.644531 -10.007812 12.316406 -10.359375 11.921875 -10.671875 C 11.523438 -10.984375 11.085938 -11.242188 10.609375 -11.453125 C 10.179688 -11.628906 9.738281 -11.753906 9.28125 -11.828125 C 8.820312 -11.910156 8.378906 -11.90625 7.953125 -11.8125 C 7.523438 -11.71875 7.128906 -11.546875 6.765625 -11.296875 C 6.410156 -11.054688 6.097656 -10.707031 5.828125 -10.25 L 5.515625 -10.390625 L 6.640625 -13.0625 C 6.816406 -12.988281 7 -12.941406 7.1875 -12.921875 C 7.382812 -12.910156 7.609375 -12.921875 7.859375 -12.953125 C 8.296875 -12.984375 8.8125 -12.96875 9.40625 -12.90625 C 10.007812 -12.851562 10.710938 -12.660156 11.515625 -12.328125 C 13.296875 -11.566406 14.535156 -10.660156 15.234375 -9.609375 C 15.929688 -8.566406 16.046875 -7.5 15.578125 -6.40625 Z M 15.578125 -6.40625 "></path></g></g></g><g fill="#000000" fill-opacity="1"><g transform="translate(182.325312, 42.264538)"><g><path d="M 14.40625 9.171875 L 14.609375 8.859375 C 14.765625 8.953125 14.9375 8.976562 15.125 8.9375 C 15.320312 8.90625 15.523438 8.832031 15.734375 8.71875 C 15.941406 8.601562 16.128906 8.453125 16.296875 8.265625 C 16.460938 8.085938 16.597656 7.914062 16.703125 7.75 L 22.546875 -1.4375 C 22.640625 -1.582031 22.726562 -1.757812 22.8125 -1.96875 C 22.894531 -2.1875 22.941406 -2.410156 22.953125 -2.640625 C 22.960938 -2.867188 22.941406 -3.078125 22.890625 -3.265625 C 22.847656 -3.460938 22.75 -3.609375 22.59375 -3.703125 L 22.796875 -4.015625 L 26.875 -1.4375 L 26.671875 -1.125 C 26.359375 -1.3125 25.984375 -1.269531 25.546875 -1 C 25.117188 -0.726562 24.800781 -0.4375 24.59375 -0.125 L 18.75 9.0625 C 18.644531 9.226562 18.546875 9.421875 18.453125 9.640625 C 18.367188 9.867188 18.320312 10.097656 18.3125 10.328125 C 18.300781 10.554688 18.316406 10.769531 18.359375 10.96875 C 18.410156 11.175781 18.519531 11.332031 18.6875 11.4375 L 18.484375 11.75 Z M 11.75 -3.015625 C 13.675781 -1.785156 14.878906 -0.523438 15.359375 0.765625 C 15.835938 2.066406 15.742188 3.242188 15.078125 4.296875 C 14.742188 4.816406 14.304688 5.234375 13.765625 5.546875 C 13.234375 5.859375 12.617188 6.023438 11.921875 6.046875 C 11.234375 6.078125 10.457031 5.957031 9.59375 5.6875 C 8.738281 5.425781 7.8125 4.972656 6.8125 4.328125 L 1.484375 0.9375 L 1.6875 0.625 C 1.832031 0.71875 2 0.742188 2.1875 0.703125 C 2.382812 0.671875 2.585938 0.597656 2.796875 0.484375 C 3.003906 0.367188 3.191406 0.222656 3.359375 0.046875 C 3.535156 -0.128906 3.675781 -0.300781 3.78125 -0.46875 L 9.625 -9.65625 C 9.71875 -9.800781 9.800781 -9.984375 9.875 -10.203125 C 9.957031 -10.421875 10.003906 -10.644531 10.015625 -10.875 C 10.023438 -11.101562 10.003906 -11.3125 9.953125 -11.5 C 9.910156 -11.695312 9.816406 -11.84375 9.671875 -11.9375 L 9.875 -12.25 L 13.9375 -9.65625 L 13.734375 -9.34375 C 13.429688 -9.539062 13.0625 -9.503906 12.625 -9.234375 C 12.1875 -8.960938 11.863281 -8.671875 11.65625 -8.359375 L 9.265625 -4.59375 Z M 7.40625 3.25 C 8.78125 4.125 9.921875 4.535156 10.828125 4.484375 C 11.734375 4.429688 12.398438 4.070312 12.828125 3.40625 C 13.066406 3.03125 13.21875 2.601562 13.28125 2.125 C 13.351562 1.65625 13.304688 1.164062 13.140625 0.65625 C 12.972656 0.15625 12.695312 -0.335938 12.3125 -0.828125 C 11.925781 -1.328125 11.40625 -1.785156 10.75 -2.203125 L 8.609375 -3.5625 L 5.171875 1.828125 Z M 7.40625 3.25 "></path></g></g></g><g fill="#000000" fill-opacity="1"><g transform="translate(201.053622, 54.380143)"><g><path d="M 11.515625 6.609375 C 11.429688 6.910156 11.378906 7.253906 11.359375 7.640625 C 11.335938 8.023438 11.359375 8.410156 11.421875 8.796875 C 11.484375 9.191406 11.578125 9.554688 11.703125 9.890625 C 11.835938 10.234375 12.015625 10.503906 12.234375 10.703125 L 11.984375 10.984375 L 10.9375 10.03125 C 10.09375 9.257812 9.597656 8.488281 9.453125 7.71875 C 9.316406 6.957031 9.34375 6.222656 9.53125 5.515625 L 10.484375 1.890625 C 10.628906 1.328125 10.59375 0.6875 10.375 -0.03125 C 10.164062 -0.757812 9.796875 -1.367188 9.265625 -1.859375 L 5.6875 2.03125 C 5.5625 2.175781 5.429688 2.34375 5.296875 2.53125 C 5.171875 2.726562 5.078125 2.929688 5.015625 3.140625 C 4.960938 3.359375 4.945312 3.566406 4.96875 3.765625 C 4.988281 3.960938 5.070312 4.128906 5.21875 4.265625 L 4.96875 4.546875 L 1.421875 1.3125 L 1.671875 1.03125 C 1.796875 1.144531 1.960938 1.207031 2.171875 1.21875 C 2.390625 1.226562 2.597656 1.191406 2.796875 1.109375 C 3.003906 1.023438 3.203125 0.914062 3.390625 0.78125 C 3.585938 0.65625 3.75 0.519531 3.875 0.375 L 11.265625 -7.6875 C 11.390625 -7.8125 11.507812 -7.976562 11.625 -8.1875 C 11.75 -8.394531 11.847656 -8.597656 11.921875 -8.796875 C 11.992188 -8.992188 12.019531 -9.191406 12 -9.390625 C 11.988281 -9.597656 11.898438 -9.773438 11.734375 -9.921875 L 11.984375 -10.203125 L 15.5 -6.984375 L 15.25 -6.703125 C 15.125 -6.828125 14.960938 -6.882812 14.765625 -6.875 C 14.578125 -6.863281 14.378906 -6.816406 14.171875 -6.734375 C 13.960938 -6.660156 13.757812 -6.554688 13.5625 -6.421875 C 13.363281 -6.285156 13.203125 -6.15625 13.078125 -6.03125 L 10.5 -3.203125 C 11.925781 -3.160156 13.316406 -3.113281 14.671875 -3.0625 C 16.035156 -3.007812 17.429688 -2.972656 18.859375 -2.953125 C 18.878906 -2.960938 18.90625 -2.96875 18.9375 -2.96875 C 18.96875 -2.976562 18.988281 -2.992188 19 -3.015625 C 19.09375 -3.097656 19.097656 -3.179688 19.015625 -3.265625 L 19.265625 -3.546875 L 21.640625 -1.359375 L 21.390625 -1.078125 C 21.296875 -1.160156 21.160156 -1.234375 20.984375 -1.296875 C 20.804688 -1.359375 20.613281 -1.414062 20.40625 -1.46875 C 20.195312 -1.53125 19.972656 -1.570312 19.734375 -1.59375 C 18.273438 -1.65625 16.800781 -1.703125 15.3125 -1.734375 C 13.820312 -1.765625 12.347656 -1.8125 10.890625 -1.875 C 11.679688 -1.15625 12.191406 -0.414062 12.421875 0.34375 C 12.660156 1.101562 12.660156 1.957031 12.421875 2.90625 Z M 11.515625 6.609375 "></path></g></g></g><g fill="#000000" fill-opacity="1"><g transform="translate(212.509158, 64.739704)"><g><path d="M 7.265625 8.921875 L 8.734375 7.734375 L 8.46875 7.703125 C 7.59375 7.597656 6.765625 7.347656 5.984375 6.953125 C 5.210938 6.554688 4.460938 5.910156 3.734375 5.015625 C 3.191406 4.347656 2.800781 3.710938 2.5625 3.109375 C 2.320312 2.503906 2.210938 1.929688 2.234375 1.390625 C 2.265625 0.847656 2.40625 0.359375 2.65625 -0.078125 C 2.90625 -0.515625 3.234375 -0.898438 3.640625 -1.234375 C 4.296875 -1.765625 5.019531 -2.054688 5.8125 -2.109375 C 6.601562 -2.160156 7.460938 -2.003906 8.390625 -1.640625 C 9.328125 -1.285156 10.347656 -0.75 11.453125 -0.03125 C 12.566406 0.675781 13.789062 1.53125 15.125 2.53125 C 15.820312 1.882812 16.289062 1.234375 16.53125 0.578125 C 16.78125 -0.0664062 16.882812 -0.675781 16.84375 -1.25 C 16.8125 -1.820312 16.671875 -2.34375 16.421875 -2.8125 C 16.179688 -3.28125 15.941406 -3.660156 15.703125 -3.953125 C 15.296875 -4.453125 14.863281 -4.835938 14.40625 -5.109375 C 13.957031 -5.378906 13.492188 -5.554688 13.015625 -5.640625 C 12.546875 -5.734375 12.082031 -5.75 11.625 -5.6875 C 11.164062 -5.625 10.742188 -5.515625 10.359375 -5.359375 L 10.15625 -5.609375 L 12.40625 -7.453125 C 12.539062 -7.285156 12.765625 -7.132812 13.078125 -7 C 13.398438 -6.863281 13.765625 -6.703125 14.171875 -6.515625 C 14.585938 -6.328125 15.039062 -6.054688 15.53125 -5.703125 C 16.019531 -5.359375 16.523438 -4.863281 17.046875 -4.21875 C 17.910156 -3.164062 18.472656 -2.203125 18.734375 -1.328125 C 18.992188 -0.460938 19.046875 0.328125 18.890625 1.046875 C 18.742188 1.773438 18.429688 2.425781 17.953125 3 C 17.484375 3.570312 16.953125 4.101562 16.359375 4.59375 L 10.640625 9.234375 C 10.253906 9.546875 9.972656 9.9375 9.796875 10.40625 C 9.617188 10.875 9.660156 11.269531 9.921875 11.59375 L 9.625 11.828125 Z M 10 6.6875 L 14.140625 3.328125 L 13.828125 3.078125 C 13.335938 2.710938 12.722656 2.273438 11.984375 1.765625 C 11.253906 1.253906 10.492188 0.828125 9.703125 0.484375 C 8.910156 0.140625 8.128906 -0.0664062 7.359375 -0.140625 C 6.585938 -0.210938 5.925781 -0.0234375 5.375 0.421875 C 4.757812 0.921875 4.453125 1.582031 4.453125 2.40625 C 4.453125 3.238281 4.785156 4.054688 5.453125 4.859375 C 5.960938 5.492188 6.554688 5.941406 7.234375 6.203125 C 7.910156 6.460938 8.632812 6.613281 9.40625 6.65625 Z M 10 6.6875 "></path></g></g></g><g fill="#000000" fill-opacity="1"><g transform="translate(222.449305, 77.179556)"><g></g></g></g><g fill="#000000" fill-opacity="1"><g transform="translate(227.417098, 84.033502)"><g><path d="M 10.03125 15.984375 C 9.851562 16.066406 9.664062 16.175781 9.46875 16.3125 C 9.269531 16.457031 9.101562 16.625 8.96875 16.8125 C 8.832031 17 8.726562 17.191406 8.65625 17.390625 C 8.59375 17.585938 8.601562 17.773438 8.6875 17.953125 L 8.34375 18.109375 L 6.328125 13.71875 L 6.671875 13.5625 C 6.753906 13.738281 6.882812 13.863281 7.0625 13.9375 C 7.238281 14.019531 7.441406 14.0625 7.671875 14.0625 C 7.910156 14.0625 8.148438 14.035156 8.390625 13.984375 C 8.640625 13.929688 8.851562 13.863281 9.03125 13.78125 L 18.15625 9.578125 L 3.921875 9.296875 L 12.359375 -1.15625 L 3.921875 2.734375 C 3.742188 2.816406 3.554688 2.929688 3.359375 3.078125 C 3.171875 3.222656 3.003906 3.378906 2.859375 3.546875 C 2.722656 3.722656 2.617188 3.910156 2.546875 4.109375 C 2.472656 4.304688 2.476562 4.492188 2.5625 4.671875 L 2.21875 4.828125 L 0.71875 1.5625 L 1.0625 1.40625 C 1.144531 1.582031 1.28125 1.707031 1.46875 1.78125 C 1.664062 1.851562 1.875 1.882812 2.09375 1.875 C 2.3125 1.875 2.539062 1.84375 2.78125 1.78125 C 3.019531 1.726562 3.226562 1.660156 3.40625 1.578125 L 13.296875 -2.984375 C 13.703125 -3.171875 14.070312 -3.398438 14.40625 -3.671875 C 14.738281 -3.953125 14.789062 -4.335938 14.5625 -4.828125 L 14.90625 -4.984375 L 16.28125 -1.984375 L 8.109375 8.0625 L 21.046875 8.359375 L 22.53125 11.5625 L 22.1875 11.71875 C 22.03125 11.375 21.695312 11.195312 21.1875 11.1875 C 20.675781 11.1875 20.253906 11.265625 19.921875 11.421875 Z M 10.03125 15.984375 "></path></g></g></g><g fill="#000000" fill-opacity="1"><g transform="translate(235.886836, 102.540306)"><g><path d="M -3.15625 8.734375 C -4.25 8.679688 -5.046875 8.441406 -5.546875 8.015625 C -6.054688 7.585938 -6.382812 7.101562 -6.53125 6.5625 C -6.625 6.195312 -6.644531 5.851562 -6.59375 5.53125 C -6.550781 5.21875 -6.488281 4.929688 -6.40625 4.671875 C -6.320312 4.421875 -6.234375 4.222656 -6.140625 4.078125 C -6.054688 3.941406 -6.015625 3.875 -6.015625 3.875 L -2.78125 4.296875 C -3.132812 4.492188 -3.425781 4.695312 -3.65625 4.90625 C -3.863281 5.09375 -4.03125 5.316406 -4.15625 5.578125 C -4.289062 5.847656 -4.316406 6.140625 -4.234375 6.453125 C -4.078125 7.023438 -3.539062 7.367188 -2.625 7.484375 L 2.265625 8.015625 L 13.796875 -1.234375 C 14.148438 -1.535156 14.457031 -1.828125 14.71875 -2.109375 C 14.976562 -2.390625 15.046875 -2.773438 14.921875 -3.265625 L 15.28125 -3.359375 L 16.515625 1.28125 L 16.15625 1.375 C 16.132812 1.28125 16.019531 1.179688 15.8125 1.078125 C 15.601562 0.972656 15.367188 0.957031 15.109375 1.03125 C 14.921875 1.082031 14.742188 1.1875 14.578125 1.34375 L 5.578125 8.484375 L 17.109375 9.953125 C 17.296875 9.972656 17.460938 9.960938 17.609375 9.921875 C 17.847656 9.859375 18.015625 9.726562 18.109375 9.53125 C 18.210938 9.34375 18.238281 9.164062 18.1875 9 L 18.546875 8.90625 L 19.484375 12.390625 L 19.125 12.484375 C 19.019531 12.097656 18.769531 11.804688 18.375 11.609375 C 17.976562 11.421875 17.550781 11.304688 17.09375 11.265625 Z M -3.15625 8.734375 "></path></g></g></g><g fill="#000000" fill-opacity="1"><g transform="translate(240.087938, 118.354668)"><g><path d="M 13.359375 10.25 C 12.773438 10.320312 12.109375 10.140625 11.359375 9.703125 C 10.617188 9.273438 9.992188 8.644531 9.484375 7.8125 C 9.359375 9.238281 8.96875 10.296875 8.3125 10.984375 C 7.664062 11.671875 6.941406 12.066406 6.140625 12.171875 C 5.367188 12.265625 4.664062 12.160156 4.03125 11.859375 C 3.394531 11.566406 2.84375 11.128906 2.375 10.546875 C 1.90625 9.972656 1.519531 9.296875 1.21875 8.515625 C 0.914062 7.742188 0.707031 6.925781 0.59375 6.0625 C 0.5 5.257812 0.488281 4.523438 0.5625 3.859375 C 0.644531 3.203125 0.75 2.628906 0.875 2.140625 C 1.007812 1.648438 1.132812 1.238281 1.25 0.90625 C 1.375 0.582031 1.425781 0.332031 1.40625 0.15625 L 4.40625 -0.21875 L 4.4375 0.125 C 3.925781 0.238281 3.484375 0.46875 3.109375 0.8125 C 2.742188 1.15625 2.445312 1.570312 2.21875 2.0625 C 2 2.5625 1.847656 3.109375 1.765625 3.703125 C 1.691406 4.296875 1.691406 4.894531 1.765625 5.5 C 1.835938 6.070312 1.96875 6.625 2.15625 7.15625 C 2.351562 7.695312 2.609375 8.164062 2.921875 8.5625 C 3.242188 8.96875 3.613281 9.28125 4.03125 9.5 C 4.457031 9.726562 4.929688 9.8125 5.453125 9.75 C 5.992188 9.675781 6.460938 9.460938 6.859375 9.109375 C 7.253906 8.765625 7.566406 8.332031 7.796875 7.8125 C 8.023438 7.300781 8.175781 6.742188 8.25 6.140625 C 8.332031 5.546875 8.335938 4.960938 8.265625 4.390625 L 8.109375 3.21875 L 9.3125 3.078125 L 9.484375 4.359375 C 9.546875 4.878906 9.6875 5.367188 9.90625 5.828125 C 10.132812 6.285156 10.40625 6.671875 10.71875 6.984375 C 11.039062 7.296875 11.390625 7.53125 11.765625 7.6875 C 12.148438 7.851562 12.53125 7.910156 12.90625 7.859375 C 13.351562 7.804688 13.734375 7.644531 14.046875 7.375 C 14.359375 7.101562 14.613281 6.753906 14.8125 6.328125 C 15.007812 5.898438 15.144531 5.4375 15.21875 4.9375 C 15.289062 4.445312 15.296875 3.941406 15.234375 3.421875 C 15.171875 2.960938 15.054688 2.515625 14.890625 2.078125 C 14.734375 1.640625 14.503906 1.257812 14.203125 0.9375 C 13.910156 0.613281 13.566406 0.359375 13.171875 0.171875 C 12.785156 -0.015625 12.328125 -0.113281 11.796875 -0.125 L 11.75 -0.453125 L 14.640625 -0.8125 C 14.660156 -0.625 14.710938 -0.441406 14.796875 -0.265625 C 14.878906 -0.0976562 15 0.0820312 15.15625 0.28125 C 15.394531 0.65625 15.640625 1.113281 15.890625 1.65625 C 16.140625 2.195312 16.320312 2.894531 16.4375 3.75 C 16.675781 5.675781 16.515625 7.203125 15.953125 8.328125 C 15.398438 9.460938 14.535156 10.101562 13.359375 10.25 Z M 13.359375 10.25 "></path></g></g></g><g fill="#000000" fill-opacity="1"><g transform="translate(242.177079, 130.908023)"><g><path d="M -0.6875 17.0625 L -0.3125 17.078125 C -0.320312 17.253906 -0.257812 17.414062 -0.125 17.5625 C 0 17.71875 0.160156 17.859375 0.359375 17.984375 C 0.566406 18.109375 0.789062 18.195312 1.03125 18.25 C 1.269531 18.300781 1.488281 18.332031 1.6875 18.34375 L 12.5625 18.78125 C 12.738281 18.789062 12.9375 18.773438 13.15625 18.734375 C 13.382812 18.703125 13.597656 18.628906 13.796875 18.515625 C 14.003906 18.410156 14.175781 18.285156 14.3125 18.140625 C 14.457031 18.003906 14.535156 17.847656 14.546875 17.671875 L 14.921875 17.6875 L 14.734375 22.515625 L 14.359375 22.5 C 14.367188 22.132812 14.148438 21.832031 13.703125 21.59375 C 13.253906 21.351562 12.84375 21.222656 12.46875 21.203125 L 1.59375 20.765625 C 1.394531 20.753906 1.175781 20.769531 0.9375 20.8125 C 0.695312 20.851562 0.472656 20.925781 0.265625 21.03125 C 0.0664062 21.132812 -0.109375 21.253906 -0.265625 21.390625 C -0.421875 21.535156 -0.5 21.707031 -0.5 21.90625 L -0.875 21.890625 Z M 8.53125 8.65625 C 8.4375 10.925781 7.941406 12.59375 7.046875 13.65625 C 6.160156 14.726562 5.097656 15.238281 3.859375 15.1875 C 3.234375 15.164062 2.65625 15 2.125 14.6875 C 1.59375 14.382812 1.140625 13.941406 0.765625 13.359375 C 0.390625 12.773438 0.101562 12.039062 -0.09375 11.15625 C -0.289062 10.28125 -0.367188 9.253906 -0.328125 8.078125 L -0.0625 1.75 L 0.3125 1.765625 C 0.300781 1.941406 0.359375 2.101562 0.484375 2.25 C 0.617188 2.40625 0.785156 2.546875 0.984375 2.671875 C 1.191406 2.796875 1.410156 2.882812 1.640625 2.9375 C 1.878906 2.988281 2.097656 3.019531 2.296875 3.03125 L 13.171875 3.46875 C 13.347656 3.476562 13.550781 3.460938 13.78125 3.421875 C 14.007812 3.390625 14.222656 3.316406 14.421875 3.203125 C 14.628906 3.097656 14.800781 2.972656 14.9375 2.828125 C 15.082031 2.691406 15.160156 2.535156 15.171875 2.359375 L 15.546875 2.375 L 15.34375 7.203125 L 14.96875 7.1875 C 14.988281 6.820312 14.769531 6.519531 14.3125 6.28125 C 13.863281 6.039062 13.453125 5.910156 13.078125 5.890625 L 8.640625 5.71875 Z M 0.90625 8.046875 C 0.84375 9.671875 1.0625 10.859375 1.5625 11.609375 C 2.0625 12.367188 2.707031 12.765625 3.5 12.796875 C 3.945312 12.816406 4.390625 12.734375 4.828125 12.546875 C 5.273438 12.359375 5.675781 12.066406 6.03125 11.671875 C 6.382812 11.285156 6.675781 10.800781 6.90625 10.21875 C 7.144531 9.644531 7.28125 8.972656 7.3125 8.203125 L 7.40625 5.671875 L 1.015625 5.40625 Z M 0.90625 8.046875 "></path></g></g></g><g fill="#000000" fill-opacity="1"><g transform="translate(241.110211, 153.188172)"><g><path d="M 0.078125 13.28125 C -0.222656 13.351562 -0.546875 13.476562 -0.890625 13.65625 C -1.234375 13.832031 -1.554688 14.046875 -1.859375 14.296875 C -2.171875 14.554688 -2.441406 14.828125 -2.671875 15.109375 C -2.910156 15.390625 -3.0625 15.671875 -3.125 15.953125 L -3.484375 15.875 L -3.171875 14.5 C -2.929688 13.382812 -2.515625 12.570312 -1.921875 12.0625 C -1.328125 11.550781 -0.679688 11.203125 0.015625 11.015625 L 3.640625 10.015625 C 4.191406 9.859375 4.726562 9.503906 5.25 8.953125 C 5.769531 8.398438 6.109375 7.773438 6.265625 7.078125 L 1.109375 5.953125 C 0.910156 5.910156 0.695312 5.882812 0.46875 5.875 C 0.238281 5.863281 0.0195312 5.882812 -0.1875 5.9375 C -0.40625 5.988281 -0.597656 6.070312 -0.765625 6.1875 C -0.929688 6.300781 -1.035156 6.457031 -1.078125 6.65625 L -1.4375 6.578125 L -0.421875 1.890625 L -0.0625 1.96875 C -0.09375 2.132812 -0.0625 2.3125 0.03125 2.5 C 0.132812 2.6875 0.269531 2.847656 0.4375 2.984375 C 0.613281 3.128906 0.804688 3.25 1.015625 3.34375 C 1.222656 3.4375 1.425781 3.503906 1.625 3.546875 L 12.296875 5.890625 C 12.472656 5.929688 12.679688 5.953125 12.921875 5.953125 C 13.160156 5.953125 13.382812 5.929688 13.59375 5.890625 C 13.8125 5.847656 14 5.769531 14.15625 5.65625 C 14.320312 5.539062 14.425781 5.375 14.46875 5.15625 L 14.84375 5.234375 L 13.828125 9.890625 L 13.453125 9.8125 C 13.492188 9.632812 13.460938 9.460938 13.359375 9.296875 C 13.253906 9.140625 13.113281 8.988281 12.9375 8.84375 C 12.769531 8.707031 12.578125 8.59375 12.359375 8.5 C 12.148438 8.40625 11.957031 8.335938 11.78125 8.296875 L 8.046875 7.46875 C 8.734375 8.71875 9.394531 9.945312 10.03125 11.15625 C 10.664062 12.363281 11.332031 13.582031 12.03125 14.8125 C 12.050781 14.820312 12.070312 14.84375 12.09375 14.875 C 12.113281 14.90625 12.132812 14.921875 12.15625 14.921875 C 12.269531 14.953125 12.335938 14.910156 12.359375 14.796875 L 12.734375 14.875 L 12.046875 18.03125 L 11.671875 17.953125 C 11.703125 17.828125 11.703125 17.671875 11.671875 17.484375 C 11.640625 17.304688 11.585938 17.117188 11.515625 16.921875 C 11.460938 16.710938 11.390625 16.492188 11.296875 16.265625 C 10.609375 14.972656 9.90625 13.671875 9.1875 12.359375 C 8.46875 11.054688 7.769531 9.765625 7.09375 8.484375 C 6.863281 9.535156 6.476562 10.347656 5.9375 10.921875 C 5.40625 11.503906 4.671875 11.929688 3.734375 12.203125 Z M 0.078125 13.28125 "></path></g></g></g><g fill="#000000" fill-opacity="1"><g transform="translate(237.90772, 168.298061)"><g><path d="M -4.0625 10.75 L -2.296875 11.421875 L -2.390625 11.1875 C -2.753906 10.382812 -2.957031 9.546875 -3 8.671875 C -3.039062 7.796875 -2.859375 6.820312 -2.453125 5.75 C -2.148438 4.945312 -1.796875 4.285156 -1.390625 3.765625 C -0.984375 3.253906 -0.539062 2.875 -0.0625 2.625 C 0.40625 2.382812 0.894531 2.257812 1.40625 2.25 C 1.914062 2.25 2.414062 2.34375 2.90625 2.53125 C 3.695312 2.820312 4.3125 3.296875 4.75 3.953125 C 5.1875 4.617188 5.484375 5.441406 5.640625 6.421875 C 5.804688 7.410156 5.859375 8.5625 5.796875 9.875 C 5.742188 11.195312 5.613281 12.679688 5.40625 14.328125 C 6.320312 14.628906 7.117188 14.71875 7.796875 14.59375 C 8.484375 14.476562 9.066406 14.257812 9.546875 13.9375 C 10.023438 13.625 10.40625 13.238281 10.6875 12.78125 C 10.96875 12.332031 11.175781 11.9375 11.3125 11.59375 C 11.539062 10.988281 11.660156 10.421875 11.671875 9.890625 C 11.679688 9.367188 11.601562 8.878906 11.4375 8.421875 C 11.269531 7.960938 11.039062 7.550781 10.75 7.1875 C 10.46875 6.820312 10.164062 6.507812 9.84375 6.25 L 9.96875 5.953125 L 12.6875 6.984375 C 12.601562 7.179688 12.582031 7.445312 12.625 7.78125 C 12.675781 8.125 12.71875 8.519531 12.75 8.96875 C 12.789062 9.425781 12.785156 9.957031 12.734375 10.5625 C 12.679688 11.164062 12.507812 11.851562 12.21875 12.625 C 11.726562 13.90625 11.171875 14.875 10.546875 15.53125 C 9.929688 16.1875 9.273438 16.628906 8.578125 16.859375 C 7.878906 17.085938 7.160156 17.140625 6.421875 17.015625 C 5.691406 16.898438 4.96875 16.707031 4.25 16.4375 L -2.640625 13.84375 C -3.109375 13.664062 -3.585938 13.613281 -4.078125 13.6875 C -4.578125 13.769531 -4.898438 14.003906 -5.046875 14.390625 L -5.390625 14.265625 Z M -0.765625 12 L 4.21875 13.875 L 4.28125 13.515625 C 4.351562 12.910156 4.425781 12.160156 4.5 11.265625 C 4.570312 10.367188 4.554688 9.492188 4.453125 8.640625 C 4.359375 7.785156 4.148438 7.003906 3.828125 6.296875 C 3.503906 5.597656 3.007812 5.117188 2.34375 4.859375 C 1.601562 4.585938 0.875 4.660156 0.15625 5.078125 C -0.5625 5.492188 -1.101562 6.1875 -1.46875 7.15625 C -1.757812 7.914062 -1.84375 8.648438 -1.71875 9.359375 C -1.601562 10.078125 -1.375 10.78125 -1.03125 11.46875 Z M -0.765625 12 "></path></g></g></g><g fill="#000000" fill-opacity="1"><g transform="translate(232.149202, 183.135977)"><g></g></g></g><g fill="#000000" fill-opacity="1"><g transform="translate(228.717764, 190.876388)"><g><path d="M -8.78125 16.703125 C -8.945312 16.585938 -9.140625 16.484375 -9.359375 16.390625 C -9.578125 16.296875 -9.800781 16.238281 -10.03125 16.21875 C -10.257812 16.195312 -10.472656 16.203125 -10.671875 16.234375 C -10.878906 16.265625 -11.039062 16.363281 -11.15625 16.53125 L -11.46875 16.3125 L -8.6875 12.359375 L -8.375 12.578125 C -8.488281 12.742188 -8.53125 12.925781 -8.5 13.125 C -8.476562 13.320312 -8.410156 13.519531 -8.296875 13.71875 C -8.179688 13.914062 -8.039062 14.101562 -7.875 14.28125 C -7.71875 14.457031 -7.554688 14.601562 -7.390625 14.71875 L 0.828125 20.5 L -6.0625 8.0625 L 7.21875 10.109375 L -0.390625 4.765625 C -0.554688 4.648438 -0.75 4.546875 -0.96875 4.453125 C -1.195312 4.359375 -1.414062 4.296875 -1.625 4.265625 C -1.84375 4.234375 -2.054688 4.234375 -2.265625 4.265625 C -2.472656 4.304688 -2.628906 4.40625 -2.734375 4.5625 L -3.046875 4.34375 L -0.984375 1.40625 L -0.671875 1.625 C -0.785156 1.789062 -0.820312 1.972656 -0.78125 2.171875 C -0.75 2.367188 -0.675781 2.5625 -0.5625 2.75 C -0.457031 2.9375 -0.320312 3.117188 -0.15625 3.296875 C 0.0078125 3.472656 0.175781 3.617188 0.34375 3.734375 L 9.25 10 C 9.613281 10.257812 10 10.460938 10.40625 10.609375 C 10.820312 10.765625 11.1875 10.617188 11.5 10.171875 L 11.796875 10.390625 L 9.890625 13.09375 L -2.890625 11.0625 L 3.34375 22.40625 L 1.3125 25.296875 L 1.015625 25.078125 C 1.234375 24.773438 1.21875 24.398438 0.96875 23.953125 C 0.71875 23.515625 0.4375 23.1875 0.125 22.96875 Z M -8.78125 16.703125 "></path></g></g></g><g fill="#000000" fill-opacity="1"><g transform="translate(216.968291, 207.502022)"><g><path d="M -9.140625 1.65625 C -9.640625 0.675781 -9.832031 -0.132812 -9.71875 -0.78125 C -9.601562 -1.425781 -9.347656 -1.945312 -8.953125 -2.34375 C -8.691406 -2.601562 -8.410156 -2.796875 -8.109375 -2.921875 C -7.816406 -3.046875 -7.535156 -3.132812 -7.265625 -3.1875 C -7.003906 -3.25 -6.789062 -3.273438 -6.625 -3.265625 C -6.457031 -3.265625 -6.375 -3.265625 -6.375 -3.265625 L -5.109375 -0.25 C -5.460938 -0.457031 -5.785156 -0.609375 -6.078125 -0.703125 C -6.347656 -0.785156 -6.628906 -0.816406 -6.921875 -0.796875 C -7.222656 -0.773438 -7.488281 -0.648438 -7.71875 -0.421875 C -8.132812 0.00390625 -8.160156 0.640625 -7.796875 1.484375 L -5.796875 5.984375 L 8 11.328125 C 8.4375 11.472656 8.84375 11.585938 9.21875 11.671875 C 9.59375 11.753906 9.957031 11.617188 10.3125 11.265625 L 10.578125 11.515625 L 7.203125 14.90625 L 6.9375 14.65625 C 7 14.59375 7.019531 14.445312 7 14.21875 C 6.976562 13.988281 6.875 13.78125 6.6875 13.59375 C 6.539062 13.457031 6.363281 13.351562 6.15625 13.28125 L -4.53125 9.09375 L -0.015625 19.78125 C 0.0664062 19.957031 0.160156 20.097656 0.265625 20.203125 C 0.441406 20.378906 0.632812 20.460938 0.84375 20.453125 C 1.0625 20.441406 1.234375 20.375 1.359375 20.25 L 1.625 20.5 L -0.921875 23.0625 L -1.1875 22.8125 C -0.90625 22.53125 -0.78125 22.164062 -0.8125 21.71875 C -0.851562 21.28125 -0.96875 20.851562 -1.15625 20.4375 Z M -9.140625 1.65625 "></path></g></g></g><g fill="#000000" fill-opacity="1"><g transform="translate(205.407037, 219.075987)"><g><path d="M -2.15625 16.6875 C -2.507812 16.21875 -2.6875 15.554688 -2.6875 14.703125 C -2.6875 13.847656 -2.453125 12.988281 -1.984375 12.125 C -3.273438 12.726562 -4.378906 12.921875 -5.296875 12.703125 C -6.222656 12.484375 -6.9375 12.050781 -7.4375 11.40625 C -7.894531 10.789062 -8.15625 10.132812 -8.21875 9.4375 C -8.289062 8.75 -8.195312 8.054688 -7.9375 7.359375 C -7.675781 6.660156 -7.285156 5.984375 -6.765625 5.328125 C -6.242188 4.679688 -5.632812 4.09375 -4.9375 3.5625 C -4.289062 3.070312 -3.660156 2.695312 -3.046875 2.4375 C -2.441406 2.175781 -1.894531 1.972656 -1.40625 1.828125 C -0.914062 1.691406 -0.5 1.59375 -0.15625 1.53125 C 0.1875 1.476562 0.425781 1.398438 0.5625 1.296875 L 2.390625 3.703125 L 2.125 3.90625 C 1.769531 3.519531 1.347656 3.253906 0.859375 3.109375 C 0.367188 2.960938 -0.140625 2.914062 -0.671875 2.96875 C -1.210938 3.019531 -1.757812 3.160156 -2.3125 3.390625 C -2.863281 3.628906 -3.382812 3.929688 -3.875 4.296875 C -4.320312 4.648438 -4.734375 5.046875 -5.109375 5.484375 C -5.484375 5.921875 -5.757812 6.375 -5.9375 6.84375 C -6.125 7.3125 -6.207031 7.785156 -6.1875 8.265625 C -6.164062 8.742188 -6 9.191406 -5.6875 9.609375 C -5.363281 10.035156 -4.945312 10.332031 -4.4375 10.5 C -3.9375 10.664062 -3.398438 10.722656 -2.828125 10.671875 C -2.265625 10.617188 -1.707031 10.472656 -1.15625 10.234375 C -0.601562 9.992188 -0.101562 9.703125 0.34375 9.359375 L 1.296875 8.640625 L 2.015625 9.59375 L 0.984375 10.375 C 0.566406 10.6875 0.21875 11.054688 -0.0625 11.484375 C -0.34375 11.921875 -0.535156 12.351562 -0.640625 12.78125 C -0.753906 13.207031 -0.785156 13.628906 -0.734375 14.046875 C -0.679688 14.460938 -0.546875 14.816406 -0.328125 15.109375 C -0.0546875 15.472656 0.273438 15.71875 0.671875 15.84375 C 1.078125 15.976562 1.507812 16.019531 1.96875 15.96875 C 2.425781 15.925781 2.890625 15.8125 3.359375 15.625 C 3.828125 15.445312 4.269531 15.203125 4.6875 14.890625 C 5.0625 14.597656 5.394531 14.269531 5.6875 13.90625 C 5.976562 13.550781 6.1875 13.164062 6.3125 12.75 C 6.445312 12.34375 6.492188 11.921875 6.453125 11.484375 C 6.421875 11.046875 6.28125 10.597656 6.03125 10.140625 L 6.296875 9.9375 L 8.0625 12.25 C 7.90625 12.363281 7.773438 12.5 7.671875 12.65625 C 7.566406 12.8125 7.460938 13.007812 7.359375 13.25 C 7.171875 13.644531 6.898438 14.085938 6.546875 14.578125 C 6.203125 15.066406 5.6875 15.570312 5 16.09375 C 3.457031 17.269531 2.0625 17.898438 0.8125 17.984375 C -0.4375 18.066406 -1.425781 17.632812 -2.15625 16.6875 Z M -2.15625 16.6875 "></path></g></g></g><g fill="#000000" fill-opacity="1"><g transform="translate(195.600837, 227.191774)"><g><path d="M -15.09375 7.984375 L -14.921875 8.3125 C -15.078125 8.394531 -15.1875 8.53125 -15.25 8.71875 C -15.320312 8.90625 -15.359375 9.117188 -15.359375 9.359375 C -15.367188 9.597656 -15.335938 9.832031 -15.265625 10.0625 C -15.191406 10.289062 -15.113281 10.492188 -15.03125 10.671875 L -9.9375 20.296875 C -9.851562 20.453125 -9.738281 20.617188 -9.59375 20.796875 C -9.445312 20.972656 -9.273438 21.125 -9.078125 21.25 C -8.878906 21.375 -8.679688 21.460938 -8.484375 21.515625 C -8.296875 21.566406 -8.125 21.550781 -7.96875 21.46875 L -7.796875 21.796875 L -12.078125 24.046875 L -12.25 23.71875 C -11.925781 23.550781 -11.769531 23.210938 -11.78125 22.703125 C -11.800781 22.191406 -11.898438 21.769531 -12.078125 21.4375 L -17.171875 11.8125 C -17.253906 11.632812 -17.367188 11.453125 -17.515625 11.265625 C -17.671875 11.078125 -17.847656 10.921875 -18.046875 10.796875 C -18.242188 10.671875 -18.441406 10.578125 -18.640625 10.515625 C -18.835938 10.453125 -19.023438 10.46875 -19.203125 10.5625 L -19.375 10.234375 Z M -3.1875 11.703125 C -5.207031 12.765625 -6.898438 13.179688 -8.265625 12.953125 C -9.640625 12.734375 -10.613281 12.078125 -11.1875 10.984375 C -11.476562 10.429688 -11.625 9.84375 -11.625 9.21875 C -11.632812 8.601562 -11.484375 7.988281 -11.171875 7.375 C -10.859375 6.757812 -10.367188 6.144531 -9.703125 5.53125 C -9.046875 4.914062 -8.191406 4.332031 -7.140625 3.78125 L -1.546875 0.8125 L -1.375 1.140625 C -1.53125 1.222656 -1.640625 1.359375 -1.703125 1.546875 C -1.773438 1.734375 -1.8125 1.945312 -1.8125 2.1875 C -1.8125 2.4375 -1.773438 2.675781 -1.703125 2.90625 C -1.628906 3.132812 -1.550781 3.335938 -1.46875 3.515625 L 3.625 13.140625 C 3.707031 13.296875 3.820312 13.460938 3.96875 13.640625 C 4.113281 13.816406 4.28125 13.960938 4.46875 14.078125 C 4.664062 14.203125 4.859375 14.289062 5.046875 14.34375 C 5.242188 14.394531 5.421875 14.378906 5.578125 14.296875 L 5.75 14.625 L 1.484375 16.890625 L 1.3125 16.5625 C 1.632812 16.382812 1.785156 16.039062 1.765625 15.53125 C 1.753906 15.019531 1.660156 14.597656 1.484375 14.265625 L -0.59375 10.328125 Z M -6.5 4.828125 C -7.9375 5.597656 -8.851562 6.382812 -9.25 7.1875 C -9.65625 8 -9.675781 8.753906 -9.3125 9.453125 C -9.101562 9.847656 -8.804688 10.191406 -8.421875 10.484375 C -8.046875 10.773438 -7.597656 10.972656 -7.078125 11.078125 C -6.566406 11.191406 -6 11.203125 -5.375 11.109375 C -4.75 11.015625 -4.09375 10.785156 -3.40625 10.421875 L -1.171875 9.234375 L -4.15625 3.59375 Z M -6.5 4.828125 "></path></g></g></g><g fill="#000000" fill-opacity="1"><g transform="translate(175.800418, 237.462687)"><g><path d="M -11.4375 6.71875 C -11.664062 6.507812 -11.941406 6.296875 -12.265625 6.078125 C -12.585938 5.867188 -12.9375 5.691406 -13.3125 5.546875 C -13.6875 5.410156 -14.050781 5.316406 -14.40625 5.265625 C -14.769531 5.210938 -15.085938 5.234375 -15.359375 5.328125 L -15.46875 4.96875 L -14.140625 4.53125 C -13.046875 4.1875 -12.128906 4.140625 -11.390625 4.390625 C -10.648438 4.648438 -10.023438 5.035156 -9.515625 5.546875 L -6.828125 8.171875 C -6.410156 8.578125 -5.835938 8.863281 -5.109375 9.03125 C -4.378906 9.207031 -3.671875 9.1875 -2.984375 8.96875 L -4.59375 3.9375 C -4.65625 3.75 -4.738281 3.550781 -4.84375 3.34375 C -4.945312 3.144531 -5.078125 2.96875 -5.234375 2.8125 C -5.390625 2.65625 -5.554688 2.535156 -5.734375 2.453125 C -5.921875 2.367188 -6.109375 2.359375 -6.296875 2.421875 L -6.40625 2.0625 L -1.84375 0.59375 L -1.734375 0.953125 C -1.890625 1.003906 -2.023438 1.117188 -2.140625 1.296875 C -2.253906 1.472656 -2.328125 1.671875 -2.359375 1.890625 C -2.390625 2.109375 -2.394531 2.332031 -2.375 2.5625 C -2.351562 2.789062 -2.3125 3 -2.25 3.1875 L 1.09375 13.59375 C 1.144531 13.757812 1.226562 13.945312 1.34375 14.15625 C 1.46875 14.363281 1.597656 14.550781 1.734375 14.71875 C 1.867188 14.882812 2.03125 15.003906 2.21875 15.078125 C 2.40625 15.160156 2.601562 15.171875 2.8125 15.109375 L 2.9375 15.46875 L -1.59375 16.921875 L -1.71875 16.5625 C -1.550781 16.507812 -1.425781 16.398438 -1.34375 16.234375 C -1.257812 16.066406 -1.195312 15.867188 -1.15625 15.640625 C -1.113281 15.421875 -1.101562 15.191406 -1.125 14.953125 C -1.15625 14.710938 -1.195312 14.507812 -1.25 14.34375 L -2.421875 10.703125 C -3.160156 11.929688 -3.890625 13.125 -4.609375 14.28125 C -5.328125 15.4375 -6.050781 16.625 -6.78125 17.84375 C -6.769531 17.863281 -6.769531 17.890625 -6.78125 17.921875 C -6.800781 17.953125 -6.804688 17.976562 -6.796875 18 C -6.765625 18.113281 -6.691406 18.15625 -6.578125 18.125 L -6.453125 18.484375 L -9.53125 19.46875 L -9.65625 19.109375 C -9.539062 19.066406 -9.410156 18.984375 -9.265625 18.859375 C -9.117188 18.742188 -8.976562 18.609375 -8.84375 18.453125 C -8.6875 18.304688 -8.535156 18.140625 -8.390625 17.953125 C -7.617188 16.703125 -6.847656 15.4375 -6.078125 14.15625 C -5.304688 12.882812 -4.535156 11.628906 -3.765625 10.390625 C -4.785156 10.722656 -5.679688 10.800781 -6.453125 10.625 C -7.222656 10.457031 -7.96875 10.035156 -8.6875 9.359375 Z M -11.4375 6.71875 "></path></g></g></g><g fill="#000000" fill-opacity="1"><g transform="translate(161.126616, 242.285139)"><g><path d="M -11.34375 1.890625 L -11.03125 3.75 L -10.875 3.5625 C -10.363281 2.832031 -9.738281 2.226562 -9 1.75 C -8.269531 1.28125 -7.34375 0.953125 -6.21875 0.765625 C -5.363281 0.617188 -4.613281 0.59375 -3.96875 0.6875 C -3.320312 0.789062 -2.769531 0.984375 -2.3125 1.265625 C -1.851562 1.554688 -1.492188 1.921875 -1.234375 2.359375 C -0.984375 2.796875 -0.816406 3.269531 -0.734375 3.78125 C -0.597656 4.613281 -0.703125 5.382812 -1.046875 6.09375 C -1.390625 6.8125 -1.945312 7.484375 -2.71875 8.109375 C -3.488281 8.742188 -4.457031 9.363281 -5.625 9.96875 C -6.800781 10.582031 -8.15625 11.21875 -9.6875 11.875 C -9.46875 12.8125 -9.140625 13.546875 -8.703125 14.078125 C -8.265625 14.609375 -7.785156 15 -7.265625 15.25 C -6.742188 15.507812 -6.21875 15.648438 -5.6875 15.671875 C -5.164062 15.691406 -4.71875 15.671875 -4.34375 15.609375 C -3.707031 15.503906 -3.15625 15.320312 -2.6875 15.0625 C -2.226562 14.800781 -1.84375 14.484375 -1.53125 14.109375 C -1.21875 13.742188 -0.976562 13.347656 -0.8125 12.921875 C -0.644531 12.492188 -0.53125 12.070312 -0.46875 11.65625 L -0.140625 11.609375 L 0.34375 14.484375 C 0.125 14.515625 -0.117188 14.628906 -0.390625 14.828125 C -0.660156 15.035156 -0.976562 15.269531 -1.34375 15.53125 C -1.71875 15.800781 -2.179688 16.0625 -2.734375 16.3125 C -3.285156 16.570312 -3.960938 16.769531 -4.765625 16.90625 C -6.117188 17.125 -7.238281 17.128906 -8.125 16.921875 C -9.007812 16.722656 -9.722656 16.378906 -10.265625 15.890625 C -10.816406 15.398438 -11.222656 14.804688 -11.484375 14.109375 C -11.753906 13.410156 -11.953125 12.679688 -12.078125 11.921875 L -13.296875 4.671875 C -13.367188 4.179688 -13.5625 3.742188 -13.875 3.359375 C -14.195312 2.972656 -14.566406 2.8125 -14.984375 2.875 L -15.046875 2.5 Z M -10.765625 5.375 L -9.890625 10.625 L -9.53125 10.484375 C -8.96875 10.253906 -8.28125 9.941406 -7.46875 9.546875 C -6.664062 9.148438 -5.914062 8.691406 -5.21875 8.171875 C -4.53125 7.660156 -3.960938 7.09375 -3.515625 6.46875 C -3.078125 5.84375 -2.914062 5.175781 -3.03125 4.46875 C -3.15625 3.6875 -3.578125 3.085938 -4.296875 2.671875 C -5.023438 2.265625 -5.90625 2.148438 -6.9375 2.328125 C -7.738281 2.460938 -8.414062 2.753906 -8.96875 3.203125 C -9.53125 3.660156 -10.015625 4.21875 -10.421875 4.875 Z M -10.765625 5.375 "></path></g></g></g><g fill="#000000" fill-opacity="1"><g transform="translate(145.407812, 244.754009)"><g></g></g></g></g></g></svg> 