<?xml version="1.0" encoding="UTF-8"?> <svg xmlns="http://www.w3.org/2000/svg" xmlns:xlink="http://www.w3.org/1999/xlink" width="360" zoomAndPan="magnify" viewBox="0 0 270 359.999987" height="480" preserveAspectRatio="xMidYMid meet" version="1.0"><defs><clipPath id="c0fb9f6866"><path d="M 27 51.238281 L 243 51.238281 L 243 308.488281 L 27 308.488281 Z M 27 51.238281 " clip-rule="nonzero"></path></clipPath></defs><g clip-path="url(#c0fb9f6866)"><path fill="#860000" d="M 238.203125 118.980469 C 230.398438 145.523438 215.324219 175.210938 200.335938 198.480469 L 187.867188 217.839844 C 173.332031 240.414062 158.324219 262.441406 142.492188 284.125 L 124.671875 308.53125 C 123.882812 309.609375 123.578125 304.257812 123.578125 304.152344 L 123.472656 295.398438 L 129.980469 286.253906 C 143.671875 267.007812 157.371094 247.96875 170.34375 228.175781 L 182.476562 209.671875 C 189.8125 198.480469 196.972656 187.367188 203.625 175.730469 C 215.914062 154.210938 228.820312 125.960938 233.480469 101.652344 C 235.753906 89.796875 235.832031 76.496094 228.652344 66.355469 C 226.773438 63.703125 224.597656 61.671875 222.089844 59.691406 C 220.722656 58.621094 219.527344 57.875 217.8125 57.355469 C 215.695312 56.710938 213.699219 56.132812 211.449219 55.933594 C 197.683594 54.707031 186.132812 60.683594 176.925781 70.554688 C 164.566406 83.808594 157.214844 105.082031 156.308594 122.699219 L 156.042969 127.839844 C 155.695312 134.558594 156.1875 133.710938 156.230469 139.414062 C 156.238281 140.511719 156.984375 145.777344 156.65625 146.011719 C 154.808594 147.359375 152.609375 147.179688 150.597656 147.558594 L 147.789062 148.085938 C 145.144531 143.25 142.832031 138.511719 140.507812 133.457031 C 132.171875 115.3125 118.296875 88.675781 104.902344 74.167969 L 102.507812 71.566406 C 101.792969 70.796875 101.03125 70.132812 100.335938 69.46875 C 95.523438 64.890625 90.183594 61.289062 84.070312 58.742188 C 81.367188 57.613281 78.878906 57.085938 75.867188 57.269531 C 59.964844 58.230469 47.292969 66.421875 40.414062 80.828125 C 34.234375 93.757812 34.824219 109.878906 38.445312 123.511719 C 43.738281 143.433594 57.34375 166.257812 71.230469 181.164062 L 74.734375 184.929688 C 77.230469 187.605469 79.8125 190.179688 82.488281 192.679688 L 86.402344 196.339844 C 92.726562 202.25 99.429688 207.367188 106.46875 212.496094 C 117.679688 220.660156 129.175781 227.84375 141.53125 234.503906 C 137.273438 236.929688 130.738281 236.207031 126.34375 235.691406 C 109.695312 225.773438 93.925781 214.652344 79.613281 201.648438 L 77.222656 199.480469 C 73.625 196.207031 70.390625 192.84375 67.058594 189.261719 C 55.273438 176.589844 45.347656 162.535156 37.910156 146.871094 C 32.710938 135.910156 28.40625 123.003906 27.390625 110.945312 L 27.164062 108.207031 C 26.894531 105.019531 26.988281 101.933594 27.207031 98.765625 C 27.75 90.972656 29.605469 83.566406 33.292969 76.734375 C 44.371094 56.183594 67.4375 50.875 88.746094 57.628906 C 98.308594 60.660156 105.878906 66.394531 112.597656 73.640625 C 117.820312 79.269531 122.554688 85.019531 126.886719 91.425781 C 134.566406 102.78125 141.023438 114.644531 147.027344 127.097656 C 147.703125 126.160156 147.371094 125.011719 147.464844 123.773438 C 148.980469 104.015625 154.203125 85.054688 166.84375 69.5 C 167.640625 68.515625 168.535156 67.734375 169.222656 66.769531 C 169.984375 65.707031 170.910156 65.097656 171.796875 64.230469 C 175.859375 60.257812 180.132812 57.367188 185.261719 54.941406 C 193.820312 50.890625 203.019531 50.257812 212.042969 52.933594 C 217.300781 54.496094 221.988281 56.691406 226.496094 59.777344 C 229.503906 61.835938 232.144531 63.929688 234.617188 66.675781 C 247.296875 80.773438 243.074219 102.402344 238.203125 118.976562 Z M 238.203125 118.980469 " fill-opacity="1" fill-rule="nonzero"></path></g></svg> 