<?xml version="1.0" encoding="UTF-8"?> <svg xmlns="http://www.w3.org/2000/svg" xmlns:xlink="http://www.w3.org/1999/xlink" width="360" zoomAndPan="magnify" viewBox="0 0 270 359.999987" height="480" preserveAspectRatio="xMidYMid meet" version="1.0"><defs><g></g><clipPath id="ff37f8b380"><path d="M 171.886719 201.582031 L 172.296875 201.582031 L 172.296875 201.863281 L 171.886719 201.863281 Z M 171.886719 201.582031 " clip-rule="nonzero"></path></clipPath><clipPath id="66b9886c32"><path d="M 172.273438 201.75 C 171.523438 202.050781 172.125 201.601562 172.125 201.601562 " clip-rule="nonzero"></path></clipPath><clipPath id="db95a2b3c0"><path d="M 0.886719 0.582031 L 1.296875 0.582031 L 1.296875 0.863281 L 0.886719 0.863281 Z M 0.886719 0.582031 " clip-rule="nonzero"></path></clipPath><clipPath id="184d53d588"><path d="M 1.273438 0.75 C 0.523438 1.050781 1.125 0.601562 1.125 0.601562 " clip-rule="nonzero"></path></clipPath><clipPath id="64be65ee99"><rect x="0" width="2" y="0" height="1"></rect></clipPath><clipPath id="adcaa28926"><path d="M 78.0625 176.757812 L 78.472656 176.757812 L 78.472656 177 L 78.0625 177 Z M 78.0625 176.757812 " clip-rule="nonzero"></path></clipPath><clipPath id="81b5cdd97b"><path d="M 78.449219 176.925781 C 77.699219 177.148438 78.300781 176.773438 78.300781 176.773438 " clip-rule="nonzero"></path></clipPath><clipPath id="3440679ccf"><path d="M 0.0625 0.757812 L 0.472656 0.757812 L 0.472656 1 L 0.0625 1 Z M 0.0625 0.757812 " clip-rule="nonzero"></path></clipPath><clipPath id="3e81264aa6"><path d="M 0.449219 0.925781 C -0.300781 1.148438 0.300781 0.773438 0.300781 0.773438 " clip-rule="nonzero"></path></clipPath><clipPath id="c0891ecac0"><rect x="0" width="1" y="0" height="1"></rect></clipPath><clipPath id="908ce3bce7"><path d="M 0.0625 0.757812 L 0.472656 0.757812 L 0.472656 1 L 0.0625 1 Z M 0.0625 0.757812 " clip-rule="nonzero"></path></clipPath><clipPath id="d4bf285dfe"><path d="M 0.449219 0.925781 C -0.300781 1.148438 0.300781 0.773438 0.300781 0.773438 " clip-rule="nonzero"></path></clipPath><clipPath id="112e31d33a"><rect x="0" width="1" y="0" height="1"></rect></clipPath><clipPath id="9d11067ddb"><rect x="0" width="251" y="0" height="101"></rect></clipPath></defs><g clip-path="url(#ff37f8b380)"><g clip-path="url(#66b9886c32)"><g transform="matrix(1, 0, 0, 1, 171, 201)"><g clip-path="url(#64be65ee99)"><g clip-path="url(#db95a2b3c0)"><g clip-path="url(#184d53d588)"><rect x="-230.4" width="388.8" fill="#492c01" height="518.399981" y="-280.199997" fill-opacity="1"></rect></g></g></g></g></g></g><g clip-path="url(#adcaa28926)"><g clip-path="url(#81b5cdd97b)"><g transform="matrix(1, 0, 0, 1, 78, 176)"><g clip-path="url(#c0891ecac0)"><g clip-path="url(#3440679ccf)"><g clip-path="url(#3e81264aa6)"><rect x="-137.4" width="388.8" fill="#492c01" height="518.399981" y="-255.199997" fill-opacity="1"></rect></g></g></g></g><g transform="matrix(1, 0, 0, 1, 78, 176)"><g clip-path="url(#112e31d33a)"><g clip-path="url(#908ce3bce7)"><g clip-path="url(#d4bf285dfe)"><rect x="-137.4" width="388.8" fill="#492c01" height="518.399981" y="-255.199997" fill-opacity="1"></rect></g></g></g></g></g></g><g transform="matrix(1, 0, 0, 1, 14, 129)"><g clip-path="url(#9d11067ddb)"><g fill="#492c01" fill-opacity="1"><g transform="translate(2.622285, 66.186671)"><g><path d="M 113.75 -47.640625 C 113.75 -47.585938 113.707031 -47.488281 113.625 -47.34375 C 113.539062 -47.207031 113.273438 -47.222656 112.828125 -47.390625 C 112.273438 -47.609375 111.71875 -47.742188 111.15625 -47.796875 C 110.601562 -47.859375 110.101562 -47.890625 109.65625 -47.890625 C 107.976562 -47.890625 105.859375 -47.148438 103.296875 -45.671875 C 100.734375 -44.191406 97.863281 -42.171875 94.6875 -39.609375 C 91.519531 -37.046875 88.179688 -34.09375 84.671875 -30.75 C 82.878906 -29.03125 80.9375 -26.972656 78.84375 -24.578125 C 76.757812 -22.179688 74.710938 -19.710938 72.703125 -17.171875 C 70.703125 -14.640625 68.894531 -12.226562 67.28125 -9.9375 C 65.664062 -7.65625 64.382812 -5.789062 63.4375 -4.34375 C 62.15625 -2.28125 61.125 -0.664062 60.34375 0.5 C 59.5625 1.664062 58.835938 2.140625 58.171875 1.921875 C 57.554688 1.867188 57.25 1.335938 57.25 0.328125 C 57.25 -1.003906 57.945312 -2.867188 59.34375 -5.265625 C 60.738281 -7.660156 62.632812 -10.554688 65.03125 -13.953125 C 66.082031 -16.078125 66.609375 -18.082031 66.609375 -19.96875 C 66.609375 -21.863281 66.132812 -23.535156 65.1875 -24.984375 C 62.125 -22.035156 59.3125 -19.332031 56.75 -16.875 C 54.1875 -14.425781 51.679688 -12.226562 49.234375 -10.28125 C 43.546875 -5.539062 38.398438 -1.929688 33.796875 0.546875 C 29.203125 3.023438 25.125 4.707031 21.5625 5.59375 C 18 6.488281 14.878906 6.9375 12.203125 6.9375 C 10.191406 6.9375 8.195312 6.644531 6.21875 6.0625 C 4.25 5.476562 2.625 4.445312 1.34375 2.96875 C 0.0625 1.488281 -0.578125 -0.613281 -0.578125 -3.34375 C -0.578125 -5.90625 0.0859375 -8.617188 1.421875 -11.484375 C 2.753906 -14.359375 4.703125 -17.175781 7.265625 -19.9375 C 9.828125 -22.695312 12.945312 -25.1875 16.625 -27.40625 C 19.96875 -29.46875 23.644531 -31.097656 27.65625 -32.296875 C 31.675781 -33.492188 35.382812 -34.289062 38.78125 -34.6875 C 38.21875 -35.132812 37.753906 -35.773438 37.390625 -36.609375 C 37.035156 -37.441406 36.859375 -38.390625 36.859375 -39.453125 C 36.859375 -42.066406 37.707031 -44.414062 39.40625 -46.5 C 41.101562 -48.59375 43.414062 -50.363281 46.34375 -51.8125 C 49.269531 -53.257812 52.613281 -54.375 56.375 -55.15625 C 60.132812 -55.9375 64.101562 -56.328125 68.28125 -56.328125 C 73.738281 -56.328125 78.625 -56.035156 82.9375 -55.453125 C 87.257812 -54.867188 91.191406 -54.15625 94.734375 -53.3125 C 98.273438 -52.476562 101.578125 -51.644531 104.640625 -50.8125 C 105.421875 -50.59375 106.660156 -50.242188 108.359375 -49.765625 C 110.054688 -49.296875 111.519531 -48.8125 112.75 -48.3125 C 113.414062 -48.082031 113.75 -47.859375 113.75 -47.640625 Z M 39.953125 -34.765625 C 40.453125 -34.828125 41.078125 -34.867188 41.828125 -34.890625 C 42.578125 -34.921875 43.207031 -34.9375 43.71875 -34.9375 C 48.332031 -34.9375 52.394531 -34.320312 55.90625 -33.09375 C 59.414062 -31.875 62.175781 -30.203125 64.1875 -28.078125 C 67.082031 -30.472656 70.101562 -32.753906 73.25 -34.921875 C 76.40625 -37.097656 79.65625 -39.109375 83 -40.953125 C 87.394531 -43.347656 91.640625 -45.210938 95.734375 -46.546875 C 99.828125 -47.890625 103.660156 -48.671875 107.234375 -48.890625 C 104.554688 -49.554688 101.222656 -50.238281 97.234375 -50.9375 C 93.253906 -51.632812 88.8125 -52.21875 83.90625 -52.6875 C 79.007812 -53.164062 73.773438 -53.40625 68.203125 -53.40625 C 64.078125 -53.40625 60.1875 -53.054688 56.53125 -52.359375 C 52.882812 -51.660156 49.65625 -50.671875 46.84375 -49.390625 C 44.03125 -48.109375 41.828125 -46.601562 40.234375 -44.875 C 38.648438 -43.15625 37.859375 -41.234375 37.859375 -39.109375 C 37.859375 -38.054688 38.066406 -37.140625 38.484375 -36.359375 C 38.898438 -35.578125 39.390625 -35.046875 39.953125 -34.765625 Z M 105.984375 -47.96875 C 102.472656 -47.582031 98.765625 -46.566406 94.859375 -44.921875 C 90.960938 -43.273438 87.117188 -41.3125 83.328125 -39.03125 C 80.035156 -36.96875 76.941406 -34.804688 74.046875 -32.546875 C 71.148438 -30.296875 68.476562 -28.023438 66.03125 -25.734375 C 66.582031 -24.960938 67.023438 -24.101562 67.359375 -23.15625 C 67.691406 -22.207031 67.859375 -21.175781 67.859375 -20.0625 C 67.859375 -19.113281 67.691406 -18.082031 67.359375 -16.96875 C 70.148438 -20.476562 72.894531 -23.582031 75.59375 -26.28125 C 78.300781 -28.988281 80.90625 -31.457031 83.40625 -33.6875 C 87.53125 -37.414062 91.457031 -40.503906 95.1875 -42.953125 C 98.925781 -45.410156 102.523438 -47.082031 105.984375 -47.96875 Z M 63.359375 -27.328125 C 61.347656 -29.273438 58.695312 -30.765625 55.40625 -31.796875 C 52.125 -32.828125 48.53125 -33.34375 44.625 -33.34375 C 42.34375 -33.34375 39.671875 -33.007812 36.609375 -32.34375 C 33.546875 -31.675781 30.4375 -30.726562 27.28125 -29.5 C 24.132812 -28.28125 21.195312 -26.804688 18.46875 -25.078125 C 12.894531 -21.617188 8.546875 -18.035156 5.421875 -14.328125 C 2.304688 -10.628906 0.75 -6.941406 0.75 -3.265625 C 0.75 -0.753906 1.332031 1.164062 2.5 2.5 C 3.675781 3.84375 5.140625 4.75 6.890625 5.21875 C 8.648438 5.695312 10.394531 5.9375 12.125 5.9375 C 17.082031 5.9375 22.398438 4.304688 28.078125 1.046875 C 33.765625 -2.210938 40.226562 -6.960938 47.46875 -13.203125 C 49.863281 -15.316406 52.359375 -17.585938 54.953125 -20.015625 C 57.546875 -22.441406 60.347656 -24.878906 63.359375 -27.328125 Z M 63.359375 -27.328125 "></path></g></g></g><g fill="#492c01" fill-opacity="1"><g transform="translate(76.905947, 66.186671)"><g><path d="M 7.4375 -2.421875 C 7.4375 -3.816406 7.785156 -5.429688 8.484375 -7.265625 C 9.179688 -9.109375 10.003906 -11.03125 10.953125 -13.03125 C 10.003906 -12.476562 9.039062 -11.867188 8.0625 -11.203125 C 7.09375 -10.535156 6.21875 -9.921875 5.4375 -9.359375 C 4.757812 -8.910156 3.921875 -8.253906 2.921875 -7.390625 C 1.921875 -6.523438 1.140625 -5.789062 0.578125 -5.1875 C -0.140625 -4.34375 -1 -3.304688 -2 -2.078125 C -3.007812 -0.859375 -3.847656 0.195312 -4.515625 1.09375 C -4.847656 1.09375 -5.109375 0.894531 -5.296875 0.5 C -5.492188 0.113281 -5.59375 -0.300781 -5.59375 -0.75 C -5.59375 -1.53125 -5.019531 -2.796875 -3.875 -4.546875 C -2.738281 -6.304688 -1.320312 -8.226562 0.375 -10.3125 C 2.070312 -12.40625 3.785156 -14.34375 5.515625 -16.125 C 6.847656 -17.570312 8.210938 -18.894531 9.609375 -20.09375 C 11.003906 -21.289062 12.203125 -22.226562 13.203125 -22.90625 C 13.929688 -23.34375 14.820312 -23.671875 15.875 -23.890625 C 16.9375 -24.117188 18 -24.234375 19.0625 -24.234375 C 17.78125 -23.347656 16.441406 -22.289062 15.046875 -21.0625 C 13.648438 -19.832031 12.0625 -18.328125 10.28125 -16.546875 C 9.050781 -15.265625 7.765625 -13.898438 6.421875 -12.453125 C 5.085938 -11.003906 4.117188 -9.945312 3.515625 -9.28125 C 4.628906 -10.0625 5.9375 -10.9375 7.4375 -11.90625 C 8.9375 -12.882812 10.859375 -14.15625 13.203125 -15.71875 C 14.367188 -16.488281 15.734375 -17.375 17.296875 -18.375 C 18.859375 -19.382812 20.472656 -20.375 22.140625 -21.34375 C 23.816406 -22.320312 25.40625 -23.128906 26.90625 -23.765625 C 28.414062 -24.410156 29.671875 -24.734375 30.671875 -24.734375 C 31.566406 -24.734375 32.289062 -24.550781 32.84375 -24.1875 C 33.40625 -23.832031 33.6875 -23.207031 33.6875 -22.3125 C 33.6875 -21.925781 33.570312 -21.523438 33.34375 -21.109375 C 33.125 -20.691406 32.789062 -20.425781 32.34375 -20.3125 C 32.175781 -20.3125 31.953125 -20.445312 31.671875 -20.71875 C 31.398438 -21 31.09375 -21.253906 30.75 -21.484375 C 30.53125 -21.703125 30.222656 -21.878906 29.828125 -22.015625 C 29.441406 -22.160156 28.941406 -22.234375 28.328125 -22.234375 C 27.546875 -22.234375 26.53125 -21.96875 25.28125 -21.4375 C 24.03125 -20.90625 22.75 -20.273438 21.4375 -19.546875 C 20.125 -18.828125 18.953125 -18.132812 17.921875 -17.46875 C 16.890625 -16.800781 16.15625 -16.300781 15.71875 -15.96875 C 15.101562 -14.6875 14.445312 -13.191406 13.75 -11.484375 C 13.050781 -9.785156 12.476562 -8.15625 12.03125 -6.59375 C 11.582031 -5.039062 11.359375 -3.816406 11.359375 -2.921875 C 11.359375 -1.972656 11.78125 -1.5 12.625 -1.5 C 13.175781 -1.445312 13.976562 -1.753906 15.03125 -2.421875 C 16.09375 -3.085938 17.519531 -4.09375 19.3125 -5.4375 C 19.976562 -5.9375 20.8125 -6.601562 21.8125 -7.4375 C 22.8125 -8.269531 23.785156 -9.085938 24.734375 -9.890625 C 25.679688 -10.703125 26.378906 -11.304688 26.828125 -11.703125 C 27.210938 -12.085938 27.519531 -12.144531 27.75 -11.875 C 27.96875 -11.53125 27.851562 -11.164062 27.40625 -10.78125 C 26.289062 -9.71875 25.050781 -8.601562 23.6875 -7.4375 C 22.320312 -6.269531 20.914062 -5.15625 19.46875 -4.09375 C 17.46875 -2.59375 15.710938 -1.410156 14.203125 -0.546875 C 12.703125 0.316406 11.394531 0.75 10.28125 0.75 C 8.382812 0.75 7.4375 -0.304688 7.4375 -2.421875 Z M 7.4375 -2.421875 "></path></g></g></g><g fill="#492c01" fill-opacity="1"><g transform="translate(102.224235, 66.186671)"><g><path d="M 23.8125 -12.375 C 24.820312 -13.425781 25.976562 -14.566406 27.28125 -15.796875 C 28.59375 -17.023438 29.945312 -18.222656 31.34375 -19.390625 C 30.0625 -18.828125 28.863281 -18.3125 27.75 -17.84375 C 26.632812 -17.375 25.519531 -16.914062 24.40625 -16.46875 C 23.34375 -16.070312 22.210938 -15.734375 21.015625 -15.453125 C 19.816406 -15.179688 18.492188 -14.878906 17.046875 -14.546875 C 17.828125 -13.929688 18.21875 -12.925781 18.21875 -11.53125 C 18.21875 -10.03125 17.71875 -8.625 16.71875 -7.3125 C 15.71875 -6 14.570312 -4.867188 13.28125 -3.921875 C 11.164062 -2.253906 9.0625 -1.054688 6.96875 -0.328125 C 4.882812 0.390625 2.785156 0.75 0.671875 0.75 C -0.890625 0.75 -2.046875 0.414062 -2.796875 -0.25 C -3.546875 -0.914062 -3.921875 -1.78125 -3.921875 -2.84375 C -3.921875 -4.289062 -3.472656 -5.695312 -2.578125 -7.0625 C -1.691406 -8.425781 -0.332031 -10.140625 1.5 -12.203125 C 4.226562 -15.210938 6.765625 -17.648438 9.109375 -19.515625 C 11.453125 -21.378906 13.234375 -22.644531 14.453125 -23.3125 C 15.015625 -23.59375 15.820312 -23.832031 16.875 -24.03125 C 17.9375 -24.226562 18.859375 -24.328125 19.640625 -24.328125 C 17.523438 -22.597656 15.15625 -20.5625 12.53125 -18.21875 C 9.914062 -15.875 7.492188 -13.453125 5.265625 -10.953125 C 3.253906 -8.722656 1.816406 -6.976562 0.953125 -5.71875 C 0.0976562 -4.46875 -0.4375 -3.550781 -0.65625 -2.96875 C -0.882812 -2.382812 -1 -1.925781 -1 -1.59375 C -1 -1.082031 -0.816406 -0.726562 -0.453125 -0.53125 C -0.0976562 -0.34375 0.273438 -0.25 0.671875 -0.25 C 1.617188 -0.25 3.007812 -0.75 4.84375 -1.75 C 6.6875 -2.757812 9.054688 -4.679688 11.953125 -7.515625 C 13.734375 -9.242188 14.859375 -10.5 15.328125 -11.28125 C 15.804688 -12.0625 16.046875 -12.726562 16.046875 -13.28125 C 16.046875 -13.726562 15.820312 -14.007812 15.375 -14.125 C 14.988281 -14.007812 14.53125 -13.894531 14 -13.78125 C 13.46875 -13.675781 12.953125 -13.625 12.453125 -13.625 C 11.390625 -13.625 10.859375 -13.847656 10.859375 -14.296875 C 10.859375 -14.796875 11.257812 -15.128906 12.0625 -15.296875 C 12.875 -15.460938 13.535156 -15.546875 14.046875 -15.546875 C 14.316406 -15.546875 14.632812 -15.53125 15 -15.5 C 15.363281 -15.476562 15.65625 -15.410156 15.875 -15.296875 C 19.664062 -16.128906 22.953125 -17.046875 25.734375 -18.046875 C 27.410156 -18.660156 29.113281 -19.398438 30.84375 -20.265625 C 32.570312 -21.128906 34.519531 -22.175781 36.6875 -23.40625 C 37.300781 -23.738281 38.082031 -23.972656 39.03125 -24.109375 C 39.976562 -24.253906 40.726562 -24.296875 41.28125 -24.234375 C 38.882812 -22.066406 36.546875 -19.878906 34.265625 -17.671875 C 31.984375 -15.472656 29.945312 -13.425781 28.15625 -11.53125 C 26.375 -9.632812 24.984375 -8.101562 23.984375 -6.9375 C 22.984375 -5.707031 22.175781 -4.632812 21.5625 -3.71875 C 20.945312 -2.800781 20.640625 -2.035156 20.640625 -1.421875 C 20.640625 -0.859375 20.945312 -0.578125 21.5625 -0.578125 C 22.125 -0.578125 22.863281 -0.800781 23.78125 -1.25 C 24.695312 -1.695312 25.640625 -2.226562 26.609375 -2.84375 C 27.585938 -3.457031 28.410156 -4.015625 29.078125 -4.515625 C 30.023438 -5.234375 31.039062 -6.050781 32.125 -6.96875 C 33.21875 -7.894531 34.265625 -8.773438 35.265625 -9.609375 C 36.273438 -10.441406 37.054688 -11.113281 37.609375 -11.625 C 38.222656 -12.125 38.640625 -12.234375 38.859375 -11.953125 C 39.085938 -11.734375 39.003906 -11.425781 38.609375 -11.03125 C 37.890625 -10.414062 36.957031 -9.617188 35.8125 -8.640625 C 34.664062 -7.671875 33.550781 -6.722656 32.46875 -5.796875 C 31.382812 -4.878906 30.507812 -4.171875 29.84375 -3.671875 C 28.445312 -2.671875 26.898438 -1.679688 25.203125 -0.703125 C 23.503906 0.265625 21.984375 0.75 20.640625 0.75 C 18.691406 0.75 17.71875 -0.140625 17.71875 -1.921875 C 17.71875 -3.203125 18.257812 -4.757812 19.34375 -6.59375 C 20.4375 -8.4375 21.925781 -10.363281 23.8125 -12.375 Z M 23.8125 -12.375 "></path></g></g></g><g fill="#492c01" fill-opacity="1"><g transform="translate(138.405149, 66.186671)"><g><path d="M 13.28125 -1.421875 C 13.28125 -0.859375 13.585938 -0.578125 14.203125 -0.578125 C 14.816406 -0.578125 15.566406 -0.800781 16.453125 -1.25 C 17.347656 -1.695312 18.285156 -2.226562 19.265625 -2.84375 C 20.242188 -3.457031 21.066406 -4.015625 21.734375 -4.515625 C 22.679688 -5.234375 23.710938 -6.050781 24.828125 -6.96875 C 25.941406 -7.894531 27 -8.773438 28 -9.609375 C 29 -10.441406 29.78125 -11.113281 30.34375 -11.625 C 30.894531 -12.175781 31.3125 -12.285156 31.59375 -11.953125 C 31.8125 -11.785156 31.703125 -11.476562 31.265625 -11.03125 C 30.535156 -10.414062 29.613281 -9.617188 28.5 -8.640625 C 27.382812 -7.671875 26.269531 -6.722656 25.15625 -5.796875 C 24.039062 -4.878906 23.148438 -4.171875 22.484375 -3.671875 C 21.148438 -2.671875 19.628906 -1.679688 17.921875 -0.703125 C 16.222656 0.265625 14.675781 0.75 13.28125 0.75 C 11.332031 0.75 10.359375 -0.140625 10.359375 -1.921875 C 10.359375 -2.816406 10.648438 -3.863281 11.234375 -5.0625 C 11.828125 -6.257812 12.566406 -7.46875 13.453125 -8.6875 C 14.117188 -9.582031 14.84375 -10.460938 15.625 -11.328125 C 16.40625 -12.191406 17.210938 -13.039062 18.046875 -13.875 C 17.441406 -13.476562 16.582031 -12.972656 15.46875 -12.359375 C 14.351562 -11.753906 13.320312 -11.453125 12.375 -11.453125 C 11.59375 -11.453125 10.992188 -11.644531 10.578125 -12.03125 C 10.160156 -12.425781 9.613281 -12.625 8.9375 -12.625 C 8.5 -12.625 7.957031 -12.398438 7.3125 -11.953125 C 6.675781 -11.503906 6.078125 -11.03125 5.515625 -10.53125 C 4.960938 -10.03125 4.570312 -9.664062 4.34375 -9.4375 C 2.726562 -7.820312 1.210938 -6.132812 -0.203125 -4.375 C -1.628906 -2.625 -3.066406 -0.800781 -4.515625 1.09375 C -4.847656 1.09375 -5.109375 0.894531 -5.296875 0.5 C -5.492188 0.113281 -5.59375 -0.328125 -5.59375 -0.828125 C -5.59375 -1.554688 -5.019531 -2.785156 -3.875 -4.515625 C -2.738281 -6.242188 -1.320312 -8.164062 0.375 -10.28125 C 2.070312 -12.394531 3.785156 -14.34375 5.515625 -16.125 C 6.847656 -17.570312 8.210938 -18.894531 9.609375 -20.09375 C 11.003906 -21.289062 12.203125 -22.226562 13.203125 -22.90625 C 13.929688 -23.34375 14.835938 -23.671875 15.921875 -23.890625 C 17.003906 -24.117188 18.078125 -24.234375 19.140625 -24.234375 C 18.078125 -23.515625 16.789062 -22.5 15.28125 -21.1875 C 13.78125 -19.875 12.25 -18.421875 10.6875 -16.828125 C 9.132812 -15.242188 7.691406 -13.675781 6.359375 -12.125 C 7.128906 -12.726562 7.945312 -13.296875 8.8125 -13.828125 C 9.675781 -14.359375 10.414062 -14.625 11.03125 -14.625 C 11.8125 -14.625 12.476562 -14.457031 13.03125 -14.125 C 13.59375 -13.789062 14.207031 -13.625 14.875 -13.625 C 15.820312 -13.625 16.863281 -13.929688 18 -14.546875 C 19.144531 -15.160156 20.222656 -15.9375 21.234375 -16.875 C 22.679688 -18.21875 24.15625 -19.5 25.65625 -20.71875 C 27.164062 -21.945312 28.421875 -22.84375 29.421875 -23.40625 C 30.035156 -23.738281 30.816406 -23.972656 31.765625 -24.109375 C 32.710938 -24.253906 33.460938 -24.296875 34.015625 -24.234375 C 31.617188 -22.066406 29.273438 -19.878906 26.984375 -17.671875 C 24.703125 -15.472656 22.65625 -13.425781 20.84375 -11.53125 C 19.039062 -9.632812 17.632812 -8.101562 16.625 -6.9375 C 15.6875 -5.769531 14.894531 -4.710938 14.25 -3.765625 C 13.601562 -2.816406 13.28125 -2.035156 13.28125 -1.421875 Z M 13.28125 -1.421875 "></path></g></g></g><g fill="#492c01" fill-opacity="1"><g transform="translate(167.316453, 66.186671)"><g><path d="M 53.484375 -49.140625 C 55.441406 -50.203125 57.4375 -51.007812 59.46875 -51.5625 C 61.5 -52.125 63.351562 -52.40625 65.03125 -52.40625 C 66.8125 -52.40625 68.160156 -52.347656 69.078125 -52.234375 C 69.992188 -52.117188 71.007812 -52.0625 72.125 -52.0625 C 73.46875 -52.0625 74.566406 -52.226562 75.421875 -52.5625 C 76.285156 -52.90625 76.941406 -53.242188 77.390625 -53.578125 C 78.566406 -54.410156 79.820312 -55.492188 81.15625 -56.828125 C 81.375 -57.160156 81.597656 -57.273438 81.828125 -57.171875 C 81.992188 -57.109375 82.046875 -56.96875 81.984375 -56.75 C 81.929688 -56.53125 81.847656 -56.363281 81.734375 -56.25 C 80.898438 -55.132812 80.160156 -54.226562 79.515625 -53.53125 C 78.878906 -52.832031 78.171875 -52.09375 77.390625 -51.3125 C 76.160156 -50.144531 75.003906 -49.363281 73.921875 -48.96875 C 72.835938 -48.582031 71.65625 -48.390625 70.375 -48.390625 C 68.976562 -48.390625 67.707031 -48.5 66.5625 -48.71875 C 65.425781 -48.945312 63.6875 -49.0625 61.34375 -49.0625 C 59.007812 -49.0625 56.53125 -48.570312 53.90625 -47.59375 C 51.289062 -46.625 48.835938 -45.078125 46.546875 -42.953125 C 44.878906 -41.453125 43.390625 -39.976562 42.078125 -38.53125 C 40.773438 -37.082031 39.425781 -35.519531 38.03125 -33.84375 C 36.632812 -32.175781 35.046875 -30.28125 33.265625 -28.15625 C 31.484375 -26.039062 29.335938 -23.566406 26.828125 -20.734375 C 20.640625 -13.816406 15.34375 -8.503906 10.9375 -4.796875 C 6.539062 -1.097656 3.035156 0.75 0.421875 0.75 C -0.804688 0.75 -1.78125 0.414062 -2.5 -0.25 C -3.226562 -0.914062 -3.59375 -1.890625 -3.59375 -3.171875 C -3.59375 -4.734375 -3.035156 -6.570312 -1.921875 -8.6875 C -0.804688 -10.8125 0.78125 -12.929688 2.84375 -15.046875 C 4.789062 -16.992188 6.863281 -18.691406 9.0625 -20.140625 C 11.269531 -21.585938 13.398438 -22.710938 15.453125 -23.515625 C 17.515625 -24.328125 19.273438 -24.734375 20.734375 -24.734375 C 21.503906 -24.734375 22.222656 -24.566406 22.890625 -24.234375 C 23.566406 -23.898438 23.90625 -23.257812 23.90625 -22.3125 C 23.90625 -21.59375 23.625 -20.703125 23.0625 -19.640625 C 24.738281 -21.648438 26.203125 -23.378906 27.453125 -24.828125 C 28.703125 -26.273438 29.867188 -27.625 30.953125 -28.875 C 32.046875 -30.125 33.175781 -31.421875 34.34375 -32.765625 C 36.46875 -35.160156 38.460938 -37.304688 40.328125 -39.203125 C 42.191406 -41.097656 44.164062 -42.851562 46.25 -44.46875 C 48.34375 -46.082031 50.753906 -47.640625 53.484375 -49.140625 Z M 22.5625 -22.65625 C 22.5625 -23.257812 22.226562 -23.5625 21.5625 -23.5625 C 20.226562 -23.5625 18.148438 -22.488281 15.328125 -20.34375 C 12.515625 -18.207031 9.382812 -15.382812 5.9375 -11.875 C 4.039062 -9.8125 2.367188 -7.875 0.921875 -6.0625 C -0.523438 -4.25 -1.25 -2.8125 -1.25 -1.75 C -1.25 -1.414062 -1.164062 -1.09375 -1 -0.78125 C -0.832031 -0.476562 -0.472656 -0.328125 0.078125 -0.328125 C 1.304688 -0.328125 3.3125 -1.457031 6.09375 -3.71875 C 8.882812 -5.976562 11.976562 -8.863281 15.375 -12.375 C 16.320312 -13.375 17.351562 -14.523438 18.46875 -15.828125 C 19.582031 -17.140625 20.539062 -18.421875 21.34375 -19.671875 C 22.15625 -20.929688 22.5625 -21.925781 22.5625 -22.65625 Z M 22.5625 -22.65625 "></path></g></g></g><g fill="#492c01" fill-opacity="1"><g transform="translate(190.713009, 66.186671)"><g><path d="M 0.25 0.75 C -0.75 0.75 -1.707031 0.5 -2.625 0 C -3.550781 -0.5 -4.015625 -1.554688 -4.015625 -3.171875 C -4.015625 -4.285156 -3.59375 -5.84375 -2.75 -7.84375 C -1.914062 -9.851562 -0.164062 -12.140625 2.5 -14.703125 C 4.394531 -16.492188 6.457031 -18.140625 8.6875 -19.640625 C 10.914062 -21.140625 13.070312 -22.363281 15.15625 -23.3125 C 17.25 -24.257812 18.96875 -24.734375 20.3125 -24.734375 C 21.144531 -24.734375 21.769531 -24.535156 22.1875 -24.140625 C 22.601562 -23.753906 22.8125 -23.257812 22.8125 -22.65625 C 22.8125 -21.757812 22.363281 -20.796875 21.46875 -19.765625 C 20.582031 -18.734375 19.554688 -17.828125 18.390625 -17.046875 C 17.046875 -16.160156 15.535156 -15.394531 13.859375 -14.75 C 12.191406 -14.113281 10.71875 -13.796875 9.4375 -13.796875 C 8.832031 -13.796875 8.304688 -13.90625 7.859375 -14.125 C 6.460938 -12.84375 5.09375 -11.445312 3.75 -9.9375 C 2.414062 -8.4375 1.300781 -6.988281 0.40625 -5.59375 C -0.476562 -4.207031 -0.921875 -3.066406 -0.921875 -2.171875 C -0.921875 -1.054688 -0.28125 -0.5 1 -0.5 C 1.832031 -0.5 2.890625 -0.75 4.171875 -1.25 C 5.453125 -1.75 6.789062 -2.445312 8.1875 -3.34375 C 10.195312 -4.625 12.160156 -6.054688 14.078125 -7.640625 C 16.003906 -9.234375 17.492188 -10.503906 18.546875 -11.453125 C 18.828125 -11.734375 19.109375 -11.957031 19.390625 -12.125 C 19.671875 -12.289062 19.894531 -12.289062 20.0625 -12.125 C 20.226562 -11.957031 20.238281 -11.757812 20.09375 -11.53125 C 19.957031 -11.3125 19.804688 -11.117188 19.640625 -10.953125 C 18.242188 -9.671875 16.738281 -8.375 15.125 -7.0625 C 13.507812 -5.75 11.785156 -4.453125 9.953125 -3.171875 C 8.554688 -2.222656 6.992188 -1.332031 5.265625 -0.5 C 3.535156 0.332031 1.863281 0.75 0.25 0.75 Z M 21.390625 -23.234375 C 21.390625 -23.566406 21.195312 -23.734375 20.8125 -23.734375 C 20.25 -23.734375 19.21875 -23.242188 17.71875 -22.265625 C 16.21875 -21.296875 14.613281 -20.113281 12.90625 -18.71875 C 11.207031 -17.320312 9.71875 -15.984375 8.4375 -14.703125 C 8.664062 -14.597656 8.890625 -14.546875 9.109375 -14.546875 C 9.941406 -14.546875 11.148438 -14.878906 12.734375 -15.546875 C 14.328125 -16.210938 15.90625 -17.1875 17.46875 -18.46875 C 18.632812 -19.414062 19.578125 -20.320312 20.296875 -21.1875 C 21.023438 -22.050781 21.390625 -22.734375 21.390625 -23.234375 Z M 21.390625 -23.234375 "></path></g></g></g><g fill="#492c01" fill-opacity="1"><g transform="translate(208.093211, 66.186671)"><g><path d="M 7.4375 -2.421875 C 7.4375 -3.816406 7.785156 -5.429688 8.484375 -7.265625 C 9.179688 -9.109375 10.003906 -11.03125 10.953125 -13.03125 C 10.003906 -12.476562 9.039062 -11.867188 8.0625 -11.203125 C 7.09375 -10.535156 6.21875 -9.921875 5.4375 -9.359375 C 4.757812 -8.910156 3.921875 -8.253906 2.921875 -7.390625 C 1.921875 -6.523438 1.140625 -5.789062 0.578125 -5.1875 C -0.140625 -4.34375 -1 -3.304688 -2 -2.078125 C -3.007812 -0.859375 -3.847656 0.195312 -4.515625 1.09375 C -4.847656 1.09375 -5.109375 0.894531 -5.296875 0.5 C -5.492188 0.113281 -5.59375 -0.300781 -5.59375 -0.75 C -5.59375 -1.53125 -5.019531 -2.796875 -3.875 -4.546875 C -2.738281 -6.304688 -1.320312 -8.226562 0.375 -10.3125 C 2.070312 -12.40625 3.785156 -14.34375 5.515625 -16.125 C 6.847656 -17.570312 8.210938 -18.894531 9.609375 -20.09375 C 11.003906 -21.289062 12.203125 -22.226562 13.203125 -22.90625 C 13.929688 -23.34375 14.820312 -23.671875 15.875 -23.890625 C 16.9375 -24.117188 18 -24.234375 19.0625 -24.234375 C 17.78125 -23.347656 16.441406 -22.289062 15.046875 -21.0625 C 13.648438 -19.832031 12.0625 -18.328125 10.28125 -16.546875 C 9.050781 -15.265625 7.765625 -13.898438 6.421875 -12.453125 C 5.085938 -11.003906 4.117188 -9.945312 3.515625 -9.28125 C 4.628906 -10.0625 5.9375 -10.9375 7.4375 -11.90625 C 8.9375 -12.882812 10.859375 -14.15625 13.203125 -15.71875 C 14.367188 -16.488281 15.734375 -17.375 17.296875 -18.375 C 18.859375 -19.382812 20.472656 -20.375 22.140625 -21.34375 C 23.816406 -22.320312 25.40625 -23.128906 26.90625 -23.765625 C 28.414062 -24.410156 29.671875 -24.734375 30.671875 -24.734375 C 31.566406 -24.734375 32.289062 -24.550781 32.84375 -24.1875 C 33.40625 -23.832031 33.6875 -23.207031 33.6875 -22.3125 C 33.6875 -21.925781 33.570312 -21.523438 33.34375 -21.109375 C 33.125 -20.691406 32.789062 -20.425781 32.34375 -20.3125 C 32.175781 -20.3125 31.953125 -20.445312 31.671875 -20.71875 C 31.398438 -21 31.09375 -21.253906 30.75 -21.484375 C 30.53125 -21.703125 30.222656 -21.878906 29.828125 -22.015625 C 29.441406 -22.160156 28.941406 -22.234375 28.328125 -22.234375 C 27.546875 -22.234375 26.53125 -21.96875 25.28125 -21.4375 C 24.03125 -20.90625 22.75 -20.273438 21.4375 -19.546875 C 20.125 -18.828125 18.953125 -18.132812 17.921875 -17.46875 C 16.890625 -16.800781 16.15625 -16.300781 15.71875 -15.96875 C 15.101562 -14.6875 14.445312 -13.191406 13.75 -11.484375 C 13.050781 -9.785156 12.476562 -8.15625 12.03125 -6.59375 C 11.582031 -5.039062 11.359375 -3.816406 11.359375 -2.921875 C 11.359375 -1.972656 11.78125 -1.5 12.625 -1.5 C 13.175781 -1.445312 13.976562 -1.753906 15.03125 -2.421875 C 16.09375 -3.085938 17.519531 -4.09375 19.3125 -5.4375 C 19.976562 -5.9375 20.8125 -6.601562 21.8125 -7.4375 C 22.8125 -8.269531 23.785156 -9.085938 24.734375 -9.890625 C 25.679688 -10.703125 26.378906 -11.304688 26.828125 -11.703125 C 27.210938 -12.085938 27.519531 -12.144531 27.75 -11.875 C 27.96875 -11.53125 27.851562 -11.164062 27.40625 -10.78125 C 26.289062 -9.71875 25.050781 -8.601562 23.6875 -7.4375 C 22.320312 -6.269531 20.914062 -5.15625 19.46875 -4.09375 C 17.46875 -2.59375 15.710938 -1.410156 14.203125 -0.546875 C 12.703125 0.316406 11.394531 0.75 10.28125 0.75 C 8.382812 0.75 7.4375 -0.304688 7.4375 -2.421875 Z M 7.4375 -2.421875 "></path></g></g></g></g></g></svg> 