<?xml version="1.0" encoding="UTF-8"?> <svg xmlns="http://www.w3.org/2000/svg" xmlns:xlink="http://www.w3.org/1999/xlink" width="360" zoomAndPan="magnify" viewBox="0 0 270 359.999987" height="480" preserveAspectRatio="xMidYMid meet" version="1.0"><defs><g></g><clipPath id="e213c93ce9"><path d="M 171.886719 201.582031 L 172.296875 201.582031 L 172.296875 201.863281 L 171.886719 201.863281 Z M 171.886719 201.582031 " clip-rule="nonzero"></path></clipPath><clipPath id="a4e6391307"><path d="M 172.273438 201.75 C 171.523438 202.050781 172.125 201.601562 172.125 201.601562 " clip-rule="nonzero"></path></clipPath><clipPath id="efdb308ccf"><path d="M 0.886719 0.582031 L 1.296875 0.582031 L 1.296875 0.863281 L 0.886719 0.863281 Z M 0.886719 0.582031 " clip-rule="nonzero"></path></clipPath><clipPath id="62e7c4c828"><path d="M 1.273438 0.75 C 0.523438 1.050781 1.125 0.601562 1.125 0.601562 " clip-rule="nonzero"></path></clipPath><clipPath id="e689c2ff6f"><rect x="0" width="2" y="0" height="1"></rect></clipPath><clipPath id="d155754db5"><rect x="0" width="252" y="0" height="82"></rect></clipPath></defs><g clip-path="url(#e213c93ce9)"><g clip-path="url(#a4e6391307)"><g transform="matrix(1, 0, 0, 1, 171, 201)"><g clip-path="url(#e689c2ff6f)"><g clip-path="url(#efdb308ccf)"><g clip-path="url(#62e7c4c828)"><rect x="-230.4" width="388.8" fill="#492c01" height="518.399981" y="-280.199997" fill-opacity="1"></rect></g></g></g></g></g></g><g transform="matrix(1, 0, 0, 1, 12, 138)"><g clip-path="url(#d155754db5)"><g fill="#492c01" fill-opacity="1"><g transform="translate(2.54737, 53.140656)"><g><path d="M 20.015625 -25.09375 C 19.210938 -25.8125 18.640625 -26.625 18.296875 -27.53125 C 17.960938 -28.445312 17.773438 -29.351562 17.734375 -30.25 C 17.691406 -32.613281 18.335938 -34.6875 19.671875 -36.46875 C 21.015625 -38.257812 22.851562 -39.765625 25.1875 -40.984375 C 27.53125 -42.210938 30.226562 -43.128906 33.28125 -43.734375 C 36.34375 -44.335938 39.59375 -44.640625 43.03125 -44.640625 C 46.6875 -44.640625 50.164062 -44.445312 53.46875 -44.0625 C 56.769531 -43.6875 59.78125 -43.238281 62.5 -42.71875 C 65.226562 -42.207031 67.5625 -41.707031 69.5 -41.21875 C 71.4375 -40.726562 72.875 -40.351562 73.8125 -40.09375 C 74.300781 -39.957031 75.101562 -39.71875 76.21875 -39.375 C 77.332031 -39.039062 78.226562 -38.71875 78.90625 -38.40625 C 79.21875 -38.28125 79.550781 -38.113281 79.90625 -37.90625 C 80.257812 -37.707031 80.347656 -37.519531 80.171875 -37.34375 C 80.078125 -37.25 79.863281 -37.289062 79.53125 -37.46875 C 79.195312 -37.65625 78.851562 -37.75 78.5 -37.75 C 77.25 -37.75 75.820312 -37.34375 74.21875 -36.53125 C 72.613281 -35.726562 71.003906 -34.679688 69.390625 -33.390625 C 67.335938 -31.828125 65.273438 -30.03125 63.203125 -28 C 61.128906 -25.976562 59.289062 -24.070312 57.6875 -22.28125 C 58.21875 -21.476562 58.640625 -20.617188 58.953125 -19.703125 C 59.265625 -18.796875 59.421875 -17.78125 59.421875 -16.65625 C 59.421875 -16.125 59.382812 -15.578125 59.3125 -15.015625 C 59.25 -14.460938 59.109375 -13.875 58.890625 -13.25 C 60.179688 -14.675781 61.472656 -16.082031 62.765625 -17.46875 C 64.066406 -18.851562 65.34375 -20.125 66.59375 -21.28125 C 70.25 -24.675781 73.925781 -27.765625 77.625 -30.546875 C 81.332031 -33.335938 85.070312 -35.566406 88.84375 -37.234375 C 92.613281 -38.910156 96.367188 -39.75 100.109375 -39.75 C 101.535156 -39.75 102.960938 -39.523438 104.390625 -39.078125 C 105.828125 -38.628906 106.8125 -38.003906 107.34375 -37.203125 C 107.519531 -36.984375 107.617188 -36.75 107.640625 -36.5 C 107.660156 -36.257812 107.5625 -36.09375 107.34375 -36 C 107.207031 -36 106.894531 -36.222656 106.40625 -36.671875 C 105.644531 -37.335938 104.757812 -37.894531 103.75 -38.34375 C 102.75 -38.789062 101.601562 -39.015625 100.3125 -39.015625 C 97.5 -39.015625 94.597656 -38.351562 91.609375 -37.03125 C 88.617188 -35.71875 85.660156 -33.988281 82.734375 -31.84375 C 79.816406 -29.707031 77.039062 -27.4375 74.40625 -25.03125 C 71.78125 -22.625 69.421875 -20.300781 67.328125 -18.0625 C 64.203125 -14.8125 61.585938 -11.859375 59.484375 -9.203125 C 57.390625 -6.546875 55.695312 -4.347656 54.40625 -2.609375 C 53.5625 -1.453125 52.890625 -0.53125 52.390625 0.15625 C 51.898438 0.851562 51.410156 1.222656 50.921875 1.265625 C 50.296875 1.316406 49.992188 0.992188 50.015625 0.296875 C 50.046875 -0.390625 50.238281 -1.113281 50.59375 -1.875 C 51.082031 -2.894531 51.90625 -4.21875 53.0625 -5.84375 C 54.226562 -7.476562 55.566406 -9.210938 57.078125 -11.046875 C 57.578125 -12.066406 57.9375 -13.023438 58.15625 -13.921875 C 58.375 -14.816406 58.484375 -15.664062 58.484375 -16.46875 C 58.484375 -18.289062 57.972656 -19.960938 56.953125 -21.484375 C 55.742188 -20.097656 54.492188 -18.65625 53.203125 -17.15625 C 51.910156 -15.664062 50.550781 -14.1875 49.125 -12.71875 C 45.332031 -8.789062 41.679688 -5.609375 38.171875 -3.171875 C 34.671875 -0.742188 31.367188 1.101562 28.265625 2.375 C 25.171875 3.644531 22.351562 4.515625 19.8125 4.984375 C 17.269531 5.453125 15.035156 5.6875 13.109375 5.6875 C 11.367188 5.6875 9.640625 5.453125 7.921875 4.984375 C 6.210938 4.515625 4.773438 3.597656 3.609375 2.234375 C 2.453125 0.878906 1.875 -1.09375 1.875 -3.6875 C 1.875 -6 2.5625 -8.457031 3.9375 -11.0625 C 5.320312 -13.675781 7.363281 -16.210938 10.0625 -18.671875 C 12.769531 -21.128906 16.085938 -23.269531 20.015625 -25.09375 Z M 76.828125 -38.34375 C 75.359375 -38.75 72.992188 -39.265625 69.734375 -39.890625 C 66.472656 -40.515625 62.554688 -41.082031 57.984375 -41.59375 C 53.410156 -42.101562 48.425781 -42.359375 43.03125 -42.359375 C 39.863281 -42.359375 36.816406 -42.085938 33.890625 -41.546875 C 30.972656 -41.015625 28.363281 -40.222656 26.0625 -39.171875 C 23.769531 -38.128906 21.960938 -36.859375 20.640625 -35.359375 C 19.328125 -33.867188 18.671875 -32.164062 18.671875 -30.25 C 18.671875 -29.445312 18.847656 -28.617188 19.203125 -27.765625 C 19.554688 -26.921875 20.140625 -26.164062 20.953125 -25.5 C 24.066406 -26.832031 27.238281 -27.800781 30.46875 -28.40625 C 33.707031 -29.007812 36.691406 -29.3125 39.421875 -29.3125 C 42.941406 -29.3125 46.140625 -28.894531 49.015625 -28.0625 C 51.898438 -27.238281 54.253906 -25.9375 56.078125 -24.15625 C 57.773438 -25.71875 59.570312 -27.300781 61.46875 -28.90625 C 63.363281 -30.507812 65.226562 -31.984375 67.0625 -33.328125 C 68.882812 -34.660156 70.628906 -35.785156 72.296875 -36.703125 C 73.972656 -37.617188 75.484375 -38.164062 76.828125 -38.34375 Z M 55.34375 -23.484375 C 53.5625 -25.179688 51.375 -26.410156 48.78125 -27.171875 C 46.195312 -27.929688 43.519531 -28.3125 40.75 -28.3125 C 38.34375 -28.3125 35.734375 -27.953125 32.921875 -27.234375 C 30.109375 -26.523438 27.332031 -25.585938 24.59375 -24.421875 C 21.851562 -23.265625 19.390625 -21.992188 17.203125 -20.609375 C 12.734375 -17.796875 9.238281 -14.972656 6.71875 -12.140625 C 4.195312 -9.304688 2.9375 -6.332031 2.9375 -3.21875 C 2.9375 -1.070312 3.4375 0.566406 4.4375 1.703125 C 5.445312 2.835938 6.707031 3.617188 8.21875 4.046875 C 9.738281 4.472656 11.238281 4.6875 12.71875 4.6875 C 15.125 4.6875 17.8125 4.25 20.78125 3.375 C 23.75 2.507812 27.023438 0.972656 30.609375 -1.234375 C 34.203125 -3.441406 38.117188 -6.53125 42.359375 -10.5 C 44.503906 -12.550781 46.613281 -14.660156 48.6875 -16.828125 C 50.757812 -18.992188 52.976562 -21.210938 55.34375 -23.484375 Z M 55.34375 -23.484375 "></path></g></g></g><g fill="#492c01" fill-opacity="1"><g transform="translate(67.49528, 53.140656)"><g><path d="M 25.703125 -19.546875 C 23.867188 -17.847656 21.957031 -15.984375 19.96875 -13.953125 C 17.988281 -11.921875 15.816406 -9.546875 13.453125 -6.828125 C 11.304688 -4.367188 8.816406 -1.660156 5.984375 1.296875 C 3.148438 4.265625 0.195312 6.957031 -2.875 9.375 C -7.113281 12.625 -11.429688 15.085938 -15.828125 16.765625 C -20.222656 18.441406 -24.226562 19.253906 -27.84375 19.203125 C -29.9375 19.160156 -31.894531 18.835938 -33.71875 18.234375 C -35.550781 17.628906 -37.082031 16.734375 -38.3125 15.546875 C -39.539062 14.367188 -40.332031 12.9375 -40.6875 11.25 C -40.90625 10.175781 -40.796875 9.59375 -40.359375 9.5 C -40.179688 9.414062 -40.054688 9.503906 -39.984375 9.765625 C -39.921875 10.035156 -39.863281 10.304688 -39.8125 10.578125 C -39.5 12.179688 -38.765625 13.539062 -37.609375 14.65625 C -36.453125 15.769531 -35.035156 16.601562 -33.359375 17.15625 C -31.679688 17.71875 -29.953125 18.019531 -28.171875 18.0625 C -25.453125 18.113281 -22.773438 17.679688 -20.140625 16.765625 C -17.503906 15.847656 -14.972656 14.640625 -12.546875 13.140625 C -10.117188 11.648438 -7.921875 10.125 -5.953125 8.5625 C -4.617188 7.488281 -3.191406 6.269531 -1.671875 4.90625 C -0.148438 3.550781 1.34375 2.160156 2.8125 0.734375 C 4.28125 -0.691406 5.617188 -2.03125 6.828125 -3.28125 C 8.035156 -4.53125 8.992188 -5.578125 9.703125 -6.421875 C 9.796875 -6.515625 9.816406 -6.582031 9.765625 -6.625 C 9.722656 -6.664062 9.65625 -6.644531 9.5625 -6.5625 C 8.894531 -5.976562 8.160156 -5.328125 7.359375 -4.609375 C 6.554688 -3.898438 6.019531 -3.4375 5.75 -3.21875 C 4.59375 -2.320312 3.367188 -1.484375 2.078125 -0.703125 C 0.785156 0.078125 -0.304688 0.46875 -1.203125 0.46875 C -2.046875 0.46875 -2.632812 0.28125 -2.96875 -0.09375 C -3.3125 -0.476562 -3.484375 -0.960938 -3.484375 -1.546875 C -3.484375 -2.660156 -3.035156 -3.941406 -2.140625 -5.390625 C -1.242188 -6.835938 -0.0390625 -8.382812 1.46875 -10.03125 C 2.363281 -10.96875 3.4375 -11.984375 4.6875 -13.078125 C 5.9375 -14.171875 7.195312 -15.195312 8.46875 -16.15625 C 9.738281 -17.113281 10.820312 -17.84375 11.71875 -18.34375 C 12.207031 -18.65625 12.90625 -18.875 13.8125 -19 C 14.726562 -19.132812 15.410156 -19.179688 15.859375 -19.140625 C 13.898438 -17.535156 11.972656 -15.875 10.078125 -14.15625 C 8.179688 -12.4375 6.503906 -10.828125 5.046875 -9.328125 C 3.597656 -7.835938 2.472656 -6.601562 1.671875 -5.625 C 0.867188 -4.644531 0.191406 -3.765625 -0.359375 -2.984375 C -0.921875 -2.203125 -1.203125 -1.609375 -1.203125 -1.203125 C -1.203125 -0.804688 -1.003906 -0.609375 -0.609375 -0.609375 C 0.015625 -0.609375 0.90625 -0.984375 2.0625 -1.734375 C 3.226562 -2.492188 4.300781 -3.234375 5.28125 -3.953125 C 5.863281 -4.398438 6.597656 -5.023438 7.484375 -5.828125 C 8.378906 -6.628906 9.304688 -7.472656 10.265625 -8.359375 C 11.234375 -9.253906 12.070312 -10.035156 12.78125 -10.703125 C 13.71875 -11.640625 14.734375 -12.632812 15.828125 -13.6875 C 16.921875 -14.738281 18.015625 -15.726562 19.109375 -16.65625 C 20.203125 -17.59375 21.191406 -18.332031 22.078125 -18.875 C 22.441406 -19.09375 23.023438 -19.269531 23.828125 -19.40625 C 24.628906 -19.539062 25.253906 -19.585938 25.703125 -19.546875 Z M 25.703125 -19.546875 "></path></g></g></g><g fill="#492c01" fill-opacity="1"><g transform="translate(87.42778, 53.140656)"><g><path d="M 21.8125 -25.5625 C 20.695312 -25.070312 19.695312 -24.425781 18.8125 -23.625 C 17.601562 -22.644531 16.195312 -21.40625 14.59375 -19.90625 C 12.988281 -18.414062 11.425781 -16.898438 9.90625 -15.359375 C 8.382812 -13.816406 7.113281 -12.46875 6.09375 -11.3125 C 6.039062 -11.269531 6.023438 -11.222656 6.046875 -11.171875 C 6.078125 -11.128906 6.113281 -11.128906 6.15625 -11.171875 C 6.820312 -11.796875 7.757812 -12.585938 8.96875 -13.546875 C 10.175781 -14.503906 11.46875 -15.460938 12.84375 -16.421875 C 14.226562 -17.390625 15.546875 -18.195312 16.796875 -18.84375 C 18.046875 -19.488281 19.070312 -19.8125 19.875 -19.8125 C 20.539062 -19.8125 20.972656 -19.609375 21.171875 -19.203125 C 21.378906 -18.804688 21.484375 -18.316406 21.484375 -17.734375 C 21.484375 -16.347656 21.003906 -14.796875 20.046875 -13.078125 C 19.085938 -11.359375 17.894531 -9.785156 16.46875 -8.359375 C 13.519531 -5.367188 10.757812 -3.148438 8.1875 -1.703125 C 5.625 -0.253906 3.296875 0.46875 1.203125 0.46875 C 0.359375 0.46875 -0.304688 0.265625 -0.796875 -0.140625 C -1.109375 -0.398438 -1.285156 -0.742188 -1.328125 -1.171875 C -1.378906 -1.597656 -1.296875 -1.832031 -1.078125 -1.875 C -0.890625 -1.914062 -0.765625 -1.867188 -0.703125 -1.734375 C -0.640625 -1.609375 -0.582031 -1.476562 -0.53125 -1.34375 C -0.445312 -1.164062 -0.300781 -0.984375 -0.09375 -0.796875 C 0.101562 -0.617188 0.425781 -0.53125 0.875 -0.53125 C 1.71875 -0.53125 2.617188 -0.773438 3.578125 -1.265625 C 4.535156 -1.753906 5.769531 -2.703125 7.28125 -4.109375 C 8.800781 -5.515625 10.859375 -7.535156 13.453125 -10.171875 C 14.296875 -11.015625 15.207031 -11.945312 16.1875 -12.96875 C 17.175781 -14 18.023438 -14.984375 18.734375 -15.921875 C 19.453125 -16.859375 19.8125 -17.550781 19.8125 -18 C 19.8125 -18.351562 19.585938 -18.53125 19.140625 -18.53125 C 18.472656 -18.53125 17.4375 -18.140625 16.03125 -17.359375 C 14.625 -16.578125 13.070312 -15.550781 11.375 -14.28125 C 9.675781 -13.007812 7.988281 -11.640625 6.3125 -10.171875 C 4.644531 -8.703125 3.164062 -7.316406 1.875 -6.015625 C -1.25 -2.898438 -4.539062 0.570312 -8 4.40625 C -11.457031 8.25 -15.0625 12.757812 -18.8125 17.9375 C -19.207031 18.519531 -19.5625 19.03125 -19.875 19.46875 C -20.1875 19.914062 -20.429688 20.140625 -20.609375 20.140625 C -20.878906 20.140625 -21.003906 19.859375 -20.984375 19.296875 C -20.960938 18.742188 -20.882812 18.242188 -20.75 17.796875 C -20.382812 16.546875 -19.507812 14.875 -18.125 12.78125 C -16.75 10.6875 -15.101562 8.457031 -13.1875 6.09375 C -10.957031 3.363281 -8.722656 0.773438 -6.484375 -1.671875 C -4.253906 -4.128906 -2.222656 -6.304688 -0.390625 -8.203125 C 1.429688 -10.097656 2.851562 -11.554688 3.875 -12.578125 C 4.945312 -13.648438 6.273438 -14.929688 7.859375 -16.421875 C 9.441406 -17.921875 11.046875 -19.363281 12.671875 -20.75 C 14.304688 -22.132812 15.679688 -23.226562 16.796875 -24.03125 C 17.285156 -24.382812 17.785156 -24.691406 18.296875 -24.953125 C 18.816406 -25.222656 19.296875 -25.40625 19.734375 -25.5 C 20.097656 -25.582031 20.46875 -25.625 20.84375 -25.625 C 21.226562 -25.625 21.550781 -25.601562 21.8125 -25.5625 Z M 21.8125 -25.5625 "></path></g></g></g><g fill="#492c01" fill-opacity="1"><g transform="translate(107.828525, 53.140656)"><g><path d="M 25.703125 -19.546875 C 23.785156 -17.804688 21.941406 -16.039062 20.171875 -14.25 C 18.410156 -12.46875 16.835938 -10.828125 15.453125 -9.328125 C 14.078125 -7.835938 12.988281 -6.601562 12.1875 -5.625 C 11.375 -4.644531 10.675781 -3.765625 10.09375 -2.984375 C 9.519531 -2.203125 9.234375 -1.609375 9.234375 -1.203125 C 9.234375 -0.804688 9.457031 -0.609375 9.90625 -0.609375 C 10.351562 -0.609375 10.941406 -0.804688 11.671875 -1.203125 C 12.410156 -1.609375 13.160156 -2.085938 13.921875 -2.640625 C 14.679688 -3.203125 15.304688 -3.660156 15.796875 -4.015625 C 16.867188 -4.910156 17.992188 -5.859375 19.171875 -6.859375 C 20.359375 -7.859375 21.394531 -8.738281 22.28125 -9.5 C 22.457031 -9.59375 22.613281 -9.671875 22.75 -9.734375 C 22.882812 -9.804688 23.019531 -9.773438 23.15625 -9.640625 C 23.375 -9.410156 23.304688 -9.164062 22.953125 -8.90625 C 22.328125 -8.363281 21.601562 -7.734375 20.78125 -7.015625 C 19.957031 -6.304688 19.15625 -5.628906 18.375 -4.984375 C 17.59375 -4.335938 16.957031 -3.8125 16.46875 -3.40625 C 15.394531 -2.601562 14.207031 -1.753906 12.90625 -0.859375 C 11.613281 0.0234375 10.457031 0.46875 9.4375 0.46875 C 8.539062 0.46875 7.925781 0.257812 7.59375 -0.15625 C 7.257812 -0.582031 7.09375 -1.132812 7.09375 -1.8125 C 7.09375 -2.789062 7.515625 -3.992188 8.359375 -5.421875 C 7.921875 -4.972656 7.488281 -4.582031 7.0625 -4.25 C 6.632812 -3.914062 6.285156 -3.632812 6.015625 -3.40625 C 4.992188 -2.5625 3.789062 -1.703125 2.40625 -0.828125 C 1.019531 0.0351562 -0.179688 0.46875 -1.203125 0.46875 C -2.046875 0.46875 -2.632812 0.28125 -2.96875 -0.09375 C -3.3125 -0.476562 -3.484375 -0.960938 -3.484375 -1.546875 C -3.484375 -2.660156 -3.035156 -3.941406 -2.140625 -5.390625 C -1.242188 -6.835938 -0.0390625 -8.382812 1.46875 -10.03125 C 2.363281 -10.96875 3.4375 -11.984375 4.6875 -13.078125 C 5.9375 -14.171875 7.195312 -15.195312 8.46875 -16.15625 C 9.738281 -17.113281 10.820312 -17.84375 11.71875 -18.34375 C 12.207031 -18.65625 12.90625 -18.875 13.8125 -19 C 14.726562 -19.132812 15.410156 -19.179688 15.859375 -19.140625 C 13.898438 -17.535156 11.972656 -15.875 10.078125 -14.15625 C 8.179688 -12.4375 6.503906 -10.828125 5.046875 -9.328125 C 3.597656 -7.835938 2.472656 -6.601562 1.671875 -5.625 C 0.867188 -4.644531 0.191406 -3.765625 -0.359375 -2.984375 C -0.921875 -2.203125 -1.203125 -1.609375 -1.203125 -1.203125 C -1.203125 -0.804688 -1.003906 -0.609375 -0.609375 -0.609375 C -0.160156 -0.609375 0.441406 -0.804688 1.203125 -1.203125 C 1.960938 -1.609375 2.742188 -2.085938 3.546875 -2.640625 C 4.347656 -3.203125 5.015625 -3.707031 5.546875 -4.15625 C 6.128906 -4.59375 6.851562 -5.203125 7.71875 -5.984375 C 8.59375 -6.765625 9.421875 -7.546875 10.203125 -8.328125 C 10.984375 -9.109375 11.550781 -9.675781 11.90625 -10.03125 C 12.800781 -10.96875 13.875 -12.015625 15.125 -13.171875 C 16.375 -14.335938 17.625 -15.441406 18.875 -16.484375 C 20.125 -17.535156 21.191406 -18.332031 22.078125 -18.875 C 22.441406 -19.09375 23.023438 -19.269531 23.828125 -19.40625 C 24.628906 -19.539062 25.253906 -19.585938 25.703125 -19.546875 Z M 25.703125 -19.546875 "></path></g></g></g><g fill="#492c01" fill-opacity="1"><g transform="translate(128.764367, 53.140656)"><g><path d="M -23.359375 19.203125 C -25.453125 19.203125 -27.410156 18.890625 -29.234375 18.265625 C -31.066406 17.640625 -32.597656 16.734375 -33.828125 15.546875 C -35.054688 14.367188 -35.847656 12.9375 -36.203125 11.25 C -36.429688 10.175781 -36.320312 9.59375 -35.875 9.5 C -35.695312 9.414062 -35.570312 9.503906 -35.5 9.765625 C -35.4375 10.035156 -35.378906 10.304688 -35.328125 10.578125 C -34.972656 12.222656 -34.191406 13.601562 -32.984375 14.71875 C -31.785156 15.832031 -30.359375 16.664062 -28.703125 17.21875 C -27.054688 17.78125 -25.382812 18.0625 -23.6875 18.0625 C -21.007812 18.0625 -18.5 17.71875 -16.15625 17.03125 C -13.8125 16.34375 -11.722656 15.492188 -9.890625 14.484375 C -8.066406 13.484375 -6.554688 12.535156 -5.359375 11.640625 C -3.304688 10.078125 -1.664062 8.40625 -0.4375 6.625 C 0.789062 4.84375 1.40625 3.328125 1.40625 2.078125 C 1.40625 1.453125 1.257812 0.957031 0.96875 0.59375 C 0.675781 0.238281 0.351562 0.0195312 0 -0.0625 C -0.582031 0.0703125 -1.296875 0.191406 -2.140625 0.296875 C -2.984375 0.410156 -3.628906 0.46875 -4.078125 0.46875 C -4.441406 0.46875 -4.765625 0.429688 -5.046875 0.359375 C -5.335938 0.296875 -5.484375 0.15625 -5.484375 -0.0625 C -5.484375 -0.375 -5.28125 -0.609375 -4.875 -0.765625 C -4.476562 -0.921875 -4.035156 -1.03125 -3.546875 -1.09375 C -3.054688 -1.164062 -2.675781 -1.203125 -2.40625 -1.203125 C -1.289062 -1.203125 -0.351562 -1.046875 0.40625 -0.734375 C 1.46875 -0.867188 2.691406 -1.414062 4.078125 -2.375 C 5.460938 -3.332031 6.925781 -4.566406 8.46875 -6.078125 C 10.007812 -7.597656 11.515625 -9.226562 12.984375 -10.96875 C 13.878906 -12 14.710938 -13.160156 15.484375 -14.453125 C 16.265625 -15.742188 16.65625 -16.75 16.65625 -17.46875 C 16.65625 -18.175781 16.300781 -18.53125 15.59375 -18.53125 C 14.96875 -18.53125 14.195312 -18.296875 13.28125 -17.828125 C 12.363281 -17.359375 11.394531 -16.75 10.375 -16 C 8.71875 -14.75 7.039062 -13.375 5.34375 -11.875 C 3.65625 -10.382812 2.234375 -9.125 1.078125 -8.09375 C 0.890625 -7.957031 0.6875 -7.820312 0.46875 -7.6875 C 0.25 -7.5625 0.09375 -7.539062 0 -7.625 C -0.269531 -7.894531 -0.222656 -8.164062 0.140625 -8.4375 C 1.828125 -9.90625 3.472656 -11.351562 5.078125 -12.78125 C 6.691406 -14.207031 8.078125 -15.390625 9.234375 -16.328125 C 11.203125 -17.890625 12.726562 -18.847656 13.8125 -19.203125 C 14.90625 -19.554688 15.765625 -19.734375 16.390625 -19.734375 C 17.066406 -19.734375 17.660156 -19.507812 18.171875 -19.0625 C 18.679688 -18.625 18.9375 -17.890625 18.9375 -16.859375 C 18.9375 -15.878906 18.734375 -14.875 18.328125 -13.84375 C 17.929688 -12.820312 17.472656 -11.882812 16.953125 -11.03125 C 16.441406 -10.1875 15.96875 -9.519531 15.53125 -9.03125 C 13.789062 -6.976562 11.75 -5.171875 9.40625 -3.609375 C 7.0625 -2.046875 4.375 -0.953125 1.34375 -0.328125 C 3.257812 0.296875 4.21875 1.519531 4.21875 3.34375 C 4.21875 4.945312 3.554688 6.570312 2.234375 8.21875 C 0.921875 9.875 -0.644531 11.414062 -2.46875 12.84375 C -4.96875 14.769531 -8.082031 16.3125 -11.8125 17.46875 C -15.539062 18.625 -19.390625 19.203125 -23.359375 19.203125 Z M -23.359375 19.203125 "></path></g></g></g><g fill="#492c01" fill-opacity="1"><g transform="translate(147.09158, 53.140656)"><g><path d="M 25.703125 -19.140625 C 23.785156 -17.398438 21.929688 -15.660156 20.140625 -13.921875 C 18.359375 -12.179688 16.773438 -10.582031 15.390625 -9.125 C 14.003906 -7.675781 12.910156 -6.484375 12.109375 -5.546875 C 11.265625 -4.566406 10.582031 -3.707031 10.0625 -2.96875 C 9.550781 -2.238281 9.296875 -1.648438 9.296875 -1.203125 C 9.296875 -0.804688 9.519531 -0.609375 9.96875 -0.609375 C 10.414062 -0.609375 11.003906 -0.816406 11.734375 -1.234375 C 12.472656 -1.660156 13.242188 -2.148438 14.046875 -2.703125 C 14.859375 -3.265625 15.550781 -3.769531 16.125 -4.21875 C 17.195312 -5.0625 18.300781 -5.984375 19.4375 -6.984375 C 20.570312 -7.992188 21.546875 -8.851562 22.359375 -9.5625 C 22.484375 -9.65625 22.632812 -9.742188 22.8125 -9.828125 C 23 -9.921875 23.15625 -9.878906 23.28125 -9.703125 C 23.46875 -9.523438 23.359375 -9.257812 22.953125 -8.90625 C 21.972656 -7.96875 20.898438 -7.003906 19.734375 -6.015625 C 18.578125 -5.035156 17.578125 -4.210938 16.734375 -3.546875 C 16.066406 -3.015625 15.296875 -2.4375 14.421875 -1.8125 C 13.546875 -1.1875 12.671875 -0.648438 11.796875 -0.203125 C 10.929688 0.242188 10.164062 0.46875 9.5 0.46875 C 7.9375 0.46875 7.15625 -0.289062 7.15625 -1.8125 C 7.15625 -2.300781 7.300781 -2.898438 7.59375 -3.609375 C 7.882812 -4.328125 8.382812 -5.109375 9.09375 -5.953125 C 7.175781 -4.210938 5.257812 -2.707031 3.34375 -1.4375 C 1.425781 -0.164062 -0.0664062 0.46875 -1.140625 0.46875 C -2.648438 0.46875 -3.40625 -0.265625 -3.40625 -1.734375 C -3.457031 -2.941406 -2.976562 -4.425781 -1.96875 -6.1875 C -0.96875 -7.945312 0.289062 -9.585938 1.8125 -11.109375 C 3.320312 -12.671875 5.046875 -14.109375 6.984375 -15.421875 C 8.929688 -16.742188 10.84375 -17.804688 12.71875 -18.609375 C 14.59375 -19.410156 16.15625 -19.8125 17.40625 -19.8125 C 18.03125 -19.8125 18.539062 -19.707031 18.9375 -19.5 C 19.34375 -19.300781 19.546875 -18.914062 19.546875 -18.34375 C 19.546875 -17.976562 19.410156 -17.515625 19.140625 -16.953125 C 18.867188 -16.398438 18.351562 -15.742188 17.59375 -14.984375 C 17.550781 -14.941406 17.539062 -14.910156 17.5625 -14.890625 C 17.582031 -14.867188 17.617188 -14.878906 17.671875 -14.921875 C 18.691406 -15.953125 19.710938 -16.820312 20.734375 -17.53125 C 21.765625 -18.25 22.550781 -18.695312 23.09375 -18.875 C 23.445312 -19.007812 23.789062 -19.085938 24.125 -19.109375 C 24.457031 -19.128906 24.800781 -19.140625 25.15625 -19.140625 Z M 18.609375 -18.0625 C 18.609375 -18.5625 18.335938 -18.8125 17.796875 -18.8125 C 16.859375 -18.8125 15.265625 -18.015625 13.015625 -16.421875 C 10.765625 -14.835938 8.054688 -12.53125 4.890625 -9.5 C 3.234375 -7.851562 1.789062 -6.25 0.5625 -4.6875 C -0.65625 -3.125 -1.265625 -1.960938 -1.265625 -1.203125 C -1.265625 -1.023438 -1.234375 -0.867188 -1.171875 -0.734375 C -1.109375 -0.597656 -0.921875 -0.53125 -0.609375 -0.53125 C -0.0234375 -0.53125 0.910156 -0.929688 2.203125 -1.734375 C 3.503906 -2.535156 5.007812 -3.648438 6.71875 -5.078125 C 8.4375 -6.515625 10.164062 -8.125 11.90625 -9.90625 C 12.707031 -10.707031 13.632812 -11.628906 14.6875 -12.671875 C 15.738281 -13.722656 16.65625 -14.75 17.4375 -15.75 C 18.21875 -16.757812 18.609375 -17.53125 18.609375 -18.0625 Z M 18.609375 -18.0625 "></path></g></g></g><g fill="#492c01" fill-opacity="1"><g transform="translate(168.094314, 53.140656)"><g><path d="M 10.640625 -1.140625 C 10.640625 -0.691406 10.882812 -0.46875 11.375 -0.46875 C 11.863281 -0.46875 12.460938 -0.644531 13.171875 -1 C 13.890625 -1.363281 14.640625 -1.789062 15.421875 -2.28125 C 16.203125 -2.769531 16.863281 -3.210938 17.40625 -3.609375 C 18.15625 -4.191406 18.976562 -4.847656 19.875 -5.578125 C 20.769531 -6.316406 21.617188 -7.019531 22.421875 -7.6875 C 23.222656 -8.363281 23.847656 -8.898438 24.296875 -9.296875 C 24.742188 -9.742188 25.078125 -9.832031 25.296875 -9.5625 C 25.472656 -9.4375 25.382812 -9.191406 25.03125 -8.828125 C 24.445312 -8.335938 23.707031 -7.703125 22.8125 -6.921875 C 21.925781 -6.140625 21.035156 -5.378906 20.140625 -4.640625 C 19.253906 -3.910156 18.539062 -3.34375 18 -2.9375 C 16.925781 -2.132812 15.707031 -1.34375 14.34375 -0.5625 C 12.988281 0.21875 11.753906 0.609375 10.640625 0.609375 C 9.078125 0.609375 8.296875 -0.109375 8.296875 -1.546875 C 8.296875 -2.253906 8.53125 -3.085938 9 -4.046875 C 9.46875 -5.003906 10.0625 -5.972656 10.78125 -6.953125 C 11.3125 -7.671875 11.890625 -8.375 12.515625 -9.0625 C 13.140625 -9.757812 13.785156 -10.441406 14.453125 -11.109375 C 13.960938 -10.796875 13.269531 -10.394531 12.375 -9.90625 C 11.488281 -9.414062 10.664062 -9.171875 9.90625 -9.171875 C 9.28125 -9.171875 8.800781 -9.328125 8.46875 -9.640625 C 8.132812 -9.953125 7.695312 -10.109375 7.15625 -10.109375 C 6.800781 -10.109375 6.367188 -9.925781 5.859375 -9.5625 C 5.347656 -9.207031 4.867188 -8.828125 4.421875 -8.421875 C 3.972656 -8.023438 3.660156 -7.738281 3.484375 -7.5625 C 2.191406 -6.269531 0.976562 -4.921875 -0.15625 -3.515625 C -1.300781 -2.109375 -2.453125 -0.644531 -3.609375 0.875 C -3.878906 0.875 -4.09375 0.71875 -4.25 0.40625 C -4.40625 0.09375 -4.484375 -0.265625 -4.484375 -0.671875 C -4.484375 -1.253906 -4.023438 -2.234375 -3.109375 -3.609375 C -2.191406 -4.992188 -1.054688 -6.535156 0.296875 -8.234375 C 1.660156 -9.929688 3.035156 -11.492188 4.421875 -12.921875 C 5.484375 -14.078125 6.570312 -15.132812 7.6875 -16.09375 C 8.8125 -17.050781 9.773438 -17.800781 10.578125 -18.34375 C 11.148438 -18.695312 11.867188 -18.960938 12.734375 -19.140625 C 13.609375 -19.316406 14.472656 -19.40625 15.328125 -19.40625 C 14.472656 -18.820312 13.441406 -18.003906 12.234375 -16.953125 C 11.035156 -15.910156 9.8125 -14.753906 8.5625 -13.484375 C 7.3125 -12.210938 6.15625 -10.953125 5.09375 -9.703125 C 5.707031 -10.191406 6.359375 -10.648438 7.046875 -11.078125 C 7.742188 -11.503906 8.335938 -11.71875 8.828125 -11.71875 C 9.453125 -11.71875 9.988281 -11.582031 10.4375 -11.3125 C 10.882812 -11.039062 11.375 -10.90625 11.90625 -10.90625 C 12.664062 -10.90625 13.503906 -11.148438 14.421875 -11.640625 C 15.335938 -12.128906 16.195312 -12.753906 17 -13.515625 C 18.15625 -14.585938 19.335938 -15.613281 20.546875 -16.59375 C 21.753906 -17.570312 22.757812 -18.285156 23.5625 -18.734375 C 24.050781 -19.003906 24.671875 -19.191406 25.421875 -19.296875 C 26.179688 -19.410156 26.785156 -19.445312 27.234375 -19.40625 C 25.316406 -17.664062 23.441406 -15.914062 21.609375 -14.15625 C 19.785156 -12.394531 18.144531 -10.753906 16.6875 -9.234375 C 15.238281 -7.710938 14.113281 -6.484375 13.3125 -5.546875 C 12.5625 -4.617188 11.925781 -3.773438 11.40625 -3.015625 C 10.894531 -2.253906 10.640625 -1.628906 10.640625 -1.140625 Z M 10.640625 -1.140625 "></path></g></g></g><g fill="#492c01" fill-opacity="1"><g transform="translate(191.237431, 53.140656)"><g><path d="M 19.078125 -9.90625 C 19.878906 -10.75 20.800781 -11.660156 21.84375 -12.640625 C 22.894531 -13.628906 23.976562 -14.59375 25.09375 -15.53125 C 24.070312 -15.082031 23.113281 -14.664062 22.21875 -14.28125 C 21.320312 -13.90625 20.429688 -13.539062 19.546875 -13.1875 C 18.691406 -12.875 17.785156 -12.601562 16.828125 -12.375 C 15.867188 -12.15625 14.8125 -11.910156 13.65625 -11.640625 C 14.28125 -11.148438 14.59375 -10.347656 14.59375 -9.234375 C 14.59375 -8.023438 14.191406 -6.894531 13.390625 -5.84375 C 12.585938 -4.800781 11.671875 -3.898438 10.640625 -3.140625 C 8.941406 -1.804688 7.253906 -0.847656 5.578125 -0.265625 C 3.910156 0.316406 2.226562 0.609375 0.53125 0.609375 C -0.71875 0.609375 -1.640625 0.34375 -2.234375 -0.1875 C -2.835938 -0.726562 -3.140625 -1.425781 -3.140625 -2.28125 C -3.140625 -3.4375 -2.78125 -4.5625 -2.0625 -5.65625 C -1.351562 -6.75 -0.265625 -8.117188 1.203125 -9.765625 C 3.390625 -12.179688 5.421875 -14.132812 7.296875 -15.625 C 9.171875 -17.125 10.597656 -18.140625 11.578125 -18.671875 C 12.023438 -18.890625 12.671875 -19.078125 13.515625 -19.234375 C 14.367188 -19.390625 15.109375 -19.46875 15.734375 -19.46875 C 14.035156 -18.09375 12.132812 -16.46875 10.03125 -14.59375 C 7.9375 -12.71875 6 -10.773438 4.21875 -8.765625 C 2.613281 -6.984375 1.460938 -5.585938 0.765625 -4.578125 C 0.078125 -3.578125 -0.351562 -2.84375 -0.53125 -2.375 C -0.707031 -1.90625 -0.796875 -1.535156 -0.796875 -1.265625 C -0.796875 -0.867188 -0.648438 -0.59375 -0.359375 -0.4375 C -0.078125 -0.28125 0.21875 -0.203125 0.53125 -0.203125 C 1.289062 -0.203125 2.40625 -0.601562 3.875 -1.40625 C 5.351562 -2.207031 7.25 -3.742188 9.5625 -6.015625 C 11 -7.398438 11.90625 -8.40625 12.28125 -9.03125 C 12.65625 -9.65625 12.84375 -10.191406 12.84375 -10.640625 C 12.84375 -10.992188 12.664062 -11.21875 12.3125 -11.3125 C 12 -11.21875 11.628906 -11.125 11.203125 -11.03125 C 10.785156 -10.945312 10.375 -10.90625 9.96875 -10.90625 C 9.125 -10.90625 8.703125 -11.082031 8.703125 -11.4375 C 8.703125 -11.84375 9.023438 -12.113281 9.671875 -12.25 C 10.316406 -12.382812 10.84375 -12.453125 11.25 -12.453125 C 11.46875 -12.453125 11.722656 -12.4375 12.015625 -12.40625 C 12.304688 -12.382812 12.539062 -12.332031 12.71875 -12.25 C 15.75 -12.914062 18.378906 -13.648438 20.609375 -14.453125 C 21.953125 -14.941406 23.3125 -15.53125 24.6875 -16.21875 C 26.070312 -16.914062 27.632812 -17.753906 29.375 -18.734375 C 29.863281 -19.003906 30.488281 -19.191406 31.25 -19.296875 C 32.007812 -19.410156 32.613281 -19.445312 33.0625 -19.40625 C 31.144531 -17.664062 29.269531 -15.914062 27.4375 -14.15625 C 25.601562 -12.394531 23.972656 -10.753906 22.546875 -9.234375 C 21.117188 -7.710938 20.003906 -6.484375 19.203125 -5.546875 C 18.398438 -4.566406 17.753906 -3.707031 17.265625 -2.96875 C 16.773438 -2.238281 16.53125 -1.628906 16.53125 -1.140625 C 16.53125 -0.691406 16.773438 -0.46875 17.265625 -0.46875 C 17.710938 -0.46875 18.300781 -0.644531 19.03125 -1 C 19.769531 -1.363281 20.53125 -1.789062 21.3125 -2.28125 C 22.09375 -2.769531 22.75 -3.210938 23.28125 -3.609375 C 24.039062 -4.191406 24.851562 -4.847656 25.71875 -5.578125 C 26.59375 -6.316406 27.429688 -7.019531 28.234375 -7.6875 C 29.046875 -8.363281 29.671875 -8.898438 30.109375 -9.296875 C 30.597656 -9.703125 30.9375 -9.789062 31.125 -9.5625 C 31.300781 -9.382812 31.234375 -9.140625 30.921875 -8.828125 C 30.335938 -8.335938 29.585938 -7.703125 28.671875 -6.921875 C 27.753906 -6.140625 26.859375 -5.378906 25.984375 -4.640625 C 25.117188 -3.910156 24.421875 -3.34375 23.890625 -2.9375 C 22.773438 -2.132812 21.535156 -1.34375 20.171875 -0.5625 C 18.816406 0.21875 17.601562 0.609375 16.53125 0.609375 C 14.96875 0.609375 14.1875 -0.109375 14.1875 -1.546875 C 14.1875 -2.566406 14.617188 -3.8125 15.484375 -5.28125 C 16.359375 -6.757812 17.554688 -8.300781 19.078125 -9.90625 Z M 19.078125 -9.90625 "></path></g></g></g><g fill="#492c01" fill-opacity="1"><g transform="translate(220.199795, 53.140656)"><g><path d="M 10.640625 -1.140625 C 10.640625 -0.691406 10.882812 -0.46875 11.375 -0.46875 C 11.863281 -0.46875 12.460938 -0.644531 13.171875 -1 C 13.890625 -1.363281 14.640625 -1.789062 15.421875 -2.28125 C 16.203125 -2.769531 16.863281 -3.210938 17.40625 -3.609375 C 18.15625 -4.191406 18.976562 -4.847656 19.875 -5.578125 C 20.769531 -6.316406 21.617188 -7.019531 22.421875 -7.6875 C 23.222656 -8.363281 23.847656 -8.898438 24.296875 -9.296875 C 24.742188 -9.742188 25.078125 -9.832031 25.296875 -9.5625 C 25.472656 -9.4375 25.382812 -9.191406 25.03125 -8.828125 C 24.445312 -8.335938 23.707031 -7.703125 22.8125 -6.921875 C 21.925781 -6.140625 21.035156 -5.378906 20.140625 -4.640625 C 19.253906 -3.910156 18.539062 -3.34375 18 -2.9375 C 16.925781 -2.132812 15.707031 -1.34375 14.34375 -0.5625 C 12.988281 0.21875 11.753906 0.609375 10.640625 0.609375 C 9.078125 0.609375 8.296875 -0.109375 8.296875 -1.546875 C 8.296875 -2.253906 8.53125 -3.085938 9 -4.046875 C 9.46875 -5.003906 10.0625 -5.972656 10.78125 -6.953125 C 11.3125 -7.671875 11.890625 -8.375 12.515625 -9.0625 C 13.140625 -9.757812 13.785156 -10.441406 14.453125 -11.109375 C 13.960938 -10.796875 13.269531 -10.394531 12.375 -9.90625 C 11.488281 -9.414062 10.664062 -9.171875 9.90625 -9.171875 C 9.28125 -9.171875 8.800781 -9.328125 8.46875 -9.640625 C 8.132812 -9.953125 7.695312 -10.109375 7.15625 -10.109375 C 6.800781 -10.109375 6.367188 -9.925781 5.859375 -9.5625 C 5.347656 -9.207031 4.867188 -8.828125 4.421875 -8.421875 C 3.972656 -8.023438 3.660156 -7.738281 3.484375 -7.5625 C 2.191406 -6.269531 0.976562 -4.921875 -0.15625 -3.515625 C -1.300781 -2.109375 -2.453125 -0.644531 -3.609375 0.875 C -3.878906 0.875 -4.09375 0.71875 -4.25 0.40625 C -4.40625 0.09375 -4.484375 -0.265625 -4.484375 -0.671875 C -4.484375 -1.253906 -4.023438 -2.234375 -3.109375 -3.609375 C -2.191406 -4.992188 -1.054688 -6.535156 0.296875 -8.234375 C 1.660156 -9.929688 3.035156 -11.492188 4.421875 -12.921875 C 5.484375 -14.078125 6.570312 -15.132812 7.6875 -16.09375 C 8.8125 -17.050781 9.773438 -17.800781 10.578125 -18.34375 C 11.148438 -18.695312 11.867188 -18.960938 12.734375 -19.140625 C 13.609375 -19.316406 14.472656 -19.40625 15.328125 -19.40625 C 14.472656 -18.820312 13.441406 -18.003906 12.234375 -16.953125 C 11.035156 -15.910156 9.8125 -14.753906 8.5625 -13.484375 C 7.3125 -12.210938 6.15625 -10.953125 5.09375 -9.703125 C 5.707031 -10.191406 6.359375 -10.648438 7.046875 -11.078125 C 7.742188 -11.503906 8.335938 -11.71875 8.828125 -11.71875 C 9.453125 -11.71875 9.988281 -11.582031 10.4375 -11.3125 C 10.882812 -11.039062 11.375 -10.90625 11.90625 -10.90625 C 12.664062 -10.90625 13.503906 -11.148438 14.421875 -11.640625 C 15.335938 -12.128906 16.195312 -12.753906 17 -13.515625 C 18.15625 -14.585938 19.335938 -15.613281 20.546875 -16.59375 C 21.753906 -17.570312 22.757812 -18.285156 23.5625 -18.734375 C 24.050781 -19.003906 24.671875 -19.191406 25.421875 -19.296875 C 26.179688 -19.410156 26.785156 -19.445312 27.234375 -19.40625 C 25.316406 -17.664062 23.441406 -15.914062 21.609375 -14.15625 C 19.785156 -12.394531 18.144531 -10.753906 16.6875 -9.234375 C 15.238281 -7.710938 14.113281 -6.484375 13.3125 -5.546875 C 12.5625 -4.617188 11.925781 -3.773438 11.40625 -3.015625 C 10.894531 -2.253906 10.640625 -1.628906 10.640625 -1.140625 Z M 10.640625 -1.140625 "></path></g></g></g></g></g></svg> 