<?xml version="1.0" encoding="UTF-8"?> <svg xmlns="http://www.w3.org/2000/svg" xmlns:xlink="http://www.w3.org/1999/xlink" width="360" zoomAndPan="magnify" viewBox="0 0 270 359.999987" height="480" preserveAspectRatio="xMidYMid meet" version="1.0"><defs><g></g><clipPath id="64ffcc1a6e"><path d="M 171.886719 201.582031 L 172.296875 201.582031 L 172.296875 201.863281 L 171.886719 201.863281 Z M 171.886719 201.582031 " clip-rule="nonzero"></path></clipPath><clipPath id="bb2e260001"><path d="M 172.273438 201.75 C 171.523438 202.050781 172.125 201.601562 172.125 201.601562 " clip-rule="nonzero"></path></clipPath><clipPath id="d7e471fbc8"><path d="M 0.886719 0.582031 L 1.296875 0.582031 L 1.296875 0.863281 L 0.886719 0.863281 Z M 0.886719 0.582031 " clip-rule="nonzero"></path></clipPath><clipPath id="1661e207ff"><path d="M 1.273438 0.75 C 0.523438 1.050781 1.125 0.601562 1.125 0.601562 " clip-rule="nonzero"></path></clipPath><clipPath id="7b835da353"><rect x="0" width="2" y="0" height="1"></rect></clipPath><clipPath id="57c42c38e3"><path d="M 78.0625 176.757812 L 78.472656 176.757812 L 78.472656 177 L 78.0625 177 Z M 78.0625 176.757812 " clip-rule="nonzero"></path></clipPath><clipPath id="1576833488"><path d="M 78.449219 176.925781 C 77.699219 177.148438 78.300781 176.773438 78.300781 176.773438 " clip-rule="nonzero"></path></clipPath><clipPath id="0cd023011c"><path d="M 0.0625 0.757812 L 0.472656 0.757812 L 0.472656 1 L 0.0625 1 Z M 0.0625 0.757812 " clip-rule="nonzero"></path></clipPath><clipPath id="9f81e261c9"><path d="M 0.449219 0.925781 C -0.300781 1.148438 0.300781 0.773438 0.300781 0.773438 " clip-rule="nonzero"></path></clipPath><clipPath id="f6219276e9"><rect x="0" width="1" y="0" height="1"></rect></clipPath><clipPath id="8fdaacef59"><path d="M 0.0625 0.757812 L 0.472656 0.757812 L 0.472656 1 L 0.0625 1 Z M 0.0625 0.757812 " clip-rule="nonzero"></path></clipPath><clipPath id="05f900caa9"><path d="M 0.449219 0.925781 C -0.300781 1.148438 0.300781 0.773438 0.300781 0.773438 " clip-rule="nonzero"></path></clipPath><clipPath id="70d671b2d6"><rect x="0" width="1" y="0" height="1"></rect></clipPath></defs><g clip-path="url(#64ffcc1a6e)"><g clip-path="url(#bb2e260001)"><g transform="matrix(1, 0, 0, 1, 171, 201)"><g clip-path="url(#7b835da353)"><g clip-path="url(#d7e471fbc8)"><g clip-path="url(#1661e207ff)"><rect x="-230.4" width="388.8" fill="#492c01" height="518.399981" y="-280.199997" fill-opacity="1"></rect></g></g></g></g></g></g><g clip-path="url(#57c42c38e3)"><g clip-path="url(#1576833488)"><g transform="matrix(1, 0, 0, 1, 78, 176)"><g clip-path="url(#f6219276e9)"><g clip-path="url(#0cd023011c)"><g clip-path="url(#9f81e261c9)"><rect x="-137.4" width="388.8" fill="#492c01" height="518.399981" y="-255.199997" fill-opacity="1"></rect></g></g></g></g><g transform="matrix(1, 0, 0, 1, 78, 176)"><g clip-path="url(#70d671b2d6)"><g clip-path="url(#8fdaacef59)"><g clip-path="url(#05f900caa9)"><rect x="-137.4" width="388.8" fill="#492c01" height="518.399981" y="-255.199997" fill-opacity="1"></rect></g></g></g></g></g></g><g fill="#492c01" fill-opacity="1"><g transform="translate(70.757812, 151.049988)"><g><path d="M 1.078125 -0.234375 L 1.203125 -0.234375 C 1.328125 -0.234375 1.4375 -0.28125 1.53125 -0.375 C 1.632812 -0.476562 1.722656 -0.59375 1.796875 -0.71875 C 1.867188 -0.851562 1.921875 -0.992188 1.953125 -1.140625 C 1.984375 -1.296875 2 -1.4375 2 -1.5625 L 2 -14.390625 C 2 -14.503906 1.984375 -14.628906 1.953125 -14.765625 C 1.921875 -14.910156 1.867188 -15.046875 1.796875 -15.171875 C 1.722656 -15.304688 1.632812 -15.414062 1.53125 -15.5 C 1.4375 -15.59375 1.335938 -15.640625 1.234375 -15.640625 L 1.109375 -15.640625 L 1.109375 -15.875 L 4.53125 -15.875 L 4.53125 -15.640625 L 4.40625 -15.640625 C 4.269531 -15.640625 4.15625 -15.59375 4.0625 -15.5 C 3.96875 -15.414062 3.882812 -15.304688 3.8125 -15.171875 C 3.738281 -15.046875 3.679688 -14.910156 3.640625 -14.765625 C 3.597656 -14.628906 3.578125 -14.503906 3.578125 -14.390625 L 3.578125 -9.40625 L 9.171875 -14.96875 C 9.296875 -15.09375 9.359375 -15.242188 9.359375 -15.421875 C 9.359375 -15.566406 9.296875 -15.640625 9.171875 -15.640625 L 9.171875 -15.875 L 11.765625 -15.875 L 11.765625 -15.640625 C 11.441406 -15.617188 11.15625 -15.519531 10.90625 -15.34375 C 10.664062 -15.175781 10.398438 -14.945312 10.109375 -14.65625 L 4.40625 -8.953125 C 5.445312 -8.921875 6.285156 -8.695312 6.921875 -8.28125 C 7.566406 -7.863281 8.078125 -7.285156 8.453125 -6.546875 L 10.34375 -2.6875 C 10.457031 -2.445312 10.601562 -2.1875 10.78125 -1.90625 C 10.96875 -1.625 11.175781 -1.359375 11.40625 -1.109375 C 11.644531 -0.867188 11.90625 -0.660156 12.1875 -0.484375 C 12.476562 -0.316406 12.785156 -0.234375 13.109375 -0.234375 L 13.109375 0 L 11.90625 0 C 11.445312 0 11.046875 -0.0664062 10.703125 -0.203125 C 10.367188 -0.335938 10.078125 -0.519531 9.828125 -0.75 C 9.578125 -0.988281 9.359375 -1.25 9.171875 -1.53125 C 8.992188 -1.820312 8.832031 -2.113281 8.6875 -2.40625 L 6.734375 -6.28125 C 6.429688 -6.875 6.007812 -7.328125 5.46875 -7.640625 C 4.9375 -7.953125 4.304688 -8.125 3.578125 -8.15625 L 3.578125 -1.5625 C 3.578125 -1.4375 3.59375 -1.300781 3.625 -1.15625 C 3.664062 -1.007812 3.71875 -0.867188 3.78125 -0.734375 C 3.84375 -0.597656 3.921875 -0.484375 4.015625 -0.390625 C 4.109375 -0.304688 4.210938 -0.253906 4.328125 -0.234375 L 4.5 -0.234375 L 4.5 0 L 1.078125 0 Z M 1.078125 -0.234375 "></path></g></g></g><g fill="#492c01" fill-opacity="1"><g transform="translate(84.230585, 151.049988)"><g><path d="M 7.4375 0 L 7.4375 -1.234375 L 7.3125 -1.109375 C 6.914062 -0.703125 6.457031 -0.382812 5.9375 -0.15625 C 5.414062 0.0625 4.785156 0.171875 4.046875 0.171875 C 3.484375 0.171875 3 0.109375 2.59375 -0.015625 C 2.195312 -0.148438 1.867188 -0.332031 1.609375 -0.5625 C 1.359375 -0.800781 1.171875 -1.070312 1.046875 -1.375 C 0.921875 -1.675781 0.859375 -1.992188 0.859375 -2.328125 C 0.859375 -2.878906 1.003906 -3.363281 1.296875 -3.78125 C 1.597656 -4.195312 2.03125 -4.5625 2.59375 -4.875 C 3.15625 -5.195312 3.84375 -5.488281 4.65625 -5.75 C 5.46875 -6.019531 6.394531 -6.285156 7.4375 -6.546875 C 7.40625 -7.171875 7.273438 -7.675781 7.046875 -8.0625 C 6.828125 -8.445312 6.5625 -8.742188 6.25 -8.953125 C 5.945312 -9.171875 5.625 -9.316406 5.28125 -9.390625 C 4.945312 -9.460938 4.660156 -9.5 4.421875 -9.5 C 4.003906 -9.5 3.632812 -9.4375 3.3125 -9.3125 C 3 -9.195312 2.722656 -9.039062 2.484375 -8.84375 C 2.242188 -8.644531 2.046875 -8.414062 1.890625 -8.15625 C 1.734375 -7.894531 1.617188 -7.640625 1.546875 -7.390625 L 1.328125 -7.390625 L 1.328125 -9.265625 C 1.472656 -9.265625 1.640625 -9.316406 1.828125 -9.421875 C 2.023438 -9.523438 2.253906 -9.640625 2.515625 -9.765625 C 2.773438 -9.898438 3.09375 -10.019531 3.46875 -10.125 C 3.851562 -10.226562 4.3125 -10.28125 4.84375 -10.28125 C 5.71875 -10.28125 6.425781 -10.164062 6.96875 -9.9375 C 7.519531 -9.707031 7.941406 -9.410156 8.234375 -9.046875 C 8.535156 -8.679688 8.734375 -8.257812 8.828125 -7.78125 C 8.921875 -7.3125 8.96875 -6.828125 8.96875 -6.328125 L 8.96875 -1.5625 C 8.96875 -1.238281 9.046875 -0.9375 9.203125 -0.65625 C 9.367188 -0.375 9.585938 -0.234375 9.859375 -0.234375 L 9.859375 0 Z M 7.4375 -2.28125 L 7.4375 -5.734375 L 7.1875 -5.671875 C 6.800781 -5.578125 6.332031 -5.445312 5.78125 -5.28125 C 5.226562 -5.125 4.703125 -4.914062 4.203125 -4.65625 C 3.710938 -4.40625 3.289062 -4.101562 2.9375 -3.75 C 2.582031 -3.394531 2.40625 -2.988281 2.40625 -2.53125 C 2.40625 -2.007812 2.613281 -1.582031 3.03125 -1.25 C 3.445312 -0.914062 3.992188 -0.75 4.671875 -0.75 C 5.203125 -0.75 5.664062 -0.863281 6.0625 -1.09375 C 6.46875 -1.320312 6.835938 -1.625 7.171875 -2 Z M 7.4375 -2.28125 "></path></g></g></g><g fill="#492c01" fill-opacity="1"><g transform="translate(95.225324, 151.049988)"><g><path d="M 6.203125 -10.28125 C 7.066406 -10.28125 7.816406 -10.128906 8.453125 -9.828125 C 9.085938 -9.535156 9.617188 -9.144531 10.046875 -8.65625 C 10.472656 -8.175781 10.789062 -7.625 11 -7 C 11.207031 -6.375 11.3125 -5.734375 11.3125 -5.078125 C 11.3125 -4.429688 11.207031 -3.796875 11 -3.171875 C 10.800781 -2.546875 10.5 -1.984375 10.09375 -1.484375 C 9.6875 -0.992188 9.175781 -0.59375 8.5625 -0.28125 C 7.957031 0.0195312 7.238281 0.171875 6.40625 0.171875 C 5.90625 0.171875 5.394531 0.0390625 4.875 -0.21875 C 4.351562 -0.488281 3.882812 -0.828125 3.46875 -1.234375 L 3.46875 3.734375 C 3.46875 3.859375 3.484375 3.992188 3.515625 4.140625 C 3.546875 4.296875 3.597656 4.4375 3.671875 4.5625 C 3.742188 4.695312 3.820312 4.8125 3.90625 4.90625 C 4 5 4.109375 5.046875 4.234375 5.046875 L 4.234375 5.296875 L 1.109375 5.296875 L 1.109375 5.046875 C 1.222656 5.046875 1.328125 5 1.421875 4.90625 C 1.515625 4.8125 1.597656 4.695312 1.671875 4.5625 C 1.742188 4.4375 1.796875 4.296875 1.828125 4.140625 C 1.859375 3.992188 1.875 3.859375 1.875 3.734375 L 1.875 -8.6875 C 1.875 -8.832031 1.867188 -8.972656 1.859375 -9.109375 C 1.859375 -9.242188 1.832031 -9.363281 1.78125 -9.46875 C 1.726562 -9.570312 1.648438 -9.660156 1.546875 -9.734375 C 1.441406 -9.804688 1.296875 -9.847656 1.109375 -9.859375 L 1.109375 -10.109375 L 3.46875 -10.109375 L 3.46875 -9.046875 C 3.789062 -9.429688 4.175781 -9.734375 4.625 -9.953125 C 5.082031 -10.171875 5.609375 -10.28125 6.203125 -10.28125 Z M 6.421875 -0.65625 C 6.984375 -0.664062 7.472656 -0.789062 7.890625 -1.03125 C 8.304688 -1.269531 8.648438 -1.582031 8.921875 -1.96875 C 9.203125 -2.351562 9.40625 -2.78125 9.53125 -3.25 C 9.65625 -3.726562 9.71875 -4.222656 9.71875 -4.734375 C 9.71875 -5.316406 9.632812 -5.890625 9.46875 -6.453125 C 9.3125 -7.015625 9.082031 -7.515625 8.78125 -7.953125 C 8.476562 -8.390625 8.101562 -8.75 7.65625 -9.03125 C 7.21875 -9.3125 6.71875 -9.453125 6.15625 -9.453125 C 5.820312 -9.453125 5.488281 -9.390625 5.15625 -9.265625 C 4.832031 -9.140625 4.546875 -8.953125 4.296875 -8.703125 C 4.046875 -8.460938 3.84375 -8.175781 3.6875 -7.84375 C 3.539062 -7.519531 3.46875 -7.160156 3.46875 -6.765625 L 3.46875 -3.609375 C 3.46875 -3.171875 3.554688 -2.769531 3.734375 -2.40625 C 3.910156 -2.050781 4.140625 -1.738281 4.421875 -1.46875 C 4.703125 -1.207031 5.015625 -1.003906 5.359375 -0.859375 C 5.710938 -0.722656 6.066406 -0.65625 6.421875 -0.65625 Z M 6.421875 -0.65625 "></path></g></g></g><g fill="#492c01" fill-opacity="1"><g transform="translate(107.615463, 151.049988)"><g><path d="M 7.4375 0 L 7.4375 -1.234375 L 7.3125 -1.109375 C 6.914062 -0.703125 6.457031 -0.382812 5.9375 -0.15625 C 5.414062 0.0625 4.785156 0.171875 4.046875 0.171875 C 3.484375 0.171875 3 0.109375 2.59375 -0.015625 C 2.195312 -0.148438 1.867188 -0.332031 1.609375 -0.5625 C 1.359375 -0.800781 1.171875 -1.070312 1.046875 -1.375 C 0.921875 -1.675781 0.859375 -1.992188 0.859375 -2.328125 C 0.859375 -2.878906 1.003906 -3.363281 1.296875 -3.78125 C 1.597656 -4.195312 2.03125 -4.5625 2.59375 -4.875 C 3.15625 -5.195312 3.84375 -5.488281 4.65625 -5.75 C 5.46875 -6.019531 6.394531 -6.285156 7.4375 -6.546875 C 7.40625 -7.171875 7.273438 -7.675781 7.046875 -8.0625 C 6.828125 -8.445312 6.5625 -8.742188 6.25 -8.953125 C 5.945312 -9.171875 5.625 -9.316406 5.28125 -9.390625 C 4.945312 -9.460938 4.660156 -9.5 4.421875 -9.5 C 4.003906 -9.5 3.632812 -9.4375 3.3125 -9.3125 C 3 -9.195312 2.722656 -9.039062 2.484375 -8.84375 C 2.242188 -8.644531 2.046875 -8.414062 1.890625 -8.15625 C 1.734375 -7.894531 1.617188 -7.640625 1.546875 -7.390625 L 1.328125 -7.390625 L 1.328125 -9.265625 C 1.472656 -9.265625 1.640625 -9.316406 1.828125 -9.421875 C 2.023438 -9.523438 2.253906 -9.640625 2.515625 -9.765625 C 2.773438 -9.898438 3.09375 -10.019531 3.46875 -10.125 C 3.851562 -10.226562 4.3125 -10.28125 4.84375 -10.28125 C 5.71875 -10.28125 6.425781 -10.164062 6.96875 -9.9375 C 7.519531 -9.707031 7.941406 -9.410156 8.234375 -9.046875 C 8.535156 -8.679688 8.734375 -8.257812 8.828125 -7.78125 C 8.921875 -7.3125 8.96875 -6.828125 8.96875 -6.328125 L 8.96875 -1.5625 C 8.96875 -1.238281 9.046875 -0.9375 9.203125 -0.65625 C 9.367188 -0.375 9.585938 -0.234375 9.859375 -0.234375 L 9.859375 0 Z M 7.4375 -2.28125 L 7.4375 -5.734375 L 7.1875 -5.671875 C 6.800781 -5.578125 6.332031 -5.445312 5.78125 -5.28125 C 5.226562 -5.125 4.703125 -4.914062 4.203125 -4.65625 C 3.710938 -4.40625 3.289062 -4.101562 2.9375 -3.75 C 2.582031 -3.394531 2.40625 -2.988281 2.40625 -2.53125 C 2.40625 -2.007812 2.613281 -1.582031 3.03125 -1.25 C 3.445312 -0.914062 3.992188 -0.75 4.671875 -0.75 C 5.203125 -0.75 5.664062 -0.863281 6.0625 -1.09375 C 6.46875 -1.320312 6.835938 -1.625 7.171875 -2 Z M 7.4375 -2.28125 "></path></g></g></g><g fill="#492c01" fill-opacity="1"><g transform="translate(118.610202, 151.049988)"><g><path d="M 8.375 -1.875 C 8.46875 -1.695312 8.59375 -1.507812 8.75 -1.3125 C 8.914062 -1.125 9.097656 -0.945312 9.296875 -0.78125 C 9.492188 -0.625 9.695312 -0.492188 9.90625 -0.390625 C 10.113281 -0.285156 10.316406 -0.234375 10.515625 -0.234375 L 10.515625 0 L 9.59375 0 C 8.863281 0 8.296875 -0.148438 7.890625 -0.453125 C 7.492188 -0.765625 7.179688 -1.128906 6.953125 -1.546875 L 5.828125 -3.6875 C 5.648438 -4.019531 5.351562 -4.3125 4.9375 -4.5625 C 4.519531 -4.8125 4.078125 -4.9375 3.609375 -4.9375 L 3.609375 -1.515625 C 3.609375 -1.390625 3.617188 -1.253906 3.640625 -1.109375 C 3.671875 -0.960938 3.71875 -0.820312 3.78125 -0.6875 C 3.84375 -0.5625 3.921875 -0.453125 4.015625 -0.359375 C 4.109375 -0.273438 4.222656 -0.234375 4.359375 -0.234375 L 4.359375 0 L 1.25 0 L 1.25 -0.234375 C 1.363281 -0.234375 1.472656 -0.273438 1.578125 -0.359375 C 1.679688 -0.453125 1.765625 -0.5625 1.828125 -0.6875 C 1.890625 -0.820312 1.9375 -0.960938 1.96875 -1.109375 C 2 -1.253906 2.015625 -1.390625 2.015625 -1.515625 L 2.015625 -8.59375 C 2.015625 -8.707031 2 -8.835938 1.96875 -8.984375 C 1.9375 -9.140625 1.890625 -9.28125 1.828125 -9.40625 C 1.773438 -9.53125 1.703125 -9.632812 1.609375 -9.71875 C 1.515625 -9.8125 1.394531 -9.859375 1.25 -9.859375 L 1.25 -10.109375 L 4.328125 -10.109375 L 4.328125 -9.859375 C 4.210938 -9.859375 4.109375 -9.8125 4.015625 -9.71875 C 3.929688 -9.632812 3.859375 -9.53125 3.796875 -9.40625 C 3.734375 -9.28125 3.6875 -9.140625 3.65625 -8.984375 C 3.625 -8.835938 3.609375 -8.707031 3.609375 -8.59375 L 3.609375 -6.109375 C 4.296875 -6.722656 4.976562 -7.3125 5.65625 -7.875 C 6.332031 -8.445312 7.015625 -9.039062 7.703125 -9.65625 C 7.703125 -9.664062 7.707031 -9.675781 7.71875 -9.6875 C 7.738281 -9.707031 7.75 -9.726562 7.75 -9.75 C 7.75 -9.820312 7.707031 -9.859375 7.625 -9.859375 L 7.625 -10.109375 L 9.71875 -10.109375 L 9.71875 -9.859375 C 9.632812 -9.859375 9.535156 -9.832031 9.421875 -9.78125 C 9.316406 -9.738281 9.207031 -9.6875 9.09375 -9.625 C 8.96875 -9.5625 8.835938 -9.484375 8.703125 -9.390625 C 7.984375 -8.773438 7.265625 -8.148438 6.546875 -7.515625 C 5.828125 -6.878906 5.101562 -6.257812 4.375 -5.65625 C 5.0625 -5.65625 5.625 -5.523438 6.0625 -5.265625 C 6.507812 -5.015625 6.882812 -4.609375 7.1875 -4.046875 Z M 8.375 -1.875 "></path></g></g></g><g fill="#492c01" fill-opacity="1"><g transform="translate(128.474139, 151.049988)"><g><path d="M 6.140625 0.171875 C 5.335938 0.171875 4.613281 0.0390625 3.96875 -0.21875 C 3.320312 -0.488281 2.769531 -0.851562 2.3125 -1.3125 C 1.863281 -1.769531 1.515625 -2.3125 1.265625 -2.9375 C 1.015625 -3.5625 0.890625 -4.242188 0.890625 -4.984375 C 0.890625 -5.765625 1.023438 -6.476562 1.296875 -7.125 C 1.566406 -7.78125 1.941406 -8.335938 2.421875 -8.796875 C 2.910156 -9.265625 3.484375 -9.628906 4.140625 -9.890625 C 4.796875 -10.148438 5.507812 -10.28125 6.28125 -10.28125 C 7.050781 -10.28125 7.753906 -10.15625 8.390625 -9.90625 C 9.035156 -9.65625 9.585938 -9.304688 10.046875 -8.859375 C 10.515625 -8.410156 10.878906 -7.875 11.140625 -7.25 C 11.398438 -6.632812 11.53125 -5.957031 11.53125 -5.21875 C 11.53125 -4.53125 11.410156 -3.859375 11.171875 -3.203125 C 10.941406 -2.554688 10.597656 -1.984375 10.140625 -1.484375 C 9.679688 -0.992188 9.117188 -0.59375 8.453125 -0.28125 C 7.785156 0.0195312 7.015625 0.171875 6.140625 0.171875 Z M 5.984375 -9.484375 C 5.410156 -9.453125 4.898438 -9.3125 4.453125 -9.0625 C 4.015625 -8.8125 3.644531 -8.488281 3.34375 -8.09375 C 3.050781 -7.695312 2.828125 -7.25 2.671875 -6.75 C 2.523438 -6.257812 2.453125 -5.757812 2.453125 -5.25 C 2.453125 -4.65625 2.539062 -4.078125 2.71875 -3.515625 C 2.90625 -2.960938 3.171875 -2.46875 3.515625 -2.03125 C 3.867188 -1.601562 4.285156 -1.257812 4.765625 -1 C 5.242188 -0.75 5.78125 -0.625 6.375 -0.625 C 6.96875 -0.625 7.492188 -0.75 7.953125 -1 C 8.410156 -1.257812 8.789062 -1.59375 9.09375 -2 C 9.394531 -2.414062 9.625 -2.878906 9.78125 -3.390625 C 9.9375 -3.898438 10.015625 -4.414062 10.015625 -4.9375 C 10.015625 -5.46875 9.929688 -6 9.765625 -6.53125 C 9.609375 -7.070312 9.359375 -7.5625 9.015625 -8 C 8.679688 -8.4375 8.257812 -8.789062 7.75 -9.0625 C 7.25 -9.34375 6.660156 -9.484375 5.984375 -9.484375 Z M 5.984375 -9.484375 "></path></g></g></g><g fill="#492c01" fill-opacity="1"><g transform="translate(141.056745, 151.049988)"><g><path d="M 8.296875 -0.234375 C 8.410156 -0.234375 8.539062 -0.28125 8.6875 -0.375 C 8.832031 -0.476562 8.90625 -0.617188 8.90625 -0.796875 C 8.90625 -0.828125 8.890625 -0.894531 8.859375 -1 C 8.835938 -1.101562 8.796875 -1.21875 8.734375 -1.34375 L 5.671875 -8.5625 L 2.5 -0.984375 C 2.226562 -0.328125 1.691406 0 0.890625 0 L 0.359375 0 L 0.359375 -0.234375 C 0.585938 -0.234375 0.832031 -0.347656 1.09375 -0.578125 C 1.351562 -0.816406 1.566406 -1.097656 1.734375 -1.421875 L 5 -9.078125 C 5.082031 -9.285156 5.125 -9.453125 5.125 -9.578125 C 5.125 -9.765625 4.992188 -9.859375 4.734375 -9.859375 L 4.734375 -10.109375 L 6.6875 -10.109375 L 10.390625 -1.4375 C 10.503906 -1.195312 10.671875 -0.9375 10.890625 -0.65625 C 11.109375 -0.375 11.3125 -0.234375 11.5 -0.234375 L 11.5 0 L 8.296875 0 Z M 8.296875 -0.234375 "></path></g></g></g><g fill="#492c01" fill-opacity="1"><g transform="translate(152.917595, 151.049988)"><g></g></g></g><g fill="#492c01" fill-opacity="1"><g transform="translate(159.172809, 151.049988)"><g><path d="M 3.34375 -0.796875 L 7.703125 -0.796875 L 7.703125 -8.546875 C 7.703125 -8.648438 7.6875 -8.78125 7.65625 -8.9375 C 7.625 -9.101562 7.578125 -9.25 7.515625 -9.375 C 7.460938 -9.507812 7.382812 -9.625 7.28125 -9.71875 C 7.1875 -9.8125 7.085938 -9.859375 6.984375 -9.859375 L 6.984375 -10.109375 L 9.96875 -10.109375 L 9.96875 -9.859375 C 9.832031 -9.859375 9.71875 -9.8125 9.625 -9.71875 C 9.539062 -9.632812 9.472656 -9.53125 9.421875 -9.40625 C 9.367188 -9.28125 9.320312 -9.148438 9.28125 -9.015625 C 9.25 -8.878906 9.234375 -8.757812 9.234375 -8.65625 L 9.234375 -0.796875 L 13.625 -0.796875 L 13.625 -8.546875 C 13.625 -8.648438 13.609375 -8.78125 13.578125 -8.9375 C 13.554688 -9.101562 13.515625 -9.25 13.453125 -9.375 C 13.398438 -9.507812 13.328125 -9.625 13.234375 -9.71875 C 13.140625 -9.8125 13.019531 -9.859375 12.875 -9.859375 L 12.875 -10.109375 L 15.90625 -10.109375 L 15.90625 -9.859375 C 15.78125 -9.859375 15.671875 -9.8125 15.578125 -9.71875 C 15.492188 -9.625 15.414062 -9.507812 15.34375 -9.375 C 15.28125 -9.25 15.238281 -9.101562 15.21875 -8.9375 C 15.195312 -8.78125 15.1875 -8.648438 15.1875 -8.546875 L 15.1875 -1.484375 C 15.1875 -1.378906 15.203125 -1.253906 15.234375 -1.109375 C 15.265625 -0.960938 15.304688 -0.820312 15.359375 -0.6875 C 15.421875 -0.5625 15.492188 -0.453125 15.578125 -0.359375 C 15.671875 -0.273438 15.769531 -0.234375 15.875 -0.234375 L 15.875 0 L 1.078125 0 L 1.078125 -0.234375 C 1.191406 -0.234375 1.285156 -0.273438 1.359375 -0.359375 C 1.441406 -0.453125 1.515625 -0.5625 1.578125 -0.6875 C 1.648438 -0.820312 1.703125 -0.960938 1.734375 -1.109375 C 1.765625 -1.253906 1.78125 -1.378906 1.78125 -1.484375 L 1.78125 -8.546875 C 1.78125 -8.648438 1.765625 -8.78125 1.734375 -8.9375 C 1.710938 -9.101562 1.675781 -9.25 1.625 -9.375 C 1.570312 -9.507812 1.5 -9.625 1.40625 -9.71875 C 1.320312 -9.8125 1.210938 -9.859375 1.078125 -9.859375 L 1.078125 -10.109375 L 4.0625 -10.109375 L 4.0625 -9.859375 C 3.9375 -9.859375 3.820312 -9.8125 3.71875 -9.71875 C 3.625 -9.625 3.550781 -9.507812 3.5 -9.375 C 3.445312 -9.25 3.40625 -9.101562 3.375 -8.9375 C 3.351562 -8.78125 3.34375 -8.648438 3.34375 -8.546875 Z M 3.34375 -0.796875 "></path></g></g></g><g fill="#492c01" fill-opacity="1"><g transform="translate(176.182185, 151.049988)"><g><path d="M 1.25 -1.03125 C 1.25 -1.351562 1.359375 -1.625 1.578125 -1.84375 C 1.796875 -2.070312 2.0625 -2.1875 2.375 -2.1875 C 2.695312 -2.1875 2.96875 -2.070312 3.1875 -1.84375 C 3.414062 -1.625 3.53125 -1.351562 3.53125 -1.03125 C 3.53125 -0.707031 3.414062 -0.4375 3.1875 -0.21875 C 2.96875 -0.0078125 2.695312 0.09375 2.375 0.09375 C 2.0625 0.09375 1.796875 -0.0078125 1.578125 -0.21875 C 1.359375 -0.4375 1.25 -0.707031 1.25 -1.03125 Z M 1.25 -1.03125 "></path></g></g></g><g fill="#492c01" fill-opacity="1"><g transform="translate(181.017943, 151.049988)"><g><path d="M 1.296875 -2.234375 C 1.765625 -2.234375 2.101562 -2.070312 2.3125 -1.75 C 2.53125 -1.4375 2.640625 -1.070312 2.640625 -0.65625 C 2.640625 -0.40625 2.609375 -0.132812 2.546875 0.15625 C 2.484375 0.445312 2.359375 0.738281 2.171875 1.03125 C 1.992188 1.332031 1.726562 1.628906 1.375 1.921875 C 1.03125 2.222656 0.582031 2.503906 0.03125 2.765625 L -0.09375 2.546875 C 0.226562 2.265625 0.476562 2.003906 0.65625 1.765625 C 0.84375 1.535156 0.976562 1.328125 1.0625 1.140625 C 1.15625 0.953125 1.210938 0.78125 1.234375 0.625 C 1.265625 0.46875 1.28125 0.300781 1.28125 0.125 C 1.28125 -0.0078125 1.238281 -0.109375 1.15625 -0.171875 C 1.070312 -0.242188 0.984375 -0.316406 0.890625 -0.390625 C 0.765625 -0.460938 0.632812 -0.550781 0.5 -0.65625 C 0.375 -0.757812 0.3125 -0.941406 0.3125 -1.203125 C 0.3125 -1.503906 0.40625 -1.75 0.59375 -1.9375 C 0.789062 -2.132812 1.023438 -2.234375 1.296875 -2.234375 Z M 1.296875 -2.234375 "></path></g></g></g><g fill="#492c01" fill-opacity="1"><g transform="translate(183.937491, 151.049988)"><g></g></g></g><g fill="#492c01" fill-opacity="1"><g transform="translate(11.906254, 175.049986)"><g><path d="M 4.421875 -11 C 3.960938 -11 3.628906 -11.15625 3.421875 -11.46875 C 3.210938 -11.789062 3.109375 -12.160156 3.109375 -12.578125 C 3.109375 -12.828125 3.140625 -13.09375 3.203125 -13.375 C 3.265625 -13.664062 3.382812 -13.957031 3.5625 -14.25 C 3.75 -14.550781 4.007812 -14.847656 4.34375 -15.140625 C 4.6875 -15.441406 5.140625 -15.726562 5.703125 -16 L 5.84375 -15.78125 C 5.519531 -15.476562 5.265625 -15.210938 5.078125 -14.984375 C 4.898438 -14.765625 4.765625 -14.554688 4.671875 -14.359375 C 4.578125 -14.171875 4.515625 -13.992188 4.484375 -13.828125 C 4.460938 -13.671875 4.453125 -13.503906 4.453125 -13.328125 C 4.453125 -13.203125 4.488281 -13.109375 4.5625 -13.046875 C 4.644531 -12.992188 4.738281 -12.925781 4.84375 -12.84375 C 4.976562 -12.75 5.101562 -12.65625 5.21875 -12.5625 C 5.34375 -12.476562 5.40625 -12.300781 5.40625 -12.03125 C 5.40625 -11.738281 5.3125 -11.492188 5.125 -11.296875 C 4.9375 -11.097656 4.703125 -11 4.421875 -11 Z M 1.25 -11 C 0.78125 -11 0.4375 -11.15625 0.21875 -11.46875 C 0.0078125 -11.789062 -0.09375 -12.160156 -0.09375 -12.578125 C -0.09375 -12.828125 -0.0625 -13.085938 0 -13.359375 C 0.0625 -13.640625 0.1875 -13.929688 0.375 -14.234375 C 0.570312 -14.546875 0.835938 -14.847656 1.171875 -15.140625 C 1.515625 -15.441406 1.96875 -15.726562 2.53125 -16 L 2.671875 -15.78125 C 2.347656 -15.476562 2.09375 -15.210938 1.90625 -14.984375 C 1.726562 -14.765625 1.585938 -14.554688 1.484375 -14.359375 C 1.390625 -14.171875 1.332031 -13.992188 1.3125 -13.828125 C 1.289062 -13.671875 1.28125 -13.503906 1.28125 -13.328125 C 1.28125 -13.203125 1.3125 -13.109375 1.375 -13.046875 C 1.445312 -12.984375 1.535156 -12.925781 1.640625 -12.875 C 1.765625 -12.789062 1.894531 -12.695312 2.03125 -12.59375 C 2.164062 -12.488281 2.234375 -12.300781 2.234375 -12.03125 C 2.234375 -11.738281 2.140625 -11.492188 1.953125 -11.296875 C 1.773438 -11.097656 1.539062 -11 1.25 -11 Z M 1.25 -11 "></path></g></g></g><g fill="#492c01" fill-opacity="1"><g transform="translate(18.209591, 175.049986)"><g><path d="M 5.21875 -7.96875 L 1.875 -14.21875 C 1.789062 -14.34375 1.695312 -14.488281 1.59375 -14.65625 C 1.488281 -14.832031 1.378906 -14.992188 1.265625 -15.140625 C 1.160156 -15.285156 1.039062 -15.40625 0.90625 -15.5 C 0.769531 -15.59375 0.628906 -15.640625 0.484375 -15.640625 L 0.484375 -15.875 L 3.890625 -15.875 L 3.890625 -15.640625 C 3.796875 -15.640625 3.6875 -15.570312 3.5625 -15.4375 C 3.445312 -15.3125 3.390625 -15.15625 3.390625 -14.96875 C 3.390625 -14.851562 3.421875 -14.738281 3.484375 -14.625 L 6.203125 -9.578125 L 8.6875 -14.390625 C 8.6875 -14.441406 8.710938 -14.488281 8.765625 -14.53125 C 8.796875 -14.613281 8.828125 -14.695312 8.859375 -14.78125 C 8.898438 -14.875 8.921875 -14.957031 8.921875 -15.03125 C 8.921875 -15.289062 8.832031 -15.457031 8.65625 -15.53125 C 8.476562 -15.601562 8.367188 -15.640625 8.328125 -15.640625 L 8.328125 -15.875 L 11 -15.875 L 11 -15.640625 C 10.726562 -15.640625 10.46875 -15.488281 10.21875 -15.1875 C 9.96875 -14.894531 9.769531 -14.601562 9.625 -14.3125 L 6.6875 -8.703125 L 10.4375 -1.640625 C 10.519531 -1.492188 10.617188 -1.335938 10.734375 -1.171875 C 10.847656 -1.015625 10.96875 -0.863281 11.09375 -0.71875 C 11.21875 -0.570312 11.347656 -0.453125 11.484375 -0.359375 C 11.617188 -0.273438 11.757812 -0.234375 11.90625 -0.234375 L 11.90625 0 L 8.5 0 L 8.5 -0.234375 C 8.59375 -0.234375 8.6875 -0.296875 8.78125 -0.421875 C 8.875 -0.554688 8.921875 -0.710938 8.921875 -0.890625 C 8.921875 -1.003906 8.875 -1.148438 8.78125 -1.328125 L 5.734375 -7.046875 L 2.71875 -1.328125 C 2.664062 -1.222656 2.617188 -1.109375 2.578125 -0.984375 C 2.546875 -0.859375 2.53125 -0.738281 2.53125 -0.625 C 2.53125 -0.363281 2.648438 -0.234375 2.890625 -0.234375 L 2.890625 0 L 0.265625 0 L 0.265625 -0.234375 C 0.378906 -0.234375 0.503906 -0.269531 0.640625 -0.34375 C 0.785156 -0.414062 0.929688 -0.507812 1.078125 -0.625 C 1.222656 -0.738281 1.359375 -0.867188 1.484375 -1.015625 C 1.617188 -1.160156 1.722656 -1.296875 1.796875 -1.421875 Z M 5.21875 -7.96875 "></path></g></g></g><g fill="#492c01" fill-opacity="1"><g transform="translate(30.575675, 175.049986)"><g><path d="M 7.4375 0 L 7.4375 -1.234375 L 7.3125 -1.109375 C 6.914062 -0.703125 6.457031 -0.382812 5.9375 -0.15625 C 5.414062 0.0625 4.785156 0.171875 4.046875 0.171875 C 3.484375 0.171875 3 0.109375 2.59375 -0.015625 C 2.195312 -0.148438 1.867188 -0.332031 1.609375 -0.5625 C 1.359375 -0.800781 1.171875 -1.070312 1.046875 -1.375 C 0.921875 -1.675781 0.859375 -1.992188 0.859375 -2.328125 C 0.859375 -2.878906 1.003906 -3.363281 1.296875 -3.78125 C 1.597656 -4.195312 2.03125 -4.5625 2.59375 -4.875 C 3.15625 -5.195312 3.84375 -5.488281 4.65625 -5.75 C 5.46875 -6.019531 6.394531 -6.285156 7.4375 -6.546875 C 7.40625 -7.171875 7.273438 -7.675781 7.046875 -8.0625 C 6.828125 -8.445312 6.5625 -8.742188 6.25 -8.953125 C 5.945312 -9.171875 5.625 -9.316406 5.28125 -9.390625 C 4.945312 -9.460938 4.660156 -9.5 4.421875 -9.5 C 4.003906 -9.5 3.632812 -9.4375 3.3125 -9.3125 C 3 -9.195312 2.722656 -9.039062 2.484375 -8.84375 C 2.242188 -8.644531 2.046875 -8.414062 1.890625 -8.15625 C 1.734375 -7.894531 1.617188 -7.640625 1.546875 -7.390625 L 1.328125 -7.390625 L 1.328125 -9.265625 C 1.472656 -9.265625 1.640625 -9.316406 1.828125 -9.421875 C 2.023438 -9.523438 2.253906 -9.640625 2.515625 -9.765625 C 2.773438 -9.898438 3.09375 -10.019531 3.46875 -10.125 C 3.851562 -10.226562 4.3125 -10.28125 4.84375 -10.28125 C 5.71875 -10.28125 6.425781 -10.164062 6.96875 -9.9375 C 7.519531 -9.707031 7.941406 -9.410156 8.234375 -9.046875 C 8.535156 -8.679688 8.734375 -8.257812 8.828125 -7.78125 C 8.921875 -7.3125 8.96875 -6.828125 8.96875 -6.328125 L 8.96875 -1.5625 C 8.96875 -1.238281 9.046875 -0.9375 9.203125 -0.65625 C 9.367188 -0.375 9.585938 -0.234375 9.859375 -0.234375 L 9.859375 0 Z M 7.4375 -2.28125 L 7.4375 -5.734375 L 7.1875 -5.671875 C 6.800781 -5.578125 6.332031 -5.445312 5.78125 -5.28125 C 5.226562 -5.125 4.703125 -4.914062 4.203125 -4.65625 C 3.710938 -4.40625 3.289062 -4.101562 2.9375 -3.75 C 2.582031 -3.394531 2.40625 -2.988281 2.40625 -2.53125 C 2.40625 -2.007812 2.613281 -1.582031 3.03125 -1.25 C 3.445312 -0.914062 3.992188 -0.75 4.671875 -0.75 C 5.203125 -0.75 5.664062 -0.863281 6.0625 -1.09375 C 6.46875 -1.320312 6.835938 -1.625 7.171875 -2 Z M 7.4375 -2.28125 "></path></g></g></g><g fill="#492c01" fill-opacity="1"><g transform="translate(41.570413, 175.049986)"><g><path d="M 3.4375 -1.5625 C 3.4375 -1.4375 3.453125 -1.296875 3.484375 -1.140625 C 3.515625 -0.992188 3.5625 -0.851562 3.625 -0.71875 C 3.695312 -0.59375 3.773438 -0.476562 3.859375 -0.375 C 3.953125 -0.28125 4.050781 -0.234375 4.15625 -0.234375 L 4.15625 0 L 1.125 0 L 1.125 -0.234375 C 1.238281 -0.234375 1.335938 -0.273438 1.421875 -0.359375 C 1.515625 -0.453125 1.59375 -0.566406 1.65625 -0.703125 C 1.71875 -0.847656 1.765625 -0.992188 1.796875 -1.140625 C 1.835938 -1.296875 1.859375 -1.4375 1.859375 -1.5625 L 1.859375 -8.609375 C 1.859375 -8.722656 1.835938 -8.851562 1.796875 -9 C 1.765625 -9.144531 1.71875 -9.28125 1.65625 -9.40625 C 1.59375 -9.53125 1.515625 -9.632812 1.421875 -9.71875 C 1.335938 -9.8125 1.238281 -9.859375 1.125 -9.859375 L 1.125 -10.109375 L 4.15625 -10.109375 L 4.15625 -9.859375 C 4.03125 -9.859375 3.921875 -9.8125 3.828125 -9.71875 C 3.742188 -9.632812 3.671875 -9.53125 3.609375 -9.40625 C 3.554688 -9.28125 3.515625 -9.144531 3.484375 -9 C 3.453125 -8.851562 3.4375 -8.722656 3.4375 -8.609375 L 3.4375 -5.703125 L 8.921875 -5.703125 L 8.921875 -8.609375 C 8.921875 -8.722656 8.90625 -8.851562 8.875 -9 C 8.84375 -9.144531 8.796875 -9.28125 8.734375 -9.40625 C 8.679688 -9.53125 8.609375 -9.632812 8.515625 -9.71875 C 8.429688 -9.8125 8.328125 -9.859375 8.203125 -9.859375 L 8.203125 -10.109375 L 11.234375 -10.109375 L 11.234375 -9.859375 C 11.109375 -9.859375 11 -9.8125 10.90625 -9.71875 C 10.820312 -9.632812 10.75 -9.53125 10.6875 -9.40625 C 10.625 -9.28125 10.578125 -9.144531 10.546875 -9 C 10.523438 -8.851562 10.515625 -8.722656 10.515625 -8.609375 L 10.515625 -1.5625 C 10.515625 -1.4375 10.53125 -1.296875 10.5625 -1.140625 C 10.59375 -0.992188 10.640625 -0.851562 10.703125 -0.71875 C 10.765625 -0.59375 10.835938 -0.476562 10.921875 -0.375 C 11.015625 -0.28125 11.117188 -0.234375 11.234375 -0.234375 L 11.234375 0 L 8.203125 0 L 8.203125 -0.234375 C 8.316406 -0.234375 8.414062 -0.273438 8.5 -0.359375 C 8.59375 -0.453125 8.671875 -0.566406 8.734375 -0.703125 C 8.796875 -0.847656 8.84375 -0.992188 8.875 -1.140625 C 8.90625 -1.296875 8.921875 -1.4375 8.921875 -1.5625 L 8.921875 -4.90625 L 3.4375 -4.90625 Z M 3.4375 -1.5625 "></path></g></g></g><g fill="#492c01" fill-opacity="1"><g transform="translate(54.056786, 175.049986)"><g></g></g></g><g fill="#492c01" fill-opacity="1"><g transform="translate(60.312001, 175.049986)"><g><path d="M 7.171875 -0.234375 L 7.296875 -0.234375 L 7.296875 0 L 3.875 0 L 3.875 -0.234375 L 4 -0.234375 C 4.125 -0.234375 4.234375 -0.28125 4.328125 -0.375 C 4.421875 -0.476562 4.503906 -0.59375 4.578125 -0.71875 C 4.648438 -0.851562 4.703125 -0.992188 4.734375 -1.140625 C 4.765625 -1.296875 4.78125 -1.4375 4.78125 -1.5625 L 4.78125 -14.984375 L 2 -14.984375 C 1.738281 -14.984375 1.507812 -14.925781 1.3125 -14.8125 C 1.125 -14.707031 0.96875 -14.570312 0.84375 -14.40625 C 0.71875 -14.238281 0.617188 -14.050781 0.546875 -13.84375 C 0.484375 -13.644531 0.453125 -13.453125 0.453125 -13.265625 L 0.21875 -13.265625 L 0.21875 -15.875 L 11.015625 -15.875 L 11.015625 -13.265625 L 10.78125 -13.265625 C 10.78125 -13.453125 10.75 -13.644531 10.6875 -13.84375 C 10.625 -14.050781 10.523438 -14.238281 10.390625 -14.40625 C 10.265625 -14.570312 10.101562 -14.707031 9.90625 -14.8125 C 9.71875 -14.925781 9.492188 -14.984375 9.234375 -14.984375 L 6.40625 -14.984375 L 6.40625 -1.5625 C 6.40625 -1.4375 6.421875 -1.296875 6.453125 -1.140625 C 6.484375 -0.992188 6.535156 -0.851562 6.609375 -0.71875 C 6.679688 -0.59375 6.757812 -0.476562 6.84375 -0.375 C 6.9375 -0.28125 7.046875 -0.234375 7.171875 -0.234375 Z M 7.171875 -0.234375 "></path></g></g></g><g fill="#492c01" fill-opacity="1"><g transform="translate(69.574401, 175.049986)"><g><path d="M 2.40625 -4.859375 C 2.46875 -4.296875 2.601562 -3.757812 2.8125 -3.25 C 3.019531 -2.75 3.296875 -2.304688 3.640625 -1.921875 C 3.984375 -1.535156 4.40625 -1.226562 4.90625 -1 C 5.40625 -0.769531 5.984375 -0.65625 6.640625 -0.65625 C 6.992188 -0.65625 7.363281 -0.707031 7.75 -0.8125 C 8.144531 -0.914062 8.507812 -1.0625 8.84375 -1.25 C 9.1875 -1.445312 9.488281 -1.679688 9.75 -1.953125 C 10.019531 -2.234375 10.203125 -2.550781 10.296875 -2.90625 L 10.515625 -2.90625 L 10.515625 -1.109375 C 10.421875 -1.109375 10.3125 -1.078125 10.1875 -1.015625 C 10.070312 -0.953125 9.929688 -0.867188 9.765625 -0.765625 C 9.441406 -0.578125 9.007812 -0.375 8.46875 -0.15625 C 7.925781 0.0625 7.203125 0.171875 6.296875 0.171875 C 5.578125 0.171875 4.890625 0.0664062 4.234375 -0.140625 C 3.585938 -0.347656 3.015625 -0.664062 2.515625 -1.09375 C 2.023438 -1.53125 1.628906 -2.085938 1.328125 -2.765625 C 1.035156 -3.441406 0.890625 -4.242188 0.890625 -5.171875 C 0.890625 -5.765625 0.988281 -6.363281 1.1875 -6.96875 C 1.382812 -7.582031 1.6875 -8.132812 2.09375 -8.625 C 2.507812 -9.113281 3.035156 -9.507812 3.671875 -9.8125 C 4.316406 -10.125 5.085938 -10.28125 5.984375 -10.28125 C 6.785156 -10.28125 7.488281 -10.140625 8.09375 -9.859375 C 8.695312 -9.585938 9.191406 -9.210938 9.578125 -8.734375 C 9.972656 -8.253906 10.265625 -7.6875 10.453125 -7.03125 C 10.648438 -6.375 10.75 -5.648438 10.75 -4.859375 Z M 5.890625 -9.484375 C 5.328125 -9.484375 4.84375 -9.367188 4.4375 -9.140625 C 4.03125 -8.921875 3.679688 -8.632812 3.390625 -8.28125 C 3.097656 -7.925781 2.875 -7.523438 2.71875 -7.078125 C 2.5625 -6.628906 2.457031 -6.179688 2.40625 -5.734375 L 9.265625 -5.734375 C 9.242188 -6.191406 9.15625 -6.644531 9 -7.09375 C 8.851562 -7.539062 8.644531 -7.941406 8.375 -8.296875 C 8.101562 -8.648438 7.757812 -8.9375 7.34375 -9.15625 C 6.925781 -9.375 6.441406 -9.484375 5.890625 -9.484375 Z M 5.890625 -9.484375 "></path></g></g></g><g fill="#492c01" fill-opacity="1"><g transform="translate(81.242785, 175.049986)"><g><path d="M 3.4375 -1.5625 C 3.4375 -1.4375 3.453125 -1.296875 3.484375 -1.140625 C 3.515625 -0.992188 3.5625 -0.851562 3.625 -0.71875 C 3.695312 -0.59375 3.773438 -0.476562 3.859375 -0.375 C 3.953125 -0.28125 4.050781 -0.234375 4.15625 -0.234375 L 4.15625 0 L 1.125 0 L 1.125 -0.234375 C 1.238281 -0.234375 1.335938 -0.273438 1.421875 -0.359375 C 1.515625 -0.453125 1.59375 -0.566406 1.65625 -0.703125 C 1.71875 -0.847656 1.765625 -0.992188 1.796875 -1.140625 C 1.835938 -1.296875 1.859375 -1.4375 1.859375 -1.5625 L 1.859375 -8.609375 C 1.859375 -8.722656 1.835938 -8.851562 1.796875 -9 C 1.765625 -9.144531 1.71875 -9.28125 1.65625 -9.40625 C 1.59375 -9.53125 1.515625 -9.632812 1.421875 -9.71875 C 1.335938 -9.8125 1.238281 -9.859375 1.125 -9.859375 L 1.125 -10.109375 L 4.15625 -10.109375 L 4.15625 -9.859375 C 4.03125 -9.859375 3.921875 -9.8125 3.828125 -9.71875 C 3.742188 -9.632812 3.671875 -9.53125 3.609375 -9.40625 C 3.554688 -9.28125 3.515625 -9.144531 3.484375 -9 C 3.453125 -8.851562 3.4375 -8.722656 3.4375 -8.609375 L 3.4375 -5.703125 L 8.921875 -5.703125 L 8.921875 -8.609375 C 8.921875 -8.722656 8.90625 -8.851562 8.875 -9 C 8.84375 -9.144531 8.796875 -9.28125 8.734375 -9.40625 C 8.679688 -9.53125 8.609375 -9.632812 8.515625 -9.71875 C 8.429688 -9.8125 8.328125 -9.859375 8.203125 -9.859375 L 8.203125 -10.109375 L 11.234375 -10.109375 L 11.234375 -9.859375 C 11.109375 -9.859375 11 -9.8125 10.90625 -9.71875 C 10.820312 -9.632812 10.75 -9.53125 10.6875 -9.40625 C 10.625 -9.28125 10.578125 -9.144531 10.546875 -9 C 10.523438 -8.851562 10.515625 -8.722656 10.515625 -8.609375 L 10.515625 -1.5625 C 10.515625 -1.4375 10.53125 -1.296875 10.5625 -1.140625 C 10.59375 -0.992188 10.640625 -0.851562 10.703125 -0.71875 C 10.765625 -0.59375 10.835938 -0.476562 10.921875 -0.375 C 11.015625 -0.28125 11.117188 -0.234375 11.234375 -0.234375 L 11.234375 0 L 8.203125 0 L 8.203125 -0.234375 C 8.316406 -0.234375 8.414062 -0.273438 8.5 -0.359375 C 8.59375 -0.453125 8.671875 -0.566406 8.734375 -0.703125 C 8.796875 -0.847656 8.84375 -0.992188 8.875 -1.140625 C 8.90625 -1.296875 8.921875 -1.4375 8.921875 -1.5625 L 8.921875 -4.90625 L 3.4375 -4.90625 Z M 3.4375 -1.5625 "></path></g></g></g><g fill="#492c01" fill-opacity="1"><g transform="translate(93.729158, 175.049986)"><g><path d="M 8.546875 -10.109375 L 8.546875 -7.609375 L 8.296875 -7.609375 C 8.296875 -7.785156 8.257812 -7.972656 8.1875 -8.171875 C 8.113281 -8.367188 8.003906 -8.550781 7.859375 -8.71875 C 7.722656 -8.882812 7.550781 -9.023438 7.34375 -9.140625 C 7.144531 -9.253906 6.921875 -9.3125 6.671875 -9.3125 L 3.46875 -9.3125 L 3.46875 -1.515625 C 3.46875 -1.390625 3.484375 -1.253906 3.515625 -1.109375 C 3.554688 -0.960938 3.613281 -0.820312 3.6875 -0.6875 C 3.757812 -0.5625 3.84375 -0.453125 3.9375 -0.359375 C 4.039062 -0.273438 4.15625 -0.234375 4.28125 -0.234375 L 4.28125 0 L 1.078125 0 L 1.078125 -0.234375 C 1.210938 -0.234375 1.328125 -0.273438 1.421875 -0.359375 C 1.515625 -0.453125 1.597656 -0.5625 1.671875 -0.6875 C 1.742188 -0.820312 1.796875 -0.960938 1.828125 -1.109375 C 1.859375 -1.253906 1.875 -1.390625 1.875 -1.515625 L 1.875 -8.609375 C 1.875 -8.722656 1.859375 -8.851562 1.828125 -9 C 1.796875 -9.144531 1.742188 -9.28125 1.671875 -9.40625 C 1.597656 -9.53125 1.515625 -9.632812 1.421875 -9.71875 C 1.328125 -9.8125 1.210938 -9.859375 1.078125 -9.859375 L 1.078125 -10.109375 Z M 8.546875 -10.109375 "></path></g></g></g><g fill="#492c01" fill-opacity="1"><g transform="translate(102.534573, 175.049986)"><g><path d="M 6.203125 -10.28125 C 7.066406 -10.28125 7.816406 -10.128906 8.453125 -9.828125 C 9.085938 -9.535156 9.617188 -9.144531 10.046875 -8.65625 C 10.472656 -8.175781 10.789062 -7.625 11 -7 C 11.207031 -6.375 11.3125 -5.734375 11.3125 -5.078125 C 11.3125 -4.429688 11.207031 -3.796875 11 -3.171875 C 10.800781 -2.546875 10.5 -1.984375 10.09375 -1.484375 C 9.6875 -0.992188 9.175781 -0.59375 8.5625 -0.28125 C 7.957031 0.0195312 7.238281 0.171875 6.40625 0.171875 C 5.90625 0.171875 5.394531 0.0390625 4.875 -0.21875 C 4.351562 -0.488281 3.882812 -0.828125 3.46875 -1.234375 L 3.46875 3.734375 C 3.46875 3.859375 3.484375 3.992188 3.515625 4.140625 C 3.546875 4.296875 3.597656 4.4375 3.671875 4.5625 C 3.742188 4.695312 3.820312 4.8125 3.90625 4.90625 C 4 5 4.109375 5.046875 4.234375 5.046875 L 4.234375 5.296875 L 1.109375 5.296875 L 1.109375 5.046875 C 1.222656 5.046875 1.328125 5 1.421875 4.90625 C 1.515625 4.8125 1.597656 4.695312 1.671875 4.5625 C 1.742188 4.4375 1.796875 4.296875 1.828125 4.140625 C 1.859375 3.992188 1.875 3.859375 1.875 3.734375 L 1.875 -8.6875 C 1.875 -8.832031 1.867188 -8.972656 1.859375 -9.109375 C 1.859375 -9.242188 1.832031 -9.363281 1.78125 -9.46875 C 1.726562 -9.570312 1.648438 -9.660156 1.546875 -9.734375 C 1.441406 -9.804688 1.296875 -9.847656 1.109375 -9.859375 L 1.109375 -10.109375 L 3.46875 -10.109375 L 3.46875 -9.046875 C 3.789062 -9.429688 4.175781 -9.734375 4.625 -9.953125 C 5.082031 -10.171875 5.609375 -10.28125 6.203125 -10.28125 Z M 6.421875 -0.65625 C 6.984375 -0.664062 7.472656 -0.789062 7.890625 -1.03125 C 8.304688 -1.269531 8.648438 -1.582031 8.921875 -1.96875 C 9.203125 -2.351562 9.40625 -2.78125 9.53125 -3.25 C 9.65625 -3.726562 9.71875 -4.222656 9.71875 -4.734375 C 9.71875 -5.316406 9.632812 -5.890625 9.46875 -6.453125 C 9.3125 -7.015625 9.082031 -7.515625 8.78125 -7.953125 C 8.476562 -8.390625 8.101562 -8.75 7.65625 -9.03125 C 7.21875 -9.3125 6.71875 -9.453125 6.15625 -9.453125 C 5.820312 -9.453125 5.488281 -9.390625 5.15625 -9.265625 C 4.832031 -9.140625 4.546875 -8.953125 4.296875 -8.703125 C 4.046875 -8.460938 3.84375 -8.175781 3.6875 -7.84375 C 3.539062 -7.519531 3.46875 -7.160156 3.46875 -6.765625 L 3.46875 -3.609375 C 3.46875 -3.171875 3.554688 -2.769531 3.734375 -2.40625 C 3.910156 -2.050781 4.140625 -1.738281 4.421875 -1.46875 C 4.703125 -1.207031 5.015625 -1.003906 5.359375 -0.859375 C 5.710938 -0.722656 6.066406 -0.65625 6.421875 -0.65625 Z M 6.421875 -0.65625 "></path></g></g></g><g fill="#492c01" fill-opacity="1"><g transform="translate(114.924713, 175.049986)"><g><path d="M 10.734375 -1.5625 C 10.734375 -1.4375 10.753906 -1.296875 10.796875 -1.140625 C 10.835938 -0.992188 10.890625 -0.851562 10.953125 -0.71875 C 11.015625 -0.59375 11.097656 -0.476562 11.203125 -0.375 C 11.304688 -0.28125 11.40625 -0.234375 11.5 -0.234375 L 11.5 0 L 8.421875 0 L 8.421875 -0.234375 C 8.535156 -0.234375 8.640625 -0.273438 8.734375 -0.359375 C 8.828125 -0.453125 8.90625 -0.566406 8.96875 -0.703125 C 9.039062 -0.847656 9.09375 -0.992188 9.125 -1.140625 C 9.15625 -1.296875 9.171875 -1.4375 9.171875 -1.5625 L 9.171875 -7.34375 L 3.4375 -1.734375 L 3.4375 -1.5625 C 3.4375 -1.4375 3.453125 -1.296875 3.484375 -1.140625 C 3.515625 -0.992188 3.5625 -0.851562 3.625 -0.71875 C 3.695312 -0.59375 3.773438 -0.476562 3.859375 -0.375 C 3.953125 -0.28125 4.050781 -0.234375 4.15625 -0.234375 L 4.15625 0 L 1.109375 0 L 1.109375 -0.234375 C 1.222656 -0.234375 1.328125 -0.273438 1.421875 -0.359375 C 1.515625 -0.453125 1.59375 -0.566406 1.65625 -0.703125 C 1.71875 -0.847656 1.765625 -0.992188 1.796875 -1.140625 C 1.835938 -1.296875 1.859375 -1.4375 1.859375 -1.5625 L 1.859375 -8.609375 C 1.859375 -8.722656 1.835938 -8.851562 1.796875 -9 C 1.765625 -9.144531 1.71875 -9.28125 1.65625 -9.40625 C 1.59375 -9.53125 1.515625 -9.632812 1.421875 -9.71875 C 1.328125 -9.8125 1.222656 -9.859375 1.109375 -9.859375 L 1.109375 -10.109375 L 4.15625 -10.109375 L 4.15625 -9.859375 C 4.03125 -9.859375 3.921875 -9.8125 3.828125 -9.71875 C 3.742188 -9.632812 3.671875 -9.53125 3.609375 -9.40625 C 3.554688 -9.28125 3.515625 -9.144531 3.484375 -9 C 3.453125 -8.851562 3.4375 -8.722656 3.4375 -8.609375 L 3.4375 -2.859375 L 9.171875 -8.46875 L 9.171875 -8.609375 C 9.171875 -8.722656 9.15625 -8.851562 9.125 -9 C 9.09375 -9.144531 9.039062 -9.28125 8.96875 -9.40625 C 8.90625 -9.53125 8.828125 -9.632812 8.734375 -9.71875 C 8.640625 -9.8125 8.535156 -9.859375 8.421875 -9.859375 L 8.421875 -10.109375 L 11.5 -10.109375 L 11.5 -9.859375 C 11.375 -9.859375 11.257812 -9.8125 11.15625 -9.71875 C 11.050781 -9.632812 10.96875 -9.53125 10.90625 -9.40625 C 10.851562 -9.28125 10.8125 -9.144531 10.78125 -9 C 10.75 -8.851562 10.734375 -8.722656 10.734375 -8.609375 Z M 10.734375 -1.5625 "></path></g></g></g><g fill="#492c01" fill-opacity="1"><g transform="translate(127.651675, 175.049986)"><g><path d="M 1.328125 -15.984375 C 1.785156 -15.984375 2.125 -15.820312 2.34375 -15.5 C 2.5625 -15.1875 2.671875 -14.820312 2.671875 -14.40625 C 2.671875 -14.15625 2.640625 -13.882812 2.578125 -13.59375 C 2.515625 -13.300781 2.382812 -13.003906 2.1875 -12.703125 C 2 -12.410156 1.726562 -12.113281 1.375 -11.8125 C 1.03125 -11.519531 0.585938 -11.238281 0.046875 -10.96875 L -0.09375 -11.1875 C 0.226562 -11.488281 0.476562 -11.75 0.65625 -11.96875 C 0.84375 -12.195312 0.984375 -12.40625 1.078125 -12.59375 C 1.179688 -12.78125 1.242188 -12.953125 1.265625 -13.109375 C 1.285156 -13.273438 1.296875 -13.445312 1.296875 -13.625 C 1.296875 -13.75 1.257812 -13.84375 1.1875 -13.90625 C 1.113281 -13.96875 1.023438 -14.03125 0.921875 -14.09375 C 0.785156 -14.175781 0.65625 -14.269531 0.53125 -14.375 C 0.40625 -14.476562 0.34375 -14.664062 0.34375 -14.9375 C 0.34375 -15.25 0.4375 -15.5 0.625 -15.6875 C 0.820312 -15.882812 1.054688 -15.984375 1.328125 -15.984375 Z M 4.5 -15.984375 C 4.96875 -15.984375 5.304688 -15.820312 5.515625 -15.5 C 5.734375 -15.1875 5.84375 -14.820312 5.84375 -14.40625 C 5.84375 -14.15625 5.8125 -13.882812 5.75 -13.59375 C 5.6875 -13.300781 5.554688 -13.003906 5.359375 -12.703125 C 5.171875 -12.410156 4.90625 -12.113281 4.5625 -11.8125 C 4.226562 -11.519531 3.789062 -11.238281 3.25 -10.96875 L 3.109375 -11.1875 C 3.410156 -11.488281 3.648438 -11.75 3.828125 -11.96875 C 4.015625 -12.195312 4.15625 -12.40625 4.25 -12.59375 C 4.351562 -12.78125 4.414062 -12.953125 4.4375 -13.109375 C 4.457031 -13.273438 4.46875 -13.445312 4.46875 -13.625 C 4.46875 -13.75 4.429688 -13.84375 4.359375 -13.90625 C 4.296875 -13.96875 4.207031 -14.03125 4.09375 -14.09375 C 3.957031 -14.175781 3.828125 -14.273438 3.703125 -14.390625 C 3.578125 -14.503906 3.515625 -14.6875 3.515625 -14.9375 C 3.515625 -15.25 3.609375 -15.5 3.796875 -15.6875 C 3.992188 -15.882812 4.226562 -15.984375 4.5 -15.984375 Z M 4.5 -15.984375 "></path></g></g></g><g fill="#492c01" fill-opacity="1"><g transform="translate(133.955012, 175.049986)"><g></g></g></g><g fill="#492c01" fill-opacity="1"><g transform="translate(140.210226, 175.049986)"><g><path d="M 6.203125 -10.28125 C 7.066406 -10.28125 7.816406 -10.128906 8.453125 -9.828125 C 9.085938 -9.535156 9.617188 -9.144531 10.046875 -8.65625 C 10.472656 -8.175781 10.789062 -7.625 11 -7 C 11.207031 -6.375 11.3125 -5.734375 11.3125 -5.078125 C 11.3125 -4.429688 11.207031 -3.796875 11 -3.171875 C 10.800781 -2.546875 10.5 -1.984375 10.09375 -1.484375 C 9.6875 -0.992188 9.175781 -0.59375 8.5625 -0.28125 C 7.957031 0.0195312 7.238281 0.171875 6.40625 0.171875 C 5.90625 0.171875 5.394531 0.0390625 4.875 -0.21875 C 4.351562 -0.488281 3.882812 -0.828125 3.46875 -1.234375 L 3.46875 3.734375 C 3.46875 3.859375 3.484375 3.992188 3.515625 4.140625 C 3.546875 4.296875 3.597656 4.4375 3.671875 4.5625 C 3.742188 4.695312 3.820312 4.8125 3.90625 4.90625 C 4 5 4.109375 5.046875 4.234375 5.046875 L 4.234375 5.296875 L 1.109375 5.296875 L 1.109375 5.046875 C 1.222656 5.046875 1.328125 5 1.421875 4.90625 C 1.515625 4.8125 1.597656 4.695312 1.671875 4.5625 C 1.742188 4.4375 1.796875 4.296875 1.828125 4.140625 C 1.859375 3.992188 1.875 3.859375 1.875 3.734375 L 1.875 -8.6875 C 1.875 -8.832031 1.867188 -8.972656 1.859375 -9.109375 C 1.859375 -9.242188 1.832031 -9.363281 1.78125 -9.46875 C 1.726562 -9.570312 1.648438 -9.660156 1.546875 -9.734375 C 1.441406 -9.804688 1.296875 -9.847656 1.109375 -9.859375 L 1.109375 -10.109375 L 3.46875 -10.109375 L 3.46875 -9.046875 C 3.789062 -9.429688 4.175781 -9.734375 4.625 -9.953125 C 5.082031 -10.171875 5.609375 -10.28125 6.203125 -10.28125 Z M 6.421875 -0.65625 C 6.984375 -0.664062 7.472656 -0.789062 7.890625 -1.03125 C 8.304688 -1.269531 8.648438 -1.582031 8.921875 -1.96875 C 9.203125 -2.351562 9.40625 -2.78125 9.53125 -3.25 C 9.65625 -3.726562 9.71875 -4.222656 9.71875 -4.734375 C 9.71875 -5.316406 9.632812 -5.890625 9.46875 -6.453125 C 9.3125 -7.015625 9.082031 -7.515625 8.78125 -7.953125 C 8.476562 -8.390625 8.101562 -8.75 7.65625 -9.03125 C 7.21875 -9.3125 6.71875 -9.453125 6.15625 -9.453125 C 5.820312 -9.453125 5.488281 -9.390625 5.15625 -9.265625 C 4.832031 -9.140625 4.546875 -8.953125 4.296875 -8.703125 C 4.046875 -8.460938 3.84375 -8.175781 3.6875 -7.84375 C 3.539062 -7.519531 3.46875 -7.160156 3.46875 -6.765625 L 3.46875 -3.609375 C 3.46875 -3.171875 3.554688 -2.769531 3.734375 -2.40625 C 3.910156 -2.050781 4.140625 -1.738281 4.421875 -1.46875 C 4.703125 -1.207031 5.015625 -1.003906 5.359375 -0.859375 C 5.710938 -0.722656 6.066406 -0.65625 6.421875 -0.65625 Z M 6.421875 -0.65625 "></path></g></g></g><g fill="#492c01" fill-opacity="1"><g transform="translate(152.600365, 175.049986)"><g><path d="M 2.40625 -4.859375 C 2.46875 -4.296875 2.601562 -3.757812 2.8125 -3.25 C 3.019531 -2.75 3.296875 -2.304688 3.640625 -1.921875 C 3.984375 -1.535156 4.40625 -1.226562 4.90625 -1 C 5.40625 -0.769531 5.984375 -0.65625 6.640625 -0.65625 C 6.992188 -0.65625 7.363281 -0.707031 7.75 -0.8125 C 8.144531 -0.914062 8.507812 -1.0625 8.84375 -1.25 C 9.1875 -1.445312 9.488281 -1.679688 9.75 -1.953125 C 10.019531 -2.234375 10.203125 -2.550781 10.296875 -2.90625 L 10.515625 -2.90625 L 10.515625 -1.109375 C 10.421875 -1.109375 10.3125 -1.078125 10.1875 -1.015625 C 10.070312 -0.953125 9.929688 -0.867188 9.765625 -0.765625 C 9.441406 -0.578125 9.007812 -0.375 8.46875 -0.15625 C 7.925781 0.0625 7.203125 0.171875 6.296875 0.171875 C 5.578125 0.171875 4.890625 0.0664062 4.234375 -0.140625 C 3.585938 -0.347656 3.015625 -0.664062 2.515625 -1.09375 C 2.023438 -1.53125 1.628906 -2.085938 1.328125 -2.765625 C 1.035156 -3.441406 0.890625 -4.242188 0.890625 -5.171875 C 0.890625 -5.765625 0.988281 -6.363281 1.1875 -6.96875 C 1.382812 -7.582031 1.6875 -8.132812 2.09375 -8.625 C 2.507812 -9.113281 3.035156 -9.507812 3.671875 -9.8125 C 4.316406 -10.125 5.085938 -10.28125 5.984375 -10.28125 C 6.785156 -10.28125 7.488281 -10.140625 8.09375 -9.859375 C 8.695312 -9.585938 9.191406 -9.210938 9.578125 -8.734375 C 9.972656 -8.253906 10.265625 -7.6875 10.453125 -7.03125 C 10.648438 -6.375 10.75 -5.648438 10.75 -4.859375 Z M 5.890625 -9.484375 C 5.328125 -9.484375 4.84375 -9.367188 4.4375 -9.140625 C 4.03125 -8.921875 3.679688 -8.632812 3.390625 -8.28125 C 3.097656 -7.925781 2.875 -7.523438 2.71875 -7.078125 C 2.5625 -6.628906 2.457031 -6.179688 2.40625 -5.734375 L 9.265625 -5.734375 C 9.242188 -6.191406 9.15625 -6.644531 9 -7.09375 C 8.851562 -7.539062 8.644531 -7.941406 8.375 -8.296875 C 8.101562 -8.648438 7.757812 -8.9375 7.34375 -9.15625 C 6.925781 -9.375 6.441406 -9.484375 5.890625 -9.484375 Z M 5.890625 -9.484375 "></path></g></g></g><g fill="#492c01" fill-opacity="1"><g transform="translate(163.763492, 175.049986)"><g><path d="M 9.96875 -0.859375 C 9.832031 -0.859375 9.707031 -0.832031 9.59375 -0.78125 C 9.488281 -0.726562 9.363281 -0.660156 9.21875 -0.578125 C 8.945312 -0.421875 8.582031 -0.253906 8.125 -0.078125 C 7.675781 0.0859375 7.117188 0.171875 6.453125 0.171875 C 5.628906 0.171875 4.875 0.0390625 4.1875 -0.21875 C 3.507812 -0.488281 2.921875 -0.859375 2.421875 -1.328125 C 1.929688 -1.804688 1.546875 -2.363281 1.265625 -3 C 0.992188 -3.632812 0.859375 -4.316406 0.859375 -5.046875 C 0.859375 -5.742188 0.984375 -6.40625 1.234375 -7.03125 C 1.484375 -7.65625 1.835938 -8.207031 2.296875 -8.6875 C 2.765625 -9.164062 3.335938 -9.550781 4.015625 -9.84375 C 4.703125 -10.132812 5.484375 -10.28125 6.359375 -10.28125 C 6.953125 -10.28125 7.429688 -10.207031 7.796875 -10.0625 C 8.160156 -9.925781 8.472656 -9.796875 8.734375 -9.671875 C 8.878906 -9.585938 9.019531 -9.519531 9.15625 -9.46875 C 9.289062 -9.425781 9.429688 -9.40625 9.578125 -9.40625 L 9.578125 -7.578125 L 9.34375 -7.578125 C 9.257812 -7.878906 9.113281 -8.144531 8.90625 -8.375 C 8.695312 -8.613281 8.453125 -8.8125 8.171875 -8.96875 C 7.898438 -9.132812 7.601562 -9.253906 7.28125 -9.328125 C 6.96875 -9.410156 6.660156 -9.453125 6.359375 -9.453125 C 5.691406 -9.453125 5.109375 -9.335938 4.609375 -9.109375 C 4.117188 -8.878906 3.710938 -8.570312 3.390625 -8.1875 C 3.066406 -7.8125 2.828125 -7.382812 2.671875 -6.90625 C 2.515625 -6.425781 2.4375 -5.925781 2.4375 -5.40625 C 2.4375 -4.820312 2.523438 -4.242188 2.703125 -3.671875 C 2.890625 -3.097656 3.15625 -2.585938 3.5 -2.140625 C 3.84375 -1.691406 4.265625 -1.332031 4.765625 -1.0625 C 5.273438 -0.789062 5.851562 -0.65625 6.5 -0.65625 C 6.945312 -0.65625 7.363281 -0.71875 7.75 -0.84375 C 8.132812 -0.96875 8.46875 -1.132812 8.75 -1.34375 C 9.03125 -1.550781 9.253906 -1.78125 9.421875 -2.03125 C 9.585938 -2.28125 9.6875 -2.519531 9.71875 -2.75 L 9.96875 -2.75 Z M 9.96875 -0.859375 "></path></g></g></g><g fill="#492c01" fill-opacity="1"><g transform="translate(174.253009, 175.049986)"><g><path d="M 9.21875 -7.578125 C 9.21875 -7.753906 9.179688 -7.945312 9.109375 -8.15625 C 9.046875 -8.363281 8.953125 -8.550781 8.828125 -8.71875 C 8.703125 -8.882812 8.539062 -9.023438 8.34375 -9.140625 C 8.15625 -9.253906 7.929688 -9.3125 7.671875 -9.3125 L 5.5625 -9.3125 L 5.5625 -1.5625 C 5.5625 -1.4375 5.578125 -1.300781 5.609375 -1.15625 C 5.640625 -1.007812 5.691406 -0.867188 5.765625 -0.734375 C 5.835938 -0.597656 5.914062 -0.476562 6 -0.375 C 6.09375 -0.28125 6.203125 -0.234375 6.328125 -0.234375 L 6.328125 0 L 3.203125 0 L 3.203125 -0.234375 C 3.328125 -0.234375 3.4375 -0.28125 3.53125 -0.375 C 3.632812 -0.476562 3.71875 -0.59375 3.78125 -0.71875 C 3.851562 -0.851562 3.90625 -0.992188 3.9375 -1.140625 C 3.976562 -1.296875 4 -1.4375 4 -1.5625 L 4 -9.3125 L 1.921875 -9.3125 C 1.671875 -9.3125 1.445312 -9.253906 1.25 -9.140625 C 1.0625 -9.023438 0.90625 -8.882812 0.78125 -8.71875 C 0.65625 -8.550781 0.5625 -8.363281 0.5 -8.15625 C 0.4375 -7.945312 0.40625 -7.753906 0.40625 -7.578125 L 0.171875 -7.578125 L 0.171875 -10.109375 L 9.4375 -10.109375 L 9.4375 -7.578125 Z M 9.21875 -7.578125 "></path></g></g></g><g fill="#492c01" fill-opacity="1"><g transform="translate(183.611746, 175.049986)"><g><path d="M 6.140625 0.171875 C 5.335938 0.171875 4.613281 0.0390625 3.96875 -0.21875 C 3.320312 -0.488281 2.769531 -0.851562 2.3125 -1.3125 C 1.863281 -1.769531 1.515625 -2.3125 1.265625 -2.9375 C 1.015625 -3.5625 0.890625 -4.242188 0.890625 -4.984375 C 0.890625 -5.765625 1.023438 -6.476562 1.296875 -7.125 C 1.566406 -7.78125 1.941406 -8.335938 2.421875 -8.796875 C 2.910156 -9.265625 3.484375 -9.628906 4.140625 -9.890625 C 4.796875 -10.148438 5.507812 -10.28125 6.28125 -10.28125 C 7.050781 -10.28125 7.753906 -10.15625 8.390625 -9.90625 C 9.035156 -9.65625 9.585938 -9.304688 10.046875 -8.859375 C 10.515625 -8.410156 10.878906 -7.875 11.140625 -7.25 C 11.398438 -6.632812 11.53125 -5.957031 11.53125 -5.21875 C 11.53125 -4.53125 11.410156 -3.859375 11.171875 -3.203125 C 10.941406 -2.554688 10.597656 -1.984375 10.140625 -1.484375 C 9.679688 -0.992188 9.117188 -0.59375 8.453125 -0.28125 C 7.785156 0.0195312 7.015625 0.171875 6.140625 0.171875 Z M 5.984375 -9.484375 C 5.410156 -9.453125 4.898438 -9.3125 4.453125 -9.0625 C 4.015625 -8.8125 3.644531 -8.488281 3.34375 -8.09375 C 3.050781 -7.695312 2.828125 -7.25 2.671875 -6.75 C 2.523438 -6.257812 2.453125 -5.757812 2.453125 -5.25 C 2.453125 -4.65625 2.539062 -4.078125 2.71875 -3.515625 C 2.90625 -2.960938 3.171875 -2.46875 3.515625 -2.03125 C 3.867188 -1.601562 4.285156 -1.257812 4.765625 -1 C 5.242188 -0.75 5.78125 -0.625 6.375 -0.625 C 6.96875 -0.625 7.492188 -0.75 7.953125 -1 C 8.410156 -1.257812 8.789062 -1.59375 9.09375 -2 C 9.394531 -2.414062 9.625 -2.878906 9.78125 -3.390625 C 9.9375 -3.898438 10.015625 -4.414062 10.015625 -4.9375 C 10.015625 -5.46875 9.929688 -6 9.765625 -6.53125 C 9.609375 -7.070312 9.359375 -7.5625 9.015625 -8 C 8.679688 -8.4375 8.257812 -8.789062 7.75 -9.0625 C 7.25 -9.34375 6.660156 -9.484375 5.984375 -9.484375 Z M 5.984375 -9.484375 "></path></g></g></g><g fill="#492c01" fill-opacity="1"><g transform="translate(194.774816, 175.049986)"><g><path d="M 6.203125 -10.28125 C 7.066406 -10.28125 7.816406 -10.128906 8.453125 -9.828125 C 9.085938 -9.535156 9.617188 -9.144531 10.046875 -8.65625 C 10.472656 -8.175781 10.789062 -7.625 11 -7 C 11.207031 -6.375 11.3125 -5.734375 11.3125 -5.078125 C 11.3125 -4.429688 11.207031 -3.796875 11 -3.171875 C 10.800781 -2.546875 10.5 -1.984375 10.09375 -1.484375 C 9.6875 -0.992188 9.175781 -0.59375 8.5625 -0.28125 C 7.957031 0.0195312 7.238281 0.171875 6.40625 0.171875 C 5.90625 0.171875 5.394531 0.0390625 4.875 -0.21875 C 4.351562 -0.488281 3.882812 -0.828125 3.46875 -1.234375 L 3.46875 3.734375 C 3.46875 3.859375 3.484375 3.992188 3.515625 4.140625 C 3.546875 4.296875 3.597656 4.4375 3.671875 4.5625 C 3.742188 4.695312 3.820312 4.8125 3.90625 4.90625 C 4 5 4.109375 5.046875 4.234375 5.046875 L 4.234375 5.296875 L 1.109375 5.296875 L 1.109375 5.046875 C 1.222656 5.046875 1.328125 5 1.421875 4.90625 C 1.515625 4.8125 1.597656 4.695312 1.671875 4.5625 C 1.742188 4.4375 1.796875 4.296875 1.828125 4.140625 C 1.859375 3.992188 1.875 3.859375 1.875 3.734375 L 1.875 -8.6875 C 1.875 -8.832031 1.867188 -8.972656 1.859375 -9.109375 C 1.859375 -9.242188 1.832031 -9.363281 1.78125 -9.46875 C 1.726562 -9.570312 1.648438 -9.660156 1.546875 -9.734375 C 1.441406 -9.804688 1.296875 -9.847656 1.109375 -9.859375 L 1.109375 -10.109375 L 3.46875 -10.109375 L 3.46875 -9.046875 C 3.789062 -9.429688 4.175781 -9.734375 4.625 -9.953125 C 5.082031 -10.171875 5.609375 -10.28125 6.203125 -10.28125 Z M 6.421875 -0.65625 C 6.984375 -0.664062 7.472656 -0.789062 7.890625 -1.03125 C 8.304688 -1.269531 8.648438 -1.582031 8.921875 -1.96875 C 9.203125 -2.351562 9.40625 -2.78125 9.53125 -3.25 C 9.65625 -3.726562 9.71875 -4.222656 9.71875 -4.734375 C 9.71875 -5.316406 9.632812 -5.890625 9.46875 -6.453125 C 9.3125 -7.015625 9.082031 -7.515625 8.78125 -7.953125 C 8.476562 -8.390625 8.101562 -8.75 7.65625 -9.03125 C 7.21875 -9.3125 6.71875 -9.453125 6.15625 -9.453125 C 5.820312 -9.453125 5.488281 -9.390625 5.15625 -9.265625 C 4.832031 -9.140625 4.546875 -8.953125 4.296875 -8.703125 C 4.046875 -8.460938 3.84375 -8.175781 3.6875 -7.84375 C 3.539062 -7.519531 3.46875 -7.160156 3.46875 -6.765625 L 3.46875 -3.609375 C 3.46875 -3.171875 3.554688 -2.769531 3.734375 -2.40625 C 3.910156 -2.050781 4.140625 -1.738281 4.421875 -1.46875 C 4.703125 -1.207031 5.015625 -1.003906 5.359375 -0.859375 C 5.710938 -0.722656 6.066406 -0.65625 6.421875 -0.65625 Z M 6.421875 -0.65625 "></path></g></g></g><g fill="#492c01" fill-opacity="1"><g transform="translate(207.164967, 175.049986)"><g><path d="M 7.4375 0 L 7.4375 -1.234375 L 7.3125 -1.109375 C 6.914062 -0.703125 6.457031 -0.382812 5.9375 -0.15625 C 5.414062 0.0625 4.785156 0.171875 4.046875 0.171875 C 3.484375 0.171875 3 0.109375 2.59375 -0.015625 C 2.195312 -0.148438 1.867188 -0.332031 1.609375 -0.5625 C 1.359375 -0.800781 1.171875 -1.070312 1.046875 -1.375 C 0.921875 -1.675781 0.859375 -1.992188 0.859375 -2.328125 C 0.859375 -2.878906 1.003906 -3.363281 1.296875 -3.78125 C 1.597656 -4.195312 2.03125 -4.5625 2.59375 -4.875 C 3.15625 -5.195312 3.84375 -5.488281 4.65625 -5.75 C 5.46875 -6.019531 6.394531 -6.285156 7.4375 -6.546875 C 7.40625 -7.171875 7.273438 -7.675781 7.046875 -8.0625 C 6.828125 -8.445312 6.5625 -8.742188 6.25 -8.953125 C 5.945312 -9.171875 5.625 -9.316406 5.28125 -9.390625 C 4.945312 -9.460938 4.660156 -9.5 4.421875 -9.5 C 4.003906 -9.5 3.632812 -9.4375 3.3125 -9.3125 C 3 -9.195312 2.722656 -9.039062 2.484375 -8.84375 C 2.242188 -8.644531 2.046875 -8.414062 1.890625 -8.15625 C 1.734375 -7.894531 1.617188 -7.640625 1.546875 -7.390625 L 1.328125 -7.390625 L 1.328125 -9.265625 C 1.472656 -9.265625 1.640625 -9.316406 1.828125 -9.421875 C 2.023438 -9.523438 2.253906 -9.640625 2.515625 -9.765625 C 2.773438 -9.898438 3.09375 -10.019531 3.46875 -10.125 C 3.851562 -10.226562 4.3125 -10.28125 4.84375 -10.28125 C 5.71875 -10.28125 6.425781 -10.164062 6.96875 -9.9375 C 7.519531 -9.707031 7.941406 -9.410156 8.234375 -9.046875 C 8.535156 -8.679688 8.734375 -8.257812 8.828125 -7.78125 C 8.921875 -7.3125 8.96875 -6.828125 8.96875 -6.328125 L 8.96875 -1.5625 C 8.96875 -1.238281 9.046875 -0.9375 9.203125 -0.65625 C 9.367188 -0.375 9.585938 -0.234375 9.859375 -0.234375 L 9.859375 0 Z M 7.4375 -2.28125 L 7.4375 -5.734375 L 7.1875 -5.671875 C 6.800781 -5.578125 6.332031 -5.445312 5.78125 -5.28125 C 5.226562 -5.125 4.703125 -4.914062 4.203125 -4.65625 C 3.710938 -4.40625 3.289062 -4.101562 2.9375 -3.75 C 2.582031 -3.394531 2.40625 -2.988281 2.40625 -2.53125 C 2.40625 -2.007812 2.613281 -1.582031 3.03125 -1.25 C 3.445312 -0.914062 3.992188 -0.75 4.671875 -0.75 C 5.203125 -0.75 5.664062 -0.863281 6.0625 -1.09375 C 6.46875 -1.320312 6.835938 -1.625 7.171875 -2 Z M 7.4375 -2.28125 "></path></g></g></g><g fill="#492c01" fill-opacity="1"><g transform="translate(218.159694, 175.049986)"><g><path d="M 3.4375 -1.5625 C 3.4375 -1.4375 3.453125 -1.296875 3.484375 -1.140625 C 3.515625 -0.992188 3.5625 -0.851562 3.625 -0.71875 C 3.695312 -0.59375 3.773438 -0.476562 3.859375 -0.375 C 3.953125 -0.28125 4.050781 -0.234375 4.15625 -0.234375 L 4.15625 0 L 1.125 0 L 1.125 -0.234375 C 1.238281 -0.234375 1.335938 -0.273438 1.421875 -0.359375 C 1.515625 -0.453125 1.59375 -0.566406 1.65625 -0.703125 C 1.71875 -0.847656 1.765625 -0.992188 1.796875 -1.140625 C 1.835938 -1.296875 1.859375 -1.4375 1.859375 -1.5625 L 1.859375 -8.609375 C 1.859375 -8.722656 1.835938 -8.851562 1.796875 -9 C 1.765625 -9.144531 1.71875 -9.28125 1.65625 -9.40625 C 1.59375 -9.53125 1.515625 -9.632812 1.421875 -9.71875 C 1.335938 -9.8125 1.238281 -9.859375 1.125 -9.859375 L 1.125 -10.109375 L 4.15625 -10.109375 L 4.15625 -9.859375 C 4.03125 -9.859375 3.921875 -9.8125 3.828125 -9.71875 C 3.742188 -9.632812 3.671875 -9.53125 3.609375 -9.40625 C 3.554688 -9.28125 3.515625 -9.144531 3.484375 -9 C 3.453125 -8.851562 3.4375 -8.722656 3.4375 -8.609375 L 3.4375 -5.703125 L 8.921875 -5.703125 L 8.921875 -8.609375 C 8.921875 -8.722656 8.90625 -8.851562 8.875 -9 C 8.84375 -9.144531 8.796875 -9.28125 8.734375 -9.40625 C 8.679688 -9.53125 8.609375 -9.632812 8.515625 -9.71875 C 8.429688 -9.8125 8.328125 -9.859375 8.203125 -9.859375 L 8.203125 -10.109375 L 11.234375 -10.109375 L 11.234375 -9.859375 C 11.109375 -9.859375 11 -9.8125 10.90625 -9.71875 C 10.820312 -9.632812 10.75 -9.53125 10.6875 -9.40625 C 10.625 -9.28125 10.578125 -9.144531 10.546875 -9 C 10.523438 -8.851562 10.515625 -8.722656 10.515625 -8.609375 L 10.515625 -1.5625 C 10.515625 -1.4375 10.53125 -1.296875 10.5625 -1.140625 C 10.59375 -0.992188 10.640625 -0.851562 10.703125 -0.71875 C 10.765625 -0.59375 10.835938 -0.476562 10.921875 -0.375 C 11.015625 -0.28125 11.117188 -0.234375 11.234375 -0.234375 L 11.234375 0 L 8.203125 0 L 8.203125 -0.234375 C 8.316406 -0.234375 8.414062 -0.273438 8.5 -0.359375 C 8.59375 -0.453125 8.671875 -0.566406 8.734375 -0.703125 C 8.796875 -0.847656 8.84375 -0.992188 8.875 -1.140625 C 8.90625 -1.296875 8.921875 -1.4375 8.921875 -1.5625 L 8.921875 -4.90625 L 3.4375 -4.90625 Z M 3.4375 -1.5625 "></path></g></g></g><g fill="#492c01" fill-opacity="1"><g transform="translate(230.646067, 175.049986)"><g><path d="M 11.046875 0 L 11.046875 -0.234375 C 11.160156 -0.234375 11.265625 -0.273438 11.359375 -0.359375 C 11.453125 -0.453125 11.535156 -0.566406 11.609375 -0.703125 C 11.679688 -0.847656 11.734375 -0.992188 11.765625 -1.140625 C 11.796875 -1.296875 11.8125 -1.4375 11.8125 -1.5625 L 11.8125 -8.609375 C 11.8125 -8.722656 11.796875 -8.851562 11.765625 -9 C 11.734375 -9.144531 11.679688 -9.28125 11.609375 -9.40625 C 11.535156 -9.53125 11.453125 -9.632812 11.359375 -9.71875 C 11.265625 -9.8125 11.160156 -9.859375 11.046875 -9.859375 L 11.046875 -10.109375 L 14.171875 -10.109375 L 14.171875 -9.859375 C 13.929688 -9.859375 13.738281 -9.707031 13.59375 -9.40625 C 13.445312 -9.113281 13.375 -8.847656 13.375 -8.609375 L 13.375 -1.5625 C 13.375 -1.4375 13.390625 -1.296875 13.421875 -1.140625 C 13.453125 -0.992188 13.503906 -0.851562 13.578125 -0.71875 C 13.648438 -0.59375 13.734375 -0.476562 13.828125 -0.375 C 13.929688 -0.28125 14.046875 -0.234375 14.171875 -0.234375 L 14.171875 0 Z M 5.359375 -5.734375 C 6.835938 -5.734375 7.929688 -5.457031 8.640625 -4.90625 C 9.359375 -4.363281 9.71875 -3.691406 9.71875 -2.890625 C 9.71875 -2.484375 9.625 -2.101562 9.4375 -1.75 C 9.257812 -1.40625 8.984375 -1.101562 8.609375 -0.84375 C 8.242188 -0.582031 7.78125 -0.375 7.21875 -0.21875 C 6.65625 -0.0703125 5.988281 0 5.21875 0 L 1.125 0 L 1.125 -0.234375 C 1.238281 -0.234375 1.34375 -0.273438 1.4375 -0.359375 C 1.539062 -0.453125 1.625 -0.566406 1.6875 -0.703125 C 1.757812 -0.847656 1.8125 -0.992188 1.84375 -1.140625 C 1.882812 -1.296875 1.90625 -1.4375 1.90625 -1.5625 L 1.90625 -8.609375 C 1.90625 -8.722656 1.882812 -8.851562 1.84375 -9 C 1.8125 -9.144531 1.757812 -9.28125 1.6875 -9.40625 C 1.625 -9.53125 1.539062 -9.632812 1.4375 -9.71875 C 1.34375 -9.8125 1.238281 -9.859375 1.125 -9.859375 L 1.125 -10.109375 L 4.265625 -10.109375 L 4.265625 -9.859375 C 4.015625 -9.859375 3.816406 -9.707031 3.671875 -9.40625 C 3.535156 -9.113281 3.46875 -8.847656 3.46875 -8.609375 L 3.46875 -5.734375 Z M 5.171875 -0.796875 C 6.234375 -0.796875 7 -0.96875 7.46875 -1.3125 C 7.945312 -1.65625 8.1875 -2.082031 8.1875 -2.59375 C 8.1875 -2.882812 8.117188 -3.171875 7.984375 -3.453125 C 7.859375 -3.734375 7.660156 -3.984375 7.390625 -4.203125 C 7.128906 -4.421875 6.804688 -4.597656 6.421875 -4.734375 C 6.035156 -4.867188 5.59375 -4.9375 5.09375 -4.9375 L 3.46875 -4.9375 L 3.46875 -0.796875 Z M 5.171875 -0.796875 "></path></g></g></g><g fill="#492c01" fill-opacity="1"><g transform="translate(246.115708, 175.049986)"><g><path d="M 1.296875 -2.234375 C 1.765625 -2.234375 2.101562 -2.070312 2.3125 -1.75 C 2.53125 -1.4375 2.640625 -1.070312 2.640625 -0.65625 C 2.640625 -0.40625 2.609375 -0.132812 2.546875 0.15625 C 2.484375 0.445312 2.359375 0.738281 2.171875 1.03125 C 1.992188 1.332031 1.726562 1.628906 1.375 1.921875 C 1.03125 2.222656 0.582031 2.503906 0.03125 2.765625 L -0.09375 2.546875 C 0.226562 2.265625 0.476562 2.003906 0.65625 1.765625 C 0.84375 1.535156 0.976562 1.328125 1.0625 1.140625 C 1.15625 0.953125 1.210938 0.78125 1.234375 0.625 C 1.265625 0.46875 1.28125 0.300781 1.28125 0.125 C 1.28125 -0.0078125 1.238281 -0.109375 1.15625 -0.171875 C 1.070312 -0.242188 0.984375 -0.316406 0.890625 -0.390625 C 0.765625 -0.460938 0.632812 -0.550781 0.5 -0.65625 C 0.375 -0.757812 0.3125 -0.941406 0.3125 -1.203125 C 0.3125 -1.503906 0.40625 -1.75 0.59375 -1.9375 C 0.789062 -2.132812 1.023438 -2.234375 1.296875 -2.234375 Z M 1.296875 -2.234375 "></path></g></g></g><g fill="#492c01" fill-opacity="1"><g transform="translate(56.144532, 199.049984)"><g><path d="M 4.421875 -0.234375 L 4.546875 -0.234375 L 4.546875 0 L 1.078125 0 L 1.078125 -0.234375 L 1.203125 -0.234375 C 1.328125 -0.234375 1.4375 -0.273438 1.53125 -0.359375 C 1.632812 -0.453125 1.722656 -0.5625 1.796875 -0.6875 C 1.867188 -0.820312 1.921875 -0.960938 1.953125 -1.109375 C 1.984375 -1.253906 2 -1.390625 2 -1.515625 L 2 -14.390625 C 2 -14.503906 1.984375 -14.628906 1.953125 -14.765625 C 1.921875 -14.910156 1.867188 -15.046875 1.796875 -15.171875 C 1.722656 -15.304688 1.632812 -15.414062 1.53125 -15.5 C 1.4375 -15.59375 1.328125 -15.640625 1.203125 -15.640625 L 1.078125 -15.640625 L 1.078125 -15.875 L 10.34375 -15.875 L 10.34375 -13.328125 L 10.109375 -13.328125 C 10.109375 -13.910156 9.984375 -14.335938 9.734375 -14.609375 C 9.484375 -14.890625 9.09375 -15.03125 8.5625 -15.03125 L 3.640625 -15.03125 L 3.640625 -1.515625 C 3.640625 -1.390625 3.65625 -1.253906 3.6875 -1.109375 C 3.71875 -0.960938 3.769531 -0.820312 3.84375 -0.6875 C 3.914062 -0.5625 4 -0.453125 4.09375 -0.359375 C 4.1875 -0.273438 4.296875 -0.234375 4.421875 -0.234375 Z M 4.421875 -0.234375 "></path></g></g></g><g fill="#492c01" fill-opacity="1"><g transform="translate(63.794952, 199.049984)"><g><path d="M 2.40625 -4.859375 C 2.46875 -4.296875 2.601562 -3.757812 2.8125 -3.25 C 3.019531 -2.75 3.296875 -2.304688 3.640625 -1.921875 C 3.984375 -1.535156 4.40625 -1.226562 4.90625 -1 C 5.40625 -0.769531 5.984375 -0.65625 6.640625 -0.65625 C 6.992188 -0.65625 7.363281 -0.707031 7.75 -0.8125 C 8.144531 -0.914062 8.507812 -1.0625 8.84375 -1.25 C 9.1875 -1.445312 9.488281 -1.679688 9.75 -1.953125 C 10.019531 -2.234375 10.203125 -2.550781 10.296875 -2.90625 L 10.515625 -2.90625 L 10.515625 -1.109375 C 10.421875 -1.109375 10.3125 -1.078125 10.1875 -1.015625 C 10.070312 -0.953125 9.929688 -0.867188 9.765625 -0.765625 C 9.441406 -0.578125 9.007812 -0.375 8.46875 -0.15625 C 7.925781 0.0625 7.203125 0.171875 6.296875 0.171875 C 5.578125 0.171875 4.890625 0.0664062 4.234375 -0.140625 C 3.585938 -0.347656 3.015625 -0.664062 2.515625 -1.09375 C 2.023438 -1.53125 1.628906 -2.085938 1.328125 -2.765625 C 1.035156 -3.441406 0.890625 -4.242188 0.890625 -5.171875 C 0.890625 -5.765625 0.988281 -6.363281 1.1875 -6.96875 C 1.382812 -7.582031 1.6875 -8.132812 2.09375 -8.625 C 2.507812 -9.113281 3.035156 -9.507812 3.671875 -9.8125 C 4.316406 -10.125 5.085938 -10.28125 5.984375 -10.28125 C 6.785156 -10.28125 7.488281 -10.140625 8.09375 -9.859375 C 8.695312 -9.585938 9.191406 -9.210938 9.578125 -8.734375 C 9.972656 -8.253906 10.265625 -7.6875 10.453125 -7.03125 C 10.648438 -6.375 10.75 -5.648438 10.75 -4.859375 Z M 5.890625 -9.484375 C 5.328125 -9.484375 4.84375 -9.367188 4.4375 -9.140625 C 4.03125 -8.921875 3.679688 -8.632812 3.390625 -8.28125 C 3.097656 -7.925781 2.875 -7.523438 2.71875 -7.078125 C 2.5625 -6.628906 2.457031 -6.179688 2.40625 -5.734375 L 9.265625 -5.734375 C 9.242188 -6.191406 9.15625 -6.644531 9 -7.09375 C 8.851562 -7.539062 8.644531 -7.941406 8.375 -8.296875 C 8.101562 -8.648438 7.757812 -8.9375 7.34375 -9.15625 C 6.925781 -9.375 6.441406 -9.484375 5.890625 -9.484375 Z M 5.890625 -9.484375 "></path></g></g></g><g fill="#492c01" fill-opacity="1"><g transform="translate(74.909957, 199.049984)"><g><path d="M 6.28125 -10.28125 C 7.082031 -10.28125 7.804688 -10.144531 8.453125 -9.875 C 9.109375 -9.613281 9.660156 -9.253906 10.109375 -8.796875 C 10.566406 -8.335938 10.914062 -7.796875 11.15625 -7.171875 C 11.40625 -6.546875 11.53125 -5.863281 11.53125 -5.125 C 11.53125 -4.34375 11.390625 -3.625 11.109375 -2.96875 C 10.835938 -2.320312 10.460938 -1.765625 9.984375 -1.296875 C 9.503906 -0.828125 8.9375 -0.460938 8.28125 -0.203125 C 7.625 0.046875 6.910156 0.171875 6.140625 0.171875 C 5.316406 0.171875 4.582031 0.015625 3.9375 -0.296875 C 3.300781 -0.609375 2.757812 -1.035156 2.3125 -1.578125 C 1.863281 -2.128906 1.519531 -2.773438 1.28125 -3.515625 C 1.039062 -4.265625 0.921875 -5.070312 0.921875 -5.9375 C 0.921875 -6.4375 0.945312 -6.894531 1 -7.3125 C 1.050781 -7.726562 1.132812 -8.132812 1.25 -8.53125 C 1.375 -8.925781 1.523438 -9.304688 1.703125 -9.671875 C 1.878906 -10.035156 2.085938 -10.421875 2.328125 -10.828125 C 3.003906 -11.890625 3.851562 -12.722656 4.875 -13.328125 C 5.894531 -13.941406 6.929688 -14.25 7.984375 -14.25 L 11.046875 -14.25 L 10.109375 -12.703125 L 7.609375 -12.703125 C 7.085938 -12.703125 6.570312 -12.609375 6.0625 -12.421875 C 5.550781 -12.242188 5.066406 -11.972656 4.609375 -11.609375 C 4.148438 -11.242188 3.742188 -10.804688 3.390625 -10.296875 C 3.035156 -9.785156 2.753906 -9.203125 2.546875 -8.546875 C 2.984375 -9.078125 3.484375 -9.5 4.046875 -9.8125 C 4.617188 -10.125 5.363281 -10.28125 6.28125 -10.28125 Z M 6.421875 -0.65625 C 7.015625 -0.6875 7.535156 -0.820312 7.984375 -1.0625 C 8.429688 -1.3125 8.804688 -1.632812 9.109375 -2.03125 C 9.421875 -2.425781 9.648438 -2.867188 9.796875 -3.359375 C 9.953125 -3.847656 10.03125 -4.347656 10.03125 -4.859375 C 10.03125 -5.453125 9.929688 -6.023438 9.734375 -6.578125 C 9.546875 -7.128906 9.273438 -7.613281 8.921875 -8.03125 C 8.566406 -8.445312 8.144531 -8.785156 7.65625 -9.046875 C 7.175781 -9.304688 6.640625 -9.4375 6.046875 -9.4375 C 5.460938 -9.4375 4.945312 -9.3125 4.5 -9.0625 C 4.050781 -8.8125 3.671875 -8.484375 3.359375 -8.078125 C 3.054688 -7.679688 2.828125 -7.222656 2.671875 -6.703125 C 2.523438 -6.191406 2.453125 -5.679688 2.453125 -5.171875 C 2.453125 -4.660156 2.539062 -4.132812 2.71875 -3.59375 C 2.90625 -3.0625 3.171875 -2.578125 3.515625 -2.140625 C 3.867188 -1.703125 4.289062 -1.34375 4.78125 -1.0625 C 5.269531 -0.789062 5.816406 -0.65625 6.421875 -0.65625 Z M 6.421875 -0.65625 "></path></g></g></g><g fill="#492c01" fill-opacity="1"><g transform="translate(87.492563, 199.049984)"><g><path d="M 7.65625 -7.75 C 7.65625 -7.363281 7.484375 -6.945312 7.140625 -6.5 C 6.804688 -6.0625 6.351562 -5.71875 5.78125 -5.46875 C 6.675781 -5.269531 7.316406 -4.929688 7.703125 -4.453125 C 8.097656 -3.984375 8.296875 -3.484375 8.296875 -2.953125 C 8.296875 -2.460938 8.175781 -2.023438 7.9375 -1.640625 C 7.695312 -1.253906 7.375 -0.929688 6.96875 -0.671875 C 6.5625 -0.410156 6.09375 -0.21875 5.5625 -0.09375 C 5.039062 0.03125 4.503906 0.09375 3.953125 0.09375 C 3.421875 0.09375 2.945312 0.0390625 2.53125 -0.0625 C 2.113281 -0.164062 1.75 -0.273438 1.4375 -0.390625 C 1.132812 -0.515625 0.882812 -0.628906 0.6875 -0.734375 C 0.488281 -0.835938 0.332031 -0.890625 0.21875 -0.890625 L 0.21875 -2.84375 L 0.4375 -2.84375 C 0.46875 -2.5 0.578125 -2.195312 0.765625 -1.9375 C 0.960938 -1.675781 1.207031 -1.453125 1.5 -1.265625 C 1.800781 -1.078125 2.140625 -0.9375 2.515625 -0.84375 C 2.890625 -0.75 3.28125 -0.703125 3.6875 -0.703125 C 4.050781 -0.703125 4.410156 -0.738281 4.765625 -0.8125 C 5.128906 -0.894531 5.453125 -1.019531 5.734375 -1.1875 C 6.015625 -1.351562 6.242188 -1.566406 6.421875 -1.828125 C 6.597656 -2.085938 6.6875 -2.382812 6.6875 -2.71875 C 6.6875 -3.070312 6.585938 -3.390625 6.390625 -3.671875 C 6.203125 -3.953125 5.953125 -4.1875 5.640625 -4.375 C 5.328125 -4.570312 4.984375 -4.71875 4.609375 -4.8125 C 4.234375 -4.90625 3.859375 -4.953125 3.484375 -4.953125 L 2.71875 -4.953125 L 2.71875 -5.734375 L 3.5625 -5.734375 C 3.894531 -5.734375 4.21875 -5.785156 4.53125 -5.890625 C 4.84375 -6.003906 5.109375 -6.148438 5.328125 -6.328125 C 5.554688 -6.503906 5.738281 -6.707031 5.875 -6.9375 C 6.019531 -7.175781 6.09375 -7.414062 6.09375 -7.65625 C 6.09375 -7.9375 6.015625 -8.191406 5.859375 -8.421875 C 5.703125 -8.648438 5.492188 -8.84375 5.234375 -9 C 4.984375 -9.15625 4.703125 -9.273438 4.390625 -9.359375 C 4.078125 -9.453125 3.753906 -9.5 3.421875 -9.5 C 3.109375 -9.5 2.804688 -9.460938 2.515625 -9.390625 C 2.234375 -9.316406 1.972656 -9.203125 1.734375 -9.046875 C 1.503906 -8.890625 1.3125 -8.6875 1.15625 -8.4375 C 1.007812 -8.195312 0.910156 -7.910156 0.859375 -7.578125 L 0.65625 -7.578125 L 0.65625 -9.453125 C 0.78125 -9.453125 0.894531 -9.472656 1 -9.515625 C 1.113281 -9.554688 1.242188 -9.617188 1.390625 -9.703125 C 1.648438 -9.828125 1.960938 -9.945312 2.328125 -10.0625 C 2.703125 -10.1875 3.171875 -10.25 3.734375 -10.25 C 4.984375 -10.25 5.945312 -10.023438 6.625 -9.578125 C 7.3125 -9.128906 7.65625 -8.519531 7.65625 -7.75 Z M 7.65625 -7.75 "></path></g></g></g><g fill="#492c01" fill-opacity="1"><g transform="translate(96.658857, 199.049984)"><g><path d="M 2.40625 -4.859375 C 2.46875 -4.296875 2.601562 -3.757812 2.8125 -3.25 C 3.019531 -2.75 3.296875 -2.304688 3.640625 -1.921875 C 3.984375 -1.535156 4.40625 -1.226562 4.90625 -1 C 5.40625 -0.769531 5.984375 -0.65625 6.640625 -0.65625 C 6.992188 -0.65625 7.363281 -0.707031 7.75 -0.8125 C 8.144531 -0.914062 8.507812 -1.0625 8.84375 -1.25 C 9.1875 -1.445312 9.488281 -1.679688 9.75 -1.953125 C 10.019531 -2.234375 10.203125 -2.550781 10.296875 -2.90625 L 10.515625 -2.90625 L 10.515625 -1.109375 C 10.421875 -1.109375 10.3125 -1.078125 10.1875 -1.015625 C 10.070312 -0.953125 9.929688 -0.867188 9.765625 -0.765625 C 9.441406 -0.578125 9.007812 -0.375 8.46875 -0.15625 C 7.925781 0.0625 7.203125 0.171875 6.296875 0.171875 C 5.578125 0.171875 4.890625 0.0664062 4.234375 -0.140625 C 3.585938 -0.347656 3.015625 -0.664062 2.515625 -1.09375 C 2.023438 -1.53125 1.628906 -2.085938 1.328125 -2.765625 C 1.035156 -3.441406 0.890625 -4.242188 0.890625 -5.171875 C 0.890625 -5.765625 0.988281 -6.363281 1.1875 -6.96875 C 1.382812 -7.582031 1.6875 -8.132812 2.09375 -8.625 C 2.507812 -9.113281 3.035156 -9.507812 3.671875 -9.8125 C 4.316406 -10.125 5.085938 -10.28125 5.984375 -10.28125 C 6.785156 -10.28125 7.488281 -10.140625 8.09375 -9.859375 C 8.695312 -9.585938 9.191406 -9.210938 9.578125 -8.734375 C 9.972656 -8.253906 10.265625 -7.6875 10.453125 -7.03125 C 10.648438 -6.375 10.75 -5.648438 10.75 -4.859375 Z M 5.890625 -9.484375 C 5.328125 -9.484375 4.84375 -9.367188 4.4375 -9.140625 C 4.03125 -8.921875 3.679688 -8.632812 3.390625 -8.28125 C 3.097656 -7.925781 2.875 -7.523438 2.71875 -7.078125 C 2.5625 -6.628906 2.457031 -6.179688 2.40625 -5.734375 L 9.265625 -5.734375 C 9.242188 -6.191406 9.15625 -6.644531 9 -7.09375 C 8.851562 -7.539062 8.644531 -7.941406 8.375 -8.296875 C 8.101562 -8.648438 7.757812 -8.9375 7.34375 -9.15625 C 6.925781 -9.375 6.441406 -9.484375 5.890625 -9.484375 Z M 5.890625 -9.484375 "></path></g></g></g><g fill="#492c01" fill-opacity="1"><g transform="translate(108.32724, 199.049984)"><g></g></g></g><g fill="#492c01" fill-opacity="1"><g transform="translate(114.582455, 199.049984)"><g><path d="M 2.5 0 L 2.5 -0.234375 C 2.882812 -0.234375 3.128906 -0.347656 3.234375 -0.578125 C 3.335938 -0.816406 3.390625 -1.097656 3.390625 -1.421875 L 3.390625 -12.953125 C 3.390625 -13.109375 3.3125 -13.1875 3.15625 -13.1875 C 3.09375 -13.1875 3.003906 -13.160156 2.890625 -13.109375 L 0.140625 -12.25 L 0.140625 -13.109375 L 5.75 -15.0625 L 5.75 -14.40625 C 5.488281 -14.300781 5.28125 -14.125 5.125 -13.875 C 4.976562 -13.632812 4.921875 -13.359375 4.953125 -13.046875 L 4.953125 -1.515625 C 4.953125 -1.179688 5.007812 -0.882812 5.125 -0.625 C 5.238281 -0.363281 5.492188 -0.234375 5.890625 -0.234375 L 5.890625 0 Z M 2.5 0 "></path></g></g></g><g fill="#492c01" fill-opacity="1"><g transform="translate(122.401469, 199.049984)"><g><path d="M 10.96875 -3.921875 C 10.96875 -3.210938 10.828125 -2.597656 10.546875 -2.078125 C 10.265625 -1.554688 9.882812 -1.125 9.40625 -0.78125 C 8.9375 -0.4375 8.390625 -0.179688 7.765625 -0.015625 C 7.140625 0.148438 6.476562 0.234375 5.78125 0.234375 C 5.113281 0.234375 4.46875 0.148438 3.84375 -0.015625 C 3.21875 -0.179688 2.65625 -0.4375 2.15625 -0.78125 C 1.664062 -1.125 1.269531 -1.550781 0.96875 -2.0625 C 0.675781 -2.582031 0.53125 -3.1875 0.53125 -3.875 C 0.53125 -4.789062 0.800781 -5.613281 1.34375 -6.34375 C 1.894531 -7.070312 2.765625 -7.613281 3.953125 -7.96875 C 3.035156 -8.382812 2.363281 -8.867188 1.9375 -9.421875 C 1.507812 -9.972656 1.296875 -10.648438 1.296875 -11.453125 C 1.296875 -12.046875 1.421875 -12.5625 1.671875 -13 C 1.921875 -13.445312 2.25 -13.820312 2.65625 -14.125 C 3.0625 -14.425781 3.53125 -14.648438 4.0625 -14.796875 C 4.59375 -14.953125 5.128906 -15.03125 5.671875 -15.03125 C 6.222656 -15.03125 6.765625 -14.953125 7.296875 -14.796875 C 7.835938 -14.648438 8.316406 -14.425781 8.734375 -14.125 C 9.148438 -13.820312 9.488281 -13.441406 9.75 -12.984375 C 10.019531 -12.523438 10.15625 -11.988281 10.15625 -11.375 C 10.15625 -10.65625 9.910156 -9.984375 9.421875 -9.359375 C 8.941406 -8.734375 8.320312 -8.257812 7.5625 -7.9375 C 8.550781 -7.644531 9.363281 -7.164062 10 -6.5 C 10.644531 -5.84375 10.96875 -4.984375 10.96875 -3.921875 Z M 8.765625 -11.015625 C 8.765625 -11.503906 8.660156 -11.945312 8.453125 -12.34375 C 8.253906 -12.75 7.992188 -13.085938 7.671875 -13.359375 C 7.347656 -13.640625 6.984375 -13.859375 6.578125 -14.015625 C 6.171875 -14.171875 5.757812 -14.25 5.34375 -14.25 C 5.019531 -14.25 4.707031 -14.195312 4.40625 -14.09375 C 4.101562 -14 3.828125 -13.851562 3.578125 -13.65625 C 3.335938 -13.46875 3.140625 -13.226562 2.984375 -12.9375 C 2.835938 -12.65625 2.765625 -12.320312 2.765625 -11.9375 C 2.765625 -11.5 2.867188 -11.09375 3.078125 -10.71875 C 3.285156 -10.351562 3.5625 -10.023438 3.90625 -9.734375 C 4.25 -9.453125 4.640625 -9.203125 5.078125 -8.984375 C 5.523438 -8.765625 5.972656 -8.585938 6.421875 -8.453125 C 7.140625 -8.734375 7.707031 -9.085938 8.125 -9.515625 C 8.550781 -9.953125 8.765625 -10.453125 8.765625 -11.015625 Z M 9.765625 -3.421875 C 9.765625 -3.867188 9.644531 -4.289062 9.40625 -4.6875 C 9.164062 -5.09375 8.828125 -5.457031 8.390625 -5.78125 C 7.960938 -6.113281 7.460938 -6.410156 6.890625 -6.671875 C 6.328125 -6.941406 5.726562 -7.171875 5.09375 -7.359375 C 4.675781 -7.210938 4.285156 -7.035156 3.921875 -6.828125 C 3.554688 -6.617188 3.234375 -6.378906 2.953125 -6.109375 C 2.679688 -5.835938 2.460938 -5.539062 2.296875 -5.21875 C 2.140625 -4.894531 2.0625 -4.550781 2.0625 -4.1875 C 2.0625 -3.707031 2.175781 -3.25 2.40625 -2.8125 C 2.632812 -2.382812 2.929688 -2.003906 3.296875 -1.671875 C 3.660156 -1.335938 4.082031 -1.082031 4.5625 -0.90625 C 5.050781 -0.738281 5.550781 -0.65625 6.0625 -0.65625 C 6.5 -0.65625 6.9375 -0.722656 7.375 -0.859375 C 7.8125 -0.992188 8.203125 -1.175781 8.546875 -1.40625 C 8.898438 -1.632812 9.191406 -1.914062 9.421875 -2.25 C 9.648438 -2.59375 9.765625 -2.984375 9.765625 -3.421875 Z M 9.765625 -3.421875 "></path></g></g></g><g fill="#492c01" fill-opacity="1"><g transform="translate(134.502909, 199.049984)"><g><path d="M 0.546875 -13.453125 L 0.765625 -13.453125 C 0.847656 -13.453125 0.945312 -13.488281 1.0625 -13.5625 C 1.1875 -13.644531 1.320312 -13.734375 1.46875 -13.828125 C 1.625 -13.941406 1.8125 -14.070312 2.03125 -14.21875 C 2.25 -14.363281 2.5 -14.492188 2.78125 -14.609375 C 3.0625 -14.734375 3.378906 -14.832031 3.734375 -14.90625 C 4.085938 -14.988281 4.476562 -15.03125 4.90625 -15.03125 C 5.457031 -15.03125 5.988281 -14.953125 6.5 -14.796875 C 7.007812 -14.648438 7.460938 -14.421875 7.859375 -14.109375 C 8.265625 -13.796875 8.585938 -13.398438 8.828125 -12.921875 C 9.066406 -12.441406 9.1875 -11.863281 9.1875 -11.1875 C 9.1875 -10.625 9.085938 -10.109375 8.890625 -9.640625 C 8.703125 -9.179688 8.441406 -8.75 8.109375 -8.34375 C 7.785156 -7.945312 7.421875 -7.566406 7.015625 -7.203125 C 6.609375 -6.847656 6.1875 -6.492188 5.75 -6.140625 C 5.332031 -5.796875 4.925781 -5.445312 4.53125 -5.09375 C 4.144531 -4.75 3.789062 -4.382812 3.46875 -4 C 3.15625 -3.613281 2.894531 -3.195312 2.6875 -2.75 C 2.476562 -2.3125 2.359375 -1.84375 2.328125 -1.34375 L 7.34375 -1.34375 C 7.945312 -1.34375 8.425781 -1.453125 8.78125 -1.671875 C 9.132812 -1.890625 9.320312 -2.25 9.34375 -2.75 L 9.546875 -2.75 L 9.546875 0 L 0.65625 0 C 0.65625 -0.71875 0.773438 -1.382812 1.015625 -2 C 1.253906 -2.625 1.566406 -3.195312 1.953125 -3.71875 C 2.335938 -4.238281 2.765625 -4.722656 3.234375 -5.171875 C 3.710938 -5.617188 4.179688 -6.050781 4.640625 -6.46875 C 5.023438 -6.8125 5.394531 -7.148438 5.75 -7.484375 C 6.113281 -7.816406 6.4375 -8.15625 6.71875 -8.5 C 7 -8.84375 7.222656 -9.203125 7.390625 -9.578125 C 7.566406 -9.960938 7.65625 -10.363281 7.65625 -10.78125 C 7.65625 -11.3125 7.5625 -11.785156 7.375 -12.203125 C 7.1875 -12.617188 6.941406 -12.96875 6.640625 -13.25 C 6.347656 -13.539062 6.007812 -13.765625 5.625 -13.921875 C 5.238281 -14.078125 4.851562 -14.15625 4.46875 -14.15625 C 3.65625 -14.15625 2.9375 -13.910156 2.3125 -13.421875 C 1.6875 -12.929688 1.179688 -12.300781 0.796875 -11.53125 L 0.546875 -11.53125 Z M 0.546875 -13.453125 "></path></g></g></g><g fill="#492c01" fill-opacity="1"><g transform="translate(144.824014, 199.049984)"><g><path d="M 1.015625 1.46875 L 0.125 1.171875 L 6.90625 -17.1875 L 7.796875 -16.9375 Z M 1.015625 1.46875 "></path></g></g></g><g fill="#492c01" fill-opacity="1"><g transform="translate(152.835496, 199.049984)"><g><path d="M 2.5 0 L 2.5 -0.234375 C 2.882812 -0.234375 3.128906 -0.347656 3.234375 -0.578125 C 3.335938 -0.816406 3.390625 -1.097656 3.390625 -1.421875 L 3.390625 -12.953125 C 3.390625 -13.109375 3.3125 -13.1875 3.15625 -13.1875 C 3.09375 -13.1875 3.003906 -13.160156 2.890625 -13.109375 L 0.140625 -12.25 L 0.140625 -13.109375 L 5.75 -15.0625 L 5.75 -14.40625 C 5.488281 -14.300781 5.28125 -14.125 5.125 -13.875 C 4.976562 -13.632812 4.921875 -13.359375 4.953125 -13.046875 L 4.953125 -1.515625 C 4.953125 -1.179688 5.007812 -0.882812 5.125 -0.625 C 5.238281 -0.363281 5.492188 -0.234375 5.890625 -0.234375 L 5.890625 0 Z M 2.5 0 "></path></g></g></g><g fill="#492c01" fill-opacity="1"><g transform="translate(160.654511, 199.049984)"><g><path d="M 10.96875 -3.921875 C 10.96875 -3.210938 10.828125 -2.597656 10.546875 -2.078125 C 10.265625 -1.554688 9.882812 -1.125 9.40625 -0.78125 C 8.9375 -0.4375 8.390625 -0.179688 7.765625 -0.015625 C 7.140625 0.148438 6.476562 0.234375 5.78125 0.234375 C 5.113281 0.234375 4.46875 0.148438 3.84375 -0.015625 C 3.21875 -0.179688 2.65625 -0.4375 2.15625 -0.78125 C 1.664062 -1.125 1.269531 -1.550781 0.96875 -2.0625 C 0.675781 -2.582031 0.53125 -3.1875 0.53125 -3.875 C 0.53125 -4.789062 0.800781 -5.613281 1.34375 -6.34375 C 1.894531 -7.070312 2.765625 -7.613281 3.953125 -7.96875 C 3.035156 -8.382812 2.363281 -8.867188 1.9375 -9.421875 C 1.507812 -9.972656 1.296875 -10.648438 1.296875 -11.453125 C 1.296875 -12.046875 1.421875 -12.5625 1.671875 -13 C 1.921875 -13.445312 2.25 -13.820312 2.65625 -14.125 C 3.0625 -14.425781 3.53125 -14.648438 4.0625 -14.796875 C 4.59375 -14.953125 5.128906 -15.03125 5.671875 -15.03125 C 6.222656 -15.03125 6.765625 -14.953125 7.296875 -14.796875 C 7.835938 -14.648438 8.316406 -14.425781 8.734375 -14.125 C 9.148438 -13.820312 9.488281 -13.441406 9.75 -12.984375 C 10.019531 -12.523438 10.15625 -11.988281 10.15625 -11.375 C 10.15625 -10.65625 9.910156 -9.984375 9.421875 -9.359375 C 8.941406 -8.734375 8.320312 -8.257812 7.5625 -7.9375 C 8.550781 -7.644531 9.363281 -7.164062 10 -6.5 C 10.644531 -5.84375 10.96875 -4.984375 10.96875 -3.921875 Z M 8.765625 -11.015625 C 8.765625 -11.503906 8.660156 -11.945312 8.453125 -12.34375 C 8.253906 -12.75 7.992188 -13.085938 7.671875 -13.359375 C 7.347656 -13.640625 6.984375 -13.859375 6.578125 -14.015625 C 6.171875 -14.171875 5.757812 -14.25 5.34375 -14.25 C 5.019531 -14.25 4.707031 -14.195312 4.40625 -14.09375 C 4.101562 -14 3.828125 -13.851562 3.578125 -13.65625 C 3.335938 -13.46875 3.140625 -13.226562 2.984375 -12.9375 C 2.835938 -12.65625 2.765625 -12.320312 2.765625 -11.9375 C 2.765625 -11.5 2.867188 -11.09375 3.078125 -10.71875 C 3.285156 -10.351562 3.5625 -10.023438 3.90625 -9.734375 C 4.25 -9.453125 4.640625 -9.203125 5.078125 -8.984375 C 5.523438 -8.765625 5.972656 -8.585938 6.421875 -8.453125 C 7.140625 -8.734375 7.707031 -9.085938 8.125 -9.515625 C 8.550781 -9.953125 8.765625 -10.453125 8.765625 -11.015625 Z M 9.765625 -3.421875 C 9.765625 -3.867188 9.644531 -4.289062 9.40625 -4.6875 C 9.164062 -5.09375 8.828125 -5.457031 8.390625 -5.78125 C 7.960938 -6.113281 7.460938 -6.410156 6.890625 -6.671875 C 6.328125 -6.941406 5.726562 -7.171875 5.09375 -7.359375 C 4.675781 -7.210938 4.285156 -7.035156 3.921875 -6.828125 C 3.554688 -6.617188 3.234375 -6.378906 2.953125 -6.109375 C 2.679688 -5.835938 2.460938 -5.539062 2.296875 -5.21875 C 2.140625 -4.894531 2.0625 -4.550781 2.0625 -4.1875 C 2.0625 -3.707031 2.175781 -3.25 2.40625 -2.8125 C 2.632812 -2.382812 2.929688 -2.003906 3.296875 -1.671875 C 3.660156 -1.335938 4.082031 -1.082031 4.5625 -0.90625 C 5.050781 -0.738281 5.550781 -0.65625 6.0625 -0.65625 C 6.5 -0.65625 6.9375 -0.722656 7.375 -0.859375 C 7.8125 -0.992188 8.203125 -1.175781 8.546875 -1.40625 C 8.898438 -1.632812 9.191406 -1.914062 9.421875 -2.25 C 9.648438 -2.59375 9.765625 -2.984375 9.765625 -3.421875 Z M 9.765625 -3.421875 "></path></g></g></g><g fill="#492c01" fill-opacity="1"><g transform="translate(172.75595, 199.049984)"><g><path d="M 5.75 0 L 5.75 -0.234375 C 5.976562 -0.234375 6.148438 -0.269531 6.265625 -0.34375 C 6.390625 -0.414062 6.476562 -0.507812 6.53125 -0.625 C 6.582031 -0.75 6.613281 -0.890625 6.625 -1.046875 C 6.632812 -1.203125 6.640625 -1.359375 6.640625 -1.515625 L 6.640625 -3.875 L 0.078125 -3.875 L 8.203125 -15.40625 L 8.203125 -5.078125 L 9.671875 -5.078125 L 9.671875 -3.875 L 8.203125 -3.875 L 8.203125 -1.515625 C 8.203125 -1.191406 8.257812 -0.894531 8.375 -0.625 C 8.5 -0.363281 8.753906 -0.234375 9.140625 -0.234375 L 9.140625 0 Z M 6.640625 -11.8125 C 5.835938 -10.675781 5.039062 -9.550781 4.25 -8.4375 C 3.457031 -7.332031 2.660156 -6.210938 1.859375 -5.078125 L 6.640625 -5.078125 Z M 6.640625 -11.8125 "></path></g></g></g><g fill="#492c01" fill-opacity="1"><g transform="translate(182.860533, 199.049984)"><g></g></g></g><g fill="#492c01" fill-opacity="1"><g transform="translate(189.115747, 199.049984)"><g><path d="M 8.375 -1.875 C 8.46875 -1.695312 8.59375 -1.507812 8.75 -1.3125 C 8.914062 -1.125 9.097656 -0.945312 9.296875 -0.78125 C 9.492188 -0.625 9.695312 -0.492188 9.90625 -0.390625 C 10.113281 -0.285156 10.316406 -0.234375 10.515625 -0.234375 L 10.515625 0 L 9.59375 0 C 8.863281 0 8.296875 -0.148438 7.890625 -0.453125 C 7.492188 -0.765625 7.179688 -1.128906 6.953125 -1.546875 L 5.828125 -3.6875 C 5.648438 -4.019531 5.351562 -4.3125 4.9375 -4.5625 C 4.519531 -4.8125 4.078125 -4.9375 3.609375 -4.9375 L 3.609375 -1.515625 C 3.609375 -1.390625 3.617188 -1.253906 3.640625 -1.109375 C 3.671875 -0.960938 3.71875 -0.820312 3.78125 -0.6875 C 3.84375 -0.5625 3.921875 -0.453125 4.015625 -0.359375 C 4.109375 -0.273438 4.222656 -0.234375 4.359375 -0.234375 L 4.359375 0 L 1.25 0 L 1.25 -0.234375 C 1.363281 -0.234375 1.472656 -0.273438 1.578125 -0.359375 C 1.679688 -0.453125 1.765625 -0.5625 1.828125 -0.6875 C 1.890625 -0.820312 1.9375 -0.960938 1.96875 -1.109375 C 2 -1.253906 2.015625 -1.390625 2.015625 -1.515625 L 2.015625 -8.59375 C 2.015625 -8.707031 2 -8.835938 1.96875 -8.984375 C 1.9375 -9.140625 1.890625 -9.28125 1.828125 -9.40625 C 1.773438 -9.53125 1.703125 -9.632812 1.609375 -9.71875 C 1.515625 -9.8125 1.394531 -9.859375 1.25 -9.859375 L 1.25 -10.109375 L 4.328125 -10.109375 L 4.328125 -9.859375 C 4.210938 -9.859375 4.109375 -9.8125 4.015625 -9.71875 C 3.929688 -9.632812 3.859375 -9.53125 3.796875 -9.40625 C 3.734375 -9.28125 3.6875 -9.140625 3.65625 -8.984375 C 3.625 -8.835938 3.609375 -8.707031 3.609375 -8.59375 L 3.609375 -6.109375 C 4.296875 -6.722656 4.976562 -7.3125 5.65625 -7.875 C 6.332031 -8.445312 7.015625 -9.039062 7.703125 -9.65625 C 7.703125 -9.664062 7.707031 -9.675781 7.71875 -9.6875 C 7.738281 -9.707031 7.75 -9.726562 7.75 -9.75 C 7.75 -9.820312 7.707031 -9.859375 7.625 -9.859375 L 7.625 -10.109375 L 9.71875 -10.109375 L 9.71875 -9.859375 C 9.632812 -9.859375 9.535156 -9.832031 9.421875 -9.78125 C 9.316406 -9.738281 9.207031 -9.6875 9.09375 -9.625 C 8.96875 -9.5625 8.835938 -9.484375 8.703125 -9.390625 C 7.984375 -8.773438 7.265625 -8.148438 6.546875 -7.515625 C 5.828125 -6.878906 5.101562 -6.257812 4.375 -5.65625 C 5.0625 -5.65625 5.625 -5.523438 6.0625 -5.265625 C 6.507812 -5.015625 6.882812 -4.609375 7.1875 -4.046875 Z M 8.375 -1.875 "></path></g></g></g><g fill="#492c01" fill-opacity="1"><g transform="translate(199.966141, 199.049984)"><g><path d="M 1.25 -1.03125 C 1.25 -1.351562 1.359375 -1.625 1.578125 -1.84375 C 1.796875 -2.070312 2.0625 -2.1875 2.375 -2.1875 C 2.695312 -2.1875 2.96875 -2.070312 3.1875 -1.84375 C 3.414062 -1.625 3.53125 -1.351562 3.53125 -1.03125 C 3.53125 -0.707031 3.414062 -0.4375 3.1875 -0.21875 C 2.96875 -0.0078125 2.695312 0.09375 2.375 0.09375 C 2.0625 0.09375 1.796875 -0.0078125 1.578125 -0.21875 C 1.359375 -0.4375 1.25 -0.707031 1.25 -1.03125 Z M 1.25 -1.03125 "></path></g></g></g></svg> 