<?xml version="1.0" encoding="UTF-8"?> <svg xmlns="http://www.w3.org/2000/svg" xmlns:xlink="http://www.w3.org/1999/xlink" width="360" zoomAndPan="magnify" viewBox="0 0 270 359.999987" height="480" preserveAspectRatio="xMidYMid meet" version="1.0"><defs><g></g><clipPath id="e4d0e5fdab"><path d="M 171.886719 201.582031 L 172.296875 201.582031 L 172.296875 201.863281 L 171.886719 201.863281 Z M 171.886719 201.582031 " clip-rule="nonzero"></path></clipPath><clipPath id="93acfbf49c"><path d="M 172.273438 201.75 C 171.523438 202.050781 172.125 201.601562 172.125 201.601562 " clip-rule="nonzero"></path></clipPath><clipPath id="962967b04d"><path d="M 0.886719 0.582031 L 1.296875 0.582031 L 1.296875 0.863281 L 0.886719 0.863281 Z M 0.886719 0.582031 " clip-rule="nonzero"></path></clipPath><clipPath id="f4f3583835"><path d="M 1.273438 0.75 C 0.523438 1.050781 1.125 0.601562 1.125 0.601562 " clip-rule="nonzero"></path></clipPath><clipPath id="eb4f3ffc05"><rect x="0" width="2" y="0" height="1"></rect></clipPath><clipPath id="eff3be5096"><path d="M 78.0625 176.757812 L 78.472656 176.757812 L 78.472656 177 L 78.0625 177 Z M 78.0625 176.757812 " clip-rule="nonzero"></path></clipPath><clipPath id="a6ddd92762"><path d="M 78.449219 176.925781 C 77.699219 177.148438 78.300781 176.773438 78.300781 176.773438 " clip-rule="nonzero"></path></clipPath><clipPath id="585b20d078"><path d="M 0.0625 0.757812 L 0.472656 0.757812 L 0.472656 1 L 0.0625 1 Z M 0.0625 0.757812 " clip-rule="nonzero"></path></clipPath><clipPath id="f631f9249b"><path d="M 0.449219 0.925781 C -0.300781 1.148438 0.300781 0.773438 0.300781 0.773438 " clip-rule="nonzero"></path></clipPath><clipPath id="4d1c0796f5"><rect x="0" width="1" y="0" height="1"></rect></clipPath><clipPath id="5722169d6f"><path d="M 0.0625 0.757812 L 0.472656 0.757812 L 0.472656 1 L 0.0625 1 Z M 0.0625 0.757812 " clip-rule="nonzero"></path></clipPath><clipPath id="b15e6d5f88"><path d="M 0.449219 0.925781 C -0.300781 1.148438 0.300781 0.773438 0.300781 0.773438 " clip-rule="nonzero"></path></clipPath><clipPath id="d4ba301e15"><rect x="0" width="1" y="0" height="1"></rect></clipPath><clipPath id="c7df123751"><rect x="0" width="251" y="0" height="63"></rect></clipPath></defs><g clip-path="url(#e4d0e5fdab)"><g clip-path="url(#93acfbf49c)"><g transform="matrix(1, 0, 0, 1, 171, 201)"><g clip-path="url(#eb4f3ffc05)"><g clip-path="url(#962967b04d)"><g clip-path="url(#f4f3583835)"><rect x="-230.4" width="388.8" fill="#492c01" height="518.399981" y="-280.199997" fill-opacity="1"></rect></g></g></g></g></g></g><g clip-path="url(#eff3be5096)"><g clip-path="url(#a6ddd92762)"><g transform="matrix(1, 0, 0, 1, 78, 176)"><g clip-path="url(#4d1c0796f5)"><g clip-path="url(#585b20d078)"><g clip-path="url(#f631f9249b)"><rect x="-137.4" width="388.8" fill="#492c01" height="518.399981" y="-255.199997" fill-opacity="1"></rect></g></g></g></g><g transform="matrix(1, 0, 0, 1, 78, 176)"><g clip-path="url(#d4ba301e15)"><g clip-path="url(#5722169d6f)"><g clip-path="url(#b15e6d5f88)"><rect x="-137.4" width="388.8" fill="#492c01" height="518.399981" y="-255.199997" fill-opacity="1"></rect></g></g></g></g></g></g><g transform="matrix(1, 0, 0, 1, 9, 178)"><g clip-path="url(#c7df123751)"><g fill="#492c01" fill-opacity="1"><g transform="translate(1.143804, 25.18782)"><g><path d="M 1.34375 -0.296875 L 1.484375 -0.296875 C 1.648438 -0.296875 1.789062 -0.351562 1.90625 -0.46875 C 2.03125 -0.59375 2.132812 -0.734375 2.21875 -0.890625 C 2.3125 -1.054688 2.375 -1.234375 2.40625 -1.421875 C 2.445312 -1.609375 2.46875 -1.78125 2.46875 -1.9375 L 2.46875 -17.84375 C 2.46875 -17.976562 2.445312 -18.132812 2.40625 -18.3125 C 2.375 -18.488281 2.3125 -18.65625 2.21875 -18.8125 C 2.132812 -18.976562 2.03125 -19.113281 1.90625 -19.21875 C 1.789062 -19.332031 1.660156 -19.390625 1.515625 -19.390625 L 1.375 -19.390625 L 1.375 -19.6875 L 5.609375 -19.6875 L 5.609375 -19.390625 L 5.453125 -19.390625 C 5.296875 -19.390625 5.15625 -19.332031 5.03125 -19.21875 C 4.914062 -19.113281 4.8125 -18.976562 4.71875 -18.8125 C 4.632812 -18.65625 4.566406 -18.488281 4.515625 -18.3125 C 4.460938 -18.132812 4.4375 -17.976562 4.4375 -17.84375 L 4.4375 -11.65625 L 11.359375 -18.546875 C 11.523438 -18.710938 11.609375 -18.90625 11.609375 -19.125 C 11.609375 -19.300781 11.523438 -19.390625 11.359375 -19.390625 L 11.359375 -19.6875 L 14.578125 -19.6875 L 14.578125 -19.390625 C 14.179688 -19.367188 13.828125 -19.25 13.515625 -19.03125 C 13.210938 -18.8125 12.882812 -18.523438 12.53125 -18.171875 L 5.453125 -11.09375 C 6.742188 -11.050781 7.785156 -10.769531 8.578125 -10.25 C 9.378906 -9.738281 10.007812 -9.023438 10.46875 -8.109375 L 12.828125 -3.34375 C 12.960938 -3.039062 13.144531 -2.710938 13.375 -2.359375 C 13.601562 -2.015625 13.859375 -1.6875 14.140625 -1.375 C 14.429688 -1.070312 14.753906 -0.816406 15.109375 -0.609375 C 15.472656 -0.398438 15.851562 -0.296875 16.25 -0.296875 L 16.25 0 L 14.765625 0 C 14.191406 0 13.691406 -0.0820312 13.265625 -0.25 C 12.847656 -0.414062 12.484375 -0.644531 12.171875 -0.9375 C 11.867188 -1.226562 11.601562 -1.550781 11.375 -1.90625 C 11.144531 -2.269531 10.941406 -2.628906 10.765625 -2.984375 L 8.359375 -7.78125 C 7.972656 -8.519531 7.445312 -9.082031 6.78125 -9.46875 C 6.113281 -9.851562 5.332031 -10.066406 4.4375 -10.109375 L 4.4375 -1.9375 C 4.4375 -1.78125 4.457031 -1.609375 4.5 -1.421875 C 4.539062 -1.242188 4.597656 -1.070312 4.671875 -0.90625 C 4.753906 -0.738281 4.851562 -0.597656 4.96875 -0.484375 C 5.09375 -0.378906 5.226562 -0.316406 5.375 -0.296875 L 5.578125 -0.296875 L 5.578125 0 L 1.34375 0 Z M 1.34375 -0.296875 "></path></g></g></g><g fill="#492c01" fill-opacity="1"><g transform="translate(15.904134, 25.18782)"><g><path d="M 7.609375 0.203125 C 6.609375 0.203125 5.710938 0.0390625 4.921875 -0.28125 C 4.128906 -0.613281 3.445312 -1.0625 2.875 -1.625 C 2.3125 -2.1875 1.875 -2.851562 1.5625 -3.625 C 1.257812 -4.40625 1.109375 -5.253906 1.109375 -6.171875 C 1.109375 -7.148438 1.273438 -8.039062 1.609375 -8.84375 C 1.953125 -9.644531 2.421875 -10.332031 3.015625 -10.90625 C 3.609375 -11.488281 4.3125 -11.9375 5.125 -12.25 C 5.945312 -12.570312 6.832031 -12.734375 7.78125 -12.734375 C 8.738281 -12.734375 9.613281 -12.578125 10.40625 -12.265625 C 11.207031 -11.960938 11.894531 -11.53125 12.46875 -10.96875 C 13.039062 -10.414062 13.484375 -9.753906 13.796875 -8.984375 C 14.117188 -8.222656 14.28125 -7.382812 14.28125 -6.46875 C 14.28125 -5.613281 14.132812 -4.785156 13.84375 -3.984375 C 13.5625 -3.179688 13.132812 -2.46875 12.5625 -1.84375 C 12 -1.226562 11.304688 -0.734375 10.484375 -0.359375 C 9.660156 0.015625 8.703125 0.203125 7.609375 0.203125 Z M 7.421875 -11.75 C 6.710938 -11.707031 6.082031 -11.53125 5.53125 -11.21875 C 4.988281 -10.914062 4.53125 -10.519531 4.15625 -10.03125 C 3.789062 -9.550781 3.515625 -9 3.328125 -8.375 C 3.140625 -7.757812 3.046875 -7.132812 3.046875 -6.5 C 3.046875 -5.769531 3.160156 -5.0625 3.390625 -4.375 C 3.617188 -3.6875 3.945312 -3.070312 4.375 -2.53125 C 4.800781 -2 5.3125 -1.570312 5.90625 -1.25 C 6.5 -0.9375 7.164062 -0.78125 7.90625 -0.78125 C 8.644531 -0.78125 9.296875 -0.9375 9.859375 -1.25 C 10.421875 -1.570312 10.890625 -1.984375 11.265625 -2.484375 C 11.648438 -2.992188 11.9375 -3.566406 12.125 -4.203125 C 12.3125 -4.835938 12.40625 -5.472656 12.40625 -6.109375 C 12.40625 -6.765625 12.304688 -7.425781 12.109375 -8.09375 C 11.910156 -8.757812 11.601562 -9.363281 11.1875 -9.90625 C 10.769531 -10.457031 10.25 -10.898438 9.625 -11.234375 C 9 -11.578125 8.265625 -11.75 7.421875 -11.75 Z M 7.421875 -11.75 "></path></g></g></g><g fill="#492c01" fill-opacity="1"><g transform="translate(31.500176, 25.18782)"><g><path d="M 4.265625 -1.9375 C 4.265625 -1.78125 4.285156 -1.609375 4.328125 -1.421875 C 4.367188 -1.234375 4.425781 -1.054688 4.5 -0.890625 C 4.582031 -0.734375 4.675781 -0.59375 4.78125 -0.46875 C 4.894531 -0.351562 5.019531 -0.296875 5.15625 -0.296875 L 5.15625 0 L 1.40625 0 L 1.40625 -0.296875 C 1.539062 -0.296875 1.660156 -0.347656 1.765625 -0.453125 C 1.878906 -0.566406 1.972656 -0.707031 2.046875 -0.875 C 2.128906 -1.050781 2.191406 -1.234375 2.234375 -1.421875 C 2.273438 -1.609375 2.296875 -1.78125 2.296875 -1.9375 L 2.296875 -10.671875 C 2.296875 -10.816406 2.273438 -10.976562 2.234375 -11.15625 C 2.191406 -11.332031 2.128906 -11.5 2.046875 -11.65625 C 1.972656 -11.820312 1.878906 -11.957031 1.765625 -12.0625 C 1.660156 -12.175781 1.539062 -12.234375 1.40625 -12.234375 L 1.40625 -12.53125 L 5.15625 -12.53125 L 5.15625 -12.234375 C 5 -12.234375 4.863281 -12.175781 4.75 -12.0625 C 4.644531 -11.957031 4.554688 -11.820312 4.484375 -11.65625 C 4.421875 -11.5 4.367188 -11.332031 4.328125 -11.15625 C 4.285156 -10.976562 4.265625 -10.816406 4.265625 -10.671875 L 4.265625 -7.0625 L 11.0625 -7.0625 L 11.0625 -10.671875 C 11.0625 -10.816406 11.039062 -10.976562 11 -11.15625 C 10.96875 -11.332031 10.914062 -11.5 10.84375 -11.65625 C 10.769531 -11.820312 10.675781 -11.957031 10.5625 -12.0625 C 10.457031 -12.175781 10.328125 -12.234375 10.171875 -12.234375 L 10.171875 -12.53125 L 13.9375 -12.53125 L 13.9375 -12.234375 C 13.769531 -12.234375 13.628906 -12.175781 13.515625 -12.0625 C 13.410156 -11.957031 13.316406 -11.820312 13.234375 -11.65625 C 13.160156 -11.5 13.109375 -11.332031 13.078125 -11.15625 C 13.046875 -10.976562 13.03125 -10.816406 13.03125 -10.671875 L 13.03125 -1.9375 C 13.03125 -1.78125 13.050781 -1.609375 13.09375 -1.421875 C 13.132812 -1.234375 13.191406 -1.054688 13.265625 -0.890625 C 13.347656 -0.734375 13.441406 -0.59375 13.546875 -0.46875 C 13.660156 -0.351562 13.789062 -0.296875 13.9375 -0.296875 L 13.9375 0 L 10.171875 0 L 10.171875 -0.296875 C 10.304688 -0.296875 10.425781 -0.347656 10.53125 -0.453125 C 10.644531 -0.566406 10.742188 -0.707031 10.828125 -0.875 C 10.910156 -1.050781 10.96875 -1.234375 11 -1.421875 C 11.039062 -1.609375 11.0625 -1.78125 11.0625 -1.9375 L 11.0625 -6.078125 L 4.265625 -6.078125 Z M 4.265625 -1.9375 "></path></g></g></g><g fill="#492c01" fill-opacity="1"><g transform="translate(46.976941, 25.18782)"><g><path d="M 7.609375 0.203125 C 6.609375 0.203125 5.710938 0.0390625 4.921875 -0.28125 C 4.128906 -0.613281 3.445312 -1.0625 2.875 -1.625 C 2.3125 -2.1875 1.875 -2.851562 1.5625 -3.625 C 1.257812 -4.40625 1.109375 -5.253906 1.109375 -6.171875 C 1.109375 -7.148438 1.273438 -8.039062 1.609375 -8.84375 C 1.953125 -9.644531 2.421875 -10.332031 3.015625 -10.90625 C 3.609375 -11.488281 4.3125 -11.9375 5.125 -12.25 C 5.945312 -12.570312 6.832031 -12.734375 7.78125 -12.734375 C 8.738281 -12.734375 9.613281 -12.578125 10.40625 -12.265625 C 11.207031 -11.960938 11.894531 -11.53125 12.46875 -10.96875 C 13.039062 -10.414062 13.484375 -9.753906 13.796875 -8.984375 C 14.117188 -8.222656 14.28125 -7.382812 14.28125 -6.46875 C 14.28125 -5.613281 14.132812 -4.785156 13.84375 -3.984375 C 13.5625 -3.179688 13.132812 -2.46875 12.5625 -1.84375 C 12 -1.226562 11.304688 -0.734375 10.484375 -0.359375 C 9.660156 0.015625 8.703125 0.203125 7.609375 0.203125 Z M 7.421875 -11.75 C 6.710938 -11.707031 6.082031 -11.53125 5.53125 -11.21875 C 4.988281 -10.914062 4.53125 -10.519531 4.15625 -10.03125 C 3.789062 -9.550781 3.515625 -9 3.328125 -8.375 C 3.140625 -7.757812 3.046875 -7.132812 3.046875 -6.5 C 3.046875 -5.769531 3.160156 -5.0625 3.390625 -4.375 C 3.617188 -3.6875 3.945312 -3.070312 4.375 -2.53125 C 4.800781 -2 5.3125 -1.570312 5.90625 -1.25 C 6.5 -0.9375 7.164062 -0.78125 7.90625 -0.78125 C 8.644531 -0.78125 9.296875 -0.9375 9.859375 -1.25 C 10.421875 -1.570312 10.890625 -1.984375 11.265625 -2.484375 C 11.648438 -2.992188 11.9375 -3.566406 12.125 -4.203125 C 12.3125 -4.835938 12.40625 -5.472656 12.40625 -6.109375 C 12.40625 -6.765625 12.304688 -7.425781 12.109375 -8.09375 C 11.910156 -8.757812 11.601562 -9.363281 11.1875 -9.90625 C 10.769531 -10.457031 10.25 -10.898438 9.625 -11.234375 C 9 -11.578125 8.265625 -11.75 7.421875 -11.75 Z M 7.421875 -11.75 "></path></g></g></g><g fill="#492c01" fill-opacity="1"><g transform="translate(62.572983, 25.18782)"><g><path d="M 10.375 -2.328125 C 10.5 -2.109375 10.660156 -1.878906 10.859375 -1.640625 C 11.054688 -1.398438 11.28125 -1.179688 11.53125 -0.984375 C 11.78125 -0.785156 12.03125 -0.617188 12.28125 -0.484375 C 12.539062 -0.359375 12.789062 -0.296875 13.03125 -0.296875 L 13.03125 0 L 11.90625 0 C 10.988281 0 10.28125 -0.1875 9.78125 -0.5625 C 9.28125 -0.945312 8.894531 -1.394531 8.625 -1.90625 L 7.21875 -4.5625 C 7 -4.976562 6.628906 -5.335938 6.109375 -5.640625 C 5.597656 -5.953125 5.050781 -6.109375 4.46875 -6.109375 L 4.46875 -1.875 C 4.46875 -1.71875 4.484375 -1.550781 4.515625 -1.375 C 4.546875 -1.195312 4.597656 -1.023438 4.671875 -0.859375 C 4.753906 -0.703125 4.851562 -0.566406 4.96875 -0.453125 C 5.09375 -0.347656 5.238281 -0.296875 5.40625 -0.296875 L 5.40625 0 L 1.546875 0 L 1.546875 -0.296875 C 1.691406 -0.296875 1.828125 -0.347656 1.953125 -0.453125 C 2.078125 -0.566406 2.179688 -0.703125 2.265625 -0.859375 C 2.347656 -1.023438 2.40625 -1.195312 2.4375 -1.375 C 2.476562 -1.550781 2.5 -1.71875 2.5 -1.875 L 2.5 -10.65625 C 2.5 -10.789062 2.476562 -10.953125 2.4375 -11.140625 C 2.40625 -11.328125 2.351562 -11.5 2.28125 -11.65625 C 2.207031 -11.820312 2.109375 -11.957031 1.984375 -12.0625 C 1.867188 -12.175781 1.722656 -12.234375 1.546875 -12.234375 L 1.546875 -12.53125 L 5.375 -12.53125 L 5.375 -12.234375 C 5.226562 -12.234375 5.097656 -12.175781 4.984375 -12.0625 C 4.878906 -11.957031 4.785156 -11.820312 4.703125 -11.65625 C 4.628906 -11.5 4.570312 -11.328125 4.53125 -11.140625 C 4.488281 -10.953125 4.46875 -10.789062 4.46875 -10.65625 L 4.46875 -7.578125 C 5.320312 -8.328125 6.164062 -9.054688 7 -9.765625 C 7.84375 -10.472656 8.691406 -11.207031 9.546875 -11.96875 C 9.546875 -11.976562 9.554688 -11.992188 9.578125 -12.015625 C 9.597656 -12.035156 9.609375 -12.054688 9.609375 -12.078125 C 9.609375 -12.179688 9.554688 -12.234375 9.453125 -12.234375 L 9.453125 -12.53125 L 12.046875 -12.53125 L 12.046875 -12.234375 C 11.953125 -12.234375 11.832031 -12.203125 11.6875 -12.140625 C 11.550781 -12.078125 11.414062 -12.007812 11.28125 -11.9375 C 11.113281 -11.851562 10.953125 -11.753906 10.796875 -11.640625 C 9.898438 -10.878906 9.003906 -10.101562 8.109375 -9.3125 C 7.210938 -8.53125 6.316406 -7.765625 5.421875 -7.015625 C 6.285156 -7.015625 6.988281 -6.851562 7.53125 -6.53125 C 8.082031 -6.21875 8.546875 -5.710938 8.921875 -5.015625 Z M 10.375 -2.328125 "></path></g></g></g><g fill="#492c01" fill-opacity="1"><g transform="translate(76.021967, 25.18782)"><g><path d="M 11.421875 -9.390625 C 11.421875 -9.609375 11.378906 -9.847656 11.296875 -10.109375 C 11.222656 -10.367188 11.101562 -10.601562 10.9375 -10.8125 C 10.78125 -11.019531 10.582031 -11.191406 10.34375 -11.328125 C 10.113281 -11.472656 9.835938 -11.546875 9.515625 -11.546875 L 6.890625 -11.546875 L 6.890625 -1.9375 C 6.890625 -1.78125 6.910156 -1.609375 6.953125 -1.421875 C 6.992188 -1.242188 7.054688 -1.070312 7.140625 -0.90625 C 7.234375 -0.738281 7.332031 -0.59375 7.4375 -0.46875 C 7.550781 -0.351562 7.6875 -0.296875 7.84375 -0.296875 L 7.84375 0 L 3.96875 0 L 3.96875 -0.296875 C 4.125 -0.296875 4.257812 -0.351562 4.375 -0.46875 C 4.5 -0.59375 4.601562 -0.734375 4.6875 -0.890625 C 4.78125 -1.054688 4.847656 -1.234375 4.890625 -1.421875 C 4.929688 -1.609375 4.953125 -1.78125 4.953125 -1.9375 L 4.953125 -11.546875 L 2.390625 -11.546875 C 2.066406 -11.546875 1.785156 -11.472656 1.546875 -11.328125 C 1.304688 -11.191406 1.113281 -11.019531 0.96875 -10.8125 C 0.820312 -10.601562 0.707031 -10.367188 0.625 -10.109375 C 0.539062 -9.847656 0.5 -9.609375 0.5 -9.390625 L 0.203125 -9.390625 L 0.203125 -12.53125 L 11.6875 -12.53125 L 11.6875 -9.390625 Z M 11.421875 -9.390625 "></path></g></g></g><g fill="#492c01" fill-opacity="1"><g transform="translate(87.621908, 25.18782)"><g><path d="M 7.609375 0.203125 C 6.609375 0.203125 5.710938 0.0390625 4.921875 -0.28125 C 4.128906 -0.613281 3.445312 -1.0625 2.875 -1.625 C 2.3125 -2.1875 1.875 -2.851562 1.5625 -3.625 C 1.257812 -4.40625 1.109375 -5.253906 1.109375 -6.171875 C 1.109375 -7.148438 1.273438 -8.039062 1.609375 -8.84375 C 1.953125 -9.644531 2.421875 -10.332031 3.015625 -10.90625 C 3.609375 -11.488281 4.3125 -11.9375 5.125 -12.25 C 5.945312 -12.570312 6.832031 -12.734375 7.78125 -12.734375 C 8.738281 -12.734375 9.613281 -12.578125 10.40625 -12.265625 C 11.207031 -11.960938 11.894531 -11.53125 12.46875 -10.96875 C 13.039062 -10.414062 13.484375 -9.753906 13.796875 -8.984375 C 14.117188 -8.222656 14.28125 -7.382812 14.28125 -6.46875 C 14.28125 -5.613281 14.132812 -4.785156 13.84375 -3.984375 C 13.5625 -3.179688 13.132812 -2.46875 12.5625 -1.84375 C 12 -1.226562 11.304688 -0.734375 10.484375 -0.359375 C 9.660156 0.015625 8.703125 0.203125 7.609375 0.203125 Z M 7.421875 -11.75 C 6.710938 -11.707031 6.082031 -11.53125 5.53125 -11.21875 C 4.988281 -10.914062 4.53125 -10.519531 4.15625 -10.03125 C 3.789062 -9.550781 3.515625 -9 3.328125 -8.375 C 3.140625 -7.757812 3.046875 -7.132812 3.046875 -6.5 C 3.046875 -5.769531 3.160156 -5.0625 3.390625 -4.375 C 3.617188 -3.6875 3.945312 -3.070312 4.375 -2.53125 C 4.800781 -2 5.3125 -1.570312 5.90625 -1.25 C 6.5 -0.9375 7.164062 -0.78125 7.90625 -0.78125 C 8.644531 -0.78125 9.296875 -0.9375 9.859375 -1.25 C 10.421875 -1.570312 10.890625 -1.984375 11.265625 -2.484375 C 11.648438 -2.992188 11.9375 -3.566406 12.125 -4.203125 C 12.3125 -4.835938 12.40625 -5.472656 12.40625 -6.109375 C 12.40625 -6.765625 12.304688 -7.425781 12.109375 -8.09375 C 11.910156 -8.757812 11.601562 -9.363281 11.1875 -9.90625 C 10.769531 -10.457031 10.25 -10.898438 9.625 -11.234375 C 9 -11.578125 8.265625 -11.75 7.421875 -11.75 Z M 7.421875 -11.75 "></path></g></g></g><g fill="#492c01" fill-opacity="1"><g transform="translate(101.457871, 25.18782)"><g><path d="M 7.703125 -12.734375 C 8.773438 -12.734375 9.703125 -12.550781 10.484375 -12.1875 C 11.265625 -11.820312 11.921875 -11.335938 12.453125 -10.734375 C 12.984375 -10.140625 13.375 -9.453125 13.625 -8.671875 C 13.882812 -7.898438 14.015625 -7.109375 14.015625 -6.296875 C 14.015625 -5.492188 13.890625 -4.707031 13.640625 -3.9375 C 13.398438 -3.164062 13.023438 -2.46875 12.515625 -1.84375 C 12.003906 -1.226562 11.367188 -0.734375 10.609375 -0.359375 C 9.859375 0.015625 8.96875 0.203125 7.9375 0.203125 C 7.320312 0.203125 6.691406 0.0390625 6.046875 -0.28125 C 5.398438 -0.613281 4.816406 -1.023438 4.296875 -1.515625 L 4.296875 4.625 C 4.296875 4.78125 4.316406 4.953125 4.359375 5.140625 C 4.398438 5.328125 4.460938 5.5 4.546875 5.65625 C 4.640625 5.820312 4.738281 5.960938 4.84375 6.078125 C 4.957031 6.203125 5.09375 6.265625 5.25 6.265625 L 5.25 6.5625 L 1.375 6.5625 L 1.375 6.265625 C 1.507812 6.265625 1.632812 6.203125 1.75 6.078125 C 1.875 5.960938 1.976562 5.820312 2.0625 5.65625 C 2.15625 5.5 2.222656 5.328125 2.265625 5.140625 C 2.304688 4.953125 2.328125 4.78125 2.328125 4.625 L 2.328125 -10.765625 C 2.328125 -10.941406 2.320312 -11.113281 2.3125 -11.28125 C 2.300781 -11.457031 2.265625 -11.609375 2.203125 -11.734375 C 2.148438 -11.867188 2.054688 -11.976562 1.921875 -12.0625 C 1.796875 -12.15625 1.613281 -12.210938 1.375 -12.234375 L 1.375 -12.53125 L 4.296875 -12.53125 L 4.296875 -11.21875 C 4.691406 -11.695312 5.171875 -12.066406 5.734375 -12.328125 C 6.304688 -12.597656 6.960938 -12.734375 7.703125 -12.734375 Z M 7.96875 -0.8125 C 8.664062 -0.820312 9.269531 -0.976562 9.78125 -1.28125 C 10.300781 -1.582031 10.726562 -1.96875 11.0625 -2.4375 C 11.40625 -2.914062 11.65625 -3.445312 11.8125 -4.03125 C 11.96875 -4.625 12.046875 -5.238281 12.046875 -5.875 C 12.046875 -6.59375 11.945312 -7.296875 11.75 -7.984375 C 11.550781 -8.679688 11.265625 -9.300781 10.890625 -9.84375 C 10.515625 -10.394531 10.050781 -10.84375 9.5 -11.1875 C 8.957031 -11.539062 8.335938 -11.71875 7.640625 -11.71875 C 7.222656 -11.71875 6.804688 -11.640625 6.390625 -11.484375 C 5.984375 -11.328125 5.625 -11.097656 5.3125 -10.796875 C 5.007812 -10.492188 4.765625 -10.140625 4.578125 -9.734375 C 4.390625 -9.328125 4.296875 -8.875 4.296875 -8.375 L 4.296875 -4.46875 C 4.296875 -3.9375 4.40625 -3.445312 4.625 -3 C 4.84375 -2.550781 5.125 -2.160156 5.46875 -1.828125 C 5.820312 -1.503906 6.21875 -1.253906 6.65625 -1.078125 C 7.09375 -0.898438 7.53125 -0.8125 7.96875 -0.8125 Z M 7.96875 -0.8125 "></path></g></g></g><g fill="#492c01" fill-opacity="1"><g transform="translate(116.815357, 25.18782)"><g></g></g></g><g fill="#492c01" fill-opacity="1"><g transform="translate(124.568646, 25.18782)"><g><path d="M 15.65625 -2.359375 C 15.78125 -2.117188 15.9375 -1.878906 16.125 -1.640625 C 16.3125 -1.398438 16.515625 -1.1875 16.734375 -1 C 16.953125 -0.8125 17.1875 -0.648438 17.4375 -0.515625 C 17.6875 -0.390625 17.921875 -0.316406 18.140625 -0.296875 L 18.140625 0 L 17.09375 0 C 16.257812 0 15.609375 -0.171875 15.140625 -0.515625 C 14.671875 -0.867188 14.296875 -1.3125 14.015625 -1.84375 L 12.59375 -4.65625 C 12.40625 -5.113281 12.082031 -5.507812 11.625 -5.84375 C 11.175781 -6.1875 10.703125 -6.375 10.203125 -6.40625 L 10.203125 -1.96875 C 10.203125 -1.832031 10.222656 -1.664062 10.265625 -1.46875 C 10.304688 -1.28125 10.367188 -1.101562 10.453125 -0.9375 C 10.546875 -0.769531 10.648438 -0.625 10.765625 -0.5 C 10.890625 -0.382812 11.03125 -0.316406 11.1875 -0.296875 L 11.1875 0 L 7.375 0 L 7.375 -0.296875 C 7.53125 -0.316406 7.664062 -0.382812 7.78125 -0.5 C 7.90625 -0.625 8.007812 -0.769531 8.09375 -0.9375 C 8.1875 -1.101562 8.253906 -1.273438 8.296875 -1.453125 C 8.335938 -1.640625 8.359375 -1.8125 8.359375 -1.96875 L 8.359375 -6.40625 C 7.835938 -6.375 7.363281 -6.1875 6.9375 -5.84375 C 6.507812 -5.507812 6.1875 -5.113281 5.96875 -4.65625 L 4.5625 -1.84375 C 4.300781 -1.332031 3.925781 -0.894531 3.4375 -0.53125 C 2.957031 -0.175781 2.300781 0 1.46875 0 L 0.421875 0 L 0.421875 -0.296875 C 0.640625 -0.316406 0.867188 -0.390625 1.109375 -0.515625 C 1.347656 -0.648438 1.578125 -0.8125 1.796875 -1 C 2.023438 -1.1875 2.234375 -1.398438 2.421875 -1.640625 C 2.617188 -1.878906 2.773438 -2.117188 2.890625 -2.359375 L 4.296875 -5.25 C 4.535156 -5.707031 4.9375 -6.109375 5.5 -6.453125 C 6.070312 -6.804688 6.722656 -7.003906 7.453125 -7.046875 C 6.703125 -7.753906 5.898438 -8.515625 5.046875 -9.328125 C 4.191406 -10.148438 3.375 -10.921875 2.59375 -11.640625 C 2.53125 -11.671875 2.375 -11.769531 2.125 -11.9375 C 1.882812 -12.113281 1.664062 -12.210938 1.46875 -12.234375 L 1.46875 -12.53125 L 3.765625 -12.53125 L 3.765625 -12.203125 C 3.703125 -12.160156 3.671875 -12.128906 3.671875 -12.109375 C 3.671875 -12.015625 3.703125 -11.925781 3.765625 -11.84375 L 8.359375 -7.578125 L 8.359375 -10.65625 C 8.359375 -10.925781 8.269531 -11.242188 8.09375 -11.609375 C 7.925781 -11.984375 7.6875 -12.191406 7.375 -12.234375 L 7.375 -12.53125 L 11.1875 -12.53125 L 11.1875 -12.234375 C 11.03125 -12.210938 10.890625 -12.144531 10.765625 -12.03125 C 10.648438 -11.925781 10.550781 -11.789062 10.46875 -11.625 C 10.382812 -11.46875 10.316406 -11.300781 10.265625 -11.125 C 10.222656 -10.945312 10.203125 -10.789062 10.203125 -10.65625 L 10.203125 -7.578125 L 14.828125 -11.90625 C 14.867188 -11.945312 14.890625 -12.015625 14.890625 -12.109375 C 14.890625 -12.128906 14.859375 -12.160156 14.796875 -12.203125 L 14.796875 -12.53125 L 17.09375 -12.53125 L 17.09375 -12.234375 C 16.988281 -12.234375 16.867188 -12.203125 16.734375 -12.140625 C 16.609375 -12.078125 16.488281 -12.007812 16.375 -11.9375 C 16.238281 -11.851562 16.097656 -11.753906 15.953125 -11.640625 L 11.09375 -7.046875 C 11.894531 -7.023438 12.5625 -6.847656 13.09375 -6.515625 C 13.632812 -6.191406 14.023438 -5.769531 14.265625 -5.25 Z M 15.65625 -2.359375 "></path></g></g></g><g fill="#492c01" fill-opacity="1"><g transform="translate(143.266, 25.18782)"><g><path d="M 13.6875 0 L 13.6875 -0.296875 C 13.832031 -0.296875 13.960938 -0.347656 14.078125 -0.453125 C 14.203125 -0.566406 14.304688 -0.707031 14.390625 -0.875 C 14.484375 -1.050781 14.546875 -1.234375 14.578125 -1.421875 C 14.617188 -1.609375 14.640625 -1.78125 14.640625 -1.9375 L 14.640625 -10.671875 C 14.640625 -10.816406 14.617188 -10.976562 14.578125 -11.15625 C 14.546875 -11.332031 14.484375 -11.5 14.390625 -11.65625 C 14.304688 -11.820312 14.203125 -11.957031 14.078125 -12.0625 C 13.960938 -12.175781 13.832031 -12.234375 13.6875 -12.234375 L 13.6875 -12.53125 L 17.5625 -12.53125 L 17.5625 -12.234375 C 17.269531 -12.234375 17.03125 -12.046875 16.84375 -11.671875 C 16.664062 -11.304688 16.578125 -10.972656 16.578125 -10.671875 L 16.578125 -1.9375 C 16.578125 -1.78125 16.597656 -1.609375 16.640625 -1.421875 C 16.679688 -1.234375 16.742188 -1.054688 16.828125 -0.890625 C 16.921875 -0.734375 17.023438 -0.59375 17.140625 -0.46875 C 17.265625 -0.351562 17.40625 -0.296875 17.5625 -0.296875 L 17.5625 0 Z M 6.65625 -7.09375 C 8.476562 -7.09375 9.832031 -6.753906 10.71875 -6.078125 C 11.601562 -5.410156 12.046875 -4.578125 12.046875 -3.578125 C 12.046875 -3.078125 11.929688 -2.609375 11.703125 -2.171875 C 11.472656 -1.734375 11.128906 -1.351562 10.671875 -1.03125 C 10.222656 -0.71875 9.648438 -0.46875 8.953125 -0.28125 C 8.253906 -0.09375 7.425781 0 6.46875 0 L 1.40625 0 L 1.40625 -0.296875 C 1.539062 -0.296875 1.664062 -0.347656 1.78125 -0.453125 C 1.90625 -0.566406 2.007812 -0.707031 2.09375 -0.875 C 2.1875 -1.050781 2.253906 -1.234375 2.296875 -1.421875 C 2.335938 -1.609375 2.359375 -1.78125 2.359375 -1.9375 L 2.359375 -10.671875 C 2.359375 -10.816406 2.335938 -10.976562 2.296875 -11.15625 C 2.253906 -11.332031 2.1875 -11.5 2.09375 -11.65625 C 2.007812 -11.820312 1.90625 -11.957031 1.78125 -12.0625 C 1.664062 -12.175781 1.539062 -12.234375 1.40625 -12.234375 L 1.40625 -12.53125 L 5.28125 -12.53125 L 5.28125 -12.234375 C 4.976562 -12.234375 4.738281 -12.046875 4.5625 -11.671875 C 4.382812 -11.304688 4.296875 -10.972656 4.296875 -10.671875 L 4.296875 -7.09375 Z M 6.40625 -0.984375 C 7.71875 -0.984375 8.664062 -1.195312 9.25 -1.625 C 9.84375 -2.050781 10.140625 -2.582031 10.140625 -3.21875 C 10.140625 -3.582031 10.0625 -3.9375 9.90625 -4.28125 C 9.75 -4.625 9.503906 -4.929688 9.171875 -5.203125 C 8.847656 -5.472656 8.445312 -5.691406 7.96875 -5.859375 C 7.488281 -6.023438 6.941406 -6.109375 6.328125 -6.109375 L 4.296875 -6.109375 L 4.296875 -0.984375 Z M 6.40625 -0.984375 "></path></g></g></g><g fill="#492c01" fill-opacity="1"><g transform="translate(162.440491, 25.18782)"><g><path d="M 13.296875 -1.9375 C 13.296875 -1.78125 13.320312 -1.609375 13.375 -1.421875 C 13.425781 -1.234375 13.488281 -1.054688 13.5625 -0.890625 C 13.644531 -0.734375 13.75 -0.59375 13.875 -0.46875 C 14.007812 -0.351562 14.140625 -0.296875 14.265625 -0.296875 L 14.265625 0 L 10.4375 0 L 10.4375 -0.296875 C 10.582031 -0.296875 10.710938 -0.347656 10.828125 -0.453125 C 10.941406 -0.566406 11.039062 -0.707031 11.125 -0.875 C 11.207031 -1.050781 11.265625 -1.234375 11.296875 -1.421875 C 11.335938 -1.609375 11.359375 -1.78125 11.359375 -1.9375 L 11.359375 -9.09375 L 4.265625 -2.140625 L 4.265625 -1.9375 C 4.265625 -1.78125 4.285156 -1.609375 4.328125 -1.421875 C 4.367188 -1.234375 4.425781 -1.054688 4.5 -0.890625 C 4.582031 -0.734375 4.675781 -0.59375 4.78125 -0.46875 C 4.894531 -0.351562 5.019531 -0.296875 5.15625 -0.296875 L 5.15625 0 L 1.375 0 L 1.375 -0.296875 C 1.507812 -0.296875 1.632812 -0.347656 1.75 -0.453125 C 1.875 -0.566406 1.972656 -0.707031 2.046875 -0.875 C 2.128906 -1.050781 2.191406 -1.234375 2.234375 -1.421875 C 2.273438 -1.609375 2.296875 -1.78125 2.296875 -1.9375 L 2.296875 -10.671875 C 2.296875 -10.816406 2.273438 -10.976562 2.234375 -11.15625 C 2.191406 -11.332031 2.128906 -11.5 2.046875 -11.65625 C 1.972656 -11.820312 1.875 -11.957031 1.75 -12.0625 C 1.632812 -12.175781 1.507812 -12.234375 1.375 -12.234375 L 1.375 -12.53125 L 5.15625 -12.53125 L 5.15625 -12.234375 C 5 -12.234375 4.863281 -12.175781 4.75 -12.0625 C 4.644531 -11.957031 4.554688 -11.820312 4.484375 -11.65625 C 4.421875 -11.5 4.367188 -11.332031 4.328125 -11.15625 C 4.285156 -10.976562 4.265625 -10.816406 4.265625 -10.671875 L 4.265625 -3.546875 L 11.359375 -10.5 L 11.359375 -10.671875 C 11.359375 -10.816406 11.335938 -10.976562 11.296875 -11.15625 C 11.265625 -11.332031 11.207031 -11.5 11.125 -11.65625 C 11.039062 -11.820312 10.941406 -11.957031 10.828125 -12.0625 C 10.710938 -12.175781 10.582031 -12.234375 10.4375 -12.234375 L 10.4375 -12.53125 L 14.265625 -12.53125 L 14.265625 -12.234375 C 14.097656 -12.234375 13.945312 -12.175781 13.8125 -12.0625 C 13.6875 -11.957031 13.585938 -11.820312 13.515625 -11.65625 C 13.453125 -11.5 13.398438 -11.332031 13.359375 -11.15625 C 13.316406 -10.976562 13.296875 -10.816406 13.296875 -10.671875 Z M 11 -16.546875 C 11 -16.234375 10.921875 -15.890625 10.765625 -15.515625 C 10.609375 -15.148438 10.378906 -14.8125 10.078125 -14.5 C 9.785156 -14.195312 9.429688 -13.945312 9.015625 -13.75 C 8.609375 -13.550781 8.160156 -13.453125 7.671875 -13.453125 C 7.210938 -13.453125 6.773438 -13.546875 6.359375 -13.734375 C 5.953125 -13.921875 5.597656 -14.160156 5.296875 -14.453125 C 5.003906 -14.753906 4.769531 -15.085938 4.59375 -15.453125 C 4.414062 -15.828125 4.328125 -16.191406 4.328125 -16.546875 L 4.5 -16.546875 C 4.519531 -16.429688 4.582031 -16.269531 4.6875 -16.0625 C 4.800781 -15.851562 4.976562 -15.640625 5.21875 -15.421875 C 5.457031 -15.203125 5.769531 -15.007812 6.15625 -14.84375 C 6.539062 -14.6875 7.035156 -14.609375 7.640625 -14.609375 C 8.253906 -14.609375 8.757812 -14.6875 9.15625 -14.84375 C 9.550781 -15.007812 9.867188 -15.203125 10.109375 -15.421875 C 10.347656 -15.640625 10.515625 -15.851562 10.609375 -16.0625 C 10.710938 -16.269531 10.785156 -16.429688 10.828125 -16.546875 Z M 11 -16.546875 "></path></g></g></g><g fill="#492c01" fill-opacity="1"><g transform="translate(178.215463, 25.18782)"><g><path d="M 4.265625 -1.9375 C 4.265625 -1.78125 4.285156 -1.609375 4.328125 -1.421875 C 4.367188 -1.234375 4.425781 -1.054688 4.5 -0.890625 C 4.582031 -0.734375 4.675781 -0.59375 4.78125 -0.46875 C 4.894531 -0.351562 5.019531 -0.296875 5.15625 -0.296875 L 5.15625 0 L 1.40625 0 L 1.40625 -0.296875 C 1.539062 -0.296875 1.660156 -0.347656 1.765625 -0.453125 C 1.878906 -0.566406 1.972656 -0.707031 2.046875 -0.875 C 2.128906 -1.050781 2.191406 -1.234375 2.234375 -1.421875 C 2.273438 -1.609375 2.296875 -1.78125 2.296875 -1.9375 L 2.296875 -10.671875 C 2.296875 -10.816406 2.273438 -10.976562 2.234375 -11.15625 C 2.191406 -11.332031 2.128906 -11.5 2.046875 -11.65625 C 1.972656 -11.820312 1.878906 -11.957031 1.765625 -12.0625 C 1.660156 -12.175781 1.539062 -12.234375 1.40625 -12.234375 L 1.40625 -12.53125 L 5.15625 -12.53125 L 5.15625 -12.234375 C 5 -12.234375 4.863281 -12.175781 4.75 -12.0625 C 4.644531 -11.957031 4.554688 -11.820312 4.484375 -11.65625 C 4.421875 -11.5 4.367188 -11.332031 4.328125 -11.15625 C 4.285156 -10.976562 4.265625 -10.816406 4.265625 -10.671875 L 4.265625 -7.0625 L 11.0625 -7.0625 L 11.0625 -10.671875 C 11.0625 -10.816406 11.039062 -10.976562 11 -11.15625 C 10.96875 -11.332031 10.914062 -11.5 10.84375 -11.65625 C 10.769531 -11.820312 10.675781 -11.957031 10.5625 -12.0625 C 10.457031 -12.175781 10.328125 -12.234375 10.171875 -12.234375 L 10.171875 -12.53125 L 13.9375 -12.53125 L 13.9375 -12.234375 C 13.769531 -12.234375 13.628906 -12.175781 13.515625 -12.0625 C 13.410156 -11.957031 13.316406 -11.820312 13.234375 -11.65625 C 13.160156 -11.5 13.109375 -11.332031 13.078125 -11.15625 C 13.046875 -10.976562 13.03125 -10.816406 13.03125 -10.671875 L 13.03125 -1.9375 C 13.03125 -1.78125 13.050781 -1.609375 13.09375 -1.421875 C 13.132812 -1.234375 13.191406 -1.054688 13.265625 -0.890625 C 13.347656 -0.734375 13.441406 -0.59375 13.546875 -0.46875 C 13.660156 -0.351562 13.789062 -0.296875 13.9375 -0.296875 L 13.9375 0 L 10.171875 0 L 10.171875 -0.296875 C 10.304688 -0.296875 10.425781 -0.347656 10.53125 -0.453125 C 10.644531 -0.566406 10.742188 -0.707031 10.828125 -0.875 C 10.910156 -1.050781 10.96875 -1.234375 11 -1.421875 C 11.039062 -1.609375 11.0625 -1.78125 11.0625 -1.9375 L 11.0625 -6.078125 L 4.265625 -6.078125 Z M 4.265625 -1.9375 "></path></g></g></g><g fill="#492c01" fill-opacity="1"><g transform="translate(193.692228, 25.18782)"><g><path d="M 9.21875 0 L 9.21875 -1.515625 L 9.0625 -1.375 C 8.570312 -0.875 8.003906 -0.484375 7.359375 -0.203125 C 6.710938 0.0664062 5.929688 0.203125 5.015625 0.203125 C 4.316406 0.203125 3.71875 0.125 3.21875 -0.03125 C 2.71875 -0.1875 2.304688 -0.410156 1.984375 -0.703125 C 1.671875 -0.992188 1.441406 -1.328125 1.296875 -1.703125 C 1.148438 -2.078125 1.078125 -2.472656 1.078125 -2.890625 C 1.078125 -3.566406 1.257812 -4.160156 1.625 -4.671875 C 1.988281 -5.191406 2.519531 -5.648438 3.21875 -6.046875 C 3.914062 -6.453125 4.765625 -6.816406 5.765625 -7.140625 C 6.773438 -7.472656 7.925781 -7.796875 9.21875 -8.109375 C 9.175781 -8.890625 9.015625 -9.515625 8.734375 -9.984375 C 8.460938 -10.460938 8.132812 -10.835938 7.75 -11.109375 C 7.375 -11.378906 6.976562 -11.554688 6.5625 -11.640625 C 6.144531 -11.734375 5.785156 -11.78125 5.484375 -11.78125 C 4.972656 -11.78125 4.515625 -11.703125 4.109375 -11.546875 C 3.710938 -11.398438 3.363281 -11.203125 3.0625 -10.953125 C 2.769531 -10.710938 2.53125 -10.429688 2.34375 -10.109375 C 2.15625 -9.796875 2.007812 -9.476562 1.90625 -9.15625 L 1.640625 -9.15625 L 1.640625 -11.484375 C 1.816406 -11.484375 2.023438 -11.546875 2.265625 -11.671875 C 2.503906 -11.804688 2.785156 -11.953125 3.109375 -12.109375 C 3.441406 -12.265625 3.84375 -12.40625 4.3125 -12.53125 C 4.78125 -12.664062 5.34375 -12.734375 6 -12.734375 C 7.09375 -12.734375 7.976562 -12.59375 8.65625 -12.3125 C 9.332031 -12.039062 9.851562 -11.675781 10.21875 -11.21875 C 10.582031 -10.757812 10.820312 -10.234375 10.9375 -9.640625 C 11.0625 -9.054688 11.125 -8.457031 11.125 -7.84375 L 11.125 -1.9375 C 11.125 -1.539062 11.222656 -1.164062 11.421875 -0.8125 C 11.617188 -0.46875 11.890625 -0.296875 12.234375 -0.296875 L 12.234375 0 Z M 9.21875 -2.828125 L 9.21875 -7.09375 L 8.921875 -7.046875 C 8.441406 -6.921875 7.859375 -6.757812 7.171875 -6.5625 C 6.484375 -6.363281 5.832031 -6.101562 5.21875 -5.78125 C 4.601562 -5.46875 4.078125 -5.09375 3.640625 -4.65625 C 3.203125 -4.21875 2.984375 -3.707031 2.984375 -3.125 C 2.984375 -2.488281 3.238281 -1.960938 3.75 -1.546875 C 4.269531 -1.128906 4.945312 -0.921875 5.78125 -0.921875 C 6.4375 -0.921875 7.015625 -1.066406 7.515625 -1.359375 C 8.015625 -1.648438 8.472656 -2.019531 8.890625 -2.46875 Z M 9.21875 -2.828125 "></path></g></g></g><g fill="#492c01" fill-opacity="1"><g transform="translate(207.320141, 25.18782)"><g><path d="M 10.296875 -0.296875 C 10.429688 -0.296875 10.585938 -0.351562 10.765625 -0.46875 C 10.941406 -0.59375 11.03125 -0.765625 11.03125 -0.984375 C 11.03125 -1.023438 11.015625 -1.109375 10.984375 -1.234375 C 10.960938 -1.367188 10.910156 -1.515625 10.828125 -1.671875 L 7.046875 -10.625 L 3.109375 -1.21875 C 2.765625 -0.40625 2.097656 0 1.109375 0 L 0.453125 0 L 0.453125 -0.296875 C 0.722656 -0.296875 1.019531 -0.4375 1.34375 -0.71875 C 1.675781 -1.007812 1.941406 -1.359375 2.140625 -1.765625 L 6.203125 -11.25 C 6.304688 -11.507812 6.359375 -11.71875 6.359375 -11.875 C 6.359375 -12.113281 6.195312 -12.234375 5.875 -12.234375 L 5.875 -12.53125 L 8.296875 -12.53125 L 12.890625 -1.796875 C 13.023438 -1.492188 13.226562 -1.164062 13.5 -0.8125 C 13.769531 -0.46875 14.023438 -0.296875 14.265625 -0.296875 L 14.265625 0 L 10.296875 0 Z M 10.296875 -0.296875 "></path></g></g></g><g fill="#492c01" fill-opacity="1"><g transform="translate(222.021583, 25.18782)"><g><path d="M 6.109375 4.265625 C 5.835938 5.097656 5.488281 5.660156 5.0625 5.953125 C 4.632812 6.253906 4.191406 6.40625 3.734375 6.40625 C 3.429688 6.40625 3.160156 6.351562 2.921875 6.25 C 2.679688 6.15625 2.472656 6.046875 2.296875 5.921875 C 2.117188 5.804688 1.984375 5.695312 1.890625 5.59375 C 1.804688 5.5 1.765625 5.453125 1.765625 5.453125 L 2.75 3.046875 C 2.820312 3.359375 2.921875 3.625 3.046875 3.84375 C 3.140625 4.039062 3.273438 4.21875 3.453125 4.375 C 3.640625 4.539062 3.859375 4.625 4.109375 4.625 C 4.585938 4.625 4.96875 4.273438 5.25 3.578125 L 6.6875 -0.09375 L 1.90625 -10.953125 C 1.75 -11.285156 1.582031 -11.582031 1.40625 -11.84375 C 1.238281 -12.101562 0.957031 -12.234375 0.5625 -12.234375 L 0.5625 -12.53125 L 4.421875 -12.53125 L 4.421875 -12.234375 C 4.335938 -12.234375 4.234375 -12.160156 4.109375 -12.015625 C 3.992188 -11.878906 3.9375 -11.703125 3.9375 -11.484375 C 3.9375 -11.328125 3.976562 -11.164062 4.0625 -11 L 7.71875 -2.5625 L 11.25 -11.1875 C 11.300781 -11.320312 11.328125 -11.453125 11.328125 -11.578125 C 11.328125 -11.773438 11.265625 -11.929688 11.140625 -12.046875 C 11.015625 -12.171875 10.878906 -12.234375 10.734375 -12.234375 L 10.734375 -12.53125 L 13.625 -12.53125 L 13.625 -12.234375 C 13.3125 -12.234375 13.039062 -12.097656 12.8125 -11.828125 C 12.582031 -11.554688 12.398438 -11.253906 12.265625 -10.921875 Z M 6.109375 4.265625 "></path></g></g></g><g fill="#492c01" fill-opacity="1"><g transform="translate(236.156423, 25.18782)"><g><path d="M 6.109375 4.265625 C 5.835938 5.097656 5.488281 5.660156 5.0625 5.953125 C 4.632812 6.253906 4.191406 6.40625 3.734375 6.40625 C 3.429688 6.40625 3.160156 6.351562 2.921875 6.25 C 2.679688 6.15625 2.472656 6.046875 2.296875 5.921875 C 2.117188 5.804688 1.984375 5.695312 1.890625 5.59375 C 1.804688 5.5 1.765625 5.453125 1.765625 5.453125 L 2.75 3.046875 C 2.820312 3.359375 2.921875 3.625 3.046875 3.84375 C 3.140625 4.039062 3.273438 4.21875 3.453125 4.375 C 3.640625 4.539062 3.859375 4.625 4.109375 4.625 C 4.585938 4.625 4.96875 4.273438 5.25 3.578125 L 6.6875 -0.09375 L 1.90625 -10.953125 C 1.75 -11.285156 1.582031 -11.582031 1.40625 -11.84375 C 1.238281 -12.101562 0.957031 -12.234375 0.5625 -12.234375 L 0.5625 -12.53125 L 4.421875 -12.53125 L 4.421875 -12.234375 C 4.335938 -12.234375 4.234375 -12.160156 4.109375 -12.015625 C 3.992188 -11.878906 3.9375 -11.703125 3.9375 -11.484375 C 3.9375 -11.328125 3.976562 -11.164062 4.0625 -11 L 7.71875 -2.5625 L 11.25 -11.1875 C 11.300781 -11.320312 11.328125 -11.453125 11.328125 -11.578125 C 11.328125 -11.773438 11.265625 -11.929688 11.140625 -12.046875 C 11.015625 -12.171875 10.878906 -12.234375 10.734375 -12.234375 L 10.734375 -12.53125 L 13.625 -12.53125 L 13.625 -12.234375 C 13.3125 -12.234375 13.039062 -12.097656 12.8125 -11.828125 C 12.582031 -11.554688 12.398438 -11.253906 12.265625 -10.921875 Z M 6.109375 4.265625 "></path></g></g></g><g fill="#492c01" fill-opacity="1"><g transform="translate(130.104483, 54.910372)"><g><path d="M 6.109375 4.265625 C 5.835938 5.097656 5.488281 5.660156 5.0625 5.953125 C 4.632812 6.253906 4.191406 6.40625 3.734375 6.40625 C 3.429688 6.40625 3.160156 6.351562 2.921875 6.25 C 2.679688 6.15625 2.472656 6.046875 2.296875 5.921875 C 2.117188 5.804688 1.984375 5.695312 1.890625 5.59375 C 1.804688 5.5 1.765625 5.453125 1.765625 5.453125 L 2.75 3.046875 C 2.820312 3.359375 2.921875 3.625 3.046875 3.84375 C 3.140625 4.039062 3.273438 4.21875 3.453125 4.375 C 3.640625 4.539062 3.859375 4.625 4.109375 4.625 C 4.585938 4.625 4.96875 4.273438 5.25 3.578125 L 6.6875 -0.09375 L 1.90625 -10.953125 C 1.75 -11.285156 1.582031 -11.582031 1.40625 -11.84375 C 1.238281 -12.101562 0.957031 -12.234375 0.5625 -12.234375 L 0.5625 -12.53125 L 4.421875 -12.53125 L 4.421875 -12.234375 C 4.335938 -12.234375 4.234375 -12.160156 4.109375 -12.015625 C 3.992188 -11.878906 3.9375 -11.703125 3.9375 -11.484375 C 3.9375 -11.328125 3.976562 -11.164062 4.0625 -11 L 7.71875 -2.5625 L 11.25 -11.1875 C 11.300781 -11.320312 11.328125 -11.453125 11.328125 -11.578125 C 11.328125 -11.773438 11.265625 -11.929688 11.140625 -12.046875 C 11.015625 -12.171875 10.878906 -12.234375 10.734375 -12.234375 L 10.734375 -12.53125 L 13.625 -12.53125 L 13.625 -12.234375 C 13.3125 -12.234375 13.039062 -12.097656 12.8125 -11.828125 C 12.582031 -11.554688 12.398438 -11.253906 12.265625 -10.921875 Z M 6.109375 4.265625 "></path></g></g></g><g fill="#492c01" fill-opacity="1"><g transform="translate(144.239323, 54.910372)"><g><path d="M 7.78125 -12.734375 C 8.78125 -12.734375 9.679688 -12.566406 10.484375 -12.234375 C 11.285156 -11.910156 11.96875 -11.460938 12.53125 -10.890625 C 13.101562 -10.328125 13.535156 -9.65625 13.828125 -8.875 C 14.128906 -8.101562 14.28125 -7.265625 14.28125 -6.359375 C 14.28125 -5.378906 14.113281 -4.484375 13.78125 -3.671875 C 13.445312 -2.867188 12.976562 -2.179688 12.375 -1.609375 C 11.78125 -1.035156 11.070312 -0.585938 10.25 -0.265625 C 9.4375 0.046875 8.554688 0.203125 7.609375 0.203125 C 6.585938 0.203125 5.679688 0.0078125 4.890625 -0.375 C 4.097656 -0.757812 3.421875 -1.289062 2.859375 -1.96875 C 2.304688 -2.644531 1.878906 -3.441406 1.578125 -4.359375 C 1.285156 -5.285156 1.140625 -6.289062 1.140625 -7.375 C 1.140625 -7.988281 1.171875 -8.550781 1.234375 -9.0625 C 1.304688 -9.582031 1.414062 -10.085938 1.5625 -10.578125 C 1.71875 -11.066406 1.90625 -11.535156 2.125 -11.984375 C 2.34375 -12.441406 2.597656 -12.921875 2.890625 -13.421875 C 3.722656 -14.734375 4.769531 -15.765625 6.03125 -16.515625 C 7.300781 -17.273438 8.59375 -17.65625 9.90625 -17.65625 L 13.6875 -17.65625 L 12.53125 -15.75 L 9.421875 -15.75 C 8.785156 -15.75 8.148438 -15.632812 7.515625 -15.40625 C 6.878906 -15.175781 6.273438 -14.835938 5.703125 -14.390625 C 5.140625 -13.941406 4.640625 -13.398438 4.203125 -12.765625 C 3.765625 -12.128906 3.414062 -11.40625 3.15625 -10.59375 C 3.695312 -11.25 4.316406 -11.769531 5.015625 -12.15625 C 5.722656 -12.539062 6.644531 -12.734375 7.78125 -12.734375 Z M 7.96875 -0.8125 C 8.695312 -0.84375 9.335938 -1.015625 9.890625 -1.328125 C 10.453125 -1.640625 10.921875 -2.035156 11.296875 -2.515625 C 11.679688 -3.003906 11.96875 -3.550781 12.15625 -4.15625 C 12.34375 -4.769531 12.4375 -5.394531 12.4375 -6.03125 C 12.4375 -6.757812 12.316406 -7.46875 12.078125 -8.15625 C 11.835938 -8.84375 11.5 -9.441406 11.0625 -9.953125 C 10.625 -10.472656 10.101562 -10.890625 9.5 -11.203125 C 8.894531 -11.523438 8.222656 -11.6875 7.484375 -11.6875 C 6.765625 -11.6875 6.128906 -11.53125 5.578125 -11.21875 C 5.023438 -10.914062 4.554688 -10.515625 4.171875 -10.015625 C 3.796875 -9.523438 3.515625 -8.960938 3.328125 -8.328125 C 3.140625 -7.691406 3.046875 -7.050781 3.046875 -6.40625 C 3.046875 -5.769531 3.160156 -5.117188 3.390625 -4.453125 C 3.617188 -3.785156 3.945312 -3.179688 4.375 -2.640625 C 4.800781 -2.109375 5.316406 -1.671875 5.921875 -1.328125 C 6.523438 -0.984375 7.207031 -0.8125 7.96875 -0.8125 Z M 7.96875 -0.8125 "></path></g></g></g><g fill="#492c01" fill-opacity="1"><g transform="translate(159.835366, 54.910372)"><g><path d="M 9.21875 0 L 9.21875 -1.515625 L 9.0625 -1.375 C 8.570312 -0.875 8.003906 -0.484375 7.359375 -0.203125 C 6.710938 0.0664062 5.929688 0.203125 5.015625 0.203125 C 4.316406 0.203125 3.71875 0.125 3.21875 -0.03125 C 2.71875 -0.1875 2.304688 -0.410156 1.984375 -0.703125 C 1.671875 -0.992188 1.441406 -1.328125 1.296875 -1.703125 C 1.148438 -2.078125 1.078125 -2.472656 1.078125 -2.890625 C 1.078125 -3.566406 1.257812 -4.160156 1.625 -4.671875 C 1.988281 -5.191406 2.519531 -5.648438 3.21875 -6.046875 C 3.914062 -6.453125 4.765625 -6.816406 5.765625 -7.140625 C 6.773438 -7.472656 7.925781 -7.796875 9.21875 -8.109375 C 9.175781 -8.890625 9.015625 -9.515625 8.734375 -9.984375 C 8.460938 -10.460938 8.132812 -10.835938 7.75 -11.109375 C 7.375 -11.378906 6.976562 -11.554688 6.5625 -11.640625 C 6.144531 -11.734375 5.785156 -11.78125 5.484375 -11.78125 C 4.972656 -11.78125 4.515625 -11.703125 4.109375 -11.546875 C 3.710938 -11.398438 3.363281 -11.203125 3.0625 -10.953125 C 2.769531 -10.710938 2.53125 -10.429688 2.34375 -10.109375 C 2.15625 -9.796875 2.007812 -9.476562 1.90625 -9.15625 L 1.640625 -9.15625 L 1.640625 -11.484375 C 1.816406 -11.484375 2.023438 -11.546875 2.265625 -11.671875 C 2.503906 -11.804688 2.785156 -11.953125 3.109375 -12.109375 C 3.441406 -12.265625 3.84375 -12.40625 4.3125 -12.53125 C 4.78125 -12.664062 5.34375 -12.734375 6 -12.734375 C 7.09375 -12.734375 7.976562 -12.59375 8.65625 -12.3125 C 9.332031 -12.039062 9.851562 -11.675781 10.21875 -11.21875 C 10.582031 -10.757812 10.820312 -10.234375 10.9375 -9.640625 C 11.0625 -9.054688 11.125 -8.457031 11.125 -7.84375 L 11.125 -1.9375 C 11.125 -1.539062 11.222656 -1.164062 11.421875 -0.8125 C 11.617188 -0.46875 11.890625 -0.296875 12.234375 -0.296875 L 12.234375 0 Z M 9.21875 -2.828125 L 9.21875 -7.09375 L 8.921875 -7.046875 C 8.441406 -6.921875 7.859375 -6.757812 7.171875 -6.5625 C 6.484375 -6.363281 5.832031 -6.101562 5.21875 -5.78125 C 4.601562 -5.46875 4.078125 -5.09375 3.640625 -4.65625 C 3.203125 -4.21875 2.984375 -3.707031 2.984375 -3.125 C 2.984375 -2.488281 3.238281 -1.960938 3.75 -1.546875 C 4.269531 -1.128906 4.945312 -0.921875 5.78125 -0.921875 C 6.4375 -0.921875 7.015625 -1.066406 7.515625 -1.359375 C 8.015625 -1.648438 8.472656 -2.019531 8.890625 -2.46875 Z M 9.21875 -2.828125 "></path></g></g></g><g fill="#492c01" fill-opacity="1"><g transform="translate(173.463279, 54.910372)"><g><path d="M 10.375 -2.328125 C 10.5 -2.109375 10.660156 -1.878906 10.859375 -1.640625 C 11.054688 -1.398438 11.28125 -1.179688 11.53125 -0.984375 C 11.78125 -0.785156 12.03125 -0.617188 12.28125 -0.484375 C 12.539062 -0.359375 12.789062 -0.296875 13.03125 -0.296875 L 13.03125 0 L 11.90625 0 C 10.988281 0 10.28125 -0.1875 9.78125 -0.5625 C 9.28125 -0.945312 8.894531 -1.394531 8.625 -1.90625 L 7.21875 -4.5625 C 7 -4.976562 6.628906 -5.335938 6.109375 -5.640625 C 5.597656 -5.953125 5.050781 -6.109375 4.46875 -6.109375 L 4.46875 -1.875 C 4.46875 -1.71875 4.484375 -1.550781 4.515625 -1.375 C 4.546875 -1.195312 4.597656 -1.023438 4.671875 -0.859375 C 4.753906 -0.703125 4.851562 -0.566406 4.96875 -0.453125 C 5.09375 -0.347656 5.238281 -0.296875 5.40625 -0.296875 L 5.40625 0 L 1.546875 0 L 1.546875 -0.296875 C 1.691406 -0.296875 1.828125 -0.347656 1.953125 -0.453125 C 2.078125 -0.566406 2.179688 -0.703125 2.265625 -0.859375 C 2.347656 -1.023438 2.40625 -1.195312 2.4375 -1.375 C 2.476562 -1.550781 2.5 -1.71875 2.5 -1.875 L 2.5 -10.65625 C 2.5 -10.789062 2.476562 -10.953125 2.4375 -11.140625 C 2.40625 -11.328125 2.351562 -11.5 2.28125 -11.65625 C 2.207031 -11.820312 2.109375 -11.957031 1.984375 -12.0625 C 1.867188 -12.175781 1.722656 -12.234375 1.546875 -12.234375 L 1.546875 -12.53125 L 5.375 -12.53125 L 5.375 -12.234375 C 5.226562 -12.234375 5.097656 -12.175781 4.984375 -12.0625 C 4.878906 -11.957031 4.785156 -11.820312 4.703125 -11.65625 C 4.628906 -11.5 4.570312 -11.328125 4.53125 -11.140625 C 4.488281 -10.953125 4.46875 -10.789062 4.46875 -10.65625 L 4.46875 -7.578125 C 5.320312 -8.328125 6.164062 -9.054688 7 -9.765625 C 7.84375 -10.472656 8.691406 -11.207031 9.546875 -11.96875 C 9.546875 -11.976562 9.554688 -11.992188 9.578125 -12.015625 C 9.597656 -12.035156 9.609375 -12.054688 9.609375 -12.078125 C 9.609375 -12.179688 9.554688 -12.234375 9.453125 -12.234375 L 9.453125 -12.53125 L 12.046875 -12.53125 L 12.046875 -12.234375 C 11.953125 -12.234375 11.832031 -12.203125 11.6875 -12.140625 C 11.550781 -12.078125 11.414062 -12.007812 11.28125 -11.9375 C 11.113281 -11.851562 10.953125 -11.753906 10.796875 -11.640625 C 9.898438 -10.878906 9.003906 -10.101562 8.109375 -9.3125 C 7.210938 -8.53125 6.316406 -7.765625 5.421875 -7.015625 C 6.285156 -7.015625 6.988281 -6.851562 7.53125 -6.53125 C 8.082031 -6.21875 8.546875 -5.710938 8.921875 -5.015625 Z M 10.375 -2.328125 "></path></g></g></g><g fill="#492c01" fill-opacity="1"><g transform="translate(186.912262, 54.910372)"><g><path d="M 11.421875 -9.390625 C 11.421875 -9.609375 11.378906 -9.847656 11.296875 -10.109375 C 11.222656 -10.367188 11.101562 -10.601562 10.9375 -10.8125 C 10.78125 -11.019531 10.582031 -11.191406 10.34375 -11.328125 C 10.113281 -11.472656 9.835938 -11.546875 9.515625 -11.546875 L 6.890625 -11.546875 L 6.890625 -1.9375 C 6.890625 -1.78125 6.910156 -1.609375 6.953125 -1.421875 C 6.992188 -1.242188 7.054688 -1.070312 7.140625 -0.90625 C 7.234375 -0.738281 7.332031 -0.59375 7.4375 -0.46875 C 7.550781 -0.351562 7.6875 -0.296875 7.84375 -0.296875 L 7.84375 0 L 3.96875 0 L 3.96875 -0.296875 C 4.125 -0.296875 4.257812 -0.351562 4.375 -0.46875 C 4.5 -0.59375 4.601562 -0.734375 4.6875 -0.890625 C 4.78125 -1.054688 4.847656 -1.234375 4.890625 -1.421875 C 4.929688 -1.609375 4.953125 -1.78125 4.953125 -1.9375 L 4.953125 -11.546875 L 2.390625 -11.546875 C 2.066406 -11.546875 1.785156 -11.472656 1.546875 -11.328125 C 1.304688 -11.191406 1.113281 -11.019531 0.96875 -10.8125 C 0.820312 -10.601562 0.707031 -10.367188 0.625 -10.109375 C 0.539062 -9.847656 0.5 -9.609375 0.5 -9.390625 L 0.203125 -9.390625 L 0.203125 -12.53125 L 11.6875 -12.53125 L 11.6875 -9.390625 Z M 11.421875 -9.390625 "></path></g></g></g><g fill="#492c01" fill-opacity="1"><g transform="translate(198.959694, 54.910372)"><g><path d="M 13.6875 0 L 13.6875 -0.296875 C 13.832031 -0.296875 13.960938 -0.347656 14.078125 -0.453125 C 14.203125 -0.566406 14.304688 -0.707031 14.390625 -0.875 C 14.484375 -1.050781 14.546875 -1.234375 14.578125 -1.421875 C 14.617188 -1.609375 14.640625 -1.78125 14.640625 -1.9375 L 14.640625 -10.671875 C 14.640625 -10.816406 14.617188 -10.976562 14.578125 -11.15625 C 14.546875 -11.332031 14.484375 -11.5 14.390625 -11.65625 C 14.304688 -11.820312 14.203125 -11.957031 14.078125 -12.0625 C 13.960938 -12.175781 13.832031 -12.234375 13.6875 -12.234375 L 13.6875 -12.53125 L 17.5625 -12.53125 L 17.5625 -12.234375 C 17.269531 -12.234375 17.03125 -12.046875 16.84375 -11.671875 C 16.664062 -11.304688 16.578125 -10.972656 16.578125 -10.671875 L 16.578125 -1.9375 C 16.578125 -1.78125 16.597656 -1.609375 16.640625 -1.421875 C 16.679688 -1.234375 16.742188 -1.054688 16.828125 -0.890625 C 16.921875 -0.734375 17.023438 -0.59375 17.140625 -0.46875 C 17.265625 -0.351562 17.40625 -0.296875 17.5625 -0.296875 L 17.5625 0 Z M 6.65625 -7.09375 C 8.476562 -7.09375 9.832031 -6.753906 10.71875 -6.078125 C 11.601562 -5.410156 12.046875 -4.578125 12.046875 -3.578125 C 12.046875 -3.078125 11.929688 -2.609375 11.703125 -2.171875 C 11.472656 -1.734375 11.128906 -1.351562 10.671875 -1.03125 C 10.222656 -0.71875 9.648438 -0.46875 8.953125 -0.28125 C 8.253906 -0.09375 7.425781 0 6.46875 0 L 1.40625 0 L 1.40625 -0.296875 C 1.539062 -0.296875 1.664062 -0.347656 1.78125 -0.453125 C 1.90625 -0.566406 2.007812 -0.707031 2.09375 -0.875 C 2.1875 -1.050781 2.253906 -1.234375 2.296875 -1.421875 C 2.335938 -1.609375 2.359375 -1.78125 2.359375 -1.9375 L 2.359375 -10.671875 C 2.359375 -10.816406 2.335938 -10.976562 2.296875 -11.15625 C 2.253906 -11.332031 2.1875 -11.5 2.09375 -11.65625 C 2.007812 -11.820312 1.90625 -11.957031 1.78125 -12.0625 C 1.664062 -12.175781 1.539062 -12.234375 1.40625 -12.234375 L 1.40625 -12.53125 L 5.28125 -12.53125 L 5.28125 -12.234375 C 4.976562 -12.234375 4.738281 -12.046875 4.5625 -11.671875 C 4.382812 -11.304688 4.296875 -10.972656 4.296875 -10.671875 L 4.296875 -7.09375 Z M 6.40625 -0.984375 C 7.71875 -0.984375 8.664062 -1.195312 9.25 -1.625 C 9.84375 -2.050781 10.140625 -2.582031 10.140625 -3.21875 C 10.140625 -3.582031 10.0625 -3.9375 9.90625 -4.28125 C 9.75 -4.625 9.503906 -4.929688 9.171875 -5.203125 C 8.847656 -5.472656 8.445312 -5.691406 7.96875 -5.859375 C 7.488281 -6.023438 6.941406 -6.109375 6.328125 -6.109375 L 4.296875 -6.109375 L 4.296875 -0.984375 Z M 6.40625 -0.984375 "></path></g></g></g><g fill="#492c01" fill-opacity="1"><g transform="translate(218.134185, 54.910372)"><g><path d="M 12.34375 -1.078125 C 12.1875 -1.078125 12.035156 -1.039062 11.890625 -0.96875 C 11.753906 -0.894531 11.597656 -0.8125 11.421875 -0.71875 C 11.085938 -0.519531 10.640625 -0.316406 10.078125 -0.109375 C 9.523438 0.0976562 8.832031 0.203125 8 0.203125 C 6.976562 0.203125 6.046875 0.0390625 5.203125 -0.28125 C 4.359375 -0.613281 3.628906 -1.070312 3.015625 -1.65625 C 2.398438 -2.238281 1.921875 -2.921875 1.578125 -3.703125 C 1.242188 -4.492188 1.078125 -5.347656 1.078125 -6.265625 C 1.078125 -7.117188 1.226562 -7.929688 1.53125 -8.703125 C 1.84375 -9.484375 2.285156 -10.171875 2.859375 -10.765625 C 3.441406 -11.359375 4.15625 -11.832031 5 -12.1875 C 5.84375 -12.550781 6.800781 -12.734375 7.875 -12.734375 C 8.613281 -12.734375 9.207031 -12.648438 9.65625 -12.484375 C 10.113281 -12.316406 10.503906 -12.148438 10.828125 -11.984375 C 11.003906 -11.890625 11.175781 -11.8125 11.34375 -11.75 C 11.519531 -11.6875 11.695312 -11.65625 11.875 -11.65625 L 11.875 -9.390625 L 11.578125 -9.390625 C 11.472656 -9.773438 11.289062 -10.109375 11.03125 -10.390625 C 10.78125 -10.679688 10.484375 -10.925781 10.140625 -11.125 C 9.804688 -11.320312 9.4375 -11.46875 9.03125 -11.5625 C 8.632812 -11.664062 8.25 -11.71875 7.875 -11.71875 C 7.0625 -11.71875 6.34375 -11.570312 5.71875 -11.28125 C 5.101562 -11 4.597656 -10.625 4.203125 -10.15625 C 3.804688 -9.6875 3.507812 -9.15625 3.3125 -8.5625 C 3.113281 -7.96875 3.015625 -7.351562 3.015625 -6.71875 C 3.015625 -5.976562 3.128906 -5.253906 3.359375 -4.546875 C 3.585938 -3.835938 3.914062 -3.203125 4.34375 -2.640625 C 4.769531 -2.085938 5.296875 -1.644531 5.921875 -1.3125 C 6.546875 -0.976562 7.253906 -0.8125 8.046875 -0.8125 C 8.609375 -0.8125 9.128906 -0.890625 9.609375 -1.046875 C 10.085938 -1.203125 10.5 -1.410156 10.84375 -1.671875 C 11.1875 -1.929688 11.460938 -2.210938 11.671875 -2.515625 C 11.878906 -2.828125 12.003906 -3.125 12.046875 -3.40625 L 12.34375 -3.40625 Z M 12.34375 -1.078125 "></path></g></g></g><g fill="#492c01" fill-opacity="1"><g transform="translate(231.135868, 54.910372)"><g><path d="M 13.6875 0 L 13.6875 -0.296875 C 13.832031 -0.296875 13.960938 -0.347656 14.078125 -0.453125 C 14.203125 -0.566406 14.304688 -0.707031 14.390625 -0.875 C 14.484375 -1.050781 14.546875 -1.234375 14.578125 -1.421875 C 14.617188 -1.609375 14.640625 -1.78125 14.640625 -1.9375 L 14.640625 -10.671875 C 14.640625 -10.816406 14.617188 -10.976562 14.578125 -11.15625 C 14.546875 -11.332031 14.484375 -11.5 14.390625 -11.65625 C 14.304688 -11.820312 14.203125 -11.957031 14.078125 -12.0625 C 13.960938 -12.175781 13.832031 -12.234375 13.6875 -12.234375 L 13.6875 -12.53125 L 17.5625 -12.53125 L 17.5625 -12.234375 C 17.269531 -12.234375 17.03125 -12.046875 16.84375 -11.671875 C 16.664062 -11.304688 16.578125 -10.972656 16.578125 -10.671875 L 16.578125 -1.9375 C 16.578125 -1.78125 16.597656 -1.609375 16.640625 -1.421875 C 16.679688 -1.234375 16.742188 -1.054688 16.828125 -0.890625 C 16.921875 -0.734375 17.023438 -0.59375 17.140625 -0.46875 C 17.265625 -0.351562 17.40625 -0.296875 17.5625 -0.296875 L 17.5625 0 Z M 6.65625 -7.09375 C 8.476562 -7.09375 9.832031 -6.753906 10.71875 -6.078125 C 11.601562 -5.410156 12.046875 -4.578125 12.046875 -3.578125 C 12.046875 -3.078125 11.929688 -2.609375 11.703125 -2.171875 C 11.472656 -1.734375 11.128906 -1.351562 10.671875 -1.03125 C 10.222656 -0.71875 9.648438 -0.46875 8.953125 -0.28125 C 8.253906 -0.09375 7.425781 0 6.46875 0 L 1.40625 0 L 1.40625 -0.296875 C 1.539062 -0.296875 1.664062 -0.347656 1.78125 -0.453125 C 1.90625 -0.566406 2.007812 -0.707031 2.09375 -0.875 C 2.1875 -1.050781 2.253906 -1.234375 2.296875 -1.421875 C 2.335938 -1.609375 2.359375 -1.78125 2.359375 -1.9375 L 2.359375 -10.671875 C 2.359375 -10.816406 2.335938 -10.976562 2.296875 -11.15625 C 2.253906 -11.332031 2.1875 -11.5 2.09375 -11.65625 C 2.007812 -11.820312 1.90625 -11.957031 1.78125 -12.0625 C 1.664062 -12.175781 1.539062 -12.234375 1.40625 -12.234375 L 1.40625 -12.53125 L 5.28125 -12.53125 L 5.28125 -12.234375 C 4.976562 -12.234375 4.738281 -12.046875 4.5625 -11.671875 C 4.382812 -11.304688 4.296875 -10.972656 4.296875 -10.671875 L 4.296875 -7.09375 Z M 6.40625 -0.984375 C 7.71875 -0.984375 8.664062 -1.195312 9.25 -1.625 C 9.84375 -2.050781 10.140625 -2.582031 10.140625 -3.21875 C 10.140625 -3.582031 10.0625 -3.9375 9.90625 -4.28125 C 9.75 -4.625 9.503906 -4.929688 9.171875 -5.203125 C 8.847656 -5.472656 8.445312 -5.691406 7.96875 -5.859375 C 7.488281 -6.023438 6.941406 -6.109375 6.328125 -6.109375 L 4.296875 -6.109375 L 4.296875 -0.984375 Z M 6.40625 -0.984375 "></path></g></g></g></g></g></svg> 