<?xml version="1.0" encoding="UTF-8"?> <svg xmlns="http://www.w3.org/2000/svg" xmlns:xlink="http://www.w3.org/1999/xlink" width="360" zoomAndPan="magnify" viewBox="0 0 270 359.999987" height="480" preserveAspectRatio="xMidYMid meet" version="1.0"><defs><g></g><clipPath id="a025f7f7d1"><rect x="0" width="261" y="0" height="50"></rect></clipPath></defs><g transform="matrix(1, 0, 0, 1, 6, 154)"><g clip-path="url(#a025f7f7d1)"><g fill="#000000" fill-opacity="1"><g transform="translate(1.377105, 31.530744)"><g><path d="M 46.265625 -23.046875 C 46.265625 -22.691406 46.117188 -22.394531 45.828125 -22.15625 C 45.535156 -21.914062 45.179688 -21.796875 44.765625 -21.796875 C 43.910156 -21.796875 42.921875 -21.921875 41.796875 -22.171875 C 40.679688 -22.421875 39.679688 -22.644531 38.796875 -22.84375 C 38.046875 -23.007812 37.25 -23.203125 36.40625 -23.421875 C 35.5625 -23.640625 34.65625 -23.820312 33.6875 -23.96875 C 31.664062 -23.1875 29.59375 -22.144531 27.46875 -20.84375 C 25.351562 -19.539062 23.300781 -18.035156 21.3125 -16.328125 C 19.894531 -15.109375 18.554688 -13.8125 17.296875 -12.4375 C 16.035156 -11.070312 14.925781 -9.71875 13.96875 -8.375 C 13.019531 -7.03125 12.273438 -5.75 11.734375 -4.53125 C 11.191406 -3.3125 10.921875 -2.242188 10.921875 -1.328125 C 10.921875 -0.359375 11.242188 0.421875 11.890625 1.015625 C 12.546875 1.609375 13.566406 1.894531 14.953125 1.875 C 16.335938 1.8125 17.796875 1.492188 19.328125 0.921875 C 20.867188 0.359375 22.273438 -0.332031 23.546875 -1.15625 C 24.515625 -1.800781 25.4375 -2.445312 26.3125 -3.09375 C 27.1875 -3.738281 28.023438 -4.410156 28.828125 -5.109375 C 28.929688 -5.191406 29.066406 -5.296875 29.234375 -5.421875 C 29.398438 -5.546875 29.523438 -5.566406 29.609375 -5.484375 C 29.722656 -5.367188 29.738281 -5.25 29.65625 -5.125 C 29.570312 -5 29.460938 -4.882812 29.328125 -4.78125 C 28.515625 -4.113281 27.628906 -3.398438 26.671875 -2.640625 C 25.722656 -1.878906 24.765625 -1.207031 23.796875 -0.625 C 22.441406 0.238281 21.015625 0.96875 19.515625 1.5625 C 18.023438 2.15625 16.476562 2.476562 14.875 2.53125 C 13.507812 2.5625 12.304688 2.289062 11.265625 1.71875 C 10.234375 1.15625 9.566406 0.28125 9.265625 -0.90625 C 9.097656 -0.851562 8.875 -0.804688 8.59375 -0.765625 C 8.320312 -0.722656 8.101562 -0.703125 7.9375 -0.703125 C 5.800781 -0.679688 4.132812 -1.328125 2.9375 -2.640625 C 1.75 -3.953125 1.15625 -5.828125 1.15625 -8.265625 C 1.15625 -10.003906 1.507812 -11.71875 2.21875 -13.40625 C 2.925781 -15.101562 3.890625 -16.660156 5.109375 -18.078125 C 6.328125 -19.503906 7.671875 -20.71875 9.140625 -21.71875 C 11.378906 -23.21875 13.78125 -24.3125 16.34375 -25 C 18.90625 -25.695312 21.664062 -26.046875 24.625 -26.046875 C 26.144531 -26.046875 27.613281 -25.945312 29.03125 -25.75 C 30.445312 -25.550781 31.832031 -25.285156 33.1875 -24.953125 C 34.457031 -25.347656 35.75 -25.632812 37.0625 -25.8125 C 38.382812 -25.988281 39.640625 -26.066406 40.828125 -26.046875 C 42.378906 -25.984375 43.671875 -25.6875 44.703125 -25.15625 C 45.742188 -24.632812 46.265625 -23.929688 46.265625 -23.046875 Z M 45.8125 -23.046875 C 45.8125 -23.847656 45.316406 -24.457031 44.328125 -24.875 C 43.347656 -25.289062 42.179688 -25.5 40.828125 -25.5 C 39.960938 -25.5 39.007812 -25.425781 37.96875 -25.28125 C 36.9375 -25.144531 35.910156 -24.898438 34.890625 -24.546875 C 35.578125 -24.378906 36.28125 -24.191406 37 -23.984375 C 37.71875 -23.773438 38.367188 -23.585938 38.953125 -23.421875 C 39.835938 -23.203125 40.804688 -22.953125 41.859375 -22.671875 C 42.910156 -22.398438 43.851562 -22.265625 44.6875 -22.265625 C 45.4375 -22.265625 45.8125 -22.523438 45.8125 -23.046875 Z M 31.515625 -24.25 C 29.441406 -24.5 27.144531 -24.625 24.625 -24.625 C 21.882812 -24.625 19.316406 -24.351562 16.921875 -23.8125 C 14.523438 -23.28125 12.179688 -22.28125 9.890625 -20.8125 C 8.304688 -19.8125 6.910156 -18.628906 5.703125 -17.265625 C 4.503906 -15.910156 3.566406 -14.472656 2.890625 -12.953125 C 2.210938 -11.429688 1.875 -9.894531 1.875 -8.34375 C 1.875 -5.96875 2.425781 -4.191406 3.53125 -3.015625 C 4.632812 -1.835938 6.113281 -1.25 7.96875 -1.25 C 8.164062 -1.25 8.375 -1.257812 8.59375 -1.28125 C 8.8125 -1.3125 9.019531 -1.351562 9.21875 -1.40625 C 9.132812 -2.65625 9.34375 -3.953125 9.84375 -5.296875 C 10.34375 -6.640625 11.035156 -7.972656 11.921875 -9.296875 C 12.804688 -10.628906 13.796875 -11.894531 14.890625 -13.09375 C 15.984375 -14.300781 17.082031 -15.378906 18.1875 -16.328125 C 22.375 -19.867188 26.816406 -22.507812 31.515625 -24.25 Z M 31.515625 -24.25 "></path></g></g></g><g fill="#000000" fill-opacity="1"><g transform="translate(30.309118, 31.530744)"><g><path d="M 15.953125 -12.125 C 14.753906 -11.039062 13.609375 -9.945312 12.515625 -8.84375 C 11.421875 -7.738281 10.445312 -6.722656 9.59375 -5.796875 C 8.738281 -4.867188 8.0625 -4.097656 7.5625 -3.484375 C 7.0625 -2.878906 6.628906 -2.332031 6.265625 -1.84375 C 5.910156 -1.363281 5.734375 -1 5.734375 -0.75 C 5.734375 -0.5 5.867188 -0.375 6.140625 -0.375 C 6.421875 -0.375 6.789062 -0.5 7.25 -0.75 C 7.707031 -1 8.171875 -1.296875 8.640625 -1.640625 C 9.109375 -1.984375 9.492188 -2.265625 9.796875 -2.484375 C 10.460938 -3.046875 11.160156 -3.632812 11.890625 -4.25 C 12.628906 -4.875 13.273438 -5.421875 13.828125 -5.890625 C 13.941406 -5.953125 14.039062 -6.003906 14.125 -6.046875 C 14.207031 -6.085938 14.289062 -6.066406 14.375 -5.984375 C 14.507812 -5.835938 14.46875 -5.6875 14.25 -5.53125 C 13.851562 -5.195312 13.398438 -4.804688 12.890625 -4.359375 C 12.378906 -3.921875 11.878906 -3.5 11.390625 -3.09375 C 10.910156 -2.6875 10.519531 -2.363281 10.21875 -2.125 C 9.550781 -1.625 8.816406 -1.09375 8.015625 -0.53125 C 7.210938 0.0195312 6.492188 0.296875 5.859375 0.296875 C 5.304688 0.296875 4.925781 0.164062 4.71875 -0.09375 C 4.507812 -0.363281 4.40625 -0.707031 4.40625 -1.125 C 4.40625 -1.726562 4.664062 -2.472656 5.1875 -3.359375 C 4.914062 -3.085938 4.644531 -2.847656 4.375 -2.640625 C 4.113281 -2.429688 3.898438 -2.257812 3.734375 -2.125 C 3.097656 -1.59375 2.347656 -1.054688 1.484375 -0.515625 C 0.628906 0.0234375 -0.113281 0.296875 -0.75 0.296875 C -1.269531 0.296875 -1.632812 0.175781 -1.84375 -0.0625 C -2.050781 -0.300781 -2.15625 -0.597656 -2.15625 -0.953125 C -2.15625 -1.648438 -1.878906 -2.445312 -1.328125 -3.34375 C -0.773438 -4.238281 -0.03125 -5.203125 0.90625 -6.234375 C 1.46875 -6.816406 2.132812 -7.445312 2.90625 -8.125 C 3.675781 -8.800781 4.457031 -9.4375 5.25 -10.03125 C 6.039062 -10.625 6.710938 -11.070312 7.265625 -11.375 C 7.566406 -11.570312 8 -11.710938 8.5625 -11.796875 C 9.132812 -11.878906 9.5625 -11.90625 9.84375 -11.875 C 8.625 -10.882812 7.425781 -9.851562 6.25 -8.78125 C 5.070312 -7.71875 4.03125 -6.722656 3.125 -5.796875 C 2.226562 -4.867188 1.53125 -4.097656 1.03125 -3.484375 C 0.539062 -2.878906 0.125 -2.332031 -0.21875 -1.84375 C -0.570312 -1.363281 -0.75 -1 -0.75 -0.75 C -0.75 -0.5 -0.625 -0.375 -0.375 -0.375 C -0.09375 -0.375 0.28125 -0.5 0.75 -0.75 C 1.21875 -1 1.703125 -1.296875 2.203125 -1.640625 C 2.703125 -1.984375 3.117188 -2.296875 3.453125 -2.578125 C 3.804688 -2.847656 4.253906 -3.222656 4.796875 -3.703125 C 5.335938 -4.191406 5.847656 -4.675781 6.328125 -5.15625 C 6.816406 -5.644531 7.171875 -6.003906 7.390625 -6.234375 C 7.941406 -6.816406 8.601562 -7.46875 9.375 -8.1875 C 10.15625 -8.90625 10.929688 -9.585938 11.703125 -10.234375 C 12.484375 -10.890625 13.148438 -11.382812 13.703125 -11.71875 C 13.921875 -11.851562 14.28125 -11.960938 14.78125 -12.046875 C 15.28125 -12.128906 15.671875 -12.15625 15.953125 -12.125 Z M 15.953125 -12.125 "></path></g></g></g><g fill="#000000" fill-opacity="1"><g transform="translate(43.301544, 31.530744)"><g><path d="M -14.5 11.921875 C -15.800781 11.921875 -17.019531 11.722656 -18.15625 11.328125 C -19.289062 10.941406 -20.238281 10.382812 -21 9.65625 C -21.757812 8.925781 -22.25 8.035156 -22.46875 6.984375 C -22.601562 6.316406 -22.535156 5.953125 -22.265625 5.890625 C -22.148438 5.835938 -22.070312 5.894531 -22.03125 6.0625 C -21.988281 6.226562 -21.953125 6.394531 -21.921875 6.5625 C -21.703125 7.582031 -21.21875 8.4375 -20.46875 9.125 C -19.726562 9.820312 -18.84375 10.34375 -17.8125 10.6875 C -16.789062 11.039062 -15.753906 11.21875 -14.703125 11.21875 C -13.035156 11.21875 -11.472656 11 -10.015625 10.5625 C -8.566406 10.132812 -7.273438 9.609375 -6.140625 8.984375 C -5.003906 8.367188 -4.066406 7.78125 -3.328125 7.21875 C -2.046875 6.25 -1.023438 5.210938 -0.265625 4.109375 C 0.492188 3.003906 0.875 2.0625 0.875 1.28125 C 0.875 0.894531 0.78125 0.59375 0.59375 0.375 C 0.414062 0.15625 0.21875 0.015625 0 -0.046875 C -0.363281 0.0351562 -0.804688 0.113281 -1.328125 0.1875 C -1.859375 0.257812 -2.257812 0.296875 -2.53125 0.296875 C -2.75 0.296875 -2.945312 0.273438 -3.125 0.234375 C -3.3125 0.191406 -3.40625 0.0976562 -3.40625 -0.046875 C -3.40625 -0.234375 -3.28125 -0.375 -3.03125 -0.46875 C -2.78125 -0.570312 -2.503906 -0.644531 -2.203125 -0.6875 C -1.898438 -0.726562 -1.664062 -0.75 -1.5 -0.75 C -0.800781 -0.75 -0.21875 -0.648438 0.25 -0.453125 C 0.914062 -0.535156 1.675781 -0.875 2.53125 -1.46875 C 3.394531 -2.070312 4.300781 -2.84375 5.25 -3.78125 C 6.207031 -4.71875 7.144531 -5.726562 8.0625 -6.8125 C 8.613281 -7.445312 9.128906 -8.164062 9.609375 -8.96875 C 10.097656 -9.769531 10.34375 -10.394531 10.34375 -10.84375 C 10.34375 -11.28125 10.117188 -11.5 9.671875 -11.5 C 9.285156 -11.5 8.804688 -11.351562 8.234375 -11.0625 C 7.671875 -10.769531 7.070312 -10.390625 6.4375 -9.921875 C 5.414062 -9.148438 4.378906 -8.300781 3.328125 -7.375 C 2.273438 -6.445312 1.390625 -5.664062 0.671875 -5.03125 C 0.554688 -4.945312 0.425781 -4.863281 0.28125 -4.78125 C 0.144531 -4.695312 0.0507812 -4.679688 0 -4.734375 C -0.164062 -4.898438 -0.140625 -5.066406 0.078125 -5.234375 C 1.128906 -6.148438 2.15625 -7.050781 3.15625 -7.9375 C 4.15625 -8.820312 5.015625 -9.554688 5.734375 -10.140625 C 6.953125 -11.109375 7.898438 -11.703125 8.578125 -11.921875 C 9.253906 -12.140625 9.785156 -12.25 10.171875 -12.25 C 10.585938 -12.25 10.953125 -12.109375 11.265625 -11.828125 C 11.585938 -11.554688 11.75 -11.101562 11.75 -10.46875 C 11.75 -9.851562 11.625 -9.226562 11.375 -8.59375 C 11.125 -7.957031 10.835938 -7.375 10.515625 -6.84375 C 10.203125 -6.320312 9.910156 -5.910156 9.640625 -5.609375 C 8.554688 -4.335938 7.285156 -3.21875 5.828125 -2.25 C 4.378906 -1.28125 2.710938 -0.597656 0.828125 -0.203125 C 2.015625 0.179688 2.609375 0.941406 2.609375 2.078125 C 2.609375 3.078125 2.203125 4.085938 1.390625 5.109375 C 0.578125 6.128906 -0.394531 7.082031 -1.53125 7.96875 C -3.082031 9.164062 -5.015625 10.125 -7.328125 10.84375 C -9.640625 11.5625 -12.03125 11.921875 -14.5 11.921875 Z M -14.5 11.921875 "></path></g></g></g><g fill="#000000" fill-opacity="1"><g transform="translate(54.675092, 31.530744)"><g><path d="M 20.515625 -20.5625 C 20.515625 -19.394531 20.1875 -18.226562 19.53125 -17.0625 C 18.882812 -15.90625 18.132812 -14.828125 17.28125 -13.828125 C 16.582031 -13.023438 15.734375 -12.101562 14.734375 -11.0625 C 13.742188 -10.03125 12.671875 -8.96875 11.515625 -7.875 C 10.367188 -6.78125 9.21875 -5.71875 8.0625 -4.6875 C 6.289062 -3.113281 4.703125 -1.875 3.296875 -0.96875 C 1.898438 -0.0703125 0.785156 0.375 -0.046875 0.375 C -0.566406 0.375 -0.992188 0.203125 -1.328125 -0.140625 C -1.660156 -0.492188 -1.828125 -0.972656 -1.828125 -1.578125 C -1.828125 -2.328125 -1.539062 -3.234375 -0.96875 -4.296875 C -0.40625 -5.359375 0.382812 -6.414062 1.40625 -7.46875 C 2.375 -8.4375 3.40625 -9.28125 4.5 -10 C 5.59375 -10.726562 6.648438 -11.289062 7.671875 -11.6875 C 8.703125 -12.09375 9.578125 -12.296875 10.296875 -12.296875 C 11.296875 -12.296875 11.8125 -11.960938 11.84375 -11.296875 C 11.863281 -11.015625 11.804688 -10.726562 11.671875 -10.4375 C 11.535156 -10.15625 11.425781 -9.941406 11.34375 -9.796875 C 11.3125 -9.742188 11.304688 -9.703125 11.328125 -9.671875 C 11.359375 -9.648438 11.40625 -9.664062 11.46875 -9.71875 C 11.800781 -10.019531 12.273438 -10.472656 12.890625 -11.078125 C 13.515625 -11.691406 14.144531 -12.320312 14.78125 -12.96875 C 15.414062 -13.625 15.898438 -14.144531 16.234375 -14.53125 C 17.097656 -15.5 17.859375 -16.53125 18.515625 -17.625 C 19.179688 -18.71875 19.515625 -19.890625 19.515625 -21.140625 C 19.515625 -22.773438 19.015625 -23.953125 18.015625 -24.671875 C 17.023438 -25.390625 15.503906 -25.75 13.453125 -25.75 C 12.046875 -25.75 10.585938 -25.519531 9.078125 -25.0625 C 7.566406 -24.601562 6.257812 -24.070312 5.15625 -23.46875 C 4.507812 -23.132812 3.863281 -22.695312 3.21875 -22.15625 C 2.570312 -21.613281 2.03125 -21.007812 1.59375 -20.34375 C 1.164062 -19.6875 0.953125 -18.984375 0.953125 -18.234375 C 0.953125 -17.867188 1.015625 -17.5 1.140625 -17.125 C 1.265625 -16.757812 1.410156 -16.460938 1.578125 -16.234375 C 1.691406 -16.097656 1.773438 -15.976562 1.828125 -15.875 C 1.878906 -15.78125 1.863281 -15.707031 1.78125 -15.65625 C 1.695312 -15.601562 1.597656 -15.601562 1.484375 -15.65625 C 1.378906 -15.707031 1.285156 -15.789062 1.203125 -15.90625 C 0.984375 -16.1875 0.78125 -16.539062 0.59375 -16.96875 C 0.414062 -17.394531 0.328125 -17.859375 0.328125 -18.359375 C 0.328125 -19.492188 0.582031 -20.488281 1.09375 -21.34375 C 1.613281 -22.207031 2.242188 -22.9375 2.984375 -23.53125 C 3.734375 -24.125 4.441406 -24.570312 5.109375 -24.875 C 6.109375 -25.34375 7.253906 -25.753906 8.546875 -26.109375 C 9.847656 -26.472656 11.304688 -26.65625 12.921875 -26.65625 C 14.328125 -26.65625 15.601562 -26.441406 16.75 -26.015625 C 17.90625 -25.585938 18.820312 -24.921875 19.5 -24.015625 C 20.175781 -23.117188 20.515625 -21.96875 20.515625 -20.5625 Z M 11.21875 -11.21875 C 11.21875 -11.550781 11.050781 -11.71875 10.71875 -11.71875 C 10.101562 -11.738281 9.082031 -11.207031 7.65625 -10.125 C 6.238281 -9.050781 4.671875 -7.640625 2.953125 -5.890625 C 2.003906 -4.867188 1.160156 -3.898438 0.421875 -2.984375 C -0.304688 -2.078125 -0.671875 -1.347656 -0.671875 -0.796875 C -0.671875 -0.347656 -0.445312 -0.125 0 -0.125 C 0.632812 -0.125 1.644531 -0.691406 3.03125 -1.828125 C 4.414062 -2.960938 5.953125 -4.398438 7.640625 -6.140625 C 8.109375 -6.640625 8.617188 -7.210938 9.171875 -7.859375 C 9.734375 -8.515625 10.210938 -9.15625 10.609375 -9.78125 C 11.015625 -10.40625 11.21875 -10.882812 11.21875 -11.21875 Z M 11.21875 -11.21875 "></path></g></g></g><g fill="#000000" fill-opacity="1"><g transform="translate(66.712811, 31.530744)"><g><path d="M 0.125 0.375 C -0.375 0.375 -0.851562 0.25 -1.3125 0 C -1.769531 -0.25 -2 -0.773438 -2 -1.578125 C -2 -2.128906 -1.789062 -2.90625 -1.375 -3.90625 C -0.957031 -4.90625 -0.0820312 -6.039062 1.25 -7.3125 C 2.1875 -8.195312 3.207031 -9.007812 4.3125 -9.75 C 5.425781 -10.5 6.5 -11.109375 7.53125 -11.578125 C 8.570312 -12.054688 9.425781 -12.296875 10.09375 -12.296875 C 10.507812 -12.296875 10.820312 -12.195312 11.03125 -12 C 11.238281 -11.8125 11.34375 -11.5625 11.34375 -11.25 C 11.34375 -10.8125 11.117188 -10.332031 10.671875 -9.8125 C 10.234375 -9.300781 9.722656 -8.851562 9.140625 -8.46875 C 8.472656 -8.03125 7.722656 -7.648438 6.890625 -7.328125 C 6.054688 -7.015625 5.320312 -6.859375 4.6875 -6.859375 C 4.382812 -6.859375 4.125 -6.910156 3.90625 -7.015625 C 3.207031 -6.378906 2.523438 -5.6875 1.859375 -4.9375 C 1.203125 -4.195312 0.648438 -3.476562 0.203125 -2.78125 C -0.234375 -2.09375 -0.453125 -1.523438 -0.453125 -1.078125 C -0.453125 -0.523438 -0.132812 -0.25 0.5 -0.25 C 0.914062 -0.25 1.441406 -0.375 2.078125 -0.625 C 2.710938 -0.875 3.375 -1.21875 4.0625 -1.65625 C 5.0625 -2.289062 6.039062 -3.003906 7 -3.796875 C 7.957031 -4.585938 8.695312 -5.21875 9.21875 -5.6875 C 9.351562 -5.820312 9.488281 -5.929688 9.625 -6.015625 C 9.769531 -6.097656 9.882812 -6.097656 9.96875 -6.015625 C 10.050781 -5.929688 10.054688 -5.832031 9.984375 -5.71875 C 9.921875 -5.613281 9.847656 -5.519531 9.765625 -5.4375 C 9.066406 -4.800781 8.316406 -4.15625 7.515625 -3.5 C 6.710938 -2.851562 5.851562 -2.210938 4.9375 -1.578125 C 4.25 -1.109375 3.472656 -0.664062 2.609375 -0.25 C 1.753906 0.164062 0.925781 0.375 0.125 0.375 Z M 10.625 -11.546875 C 10.625 -11.710938 10.53125 -11.796875 10.34375 -11.796875 C 10.0625 -11.796875 9.546875 -11.550781 8.796875 -11.0625 C 8.054688 -10.582031 7.265625 -9.992188 6.421875 -9.296875 C 5.578125 -8.609375 4.832031 -7.945312 4.1875 -7.3125 C 4.300781 -7.25 4.414062 -7.21875 4.53125 -7.21875 C 4.945312 -7.21875 5.546875 -7.382812 6.328125 -7.71875 C 7.117188 -8.050781 7.90625 -8.535156 8.6875 -9.171875 C 9.257812 -9.648438 9.722656 -10.101562 10.078125 -10.53125 C 10.441406 -10.957031 10.625 -11.296875 10.625 -11.546875 Z M 10.625 -11.546875 "></path></g></g></g><g fill="#000000" fill-opacity="1"><g transform="translate(75.346747, 31.530744)"><g><path d="M 13.546875 -15.859375 C 12.847656 -15.554688 12.222656 -15.15625 11.671875 -14.65625 C 10.921875 -14.050781 10.046875 -13.285156 9.046875 -12.359375 C 8.054688 -11.429688 7.085938 -10.488281 6.140625 -9.53125 C 5.203125 -8.570312 4.414062 -7.734375 3.78125 -7.015625 C 3.75 -6.992188 3.738281 -6.96875 3.75 -6.9375 C 3.769531 -6.90625 3.796875 -6.90625 3.828125 -6.9375 C 4.234375 -7.320312 4.8125 -7.8125 5.5625 -8.40625 C 6.3125 -9 7.113281 -9.59375 7.96875 -10.1875 C 8.832031 -10.789062 9.648438 -11.289062 10.421875 -11.6875 C 11.203125 -12.09375 11.835938 -12.296875 12.328125 -12.296875 C 12.742188 -12.296875 13.015625 -12.171875 13.140625 -11.921875 C 13.265625 -11.671875 13.328125 -11.363281 13.328125 -11 C 13.328125 -10.144531 13.03125 -9.179688 12.4375 -8.109375 C 11.84375 -7.046875 11.101562 -6.070312 10.21875 -5.1875 C 8.382812 -3.332031 6.671875 -1.953125 5.078125 -1.046875 C 3.492188 -0.148438 2.050781 0.296875 0.75 0.296875 C 0.21875 0.296875 -0.195312 0.171875 -0.5 -0.078125 C -0.695312 -0.242188 -0.804688 -0.457031 -0.828125 -0.71875 C -0.859375 -0.988281 -0.804688 -1.132812 -0.671875 -1.15625 C -0.554688 -1.1875 -0.476562 -1.160156 -0.4375 -1.078125 C -0.394531 -0.992188 -0.359375 -0.910156 -0.328125 -0.828125 C -0.273438 -0.722656 -0.1875 -0.613281 -0.0625 -0.5 C 0.0625 -0.382812 0.265625 -0.328125 0.546875 -0.328125 C 1.066406 -0.328125 1.625 -0.476562 2.21875 -0.78125 C 2.8125 -1.09375 3.578125 -1.679688 4.515625 -2.546875 C 5.460938 -3.421875 6.738281 -4.675781 8.34375 -6.3125 C 8.875 -6.84375 9.441406 -7.425781 10.046875 -8.0625 C 10.660156 -8.695312 11.1875 -9.300781 11.625 -9.875 C 12.070312 -10.457031 12.296875 -10.890625 12.296875 -11.171875 C 12.296875 -11.390625 12.15625 -11.5 11.875 -11.5 C 11.457031 -11.5 10.8125 -11.253906 9.9375 -10.765625 C 9.070312 -10.285156 8.113281 -9.648438 7.0625 -8.859375 C 6.007812 -8.078125 4.960938 -7.226562 3.921875 -6.3125 C 2.890625 -5.394531 1.96875 -4.535156 1.15625 -3.734375 C -0.78125 -1.796875 -2.820312 0.359375 -4.96875 2.734375 C -7.113281 5.117188 -9.347656 7.914062 -11.671875 11.125 C -11.921875 11.488281 -12.140625 11.804688 -12.328125 12.078125 C -12.523438 12.359375 -12.679688 12.5 -12.796875 12.5 C -12.960938 12.5 -13.035156 12.328125 -13.015625 11.984375 C -13.003906 11.640625 -12.957031 11.328125 -12.875 11.046875 C -12.65625 10.273438 -12.113281 9.238281 -11.25 7.9375 C -10.394531 6.632812 -9.375 5.25 -8.1875 3.78125 C -6.800781 2.09375 -5.414062 0.488281 -4.03125 -1.03125 C -2.644531 -2.5625 -1.382812 -3.914062 -0.25 -5.09375 C 0.882812 -6.269531 1.769531 -7.175781 2.40625 -7.8125 C 3.070312 -8.46875 3.894531 -9.257812 4.875 -10.1875 C 5.863281 -11.125 6.863281 -12.019531 7.875 -12.875 C 8.882812 -13.726562 9.734375 -14.40625 10.421875 -14.90625 C 10.722656 -15.125 11.035156 -15.316406 11.359375 -15.484375 C 11.679688 -15.648438 11.976562 -15.765625 12.25 -15.828125 C 12.46875 -15.878906 12.695312 -15.90625 12.9375 -15.90625 C 13.175781 -15.90625 13.378906 -15.890625 13.546875 -15.859375 Z M 13.546875 -15.859375 "></path></g></g></g><g fill="#000000" fill-opacity="1"><g transform="translate(88.007087, 31.530744)"><g><path d="M 20.515625 -20.5625 C 20.515625 -19.394531 20.1875 -18.226562 19.53125 -17.0625 C 18.882812 -15.90625 18.132812 -14.828125 17.28125 -13.828125 C 16.582031 -13.023438 15.734375 -12.101562 14.734375 -11.0625 C 13.742188 -10.03125 12.671875 -8.96875 11.515625 -7.875 C 10.367188 -6.78125 9.21875 -5.71875 8.0625 -4.6875 C 6.289062 -3.113281 4.703125 -1.875 3.296875 -0.96875 C 1.898438 -0.0703125 0.785156 0.375 -0.046875 0.375 C -0.566406 0.375 -0.992188 0.203125 -1.328125 -0.140625 C -1.660156 -0.492188 -1.828125 -0.972656 -1.828125 -1.578125 C -1.828125 -2.328125 -1.539062 -3.234375 -0.96875 -4.296875 C -0.40625 -5.359375 0.382812 -6.414062 1.40625 -7.46875 C 2.375 -8.4375 3.40625 -9.28125 4.5 -10 C 5.59375 -10.726562 6.648438 -11.289062 7.671875 -11.6875 C 8.703125 -12.09375 9.578125 -12.296875 10.296875 -12.296875 C 11.296875 -12.296875 11.8125 -11.960938 11.84375 -11.296875 C 11.863281 -11.015625 11.804688 -10.726562 11.671875 -10.4375 C 11.535156 -10.15625 11.425781 -9.941406 11.34375 -9.796875 C 11.3125 -9.742188 11.304688 -9.703125 11.328125 -9.671875 C 11.359375 -9.648438 11.40625 -9.664062 11.46875 -9.71875 C 11.800781 -10.019531 12.273438 -10.472656 12.890625 -11.078125 C 13.515625 -11.691406 14.144531 -12.320312 14.78125 -12.96875 C 15.414062 -13.625 15.898438 -14.144531 16.234375 -14.53125 C 17.097656 -15.5 17.859375 -16.53125 18.515625 -17.625 C 19.179688 -18.71875 19.515625 -19.890625 19.515625 -21.140625 C 19.515625 -22.773438 19.015625 -23.953125 18.015625 -24.671875 C 17.023438 -25.390625 15.503906 -25.75 13.453125 -25.75 C 12.046875 -25.75 10.585938 -25.519531 9.078125 -25.0625 C 7.566406 -24.601562 6.257812 -24.070312 5.15625 -23.46875 C 4.507812 -23.132812 3.863281 -22.695312 3.21875 -22.15625 C 2.570312 -21.613281 2.03125 -21.007812 1.59375 -20.34375 C 1.164062 -19.6875 0.953125 -18.984375 0.953125 -18.234375 C 0.953125 -17.867188 1.015625 -17.5 1.140625 -17.125 C 1.265625 -16.757812 1.410156 -16.460938 1.578125 -16.234375 C 1.691406 -16.097656 1.773438 -15.976562 1.828125 -15.875 C 1.878906 -15.78125 1.863281 -15.707031 1.78125 -15.65625 C 1.695312 -15.601562 1.597656 -15.601562 1.484375 -15.65625 C 1.378906 -15.707031 1.285156 -15.789062 1.203125 -15.90625 C 0.984375 -16.1875 0.78125 -16.539062 0.59375 -16.96875 C 0.414062 -17.394531 0.328125 -17.859375 0.328125 -18.359375 C 0.328125 -19.492188 0.582031 -20.488281 1.09375 -21.34375 C 1.613281 -22.207031 2.242188 -22.9375 2.984375 -23.53125 C 3.734375 -24.125 4.441406 -24.570312 5.109375 -24.875 C 6.109375 -25.34375 7.253906 -25.753906 8.546875 -26.109375 C 9.847656 -26.472656 11.304688 -26.65625 12.921875 -26.65625 C 14.328125 -26.65625 15.601562 -26.441406 16.75 -26.015625 C 17.90625 -25.585938 18.820312 -24.921875 19.5 -24.015625 C 20.175781 -23.117188 20.515625 -21.96875 20.515625 -20.5625 Z M 11.21875 -11.21875 C 11.21875 -11.550781 11.050781 -11.71875 10.71875 -11.71875 C 10.101562 -11.738281 9.082031 -11.207031 7.65625 -10.125 C 6.238281 -9.050781 4.671875 -7.640625 2.953125 -5.890625 C 2.003906 -4.867188 1.160156 -3.898438 0.421875 -2.984375 C -0.304688 -2.078125 -0.671875 -1.347656 -0.671875 -0.796875 C -0.671875 -0.347656 -0.445312 -0.125 0 -0.125 C 0.632812 -0.125 1.644531 -0.691406 3.03125 -1.828125 C 4.414062 -2.960938 5.953125 -4.398438 7.640625 -6.140625 C 8.109375 -6.640625 8.617188 -7.210938 9.171875 -7.859375 C 9.734375 -8.515625 10.210938 -9.15625 10.609375 -9.78125 C 11.015625 -10.40625 11.21875 -10.882812 11.21875 -11.21875 Z M 11.21875 -11.21875 "></path></g></g></g><g fill="#000000" fill-opacity="1"><g transform="translate(100.044806, 31.530744)"><g><path d="M 15.953125 -12.125 C 14.753906 -11.039062 13.609375 -9.945312 12.515625 -8.84375 C 11.421875 -7.738281 10.445312 -6.722656 9.59375 -5.796875 C 8.738281 -4.867188 8.0625 -4.097656 7.5625 -3.484375 C 7.0625 -2.878906 6.628906 -2.332031 6.265625 -1.84375 C 5.910156 -1.363281 5.734375 -1 5.734375 -0.75 C 5.734375 -0.5 5.867188 -0.375 6.140625 -0.375 C 6.421875 -0.375 6.789062 -0.5 7.25 -0.75 C 7.707031 -1 8.171875 -1.296875 8.640625 -1.640625 C 9.109375 -1.984375 9.492188 -2.265625 9.796875 -2.484375 C 10.460938 -3.046875 11.160156 -3.632812 11.890625 -4.25 C 12.628906 -4.875 13.273438 -5.421875 13.828125 -5.890625 C 13.941406 -5.953125 14.039062 -6.003906 14.125 -6.046875 C 14.207031 -6.085938 14.289062 -6.066406 14.375 -5.984375 C 14.507812 -5.835938 14.46875 -5.6875 14.25 -5.53125 C 13.851562 -5.195312 13.398438 -4.804688 12.890625 -4.359375 C 12.378906 -3.921875 11.878906 -3.5 11.390625 -3.09375 C 10.910156 -2.6875 10.519531 -2.363281 10.21875 -2.125 C 9.550781 -1.625 8.816406 -1.09375 8.015625 -0.53125 C 7.210938 0.0195312 6.492188 0.296875 5.859375 0.296875 C 5.304688 0.296875 4.925781 0.164062 4.71875 -0.09375 C 4.507812 -0.363281 4.40625 -0.707031 4.40625 -1.125 C 4.40625 -1.726562 4.664062 -2.472656 5.1875 -3.359375 C 4.914062 -3.085938 4.644531 -2.847656 4.375 -2.640625 C 4.113281 -2.429688 3.898438 -2.257812 3.734375 -2.125 C 3.097656 -1.59375 2.347656 -1.054688 1.484375 -0.515625 C 0.628906 0.0234375 -0.113281 0.296875 -0.75 0.296875 C -1.269531 0.296875 -1.632812 0.175781 -1.84375 -0.0625 C -2.050781 -0.300781 -2.15625 -0.597656 -2.15625 -0.953125 C -2.15625 -1.648438 -1.878906 -2.445312 -1.328125 -3.34375 C -0.773438 -4.238281 -0.03125 -5.203125 0.90625 -6.234375 C 1.46875 -6.816406 2.132812 -7.445312 2.90625 -8.125 C 3.675781 -8.800781 4.457031 -9.4375 5.25 -10.03125 C 6.039062 -10.625 6.710938 -11.070312 7.265625 -11.375 C 7.566406 -11.570312 8 -11.710938 8.5625 -11.796875 C 9.132812 -11.878906 9.5625 -11.90625 9.84375 -11.875 C 8.625 -10.882812 7.425781 -9.851562 6.25 -8.78125 C 5.070312 -7.71875 4.03125 -6.722656 3.125 -5.796875 C 2.226562 -4.867188 1.53125 -4.097656 1.03125 -3.484375 C 0.539062 -2.878906 0.125 -2.332031 -0.21875 -1.84375 C -0.570312 -1.363281 -0.75 -1 -0.75 -0.75 C -0.75 -0.5 -0.625 -0.375 -0.375 -0.375 C -0.09375 -0.375 0.28125 -0.5 0.75 -0.75 C 1.21875 -1 1.703125 -1.296875 2.203125 -1.640625 C 2.703125 -1.984375 3.117188 -2.296875 3.453125 -2.578125 C 3.804688 -2.847656 4.253906 -3.222656 4.796875 -3.703125 C 5.335938 -4.191406 5.847656 -4.675781 6.328125 -5.15625 C 6.816406 -5.644531 7.171875 -6.003906 7.390625 -6.234375 C 7.941406 -6.816406 8.601562 -7.46875 9.375 -8.1875 C 10.15625 -8.90625 10.929688 -9.585938 11.703125 -10.234375 C 12.484375 -10.890625 13.148438 -11.382812 13.703125 -11.71875 C 13.921875 -11.851562 14.28125 -11.960938 14.78125 -12.046875 C 15.28125 -12.128906 15.671875 -12.15625 15.953125 -12.125 Z M 15.953125 -12.125 "></path></g></g></g><g fill="#000000" fill-opacity="1"><g transform="translate(113.037232, 31.530744)"><g></g></g></g><g fill="#000000" fill-opacity="1"><g transform="translate(121.671168, 31.530744)"><g><path d="M 26.578125 -24.421875 C 27.546875 -24.941406 28.535156 -25.34375 29.546875 -25.625 C 30.554688 -25.90625 31.476562 -26.046875 32.3125 -26.046875 C 33.195312 -26.046875 33.867188 -26.015625 34.328125 -25.953125 C 34.785156 -25.898438 35.289062 -25.875 35.84375 -25.875 C 36.507812 -25.875 37.054688 -25.957031 37.484375 -26.125 C 37.910156 -26.289062 38.234375 -26.457031 38.453125 -26.625 C 39.035156 -27.039062 39.660156 -27.578125 40.328125 -28.234375 C 40.441406 -28.398438 40.550781 -28.457031 40.65625 -28.40625 C 40.738281 -28.375 40.765625 -28.300781 40.734375 -28.1875 C 40.710938 -28.082031 40.675781 -28.003906 40.625 -27.953125 C 40.207031 -27.398438 39.835938 -26.945312 39.515625 -26.59375 C 39.203125 -26.25 38.847656 -25.882812 38.453125 -25.5 C 37.847656 -24.914062 37.273438 -24.523438 36.734375 -24.328125 C 36.191406 -24.140625 35.601562 -24.046875 34.96875 -24.046875 C 34.28125 -24.046875 33.648438 -24.097656 33.078125 -24.203125 C 32.515625 -24.316406 31.648438 -24.375 30.484375 -24.375 C 29.316406 -24.375 28.082031 -24.128906 26.78125 -23.640625 C 25.476562 -23.160156 24.265625 -22.394531 23.140625 -21.34375 C 22.304688 -20.59375 21.5625 -19.859375 20.90625 -19.140625 C 20.257812 -18.421875 19.585938 -17.644531 18.890625 -16.8125 C 18.203125 -15.988281 17.414062 -15.050781 16.53125 -14 C 15.644531 -12.945312 14.578125 -11.710938 13.328125 -10.296875 C 10.253906 -6.867188 7.625 -4.234375 5.4375 -2.390625 C 3.25 -0.546875 1.503906 0.375 0.203125 0.375 C -0.398438 0.375 -0.878906 0.207031 -1.234375 -0.125 C -1.597656 -0.457031 -1.78125 -0.941406 -1.78125 -1.578125 C -1.78125 -2.347656 -1.503906 -3.257812 -0.953125 -4.3125 C -0.398438 -5.363281 0.382812 -6.414062 1.40625 -7.46875 C 2.375 -8.4375 3.40625 -9.28125 4.5 -10 C 5.59375 -10.726562 6.648438 -11.289062 7.671875 -11.6875 C 8.703125 -12.09375 9.578125 -12.296875 10.296875 -12.296875 C 10.679688 -12.296875 11.039062 -12.210938 11.375 -12.046875 C 11.707031 -11.878906 11.875 -11.5625 11.875 -11.09375 C 11.875 -10.726562 11.738281 -10.285156 11.46875 -9.765625 C 12.289062 -10.753906 13.015625 -11.609375 13.640625 -12.328125 C 14.265625 -13.054688 14.847656 -13.726562 15.390625 -14.34375 C 15.929688 -14.96875 16.488281 -15.613281 17.0625 -16.28125 C 18.113281 -17.46875 19.101562 -18.53125 20.03125 -19.46875 C 20.96875 -20.414062 21.953125 -21.289062 22.984375 -22.09375 C 24.023438 -22.894531 25.222656 -23.671875 26.578125 -24.421875 Z M 11.21875 -11.25 C 11.21875 -11.5625 11.050781 -11.71875 10.71875 -11.71875 C 10.050781 -11.71875 9.019531 -11.179688 7.625 -10.109375 C 6.226562 -9.046875 4.671875 -7.640625 2.953125 -5.890625 C 2.003906 -4.867188 1.171875 -3.90625 0.453125 -3 C -0.265625 -2.101562 -0.625 -1.394531 -0.625 -0.875 C -0.625 -0.707031 -0.582031 -0.546875 -0.5 -0.390625 C -0.414062 -0.242188 -0.234375 -0.171875 0.046875 -0.171875 C 0.648438 -0.171875 1.644531 -0.726562 3.03125 -1.84375 C 4.414062 -2.96875 5.953125 -4.398438 7.640625 -6.140625 C 8.109375 -6.640625 8.617188 -7.210938 9.171875 -7.859375 C 9.734375 -8.515625 10.210938 -9.15625 10.609375 -9.78125 C 11.015625 -10.40625 11.21875 -10.894531 11.21875 -11.25 Z M 11.21875 -11.25 "></path></g></g></g><g fill="#000000" fill-opacity="1"><g transform="translate(132.878688, 31.530744)"><g><path d="M 15.953125 -11.875 C 14.753906 -10.800781 13.601562 -9.722656 12.5 -8.640625 C 11.394531 -7.554688 10.410156 -6.5625 9.546875 -5.65625 C 8.691406 -4.757812 8.015625 -4.023438 7.515625 -3.453125 C 6.992188 -2.835938 6.570312 -2.300781 6.25 -1.84375 C 5.925781 -1.382812 5.765625 -1.019531 5.765625 -0.75 C 5.765625 -0.5 5.90625 -0.375 6.1875 -0.375 C 6.46875 -0.375 6.832031 -0.503906 7.28125 -0.765625 C 7.738281 -1.023438 8.21875 -1.328125 8.71875 -1.671875 C 9.21875 -2.023438 9.648438 -2.335938 10.015625 -2.609375 C 10.671875 -3.140625 11.351562 -3.71875 12.0625 -4.34375 C 12.769531 -4.96875 13.375 -5.5 13.875 -5.9375 C 13.957031 -5.988281 14.050781 -6.039062 14.15625 -6.09375 C 14.269531 -6.15625 14.367188 -6.128906 14.453125 -6.015625 C 14.566406 -5.910156 14.5 -5.75 14.25 -5.53125 C 13.632812 -4.945312 12.96875 -4.347656 12.25 -3.734375 C 11.53125 -3.128906 10.910156 -2.617188 10.390625 -2.203125 C 9.972656 -1.867188 9.492188 -1.507812 8.953125 -1.125 C 8.410156 -0.738281 7.867188 -0.40625 7.328125 -0.125 C 6.785156 0.15625 6.304688 0.296875 5.890625 0.296875 C 4.921875 0.296875 4.4375 -0.175781 4.4375 -1.125 C 4.4375 -1.425781 4.523438 -1.796875 4.703125 -2.234375 C 4.890625 -2.679688 5.203125 -3.171875 5.640625 -3.703125 C 4.453125 -2.617188 3.265625 -1.679688 2.078125 -0.890625 C 0.890625 -0.0976562 -0.0351562 0.296875 -0.703125 0.296875 C -1.648438 0.296875 -2.125 -0.160156 -2.125 -1.078125 C -2.144531 -1.828125 -1.84375 -2.75 -1.21875 -3.84375 C -0.601562 -4.9375 0.175781 -5.953125 1.125 -6.890625 C 2.0625 -7.859375 3.128906 -8.75 4.328125 -9.5625 C 5.535156 -10.382812 6.722656 -11.046875 7.890625 -11.546875 C 9.054688 -12.046875 10.023438 -12.296875 10.796875 -12.296875 C 11.179688 -12.296875 11.5 -12.234375 11.75 -12.109375 C 12 -11.984375 12.125 -11.738281 12.125 -11.375 C 12.125 -11.15625 12.039062 -10.875 11.875 -10.53125 C 11.707031 -10.1875 11.390625 -9.773438 10.921875 -9.296875 C 10.890625 -9.273438 10.878906 -9.253906 10.890625 -9.234375 C 10.910156 -9.222656 10.9375 -9.234375 10.96875 -9.265625 C 11.601562 -9.898438 12.238281 -10.4375 12.875 -10.875 C 13.507812 -11.320312 13.992188 -11.601562 14.328125 -11.71875 C 14.546875 -11.800781 14.757812 -11.847656 14.96875 -11.859375 C 15.175781 -11.867188 15.390625 -11.875 15.609375 -11.875 Z M 11.546875 -11.21875 C 11.546875 -11.519531 11.378906 -11.671875 11.046875 -11.671875 C 10.460938 -11.671875 9.472656 -11.175781 8.078125 -10.1875 C 6.679688 -9.207031 5 -7.773438 3.03125 -5.890625 C 2.007812 -4.867188 1.113281 -3.875 0.34375 -2.90625 C -0.414062 -1.9375 -0.796875 -1.21875 -0.796875 -0.75 C -0.796875 -0.632812 -0.773438 -0.535156 -0.734375 -0.453125 C -0.691406 -0.367188 -0.570312 -0.328125 -0.375 -0.328125 C -0.0078125 -0.328125 0.570312 -0.578125 1.375 -1.078125 C 2.175781 -1.578125 3.109375 -2.269531 4.171875 -3.15625 C 5.234375 -4.039062 6.304688 -5.035156 7.390625 -6.140625 C 7.890625 -6.640625 8.460938 -7.210938 9.109375 -7.859375 C 9.765625 -8.515625 10.332031 -9.15625 10.8125 -9.78125 C 11.300781 -10.40625 11.546875 -10.882812 11.546875 -11.21875 Z M 11.546875 -11.21875 "></path></g></g></g><g fill="#000000" fill-opacity="1"><g transform="translate(145.912634, 31.530744)"><g><path d="M 6.640625 0.375 C 5.671875 0.375 5.1875 -0.0664062 5.1875 -0.953125 C 5.1875 -1.566406 5.363281 -2.179688 5.71875 -2.796875 C 6.082031 -3.421875 6.53125 -4.039062 7.0625 -4.65625 C 7.53125 -5.207031 8.035156 -5.722656 8.578125 -6.203125 C 9.117188 -6.691406 9.609375 -7.144531 10.046875 -7.5625 C 10.160156 -7.664062 10.195312 -7.722656 10.15625 -7.734375 C 10.113281 -7.753906 10.050781 -7.738281 9.96875 -7.6875 C 9.269531 -7.101562 8.539062 -6.492188 7.78125 -5.859375 C 7.019531 -5.222656 6.28125 -4.597656 5.5625 -3.984375 C 4.894531 -3.398438 4.101562 -2.769531 3.1875 -2.09375 C 2.28125 -1.414062 1.382812 -0.832031 0.5 -0.34375 C -0.382812 0.132812 -1.144531 0.375 -1.78125 0.375 C -2.8125 0.375 -3.328125 -0.09375 -3.328125 -1.03125 C -3.328125 -1.445312 -3.207031 -1.925781 -2.96875 -2.46875 C -2.726562 -3.007812 -2.390625 -3.503906 -1.953125 -3.953125 C -1.703125 -4.191406 -1.445312 -4.394531 -1.1875 -4.5625 C -0.925781 -4.726562 -0.65625 -4.8125 -0.375 -4.8125 C -0.09375 -4.8125 0.046875 -4.675781 0.046875 -4.40625 C 0.046875 -4.15625 -0.0703125 -3.890625 -0.3125 -3.609375 C -0.550781 -3.335938 -0.820312 -3.078125 -1.125 -2.828125 C -2.113281 -2.109375 -2.609375 -1.46875 -2.609375 -0.90625 C -2.609375 -0.382812 -2.332031 -0.125 -1.78125 -0.125 C -1.3125 -0.125 -0.707031 -0.332031 0.03125 -0.75 C 0.78125 -1.164062 1.578125 -1.679688 2.421875 -2.296875 C 3.273438 -2.921875 4.09375 -3.554688 4.875 -4.203125 C 5.664062 -4.859375 6.328125 -5.410156 6.859375 -5.859375 C 7.828125 -6.660156 8.800781 -7.441406 9.78125 -8.203125 C 10.757812 -8.960938 11.65625 -9.632812 12.46875 -10.21875 C 13.289062 -10.800781 13.9375 -11.226562 14.40625 -11.5 C 14.769531 -11.726562 15.179688 -11.878906 15.640625 -11.953125 C 16.097656 -12.035156 16.53125 -12.066406 16.9375 -12.046875 C 15.75 -10.960938 14.585938 -9.875 13.453125 -8.78125 C 12.316406 -7.6875 11.296875 -6.664062 10.390625 -5.71875 C 9.492188 -4.78125 8.800781 -4.023438 8.3125 -3.453125 C 7.8125 -2.835938 7.40625 -2.300781 7.09375 -1.84375 C 6.789062 -1.382812 6.640625 -1.003906 6.640625 -0.703125 C 6.640625 -0.429688 6.796875 -0.296875 7.109375 -0.296875 C 7.410156 -0.296875 7.78125 -0.40625 8.21875 -0.625 C 8.664062 -0.84375 9.128906 -1.101562 9.609375 -1.40625 C 10.097656 -1.71875 10.507812 -2 10.84375 -2.25 C 11.3125 -2.601562 11.820312 -3.007812 12.375 -3.46875 C 12.925781 -3.925781 13.441406 -4.363281 13.921875 -4.78125 C 14.410156 -5.195312 14.796875 -5.523438 15.078125 -5.765625 C 15.378906 -6.046875 15.585938 -6.101562 15.703125 -5.9375 C 15.804688 -5.820312 15.765625 -5.671875 15.578125 -5.484375 C 15.210938 -5.179688 14.742188 -4.785156 14.171875 -4.296875 C 13.609375 -3.816406 13.054688 -3.347656 12.515625 -2.890625 C 11.984375 -2.429688 11.550781 -2.078125 11.21875 -1.828125 C 10.550781 -1.328125 9.796875 -0.832031 8.953125 -0.34375 C 8.109375 0.132812 7.335938 0.375 6.640625 0.375 Z M 6.640625 0.375 "></path></g></g></g><g fill="#000000" fill-opacity="1"><g transform="translate(160.316387, 31.530744)"><g><path d="M 20.515625 -20.5625 C 20.515625 -19.394531 20.1875 -18.226562 19.53125 -17.0625 C 18.882812 -15.90625 18.132812 -14.828125 17.28125 -13.828125 C 16.582031 -13.023438 15.734375 -12.101562 14.734375 -11.0625 C 13.742188 -10.03125 12.671875 -8.96875 11.515625 -7.875 C 10.367188 -6.78125 9.21875 -5.71875 8.0625 -4.6875 C 6.289062 -3.113281 4.703125 -1.875 3.296875 -0.96875 C 1.898438 -0.0703125 0.785156 0.375 -0.046875 0.375 C -0.566406 0.375 -0.992188 0.203125 -1.328125 -0.140625 C -1.660156 -0.492188 -1.828125 -0.972656 -1.828125 -1.578125 C -1.828125 -2.328125 -1.539062 -3.234375 -0.96875 -4.296875 C -0.40625 -5.359375 0.382812 -6.414062 1.40625 -7.46875 C 2.375 -8.4375 3.40625 -9.28125 4.5 -10 C 5.59375 -10.726562 6.648438 -11.289062 7.671875 -11.6875 C 8.703125 -12.09375 9.578125 -12.296875 10.296875 -12.296875 C 11.296875 -12.296875 11.8125 -11.960938 11.84375 -11.296875 C 11.863281 -11.015625 11.804688 -10.726562 11.671875 -10.4375 C 11.535156 -10.15625 11.425781 -9.941406 11.34375 -9.796875 C 11.3125 -9.742188 11.304688 -9.703125 11.328125 -9.671875 C 11.359375 -9.648438 11.40625 -9.664062 11.46875 -9.71875 C 11.800781 -10.019531 12.273438 -10.472656 12.890625 -11.078125 C 13.515625 -11.691406 14.144531 -12.320312 14.78125 -12.96875 C 15.414062 -13.625 15.898438 -14.144531 16.234375 -14.53125 C 17.097656 -15.5 17.859375 -16.53125 18.515625 -17.625 C 19.179688 -18.71875 19.515625 -19.890625 19.515625 -21.140625 C 19.515625 -22.773438 19.015625 -23.953125 18.015625 -24.671875 C 17.023438 -25.390625 15.503906 -25.75 13.453125 -25.75 C 12.046875 -25.75 10.585938 -25.519531 9.078125 -25.0625 C 7.566406 -24.601562 6.257812 -24.070312 5.15625 -23.46875 C 4.507812 -23.132812 3.863281 -22.695312 3.21875 -22.15625 C 2.570312 -21.613281 2.03125 -21.007812 1.59375 -20.34375 C 1.164062 -19.6875 0.953125 -18.984375 0.953125 -18.234375 C 0.953125 -17.867188 1.015625 -17.5 1.140625 -17.125 C 1.265625 -16.757812 1.410156 -16.460938 1.578125 -16.234375 C 1.691406 -16.097656 1.773438 -15.976562 1.828125 -15.875 C 1.878906 -15.78125 1.863281 -15.707031 1.78125 -15.65625 C 1.695312 -15.601562 1.597656 -15.601562 1.484375 -15.65625 C 1.378906 -15.707031 1.285156 -15.789062 1.203125 -15.90625 C 0.984375 -16.1875 0.78125 -16.539062 0.59375 -16.96875 C 0.414062 -17.394531 0.328125 -17.859375 0.328125 -18.359375 C 0.328125 -19.492188 0.582031 -20.488281 1.09375 -21.34375 C 1.613281 -22.207031 2.242188 -22.9375 2.984375 -23.53125 C 3.734375 -24.125 4.441406 -24.570312 5.109375 -24.875 C 6.109375 -25.34375 7.253906 -25.753906 8.546875 -26.109375 C 9.847656 -26.472656 11.304688 -26.65625 12.921875 -26.65625 C 14.328125 -26.65625 15.601562 -26.441406 16.75 -26.015625 C 17.90625 -25.585938 18.820312 -24.921875 19.5 -24.015625 C 20.175781 -23.117188 20.515625 -21.96875 20.515625 -20.5625 Z M 11.21875 -11.21875 C 11.21875 -11.550781 11.050781 -11.71875 10.71875 -11.71875 C 10.101562 -11.738281 9.082031 -11.207031 7.65625 -10.125 C 6.238281 -9.050781 4.671875 -7.640625 2.953125 -5.890625 C 2.003906 -4.867188 1.160156 -3.898438 0.421875 -2.984375 C -0.304688 -2.078125 -0.671875 -1.347656 -0.671875 -0.796875 C -0.671875 -0.347656 -0.445312 -0.125 0 -0.125 C 0.632812 -0.125 1.644531 -0.691406 3.03125 -1.828125 C 4.414062 -2.960938 5.953125 -4.398438 7.640625 -6.140625 C 8.109375 -6.640625 8.617188 -7.210938 9.171875 -7.859375 C 9.734375 -8.515625 10.210938 -9.15625 10.609375 -9.78125 C 11.015625 -10.40625 11.21875 -10.882812 11.21875 -11.21875 Z M 11.21875 -11.21875 "></path></g></g></g><g fill="#000000" fill-opacity="1"><g transform="translate(172.354106, 31.530744)"><g><path d="M 15.953125 -11.875 C 14.753906 -10.800781 13.601562 -9.722656 12.5 -8.640625 C 11.394531 -7.554688 10.410156 -6.5625 9.546875 -5.65625 C 8.691406 -4.757812 8.015625 -4.023438 7.515625 -3.453125 C 6.992188 -2.835938 6.570312 -2.300781 6.25 -1.84375 C 5.925781 -1.382812 5.765625 -1.019531 5.765625 -0.75 C 5.765625 -0.5 5.90625 -0.375 6.1875 -0.375 C 6.46875 -0.375 6.832031 -0.503906 7.28125 -0.765625 C 7.738281 -1.023438 8.21875 -1.328125 8.71875 -1.671875 C 9.21875 -2.023438 9.648438 -2.335938 10.015625 -2.609375 C 10.671875 -3.140625 11.351562 -3.71875 12.0625 -4.34375 C 12.769531 -4.96875 13.375 -5.5 13.875 -5.9375 C 13.957031 -5.988281 14.050781 -6.039062 14.15625 -6.09375 C 14.269531 -6.15625 14.367188 -6.128906 14.453125 -6.015625 C 14.566406 -5.910156 14.5 -5.75 14.25 -5.53125 C 13.632812 -4.945312 12.96875 -4.347656 12.25 -3.734375 C 11.53125 -3.128906 10.910156 -2.617188 10.390625 -2.203125 C 9.972656 -1.867188 9.492188 -1.507812 8.953125 -1.125 C 8.410156 -0.738281 7.867188 -0.40625 7.328125 -0.125 C 6.785156 0.15625 6.304688 0.296875 5.890625 0.296875 C 4.921875 0.296875 4.4375 -0.175781 4.4375 -1.125 C 4.4375 -1.425781 4.523438 -1.796875 4.703125 -2.234375 C 4.890625 -2.679688 5.203125 -3.171875 5.640625 -3.703125 C 4.453125 -2.617188 3.265625 -1.679688 2.078125 -0.890625 C 0.890625 -0.0976562 -0.0351562 0.296875 -0.703125 0.296875 C -1.648438 0.296875 -2.125 -0.160156 -2.125 -1.078125 C -2.144531 -1.828125 -1.84375 -2.75 -1.21875 -3.84375 C -0.601562 -4.9375 0.175781 -5.953125 1.125 -6.890625 C 2.0625 -7.859375 3.128906 -8.75 4.328125 -9.5625 C 5.535156 -10.382812 6.722656 -11.046875 7.890625 -11.546875 C 9.054688 -12.046875 10.023438 -12.296875 10.796875 -12.296875 C 11.179688 -12.296875 11.5 -12.234375 11.75 -12.109375 C 12 -11.984375 12.125 -11.738281 12.125 -11.375 C 12.125 -11.15625 12.039062 -10.875 11.875 -10.53125 C 11.707031 -10.1875 11.390625 -9.773438 10.921875 -9.296875 C 10.890625 -9.273438 10.878906 -9.253906 10.890625 -9.234375 C 10.910156 -9.222656 10.9375 -9.234375 10.96875 -9.265625 C 11.601562 -9.898438 12.238281 -10.4375 12.875 -10.875 C 13.507812 -11.320312 13.992188 -11.601562 14.328125 -11.71875 C 14.546875 -11.800781 14.757812 -11.847656 14.96875 -11.859375 C 15.175781 -11.867188 15.390625 -11.875 15.609375 -11.875 Z M 11.546875 -11.21875 C 11.546875 -11.519531 11.378906 -11.671875 11.046875 -11.671875 C 10.460938 -11.671875 9.472656 -11.175781 8.078125 -10.1875 C 6.679688 -9.207031 5 -7.773438 3.03125 -5.890625 C 2.007812 -4.867188 1.113281 -3.875 0.34375 -2.90625 C -0.414062 -1.9375 -0.796875 -1.21875 -0.796875 -0.75 C -0.796875 -0.632812 -0.773438 -0.535156 -0.734375 -0.453125 C -0.691406 -0.367188 -0.570312 -0.328125 -0.375 -0.328125 C -0.0078125 -0.328125 0.570312 -0.578125 1.375 -1.078125 C 2.175781 -1.578125 3.109375 -2.269531 4.171875 -3.15625 C 5.234375 -4.039062 6.304688 -5.035156 7.390625 -6.140625 C 7.890625 -6.640625 8.460938 -7.210938 9.109375 -7.859375 C 9.765625 -8.515625 10.332031 -9.15625 10.8125 -9.78125 C 11.300781 -10.40625 11.546875 -10.882812 11.546875 -11.21875 Z M 11.546875 -11.21875 "></path></g></g></g><g fill="#000000" fill-opacity="1"><g transform="translate(185.388053, 31.530744)"><g><path d="M 13.546875 -15.859375 C 12.847656 -15.554688 12.222656 -15.15625 11.671875 -14.65625 C 10.921875 -14.050781 10.046875 -13.285156 9.046875 -12.359375 C 8.054688 -11.429688 7.085938 -10.488281 6.140625 -9.53125 C 5.203125 -8.570312 4.414062 -7.734375 3.78125 -7.015625 C 3.75 -6.992188 3.738281 -6.96875 3.75 -6.9375 C 3.769531 -6.90625 3.796875 -6.90625 3.828125 -6.9375 C 4.234375 -7.320312 4.8125 -7.8125 5.5625 -8.40625 C 6.3125 -9 7.113281 -9.59375 7.96875 -10.1875 C 8.832031 -10.789062 9.648438 -11.289062 10.421875 -11.6875 C 11.203125 -12.09375 11.835938 -12.296875 12.328125 -12.296875 C 12.742188 -12.296875 13.015625 -12.171875 13.140625 -11.921875 C 13.265625 -11.671875 13.328125 -11.363281 13.328125 -11 C 13.328125 -10.144531 13.03125 -9.179688 12.4375 -8.109375 C 11.84375 -7.046875 11.101562 -6.070312 10.21875 -5.1875 C 8.382812 -3.332031 6.671875 -1.953125 5.078125 -1.046875 C 3.492188 -0.148438 2.050781 0.296875 0.75 0.296875 C 0.21875 0.296875 -0.195312 0.171875 -0.5 -0.078125 C -0.695312 -0.242188 -0.804688 -0.457031 -0.828125 -0.71875 C -0.859375 -0.988281 -0.804688 -1.132812 -0.671875 -1.15625 C -0.554688 -1.1875 -0.476562 -1.160156 -0.4375 -1.078125 C -0.394531 -0.992188 -0.359375 -0.910156 -0.328125 -0.828125 C -0.273438 -0.722656 -0.1875 -0.613281 -0.0625 -0.5 C 0.0625 -0.382812 0.265625 -0.328125 0.546875 -0.328125 C 1.066406 -0.328125 1.625 -0.476562 2.21875 -0.78125 C 2.8125 -1.09375 3.578125 -1.679688 4.515625 -2.546875 C 5.460938 -3.421875 6.738281 -4.675781 8.34375 -6.3125 C 8.875 -6.84375 9.441406 -7.425781 10.046875 -8.0625 C 10.660156 -8.695312 11.1875 -9.300781 11.625 -9.875 C 12.070312 -10.457031 12.296875 -10.890625 12.296875 -11.171875 C 12.296875 -11.390625 12.15625 -11.5 11.875 -11.5 C 11.457031 -11.5 10.8125 -11.253906 9.9375 -10.765625 C 9.070312 -10.285156 8.113281 -9.648438 7.0625 -8.859375 C 6.007812 -8.078125 4.960938 -7.226562 3.921875 -6.3125 C 2.890625 -5.394531 1.96875 -4.535156 1.15625 -3.734375 C -0.78125 -1.796875 -2.820312 0.359375 -4.96875 2.734375 C -7.113281 5.117188 -9.347656 7.914062 -11.671875 11.125 C -11.921875 11.488281 -12.140625 11.804688 -12.328125 12.078125 C -12.523438 12.359375 -12.679688 12.5 -12.796875 12.5 C -12.960938 12.5 -13.035156 12.328125 -13.015625 11.984375 C -13.003906 11.640625 -12.957031 11.328125 -12.875 11.046875 C -12.65625 10.273438 -12.113281 9.238281 -11.25 7.9375 C -10.394531 6.632812 -9.375 5.25 -8.1875 3.78125 C -6.800781 2.09375 -5.414062 0.488281 -4.03125 -1.03125 C -2.644531 -2.5625 -1.382812 -3.914062 -0.25 -5.09375 C 0.882812 -6.269531 1.769531 -7.175781 2.40625 -7.8125 C 3.070312 -8.46875 3.894531 -9.257812 4.875 -10.1875 C 5.863281 -11.125 6.863281 -12.019531 7.875 -12.875 C 8.882812 -13.726562 9.734375 -14.40625 10.421875 -14.90625 C 10.722656 -15.125 11.035156 -15.316406 11.359375 -15.484375 C 11.679688 -15.648438 11.976562 -15.765625 12.25 -15.828125 C 12.46875 -15.878906 12.695312 -15.90625 12.9375 -15.90625 C 13.175781 -15.90625 13.378906 -15.890625 13.546875 -15.859375 Z M 13.546875 -15.859375 "></path></g></g></g><g fill="#000000" fill-opacity="1"><g transform="translate(198.048393, 31.530744)"><g><path d="M 11.84375 -6.140625 C 12.332031 -6.671875 12.898438 -7.238281 13.546875 -7.84375 C 14.203125 -8.457031 14.878906 -9.054688 15.578125 -9.640625 C 14.941406 -9.359375 14.34375 -9.097656 13.78125 -8.859375 C 13.226562 -8.628906 12.675781 -8.40625 12.125 -8.1875 C 11.601562 -7.988281 11.039062 -7.816406 10.4375 -7.671875 C 9.84375 -7.535156 9.1875 -7.382812 8.46875 -7.21875 C 8.851562 -6.914062 9.046875 -6.421875 9.046875 -5.734375 C 9.046875 -4.984375 8.796875 -4.28125 8.296875 -3.625 C 7.804688 -2.976562 7.242188 -2.421875 6.609375 -1.953125 C 5.554688 -1.117188 4.507812 -0.519531 3.46875 -0.15625 C 2.425781 0.195312 1.378906 0.375 0.328125 0.375 C -0.441406 0.375 -1.015625 0.207031 -1.390625 -0.125 C -1.765625 -0.457031 -1.953125 -0.882812 -1.953125 -1.40625 C -1.953125 -2.125 -1.726562 -2.820312 -1.28125 -3.5 C -0.84375 -4.1875 -0.164062 -5.039062 0.75 -6.0625 C 2.101562 -7.5625 3.359375 -8.773438 4.515625 -9.703125 C 5.679688 -10.628906 6.570312 -11.257812 7.1875 -11.59375 C 7.457031 -11.726562 7.851562 -11.84375 8.375 -11.9375 C 8.90625 -12.03125 9.367188 -12.078125 9.765625 -12.078125 C 8.710938 -11.222656 7.535156 -10.210938 6.234375 -9.046875 C 4.929688 -7.890625 3.722656 -6.6875 2.609375 -5.4375 C 1.617188 -4.332031 0.90625 -3.46875 0.46875 -2.84375 C 0.0390625 -2.21875 -0.222656 -1.757812 -0.328125 -1.46875 C -0.441406 -1.175781 -0.5 -0.953125 -0.5 -0.796875 C -0.5 -0.546875 -0.40625 -0.367188 -0.21875 -0.265625 C -0.0390625 -0.171875 0.140625 -0.125 0.328125 -0.125 C 0.796875 -0.125 1.488281 -0.375 2.40625 -0.875 C 3.320312 -1.375 4.5 -2.328125 5.9375 -3.734375 C 6.820312 -4.597656 7.378906 -5.222656 7.609375 -5.609375 C 7.847656 -5.992188 7.96875 -6.328125 7.96875 -6.609375 C 7.96875 -6.828125 7.859375 -6.960938 7.640625 -7.015625 C 7.441406 -6.960938 7.210938 -6.90625 6.953125 -6.84375 C 6.691406 -6.789062 6.4375 -6.765625 6.1875 -6.765625 C 5.664062 -6.765625 5.40625 -6.878906 5.40625 -7.109375 C 5.40625 -7.347656 5.601562 -7.507812 6 -7.59375 C 6.40625 -7.675781 6.734375 -7.71875 6.984375 -7.71875 C 7.117188 -7.71875 7.273438 -7.710938 7.453125 -7.703125 C 7.628906 -7.691406 7.773438 -7.65625 7.890625 -7.59375 C 9.773438 -8.007812 11.410156 -8.46875 12.796875 -8.96875 C 13.617188 -9.269531 14.457031 -9.632812 15.3125 -10.0625 C 16.175781 -10.5 17.148438 -11.019531 18.234375 -11.625 C 18.535156 -11.789062 18.921875 -11.90625 19.390625 -11.96875 C 19.859375 -12.039062 20.234375 -12.066406 20.515625 -12.046875 C 19.328125 -10.960938 18.164062 -9.875 17.03125 -8.78125 C 15.894531 -7.6875 14.882812 -6.664062 14 -5.71875 C 13.113281 -4.78125 12.421875 -4.023438 11.921875 -3.453125 C 11.421875 -2.835938 11.019531 -2.300781 10.71875 -1.84375 C 10.414062 -1.382812 10.265625 -1.003906 10.265625 -0.703125 C 10.265625 -0.429688 10.414062 -0.296875 10.71875 -0.296875 C 10.988281 -0.296875 11.351562 -0.40625 11.8125 -0.625 C 12.269531 -0.84375 12.738281 -1.101562 13.21875 -1.40625 C 13.707031 -1.71875 14.117188 -2 14.453125 -2.25 C 14.921875 -2.601562 15.425781 -3.007812 15.96875 -3.46875 C 16.507812 -3.925781 17.03125 -4.363281 17.53125 -4.78125 C 18.03125 -5.195312 18.414062 -5.523438 18.6875 -5.765625 C 18.988281 -6.015625 19.195312 -6.070312 19.3125 -5.9375 C 19.425781 -5.820312 19.382812 -5.671875 19.1875 -5.484375 C 18.820312 -5.179688 18.351562 -4.785156 17.78125 -4.296875 C 17.21875 -3.816406 16.664062 -3.347656 16.125 -2.890625 C 15.59375 -2.429688 15.160156 -2.078125 14.828125 -1.828125 C 14.128906 -1.328125 13.359375 -0.832031 12.515625 -0.34375 C 11.671875 0.132812 10.921875 0.375 10.265625 0.375 C 9.285156 0.375 8.796875 -0.0664062 8.796875 -0.953125 C 8.796875 -1.585938 9.066406 -2.363281 9.609375 -3.28125 C 10.148438 -4.195312 10.894531 -5.148438 11.84375 -6.140625 Z M 11.84375 -6.140625 "></path></g></g></g><g fill="#000000" fill-opacity="1"><g transform="translate(216.021929, 31.530744)"><g><path d="M 26.578125 -24.421875 C 27.546875 -24.941406 28.535156 -25.34375 29.546875 -25.625 C 30.554688 -25.90625 31.476562 -26.046875 32.3125 -26.046875 C 33.195312 -26.046875 33.867188 -26.015625 34.328125 -25.953125 C 34.785156 -25.898438 35.289062 -25.875 35.84375 -25.875 C 36.507812 -25.875 37.054688 -25.957031 37.484375 -26.125 C 37.910156 -26.289062 38.234375 -26.457031 38.453125 -26.625 C 39.035156 -27.039062 39.660156 -27.578125 40.328125 -28.234375 C 40.441406 -28.398438 40.550781 -28.457031 40.65625 -28.40625 C 40.738281 -28.375 40.765625 -28.300781 40.734375 -28.1875 C 40.710938 -28.082031 40.675781 -28.003906 40.625 -27.953125 C 40.207031 -27.398438 39.835938 -26.945312 39.515625 -26.59375 C 39.203125 -26.25 38.847656 -25.882812 38.453125 -25.5 C 37.847656 -24.914062 37.273438 -24.523438 36.734375 -24.328125 C 36.191406 -24.140625 35.601562 -24.046875 34.96875 -24.046875 C 34.28125 -24.046875 33.648438 -24.097656 33.078125 -24.203125 C 32.515625 -24.316406 31.648438 -24.375 30.484375 -24.375 C 29.316406 -24.375 28.082031 -24.128906 26.78125 -23.640625 C 25.476562 -23.160156 24.265625 -22.394531 23.140625 -21.34375 C 22.304688 -20.59375 21.5625 -19.859375 20.90625 -19.140625 C 20.257812 -18.421875 19.585938 -17.644531 18.890625 -16.8125 C 18.203125 -15.988281 17.414062 -15.050781 16.53125 -14 C 15.644531 -12.945312 14.578125 -11.710938 13.328125 -10.296875 C 10.253906 -6.867188 7.625 -4.234375 5.4375 -2.390625 C 3.25 -0.546875 1.503906 0.375 0.203125 0.375 C -0.398438 0.375 -0.878906 0.207031 -1.234375 -0.125 C -1.597656 -0.457031 -1.78125 -0.941406 -1.78125 -1.578125 C -1.78125 -2.347656 -1.503906 -3.257812 -0.953125 -4.3125 C -0.398438 -5.363281 0.382812 -6.414062 1.40625 -7.46875 C 2.375 -8.4375 3.40625 -9.28125 4.5 -10 C 5.59375 -10.726562 6.648438 -11.289062 7.671875 -11.6875 C 8.703125 -12.09375 9.578125 -12.296875 10.296875 -12.296875 C 10.679688 -12.296875 11.039062 -12.210938 11.375 -12.046875 C 11.707031 -11.878906 11.875 -11.5625 11.875 -11.09375 C 11.875 -10.726562 11.738281 -10.285156 11.46875 -9.765625 C 12.289062 -10.753906 13.015625 -11.609375 13.640625 -12.328125 C 14.265625 -13.054688 14.847656 -13.726562 15.390625 -14.34375 C 15.929688 -14.96875 16.488281 -15.613281 17.0625 -16.28125 C 18.113281 -17.46875 19.101562 -18.53125 20.03125 -19.46875 C 20.96875 -20.414062 21.953125 -21.289062 22.984375 -22.09375 C 24.023438 -22.894531 25.222656 -23.671875 26.578125 -24.421875 Z M 11.21875 -11.25 C 11.21875 -11.5625 11.050781 -11.71875 10.71875 -11.71875 C 10.050781 -11.71875 9.019531 -11.179688 7.625 -10.109375 C 6.226562 -9.046875 4.671875 -7.640625 2.953125 -5.890625 C 2.003906 -4.867188 1.171875 -3.90625 0.453125 -3 C -0.265625 -2.101562 -0.625 -1.394531 -0.625 -0.875 C -0.625 -0.707031 -0.582031 -0.546875 -0.5 -0.390625 C -0.414062 -0.242188 -0.234375 -0.171875 0.046875 -0.171875 C 0.648438 -0.171875 1.644531 -0.726562 3.03125 -1.84375 C 4.414062 -2.96875 5.953125 -4.398438 7.640625 -6.140625 C 8.109375 -6.640625 8.617188 -7.210938 9.171875 -7.859375 C 9.734375 -8.515625 10.210938 -9.15625 10.609375 -9.78125 C 11.015625 -10.40625 11.21875 -10.894531 11.21875 -11.25 Z M 11.21875 -11.25 "></path></g></g></g><g fill="#000000" fill-opacity="1"><g transform="translate(227.229449, 31.530744)"><g><path d="M 11.84375 -6.140625 C 12.332031 -6.671875 12.898438 -7.238281 13.546875 -7.84375 C 14.203125 -8.457031 14.878906 -9.054688 15.578125 -9.640625 C 14.941406 -9.359375 14.34375 -9.097656 13.78125 -8.859375 C 13.226562 -8.628906 12.675781 -8.40625 12.125 -8.1875 C 11.601562 -7.988281 11.039062 -7.816406 10.4375 -7.671875 C 9.84375 -7.535156 9.1875 -7.382812 8.46875 -7.21875 C 8.851562 -6.914062 9.046875 -6.421875 9.046875 -5.734375 C 9.046875 -4.984375 8.796875 -4.28125 8.296875 -3.625 C 7.804688 -2.976562 7.242188 -2.421875 6.609375 -1.953125 C 5.554688 -1.117188 4.507812 -0.519531 3.46875 -0.15625 C 2.425781 0.195312 1.378906 0.375 0.328125 0.375 C -0.441406 0.375 -1.015625 0.207031 -1.390625 -0.125 C -1.765625 -0.457031 -1.953125 -0.882812 -1.953125 -1.40625 C -1.953125 -2.125 -1.726562 -2.820312 -1.28125 -3.5 C -0.84375 -4.1875 -0.164062 -5.039062 0.75 -6.0625 C 2.101562 -7.5625 3.359375 -8.773438 4.515625 -9.703125 C 5.679688 -10.628906 6.570312 -11.257812 7.1875 -11.59375 C 7.457031 -11.726562 7.851562 -11.84375 8.375 -11.9375 C 8.90625 -12.03125 9.367188 -12.078125 9.765625 -12.078125 C 8.710938 -11.222656 7.535156 -10.210938 6.234375 -9.046875 C 4.929688 -7.890625 3.722656 -6.6875 2.609375 -5.4375 C 1.617188 -4.332031 0.90625 -3.46875 0.46875 -2.84375 C 0.0390625 -2.21875 -0.222656 -1.757812 -0.328125 -1.46875 C -0.441406 -1.175781 -0.5 -0.953125 -0.5 -0.796875 C -0.5 -0.546875 -0.40625 -0.367188 -0.21875 -0.265625 C -0.0390625 -0.171875 0.140625 -0.125 0.328125 -0.125 C 0.796875 -0.125 1.488281 -0.375 2.40625 -0.875 C 3.320312 -1.375 4.5 -2.328125 5.9375 -3.734375 C 6.820312 -4.597656 7.378906 -5.222656 7.609375 -5.609375 C 7.847656 -5.992188 7.96875 -6.328125 7.96875 -6.609375 C 7.96875 -6.828125 7.859375 -6.960938 7.640625 -7.015625 C 7.441406 -6.960938 7.210938 -6.90625 6.953125 -6.84375 C 6.691406 -6.789062 6.4375 -6.765625 6.1875 -6.765625 C 5.664062 -6.765625 5.40625 -6.878906 5.40625 -7.109375 C 5.40625 -7.347656 5.601562 -7.507812 6 -7.59375 C 6.40625 -7.675781 6.734375 -7.71875 6.984375 -7.71875 C 7.117188 -7.71875 7.273438 -7.710938 7.453125 -7.703125 C 7.628906 -7.691406 7.773438 -7.65625 7.890625 -7.59375 C 9.773438 -8.007812 11.410156 -8.46875 12.796875 -8.96875 C 13.617188 -9.269531 14.457031 -9.632812 15.3125 -10.0625 C 16.175781 -10.5 17.148438 -11.019531 18.234375 -11.625 C 18.535156 -11.789062 18.921875 -11.90625 19.390625 -11.96875 C 19.859375 -12.039062 20.234375 -12.066406 20.515625 -12.046875 C 19.328125 -10.960938 18.164062 -9.875 17.03125 -8.78125 C 15.894531 -7.6875 14.882812 -6.664062 14 -5.71875 C 13.113281 -4.78125 12.421875 -4.023438 11.921875 -3.453125 C 11.421875 -2.835938 11.019531 -2.300781 10.71875 -1.84375 C 10.414062 -1.382812 10.265625 -1.003906 10.265625 -0.703125 C 10.265625 -0.429688 10.414062 -0.296875 10.71875 -0.296875 C 10.988281 -0.296875 11.351562 -0.40625 11.8125 -0.625 C 12.269531 -0.84375 12.738281 -1.101562 13.21875 -1.40625 C 13.707031 -1.71875 14.117188 -2 14.453125 -2.25 C 14.921875 -2.601562 15.425781 -3.007812 15.96875 -3.46875 C 16.507812 -3.925781 17.03125 -4.363281 17.53125 -4.78125 C 18.03125 -5.195312 18.414062 -5.523438 18.6875 -5.765625 C 18.988281 -6.015625 19.195312 -6.070312 19.3125 -5.9375 C 19.425781 -5.820312 19.382812 -5.671875 19.1875 -5.484375 C 18.820312 -5.179688 18.351562 -4.785156 17.78125 -4.296875 C 17.21875 -3.816406 16.664062 -3.347656 16.125 -2.890625 C 15.59375 -2.429688 15.160156 -2.078125 14.828125 -1.828125 C 14.128906 -1.328125 13.359375 -0.832031 12.515625 -0.34375 C 11.671875 0.132812 10.921875 0.375 10.265625 0.375 C 9.285156 0.375 8.796875 -0.0664062 8.796875 -0.953125 C 8.796875 -1.585938 9.066406 -2.363281 9.609375 -3.28125 C 10.148438 -4.195312 10.894531 -5.148438 11.84375 -6.140625 Z M 11.84375 -6.140625 "></path></g></g></g><g fill="#000000" fill-opacity="1"><g transform="translate(245.202985, 31.530744)"><g><path d="M -14.5 11.921875 C -15.800781 11.921875 -17.019531 11.722656 -18.15625 11.328125 C -19.289062 10.941406 -20.238281 10.382812 -21 9.65625 C -21.757812 8.925781 -22.25 8.035156 -22.46875 6.984375 C -22.601562 6.316406 -22.535156 5.953125 -22.265625 5.890625 C -22.148438 5.835938 -22.070312 5.894531 -22.03125 6.0625 C -21.988281 6.226562 -21.953125 6.394531 -21.921875 6.5625 C -21.703125 7.582031 -21.21875 8.4375 -20.46875 9.125 C -19.726562 9.820312 -18.84375 10.34375 -17.8125 10.6875 C -16.789062 11.039062 -15.753906 11.21875 -14.703125 11.21875 C -13.035156 11.21875 -11.472656 11 -10.015625 10.5625 C -8.566406 10.132812 -7.273438 9.609375 -6.140625 8.984375 C -5.003906 8.367188 -4.066406 7.78125 -3.328125 7.21875 C -2.046875 6.25 -1.023438 5.210938 -0.265625 4.109375 C 0.492188 3.003906 0.875 2.0625 0.875 1.28125 C 0.875 0.894531 0.78125 0.59375 0.59375 0.375 C 0.414062 0.15625 0.21875 0.015625 0 -0.046875 C -0.363281 0.0351562 -0.804688 0.113281 -1.328125 0.1875 C -1.859375 0.257812 -2.257812 0.296875 -2.53125 0.296875 C -2.75 0.296875 -2.945312 0.273438 -3.125 0.234375 C -3.3125 0.191406 -3.40625 0.0976562 -3.40625 -0.046875 C -3.40625 -0.234375 -3.28125 -0.375 -3.03125 -0.46875 C -2.78125 -0.570312 -2.503906 -0.644531 -2.203125 -0.6875 C -1.898438 -0.726562 -1.664062 -0.75 -1.5 -0.75 C -0.800781 -0.75 -0.21875 -0.648438 0.25 -0.453125 C 0.914062 -0.535156 1.675781 -0.875 2.53125 -1.46875 C 3.394531 -2.070312 4.300781 -2.84375 5.25 -3.78125 C 6.207031 -4.71875 7.144531 -5.726562 8.0625 -6.8125 C 8.613281 -7.445312 9.128906 -8.164062 9.609375 -8.96875 C 10.097656 -9.769531 10.34375 -10.394531 10.34375 -10.84375 C 10.34375 -11.28125 10.117188 -11.5 9.671875 -11.5 C 9.285156 -11.5 8.804688 -11.351562 8.234375 -11.0625 C 7.671875 -10.769531 7.070312 -10.390625 6.4375 -9.921875 C 5.414062 -9.148438 4.378906 -8.300781 3.328125 -7.375 C 2.273438 -6.445312 1.390625 -5.664062 0.671875 -5.03125 C 0.554688 -4.945312 0.425781 -4.863281 0.28125 -4.78125 C 0.144531 -4.695312 0.0507812 -4.679688 0 -4.734375 C -0.164062 -4.898438 -0.140625 -5.066406 0.078125 -5.234375 C 1.128906 -6.148438 2.15625 -7.050781 3.15625 -7.9375 C 4.15625 -8.820312 5.015625 -9.554688 5.734375 -10.140625 C 6.953125 -11.109375 7.898438 -11.703125 8.578125 -11.921875 C 9.253906 -12.140625 9.785156 -12.25 10.171875 -12.25 C 10.585938 -12.25 10.953125 -12.109375 11.265625 -11.828125 C 11.585938 -11.554688 11.75 -11.101562 11.75 -10.46875 C 11.75 -9.851562 11.625 -9.226562 11.375 -8.59375 C 11.125 -7.957031 10.835938 -7.375 10.515625 -6.84375 C 10.203125 -6.320312 9.910156 -5.910156 9.640625 -5.609375 C 8.554688 -4.335938 7.285156 -3.21875 5.828125 -2.25 C 4.378906 -1.28125 2.710938 -0.597656 0.828125 -0.203125 C 2.015625 0.179688 2.609375 0.941406 2.609375 2.078125 C 2.609375 3.078125 2.203125 4.085938 1.390625 5.109375 C 0.578125 6.128906 -0.394531 7.082031 -1.53125 7.96875 C -3.082031 9.164062 -5.015625 10.125 -7.328125 10.84375 C -9.640625 11.5625 -12.03125 11.921875 -14.5 11.921875 Z M -14.5 11.921875 "></path></g></g></g></g></g></svg> 