<?xml version="1.0" encoding="UTF-8"?> <svg xmlns="http://www.w3.org/2000/svg" xmlns:xlink="http://www.w3.org/1999/xlink" width="360" zoomAndPan="magnify" viewBox="0 0 270 359.999987" height="480" preserveAspectRatio="xMidYMid meet" version="1.0"><defs><g></g><clipPath id="153b87ebb4"><path d="M 171.886719 201.582031 L 172.296875 201.582031 L 172.296875 201.863281 L 171.886719 201.863281 Z M 171.886719 201.582031 " clip-rule="nonzero"></path></clipPath><clipPath id="18b4a888c2"><path d="M 172.273438 201.75 C 171.523438 202.050781 172.125 201.601562 172.125 201.601562 " clip-rule="nonzero"></path></clipPath><clipPath id="26158492ab"><path d="M 0.886719 0.582031 L 1.296875 0.582031 L 1.296875 0.863281 L 0.886719 0.863281 Z M 0.886719 0.582031 " clip-rule="nonzero"></path></clipPath><clipPath id="c2201f51a4"><path d="M 1.273438 0.75 C 0.523438 1.050781 1.125 0.601562 1.125 0.601562 " clip-rule="nonzero"></path></clipPath><clipPath id="a583c3ad97"><rect x="0" width="2" y="0" height="1"></rect></clipPath><clipPath id="40c2599159"><path d="M 37.9375 158.929688 L 41.804688 158.929688 L 41.804688 159.835938 L 37.9375 159.835938 Z M 37.9375 158.929688 " clip-rule="nonzero"></path></clipPath><clipPath id="e025772f46"><path d="M 37.949219 159.300781 C 40.273438 158.324219 41.851562 159.601562 41.773438 159.75 C 41.699219 160.050781 37.949219 159.300781 37.949219 159.300781 " clip-rule="nonzero"></path></clipPath><clipPath id="54f44f17be"><path d="M 0.9375 0.929688 L 4.804688 0.929688 L 4.804688 1.835938 L 0.9375 1.835938 Z M 0.9375 0.929688 " clip-rule="nonzero"></path></clipPath><clipPath id="494de8c85c"><path d="M 0.949219 1.300781 C 3.273438 0.324219 4.851562 1.601562 4.773438 1.75 C 4.699219 2.050781 0.949219 1.300781 0.949219 1.300781 " clip-rule="nonzero"></path></clipPath><clipPath id="749c5a936f"><rect x="0" width="5" y="0" height="2"></rect></clipPath><clipPath id="affc36dd10"><path d="M 78.0625 176.757812 L 78.472656 176.757812 L 78.472656 177 L 78.0625 177 Z M 78.0625 176.757812 " clip-rule="nonzero"></path></clipPath><clipPath id="6bb3902e06"><path d="M 78.449219 176.925781 C 77.699219 177.148438 78.300781 176.773438 78.300781 176.773438 " clip-rule="nonzero"></path></clipPath><clipPath id="13c862eacf"><path d="M 0.0625 0.757812 L 0.472656 0.757812 L 0.472656 1 L 0.0625 1 Z M 0.0625 0.757812 " clip-rule="nonzero"></path></clipPath><clipPath id="40354fe332"><path d="M 0.449219 0.925781 C -0.300781 1.148438 0.300781 0.773438 0.300781 0.773438 " clip-rule="nonzero"></path></clipPath><clipPath id="3b3d3bbce1"><rect x="0" width="1" y="0" height="1"></rect></clipPath><clipPath id="4f3fca4824"><path d="M 0.0625 0.757812 L 0.472656 0.757812 L 0.472656 1 L 0.0625 1 Z M 0.0625 0.757812 " clip-rule="nonzero"></path></clipPath><clipPath id="fe89950239"><path d="M 0.449219 0.925781 C -0.300781 1.148438 0.300781 0.773438 0.300781 0.773438 " clip-rule="nonzero"></path></clipPath><clipPath id="c2808e56eb"><rect x="0" width="1" y="0" height="1"></rect></clipPath><clipPath id="447699f1ab"><rect x="0" width="254" y="0" height="56"></rect></clipPath></defs><g clip-path="url(#153b87ebb4)"><g clip-path="url(#18b4a888c2)"><g transform="matrix(1, 0, 0, 1, 171, 201)"><g clip-path="url(#a583c3ad97)"><g clip-path="url(#26158492ab)"><g clip-path="url(#c2201f51a4)"><rect x="-230.4" width="388.8" fill="#492c01" height="518.399981" y="-280.199997" fill-opacity="1"></rect></g></g></g></g></g></g><g clip-path="url(#40c2599159)"><g clip-path="url(#e025772f46)"><g transform="matrix(1, 0, 0, 1, 37, 158)"><g clip-path="url(#749c5a936f)"><g clip-path="url(#54f44f17be)"><g clip-path="url(#494de8c85c)"><rect x="-96.4" width="388.8" fill="#492c01" height="518.399981" y="-237.199997" fill-opacity="1"></rect></g></g></g></g></g></g><g clip-path="url(#affc36dd10)"><g clip-path="url(#6bb3902e06)"><g transform="matrix(1, 0, 0, 1, 78, 176)"><g clip-path="url(#3b3d3bbce1)"><g clip-path="url(#13c862eacf)"><g clip-path="url(#40354fe332)"><rect x="-137.4" width="388.8" fill="#492c01" height="518.399981" y="-255.199997" fill-opacity="1"></rect></g></g></g></g><g transform="matrix(1, 0, 0, 1, 78, 176)"><g clip-path="url(#c2808e56eb)"><g clip-path="url(#4f3fca4824)"><g clip-path="url(#fe89950239)"><rect x="-137.4" width="388.8" fill="#492c01" height="518.399981" y="-255.199997" fill-opacity="1"></rect></g></g></g></g></g></g><g transform="matrix(1, 0, 0, 1, 9, 161)"><g clip-path="url(#447699f1ab)"><g fill="#492c01" fill-opacity="1"><g transform="translate(0.878789, 36.738868)"><g><path d="M 55.578125 -14.84375 C 57.671875 -17.0625 59.679688 -19.054688 61.609375 -20.828125 C 63.535156 -22.597656 65.300781 -24.054688 66.90625 -25.203125 C 65.945312 -25.234375 64.773438 -25.300781 63.390625 -25.40625 C 62.003906 -25.507812 60.628906 -25.640625 59.265625 -25.796875 C 57.847656 -24.472656 56.597656 -23.269531 55.515625 -22.1875 C 54.441406 -21.113281 53.421875 -20.0625 52.453125 -19.03125 C 51.484375 -18 50.488281 -16.910156 49.46875 -15.765625 C 48.445312 -14.628906 47.304688 -13.332031 46.046875 -11.875 C 45.335938 -11.050781 44.488281 -10.0625 43.5 -8.90625 C 42.519531 -7.75 41.519531 -6.519531 40.5 -5.21875 C 39.476562 -3.925781 38.570312 -2.679688 37.78125 -1.484375 C 37.53125 -1.078125 37.257812 -0.617188 36.96875 -0.109375 C 36.675781 0.390625 36.40625 0.90625 36.15625 1.4375 C 35.507812 1.4375 35.1875 1.003906 35.1875 0.140625 C 35.1875 -0.691406 35.523438 -1.691406 36.203125 -2.859375 C 36.566406 -3.484375 37.054688 -4.207031 37.671875 -5.03125 C 38.296875 -5.863281 38.976562 -6.726562 39.71875 -7.625 C 40.457031 -8.519531 41.171875 -9.367188 41.859375 -10.171875 C 42.554688 -10.972656 43.148438 -11.632812 43.640625 -12.15625 C 44.378906 -12.988281 45.296875 -13.984375 46.390625 -15.140625 C 47.484375 -16.296875 48.660156 -17.519531 49.921875 -18.8125 C 51.191406 -20.113281 52.46875 -21.382812 53.75 -22.625 C 55.03125 -23.875 56.222656 -25.007812 57.328125 -26.03125 C 56.035156 -26.1875 54.816406 -26.347656 53.671875 -26.515625 C 52.535156 -26.679688 51.628906 -26.8125 50.953125 -26.90625 C 49.285156 -25.332031 47.566406 -23.601562 45.796875 -21.71875 C 44.023438 -19.84375 42.304688 -18.007812 40.640625 -16.21875 C 38.972656 -14.4375 37.460938 -12.851562 36.109375 -11.46875 C 33.085938 -8.382812 30.132812 -5.71875 27.25 -3.46875 C 24.375 -1.21875 21.492188 0.515625 18.609375 1.734375 C 15.722656 2.953125 12.722656 3.5625 9.609375 3.5625 C 8.347656 3.5625 7.160156 3.382812 6.046875 3.03125 C 4.941406 2.675781 4.050781 2.066406 3.375 1.203125 C 2.695312 0.335938 2.359375 -0.847656 2.359375 -2.359375 C 2.359375 -3.773438 2.648438 -5.164062 3.234375 -6.53125 C 3.816406 -7.90625 4.539062 -9.210938 5.40625 -10.453125 C 5.132812 -10.691406 4.757812 -11.144531 4.28125 -11.8125 C 3.800781 -12.476562 3.5625 -13.597656 3.5625 -15.171875 C 3.5625 -16.796875 4 -18.492188 4.875 -20.265625 C 5.757812 -22.046875 7.175781 -23.707031 9.125 -25.25 C 11.082031 -26.789062 13.65625 -28.046875 16.84375 -29.015625 C 20.039062 -29.984375 23.96875 -30.46875 28.625 -30.46875 C 32.195312 -30.46875 35.789062 -30.25 39.40625 -29.8125 C 43.03125 -29.382812 46.816406 -28.816406 50.765625 -28.109375 C 51.191406 -28.453125 51.691406 -28.789062 52.265625 -29.125 C 52.835938 -29.46875 53.460938 -29.757812 54.140625 -30 C 54.265625 -30.0625 54.429688 -30.113281 54.640625 -30.15625 C 54.859375 -30.207031 55.03125 -30.234375 55.15625 -30.234375 C 55.3125 -30.234375 55.390625 -30.1875 55.390625 -30.09375 C 55.390625 -29.96875 55.316406 -29.882812 55.171875 -29.84375 C 55.035156 -29.800781 54.847656 -29.734375 54.609375 -29.640625 C 54.109375 -29.453125 53.625 -29.195312 53.15625 -28.875 C 52.695312 -28.550781 52.285156 -28.21875 51.921875 -27.875 C 52.566406 -27.75 53.46875 -27.601562 54.625 -27.4375 C 55.78125 -27.269531 57.019531 -27.09375 58.34375 -26.90625 C 58.988281 -27.394531 59.46875 -27.640625 59.78125 -27.640625 C 60.03125 -27.640625 60.15625 -27.503906 60.15625 -27.234375 C 60.15625 -27.015625 60.078125 -26.828125 59.921875 -26.671875 C 61.304688 -26.492188 62.695312 -26.332031 64.09375 -26.1875 C 65.5 -26.050781 66.742188 -25.953125 67.828125 -25.890625 C 68.992188 -26.597656 70.269531 -27.191406 71.65625 -27.671875 C 73.050781 -28.148438 74.425781 -28.390625 75.78125 -28.390625 C 77.257812 -28.390625 78.28125 -28.195312 78.84375 -27.8125 C 79.414062 -27.425781 79.703125 -27 79.703125 -26.53125 C 79.703125 -26.101562 79.441406 -25.710938 78.921875 -25.359375 C 78.398438 -25.003906 77.367188 -24.828125 75.828125 -24.828125 C 74.523438 -24.828125 73.25 -24.859375 72 -24.921875 C 70.757812 -24.984375 69.660156 -25.046875 68.703125 -25.109375 C 67.503906 -24.242188 66.171875 -23.109375 64.703125 -21.703125 C 63.242188 -20.304688 61.773438 -18.796875 60.296875 -17.171875 C 58.816406 -15.554688 57.441406 -14.007812 56.171875 -12.53125 C 54.109375 -10.09375 52.375 -7.992188 50.96875 -6.234375 C 49.570312 -4.484375 48.425781 -3.003906 47.53125 -1.796875 C 46.945312 -0.992188 46.484375 -0.347656 46.140625 0.140625 C 45.804688 0.628906 45.46875 0.875 45.125 0.875 C 44.726562 0.875 44.535156 0.632812 44.546875 0.15625 C 44.554688 -0.320312 44.671875 -0.789062 44.890625 -1.25 C 45.535156 -2.570312 46.441406 -4.019531 47.609375 -5.59375 C 48.785156 -7.164062 50.070312 -8.753906 51.46875 -10.359375 C 52.875 -11.960938 54.242188 -13.457031 55.578125 -14.84375 Z M 49.609375 -27.140625 C 46.273438 -27.597656 42.875 -27.992188 39.40625 -28.328125 C 35.945312 -28.671875 32.335938 -28.84375 28.578125 -28.84375 C 24.222656 -28.84375 20.503906 -28.4375 17.421875 -27.625 C 14.347656 -26.8125 11.835938 -25.738281 9.890625 -24.40625 C 7.953125 -23.082031 6.523438 -21.625 5.609375 -20.03125 C 4.703125 -18.445312 4.25 -16.882812 4.25 -15.34375 C 4.25 -14.207031 4.394531 -13.257812 4.6875 -12.5 C 4.976562 -11.75 5.3125 -11.1875 5.6875 -10.8125 C 6.488281 -11.832031 7.40625 -12.828125 8.4375 -13.796875 C 9.46875 -14.765625 10.601562 -15.679688 11.84375 -16.546875 C 13.101562 -17.410156 14.535156 -18.210938 16.140625 -18.953125 C 17.742188 -19.691406 19.421875 -20.289062 21.171875 -20.75 C 22.929688 -21.21875 24.628906 -21.453125 26.265625 -21.453125 C 27.273438 -21.453125 28.21875 -21.328125 29.09375 -21.078125 C 29.976562 -20.835938 30.691406 -20.421875 31.234375 -19.828125 C 31.773438 -19.242188 32.046875 -18.429688 32.046875 -17.390625 C 32.046875 -16.953125 32 -16.664062 31.90625 -16.53125 C 31.8125 -16.394531 31.734375 -16.328125 31.671875 -16.328125 C 31.546875 -16.328125 31.488281 -16.425781 31.5 -16.625 C 31.519531 -16.820312 31.515625 -17.078125 31.484375 -17.390625 C 31.421875 -18.367188 31.003906 -19.179688 30.234375 -19.828125 C 29.460938 -20.484375 28.367188 -20.8125 26.953125 -20.8125 C 25.503906 -20.8125 23.925781 -20.507812 22.21875 -19.90625 C 20.507812 -19.300781 18.851562 -18.554688 17.25 -17.671875 C 15.644531 -16.796875 14.222656 -15.914062 12.984375 -15.03125 C 12.066406 -14.351562 11.035156 -13.539062 9.890625 -12.59375 C 8.753906 -11.65625 7.675781 -10.625 6.65625 -9.5 C 5.632812 -8.375 4.789062 -7.191406 4.125 -5.953125 C 3.46875 -4.722656 3.140625 -3.476562 3.140625 -2.21875 C 3.140625 -0.894531 3.441406 0.125 4.046875 0.84375 C 4.648438 1.570312 5.4375 2.082031 6.40625 2.375 C 7.375 2.664062 8.382812 2.8125 9.4375 2.8125 C 11.34375 2.8125 13.304688 2.394531 15.328125 1.5625 C 17.347656 0.738281 19.394531 -0.378906 21.46875 -1.796875 C 23.550781 -3.222656 25.632812 -4.835938 27.71875 -6.640625 C 29.800781 -8.441406 31.859375 -10.3125 33.890625 -12.25 C 36.722656 -14.875 39.460938 -17.507812 42.109375 -20.15625 C 44.765625 -22.8125 47.265625 -25.140625 49.609375 -27.140625 Z M 76.109375 -25.421875 C 78.140625 -25.421875 79.15625 -25.789062 79.15625 -26.53125 C 79.15625 -27.425781 78.03125 -27.875 75.78125 -27.875 C 74.789062 -27.875 73.738281 -27.671875 72.625 -27.265625 C 71.519531 -26.867188 70.472656 -26.363281 69.484375 -25.75 C 70.441406 -25.65625 71.5 -25.578125 72.65625 -25.515625 C 73.8125 -25.453125 74.960938 -25.421875 76.109375 -25.421875 Z M 76.109375 -25.421875 "></path></g></g></g><g fill="#492c01" fill-opacity="1"><g transform="translate(54.873786, 36.738868)"><g><path d="M 11.46875 -13.6875 C 12.632812 -13.6875 13.21875 -13.238281 13.21875 -12.34375 C 13.21875 -11.664062 12.878906 -10.75 12.203125 -9.59375 C 11.523438 -8.4375 10.460938 -7.132812 9.015625 -5.6875 C 7.160156 -3.800781 5.414062 -2.3125 3.78125 -1.21875 C 2.15625 -0.125 0.878906 0.421875 -0.046875 0.421875 C -1.367188 0.421875 -2.03125 -0.300781 -2.03125 -1.75 C -2.03125 -2.582031 -1.710938 -3.59375 -1.078125 -4.78125 C -0.453125 -5.96875 0.429688 -7.148438 1.578125 -8.328125 C 2.648438 -9.398438 3.785156 -10.335938 4.984375 -11.140625 C 6.191406 -11.941406 7.363281 -12.566406 8.5 -13.015625 C 9.644531 -13.460938 10.632812 -13.6875 11.46875 -13.6875 Z M 12.484375 -12.53125 C 12.484375 -12.863281 12.296875 -13.03125 11.921875 -13.03125 C 11.210938 -13.03125 10.070312 -12.4375 8.5 -11.25 C 6.9375 -10.070312 5.195312 -8.507812 3.28125 -6.5625 C 2.226562 -5.425781 1.296875 -4.347656 0.484375 -3.328125 C -0.328125 -2.304688 -0.734375 -1.503906 -0.734375 -0.921875 C -0.734375 -0.398438 -0.488281 -0.140625 0 -0.140625 C 0.707031 -0.140625 1.832031 -0.769531 3.375 -2.03125 C 4.914062 -3.300781 6.625 -4.90625 8.5 -6.84375 C 9.03125 -7.394531 9.601562 -8.03125 10.21875 -8.75 C 10.832031 -9.476562 11.363281 -10.1875 11.8125 -10.875 C 12.257812 -11.570312 12.484375 -12.125 12.484375 -12.53125 Z M 12.484375 -12.53125 "></path></g></g></g><g fill="#492c01" fill-opacity="1"><g transform="translate(66.800765, 36.738868)"><g><path d="M 20.34375 -18.625 C 20.46875 -18.625 20.53125 -18.566406 20.53125 -18.453125 C 20.53125 -18.421875 20.484375 -18.328125 20.390625 -18.171875 C 19.523438 -17.367188 18.503906 -16.617188 17.328125 -15.921875 C 16.160156 -15.234375 14.882812 -14.890625 13.5 -14.890625 C 11.738281 -14.890625 10.859375 -15.535156 10.859375 -16.828125 C 10.859375 -17.316406 11.035156 -17.738281 11.390625 -18.09375 C 11.742188 -18.445312 12.078125 -18.625 12.390625 -18.625 C 12.515625 -18.625 12.578125 -18.582031 12.578125 -18.5 C 12.578125 -18.46875 12.535156 -18.375 12.453125 -18.21875 C 12.378906 -18.0625 12.34375 -17.859375 12.34375 -17.609375 C 12.34375 -17.117188 12.535156 -16.75 12.921875 -16.5 C 13.304688 -16.257812 13.804688 -16.140625 14.421875 -16.140625 C 15.503906 -16.140625 16.566406 -16.421875 17.609375 -16.984375 C 18.660156 -17.554688 19.476562 -18.078125 20.0625 -18.546875 C 20.1875 -18.597656 20.28125 -18.625 20.34375 -18.625 Z M 17.75 -13.5 C 16.425781 -12.300781 15.15625 -11.082031 13.9375 -9.84375 C 12.71875 -8.613281 11.628906 -7.484375 10.671875 -6.453125 C 9.722656 -5.421875 8.972656 -4.566406 8.421875 -3.890625 C 7.859375 -3.203125 7.375 -2.585938 6.96875 -2.046875 C 6.570312 -1.515625 6.375 -1.109375 6.375 -0.828125 C 6.375 -0.554688 6.53125 -0.421875 6.84375 -0.421875 C 7.15625 -0.421875 7.5625 -0.554688 8.0625 -0.828125 C 8.570312 -1.109375 9.085938 -1.441406 9.609375 -1.828125 C 10.140625 -2.210938 10.570312 -2.53125 10.90625 -2.78125 C 11.644531 -3.394531 12.421875 -4.046875 13.234375 -4.734375 C 14.054688 -5.429688 14.773438 -6.039062 15.390625 -6.5625 C 15.515625 -6.625 15.625 -6.675781 15.71875 -6.71875 C 15.8125 -6.769531 15.90625 -6.75 16 -6.65625 C 16.15625 -6.5 16.109375 -6.332031 15.859375 -6.15625 C 15.429688 -5.78125 14.929688 -5.34375 14.359375 -4.84375 C 13.785156 -4.351562 13.226562 -3.882812 12.6875 -3.4375 C 12.144531 -3 11.707031 -2.640625 11.375 -2.359375 C 10.632812 -1.804688 9.816406 -1.21875 8.921875 -0.59375 C 8.023438 0.0195312 7.222656 0.328125 6.515625 0.328125 C 5.898438 0.328125 5.476562 0.179688 5.25 -0.109375 C 5.019531 -0.410156 4.90625 -0.789062 4.90625 -1.25 C 4.90625 -1.925781 5.195312 -2.757812 5.78125 -3.75 C 5.46875 -3.4375 5.164062 -3.164062 4.875 -2.9375 C 4.582031 -2.707031 4.34375 -2.515625 4.15625 -2.359375 C 3.445312 -1.773438 2.613281 -1.179688 1.65625 -0.578125 C 0.707031 0.0234375 -0.117188 0.328125 -0.828125 0.328125 C -1.410156 0.328125 -1.816406 0.195312 -2.046875 -0.0625 C -2.285156 -0.332031 -2.40625 -0.664062 -2.40625 -1.0625 C -2.40625 -1.832031 -2.097656 -2.71875 -1.484375 -3.71875 C -0.867188 -4.71875 -0.0351562 -5.789062 1.015625 -6.9375 C 1.628906 -7.582031 2.367188 -8.28125 3.234375 -9.03125 C 4.097656 -9.789062 4.96875 -10.5 5.84375 -11.15625 C 6.726562 -11.820312 7.476562 -12.328125 8.09375 -12.671875 C 8.425781 -12.878906 8.910156 -13.03125 9.546875 -13.125 C 10.179688 -13.21875 10.648438 -13.25 10.953125 -13.21875 C 9.597656 -12.113281 8.265625 -10.96875 6.953125 -9.78125 C 5.648438 -8.59375 4.492188 -7.484375 3.484375 -6.453125 C 2.484375 -5.421875 1.707031 -4.566406 1.15625 -3.890625 C 0.601562 -3.203125 0.132812 -2.585938 -0.25 -2.046875 C -0.632812 -1.515625 -0.828125 -1.109375 -0.828125 -0.828125 C -0.828125 -0.554688 -0.691406 -0.421875 -0.421875 -0.421875 C -0.109375 -0.421875 0.304688 -0.554688 0.828125 -0.828125 C 1.359375 -1.109375 1.898438 -1.441406 2.453125 -1.828125 C 3.003906 -2.210938 3.46875 -2.554688 3.84375 -2.859375 C 4.238281 -3.171875 4.734375 -3.597656 5.328125 -4.140625 C 5.929688 -4.679688 6.503906 -5.21875 7.046875 -5.75 C 7.585938 -6.289062 7.984375 -6.6875 8.234375 -6.9375 C 8.847656 -7.582031 9.585938 -8.304688 10.453125 -9.109375 C 11.316406 -9.910156 12.175781 -10.671875 13.03125 -11.390625 C 13.894531 -12.117188 14.632812 -12.664062 15.25 -13.03125 C 15.5 -13.1875 15.898438 -13.3125 16.453125 -13.40625 C 17.015625 -13.5 17.445312 -13.53125 17.75 -13.5 Z M 17.75 -13.5 "></path></g></g></g><g fill="#492c01" fill-opacity="1"><g transform="translate(81.270312, 36.738868)"><g></g></g></g><g fill="#492c01" fill-opacity="1"><g transform="translate(90.885864, 36.738868)"><g><path d="M 12.4375 -12.484375 C 12.4375 -11.773438 12.1875 -11.050781 11.6875 -10.3125 C 11.195312 -9.570312 10.691406 -8.984375 10.171875 -8.546875 C 10.015625 -8.429688 9.820312 -8.296875 9.59375 -8.140625 C 9.363281 -7.984375 9.125 -7.90625 8.875 -7.90625 C 8.445312 -7.90625 8.234375 -8.085938 8.234375 -8.453125 C 8.234375 -8.765625 8.414062 -9.066406 8.78125 -9.359375 C 9.15625 -9.648438 9.492188 -9.890625 9.796875 -10.078125 C 11.179688 -11.003906 11.875 -11.804688 11.875 -12.484375 C 11.875 -12.878906 11.691406 -13.078125 11.328125 -13.078125 C 11.015625 -13.078125 10.554688 -12.882812 9.953125 -12.5 C 9.359375 -12.113281 8.695312 -11.628906 7.96875 -11.046875 C 7.25 -10.460938 6.523438 -9.847656 5.796875 -9.203125 C 5.078125 -8.554688 4.441406 -7.953125 3.890625 -7.390625 C 2.347656 -5.910156 1.21875 -4.628906 0.5 -3.546875 C -0.207031 -2.472656 -0.546875 -1.660156 -0.515625 -1.109375 C -0.515625 -0.554688 -0.171875 -0.28125 0.515625 -0.28125 C 1.003906 -0.28125 1.539062 -0.394531 2.125 -0.625 C 2.707031 -0.851562 3.253906 -1.113281 3.765625 -1.40625 C 4.273438 -1.695312 4.6875 -1.953125 5 -2.171875 C 5.914062 -2.785156 6.890625 -3.515625 7.921875 -4.359375 C 8.960938 -5.210938 9.804688 -5.929688 10.453125 -6.515625 C 10.722656 -6.734375 10.9375 -6.796875 11.09375 -6.703125 C 11.25 -6.578125 11.21875 -6.410156 11 -6.203125 C 10.351562 -5.609375 9.585938 -4.945312 8.703125 -4.21875 C 7.828125 -3.5 6.976562 -2.832031 6.15625 -2.21875 C 5.226562 -1.539062 4.234375 -0.929688 3.171875 -0.390625 C 2.109375 0.148438 1.097656 0.421875 0.140625 0.421875 C -1.429688 0.421875 -2.21875 -0.285156 -2.21875 -1.703125 C -2.21875 -2.785156 -1.835938 -3.921875 -1.078125 -5.109375 C -0.328125 -6.296875 0.613281 -7.410156 1.75 -8.453125 C 2.800781 -9.410156 3.910156 -10.28125 5.078125 -11.0625 C 6.253906 -11.851562 7.375 -12.488281 8.4375 -12.96875 C 9.5 -13.445312 10.367188 -13.6875 11.046875 -13.6875 C 11.578125 -13.6875 11.941406 -13.566406 12.140625 -13.328125 C 12.335938 -13.097656 12.4375 -12.816406 12.4375 -12.484375 Z M 12.4375 -12.484375 "></path></g></g></g><g fill="#492c01" fill-opacity="1"><g transform="translate(101.241077, 36.738868)"><g><path d="M 17.75 -13.21875 C 16.425781 -12.019531 15.144531 -10.816406 13.90625 -9.609375 C 12.675781 -8.410156 11.582031 -7.3125 10.625 -6.3125 C 9.675781 -5.3125 8.925781 -4.488281 8.375 -3.84375 C 7.78125 -3.15625 7.304688 -2.554688 6.953125 -2.046875 C 6.597656 -1.546875 6.421875 -1.140625 6.421875 -0.828125 C 6.421875 -0.554688 6.578125 -0.421875 6.890625 -0.421875 C 7.191406 -0.421875 7.597656 -0.566406 8.109375 -0.859375 C 8.617188 -1.148438 9.148438 -1.488281 9.703125 -1.875 C 10.265625 -2.257812 10.742188 -2.601562 11.140625 -2.90625 C 11.878906 -3.5 12.640625 -4.140625 13.421875 -4.828125 C 14.210938 -5.523438 14.882812 -6.117188 15.4375 -6.609375 C 15.53125 -6.671875 15.640625 -6.734375 15.765625 -6.796875 C 15.890625 -6.859375 16 -6.828125 16.09375 -6.703125 C 16.21875 -6.578125 16.140625 -6.394531 15.859375 -6.15625 C 15.179688 -5.5 14.441406 -4.832031 13.640625 -4.15625 C 12.835938 -3.476562 12.144531 -2.910156 11.5625 -2.453125 C 11.09375 -2.078125 10.554688 -1.671875 9.953125 -1.234375 C 9.359375 -0.804688 8.757812 -0.4375 8.15625 -0.125 C 7.5625 0.175781 7.03125 0.328125 6.5625 0.328125 C 5.488281 0.328125 4.953125 -0.195312 4.953125 -1.25 C 4.953125 -1.582031 5.050781 -1.992188 5.25 -2.484375 C 5.445312 -2.984375 5.789062 -3.523438 6.28125 -4.109375 C 4.957031 -2.910156 3.632812 -1.867188 2.3125 -0.984375 C 0.988281 -0.109375 -0.0390625 0.328125 -0.78125 0.328125 C -1.832031 0.328125 -2.359375 -0.179688 -2.359375 -1.203125 C -2.390625 -2.035156 -2.054688 -3.0625 -1.359375 -4.28125 C -0.671875 -5.5 0.195312 -6.628906 1.25 -7.671875 C 2.289062 -8.753906 3.484375 -9.75 4.828125 -10.65625 C 6.171875 -11.5625 7.488281 -12.289062 8.78125 -12.84375 C 10.070312 -13.40625 11.148438 -13.6875 12.015625 -13.6875 C 12.453125 -13.6875 12.804688 -13.613281 13.078125 -13.46875 C 13.359375 -13.332031 13.5 -13.066406 13.5 -12.671875 C 13.5 -12.421875 13.40625 -12.101562 13.21875 -11.71875 C 13.039062 -11.332031 12.6875 -10.878906 12.15625 -10.359375 C 12.125 -10.328125 12.113281 -10.300781 12.125 -10.28125 C 12.144531 -10.269531 12.171875 -10.28125 12.203125 -10.3125 C 12.910156 -11.019531 13.617188 -11.617188 14.328125 -12.109375 C 15.035156 -12.609375 15.578125 -12.914062 15.953125 -13.03125 C 16.203125 -13.125 16.441406 -13.175781 16.671875 -13.1875 C 16.898438 -13.207031 17.140625 -13.21875 17.390625 -13.21875 Z M 12.859375 -12.484375 C 12.859375 -12.816406 12.671875 -12.984375 12.296875 -12.984375 C 11.648438 -12.984375 10.546875 -12.4375 8.984375 -11.34375 C 7.429688 -10.25 5.5625 -8.65625 3.375 -6.5625 C 2.238281 -5.425781 1.242188 -4.316406 0.390625 -3.234375 C -0.453125 -2.160156 -0.875 -1.359375 -0.875 -0.828125 C -0.875 -0.703125 -0.847656 -0.59375 -0.796875 -0.5 C -0.753906 -0.414062 -0.628906 -0.375 -0.421875 -0.375 C -0.015625 -0.375 0.628906 -0.648438 1.515625 -1.203125 C 2.410156 -1.753906 3.453125 -2.523438 4.640625 -3.515625 C 5.828125 -4.503906 7.023438 -5.613281 8.234375 -6.84375 C 8.785156 -7.394531 9.421875 -8.03125 10.140625 -8.75 C 10.867188 -9.476562 11.503906 -10.1875 12.046875 -10.875 C 12.585938 -11.570312 12.859375 -12.109375 12.859375 -12.484375 Z M 12.859375 -12.484375 "></path></g></g></g><g fill="#492c01" fill-opacity="1"><g transform="translate(115.756845, 36.738868)"><g><path d="M 7.390625 0.421875 C 6.316406 0.421875 5.78125 -0.0703125 5.78125 -1.0625 C 5.78125 -1.738281 5.976562 -2.421875 6.375 -3.109375 C 6.78125 -3.804688 7.273438 -4.492188 7.859375 -5.171875 C 8.378906 -5.796875 8.941406 -6.375 9.546875 -6.90625 C 10.148438 -7.445312 10.695312 -7.953125 11.1875 -8.421875 C 11.3125 -8.535156 11.347656 -8.597656 11.296875 -8.609375 C 11.253906 -8.628906 11.1875 -8.609375 11.09375 -8.546875 C 10.320312 -7.898438 9.507812 -7.222656 8.65625 -6.515625 C 7.8125 -5.804688 6.992188 -5.113281 6.203125 -4.4375 C 5.453125 -3.789062 4.566406 -3.085938 3.546875 -2.328125 C 2.535156 -1.578125 1.535156 -0.929688 0.546875 -0.390625 C -0.429688 0.148438 -1.273438 0.421875 -1.984375 0.421875 C -3.128906 0.421875 -3.703125 -0.101562 -3.703125 -1.15625 C -3.703125 -1.613281 -3.566406 -2.144531 -3.296875 -2.75 C -3.035156 -3.351562 -2.660156 -3.898438 -2.171875 -4.390625 C -1.890625 -4.671875 -1.601562 -4.898438 -1.3125 -5.078125 C -1.019531 -5.265625 -0.722656 -5.359375 -0.421875 -5.359375 C -0.109375 -5.359375 0.046875 -5.207031 0.046875 -4.90625 C 0.046875 -4.625 -0.0820312 -4.328125 -0.34375 -4.015625 C -0.601562 -3.710938 -0.90625 -3.421875 -1.25 -3.140625 C -2.351562 -2.335938 -2.90625 -1.628906 -2.90625 -1.015625 C -2.90625 -0.429688 -2.597656 -0.140625 -1.984375 -0.140625 C -1.460938 -0.140625 -0.785156 -0.367188 0.046875 -0.828125 C 0.878906 -1.296875 1.765625 -1.875 2.703125 -2.5625 C 3.640625 -3.257812 4.546875 -3.96875 5.421875 -4.6875 C 6.304688 -5.414062 7.039062 -6.023438 7.625 -6.515625 C 8.707031 -7.410156 9.796875 -8.28125 10.890625 -9.125 C 11.984375 -9.976562 12.984375 -10.726562 13.890625 -11.375 C 14.796875 -12.019531 15.515625 -12.5 16.046875 -12.8125 C 16.441406 -13.050781 16.894531 -13.21875 17.40625 -13.3125 C 17.914062 -13.40625 18.398438 -13.4375 18.859375 -13.40625 C 17.535156 -12.207031 16.238281 -11 14.96875 -9.78125 C 13.707031 -8.5625 12.578125 -7.425781 11.578125 -6.375 C 10.578125 -5.332031 9.800781 -4.488281 9.25 -3.84375 C 8.695312 -3.15625 8.25 -2.554688 7.90625 -2.046875 C 7.5625 -1.546875 7.390625 -1.125 7.390625 -0.78125 C 7.390625 -0.476562 7.5625 -0.328125 7.90625 -0.328125 C 8.25 -0.328125 8.664062 -0.445312 9.15625 -0.6875 C 9.644531 -0.9375 10.160156 -1.226562 10.703125 -1.5625 C 11.242188 -1.90625 11.695312 -2.21875 12.0625 -2.5 C 12.59375 -2.894531 13.164062 -3.347656 13.78125 -3.859375 C 14.394531 -4.367188 14.972656 -4.851562 15.515625 -5.3125 C 16.054688 -5.78125 16.476562 -6.148438 16.78125 -6.421875 C 17.125 -6.734375 17.359375 -6.796875 17.484375 -6.609375 C 17.597656 -6.484375 17.550781 -6.316406 17.34375 -6.109375 C 16.9375 -5.765625 16.414062 -5.320312 15.78125 -4.78125 C 15.15625 -4.238281 14.539062 -3.710938 13.9375 -3.203125 C 13.332031 -2.703125 12.847656 -2.3125 12.484375 -2.03125 C 11.742188 -1.476562 10.898438 -0.929688 9.953125 -0.390625 C 9.015625 0.148438 8.160156 0.421875 7.390625 0.421875 Z M 7.390625 0.421875 "></path></g></g></g><g fill="#492c01" fill-opacity="1"><g transform="translate(131.798158, 36.738868)"><g><path d="M 14.9375 -13.59375 C 15.769531 -13.59375 16.1875 -13.191406 16.1875 -12.390625 C 16.1875 -12.046875 16.109375 -11.660156 15.953125 -11.234375 C 15.796875 -10.804688 15.550781 -10.40625 15.21875 -10.03125 C 16.101562 -10.613281 17.007812 -11.179688 17.9375 -11.734375 C 18.863281 -12.296875 19.734375 -12.753906 20.546875 -13.109375 C 21.367188 -13.460938 22.023438 -13.640625 22.515625 -13.640625 C 23.035156 -13.640625 23.40625 -13.492188 23.625 -13.203125 C 23.84375 -12.910156 23.953125 -12.59375 23.953125 -12.25 C 23.953125 -11.726562 23.703125 -11.128906 23.203125 -10.453125 C 22.710938 -9.773438 22.132812 -9.109375 21.46875 -8.453125 C 20.8125 -7.804688 20.207031 -7.238281 19.65625 -6.75 C 18.914062 -6.070312 18.234375 -5.429688 17.609375 -4.828125 C 16.992188 -4.234375 16.441406 -3.671875 15.953125 -3.140625 C 15.460938 -2.617188 15.0625 -2.15625 14.75 -1.75 C 14.4375 -1.351562 14.28125 -1.03125 14.28125 -0.78125 C 14.28125 -0.476562 14.453125 -0.328125 14.796875 -0.328125 C 15.191406 -0.328125 15.738281 -0.503906 16.4375 -0.859375 C 17.132812 -1.210938 17.863281 -1.664062 18.625 -2.21875 C 19.613281 -2.925781 20.492188 -3.601562 21.265625 -4.25 C 22.035156 -4.894531 22.695312 -5.453125 23.25 -5.921875 C 23.78125 -6.410156 24.117188 -6.578125 24.265625 -6.421875 C 24.359375 -6.359375 24.378906 -6.265625 24.328125 -6.140625 C 24.285156 -6.023438 24.207031 -5.921875 24.09375 -5.828125 C 23.71875 -5.515625 23.222656 -5.097656 22.609375 -4.578125 C 21.992188 -4.054688 21.347656 -3.515625 20.671875 -2.953125 C 19.992188 -2.398438 19.359375 -1.925781 18.765625 -1.53125 C 17.960938 -0.9375 17.171875 -0.460938 16.390625 -0.109375 C 15.609375 0.242188 14.921875 0.421875 14.328125 0.421875 C 13.929688 0.421875 13.5625 0.28125 13.21875 0 C 12.882812 -0.28125 12.71875 -0.710938 12.71875 -1.296875 C 12.71875 -2.003906 13.039062 -2.835938 13.6875 -3.796875 C 14.269531 -4.597656 14.835938 -5.28125 15.390625 -5.84375 C 15.953125 -6.414062 16.707031 -7.132812 17.65625 -8 C 18.15625 -8.457031 18.765625 -8.988281 19.484375 -9.59375 C 20.210938 -10.195312 20.867188 -10.78125 21.453125 -11.34375 C 22.035156 -11.914062 22.328125 -12.34375 22.328125 -12.625 C 22.328125 -12.8125 22.234375 -12.90625 22.046875 -12.90625 C 21.742188 -12.90625 21.148438 -12.695312 20.265625 -12.28125 C 19.390625 -11.863281 18.40625 -11.3125 17.3125 -10.625 C 16.21875 -9.945312 15.132812 -9.222656 14.0625 -8.453125 C 13.101562 -7.710938 12.132812 -6.921875 11.15625 -6.078125 C 10.1875 -5.234375 9.179688 -4.222656 8.140625 -3.046875 C 7.671875 -2.523438 7.148438 -1.914062 6.578125 -1.21875 C 6.015625 -0.53125 5.53125 0.0703125 5.125 0.59375 C 5.007812 0.59375 4.890625 0.484375 4.765625 0.265625 C 4.640625 0.0546875 4.578125 -0.203125 4.578125 -0.515625 C 4.578125 -0.816406 4.820312 -1.367188 5.3125 -2.171875 C 5.8125 -2.972656 6.484375 -3.894531 7.328125 -4.9375 C 8.171875 -5.988281 9.085938 -7.007812 10.078125 -8 C 10.535156 -8.457031 11.132812 -8.992188 11.875 -9.609375 C 12.613281 -10.234375 13.269531 -10.828125 13.84375 -11.390625 C 14.414062 -11.960938 14.703125 -12.375 14.703125 -12.625 C 14.703125 -12.8125 14.609375 -12.90625 14.421875 -12.90625 C 14.023438 -12.90625 13.378906 -12.6875 12.484375 -12.25 C 11.585938 -11.820312 10.582031 -11.253906 9.46875 -10.546875 C 8.363281 -9.835938 7.265625 -9.082031 6.171875 -8.28125 C 5.078125 -7.476562 4.144531 -6.707031 3.375 -5.96875 C 1.894531 -4.550781 0.679688 -3.296875 -0.265625 -2.203125 C -1.222656 -1.109375 -1.96875 -0.175781 -2.5 0.59375 C -2.625 0.59375 -2.753906 0.484375 -2.890625 0.265625 C -3.023438 0.0546875 -3.09375 -0.21875 -3.09375 -0.5625 C -3.09375 -0.894531 -2.804688 -1.5 -2.234375 -2.375 C -1.671875 -3.257812 -0.925781 -4.285156 0 -5.453125 C 0.925781 -6.628906 1.941406 -7.785156 3.046875 -8.921875 C 3.785156 -9.722656 4.546875 -10.453125 5.328125 -11.109375 C 6.117188 -11.773438 6.789062 -12.296875 7.34375 -12.671875 C 7.75 -12.910156 8.234375 -13.09375 8.796875 -13.21875 C 9.367188 -13.34375 9.953125 -13.40625 10.546875 -13.40625 C 9.742188 -12.851562 8.753906 -12.050781 7.578125 -11 C 6.410156 -9.957031 5.316406 -8.847656 4.296875 -7.671875 C 4.234375 -7.609375 4.207031 -7.5625 4.21875 -7.53125 C 4.238281 -7.5 4.265625 -7.5 4.296875 -7.53125 C 4.878906 -8.03125 5.632812 -8.617188 6.5625 -9.296875 C 7.488281 -9.972656 8.472656 -10.640625 9.515625 -11.296875 C 10.566406 -11.960938 11.570312 -12.507812 12.53125 -12.9375 C 13.488281 -13.375 14.289062 -13.59375 14.9375 -13.59375 Z M 14.9375 -13.59375 "></path></g></g></g><g fill="#492c01" fill-opacity="1"><g transform="translate(154.866232, 36.738868)"><g><path d="M 17.75 -13.21875 C 16.425781 -12.019531 15.144531 -10.816406 13.90625 -9.609375 C 12.675781 -8.410156 11.582031 -7.3125 10.625 -6.3125 C 9.675781 -5.3125 8.925781 -4.488281 8.375 -3.84375 C 7.78125 -3.15625 7.304688 -2.554688 6.953125 -2.046875 C 6.597656 -1.546875 6.421875 -1.140625 6.421875 -0.828125 C 6.421875 -0.554688 6.578125 -0.421875 6.890625 -0.421875 C 7.191406 -0.421875 7.597656 -0.566406 8.109375 -0.859375 C 8.617188 -1.148438 9.148438 -1.488281 9.703125 -1.875 C 10.265625 -2.257812 10.742188 -2.601562 11.140625 -2.90625 C 11.878906 -3.5 12.640625 -4.140625 13.421875 -4.828125 C 14.210938 -5.523438 14.882812 -6.117188 15.4375 -6.609375 C 15.53125 -6.671875 15.640625 -6.734375 15.765625 -6.796875 C 15.890625 -6.859375 16 -6.828125 16.09375 -6.703125 C 16.21875 -6.578125 16.140625 -6.394531 15.859375 -6.15625 C 15.179688 -5.5 14.441406 -4.832031 13.640625 -4.15625 C 12.835938 -3.476562 12.144531 -2.910156 11.5625 -2.453125 C 11.09375 -2.078125 10.554688 -1.671875 9.953125 -1.234375 C 9.359375 -0.804688 8.757812 -0.4375 8.15625 -0.125 C 7.5625 0.175781 7.03125 0.328125 6.5625 0.328125 C 5.488281 0.328125 4.953125 -0.195312 4.953125 -1.25 C 4.953125 -1.582031 5.050781 -1.992188 5.25 -2.484375 C 5.445312 -2.984375 5.789062 -3.523438 6.28125 -4.109375 C 4.957031 -2.910156 3.632812 -1.867188 2.3125 -0.984375 C 0.988281 -0.109375 -0.0390625 0.328125 -0.78125 0.328125 C -1.832031 0.328125 -2.359375 -0.179688 -2.359375 -1.203125 C -2.390625 -2.035156 -2.054688 -3.0625 -1.359375 -4.28125 C -0.671875 -5.5 0.195312 -6.628906 1.25 -7.671875 C 2.289062 -8.753906 3.484375 -9.75 4.828125 -10.65625 C 6.171875 -11.5625 7.488281 -12.289062 8.78125 -12.84375 C 10.070312 -13.40625 11.148438 -13.6875 12.015625 -13.6875 C 12.453125 -13.6875 12.804688 -13.613281 13.078125 -13.46875 C 13.359375 -13.332031 13.5 -13.066406 13.5 -12.671875 C 13.5 -12.421875 13.40625 -12.101562 13.21875 -11.71875 C 13.039062 -11.332031 12.6875 -10.878906 12.15625 -10.359375 C 12.125 -10.328125 12.113281 -10.300781 12.125 -10.28125 C 12.144531 -10.269531 12.171875 -10.28125 12.203125 -10.3125 C 12.910156 -11.019531 13.617188 -11.617188 14.328125 -12.109375 C 15.035156 -12.609375 15.578125 -12.914062 15.953125 -13.03125 C 16.203125 -13.125 16.441406 -13.175781 16.671875 -13.1875 C 16.898438 -13.207031 17.140625 -13.21875 17.390625 -13.21875 Z M 12.859375 -12.484375 C 12.859375 -12.816406 12.671875 -12.984375 12.296875 -12.984375 C 11.648438 -12.984375 10.546875 -12.4375 8.984375 -11.34375 C 7.429688 -10.25 5.5625 -8.65625 3.375 -6.5625 C 2.238281 -5.425781 1.242188 -4.316406 0.390625 -3.234375 C -0.453125 -2.160156 -0.875 -1.359375 -0.875 -0.828125 C -0.875 -0.703125 -0.847656 -0.59375 -0.796875 -0.5 C -0.753906 -0.414062 -0.628906 -0.375 -0.421875 -0.375 C -0.015625 -0.375 0.628906 -0.648438 1.515625 -1.203125 C 2.410156 -1.753906 3.453125 -2.523438 4.640625 -3.515625 C 5.828125 -4.503906 7.023438 -5.613281 8.234375 -6.84375 C 8.785156 -7.394531 9.421875 -8.03125 10.140625 -8.75 C 10.867188 -9.476562 11.503906 -10.1875 12.046875 -10.875 C 12.585938 -11.570312 12.859375 -12.109375 12.859375 -12.484375 Z M 12.859375 -12.484375 "></path></g></g></g><g fill="#492c01" fill-opacity="1"><g transform="translate(169.382, 36.738868)"><g><path d="M 7.34375 -0.78125 C 7.34375 -0.476562 7.515625 -0.328125 7.859375 -0.328125 C 8.203125 -0.328125 8.617188 -0.445312 9.109375 -0.6875 C 9.597656 -0.9375 10.113281 -1.226562 10.65625 -1.5625 C 11.195312 -1.90625 11.648438 -2.21875 12.015625 -2.5 C 12.546875 -2.894531 13.117188 -3.347656 13.734375 -3.859375 C 14.347656 -4.367188 14.929688 -4.851562 15.484375 -5.3125 C 16.046875 -5.78125 16.476562 -6.148438 16.78125 -6.421875 C 17.09375 -6.734375 17.328125 -6.796875 17.484375 -6.609375 C 17.597656 -6.515625 17.535156 -6.347656 17.296875 -6.109375 C 16.890625 -5.765625 16.378906 -5.320312 15.765625 -4.78125 C 15.148438 -4.238281 14.53125 -3.710938 13.90625 -3.203125 C 13.289062 -2.703125 12.800781 -2.3125 12.4375 -2.03125 C 11.695312 -1.476562 10.851562 -0.929688 9.90625 -0.390625 C 8.96875 0.148438 8.113281 0.421875 7.34375 0.421875 C 6.269531 0.421875 5.734375 -0.0703125 5.734375 -1.0625 C 5.734375 -1.550781 5.894531 -2.128906 6.21875 -2.796875 C 6.539062 -3.460938 6.945312 -4.132812 7.4375 -4.8125 C 7.8125 -5.300781 8.210938 -5.785156 8.640625 -6.265625 C 9.078125 -6.742188 9.523438 -7.210938 9.984375 -7.671875 C 9.648438 -7.453125 9.171875 -7.171875 8.546875 -6.828125 C 7.929688 -6.492188 7.363281 -6.328125 6.84375 -6.328125 C 6.414062 -6.328125 6.082031 -6.4375 5.84375 -6.65625 C 5.613281 -6.875 5.316406 -6.984375 4.953125 -6.984375 C 4.703125 -6.984375 4.398438 -6.859375 4.046875 -6.609375 C 3.691406 -6.359375 3.359375 -6.09375 3.046875 -5.8125 C 2.742188 -5.539062 2.53125 -5.34375 2.40625 -5.21875 C 1.507812 -4.332031 0.671875 -3.398438 -0.109375 -2.421875 C -0.898438 -1.453125 -1.695312 -0.445312 -2.5 0.59375 C -2.6875 0.59375 -2.832031 0.484375 -2.9375 0.265625 C -3.039062 0.0546875 -3.09375 -0.1875 -3.09375 -0.46875 C -3.09375 -0.863281 -2.773438 -1.539062 -2.140625 -2.5 C -1.515625 -3.457031 -0.734375 -4.519531 0.203125 -5.6875 C 1.148438 -6.851562 2.097656 -7.929688 3.046875 -8.921875 C 3.785156 -9.722656 4.539062 -10.453125 5.3125 -11.109375 C 6.082031 -11.773438 6.75 -12.296875 7.3125 -12.671875 C 7.707031 -12.910156 8.203125 -13.09375 8.796875 -13.21875 C 9.398438 -13.34375 10 -13.40625 10.59375 -13.40625 C 10 -13.007812 9.285156 -12.445312 8.453125 -11.71875 C 7.628906 -11 6.785156 -10.195312 5.921875 -9.3125 C 5.054688 -8.4375 4.253906 -7.566406 3.515625 -6.703125 C 3.941406 -7.046875 4.394531 -7.363281 4.875 -7.65625 C 5.351562 -7.945312 5.765625 -8.09375 6.109375 -8.09375 C 6.535156 -8.09375 6.898438 -8 7.203125 -7.8125 C 7.515625 -7.625 7.859375 -7.53125 8.234375 -7.53125 C 8.753906 -7.53125 9.328125 -7.695312 9.953125 -8.03125 C 10.585938 -8.375 11.1875 -8.8125 11.75 -9.34375 C 12.550781 -10.082031 13.363281 -10.789062 14.1875 -11.46875 C 15.019531 -12.144531 15.71875 -12.640625 16.28125 -12.953125 C 16.613281 -13.128906 17.039062 -13.253906 17.5625 -13.328125 C 18.09375 -13.410156 18.507812 -13.4375 18.8125 -13.40625 C 17.488281 -12.207031 16.191406 -11 14.921875 -9.78125 C 13.660156 -8.5625 12.53125 -7.425781 11.53125 -6.375 C 10.53125 -5.332031 9.753906 -4.488281 9.203125 -3.84375 C 8.679688 -3.1875 8.238281 -2.597656 7.875 -2.078125 C 7.519531 -1.554688 7.34375 -1.125 7.34375 -0.78125 Z M 7.34375 -0.78125 "></path></g></g></g><g fill="#492c01" fill-opacity="1"><g transform="translate(185.377092, 36.738868)"><g><path d="M 17.75 -13.21875 C 16.425781 -12.019531 15.144531 -10.816406 13.90625 -9.609375 C 12.675781 -8.410156 11.582031 -7.3125 10.625 -6.3125 C 9.675781 -5.3125 8.925781 -4.488281 8.375 -3.84375 C 7.78125 -3.15625 7.304688 -2.554688 6.953125 -2.046875 C 6.597656 -1.546875 6.421875 -1.140625 6.421875 -0.828125 C 6.421875 -0.554688 6.578125 -0.421875 6.890625 -0.421875 C 7.191406 -0.421875 7.597656 -0.566406 8.109375 -0.859375 C 8.617188 -1.148438 9.148438 -1.488281 9.703125 -1.875 C 10.265625 -2.257812 10.742188 -2.601562 11.140625 -2.90625 C 11.878906 -3.5 12.640625 -4.140625 13.421875 -4.828125 C 14.210938 -5.523438 14.882812 -6.117188 15.4375 -6.609375 C 15.53125 -6.671875 15.640625 -6.734375 15.765625 -6.796875 C 15.890625 -6.859375 16 -6.828125 16.09375 -6.703125 C 16.21875 -6.578125 16.140625 -6.394531 15.859375 -6.15625 C 15.179688 -5.5 14.441406 -4.832031 13.640625 -4.15625 C 12.835938 -3.476562 12.144531 -2.910156 11.5625 -2.453125 C 11.09375 -2.078125 10.554688 -1.671875 9.953125 -1.234375 C 9.359375 -0.804688 8.757812 -0.4375 8.15625 -0.125 C 7.5625 0.175781 7.03125 0.328125 6.5625 0.328125 C 5.488281 0.328125 4.953125 -0.195312 4.953125 -1.25 C 4.953125 -1.582031 5.050781 -1.992188 5.25 -2.484375 C 5.445312 -2.984375 5.789062 -3.523438 6.28125 -4.109375 C 4.957031 -2.910156 3.632812 -1.867188 2.3125 -0.984375 C 0.988281 -0.109375 -0.0390625 0.328125 -0.78125 0.328125 C -1.832031 0.328125 -2.359375 -0.179688 -2.359375 -1.203125 C -2.390625 -2.035156 -2.054688 -3.0625 -1.359375 -4.28125 C -0.671875 -5.5 0.195312 -6.628906 1.25 -7.671875 C 2.289062 -8.753906 3.484375 -9.75 4.828125 -10.65625 C 6.171875 -11.5625 7.488281 -12.289062 8.78125 -12.84375 C 10.070312 -13.40625 11.148438 -13.6875 12.015625 -13.6875 C 12.453125 -13.6875 12.804688 -13.613281 13.078125 -13.46875 C 13.359375 -13.332031 13.5 -13.066406 13.5 -12.671875 C 13.5 -12.421875 13.40625 -12.101562 13.21875 -11.71875 C 13.039062 -11.332031 12.6875 -10.878906 12.15625 -10.359375 C 12.125 -10.328125 12.113281 -10.300781 12.125 -10.28125 C 12.144531 -10.269531 12.171875 -10.28125 12.203125 -10.3125 C 12.910156 -11.019531 13.617188 -11.617188 14.328125 -12.109375 C 15.035156 -12.609375 15.578125 -12.914062 15.953125 -13.03125 C 16.203125 -13.125 16.441406 -13.175781 16.671875 -13.1875 C 16.898438 -13.207031 17.140625 -13.21875 17.390625 -13.21875 Z M 12.859375 -12.484375 C 12.859375 -12.816406 12.671875 -12.984375 12.296875 -12.984375 C 11.648438 -12.984375 10.546875 -12.4375 8.984375 -11.34375 C 7.429688 -10.25 5.5625 -8.65625 3.375 -6.5625 C 2.238281 -5.425781 1.242188 -4.316406 0.390625 -3.234375 C -0.453125 -2.160156 -0.875 -1.359375 -0.875 -0.828125 C -0.875 -0.703125 -0.847656 -0.59375 -0.796875 -0.5 C -0.753906 -0.414062 -0.628906 -0.375 -0.421875 -0.375 C -0.015625 -0.375 0.628906 -0.648438 1.515625 -1.203125 C 2.410156 -1.753906 3.453125 -2.523438 4.640625 -3.515625 C 5.828125 -4.503906 7.023438 -5.613281 8.234375 -6.84375 C 8.785156 -7.394531 9.421875 -8.03125 10.140625 -8.75 C 10.867188 -9.476562 11.503906 -10.1875 12.046875 -10.875 C 12.585938 -11.570312 12.859375 -12.109375 12.859375 -12.484375 Z M 12.859375 -12.484375 "></path></g></g></g><g fill="#492c01" fill-opacity="1"><g transform="translate(199.89286, 36.738868)"><g><path d="M 14.9375 -13.59375 C 15.769531 -13.59375 16.1875 -13.191406 16.1875 -12.390625 C 16.1875 -12.046875 16.109375 -11.660156 15.953125 -11.234375 C 15.796875 -10.804688 15.550781 -10.40625 15.21875 -10.03125 C 16.101562 -10.613281 17.007812 -11.179688 17.9375 -11.734375 C 18.863281 -12.296875 19.734375 -12.753906 20.546875 -13.109375 C 21.367188 -13.460938 22.023438 -13.640625 22.515625 -13.640625 C 23.035156 -13.640625 23.40625 -13.492188 23.625 -13.203125 C 23.84375 -12.910156 23.953125 -12.59375 23.953125 -12.25 C 23.953125 -11.726562 23.703125 -11.128906 23.203125 -10.453125 C 22.710938 -9.773438 22.132812 -9.109375 21.46875 -8.453125 C 20.8125 -7.804688 20.207031 -7.238281 19.65625 -6.75 C 18.914062 -6.070312 18.234375 -5.429688 17.609375 -4.828125 C 16.992188 -4.234375 16.441406 -3.671875 15.953125 -3.140625 C 15.460938 -2.617188 15.0625 -2.15625 14.75 -1.75 C 14.4375 -1.351562 14.28125 -1.03125 14.28125 -0.78125 C 14.28125 -0.476562 14.453125 -0.328125 14.796875 -0.328125 C 15.191406 -0.328125 15.738281 -0.503906 16.4375 -0.859375 C 17.132812 -1.210938 17.863281 -1.664062 18.625 -2.21875 C 19.613281 -2.925781 20.492188 -3.601562 21.265625 -4.25 C 22.035156 -4.894531 22.695312 -5.453125 23.25 -5.921875 C 23.78125 -6.410156 24.117188 -6.578125 24.265625 -6.421875 C 24.359375 -6.359375 24.378906 -6.265625 24.328125 -6.140625 C 24.285156 -6.023438 24.207031 -5.921875 24.09375 -5.828125 C 23.71875 -5.515625 23.222656 -5.097656 22.609375 -4.578125 C 21.992188 -4.054688 21.347656 -3.515625 20.671875 -2.953125 C 19.992188 -2.398438 19.359375 -1.925781 18.765625 -1.53125 C 17.960938 -0.9375 17.171875 -0.460938 16.390625 -0.109375 C 15.609375 0.242188 14.921875 0.421875 14.328125 0.421875 C 13.929688 0.421875 13.5625 0.28125 13.21875 0 C 12.882812 -0.28125 12.71875 -0.710938 12.71875 -1.296875 C 12.71875 -2.003906 13.039062 -2.835938 13.6875 -3.796875 C 14.269531 -4.597656 14.835938 -5.28125 15.390625 -5.84375 C 15.953125 -6.414062 16.707031 -7.132812 17.65625 -8 C 18.15625 -8.457031 18.765625 -8.988281 19.484375 -9.59375 C 20.210938 -10.195312 20.867188 -10.78125 21.453125 -11.34375 C 22.035156 -11.914062 22.328125 -12.34375 22.328125 -12.625 C 22.328125 -12.8125 22.234375 -12.90625 22.046875 -12.90625 C 21.742188 -12.90625 21.148438 -12.695312 20.265625 -12.28125 C 19.390625 -11.863281 18.40625 -11.3125 17.3125 -10.625 C 16.21875 -9.945312 15.132812 -9.222656 14.0625 -8.453125 C 13.101562 -7.710938 12.132812 -6.921875 11.15625 -6.078125 C 10.1875 -5.234375 9.179688 -4.222656 8.140625 -3.046875 C 7.671875 -2.523438 7.148438 -1.914062 6.578125 -1.21875 C 6.015625 -0.53125 5.53125 0.0703125 5.125 0.59375 C 5.007812 0.59375 4.890625 0.484375 4.765625 0.265625 C 4.640625 0.0546875 4.578125 -0.203125 4.578125 -0.515625 C 4.578125 -0.816406 4.820312 -1.367188 5.3125 -2.171875 C 5.8125 -2.972656 6.484375 -3.894531 7.328125 -4.9375 C 8.171875 -5.988281 9.085938 -7.007812 10.078125 -8 C 10.535156 -8.457031 11.132812 -8.992188 11.875 -9.609375 C 12.613281 -10.234375 13.269531 -10.828125 13.84375 -11.390625 C 14.414062 -11.960938 14.703125 -12.375 14.703125 -12.625 C 14.703125 -12.8125 14.609375 -12.90625 14.421875 -12.90625 C 14.023438 -12.90625 13.378906 -12.6875 12.484375 -12.25 C 11.585938 -11.820312 10.582031 -11.253906 9.46875 -10.546875 C 8.363281 -9.835938 7.265625 -9.082031 6.171875 -8.28125 C 5.078125 -7.476562 4.144531 -6.707031 3.375 -5.96875 C 1.894531 -4.550781 0.679688 -3.296875 -0.265625 -2.203125 C -1.222656 -1.109375 -1.96875 -0.175781 -2.5 0.59375 C -2.625 0.59375 -2.753906 0.484375 -2.890625 0.265625 C -3.023438 0.0546875 -3.09375 -0.21875 -3.09375 -0.5625 C -3.09375 -0.894531 -2.804688 -1.5 -2.234375 -2.375 C -1.671875 -3.257812 -0.925781 -4.285156 0 -5.453125 C 0.925781 -6.628906 1.941406 -7.785156 3.046875 -8.921875 C 3.785156 -9.722656 4.546875 -10.453125 5.328125 -11.109375 C 6.117188 -11.773438 6.789062 -12.296875 7.34375 -12.671875 C 7.75 -12.910156 8.234375 -13.09375 8.796875 -13.21875 C 9.367188 -13.34375 9.953125 -13.40625 10.546875 -13.40625 C 9.742188 -12.851562 8.753906 -12.050781 7.578125 -11 C 6.410156 -9.957031 5.316406 -8.847656 4.296875 -7.671875 C 4.234375 -7.609375 4.207031 -7.5625 4.21875 -7.53125 C 4.238281 -7.5 4.265625 -7.5 4.296875 -7.53125 C 4.878906 -8.03125 5.632812 -8.617188 6.5625 -9.296875 C 7.488281 -9.972656 8.472656 -10.640625 9.515625 -11.296875 C 10.566406 -11.960938 11.570312 -12.507812 12.53125 -12.9375 C 13.488281 -13.375 14.289062 -13.59375 14.9375 -13.59375 Z M 14.9375 -13.59375 "></path></g></g></g><g fill="#492c01" fill-opacity="1"><g transform="translate(222.960934, 36.738868)"><g><path d="M 13.171875 -6.84375 C 13.734375 -7.425781 14.375 -8.054688 15.09375 -8.734375 C 15.820312 -9.410156 16.570312 -10.070312 17.34375 -10.71875 C 16.632812 -10.414062 15.96875 -10.132812 15.34375 -9.875 C 14.726562 -9.613281 14.113281 -9.359375 13.5 -9.109375 C 12.914062 -8.890625 12.289062 -8.703125 11.625 -8.546875 C 10.96875 -8.398438 10.238281 -8.234375 9.4375 -8.046875 C 9.863281 -7.703125 10.078125 -7.144531 10.078125 -6.375 C 10.078125 -5.539062 9.800781 -4.757812 9.25 -4.03125 C 8.695312 -3.3125 8.0625 -2.691406 7.34375 -2.171875 C 6.175781 -1.242188 5.015625 -0.578125 3.859375 -0.171875 C 2.703125 0.222656 1.539062 0.421875 0.375 0.421875 C -0.488281 0.421875 -1.128906 0.238281 -1.546875 -0.125 C -1.960938 -0.5 -2.171875 -0.984375 -2.171875 -1.578125 C -2.171875 -2.378906 -1.921875 -3.15625 -1.421875 -3.90625 C -0.929688 -4.664062 -0.179688 -5.613281 0.828125 -6.75 C 2.335938 -8.414062 3.738281 -9.765625 5.03125 -10.796875 C 6.332031 -11.828125 7.320312 -12.53125 8 -12.90625 C 8.300781 -13.050781 8.742188 -13.175781 9.328125 -13.28125 C 9.921875 -13.394531 10.429688 -13.453125 10.859375 -13.453125 C 9.691406 -12.492188 8.382812 -11.367188 6.9375 -10.078125 C 5.488281 -8.785156 4.144531 -7.445312 2.90625 -6.0625 C 1.800781 -4.820312 1.007812 -3.851562 0.53125 -3.15625 C 0.0507812 -2.46875 -0.25 -1.960938 -0.375 -1.640625 C -0.5 -1.316406 -0.5625 -1.0625 -0.5625 -0.875 C -0.5625 -0.601562 -0.457031 -0.410156 -0.25 -0.296875 C -0.0507812 -0.191406 0.15625 -0.140625 0.375 -0.140625 C 0.894531 -0.140625 1.660156 -0.414062 2.671875 -0.96875 C 3.691406 -1.519531 5.003906 -2.582031 6.609375 -4.15625 C 7.597656 -5.113281 8.222656 -5.804688 8.484375 -6.234375 C 8.742188 -6.671875 8.875 -7.039062 8.875 -7.34375 C 8.875 -7.59375 8.75 -7.75 8.5 -7.8125 C 8.289062 -7.75 8.039062 -7.6875 7.75 -7.625 C 7.457031 -7.5625 7.171875 -7.53125 6.890625 -7.53125 C 6.304688 -7.53125 6.015625 -7.65625 6.015625 -7.90625 C 6.015625 -8.1875 6.234375 -8.367188 6.671875 -8.453125 C 7.117188 -8.546875 7.484375 -8.59375 7.765625 -8.59375 C 7.921875 -8.59375 8.097656 -8.582031 8.296875 -8.5625 C 8.492188 -8.550781 8.65625 -8.515625 8.78125 -8.453125 C 10.875 -8.921875 12.691406 -9.429688 14.234375 -9.984375 C 15.160156 -10.328125 16.101562 -10.734375 17.0625 -11.203125 C 18.019531 -11.679688 19.097656 -12.265625 20.296875 -12.953125 C 20.640625 -13.128906 21.070312 -13.253906 21.59375 -13.328125 C 22.113281 -13.410156 22.53125 -13.4375 22.84375 -13.40625 C 21.519531 -12.207031 20.222656 -11 18.953125 -9.78125 C 17.691406 -8.5625 16.566406 -7.425781 15.578125 -6.375 C 14.585938 -5.332031 13.816406 -4.488281 13.265625 -3.84375 C 12.710938 -3.15625 12.265625 -2.554688 11.921875 -2.046875 C 11.585938 -1.546875 11.421875 -1.125 11.421875 -0.78125 C 11.421875 -0.476562 11.585938 -0.328125 11.921875 -0.328125 C 12.234375 -0.328125 12.644531 -0.445312 13.15625 -0.6875 C 13.664062 -0.9375 14.1875 -1.226562 14.71875 -1.5625 C 15.257812 -1.90625 15.71875 -2.21875 16.09375 -2.5 C 16.613281 -2.894531 17.171875 -3.347656 17.765625 -3.859375 C 18.367188 -4.367188 18.945312 -4.851562 19.5 -5.3125 C 20.0625 -5.78125 20.5 -6.148438 20.8125 -6.421875 C 21.144531 -6.703125 21.375 -6.765625 21.5 -6.609375 C 21.625 -6.484375 21.578125 -6.316406 21.359375 -6.109375 C 20.960938 -5.765625 20.445312 -5.320312 19.8125 -4.78125 C 19.175781 -4.238281 18.554688 -3.710938 17.953125 -3.203125 C 17.359375 -2.703125 16.875 -2.3125 16.5 -2.03125 C 15.726562 -1.476562 14.875 -0.929688 13.9375 -0.390625 C 13 0.148438 12.160156 0.421875 11.421875 0.421875 C 10.335938 0.421875 9.796875 -0.0703125 9.796875 -1.0625 C 9.796875 -1.769531 10.097656 -2.628906 10.703125 -3.640625 C 11.304688 -4.660156 12.128906 -5.726562 13.171875 -6.84375 Z M 13.171875 -6.84375 "></path></g></g></g><g fill="#492c01" fill-opacity="1"><g transform="translate(244.873384, 36.738868)"><g><path d="M 4.0625 -7.671875 C 3.726562 -7.671875 3.4375 -7.796875 3.1875 -8.046875 C 2.9375 -8.296875 2.8125 -8.585938 2.8125 -8.921875 C 2.8125 -9.265625 2.9375 -9.550781 3.1875 -9.78125 C 3.4375 -10.007812 3.726562 -10.125 4.0625 -10.125 C 4.40625 -10.125 4.691406 -10.007812 4.921875 -9.78125 C 5.148438 -9.550781 5.265625 -9.265625 5.265625 -8.921875 C 5.265625 -8.585938 5.148438 -8.296875 4.921875 -8.046875 C 4.691406 -7.796875 4.40625 -7.671875 4.0625 -7.671875 Z M -1.390625 0.28125 C -1.691406 0.28125 -1.972656 0.15625 -2.234375 -0.09375 C -2.503906 -0.34375 -2.640625 -0.632812 -2.640625 -0.96875 C -2.640625 -1.3125 -2.503906 -1.601562 -2.234375 -1.84375 C -1.972656 -2.09375 -1.691406 -2.21875 -1.390625 -2.21875 C -1.046875 -2.21875 -0.75 -2.09375 -0.5 -1.84375 C -0.257812 -1.601562 -0.140625 -1.3125 -0.140625 -0.96875 C -0.140625 -0.632812 -0.257812 -0.34375 -0.5 -0.09375 C -0.75 0.15625 -1.046875 0.28125 -1.390625 0.28125 Z M -1.390625 0.28125 "></path></g></g></g></g></g></svg> 