<?xml version="1.0" encoding="UTF-8"?> <svg xmlns="http://www.w3.org/2000/svg" xmlns:xlink="http://www.w3.org/1999/xlink" width="360" zoomAndPan="magnify" viewBox="0 0 270 359.999987" height="480" preserveAspectRatio="xMidYMid meet" version="1.0"><defs><g></g><clipPath id="bf0ef5bf8e"><rect x="0" width="261" y="0" height="80"></rect></clipPath><clipPath id="a8cc5f8287"><path d="M 102.816406 182.839844 L 112.671875 182.839844 L 112.671875 184.742188 L 102.816406 184.742188 Z M 102.816406 182.839844 " clip-rule="nonzero"></path></clipPath><clipPath id="ad262c0921"><path d="M 102.824219 184.199219 C 107.324219 182.023438 108.601562 183.449219 109.726562 183.675781 C 110.699219 183.898438 112.5 183.976562 112.648438 183.675781 C 112.648438 183.601562 112.199219 183.148438 112.199219 183.226562 C 112.125 183.226562 112.648438 183.601562 112.574219 183.75 C 112.5 184.125 110.851562 184.574219 109.949219 184.5 C 108.824219 184.425781 107.324219 182.773438 106.199219 182.851562 C 105.148438 182.925781 103.875 184.800781 103.351562 184.726562 C 103.050781 184.726562 102.824219 184.199219 102.824219 184.199219 " clip-rule="nonzero"></path></clipPath><clipPath id="25161caed2"><path d="M 0.816406 0.839844 L 10.671875 0.839844 L 10.671875 2.742188 L 0.816406 2.742188 Z M 0.816406 0.839844 " clip-rule="nonzero"></path></clipPath><clipPath id="a0900e9ef2"><path d="M 0.824219 2.199219 C 5.324219 0.0234375 6.601562 1.449219 7.726562 1.675781 C 8.699219 1.898438 10.5 1.976562 10.648438 1.675781 C 10.648438 1.601562 10.199219 1.148438 10.199219 1.226562 C 10.125 1.226562 10.648438 1.601562 10.574219 1.75 C 10.5 2.125 8.851562 2.574219 7.949219 2.5 C 6.824219 2.425781 5.324219 0.773438 4.199219 0.851562 C 3.148438 0.925781 1.875 2.800781 1.351562 2.726562 C 1.050781 2.726562 0.824219 2.199219 0.824219 2.199219 " clip-rule="nonzero"></path></clipPath><clipPath id="5e2b65c50f"><rect x="0" width="11" y="0" height="3"></rect></clipPath><clipPath id="864d353705"><path d="M 171.886719 201.582031 L 172.296875 201.582031 L 172.296875 201.863281 L 171.886719 201.863281 Z M 171.886719 201.582031 " clip-rule="nonzero"></path></clipPath><clipPath id="3e03956415"><path d="M 172.273438 201.75 C 171.523438 202.050781 172.125 201.601562 172.125 201.601562 " clip-rule="nonzero"></path></clipPath><clipPath id="9775646fca"><path d="M 0.886719 0.582031 L 1.296875 0.582031 L 1.296875 0.863281 L 0.886719 0.863281 Z M 0.886719 0.582031 " clip-rule="nonzero"></path></clipPath><clipPath id="39852eb2a0"><path d="M 1.273438 0.75 C 0.523438 1.050781 1.125 0.601562 1.125 0.601562 " clip-rule="nonzero"></path></clipPath><clipPath id="09311db873"><rect x="0" width="2" y="0" height="1"></rect></clipPath></defs><g transform="matrix(1, 0, 0, 1, 9, 140)"><g clip-path="url(#bf0ef5bf8e)"><g fill="#492c01" fill-opacity="1"><g transform="translate(2.28878, 52.983372)"><g><path d="M 83.671875 -36.28125 C 83.546875 -36.28125 83.398438 -36.363281 83.234375 -36.53125 C 82.503906 -37.34375 81.53125 -37.984375 80.3125 -38.453125 C 79.101562 -38.921875 77.816406 -39.15625 76.453125 -39.15625 C 73.304688 -39.15625 70.347656 -38.410156 67.578125 -36.921875 C 64.804688 -35.429688 62.039062 -33.300781 59.28125 -30.53125 C 58 -29.207031 56.738281 -27.789062 55.5 -26.28125 C 54.269531 -24.769531 53.207031 -23.414062 52.3125 -22.21875 C 51.414062 -21.03125 50.820312 -20.222656 50.53125 -19.796875 C 48.3125 -16.609375 46.304688 -13.945312 44.515625 -11.8125 C 42.734375 -9.6875 40.734375 -7.707031 38.515625 -5.875 C 34.765625 -2.8125 30.859375 -0.535156 26.796875 0.953125 C 22.734375 2.441406 18.675781 3.1875 14.625 3.1875 C 11.257812 3.1875 8.660156 2.6875 6.828125 1.6875 C 5.003906 0.6875 4.09375 -0.957031 4.09375 -3.25 C 4.09375 -4.101562 4.300781 -4.988281 4.71875 -5.90625 C 5.144531 -6.820312 5.875 -7.617188 6.90625 -8.296875 C 7.5 -8.679688 7.898438 -8.8125 8.109375 -8.6875 C 8.148438 -8.601562 8.023438 -8.429688 7.734375 -8.171875 C 6.710938 -7.492188 6.007812 -6.71875 5.625 -5.84375 C 5.238281 -4.96875 5.046875 -4.148438 5.046875 -3.390625 C 5.046875 -1.296875 5.925781 0.148438 7.6875 0.953125 C 9.457031 1.765625 11.789062 2.171875 14.6875 2.171875 C 18.476562 2.171875 22.148438 1.242188 25.703125 -0.609375 C 29.265625 -2.460938 32.660156 -4.6875 35.890625 -7.28125 C 37.898438 -8.894531 39.703125 -10.46875 41.296875 -12 C 42.890625 -13.539062 44.601562 -15.351562 46.4375 -17.4375 C 47.207031 -18.289062 48.09375 -19.3125 49.09375 -20.5 C 50.09375 -21.695312 51.132812 -22.910156 52.21875 -24.140625 C 53.300781 -25.378906 54.320312 -26.550781 55.28125 -27.65625 C 56.238281 -28.757812 57.0625 -29.65625 57.75 -30.34375 C 57.875 -30.46875 57.914062 -30.539062 57.875 -30.5625 C 57.832031 -30.582031 57.742188 -30.550781 57.609375 -30.46875 C 56.296875 -29.40625 54.925781 -28.265625 53.5 -27.046875 C 52.070312 -25.835938 50.71875 -24.675781 49.4375 -23.5625 C 48.15625 -22.457031 47.003906 -21.523438 45.984375 -20.765625 C 45.003906 -19.992188 43.894531 -19.160156 42.65625 -18.265625 C 41.425781 -17.367188 40.191406 -16.515625 38.953125 -15.703125 C 37.722656 -14.898438 36.597656 -14.203125 35.578125 -13.609375 C 34.085938 -12.753906 32.585938 -11.929688 31.078125 -11.140625 C 29.566406 -10.359375 28.148438 -9.734375 26.828125 -9.265625 C 26.398438 -9.085938 25.820312 -8.914062 25.09375 -8.75 C 24.375 -8.582031 23.65625 -8.5 22.9375 -8.5 C 22.375 -8.5 21.898438 -8.613281 21.515625 -8.84375 C 21.140625 -9.082031 20.953125 -9.414062 20.953125 -9.84375 C 20.953125 -10.4375 21.175781 -11.039062 21.625 -11.65625 C 22.070312 -12.269531 22.570312 -12.851562 23.125 -13.40625 C 24.695312 -14.945312 26.023438 -16.226562 27.109375 -17.25 C 28.203125 -18.269531 29.179688 -19.191406 30.046875 -20.015625 C 30.921875 -20.847656 31.765625 -21.691406 32.578125 -22.546875 C 34.617188 -24.628906 36.4375 -26.640625 38.03125 -28.578125 C 39.632812 -30.515625 41.007812 -32.359375 42.15625 -34.109375 C 42.625 -34.828125 43.0625 -35.546875 43.46875 -36.265625 C 43.875 -36.992188 44.179688 -37.640625 44.390625 -38.203125 C 43.066406 -38.410156 41.578125 -38.554688 39.921875 -38.640625 C 38.265625 -38.722656 36.390625 -38.742188 34.296875 -38.703125 C 29.828125 -38.660156 25.800781 -38.078125 22.21875 -36.953125 C 18.644531 -35.828125 15.601562 -34.347656 13.09375 -32.515625 C 11.050781 -30.941406 9.59375 -29.351562 8.71875 -27.75 C 7.84375 -26.15625 7.40625 -24.484375 7.40625 -22.734375 C 7.40625 -20.691406 7.882812 -18.828125 8.84375 -17.140625 C 9.800781 -15.460938 11.132812 -14.132812 12.84375 -13.15625 C 13.394531 -12.863281 13.648438 -12.671875 13.609375 -12.578125 C 13.609375 -12.367188 13.394531 -12.347656 12.96875 -12.515625 C 11.050781 -13.285156 9.410156 -14.617188 8.046875 -16.515625 C 6.679688 -18.410156 6 -20.59375 6 -23.0625 C 6 -24.9375 6.457031 -26.894531 7.375 -28.9375 C 8.289062 -30.976562 9.789062 -32.722656 11.875 -34.171875 C 14.5625 -36.128906 17.8125 -37.535156 21.625 -38.390625 C 25.4375 -39.242188 29.554688 -39.671875 33.984375 -39.671875 C 36.285156 -39.671875 38.265625 -39.613281 39.921875 -39.5 C 41.578125 -39.394531 43.128906 -39.238281 44.578125 -39.03125 C 44.796875 -39.664062 44.90625 -40.320312 44.90625 -41 C 45.375 -40.789062 45.734375 -40.460938 45.984375 -40.015625 C 46.242188 -39.566406 46.394531 -39.148438 46.4375 -38.765625 C 47.539062 -38.597656 48.664062 -38.34375 49.8125 -38 C 50.96875 -37.664062 51.820312 -37.390625 52.375 -37.171875 C 52.925781 -36.878906 53.179688 -36.625 53.140625 -36.40625 C 53.097656 -36.320312 52.71875 -36.382812 52 -36.59375 C 51.3125 -36.8125 50.488281 -37.046875 49.53125 -37.296875 C 48.570312 -37.554688 47.5625 -37.75 46.5 -37.875 C 46.5 -37.40625 46.4375 -36.894531 46.3125 -36.34375 C 46.1875 -35.789062 46.015625 -35.300781 45.796875 -34.875 C 43.921875 -30.695312 39.789062 -25.546875 33.40625 -19.421875 C 31.832031 -17.929688 30.5 -16.707031 29.40625 -15.75 C 28.320312 -14.789062 27.054688 -13.691406 25.609375 -12.453125 C 25.179688 -12.066406 24.765625 -11.679688 24.359375 -11.296875 C 23.960938 -10.921875 23.765625 -10.5625 23.765625 -10.21875 C 23.765625 -9.875 24.082031 -9.703125 24.71875 -9.703125 C 25.0625 -9.703125 25.421875 -9.734375 25.796875 -9.796875 C 26.179688 -9.867188 26.566406 -9.988281 26.953125 -10.15625 C 28.316406 -10.707031 29.664062 -11.34375 31 -12.0625 C 32.34375 -12.789062 33.675781 -13.5625 35 -14.375 C 35.851562 -14.925781 37.035156 -15.710938 38.546875 -16.734375 C 40.054688 -17.753906 41.6875 -18.925781 43.4375 -20.25 C 44.84375 -21.3125 46.515625 -22.648438 48.453125 -24.265625 C 50.390625 -25.890625 52.503906 -27.613281 54.796875 -29.4375 C 57.097656 -31.269531 59.460938 -33.039062 61.890625 -34.75 C 64.660156 -36.625 67.160156 -38.15625 69.390625 -39.34375 C 71.628906 -40.539062 74.050781 -41.140625 76.65625 -41.140625 C 78.394531 -41.140625 79.828125 -40.742188 80.953125 -39.953125 C 82.085938 -39.160156 82.992188 -38.128906 83.671875 -36.859375 C 83.847656 -36.515625 83.847656 -36.320312 83.671875 -36.28125 Z M 83.671875 -36.28125 "></path></g></g></g><g fill="#492c01" fill-opacity="1"><g transform="translate(49.73836, 52.983372)"><g><path d="M 28.109375 -25.734375 C 28.273438 -25.734375 28.359375 -25.648438 28.359375 -25.484375 C 28.359375 -25.441406 28.296875 -25.316406 28.171875 -25.109375 C 26.972656 -23.992188 25.566406 -22.957031 23.953125 -22 C 22.335938 -21.039062 20.570312 -20.5625 18.65625 -20.5625 C 16.226562 -20.5625 15.015625 -21.457031 15.015625 -23.25 C 15.015625 -23.925781 15.257812 -24.507812 15.75 -25 C 16.238281 -25.488281 16.695312 -25.734375 17.125 -25.734375 C 17.289062 -25.734375 17.375 -25.671875 17.375 -25.546875 C 17.375 -25.503906 17.316406 -25.375 17.203125 -25.15625 C 17.097656 -24.945312 17.046875 -24.675781 17.046875 -24.34375 C 17.046875 -23.65625 17.3125 -23.140625 17.84375 -22.796875 C 18.382812 -22.460938 19.078125 -22.296875 19.921875 -22.296875 C 21.421875 -22.296875 22.894531 -22.6875 24.34375 -23.46875 C 25.789062 -24.257812 26.914062 -24.972656 27.71875 -25.609375 C 27.894531 -25.691406 28.023438 -25.734375 28.109375 -25.734375 Z M 24.53125 -18.65625 C 22.695312 -16.988281 20.9375 -15.300781 19.25 -13.59375 C 17.570312 -11.894531 16.070312 -10.332031 14.75 -8.90625 C 13.4375 -7.476562 12.394531 -6.296875 11.625 -5.359375 C 10.851562 -4.421875 10.191406 -3.578125 9.640625 -2.828125 C 9.085938 -2.085938 8.8125 -1.53125 8.8125 -1.15625 C 8.8125 -0.769531 9.023438 -0.578125 9.453125 -0.578125 C 9.878906 -0.578125 10.441406 -0.765625 11.140625 -1.140625 C 11.847656 -1.523438 12.5625 -1.984375 13.28125 -2.515625 C 14.007812 -3.054688 14.609375 -3.492188 15.078125 -3.828125 C 16.097656 -4.679688 17.171875 -5.585938 18.296875 -6.546875 C 19.429688 -7.503906 20.421875 -8.34375 21.265625 -9.0625 C 21.441406 -9.15625 21.59375 -9.234375 21.71875 -9.296875 C 21.84375 -9.359375 21.96875 -9.328125 22.09375 -9.203125 C 22.3125 -8.984375 22.25 -8.75 21.90625 -8.5 C 21.3125 -7.988281 20.617188 -7.390625 19.828125 -6.703125 C 19.046875 -6.023438 18.28125 -5.375 17.53125 -4.75 C 16.789062 -4.132812 16.1875 -3.632812 15.71875 -3.25 C 14.695312 -2.488281 13.566406 -1.679688 12.328125 -0.828125 C 11.085938 0.0234375 9.976562 0.453125 9 0.453125 C 8.15625 0.453125 7.570312 0.25 7.25 -0.15625 C 6.925781 -0.5625 6.765625 -1.082031 6.765625 -1.71875 C 6.765625 -2.65625 7.171875 -3.804688 7.984375 -5.171875 C 7.554688 -4.742188 7.140625 -4.367188 6.734375 -4.046875 C 6.328125 -3.734375 6 -3.46875 5.75 -3.25 C 4.769531 -2.445312 3.617188 -1.628906 2.296875 -0.796875 C 0.972656 0.0351562 -0.175781 0.453125 -1.15625 0.453125 C -1.957031 0.453125 -2.519531 0.269531 -2.84375 -0.09375 C -3.164062 -0.457031 -3.328125 -0.914062 -3.328125 -1.46875 C -3.328125 -2.53125 -2.898438 -3.753906 -2.046875 -5.140625 C -1.191406 -6.523438 -0.0390625 -8.003906 1.40625 -9.578125 C 2.257812 -10.472656 3.28125 -11.441406 4.46875 -12.484375 C 5.664062 -13.523438 6.867188 -14.503906 8.078125 -15.421875 C 9.296875 -16.335938 10.328125 -17.03125 11.171875 -17.5 C 11.640625 -17.800781 12.3125 -18.015625 13.1875 -18.140625 C 14.0625 -18.265625 14.710938 -18.304688 15.140625 -18.265625 C 13.265625 -16.734375 11.421875 -15.144531 9.609375 -13.5 C 7.804688 -11.863281 6.210938 -10.332031 4.828125 -8.90625 C 3.441406 -7.476562 2.363281 -6.296875 1.59375 -5.359375 C 0.832031 -4.421875 0.1875 -3.578125 -0.34375 -2.828125 C -0.882812 -2.085938 -1.15625 -1.53125 -1.15625 -1.15625 C -1.15625 -0.769531 -0.960938 -0.578125 -0.578125 -0.578125 C -0.148438 -0.578125 0.421875 -0.765625 1.140625 -1.140625 C 1.867188 -1.523438 2.613281 -1.984375 3.375 -2.515625 C 4.144531 -3.054688 4.785156 -3.535156 5.296875 -3.953125 C 5.847656 -4.378906 6.539062 -4.960938 7.375 -5.703125 C 8.207031 -6.453125 8.992188 -7.195312 9.734375 -7.9375 C 10.484375 -8.6875 11.03125 -9.234375 11.375 -9.578125 C 12.21875 -10.472656 13.234375 -11.472656 14.421875 -12.578125 C 15.617188 -13.691406 16.8125 -14.75 18 -15.75 C 19.195312 -16.75 20.222656 -17.503906 21.078125 -18.015625 C 21.421875 -18.222656 21.972656 -18.390625 22.734375 -18.515625 C 23.503906 -18.648438 24.101562 -18.695312 24.53125 -18.65625 Z M 24.53125 -18.65625 "></path></g></g></g><g fill="#492c01" fill-opacity="1"><g transform="translate(69.72724, 52.983372)"><g><path d="M 10.21875 0.578125 C 8.726562 0.578125 7.984375 -0.101562 7.984375 -1.46875 C 7.984375 -2.40625 8.257812 -3.351562 8.8125 -4.3125 C 9.363281 -5.269531 10.046875 -6.21875 10.859375 -7.15625 C 11.578125 -8.007812 12.351562 -8.804688 13.1875 -9.546875 C 14.019531 -10.296875 14.773438 -10.988281 15.453125 -11.625 C 15.628906 -11.789062 15.679688 -11.882812 15.609375 -11.90625 C 15.546875 -11.925781 15.453125 -11.894531 15.328125 -11.8125 C 14.265625 -10.914062 13.144531 -9.976562 11.96875 -9 C 10.800781 -8.019531 9.664062 -7.0625 8.5625 -6.125 C 7.539062 -5.238281 6.328125 -4.269531 4.921875 -3.21875 C 3.515625 -2.175781 2.128906 -1.28125 0.765625 -0.53125 C -0.597656 0.207031 -1.769531 0.578125 -2.75 0.578125 C -4.320312 0.578125 -5.109375 -0.144531 -5.109375 -1.59375 C -5.109375 -2.238281 -4.925781 -2.972656 -4.5625 -3.796875 C -4.207031 -4.628906 -3.6875 -5.382812 -3 -6.0625 C -2.613281 -6.445312 -2.21875 -6.765625 -1.8125 -7.015625 C -1.414062 -7.273438 -1.003906 -7.40625 -0.578125 -7.40625 C -0.148438 -7.40625 0.0625 -7.191406 0.0625 -6.765625 C 0.0625 -6.390625 -0.113281 -5.988281 -0.46875 -5.5625 C -0.832031 -5.132812 -1.25 -4.726562 -1.71875 -4.34375 C -3.257812 -3.238281 -4.03125 -2.257812 -4.03125 -1.40625 C -4.03125 -0.59375 -3.601562 -0.1875 -2.75 -0.1875 C -2.019531 -0.1875 -1.082031 -0.503906 0.0625 -1.140625 C 1.207031 -1.785156 2.429688 -2.585938 3.734375 -3.546875 C 5.035156 -4.503906 6.289062 -5.484375 7.5 -6.484375 C 8.71875 -7.484375 9.734375 -8.320312 10.546875 -9 C 12.035156 -10.238281 13.535156 -11.441406 15.046875 -12.609375 C 16.554688 -13.785156 17.9375 -14.816406 19.1875 -15.703125 C 20.445312 -16.597656 21.441406 -17.257812 22.171875 -17.6875 C 22.722656 -18.03125 23.347656 -18.265625 24.046875 -18.390625 C 24.753906 -18.523438 25.425781 -18.570312 26.0625 -18.53125 C 24.226562 -16.863281 22.4375 -15.1875 20.6875 -13.5 C 18.945312 -11.820312 17.382812 -10.257812 16 -8.8125 C 14.613281 -7.363281 13.539062 -6.191406 12.78125 -5.296875 C 12.007812 -4.359375 11.390625 -3.535156 10.921875 -2.828125 C 10.453125 -2.128906 10.21875 -1.546875 10.21875 -1.078125 C 10.21875 -0.660156 10.453125 -0.453125 10.921875 -0.453125 C 11.390625 -0.453125 11.960938 -0.617188 12.640625 -0.953125 C 13.328125 -1.296875 14.039062 -1.703125 14.78125 -2.171875 C 15.53125 -2.640625 16.160156 -3.066406 16.671875 -3.453125 C 17.390625 -4.003906 18.175781 -4.628906 19.03125 -5.328125 C 19.882812 -6.035156 20.679688 -6.707031 21.421875 -7.34375 C 22.171875 -7.976562 22.757812 -8.488281 23.1875 -8.875 C 23.65625 -9.300781 23.972656 -9.390625 24.140625 -9.140625 C 24.316406 -8.960938 24.253906 -8.726562 23.953125 -8.4375 C 23.398438 -7.96875 22.6875 -7.359375 21.8125 -6.609375 C 20.9375 -5.867188 20.082031 -5.144531 19.25 -4.4375 C 18.425781 -3.738281 17.757812 -3.195312 17.25 -2.8125 C 16.226562 -2.039062 15.066406 -1.28125 13.765625 -0.53125 C 12.460938 0.207031 11.28125 0.578125 10.21875 0.578125 Z M 10.21875 0.578125 "></path></g></g></g><g fill="#492c01" fill-opacity="1"><g transform="translate(91.887412, 52.983372)"><g><path d="M 15.84375 -18.90625 C 17.457031 -18.90625 18.265625 -18.285156 18.265625 -17.046875 C 18.265625 -16.117188 17.796875 -14.851562 16.859375 -13.25 C 15.921875 -11.65625 14.453125 -9.859375 12.453125 -7.859375 C 9.898438 -5.253906 7.492188 -3.195312 5.234375 -1.6875 C 2.984375 -0.175781 1.21875 0.578125 -0.0625 0.578125 C -1.894531 0.578125 -2.8125 -0.421875 -2.8125 -2.421875 C -2.8125 -3.578125 -2.375 -4.972656 -1.5 -6.609375 C -0.625 -8.242188 0.597656 -9.875 2.171875 -11.5 C 3.660156 -12.988281 5.234375 -14.285156 6.890625 -15.390625 C 8.554688 -16.492188 10.175781 -17.351562 11.75 -17.96875 C 13.320312 -18.59375 14.6875 -18.90625 15.84375 -18.90625 Z M 17.25 -17.3125 C 17.25 -17.78125 16.992188 -18.015625 16.484375 -18.015625 C 15.503906 -18.015625 13.925781 -17.191406 11.75 -15.546875 C 9.582031 -13.910156 7.175781 -11.75 4.53125 -9.0625 C 3.082031 -7.488281 1.796875 -6 0.671875 -4.59375 C -0.453125 -3.1875 -1.015625 -2.082031 -1.015625 -1.28125 C -1.015625 -0.550781 -0.675781 -0.1875 0 -0.1875 C 0.976562 -0.1875 2.53125 -1.054688 4.65625 -2.796875 C 6.789062 -4.546875 9.15625 -6.765625 11.75 -9.453125 C 12.476562 -10.222656 13.265625 -11.109375 14.109375 -12.109375 C 14.960938 -13.109375 15.695312 -14.085938 16.3125 -15.046875 C 16.9375 -16.003906 17.25 -16.757812 17.25 -17.3125 Z M 17.25 -17.3125 "></path></g></g></g><g fill="#492c01" fill-opacity="1"><g transform="translate(107.852944, 52.983372)"><g><path d="M 10.15625 -1.078125 C 10.15625 -0.660156 10.390625 -0.453125 10.859375 -0.453125 C 11.328125 -0.453125 11.898438 -0.617188 12.578125 -0.953125 C 13.265625 -1.296875 13.976562 -1.703125 14.71875 -2.171875 C 15.46875 -2.640625 16.097656 -3.066406 16.609375 -3.453125 C 17.328125 -4.003906 18.113281 -4.628906 18.96875 -5.328125 C 19.820312 -6.035156 20.628906 -6.707031 21.390625 -7.34375 C 22.160156 -7.976562 22.757812 -8.488281 23.1875 -8.875 C 23.613281 -9.300781 23.929688 -9.390625 24.140625 -9.140625 C 24.316406 -9.003906 24.234375 -8.769531 23.890625 -8.4375 C 23.335938 -7.96875 22.632812 -7.359375 21.78125 -6.609375 C 20.925781 -5.867188 20.070312 -5.144531 19.21875 -4.4375 C 18.375 -3.738281 17.695312 -3.195312 17.1875 -2.8125 C 16.164062 -2.039062 15.003906 -1.28125 13.703125 -0.53125 C 12.398438 0.207031 11.21875 0.578125 10.15625 0.578125 C 8.664062 0.578125 7.921875 -0.101562 7.921875 -1.46875 C 7.921875 -2.144531 8.144531 -2.941406 8.59375 -3.859375 C 9.039062 -4.773438 9.601562 -5.703125 10.28125 -6.640625 C 10.789062 -7.328125 11.34375 -8 11.9375 -8.65625 C 12.539062 -9.3125 13.160156 -9.960938 13.796875 -10.609375 C 13.328125 -10.304688 12.664062 -9.921875 11.8125 -9.453125 C 10.96875 -8.984375 10.179688 -8.75 9.453125 -8.75 C 8.859375 -8.75 8.398438 -8.894531 8.078125 -9.1875 C 7.753906 -9.488281 7.335938 -9.640625 6.828125 -9.640625 C 6.492188 -9.640625 6.082031 -9.46875 5.59375 -9.125 C 5.101562 -8.789062 4.644531 -8.429688 4.21875 -8.046875 C 3.789062 -7.660156 3.492188 -7.382812 3.328125 -7.21875 C 2.085938 -5.976562 0.925781 -4.6875 -0.15625 -3.34375 C -1.238281 -2.007812 -2.335938 -0.617188 -3.453125 0.828125 C -3.703125 0.828125 -3.898438 0.675781 -4.046875 0.375 C -4.203125 0.0820312 -4.28125 -0.253906 -4.28125 -0.640625 C -4.28125 -1.191406 -3.84375 -2.125 -2.96875 -3.4375 C -2.09375 -4.757812 -1.007812 -6.226562 0.28125 -7.84375 C 1.582031 -9.46875 2.894531 -10.960938 4.21875 -12.328125 C 5.238281 -13.429688 6.28125 -14.441406 7.34375 -15.359375 C 8.40625 -16.273438 9.320312 -16.988281 10.09375 -17.5 C 10.644531 -17.84375 11.332031 -18.097656 12.15625 -18.265625 C 12.988281 -18.441406 13.8125 -18.53125 14.625 -18.53125 C 13.8125 -17.96875 12.832031 -17.1875 11.6875 -16.1875 C 10.539062 -15.1875 9.367188 -14.078125 8.171875 -12.859375 C 6.984375 -11.648438 5.878906 -10.453125 4.859375 -9.265625 C 5.453125 -9.734375 6.078125 -10.164062 6.734375 -10.5625 C 7.398438 -10.96875 7.96875 -11.171875 8.4375 -11.171875 C 9.03125 -11.171875 9.539062 -11.039062 9.96875 -10.78125 C 10.394531 -10.53125 10.863281 -10.40625 11.375 -10.40625 C 12.09375 -10.40625 12.890625 -10.640625 13.765625 -11.109375 C 14.640625 -11.578125 15.457031 -12.175781 16.21875 -12.90625 C 17.332031 -13.925781 18.460938 -14.90625 19.609375 -15.84375 C 20.753906 -16.78125 21.710938 -17.460938 22.484375 -17.890625 C 22.953125 -18.140625 23.546875 -18.316406 24.265625 -18.421875 C 24.992188 -18.535156 25.570312 -18.570312 26 -18.53125 C 24.164062 -16.863281 22.375 -15.1875 20.625 -13.5 C 18.882812 -11.820312 17.320312 -10.257812 15.9375 -8.8125 C 14.550781 -7.363281 13.476562 -6.191406 12.71875 -5.296875 C 11.988281 -4.398438 11.378906 -3.585938 10.890625 -2.859375 C 10.398438 -2.140625 10.15625 -1.546875 10.15625 -1.078125 Z M 10.15625 -1.078125 "></path></g></g></g><g fill="#492c01" fill-opacity="1"><g transform="translate(129.949245, 52.983372)"><g><path d="M 24.53125 -18.65625 C 22.78125 -17.03125 20.957031 -15.25 19.0625 -13.3125 C 17.164062 -11.375 15.09375 -9.109375 12.84375 -6.515625 C 10.789062 -4.171875 8.410156 -1.582031 5.703125 1.25 C 3.003906 4.082031 0.1875 6.644531 -2.75 8.9375 C -6.789062 12.050781 -10.90625 14.40625 -15.09375 16 C -19.289062 17.59375 -23.117188 18.367188 -26.578125 18.328125 C -28.578125 18.285156 -30.445312 17.976562 -32.1875 17.40625 C -33.9375 16.832031 -35.394531 15.976562 -36.5625 14.84375 C -37.738281 13.71875 -38.5 12.347656 -38.84375 10.734375 C -39.050781 9.710938 -38.941406 9.15625 -38.515625 9.0625 C -38.347656 8.976562 -38.226562 9.0625 -38.15625 9.3125 C -38.09375 9.570312 -38.039062 9.832031 -38 10.09375 C -37.707031 11.625 -37.003906 12.921875 -35.890625 13.984375 C -34.785156 15.046875 -33.4375 15.84375 -31.84375 16.375 C -30.25 16.914062 -28.597656 17.207031 -26.890625 17.25 C -24.296875 17.289062 -21.738281 16.875 -19.21875 16 C -16.707031 15.125 -14.289062 13.972656 -11.96875 12.546875 C -9.65625 11.117188 -7.5625 9.660156 -5.6875 8.171875 C -4.40625 7.148438 -3.039062 5.988281 -1.59375 4.6875 C -0.144531 3.394531 1.28125 2.066406 2.6875 0.703125 C 4.09375 -0.660156 5.367188 -1.9375 6.515625 -3.125 C 7.660156 -4.320312 8.578125 -5.320312 9.265625 -6.125 C 9.347656 -6.21875 9.367188 -6.285156 9.328125 -6.328125 C 9.285156 -6.367188 9.222656 -6.347656 9.140625 -6.265625 C 8.492188 -5.703125 7.785156 -5.082031 7.015625 -4.40625 C 6.253906 -3.726562 5.75 -3.28125 5.5 -3.0625 C 4.382812 -2.207031 3.207031 -1.40625 1.96875 -0.65625 C 0.738281 0.0820312 -0.300781 0.453125 -1.15625 0.453125 C -1.957031 0.453125 -2.519531 0.269531 -2.84375 -0.09375 C -3.164062 -0.457031 -3.328125 -0.914062 -3.328125 -1.46875 C -3.328125 -2.53125 -2.898438 -3.753906 -2.046875 -5.140625 C -1.191406 -6.523438 -0.0390625 -8.003906 1.40625 -9.578125 C 2.257812 -10.472656 3.28125 -11.441406 4.46875 -12.484375 C 5.664062 -13.523438 6.867188 -14.503906 8.078125 -15.421875 C 9.296875 -16.335938 10.328125 -17.03125 11.171875 -17.5 C 11.640625 -17.800781 12.3125 -18.015625 13.1875 -18.140625 C 14.0625 -18.265625 14.710938 -18.304688 15.140625 -18.265625 C 13.265625 -16.734375 11.421875 -15.144531 9.609375 -13.5 C 7.804688 -11.863281 6.210938 -10.332031 4.828125 -8.90625 C 3.441406 -7.476562 2.363281 -6.296875 1.59375 -5.359375 C 0.832031 -4.421875 0.1875 -3.578125 -0.34375 -2.828125 C -0.882812 -2.085938 -1.15625 -1.53125 -1.15625 -1.15625 C -1.15625 -0.769531 -0.960938 -0.578125 -0.578125 -0.578125 C 0.015625 -0.578125 0.863281 -0.9375 1.96875 -1.65625 C 3.082031 -2.382812 4.109375 -3.085938 5.046875 -3.765625 C 5.597656 -4.191406 6.300781 -4.785156 7.15625 -5.546875 C 8.007812 -6.316406 8.890625 -7.128906 9.796875 -7.984375 C 10.710938 -8.835938 11.515625 -9.582031 12.203125 -10.21875 C 13.097656 -11.113281 14.066406 -12.0625 15.109375 -13.0625 C 16.148438 -14.0625 17.191406 -15.007812 18.234375 -15.90625 C 19.273438 -16.800781 20.222656 -17.503906 21.078125 -18.015625 C 21.421875 -18.222656 21.972656 -18.390625 22.734375 -18.515625 C 23.503906 -18.648438 24.101562 -18.695312 24.53125 -18.65625 Z M 24.53125 -18.65625 "></path></g></g></g><g fill="#492c01" fill-opacity="1"><g transform="translate(148.980182, 52.983372)"><g><path d="M 24.53125 -18.65625 C 22.78125 -17.03125 20.957031 -15.25 19.0625 -13.3125 C 17.164062 -11.375 15.09375 -9.109375 12.84375 -6.515625 C 10.789062 -4.171875 8.410156 -1.582031 5.703125 1.25 C 3.003906 4.082031 0.1875 6.644531 -2.75 8.9375 C -6.789062 12.050781 -10.90625 14.40625 -15.09375 16 C -19.289062 17.59375 -23.117188 18.367188 -26.578125 18.328125 C -28.578125 18.285156 -30.445312 17.976562 -32.1875 17.40625 C -33.9375 16.832031 -35.394531 15.976562 -36.5625 14.84375 C -37.738281 13.71875 -38.5 12.347656 -38.84375 10.734375 C -39.050781 9.710938 -38.941406 9.15625 -38.515625 9.0625 C -38.347656 8.976562 -38.226562 9.0625 -38.15625 9.3125 C -38.09375 9.570312 -38.039062 9.832031 -38 10.09375 C -37.707031 11.625 -37.003906 12.921875 -35.890625 13.984375 C -34.785156 15.046875 -33.4375 15.84375 -31.84375 16.375 C -30.25 16.914062 -28.597656 17.207031 -26.890625 17.25 C -24.296875 17.289062 -21.738281 16.875 -19.21875 16 C -16.707031 15.125 -14.289062 13.972656 -11.96875 12.546875 C -9.65625 11.117188 -7.5625 9.660156 -5.6875 8.171875 C -4.40625 7.148438 -3.039062 5.988281 -1.59375 4.6875 C -0.144531 3.394531 1.28125 2.066406 2.6875 0.703125 C 4.09375 -0.660156 5.367188 -1.9375 6.515625 -3.125 C 7.660156 -4.320312 8.578125 -5.320312 9.265625 -6.125 C 9.347656 -6.21875 9.367188 -6.285156 9.328125 -6.328125 C 9.285156 -6.367188 9.222656 -6.347656 9.140625 -6.265625 C 8.492188 -5.703125 7.785156 -5.082031 7.015625 -4.40625 C 6.253906 -3.726562 5.75 -3.28125 5.5 -3.0625 C 4.382812 -2.207031 3.207031 -1.40625 1.96875 -0.65625 C 0.738281 0.0820312 -0.300781 0.453125 -1.15625 0.453125 C -1.957031 0.453125 -2.519531 0.269531 -2.84375 -0.09375 C -3.164062 -0.457031 -3.328125 -0.914062 -3.328125 -1.46875 C -3.328125 -2.53125 -2.898438 -3.753906 -2.046875 -5.140625 C -1.191406 -6.523438 -0.0390625 -8.003906 1.40625 -9.578125 C 2.257812 -10.472656 3.28125 -11.441406 4.46875 -12.484375 C 5.664062 -13.523438 6.867188 -14.503906 8.078125 -15.421875 C 9.296875 -16.335938 10.328125 -17.03125 11.171875 -17.5 C 11.640625 -17.800781 12.3125 -18.015625 13.1875 -18.140625 C 14.0625 -18.265625 14.710938 -18.304688 15.140625 -18.265625 C 13.265625 -16.734375 11.421875 -15.144531 9.609375 -13.5 C 7.804688 -11.863281 6.210938 -10.332031 4.828125 -8.90625 C 3.441406 -7.476562 2.363281 -6.296875 1.59375 -5.359375 C 0.832031 -4.421875 0.1875 -3.578125 -0.34375 -2.828125 C -0.882812 -2.085938 -1.15625 -1.53125 -1.15625 -1.15625 C -1.15625 -0.769531 -0.960938 -0.578125 -0.578125 -0.578125 C 0.015625 -0.578125 0.863281 -0.9375 1.96875 -1.65625 C 3.082031 -2.382812 4.109375 -3.085938 5.046875 -3.765625 C 5.597656 -4.191406 6.300781 -4.785156 7.15625 -5.546875 C 8.007812 -6.316406 8.890625 -7.128906 9.796875 -7.984375 C 10.710938 -8.835938 11.515625 -9.582031 12.203125 -10.21875 C 13.097656 -11.113281 14.066406 -12.0625 15.109375 -13.0625 C 16.148438 -14.0625 17.191406 -15.007812 18.234375 -15.90625 C 19.273438 -16.800781 20.222656 -17.503906 21.078125 -18.015625 C 21.421875 -18.222656 21.972656 -18.390625 22.734375 -18.515625 C 23.503906 -18.648438 24.101562 -18.695312 24.53125 -18.65625 Z M 24.53125 -18.65625 "></path></g></g></g><g fill="#492c01" fill-opacity="1"><g transform="translate(168.011118, 52.983372)"><g></g></g></g><g fill="#492c01" fill-opacity="1"><g transform="translate(181.294471, 52.983372)"><g><path d="M 20.625 -18.78125 C 21.78125 -18.78125 22.359375 -18.226562 22.359375 -17.125 C 22.359375 -16.65625 22.25 -16.117188 22.03125 -15.515625 C 21.820312 -14.921875 21.484375 -14.367188 21.015625 -13.859375 C 22.253906 -14.671875 23.507812 -15.457031 24.78125 -16.21875 C 26.0625 -16.988281 27.265625 -17.617188 28.390625 -18.109375 C 29.515625 -18.597656 30.421875 -18.84375 31.109375 -18.84375 C 31.828125 -18.84375 32.335938 -18.640625 32.640625 -18.234375 C 32.941406 -17.828125 33.09375 -17.390625 33.09375 -16.921875 C 33.09375 -16.203125 32.75 -15.375 32.0625 -14.4375 C 31.382812 -13.5 30.585938 -12.582031 29.671875 -11.6875 C 28.753906 -10.789062 27.910156 -10.003906 27.140625 -9.328125 C 26.117188 -8.390625 25.179688 -7.503906 24.328125 -6.671875 C 23.484375 -5.835938 22.71875 -5.0625 22.03125 -4.34375 C 21.351562 -3.613281 20.800781 -2.972656 20.375 -2.421875 C 19.945312 -1.867188 19.734375 -1.421875 19.734375 -1.078125 C 19.734375 -0.660156 19.96875 -0.453125 20.4375 -0.453125 C 20.988281 -0.453125 21.742188 -0.695312 22.703125 -1.1875 C 23.660156 -1.675781 24.671875 -2.300781 25.734375 -3.0625 C 27.097656 -4.039062 28.3125 -4.976562 29.375 -5.875 C 30.445312 -6.769531 31.363281 -7.535156 32.125 -8.171875 C 32.851562 -8.859375 33.320312 -9.09375 33.53125 -8.875 C 33.65625 -8.789062 33.6875 -8.660156 33.625 -8.484375 C 33.5625 -8.316406 33.445312 -8.171875 33.28125 -8.046875 C 32.769531 -7.617188 32.085938 -7.039062 31.234375 -6.3125 C 30.378906 -5.59375 29.484375 -4.847656 28.546875 -4.078125 C 27.609375 -3.316406 26.738281 -2.660156 25.9375 -2.109375 C 24.820312 -1.296875 23.722656 -0.644531 22.640625 -0.15625 C 21.554688 0.332031 20.609375 0.578125 19.796875 0.578125 C 19.242188 0.578125 18.734375 0.382812 18.265625 0 C 17.796875 -0.382812 17.5625 -0.976562 17.5625 -1.78125 C 17.5625 -2.757812 18.007812 -3.910156 18.90625 -5.234375 C 19.71875 -6.347656 20.503906 -7.296875 21.265625 -8.078125 C 22.035156 -8.867188 23.082031 -9.859375 24.40625 -11.046875 C 25.082031 -11.691406 25.921875 -12.425781 26.921875 -13.25 C 27.921875 -14.082031 28.828125 -14.890625 29.640625 -15.671875 C 30.453125 -16.460938 30.859375 -17.050781 30.859375 -17.4375 C 30.859375 -17.695312 30.726562 -17.828125 30.46875 -17.828125 C 30.039062 -17.828125 29.21875 -17.535156 28 -16.953125 C 26.789062 -16.378906 25.429688 -15.625 23.921875 -14.6875 C 22.410156 -13.75 20.910156 -12.75 19.421875 -11.6875 C 18.097656 -10.664062 16.765625 -9.566406 15.421875 -8.390625 C 14.078125 -7.222656 12.679688 -5.832031 11.234375 -4.21875 C 10.597656 -3.488281 9.882812 -2.644531 9.09375 -1.6875 C 8.3125 -0.726562 7.644531 0.109375 7.09375 0.828125 C 6.914062 0.828125 6.742188 0.675781 6.578125 0.375 C 6.410156 0.0820312 6.328125 -0.273438 6.328125 -0.703125 C 6.328125 -1.128906 6.664062 -1.894531 7.34375 -3 C 8.03125 -4.101562 8.957031 -5.378906 10.125 -6.828125 C 11.289062 -8.273438 12.554688 -9.679688 13.921875 -11.046875 C 14.566406 -11.691406 15.398438 -12.4375 16.421875 -13.28125 C 17.441406 -14.132812 18.34375 -14.953125 19.125 -15.734375 C 19.914062 -16.523438 20.3125 -17.09375 20.3125 -17.4375 C 20.3125 -17.695312 20.179688 -17.828125 19.921875 -17.828125 C 19.367188 -17.828125 18.472656 -17.523438 17.234375 -16.921875 C 16.003906 -16.328125 14.625 -15.539062 13.09375 -14.5625 C 11.5625 -13.582031 10.039062 -12.535156 8.53125 -11.421875 C 7.019531 -10.316406 5.726562 -9.253906 4.65625 -8.234375 C 2.613281 -6.273438 0.9375 -4.539062 -0.375 -3.03125 C -1.695312 -1.519531 -2.722656 -0.234375 -3.453125 0.828125 C -3.617188 0.828125 -3.796875 0.675781 -3.984375 0.375 C -4.179688 0.0820312 -4.28125 -0.296875 -4.28125 -0.765625 C -4.28125 -1.234375 -3.882812 -2.070312 -3.09375 -3.28125 C -2.3125 -4.5 -1.28125 -5.914062 0 -7.53125 C 1.28125 -9.15625 2.6875 -10.753906 4.21875 -12.328125 C 5.238281 -13.429688 6.289062 -14.441406 7.375 -15.359375 C 8.457031 -16.273438 9.382812 -16.988281 10.15625 -17.5 C 10.707031 -17.84375 11.375 -18.097656 12.15625 -18.265625 C 12.945312 -18.441406 13.75 -18.53125 14.5625 -18.53125 C 13.457031 -17.757812 12.09375 -16.648438 10.46875 -15.203125 C 8.851562 -13.753906 7.34375 -12.222656 5.9375 -10.609375 C 5.851562 -10.515625 5.820312 -10.445312 5.84375 -10.40625 C 5.863281 -10.363281 5.894531 -10.363281 5.9375 -10.40625 C 6.75 -11.09375 7.789062 -11.90625 9.0625 -12.84375 C 10.34375 -13.78125 11.707031 -14.703125 13.15625 -15.609375 C 14.601562 -16.523438 15.988281 -17.28125 17.3125 -17.875 C 18.632812 -18.476562 19.738281 -18.78125 20.625 -18.78125 Z M 20.625 -18.78125 "></path></g></g></g><g fill="#492c01" fill-opacity="1"><g transform="translate(213.161704, 52.983372)"><g><path d="M 15.84375 -18.90625 C 17.457031 -18.90625 18.265625 -18.285156 18.265625 -17.046875 C 18.265625 -16.117188 17.796875 -14.851562 16.859375 -13.25 C 15.921875 -11.65625 14.453125 -9.859375 12.453125 -7.859375 C 9.898438 -5.253906 7.492188 -3.195312 5.234375 -1.6875 C 2.984375 -0.175781 1.21875 0.578125 -0.0625 0.578125 C -1.894531 0.578125 -2.8125 -0.421875 -2.8125 -2.421875 C -2.8125 -3.578125 -2.375 -4.972656 -1.5 -6.609375 C -0.625 -8.242188 0.597656 -9.875 2.171875 -11.5 C 3.660156 -12.988281 5.234375 -14.285156 6.890625 -15.390625 C 8.554688 -16.492188 10.175781 -17.351562 11.75 -17.96875 C 13.320312 -18.59375 14.6875 -18.90625 15.84375 -18.90625 Z M 17.25 -17.3125 C 17.25 -17.78125 16.992188 -18.015625 16.484375 -18.015625 C 15.503906 -18.015625 13.925781 -17.191406 11.75 -15.546875 C 9.582031 -13.910156 7.175781 -11.75 4.53125 -9.0625 C 3.082031 -7.488281 1.796875 -6 0.671875 -4.59375 C -0.453125 -3.1875 -1.015625 -2.082031 -1.015625 -1.28125 C -1.015625 -0.550781 -0.675781 -0.1875 0 -0.1875 C 0.976562 -0.1875 2.53125 -1.054688 4.65625 -2.796875 C 6.789062 -4.546875 9.15625 -6.765625 11.75 -9.453125 C 12.476562 -10.222656 13.265625 -11.109375 14.109375 -12.109375 C 14.960938 -13.109375 15.695312 -14.085938 16.3125 -15.046875 C 16.9375 -16.003906 17.25 -16.757812 17.25 -17.3125 Z M 17.25 -17.3125 "></path></g></g></g><g fill="#492c01" fill-opacity="1"><g transform="translate(229.638242, 52.983372)"><g><path d="M 28.109375 -25.734375 C 28.273438 -25.734375 28.359375 -25.648438 28.359375 -25.484375 C 28.359375 -25.441406 28.296875 -25.316406 28.171875 -25.109375 C 26.972656 -23.992188 25.566406 -22.957031 23.953125 -22 C 22.335938 -21.039062 20.570312 -20.5625 18.65625 -20.5625 C 16.226562 -20.5625 15.015625 -21.457031 15.015625 -23.25 C 15.015625 -23.925781 15.257812 -24.507812 15.75 -25 C 16.238281 -25.488281 16.695312 -25.734375 17.125 -25.734375 C 17.289062 -25.734375 17.375 -25.671875 17.375 -25.546875 C 17.375 -25.503906 17.316406 -25.375 17.203125 -25.15625 C 17.097656 -24.945312 17.046875 -24.675781 17.046875 -24.34375 C 17.046875 -23.65625 17.3125 -23.140625 17.84375 -22.796875 C 18.382812 -22.460938 19.078125 -22.296875 19.921875 -22.296875 C 21.421875 -22.296875 22.894531 -22.6875 24.34375 -23.46875 C 25.789062 -24.257812 26.914062 -24.972656 27.71875 -25.609375 C 27.894531 -25.691406 28.023438 -25.734375 28.109375 -25.734375 Z M 24.53125 -18.65625 C 22.695312 -16.988281 20.9375 -15.300781 19.25 -13.59375 C 17.570312 -11.894531 16.070312 -10.332031 14.75 -8.90625 C 13.4375 -7.476562 12.394531 -6.296875 11.625 -5.359375 C 10.851562 -4.421875 10.191406 -3.578125 9.640625 -2.828125 C 9.085938 -2.085938 8.8125 -1.53125 8.8125 -1.15625 C 8.8125 -0.769531 9.023438 -0.578125 9.453125 -0.578125 C 9.878906 -0.578125 10.441406 -0.765625 11.140625 -1.140625 C 11.847656 -1.523438 12.5625 -1.984375 13.28125 -2.515625 C 14.007812 -3.054688 14.609375 -3.492188 15.078125 -3.828125 C 16.097656 -4.679688 17.171875 -5.585938 18.296875 -6.546875 C 19.429688 -7.503906 20.421875 -8.34375 21.265625 -9.0625 C 21.441406 -9.15625 21.59375 -9.234375 21.71875 -9.296875 C 21.84375 -9.359375 21.96875 -9.328125 22.09375 -9.203125 C 22.3125 -8.984375 22.25 -8.75 21.90625 -8.5 C 21.3125 -7.988281 20.617188 -7.390625 19.828125 -6.703125 C 19.046875 -6.023438 18.28125 -5.375 17.53125 -4.75 C 16.789062 -4.132812 16.1875 -3.632812 15.71875 -3.25 C 14.695312 -2.488281 13.566406 -1.679688 12.328125 -0.828125 C 11.085938 0.0234375 9.976562 0.453125 9 0.453125 C 8.15625 0.453125 7.570312 0.25 7.25 -0.15625 C 6.925781 -0.5625 6.765625 -1.082031 6.765625 -1.71875 C 6.765625 -2.65625 7.171875 -3.804688 7.984375 -5.171875 C 7.554688 -4.742188 7.140625 -4.367188 6.734375 -4.046875 C 6.328125 -3.734375 6 -3.46875 5.75 -3.25 C 4.769531 -2.445312 3.617188 -1.628906 2.296875 -0.796875 C 0.972656 0.0351562 -0.175781 0.453125 -1.15625 0.453125 C -1.957031 0.453125 -2.519531 0.269531 -2.84375 -0.09375 C -3.164062 -0.457031 -3.328125 -0.914062 -3.328125 -1.46875 C -3.328125 -2.53125 -2.898438 -3.753906 -2.046875 -5.140625 C -1.191406 -6.523438 -0.0390625 -8.003906 1.40625 -9.578125 C 2.257812 -10.472656 3.28125 -11.441406 4.46875 -12.484375 C 5.664062 -13.523438 6.867188 -14.503906 8.078125 -15.421875 C 9.296875 -16.335938 10.328125 -17.03125 11.171875 -17.5 C 11.640625 -17.800781 12.3125 -18.015625 13.1875 -18.140625 C 14.0625 -18.265625 14.710938 -18.304688 15.140625 -18.265625 C 13.265625 -16.734375 11.421875 -15.144531 9.609375 -13.5 C 7.804688 -11.863281 6.210938 -10.332031 4.828125 -8.90625 C 3.441406 -7.476562 2.363281 -6.296875 1.59375 -5.359375 C 0.832031 -4.421875 0.1875 -3.578125 -0.34375 -2.828125 C -0.882812 -2.085938 -1.15625 -1.53125 -1.15625 -1.15625 C -1.15625 -0.769531 -0.960938 -0.578125 -0.578125 -0.578125 C -0.148438 -0.578125 0.421875 -0.765625 1.140625 -1.140625 C 1.867188 -1.523438 2.613281 -1.984375 3.375 -2.515625 C 4.144531 -3.054688 4.785156 -3.535156 5.296875 -3.953125 C 5.847656 -4.378906 6.539062 -4.960938 7.375 -5.703125 C 8.207031 -6.453125 8.992188 -7.195312 9.734375 -7.9375 C 10.484375 -8.6875 11.03125 -9.234375 11.375 -9.578125 C 12.21875 -10.472656 13.234375 -11.472656 14.421875 -12.578125 C 15.617188 -13.691406 16.8125 -14.75 18 -15.75 C 19.195312 -16.75 20.222656 -17.503906 21.078125 -18.015625 C 21.421875 -18.222656 21.972656 -18.390625 22.734375 -18.515625 C 23.503906 -18.648438 24.101562 -18.695312 24.53125 -18.65625 Z M 24.53125 -18.65625 "></path></g></g></g></g></g><g clip-path="url(#a8cc5f8287)"><g clip-path="url(#ad262c0921)"><g transform="matrix(1, 0, 0, 1, 102, 182)"><g clip-path="url(#5e2b65c50f)"><g clip-path="url(#25161caed2)"><g clip-path="url(#a0900e9ef2)"><rect x="-161.4" width="388.8" fill="#492c01" height="518.399981" y="-261.199997" fill-opacity="1"></rect></g></g></g></g></g></g><g clip-path="url(#864d353705)"><g clip-path="url(#3e03956415)"><g transform="matrix(1, 0, 0, 1, 171, 201)"><g clip-path="url(#09311db873)"><g clip-path="url(#9775646fca)"><g clip-path="url(#39852eb2a0)"><rect x="-230.4" width="388.8" fill="#492c01" height="518.399981" y="-280.199997" fill-opacity="1"></rect></g></g></g></g></g></g></svg> 