<?xml version="1.0" encoding="UTF-8"?> <svg xmlns="http://www.w3.org/2000/svg" xmlns:xlink="http://www.w3.org/1999/xlink" width="360" zoomAndPan="magnify" viewBox="0 0 270 359.999987" height="480" preserveAspectRatio="xMidYMid meet" version="1.0"><defs><g></g><clipPath id="728fb8a1d8"><path d="M 171.886719 201.582031 L 172.296875 201.582031 L 172.296875 201.863281 L 171.886719 201.863281 Z M 171.886719 201.582031 " clip-rule="nonzero"></path></clipPath><clipPath id="2a2a3162b8"><path d="M 172.273438 201.75 C 171.523438 202.050781 172.125 201.601562 172.125 201.601562 " clip-rule="nonzero"></path></clipPath><clipPath id="12777a17be"><path d="M 0.886719 0.582031 L 1.296875 0.582031 L 1.296875 0.863281 L 0.886719 0.863281 Z M 0.886719 0.582031 " clip-rule="nonzero"></path></clipPath><clipPath id="18f87084a8"><path d="M 1.273438 0.75 C 0.523438 1.050781 1.125 0.601562 1.125 0.601562 " clip-rule="nonzero"></path></clipPath><clipPath id="c1a64e9e3f"><rect x="0" width="2" y="0" height="1"></rect></clipPath><clipPath id="c8f3bef068"><path d="M 78.0625 176.757812 L 78.472656 176.757812 L 78.472656 177 L 78.0625 177 Z M 78.0625 176.757812 " clip-rule="nonzero"></path></clipPath><clipPath id="d7ad76f7a0"><path d="M 78.449219 176.925781 C 77.699219 177.148438 78.300781 176.773438 78.300781 176.773438 " clip-rule="nonzero"></path></clipPath><clipPath id="b8d25be7f3"><path d="M 0.0625 0.757812 L 0.472656 0.757812 L 0.472656 1 L 0.0625 1 Z M 0.0625 0.757812 " clip-rule="nonzero"></path></clipPath><clipPath id="69b73e2c13"><path d="M 0.449219 0.925781 C -0.300781 1.148438 0.300781 0.773438 0.300781 0.773438 " clip-rule="nonzero"></path></clipPath><clipPath id="338b098e36"><rect x="0" width="1" y="0" height="1"></rect></clipPath><clipPath id="8f9df0e0d8"><path d="M 0.0625 0.757812 L 0.472656 0.757812 L 0.472656 1 L 0.0625 1 Z M 0.0625 0.757812 " clip-rule="nonzero"></path></clipPath><clipPath id="f981451c8f"><path d="M 0.449219 0.925781 C -0.300781 1.148438 0.300781 0.773438 0.300781 0.773438 " clip-rule="nonzero"></path></clipPath><clipPath id="480b43422f"><rect x="0" width="1" y="0" height="1"></rect></clipPath><clipPath id="18a65f641e"><rect x="0" width="258" y="0" height="85"></rect></clipPath></defs><g clip-path="url(#728fb8a1d8)"><g clip-path="url(#2a2a3162b8)"><g transform="matrix(1, 0, 0, 1, 171, 201)"><g clip-path="url(#c1a64e9e3f)"><g clip-path="url(#12777a17be)"><g clip-path="url(#18f87084a8)"><rect x="-230.4" width="388.8" fill="#492c01" height="518.399981" y="-280.199997" fill-opacity="1"></rect></g></g></g></g></g></g><g clip-path="url(#c8f3bef068)"><g clip-path="url(#d7ad76f7a0)"><g transform="matrix(1, 0, 0, 1, 78, 176)"><g clip-path="url(#338b098e36)"><g clip-path="url(#b8d25be7f3)"><g clip-path="url(#69b73e2c13)"><rect x="-137.4" width="388.8" fill="#492c01" height="518.399981" y="-255.199997" fill-opacity="1"></rect></g></g></g></g><g transform="matrix(1, 0, 0, 1, 78, 176)"><g clip-path="url(#480b43422f)"><g clip-path="url(#8f9df0e0d8)"><g clip-path="url(#f981451c8f)"><rect x="-137.4" width="388.8" fill="#492c01" height="518.399981" y="-255.199997" fill-opacity="1"></rect></g></g></g></g></g></g><g transform="matrix(1, 0, 0, 1, 6, 137)"><g clip-path="url(#18a65f641e)"><g fill="#492c01" fill-opacity="1"><g transform="translate(0.176743, 30.080587)"><g><path d="M 46.703125 -12.46875 C 48.460938 -14.332031 50.148438 -16.007812 51.765625 -17.5 C 53.390625 -18.988281 54.878906 -20.210938 56.234375 -21.171875 C 55.429688 -21.203125 54.445312 -21.257812 53.28125 -21.34375 C 52.113281 -21.4375 50.957031 -21.550781 49.8125 -21.6875 C 48.625 -20.570312 47.578125 -19.5625 46.671875 -18.65625 C 45.765625 -17.75 44.898438 -16.859375 44.078125 -15.984375 C 43.265625 -15.117188 42.429688 -14.207031 41.578125 -13.25 C 40.722656 -12.289062 39.765625 -11.203125 38.703125 -9.984375 C 38.109375 -9.285156 37.394531 -8.445312 36.5625 -7.46875 C 35.738281 -6.5 34.898438 -5.472656 34.046875 -4.390625 C 33.191406 -3.304688 32.425781 -2.257812 31.75 -1.25 C 31.539062 -0.90625 31.3125 -0.519531 31.0625 -0.09375 C 30.820312 0.332031 30.597656 0.765625 30.390625 1.203125 C 29.847656 1.203125 29.578125 0.835938 29.578125 0.109375 C 29.578125 -0.585938 29.859375 -1.425781 30.421875 -2.40625 C 30.734375 -2.925781 31.148438 -3.535156 31.671875 -4.234375 C 32.191406 -4.929688 32.757812 -5.65625 33.375 -6.40625 C 34 -7.15625 34.601562 -7.867188 35.1875 -8.546875 C 35.769531 -9.222656 36.269531 -9.78125 36.6875 -10.21875 C 37.300781 -10.914062 38.066406 -11.75 38.984375 -12.71875 C 39.910156 -13.695312 40.90625 -14.726562 41.96875 -15.8125 C 43.03125 -16.90625 44.097656 -17.972656 45.171875 -19.015625 C 46.242188 -20.066406 47.25 -21.019531 48.1875 -21.875 C 47.09375 -22.007812 46.066406 -22.144531 45.109375 -22.28125 C 44.148438 -22.425781 43.390625 -22.535156 42.828125 -22.609375 C 41.421875 -21.296875 39.972656 -19.847656 38.484375 -18.265625 C 36.992188 -16.679688 35.550781 -15.140625 34.15625 -13.640625 C 32.757812 -12.140625 31.488281 -10.804688 30.34375 -9.640625 C 27.8125 -7.046875 25.332031 -4.800781 22.90625 -2.90625 C 20.488281 -1.019531 18.066406 0.429688 15.640625 1.453125 C 13.210938 2.472656 10.691406 2.984375 8.078125 2.984375 C 7.015625 2.984375 6.015625 2.832031 5.078125 2.53125 C 4.148438 2.238281 3.398438 1.726562 2.828125 1 C 2.265625 0.28125 1.984375 -0.710938 1.984375 -1.984375 C 1.984375 -3.171875 2.226562 -4.34375 2.71875 -5.5 C 3.207031 -6.65625 3.816406 -7.75 4.546875 -8.78125 C 4.316406 -8.988281 4 -9.367188 3.59375 -9.921875 C 3.1875 -10.484375 2.984375 -11.425781 2.984375 -12.75 C 2.984375 -14.125 3.351562 -15.554688 4.09375 -17.046875 C 4.832031 -18.535156 6.023438 -19.925781 7.671875 -21.21875 C 9.316406 -22.507812 11.476562 -23.5625 14.15625 -24.375 C 16.84375 -25.195312 20.140625 -25.609375 24.046875 -25.609375 C 27.054688 -25.609375 30.082031 -25.425781 33.125 -25.0625 C 36.164062 -24.695312 39.347656 -24.21875 42.671875 -23.625 C 43.035156 -23.90625 43.457031 -24.1875 43.9375 -24.46875 C 44.414062 -24.757812 44.9375 -25.007812 45.5 -25.21875 C 45.601562 -25.269531 45.742188 -25.3125 45.921875 -25.34375 C 46.109375 -25.382812 46.253906 -25.40625 46.359375 -25.40625 C 46.484375 -25.40625 46.546875 -25.367188 46.546875 -25.296875 C 46.546875 -25.191406 46.488281 -25.117188 46.375 -25.078125 C 46.257812 -25.046875 46.097656 -24.988281 45.890625 -24.90625 C 45.472656 -24.75 45.070312 -24.535156 44.6875 -24.265625 C 44.300781 -23.992188 43.953125 -23.71875 43.640625 -23.4375 C 44.179688 -23.332031 44.9375 -23.207031 45.90625 -23.0625 C 46.882812 -22.914062 47.929688 -22.765625 49.046875 -22.609375 C 49.585938 -23.023438 49.988281 -23.234375 50.25 -23.234375 C 50.457031 -23.234375 50.5625 -23.117188 50.5625 -22.890625 C 50.5625 -22.703125 50.492188 -22.546875 50.359375 -22.421875 C 51.523438 -22.265625 52.695312 -22.128906 53.875 -22.015625 C 55.050781 -21.898438 56.09375 -21.816406 57 -21.765625 C 57.988281 -22.359375 59.066406 -22.851562 60.234375 -23.25 C 61.398438 -23.65625 62.550781 -23.859375 63.6875 -23.859375 C 64.9375 -23.859375 65.800781 -23.695312 66.28125 -23.375 C 66.757812 -23.050781 67 -22.695312 67 -22.3125 C 67 -21.945312 66.773438 -21.613281 66.328125 -21.3125 C 65.890625 -21.019531 65.023438 -20.875 63.734375 -20.875 C 62.640625 -20.875 61.566406 -20.894531 60.515625 -20.9375 C 59.472656 -20.988281 58.550781 -21.039062 57.75 -21.09375 C 56.738281 -20.375 55.613281 -19.421875 54.375 -18.234375 C 53.144531 -17.054688 51.910156 -15.785156 50.671875 -14.421875 C 49.429688 -13.066406 48.28125 -11.769531 47.21875 -10.53125 C 45.476562 -8.488281 44.019531 -6.726562 42.84375 -5.25 C 41.664062 -3.769531 40.703125 -2.523438 39.953125 -1.515625 C 39.453125 -0.835938 39.0625 -0.296875 38.78125 0.109375 C 38.5 0.523438 38.210938 0.734375 37.921875 0.734375 C 37.585938 0.734375 37.425781 0.53125 37.4375 0.125 C 37.445312 -0.269531 37.546875 -0.660156 37.734375 -1.046875 C 38.273438 -2.160156 39.035156 -3.378906 40.015625 -4.703125 C 41.003906 -6.023438 42.085938 -7.359375 43.265625 -8.703125 C 44.441406 -10.046875 45.585938 -11.300781 46.703125 -12.46875 Z M 41.703125 -22.8125 C 38.898438 -23.195312 36.039062 -23.53125 33.125 -23.8125 C 30.207031 -24.101562 27.171875 -24.25 24.015625 -24.25 C 20.359375 -24.25 17.234375 -23.90625 14.640625 -23.21875 C 12.054688 -22.53125 9.945312 -21.628906 8.3125 -20.515625 C 6.6875 -19.398438 5.488281 -18.175781 4.71875 -16.84375 C 3.957031 -15.507812 3.578125 -14.195312 3.578125 -12.90625 C 3.578125 -11.945312 3.695312 -11.148438 3.9375 -10.515625 C 4.1875 -9.878906 4.46875 -9.40625 4.78125 -9.09375 C 5.457031 -9.945312 6.226562 -10.78125 7.09375 -11.59375 C 7.957031 -12.414062 8.910156 -13.1875 9.953125 -13.90625 C 11.015625 -14.632812 12.21875 -15.304688 13.5625 -15.921875 C 14.90625 -16.546875 16.316406 -17.050781 17.796875 -17.4375 C 19.273438 -17.832031 20.703125 -18.03125 22.078125 -18.03125 C 22.929688 -18.03125 23.722656 -17.925781 24.453125 -17.71875 C 25.191406 -17.507812 25.785156 -17.160156 26.234375 -16.671875 C 26.691406 -16.179688 26.921875 -15.492188 26.921875 -14.609375 C 26.921875 -14.242188 26.882812 -14.003906 26.8125 -13.890625 C 26.738281 -13.773438 26.675781 -13.71875 26.625 -13.71875 C 26.519531 -13.71875 26.472656 -13.800781 26.484375 -13.96875 C 26.492188 -14.132812 26.488281 -14.347656 26.46875 -14.609375 C 26.414062 -15.441406 26.0625 -16.128906 25.40625 -16.671875 C 24.757812 -17.210938 23.84375 -17.484375 22.65625 -17.484375 C 21.4375 -17.484375 20.109375 -17.226562 18.671875 -16.71875 C 17.234375 -16.21875 15.835938 -15.597656 14.484375 -14.859375 C 13.140625 -14.117188 11.953125 -13.375 10.921875 -12.625 C 10.140625 -12.0625 9.269531 -11.382812 8.3125 -10.59375 C 7.351562 -9.800781 6.445312 -8.929688 5.59375 -7.984375 C 4.738281 -7.035156 4.03125 -6.039062 3.46875 -5 C 2.914062 -3.96875 2.640625 -2.921875 2.640625 -1.859375 C 2.640625 -0.742188 2.890625 0.113281 3.390625 0.71875 C 3.898438 1.320312 4.5625 1.75 5.375 2 C 6.195312 2.25 7.046875 2.375 7.921875 2.375 C 9.535156 2.375 11.1875 2.019531 12.875 1.3125 C 14.570312 0.613281 16.296875 -0.328125 18.046875 -1.515625 C 19.796875 -2.703125 21.546875 -4.050781 23.296875 -5.5625 C 25.046875 -7.082031 26.773438 -8.660156 28.484375 -10.296875 C 30.867188 -12.492188 33.175781 -14.707031 35.40625 -16.9375 C 37.632812 -19.164062 39.734375 -21.125 41.703125 -22.8125 Z M 63.96875 -21.375 C 65.675781 -21.375 66.53125 -21.6875 66.53125 -22.3125 C 66.53125 -23.0625 65.582031 -23.4375 63.6875 -23.4375 C 62.863281 -23.4375 61.984375 -23.265625 61.046875 -22.921875 C 60.117188 -22.585938 59.238281 -22.160156 58.40625 -21.640625 C 59.207031 -21.566406 60.09375 -21.503906 61.0625 -21.453125 C 62.039062 -21.398438 63.007812 -21.375 63.96875 -21.375 Z M 63.96875 -21.375 "></path></g></g></g><g fill="#492c01" fill-opacity="1"><g transform="translate(45.562789, 30.080587)"><g><path d="M 9.640625 -11.5 C 10.617188 -11.5 11.109375 -11.125 11.109375 -10.375 C 11.109375 -9.800781 10.820312 -9.03125 10.25 -8.0625 C 9.6875 -7.09375 8.796875 -6 7.578125 -4.78125 C 6.023438 -3.195312 4.5625 -1.945312 3.1875 -1.03125 C 1.8125 -0.113281 0.738281 0.34375 -0.03125 0.34375 C -1.144531 0.34375 -1.703125 -0.265625 -1.703125 -1.484375 C -1.703125 -2.179688 -1.4375 -3.023438 -0.90625 -4.015625 C -0.375 -5.015625 0.367188 -6.007812 1.328125 -7 C 2.234375 -7.90625 3.191406 -8.691406 4.203125 -9.359375 C 5.210938 -10.035156 6.195312 -10.5625 7.15625 -10.9375 C 8.113281 -11.3125 8.941406 -11.5 9.640625 -11.5 Z M 10.484375 -10.53125 C 10.484375 -10.8125 10.332031 -10.953125 10.03125 -10.953125 C 9.425781 -10.953125 8.460938 -10.453125 7.140625 -9.453125 C 5.828125 -8.460938 4.367188 -7.148438 2.765625 -5.515625 C 1.878906 -4.554688 1.09375 -3.648438 0.40625 -2.796875 C -0.28125 -1.941406 -0.625 -1.269531 -0.625 -0.78125 C -0.625 -0.332031 -0.414062 -0.109375 0 -0.109375 C 0.59375 -0.109375 1.535156 -0.640625 2.828125 -1.703125 C 4.128906 -2.765625 5.570312 -4.113281 7.15625 -5.75 C 7.59375 -6.21875 8.066406 -6.753906 8.578125 -7.359375 C 9.097656 -7.972656 9.546875 -8.570312 9.921875 -9.15625 C 10.296875 -9.738281 10.484375 -10.195312 10.484375 -10.53125 Z M 10.484375 -10.53125 "></path></g></g></g><g fill="#492c01" fill-opacity="1"><g transform="translate(55.277262, 30.080587)"><g><path d="M 2.5625 -7.5 C 3.1875 -8.175781 3.820312 -8.789062 4.46875 -9.34375 C 5.113281 -9.90625 5.671875 -10.335938 6.140625 -10.640625 C 6.472656 -10.847656 6.882812 -11.003906 7.375 -11.109375 C 7.875 -11.210938 8.367188 -11.265625 8.859375 -11.265625 C 8.390625 -10.953125 7.789062 -10.476562 7.0625 -9.84375 C 6.34375 -9.21875 5.609375 -8.523438 4.859375 -7.765625 C 4.109375 -7.015625 3.4375 -6.304688 2.84375 -5.640625 C 3.195312 -5.921875 3.5625 -6.179688 3.9375 -6.421875 C 4.3125 -6.671875 4.617188 -6.796875 4.859375 -6.796875 C 5.117188 -6.796875 5.332031 -6.71875 5.5 -6.5625 C 5.664062 -6.40625 5.835938 -6.328125 6.015625 -6.328125 C 6.460938 -6.328125 6.96875 -6.488281 7.53125 -6.8125 C 8.101562 -7.144531 8.632812 -7.515625 9.125 -7.921875 C 10.394531 -9.015625 11.695312 -9.882812 13.03125 -10.53125 C 14.363281 -11.175781 15.5 -11.5 16.4375 -11.5 C 16.875 -11.5 17.226562 -11.414062 17.5 -11.25 C 17.78125 -11.082031 17.921875 -10.789062 17.921875 -10.375 C 17.921875 -9.800781 17.632812 -9.03125 17.0625 -8.0625 C 16.488281 -7.09375 15.59375 -6 14.375 -4.78125 C 12.84375 -3.195312 11.382812 -1.945312 10 -1.03125 C 8.613281 -0.113281 7.535156 0.34375 6.765625 0.34375 C 6.347656 0.34375 5.960938 0.207031 5.609375 -0.0625 C 5.265625 -0.332031 5.09375 -0.789062 5.09375 -1.4375 C 5.09375 -2.132812 5.34375 -2.960938 5.84375 -3.921875 C 6.351562 -4.878906 6.941406 -5.722656 7.609375 -6.453125 C 7.328125 -6.265625 6.929688 -6.03125 6.421875 -5.75 C 5.921875 -5.46875 5.488281 -5.328125 5.125 -5.328125 C 4.863281 -5.328125 4.660156 -5.414062 4.515625 -5.59375 C 4.378906 -5.78125 4.222656 -5.875 4.046875 -5.875 C 3.859375 -5.875 3.628906 -5.769531 3.359375 -5.5625 C 3.085938 -5.351562 2.820312 -5.128906 2.5625 -4.890625 C 2.300781 -4.660156 2.117188 -4.492188 2.015625 -4.390625 C 1.265625 -3.640625 0.5625 -2.851562 -0.09375 -2.03125 C -0.757812 -1.21875 -1.425781 -0.375 -2.09375 0.5 C -2.25 0.5 -2.375 0.410156 -2.46875 0.234375 C -2.5625 0.0546875 -2.609375 -0.148438 -2.609375 -0.390625 C -2.609375 -0.671875 -2.382812 -1.171875 -1.9375 -1.890625 C -1.5 -2.617188 -0.890625 -3.476562 -0.109375 -4.46875 C 0.660156 -5.457031 1.550781 -6.46875 2.5625 -7.5 Z M 17.296875 -10.53125 C 17.296875 -10.8125 17.140625 -10.953125 16.828125 -10.953125 C 16.253906 -10.984375 15.300781 -10.492188 13.96875 -9.484375 C 12.632812 -8.472656 11.164062 -7.148438 9.5625 -5.515625 C 8.675781 -4.554688 7.890625 -3.648438 7.203125 -2.796875 C 6.515625 -1.941406 6.171875 -1.253906 6.171875 -0.734375 C 6.171875 -0.316406 6.378906 -0.109375 6.796875 -0.109375 C 7.390625 -0.109375 8.332031 -0.640625 9.625 -1.703125 C 10.925781 -2.765625 12.367188 -4.113281 13.953125 -5.75 C 14.390625 -6.21875 14.867188 -6.753906 15.390625 -7.359375 C 15.910156 -7.972656 16.359375 -8.570312 16.734375 -9.15625 C 17.109375 -9.738281 17.296875 -10.195312 17.296875 -10.53125 Z M 17.296875 -10.53125 "></path></g></g></g><g fill="#492c01" fill-opacity="1"><g transform="translate(72.180522, 30.080587)"><g><path d="M 24.875 -22.84375 C 25.78125 -23.34375 26.703125 -23.71875 27.640625 -23.96875 C 28.585938 -24.226562 29.453125 -24.359375 30.234375 -24.359375 C 31.054688 -24.359375 31.679688 -24.332031 32.109375 -24.28125 C 32.546875 -24.226562 33.019531 -24.203125 33.53125 -24.203125 C 34.15625 -24.203125 34.664062 -24.28125 35.0625 -24.4375 C 35.46875 -24.59375 35.773438 -24.75 35.984375 -24.90625 C 36.523438 -25.289062 37.109375 -25.796875 37.734375 -26.421875 C 37.835938 -26.578125 37.941406 -26.628906 38.046875 -26.578125 C 38.117188 -26.554688 38.140625 -26.492188 38.109375 -26.390625 C 38.085938 -26.285156 38.050781 -26.207031 38 -26.15625 C 37.613281 -25.632812 37.269531 -25.210938 36.96875 -24.890625 C 36.675781 -24.566406 36.347656 -24.222656 35.984375 -23.859375 C 35.410156 -23.316406 34.867188 -22.953125 34.359375 -22.765625 C 33.859375 -22.585938 33.3125 -22.5 32.71875 -22.5 C 32.070312 -22.5 31.484375 -22.550781 30.953125 -22.65625 C 30.421875 -22.757812 29.609375 -22.8125 28.515625 -22.8125 C 27.429688 -22.8125 26.28125 -22.582031 25.0625 -22.125 C 23.84375 -21.675781 22.703125 -20.957031 21.640625 -19.96875 C 20.867188 -19.269531 20.175781 -18.582031 19.5625 -17.90625 C 18.957031 -17.238281 18.328125 -16.515625 17.671875 -15.734375 C 17.023438 -14.960938 16.285156 -14.082031 15.453125 -13.09375 C 14.628906 -12.113281 13.632812 -10.960938 12.46875 -9.640625 C 9.59375 -6.421875 7.128906 -3.953125 5.078125 -2.234375 C 3.035156 -0.515625 1.40625 0.34375 0.1875 0.34375 C -0.375 0.34375 -0.820312 0.191406 -1.15625 -0.109375 C -1.5 -0.421875 -1.671875 -0.878906 -1.671875 -1.484375 C -1.671875 -2.203125 -1.410156 -3.050781 -0.890625 -4.03125 C -0.367188 -5.019531 0.367188 -6.007812 1.328125 -7 C 2.234375 -7.90625 3.195312 -8.691406 4.21875 -9.359375 C 5.238281 -10.035156 6.226562 -10.5625 7.1875 -10.9375 C 8.144531 -11.3125 8.960938 -11.5 9.640625 -11.5 C 10.003906 -11.5 10.335938 -11.421875 10.640625 -11.265625 C 10.953125 -11.109375 11.109375 -10.8125 11.109375 -10.375 C 11.109375 -10.039062 10.976562 -9.625 10.71875 -9.125 C 11.5 -10.0625 12.179688 -10.863281 12.765625 -11.53125 C 13.347656 -12.207031 13.890625 -12.835938 14.390625 -13.421875 C 14.898438 -14.003906 15.425781 -14.609375 15.96875 -15.234375 C 16.957031 -16.347656 17.882812 -17.34375 18.75 -18.21875 C 19.613281 -19.101562 20.53125 -19.921875 21.5 -20.671875 C 22.476562 -21.421875 23.601562 -22.144531 24.875 -22.84375 Z M 10.484375 -10.53125 C 10.484375 -10.8125 10.332031 -10.953125 10.03125 -10.953125 C 9.40625 -10.953125 8.4375 -10.453125 7.125 -9.453125 C 5.820312 -8.460938 4.367188 -7.148438 2.765625 -5.515625 C 1.878906 -4.554688 1.097656 -3.65625 0.421875 -2.8125 C -0.242188 -1.96875 -0.578125 -1.300781 -0.578125 -0.8125 C -0.578125 -0.65625 -0.535156 -0.503906 -0.453125 -0.359375 C -0.378906 -0.222656 -0.21875 -0.15625 0.03125 -0.15625 C 0.601562 -0.15625 1.535156 -0.675781 2.828125 -1.71875 C 4.128906 -2.769531 5.570312 -4.113281 7.15625 -5.75 C 7.59375 -6.21875 8.066406 -6.753906 8.578125 -7.359375 C 9.097656 -7.972656 9.546875 -8.570312 9.921875 -9.15625 C 10.296875 -9.738281 10.484375 -10.195312 10.484375 -10.53125 Z M 10.484375 -10.53125 "></path></g></g></g><g fill="#492c01" fill-opacity="1"><g transform="translate(82.672165, 30.080587)"><g><path d="M 14.921875 -11.34375 C 13.859375 -10.363281 12.75 -9.28125 11.59375 -8.09375 C 10.445312 -6.914062 9.1875 -5.539062 7.8125 -3.96875 C 6.570312 -2.539062 5.128906 -0.96875 3.484375 0.75 C 1.835938 2.476562 0.117188 4.039062 -1.671875 5.4375 C -4.128906 7.332031 -6.632812 8.765625 -9.1875 9.734375 C -11.738281 10.703125 -14.066406 11.175781 -16.171875 11.15625 C -17.378906 11.125 -18.515625 10.929688 -19.578125 10.578125 C -20.640625 10.234375 -21.523438 9.71875 -22.234375 9.03125 C -22.953125 8.34375 -23.414062 7.507812 -23.625 6.53125 C -23.757812 5.90625 -23.695312 5.566406 -23.4375 5.515625 C -23.332031 5.460938 -23.257812 5.515625 -23.21875 5.671875 C -23.175781 5.828125 -23.144531 5.984375 -23.125 6.140625 C -22.9375 7.066406 -22.503906 7.851562 -21.828125 8.5 C -21.160156 9.15625 -20.34375 9.644531 -19.375 9.96875 C -18.40625 10.289062 -17.398438 10.460938 -16.359375 10.484375 C -14.773438 10.515625 -13.21875 10.265625 -11.6875 9.734375 C -10.164062 9.203125 -8.695312 8.5 -7.28125 7.625 C -5.875 6.757812 -4.597656 5.875 -3.453125 4.96875 C -2.679688 4.351562 -1.851562 3.648438 -0.96875 2.859375 C -0.09375 2.066406 0.769531 1.253906 1.625 0.421875 C 2.488281 -0.398438 3.269531 -1.171875 3.96875 -1.890625 C 4.664062 -2.617188 5.222656 -3.234375 5.640625 -3.734375 C 5.691406 -3.785156 5.703125 -3.820312 5.671875 -3.84375 C 5.648438 -3.875 5.613281 -3.863281 5.5625 -3.8125 C 5.164062 -3.46875 4.734375 -3.085938 4.265625 -2.671875 C 3.804688 -2.265625 3.5 -1.992188 3.34375 -1.859375 C 2.664062 -1.347656 1.953125 -0.863281 1.203125 -0.40625 C 0.453125 0.0390625 -0.179688 0.265625 -0.703125 0.265625 C -1.191406 0.265625 -1.53125 0.15625 -1.71875 -0.0625 C -1.914062 -0.28125 -2.015625 -0.554688 -2.015625 -0.890625 C -2.015625 -1.535156 -1.753906 -2.28125 -1.234375 -3.125 C -0.722656 -3.96875 -0.0234375 -4.867188 0.859375 -5.828125 C 1.367188 -6.367188 1.988281 -6.957031 2.71875 -7.59375 C 3.445312 -8.226562 4.175781 -8.820312 4.90625 -9.375 C 5.644531 -9.9375 6.273438 -10.359375 6.796875 -10.640625 C 7.085938 -10.828125 7.5 -10.957031 8.03125 -11.03125 C 8.5625 -11.113281 8.953125 -11.140625 9.203125 -11.109375 C 8.066406 -10.179688 6.945312 -9.21875 5.84375 -8.21875 C 4.75 -7.21875 3.78125 -6.285156 2.9375 -5.421875 C 2.09375 -4.554688 1.4375 -3.835938 0.96875 -3.265625 C 0.5 -2.691406 0.101562 -2.175781 -0.21875 -1.71875 C -0.539062 -1.269531 -0.703125 -0.929688 -0.703125 -0.703125 C -0.703125 -0.460938 -0.582031 -0.34375 -0.34375 -0.34375 C 0.0078125 -0.34375 0.523438 -0.5625 1.203125 -1 C 1.878906 -1.445312 2.5 -1.878906 3.0625 -2.296875 C 3.40625 -2.554688 3.832031 -2.914062 4.34375 -3.375 C 4.863281 -3.84375 5.398438 -4.335938 5.953125 -4.859375 C 6.515625 -5.378906 7.003906 -5.832031 7.421875 -6.21875 C 7.960938 -6.757812 8.550781 -7.332031 9.1875 -7.9375 C 9.820312 -8.550781 10.457031 -9.128906 11.09375 -9.671875 C 11.726562 -10.210938 12.304688 -10.640625 12.828125 -10.953125 C 13.035156 -11.085938 13.367188 -11.191406 13.828125 -11.265625 C 14.296875 -11.347656 14.660156 -11.375 14.921875 -11.34375 Z M 14.921875 -11.34375 "></path></g></g></g><g fill="#492c01" fill-opacity="1"><g transform="translate(93.474521, 30.080587)"><g><path d="M -13.5625 11.15625 C -14.78125 11.15625 -15.921875 10.972656 -16.984375 10.609375 C -18.046875 10.242188 -18.929688 9.71875 -19.640625 9.03125 C -20.359375 8.34375 -20.816406 7.507812 -21.015625 6.53125 C -21.148438 5.90625 -21.085938 5.566406 -20.828125 5.515625 C -20.722656 5.460938 -20.648438 5.515625 -20.609375 5.671875 C -20.578125 5.828125 -20.546875 5.984375 -20.515625 6.140625 C -20.304688 7.097656 -19.851562 7.898438 -19.15625 8.546875 C -18.457031 9.191406 -17.628906 9.675781 -16.671875 10 C -15.710938 10.320312 -14.738281 10.484375 -13.75 10.484375 C -12.195312 10.484375 -10.738281 10.28125 -9.375 9.875 C -8.019531 9.476562 -6.8125 8.988281 -5.75 8.40625 C -4.6875 7.820312 -3.804688 7.273438 -3.109375 6.765625 C -1.921875 5.859375 -0.96875 4.882812 -0.25 3.84375 C 0.457031 2.8125 0.8125 1.929688 0.8125 1.203125 C 0.8125 0.835938 0.726562 0.550781 0.5625 0.34375 C 0.394531 0.132812 0.207031 0.0078125 0 -0.03125 C -0.332031 0.0390625 -0.742188 0.109375 -1.234375 0.171875 C -1.734375 0.234375 -2.113281 0.265625 -2.375 0.265625 C -2.582031 0.265625 -2.769531 0.242188 -2.9375 0.203125 C -3.101562 0.171875 -3.1875 0.09375 -3.1875 -0.03125 C -3.1875 -0.21875 -3.066406 -0.351562 -2.828125 -0.4375 C -2.597656 -0.53125 -2.335938 -0.597656 -2.046875 -0.640625 C -1.765625 -0.679688 -1.550781 -0.703125 -1.40625 -0.703125 C -0.75 -0.703125 -0.203125 -0.609375 0.234375 -0.421875 C 0.859375 -0.503906 1.570312 -0.820312 2.375 -1.375 C 3.175781 -1.9375 4.019531 -2.65625 4.90625 -3.53125 C 5.800781 -4.414062 6.675781 -5.363281 7.53125 -6.375 C 8.050781 -6.96875 8.535156 -7.640625 8.984375 -8.390625 C 9.441406 -9.140625 9.671875 -9.722656 9.671875 -10.140625 C 9.671875 -10.554688 9.460938 -10.765625 9.046875 -10.765625 C 8.691406 -10.765625 8.25 -10.628906 7.71875 -10.359375 C 7.1875 -10.085938 6.617188 -9.726562 6.015625 -9.28125 C 5.054688 -8.5625 4.082031 -7.765625 3.09375 -6.890625 C 2.113281 -6.023438 1.289062 -5.296875 0.625 -4.703125 C 0.519531 -4.617188 0.398438 -4.539062 0.265625 -4.46875 C 0.140625 -4.394531 0.0507812 -4.382812 0 -4.4375 C -0.15625 -4.582031 -0.128906 -4.734375 0.078125 -4.890625 C 1.054688 -5.742188 2.015625 -6.585938 2.953125 -7.421875 C 3.890625 -8.253906 4.691406 -8.941406 5.359375 -9.484375 C 6.503906 -10.390625 7.390625 -10.945312 8.015625 -11.15625 C 8.648438 -11.363281 9.148438 -11.46875 9.515625 -11.46875 C 9.910156 -11.46875 10.253906 -11.335938 10.546875 -11.078125 C 10.847656 -10.816406 11 -10.390625 11 -9.796875 C 11 -9.222656 10.878906 -8.640625 10.640625 -8.046875 C 10.410156 -7.453125 10.144531 -6.90625 9.84375 -6.40625 C 9.550781 -5.914062 9.273438 -5.53125 9.015625 -5.25 C 8.003906 -4.050781 6.816406 -3 5.453125 -2.09375 C 4.097656 -1.1875 2.539062 -0.550781 0.78125 -0.1875 C 1.894531 0.164062 2.453125 0.875 2.453125 1.9375 C 2.453125 2.875 2.066406 3.820312 1.296875 4.78125 C 0.535156 5.738281 -0.375 6.632812 -1.4375 7.46875 C -2.882812 8.570312 -4.691406 9.460938 -6.859375 10.140625 C -9.023438 10.816406 -11.257812 11.15625 -13.5625 11.15625 Z M -13.5625 11.15625 "></path></g></g></g><g fill="#492c01" fill-opacity="1"><g transform="translate(104.432498, 30.080587)"><g><path d="M 19.203125 -19.234375 C 19.203125 -18.148438 18.894531 -17.0625 18.28125 -15.96875 C 17.675781 -14.882812 16.972656 -13.875 16.171875 -12.9375 C 15.515625 -12.1875 14.71875 -11.328125 13.78125 -10.359375 C 12.851562 -9.390625 11.851562 -8.390625 10.78125 -7.359375 C 9.707031 -6.335938 8.625 -5.347656 7.53125 -4.390625 C 5.875 -2.910156 4.390625 -1.75 3.078125 -0.90625 C 1.773438 -0.0703125 0.738281 0.34375 -0.03125 0.34375 C -0.53125 0.34375 -0.929688 0.179688 -1.234375 -0.140625 C -1.546875 -0.460938 -1.703125 -0.910156 -1.703125 -1.484375 C -1.703125 -2.179688 -1.4375 -3.023438 -0.90625 -4.015625 C -0.375 -5.015625 0.367188 -6.007812 1.328125 -7 C 2.234375 -7.90625 3.195312 -8.691406 4.21875 -9.359375 C 5.238281 -10.035156 6.226562 -10.5625 7.1875 -10.9375 C 8.144531 -11.3125 8.960938 -11.5 9.640625 -11.5 C 10.566406 -11.5 11.046875 -11.1875 11.078125 -10.5625 C 11.097656 -10.3125 11.039062 -10.046875 10.90625 -9.765625 C 10.78125 -9.492188 10.679688 -9.296875 10.609375 -9.171875 C 10.578125 -9.117188 10.570312 -9.078125 10.59375 -9.046875 C 10.625 -9.023438 10.664062 -9.039062 10.71875 -9.09375 C 11.03125 -9.375 11.476562 -9.800781 12.0625 -10.375 C 12.644531 -10.945312 13.234375 -11.535156 13.828125 -12.140625 C 14.429688 -12.753906 14.882812 -13.238281 15.1875 -13.59375 C 16 -14.5 16.710938 -15.460938 17.328125 -16.484375 C 17.953125 -17.515625 18.265625 -18.613281 18.265625 -19.78125 C 18.265625 -21.3125 17.796875 -22.410156 16.859375 -23.078125 C 15.929688 -23.753906 14.507812 -24.09375 12.59375 -24.09375 C 11.269531 -24.09375 9.898438 -23.878906 8.484375 -23.453125 C 7.078125 -23.023438 5.851562 -22.523438 4.8125 -21.953125 C 4.21875 -21.640625 3.613281 -21.226562 3 -20.71875 C 2.394531 -20.21875 1.890625 -19.65625 1.484375 -19.03125 C 1.085938 -18.414062 0.890625 -17.757812 0.890625 -17.0625 C 0.890625 -16.71875 0.945312 -16.367188 1.0625 -16.015625 C 1.1875 -15.671875 1.328125 -15.394531 1.484375 -15.1875 C 1.578125 -15.0625 1.648438 -14.953125 1.703125 -14.859375 C 1.753906 -14.773438 1.742188 -14.707031 1.671875 -14.65625 C 1.585938 -14.601562 1.492188 -14.601562 1.390625 -14.65625 C 1.296875 -14.707031 1.207031 -14.785156 1.125 -14.890625 C 0.914062 -15.140625 0.726562 -15.460938 0.5625 -15.859375 C 0.394531 -16.265625 0.3125 -16.703125 0.3125 -17.171875 C 0.3125 -18.234375 0.550781 -19.164062 1.03125 -19.96875 C 1.507812 -20.769531 2.097656 -21.445312 2.796875 -22 C 3.492188 -22.5625 4.15625 -22.988281 4.78125 -23.28125 C 5.707031 -23.71875 6.78125 -24.101562 8 -24.4375 C 9.21875 -24.78125 10.578125 -24.953125 12.078125 -24.953125 C 13.398438 -24.953125 14.597656 -24.75 15.671875 -24.34375 C 16.753906 -23.945312 17.613281 -23.328125 18.25 -22.484375 C 18.882812 -21.640625 19.203125 -20.554688 19.203125 -19.234375 Z M 10.484375 -10.484375 C 10.484375 -10.796875 10.332031 -10.953125 10.03125 -10.953125 C 9.457031 -10.984375 8.503906 -10.492188 7.171875 -9.484375 C 5.835938 -8.472656 4.367188 -7.148438 2.765625 -5.515625 C 1.878906 -4.554688 1.09375 -3.648438 0.40625 -2.796875 C -0.28125 -1.941406 -0.625 -1.253906 -0.625 -0.734375 C -0.625 -0.316406 -0.414062 -0.109375 0 -0.109375 C 0.59375 -0.109375 1.535156 -0.640625 2.828125 -1.703125 C 4.128906 -2.765625 5.570312 -4.113281 7.15625 -5.75 C 7.59375 -6.21875 8.066406 -6.753906 8.578125 -7.359375 C 9.097656 -7.972656 9.546875 -8.570312 9.921875 -9.15625 C 10.296875 -9.738281 10.484375 -10.179688 10.484375 -10.484375 Z M 10.484375 -10.484375 "></path></g></g></g><g fill="#492c01" fill-opacity="1"><g transform="translate(115.701287, 30.080587)"><g><path d="M 14.921875 -11.34375 C 13.859375 -10.363281 12.75 -9.28125 11.59375 -8.09375 C 10.445312 -6.914062 9.1875 -5.539062 7.8125 -3.96875 C 6.570312 -2.539062 5.128906 -0.96875 3.484375 0.75 C 1.835938 2.476562 0.117188 4.039062 -1.671875 5.4375 C -4.128906 7.332031 -6.632812 8.765625 -9.1875 9.734375 C -11.738281 10.703125 -14.066406 11.175781 -16.171875 11.15625 C -17.378906 11.125 -18.515625 10.929688 -19.578125 10.578125 C -20.640625 10.234375 -21.523438 9.71875 -22.234375 9.03125 C -22.953125 8.34375 -23.414062 7.507812 -23.625 6.53125 C -23.757812 5.90625 -23.695312 5.566406 -23.4375 5.515625 C -23.332031 5.460938 -23.257812 5.515625 -23.21875 5.671875 C -23.175781 5.828125 -23.144531 5.984375 -23.125 6.140625 C -22.9375 7.066406 -22.503906 7.851562 -21.828125 8.5 C -21.160156 9.15625 -20.34375 9.644531 -19.375 9.96875 C -18.40625 10.289062 -17.398438 10.460938 -16.359375 10.484375 C -14.773438 10.515625 -13.21875 10.265625 -11.6875 9.734375 C -10.164062 9.203125 -8.695312 8.5 -7.28125 7.625 C -5.875 6.757812 -4.597656 5.875 -3.453125 4.96875 C -2.679688 4.351562 -1.851562 3.648438 -0.96875 2.859375 C -0.09375 2.066406 0.769531 1.253906 1.625 0.421875 C 2.488281 -0.398438 3.269531 -1.171875 3.96875 -1.890625 C 4.664062 -2.617188 5.222656 -3.234375 5.640625 -3.734375 C 5.691406 -3.785156 5.703125 -3.820312 5.671875 -3.84375 C 5.648438 -3.875 5.613281 -3.863281 5.5625 -3.8125 C 5.164062 -3.46875 4.734375 -3.085938 4.265625 -2.671875 C 3.804688 -2.265625 3.5 -1.992188 3.34375 -1.859375 C 2.664062 -1.347656 1.953125 -0.863281 1.203125 -0.40625 C 0.453125 0.0390625 -0.179688 0.265625 -0.703125 0.265625 C -1.191406 0.265625 -1.53125 0.15625 -1.71875 -0.0625 C -1.914062 -0.28125 -2.015625 -0.554688 -2.015625 -0.890625 C -2.015625 -1.535156 -1.753906 -2.28125 -1.234375 -3.125 C -0.722656 -3.96875 -0.0234375 -4.867188 0.859375 -5.828125 C 1.367188 -6.367188 1.988281 -6.957031 2.71875 -7.59375 C 3.445312 -8.226562 4.175781 -8.820312 4.90625 -9.375 C 5.644531 -9.9375 6.273438 -10.359375 6.796875 -10.640625 C 7.085938 -10.828125 7.5 -10.957031 8.03125 -11.03125 C 8.5625 -11.113281 8.953125 -11.140625 9.203125 -11.109375 C 8.066406 -10.179688 6.945312 -9.21875 5.84375 -8.21875 C 4.75 -7.21875 3.78125 -6.285156 2.9375 -5.421875 C 2.09375 -4.554688 1.4375 -3.835938 0.96875 -3.265625 C 0.5 -2.691406 0.101562 -2.175781 -0.21875 -1.71875 C -0.539062 -1.269531 -0.703125 -0.929688 -0.703125 -0.703125 C -0.703125 -0.460938 -0.582031 -0.34375 -0.34375 -0.34375 C 0.0078125 -0.34375 0.523438 -0.5625 1.203125 -1 C 1.878906 -1.445312 2.5 -1.878906 3.0625 -2.296875 C 3.40625 -2.554688 3.832031 -2.914062 4.34375 -3.375 C 4.863281 -3.84375 5.398438 -4.335938 5.953125 -4.859375 C 6.515625 -5.378906 7.003906 -5.832031 7.421875 -6.21875 C 7.960938 -6.757812 8.550781 -7.332031 9.1875 -7.9375 C 9.820312 -8.550781 10.457031 -9.128906 11.09375 -9.671875 C 11.726562 -10.210938 12.304688 -10.640625 12.828125 -10.953125 C 13.035156 -11.085938 13.367188 -11.191406 13.828125 -11.265625 C 14.296875 -11.347656 14.660156 -11.375 14.921875 -11.34375 Z M 14.921875 -11.34375 "></path></g></g></g><g fill="#492c01" fill-opacity="1"><g transform="translate(127.28094, 30.080587)"><g><path d="M 6.171875 -0.65625 C 6.171875 -0.394531 6.316406 -0.265625 6.609375 -0.265625 C 6.890625 -0.265625 7.238281 -0.367188 7.65625 -0.578125 C 8.070312 -0.785156 8.503906 -1.03125 8.953125 -1.3125 C 9.410156 -1.601562 9.796875 -1.863281 10.109375 -2.09375 C 10.546875 -2.4375 11.019531 -2.820312 11.53125 -3.25 C 12.050781 -3.675781 12.546875 -4.082031 13.015625 -4.46875 C 13.484375 -4.851562 13.847656 -5.164062 14.109375 -5.40625 C 14.367188 -5.664062 14.5625 -5.71875 14.6875 -5.5625 C 14.789062 -5.476562 14.738281 -5.332031 14.53125 -5.125 C 14.195312 -4.84375 13.769531 -4.472656 13.25 -4.015625 C 12.726562 -3.566406 12.207031 -3.128906 11.6875 -2.703125 C 11.175781 -2.273438 10.765625 -1.941406 10.453125 -1.703125 C 9.828125 -1.242188 9.117188 -0.785156 8.328125 -0.328125 C 7.546875 0.117188 6.828125 0.34375 6.171875 0.34375 C 5.265625 0.34375 4.8125 -0.0664062 4.8125 -0.890625 C 4.8125 -1.304688 4.945312 -1.789062 5.21875 -2.34375 C 5.5 -2.90625 5.84375 -3.472656 6.25 -4.046875 C 6.5625 -4.453125 6.898438 -4.859375 7.265625 -5.265625 C 7.628906 -5.671875 8.003906 -6.066406 8.390625 -6.453125 C 8.109375 -6.265625 7.707031 -6.03125 7.1875 -5.75 C 6.664062 -5.46875 6.1875 -5.328125 5.75 -5.328125 C 5.382812 -5.328125 5.101562 -5.414062 4.90625 -5.59375 C 4.71875 -5.78125 4.46875 -5.875 4.15625 -5.875 C 3.945312 -5.875 3.691406 -5.769531 3.390625 -5.5625 C 3.097656 -5.351562 2.820312 -5.128906 2.5625 -4.890625 C 2.300781 -4.660156 2.117188 -4.492188 2.015625 -4.390625 C 1.265625 -3.640625 0.5625 -2.851562 -0.09375 -2.03125 C -0.757812 -1.21875 -1.425781 -0.375 -2.09375 0.5 C -2.25 0.5 -2.375 0.410156 -2.46875 0.234375 C -2.5625 0.0546875 -2.609375 -0.148438 -2.609375 -0.390625 C -2.609375 -0.722656 -2.34375 -1.289062 -1.8125 -2.09375 C -1.28125 -2.894531 -0.617188 -3.785156 0.171875 -4.765625 C 0.960938 -5.753906 1.757812 -6.664062 2.5625 -7.5 C 3.1875 -8.175781 3.820312 -8.789062 4.46875 -9.34375 C 5.113281 -9.90625 5.671875 -10.335938 6.140625 -10.640625 C 6.472656 -10.847656 6.890625 -11.003906 7.390625 -11.109375 C 7.898438 -11.210938 8.40625 -11.265625 8.90625 -11.265625 C 8.40625 -10.929688 7.804688 -10.457031 7.109375 -9.84375 C 6.410156 -9.238281 5.695312 -8.566406 4.96875 -7.828125 C 4.25 -7.085938 3.578125 -6.359375 2.953125 -5.640625 C 3.316406 -5.921875 3.695312 -6.179688 4.09375 -6.421875 C 4.5 -6.671875 4.84375 -6.796875 5.125 -6.796875 C 5.488281 -6.796875 5.800781 -6.71875 6.0625 -6.5625 C 6.320312 -6.40625 6.609375 -6.328125 6.921875 -6.328125 C 7.359375 -6.328125 7.84375 -6.46875 8.375 -6.75 C 8.90625 -7.039062 9.40625 -7.40625 9.875 -7.84375 C 10.539062 -8.46875 11.222656 -9.0625 11.921875 -9.625 C 12.628906 -10.195312 13.210938 -10.613281 13.671875 -10.875 C 13.960938 -11.03125 14.328125 -11.140625 14.765625 -11.203125 C 15.203125 -11.273438 15.550781 -11.296875 15.8125 -11.265625 C 14.695312 -10.253906 13.609375 -9.238281 12.546875 -8.21875 C 11.484375 -7.195312 10.53125 -6.242188 9.6875 -5.359375 C 8.851562 -4.484375 8.203125 -3.769531 7.734375 -3.21875 C 7.296875 -2.675781 6.925781 -2.1875 6.625 -1.75 C 6.320312 -1.3125 6.171875 -0.945312 6.171875 -0.65625 Z M 6.171875 -0.65625 "></path></g></g></g><g fill="#492c01" fill-opacity="1"><g transform="translate(140.725773, 30.080587)"><g></g></g></g><g fill="#492c01" fill-opacity="1"><g transform="translate(148.808219, 30.080587)"><g><path d="M 3.453125 -1.125 C 3.453125 -1.769531 3.613281 -2.519531 3.9375 -3.375 C 4.269531 -4.226562 4.65625 -5.125 5.09375 -6.0625 C 4.65625 -5.800781 4.207031 -5.515625 3.75 -5.203125 C 3.289062 -4.890625 2.882812 -4.609375 2.53125 -4.359375 C 2.21875 -4.148438 1.828125 -3.84375 1.359375 -3.4375 C 0.890625 -3.039062 0.523438 -2.695312 0.265625 -2.40625 C -0.0664062 -2.019531 -0.460938 -1.539062 -0.921875 -0.96875 C -1.390625 -0.394531 -1.78125 0.09375 -2.09375 0.5 C -2.25 0.5 -2.375 0.410156 -2.46875 0.234375 C -2.5625 0.0546875 -2.609375 -0.132812 -2.609375 -0.34375 C -2.609375 -0.707031 -2.34375 -1.296875 -1.8125 -2.109375 C -1.28125 -2.929688 -0.617188 -3.828125 0.171875 -4.796875 C 0.960938 -5.765625 1.757812 -6.664062 2.5625 -7.5 C 3.1875 -8.175781 3.820312 -8.789062 4.46875 -9.34375 C 5.113281 -9.90625 5.671875 -10.335938 6.140625 -10.640625 C 6.472656 -10.847656 6.882812 -11.003906 7.375 -11.109375 C 7.875 -11.210938 8.367188 -11.265625 8.859375 -11.265625 C 8.265625 -10.847656 7.640625 -10.351562 6.984375 -9.78125 C 6.335938 -9.21875 5.601562 -8.519531 4.78125 -7.6875 C 4.207031 -7.09375 3.609375 -6.457031 2.984375 -5.78125 C 2.367188 -5.113281 1.914062 -4.625 1.625 -4.3125 C 2.144531 -4.675781 2.753906 -5.082031 3.453125 -5.53125 C 4.148438 -5.988281 5.046875 -6.582031 6.140625 -7.3125 C 6.679688 -7.664062 7.3125 -8.078125 8.03125 -8.546875 C 8.757812 -9.015625 9.515625 -9.472656 10.296875 -9.921875 C 11.078125 -10.378906 11.816406 -10.753906 12.515625 -11.046875 C 13.210938 -11.347656 13.796875 -11.5 14.265625 -11.5 C 14.679688 -11.5 15.015625 -11.414062 15.265625 -11.25 C 15.523438 -11.082031 15.65625 -10.789062 15.65625 -10.375 C 15.65625 -10.195312 15.601562 -10.007812 15.5 -9.8125 C 15.394531 -9.613281 15.238281 -9.488281 15.03125 -9.4375 C 14.957031 -9.4375 14.851562 -9.5 14.71875 -9.625 C 14.59375 -9.757812 14.453125 -9.878906 14.296875 -9.984375 C 14.191406 -10.085938 14.046875 -10.171875 13.859375 -10.234375 C 13.679688 -10.304688 13.453125 -10.34375 13.171875 -10.34375 C 12.804688 -10.34375 12.332031 -10.21875 11.75 -9.96875 C 11.164062 -9.71875 10.566406 -9.425781 9.953125 -9.09375 C 9.347656 -8.757812 8.804688 -8.4375 8.328125 -8.125 C 7.847656 -7.8125 7.507812 -7.578125 7.3125 -7.421875 C 7.019531 -6.828125 6.710938 -6.132812 6.390625 -5.34375 C 6.066406 -4.550781 5.800781 -3.789062 5.59375 -3.0625 C 5.382812 -2.34375 5.28125 -1.773438 5.28125 -1.359375 C 5.28125 -0.921875 5.476562 -0.703125 5.875 -0.703125 C 6.125 -0.671875 6.492188 -0.8125 6.984375 -1.125 C 7.484375 -1.4375 8.144531 -1.90625 8.96875 -2.53125 C 9.28125 -2.757812 9.671875 -3.066406 10.140625 -3.453125 C 10.609375 -3.847656 11.0625 -4.234375 11.5 -4.609375 C 11.9375 -4.984375 12.257812 -5.257812 12.46875 -5.4375 C 12.65625 -5.625 12.800781 -5.648438 12.90625 -5.515625 C 13.007812 -5.359375 12.957031 -5.191406 12.75 -5.015625 C 12.226562 -4.523438 11.648438 -4.003906 11.015625 -3.453125 C 10.378906 -2.910156 9.722656 -2.394531 9.046875 -1.90625 C 8.117188 -1.207031 7.304688 -0.65625 6.609375 -0.25 C 5.910156 0.144531 5.300781 0.34375 4.78125 0.34375 C 3.894531 0.34375 3.453125 -0.144531 3.453125 -1.125 Z M 3.453125 -1.125 "></path></g></g></g><g fill="#492c01" fill-opacity="1"><g transform="translate(160.582171, 30.080587)"><g><path d="M 14.921875 -11.109375 C 13.804688 -10.097656 12.726562 -9.085938 11.6875 -8.078125 C 10.65625 -7.066406 9.738281 -6.140625 8.9375 -5.296875 C 8.132812 -4.460938 7.5 -3.769531 7.03125 -3.21875 C 6.539062 -2.65625 6.144531 -2.160156 5.84375 -1.734375 C 5.550781 -1.304688 5.40625 -0.960938 5.40625 -0.703125 C 5.40625 -0.460938 5.535156 -0.34375 5.796875 -0.34375 C 6.046875 -0.34375 6.382812 -0.46875 6.8125 -0.71875 C 7.25 -0.96875 7.695312 -1.253906 8.15625 -1.578125 C 8.625 -1.898438 9.023438 -2.191406 9.359375 -2.453125 C 9.984375 -2.941406 10.625 -3.476562 11.28125 -4.0625 C 11.945312 -4.644531 12.515625 -5.144531 12.984375 -5.5625 C 13.054688 -5.613281 13.144531 -5.664062 13.25 -5.71875 C 13.351562 -5.769531 13.441406 -5.742188 13.515625 -5.640625 C 13.617188 -5.535156 13.554688 -5.378906 13.328125 -5.171875 C 12.753906 -4.628906 12.128906 -4.070312 11.453125 -3.5 C 10.785156 -2.925781 10.207031 -2.445312 9.71875 -2.0625 C 9.320312 -1.75 8.867188 -1.410156 8.359375 -1.046875 C 7.859375 -0.679688 7.351562 -0.367188 6.84375 -0.109375 C 6.34375 0.140625 5.898438 0.265625 5.515625 0.265625 C 4.609375 0.265625 4.15625 -0.171875 4.15625 -1.046875 C 4.15625 -1.335938 4.238281 -1.6875 4.40625 -2.09375 C 4.570312 -2.507812 4.863281 -2.960938 5.28125 -3.453125 C 4.164062 -2.441406 3.050781 -1.566406 1.9375 -0.828125 C 0.820312 -0.0976562 -0.0390625 0.265625 -0.65625 0.265625 C -1.539062 0.265625 -1.984375 -0.160156 -1.984375 -1.015625 C -2.003906 -1.710938 -1.722656 -2.570312 -1.140625 -3.59375 C -0.554688 -4.613281 0.171875 -5.566406 1.046875 -6.453125 C 1.929688 -7.359375 2.9375 -8.191406 4.0625 -8.953125 C 5.1875 -9.722656 6.289062 -10.335938 7.375 -10.796875 C 8.46875 -11.265625 9.378906 -11.5 10.109375 -11.5 C 10.460938 -11.5 10.753906 -11.441406 10.984375 -11.328125 C 11.222656 -11.210938 11.34375 -10.984375 11.34375 -10.640625 C 11.34375 -10.441406 11.265625 -10.175781 11.109375 -9.84375 C 10.953125 -9.519531 10.65625 -9.140625 10.21875 -8.703125 C 10.195312 -8.679688 10.191406 -8.660156 10.203125 -8.640625 C 10.210938 -8.628906 10.234375 -8.640625 10.265625 -8.671875 C 10.859375 -9.265625 11.453125 -9.765625 12.046875 -10.171875 C 12.640625 -10.585938 13.09375 -10.847656 13.40625 -10.953125 C 13.613281 -11.035156 13.8125 -11.082031 14 -11.09375 C 14.195312 -11.101562 14.398438 -11.109375 14.609375 -11.109375 Z M 10.796875 -10.484375 C 10.796875 -10.773438 10.644531 -10.921875 10.34375 -10.921875 C 9.789062 -10.921875 8.859375 -10.457031 7.546875 -9.53125 C 6.242188 -8.613281 4.675781 -7.273438 2.84375 -5.515625 C 1.882812 -4.554688 1.046875 -3.625 0.328125 -2.71875 C -0.378906 -1.8125 -0.734375 -1.140625 -0.734375 -0.703125 C -0.734375 -0.597656 -0.710938 -0.503906 -0.671875 -0.421875 C -0.640625 -0.347656 -0.53125 -0.3125 -0.34375 -0.3125 C -0.0078125 -0.3125 0.53125 -0.539062 1.28125 -1 C 2.03125 -1.46875 2.90625 -2.117188 3.90625 -2.953125 C 4.90625 -3.785156 5.910156 -4.71875 6.921875 -5.75 C 7.378906 -6.21875 7.910156 -6.753906 8.515625 -7.359375 C 9.128906 -7.972656 9.660156 -8.570312 10.109375 -9.15625 C 10.566406 -9.738281 10.796875 -10.179688 10.796875 -10.484375 Z M 10.796875 -10.484375 "></path></g></g></g><g fill="#492c01" fill-opacity="1"><g transform="translate(172.78355, 30.080587)"><g><path d="M 19.203125 -19.234375 C 19.203125 -18.148438 18.894531 -17.0625 18.28125 -15.96875 C 17.675781 -14.882812 16.972656 -13.875 16.171875 -12.9375 C 15.515625 -12.1875 14.71875 -11.328125 13.78125 -10.359375 C 12.851562 -9.390625 11.851562 -8.390625 10.78125 -7.359375 C 9.707031 -6.335938 8.625 -5.347656 7.53125 -4.390625 C 5.875 -2.910156 4.390625 -1.75 3.078125 -0.90625 C 1.773438 -0.0703125 0.738281 0.34375 -0.03125 0.34375 C -0.53125 0.34375 -0.929688 0.179688 -1.234375 -0.140625 C -1.546875 -0.460938 -1.703125 -0.910156 -1.703125 -1.484375 C -1.703125 -2.179688 -1.4375 -3.023438 -0.90625 -4.015625 C -0.375 -5.015625 0.367188 -6.007812 1.328125 -7 C 2.234375 -7.90625 3.195312 -8.691406 4.21875 -9.359375 C 5.238281 -10.035156 6.226562 -10.5625 7.1875 -10.9375 C 8.144531 -11.3125 8.960938 -11.5 9.640625 -11.5 C 10.566406 -11.5 11.046875 -11.1875 11.078125 -10.5625 C 11.097656 -10.3125 11.039062 -10.046875 10.90625 -9.765625 C 10.78125 -9.492188 10.679688 -9.296875 10.609375 -9.171875 C 10.578125 -9.117188 10.570312 -9.078125 10.59375 -9.046875 C 10.625 -9.023438 10.664062 -9.039062 10.71875 -9.09375 C 11.03125 -9.375 11.476562 -9.800781 12.0625 -10.375 C 12.644531 -10.945312 13.234375 -11.535156 13.828125 -12.140625 C 14.429688 -12.753906 14.882812 -13.238281 15.1875 -13.59375 C 16 -14.5 16.710938 -15.460938 17.328125 -16.484375 C 17.953125 -17.515625 18.265625 -18.613281 18.265625 -19.78125 C 18.265625 -21.3125 17.796875 -22.410156 16.859375 -23.078125 C 15.929688 -23.753906 14.507812 -24.09375 12.59375 -24.09375 C 11.269531 -24.09375 9.898438 -23.878906 8.484375 -23.453125 C 7.078125 -23.023438 5.851562 -22.523438 4.8125 -21.953125 C 4.21875 -21.640625 3.613281 -21.226562 3 -20.71875 C 2.394531 -20.21875 1.890625 -19.65625 1.484375 -19.03125 C 1.085938 -18.414062 0.890625 -17.757812 0.890625 -17.0625 C 0.890625 -16.71875 0.945312 -16.367188 1.0625 -16.015625 C 1.1875 -15.671875 1.328125 -15.394531 1.484375 -15.1875 C 1.578125 -15.0625 1.648438 -14.953125 1.703125 -14.859375 C 1.753906 -14.773438 1.742188 -14.707031 1.671875 -14.65625 C 1.585938 -14.601562 1.492188 -14.601562 1.390625 -14.65625 C 1.296875 -14.707031 1.207031 -14.785156 1.125 -14.890625 C 0.914062 -15.140625 0.726562 -15.460938 0.5625 -15.859375 C 0.394531 -16.265625 0.3125 -16.703125 0.3125 -17.171875 C 0.3125 -18.234375 0.550781 -19.164062 1.03125 -19.96875 C 1.507812 -20.769531 2.097656 -21.445312 2.796875 -22 C 3.492188 -22.5625 4.15625 -22.988281 4.78125 -23.28125 C 5.707031 -23.71875 6.78125 -24.101562 8 -24.4375 C 9.21875 -24.78125 10.578125 -24.953125 12.078125 -24.953125 C 13.398438 -24.953125 14.597656 -24.75 15.671875 -24.34375 C 16.753906 -23.945312 17.613281 -23.328125 18.25 -22.484375 C 18.882812 -21.640625 19.203125 -20.554688 19.203125 -19.234375 Z M 10.484375 -10.484375 C 10.484375 -10.796875 10.332031 -10.953125 10.03125 -10.953125 C 9.457031 -10.984375 8.503906 -10.492188 7.171875 -9.484375 C 5.835938 -8.472656 4.367188 -7.148438 2.765625 -5.515625 C 1.878906 -4.554688 1.09375 -3.648438 0.40625 -2.796875 C -0.28125 -1.941406 -0.625 -1.253906 -0.625 -0.734375 C -0.625 -0.316406 -0.414062 -0.109375 0 -0.109375 C 0.59375 -0.109375 1.535156 -0.640625 2.828125 -1.703125 C 4.128906 -2.765625 5.570312 -4.113281 7.15625 -5.75 C 7.59375 -6.21875 8.066406 -6.753906 8.578125 -7.359375 C 9.097656 -7.972656 9.546875 -8.570312 9.921875 -9.15625 C 10.296875 -9.738281 10.484375 -10.179688 10.484375 -10.484375 Z M 10.484375 -10.484375 "></path></g></g></g><g fill="#492c01" fill-opacity="1"><g transform="translate(184.05234, 30.080587)"><g><path d="M 11.078125 -5.75 C 11.546875 -6.238281 12.082031 -6.769531 12.6875 -7.34375 C 13.289062 -7.914062 13.921875 -8.472656 14.578125 -9.015625 C 13.972656 -8.753906 13.410156 -8.515625 12.890625 -8.296875 C 12.378906 -8.078125 11.863281 -7.863281 11.34375 -7.65625 C 10.851562 -7.476562 10.328125 -7.320312 9.765625 -7.1875 C 9.210938 -7.0625 8.597656 -6.921875 7.921875 -6.765625 C 8.285156 -6.472656 8.46875 -6.003906 8.46875 -5.359375 C 8.46875 -4.660156 8.234375 -4.003906 7.765625 -3.390625 C 7.304688 -2.785156 6.773438 -2.265625 6.171875 -1.828125 C 5.191406 -1.046875 4.210938 -0.488281 3.234375 -0.15625 C 2.265625 0.175781 1.289062 0.34375 0.3125 0.34375 C -0.414062 0.34375 -0.953125 0.191406 -1.296875 -0.109375 C -1.648438 -0.421875 -1.828125 -0.828125 -1.828125 -1.328125 C -1.828125 -1.992188 -1.617188 -2.644531 -1.203125 -3.28125 C -0.785156 -3.914062 -0.148438 -4.710938 0.703125 -5.671875 C 1.972656 -7.066406 3.148438 -8.195312 4.234375 -9.0625 C 5.328125 -9.9375 6.15625 -10.53125 6.71875 -10.84375 C 6.976562 -10.96875 7.351562 -11.078125 7.84375 -11.171875 C 8.34375 -11.265625 8.769531 -11.3125 9.125 -11.3125 C 8.144531 -10.507812 7.046875 -9.5625 5.828125 -8.46875 C 4.609375 -7.382812 3.484375 -6.257812 2.453125 -5.09375 C 1.515625 -4.050781 0.84375 -3.238281 0.4375 -2.65625 C 0.0390625 -2.070312 -0.207031 -1.644531 -0.3125 -1.375 C -0.414062 -1.101562 -0.46875 -0.890625 -0.46875 -0.734375 C -0.46875 -0.503906 -0.382812 -0.34375 -0.21875 -0.25 C -0.0507812 -0.15625 0.125 -0.109375 0.3125 -0.109375 C 0.75 -0.109375 1.394531 -0.34375 2.25 -0.8125 C 3.101562 -1.28125 4.207031 -2.175781 5.5625 -3.5 C 6.382812 -4.300781 6.90625 -4.882812 7.125 -5.25 C 7.351562 -5.613281 7.46875 -5.921875 7.46875 -6.171875 C 7.46875 -6.378906 7.363281 -6.507812 7.15625 -6.5625 C 6.96875 -6.507812 6.75 -6.457031 6.5 -6.40625 C 6.257812 -6.351562 6.023438 -6.328125 5.796875 -6.328125 C 5.296875 -6.328125 5.046875 -6.429688 5.046875 -6.640625 C 5.046875 -6.878906 5.234375 -7.035156 5.609375 -7.109375 C 5.984375 -7.191406 6.289062 -7.234375 6.53125 -7.234375 C 6.65625 -7.234375 6.800781 -7.222656 6.96875 -7.203125 C 7.144531 -7.191406 7.285156 -7.160156 7.390625 -7.109375 C 9.148438 -7.492188 10.675781 -7.921875 11.96875 -8.390625 C 12.75 -8.679688 13.539062 -9.023438 14.34375 -9.421875 C 15.144531 -9.828125 16.050781 -10.3125 17.0625 -10.875 C 17.34375 -11.03125 17.703125 -11.140625 18.140625 -11.203125 C 18.585938 -11.273438 18.941406 -11.296875 19.203125 -11.265625 C 18.085938 -10.253906 17 -9.238281 15.9375 -8.21875 C 14.875 -7.195312 13.925781 -6.242188 13.09375 -5.359375 C 12.269531 -4.484375 11.625 -3.769531 11.15625 -3.21875 C 10.6875 -2.65625 10.304688 -2.160156 10.015625 -1.734375 C 9.734375 -1.304688 9.59375 -0.945312 9.59375 -0.65625 C 9.59375 -0.394531 9.738281 -0.265625 10.03125 -0.265625 C 10.289062 -0.265625 10.632812 -0.367188 11.0625 -0.578125 C 11.488281 -0.785156 11.925781 -1.03125 12.375 -1.3125 C 12.832031 -1.601562 13.210938 -1.863281 13.515625 -2.09375 C 13.960938 -2.4375 14.4375 -2.820312 14.9375 -3.25 C 15.445312 -3.675781 15.929688 -4.082031 16.390625 -4.46875 C 16.859375 -4.851562 17.222656 -5.164062 17.484375 -5.40625 C 17.773438 -5.632812 17.96875 -5.6875 18.0625 -5.5625 C 18.164062 -5.457031 18.128906 -5.3125 17.953125 -5.125 C 17.617188 -4.84375 17.1875 -4.472656 16.65625 -4.015625 C 16.125 -3.566406 15.601562 -3.128906 15.09375 -2.703125 C 14.59375 -2.273438 14.1875 -1.941406 13.875 -1.703125 C 13.226562 -1.242188 12.507812 -0.785156 11.71875 -0.328125 C 10.925781 0.117188 10.21875 0.34375 9.59375 0.34375 C 8.6875 0.34375 8.234375 -0.0664062 8.234375 -0.890625 C 8.234375 -1.484375 8.484375 -2.207031 8.984375 -3.0625 C 9.492188 -3.925781 10.191406 -4.820312 11.078125 -5.75 Z M 11.078125 -5.75 "></path></g></g></g><g fill="#492c01" fill-opacity="1"><g transform="translate(201.188728, 30.080587)"><g><path d="M 12.671875 -14.84375 C 12.023438 -14.5625 11.441406 -14.1875 10.921875 -13.71875 C 10.222656 -13.144531 9.40625 -12.425781 8.46875 -11.5625 C 7.539062 -10.695312 6.632812 -9.816406 5.75 -8.921875 C 4.875 -8.023438 4.132812 -7.238281 3.53125 -6.5625 C 3.507812 -6.539062 3.503906 -6.515625 3.515625 -6.484375 C 3.523438 -6.460938 3.546875 -6.460938 3.578125 -6.484375 C 3.960938 -6.847656 4.503906 -7.304688 5.203125 -7.859375 C 5.898438 -8.421875 6.648438 -8.976562 7.453125 -9.53125 C 8.265625 -10.09375 9.03125 -10.5625 9.75 -10.9375 C 10.476562 -11.3125 11.078125 -11.5 11.546875 -11.5 C 11.929688 -11.5 12.179688 -11.378906 12.296875 -11.140625 C 12.410156 -10.910156 12.46875 -10.628906 12.46875 -10.296875 C 12.46875 -9.492188 12.1875 -8.59375 11.625 -7.59375 C 11.070312 -6.59375 10.382812 -5.679688 9.5625 -4.859375 C 7.851562 -3.117188 6.253906 -1.828125 4.765625 -0.984375 C 3.273438 -0.148438 1.921875 0.265625 0.703125 0.265625 C 0.210938 0.265625 -0.175781 0.148438 -0.46875 -0.078125 C -0.644531 -0.234375 -0.742188 -0.429688 -0.765625 -0.671875 C -0.796875 -0.921875 -0.75 -1.0625 -0.625 -1.09375 C -0.519531 -1.113281 -0.445312 -1.082031 -0.40625 -1 C -0.363281 -0.925781 -0.332031 -0.851562 -0.3125 -0.78125 C -0.257812 -0.675781 -0.175781 -0.570312 -0.0625 -0.46875 C 0.0507812 -0.363281 0.238281 -0.3125 0.5 -0.3125 C 1 -0.3125 1.523438 -0.453125 2.078125 -0.734375 C 2.640625 -1.023438 3.359375 -1.578125 4.234375 -2.390625 C 5.117188 -3.203125 6.3125 -4.375 7.8125 -5.90625 C 8.300781 -6.394531 8.832031 -6.9375 9.40625 -7.53125 C 9.976562 -8.132812 10.46875 -8.707031 10.875 -9.25 C 11.289062 -9.789062 11.5 -10.191406 11.5 -10.453125 C 11.5 -10.660156 11.367188 -10.765625 11.109375 -10.765625 C 10.722656 -10.765625 10.117188 -10.535156 9.296875 -10.078125 C 8.484375 -9.628906 7.582031 -9.035156 6.59375 -8.296875 C 5.613281 -7.554688 4.640625 -6.757812 3.671875 -5.90625 C 2.703125 -5.050781 1.84375 -4.25 1.09375 -3.5 C -0.71875 -1.6875 -2.628906 0.332031 -4.640625 2.5625 C -6.648438 4.789062 -8.742188 7.410156 -10.921875 10.421875 C -11.148438 10.753906 -11.351562 11.050781 -11.53125 11.3125 C -11.71875 11.570312 -11.863281 11.703125 -11.96875 11.703125 C -12.125 11.703125 -12.191406 11.535156 -12.171875 11.203125 C -12.160156 10.878906 -12.117188 10.59375 -12.046875 10.34375 C -11.835938 9.613281 -11.332031 8.640625 -10.53125 7.421875 C -9.726562 6.203125 -8.769531 4.90625 -7.65625 3.53125 C -6.363281 1.957031 -5.066406 0.457031 -3.765625 -0.96875 C -2.472656 -2.394531 -1.296875 -3.65625 -0.234375 -4.75 C 0.828125 -5.851562 1.65625 -6.707031 2.25 -7.3125 C 2.875 -7.925781 3.644531 -8.664062 4.5625 -9.53125 C 5.488281 -10.40625 6.421875 -11.242188 7.359375 -12.046875 C 8.304688 -12.847656 9.101562 -13.484375 9.75 -13.953125 C 10.039062 -14.160156 10.332031 -14.34375 10.625 -14.5 C 10.925781 -14.65625 11.207031 -14.757812 11.46875 -14.8125 C 11.675781 -14.863281 11.890625 -14.890625 12.109375 -14.890625 C 12.328125 -14.890625 12.515625 -14.875 12.671875 -14.84375 Z M 12.671875 -14.84375 "></path></g></g></g><g fill="#492c01" fill-opacity="1"><g transform="translate(213.04039, 30.080587)"><g><path d="M 6.21875 0.34375 C 5.3125 0.34375 4.859375 -0.0664062 4.859375 -0.890625 C 4.859375 -1.460938 5.023438 -2.039062 5.359375 -2.625 C 5.703125 -3.207031 6.117188 -3.785156 6.609375 -4.359375 C 7.046875 -4.867188 7.515625 -5.347656 8.015625 -5.796875 C 8.523438 -6.253906 8.988281 -6.679688 9.40625 -7.078125 C 9.507812 -7.179688 9.539062 -7.238281 9.5 -7.25 C 9.457031 -7.257812 9.398438 -7.238281 9.328125 -7.1875 C 8.679688 -6.644531 8 -6.070312 7.28125 -5.46875 C 6.570312 -4.875 5.878906 -4.296875 5.203125 -3.734375 C 4.585938 -3.191406 3.847656 -2.601562 2.984375 -1.96875 C 2.128906 -1.332031 1.285156 -0.785156 0.453125 -0.328125 C -0.367188 0.117188 -1.078125 0.34375 -1.671875 0.34375 C -2.628906 0.34375 -3.109375 -0.09375 -3.109375 -0.96875 C -3.109375 -1.351562 -3 -1.796875 -2.78125 -2.296875 C -2.5625 -2.804688 -2.242188 -3.269531 -1.828125 -3.6875 C -1.597656 -3.925781 -1.359375 -4.117188 -1.109375 -4.265625 C -0.859375 -4.421875 -0.601562 -4.5 -0.34375 -4.5 C -0.09375 -4.5 0.03125 -4.375 0.03125 -4.125 C 0.03125 -3.882812 -0.078125 -3.632812 -0.296875 -3.375 C -0.515625 -3.113281 -0.765625 -2.867188 -1.046875 -2.640625 C -1.984375 -1.960938 -2.453125 -1.367188 -2.453125 -0.859375 C -2.453125 -0.359375 -2.191406 -0.109375 -1.671875 -0.109375 C -1.234375 -0.109375 -0.664062 -0.300781 0.03125 -0.6875 C 0.738281 -1.082031 1.484375 -1.570312 2.265625 -2.15625 C 3.054688 -2.738281 3.820312 -3.332031 4.5625 -3.9375 C 5.300781 -4.550781 5.914062 -5.066406 6.40625 -5.484375 C 7.3125 -6.234375 8.222656 -6.960938 9.140625 -7.671875 C 10.066406 -8.390625 10.910156 -9.019531 11.671875 -9.5625 C 12.441406 -10.101562 13.046875 -10.503906 13.484375 -10.765625 C 13.816406 -10.972656 14.195312 -11.113281 14.625 -11.1875 C 15.050781 -11.269531 15.460938 -11.296875 15.859375 -11.265625 C 14.742188 -10.253906 13.65625 -9.238281 12.59375 -8.21875 C 11.53125 -7.195312 10.578125 -6.242188 9.734375 -5.359375 C 8.890625 -4.484375 8.234375 -3.769531 7.765625 -3.21875 C 7.304688 -2.65625 6.929688 -2.160156 6.640625 -1.734375 C 6.359375 -1.304688 6.21875 -0.945312 6.21875 -0.65625 C 6.21875 -0.394531 6.359375 -0.265625 6.640625 -0.265625 C 6.929688 -0.265625 7.28125 -0.367188 7.6875 -0.578125 C 8.101562 -0.785156 8.535156 -1.03125 8.984375 -1.3125 C 9.441406 -1.601562 9.828125 -1.863281 10.140625 -2.09375 C 10.578125 -2.4375 11.054688 -2.820312 11.578125 -3.25 C 12.097656 -3.675781 12.582031 -4.082031 13.03125 -4.46875 C 13.488281 -4.851562 13.847656 -5.164062 14.109375 -5.40625 C 14.390625 -5.664062 14.582031 -5.71875 14.6875 -5.5625 C 14.789062 -5.457031 14.753906 -5.3125 14.578125 -5.125 C 14.234375 -4.84375 13.796875 -4.472656 13.265625 -4.015625 C 12.734375 -3.566406 12.210938 -3.128906 11.703125 -2.703125 C 11.203125 -2.273438 10.796875 -1.941406 10.484375 -1.703125 C 9.867188 -1.242188 9.164062 -0.785156 8.375 -0.328125 C 7.582031 0.117188 6.863281 0.34375 6.21875 0.34375 Z M 6.21875 0.34375 "></path></g></g></g><g fill="#492c01" fill-opacity="1"><g transform="translate(226.524077, 30.080587)"><g><path d="M 14.921875 -11.34375 C 13.859375 -10.363281 12.75 -9.28125 11.59375 -8.09375 C 10.445312 -6.914062 9.1875 -5.539062 7.8125 -3.96875 C 6.570312 -2.539062 5.128906 -0.96875 3.484375 0.75 C 1.835938 2.476562 0.117188 4.039062 -1.671875 5.4375 C -4.128906 7.332031 -6.632812 8.765625 -9.1875 9.734375 C -11.738281 10.703125 -14.066406 11.175781 -16.171875 11.15625 C -17.378906 11.125 -18.515625 10.929688 -19.578125 10.578125 C -20.640625 10.234375 -21.523438 9.71875 -22.234375 9.03125 C -22.953125 8.34375 -23.414062 7.507812 -23.625 6.53125 C -23.757812 5.90625 -23.695312 5.566406 -23.4375 5.515625 C -23.332031 5.460938 -23.257812 5.515625 -23.21875 5.671875 C -23.175781 5.828125 -23.144531 5.984375 -23.125 6.140625 C -22.9375 7.066406 -22.503906 7.851562 -21.828125 8.5 C -21.160156 9.15625 -20.34375 9.644531 -19.375 9.96875 C -18.40625 10.289062 -17.398438 10.460938 -16.359375 10.484375 C -14.773438 10.515625 -13.21875 10.265625 -11.6875 9.734375 C -10.164062 9.203125 -8.695312 8.5 -7.28125 7.625 C -5.875 6.757812 -4.597656 5.875 -3.453125 4.96875 C -2.679688 4.351562 -1.851562 3.648438 -0.96875 2.859375 C -0.09375 2.066406 0.769531 1.253906 1.625 0.421875 C 2.488281 -0.398438 3.269531 -1.171875 3.96875 -1.890625 C 4.664062 -2.617188 5.222656 -3.234375 5.640625 -3.734375 C 5.691406 -3.785156 5.703125 -3.820312 5.671875 -3.84375 C 5.648438 -3.875 5.613281 -3.863281 5.5625 -3.8125 C 5.164062 -3.46875 4.734375 -3.085938 4.265625 -2.671875 C 3.804688 -2.265625 3.5 -1.992188 3.34375 -1.859375 C 2.664062 -1.347656 1.953125 -0.863281 1.203125 -0.40625 C 0.453125 0.0390625 -0.179688 0.265625 -0.703125 0.265625 C -1.191406 0.265625 -1.53125 0.15625 -1.71875 -0.0625 C -1.914062 -0.28125 -2.015625 -0.554688 -2.015625 -0.890625 C -2.015625 -1.535156 -1.753906 -2.28125 -1.234375 -3.125 C -0.722656 -3.96875 -0.0234375 -4.867188 0.859375 -5.828125 C 1.367188 -6.367188 1.988281 -6.957031 2.71875 -7.59375 C 3.445312 -8.226562 4.175781 -8.820312 4.90625 -9.375 C 5.644531 -9.9375 6.273438 -10.359375 6.796875 -10.640625 C 7.085938 -10.828125 7.5 -10.957031 8.03125 -11.03125 C 8.5625 -11.113281 8.953125 -11.140625 9.203125 -11.109375 C 8.066406 -10.179688 6.945312 -9.21875 5.84375 -8.21875 C 4.75 -7.21875 3.78125 -6.285156 2.9375 -5.421875 C 2.09375 -4.554688 1.4375 -3.835938 0.96875 -3.265625 C 0.5 -2.691406 0.101562 -2.175781 -0.21875 -1.71875 C -0.539062 -1.269531 -0.703125 -0.929688 -0.703125 -0.703125 C -0.703125 -0.460938 -0.582031 -0.34375 -0.34375 -0.34375 C 0.0078125 -0.34375 0.523438 -0.5625 1.203125 -1 C 1.878906 -1.445312 2.5 -1.878906 3.0625 -2.296875 C 3.40625 -2.554688 3.832031 -2.914062 4.34375 -3.375 C 4.863281 -3.84375 5.398438 -4.335938 5.953125 -4.859375 C 6.515625 -5.378906 7.003906 -5.832031 7.421875 -6.21875 C 7.960938 -6.757812 8.550781 -7.332031 9.1875 -7.9375 C 9.820312 -8.550781 10.457031 -9.128906 11.09375 -9.671875 C 11.726562 -10.210938 12.304688 -10.640625 12.828125 -10.953125 C 13.035156 -11.085938 13.367188 -11.191406 13.828125 -11.265625 C 14.296875 -11.347656 14.660156 -11.375 14.921875 -11.34375 Z M 14.921875 -11.34375 "></path></g></g></g><g fill="#492c01" fill-opacity="1"><g transform="translate(238.10373, 30.080587)"><g><path d="M 14.921875 -11.34375 C 13.859375 -10.363281 12.75 -9.28125 11.59375 -8.09375 C 10.445312 -6.914062 9.1875 -5.539062 7.8125 -3.96875 C 6.570312 -2.539062 5.128906 -0.96875 3.484375 0.75 C 1.835938 2.476562 0.117188 4.039062 -1.671875 5.4375 C -4.128906 7.332031 -6.632812 8.765625 -9.1875 9.734375 C -11.738281 10.703125 -14.066406 11.175781 -16.171875 11.15625 C -17.378906 11.125 -18.515625 10.929688 -19.578125 10.578125 C -20.640625 10.234375 -21.523438 9.71875 -22.234375 9.03125 C -22.953125 8.34375 -23.414062 7.507812 -23.625 6.53125 C -23.757812 5.90625 -23.695312 5.566406 -23.4375 5.515625 C -23.332031 5.460938 -23.257812 5.515625 -23.21875 5.671875 C -23.175781 5.828125 -23.144531 5.984375 -23.125 6.140625 C -22.9375 7.066406 -22.503906 7.851562 -21.828125 8.5 C -21.160156 9.15625 -20.34375 9.644531 -19.375 9.96875 C -18.40625 10.289062 -17.398438 10.460938 -16.359375 10.484375 C -14.773438 10.515625 -13.21875 10.265625 -11.6875 9.734375 C -10.164062 9.203125 -8.695312 8.5 -7.28125 7.625 C -5.875 6.757812 -4.597656 5.875 -3.453125 4.96875 C -2.679688 4.351562 -1.851562 3.648438 -0.96875 2.859375 C -0.09375 2.066406 0.769531 1.253906 1.625 0.421875 C 2.488281 -0.398438 3.269531 -1.171875 3.96875 -1.890625 C 4.664062 -2.617188 5.222656 -3.234375 5.640625 -3.734375 C 5.691406 -3.785156 5.703125 -3.820312 5.671875 -3.84375 C 5.648438 -3.875 5.613281 -3.863281 5.5625 -3.8125 C 5.164062 -3.46875 4.734375 -3.085938 4.265625 -2.671875 C 3.804688 -2.265625 3.5 -1.992188 3.34375 -1.859375 C 2.664062 -1.347656 1.953125 -0.863281 1.203125 -0.40625 C 0.453125 0.0390625 -0.179688 0.265625 -0.703125 0.265625 C -1.191406 0.265625 -1.53125 0.15625 -1.71875 -0.0625 C -1.914062 -0.28125 -2.015625 -0.554688 -2.015625 -0.890625 C -2.015625 -1.535156 -1.753906 -2.28125 -1.234375 -3.125 C -0.722656 -3.96875 -0.0234375 -4.867188 0.859375 -5.828125 C 1.367188 -6.367188 1.988281 -6.957031 2.71875 -7.59375 C 3.445312 -8.226562 4.175781 -8.820312 4.90625 -9.375 C 5.644531 -9.9375 6.273438 -10.359375 6.796875 -10.640625 C 7.085938 -10.828125 7.5 -10.957031 8.03125 -11.03125 C 8.5625 -11.113281 8.953125 -11.140625 9.203125 -11.109375 C 8.066406 -10.179688 6.945312 -9.21875 5.84375 -8.21875 C 4.75 -7.21875 3.78125 -6.285156 2.9375 -5.421875 C 2.09375 -4.554688 1.4375 -3.835938 0.96875 -3.265625 C 0.5 -2.691406 0.101562 -2.175781 -0.21875 -1.71875 C -0.539062 -1.269531 -0.703125 -0.929688 -0.703125 -0.703125 C -0.703125 -0.460938 -0.582031 -0.34375 -0.34375 -0.34375 C 0.0078125 -0.34375 0.523438 -0.5625 1.203125 -1 C 1.878906 -1.445312 2.5 -1.878906 3.0625 -2.296875 C 3.40625 -2.554688 3.832031 -2.914062 4.34375 -3.375 C 4.863281 -3.84375 5.398438 -4.335938 5.953125 -4.859375 C 6.515625 -5.378906 7.003906 -5.832031 7.421875 -6.21875 C 7.960938 -6.757812 8.550781 -7.332031 9.1875 -7.9375 C 9.820312 -8.550781 10.457031 -9.128906 11.09375 -9.671875 C 11.726562 -10.210938 12.304688 -10.640625 12.828125 -10.953125 C 13.035156 -11.085938 13.367188 -11.191406 13.828125 -11.265625 C 14.296875 -11.347656 14.660156 -11.375 14.921875 -11.34375 Z M 14.921875 -11.34375 "></path></g></g></g><g fill="#492c01" fill-opacity="1"><g transform="translate(249.692813, 30.080587)"><g></g></g></g><g fill="#492c01" fill-opacity="1"><g transform="translate(46.728634, 68.086346)"><g><path d="M 3.453125 -1.125 C 3.453125 -1.769531 3.613281 -2.519531 3.9375 -3.375 C 4.269531 -4.226562 4.65625 -5.125 5.09375 -6.0625 C 4.65625 -5.800781 4.207031 -5.515625 3.75 -5.203125 C 3.289062 -4.890625 2.882812 -4.609375 2.53125 -4.359375 C 2.21875 -4.148438 1.828125 -3.84375 1.359375 -3.4375 C 0.890625 -3.039062 0.523438 -2.695312 0.265625 -2.40625 C -0.0664062 -2.019531 -0.460938 -1.539062 -0.921875 -0.96875 C -1.390625 -0.394531 -1.78125 0.09375 -2.09375 0.5 C -2.25 0.5 -2.375 0.410156 -2.46875 0.234375 C -2.5625 0.0546875 -2.609375 -0.132812 -2.609375 -0.34375 C -2.609375 -0.707031 -2.34375 -1.296875 -1.8125 -2.109375 C -1.28125 -2.929688 -0.617188 -3.828125 0.171875 -4.796875 C 0.960938 -5.765625 1.757812 -6.664062 2.5625 -7.5 C 3.1875 -8.175781 3.820312 -8.789062 4.46875 -9.34375 C 5.113281 -9.90625 5.671875 -10.335938 6.140625 -10.640625 C 6.472656 -10.847656 6.882812 -11.003906 7.375 -11.109375 C 7.875 -11.210938 8.367188 -11.265625 8.859375 -11.265625 C 8.265625 -10.847656 7.640625 -10.351562 6.984375 -9.78125 C 6.335938 -9.21875 5.601562 -8.519531 4.78125 -7.6875 C 4.207031 -7.09375 3.609375 -6.457031 2.984375 -5.78125 C 2.367188 -5.113281 1.914062 -4.625 1.625 -4.3125 C 2.144531 -4.675781 2.753906 -5.082031 3.453125 -5.53125 C 4.148438 -5.988281 5.046875 -6.582031 6.140625 -7.3125 C 6.679688 -7.664062 7.3125 -8.078125 8.03125 -8.546875 C 8.757812 -9.015625 9.515625 -9.472656 10.296875 -9.921875 C 11.078125 -10.378906 11.816406 -10.753906 12.515625 -11.046875 C 13.210938 -11.347656 13.796875 -11.5 14.265625 -11.5 C 14.679688 -11.5 15.015625 -11.414062 15.265625 -11.25 C 15.523438 -11.082031 15.65625 -10.789062 15.65625 -10.375 C 15.65625 -10.195312 15.601562 -10.007812 15.5 -9.8125 C 15.394531 -9.613281 15.238281 -9.488281 15.03125 -9.4375 C 14.957031 -9.4375 14.851562 -9.5 14.71875 -9.625 C 14.59375 -9.757812 14.453125 -9.878906 14.296875 -9.984375 C 14.191406 -10.085938 14.046875 -10.171875 13.859375 -10.234375 C 13.679688 -10.304688 13.453125 -10.34375 13.171875 -10.34375 C 12.804688 -10.34375 12.332031 -10.21875 11.75 -9.96875 C 11.164062 -9.71875 10.566406 -9.425781 9.953125 -9.09375 C 9.347656 -8.757812 8.804688 -8.4375 8.328125 -8.125 C 7.847656 -7.8125 7.507812 -7.578125 7.3125 -7.421875 C 7.019531 -6.828125 6.710938 -6.132812 6.390625 -5.34375 C 6.066406 -4.550781 5.800781 -3.789062 5.59375 -3.0625 C 5.382812 -2.34375 5.28125 -1.773438 5.28125 -1.359375 C 5.28125 -0.921875 5.476562 -0.703125 5.875 -0.703125 C 6.125 -0.671875 6.492188 -0.8125 6.984375 -1.125 C 7.484375 -1.4375 8.144531 -1.90625 8.96875 -2.53125 C 9.28125 -2.757812 9.671875 -3.066406 10.140625 -3.453125 C 10.609375 -3.847656 11.0625 -4.234375 11.5 -4.609375 C 11.9375 -4.984375 12.257812 -5.257812 12.46875 -5.4375 C 12.65625 -5.625 12.800781 -5.648438 12.90625 -5.515625 C 13.007812 -5.359375 12.957031 -5.191406 12.75 -5.015625 C 12.226562 -4.523438 11.648438 -4.003906 11.015625 -3.453125 C 10.378906 -2.910156 9.722656 -2.394531 9.046875 -1.90625 C 8.117188 -1.207031 7.304688 -0.65625 6.609375 -0.25 C 5.910156 0.144531 5.300781 0.34375 4.78125 0.34375 C 3.894531 0.34375 3.453125 -0.144531 3.453125 -1.125 Z M 3.453125 -1.125 "></path></g></g></g><g fill="#492c01" fill-opacity="1"><g transform="translate(58.502586, 68.086346)"><g><path d="M 9.640625 -11.5 C 10.617188 -11.5 11.109375 -11.125 11.109375 -10.375 C 11.109375 -9.800781 10.820312 -9.03125 10.25 -8.0625 C 9.6875 -7.09375 8.796875 -6 7.578125 -4.78125 C 6.023438 -3.195312 4.5625 -1.945312 3.1875 -1.03125 C 1.8125 -0.113281 0.738281 0.34375 -0.03125 0.34375 C -1.144531 0.34375 -1.703125 -0.265625 -1.703125 -1.484375 C -1.703125 -2.179688 -1.4375 -3.023438 -0.90625 -4.015625 C -0.375 -5.015625 0.367188 -6.007812 1.328125 -7 C 2.234375 -7.90625 3.191406 -8.691406 4.203125 -9.359375 C 5.210938 -10.035156 6.195312 -10.5625 7.15625 -10.9375 C 8.113281 -11.3125 8.941406 -11.5 9.640625 -11.5 Z M 10.484375 -10.53125 C 10.484375 -10.8125 10.332031 -10.953125 10.03125 -10.953125 C 9.425781 -10.953125 8.460938 -10.453125 7.140625 -9.453125 C 5.828125 -8.460938 4.367188 -7.148438 2.765625 -5.515625 C 1.878906 -4.554688 1.09375 -3.648438 0.40625 -2.796875 C -0.28125 -1.941406 -0.625 -1.269531 -0.625 -0.78125 C -0.625 -0.332031 -0.414062 -0.109375 0 -0.109375 C 0.59375 -0.109375 1.535156 -0.640625 2.828125 -1.703125 C 4.128906 -2.765625 5.570312 -4.113281 7.15625 -5.75 C 7.59375 -6.21875 8.066406 -6.753906 8.578125 -7.359375 C 9.097656 -7.972656 9.546875 -8.570312 9.921875 -9.15625 C 10.296875 -9.738281 10.484375 -10.195312 10.484375 -10.53125 Z M 10.484375 -10.53125 "></path></g></g></g><g fill="#492c01" fill-opacity="1"><g transform="translate(68.217058, 68.086346)"><g><path d="M 6.171875 -0.65625 C 6.171875 -0.394531 6.316406 -0.265625 6.609375 -0.265625 C 6.890625 -0.265625 7.238281 -0.367188 7.65625 -0.578125 C 8.070312 -0.785156 8.503906 -1.03125 8.953125 -1.3125 C 9.410156 -1.601562 9.796875 -1.863281 10.109375 -2.09375 C 10.546875 -2.4375 11.019531 -2.820312 11.53125 -3.25 C 12.050781 -3.675781 12.546875 -4.082031 13.015625 -4.46875 C 13.484375 -4.851562 13.847656 -5.164062 14.109375 -5.40625 C 14.367188 -5.664062 14.5625 -5.71875 14.6875 -5.5625 C 14.789062 -5.476562 14.738281 -5.332031 14.53125 -5.125 C 14.195312 -4.84375 13.769531 -4.472656 13.25 -4.015625 C 12.726562 -3.566406 12.207031 -3.128906 11.6875 -2.703125 C 11.175781 -2.273438 10.765625 -1.941406 10.453125 -1.703125 C 9.828125 -1.242188 9.117188 -0.785156 8.328125 -0.328125 C 7.546875 0.117188 6.828125 0.34375 6.171875 0.34375 C 5.265625 0.34375 4.8125 -0.0664062 4.8125 -0.890625 C 4.8125 -1.304688 4.945312 -1.789062 5.21875 -2.34375 C 5.5 -2.90625 5.84375 -3.472656 6.25 -4.046875 C 6.5625 -4.453125 6.898438 -4.859375 7.265625 -5.265625 C 7.628906 -5.671875 8.003906 -6.066406 8.390625 -6.453125 C 8.109375 -6.265625 7.707031 -6.03125 7.1875 -5.75 C 6.664062 -5.46875 6.1875 -5.328125 5.75 -5.328125 C 5.382812 -5.328125 5.101562 -5.414062 4.90625 -5.59375 C 4.71875 -5.78125 4.46875 -5.875 4.15625 -5.875 C 3.945312 -5.875 3.691406 -5.769531 3.390625 -5.5625 C 3.097656 -5.351562 2.820312 -5.128906 2.5625 -4.890625 C 2.300781 -4.660156 2.117188 -4.492188 2.015625 -4.390625 C 1.265625 -3.640625 0.5625 -2.851562 -0.09375 -2.03125 C -0.757812 -1.21875 -1.425781 -0.375 -2.09375 0.5 C -2.25 0.5 -2.375 0.410156 -2.46875 0.234375 C -2.5625 0.0546875 -2.609375 -0.148438 -2.609375 -0.390625 C -2.609375 -0.722656 -2.34375 -1.289062 -1.8125 -2.09375 C -1.28125 -2.894531 -0.617188 -3.785156 0.171875 -4.765625 C 0.960938 -5.753906 1.757812 -6.664062 2.5625 -7.5 C 3.1875 -8.175781 3.820312 -8.789062 4.46875 -9.34375 C 5.113281 -9.90625 5.671875 -10.335938 6.140625 -10.640625 C 6.472656 -10.847656 6.890625 -11.003906 7.390625 -11.109375 C 7.898438 -11.210938 8.40625 -11.265625 8.90625 -11.265625 C 8.40625 -10.929688 7.804688 -10.457031 7.109375 -9.84375 C 6.410156 -9.238281 5.695312 -8.566406 4.96875 -7.828125 C 4.25 -7.085938 3.578125 -6.359375 2.953125 -5.640625 C 3.316406 -5.921875 3.695312 -6.179688 4.09375 -6.421875 C 4.5 -6.671875 4.84375 -6.796875 5.125 -6.796875 C 5.488281 -6.796875 5.800781 -6.71875 6.0625 -6.5625 C 6.320312 -6.40625 6.609375 -6.328125 6.921875 -6.328125 C 7.359375 -6.328125 7.84375 -6.46875 8.375 -6.75 C 8.90625 -7.039062 9.40625 -7.40625 9.875 -7.84375 C 10.539062 -8.46875 11.222656 -9.0625 11.921875 -9.625 C 12.628906 -10.195312 13.210938 -10.613281 13.671875 -10.875 C 13.960938 -11.03125 14.328125 -11.140625 14.765625 -11.203125 C 15.203125 -11.273438 15.550781 -11.296875 15.8125 -11.265625 C 14.695312 -10.253906 13.609375 -9.238281 12.546875 -8.21875 C 11.484375 -7.195312 10.53125 -6.242188 9.6875 -5.359375 C 8.851562 -4.484375 8.203125 -3.769531 7.734375 -3.21875 C 7.296875 -2.675781 6.925781 -2.1875 6.625 -1.75 C 6.320312 -1.3125 6.171875 -0.945312 6.171875 -0.65625 Z M 6.171875 -0.65625 "></path></g></g></g><g fill="#492c01" fill-opacity="1"><g transform="translate(81.661891, 68.086346)"><g><path d="M 9.640625 -11.5 C 10.617188 -11.5 11.109375 -11.125 11.109375 -10.375 C 11.109375 -9.800781 10.820312 -9.03125 10.25 -8.0625 C 9.6875 -7.09375 8.796875 -6 7.578125 -4.78125 C 6.023438 -3.195312 4.5625 -1.945312 3.1875 -1.03125 C 1.8125 -0.113281 0.738281 0.34375 -0.03125 0.34375 C -1.144531 0.34375 -1.703125 -0.265625 -1.703125 -1.484375 C -1.703125 -2.179688 -1.4375 -3.023438 -0.90625 -4.015625 C -0.375 -5.015625 0.367188 -6.007812 1.328125 -7 C 2.234375 -7.90625 3.191406 -8.691406 4.203125 -9.359375 C 5.210938 -10.035156 6.195312 -10.5625 7.15625 -10.9375 C 8.113281 -11.3125 8.941406 -11.5 9.640625 -11.5 Z M 10.484375 -10.53125 C 10.484375 -10.8125 10.332031 -10.953125 10.03125 -10.953125 C 9.425781 -10.953125 8.460938 -10.453125 7.140625 -9.453125 C 5.828125 -8.460938 4.367188 -7.148438 2.765625 -5.515625 C 1.878906 -4.554688 1.09375 -3.648438 0.40625 -2.796875 C -0.28125 -1.941406 -0.625 -1.269531 -0.625 -0.78125 C -0.625 -0.332031 -0.414062 -0.109375 0 -0.109375 C 0.59375 -0.109375 1.535156 -0.640625 2.828125 -1.703125 C 4.128906 -2.765625 5.570312 -4.113281 7.15625 -5.75 C 7.59375 -6.21875 8.066406 -6.753906 8.578125 -7.359375 C 9.097656 -7.972656 9.546875 -8.570312 9.921875 -9.15625 C 10.296875 -9.738281 10.484375 -10.195312 10.484375 -10.53125 Z M 10.484375 -10.53125 "></path></g></g></g><g fill="#492c01" fill-opacity="1"><g transform="translate(90.987715, 68.086346)"><g><path d="M -0.109375 -4.734375 C 0.429688 -5.203125 1.046875 -5.753906 1.734375 -6.390625 C 2.421875 -7.023438 3.097656 -7.632812 3.765625 -8.21875 C 4.441406 -8.800781 4.988281 -9.257812 5.40625 -9.59375 C 6.363281 -10.34375 7.0625 -10.847656 7.5 -11.109375 C 7.9375 -11.367188 8.40625 -11.5 8.90625 -11.5 C 9.394531 -11.5 9.753906 -11.390625 9.984375 -11.171875 C 10.222656 -10.953125 10.351562 -10.675781 10.375 -10.34375 C 10.425781 -9.664062 10.222656 -9.039062 9.765625 -8.46875 C 9.316406 -7.894531 8.726562 -7.273438 8 -6.609375 C 7.6875 -6.316406 7.273438 -5.9375 6.765625 -5.46875 C 6.265625 -5.007812 5.769531 -4.539062 5.28125 -4.0625 C 4.789062 -3.582031 4.378906 -3.160156 4.046875 -2.796875 C 3.546875 -2.273438 3.210938 -1.878906 3.046875 -1.609375 C 2.878906 -1.335938 2.796875 -1.097656 2.796875 -0.890625 C 2.796875 -0.578125 2.960938 -0.421875 3.296875 -0.421875 C 3.609375 -0.421875 4.0625 -0.597656 4.65625 -0.953125 C 5.257812 -1.304688 5.84375 -1.6875 6.40625 -2.09375 C 7.082031 -2.613281 7.796875 -3.191406 8.546875 -3.828125 C 9.296875 -4.460938 9.878906 -4.960938 10.296875 -5.328125 C 10.378906 -5.378906 10.484375 -5.457031 10.609375 -5.5625 C 10.734375 -5.664062 10.847656 -5.664062 10.953125 -5.5625 C 11.054688 -5.457031 11.019531 -5.3125 10.84375 -5.125 C 10.507812 -4.84375 10.082031 -4.472656 9.5625 -4.015625 C 9.039062 -3.566406 8.519531 -3.128906 8 -2.703125 C 7.488281 -2.273438 7.078125 -1.941406 6.765625 -1.703125 C 5.859375 -1.035156 5.070312 -0.523438 4.40625 -0.171875 C 3.75 0.171875 3.160156 0.34375 2.640625 0.34375 C 1.628906 0.34375 1.125 -0.09375 1.125 -0.96875 C 1.125 -1.457031 1.289062 -1.960938 1.625 -2.484375 C 1.96875 -3.003906 2.398438 -3.535156 2.921875 -4.078125 C 3.304688 -4.460938 3.75 -4.898438 4.25 -5.390625 C 4.757812 -5.890625 5.265625 -6.367188 5.765625 -6.828125 C 6.273438 -7.296875 6.695312 -7.675781 7.03125 -7.96875 C 7.46875 -8.332031 7.898438 -8.738281 8.328125 -9.1875 C 8.753906 -9.644531 8.96875 -10.03125 8.96875 -10.34375 C 8.96875 -10.644531 8.789062 -10.796875 8.4375 -10.796875 C 8.175781 -10.796875 7.847656 -10.671875 7.453125 -10.421875 C 7.066406 -10.179688 6.578125 -9.84375 5.984375 -9.40625 C 5.441406 -8.988281 4.8125 -8.460938 4.09375 -7.828125 C 3.382812 -7.191406 2.6875 -6.554688 2 -5.921875 C 1.3125 -5.285156 0.707031 -4.765625 0.1875 -4.359375 C 0.113281 -4.273438 0.0234375 -4.21875 -0.078125 -4.1875 C -0.179688 -4.164062 -0.257812 -4.195312 -0.3125 -4.28125 C -0.363281 -4.351562 -0.363281 -4.429688 -0.3125 -4.515625 C -0.257812 -4.609375 -0.191406 -4.679688 -0.109375 -4.734375 Z M -0.109375 -4.734375 "></path></g></g></g><g fill="#492c01" fill-opacity="1"><g transform="translate(100.741043, 68.086346)"><g><path d="M 14.921875 -11.34375 C 13.859375 -10.363281 12.75 -9.28125 11.59375 -8.09375 C 10.445312 -6.914062 9.1875 -5.539062 7.8125 -3.96875 C 6.570312 -2.539062 5.128906 -0.96875 3.484375 0.75 C 1.835938 2.476562 0.117188 4.039062 -1.671875 5.4375 C -4.128906 7.332031 -6.632812 8.765625 -9.1875 9.734375 C -11.738281 10.703125 -14.066406 11.175781 -16.171875 11.15625 C -17.378906 11.125 -18.515625 10.929688 -19.578125 10.578125 C -20.640625 10.234375 -21.523438 9.71875 -22.234375 9.03125 C -22.953125 8.34375 -23.414062 7.507812 -23.625 6.53125 C -23.757812 5.90625 -23.695312 5.566406 -23.4375 5.515625 C -23.332031 5.460938 -23.257812 5.515625 -23.21875 5.671875 C -23.175781 5.828125 -23.144531 5.984375 -23.125 6.140625 C -22.9375 7.066406 -22.503906 7.851562 -21.828125 8.5 C -21.160156 9.15625 -20.34375 9.644531 -19.375 9.96875 C -18.40625 10.289062 -17.398438 10.460938 -16.359375 10.484375 C -14.773438 10.515625 -13.21875 10.265625 -11.6875 9.734375 C -10.164062 9.203125 -8.695312 8.5 -7.28125 7.625 C -5.875 6.757812 -4.597656 5.875 -3.453125 4.96875 C -2.679688 4.351562 -1.851562 3.648438 -0.96875 2.859375 C -0.09375 2.066406 0.769531 1.253906 1.625 0.421875 C 2.488281 -0.398438 3.269531 -1.171875 3.96875 -1.890625 C 4.664062 -2.617188 5.222656 -3.234375 5.640625 -3.734375 C 5.691406 -3.785156 5.703125 -3.820312 5.671875 -3.84375 C 5.648438 -3.875 5.613281 -3.863281 5.5625 -3.8125 C 5.164062 -3.46875 4.734375 -3.085938 4.265625 -2.671875 C 3.804688 -2.265625 3.5 -1.992188 3.34375 -1.859375 C 2.664062 -1.347656 1.953125 -0.863281 1.203125 -0.40625 C 0.453125 0.0390625 -0.179688 0.265625 -0.703125 0.265625 C -1.191406 0.265625 -1.53125 0.15625 -1.71875 -0.0625 C -1.914062 -0.28125 -2.015625 -0.554688 -2.015625 -0.890625 C -2.015625 -1.535156 -1.753906 -2.28125 -1.234375 -3.125 C -0.722656 -3.96875 -0.0234375 -4.867188 0.859375 -5.828125 C 1.367188 -6.367188 1.988281 -6.957031 2.71875 -7.59375 C 3.445312 -8.226562 4.175781 -8.820312 4.90625 -9.375 C 5.644531 -9.9375 6.273438 -10.359375 6.796875 -10.640625 C 7.085938 -10.828125 7.5 -10.957031 8.03125 -11.03125 C 8.5625 -11.113281 8.953125 -11.140625 9.203125 -11.109375 C 8.066406 -10.179688 6.945312 -9.21875 5.84375 -8.21875 C 4.75 -7.21875 3.78125 -6.285156 2.9375 -5.421875 C 2.09375 -4.554688 1.4375 -3.835938 0.96875 -3.265625 C 0.5 -2.691406 0.101562 -2.175781 -0.21875 -1.71875 C -0.539062 -1.269531 -0.703125 -0.929688 -0.703125 -0.703125 C -0.703125 -0.460938 -0.582031 -0.34375 -0.34375 -0.34375 C 0.0078125 -0.34375 0.523438 -0.5625 1.203125 -1 C 1.878906 -1.445312 2.5 -1.878906 3.0625 -2.296875 C 3.40625 -2.554688 3.832031 -2.914062 4.34375 -3.375 C 4.863281 -3.84375 5.398438 -4.335938 5.953125 -4.859375 C 6.515625 -5.378906 7.003906 -5.832031 7.421875 -6.21875 C 7.960938 -6.757812 8.550781 -7.332031 9.1875 -7.9375 C 9.820312 -8.550781 10.457031 -9.128906 11.09375 -9.671875 C 11.726562 -10.210938 12.304688 -10.640625 12.828125 -10.953125 C 13.035156 -11.085938 13.367188 -11.191406 13.828125 -11.265625 C 14.296875 -11.347656 14.660156 -11.375 14.921875 -11.34375 Z M 14.921875 -11.34375 "></path></g></g></g><g fill="#492c01" fill-opacity="1"><g transform="translate(112.320696, 68.086346)"><g></g></g></g><g fill="#492c01" fill-opacity="1"><g transform="translate(120.403142, 68.086346)"><g><path d="M 24.875 -22.84375 C 25.78125 -23.34375 26.703125 -23.71875 27.640625 -23.96875 C 28.585938 -24.226562 29.453125 -24.359375 30.234375 -24.359375 C 31.054688 -24.359375 31.679688 -24.332031 32.109375 -24.28125 C 32.546875 -24.226562 33.019531 -24.203125 33.53125 -24.203125 C 34.15625 -24.203125 34.664062 -24.28125 35.0625 -24.4375 C 35.46875 -24.59375 35.773438 -24.75 35.984375 -24.90625 C 36.523438 -25.289062 37.109375 -25.796875 37.734375 -26.421875 C 37.835938 -26.578125 37.941406 -26.628906 38.046875 -26.578125 C 38.117188 -26.554688 38.140625 -26.492188 38.109375 -26.390625 C 38.085938 -26.285156 38.050781 -26.207031 38 -26.15625 C 37.613281 -25.632812 37.269531 -25.210938 36.96875 -24.890625 C 36.675781 -24.566406 36.347656 -24.222656 35.984375 -23.859375 C 35.410156 -23.316406 34.867188 -22.953125 34.359375 -22.765625 C 33.859375 -22.585938 33.3125 -22.5 32.71875 -22.5 C 32.070312 -22.5 31.484375 -22.550781 30.953125 -22.65625 C 30.421875 -22.757812 29.609375 -22.8125 28.515625 -22.8125 C 27.429688 -22.8125 26.28125 -22.582031 25.0625 -22.125 C 23.84375 -21.675781 22.703125 -20.957031 21.640625 -19.96875 C 20.867188 -19.269531 20.175781 -18.582031 19.5625 -17.90625 C 18.957031 -17.238281 18.328125 -16.515625 17.671875 -15.734375 C 17.023438 -14.960938 16.285156 -14.082031 15.453125 -13.09375 C 14.628906 -12.113281 13.632812 -10.960938 12.46875 -9.640625 C 9.59375 -6.421875 7.128906 -3.953125 5.078125 -2.234375 C 3.035156 -0.515625 1.40625 0.34375 0.1875 0.34375 C -0.375 0.34375 -0.820312 0.191406 -1.15625 -0.109375 C -1.5 -0.421875 -1.671875 -0.878906 -1.671875 -1.484375 C -1.671875 -2.203125 -1.410156 -3.050781 -0.890625 -4.03125 C -0.367188 -5.019531 0.367188 -6.007812 1.328125 -7 C 2.234375 -7.90625 3.195312 -8.691406 4.21875 -9.359375 C 5.238281 -10.035156 6.226562 -10.5625 7.1875 -10.9375 C 8.144531 -11.3125 8.960938 -11.5 9.640625 -11.5 C 10.003906 -11.5 10.335938 -11.421875 10.640625 -11.265625 C 10.953125 -11.109375 11.109375 -10.8125 11.109375 -10.375 C 11.109375 -10.039062 10.976562 -9.625 10.71875 -9.125 C 11.5 -10.0625 12.179688 -10.863281 12.765625 -11.53125 C 13.347656 -12.207031 13.890625 -12.835938 14.390625 -13.421875 C 14.898438 -14.003906 15.425781 -14.609375 15.96875 -15.234375 C 16.957031 -16.347656 17.882812 -17.34375 18.75 -18.21875 C 19.613281 -19.101562 20.53125 -19.921875 21.5 -20.671875 C 22.476562 -21.421875 23.601562 -22.144531 24.875 -22.84375 Z M 10.484375 -10.53125 C 10.484375 -10.8125 10.332031 -10.953125 10.03125 -10.953125 C 9.40625 -10.953125 8.4375 -10.453125 7.125 -9.453125 C 5.820312 -8.460938 4.367188 -7.148438 2.765625 -5.515625 C 1.878906 -4.554688 1.097656 -3.65625 0.421875 -2.8125 C -0.242188 -1.96875 -0.578125 -1.300781 -0.578125 -0.8125 C -0.578125 -0.65625 -0.535156 -0.503906 -0.453125 -0.359375 C -0.378906 -0.222656 -0.21875 -0.15625 0.03125 -0.15625 C 0.601562 -0.15625 1.535156 -0.675781 2.828125 -1.71875 C 4.128906 -2.769531 5.570312 -4.113281 7.15625 -5.75 C 7.59375 -6.21875 8.066406 -6.753906 8.578125 -7.359375 C 9.097656 -7.972656 9.546875 -8.570312 9.921875 -9.15625 C 10.296875 -9.738281 10.484375 -10.195312 10.484375 -10.53125 Z M 10.484375 -10.53125 "></path></g></g></g><g fill="#492c01" fill-opacity="1"><g transform="translate(131.283434, 68.086346)"><g><path d="M 9.640625 -11.5 C 10.617188 -11.5 11.109375 -11.125 11.109375 -10.375 C 11.109375 -9.800781 10.820312 -9.03125 10.25 -8.0625 C 9.6875 -7.09375 8.796875 -6 7.578125 -4.78125 C 6.023438 -3.195312 4.5625 -1.945312 3.1875 -1.03125 C 1.8125 -0.113281 0.738281 0.34375 -0.03125 0.34375 C -1.144531 0.34375 -1.703125 -0.265625 -1.703125 -1.484375 C -1.703125 -2.179688 -1.4375 -3.023438 -0.90625 -4.015625 C -0.375 -5.015625 0.367188 -6.007812 1.328125 -7 C 2.234375 -7.90625 3.191406 -8.691406 4.203125 -9.359375 C 5.210938 -10.035156 6.195312 -10.5625 7.15625 -10.9375 C 8.113281 -11.3125 8.941406 -11.5 9.640625 -11.5 Z M 10.484375 -10.53125 C 10.484375 -10.8125 10.332031 -10.953125 10.03125 -10.953125 C 9.425781 -10.953125 8.460938 -10.453125 7.140625 -9.453125 C 5.828125 -8.460938 4.367188 -7.148438 2.765625 -5.515625 C 1.878906 -4.554688 1.09375 -3.648438 0.40625 -2.796875 C -0.28125 -1.941406 -0.625 -1.269531 -0.625 -0.78125 C -0.625 -0.332031 -0.414062 -0.109375 0 -0.109375 C 0.59375 -0.109375 1.535156 -0.640625 2.828125 -1.703125 C 4.128906 -2.765625 5.570312 -4.113281 7.15625 -5.75 C 7.59375 -6.21875 8.066406 -6.753906 8.578125 -7.359375 C 9.097656 -7.972656 9.546875 -8.570312 9.921875 -9.15625 C 10.296875 -9.738281 10.484375 -10.195312 10.484375 -10.53125 Z M 10.484375 -10.53125 "></path></g></g></g><g fill="#492c01" fill-opacity="1"><g transform="translate(140.997907, 68.086346)"><g><path d="M 6.21875 0.34375 C 5.3125 0.34375 4.859375 -0.0664062 4.859375 -0.890625 C 4.859375 -1.460938 5.023438 -2.039062 5.359375 -2.625 C 5.703125 -3.207031 6.117188 -3.785156 6.609375 -4.359375 C 7.046875 -4.867188 7.515625 -5.347656 8.015625 -5.796875 C 8.523438 -6.253906 8.988281 -6.679688 9.40625 -7.078125 C 9.507812 -7.179688 9.539062 -7.238281 9.5 -7.25 C 9.457031 -7.257812 9.398438 -7.238281 9.328125 -7.1875 C 8.679688 -6.644531 8 -6.070312 7.28125 -5.46875 C 6.570312 -4.875 5.878906 -4.296875 5.203125 -3.734375 C 4.585938 -3.191406 3.847656 -2.601562 2.984375 -1.96875 C 2.128906 -1.332031 1.285156 -0.785156 0.453125 -0.328125 C -0.367188 0.117188 -1.078125 0.34375 -1.671875 0.34375 C -2.628906 0.34375 -3.109375 -0.09375 -3.109375 -0.96875 C -3.109375 -1.351562 -3 -1.796875 -2.78125 -2.296875 C -2.5625 -2.804688 -2.242188 -3.269531 -1.828125 -3.6875 C -1.597656 -3.925781 -1.359375 -4.117188 -1.109375 -4.265625 C -0.859375 -4.421875 -0.601562 -4.5 -0.34375 -4.5 C -0.09375 -4.5 0.03125 -4.375 0.03125 -4.125 C 0.03125 -3.882812 -0.078125 -3.632812 -0.296875 -3.375 C -0.515625 -3.113281 -0.765625 -2.867188 -1.046875 -2.640625 C -1.984375 -1.960938 -2.453125 -1.367188 -2.453125 -0.859375 C -2.453125 -0.359375 -2.191406 -0.109375 -1.671875 -0.109375 C -1.234375 -0.109375 -0.664062 -0.300781 0.03125 -0.6875 C 0.738281 -1.082031 1.484375 -1.570312 2.265625 -2.15625 C 3.054688 -2.738281 3.820312 -3.332031 4.5625 -3.9375 C 5.300781 -4.550781 5.914062 -5.066406 6.40625 -5.484375 C 7.3125 -6.234375 8.222656 -6.960938 9.140625 -7.671875 C 10.066406 -8.390625 10.910156 -9.019531 11.671875 -9.5625 C 12.441406 -10.101562 13.046875 -10.503906 13.484375 -10.765625 C 13.816406 -10.972656 14.195312 -11.113281 14.625 -11.1875 C 15.050781 -11.269531 15.460938 -11.296875 15.859375 -11.265625 C 14.742188 -10.253906 13.65625 -9.238281 12.59375 -8.21875 C 11.53125 -7.195312 10.578125 -6.242188 9.734375 -5.359375 C 8.890625 -4.484375 8.234375 -3.769531 7.765625 -3.21875 C 7.304688 -2.65625 6.929688 -2.160156 6.640625 -1.734375 C 6.359375 -1.304688 6.21875 -0.945312 6.21875 -0.65625 C 6.21875 -0.394531 6.359375 -0.265625 6.640625 -0.265625 C 6.929688 -0.265625 7.28125 -0.367188 7.6875 -0.578125 C 8.101562 -0.785156 8.535156 -1.03125 8.984375 -1.3125 C 9.441406 -1.601562 9.828125 -1.863281 10.140625 -2.09375 C 10.578125 -2.4375 11.054688 -2.820312 11.578125 -3.25 C 12.097656 -3.675781 12.582031 -4.082031 13.03125 -4.46875 C 13.488281 -4.851562 13.847656 -5.164062 14.109375 -5.40625 C 14.390625 -5.664062 14.582031 -5.71875 14.6875 -5.5625 C 14.789062 -5.457031 14.753906 -5.3125 14.578125 -5.125 C 14.234375 -4.84375 13.796875 -4.472656 13.265625 -4.015625 C 12.734375 -3.566406 12.210938 -3.128906 11.703125 -2.703125 C 11.203125 -2.273438 10.796875 -1.941406 10.484375 -1.703125 C 9.867188 -1.242188 9.164062 -0.785156 8.375 -0.328125 C 7.582031 0.117188 6.863281 0.34375 6.21875 0.34375 Z M 6.21875 0.34375 "></path></g></g></g><g fill="#492c01" fill-opacity="1"><g transform="translate(154.481595, 68.086346)"><g><path d="M 14.921875 -11.34375 C 13.859375 -10.363281 12.75 -9.28125 11.59375 -8.09375 C 10.445312 -6.914062 9.1875 -5.539062 7.8125 -3.96875 C 6.570312 -2.539062 5.128906 -0.96875 3.484375 0.75 C 1.835938 2.476562 0.117188 4.039062 -1.671875 5.4375 C -4.128906 7.332031 -6.632812 8.765625 -9.1875 9.734375 C -11.738281 10.703125 -14.066406 11.175781 -16.171875 11.15625 C -17.378906 11.125 -18.515625 10.929688 -19.578125 10.578125 C -20.640625 10.234375 -21.523438 9.71875 -22.234375 9.03125 C -22.953125 8.34375 -23.414062 7.507812 -23.625 6.53125 C -23.757812 5.90625 -23.695312 5.566406 -23.4375 5.515625 C -23.332031 5.460938 -23.257812 5.515625 -23.21875 5.671875 C -23.175781 5.828125 -23.144531 5.984375 -23.125 6.140625 C -22.9375 7.066406 -22.503906 7.851562 -21.828125 8.5 C -21.160156 9.15625 -20.34375 9.644531 -19.375 9.96875 C -18.40625 10.289062 -17.398438 10.460938 -16.359375 10.484375 C -14.773438 10.515625 -13.21875 10.265625 -11.6875 9.734375 C -10.164062 9.203125 -8.695312 8.5 -7.28125 7.625 C -5.875 6.757812 -4.597656 5.875 -3.453125 4.96875 C -2.679688 4.351562 -1.851562 3.648438 -0.96875 2.859375 C -0.09375 2.066406 0.769531 1.253906 1.625 0.421875 C 2.488281 -0.398438 3.269531 -1.171875 3.96875 -1.890625 C 4.664062 -2.617188 5.222656 -3.234375 5.640625 -3.734375 C 5.691406 -3.785156 5.703125 -3.820312 5.671875 -3.84375 C 5.648438 -3.875 5.613281 -3.863281 5.5625 -3.8125 C 5.164062 -3.46875 4.734375 -3.085938 4.265625 -2.671875 C 3.804688 -2.265625 3.5 -1.992188 3.34375 -1.859375 C 2.664062 -1.347656 1.953125 -0.863281 1.203125 -0.40625 C 0.453125 0.0390625 -0.179688 0.265625 -0.703125 0.265625 C -1.191406 0.265625 -1.53125 0.15625 -1.71875 -0.0625 C -1.914062 -0.28125 -2.015625 -0.554688 -2.015625 -0.890625 C -2.015625 -1.535156 -1.753906 -2.28125 -1.234375 -3.125 C -0.722656 -3.96875 -0.0234375 -4.867188 0.859375 -5.828125 C 1.367188 -6.367188 1.988281 -6.957031 2.71875 -7.59375 C 3.445312 -8.226562 4.175781 -8.820312 4.90625 -9.375 C 5.644531 -9.9375 6.273438 -10.359375 6.796875 -10.640625 C 7.085938 -10.828125 7.5 -10.957031 8.03125 -11.03125 C 8.5625 -11.113281 8.953125 -11.140625 9.203125 -11.109375 C 8.066406 -10.179688 6.945312 -9.21875 5.84375 -8.21875 C 4.75 -7.21875 3.78125 -6.285156 2.9375 -5.421875 C 2.09375 -4.554688 1.4375 -3.835938 0.96875 -3.265625 C 0.5 -2.691406 0.101562 -2.175781 -0.21875 -1.71875 C -0.539062 -1.269531 -0.703125 -0.929688 -0.703125 -0.703125 C -0.703125 -0.460938 -0.582031 -0.34375 -0.34375 -0.34375 C 0.0078125 -0.34375 0.523438 -0.5625 1.203125 -1 C 1.878906 -1.445312 2.5 -1.878906 3.0625 -2.296875 C 3.40625 -2.554688 3.832031 -2.914062 4.34375 -3.375 C 4.863281 -3.84375 5.398438 -4.335938 5.953125 -4.859375 C 6.515625 -5.378906 7.003906 -5.832031 7.421875 -6.21875 C 7.960938 -6.757812 8.550781 -7.332031 9.1875 -7.9375 C 9.820312 -8.550781 10.457031 -9.128906 11.09375 -9.671875 C 11.726562 -10.210938 12.304688 -10.640625 12.828125 -10.953125 C 13.035156 -11.085938 13.367188 -11.191406 13.828125 -11.265625 C 14.296875 -11.347656 14.660156 -11.375 14.921875 -11.34375 Z M 14.921875 -11.34375 "></path></g></g></g><g fill="#492c01" fill-opacity="1"><g transform="translate(166.061247, 68.086346)"><g><path d="M 6.171875 -0.65625 C 6.171875 -0.394531 6.316406 -0.265625 6.609375 -0.265625 C 6.890625 -0.265625 7.238281 -0.367188 7.65625 -0.578125 C 8.070312 -0.785156 8.503906 -1.03125 8.953125 -1.3125 C 9.410156 -1.601562 9.796875 -1.863281 10.109375 -2.09375 C 10.546875 -2.4375 11.019531 -2.820312 11.53125 -3.25 C 12.050781 -3.675781 12.546875 -4.082031 13.015625 -4.46875 C 13.484375 -4.851562 13.847656 -5.164062 14.109375 -5.40625 C 14.367188 -5.664062 14.5625 -5.71875 14.6875 -5.5625 C 14.789062 -5.476562 14.738281 -5.332031 14.53125 -5.125 C 14.195312 -4.84375 13.769531 -4.472656 13.25 -4.015625 C 12.726562 -3.566406 12.207031 -3.128906 11.6875 -2.703125 C 11.175781 -2.273438 10.765625 -1.941406 10.453125 -1.703125 C 9.828125 -1.242188 9.117188 -0.785156 8.328125 -0.328125 C 7.546875 0.117188 6.828125 0.34375 6.171875 0.34375 C 5.265625 0.34375 4.8125 -0.0664062 4.8125 -0.890625 C 4.8125 -1.304688 4.945312 -1.789062 5.21875 -2.34375 C 5.5 -2.90625 5.84375 -3.472656 6.25 -4.046875 C 6.5625 -4.453125 6.898438 -4.859375 7.265625 -5.265625 C 7.628906 -5.671875 8.003906 -6.066406 8.390625 -6.453125 C 8.109375 -6.265625 7.707031 -6.03125 7.1875 -5.75 C 6.664062 -5.46875 6.1875 -5.328125 5.75 -5.328125 C 5.382812 -5.328125 5.101562 -5.414062 4.90625 -5.59375 C 4.71875 -5.78125 4.46875 -5.875 4.15625 -5.875 C 3.945312 -5.875 3.691406 -5.769531 3.390625 -5.5625 C 3.097656 -5.351562 2.820312 -5.128906 2.5625 -4.890625 C 2.300781 -4.660156 2.117188 -4.492188 2.015625 -4.390625 C 1.265625 -3.640625 0.5625 -2.851562 -0.09375 -2.03125 C -0.757812 -1.21875 -1.425781 -0.375 -2.09375 0.5 C -2.25 0.5 -2.375 0.410156 -2.46875 0.234375 C -2.5625 0.0546875 -2.609375 -0.148438 -2.609375 -0.390625 C -2.609375 -0.722656 -2.34375 -1.289062 -1.8125 -2.09375 C -1.28125 -2.894531 -0.617188 -3.785156 0.171875 -4.765625 C 0.960938 -5.753906 1.757812 -6.664062 2.5625 -7.5 C 3.1875 -8.175781 3.820312 -8.789062 4.46875 -9.34375 C 5.113281 -9.90625 5.671875 -10.335938 6.140625 -10.640625 C 6.472656 -10.847656 6.890625 -11.003906 7.390625 -11.109375 C 7.898438 -11.210938 8.40625 -11.265625 8.90625 -11.265625 C 8.40625 -10.929688 7.804688 -10.457031 7.109375 -9.84375 C 6.410156 -9.238281 5.695312 -8.566406 4.96875 -7.828125 C 4.25 -7.085938 3.578125 -6.359375 2.953125 -5.640625 C 3.316406 -5.921875 3.695312 -6.179688 4.09375 -6.421875 C 4.5 -6.671875 4.84375 -6.796875 5.125 -6.796875 C 5.488281 -6.796875 5.800781 -6.71875 6.0625 -6.5625 C 6.320312 -6.40625 6.609375 -6.328125 6.921875 -6.328125 C 7.359375 -6.328125 7.84375 -6.46875 8.375 -6.75 C 8.90625 -7.039062 9.40625 -7.40625 9.875 -7.84375 C 10.539062 -8.46875 11.222656 -9.0625 11.921875 -9.625 C 12.628906 -10.195312 13.210938 -10.613281 13.671875 -10.875 C 13.960938 -11.03125 14.328125 -11.140625 14.765625 -11.203125 C 15.203125 -11.273438 15.550781 -11.296875 15.8125 -11.265625 C 14.695312 -10.253906 13.609375 -9.238281 12.546875 -8.21875 C 11.484375 -7.195312 10.53125 -6.242188 9.6875 -5.359375 C 8.851562 -4.484375 8.203125 -3.769531 7.734375 -3.21875 C 7.296875 -2.675781 6.925781 -2.1875 6.625 -1.75 C 6.320312 -1.3125 6.171875 -0.945312 6.171875 -0.65625 Z M 6.171875 -0.65625 "></path></g></g></g><g fill="#492c01" fill-opacity="1"><g transform="translate(179.50608, 68.086346)"><g><path d="M 14.921875 -11.34375 C 13.859375 -10.363281 12.75 -9.28125 11.59375 -8.09375 C 10.445312 -6.914062 9.1875 -5.539062 7.8125 -3.96875 C 6.570312 -2.539062 5.128906 -0.96875 3.484375 0.75 C 1.835938 2.476562 0.117188 4.039062 -1.671875 5.4375 C -4.128906 7.332031 -6.632812 8.765625 -9.1875 9.734375 C -11.738281 10.703125 -14.066406 11.175781 -16.171875 11.15625 C -17.378906 11.125 -18.515625 10.929688 -19.578125 10.578125 C -20.640625 10.234375 -21.523438 9.71875 -22.234375 9.03125 C -22.953125 8.34375 -23.414062 7.507812 -23.625 6.53125 C -23.757812 5.90625 -23.695312 5.566406 -23.4375 5.515625 C -23.332031 5.460938 -23.257812 5.515625 -23.21875 5.671875 C -23.175781 5.828125 -23.144531 5.984375 -23.125 6.140625 C -22.9375 7.066406 -22.503906 7.851562 -21.828125 8.5 C -21.160156 9.15625 -20.34375 9.644531 -19.375 9.96875 C -18.40625 10.289062 -17.398438 10.460938 -16.359375 10.484375 C -14.773438 10.515625 -13.21875 10.265625 -11.6875 9.734375 C -10.164062 9.203125 -8.695312 8.5 -7.28125 7.625 C -5.875 6.757812 -4.597656 5.875 -3.453125 4.96875 C -2.679688 4.351562 -1.851562 3.648438 -0.96875 2.859375 C -0.09375 2.066406 0.769531 1.253906 1.625 0.421875 C 2.488281 -0.398438 3.269531 -1.171875 3.96875 -1.890625 C 4.664062 -2.617188 5.222656 -3.234375 5.640625 -3.734375 C 5.691406 -3.785156 5.703125 -3.820312 5.671875 -3.84375 C 5.648438 -3.875 5.613281 -3.863281 5.5625 -3.8125 C 5.164062 -3.46875 4.734375 -3.085938 4.265625 -2.671875 C 3.804688 -2.265625 3.5 -1.992188 3.34375 -1.859375 C 2.664062 -1.347656 1.953125 -0.863281 1.203125 -0.40625 C 0.453125 0.0390625 -0.179688 0.265625 -0.703125 0.265625 C -1.191406 0.265625 -1.53125 0.15625 -1.71875 -0.0625 C -1.914062 -0.28125 -2.015625 -0.554688 -2.015625 -0.890625 C -2.015625 -1.535156 -1.753906 -2.28125 -1.234375 -3.125 C -0.722656 -3.96875 -0.0234375 -4.867188 0.859375 -5.828125 C 1.367188 -6.367188 1.988281 -6.957031 2.71875 -7.59375 C 3.445312 -8.226562 4.175781 -8.820312 4.90625 -9.375 C 5.644531 -9.9375 6.273438 -10.359375 6.796875 -10.640625 C 7.085938 -10.828125 7.5 -10.957031 8.03125 -11.03125 C 8.5625 -11.113281 8.953125 -11.140625 9.203125 -11.109375 C 8.066406 -10.179688 6.945312 -9.21875 5.84375 -8.21875 C 4.75 -7.21875 3.78125 -6.285156 2.9375 -5.421875 C 2.09375 -4.554688 1.4375 -3.835938 0.96875 -3.265625 C 0.5 -2.691406 0.101562 -2.175781 -0.21875 -1.71875 C -0.539062 -1.269531 -0.703125 -0.929688 -0.703125 -0.703125 C -0.703125 -0.460938 -0.582031 -0.34375 -0.34375 -0.34375 C 0.0078125 -0.34375 0.523438 -0.5625 1.203125 -1 C 1.878906 -1.445312 2.5 -1.878906 3.0625 -2.296875 C 3.40625 -2.554688 3.832031 -2.914062 4.34375 -3.375 C 4.863281 -3.84375 5.398438 -4.335938 5.953125 -4.859375 C 6.515625 -5.378906 7.003906 -5.832031 7.421875 -6.21875 C 7.960938 -6.757812 8.550781 -7.332031 9.1875 -7.9375 C 9.820312 -8.550781 10.457031 -9.128906 11.09375 -9.671875 C 11.726562 -10.210938 12.304688 -10.640625 12.828125 -10.953125 C 13.035156 -11.085938 13.367188 -11.191406 13.828125 -11.265625 C 14.296875 -11.347656 14.660156 -11.375 14.921875 -11.34375 Z M 14.921875 -11.34375 "></path></g></g></g><g fill="#492c01" fill-opacity="1"><g transform="translate(190.308436, 68.086346)"><g><path d="M -13.5625 11.15625 C -14.78125 11.15625 -15.921875 10.972656 -16.984375 10.609375 C -18.046875 10.242188 -18.929688 9.71875 -19.640625 9.03125 C -20.359375 8.34375 -20.816406 7.507812 -21.015625 6.53125 C -21.148438 5.90625 -21.085938 5.566406 -20.828125 5.515625 C -20.722656 5.460938 -20.648438 5.515625 -20.609375 5.671875 C -20.578125 5.828125 -20.546875 5.984375 -20.515625 6.140625 C -20.304688 7.097656 -19.851562 7.898438 -19.15625 8.546875 C -18.457031 9.191406 -17.628906 9.675781 -16.671875 10 C -15.710938 10.320312 -14.738281 10.484375 -13.75 10.484375 C -12.195312 10.484375 -10.738281 10.28125 -9.375 9.875 C -8.019531 9.476562 -6.8125 8.988281 -5.75 8.40625 C -4.6875 7.820312 -3.804688 7.273438 -3.109375 6.765625 C -1.921875 5.859375 -0.96875 4.882812 -0.25 3.84375 C 0.457031 2.8125 0.8125 1.929688 0.8125 1.203125 C 0.8125 0.835938 0.726562 0.550781 0.5625 0.34375 C 0.394531 0.132812 0.207031 0.0078125 0 -0.03125 C -0.332031 0.0390625 -0.742188 0.109375 -1.234375 0.171875 C -1.734375 0.234375 -2.113281 0.265625 -2.375 0.265625 C -2.582031 0.265625 -2.769531 0.242188 -2.9375 0.203125 C -3.101562 0.171875 -3.1875 0.09375 -3.1875 -0.03125 C -3.1875 -0.21875 -3.066406 -0.351562 -2.828125 -0.4375 C -2.597656 -0.53125 -2.335938 -0.597656 -2.046875 -0.640625 C -1.765625 -0.679688 -1.550781 -0.703125 -1.40625 -0.703125 C -0.75 -0.703125 -0.203125 -0.609375 0.234375 -0.421875 C 0.859375 -0.503906 1.570312 -0.820312 2.375 -1.375 C 3.175781 -1.9375 4.019531 -2.65625 4.90625 -3.53125 C 5.800781 -4.414062 6.675781 -5.363281 7.53125 -6.375 C 8.050781 -6.96875 8.535156 -7.640625 8.984375 -8.390625 C 9.441406 -9.140625 9.671875 -9.722656 9.671875 -10.140625 C 9.671875 -10.554688 9.460938 -10.765625 9.046875 -10.765625 C 8.691406 -10.765625 8.25 -10.628906 7.71875 -10.359375 C 7.1875 -10.085938 6.617188 -9.726562 6.015625 -9.28125 C 5.054688 -8.5625 4.082031 -7.765625 3.09375 -6.890625 C 2.113281 -6.023438 1.289062 -5.296875 0.625 -4.703125 C 0.519531 -4.617188 0.398438 -4.539062 0.265625 -4.46875 C 0.140625 -4.394531 0.0507812 -4.382812 0 -4.4375 C -0.15625 -4.582031 -0.128906 -4.734375 0.078125 -4.890625 C 1.054688 -5.742188 2.015625 -6.585938 2.953125 -7.421875 C 3.890625 -8.253906 4.691406 -8.941406 5.359375 -9.484375 C 6.503906 -10.390625 7.390625 -10.945312 8.015625 -11.15625 C 8.648438 -11.363281 9.148438 -11.46875 9.515625 -11.46875 C 9.910156 -11.46875 10.253906 -11.335938 10.546875 -11.078125 C 10.847656 -10.816406 11 -10.390625 11 -9.796875 C 11 -9.222656 10.878906 -8.640625 10.640625 -8.046875 C 10.410156 -7.453125 10.144531 -6.90625 9.84375 -6.40625 C 9.550781 -5.914062 9.273438 -5.53125 9.015625 -5.25 C 8.003906 -4.050781 6.816406 -3 5.453125 -2.09375 C 4.097656 -1.1875 2.539062 -0.550781 0.78125 -0.1875 C 1.894531 0.164062 2.453125 0.875 2.453125 1.9375 C 2.453125 2.875 2.066406 3.820312 1.296875 4.78125 C 0.535156 5.738281 -0.375 6.632812 -1.4375 7.46875 C -2.882812 8.570312 -4.691406 9.460938 -6.859375 10.140625 C -9.023438 10.816406 -11.257812 11.15625 -13.5625 11.15625 Z M -13.5625 11.15625 "></path></g></g></g><g fill="#492c01" fill-opacity="1"><g transform="translate(200.955498, 68.086346)"><g><path d="M 17.25 -20.046875 C 17.769531 -20.046875 18.03125 -19.816406 18.03125 -19.359375 C 18.03125 -18.910156 17.769531 -18.429688 17.25 -17.921875 C 15.644531 -16.253906 14.109375 -14.695312 12.640625 -13.25 C 11.179688 -11.800781 9.71875 -10.375 8.25 -8.96875 C 6.789062 -7.570312 5.257812 -6.109375 3.65625 -4.578125 C 3.34375 -4.296875 3.085938 -4.070312 2.890625 -3.90625 C 2.703125 -3.738281 2.539062 -3.679688 2.40625 -3.734375 C 2.28125 -3.804688 2.285156 -3.945312 2.421875 -4.15625 C 2.566406 -4.363281 2.769531 -4.609375 3.03125 -4.890625 C 4.457031 -6.523438 5.78125 -8.035156 7 -9.421875 C 8.21875 -10.804688 9.40625 -12.148438 10.5625 -13.453125 C 11.726562 -14.765625 12.9375 -16.125 14.1875 -17.53125 C 14.46875 -17.832031 14.773438 -18.175781 15.109375 -18.5625 C 15.453125 -18.957031 15.8125 -19.300781 16.1875 -19.59375 C 16.5625 -19.894531 16.914062 -20.046875 17.25 -20.046875 Z M 0.46875 0.234375 C 0.175781 0.234375 -0.0664062 0.128906 -0.265625 -0.078125 C -0.472656 -0.285156 -0.578125 -0.53125 -0.578125 -0.8125 C -0.578125 -1.101562 -0.472656 -1.347656 -0.265625 -1.546875 C -0.0664062 -1.753906 0.175781 -1.859375 0.46875 -1.859375 C 0.75 -1.859375 0.988281 -1.753906 1.1875 -1.546875 C 1.382812 -1.347656 1.484375 -1.101562 1.484375 -0.8125 C 1.484375 -0.53125 1.382812 -0.285156 1.1875 -0.078125 C 0.988281 0.128906 0.75 0.234375 0.46875 0.234375 Z M 0.46875 0.234375 "></path></g></g></g></g></g></svg> 