<?xml version="1.0" encoding="UTF-8"?> <svg xmlns="http://www.w3.org/2000/svg" xmlns:xlink="http://www.w3.org/1999/xlink" width="360" zoomAndPan="magnify" viewBox="0 0 270 359.999987" height="480" preserveAspectRatio="xMidYMid meet" version="1.0"><defs><clipPath id="f3430afd71"><path d="M 171.886719 201.582031 L 172.296875 201.582031 L 172.296875 201.863281 L 171.886719 201.863281 Z M 171.886719 201.582031 " clip-rule="nonzero"></path></clipPath><clipPath id="202e8abd22"><path d="M 172.273438 201.75 C 171.523438 202.050781 172.125 201.601562 172.125 201.601562 " clip-rule="nonzero"></path></clipPath><clipPath id="9f9ea3ba6f"><path d="M 0.886719 0.582031 L 1.296875 0.582031 L 1.296875 0.863281 L 0.886719 0.863281 Z M 0.886719 0.582031 " clip-rule="nonzero"></path></clipPath><clipPath id="af4d590f16"><path d="M 1.273438 0.75 C 0.523438 1.050781 1.125 0.601562 1.125 0.601562 " clip-rule="nonzero"></path></clipPath><clipPath id="4d3fd5798d"><rect x="0" width="2" y="0" height="1"></rect></clipPath><clipPath id="dda807f904"><path d="M 78.0625 176.757812 L 78.472656 176.757812 L 78.472656 177 L 78.0625 177 Z M 78.0625 176.757812 " clip-rule="nonzero"></path></clipPath><clipPath id="e1d0617604"><path d="M 78.449219 176.925781 C 77.699219 177.148438 78.300781 176.773438 78.300781 176.773438 " clip-rule="nonzero"></path></clipPath><clipPath id="a754e15251"><path d="M 0.0625 0.757812 L 0.472656 0.757812 L 0.472656 1 L 0.0625 1 Z M 0.0625 0.757812 " clip-rule="nonzero"></path></clipPath><clipPath id="9e77542981"><path d="M 0.449219 0.925781 C -0.300781 1.148438 0.300781 0.773438 0.300781 0.773438 " clip-rule="nonzero"></path></clipPath><clipPath id="6cd3e01cd0"><rect x="0" width="1" y="0" height="1"></rect></clipPath><clipPath id="19a78b46a9"><path d="M 0.0625 0.757812 L 0.472656 0.757812 L 0.472656 1 L 0.0625 1 Z M 0.0625 0.757812 " clip-rule="nonzero"></path></clipPath><clipPath id="49c1775126"><path d="M 0.449219 0.925781 C -0.300781 1.148438 0.300781 0.773438 0.300781 0.773438 " clip-rule="nonzero"></path></clipPath><clipPath id="01232aa949"><rect x="0" width="1" y="0" height="1"></rect></clipPath><clipPath id="3ac6ed7205"><path d="M 18 158.167969 L 106 158.167969 L 106 178 L 18 178 Z M 18 158.167969 " clip-rule="nonzero"></path></clipPath></defs><g clip-path="url(#f3430afd71)"><g clip-path="url(#202e8abd22)"><g transform="matrix(1, 0, 0, 1, 171, 201)"><g clip-path="url(#4d3fd5798d)"><g clip-path="url(#9f9ea3ba6f)"><g clip-path="url(#af4d590f16)"><rect x="-230.4" width="388.8" fill="#492c01" height="518.399981" y="-280.199997" fill-opacity="1"></rect></g></g></g></g></g></g><g clip-path="url(#dda807f904)"><g clip-path="url(#e1d0617604)"><g transform="matrix(1, 0, 0, 1, 78, 176)"><g clip-path="url(#6cd3e01cd0)"><g clip-path="url(#a754e15251)"><g clip-path="url(#9e77542981)"><rect x="-137.4" width="388.8" fill="#492c01" height="518.399981" y="-255.199997" fill-opacity="1"></rect></g></g></g></g><g transform="matrix(1, 0, 0, 1, 78, 176)"><g clip-path="url(#01232aa949)"><g clip-path="url(#19a78b46a9)"><g clip-path="url(#49c1775126)"><rect x="-137.4" width="388.8" fill="#492c01" height="518.399981" y="-255.199997" fill-opacity="1"></rect></g></g></g></g></g></g><g clip-path="url(#3ac6ed7205)"><path fill="#492c01" d="M 20.191406 173.527344 C 24.714844 168.820312 30.03125 164.671875 36.265625 162.523438 C 41.320312 160.773438 46.722656 160.445312 51.972656 161.203125 C 57.46875 162 62.78125 163.773438 67.960938 165.742188 C 73.453125 167.835938 78.839844 170.179688 84.351562 172.21875 C 89.917969 174.273438 95.628906 176.019531 101.519531 176.828125 C 102.3125 176.9375 103.109375 177.035156 103.902344 177.113281 C 104.511719 177.171875 105.03125 176.554688 105.03125 175.984375 C 105.03125 175.324219 104.511719 174.914062 103.902344 174.855469 C 97.953125 174.273438 92.15625 172.617188 86.542969 170.617188 C 80.941406 168.621094 75.484375 166.257812 69.945312 164.097656 C 64.683594 162.054688 59.304688 160.160156 53.726562 159.207031 C 48.273438 158.28125 42.679688 158.292969 37.332031 159.816406 C 31 161.625 25.429688 165.351562 20.6875 169.84375 C 19.972656 170.523438 19.277344 171.21875 18.589844 171.933594 C 17.585938 172.980469 19.183594 174.578125 20.191406 173.527344 Z M 20.191406 173.527344 " fill-opacity="1" fill-rule="nonzero"></path></g><path fill="#492c01" d="M 240.984375 171.425781 C 227.28125 174.566406 213.359375 170.410156 200.101562 167.136719 C 187.785156 164.09375 174.71875 161.628906 162.320312 165.636719 C 156.433594 167.539062 151.035156 170.832031 147.253906 175.789062 C 146.882812 176.273438 147.179688 177.054688 147.660156 177.335938 C 148.242188 177.671875 148.835938 177.417969 149.207031 176.929688 C 155.804688 168.269531 167.777344 165.46875 178.144531 165.789062 C 191.925781 166.21875 204.949219 171.371094 218.4375 173.640625 C 226.09375 174.925781 233.964844 175.351562 241.582031 173.605469 C 242.996094 173.277344 242.398438 171.101562 240.984375 171.425781 Z M 240.984375 171.425781 " fill-opacity="1" fill-rule="nonzero"></path><path fill="#492c01" d="M 126.636719 176.152344 C 124.226562 174.585938 122.046875 172.683594 120.175781 170.503906 C 120.015625 170.324219 119.859375 170.097656 119.707031 169.9375 C 119.695312 169.921875 119.714844 169.871094 119.699219 169.839844 C 119.714844 169.867188 119.648438 170.027344 119.699219 169.917969 C 119.765625 169.769531 119.640625 170.035156 119.636719 170.03125 C 119.589844 170.085938 119.585938 170.089844 119.632812 170.039062 C 119.648438 170.015625 119.671875 169.996094 119.695312 169.976562 C 119.824219 169.878906 119.542969 170.066406 119.695312 169.984375 C 119.742188 169.960938 119.78125 169.9375 119.824219 169.914062 C 119.648438 170.003906 119.929688 169.886719 119.996094 169.867188 C 120.050781 169.855469 120.304688 169.804688 120.226562 169.8125 C 120.097656 169.832031 120.332031 169.804688 120.359375 169.804688 C 120.4375 169.800781 120.511719 169.800781 120.585938 169.800781 C 120.714844 169.800781 120.847656 169.804688 120.976562 169.824219 C 120.785156 169.800781 121.082031 169.851562 121.136719 169.863281 C 121.480469 169.941406 121.824219 170.035156 122.15625 170.148438 C 122.734375 170.34375 123.257812 170.589844 123.800781 170.910156 C 124.976562 171.601562 125.984375 172.550781 126.703125 173.679688 C 127.03125 174.195312 127.703125 174.402344 128.246094 174.085938 C 128.757812 173.789062 128.984375 173.058594 128.652344 172.542969 C 127.765625 171.152344 126.578125 169.984375 125.179688 169.109375 C 123.867188 168.285156 122.207031 167.574219 120.640625 167.546875 C 119.199219 167.519531 117.410156 168.25 117.441406 169.945312 C 117.460938 170.964844 118.253906 171.746094 118.886719 172.460938 C 119.460938 173.105469 120.0625 173.726562 120.683594 174.320312 C 122.167969 175.730469 123.789062 176.996094 125.5 178.113281 C 126.011719 178.445312 126.746094 178.214844 127.042969 177.707031 C 127.367188 177.144531 127.152344 176.484375 126.636719 176.152344 Z M 126.636719 176.152344 " fill-opacity="1" fill-rule="nonzero"></path><path fill="#492c01" d="M 126.074219 179.460938 C 127.933594 178.351562 129.796875 177.238281 131.652344 176.128906 C 132.566406 175.582031 133.476562 175.042969 134.386719 174.492188 C 135.230469 173.980469 136.046875 173.410156 136.652344 172.617188 C 137.230469 171.859375 137.539062 170.914062 137.425781 169.957031 C 137.371094 169.523438 137.25 169.105469 137.007812 168.730469 C 136.585938 168.0625 136.082031 167.898438 135.316406 168.011719 C 133.636719 168.253906 131.988281 168.882812 130.558594 169.804688 C 128.925781 170.855469 127.53125 172.28125 126.597656 173.992188 C 125.898438 175.265625 127.847656 176.410156 128.550781 175.128906 C 130.015625 172.460938 132.828125 170.582031 135.851562 170.199219 C 135.585938 170.089844 135.320312 169.976562 135.054688 169.867188 C 135.503906 170.390625 134.957031 171.214844 134.523438 171.625 C 133.707031 172.40625 132.605469 172.921875 131.644531 173.496094 C 129.40625 174.832031 127.167969 176.167969 124.929688 177.507812 C 123.6875 178.257812 124.820312 180.210938 126.074219 179.460938 Z M 126.074219 179.460938 " fill-opacity="1" fill-rule="nonzero"></path><path fill="#492c01" d="M 128.429688 175.558594 C 130.808594 174.253906 133.179688 172.949219 135.554688 171.644531 C 136.074219 171.359375 136.285156 170.601562 135.960938 170.097656 C 135.621094 169.574219 134.972656 169.390625 134.417969 169.691406 C 132.039062 170.996094 129.667969 172.304688 127.292969 173.609375 C 126.773438 173.894531 126.5625 174.652344 126.886719 175.152344 C 127.226562 175.683594 127.875 175.863281 128.429688 175.558594 Z M 128.429688 175.558594 " fill-opacity="1" fill-rule="nonzero"></path><path fill="#492c01" d="M 127.910156 173.59375 C 125.992188 172.144531 124.066406 170.695312 122.148438 169.246094 C 121.671875 168.886719 120.863281 169.152344 120.601562 169.652344 C 120.285156 170.246094 120.503906 170.816406 121.007812 171.195312 C 122.929688 172.644531 124.855469 174.097656 126.773438 175.546875 C 127.246094 175.902344 128.054688 175.636719 128.320312 175.140625 C 128.632812 174.542969 128.417969 173.972656 127.910156 173.59375 Z M 127.910156 173.59375 " fill-opacity="1" fill-rule="nonzero"></path><path fill="#492c01" d="M 119.78125 169.808594 C 119.65625 171.617188 120.875 173.160156 122.125 174.320312 C 123.410156 175.511719 124.867188 176.503906 126.449219 177.246094 C 126.980469 177.492188 127.691406 177.410156 127.992188 176.839844 C 128.261719 176.335938 128.160156 175.558594 127.585938 175.292969 C 126.890625 174.96875 126.21875 174.59375 125.570312 174.171875 C 124.875 173.714844 124.511719 173.433594 123.886719 172.875 C 123.617188 172.632812 123.355469 172.378906 123.101562 172.117188 C 122.980469 171.992188 122.867188 171.855469 122.753906 171.71875 C 122.539062 171.46875 122.808594 171.808594 122.703125 171.65625 C 122.652344 171.585938 122.601562 171.515625 122.550781 171.441406 C 122.457031 171.296875 122.363281 171.144531 122.285156 170.992188 C 122.273438 170.976562 122.128906 170.671875 122.226562 170.894531 C 122.191406 170.816406 122.167969 170.734375 122.140625 170.652344 C 122.113281 170.574219 122.089844 170.492188 122.070312 170.410156 C 122.0625 170.382812 122.015625 170.113281 122.035156 170.265625 C 122.058594 170.417969 122.03125 170.144531 122.03125 170.117188 C 122.027344 170.011719 122.035156 169.914062 122.039062 169.808594 C 122.082031 169.21875 121.488281 168.652344 120.910156 168.679688 C 120.265625 168.710938 119.824219 169.175781 119.78125 169.808594 Z M 119.78125 169.808594 " fill-opacity="1" fill-rule="nonzero"></path></svg> 