<?xml version="1.0" encoding="UTF-8"?> <svg xmlns="http://www.w3.org/2000/svg" xmlns:xlink="http://www.w3.org/1999/xlink" width="360" zoomAndPan="magnify" viewBox="0 0 270 359.999987" height="480" preserveAspectRatio="xMidYMid meet" version="1.0"><defs><clipPath id="17d2fc57be"><path d="M 171.886719 201.582031 L 172.296875 201.582031 L 172.296875 201.863281 L 171.886719 201.863281 Z M 171.886719 201.582031 " clip-rule="nonzero"></path></clipPath><clipPath id="a7dbb682e0"><path d="M 172.273438 201.75 C 171.523438 202.050781 172.125 201.601562 172.125 201.601562 " clip-rule="nonzero"></path></clipPath><clipPath id="f8508b442f"><path d="M 0.886719 0.582031 L 1.296875 0.582031 L 1.296875 0.863281 L 0.886719 0.863281 Z M 0.886719 0.582031 " clip-rule="nonzero"></path></clipPath><clipPath id="491f0d2d76"><path d="M 1.273438 0.75 C 0.523438 1.050781 1.125 0.601562 1.125 0.601562 " clip-rule="nonzero"></path></clipPath><clipPath id="07b1fbd338"><rect x="0" width="2" y="0" height="1"></rect></clipPath><clipPath id="ae2b326422"><path d="M 78.0625 176.757812 L 78.472656 176.757812 L 78.472656 177 L 78.0625 177 Z M 78.0625 176.757812 " clip-rule="nonzero"></path></clipPath><clipPath id="21f184c5da"><path d="M 78.449219 176.925781 C 77.699219 177.148438 78.300781 176.773438 78.300781 176.773438 " clip-rule="nonzero"></path></clipPath><clipPath id="e7579305e4"><path d="M 0.0625 0.757812 L 0.472656 0.757812 L 0.472656 1 L 0.0625 1 Z M 0.0625 0.757812 " clip-rule="nonzero"></path></clipPath><clipPath id="bb5fdf7038"><path d="M 0.449219 0.925781 C -0.300781 1.148438 0.300781 0.773438 0.300781 0.773438 " clip-rule="nonzero"></path></clipPath><clipPath id="792bbd830e"><rect x="0" width="1" y="0" height="1"></rect></clipPath><clipPath id="d86a6d1ef1"><path d="M 0.0625 0.757812 L 0.472656 0.757812 L 0.472656 1 L 0.0625 1 Z M 0.0625 0.757812 " clip-rule="nonzero"></path></clipPath><clipPath id="ad964c3167"><path d="M 0.449219 0.925781 C -0.300781 1.148438 0.300781 0.773438 0.300781 0.773438 " clip-rule="nonzero"></path></clipPath><clipPath id="723c628439"><rect x="0" width="1" y="0" height="1"></rect></clipPath><clipPath id="73bdeb58a1"><path d="M 17.601562 80.558594 L 252.351562 80.558594 L 252.351562 316.808594 L 17.601562 316.808594 Z M 17.601562 80.558594 " clip-rule="nonzero"></path></clipPath></defs><g clip-path="url(#17d2fc57be)"><g clip-path="url(#a7dbb682e0)"><g transform="matrix(1, 0, 0, 1, 171, 201)"><g clip-path="url(#07b1fbd338)"><g clip-path="url(#f8508b442f)"><g clip-path="url(#491f0d2d76)"><rect x="-230.4" width="388.8" fill="#492c01" height="518.399981" y="-280.199997" fill-opacity="1"></rect></g></g></g></g></g></g><g clip-path="url(#ae2b326422)"><g clip-path="url(#21f184c5da)"><g transform="matrix(1, 0, 0, 1, 78, 176)"><g clip-path="url(#792bbd830e)"><g clip-path="url(#e7579305e4)"><g clip-path="url(#bb5fdf7038)"><rect x="-137.4" width="388.8" fill="#492c01" height="518.399981" y="-255.199997" fill-opacity="1"></rect></g></g></g></g><g transform="matrix(1, 0, 0, 1, 78, 176)"><g clip-path="url(#723c628439)"><g clip-path="url(#d86a6d1ef1)"><g clip-path="url(#ad964c3167)"><rect x="-137.4" width="388.8" fill="#492c01" height="518.399981" y="-255.199997" fill-opacity="1"></rect></g></g></g></g></g></g><g clip-path="url(#73bdeb58a1)"><path fill="#492c01" d="M 218.164062 114.953125 C 196.097656 92.859375 166.75 80.671875 135.476562 80.671875 C 71.046875 80.671875 18.605469 133.101562 18.582031 197.554688 C 18.582031 218.15625 23.957031 238.277344 34.1875 255.992188 L 17.601562 316.566406 L 79.574219 300.304688 C 96.648438 309.625 115.871094 314.523438 135.429688 314.535156 L 135.476562 314.535156 C 199.898438 314.535156 252.351562 262.09375 252.363281 197.648438 C 252.363281 166.414062 240.234375 137.054688 218.152344 114.953125 Z M 135.476562 294.800781 L 135.441406 294.800781 C 118.015625 294.800781 100.90625 290.109375 85.988281 281.257812 L 82.441406 279.144531 L 45.664062 288.792969 L 55.472656 252.9375 L 53.164062 249.261719 C 43.4375 233.796875 38.304688 215.914062 38.316406 197.554688 C 38.339844 143.996094 81.929688 100.40625 135.511719 100.40625 C 161.464844 100.40625 185.855469 110.53125 204.203125 128.902344 C 222.550781 147.261719 232.640625 171.675781 232.628906 197.636719 C 232.605469 251.210938 189.015625 294.800781 135.464844 294.800781 Z M 188.769531 222.039062 C 185.855469 220.582031 171.496094 213.511719 168.8125 212.542969 C 166.132812 211.566406 164.195312 211.085938 162.246094 214.003906 C 160.300781 216.929688 154.699219 223.507812 152.996094 225.457031 C 151.292969 227.40625 149.589844 227.648438 146.664062 226.179688 C 143.746094 224.722656 134.335938 221.632812 123.171875 211.683594 C 114.496094 203.9375 108.628906 194.371094 106.925781 191.445312 C 105.222656 188.515625 106.75 186.941406 108.207031 185.484375 C 109.515625 184.179688 111.125 182.066406 112.59375 180.363281 C 114.050781 178.660156 114.542969 177.4375 115.507812 175.488281 C 116.488281 173.539062 116 171.835938 115.265625 170.367188 C 114.53125 168.910156 108.699219 154.527344 106.257812 148.683594 C 103.890625 142.992188 101.476562 143.761719 99.691406 143.667969 C 97.988281 143.585938 96.042969 143.5625 94.09375 143.5625 C 92.144531 143.5625 88.984375 144.285156 86.300781 147.214844 C 83.621094 150.140625 76.085938 157.210938 76.085938 171.582031 C 76.085938 185.949219 86.546875 199.84375 88.015625 201.800781 C 89.476562 203.75 108.617188 233.25 137.914062 245.902344 C 144.878906 248.914062 150.328125 250.710938 154.570312 252.0625 C 161.570312 254.289062 167.9375 253.976562 172.964844 253.21875 C 178.578125 252.378906 190.242188 246.148438 192.679688 239.324219 C 195.117188 232.503906 195.117188 226.660156 194.382812 225.433594 C 193.648438 224.207031 191.699219 223.484375 188.78125 222.015625 Z M 188.769531 222.039062 " fill-opacity="1" fill-rule="evenodd"></path></g></svg> 