<?xml version="1.0" encoding="UTF-8"?> <svg xmlns="http://www.w3.org/2000/svg" xmlns:xlink="http://www.w3.org/1999/xlink" width="360" zoomAndPan="magnify" viewBox="0 0 270 359.999987" height="480" preserveAspectRatio="xMidYMid meet" version="1.0"><defs><clipPath id="6281ead796"><path d="M 171.886719 201.582031 L 172.296875 201.582031 L 172.296875 201.863281 L 171.886719 201.863281 Z M 171.886719 201.582031 " clip-rule="nonzero"></path></clipPath><clipPath id="9413393696"><path d="M 172.273438 201.75 C 171.523438 202.050781 172.125 201.601562 172.125 201.601562 " clip-rule="nonzero"></path></clipPath><clipPath id="246e0f5c61"><path d="M 0.886719 0.582031 L 1.296875 0.582031 L 1.296875 0.863281 L 0.886719 0.863281 Z M 0.886719 0.582031 " clip-rule="nonzero"></path></clipPath><clipPath id="5e0244cf2a"><path d="M 1.273438 0.75 C 0.523438 1.050781 1.125 0.601562 1.125 0.601562 " clip-rule="nonzero"></path></clipPath><clipPath id="daf4d3e834"><rect x="0" width="2" y="0" height="1"></rect></clipPath><clipPath id="99fa4a5765"><path d="M 78.0625 176.757812 L 78.472656 176.757812 L 78.472656 177 L 78.0625 177 Z M 78.0625 176.757812 " clip-rule="nonzero"></path></clipPath><clipPath id="5f7a85d7d1"><path d="M 78.449219 176.925781 C 77.699219 177.148438 78.300781 176.773438 78.300781 176.773438 " clip-rule="nonzero"></path></clipPath><clipPath id="dd1a3957a6"><path d="M 0.0625 0.757812 L 0.472656 0.757812 L 0.472656 1 L 0.0625 1 Z M 0.0625 0.757812 " clip-rule="nonzero"></path></clipPath><clipPath id="05121f6f55"><path d="M 0.449219 0.925781 C -0.300781 1.148438 0.300781 0.773438 0.300781 0.773438 " clip-rule="nonzero"></path></clipPath><clipPath id="ddfc73d4ab"><rect x="0" width="1" y="0" height="1"></rect></clipPath><clipPath id="82ed2eb446"><path d="M 0.0625 0.757812 L 0.472656 0.757812 L 0.472656 1 L 0.0625 1 Z M 0.0625 0.757812 " clip-rule="nonzero"></path></clipPath><clipPath id="cd1ae5ff27"><path d="M 0.449219 0.925781 C -0.300781 1.148438 0.300781 0.773438 0.300781 0.773438 " clip-rule="nonzero"></path></clipPath><clipPath id="d0be506573"><rect x="0" width="1" y="0" height="1"></rect></clipPath><clipPath id="e90be3ea4a"><path d="M 30.660156 75.921875 L 239 75.921875 L 239 284.421875 L 30.660156 284.421875 Z M 30.660156 75.921875 " clip-rule="nonzero"></path></clipPath><clipPath id="4fb021cf9b"><path d="M 30.660156 229 L 239 229 L 239 267 L 30.660156 267 Z M 30.660156 229 " clip-rule="nonzero"></path></clipPath><clipPath id="95a729be0b"><path d="M 30.660156 106 L 104 106 L 104 125 L 30.660156 125 Z M 30.660156 106 " clip-rule="nonzero"></path></clipPath></defs><g clip-path="url(#6281ead796)"><g clip-path="url(#9413393696)"><g transform="matrix(1, 0, 0, 1, 171, 201)"><g clip-path="url(#daf4d3e834)"><g clip-path="url(#246e0f5c61)"><g clip-path="url(#5e0244cf2a)"><rect x="-230.4" width="388.8" fill="#492c01" height="518.399981" y="-280.199997" fill-opacity="1"></rect></g></g></g></g></g></g><g clip-path="url(#99fa4a5765)"><g clip-path="url(#5f7a85d7d1)"><g transform="matrix(1, 0, 0, 1, 78, 176)"><g clip-path="url(#ddfc73d4ab)"><g clip-path="url(#dd1a3957a6)"><g clip-path="url(#05121f6f55)"><rect x="-137.4" width="388.8" fill="#492c01" height="518.399981" y="-255.199997" fill-opacity="1"></rect></g></g></g></g><g transform="matrix(1, 0, 0, 1, 78, 176)"><g clip-path="url(#d0be506573)"><g clip-path="url(#82ed2eb446)"><g clip-path="url(#cd1ae5ff27)"><rect x="-137.4" width="388.8" fill="#492c01" height="518.399981" y="-255.199997" fill-opacity="1"></rect></g></g></g></g></g></g><g clip-path="url(#e90be3ea4a)"><path stroke-linecap="round" transform="matrix(5.472441, 0, 0, 5.486305, 3.298939, 48.500651)" fill="none" stroke-linejoin="round" d="M 40.500147 5.500083 L 7.500275 5.500083 C 7.368935 5.500083 7.238309 5.512899 7.109824 5.538531 C 6.98134 5.564163 6.85571 5.601899 6.734363 5.652451 C 6.613017 5.702291 6.498094 5.764235 6.388882 5.836859 C 6.27967 5.910195 6.17831 5.992787 6.085516 6.086059 C 5.992721 6.178619 5.90992 6.279723 5.837112 6.388659 C 5.764304 6.498307 5.702203 6.613651 5.652237 6.734691 C 5.60227 6.855731 5.563725 6.981043 5.538742 7.109915 C 5.513045 7.238787 5.500196 7.368371 5.500196 7.500091 L 5.500196 40.499874 C 5.500196 40.631594 5.513045 40.761178 5.538742 40.89005 C 5.563725 41.018922 5.60227 41.144234 5.652237 41.265274 C 5.702203 41.387026 5.764304 41.501658 5.837112 41.611306 C 5.90992 41.720242 5.992721 41.821346 6.085516 41.913906 C 6.17831 42.007178 6.27967 42.08977 6.388882 42.163106 C 6.498094 42.23573 6.613017 42.297674 6.734363 42.347514 C 6.85571 42.398066 6.98134 42.435802 7.109824 42.461434 C 7.238309 42.487066 7.368935 42.499883 7.500275 42.499883 L 40.500147 42.499883 C 40.631487 42.499883 40.7614 42.487066 40.889884 42.461434 C 41.019083 42.435802 41.143999 42.398066 41.265345 42.347514 C 41.386692 42.297674 41.501614 42.23573 41.610826 42.163106 C 41.720038 42.08977 41.821399 42.007178 41.914193 41.913906 C 42.006988 41.821346 42.089789 41.720242 42.162597 41.611306 C 42.236119 41.501658 42.297506 41.387026 42.347472 41.265274 C 42.398152 41.144234 42.435984 41.018922 42.461681 40.89005 C 42.487378 40.761178 42.500226 40.631594 42.500226 40.499874 L 42.500226 7.500091 C 42.500226 7.368371 42.487378 7.238787 42.461681 7.109915 C 42.435984 6.981043 42.398152 6.855731 42.347472 6.734691 C 42.297506 6.613651 42.236119 6.498307 42.162597 6.388659 C 42.089789 6.279723 42.006988 6.178619 41.914193 6.086059 C 41.821399 5.992787 41.720038 5.910195 41.610826 5.836859 C 41.501614 5.764235 41.386692 5.702291 41.265345 5.652451 C 41.143999 5.601899 41.019083 5.564163 40.889884 5.538531 C 40.7614 5.512899 40.631487 5.500083 40.500147 5.500083 Z M 40.500147 5.500083 " stroke="#000000" stroke-width="1" stroke-opacity="1" stroke-miterlimit="4"></path></g><path stroke-linecap="round" transform="matrix(5.472441, 0, 0, 5.486305, 3.298939, 48.500651)" fill="none" stroke-linejoin="round" d="M 25.578789 36.142433 C 25.537388 31.35352 26.640929 27.396223 32.659724 27.644711 C 41.246073 5.762811 6.236128 6.596563 15.568402 27.513703 C 18.397921 27.338551 23.08904 29.023144 22.288152 36.660057 " stroke="#000000" stroke-width="1" stroke-opacity="1" stroke-miterlimit="4"></path><g clip-path="url(#4fb021cf9b)"><path stroke-linecap="round" transform="matrix(5.472441, 0, 0, 5.486305, 3.298939, 48.500651)" fill="none" stroke-linejoin="round" d="M 42.500226 33.478841 L 5.500196 39.30229 " stroke="#000000" stroke-width="1" stroke-opacity="1" stroke-miterlimit="4"></path></g><g clip-path="url(#95a729be0b)"><path stroke-linecap="round" transform="matrix(5.472441, 0, 0, 5.486305, 3.298939, 48.500651)" fill="none" stroke-linejoin="round" d="M 5.500196 11.040156 L 17.844723 13.329948 " stroke="#000000" stroke-width="1" stroke-opacity="1" stroke-miterlimit="4"></path></g><path stroke-linecap="round" transform="matrix(5.472441, 0, 0, 5.486305, 3.298939, 48.500651)" fill="none" stroke-linejoin="round" d="M 32.355644 15.530029 L 42.500226 17.011701 " stroke="#000000" stroke-width="1" stroke-opacity="1" stroke-miterlimit="4"></path></svg> 