<?xml version="1.0" encoding="UTF-8"?> <svg xmlns="http://www.w3.org/2000/svg" xmlns:xlink="http://www.w3.org/1999/xlink" width="360" zoomAndPan="magnify" viewBox="0 0 270 359.999987" height="480" preserveAspectRatio="xMidYMid meet" version="1.0"><defs><g></g><clipPath id="e21b1f4254"><rect x="0" width="229" y="0" height="140"></rect></clipPath></defs><g transform="matrix(1, 0, 0, 1, 15, 110)"><g clip-path="url(#e21b1f4254)"><g fill="#000000" fill-opacity="1"><g transform="translate(15.15287, 81.044537)"><g><path d="M 64.5 -66.40625 C 64.613281 -66.644531 64.789062 -66.703125 65.03125 -66.578125 C 65.28125 -66.460938 65.34375 -66.253906 65.21875 -65.953125 C 63.757812 -62.972656 62.347656 -59.992188 60.984375 -57.015625 C 59.617188 -54.046875 58.238281 -51.039062 56.84375 -48 C 55.6875 -45.394531 54.53125 -42.785156 53.375 -40.171875 C 52.226562 -37.554688 51.078125 -34.914062 49.921875 -32.25 C 50.160156 -32.1875 50.398438 -32.140625 50.640625 -32.109375 C 50.890625 -32.078125 51.132812 -32.003906 51.375 -31.890625 C 51.863281 -31.828125 52.046875 -31.550781 51.921875 -31.0625 C 51.796875 -30.570312 51.492188 -30.359375 51.015625 -30.421875 C 50.765625 -30.546875 50.503906 -30.640625 50.234375 -30.703125 C 49.960938 -30.765625 49.675781 -30.820312 49.375 -30.875 C 48.34375 -28.382812 47.3125 -25.878906 46.28125 -23.359375 C 45.25 -20.835938 44.210938 -18.304688 43.171875 -15.765625 C 42.140625 -13.023438 41.109375 -10.289062 40.078125 -7.5625 C 39.046875 -4.832031 38.046875 -2.066406 37.078125 0.734375 C 36.109375 3.460938 35.132812 6.207031 34.15625 8.96875 C 33.1875 11.738281 32.15625 14.457031 31.0625 17.125 C 30.9375 17.363281 30.753906 17.453125 30.515625 17.390625 C 30.273438 17.335938 30.1875 17.1875 30.25 16.9375 C 31.03125 13.71875 31.953125 10.53125 33.015625 7.375 C 34.078125 4.21875 35.1875 1.09375 36.34375 -2 C 38.164062 -6.914062 40.03125 -11.816406 41.9375 -16.703125 C 43.851562 -21.597656 45.847656 -26.445312 47.921875 -31.25 C 46.035156 -31.675781 44.164062 -32.054688 42.3125 -32.390625 C 40.457031 -32.722656 38.585938 -32.976562 36.703125 -33.15625 C 28.140625 -34.070312 19.640625 -33.890625 11.203125 -32.609375 C 11.140625 -32.609375 11.046875 -32.59375 10.921875 -32.5625 C 10.804688 -32.53125 10.6875 -32.515625 10.5625 -32.515625 C 9.53125 -30.085938 8.5 -27.675781 7.46875 -25.28125 C 6.4375 -22.882812 5.40625 -20.46875 4.375 -18.03125 C 3.21875 -15.363281 2.09375 -12.644531 1 -9.875 C -0.09375 -7.113281 -1.15625 -4.367188 -2.1875 -1.640625 C -3.15625 1.148438 -4.140625 3.925781 -5.140625 6.6875 C -6.148438 9.457031 -7.226562 12.175781 -8.375 14.84375 C -8.4375 15.09375 -8.585938 15.1875 -8.828125 15.125 C -9.078125 15.0625 -9.171875 14.910156 -9.109375 14.671875 C -8.316406 11.453125 -7.359375 8.273438 -6.234375 5.140625 C -5.117188 2.015625 -3.984375 -1.09375 -2.828125 -4.1875 C -1.066406 -8.925781 0.796875 -13.617188 2.765625 -18.265625 C 4.742188 -22.910156 6.769531 -27.539062 8.84375 -32.15625 C 5.007812 -31.488281 1.242188 -30.609375 -2.453125 -29.515625 C -6.160156 -28.421875 -9.804688 -27.144531 -13.390625 -25.6875 C -13.453125 -25.625 -13.515625 -25.65625 -13.578125 -25.78125 C -13.640625 -25.90625 -13.640625 -25.992188 -13.578125 -26.046875 C -11.390625 -27.140625 -9.140625 -28.125 -6.828125 -29 C -4.523438 -29.882812 -2.21875 -30.664062 0.09375 -31.34375 C 3.1875 -32.25 6.28125 -32.972656 9.375 -33.515625 C 9.988281 -34.671875 10.507812 -35.796875 10.9375 -36.890625 C 13.425781 -42.296875 15.972656 -47.640625 18.578125 -52.921875 C 21.191406 -58.203125 23.863281 -63.457031 26.59375 -68.6875 C 26.71875 -68.925781 26.898438 -68.984375 27.140625 -68.859375 C 27.390625 -68.742188 27.453125 -68.535156 27.328125 -68.234375 C 25.867188 -65.253906 24.425781 -62.289062 23 -59.34375 C 21.570312 -56.394531 20.160156 -53.40625 18.765625 -50.375 C 17.492188 -47.644531 16.21875 -44.894531 14.9375 -42.125 C 13.664062 -39.363281 12.421875 -36.617188 11.203125 -33.890625 C 13.566406 -34.253906 15.945312 -34.539062 18.34375 -34.75 C 20.75 -34.96875 23.164062 -35.078125 25.59375 -35.078125 C 33.363281 -35.191406 40.988281 -34.367188 48.46875 -32.609375 C 48.644531 -32.910156 48.804688 -33.242188 48.953125 -33.609375 C 49.109375 -33.972656 49.25 -34.304688 49.375 -34.609375 C 51.675781 -40.015625 54.085938 -45.375 56.609375 -50.6875 C 59.128906 -56.007812 61.757812 -61.25 64.5 -66.40625 Z M 64.5 -66.40625 "></path></g></g></g><g fill="#000000" fill-opacity="1"><g transform="translate(74.085599, 81.044537)"><g><path d="M 30.515625 -16.3125 C 30.703125 -16.425781 30.851562 -16.390625 30.96875 -16.203125 C 31.09375 -16.023438 31.0625 -15.878906 30.875 -15.765625 C 30.269531 -15.515625 29.691406 -15.207031 29.140625 -14.84375 C 28.597656 -14.476562 28.054688 -14.144531 27.515625 -13.84375 C 23.804688 -11.65625 20.25 -9.253906 16.84375 -6.640625 C 13.445312 -4.035156 10.234375 -1.210938 7.203125 1.828125 C 6.585938 3.890625 5.992188 5.953125 5.421875 8.015625 C 4.847656 10.078125 4.253906 12.140625 3.640625 14.203125 C 2.796875 17.179688 1.867188 20.144531 0.859375 23.09375 C -0.140625 26.039062 -1.242188 28.972656 -2.453125 31.890625 C -3.609375 34.679688 -4.804688 37.472656 -6.046875 40.265625 C -7.296875 43.054688 -8.863281 45.664062 -10.75 48.09375 C -11.539062 49.1875 -12.4375 50.203125 -13.4375 51.140625 C -14.4375 52.085938 -15.632812 52.679688 -17.03125 52.921875 C -18.363281 53.109375 -19.457031 52.867188 -20.3125 52.203125 C -20.738281 51.890625 -21.054688 51.472656 -21.265625 50.953125 C -21.484375 50.441406 -21.648438 49.914062 -21.765625 49.375 C -21.953125 47.976562 -21.878906 46.582031 -21.546875 45.1875 C -21.210938 43.789062 -20.863281 42.453125 -20.5 41.171875 C -20.007812 39.597656 -19.445312 38.082031 -18.8125 36.625 C -18.175781 35.164062 -17.492188 33.738281 -16.765625 32.34375 C -14.085938 27.175781 -11.0625 22.238281 -7.6875 17.53125 C -4.320312 12.820312 -0.664062 8.34375 3.28125 4.09375 C 3.707031 3.613281 4.128906 3.160156 4.546875 2.734375 C 4.972656 2.304688 5.398438 1.878906 5.828125 1.453125 C 6.679688 -1.460938 7.609375 -4.359375 8.609375 -7.234375 C 9.609375 -10.117188 10.71875 -12.929688 11.9375 -15.671875 C 11.570312 -15.242188 11.207031 -14.847656 10.84375 -14.484375 C 10.476562 -14.117188 10.113281 -13.753906 9.75 -13.390625 C 9.144531 -12.785156 8.488281 -12.175781 7.78125 -11.5625 C 7.082031 -10.957031 6.398438 -10.382812 5.734375 -9.84375 C 5.066406 -9.351562 4.382812 -8.863281 3.6875 -8.375 C 2.988281 -7.894531 2.273438 -7.472656 1.546875 -7.109375 C 0.878906 -6.742188 0.078125 -6.46875 -0.859375 -6.28125 C -1.804688 -6.101562 -2.671875 -6.148438 -3.453125 -6.421875 C -4.242188 -6.691406 -4.734375 -7.34375 -4.921875 -8.375 C -5.097656 -9.226562 -4.988281 -10.109375 -4.59375 -11.015625 C -4.207031 -11.929688 -3.832031 -12.753906 -3.46875 -13.484375 C -3.101562 -14.273438 -2.675781 -15.035156 -2.1875 -15.765625 C -1.695312 -16.492188 -1.179688 -17.222656 -0.640625 -17.953125 C 0.328125 -19.398438 1.484375 -20.828125 2.828125 -22.234375 C 3.128906 -22.535156 3.445312 -22.851562 3.78125 -23.1875 C 4.113281 -23.519531 4.492188 -23.804688 4.921875 -24.046875 C 5.222656 -24.347656 5.570312 -24.585938 5.96875 -24.765625 C 6.363281 -24.953125 6.773438 -25.140625 7.203125 -25.328125 C 7.441406 -25.328125 7.5 -25.265625 7.375 -25.140625 C 7.007812 -24.835938 6.660156 -24.503906 6.328125 -24.140625 C 5.992188 -23.773438 5.644531 -23.441406 5.28125 -23.140625 C 4.613281 -22.648438 3.976562 -22.039062 3.375 -21.3125 C 2.757812 -20.644531 2.148438 -19.914062 1.546875 -19.125 C 0.941406 -18.34375 0.363281 -17.554688 -0.1875 -16.765625 C -0.601562 -16.148438 -1.007812 -15.507812 -1.40625 -14.84375 C -1.800781 -14.175781 -2.148438 -13.507812 -2.453125 -12.84375 C -2.878906 -11.988281 -3.21875 -11.195312 -3.46875 -10.46875 C -3.582031 -10.101562 -3.6875 -9.707031 -3.78125 -9.28125 C -3.875 -8.863281 -3.796875 -8.472656 -3.546875 -8.109375 C -3.242188 -7.617188 -2.789062 -7.390625 -2.1875 -7.421875 C -1.582031 -7.453125 -1.035156 -7.5 -0.546875 -7.5625 C 0.117188 -7.800781 0.753906 -8.101562 1.359375 -8.46875 C 1.972656 -8.832031 2.550781 -9.226562 3.09375 -9.65625 C 5.769531 -11.476562 8.203125 -13.570312 10.390625 -15.9375 C 12.578125 -18.3125 14.519531 -20.863281 16.21875 -23.59375 C 16.457031 -23.957031 16.773438 -24.03125 17.171875 -23.8125 C 17.566406 -23.601562 17.644531 -23.285156 17.40625 -22.859375 C 17.039062 -22.253906 16.675781 -21.660156 16.3125 -21.078125 C 15.945312 -20.503906 15.609375 -19.914062 15.296875 -19.3125 C 13.722656 -16.332031 12.34375 -13.265625 11.15625 -10.109375 C 9.96875 -6.953125 8.890625 -3.765625 7.921875 -0.546875 C 9.203125 -1.816406 10.539062 -3.046875 11.9375 -4.234375 C 13.332031 -5.421875 14.726562 -6.5625 16.125 -7.65625 C 17.28125 -8.5 18.445312 -9.332031 19.625 -10.15625 C 20.8125 -10.976562 21.984375 -11.785156 23.140625 -12.578125 C 24.347656 -13.304688 25.570312 -13.957031 26.8125 -14.53125 C 28.0625 -15.101562 29.296875 -15.695312 30.515625 -16.3125 Z M -1.1875 24.59375 C -0.15625 21.863281 0.769531 19.113281 1.59375 16.34375 C 2.414062 13.582031 3.222656 10.804688 4.015625 8.015625 C 4.191406 7.347656 4.367188 6.664062 4.546875 5.96875 C 4.734375 5.269531 4.945312 4.585938 5.1875 3.921875 C 4.582031 4.460938 4.003906 5.035156 3.453125 5.640625 C 2.910156 6.253906 2.367188 6.863281 1.828125 7.46875 C -1.878906 11.601562 -5.34375 16.019531 -8.5625 20.71875 C -11.78125 25.425781 -14.546875 30.300781 -16.859375 35.34375 C -17.460938 36.738281 -18.050781 38.179688 -18.625 39.671875 C -19.207031 41.160156 -19.648438 42.691406 -19.953125 44.265625 C -20.066406 44.878906 -20.1875 45.535156 -20.3125 46.234375 C -20.4375 46.929688 -20.5 47.613281 -20.5 48.28125 C -20.5 48.769531 -20.4375 49.285156 -20.3125 49.828125 C -20.1875 50.367188 -19.914062 50.820312 -19.5 51.1875 C -19.007812 51.550781 -18.429688 51.703125 -17.765625 51.640625 C -17.097656 51.585938 -16.519531 51.4375 -16.03125 51.1875 C -15.363281 50.882812 -14.785156 50.519531 -14.296875 50.09375 C -13.816406 49.675781 -13.363281 49.222656 -12.9375 48.734375 C -11.96875 47.640625 -11.101562 46.46875 -10.34375 45.21875 C -9.582031 43.976562 -8.867188 42.722656 -8.203125 41.453125 C -7.535156 40.109375 -6.925781 38.769531 -6.375 37.4375 C -5.832031 36.101562 -5.253906 34.769531 -4.640625 33.4375 C -3.972656 31.976562 -3.347656 30.519531 -2.765625 29.0625 C -2.191406 27.601562 -1.664062 26.113281 -1.1875 24.59375 Z M -1.1875 24.59375 "></path></g></g></g><g fill="#000000" fill-opacity="1"><g transform="translate(104.235032, 81.044537)"><g><path d="M 20.125 -21.953125 C 20.488281 -21.347656 20.425781 -20.707031 19.9375 -20.03125 C 19.457031 -19.363281 19.066406 -18.820312 18.765625 -18.40625 C 18.335938 -17.789062 17.878906 -17.222656 17.390625 -16.703125 C 16.910156 -16.191406 16.394531 -15.695312 15.84375 -15.21875 C 14.8125 -14.363281 13.6875 -13.554688 12.46875 -12.796875 C 11.257812 -12.035156 10.019531 -11.472656 8.75 -11.109375 C 7.769531 -10.867188 6.703125 -10.804688 5.546875 -10.921875 C 4.398438 -11.046875 3.675781 -11.6875 3.375 -12.84375 C 3.3125 -13.082031 3.398438 -13.25 3.640625 -13.34375 C 3.890625 -13.4375 4.039062 -13.390625 4.09375 -13.203125 C 4.457031 -12.359375 5.066406 -11.90625 5.921875 -11.84375 C 6.773438 -11.78125 7.640625 -11.914062 8.515625 -12.25 C 9.398438 -12.582031 10.113281 -12.875 10.65625 -13.125 C 13.332031 -14.394531 15.640625 -16.15625 17.578125 -18.40625 C 17.765625 -18.707031 17.960938 -18.992188 18.171875 -19.265625 C 18.378906 -19.535156 18.578125 -19.796875 18.765625 -20.046875 C 18.890625 -20.160156 19.007812 -20.320312 19.125 -20.53125 C 19.25 -20.75 19.3125 -20.953125 19.3125 -21.140625 C 19.3125 -21.503906 19.066406 -21.6875 18.578125 -21.6875 C 17.972656 -21.6875 17.335938 -21.578125 16.671875 -21.359375 C 16.003906 -21.148438 15.363281 -20.953125 14.75 -20.765625 C 13.539062 -20.335938 12.359375 -19.820312 11.203125 -19.21875 C 10.046875 -18.613281 8.953125 -17.945312 7.921875 -17.21875 C 5.679688 -15.632812 3.675781 -13.796875 1.90625 -11.703125 C 0.144531 -9.609375 -1.429688 -7.378906 -2.828125 -5.015625 C -3.191406 -4.398438 -3.539062 -3.789062 -3.875 -3.1875 C -4.207031 -2.582031 -4.523438 -1.972656 -4.828125 -1.359375 C -5.191406 -0.578125 -5.539062 0.238281 -5.875 1.09375 C -6.207031 1.945312 -6.554688 2.796875 -6.921875 3.640625 C -8.441406 7.523438 -9.898438 11.488281 -11.296875 15.53125 C -12.691406 19.570312 -14.023438 23.625 -15.296875 27.6875 C -15.359375 27.9375 -15.554688 28.03125 -15.890625 27.96875 C -16.222656 27.90625 -16.363281 27.722656 -16.3125 27.421875 C -16.1875 27.054688 -16.0625 26.691406 -15.9375 26.328125 C -15.820312 25.960938 -15.734375 25.628906 -15.671875 25.328125 C -14.640625 22.171875 -13.632812 19.023438 -12.65625 15.890625 C -11.6875 12.765625 -10.625 9.65625 -9.46875 6.5625 C -8.988281 5.34375 -8.472656 4.09375 -7.921875 2.8125 C -7.378906 1.539062 -6.800781 0.300781 -6.1875 -0.90625 C -5.519531 -2.488281 -4.820312 -4.035156 -4.09375 -5.546875 C -3.363281 -7.066406 -2.632812 -8.585938 -1.90625 -10.109375 C 0.03125 -13.878906 2.09375 -17.582031 4.28125 -21.21875 C 6.46875 -24.863281 8.925781 -28.296875 11.65625 -31.515625 C 11.78125 -31.640625 11.914062 -31.640625 12.0625 -31.515625 C 12.21875 -31.398438 12.234375 -31.28125 12.109375 -31.15625 C 10.710938 -29.269531 9.347656 -27.335938 8.015625 -25.359375 C 6.679688 -23.390625 5.40625 -21.375 4.1875 -19.3125 C 2.363281 -16.15625 0.632812 -12.96875 -1 -9.75 C 0.820312 -12.238281 2.867188 -14.484375 5.140625 -16.484375 C 7.421875 -18.492188 10.050781 -20.070312 13.03125 -21.21875 C 13.695312 -21.53125 14.363281 -21.773438 15.03125 -21.953125 C 15.695312 -22.140625 16.363281 -22.289062 17.03125 -22.40625 C 17.519531 -22.53125 18.082031 -22.625 18.71875 -22.6875 C 19.351562 -22.75 19.820312 -22.503906 20.125 -21.953125 Z M 20.125 -21.953125 "></path></g></g></g><g fill="#000000" fill-opacity="1"><g transform="translate(132.836106, 81.044537)"><g><path d="M 11.015625 -22.859375 C 11.265625 -23.222656 11.585938 -23.300781 11.984375 -23.09375 C 12.378906 -22.882812 12.453125 -22.597656 12.203125 -22.234375 C 11.722656 -21.503906 11.253906 -20.773438 10.796875 -20.046875 C 10.335938 -19.316406 9.894531 -18.554688 9.46875 -17.765625 C 7.957031 -14.785156 6.578125 -11.75 5.328125 -8.65625 C 4.085938 -5.5625 2.765625 -2.492188 1.359375 0.546875 C 1.054688 1.273438 0.738281 2.003906 0.40625 2.734375 C 0.0703125 3.460938 -0.273438 4.191406 -0.640625 4.921875 C 0.390625 4.984375 1.4375 5.148438 2.5 5.421875 C 3.5625 5.691406 4.582031 6.007812 5.5625 6.375 C 5.675781 6.4375 5.734375 6.554688 5.734375 6.734375 C 5.734375 6.921875 5.644531 7.015625 5.46875 7.015625 C 4.800781 6.890625 4.128906 6.8125 3.453125 6.78125 C 2.785156 6.75 2.117188 6.707031 1.453125 6.65625 C 1.023438 6.59375 0.582031 6.546875 0.125 6.515625 C -0.320312 6.484375 -0.789062 6.46875 -1.28125 6.46875 C -1.882812 7.738281 -2.503906 9.007812 -3.140625 10.28125 C -3.773438 11.5625 -4.425781 12.84375 -5.09375 14.125 C -7.53125 18.738281 -10.25 23.226562 -13.25 27.59375 C -16.257812 31.96875 -19.769531 35.828125 -23.78125 39.171875 C -25.65625 40.804688 -27.6875 42.242188 -29.875 43.484375 C -32.0625 44.734375 -34.367188 45.722656 -36.796875 46.453125 C -38.015625 46.816406 -39.304688 47.0625 -40.671875 47.1875 C -42.035156 47.3125 -43.328125 47.128906 -44.546875 46.640625 C -45.941406 46.085938 -46.910156 45.160156 -47.453125 43.859375 C -48.003906 42.554688 -48.28125 41.175781 -48.28125 39.71875 C -48.15625 36.5 -47.332031 33.460938 -45.8125 30.609375 C -44.300781 27.753906 -42.539062 25.144531 -40.53125 22.78125 C -36.894531 18.40625 -32.492188 14.664062 -27.328125 11.5625 C -24.835938 10.050781 -22.253906 8.765625 -19.578125 7.703125 C -16.910156 6.640625 -14.179688 5.863281 -11.390625 5.375 C -9.804688 5.070312 -8.222656 4.859375 -6.640625 4.734375 C -5.066406 4.617188 -3.519531 4.617188 -2 4.734375 C -1.269531 3.160156 -0.539062 1.554688 0.1875 -0.078125 C 0.914062 -1.722656 1.613281 -3.394531 2.28125 -5.09375 C 3.070312 -6.863281 3.828125 -8.628906 4.546875 -10.390625 C 5.273438 -12.148438 6.066406 -13.878906 6.921875 -15.578125 C 6.617188 -15.273438 6.300781 -14.984375 5.96875 -14.703125 C 5.632812 -14.429688 5.316406 -14.144531 5.015625 -13.84375 C 4.398438 -13.363281 3.804688 -12.878906 3.234375 -12.390625 C 2.660156 -11.898438 2.035156 -11.414062 1.359375 -10.9375 C 0.753906 -10.507812 0.0859375 -10.066406 -0.640625 -9.609375 C -1.367188 -9.148438 -2.097656 -8.863281 -2.828125 -8.75 C -3.429688 -8.6875 -3.988281 -8.835938 -4.5 -9.203125 C -5.019531 -9.566406 -5.3125 -10.050781 -5.375 -10.65625 C -5.4375 -11.320312 -5.285156 -11.972656 -4.921875 -12.609375 C -4.554688 -13.253906 -4.191406 -13.847656 -3.828125 -14.390625 C -2.796875 -15.722656 -1.6875 -16.96875 -0.5 -18.125 C 0.6875 -19.28125 1.976562 -20.253906 3.375 -21.046875 C 3.976562 -21.347656 4.597656 -21.648438 5.234375 -21.953125 C 5.867188 -22.253906 6.523438 -22.4375 7.203125 -22.5 C 7.742188 -22.5625 8.269531 -22.53125 8.78125 -22.40625 C 9.300781 -22.289062 9.835938 -22.140625 10.390625 -21.953125 C 10.503906 -22.140625 10.625 -22.304688 10.75 -22.453125 C 10.875 -22.609375 10.960938 -22.742188 11.015625 -22.859375 Z M -4.015625 8.84375 C -3.765625 8.414062 -3.546875 8.003906 -3.359375 7.609375 C -3.179688 7.210938 -3.003906 6.800781 -2.828125 6.375 C -3.429688 6.375 -4.050781 6.375 -4.6875 6.375 C -5.320312 6.375 -5.976562 6.40625 -6.65625 6.46875 C -9.320312 6.644531 -11.992188 7.097656 -14.671875 7.828125 C -17.335938 8.554688 -19.929688 9.53125 -22.453125 10.75 C -24.972656 11.96875 -27.390625 13.363281 -29.703125 14.9375 C -32.003906 16.519531 -34.1875 18.3125 -36.25 20.3125 C -38.320312 22.3125 -40.175781 24.46875 -41.8125 26.78125 C -42.71875 28.050781 -43.519531 29.367188 -44.21875 30.734375 C -44.925781 32.109375 -45.519531 33.523438 -46 34.984375 C -46.425781 36.441406 -46.703125 37.957031 -46.828125 39.53125 C -46.828125 40.257812 -46.765625 41.003906 -46.640625 41.765625 C -46.515625 42.523438 -46.238281 43.238281 -45.8125 43.90625 C -45.03125 45 -43.941406 45.601562 -42.546875 45.71875 C -41.148438 45.84375 -39.875 45.785156 -38.71875 45.546875 C -36.40625 45.003906 -34.15625 44.15625 -31.96875 43 C -29.84375 41.90625 -27.820312 40.597656 -25.90625 39.078125 C -24 37.554688 -22.226562 35.945312 -20.59375 34.25 C -17.0625 30.601562 -13.972656 26.59375 -11.328125 22.21875 C -8.691406 17.851562 -6.253906 13.394531 -4.015625 8.84375 Z M -0.453125 -11.296875 C 3.796875 -14.023438 7.316406 -17.425781 10.109375 -21.5 C 9.566406 -21.625 9.003906 -21.695312 8.421875 -21.71875 C 7.847656 -21.75 7.285156 -21.675781 6.734375 -21.5 C 6.066406 -21.3125 5.429688 -21.035156 4.828125 -20.671875 C 4.222656 -20.304688 3.613281 -19.914062 3 -19.5 C 1.851562 -18.707031 0.78125 -17.804688 -0.21875 -16.796875 C -1.226562 -15.796875 -2.15625 -14.691406 -3 -13.484375 C -3.25 -13.117188 -3.554688 -12.613281 -3.921875 -11.96875 C -4.285156 -11.332031 -4.316406 -10.773438 -4.015625 -10.296875 C -3.648438 -9.742188 -3.054688 -9.710938 -2.234375 -10.203125 C -1.410156 -10.691406 -0.816406 -11.054688 -0.453125 -11.296875 Z M -0.453125 -11.296875 "></path></g></g></g><g fill="#000000" fill-opacity="1"><g transform="translate(150.688965, 81.044537)"><g><path d="M 39.171875 -19.671875 C 39.410156 -19.859375 39.601562 -19.859375 39.75 -19.671875 C 39.90625 -19.492188 39.925781 -19.28125 39.8125 -19.03125 C 37.988281 -16.789062 35.769531 -14.910156 33.15625 -13.390625 C 32.125 -12.785156 31.015625 -12.238281 29.828125 -11.75 C 28.648438 -11.257812 27.453125 -10.863281 26.234375 -10.5625 C 25.265625 -10.320312 24.289062 -10.15625 23.3125 -10.0625 C 22.34375 -9.96875 21.34375 -10.046875 20.3125 -10.296875 C 19.519531 -10.535156 18.789062 -10.894531 18.125 -11.375 C 17.457031 -11.863281 17.003906 -12.503906 16.765625 -13.296875 C 16.515625 -13.898438 16.484375 -14.539062 16.671875 -15.21875 C 16.066406 -14.726562 15.472656 -14.253906 14.890625 -13.796875 C 14.316406 -13.347656 13.695312 -12.910156 13.03125 -12.484375 C 10.957031 -11.203125 8.707031 -10.289062 6.28125 -9.75 C 5.3125 -9.5 4.25 -9.390625 3.09375 -9.421875 C 1.9375 -9.453125 0.90625 -9.773438 0 -10.390625 C -1.15625 -11.234375 -1.734375 -12.304688 -1.734375 -13.609375 C -1.734375 -14.921875 -1.457031 -16.15625 -0.90625 -17.3125 C -0.601562 -17.976562 -0.242188 -18.582031 0.171875 -19.125 C 0.597656 -19.675781 1.023438 -20.222656 1.453125 -20.765625 C 1.878906 -21.253906 2.363281 -21.710938 2.90625 -22.140625 C 3.457031 -22.566406 4.035156 -22.835938 4.640625 -22.953125 C 4.703125 -23.015625 4.75 -23.015625 4.78125 -22.953125 C 4.8125 -22.890625 4.796875 -22.832031 4.734375 -22.78125 C 4.304688 -22.226562 3.847656 -21.738281 3.359375 -21.3125 C 2.878906 -20.882812 2.425781 -20.398438 2 -19.859375 C 1.570312 -19.304688 1.175781 -18.695312 0.8125 -18.03125 C 0.445312 -17.363281 0.113281 -16.695312 -0.1875 -16.03125 C -0.425781 -15.425781 -0.5625 -14.800781 -0.59375 -14.15625 C -0.625 -13.519531 -0.488281 -12.898438 -0.1875 -12.296875 C 0.300781 -11.503906 1.0625 -11.019531 2.09375 -10.84375 C 3.125 -10.59375 4.15625 -10.585938 5.1875 -10.828125 C 6.21875 -11.078125 7.222656 -11.351562 8.203125 -11.65625 C 10.328125 -12.320312 12.238281 -13.351562 13.9375 -14.75 C 15.632812 -16.15625 17.332031 -17.523438 19.03125 -18.859375 C 19.34375 -19.160156 19.664062 -19.144531 20 -18.8125 C 20.332031 -18.476562 20.316406 -18.160156 19.953125 -17.859375 C 19.335938 -17.242188 18.757812 -16.46875 18.21875 -15.53125 C 17.675781 -14.59375 17.796875 -13.695312 18.578125 -12.84375 C 19.367188 -11.988281 20.3125 -11.515625 21.40625 -11.421875 C 22.5 -11.335938 23.632812 -11.429688 24.8125 -11.703125 C 26 -11.972656 27.050781 -12.234375 27.96875 -12.484375 C 30.09375 -13.210938 32.078125 -14.210938 33.921875 -15.484375 C 35.773438 -16.765625 37.523438 -18.160156 39.171875 -19.671875 Z M 39.171875 -19.671875 "></path></g></g></g><g fill="#000000" fill-opacity="1"><g transform="translate(187.852098, 81.044537)"><g><path d="M 33.515625 -15.765625 C 33.765625 -15.878906 33.976562 -15.828125 34.15625 -15.609375 C 34.34375 -15.398438 34.3125 -15.207031 34.0625 -15.03125 C 31.457031 -12.84375 28.578125 -11.113281 25.421875 -9.84375 C 24.078125 -9.289062 22.660156 -8.847656 21.171875 -8.515625 C 19.691406 -8.179688 18.222656 -8.046875 16.765625 -8.109375 C 15.609375 -8.171875 14.5 -8.488281 13.4375 -9.0625 C 12.375 -9.632812 11.691406 -10.53125 11.390625 -11.75 C 11.140625 -12.71875 11.148438 -13.6875 11.421875 -14.65625 C 11.703125 -15.632812 12.054688 -16.550781 12.484375 -17.40625 C 11.691406 -17.09375 10.835938 -16.816406 9.921875 -16.578125 C 9.015625 -16.335938 8.132812 -16.125 7.28125 -15.9375 C 6.132812 -15.695312 4.984375 -15.425781 3.828125 -15.125 C 2.671875 -14.820312 1.578125 -14.363281 0.546875 -13.75 C 0.304688 -13.632812 0.0820312 -13.484375 -0.125 -13.296875 C -0.34375 -13.117188 -0.570312 -12.9375 -0.8125 -12.75 C -1.238281 -12.144531 -1.632812 -11.492188 -2 -10.796875 C -2.363281 -10.097656 -2.726562 -9.414062 -3.09375 -8.75 C -3.28125 -8.5 -3.570312 -8.40625 -3.96875 -8.46875 C -4.363281 -8.53125 -4.53125 -8.742188 -4.46875 -9.109375 C -4.34375 -10.203125 -4.019531 -11.15625 -3.5 -11.96875 C -2.988281 -12.789062 -2.335938 -13.507812 -1.546875 -14.125 C -1.242188 -14.539062 -0.953125 -14.960938 -0.671875 -15.390625 C -0.398438 -15.816406 -0.144531 -16.242188 0.09375 -16.671875 C 0.457031 -17.273438 0.820312 -17.878906 1.1875 -18.484375 C 1.550781 -19.097656 1.945312 -19.707031 2.375 -20.3125 C 2.550781 -20.613281 2.726562 -20.914062 2.90625 -21.21875 C 3.09375 -21.53125 3.28125 -21.835938 3.46875 -22.140625 C 3.644531 -22.378906 3.804688 -22.632812 3.953125 -22.90625 C 4.109375 -23.175781 4.3125 -23.40625 4.5625 -23.59375 C 4.675781 -23.71875 4.804688 -23.75 4.953125 -23.6875 C 5.109375 -23.625 5.15625 -23.5 5.09375 -23.3125 C 5.039062 -23.007812 4.9375 -22.707031 4.78125 -22.40625 C 4.632812 -22.101562 4.46875 -21.800781 4.28125 -21.5 C 4.101562 -21.195312 3.9375 -20.878906 3.78125 -20.546875 C 3.625 -20.210938 3.457031 -19.890625 3.28125 -19.578125 C 2.914062 -18.972656 2.550781 -18.378906 2.1875 -17.796875 C 1.820312 -17.222656 1.457031 -16.632812 1.09375 -16.03125 C 0.96875 -15.789062 0.875 -15.640625 0.8125 -15.578125 C 1.488281 -15.878906 2.191406 -16.148438 2.921875 -16.390625 C 3.648438 -16.640625 4.316406 -16.820312 4.921875 -16.9375 C 6.191406 -17.25 7.492188 -17.539062 8.828125 -17.8125 C 10.171875 -18.082031 11.421875 -18.488281 12.578125 -19.03125 C 12.816406 -19.15625 13.039062 -19.273438 13.25 -19.390625 C 13.46875 -19.515625 13.695312 -19.640625 13.9375 -19.765625 C 14.113281 -20.128906 14.304688 -20.476562 14.515625 -20.8125 C 14.734375 -21.144531 14.9375 -21.460938 15.125 -21.765625 C 15.488281 -22.316406 15.910156 -22.800781 16.390625 -23.21875 C 16.878906 -23.644531 17.425781 -23.984375 18.03125 -24.234375 C 18.332031 -24.347656 18.570312 -24.269531 18.75 -24 C 18.9375 -23.726562 18.972656 -23.441406 18.859375 -23.140625 C 17.890625 -21.316406 16.582031 -19.859375 14.9375 -18.765625 C 14.757812 -18.523438 14.59375 -18.265625 14.4375 -17.984375 C 14.28125 -17.710938 14.113281 -17.425781 13.9375 -17.125 C 13.507812 -16.269531 13.113281 -15.296875 12.75 -14.203125 C 12.382812 -13.117188 12.507812 -12.085938 13.125 -11.109375 C 13.726562 -10.203125 14.617188 -9.6875 15.796875 -9.5625 C 16.984375 -9.4375 18.0625 -9.4375 19.03125 -9.5625 C 21.707031 -9.863281 24.226562 -10.632812 26.59375 -11.875 C 28.96875 -13.125 31.273438 -14.421875 33.515625 -15.765625 Z M 33.515625 -15.765625 "></path></g></g></g></g></g></svg> 