<?xml version="1.0" encoding="UTF-8"?> <svg xmlns="http://www.w3.org/2000/svg" xmlns:xlink="http://www.w3.org/1999/xlink" width="360" zoomAndPan="magnify" viewBox="0 0 270 359.999987" height="480" preserveAspectRatio="xMidYMid meet" version="1.0"><defs><g></g><clipPath id="6aea1170ec"><rect x="0" width="247" y="0" height="82"></rect></clipPath></defs><g transform="matrix(1, 0, 0, 1, 12, 139)"><g clip-path="url(#6aea1170ec)"><g fill="#5f0000" fill-opacity="1"><g transform="translate(0.547856, 60.546111)"><g><path d="M 117.21875 -43.59375 C 117.21875 -41.3125 115.664062 -38.945312 112.5625 -36.5 C 110.46875 -34.851562 107.894531 -33.332031 104.84375 -31.9375 C 101.007812 -30.15625 96.585938 -28.820312 91.578125 -27.9375 C 89.609375 -24.632812 87.625 -21.316406 85.625 -17.984375 C 83.238281 -14.148438 80.96875 -11.007812 78.8125 -8.5625 C 76.082031 -5.457031 73.148438 -3.015625 70.015625 -1.234375 C 69.378906 -0.890625 68.867188 -0.671875 68.484375 -0.578125 L 68.484375 -0.53125 C 69.503906 -0.457031 70.867188 -0.421875 72.578125 -0.421875 C 74.546875 -0.421875 76.179688 -0.785156 77.484375 -1.515625 C 77.890625 -1.742188 79.222656 -2.742188 81.484375 -4.515625 L 81.578125 -4.46875 L 81.625 -4.375 C 81.5625 -4.21875 81.453125 -4.0625 81.296875 -3.90625 C 78.304688 -0.726562 75.035156 0.859375 71.484375 0.859375 C 71.003906 0.859375 70.3125 0.753906 69.40625 0.546875 C 68.507812 0.335938 67.835938 0.234375 67.390625 0.234375 C 67.203125 0.234375 66.675781 0.304688 65.8125 0.453125 C 64.957031 0.597656 64.3125 0.671875 63.875 0.671875 C 62.507812 0.671875 61.828125 0.335938 61.828125 -0.328125 C 61.828125 -0.710938 62.378906 -0.90625 63.484375 -0.90625 C 63.929688 -0.90625 64.609375 -0.863281 65.515625 -0.78125 C 66.421875 -0.707031 67.09375 -0.671875 67.53125 -0.671875 C 70.675781 -2.003906 73.976562 -5.066406 77.4375 -9.859375 C 78.476562 -11.316406 80.875 -15.171875 84.625 -21.421875 C 85.601562 -23.035156 86.890625 -25.050781 88.484375 -27.46875 C 85.617188 -27.113281 83.316406 -26.9375 81.578125 -26.9375 C 78.210938 -23.445312 74.832031 -20.003906 71.4375 -16.609375 C 75.976562 -15.429688 78.421875 -14.082031 78.765625 -12.5625 L 78.765625 -12.515625 C 77.878906 -13.535156 75.195312 -14.613281 70.71875 -15.75 C 64 -9.019531 57.53125 -4.101562 51.3125 -1 C 44.101562 2.644531 36.21875 4.46875 27.65625 4.46875 C 25.8125 4.46875 23.984375 4.328125 22.171875 4.046875 C 22.304688 9.347656 25.035156 13.425781 30.359375 16.28125 C 34.648438 18.53125 39.710938 19.65625 45.546875 19.65625 C 51.546875 19.65625 56.75 18.546875 61.15625 16.328125 C 65.695312 14.003906 67.96875 11.382812 67.96875 8.46875 C 67.96875 7.195312 67.617188 6.164062 66.921875 5.375 C 66.785156 5.28125 66.640625 5.109375 66.484375 4.859375 C 66.515625 4.828125 66.5625 4.8125 66.625 4.8125 C 67.195312 4.8125 67.753906 5.3125 68.296875 6.3125 C 68.835938 7.3125 69.109375 8.144531 69.109375 8.8125 C 69.109375 11.820312 66.679688 14.484375 61.828125 16.796875 C 57.097656 19.054688 51.671875 20.1875 45.546875 20.1875 C 39.265625 20.1875 34.015625 19.054688 29.796875 16.796875 C 24.429688 13.941406 21.734375 9.660156 21.703125 3.953125 C 17.066406 3.160156 13.367188 1.554688 10.609375 -0.859375 C 7.410156 -3.617188 5.8125 -7.203125 5.8125 -11.609375 C 5.8125 -14.691406 6.742188 -17.660156 8.609375 -20.515625 C 10.296875 -23.085938 12.550781 -25.289062 15.375 -27.125 C 21.53125 -31.15625 28.476562 -33.171875 36.21875 -33.171875 C 41.039062 -33.171875 45.304688 -32.394531 49.015625 -30.84375 C 53.972656 -28.75 56.453125 -25.640625 56.453125 -21.515625 C 56.453125 -20.429688 56.273438 -19.335938 55.921875 -18.234375 C 56.078125 -18.234375 56.378906 -18.25 56.828125 -18.28125 C 57.203125 -18.28125 57.519531 -18.28125 57.78125 -18.28125 C 61.9375 -18.28125 65.710938 -17.929688 69.109375 -17.234375 C 70.535156 -18.566406 73.816406 -21.800781 78.953125 -26.9375 C 73.816406 -27.0625 69.359375 -27.898438 65.578125 -29.453125 C 60.285156 -31.585938 57.640625 -34.78125 57.640625 -39.03125 C 57.640625 -41.914062 58.90625 -44.226562 61.4375 -45.96875 C 63.695312 -47.5 66.332031 -48.265625 69.34375 -48.265625 C 72.738281 -48.265625 75.328125 -47.453125 77.109375 -45.828125 C 78.242188 -44.785156 78.8125 -43.816406 78.8125 -42.921875 C 78.8125 -42.578125 78.75 -42.40625 78.625 -42.40625 C 78.34375 -44.21875 77.1875 -45.582031 75.15625 -46.5 C 73.5 -47.257812 71.640625 -47.640625 69.578125 -47.640625 C 66.722656 -47.640625 64.265625 -46.910156 62.203125 -45.453125 C 59.921875 -43.835938 58.78125 -41.648438 58.78125 -38.890625 C 58.78125 -34.796875 61.347656 -31.734375 66.484375 -29.703125 C 70.109375 -28.273438 74.394531 -27.492188 79.34375 -27.359375 C 92.1875 -40.785156 102.988281 -47.5 111.75 -47.5 C 115.394531 -47.5 117.21875 -46.195312 117.21875 -43.59375 Z M 116.65625 -43.59375 C 116.65625 -44.769531 116.128906 -45.660156 115.078125 -46.265625 C 114.253906 -46.765625 113.207031 -47.015625 111.9375 -47.015625 C 106.675781 -47.015625 101.109375 -44.765625 95.234375 -40.265625 C 91.867188 -37.691406 87.410156 -33.40625 81.859375 -27.40625 C 83.984375 -27.476562 86.269531 -27.703125 88.71875 -28.078125 C 91.726562 -32.523438 94.660156 -36.222656 97.515625 -39.171875 C 101.929688 -43.703125 105.753906 -45.96875 108.984375 -45.96875 C 110.378906 -45.96875 110.984375 -45.78125 110.796875 -45.40625 L 110.609375 -45.265625 L 109.1875 -45.546875 C 106.738281 -45.546875 104.195312 -44.257812 101.5625 -41.6875 C 100.039062 -40.195312 98.1875 -37.882812 96 -34.75 C 94.15625 -32.082031 92.789062 -30.035156 91.90625 -28.609375 C 96.914062 -29.710938 101.132812 -31.109375 104.5625 -32.796875 C 112.625 -36.722656 116.65625 -40.320312 116.65625 -43.59375 Z M 54.875 -17.28125 C 49.769531 -17.050781 44.945312 -16.222656 40.40625 -14.796875 C 34.976562 -13.148438 30.710938 -10.851562 27.609375 -7.90625 L 27.609375 -7.859375 C 29.347656 -7.503906 31.015625 -7.328125 32.609375 -7.328125 C 36.890625 -7.328125 41.0625 -8.101562 45.125 -9.65625 C 49.976562 -11.53125 53.226562 -14.070312 54.875 -17.28125 Z M 68.34375 -16.28125 C 64.945312 -17.007812 61.140625 -17.375 56.921875 -17.375 C 56.503906 -17.375 56.078125 -17.359375 55.640625 -17.328125 C 54.148438 -13.742188 51.054688 -10.921875 46.359375 -8.859375 C 42.296875 -7.046875 38.078125 -6.140625 33.703125 -6.140625 C 31.160156 -6.140625 28.90625 -6.472656 26.9375 -7.140625 C 23.925781 -4.191406 22.351562 -0.75 22.21875 3.1875 C 23.9375 3.507812 25.78125 3.671875 27.75 3.671875 C 35.457031 3.671875 42.878906 1.734375 50.015625 -2.140625 C 55.734375 -5.222656 61.84375 -9.9375 68.34375 -16.28125 Z M 55.96875 -21.515625 C 55.96875 -25.222656 53.414062 -27.90625 48.3125 -29.5625 C 44.882812 -30.664062 40.835938 -31.21875 36.171875 -31.21875 C 29.316406 -31.21875 22.9375 -29.679688 17.03125 -26.609375 C 9.894531 -22.859375 6.328125 -17.875 6.328125 -11.65625 C 6.328125 -7.46875 7.898438 -4.039062 11.046875 -1.375 C 13.710938 0.875 17.265625 2.394531 21.703125 3.1875 C 21.828125 -0.613281 23.347656 -4.117188 26.265625 -7.328125 C 22.015625 -8.878906 19.890625 -11.082031 19.890625 -13.9375 C 19.890625 -14.257812 19.9375 -14.691406 20.03125 -15.234375 C 20.164062 -15.898438 20.3125 -16.234375 20.46875 -16.234375 C 20.5625 -16.234375 20.640625 -16.21875 20.703125 -16.1875 C 20.671875 -16.050781 20.59375 -15.6875 20.46875 -15.09375 C 20.375 -14.613281 20.328125 -14.265625 20.328125 -14.046875 C 20.328125 -12.578125 21.117188 -11.257812 22.703125 -10.09375 C 23.910156 -9.238281 25.351562 -8.554688 27.03125 -8.046875 C 30.238281 -11.242188 34.632812 -13.75 40.21875 -15.5625 C 44.914062 -17.082031 49.941406 -17.957031 55.296875 -18.1875 C 55.742188 -19.257812 55.96875 -20.367188 55.96875 -21.515625 Z M 55.96875 -21.515625 "></path></g></g></g><g fill="#5f0000" fill-opacity="1"><g transform="translate(81.784977, 60.546111)"><g><path d="M 15.46875 -4.375 C 14.832031 -3.007812 13.753906 -1.851562 12.234375 -0.90625 C 10.960938 -0.0820312 9.914062 0.328125 9.09375 0.328125 C 8.007812 0.328125 7.46875 -0.128906 7.46875 -1.046875 C 7.46875 -1.742188 7.785156 -2.519531 8.421875 -3.375 C 7.441406 -2.675781 6.394531 -2.328125 5.28125 -2.328125 C 4.457031 -2.328125 3.867188 -2.597656 3.515625 -3.140625 C 3.078125 -2.441406 2.347656 -1.457031 1.328125 -0.1875 C 0.753906 0.0625 0.21875 0.1875 -0.28125 0.1875 C -0.976562 0.1875 -1.328125 0.0625 -1.328125 -0.1875 C -1.328125 -0.632812 -0.613281 -1.726562 0.8125 -3.46875 C 2.019531 -5 2.972656 -6.097656 3.671875 -6.765625 L 3.671875 -6.8125 C 1.578125 -5.09375 0.398438 -4.234375 0.140625 -4.234375 C 0.078125 -4.234375 0.046875 -4.265625 0.046875 -4.328125 C 0.328125 -4.960938 1.179688 -5.71875 2.609375 -6.59375 C 4.046875 -7.46875 5.113281 -7.90625 5.8125 -7.90625 C 6.40625 -7.90625 6.703125 -7.820312 6.703125 -7.65625 C 6.703125 -7.53125 5.957031 -6.5 4.46875 -4.5625 C 4.726562 -4.40625 4.859375 -4.203125 4.859375 -3.953125 C 4.859375 -3.796875 4.785156 -3.628906 4.640625 -3.453125 C 4.492188 -3.273438 4.421875 -3.15625 4.421875 -3.09375 C 4.421875 -2.8125 4.628906 -2.671875 5.046875 -2.671875 C 6.285156 -2.671875 7.441406 -3.113281 8.515625 -4 C 8.578125 -4.03125 9.40625 -4.867188 11 -6.515625 C 11.882812 -7.441406 12.675781 -7.90625 13.375 -7.90625 C 14.039062 -7.90625 14.375 -7.804688 14.375 -7.609375 C 14.375 -7.546875 13.648438 -6.617188 12.203125 -4.828125 C 10.765625 -3.035156 10.046875 -1.898438 10.046875 -1.421875 C 10.046875 -1.203125 10.09375 -1.035156 10.1875 -0.921875 C 10.28125 -0.816406 10.390625 -0.765625 10.515625 -0.765625 C 11.085938 -0.765625 12.644531 -1.984375 15.1875 -4.421875 L 15.328125 -4.421875 C 15.390625 -4.421875 15.4375 -4.40625 15.46875 -4.375 Z M 15.46875 -4.375 "></path></g></g></g><g fill="#5f0000" fill-opacity="1"><g transform="translate(96.77601, 60.546111)"><g><path d="M 15.46875 -4.671875 C 15.46875 -4.503906 14.976562 -3.976562 14 -3.09375 C 13.195312 -2.394531 12.59375 -1.890625 12.1875 -1.578125 C 10.53125 -0.335938 9.164062 0.28125 8.09375 0.28125 C 7.394531 0.28125 6.914062 0.03125 6.65625 -0.46875 C 6.53125 -0.789062 6.46875 -1.347656 6.46875 -2.140625 C 6.46875 -3.316406 6.21875 -3.804688 5.71875 -3.609375 C 6.03125 -3.898438 6.503906 -4.046875 7.140625 -4.046875 C 7.992188 -4.046875 8.523438 -3.515625 8.734375 -2.453125 C 8.941406 -1.390625 9.234375 -0.859375 9.609375 -0.859375 C 10.304688 -0.859375 11.410156 -1.492188 12.921875 -2.765625 C 14.429688 -4.035156 15.28125 -4.6875 15.46875 -4.71875 Z M 13.46875 -6.8125 C 13.46875 -5.851562 12.976562 -5.375 12 -5.375 C 11.269531 -5.375 10.90625 -5.535156 10.90625 -5.859375 C 10.90625 -5.921875 10.957031 -6.066406 11.0625 -6.296875 C 11.175781 -6.535156 11.234375 -6.722656 11.234375 -6.859375 C 11.234375 -7.296875 10.992188 -7.515625 10.515625 -7.515625 C 9.335938 -7.515625 7.34375 -6.226562 4.53125 -3.65625 C 1.726562 -1.09375 -0.00390625 0.1875 -0.671875 0.1875 C -1.046875 0.1875 -1.296875 0.140625 -1.421875 0.046875 C -1.421875 0.015625 -1.421875 -0.046875 -1.421875 -0.140625 C -1.421875 -0.960938 -0.296875 -2.769531 1.953125 -5.5625 L 1.953125 -5.609375 C 0.773438 -4.441406 0.0625 -3.859375 -0.1875 -3.859375 C -0.25 -3.859375 -0.28125 -3.875 -0.28125 -3.90625 C -0.21875 -4.21875 0.578125 -5.007812 2.109375 -6.28125 C 3.648438 -7.550781 4.613281 -8.1875 5 -8.1875 C 5.601562 -8.1875 5.90625 -7.992188 5.90625 -7.609375 L 5.90625 -7.515625 C 5.082031 -6.347656 3.8125 -4.601562 2.09375 -2.28125 L 2.1875 -2.234375 C 4.28125 -4.109375 5.707031 -5.332031 6.46875 -5.90625 C 8.46875 -7.394531 10.148438 -8.140625 11.515625 -8.140625 C 12.816406 -8.140625 13.46875 -7.695312 13.46875 -6.8125 Z M 13.46875 -6.8125 "></path></g></g><g transform="translate(111.624272, 60.546111)"><g><path d="M 10.796875 -4.671875 C 10.796875 -4.566406 10.65625 -4.375 10.375 -4.09375 C 9.195312 -2.882812 7.894531 -1.867188 6.46875 -1.046875 C 4.789062 -0.0664062 3.238281 0.421875 1.8125 0.421875 C 0.0625 0.421875 -0.8125 -0.160156 -0.8125 -1.328125 C -0.8125 -2.191406 -0.429688 -3.128906 0.328125 -4.140625 L 0.28125 -4.140625 C -0.15625 -3.660156 -0.457031 -3.421875 -0.625 -3.421875 C -0.65625 -3.421875 -0.6875 -3.4375 -0.71875 -3.46875 L -0.71875 -3.5625 C -0.71875 -3.5625 -0.703125 -3.628906 -0.671875 -3.765625 C 0.222656 -4.742188 1.523438 -5.707031 3.234375 -6.65625 C 5.078125 -7.644531 6.582031 -8.140625 7.75 -8.140625 C 8.675781 -8.140625 9.140625 -7.726562 9.140625 -6.90625 C 9.140625 -5.476562 6.742188 -4 1.953125 -2.46875 C 1.765625 -1.832031 1.671875 -1.40625 1.671875 -1.1875 C 1.671875 -0.613281 2.035156 -0.328125 2.765625 -0.328125 C 3.742188 -0.328125 4.898438 -0.707031 6.234375 -1.46875 C 7.148438 -2.007812 8.148438 -2.722656 9.234375 -3.609375 C 10.148438 -4.410156 10.625 -4.8125 10.65625 -4.8125 C 10.75 -4.8125 10.796875 -4.765625 10.796875 -4.671875 Z M 7.46875 -7.09375 C 7.46875 -7.375 7.28125 -7.515625 6.90625 -7.515625 C 6.269531 -7.515625 5.394531 -6.914062 4.28125 -5.71875 C 3.425781 -4.789062 2.742188 -3.882812 2.234375 -3 L 2.234375 -2.953125 C 5.722656 -4.054688 7.46875 -5.4375 7.46875 -7.09375 Z M 7.46875 -7.09375 "></path></g></g></g><g fill="#5f0000" fill-opacity="1"><g transform="translate(121.713471, 60.546111)"><g><path d="M 24.984375 -4.671875 C 24.984375 -4.285156 23.890625 -3.269531 21.703125 -1.625 C 19.984375 -0.351562 18.554688 0.28125 17.421875 0.28125 C 16.503906 0.28125 16.046875 -0.0820312 16.046875 -0.8125 C 16.046875 -1.539062 16.742188 -2.726562 18.140625 -4.375 C 19.535156 -6.03125 20.234375 -6.9375 20.234375 -7.09375 C 20.234375 -7.25 20.117188 -7.328125 19.890625 -7.328125 C 18.941406 -7.328125 16.972656 -6.070312 13.984375 -3.5625 C 11.003906 -1.0625 9.195312 0.1875 8.5625 0.1875 C 8.0625 0.1875 7.8125 0.09375 7.8125 -0.09375 C 7.8125 -0.726562 8.609375 -2.019531 10.203125 -3.96875 C 11.804688 -5.925781 12.609375 -6.953125 12.609375 -7.046875 C 12.609375 -7.234375 12.484375 -7.328125 12.234375 -7.328125 C 11.378906 -7.328125 9.410156 -6.070312 6.328125 -3.5625 C 3.253906 -1.0625 1.460938 0.1875 0.953125 0.1875 C 0.410156 0.1875 0.140625 0.09375 0.140625 -0.09375 C 0.140625 -0.539062 0.898438 -1.769531 2.421875 -3.78125 C 3.953125 -5.800781 4.734375 -6.828125 4.765625 -6.859375 C 4.703125 -7.046875 4.601562 -7.140625 4.46875 -7.140625 C 3.9375 -7.140625 2.96875 -6.519531 1.5625 -5.28125 C 0.164062 -4.039062 -0.546875 -3.421875 -0.578125 -3.421875 C -0.703125 -3.421875 -0.765625 -3.484375 -0.765625 -3.609375 C -0.765625 -3.804688 0.265625 -4.773438 2.328125 -6.515625 C 3.597656 -7.597656 4.707031 -8.140625 5.65625 -8.140625 C 6.457031 -8.140625 6.859375 -7.773438 6.859375 -7.046875 C 6.859375 -6.503906 5.84375 -4.914062 3.8125 -2.28125 L 3.953125 -2.234375 C 8.617188 -6.171875 11.695312 -8.140625 13.1875 -8.140625 C 14.195312 -8.140625 14.703125 -7.773438 14.703125 -7.046875 C 14.703125 -6.503906 14.273438 -5.691406 13.421875 -4.609375 C 12.753906 -3.847656 12.085938 -3.070312 11.421875 -2.28125 L 11.5625 -2.234375 C 16.226562 -6.171875 19.320312 -8.140625 20.84375 -8.140625 C 21.832031 -8.140625 22.328125 -7.789062 22.328125 -7.09375 C 22.328125 -6.550781 21.707031 -5.507812 20.46875 -3.96875 C 19.226562 -2.4375 18.609375 -1.460938 18.609375 -1.046875 L 18.65625 -0.859375 C 18.75 -0.828125 18.859375 -0.8125 18.984375 -0.8125 C 19.648438 -0.8125 20.664062 -1.363281 22.03125 -2.46875 C 23.75 -3.832031 24.734375 -4.582031 24.984375 -4.71875 Z M 24.984375 -4.671875 "></path></g></g></g><g fill="#5f0000" fill-opacity="1"><g transform="translate(146.079847, 60.546111)"><g><path d="M 14.375 -4.71875 C 14.375 -4.394531 13.28125 -3.363281 11.09375 -1.625 C 9.5 -0.351562 8.132812 0.28125 7 0.28125 C 6.070312 0.28125 5.609375 -0.0976562 5.609375 -0.859375 C 5.609375 -1.429688 5.832031 -1.953125 6.28125 -2.421875 L 6.234375 -2.421875 C 4.234375 -0.617188 2.441406 0.28125 0.859375 0.28125 C -0.347656 0.28125 -0.953125 -0.238281 -0.953125 -1.28125 C -0.953125 -2.207031 -0.507812 -3.175781 0.375 -4.1875 L 0.328125 -4.1875 C -0.140625 -3.675781 -0.441406 -3.421875 -0.578125 -3.421875 C -0.640625 -3.421875 -0.6875 -3.4375 -0.71875 -3.46875 L -0.71875 -3.5625 C -0.71875 -3.5625 -0.703125 -3.628906 -0.671875 -3.765625 C 0.128906 -4.710938 1.457031 -5.6875 3.3125 -6.6875 C 5.164062 -7.6875 6.644531 -8.1875 7.75 -8.1875 C 8.863281 -8.1875 9.421875 -7.773438 9.421875 -6.953125 C 9.421875 -6.753906 9.390625 -6.546875 9.328125 -6.328125 L 9.375 -6.328125 C 10.457031 -7.535156 11.441406 -8.140625 12.328125 -8.140625 C 12.742188 -8.140625 12.953125 -8.09375 12.953125 -8 C 12.953125 -7.90625 12.140625 -6.878906 10.515625 -4.921875 C 8.898438 -2.972656 8.09375 -1.679688 8.09375 -1.046875 L 8.1875 -0.8125 C 8.28125 -0.78125 8.390625 -0.765625 8.515625 -0.765625 C 9.179688 -0.765625 10.285156 -1.421875 11.828125 -2.734375 C 13.367188 -4.054688 14.203125 -4.734375 14.328125 -4.765625 C 14.359375 -4.734375 14.375 -4.71875 14.375 -4.71875 Z M 9 -6.8125 C 9 -7.375 8.695312 -7.65625 8.09375 -7.65625 C 7.269531 -7.65625 5.894531 -6.734375 3.96875 -4.890625 C 2.050781 -3.054688 1.09375 -1.757812 1.09375 -1 C 1.09375 -0.613281 1.300781 -0.421875 1.71875 -0.421875 C 2.632812 -0.421875 4.078125 -1.273438 6.046875 -2.984375 C 8.015625 -4.703125 9 -5.976562 9 -6.8125 Z M 9 -6.8125 "></path></g></g></g><g fill="#5f0000" fill-opacity="1"><g transform="translate(159.78594, 60.546111)"><g></g></g></g><g fill="#5f0000" fill-opacity="1"><g transform="translate(167.067293, 60.546111)"><g><path d="M 10.328125 -4.765625 C 10.171875 -4.285156 9.410156 -3.519531 8.046875 -2.46875 C 6.960938 -1.613281 6 -0.941406 5.15625 -0.453125 C 4.320312 0.0351562 3.507812 0.28125 2.71875 0.28125 C 1.757812 0.28125 1.28125 -0.0507812 1.28125 -0.71875 C 1.28125 -1.476562 1.984375 -2.710938 3.390625 -4.421875 C 4.804688 -6.140625 5.515625 -7.015625 5.515625 -7.046875 C 5.515625 -7.265625 5.40625 -7.375 5.1875 -7.375 C 4.644531 -7.375 3.632812 -6.828125 2.15625 -5.734375 C 0.6875 -4.640625 -0.078125 -4.09375 -0.140625 -4.09375 C -0.171875 -4.09375 -0.21875 -4.125 -0.28125 -4.1875 C -0.28125 -4.3125 -0.265625 -4.390625 -0.234375 -4.421875 C 2.679688 -6.929688 4.804688 -8.1875 6.140625 -8.1875 C 7.117188 -8.1875 7.609375 -7.835938 7.609375 -7.140625 C 7.609375 -6.597656 6.988281 -5.566406 5.75 -4.046875 C 4.519531 -2.523438 3.90625 -1.539062 3.90625 -1.09375 L 3.953125 -0.90625 C 4.078125 -0.84375 4.203125 -0.8125 4.328125 -0.8125 C 4.898438 -0.8125 5.882812 -1.347656 7.28125 -2.421875 C 8.195312 -3.210938 9.117188 -3.992188 10.046875 -4.765625 Z M 10.328125 -4.765625 "></path></g></g></g><g fill="#5f0000" fill-opacity="1"><g transform="translate(176.823359, 60.546111)"><g><path d="M 12.46875 -4.609375 C 12.46875 -4.234375 11.863281 -3.664062 10.65625 -2.90625 C 9.457031 -2.144531 8.617188 -1.765625 8.140625 -1.765625 C 7.722656 -1.765625 7.4375 -1.8125 7.28125 -1.90625 C 5.0625 -0.351562 3.253906 0.421875 1.859375 0.421875 C 0.304688 0.421875 -0.46875 -0.160156 -0.46875 -1.328125 C -0.46875 -2.503906 -0.0234375 -3.597656 0.859375 -4.609375 L 0.859375 -4.671875 C 0.0351562 -3.835938 -0.472656 -3.421875 -0.671875 -3.421875 C -0.703125 -3.421875 -0.71875 -3.4375 -0.71875 -3.46875 L -0.71875 -3.5625 C -0.71875 -3.5625 -0.703125 -3.628906 -0.671875 -3.765625 C 0.316406 -4.804688 1.648438 -5.785156 3.328125 -6.703125 C 5.140625 -7.660156 6.695312 -8.15625 8 -8.1875 L 8.28125 -7.953125 C 8.25 -7.921875 8.070312 -7.820312 7.75 -7.65625 C 6.707031 -7.15625 5.457031 -6.160156 4 -4.671875 C 2.382812 -3.015625 1.578125 -1.695312 1.578125 -0.71875 C 1.578125 -0.269531 1.796875 -0.046875 2.234375 -0.046875 C 3.472656 -0.046875 4.945312 -1.015625 6.65625 -2.953125 C 7.070312 -4.597656 7.867188 -5.675781 9.046875 -6.1875 C 9.140625 -6.40625 9.1875 -6.800781 9.1875 -7.375 C 9.1875 -7.4375 9.160156 -7.523438 9.109375 -7.640625 C 9.066406 -7.753906 9.046875 -7.84375 9.046875 -7.90625 C 9.046875 -8.03125 9.140625 -8.09375 9.328125 -8.09375 C 9.609375 -8.09375 9.851562 -7.894531 10.0625 -7.5 C 10.269531 -7.101562 10.375 -6.742188 10.375 -6.421875 C 10.375 -5.316406 9.46875 -3.921875 7.65625 -2.234375 C 7.757812 -2.203125 7.859375 -2.1875 7.953125 -2.1875 C 8.679688 -2.1875 9.503906 -2.566406 10.421875 -3.328125 C 11.472656 -4.179688 12.140625 -4.644531 12.421875 -4.71875 C 12.453125 -4.6875 12.46875 -4.648438 12.46875 -4.609375 Z M 12.46875 -4.609375 "></path></g></g><g transform="translate(188.625824, 60.546111)"><g><path d="M 10.515625 -4.375 C 10.515625 -3.96875 9.5 -3.066406 7.46875 -1.671875 C 5.4375 -0.273438 3.566406 0.421875 1.859375 0.421875 C 0.171875 0.421875 -0.671875 -0.144531 -0.671875 -1.28125 C -0.671875 -2.269531 -0.207031 -3.332031 0.71875 -4.46875 L 0.671875 -4.46875 C 0.378906 -4.15625 -0.0820312 -3.820312 -0.71875 -3.46875 L -0.71875 -3.5625 C -0.71875 -3.632812 -0.703125 -3.703125 -0.671875 -3.765625 C 0.0546875 -4.648438 1.359375 -5.597656 3.234375 -6.609375 C 5.109375 -7.628906 6.566406 -8.140625 7.609375 -8.140625 C 8.722656 -8.140625 9.28125 -7.695312 9.28125 -6.8125 C 9.28125 -6.332031 9.113281 -5.863281 8.78125 -5.40625 C 8.445312 -4.945312 8.054688 -4.71875 7.609375 -4.71875 C 7.171875 -4.71875 6.953125 -4.9375 6.953125 -5.375 C 6.953125 -5.5625 7.078125 -5.878906 7.328125 -6.328125 C 7.578125 -6.773438 7.703125 -7.109375 7.703125 -7.328125 C 7.703125 -7.546875 7.546875 -7.65625 7.234375 -7.65625 C 6.441406 -7.65625 5.332031 -6.804688 3.90625 -5.109375 C 2.476562 -3.410156 1.765625 -2.117188 1.765625 -1.234375 C 1.765625 -0.628906 2.128906 -0.328125 2.859375 -0.328125 C 4.160156 -0.328125 5.753906 -1.007812 7.640625 -2.375 C 9.523438 -3.738281 10.46875 -4.421875 10.46875 -4.421875 L 10.515625 -4.421875 Z M 10.515625 -4.375 "></path></g></g></g><g fill="#5f0000" fill-opacity="1"><g transform="translate(198.762613, 60.546111)"><g><path d="M 24.984375 -4.671875 C 24.984375 -4.285156 23.890625 -3.269531 21.703125 -1.625 C 19.984375 -0.351562 18.554688 0.28125 17.421875 0.28125 C 16.503906 0.28125 16.046875 -0.0820312 16.046875 -0.8125 C 16.046875 -1.539062 16.742188 -2.726562 18.140625 -4.375 C 19.535156 -6.03125 20.234375 -6.9375 20.234375 -7.09375 C 20.234375 -7.25 20.117188 -7.328125 19.890625 -7.328125 C 18.941406 -7.328125 16.972656 -6.070312 13.984375 -3.5625 C 11.003906 -1.0625 9.195312 0.1875 8.5625 0.1875 C 8.0625 0.1875 7.8125 0.09375 7.8125 -0.09375 C 7.8125 -0.726562 8.609375 -2.019531 10.203125 -3.96875 C 11.804688 -5.925781 12.609375 -6.953125 12.609375 -7.046875 C 12.609375 -7.234375 12.484375 -7.328125 12.234375 -7.328125 C 11.378906 -7.328125 9.410156 -6.070312 6.328125 -3.5625 C 3.253906 -1.0625 1.460938 0.1875 0.953125 0.1875 C 0.410156 0.1875 0.140625 0.09375 0.140625 -0.09375 C 0.140625 -0.539062 0.898438 -1.769531 2.421875 -3.78125 C 3.953125 -5.800781 4.734375 -6.828125 4.765625 -6.859375 C 4.703125 -7.046875 4.601562 -7.140625 4.46875 -7.140625 C 3.9375 -7.140625 2.96875 -6.519531 1.5625 -5.28125 C 0.164062 -4.039062 -0.546875 -3.421875 -0.578125 -3.421875 C -0.703125 -3.421875 -0.765625 -3.484375 -0.765625 -3.609375 C -0.765625 -3.804688 0.265625 -4.773438 2.328125 -6.515625 C 3.597656 -7.597656 4.707031 -8.140625 5.65625 -8.140625 C 6.457031 -8.140625 6.859375 -7.773438 6.859375 -7.046875 C 6.859375 -6.503906 5.84375 -4.914062 3.8125 -2.28125 L 3.953125 -2.234375 C 8.617188 -6.171875 11.695312 -8.140625 13.1875 -8.140625 C 14.195312 -8.140625 14.703125 -7.773438 14.703125 -7.046875 C 14.703125 -6.503906 14.273438 -5.691406 13.421875 -4.609375 C 12.753906 -3.847656 12.085938 -3.070312 11.421875 -2.28125 L 11.5625 -2.234375 C 16.226562 -6.171875 19.320312 -8.140625 20.84375 -8.140625 C 21.832031 -8.140625 22.328125 -7.789062 22.328125 -7.09375 C 22.328125 -6.550781 21.707031 -5.507812 20.46875 -3.96875 C 19.226562 -2.4375 18.609375 -1.460938 18.609375 -1.046875 L 18.65625 -0.859375 C 18.75 -0.828125 18.859375 -0.8125 18.984375 -0.8125 C 19.648438 -0.8125 20.664062 -1.363281 22.03125 -2.46875 C 23.75 -3.832031 24.734375 -4.582031 24.984375 -4.71875 Z M 24.984375 -4.671875 "></path></g></g></g><g fill="#5f0000" fill-opacity="1"><g transform="translate(223.129002, 60.546111)"><g><path d="M 15.421875 -4.71875 C 15.421875 -4.519531 14.34375 -3.582031 12.1875 -1.90625 C 10.28125 -0.414062 8.691406 0.328125 7.421875 0.328125 C 6.378906 0.328125 5.859375 -0.0820312 5.859375 -0.90625 C 5.859375 -1.570312 6.109375 -2.300781 6.609375 -3.09375 C 5.660156 -2.363281 4.695312 -1.648438 3.71875 -0.953125 C 2.476562 -0.128906 1.378906 0.28125 0.421875 0.28125 C -0.679688 0.28125 -1.234375 -0.191406 -1.234375 -1.140625 C -1.234375 -2.503906 -0.519531 -3.1875 0.90625 -3.1875 C 1.570312 -3.1875 1.90625 -3 1.90625 -2.625 C 1.90625 -2.488281 1.859375 -2.285156 1.765625 -2.015625 C 1.671875 -1.753906 1.625 -1.554688 1.625 -1.421875 C 1.625 -1.109375 1.765625 -0.953125 2.046875 -0.953125 C 2.898438 -0.953125 4.3125 -1.804688 6.28125 -3.515625 C 6.03125 -3.453125 5.804688 -3.421875 5.609375 -3.421875 C 5.046875 -3.421875 4.5625 -3.664062 4.15625 -4.15625 C 3.757812 -4.65625 3.5625 -5.191406 3.5625 -5.765625 C 3.5625 -6.648438 4.101562 -7.425781 5.1875 -8.09375 C 6.132812 -8.695312 7.070312 -9 8 -9 C 9.519531 -9 10.421875 -8.550781 10.703125 -7.65625 C 11.273438 -8.101562 12.054688 -8.328125 13.046875 -8.328125 C 13.234375 -8.328125 13.375 -8.296875 13.46875 -8.234375 L 13.515625 -8.1875 C 13.515625 -8.03125 12.710938 -6.984375 11.109375 -5.046875 C 9.503906 -3.109375 8.703125 -1.851562 8.703125 -1.28125 C 8.703125 -1 8.847656 -0.859375 9.140625 -0.859375 C 9.898438 -0.859375 10.960938 -1.445312 12.328125 -2.625 C 13.847656 -3.914062 14.863281 -4.644531 15.375 -4.8125 C 15.40625 -4.78125 15.421875 -4.75 15.421875 -4.71875 Z M 9.234375 -7.65625 C 9.234375 -8.101562 8.992188 -8.328125 8.515625 -8.328125 C 7.785156 -8.328125 6.976562 -7.929688 6.09375 -7.140625 C 5.207031 -6.347656 4.765625 -5.570312 4.765625 -4.8125 C 4.765625 -4.175781 5 -3.859375 5.46875 -3.859375 C 6.132812 -3.859375 6.925781 -4.332031 7.84375 -5.28125 C 8.769531 -6.226562 9.234375 -7.019531 9.234375 -7.65625 Z M 9.234375 -7.65625 "></path></g></g></g><g fill="#5f0000" fill-opacity="1"><g transform="translate(237.691708, 60.546111)"><g><path d="M 5.953125 -6.28125 C 5.953125 -5.832031 5.640625 -5.382812 5.015625 -4.9375 C 4.398438 -4.5 3.851562 -4.28125 3.375 -4.28125 C 3.25 -4.40625 3.1875 -4.644531 3.1875 -5 C 3.1875 -6.207031 3.851562 -6.8125 5.1875 -6.8125 C 5.695312 -6.8125 5.953125 -6.632812 5.953125 -6.28125 Z M 3.671875 -1.578125 C 3.671875 -1.128906 3.359375 -0.679688 2.734375 -0.234375 C 2.117188 0.203125 1.570312 0.421875 1.09375 0.421875 C 0.96875 0.296875 0.90625 0.0625 0.90625 -0.28125 C 0.90625 -1.488281 1.570312 -2.09375 2.90625 -2.09375 C 3.414062 -2.09375 3.671875 -1.921875 3.671875 -1.578125 Z M 3.671875 -1.578125 "></path></g></g></g></g></g></svg> 