<?xml version="1.0" encoding="UTF-8"?> <svg xmlns="http://www.w3.org/2000/svg" xmlns:xlink="http://www.w3.org/1999/xlink" width="360" zoomAndPan="magnify" viewBox="0 0 270 359.999987" height="480" preserveAspectRatio="xMidYMid meet" version="1.0"><defs><clipPath id="2830dcadf2"><path d="M 38 72 L 231.964844 72 L 231.964844 298 L 38 298 Z M 38 72 " clip-rule="nonzero"></path></clipPath><clipPath id="ac5dc66414"><path d="M 37.714844 72 L 231.964844 72 L 231.964844 298.152344 L 37.714844 298.152344 Z M 37.714844 72 " clip-rule="nonzero"></path></clipPath><clipPath id="41da92aacc"><path d="M 102 61.902344 L 136 61.902344 L 136 100 L 102 100 Z M 102 61.902344 " clip-rule="nonzero"></path></clipPath></defs><g clip-path="url(#2830dcadf2)"><path fill="#5f0000" d="M 230.992188 98.734375 C 207.117188 86.097656 171.441406 74.101562 167.152344 72.679688 C 166.875 72.585938 166.574219 72.578125 166.292969 72.65625 L 137.921875 80.621094 C 137.792969 80.660156 137.660156 80.675781 137.527344 80.675781 L 132.472656 80.675781 C 132.335938 80.675781 132.203125 80.65625 132.074219 80.621094 L 103.703125 72.65625 C 103.421875 72.578125 103.121094 72.585938 102.84375 72.679688 C 98.554688 74.101562 62.878906 86.097656 39.007812 98.734375 C 38.304688 99.105469 38.023438 99.96875 38.371094 100.683594 C 90.285156 207.28125 126.390625 281.851562 133.589844 296.726562 C 134.125 297.832031 135.699219 297.835938 136.234375 296.726562 C 143.367188 282.042969 178.859375 209.019531 231.625 100.679688 C 231.972656 99.964844 231.6875 99.101562 230.988281 98.730469 Z M 230.992188 98.734375 " fill-opacity="1" fill-rule="nonzero"></path></g><g clip-path="url(#ac5dc66414)"><path fill="#000000" d="M 134.914062 298.0625 C 134.152344 298.0625 133.472656 297.636719 133.136719 296.949219 C 126.386719 282.992188 90.0625 207.96875 37.917969 100.902344 C 37.449219 99.941406 37.824219 98.789062 38.773438 98.289062 C 62.722656 85.609375 98.667969 73.53125 102.6875 72.199219 C 103.0625 72.074219 103.460938 72.066406 103.84375 72.171875 L 132.210938 80.136719 C 132.296875 80.160156 132.382812 80.171875 132.472656 80.171875 L 137.527344 80.171875 C 137.613281 80.171875 137.703125 80.160156 137.785156 80.136719 L 166.15625 72.171875 C 166.535156 72.066406 166.9375 72.074219 167.3125 72.199219 C 171.332031 73.53125 207.273438 85.609375 231.226562 98.289062 C 232.175781 98.789062 232.550781 99.941406 232.082031 100.902344 C 179.027344 209.835938 143.3125 283.324219 136.691406 296.949219 C 136.359375 297.636719 135.675781 298.0625 134.914062 298.0625 Z M 103.308594 73.105469 C 103.203125 73.105469 103.101562 73.125 103.003906 73.15625 C 98.992188 74.488281 63.121094 86.539062 39.246094 99.179688 C 38.78125 99.425781 38.59375 99.988281 38.824219 100.460938 C 90.96875 207.527344 127.292969 282.554688 134.046875 296.507812 C 134.210938 296.847656 134.535156 297.050781 134.914062 297.050781 C 135.292969 297.050781 135.617188 296.847656 135.78125 296.507812 C 142.402344 282.882812 178.121094 209.394531 231.171875 100.460938 C 231.402344 99.988281 231.21875 99.425781 230.753906 99.179688 C 206.875 86.539062 171.003906 74.488281 166.992188 73.15625 C 166.808594 73.097656 166.613281 73.089844 166.425781 73.144531 L 138.058594 81.109375 C 137.882812 81.15625 137.703125 81.183594 137.523438 81.183594 L 132.46875 81.183594 C 132.289062 81.183594 132.105469 81.15625 131.933594 81.109375 L 103.5625 73.144531 C 103.476562 73.117188 103.390625 73.105469 103.300781 73.105469 Z M 103.308594 73.105469 " fill-opacity="1" fill-rule="nonzero"></path></g><path fill="#d5d5d5" d="M 103.273438 72.535156 L 96.007812 108.460938 C 96.007812 108.460938 127.890625 258.046875 134.890625 264.71875 C 139.15625 259.621094 174.726562 98.332031 174.726562 98.332031 L 166.726562 72.535156 L 135.367188 84.320312 Z M 103.273438 72.535156 " fill-opacity="1" fill-rule="nonzero"></path><path fill="#5f0000" d="M 152.679688 210.152344 L 135.085938 265.515625 L 117.492188 210.152344 L 129.011719 102.183594 L 135.085938 98.332031 L 141.488281 102.183594 Z M 152.679688 210.152344 " fill-opacity="1" fill-rule="nonzero"></path><path fill="#000000" d="M 135.085938 267.183594 L 116.980469 210.207031 L 116.988281 210.097656 L 128.535156 101.886719 L 135.082031 97.738281 L 141.964844 101.878906 L 153.195312 210.203125 L 135.089844 267.179688 Z M 118.007812 210.101562 L 135.089844 263.847656 L 152.164062 210.097656 L 141.011719 102.484375 L 135.09375 98.921875 L 129.488281 102.476562 L 118.003906 210.097656 Z M 118.007812 210.101562 " fill-opacity="1" fill-rule="nonzero"></path><path fill="#5f0000" d="M 135.011719 77.652344 L 121.632812 92.433594 L 128.917969 102.507812 C 128.917969 102.507812 134.976562 101.066406 141.394531 102.507812 C 143.722656 99.15625 148.359375 92.433594 148.359375 92.433594 L 135.007812 77.652344 Z M 135.011719 77.652344 " fill-opacity="1" fill-rule="nonzero"></path><path fill="#000000" d="M 128.703125 103.078125 L 120.984375 92.398438 L 135.011719 76.902344 L 149.003906 92.394531 L 148.777344 92.722656 C 148.730469 92.789062 144.113281 99.484375 141.808594 102.796875 L 141.617188 103.078125 L 141.285156 103.003906 C 135.066406 101.609375 129.09375 102.988281 129.035156 103.003906 L 128.707031 103.082031 Z M 122.28125 92.46875 L 129.132812 101.945312 C 130.476562 101.667969 135.621094 100.78125 141.171875 101.945312 C 143.21875 98.996094 146.789062 93.824219 147.71875 92.480469 L 135.011719 78.410156 L 122.28125 92.472656 Z M 122.28125 92.46875 " fill-opacity="1" fill-rule="nonzero"></path><path fill="#e4e4e4" d="M 107.851562 63.085938 L 103.273438 72.535156 C 103.273438 72.535156 112.6875 91.757812 115.792969 97.898438 C 116.15625 98.617188 117.136719 98.734375 117.660156 98.121094 C 122.5 92.417969 135.007812 77.652344 135.007812 77.652344 L 109.488281 62.59375 C 108.902344 62.246094 108.148438 62.476562 107.851562 63.085938 Z M 107.851562 63.085938 " fill-opacity="1" fill-rule="nonzero"></path><g clip-path="url(#41da92aacc)"><path fill="#000000" d="M 116.800781 99.027344 C 116.738281 99.027344 116.675781 99.023438 116.609375 99.015625 C 116.0625 98.949219 115.589844 98.617188 115.34375 98.128906 C 112.269531 92.058594 102.914062 72.953125 102.816406 72.761719 L 102.710938 72.539062 L 107.398438 62.871094 C 107.601562 62.453125 107.972656 62.132812 108.414062 62 C 108.859375 61.867188 109.34375 61.925781 109.746094 62.160156 L 135.78125 77.523438 L 135.394531 77.980469 C 135.394531 77.980469 122.886719 92.746094 118.046875 98.453125 C 117.734375 98.820312 117.28125 99.027344 116.804688 99.027344 Z M 103.835938 72.535156 C 104.890625 74.691406 113.355469 91.960938 116.246094 97.671875 C 116.34375 97.863281 116.519531 97.988281 116.730469 98.011719 C 116.941406 98.035156 117.136719 97.957031 117.277344 97.796875 C 121.609375 92.6875 132.09375 80.316406 134.238281 77.78125 L 109.234375 63.027344 C 109.074219 62.933594 108.886719 62.910156 108.710938 62.964844 C 108.53125 63.019531 108.386719 63.140625 108.308594 63.308594 C 108.308594 63.308594 103.835938 72.535156 103.835938 72.535156 Z M 103.835938 72.535156 " fill-opacity="1" fill-rule="nonzero"></path></g><path fill="#e4e4e4" d="M 162.773438 63.578125 L 166.726562 72.535156 C 166.726562 72.535156 158.234375 90.589844 154.949219 97.296875 C 154.453125 98.300781 153.09375 98.476562 152.359375 97.628906 C 147.183594 91.609375 135.007812 77.65625 135.007812 77.65625 L 160.519531 62.84375 C 161.339844 62.367188 162.390625 62.710938 162.773438 63.578125 Z M 162.773438 63.578125 " fill-opacity="1" fill-rule="nonzero"></path><path fill="#000000" d="M 153.542969 98.675781 C 152.949219 98.675781 152.378906 98.414062 151.980469 97.953125 C 146.859375 92.007812 134.75 78.125 134.628906 77.984375 L 134.226562 77.523438 L 160.265625 62.40625 C 160.78125 62.109375 161.402344 62.042969 161.964844 62.226562 C 162.535156 62.410156 162.996094 62.828125 163.234375 63.375 L 167.28125 72.542969 L 167.183594 72.75 C 167.097656 72.929688 158.652344 90.882812 155.402344 97.515625 C 155.09375 98.144531 154.5 98.570312 153.808594 98.65625 C 153.71875 98.667969 153.628906 98.675781 153.542969 98.675781 Z M 135.792969 77.78125 C 137.945312 80.25 148.152344 91.964844 152.746094 97.296875 C 152.980469 97.570312 153.320312 97.703125 153.679688 97.65625 C 154.039062 97.609375 154.335938 97.398438 154.496094 97.074219 C 157.554688 90.835938 165.21875 74.5625 166.171875 72.53125 L 162.3125 63.78125 C 162.1875 63.496094 161.953125 63.28125 161.65625 63.1875 C 161.355469 63.089844 161.046875 63.121094 160.773438 63.277344 Z M 135.792969 77.78125 " fill-opacity="1" fill-rule="nonzero"></path><path fill="#5f0000" d="M 192.625 110.132812 C 190.488281 111.863281 188.722656 113.375 187.488281 114.453125 C 186.59375 115.234375 186.851562 116.683594 187.957031 117.113281 L 196.355469 120.371094 C 197.84375 120.945312 198.550781 122.648438 197.902344 124.105469 C 189.152344 143.804688 135.085938 265.515625 135.085938 265.515625 C 135.085938 265.515625 171.636719 117.320312 166.800781 72.894531 C 166.800781 72.894531 175.539062 93.953125 192.59375 107.359375 C 193.488281 108.0625 193.511719 109.417969 192.625 110.132812 Z M 192.625 110.132812 " fill-opacity="1" fill-rule="nonzero"></path><path fill="#000000" d="M 135.550781 265.722656 L 134.597656 265.394531 C 134.964844 263.914062 171.070312 116.777344 166.300781 72.949219 L 165.917969 69.453125 L 167.269531 72.703125 C 167.355469 72.914062 176.15625 93.792969 192.90625 106.960938 C 193.460938 107.398438 193.78125 108.046875 193.78125 108.75 C 193.789062 109.441406 193.480469 110.089844 192.941406 110.527344 C 190.738281 112.3125 188.941406 113.851562 187.816406 114.835938 C 187.535156 115.082031 187.402344 115.453125 187.464844 115.828125 C 187.53125 116.203125 187.78125 116.503906 188.136719 116.640625 L 196.539062 119.898438 C 197.386719 120.230469 198.046875 120.875 198.394531 121.71875 C 198.742188 122.558594 198.730469 123.480469 198.363281 124.3125 C 189.613281 144.011719 135.546875 265.722656 135.546875 265.722656 Z M 167.550781 75.722656 C 169.113281 99.914062 160.734375 148.605469 153.253906 185.964844 C 146.703125 218.660156 139.726562 248.375 136.890625 260.210938 C 147.226562 236.941406 189.769531 141.179688 197.441406 123.902344 C 197.695312 123.324219 197.707031 122.6875 197.464844 122.101562 C 197.222656 121.515625 196.765625 121.070312 196.175781 120.839844 L 187.773438 117.582031 C 187.085938 117.316406 186.601562 116.726562 186.472656 116.003906 C 186.347656 115.28125 186.601562 114.558594 187.15625 114.074219 C 188.28125 113.085938 190.09375 111.535156 192.304688 109.742188 C 192.605469 109.5 192.777344 109.140625 192.773438 108.753906 C 192.769531 108.363281 192.589844 108 192.28125 107.753906 C 178.882812 97.222656 170.515625 81.835938 167.546875 75.726562 Z M 167.550781 75.722656 " fill-opacity="1" fill-rule="nonzero"></path><path fill="#5f0000" d="M 77.511719 110.105469 C 79.816406 111.972656 81.695312 113.585938 82.941406 114.679688 C 83.714844 115.359375 83.492188 116.617188 82.53125 116.988281 L 71.894531 121.113281 C 71.453125 121.28125 71.238281 121.789062 71.433594 122.222656 C 76.527344 133.699219 135.085938 265.515625 135.085938 265.515625 C 135.085938 265.515625 98.28125 117.714844 103.117188 73.292969 C 103.117188 73.292969 94.605469 93.980469 77.539062 107.386719 C 76.660156 108.078125 76.640625 109.402344 77.511719 110.105469 Z M 77.511719 110.105469 " fill-opacity="1" fill-rule="nonzero"></path><path fill="#000000" d="M 134.625 265.722656 C 134.625 265.722656 76.066406 133.902344 70.972656 122.429688 C 70.824219 122.09375 70.820312 121.71875 70.960938 121.378906 C 71.097656 121.042969 71.371094 120.773438 71.714844 120.644531 L 82.351562 116.519531 C 82.640625 116.40625 82.839844 116.167969 82.894531 115.863281 C 82.945312 115.558594 82.84375 115.265625 82.609375 115.0625 C 81.429688 114.027344 79.535156 112.394531 77.195312 110.5 C 76.664062 110.070312 76.359375 109.429688 76.367188 108.746094 C 76.371094 108.058594 76.6875 107.417969 77.230469 106.992188 C 93.992188 93.828125 102.570312 73.308594 102.65625 73.105469 L 104.007812 69.8125 L 103.625 73.351562 C 98.855469 117.175781 135.210938 263.917969 135.582031 265.394531 L 134.628906 265.722656 Z M 77.828125 109.714844 C 80.179688 111.617188 82.089844 113.261719 83.277344 114.300781 C 83.773438 114.738281 84 115.386719 83.886719 116.039062 C 83.769531 116.6875 83.332031 117.21875 82.714844 117.460938 L 72.078125 121.582031 C 71.992188 121.617188 71.925781 121.679688 71.890625 121.765625 C 71.859375 121.84375 71.859375 121.9375 71.894531 122.019531 C 76.382812 132.128906 122.382812 235.679688 133.253906 260.148438 C 130.386719 248.292969 123.378906 218.710938 116.792969 186.164062 C 109.257812 148.90625 100.820312 100.324219 102.371094 76.136719 C 99.4375 82.183594 91.21875 97.285156 77.851562 107.785156 C 77.550781 108.023438 77.378906 108.371094 77.375 108.75 C 77.371094 109.128906 77.539062 109.476562 77.832031 109.710938 Z M 77.828125 109.714844 " fill-opacity="1" fill-rule="nonzero"></path></svg> 