<?xml version="1.0" encoding="UTF-8"?> <svg xmlns="http://www.w3.org/2000/svg" xmlns:xlink="http://www.w3.org/1999/xlink" width="360" zoomAndPan="magnify" viewBox="0 0 270 359.999987" height="480" preserveAspectRatio="xMidYMid meet" version="1.0"><defs><g></g></defs><g fill="#000000" fill-opacity="1"><g transform="translate(1.36231, 168.949499)"><g><path d="M 17.0625 -17.3125 C 17.101562 -17.3125 17.125 -17.253906 17.125 -17.140625 C 17.125 -17.035156 17.101562 -16.984375 17.0625 -16.984375 C 16.582031 -16.984375 16.125 -16.804688 15.6875 -16.453125 C 15.257812 -16.097656 14.890625 -15.59375 14.578125 -14.9375 L 9.421875 -3.9375 C 8.878906 -2.769531 8.546875 -2.019531 8.421875 -1.6875 C 8.179688 -1.113281 8.003906 -0.722656 7.890625 -0.515625 C 7.785156 -0.316406 7.664062 -0.179688 7.53125 -0.109375 C 7.40625 -0.0351562 7.222656 0 6.984375 0 L 2.765625 0 C 2.710938 0 2.6875 -0.0507812 2.6875 -0.15625 C 2.6875 -0.269531 2.710938 -0.328125 2.765625 -0.328125 C 4.117188 -0.328125 5.285156 -0.613281 6.265625 -1.1875 C 7.253906 -1.757812 8.054688 -2.675781 8.671875 -3.9375 L 2.6875 -15.015625 C 2.300781 -15.753906 1.941406 -16.265625 1.609375 -16.546875 C 1.273438 -16.835938 0.832031 -16.984375 0.28125 -16.984375 C 0.238281 -16.984375 0.21875 -17.035156 0.21875 -17.140625 C 0.21875 -17.253906 0.238281 -17.3125 0.28125 -17.3125 L 1.390625 -17.28125 C 1.941406 -17.25 2.410156 -17.234375 2.796875 -17.234375 C 3.484375 -17.234375 4.210938 -17.25 4.984375 -17.28125 L 6.125 -17.3125 C 6.15625 -17.3125 6.171875 -17.253906 6.171875 -17.140625 C 6.171875 -17.035156 6.15625 -16.984375 6.125 -16.984375 C 4.976562 -16.984375 4.40625 -16.6875 4.40625 -16.09375 C 4.40625 -15.894531 4.488281 -15.628906 4.65625 -15.296875 L 9.671875 -6.046875 L 13.9375 -15.078125 C 14.101562 -15.398438 14.1875 -15.679688 14.1875 -15.921875 C 14.1875 -16.628906 13.457031 -16.984375 12 -16.984375 C 11.9375 -16.984375 11.90625 -17.035156 11.90625 -17.140625 C 11.90625 -17.253906 11.9375 -17.3125 12 -17.3125 L 13.125 -17.28125 C 13.757812 -17.25 14.332031 -17.234375 14.84375 -17.234375 C 15.15625 -17.234375 15.535156 -17.25 15.984375 -17.28125 Z M 17.0625 -17.3125 "></path></g></g></g><g fill="#000000" fill-opacity="1"><g transform="translate(18.28891, 168.949499)"><g><path d="M 5.3125 -2.359375 C 5.3125 -1.765625 5.390625 -1.332031 5.546875 -1.0625 C 5.710938 -0.800781 6.019531 -0.613281 6.46875 -0.5 C 6.914062 -0.382812 7.628906 -0.328125 8.609375 -0.328125 C 8.671875 -0.328125 8.703125 -0.269531 8.703125 -0.15625 C 8.703125 -0.0507812 8.671875 0 8.609375 0 C 7.859375 0 7.269531 -0.0078125 6.84375 -0.03125 L 4.4375 -0.0625 L 2.578125 -0.03125 C 2.222656 -0.0078125 1.75 0 1.15625 0 C 1.125 0 1.109375 -0.0507812 1.109375 -0.15625 C 1.109375 -0.269531 1.125 -0.328125 1.15625 -0.328125 C 1.863281 -0.328125 2.378906 -0.375 2.703125 -0.46875 C 3.023438 -0.5625 3.238281 -0.738281 3.34375 -1 C 3.457031 -1.269531 3.515625 -1.6875 3.515625 -2.25 L 3.515625 -15.078125 C 3.515625 -15.628906 3.457031 -16.03125 3.34375 -16.28125 C 3.238281 -16.539062 3.023438 -16.722656 2.703125 -16.828125 C 2.378906 -16.929688 1.863281 -16.984375 1.15625 -16.984375 C 1.125 -16.984375 1.109375 -17.035156 1.109375 -17.140625 C 1.109375 -17.253906 1.125 -17.3125 1.15625 -17.3125 L 2.546875 -17.28125 C 3.328125 -17.25 3.945312 -17.234375 4.40625 -17.234375 C 4.863281 -17.234375 5.378906 -17.257812 5.953125 -17.3125 C 6.171875 -17.3125 6.519531 -17.320312 7 -17.34375 C 7.488281 -17.375 7.90625 -17.390625 8.25 -17.390625 C 9.945312 -17.390625 11.304688 -17.007812 12.328125 -16.25 C 13.359375 -15.5 13.875 -14.347656 13.875 -12.796875 C 13.875 -11.578125 13.570312 -10.550781 12.96875 -9.71875 C 12.375 -8.894531 11.609375 -8.28125 10.671875 -7.875 C 9.742188 -7.46875 8.78125 -7.265625 7.78125 -7.265625 C 7.226562 -7.265625 6.773438 -7.304688 6.421875 -7.390625 C 6.367188 -7.390625 6.34375 -7.4375 6.34375 -7.53125 C 6.34375 -7.59375 6.351562 -7.648438 6.375 -7.703125 C 6.40625 -7.753906 6.441406 -7.769531 6.484375 -7.75 C 6.773438 -7.675781 7.109375 -7.640625 7.484375 -7.640625 C 8.703125 -7.640625 9.726562 -8.035156 10.5625 -8.828125 C 11.40625 -9.628906 11.828125 -10.773438 11.828125 -12.265625 C 11.828125 -13.734375 11.429688 -14.882812 10.640625 -15.71875 C 9.847656 -16.5625 8.832031 -16.984375 7.59375 -16.984375 C 6.925781 -16.984375 6.441406 -16.945312 6.140625 -16.875 C 5.847656 -16.800781 5.632812 -16.628906 5.5 -16.359375 C 5.375 -16.085938 5.3125 -15.640625 5.3125 -15.015625 Z M 5.3125 -2.359375 "></path></g></g></g><g fill="#000000" fill-opacity="1"><g transform="translate(33.331698, 168.949499)"><g><path d="M 22.5 -0.328125 C 22.550781 -0.328125 22.578125 -0.269531 22.578125 -0.15625 C 22.578125 -0.0507812 22.550781 0 22.5 0 C 21.925781 0 21.472656 -0.0078125 21.140625 -0.03125 L 19.21875 -0.0625 L 17.453125 -0.03125 C 17.160156 -0.0078125 16.742188 0 16.203125 0 C 16.171875 0 16.15625 -0.0507812 16.15625 -0.15625 C 16.15625 -0.269531 16.171875 -0.328125 16.203125 -0.328125 C 16.828125 -0.328125 17.289062 -0.378906 17.59375 -0.484375 C 17.90625 -0.585938 18.109375 -0.765625 18.203125 -1.015625 C 18.304688 -1.273438 18.34375 -1.6875 18.3125 -2.25 L 17.8125 -14.84375 L 11.5 -0.1875 C 11.457031 -0.113281 11.382812 -0.078125 11.28125 -0.078125 C 11.1875 -0.078125 11.101562 -0.113281 11.03125 -0.1875 L 4.203125 -14.6875 L 3.96875 -3.015625 C 3.945312 -2.035156 4.109375 -1.34375 4.453125 -0.9375 C 4.804688 -0.53125 5.425781 -0.328125 6.3125 -0.328125 C 6.351562 -0.328125 6.375 -0.269531 6.375 -0.15625 C 6.375 -0.0507812 6.351562 0 6.3125 0 C 5.800781 0 5.40625 -0.0078125 5.125 -0.03125 L 3.625 -0.0625 L 2.1875 -0.03125 C 1.925781 -0.0078125 1.554688 0 1.078125 0 C 1.046875 0 1.03125 -0.0507812 1.03125 -0.15625 C 1.03125 -0.269531 1.046875 -0.328125 1.078125 -0.328125 C 1.859375 -0.328125 2.414062 -0.535156 2.75 -0.953125 C 3.09375 -1.367188 3.273438 -2.054688 3.296875 -3.015625 L 3.546875 -15.875 C 2.992188 -16.613281 2.238281 -16.984375 1.28125 -16.984375 C 1.238281 -16.984375 1.21875 -17.035156 1.21875 -17.140625 C 1.21875 -17.253906 1.238281 -17.3125 1.28125 -17.3125 L 2.296875 -17.28125 C 2.484375 -17.269531 2.742188 -17.265625 3.078125 -17.265625 C 3.410156 -17.265625 3.691406 -17.269531 3.921875 -17.28125 C 4.148438 -17.300781 4.328125 -17.3125 4.453125 -17.3125 C 4.703125 -17.3125 4.90625 -17.222656 5.0625 -17.046875 C 5.21875 -16.867188 5.441406 -16.476562 5.734375 -15.875 L 11.90625 -2.859375 L 17.953125 -16.625 C 18.148438 -17.082031 18.425781 -17.3125 18.78125 -17.3125 C 18.875 -17.3125 19.007812 -17.300781 19.1875 -17.28125 C 19.363281 -17.269531 19.597656 -17.265625 19.890625 -17.265625 L 21.1875 -17.28125 C 21.394531 -17.300781 21.703125 -17.3125 22.109375 -17.3125 C 22.160156 -17.3125 22.1875 -17.253906 22.1875 -17.140625 C 22.1875 -17.035156 22.160156 -16.984375 22.109375 -16.984375 C 21.179688 -16.984375 20.519531 -16.847656 20.125 -16.578125 C 19.726562 -16.304688 19.539062 -15.804688 19.5625 -15.078125 L 20.109375 -2.25 C 20.128906 -1.675781 20.195312 -1.257812 20.3125 -1 C 20.4375 -0.738281 20.65625 -0.5625 20.96875 -0.46875 C 21.28125 -0.375 21.789062 -0.328125 22.5 -0.328125 Z M 22.5 -0.328125 "></path></g></g></g><g fill="#000000" fill-opacity="1"><g transform="translate(56.491494, 168.949499)"><g><path d="M 19.359375 -0.328125 C 19.429688 -0.328125 19.46875 -0.269531 19.46875 -0.15625 C 19.46875 -0.0507812 19.429688 0 19.359375 0 C 19.015625 0 18.472656 -0.0195312 17.734375 -0.0625 C 16.992188 -0.09375 16.457031 -0.109375 16.125 -0.109375 C 15.71875 -0.109375 15.203125 -0.09375 14.578125 -0.0625 C 13.984375 -0.0195312 13.53125 0 13.21875 0 C 13.144531 0 13.109375 -0.0507812 13.109375 -0.15625 C 13.109375 -0.269531 13.144531 -0.328125 13.21875 -0.328125 C 13.894531 -0.328125 14.390625 -0.390625 14.703125 -0.515625 C 15.023438 -0.648438 15.1875 -0.875 15.1875 -1.1875 C 15.1875 -1.445312 15.066406 -1.84375 14.828125 -2.375 L 12.359375 -7.625 L 5.765625 -7.625 L 4.015625 -3.515625 C 3.753906 -2.890625 3.625 -2.382812 3.625 -2 C 3.625 -1.425781 3.847656 -1.003906 4.296875 -0.734375 C 4.753906 -0.460938 5.4375 -0.328125 6.34375 -0.328125 C 6.4375 -0.328125 6.484375 -0.269531 6.484375 -0.15625 C 6.484375 -0.0507812 6.4375 0 6.34375 0 C 6.007812 0 5.53125 -0.0195312 4.90625 -0.0625 C 4.195312 -0.09375 3.585938 -0.109375 3.078125 -0.109375 C 2.597656 -0.109375 2.039062 -0.09375 1.40625 -0.0625 C 0.851562 -0.0195312 0.394531 0 0.03125 0 C -0.0625 0 -0.109375 -0.0507812 -0.109375 -0.15625 C -0.109375 -0.269531 -0.0625 -0.328125 0.03125 -0.328125 C 0.539062 -0.328125 0.976562 -0.425781 1.34375 -0.625 C 1.707031 -0.820312 2.050781 -1.160156 2.375 -1.640625 C 2.695312 -2.128906 3.050781 -2.835938 3.4375 -3.765625 L 9.28125 -17.5625 C 9.3125 -17.613281 9.375 -17.640625 9.46875 -17.640625 C 9.5625 -17.640625 9.617188 -17.613281 9.640625 -17.5625 L 16.171875 -3.796875 C 16.804688 -2.429688 17.34375 -1.507812 17.78125 -1.03125 C 18.226562 -0.5625 18.753906 -0.328125 19.359375 -0.328125 Z M 5.984375 -8.171875 L 12.109375 -8.171875 L 8.859375 -15.015625 Z M 5.984375 -8.171875 "></path></g></g></g><g fill="#000000" fill-opacity="1"><g transform="translate(73.999729, 168.949499)"><g><path d="M 5.234375 -16.8125 C 4.066406 -16.8125 3.191406 -16.515625 2.609375 -15.921875 C 2.035156 -15.335938 1.617188 -14.332031 1.359375 -12.90625 C 1.359375 -12.875 1.304688 -12.859375 1.203125 -12.859375 C 1.097656 -12.859375 1.046875 -12.875 1.046875 -12.90625 C 1.117188 -13.570312 1.203125 -14.441406 1.296875 -15.515625 C 1.390625 -16.585938 1.4375 -17.390625 1.4375 -17.921875 C 1.4375 -18.015625 1.488281 -18.0625 1.59375 -18.0625 C 1.695312 -18.0625 1.75 -18.015625 1.75 -17.921875 C 1.75 -17.515625 2.242188 -17.3125 3.234375 -17.3125 C 4.804688 -17.257812 6.664062 -17.234375 8.8125 -17.234375 C 9.894531 -17.234375 11.046875 -17.25 12.265625 -17.28125 L 14.15625 -17.3125 C 14.820312 -17.3125 15.316406 -17.359375 15.640625 -17.453125 C 15.960938 -17.546875 16.171875 -17.726562 16.265625 -18 C 16.285156 -18.082031 16.335938 -18.125 16.421875 -18.125 C 16.515625 -18.125 16.5625 -18.082031 16.5625 -18 C 16.507812 -17.46875 16.453125 -16.65625 16.390625 -15.5625 C 16.335938 -14.476562 16.3125 -13.59375 16.3125 -12.90625 C 16.3125 -12.875 16.253906 -12.859375 16.140625 -12.859375 C 16.035156 -12.859375 15.984375 -12.875 15.984375 -12.90625 C 15.929688 -14.351562 15.632812 -15.363281 15.09375 -15.9375 C 14.5625 -16.519531 13.675781 -16.8125 12.4375 -16.8125 C 11.601562 -16.8125 11.007812 -16.773438 10.65625 -16.703125 C 10.3125 -16.628906 10.070312 -16.472656 9.9375 -16.234375 C 9.8125 -15.992188 9.75 -15.585938 9.75 -15.015625 L 9.75 -2.25 C 9.75 -1.675781 9.8125 -1.257812 9.9375 -1 C 10.070312 -0.738281 10.320312 -0.5625 10.6875 -0.46875 C 11.0625 -0.375 11.644531 -0.328125 12.4375 -0.328125 C 12.488281 -0.328125 12.515625 -0.269531 12.515625 -0.15625 C 12.515625 -0.0507812 12.488281 0 12.4375 0 C 11.832031 0 11.34375 -0.0078125 10.96875 -0.03125 L 8.8125 -0.0625 L 6.734375 -0.03125 C 6.359375 -0.0078125 5.847656 0 5.203125 0 C 5.171875 0 5.15625 -0.0507812 5.15625 -0.15625 C 5.15625 -0.269531 5.171875 -0.328125 5.203125 -0.328125 C 6.003906 -0.328125 6.585938 -0.375 6.953125 -0.46875 C 7.316406 -0.5625 7.566406 -0.738281 7.703125 -1 C 7.847656 -1.269531 7.921875 -1.6875 7.921875 -2.25 L 7.921875 -15.078125 C 7.921875 -15.640625 7.851562 -16.035156 7.71875 -16.265625 C 7.59375 -16.503906 7.351562 -16.65625 7 -16.71875 C 6.65625 -16.78125 6.066406 -16.8125 5.234375 -16.8125 Z M 5.234375 -16.8125 "></path></g></g></g><g fill="#000000" fill-opacity="1"><g transform="translate(91.563501, 168.949499)"><g><path d="M 5.234375 -16.8125 C 4.066406 -16.8125 3.191406 -16.515625 2.609375 -15.921875 C 2.035156 -15.335938 1.617188 -14.332031 1.359375 -12.90625 C 1.359375 -12.875 1.304688 -12.859375 1.203125 -12.859375 C 1.097656 -12.859375 1.046875 -12.875 1.046875 -12.90625 C 1.117188 -13.570312 1.203125 -14.441406 1.296875 -15.515625 C 1.390625 -16.585938 1.4375 -17.390625 1.4375 -17.921875 C 1.4375 -18.015625 1.488281 -18.0625 1.59375 -18.0625 C 1.695312 -18.0625 1.75 -18.015625 1.75 -17.921875 C 1.75 -17.515625 2.242188 -17.3125 3.234375 -17.3125 C 4.804688 -17.257812 6.664062 -17.234375 8.8125 -17.234375 C 9.894531 -17.234375 11.046875 -17.25 12.265625 -17.28125 L 14.15625 -17.3125 C 14.820312 -17.3125 15.316406 -17.359375 15.640625 -17.453125 C 15.960938 -17.546875 16.171875 -17.726562 16.265625 -18 C 16.285156 -18.082031 16.335938 -18.125 16.421875 -18.125 C 16.515625 -18.125 16.5625 -18.082031 16.5625 -18 C 16.507812 -17.46875 16.453125 -16.65625 16.390625 -15.5625 C 16.335938 -14.476562 16.3125 -13.59375 16.3125 -12.90625 C 16.3125 -12.875 16.253906 -12.859375 16.140625 -12.859375 C 16.035156 -12.859375 15.984375 -12.875 15.984375 -12.90625 C 15.929688 -14.351562 15.632812 -15.363281 15.09375 -15.9375 C 14.5625 -16.519531 13.675781 -16.8125 12.4375 -16.8125 C 11.601562 -16.8125 11.007812 -16.773438 10.65625 -16.703125 C 10.3125 -16.628906 10.070312 -16.472656 9.9375 -16.234375 C 9.8125 -15.992188 9.75 -15.585938 9.75 -15.015625 L 9.75 -2.25 C 9.75 -1.675781 9.8125 -1.257812 9.9375 -1 C 10.070312 -0.738281 10.320312 -0.5625 10.6875 -0.46875 C 11.0625 -0.375 11.644531 -0.328125 12.4375 -0.328125 C 12.488281 -0.328125 12.515625 -0.269531 12.515625 -0.15625 C 12.515625 -0.0507812 12.488281 0 12.4375 0 C 11.832031 0 11.34375 -0.0078125 10.96875 -0.03125 L 8.8125 -0.0625 L 6.734375 -0.03125 C 6.359375 -0.0078125 5.847656 0 5.203125 0 C 5.171875 0 5.15625 -0.0507812 5.15625 -0.15625 C 5.15625 -0.269531 5.171875 -0.328125 5.203125 -0.328125 C 6.003906 -0.328125 6.585938 -0.375 6.953125 -0.46875 C 7.316406 -0.5625 7.566406 -0.738281 7.703125 -1 C 7.847656 -1.269531 7.921875 -1.6875 7.921875 -2.25 L 7.921875 -15.078125 C 7.921875 -15.640625 7.851562 -16.035156 7.71875 -16.265625 C 7.59375 -16.503906 7.351562 -16.65625 7 -16.71875 C 6.65625 -16.78125 6.066406 -16.8125 5.234375 -16.8125 Z M 5.234375 -16.8125 "></path></g></g></g><g fill="#000000" fill-opacity="1"><g transform="translate(109.127274, 168.949499)"><g><path d="M 17.0625 -17.3125 C 17.101562 -17.3125 17.125 -17.253906 17.125 -17.140625 C 17.125 -17.035156 17.101562 -16.984375 17.0625 -16.984375 C 16.582031 -16.984375 16.125 -16.804688 15.6875 -16.453125 C 15.257812 -16.097656 14.890625 -15.59375 14.578125 -14.9375 L 9.421875 -3.9375 C 8.878906 -2.769531 8.546875 -2.019531 8.421875 -1.6875 C 8.179688 -1.113281 8.003906 -0.722656 7.890625 -0.515625 C 7.785156 -0.316406 7.664062 -0.179688 7.53125 -0.109375 C 7.40625 -0.0351562 7.222656 0 6.984375 0 L 2.765625 0 C 2.710938 0 2.6875 -0.0507812 2.6875 -0.15625 C 2.6875 -0.269531 2.710938 -0.328125 2.765625 -0.328125 C 4.117188 -0.328125 5.285156 -0.613281 6.265625 -1.1875 C 7.253906 -1.757812 8.054688 -2.675781 8.671875 -3.9375 L 2.6875 -15.015625 C 2.300781 -15.753906 1.941406 -16.265625 1.609375 -16.546875 C 1.273438 -16.835938 0.832031 -16.984375 0.28125 -16.984375 C 0.238281 -16.984375 0.21875 -17.035156 0.21875 -17.140625 C 0.21875 -17.253906 0.238281 -17.3125 0.28125 -17.3125 L 1.390625 -17.28125 C 1.941406 -17.25 2.410156 -17.234375 2.796875 -17.234375 C 3.484375 -17.234375 4.210938 -17.25 4.984375 -17.28125 L 6.125 -17.3125 C 6.15625 -17.3125 6.171875 -17.253906 6.171875 -17.140625 C 6.171875 -17.035156 6.15625 -16.984375 6.125 -16.984375 C 4.976562 -16.984375 4.40625 -16.6875 4.40625 -16.09375 C 4.40625 -15.894531 4.488281 -15.628906 4.65625 -15.296875 L 9.671875 -6.046875 L 13.9375 -15.078125 C 14.101562 -15.398438 14.1875 -15.679688 14.1875 -15.921875 C 14.1875 -16.628906 13.457031 -16.984375 12 -16.984375 C 11.9375 -16.984375 11.90625 -17.035156 11.90625 -17.140625 C 11.90625 -17.253906 11.9375 -17.3125 12 -17.3125 L 13.125 -17.28125 C 13.757812 -17.25 14.332031 -17.234375 14.84375 -17.234375 C 15.15625 -17.234375 15.535156 -17.25 15.984375 -17.28125 Z M 17.0625 -17.3125 "></path></g></g></g><g fill="#000000" fill-opacity="1"><g transform="translate(126.053874, 168.949499)"><g><path d="M 17.0625 -17.3125 C 17.101562 -17.3125 17.125 -17.253906 17.125 -17.140625 C 17.125 -17.035156 17.101562 -16.984375 17.0625 -16.984375 C 16.582031 -16.984375 16.125 -16.804688 15.6875 -16.453125 C 15.257812 -16.097656 14.890625 -15.59375 14.578125 -14.9375 L 9.421875 -3.9375 C 8.878906 -2.769531 8.546875 -2.019531 8.421875 -1.6875 C 8.179688 -1.113281 8.003906 -0.722656 7.890625 -0.515625 C 7.785156 -0.316406 7.664062 -0.179688 7.53125 -0.109375 C 7.40625 -0.0351562 7.222656 0 6.984375 0 L 2.765625 0 C 2.710938 0 2.6875 -0.0507812 2.6875 -0.15625 C 2.6875 -0.269531 2.710938 -0.328125 2.765625 -0.328125 C 4.117188 -0.328125 5.285156 -0.613281 6.265625 -1.1875 C 7.253906 -1.757812 8.054688 -2.675781 8.671875 -3.9375 L 2.6875 -15.015625 C 2.300781 -15.753906 1.941406 -16.265625 1.609375 -16.546875 C 1.273438 -16.835938 0.832031 -16.984375 0.28125 -16.984375 C 0.238281 -16.984375 0.21875 -17.035156 0.21875 -17.140625 C 0.21875 -17.253906 0.238281 -17.3125 0.28125 -17.3125 L 1.390625 -17.28125 C 1.941406 -17.25 2.410156 -17.234375 2.796875 -17.234375 C 3.484375 -17.234375 4.210938 -17.25 4.984375 -17.28125 L 6.125 -17.3125 C 6.15625 -17.3125 6.171875 -17.253906 6.171875 -17.140625 C 6.171875 -17.035156 6.15625 -16.984375 6.125 -16.984375 C 4.976562 -16.984375 4.40625 -16.6875 4.40625 -16.09375 C 4.40625 -15.894531 4.488281 -15.628906 4.65625 -15.296875 L 9.671875 -6.046875 L 13.9375 -15.078125 C 14.101562 -15.398438 14.1875 -15.679688 14.1875 -15.921875 C 14.1875 -16.628906 13.457031 -16.984375 12 -16.984375 C 11.9375 -16.984375 11.90625 -17.035156 11.90625 -17.140625 C 11.90625 -17.253906 11.9375 -17.3125 12 -17.3125 L 13.125 -17.28125 C 13.757812 -17.25 14.332031 -17.234375 14.84375 -17.234375 C 15.15625 -17.234375 15.535156 -17.25 15.984375 -17.28125 Z M 17.0625 -17.3125 "></path></g></g></g><g fill="#000000" fill-opacity="1"><g transform="translate(142.980474, 168.949499)"><g></g></g></g><g fill="#000000" fill-opacity="1"><g transform="translate(149.463002, 168.949499)"><g><path d="M 7.640625 -9.78125 C 11.929688 -9.78125 14.078125 -8.253906 14.078125 -5.203125 C 14.078125 -4.171875 13.835938 -3.25 13.359375 -2.4375 C 12.890625 -1.625 12.226562 -0.992188 11.375 -0.546875 C 10.53125 -0.109375 9.566406 0.109375 8.484375 0.109375 C 7.984375 0.109375 7.398438 0.0820312 6.734375 0.03125 C 6.453125 0.0078125 6.117188 -0.0078125 5.734375 -0.03125 C 5.347656 -0.0507812 4.929688 -0.0625 4.484375 -0.0625 L 2.609375 -0.03125 C 2.273438 -0.0078125 1.800781 0 1.1875 0 C 1.15625 0 1.140625 -0.0507812 1.140625 -0.15625 C 1.140625 -0.269531 1.15625 -0.328125 1.1875 -0.328125 C 1.894531 -0.328125 2.410156 -0.375 2.734375 -0.46875 C 3.066406 -0.5625 3.289062 -0.738281 3.40625 -1 C 3.53125 -1.269531 3.59375 -1.6875 3.59375 -2.25 L 3.59375 -15.078125 C 3.59375 -15.628906 3.535156 -16.03125 3.421875 -16.28125 C 3.316406 -16.539062 3.101562 -16.722656 2.78125 -16.828125 C 2.457031 -16.929688 1.945312 -16.984375 1.25 -16.984375 C 1.1875 -16.984375 1.15625 -17.035156 1.15625 -17.140625 C 1.15625 -17.253906 1.1875 -17.3125 1.25 -17.3125 L 12.15625 -17.3125 C 12.269531 -17.3125 12.34375 -17.285156 12.375 -17.234375 C 12.414062 -17.191406 12.445312 -17.109375 12.46875 -16.984375 L 12.828125 -13.4375 C 12.828125 -13.382812 12.78125 -13.359375 12.6875 -13.359375 C 12.59375 -13.359375 12.53125 -13.382812 12.5 -13.4375 C 12.3125 -14.46875 11.925781 -15.28125 11.34375 -15.875 C 10.757812 -16.46875 10.046875 -16.765625 9.203125 -16.765625 L 7.625 -16.765625 C 6.976562 -16.765625 6.5 -16.710938 6.1875 -16.609375 C 5.882812 -16.503906 5.675781 -16.328125 5.5625 -16.078125 C 5.457031 -15.828125 5.40625 -15.4375 5.40625 -14.90625 L 5.40625 -9.640625 C 6.269531 -9.734375 7.015625 -9.78125 7.640625 -9.78125 Z M 7.921875 -0.390625 C 9.398438 -0.390625 10.472656 -0.722656 11.140625 -1.390625 C 11.804688 -2.066406 12.140625 -3.097656 12.140625 -4.484375 C 12.140625 -6.179688 11.691406 -7.394531 10.796875 -8.125 C 9.910156 -8.851562 8.648438 -9.21875 7.015625 -9.21875 C 6.441406 -9.21875 5.90625 -9.179688 5.40625 -9.109375 L 5.40625 -2.25 C 5.40625 -1.601562 5.570312 -1.128906 5.90625 -0.828125 C 6.238281 -0.535156 6.910156 -0.390625 7.921875 -0.390625 Z M 7.921875 -0.390625 "></path></g></g></g><g fill="#000000" fill-opacity="1"><g transform="translate(164.921337, 168.949499)"><g><path d="M 20.28125 -0.328125 C 20.332031 -0.328125 20.359375 -0.269531 20.359375 -0.15625 C 20.359375 -0.0507812 20.332031 0 20.28125 0 C 19.707031 0 19.242188 -0.0078125 18.890625 -0.03125 L 16.984375 -0.0625 L 14.953125 -0.03125 C 14.628906 -0.0078125 14.195312 0 13.65625 0 C 13.601562 0 13.578125 -0.0507812 13.578125 -0.15625 C 13.578125 -0.269531 13.601562 -0.328125 13.65625 -0.328125 C 14.375 -0.328125 14.898438 -0.375 15.234375 -0.46875 C 15.566406 -0.5625 15.785156 -0.738281 15.890625 -1 C 16.003906 -1.257812 16.0625 -1.675781 16.0625 -2.25 L 16.0625 -15.015625 L 4.15625 0.25 C 4.101562 0.320312 3.992188 0.359375 3.828125 0.359375 C 3.546875 0.359375 3.40625 0.296875 3.40625 0.171875 L 3.40625 -15.078125 C 3.40625 -15.628906 3.34375 -16.03125 3.21875 -16.28125 C 3.101562 -16.539062 2.875 -16.722656 2.53125 -16.828125 C 2.1875 -16.929688 1.664062 -16.984375 0.96875 -16.984375 C 0.9375 -16.984375 0.921875 -17.035156 0.921875 -17.140625 C 0.921875 -17.253906 0.9375 -17.3125 0.96875 -17.3125 L 2.40625 -17.28125 C 3.1875 -17.25 3.816406 -17.234375 4.296875 -17.234375 C 4.828125 -17.234375 5.5 -17.25 6.3125 -17.28125 L 7.625 -17.3125 C 7.675781 -17.3125 7.703125 -17.253906 7.703125 -17.140625 C 7.703125 -17.035156 7.675781 -16.984375 7.625 -16.984375 C 6.894531 -16.984375 6.363281 -16.929688 6.03125 -16.828125 C 5.707031 -16.722656 5.488281 -16.539062 5.375 -16.28125 C 5.257812 -16.03125 5.203125 -15.628906 5.203125 -15.078125 L 5.203125 -2.140625 L 17.140625 -17.453125 C 17.203125 -17.503906 17.304688 -17.53125 17.453125 -17.53125 C 17.734375 -17.53125 17.875 -17.46875 17.875 -17.34375 L 17.875 -2.25 C 17.875 -1.6875 17.929688 -1.269531 18.046875 -1 C 18.171875 -0.738281 18.394531 -0.5625 18.71875 -0.46875 C 19.050781 -0.375 19.570312 -0.328125 20.28125 -0.328125 Z M 20.28125 -0.328125 "></path></g></g></g><g fill="#000000" fill-opacity="1"><g transform="translate(186.225027, 168.949499)"><g><path d="M 8.203125 -9.3125 C 9.492188 -9.21875 10.539062 -8.769531 11.34375 -7.96875 C 12.144531 -7.175781 12.546875 -6.171875 12.546875 -4.953125 C 12.546875 -3.941406 12.265625 -3.035156 11.703125 -2.234375 C 11.140625 -1.429688 10.378906 -0.800781 9.421875 -0.34375 C 8.460938 0.101562 7.398438 0.328125 6.234375 0.328125 C 5.472656 0.328125 4.726562 0.234375 4 0.046875 C 3.269531 -0.128906 2.703125 -0.382812 2.296875 -0.71875 C 2.128906 -0.8125 2.023438 -0.890625 1.984375 -0.953125 C 1.953125 -1.015625 1.925781 -1.148438 1.90625 -1.359375 L 1.578125 -4.4375 C 1.578125 -4.488281 1.628906 -4.523438 1.734375 -4.546875 C 1.835938 -4.566406 1.894531 -4.546875 1.90625 -4.484375 C 2.164062 -2.992188 2.765625 -1.890625 3.703125 -1.171875 C 4.648438 -0.460938 5.6875 -0.109375 6.8125 -0.109375 C 8.050781 -0.109375 8.96875 -0.523438 9.5625 -1.359375 C 10.164062 -2.191406 10.46875 -3.222656 10.46875 -4.453125 C 10.46875 -5.953125 10.046875 -7.082031 9.203125 -7.84375 C 8.367188 -8.613281 7.15625 -9 5.5625 -9 C 5.488281 -9 5.453125 -9.050781 5.453125 -9.15625 C 5.453125 -9.269531 5.488281 -9.328125 5.5625 -9.328125 C 7.007812 -9.328125 8.097656 -9.675781 8.828125 -10.375 C 9.554688 -11.082031 9.921875 -12.046875 9.921875 -13.265625 C 9.921875 -14.484375 9.613281 -15.453125 9 -16.171875 C 8.394531 -16.898438 7.582031 -17.265625 6.5625 -17.265625 C 5.601562 -17.265625 4.75 -16.90625 4 -16.1875 C 3.25 -15.476562 2.691406 -14.429688 2.328125 -13.046875 C 2.328125 -13.015625 2.289062 -13 2.21875 -13 C 2.175781 -13 2.128906 -13.007812 2.078125 -13.03125 C 2.035156 -13.0625 2.015625 -13.085938 2.015625 -13.109375 L 2.40625 -16.234375 C 2.445312 -16.453125 2.484375 -16.597656 2.515625 -16.671875 C 2.554688 -16.742188 2.660156 -16.8125 2.828125 -16.875 C 4.242188 -17.375 5.609375 -17.625 6.921875 -17.625 C 8.492188 -17.625 9.695312 -17.257812 10.53125 -16.53125 C 11.375 -15.8125 11.796875 -14.914062 11.796875 -13.84375 C 11.796875 -12.832031 11.429688 -11.90625 10.703125 -11.0625 C 9.972656 -10.226562 9.140625 -9.644531 8.203125 -9.3125 Z M 8.203125 -9.3125 "></path></g></g></g><g fill="#000000" fill-opacity="1"><g transform="translate(200.131978, 168.949499)"><g><path d="M 18.609375 -0.640625 C 18.765625 -0.640625 18.851562 -0.625 18.875 -0.59375 C 18.90625 -0.5625 18.921875 -0.472656 18.921875 -0.328125 C 18.921875 -0.234375 18.898438 0.015625 18.859375 0.421875 C 18.734375 1.453125 18.671875 2.734375 18.671875 4.265625 C 18.671875 4.359375 18.613281 4.40625 18.5 4.40625 C 18.394531 4.40625 18.34375 4.359375 18.34375 4.265625 C 18.34375 2.785156 17.976562 1.703125 17.25 1.015625 C 16.53125 0.335938 15.351562 0 13.71875 0 L 5.265625 0 C 2.660156 0 1.359375 1.421875 1.359375 4.265625 C 1.359375 4.359375 1.304688 4.40625 1.203125 4.40625 C 1.097656 4.40625 1.046875 4.359375 1.046875 4.265625 C 1.046875 2.765625 0.972656 1.570312 0.828125 0.6875 C 0.773438 0.34375 0.75 0.00390625 0.75 -0.328125 C 0.75 -0.472656 0.765625 -0.5625 0.796875 -0.59375 C 0.835938 -0.625 0.921875 -0.640625 1.046875 -0.640625 L 2.796875 -0.640625 L 9.71875 -17.5625 C 9.738281 -17.613281 9.800781 -17.640625 9.90625 -17.640625 C 10.007812 -17.640625 10.066406 -17.613281 10.078125 -17.5625 L 17.125 -0.640625 Z M 3.515625 -0.640625 L 15.1875 -0.640625 L 9.3125 -14.828125 Z M 3.515625 -0.640625 "></path></g></g></g><g fill="#000000" fill-opacity="1"><g transform="translate(219.801189, 168.949499)"><g><path d="M 20.28125 -0.328125 C 20.332031 -0.328125 20.359375 -0.269531 20.359375 -0.15625 C 20.359375 -0.0507812 20.332031 0 20.28125 0 C 19.707031 0 19.242188 -0.0078125 18.890625 -0.03125 L 16.984375 -0.0625 L 14.953125 -0.03125 C 14.628906 -0.0078125 14.195312 0 13.65625 0 C 13.601562 0 13.578125 -0.0507812 13.578125 -0.15625 C 13.578125 -0.269531 13.601562 -0.328125 13.65625 -0.328125 C 14.375 -0.328125 14.898438 -0.375 15.234375 -0.46875 C 15.566406 -0.5625 15.785156 -0.738281 15.890625 -1 C 16.003906 -1.257812 16.0625 -1.675781 16.0625 -2.25 L 16.0625 -15.015625 L 4.15625 0.25 C 4.101562 0.320312 3.992188 0.359375 3.828125 0.359375 C 3.546875 0.359375 3.40625 0.296875 3.40625 0.171875 L 3.40625 -15.078125 C 3.40625 -15.628906 3.34375 -16.03125 3.21875 -16.28125 C 3.101562 -16.539062 2.875 -16.722656 2.53125 -16.828125 C 2.1875 -16.929688 1.664062 -16.984375 0.96875 -16.984375 C 0.9375 -16.984375 0.921875 -17.035156 0.921875 -17.140625 C 0.921875 -17.253906 0.9375 -17.3125 0.96875 -17.3125 L 2.40625 -17.28125 C 3.1875 -17.25 3.816406 -17.234375 4.296875 -17.234375 C 4.828125 -17.234375 5.5 -17.25 6.3125 -17.28125 L 7.625 -17.3125 C 7.675781 -17.3125 7.703125 -17.253906 7.703125 -17.140625 C 7.703125 -17.035156 7.675781 -16.984375 7.625 -16.984375 C 6.894531 -16.984375 6.363281 -16.929688 6.03125 -16.828125 C 5.707031 -16.722656 5.488281 -16.539062 5.375 -16.28125 C 5.257812 -16.03125 5.203125 -15.628906 5.203125 -15.078125 L 5.203125 -2.140625 L 17.140625 -17.453125 C 17.203125 -17.503906 17.304688 -17.53125 17.453125 -17.53125 C 17.734375 -17.53125 17.875 -17.46875 17.875 -17.34375 L 17.875 -2.25 C 17.875 -1.6875 17.929688 -1.269531 18.046875 -1 C 18.171875 -0.738281 18.394531 -0.5625 18.71875 -0.46875 C 19.050781 -0.375 19.570312 -0.328125 20.28125 -0.328125 Z M 20.28125 -0.328125 "></path></g></g></g><g fill="#000000" fill-opacity="1"><g transform="translate(241.10489, 168.949499)"><g><path d="M 20 -0.328125 C 20.050781 -0.328125 20.078125 -0.269531 20.078125 -0.15625 C 20.078125 -0.0507812 20.050781 0 20 0 C 19.425781 0 18.972656 -0.0078125 18.640625 -0.03125 L 16.734375 -0.0625 L 14.6875 -0.03125 C 14.375 -0.0078125 13.9375 0 13.375 0 C 13.320312 0 13.296875 -0.0507812 13.296875 -0.15625 C 13.296875 -0.269531 13.320312 -0.328125 13.375 -0.328125 C 14.101562 -0.328125 14.628906 -0.375 14.953125 -0.46875 C 15.285156 -0.5625 15.507812 -0.738281 15.625 -1 C 15.75 -1.269531 15.8125 -1.6875 15.8125 -2.25 L 15.8125 -8.71875 L 5.1875 -8.71875 L 5.1875 -2.25 C 5.1875 -1.6875 5.242188 -1.269531 5.359375 -1 C 5.484375 -0.738281 5.707031 -0.5625 6.03125 -0.46875 C 6.363281 -0.375 6.894531 -0.328125 7.625 -0.328125 C 7.65625 -0.328125 7.671875 -0.269531 7.671875 -0.15625 C 7.671875 -0.0507812 7.65625 0 7.625 0 C 7.050781 0 6.597656 -0.0078125 6.265625 -0.03125 L 4.265625 -0.0625 L 2.359375 -0.03125 C 2.023438 -0.0078125 1.5625 0 0.96875 0 C 0.9375 0 0.921875 -0.0507812 0.921875 -0.15625 C 0.921875 -0.269531 0.9375 -0.328125 0.96875 -0.328125 C 1.664062 -0.328125 2.1875 -0.375 2.53125 -0.46875 C 2.875 -0.5625 3.101562 -0.738281 3.21875 -1 C 3.34375 -1.269531 3.40625 -1.6875 3.40625 -2.25 L 3.40625 -15.078125 C 3.40625 -15.628906 3.34375 -16.03125 3.21875 -16.28125 C 3.101562 -16.539062 2.878906 -16.722656 2.546875 -16.828125 C 2.210938 -16.929688 1.695312 -16.984375 1 -16.984375 C 0.957031 -16.984375 0.9375 -17.035156 0.9375 -17.140625 C 0.9375 -17.253906 0.957031 -17.3125 1 -17.3125 L 2.40625 -17.28125 C 3.1875 -17.25 3.804688 -17.234375 4.265625 -17.234375 C 4.796875 -17.234375 5.46875 -17.25 6.28125 -17.28125 L 7.625 -17.3125 C 7.65625 -17.3125 7.671875 -17.253906 7.671875 -17.140625 C 7.671875 -17.035156 7.65625 -16.984375 7.625 -16.984375 C 6.914062 -16.984375 6.390625 -16.925781 6.046875 -16.8125 C 5.710938 -16.707031 5.484375 -16.519531 5.359375 -16.25 C 5.242188 -15.976562 5.1875 -15.566406 5.1875 -15.015625 L 5.1875 -9.3125 L 15.8125 -9.3125 L 15.8125 -15.015625 C 15.8125 -15.566406 15.75 -15.976562 15.625 -16.25 C 15.507812 -16.519531 15.285156 -16.707031 14.953125 -16.8125 C 14.628906 -16.925781 14.101562 -16.984375 13.375 -16.984375 C 13.320312 -16.984375 13.296875 -17.035156 13.296875 -17.140625 C 13.296875 -17.253906 13.320312 -17.3125 13.375 -17.3125 L 14.6875 -17.28125 C 15.5 -17.25 16.179688 -17.234375 16.734375 -17.234375 C 17.234375 -17.234375 17.867188 -17.25 18.640625 -17.28125 L 20 -17.3125 C 20.050781 -17.3125 20.078125 -17.253906 20.078125 -17.140625 C 20.078125 -17.035156 20.050781 -16.984375 20 -16.984375 C 19.300781 -16.984375 18.785156 -16.929688 18.453125 -16.828125 C 18.117188 -16.722656 17.890625 -16.539062 17.765625 -16.28125 C 17.648438 -16.03125 17.59375 -15.628906 17.59375 -15.078125 L 17.59375 -2.25 C 17.59375 -1.6875 17.648438 -1.269531 17.765625 -1 C 17.890625 -0.738281 18.117188 -0.5625 18.453125 -0.46875 C 18.785156 -0.375 19.300781 -0.328125 20 -0.328125 Z M 20 -0.328125 "></path></g></g></g><g fill="#000000" fill-opacity="1"><g transform="translate(262.139637, 168.949499)"><g></g></g></g><g fill="#000000" fill-opacity="1"><g transform="translate(11.38184, 198.949496)"><g><path d="M 27.203125 -0.328125 C 27.242188 -0.328125 27.265625 -0.269531 27.265625 -0.15625 C 27.265625 -0.0507812 27.242188 0 27.203125 0 L 23.6875 0 C 23.46875 0 23.273438 -0.0664062 23.109375 -0.203125 C 22.941406 -0.347656 22.65625 -0.707031 22.25 -1.28125 C 21.851562 -1.863281 21.113281 -2.988281 20.03125 -4.65625 C 19.175781 -5.96875 18.554688 -6.875 18.171875 -7.375 C 17.785156 -7.882812 17.382812 -8.234375 16.96875 -8.421875 C 16.550781 -8.617188 15.972656 -8.71875 15.234375 -8.71875 L 14.625 -8.703125 L 14.625 -2.25 C 14.625 -1.675781 14.675781 -1.257812 14.78125 -1 C 14.894531 -0.738281 15.113281 -0.5625 15.4375 -0.46875 C 15.757812 -0.375 16.285156 -0.328125 17.015625 -0.328125 C 17.066406 -0.328125 17.09375 -0.269531 17.09375 -0.15625 C 17.09375 -0.0507812 17.066406 0 17.015625 0 C 16.441406 0 15.988281 -0.0078125 15.65625 -0.03125 L 13.6875 -0.0625 L 11.796875 -0.03125 C 11.460938 -0.0078125 11.003906 0 10.421875 0 C 10.378906 0 10.359375 -0.0507812 10.359375 -0.15625 C 10.359375 -0.269531 10.378906 -0.328125 10.421875 -0.328125 C 11.140625 -0.328125 11.664062 -0.375 12 -0.46875 C 12.332031 -0.5625 12.554688 -0.738281 12.671875 -1 C 12.796875 -1.269531 12.859375 -1.6875 12.859375 -2.25 L 12.859375 -8.671875 C 12.523438 -8.703125 12.289062 -8.71875 12.15625 -8.71875 C 11.4375 -8.71875 10.867188 -8.617188 10.453125 -8.421875 C 10.035156 -8.234375 9.628906 -7.890625 9.234375 -7.390625 C 8.835938 -6.898438 8.21875 -6.003906 7.375 -4.703125 L 6.8125 -3.828125 C 6.132812 -2.753906 5.582031 -1.90625 5.15625 -1.28125 C 4.726562 -0.664062 4.441406 -0.296875 4.296875 -0.171875 C 4.148438 -0.0546875 3.960938 0 3.734375 0 L 0.25 0 C 0.207031 0 0.1875 -0.0507812 0.1875 -0.15625 C 0.1875 -0.269531 0.207031 -0.328125 0.25 -0.328125 C 0.945312 -0.347656 1.566406 -0.53125 2.109375 -0.875 C 2.660156 -1.21875 3.191406 -1.707031 3.703125 -2.34375 C 4.222656 -2.976562 4.910156 -3.929688 5.765625 -5.203125 C 6.742188 -6.703125 7.429688 -7.6875 7.828125 -8.15625 C 8.222656 -8.625 8.679688 -8.9375 9.203125 -9.09375 L 5.953125 -13.875 C 5.179688 -15.019531 4.421875 -15.820312 3.671875 -16.28125 C 2.921875 -16.75 2.03125 -16.984375 1 -16.984375 C 0.957031 -16.984375 0.9375 -17.035156 0.9375 -17.140625 C 0.9375 -17.253906 0.957031 -17.3125 1 -17.3125 L 2.015625 -17.28125 C 2.679688 -17.25 3.320312 -17.234375 3.9375 -17.234375 C 4.539062 -17.234375 5.210938 -17.25 5.953125 -17.28125 L 7.234375 -17.3125 C 7.285156 -17.3125 7.3125 -17.253906 7.3125 -17.140625 C 7.3125 -17.035156 7.285156 -16.984375 7.234375 -16.984375 C 6.710938 -16.984375 6.335938 -16.929688 6.109375 -16.828125 C 5.878906 -16.722656 5.765625 -16.550781 5.765625 -16.3125 C 5.765625 -16.09375 5.859375 -15.796875 6.046875 -15.421875 C 6.242188 -15.054688 6.554688 -14.523438 6.984375 -13.828125 L 9.78125 -9.171875 C 9.96875 -9.203125 10.289062 -9.21875 10.75 -9.21875 L 12.265625 -9.203125 C 12.378906 -9.179688 12.578125 -9.171875 12.859375 -9.171875 L 12.859375 -15.078125 C 12.859375 -15.609375 12.78125 -16.003906 12.625 -16.265625 C 12.46875 -16.535156 12.203125 -16.722656 11.828125 -16.828125 C 11.460938 -16.929688 10.914062 -16.984375 10.1875 -16.984375 C 10.15625 -16.984375 10.140625 -17.035156 10.140625 -17.140625 C 10.140625 -17.253906 10.15625 -17.3125 10.1875 -17.3125 L 11.6875 -17.28125 C 12.539062 -17.25 13.207031 -17.234375 13.6875 -17.234375 C 14.21875 -17.234375 14.925781 -17.25 15.8125 -17.28125 L 17.28125 -17.3125 C 17.320312 -17.3125 17.34375 -17.253906 17.34375 -17.140625 C 17.34375 -17.035156 17.320312 -16.984375 17.28125 -16.984375 C 16.582031 -16.984375 16.039062 -16.925781 15.65625 -16.8125 C 15.28125 -16.707031 15.015625 -16.515625 14.859375 -16.234375 C 14.703125 -15.953125 14.625 -15.546875 14.625 -15.015625 L 14.625 -9.171875 C 15.769531 -9.203125 16.453125 -9.21875 16.671875 -9.21875 C 17.140625 -9.21875 17.460938 -9.210938 17.640625 -9.203125 L 20.4375 -13.796875 C 20.863281 -14.484375 21.171875 -15.019531 21.359375 -15.40625 C 21.554688 -15.789062 21.65625 -16.09375 21.65625 -16.3125 C 21.65625 -16.550781 21.546875 -16.722656 21.328125 -16.828125 C 21.109375 -16.929688 20.738281 -16.984375 20.21875 -16.984375 C 20.164062 -16.984375 20.140625 -17.035156 20.140625 -17.140625 C 20.140625 -17.253906 20.164062 -17.3125 20.21875 -17.3125 L 21.5 -17.28125 C 22.238281 -17.25 22.910156 -17.234375 23.515625 -17.234375 C 24.128906 -17.234375 24.769531 -17.25 25.4375 -17.28125 L 26.453125 -17.3125 C 26.492188 -17.3125 26.515625 -17.253906 26.515625 -17.140625 C 26.515625 -17.035156 26.492188 -16.984375 26.453125 -16.984375 C 25.421875 -16.984375 24.53125 -16.75 23.78125 -16.28125 C 23.03125 -15.820312 22.269531 -15.019531 21.5 -13.875 L 18.234375 -9.09375 C 18.734375 -8.957031 19.164062 -8.675781 19.53125 -8.25 C 19.894531 -7.832031 20.503906 -6.984375 21.359375 -5.703125 L 21.6875 -5.203125 C 22.539062 -3.929688 23.222656 -2.976562 23.734375 -2.34375 C 24.253906 -1.707031 24.785156 -1.21875 25.328125 -0.875 C 25.878906 -0.53125 26.503906 -0.347656 27.203125 -0.328125 Z M 27.203125 -0.328125 "></path></g></g></g><g fill="#000000" fill-opacity="1"><g transform="translate(38.835619, 198.949496)"><g><path d="M 19.359375 -0.328125 C 19.429688 -0.328125 19.46875 -0.269531 19.46875 -0.15625 C 19.46875 -0.0507812 19.429688 0 19.359375 0 C 19.015625 0 18.472656 -0.0195312 17.734375 -0.0625 C 16.992188 -0.09375 16.457031 -0.109375 16.125 -0.109375 C 15.71875 -0.109375 15.203125 -0.09375 14.578125 -0.0625 C 13.984375 -0.0195312 13.53125 0 13.21875 0 C 13.144531 0 13.109375 -0.0507812 13.109375 -0.15625 C 13.109375 -0.269531 13.144531 -0.328125 13.21875 -0.328125 C 13.894531 -0.328125 14.390625 -0.390625 14.703125 -0.515625 C 15.023438 -0.648438 15.1875 -0.875 15.1875 -1.1875 C 15.1875 -1.445312 15.066406 -1.84375 14.828125 -2.375 L 12.359375 -7.625 L 5.765625 -7.625 L 4.015625 -3.515625 C 3.753906 -2.890625 3.625 -2.382812 3.625 -2 C 3.625 -1.425781 3.847656 -1.003906 4.296875 -0.734375 C 4.753906 -0.460938 5.4375 -0.328125 6.34375 -0.328125 C 6.4375 -0.328125 6.484375 -0.269531 6.484375 -0.15625 C 6.484375 -0.0507812 6.4375 0 6.34375 0 C 6.007812 0 5.53125 -0.0195312 4.90625 -0.0625 C 4.195312 -0.09375 3.585938 -0.109375 3.078125 -0.109375 C 2.597656 -0.109375 2.039062 -0.09375 1.40625 -0.0625 C 0.851562 -0.0195312 0.394531 0 0.03125 0 C -0.0625 0 -0.109375 -0.0507812 -0.109375 -0.15625 C -0.109375 -0.269531 -0.0625 -0.328125 0.03125 -0.328125 C 0.539062 -0.328125 0.976562 -0.425781 1.34375 -0.625 C 1.707031 -0.820312 2.050781 -1.160156 2.375 -1.640625 C 2.695312 -2.128906 3.050781 -2.835938 3.4375 -3.765625 L 9.28125 -17.5625 C 9.3125 -17.613281 9.375 -17.640625 9.46875 -17.640625 C 9.5625 -17.640625 9.617188 -17.613281 9.640625 -17.5625 L 16.171875 -3.796875 C 16.804688 -2.429688 17.34375 -1.507812 17.78125 -1.03125 C 18.226562 -0.5625 18.753906 -0.328125 19.359375 -0.328125 Z M 5.984375 -8.171875 L 12.109375 -8.171875 L 8.859375 -15.015625 Z M 5.984375 -8.171875 "></path></g></g></g><g fill="#000000" fill-opacity="1"><g transform="translate(58.283204, 198.949496)"><g><path d="M 17.953125 -0.328125 C 17.984375 -0.328125 18 -0.269531 18 -0.15625 C 18 -0.0507812 17.984375 0 17.953125 0 L 14.46875 0 C 14.207031 0 13.976562 -0.0664062 13.78125 -0.203125 C 13.582031 -0.347656 13.257812 -0.710938 12.8125 -1.296875 C 12.375 -1.890625 11.582031 -3.007812 10.4375 -4.65625 C 9.539062 -5.945312 8.890625 -6.84375 8.484375 -7.34375 C 8.078125 -7.84375 7.660156 -8.195312 7.234375 -8.40625 C 6.804688 -8.613281 6.234375 -8.71875 5.515625 -8.71875 C 5.347656 -8.71875 5.226562 -8.710938 5.15625 -8.703125 L 5.15625 -2.25 C 5.15625 -1.6875 5.210938 -1.269531 5.328125 -1 C 5.453125 -0.738281 5.675781 -0.5625 6 -0.46875 C 6.320312 -0.375 6.84375 -0.328125 7.5625 -0.328125 C 7.601562 -0.328125 7.625 -0.269531 7.625 -0.15625 C 7.625 -0.0507812 7.601562 0 7.5625 0 C 6.988281 0 6.535156 -0.0078125 6.203125 -0.03125 L 4.203125 -0.0625 L 2.328125 -0.03125 C 1.992188 -0.0078125 1.53125 0 0.9375 0 C 0.90625 0 0.890625 -0.0507812 0.890625 -0.15625 C 0.890625 -0.269531 0.90625 -0.328125 0.9375 -0.328125 C 1.644531 -0.328125 2.160156 -0.375 2.484375 -0.46875 C 2.816406 -0.5625 3.046875 -0.738281 3.171875 -1 C 3.296875 -1.269531 3.359375 -1.6875 3.359375 -2.25 L 3.359375 -15.078125 C 3.359375 -15.628906 3.296875 -16.03125 3.171875 -16.28125 C 3.046875 -16.539062 2.820312 -16.722656 2.5 -16.828125 C 2.175781 -16.929688 1.664062 -16.984375 0.96875 -16.984375 C 0.9375 -16.984375 0.921875 -17.035156 0.921875 -17.140625 C 0.921875 -17.253906 0.9375 -17.3125 0.96875 -17.3125 L 2.328125 -17.28125 C 3.097656 -17.25 3.722656 -17.234375 4.203125 -17.234375 C 4.742188 -17.234375 5.421875 -17.25 6.234375 -17.28125 L 7.5625 -17.3125 C 7.601562 -17.3125 7.625 -17.253906 7.625 -17.140625 C 7.625 -17.035156 7.601562 -16.984375 7.5625 -16.984375 C 6.863281 -16.984375 6.347656 -16.925781 6.015625 -16.8125 C 5.679688 -16.707031 5.453125 -16.519531 5.328125 -16.25 C 5.210938 -15.976562 5.15625 -15.566406 5.15625 -15.015625 L 5.15625 -9.171875 C 6.15625 -9.203125 6.773438 -9.21875 7.015625 -9.21875 L 7.53125 -9.21875 L 10.890625 -13.90625 C 11.722656 -15.050781 12.140625 -15.847656 12.140625 -16.296875 C 12.140625 -16.535156 12.019531 -16.707031 11.78125 -16.8125 C 11.550781 -16.925781 11.195312 -16.984375 10.71875 -16.984375 C 10.6875 -16.984375 10.671875 -17.035156 10.671875 -17.140625 C 10.671875 -17.253906 10.6875 -17.3125 10.71875 -17.3125 L 11.90625 -17.28125 C 12.613281 -17.25 13.269531 -17.234375 13.875 -17.234375 C 14.507812 -17.234375 15.15625 -17.25 15.8125 -17.28125 L 16.8125 -17.3125 C 16.875 -17.3125 16.90625 -17.253906 16.90625 -17.140625 C 16.90625 -17.035156 16.875 -16.984375 16.8125 -16.984375 C 15.851562 -16.984375 15.003906 -16.742188 14.265625 -16.265625 C 13.523438 -15.796875 12.734375 -15 11.890625 -13.875 L 8.171875 -9.140625 C 8.648438 -9.066406 9.066406 -8.898438 9.421875 -8.640625 C 9.773438 -8.378906 10.113281 -8.03125 10.4375 -7.59375 C 10.769531 -7.164062 11.351562 -6.367188 12.1875 -5.203125 C 13.050781 -3.984375 13.75 -3.050781 14.28125 -2.40625 C 14.820312 -1.757812 15.390625 -1.253906 15.984375 -0.890625 C 16.578125 -0.535156 17.234375 -0.347656 17.953125 -0.328125 Z M 17.953125 -0.328125 "></path></g></g></g><g fill="#000000" fill-opacity="1"><g transform="translate(76.484138, 198.949496)"><g><path d="M 8.5 -9.78125 C 10.257812 -9.78125 11.628906 -9.425781 12.609375 -8.71875 C 13.585938 -8.019531 14.078125 -6.859375 14.078125 -5.234375 C 14.078125 -4.179688 13.835938 -3.25 13.359375 -2.4375 C 12.890625 -1.625 12.226562 -0.992188 11.375 -0.546875 C 10.53125 -0.109375 9.566406 0.109375 8.484375 0.109375 C 7.992188 0.109375 7.421875 0.0820312 6.765625 0.03125 C 6.503906 0.0078125 6.175781 -0.0078125 5.78125 -0.03125 C 5.382812 -0.0507812 4.941406 -0.0625 4.453125 -0.0625 L 2.625 -0.03125 C 2.28125 -0.0078125 1.800781 0 1.1875 0 C 1.15625 0 1.140625 -0.0507812 1.140625 -0.15625 C 1.140625 -0.269531 1.15625 -0.328125 1.1875 -0.328125 C 1.894531 -0.347656 2.410156 -0.40625 2.734375 -0.5 C 3.066406 -0.59375 3.289062 -0.765625 3.40625 -1.015625 C 3.53125 -1.273438 3.59375 -1.6875 3.59375 -2.25 L 3.59375 -15.078125 C 3.59375 -15.628906 3.535156 -16.03125 3.421875 -16.28125 C 3.316406 -16.539062 3.101562 -16.71875 2.78125 -16.8125 C 2.457031 -16.90625 1.945312 -16.960938 1.25 -16.984375 C 1.1875 -16.984375 1.15625 -17.035156 1.15625 -17.140625 C 1.15625 -17.253906 1.1875 -17.3125 1.25 -17.3125 L 2.578125 -17.28125 C 3.316406 -17.25 3.941406 -17.234375 4.453125 -17.234375 C 4.992188 -17.234375 5.671875 -17.25 6.484375 -17.28125 L 7.84375 -17.3125 C 7.875 -17.3125 7.890625 -17.253906 7.890625 -17.140625 C 7.890625 -17.035156 7.875 -16.984375 7.84375 -16.984375 C 7.125 -16.960938 6.597656 -16.90625 6.265625 -16.8125 C 5.929688 -16.71875 5.703125 -16.535156 5.578125 -16.265625 C 5.460938 -16.003906 5.40625 -15.585938 5.40625 -15.015625 L 5.40625 -9.46875 C 6.457031 -9.675781 7.488281 -9.78125 8.5 -9.78125 Z M 22.25 -0.328125 C 22.300781 -0.328125 22.328125 -0.269531 22.328125 -0.15625 C 22.328125 -0.0507812 22.300781 0 22.25 0 C 21.695312 0 21.253906 -0.0078125 20.921875 -0.03125 L 18.953125 -0.0625 L 17.03125 -0.03125 C 16.695312 -0.0078125 16.25 0 15.6875 0 C 15.625 0 15.59375 -0.0507812 15.59375 -0.15625 C 15.59375 -0.269531 15.625 -0.328125 15.6875 -0.328125 C 16.382812 -0.328125 16.894531 -0.375 17.21875 -0.46875 C 17.539062 -0.5625 17.757812 -0.738281 17.875 -1 C 18 -1.269531 18.0625 -1.6875 18.0625 -2.25 L 18.0625 -15.078125 C 18.0625 -15.628906 18 -16.03125 17.875 -16.28125 C 17.757812 -16.539062 17.539062 -16.722656 17.21875 -16.828125 C 16.894531 -16.929688 16.382812 -16.984375 15.6875 -16.984375 C 15.625 -16.984375 15.59375 -17.035156 15.59375 -17.140625 C 15.59375 -17.253906 15.625 -17.3125 15.6875 -17.3125 L 17.03125 -17.28125 C 17.8125 -17.25 18.453125 -17.234375 18.953125 -17.234375 C 19.503906 -17.234375 20.164062 -17.25 20.9375 -17.28125 L 22.25 -17.3125 C 22.300781 -17.3125 22.328125 -17.253906 22.328125 -17.140625 C 22.328125 -17.035156 22.300781 -16.984375 22.25 -16.984375 C 21.5625 -16.984375 21.054688 -16.925781 20.734375 -16.8125 C 20.410156 -16.707031 20.1875 -16.519531 20.0625 -16.25 C 19.945312 -15.976562 19.890625 -15.566406 19.890625 -15.015625 L 19.890625 -2.25 C 19.890625 -1.6875 19.941406 -1.269531 20.046875 -1 C 20.160156 -0.738281 20.378906 -0.5625 20.703125 -0.46875 C 21.023438 -0.375 21.539062 -0.328125 22.25 -0.328125 Z M 7.921875 -0.390625 C 9.421875 -0.390625 10.5 -0.722656 11.15625 -1.390625 C 11.8125 -2.066406 12.140625 -3.128906 12.140625 -4.578125 C 12.140625 -6.234375 11.769531 -7.421875 11.03125 -8.140625 C 10.289062 -8.859375 9.21875 -9.21875 7.8125 -9.21875 C 7.09375 -9.21875 6.289062 -9.128906 5.40625 -8.953125 L 5.40625 -2.25 C 5.40625 -1.601562 5.570312 -1.128906 5.90625 -0.828125 C 6.238281 -0.535156 6.910156 -0.390625 7.921875 -0.390625 Z M 7.921875 -0.390625 "></path></g></g></g><g fill="#000000" fill-opacity="1"><g transform="translate(100.05948, 198.949496)"><g><path d="M 20 -0.328125 C 20.050781 -0.328125 20.078125 -0.269531 20.078125 -0.15625 C 20.078125 -0.0507812 20.050781 0 20 0 C 19.425781 0 18.972656 -0.0078125 18.640625 -0.03125 L 16.734375 -0.0625 L 14.6875 -0.03125 C 14.375 -0.0078125 13.9375 0 13.375 0 C 13.320312 0 13.296875 -0.0507812 13.296875 -0.15625 C 13.296875 -0.269531 13.320312 -0.328125 13.375 -0.328125 C 14.101562 -0.328125 14.628906 -0.375 14.953125 -0.46875 C 15.285156 -0.5625 15.507812 -0.738281 15.625 -1 C 15.75 -1.269531 15.8125 -1.6875 15.8125 -2.25 L 15.8125 -8.71875 L 5.1875 -8.71875 L 5.1875 -2.25 C 5.1875 -1.6875 5.242188 -1.269531 5.359375 -1 C 5.484375 -0.738281 5.707031 -0.5625 6.03125 -0.46875 C 6.363281 -0.375 6.894531 -0.328125 7.625 -0.328125 C 7.65625 -0.328125 7.671875 -0.269531 7.671875 -0.15625 C 7.671875 -0.0507812 7.65625 0 7.625 0 C 7.050781 0 6.597656 -0.0078125 6.265625 -0.03125 L 4.265625 -0.0625 L 2.359375 -0.03125 C 2.023438 -0.0078125 1.5625 0 0.96875 0 C 0.9375 0 0.921875 -0.0507812 0.921875 -0.15625 C 0.921875 -0.269531 0.9375 -0.328125 0.96875 -0.328125 C 1.664062 -0.328125 2.1875 -0.375 2.53125 -0.46875 C 2.875 -0.5625 3.101562 -0.738281 3.21875 -1 C 3.34375 -1.269531 3.40625 -1.6875 3.40625 -2.25 L 3.40625 -15.078125 C 3.40625 -15.628906 3.34375 -16.03125 3.21875 -16.28125 C 3.101562 -16.539062 2.878906 -16.722656 2.546875 -16.828125 C 2.210938 -16.929688 1.695312 -16.984375 1 -16.984375 C 0.957031 -16.984375 0.9375 -17.035156 0.9375 -17.140625 C 0.9375 -17.253906 0.957031 -17.3125 1 -17.3125 L 2.40625 -17.28125 C 3.1875 -17.25 3.804688 -17.234375 4.265625 -17.234375 C 4.796875 -17.234375 5.46875 -17.25 6.28125 -17.28125 L 7.625 -17.3125 C 7.65625 -17.3125 7.671875 -17.253906 7.671875 -17.140625 C 7.671875 -17.035156 7.65625 -16.984375 7.625 -16.984375 C 6.914062 -16.984375 6.390625 -16.925781 6.046875 -16.8125 C 5.710938 -16.707031 5.484375 -16.519531 5.359375 -16.25 C 5.242188 -15.976562 5.1875 -15.566406 5.1875 -15.015625 L 5.1875 -9.3125 L 15.8125 -9.3125 L 15.8125 -15.015625 C 15.8125 -15.566406 15.75 -15.976562 15.625 -16.25 C 15.507812 -16.519531 15.285156 -16.707031 14.953125 -16.8125 C 14.628906 -16.925781 14.101562 -16.984375 13.375 -16.984375 C 13.320312 -16.984375 13.296875 -17.035156 13.296875 -17.140625 C 13.296875 -17.253906 13.320312 -17.3125 13.375 -17.3125 L 14.6875 -17.28125 C 15.5 -17.25 16.179688 -17.234375 16.734375 -17.234375 C 17.234375 -17.234375 17.867188 -17.25 18.640625 -17.28125 L 20 -17.3125 C 20.050781 -17.3125 20.078125 -17.253906 20.078125 -17.140625 C 20.078125 -17.035156 20.050781 -16.984375 20 -16.984375 C 19.300781 -16.984375 18.785156 -16.929688 18.453125 -16.828125 C 18.117188 -16.722656 17.890625 -16.539062 17.765625 -16.28125 C 17.648438 -16.03125 17.59375 -15.628906 17.59375 -15.078125 L 17.59375 -2.25 C 17.59375 -1.6875 17.648438 -1.269531 17.765625 -1 C 17.890625 -0.738281 18.117188 -0.5625 18.453125 -0.46875 C 18.785156 -0.375 19.300781 -0.328125 20 -0.328125 Z M 20 -0.328125 "></path></g></g></g><g fill="#000000" fill-opacity="1"><g transform="translate(121.086132, 198.949496)"><g><path d="M 18.609375 -0.640625 C 18.765625 -0.640625 18.851562 -0.625 18.875 -0.59375 C 18.90625 -0.5625 18.921875 -0.472656 18.921875 -0.328125 C 18.921875 -0.234375 18.898438 0.015625 18.859375 0.421875 C 18.734375 1.453125 18.671875 2.734375 18.671875 4.265625 C 18.671875 4.359375 18.613281 4.40625 18.5 4.40625 C 18.394531 4.40625 18.34375 4.359375 18.34375 4.265625 C 18.34375 2.785156 17.976562 1.703125 17.25 1.015625 C 16.53125 0.335938 15.351562 0 13.71875 0 L 5.265625 0 C 2.660156 0 1.359375 1.421875 1.359375 4.265625 C 1.359375 4.359375 1.304688 4.40625 1.203125 4.40625 C 1.097656 4.40625 1.046875 4.359375 1.046875 4.265625 C 1.046875 2.765625 0.972656 1.570312 0.828125 0.6875 C 0.773438 0.34375 0.75 0.00390625 0.75 -0.328125 C 0.75 -0.472656 0.765625 -0.5625 0.796875 -0.59375 C 0.835938 -0.625 0.921875 -0.640625 1.046875 -0.640625 L 2.796875 -0.640625 L 9.71875 -17.5625 C 9.738281 -17.613281 9.800781 -17.640625 9.90625 -17.640625 C 10.007812 -17.640625 10.066406 -17.613281 10.078125 -17.5625 L 17.125 -0.640625 Z M 3.515625 -0.640625 L 15.1875 -0.640625 L 9.3125 -14.828125 Z M 3.515625 -0.640625 "></path></g></g></g><g fill="#000000" fill-opacity="1"><g transform="translate(140.755331, 198.949496)"><g><path d="M 19.359375 -0.328125 C 19.429688 -0.328125 19.46875 -0.269531 19.46875 -0.15625 C 19.46875 -0.0507812 19.429688 0 19.359375 0 C 19.015625 0 18.472656 -0.0195312 17.734375 -0.0625 C 16.992188 -0.09375 16.457031 -0.109375 16.125 -0.109375 C 15.71875 -0.109375 15.203125 -0.09375 14.578125 -0.0625 C 13.984375 -0.0195312 13.53125 0 13.21875 0 C 13.144531 0 13.109375 -0.0507812 13.109375 -0.15625 C 13.109375 -0.269531 13.144531 -0.328125 13.21875 -0.328125 C 13.894531 -0.328125 14.390625 -0.390625 14.703125 -0.515625 C 15.023438 -0.648438 15.1875 -0.875 15.1875 -1.1875 C 15.1875 -1.445312 15.066406 -1.84375 14.828125 -2.375 L 12.359375 -7.625 L 5.765625 -7.625 L 4.015625 -3.515625 C 3.753906 -2.890625 3.625 -2.382812 3.625 -2 C 3.625 -1.425781 3.847656 -1.003906 4.296875 -0.734375 C 4.753906 -0.460938 5.4375 -0.328125 6.34375 -0.328125 C 6.4375 -0.328125 6.484375 -0.269531 6.484375 -0.15625 C 6.484375 -0.0507812 6.4375 0 6.34375 0 C 6.007812 0 5.53125 -0.0195312 4.90625 -0.0625 C 4.195312 -0.09375 3.585938 -0.109375 3.078125 -0.109375 C 2.597656 -0.109375 2.039062 -0.09375 1.40625 -0.0625 C 0.851562 -0.0195312 0.394531 0 0.03125 0 C -0.0625 0 -0.109375 -0.0507812 -0.109375 -0.15625 C -0.109375 -0.269531 -0.0625 -0.328125 0.03125 -0.328125 C 0.539062 -0.328125 0.976562 -0.425781 1.34375 -0.625 C 1.707031 -0.820312 2.050781 -1.160156 2.375 -1.640625 C 2.695312 -2.128906 3.050781 -2.835938 3.4375 -3.765625 L 9.28125 -17.5625 C 9.3125 -17.613281 9.375 -17.640625 9.46875 -17.640625 C 9.5625 -17.640625 9.617188 -17.613281 9.640625 -17.5625 L 16.171875 -3.796875 C 16.804688 -2.429688 17.34375 -1.507812 17.78125 -1.03125 C 18.226562 -0.5625 18.753906 -0.328125 19.359375 -0.328125 Z M 5.984375 -8.171875 L 12.109375 -8.171875 L 8.859375 -15.015625 Z M 5.984375 -8.171875 "></path></g></g></g><g fill="#000000" fill-opacity="1"><g transform="translate(160.202916, 198.949496)"><g><path d="M 5.3125 -2.359375 C 5.3125 -1.765625 5.390625 -1.332031 5.546875 -1.0625 C 5.710938 -0.800781 6.019531 -0.613281 6.46875 -0.5 C 6.914062 -0.382812 7.628906 -0.328125 8.609375 -0.328125 C 8.671875 -0.328125 8.703125 -0.269531 8.703125 -0.15625 C 8.703125 -0.0507812 8.671875 0 8.609375 0 C 7.859375 0 7.269531 -0.0078125 6.84375 -0.03125 L 4.4375 -0.0625 L 2.578125 -0.03125 C 2.222656 -0.0078125 1.75 0 1.15625 0 C 1.125 0 1.109375 -0.0507812 1.109375 -0.15625 C 1.109375 -0.269531 1.125 -0.328125 1.15625 -0.328125 C 1.863281 -0.328125 2.378906 -0.375 2.703125 -0.46875 C 3.023438 -0.5625 3.238281 -0.738281 3.34375 -1 C 3.457031 -1.269531 3.515625 -1.6875 3.515625 -2.25 L 3.515625 -15.078125 C 3.515625 -15.628906 3.457031 -16.03125 3.34375 -16.28125 C 3.238281 -16.539062 3.023438 -16.722656 2.703125 -16.828125 C 2.378906 -16.929688 1.863281 -16.984375 1.15625 -16.984375 C 1.125 -16.984375 1.109375 -17.035156 1.109375 -17.140625 C 1.109375 -17.253906 1.125 -17.3125 1.15625 -17.3125 L 2.546875 -17.28125 C 3.328125 -17.25 3.945312 -17.234375 4.40625 -17.234375 C 4.863281 -17.234375 5.378906 -17.257812 5.953125 -17.3125 C 6.171875 -17.3125 6.519531 -17.320312 7 -17.34375 C 7.488281 -17.375 7.90625 -17.390625 8.25 -17.390625 C 9.945312 -17.390625 11.304688 -17.007812 12.328125 -16.25 C 13.359375 -15.5 13.875 -14.347656 13.875 -12.796875 C 13.875 -11.578125 13.570312 -10.550781 12.96875 -9.71875 C 12.375 -8.894531 11.609375 -8.28125 10.671875 -7.875 C 9.742188 -7.46875 8.78125 -7.265625 7.78125 -7.265625 C 7.226562 -7.265625 6.773438 -7.304688 6.421875 -7.390625 C 6.367188 -7.390625 6.34375 -7.4375 6.34375 -7.53125 C 6.34375 -7.59375 6.351562 -7.648438 6.375 -7.703125 C 6.40625 -7.753906 6.441406 -7.769531 6.484375 -7.75 C 6.773438 -7.675781 7.109375 -7.640625 7.484375 -7.640625 C 8.703125 -7.640625 9.726562 -8.035156 10.5625 -8.828125 C 11.40625 -9.628906 11.828125 -10.773438 11.828125 -12.265625 C 11.828125 -13.734375 11.429688 -14.882812 10.640625 -15.71875 C 9.847656 -16.5625 8.832031 -16.984375 7.59375 -16.984375 C 6.925781 -16.984375 6.441406 -16.945312 6.140625 -16.875 C 5.847656 -16.800781 5.632812 -16.628906 5.5 -16.359375 C 5.375 -16.085938 5.3125 -15.640625 5.3125 -15.015625 Z M 5.3125 -2.359375 "></path></g></g></g><g fill="#000000" fill-opacity="1"><g transform="translate(175.245705, 198.949496)"><g><path d="M 8.5 -9.78125 C 10.257812 -9.78125 11.628906 -9.425781 12.609375 -8.71875 C 13.585938 -8.019531 14.078125 -6.859375 14.078125 -5.234375 C 14.078125 -4.179688 13.835938 -3.25 13.359375 -2.4375 C 12.890625 -1.625 12.226562 -0.992188 11.375 -0.546875 C 10.53125 -0.109375 9.566406 0.109375 8.484375 0.109375 C 7.992188 0.109375 7.421875 0.0820312 6.765625 0.03125 C 6.503906 0.0078125 6.175781 -0.0078125 5.78125 -0.03125 C 5.382812 -0.0507812 4.941406 -0.0625 4.453125 -0.0625 L 2.625 -0.03125 C 2.28125 -0.0078125 1.800781 0 1.1875 0 C 1.15625 0 1.140625 -0.0507812 1.140625 -0.15625 C 1.140625 -0.269531 1.15625 -0.328125 1.1875 -0.328125 C 1.894531 -0.347656 2.410156 -0.40625 2.734375 -0.5 C 3.066406 -0.59375 3.289062 -0.765625 3.40625 -1.015625 C 3.53125 -1.273438 3.59375 -1.6875 3.59375 -2.25 L 3.59375 -15.078125 C 3.59375 -15.628906 3.535156 -16.03125 3.421875 -16.28125 C 3.316406 -16.539062 3.101562 -16.71875 2.78125 -16.8125 C 2.457031 -16.90625 1.945312 -16.960938 1.25 -16.984375 C 1.1875 -16.984375 1.15625 -17.035156 1.15625 -17.140625 C 1.15625 -17.253906 1.1875 -17.3125 1.25 -17.3125 L 2.578125 -17.28125 C 3.316406 -17.25 3.941406 -17.234375 4.453125 -17.234375 C 4.992188 -17.234375 5.671875 -17.25 6.484375 -17.28125 L 7.84375 -17.3125 C 7.875 -17.3125 7.890625 -17.253906 7.890625 -17.140625 C 7.890625 -17.035156 7.875 -16.984375 7.84375 -16.984375 C 7.125 -16.960938 6.597656 -16.90625 6.265625 -16.8125 C 5.929688 -16.71875 5.703125 -16.535156 5.578125 -16.265625 C 5.460938 -16.003906 5.40625 -15.585938 5.40625 -15.015625 L 5.40625 -9.46875 C 6.457031 -9.675781 7.488281 -9.78125 8.5 -9.78125 Z M 22.25 -0.328125 C 22.300781 -0.328125 22.328125 -0.269531 22.328125 -0.15625 C 22.328125 -0.0507812 22.300781 0 22.25 0 C 21.695312 0 21.253906 -0.0078125 20.921875 -0.03125 L 18.953125 -0.0625 L 17.03125 -0.03125 C 16.695312 -0.0078125 16.25 0 15.6875 0 C 15.625 0 15.59375 -0.0507812 15.59375 -0.15625 C 15.59375 -0.269531 15.625 -0.328125 15.6875 -0.328125 C 16.382812 -0.328125 16.894531 -0.375 17.21875 -0.46875 C 17.539062 -0.5625 17.757812 -0.738281 17.875 -1 C 18 -1.269531 18.0625 -1.6875 18.0625 -2.25 L 18.0625 -15.078125 C 18.0625 -15.628906 18 -16.03125 17.875 -16.28125 C 17.757812 -16.539062 17.539062 -16.722656 17.21875 -16.828125 C 16.894531 -16.929688 16.382812 -16.984375 15.6875 -16.984375 C 15.625 -16.984375 15.59375 -17.035156 15.59375 -17.140625 C 15.59375 -17.253906 15.625 -17.3125 15.6875 -17.3125 L 17.03125 -17.28125 C 17.8125 -17.25 18.453125 -17.234375 18.953125 -17.234375 C 19.503906 -17.234375 20.164062 -17.25 20.9375 -17.28125 L 22.25 -17.3125 C 22.300781 -17.3125 22.328125 -17.253906 22.328125 -17.140625 C 22.328125 -17.035156 22.300781 -16.984375 22.25 -16.984375 C 21.5625 -16.984375 21.054688 -16.925781 20.734375 -16.8125 C 20.410156 -16.707031 20.1875 -16.519531 20.0625 -16.25 C 19.945312 -15.976562 19.890625 -15.566406 19.890625 -15.015625 L 19.890625 -2.25 C 19.890625 -1.6875 19.941406 -1.269531 20.046875 -1 C 20.160156 -0.738281 20.378906 -0.5625 20.703125 -0.46875 C 21.023438 -0.375 21.539062 -0.328125 22.25 -0.328125 Z M 7.921875 -0.390625 C 9.421875 -0.390625 10.5 -0.722656 11.15625 -1.390625 C 11.8125 -2.066406 12.140625 -3.128906 12.140625 -4.578125 C 12.140625 -6.234375 11.769531 -7.421875 11.03125 -8.140625 C 10.289062 -8.859375 9.21875 -9.21875 7.8125 -9.21875 C 7.09375 -9.21875 6.289062 -9.128906 5.40625 -8.953125 L 5.40625 -2.25 C 5.40625 -1.601562 5.570312 -1.128906 5.90625 -0.828125 C 6.238281 -0.535156 6.910156 -0.390625 7.921875 -0.390625 Z M 7.921875 -0.390625 "></path></g></g></g><g fill="#000000" fill-opacity="1"><g transform="translate(198.821047, 198.949496)"><g><path d="M 7.640625 -9.78125 C 11.929688 -9.78125 14.078125 -8.253906 14.078125 -5.203125 C 14.078125 -4.171875 13.835938 -3.25 13.359375 -2.4375 C 12.890625 -1.625 12.226562 -0.992188 11.375 -0.546875 C 10.53125 -0.109375 9.566406 0.109375 8.484375 0.109375 C 7.984375 0.109375 7.398438 0.0820312 6.734375 0.03125 C 6.453125 0.0078125 6.117188 -0.0078125 5.734375 -0.03125 C 5.347656 -0.0507812 4.929688 -0.0625 4.484375 -0.0625 L 2.609375 -0.03125 C 2.273438 -0.0078125 1.800781 0 1.1875 0 C 1.15625 0 1.140625 -0.0507812 1.140625 -0.15625 C 1.140625 -0.269531 1.15625 -0.328125 1.1875 -0.328125 C 1.894531 -0.328125 2.410156 -0.375 2.734375 -0.46875 C 3.066406 -0.5625 3.289062 -0.738281 3.40625 -1 C 3.53125 -1.269531 3.59375 -1.6875 3.59375 -2.25 L 3.59375 -15.078125 C 3.59375 -15.628906 3.535156 -16.03125 3.421875 -16.28125 C 3.316406 -16.539062 3.101562 -16.722656 2.78125 -16.828125 C 2.457031 -16.929688 1.945312 -16.984375 1.25 -16.984375 C 1.1875 -16.984375 1.15625 -17.035156 1.15625 -17.140625 C 1.15625 -17.253906 1.1875 -17.3125 1.25 -17.3125 L 12.15625 -17.3125 C 12.269531 -17.3125 12.34375 -17.285156 12.375 -17.234375 C 12.414062 -17.191406 12.445312 -17.109375 12.46875 -16.984375 L 12.828125 -13.4375 C 12.828125 -13.382812 12.78125 -13.359375 12.6875 -13.359375 C 12.59375 -13.359375 12.53125 -13.382812 12.5 -13.4375 C 12.3125 -14.46875 11.925781 -15.28125 11.34375 -15.875 C 10.757812 -16.46875 10.046875 -16.765625 9.203125 -16.765625 L 7.625 -16.765625 C 6.976562 -16.765625 6.5 -16.710938 6.1875 -16.609375 C 5.882812 -16.503906 5.675781 -16.328125 5.5625 -16.078125 C 5.457031 -15.828125 5.40625 -15.4375 5.40625 -14.90625 L 5.40625 -9.640625 C 6.269531 -9.734375 7.015625 -9.78125 7.640625 -9.78125 Z M 7.921875 -0.390625 C 9.398438 -0.390625 10.472656 -0.722656 11.140625 -1.390625 C 11.804688 -2.066406 12.140625 -3.097656 12.140625 -4.484375 C 12.140625 -6.179688 11.691406 -7.394531 10.796875 -8.125 C 9.910156 -8.851562 8.648438 -9.21875 7.015625 -9.21875 C 6.441406 -9.21875 5.90625 -9.179688 5.40625 -9.109375 L 5.40625 -2.25 C 5.40625 -1.601562 5.570312 -1.128906 5.90625 -0.828125 C 6.238281 -0.535156 6.910156 -0.390625 7.921875 -0.390625 Z M 7.921875 -0.390625 "></path></g></g></g><g fill="#000000" fill-opacity="1"><g transform="translate(214.279393, 198.949496)"><g><path d="M 8.5 -9.78125 C 10.257812 -9.78125 11.628906 -9.425781 12.609375 -8.71875 C 13.585938 -8.019531 14.078125 -6.859375 14.078125 -5.234375 C 14.078125 -4.179688 13.835938 -3.25 13.359375 -2.4375 C 12.890625 -1.625 12.226562 -0.992188 11.375 -0.546875 C 10.53125 -0.109375 9.566406 0.109375 8.484375 0.109375 C 7.992188 0.109375 7.421875 0.0820312 6.765625 0.03125 C 6.503906 0.0078125 6.175781 -0.0078125 5.78125 -0.03125 C 5.382812 -0.0507812 4.941406 -0.0625 4.453125 -0.0625 L 2.625 -0.03125 C 2.28125 -0.0078125 1.800781 0 1.1875 0 C 1.15625 0 1.140625 -0.0507812 1.140625 -0.15625 C 1.140625 -0.269531 1.15625 -0.328125 1.1875 -0.328125 C 1.894531 -0.347656 2.410156 -0.40625 2.734375 -0.5 C 3.066406 -0.59375 3.289062 -0.765625 3.40625 -1.015625 C 3.53125 -1.273438 3.59375 -1.6875 3.59375 -2.25 L 3.59375 -15.078125 C 3.59375 -15.628906 3.535156 -16.03125 3.421875 -16.28125 C 3.316406 -16.539062 3.101562 -16.71875 2.78125 -16.8125 C 2.457031 -16.90625 1.945312 -16.960938 1.25 -16.984375 C 1.1875 -16.984375 1.15625 -17.035156 1.15625 -17.140625 C 1.15625 -17.253906 1.1875 -17.3125 1.25 -17.3125 L 2.578125 -17.28125 C 3.316406 -17.25 3.941406 -17.234375 4.453125 -17.234375 C 4.992188 -17.234375 5.671875 -17.25 6.484375 -17.28125 L 7.84375 -17.3125 C 7.875 -17.3125 7.890625 -17.253906 7.890625 -17.140625 C 7.890625 -17.035156 7.875 -16.984375 7.84375 -16.984375 C 7.125 -16.960938 6.597656 -16.90625 6.265625 -16.8125 C 5.929688 -16.71875 5.703125 -16.535156 5.578125 -16.265625 C 5.460938 -16.003906 5.40625 -15.585938 5.40625 -15.015625 L 5.40625 -9.46875 C 6.457031 -9.675781 7.488281 -9.78125 8.5 -9.78125 Z M 22.25 -0.328125 C 22.300781 -0.328125 22.328125 -0.269531 22.328125 -0.15625 C 22.328125 -0.0507812 22.300781 0 22.25 0 C 21.695312 0 21.253906 -0.0078125 20.921875 -0.03125 L 18.953125 -0.0625 L 17.03125 -0.03125 C 16.695312 -0.0078125 16.25 0 15.6875 0 C 15.625 0 15.59375 -0.0507812 15.59375 -0.15625 C 15.59375 -0.269531 15.625 -0.328125 15.6875 -0.328125 C 16.382812 -0.328125 16.894531 -0.375 17.21875 -0.46875 C 17.539062 -0.5625 17.757812 -0.738281 17.875 -1 C 18 -1.269531 18.0625 -1.6875 18.0625 -2.25 L 18.0625 -15.078125 C 18.0625 -15.628906 18 -16.03125 17.875 -16.28125 C 17.757812 -16.539062 17.539062 -16.722656 17.21875 -16.828125 C 16.894531 -16.929688 16.382812 -16.984375 15.6875 -16.984375 C 15.625 -16.984375 15.59375 -17.035156 15.59375 -17.140625 C 15.59375 -17.253906 15.625 -17.3125 15.6875 -17.3125 L 17.03125 -17.28125 C 17.8125 -17.25 18.453125 -17.234375 18.953125 -17.234375 C 19.503906 -17.234375 20.164062 -17.25 20.9375 -17.28125 L 22.25 -17.3125 C 22.300781 -17.3125 22.328125 -17.253906 22.328125 -17.140625 C 22.328125 -17.035156 22.300781 -16.984375 22.25 -16.984375 C 21.5625 -16.984375 21.054688 -16.925781 20.734375 -16.8125 C 20.410156 -16.707031 20.1875 -16.519531 20.0625 -16.25 C 19.945312 -15.976562 19.890625 -15.566406 19.890625 -15.015625 L 19.890625 -2.25 C 19.890625 -1.6875 19.941406 -1.269531 20.046875 -1 C 20.160156 -0.738281 20.378906 -0.5625 20.703125 -0.46875 C 21.023438 -0.375 21.539062 -0.328125 22.25 -0.328125 Z M 7.921875 -0.390625 C 9.421875 -0.390625 10.5 -0.722656 11.15625 -1.390625 C 11.8125 -2.066406 12.140625 -3.128906 12.140625 -4.578125 C 12.140625 -6.234375 11.769531 -7.421875 11.03125 -8.140625 C 10.289062 -8.859375 9.21875 -9.21875 7.8125 -9.21875 C 7.09375 -9.21875 6.289062 -9.128906 5.40625 -8.953125 L 5.40625 -2.25 C 5.40625 -1.601562 5.570312 -1.128906 5.90625 -0.828125 C 6.238281 -0.535156 6.910156 -0.390625 7.921875 -0.390625 Z M 7.921875 -0.390625 "></path></g></g></g><g fill="#000000" fill-opacity="1"><g transform="translate(237.854724, 198.949496)"><g><path d="M 8.203125 -9.3125 C 9.492188 -9.21875 10.539062 -8.769531 11.34375 -7.96875 C 12.144531 -7.175781 12.546875 -6.171875 12.546875 -4.953125 C 12.546875 -3.941406 12.265625 -3.035156 11.703125 -2.234375 C 11.140625 -1.429688 10.378906 -0.800781 9.421875 -0.34375 C 8.460938 0.101562 7.398438 0.328125 6.234375 0.328125 C 5.472656 0.328125 4.726562 0.234375 4 0.046875 C 3.269531 -0.128906 2.703125 -0.382812 2.296875 -0.71875 C 2.128906 -0.8125 2.023438 -0.890625 1.984375 -0.953125 C 1.953125 -1.015625 1.925781 -1.148438 1.90625 -1.359375 L 1.578125 -4.4375 C 1.578125 -4.488281 1.628906 -4.523438 1.734375 -4.546875 C 1.835938 -4.566406 1.894531 -4.546875 1.90625 -4.484375 C 2.164062 -2.992188 2.765625 -1.890625 3.703125 -1.171875 C 4.648438 -0.460938 5.6875 -0.109375 6.8125 -0.109375 C 8.050781 -0.109375 8.96875 -0.523438 9.5625 -1.359375 C 10.164062 -2.191406 10.46875 -3.222656 10.46875 -4.453125 C 10.46875 -5.953125 10.046875 -7.082031 9.203125 -7.84375 C 8.367188 -8.613281 7.15625 -9 5.5625 -9 C 5.488281 -9 5.453125 -9.050781 5.453125 -9.15625 C 5.453125 -9.269531 5.488281 -9.328125 5.5625 -9.328125 C 7.007812 -9.328125 8.097656 -9.675781 8.828125 -10.375 C 9.554688 -11.082031 9.921875 -12.046875 9.921875 -13.265625 C 9.921875 -14.484375 9.613281 -15.453125 9 -16.171875 C 8.394531 -16.898438 7.582031 -17.265625 6.5625 -17.265625 C 5.601562 -17.265625 4.75 -16.90625 4 -16.1875 C 3.25 -15.476562 2.691406 -14.429688 2.328125 -13.046875 C 2.328125 -13.015625 2.289062 -13 2.21875 -13 C 2.175781 -13 2.128906 -13.007812 2.078125 -13.03125 C 2.035156 -13.0625 2.015625 -13.085938 2.015625 -13.109375 L 2.40625 -16.234375 C 2.445312 -16.453125 2.484375 -16.597656 2.515625 -16.671875 C 2.554688 -16.742188 2.660156 -16.8125 2.828125 -16.875 C 4.242188 -17.375 5.609375 -17.625 6.921875 -17.625 C 8.492188 -17.625 9.695312 -17.257812 10.53125 -16.53125 C 11.375 -15.8125 11.796875 -14.914062 11.796875 -13.84375 C 11.796875 -12.832031 11.429688 -11.90625 10.703125 -11.0625 C 9.972656 -10.226562 9.140625 -9.644531 8.203125 -9.3125 Z M 8.203125 -9.3125 "></path></g></g></g><g fill="#000000" fill-opacity="1"><g transform="translate(251.761675, 198.949496)"><g><path d="M 2.15625 -17.171875 C 2.144531 -17.242188 2.273438 -17.300781 2.546875 -17.34375 C 2.828125 -17.394531 3.125 -17.421875 3.4375 -17.421875 C 3.75 -17.421875 4.039062 -17.394531 4.3125 -17.34375 C 4.59375 -17.300781 4.71875 -17.242188 4.6875 -17.171875 C 4.382812 -15.585938 4.160156 -13.890625 4.015625 -12.078125 C 3.867188 -10.265625 3.722656 -7.984375 3.578125 -5.234375 C 3.578125 -5.179688 3.507812 -5.15625 3.375 -5.15625 C 3.226562 -5.15625 3.15625 -5.179688 3.15625 -5.234375 C 3.0625 -7.742188 2.945312 -9.957031 2.8125 -11.875 C 2.675781 -13.800781 2.457031 -15.566406 2.15625 -17.171875 Z M 3.296875 0.3125 C 2.929688 0.3125 2.632812 0.203125 2.40625 -0.015625 C 2.1875 -0.242188 2.078125 -0.546875 2.078125 -0.921875 C 2.078125 -1.265625 2.1875 -1.535156 2.40625 -1.734375 C 2.632812 -1.941406 2.929688 -2.046875 3.296875 -2.046875 C 3.679688 -2.046875 3.976562 -1.941406 4.1875 -1.734375 C 4.40625 -1.535156 4.515625 -1.265625 4.515625 -0.921875 C 4.515625 -0.546875 4.40625 -0.242188 4.1875 -0.015625 C 3.976562 0.203125 3.679688 0.3125 3.296875 0.3125 Z M 3.296875 0.3125 "></path></g></g></g></svg> 