<?xml version="1.0" encoding="UTF-8"?> <svg xmlns="http://www.w3.org/2000/svg" xmlns:xlink="http://www.w3.org/1999/xlink" width="360" zoomAndPan="magnify" viewBox="0 0 270 359.999987" height="480" preserveAspectRatio="xMidYMid meet" version="1.0"><defs><g></g><clipPath id="40a55ece6b"><rect x="0" width="270" y="0" height="88"></rect></clipPath></defs><g transform="matrix(1, 0, 0, 1, -0, 109)"><g clip-path="url(#40a55ece6b)"><g fill="#5f0000" fill-opacity="1"><g transform="translate(0.0152662, 65.353835)"><g><path d="M 125.71875 -39.015625 C 125.71875 -34.753906 124.050781 -31.285156 120.71875 -28.609375 C 117.625 -26.128906 113.894531 -24.890625 109.53125 -24.890625 C 107.226562 -24.890625 105.269531 -25.425781 103.65625 -26.5 C 101.769531 -27.726562 100.828125 -29.425781 100.828125 -31.59375 C 100.828125 -34 101.859375 -35.976562 103.921875 -37.53125 C 104.054688 -37.632812 104.28125 -37.753906 104.59375 -37.890625 L 104.75 -37.78125 C 104.675781 -37.644531 104.519531 -37.472656 104.28125 -37.265625 C 102.351562 -35.585938 101.390625 -33.695312 101.390625 -31.59375 C 101.390625 -29.707031 102.285156 -28.28125 104.078125 -27.3125 C 105.453125 -26.59375 107.1875 -26.234375 109.28125 -26.234375 C 113.269531 -26.234375 116.828125 -27.351562 119.953125 -29.59375 C 123.421875 -32.0625 125.15625 -35.203125 125.15625 -39.015625 C 125.15625 -42.347656 123.78125 -44.910156 121.03125 -46.703125 C 118.65625 -48.210938 115.71875 -48.96875 112.21875 -48.96875 C 103.28125 -48.96875 94.757812 -45.445312 86.65625 -38.40625 C 88.195312 -35.101562 88.96875 -31.40625 88.96875 -27.3125 C 88.96875 -22.300781 87.765625 -17.664062 85.359375 -13.40625 C 82.953125 -9.144531 79.601562 -5.640625 75.3125 -2.890625 C 69.707031 0.679688 61.507812 2.46875 50.71875 2.46875 C 47.625 2.46875 44.066406 2.265625 40.046875 1.859375 C 39.847656 1.859375 39.078125 1.753906 37.734375 1.546875 C 36.734375 1.410156 35.941406 1.34375 35.359375 1.34375 C 35.191406 1.34375 34.109375 1.53125 32.109375 1.90625 C 29.984375 2.320312 28.726562 2.546875 28.34375 2.578125 C 23.84375 3.160156 18.929688 3.453125 13.609375 3.453125 C 5.117188 3.453125 0.875 2.816406 0.875 1.546875 C 0.875 -0.0976562 5.648438 -0.921875 15.203125 -0.921875 C 18.878906 -0.921875 24.222656 -0.5625 31.234375 0.15625 C 34.328125 0.5 35.789062 0.671875 35.625 0.671875 C 35.757812 0.671875 36.425781 0.515625 37.625 0.203125 C 42.269531 -0.992188 46.429688 -2.882812 50.109375 -5.46875 C 54.191406 -8.320312 59.019531 -12.890625 64.59375 -19.171875 C 72.695312 -28.347656 79.601562 -35.082031 85.3125 -39.375 C 81.15625 -47.414062 72.632812 -51.4375 59.75 -51.4375 C 54.070312 -51.4375 48.585938 -50.457031 43.296875 -48.5 C 37.453125 -46.375 32.796875 -43.382812 29.328125 -39.53125 C 25.410156 -35.207031 23.453125 -30.550781 23.453125 -25.5625 C 23.453125 -21.820312 24.617188 -18.84375 26.953125 -16.625 C 29.296875 -14.40625 32.335938 -13.296875 36.078125 -13.296875 C 41.472656 -13.296875 46.410156 -15.097656 50.890625 -18.703125 C 55.378906 -22.316406 57.625 -26.289062 57.625 -30.625 C 57.625 -33.03125 56.847656 -34.960938 55.296875 -36.421875 C 53.753906 -37.878906 51.78125 -38.609375 49.375 -38.609375 C 46.144531 -38.609375 43.242188 -37.507812 40.671875 -35.3125 C 37.953125 -32.96875 36.59375 -30.21875 36.59375 -27.0625 C 36.59375 -26.925781 36.617188 -26.769531 36.671875 -26.59375 C 36.722656 -26.425781 36.75 -26.289062 36.75 -26.1875 C 36.75 -26.082031 36.695312 -26.03125 36.59375 -26.03125 C 36.289062 -26.03125 36.140625 -26.507812 36.140625 -27.46875 C 36.140625 -30.738281 37.546875 -33.554688 40.359375 -35.921875 C 43.078125 -38.191406 46.082031 -39.328125 49.375 -39.328125 C 52.332031 -39.328125 54.660156 -38.457031 56.359375 -36.71875 C 58.066406 -34.988281 58.921875 -32.664062 58.921875 -29.75 C 58.921875 -24.9375 56.566406 -20.722656 51.859375 -17.109375 C 47.460938 -13.710938 42.785156 -12.015625 37.828125 -12.015625 C 33.503906 -12.015625 29.984375 -13.128906 27.265625 -15.359375 C 24.347656 -17.765625 22.890625 -21.082031 22.890625 -25.3125 C 22.890625 -33.175781 26.820312 -39.859375 34.6875 -45.359375 C 41.875 -50.378906 50.207031 -52.890625 59.6875 -52.890625 C 65.082031 -52.890625 70.050781 -51.84375 74.59375 -49.75 C 79.675781 -47.4375 83.4375 -44.117188 85.875 -39.796875 C 94.707031 -46.285156 103.488281 -49.53125 112.21875 -49.53125 C 116 -49.53125 119.09375 -48.742188 121.5 -47.171875 C 124.3125 -45.304688 125.71875 -42.585938 125.71875 -39.015625 Z M 87.625 -28.859375 C 87.625 -32.023438 87.09375 -35.015625 86.03125 -37.828125 C 83.113281 -35.253906 79.898438 -32.007812 76.390625 -28.09375 C 73.367188 -24.65625 70.363281 -21.21875 67.375 -17.78125 C 59.125 -8.363281 49.085938 -2.144531 37.265625 0.875 L 37.265625 0.921875 C 42.421875 1.441406 46.835938 1.703125 50.515625 1.703125 C 52.847656 1.703125 54.910156 1.597656 56.703125 1.390625 C 62.203125 0.773438 67.335938 -1.039062 72.109375 -4.0625 C 76.890625 -7.09375 80.707031 -10.945312 83.5625 -15.625 C 86.269531 -20.125 87.625 -24.535156 87.625 -28.859375 Z M 33.34375 1.140625 L 33.34375 1.078125 C 25.550781 0.117188 19.472656 -0.359375 15.109375 -0.359375 C 10.222656 -0.359375 6.597656 -0.101562 4.234375 0.40625 C 2.472656 0.789062 1.59375 1.171875 1.59375 1.546875 C 1.59375 1.710938 1.882812 1.847656 2.46875 1.953125 C 3.5 2.160156 5.5625 2.265625 8.65625 2.265625 L 13.65625 2.265625 C 22.175781 2.265625 28.738281 1.890625 33.34375 1.140625 Z M 33.34375 1.140625 "></path></g></g></g><g fill="#5f0000" fill-opacity="1"><g transform="translate(83.14418, 65.353835)"><g><path d="M 13.5 -5 C 13.5 -4.582031 12.847656 -3.960938 11.546875 -3.140625 C 10.242188 -2.316406 9.332031 -1.90625 8.8125 -1.90625 C 8.363281 -1.90625 8.054688 -1.957031 7.890625 -2.0625 C 5.484375 -0.375 3.523438 0.46875 2.015625 0.46875 C 0.328125 0.46875 -0.515625 -0.164062 -0.515625 -1.4375 C -0.515625 -2.707031 -0.0351562 -3.894531 0.921875 -5 L 0.921875 -5.046875 C 0.0351562 -4.160156 -0.507812 -3.71875 -0.71875 -3.71875 C -0.75 -3.71875 -0.765625 -3.734375 -0.765625 -3.765625 L -0.765625 -3.859375 C -0.765625 -3.859375 -0.75 -3.929688 -0.71875 -4.078125 C 0.34375 -5.203125 1.785156 -6.265625 3.609375 -7.265625 C 5.566406 -8.296875 7.25 -8.828125 8.65625 -8.859375 L 8.96875 -8.609375 C 8.9375 -8.578125 8.75 -8.472656 8.40625 -8.296875 C 7.269531 -7.742188 5.910156 -6.660156 4.328125 -5.046875 C 2.578125 -3.265625 1.703125 -1.835938 1.703125 -0.765625 C 1.703125 -0.285156 1.941406 -0.046875 2.421875 -0.046875 C 3.765625 -0.046875 5.363281 -1.097656 7.21875 -3.203125 C 7.664062 -4.984375 8.523438 -6.148438 9.796875 -6.703125 C 9.898438 -6.941406 9.953125 -7.367188 9.953125 -7.984375 C 9.953125 -8.054688 9.925781 -8.148438 9.875 -8.265625 C 9.820312 -8.390625 9.796875 -8.488281 9.796875 -8.5625 C 9.796875 -8.695312 9.898438 -8.765625 10.109375 -8.765625 C 10.410156 -8.765625 10.671875 -8.546875 10.890625 -8.109375 C 11.117188 -7.679688 11.234375 -7.296875 11.234375 -6.953125 C 11.234375 -5.753906 10.253906 -4.242188 8.296875 -2.421875 C 8.398438 -2.390625 8.503906 -2.375 8.609375 -2.375 C 9.398438 -2.375 10.289062 -2.785156 11.28125 -3.609375 C 12.414062 -4.535156 13.140625 -5.035156 13.453125 -5.109375 C 13.484375 -5.066406 13.5 -5.03125 13.5 -5 Z M 13.5 -5 "></path></g></g></g><g fill="#5f0000" fill-opacity="1"><g transform="translate(95.925319, 65.353835)"><g></g></g></g><g fill="#5f0000" fill-opacity="1"><g transform="translate(103.810452, 65.353835)"><g><path d="M 27.0625 -5.046875 C 27.0625 -4.640625 25.875 -3.539062 23.5 -1.75 C 21.644531 -0.375 20.097656 0.3125 18.859375 0.3125 C 17.867188 0.3125 17.375 -0.0820312 17.375 -0.875 C 17.375 -1.664062 18.128906 -2.953125 19.640625 -4.734375 C 21.148438 -6.523438 21.90625 -7.507812 21.90625 -7.6875 C 21.90625 -7.851562 21.785156 -7.9375 21.546875 -7.9375 C 20.515625 -7.9375 18.382812 -6.578125 15.15625 -3.859375 C 11.925781 -1.148438 9.96875 0.203125 9.28125 0.203125 C 8.726562 0.203125 8.453125 0.0976562 8.453125 -0.109375 C 8.453125 -0.796875 9.316406 -2.191406 11.046875 -4.296875 C 12.785156 -6.410156 13.65625 -7.519531 13.65625 -7.625 C 13.65625 -7.832031 13.519531 -7.9375 13.25 -7.9375 C 12.320312 -7.9375 10.191406 -6.578125 6.859375 -3.859375 C 3.523438 -1.148438 1.582031 0.203125 1.03125 0.203125 C 0.445312 0.203125 0.15625 0.0976562 0.15625 -0.109375 C 0.15625 -0.585938 0.976562 -1.914062 2.625 -4.09375 C 4.28125 -6.28125 5.125 -7.390625 5.15625 -7.421875 C 5.082031 -7.628906 4.976562 -7.734375 4.84375 -7.734375 C 4.257812 -7.734375 3.210938 -7.0625 1.703125 -5.71875 C 0.191406 -4.382812 -0.582031 -3.71875 -0.625 -3.71875 C -0.757812 -3.71875 -0.828125 -3.785156 -0.828125 -3.921875 C -0.828125 -4.128906 0.289062 -5.175781 2.53125 -7.0625 C 3.90625 -8.226562 5.109375 -8.8125 6.140625 -8.8125 C 6.992188 -8.8125 7.421875 -8.414062 7.421875 -7.625 C 7.421875 -7.039062 6.320312 -5.320312 4.125 -2.46875 L 4.28125 -2.421875 C 9.332031 -6.679688 12.664062 -8.8125 14.28125 -8.8125 C 15.375 -8.8125 15.921875 -8.414062 15.921875 -7.625 C 15.921875 -7.039062 15.457031 -6.164062 14.53125 -5 C 13.8125 -4.175781 13.09375 -3.332031 12.375 -2.46875 L 12.53125 -2.421875 C 17.582031 -6.679688 20.929688 -8.8125 22.578125 -8.8125 C 23.640625 -8.8125 24.171875 -8.4375 24.171875 -7.6875 C 24.171875 -7.09375 23.5 -5.960938 22.15625 -4.296875 C 20.820312 -2.628906 20.15625 -1.578125 20.15625 -1.140625 L 20.203125 -0.921875 C 20.304688 -0.890625 20.425781 -0.875 20.5625 -0.875 C 21.289062 -0.875 22.390625 -1.476562 23.859375 -2.6875 C 25.722656 -4.15625 26.789062 -4.960938 27.0625 -5.109375 Z M 27.0625 -5.046875 "></path></g></g></g><g fill="#5f0000" fill-opacity="1"><g transform="translate(130.197309, 65.353835)"><g><path d="M 13.5 -5 C 13.5 -4.582031 12.847656 -3.960938 11.546875 -3.140625 C 10.242188 -2.316406 9.332031 -1.90625 8.8125 -1.90625 C 8.363281 -1.90625 8.054688 -1.957031 7.890625 -2.0625 C 5.484375 -0.375 3.523438 0.46875 2.015625 0.46875 C 0.328125 0.46875 -0.515625 -0.164062 -0.515625 -1.4375 C -0.515625 -2.707031 -0.0351562 -3.894531 0.921875 -5 L 0.921875 -5.046875 C 0.0351562 -4.160156 -0.507812 -3.71875 -0.71875 -3.71875 C -0.75 -3.71875 -0.765625 -3.734375 -0.765625 -3.765625 L -0.765625 -3.859375 C -0.765625 -3.859375 -0.75 -3.929688 -0.71875 -4.078125 C 0.34375 -5.203125 1.785156 -6.265625 3.609375 -7.265625 C 5.566406 -8.296875 7.25 -8.828125 8.65625 -8.859375 L 8.96875 -8.609375 C 8.9375 -8.578125 8.75 -8.472656 8.40625 -8.296875 C 7.269531 -7.742188 5.910156 -6.660156 4.328125 -5.046875 C 2.578125 -3.265625 1.703125 -1.835938 1.703125 -0.765625 C 1.703125 -0.285156 1.941406 -0.046875 2.421875 -0.046875 C 3.765625 -0.046875 5.363281 -1.097656 7.21875 -3.203125 C 7.664062 -4.984375 8.523438 -6.148438 9.796875 -6.703125 C 9.898438 -6.941406 9.953125 -7.367188 9.953125 -7.984375 C 9.953125 -8.054688 9.925781 -8.148438 9.875 -8.265625 C 9.820312 -8.390625 9.796875 -8.488281 9.796875 -8.5625 C 9.796875 -8.695312 9.898438 -8.765625 10.109375 -8.765625 C 10.410156 -8.765625 10.671875 -8.546875 10.890625 -8.109375 C 11.117188 -7.679688 11.234375 -7.296875 11.234375 -6.953125 C 11.234375 -5.753906 10.253906 -4.242188 8.296875 -2.421875 C 8.398438 -2.390625 8.503906 -2.375 8.609375 -2.375 C 9.398438 -2.375 10.289062 -2.785156 11.28125 -3.609375 C 12.414062 -4.535156 13.140625 -5.035156 13.453125 -5.109375 C 13.484375 -5.066406 13.5 -5.03125 13.5 -5 Z M 13.5 -5 "></path></g></g></g><g fill="#5f0000" fill-opacity="1"><g transform="translate(142.978449, 65.353835)"><g><path d="M 17.53125 -5.109375 C 17.457031 -4.585938 16.269531 -3.46875 13.96875 -1.75 C 12.144531 -0.375 10.597656 0.3125 9.328125 0.3125 C 8.191406 0.3125 7.625 -0.0820312 7.625 -0.875 C 7.625 -1.769531 8.40625 -3.054688 9.96875 -4.734375 C 11.53125 -6.421875 12.3125 -7.382812 12.3125 -7.625 C 12.3125 -7.800781 12.175781 -7.890625 11.90625 -7.890625 C 10.125 -7.890625 6.65625 -4.691406 1.5 1.703125 C -0.5625 4.242188 -3.84375 8.640625 -8.34375 14.890625 C -9 15.859375 -9.65625 16.820312 -10.3125 17.78125 C -11.238281 19.050781 -11.941406 19.882812 -12.421875 20.28125 C -12.898438 20.675781 -13.3125 20.875 -13.65625 20.875 C -14.445312 20.875 -14.84375 20.445312 -14.84375 19.59375 C -14.84375 18.726562 -14.273438 17.453125 -13.140625 15.765625 C -6.335938 5.835938 -0.222656 -2.390625 5.203125 -8.921875 L 5.15625 -8.921875 C 1.507812 -5.515625 -0.460938 -3.8125 -0.765625 -3.8125 C -0.597656 -4.226562 2.367188 -7.046875 8.140625 -12.265625 C 8.898438 -12.953125 9.570312 -13.296875 10.15625 -13.296875 C 10.664062 -13.296875 10.921875 -13.226562 10.921875 -13.09375 C 10.921875 -13.019531 10.648438 -12.660156 10.109375 -12.015625 C 8.210938 -9.816406 5.050781 -5.796875 0.625 0.046875 C -3.4375 5.335938 -6.789062 9.925781 -9.4375 13.8125 C -11.632812 17.007812 -12.734375 18.796875 -12.734375 19.171875 L -12.734375 19.328125 C -12.703125 19.359375 -12.664062 19.375 -12.625 19.375 C -12.25 19.375 -10.34375 16.9375 -6.90625 12.0625 C -2.570312 5.90625 0.863281 1.382812 3.40625 -1.5 C 7.632812 -6.375 10.878906 -8.8125 13.140625 -8.8125 C 14.210938 -8.8125 14.75 -8.46875 14.75 -7.78125 C 14.75 -7.09375 14.035156 -5.96875 12.609375 -4.40625 C 11.179688 -2.84375 10.46875 -1.820312 10.46875 -1.34375 C 10.46875 -1.03125 10.640625 -0.875 10.984375 -0.875 C 11.734375 -0.875 12.96875 -1.566406 14.6875 -2.953125 C 16.40625 -4.347656 17.351562 -5.066406 17.53125 -5.109375 Z M 17.53125 -5.109375 "></path></g></g></g><g fill="#5f0000" fill-opacity="1"><g transform="translate(159.779452, 65.353835)"><g><path d="M 24.4375 -5.15625 C 24.4375 -4.976562 23.898438 -4.460938 22.828125 -3.609375 C 21.972656 -2.890625 21.320312 -2.390625 20.875 -2.109375 C 18.570312 -0.597656 16.457031 0.15625 14.53125 0.15625 C 12.613281 0.15625 11.65625 -0.476562 11.65625 -1.75 C 11.65625 -1.851562 11.6875 -2.007812 11.75 -2.21875 C 8.519531 -0.769531 6.664062 -0.046875 6.1875 -0.046875 C 5.875 -0.046875 5.71875 -0.113281 5.71875 -0.25 C 5.71875 -0.5 6.75 -1.703125 8.8125 -3.859375 C 10.769531 -5.921875 12.007812 -7.144531 12.53125 -7.53125 C 11.351562 -6.601562 10.097656 -6.035156 8.765625 -5.828125 C 8.179688 -4.484375 7.007812 -3.148438 5.25 -1.828125 C 3.5 -0.503906 1.957031 0.15625 0.625 0.15625 C -0.894531 0.15625 -1.65625 -0.460938 -1.65625 -1.703125 C -1.65625 -2.359375 -1.4375 -2.941406 -1 -3.453125 C -0.570312 -3.972656 -0.0507812 -4.234375 0.5625 -4.234375 C 1.351562 -4.234375 1.75 -3.921875 1.75 -3.296875 C 1.75 -2.953125 1.539062 -2.59375 1.125 -2.21875 C 0.71875 -1.84375 0.515625 -1.5 0.515625 -1.1875 C 0.515625 -0.945312 0.722656 -0.828125 1.140625 -0.828125 C 1.992188 -0.828125 3.1875 -1.675781 4.71875 -3.375 C 6.25 -5.070312 7.015625 -6.367188 7.015625 -7.265625 C 7.015625 -7.785156 6.582031 -8.046875 5.71875 -8.046875 C 4.894531 -8.046875 3.847656 -7.578125 2.578125 -6.640625 C 1.304688 -5.710938 0.65625 -5.25 0.625 -5.25 C 0.582031 -5.25 0.546875 -5.269531 0.515625 -5.3125 L 0.515625 -5.40625 L 0.5625 -5.625 C 1.457031 -6.582031 2.476562 -7.351562 3.625 -7.9375 C 4.78125 -8.519531 5.859375 -8.8125 6.859375 -8.8125 C 8.265625 -8.8125 8.96875 -8.191406 8.96875 -6.953125 C 8.96875 -6.710938 8.929688 -6.441406 8.859375 -6.140625 C 9.066406 -6.234375 10.117188 -6.75 12.015625 -7.6875 C 13.734375 -8.539062 14.644531 -8.96875 14.75 -8.96875 C 14.84375 -8.96875 14.890625 -8.914062 14.890625 -8.8125 C 13.960938 -7.78125 12.863281 -6.507812 11.59375 -5 C 10.632812 -3.894531 9.707031 -2.742188 8.8125 -1.546875 C 9.570312 -1.960938 10.707031 -2.597656 12.21875 -3.453125 C 12.875 -4.691406 14.109375 -5.882812 15.921875 -7.03125 C 17.742188 -8.1875 19.328125 -8.765625 20.671875 -8.765625 C 22.179688 -8.765625 22.9375 -8.210938 22.9375 -7.109375 C 22.9375 -6.628906 22.742188 -6.195312 22.359375 -5.8125 C 21.984375 -5.4375 21.554688 -5.25 21.078125 -5.25 C 20.566406 -5.25 20.3125 -5.492188 20.3125 -5.984375 C 20.3125 -6.179688 20.457031 -6.503906 20.75 -6.953125 C 21.039062 -7.398438 21.1875 -7.742188 21.1875 -7.984375 L 20.40625 -8.203125 C 19.070312 -7.515625 17.800781 -6.601562 16.59375 -5.46875 C 15.15625 -4.050781 14.4375 -2.78125 14.4375 -1.65625 C 14.4375 -1.03125 14.847656 -0.71875 15.671875 -0.71875 C 17.179688 -0.71875 19 -1.472656 21.125 -2.984375 C 23.257812 -4.492188 24.34375 -5.25 24.375 -5.25 C 24.414062 -5.21875 24.4375 -5.1875 24.4375 -5.15625 Z M 24.4375 -5.15625 "></path></g></g></g><g fill="#5f0000" fill-opacity="1"><g transform="translate(183.074096, 65.353835)"><g><path d="M 11.703125 -5.046875 C 11.703125 -4.941406 11.546875 -4.738281 11.234375 -4.4375 C 9.960938 -3.125 8.554688 -2.023438 7.015625 -1.140625 C 5.191406 -0.0664062 3.503906 0.46875 1.953125 0.46875 C 0.0664062 0.46875 -0.875 -0.164062 -0.875 -1.4375 C -0.875 -2.363281 -0.460938 -3.378906 0.359375 -4.484375 L 0.3125 -4.484375 C -0.164062 -3.972656 -0.492188 -3.71875 -0.671875 -3.71875 C -0.703125 -3.71875 -0.734375 -3.734375 -0.765625 -3.765625 L -0.765625 -3.859375 C -0.765625 -3.859375 -0.75 -3.929688 -0.71875 -4.078125 C 0.238281 -5.140625 1.644531 -6.1875 3.5 -7.21875 C 5.5 -8.28125 7.132812 -8.8125 8.40625 -8.8125 C 9.394531 -8.8125 9.890625 -8.363281 9.890625 -7.46875 C 9.890625 -5.925781 7.296875 -4.332031 2.109375 -2.6875 C 1.898438 -2 1.796875 -1.53125 1.796875 -1.28125 C 1.796875 -0.664062 2.191406 -0.359375 2.984375 -0.359375 C 4.054688 -0.359375 5.3125 -0.769531 6.75 -1.59375 C 7.75 -2.175781 8.832031 -2.953125 10 -3.921875 C 11 -4.773438 11.515625 -5.203125 11.546875 -5.203125 C 11.648438 -5.203125 11.703125 -5.148438 11.703125 -5.046875 Z M 8.09375 -7.6875 C 8.09375 -7.988281 7.882812 -8.140625 7.46875 -8.140625 C 6.78125 -8.140625 5.835938 -7.488281 4.640625 -6.1875 C 3.710938 -5.1875 2.972656 -4.207031 2.421875 -3.25 L 2.421875 -3.203125 C 6.203125 -4.398438 8.09375 -5.894531 8.09375 -7.6875 Z M 8.09375 -7.6875 "></path></g></g></g><g fill="#5f0000" fill-opacity="1"><g transform="translate(193.999905, 65.353835)"><g><path d="M 11.390625 -4.75 C 11.390625 -4.300781 10.289062 -3.316406 8.09375 -1.796875 C 5.894531 -0.285156 3.867188 0.46875 2.015625 0.46875 C 0.191406 0.46875 -0.71875 -0.148438 -0.71875 -1.390625 C -0.71875 -2.453125 -0.222656 -3.601562 0.765625 -4.84375 L 0.71875 -4.84375 C 0.40625 -4.5 -0.0859375 -4.140625 -0.765625 -3.765625 L -0.765625 -3.859375 C -0.765625 -3.929688 -0.75 -4.003906 -0.71875 -4.078125 C 0.0703125 -5.035156 1.476562 -6.0625 3.5 -7.15625 C 5.53125 -8.257812 7.113281 -8.8125 8.25 -8.8125 C 9.445312 -8.8125 10.046875 -8.332031 10.046875 -7.375 C 10.046875 -6.851562 9.863281 -6.34375 9.5 -5.84375 C 9.144531 -5.351562 8.726562 -5.109375 8.25 -5.109375 C 7.769531 -5.109375 7.53125 -5.347656 7.53125 -5.828125 C 7.53125 -6.035156 7.664062 -6.378906 7.9375 -6.859375 C 8.207031 -7.335938 8.34375 -7.695312 8.34375 -7.9375 C 8.34375 -8.175781 8.171875 -8.296875 7.828125 -8.296875 C 6.972656 -8.296875 5.769531 -7.375 4.21875 -5.53125 C 2.675781 -3.695312 1.90625 -2.300781 1.90625 -1.34375 C 1.90625 -0.6875 2.300781 -0.359375 3.09375 -0.359375 C 4.5 -0.359375 6.222656 -1.097656 8.265625 -2.578125 C 10.316406 -4.054688 11.34375 -4.796875 11.34375 -4.796875 L 11.390625 -4.796875 Z M 11.390625 -4.75 "></path></g></g></g><g fill="#5f0000" fill-opacity="1"><g transform="translate(204.977251, 65.353835)"><g><path d="M 27.0625 -5.046875 C 27.0625 -4.640625 25.875 -3.539062 23.5 -1.75 C 21.644531 -0.375 20.097656 0.3125 18.859375 0.3125 C 17.867188 0.3125 17.375 -0.0820312 17.375 -0.875 C 17.375 -1.664062 18.128906 -2.953125 19.640625 -4.734375 C 21.148438 -6.523438 21.90625 -7.507812 21.90625 -7.6875 C 21.90625 -7.851562 21.785156 -7.9375 21.546875 -7.9375 C 20.515625 -7.9375 18.382812 -6.578125 15.15625 -3.859375 C 11.925781 -1.148438 9.96875 0.203125 9.28125 0.203125 C 8.726562 0.203125 8.453125 0.0976562 8.453125 -0.109375 C 8.453125 -0.796875 9.316406 -2.191406 11.046875 -4.296875 C 12.785156 -6.410156 13.65625 -7.519531 13.65625 -7.625 C 13.65625 -7.832031 13.519531 -7.9375 13.25 -7.9375 C 12.320312 -7.9375 10.191406 -6.578125 6.859375 -3.859375 C 3.523438 -1.148438 1.582031 0.203125 1.03125 0.203125 C 0.445312 0.203125 0.15625 0.0976562 0.15625 -0.109375 C 0.15625 -0.585938 0.976562 -1.914062 2.625 -4.09375 C 4.28125 -6.28125 5.125 -7.390625 5.15625 -7.421875 C 5.082031 -7.628906 4.976562 -7.734375 4.84375 -7.734375 C 4.257812 -7.734375 3.210938 -7.0625 1.703125 -5.71875 C 0.191406 -4.382812 -0.582031 -3.71875 -0.625 -3.71875 C -0.757812 -3.71875 -0.828125 -3.785156 -0.828125 -3.921875 C -0.828125 -4.128906 0.289062 -5.175781 2.53125 -7.0625 C 3.90625 -8.226562 5.109375 -8.8125 6.140625 -8.8125 C 6.992188 -8.8125 7.421875 -8.414062 7.421875 -7.625 C 7.421875 -7.039062 6.320312 -5.320312 4.125 -2.46875 L 4.28125 -2.421875 C 9.332031 -6.679688 12.664062 -8.8125 14.28125 -8.8125 C 15.375 -8.8125 15.921875 -8.414062 15.921875 -7.625 C 15.921875 -7.039062 15.457031 -6.164062 14.53125 -5 C 13.8125 -4.175781 13.09375 -3.332031 12.375 -2.46875 L 12.53125 -2.421875 C 17.582031 -6.679688 20.929688 -8.8125 22.578125 -8.8125 C 23.640625 -8.8125 24.171875 -8.4375 24.171875 -7.6875 C 24.171875 -7.09375 23.5 -5.960938 22.15625 -4.296875 C 20.820312 -2.628906 20.15625 -1.578125 20.15625 -1.140625 L 20.203125 -0.921875 C 20.304688 -0.890625 20.425781 -0.875 20.5625 -0.875 C 21.289062 -0.875 22.390625 -1.476562 23.859375 -2.6875 C 25.722656 -4.15625 26.789062 -4.960938 27.0625 -5.109375 Z M 27.0625 -5.046875 "></path></g></g></g><g fill="#5f0000" fill-opacity="1"><g transform="translate(231.364108, 65.353835)"><g><path d="M 27.53125 -27.9375 C 27.53125 -25.632812 22.21875 -20.460938 11.59375 -12.421875 C 10.1875 -11.421875 8.453125 -9.992188 6.390625 -8.140625 C 5.734375 -7.316406 4.738281 -5.941406 3.40625 -4.015625 L 3.5 -3.859375 C 7.007812 -7.191406 9.796875 -8.859375 11.859375 -8.859375 C 13.296875 -8.859375 14.015625 -8.328125 14.015625 -7.265625 C 14.015625 -5.585938 12.929688 -3.890625 10.765625 -2.171875 C 8.742188 -0.554688 6.859375 0.25 5.109375 0.25 C 4.078125 0.25 3.5625 -0.0859375 3.5625 -0.765625 C 3.5625 -1.421875 4.453125 -2.09375 6.234375 -2.78125 C 7.441406 -3.15625 8.644531 -3.535156 9.84375 -3.921875 C 11.050781 -5.117188 11.65625 -6.300781 11.65625 -7.46875 C 11.65625 -7.851562 11.429688 -8.046875 10.984375 -8.046875 C 9.265625 -8.046875 5.859375 -5.535156 0.765625 -0.515625 C 0.253906 -0.0351562 -0.359375 0.203125 -1.078125 0.203125 C -1.460938 0.203125 -1.65625 0.0820312 -1.65625 -0.15625 C -1.65625 -0.945312 -0.378906 -2.921875 2.171875 -6.078125 L 2.109375 -6.078125 C 0.835938 -4.804688 0.0664062 -4.171875 -0.203125 -4.171875 C -0.234375 -4.171875 -0.269531 -4.191406 -0.3125 -4.234375 C -0.269531 -4.472656 0.257812 -5.035156 1.28125 -5.921875 C 2.59375 -7.054688 3.25 -7.625 3.25 -7.625 C 3.90625 -8.488281 4.882812 -9.742188 6.1875 -11.390625 C 9.34375 -15.273438 12.4375 -18.765625 15.46875 -21.859375 C 20.414062 -26.835938 23.882812 -29.328125 25.875 -29.328125 C 26.976562 -29.328125 27.53125 -28.863281 27.53125 -27.9375 Z M 26.1875 -27.78125 C 26.1875 -28.4375 25.894531 -28.765625 25.3125 -28.765625 C 23.90625 -28.765625 20.707031 -25.878906 15.71875 -20.109375 C 12.144531 -15.941406 9.3125 -12.398438 7.21875 -9.484375 L 7.21875 -9.4375 C 10.71875 -12.351562 14.222656 -15.289062 17.734375 -18.25 C 23.367188 -23.195312 26.1875 -26.375 26.1875 -27.78125 Z M 9.4375 -3.34375 L 9.4375 -3.40625 C 8.507812 -3.0625 7.582031 -2.71875 6.65625 -2.375 C 5.238281 -1.789062 4.53125 -1.304688 4.53125 -0.921875 C 4.53125 -0.617188 4.6875 -0.46875 5 -0.46875 C 6.40625 -0.46875 7.882812 -1.425781 9.4375 -3.34375 Z M 9.4375 -3.34375 "></path></g></g></g><g fill="#5f0000" fill-opacity="1"><g transform="translate(246.722084, 65.353835)"><g><path d="M 15.5625 -5.109375 C 15.5625 -4.765625 14.378906 -3.644531 12.015625 -1.75 C 10.296875 -0.375 8.816406 0.3125 7.578125 0.3125 C 6.578125 0.3125 6.078125 -0.0976562 6.078125 -0.921875 C 6.078125 -1.546875 6.316406 -2.113281 6.796875 -2.625 L 6.75 -2.625 C 4.582031 -0.664062 2.640625 0.3125 0.921875 0.3125 C -0.378906 0.3125 -1.03125 -0.253906 -1.03125 -1.390625 C -1.03125 -2.390625 -0.550781 -3.4375 0.40625 -4.53125 L 0.359375 -4.53125 C -0.148438 -3.988281 -0.476562 -3.71875 -0.625 -3.71875 C -0.6875 -3.71875 -0.734375 -3.734375 -0.765625 -3.765625 L -0.765625 -3.859375 C -0.765625 -3.859375 -0.75 -3.929688 -0.71875 -4.078125 C 0.132812 -5.109375 1.566406 -6.160156 3.578125 -7.234375 C 5.585938 -8.316406 7.195312 -8.859375 8.40625 -8.859375 C 9.601562 -8.859375 10.203125 -8.414062 10.203125 -7.53125 C 10.203125 -7.320312 10.171875 -7.097656 10.109375 -6.859375 L 10.15625 -6.859375 C 11.320312 -8.160156 12.382812 -8.8125 13.34375 -8.8125 C 13.789062 -8.8125 14.015625 -8.757812 14.015625 -8.65625 C 14.015625 -8.550781 13.140625 -7.441406 11.390625 -5.328125 C 9.640625 -3.222656 8.765625 -1.828125 8.765625 -1.140625 L 8.859375 -0.875 C 8.960938 -0.84375 9.085938 -0.828125 9.234375 -0.828125 C 9.953125 -0.828125 11.144531 -1.539062 12.8125 -2.96875 C 14.476562 -4.394531 15.378906 -5.125 15.515625 -5.15625 C 15.546875 -5.125 15.5625 -5.109375 15.5625 -5.109375 Z M 9.75 -7.375 C 9.75 -7.988281 9.421875 -8.296875 8.765625 -8.296875 C 7.867188 -8.296875 6.378906 -7.296875 4.296875 -5.296875 C 2.222656 -3.304688 1.1875 -1.898438 1.1875 -1.078125 C 1.1875 -0.671875 1.410156 -0.46875 1.859375 -0.46875 C 2.847656 -0.46875 4.410156 -1.394531 6.546875 -3.25 C 8.679688 -5.101562 9.75 -6.476562 9.75 -7.375 Z M 9.75 -7.375 "></path></g></g></g><g fill="#5f0000" fill-opacity="1"><g transform="translate(261.564684, 65.353835)"><g><path d="M 6.4375 -6.796875 C 6.4375 -6.316406 6.101562 -5.835938 5.4375 -5.359375 C 4.769531 -4.878906 4.175781 -4.640625 3.65625 -4.640625 C 3.519531 -4.773438 3.453125 -5.03125 3.453125 -5.40625 C 3.453125 -6.71875 4.175781 -7.375 5.625 -7.375 C 6.164062 -7.375 6.4375 -7.179688 6.4375 -6.796875 Z M 3.96875 -1.703125 C 3.96875 -1.222656 3.628906 -0.738281 2.953125 -0.25 C 2.285156 0.226562 1.695312 0.46875 1.1875 0.46875 C 1.050781 0.320312 0.984375 0.0625 0.984375 -0.3125 C 0.984375 -1.613281 1.703125 -2.265625 3.140625 -2.265625 C 3.691406 -2.265625 3.96875 -2.078125 3.96875 -1.703125 Z M 3.96875 -1.703125 "></path></g></g></g></g></g></svg> 