<?xml version="1.0" encoding="UTF-8"?> <svg xmlns="http://www.w3.org/2000/svg" xmlns:xlink="http://www.w3.org/1999/xlink" width="360" zoomAndPan="magnify" viewBox="0 0 270 359.999987" height="480" preserveAspectRatio="xMidYMid meet" version="1.0"><defs><g></g><clipPath id="449bd79ae8"><path d="M 0 114.359375 L 270 114.359375 L 270 171.410156 L 0 171.410156 Z M 0 114.359375 " clip-rule="nonzero"></path></clipPath><clipPath id="08e43e1d9c"><path d="M 235.902344 114.359375 C 254.734375 114.359375 270 127.128906 270 142.882812 C 270 158.640625 254.734375 171.410156 235.902344 171.410156 L 34.097656 171.410156 C 15.265625 171.410156 0 158.640625 0 142.882812 C 0 127.128906 15.265625 114.359375 34.097656 114.359375 Z M 235.902344 114.359375 " clip-rule="nonzero"></path></clipPath><clipPath id="e832811d20"><path d="M 0 0.359375 L 270 0.359375 L 270 57.410156 L 0 57.410156 Z M 0 0.359375 " clip-rule="nonzero"></path></clipPath><clipPath id="a296283463"><path d="M 235.902344 0.359375 C 254.734375 0.359375 270 13.128906 270 28.882812 C 270 44.640625 254.734375 57.410156 235.902344 57.410156 L 34.097656 57.410156 C 15.265625 57.410156 0 44.640625 0 28.882812 C 0 13.128906 15.265625 0.359375 34.097656 0.359375 Z M 235.902344 0.359375 " clip-rule="nonzero"></path></clipPath><clipPath id="e70d82f432"><rect x="0" width="270" y="0" height="58"></rect></clipPath><clipPath id="28713adbab"><path d="M 0.0117188 114.359375 L 270 114.359375 L 270 171.359375 L 0.0117188 171.359375 Z M 0.0117188 114.359375 " clip-rule="nonzero"></path></clipPath><clipPath id="cc905bbd06"><path d="M 235.894531 114.359375 C 254.722656 114.359375 269.988281 127.128906 269.988281 142.882812 C 269.988281 158.636719 254.722656 171.40625 235.894531 171.40625 L 34.105469 171.40625 C 15.277344 171.40625 0.0117188 158.636719 0.0117188 142.882812 C 0.0117188 127.128906 15.277344 114.359375 34.105469 114.359375 Z M 235.894531 114.359375 " clip-rule="nonzero"></path></clipPath><clipPath id="ed29c28c6b"><rect x="0" width="89" y="0" height="56"></rect></clipPath></defs><g clip-path="url(#449bd79ae8)"><g clip-path="url(#08e43e1d9c)"><g transform="matrix(1, 0, 0, 1, -0, 114)"><g clip-path="url(#e70d82f432)"><g clip-path="url(#e832811d20)"><g clip-path="url(#a296283463)"><path fill="#ffffff" d="M 0 0.359375 L 270.105469 0.359375 L 270.105469 57.410156 L 0 57.410156 Z M 0 0.359375 " fill-opacity="1" fill-rule="nonzero"></path></g></g></g></g></g></g><g clip-path="url(#28713adbab)"><g clip-path="url(#cc905bbd06)"><path stroke-linecap="butt" transform="matrix(0.75, 0, 0, 0.75, 0.0116272, 114.358798)" fill="none" stroke-linejoin="miter" d="M 314.510563 0.000769096 C 339.614732 0.000769096 359.9689 17.026812 359.9689 38.032022 C 359.9689 59.037232 339.614732 76.063275 314.510563 76.063275 L 45.458459 76.063275 C 20.35429 76.063275 0.000122013 59.037232 0.000122013 38.032022 C 0.000122013 17.026812 20.35429 0.000769096 45.458459 0.000769096 Z M 314.510563 0.000769096 " stroke="#000000" stroke-width="2" stroke-opacity="1" stroke-miterlimit="4"></path></g></g><g transform="matrix(1, 0, 0, 1, 90, 113)"><g clip-path="url(#ed29c28c6b)"><g fill="#000000" fill-opacity="1"><g transform="translate(2.319688, 42.481018)"><g><path d="M 1.425781 -1.054688 C 4.140625 -3.277344 6.234375 -5.089844 7.714844 -6.488281 C 9.167969 -7.867188 10.207031 -9.09375 10.835938 -10.171875 C 11.445312 -11.210938 11.746094 -12.25 11.746094 -13.28125 C 11.746094 -14.394531 11.410156 -15.300781 10.738281 -16 C 10.074219 -16.695312 9.203125 -17.039062 8.125 -17.039062 C 5.914062 -17.039062 4.300781 -15.234375 3.28125 -11.621094 L 2.832031 -11.746094 L 3.296875 -11.746094 C 3.296875 -11.40625 3.082031 -11.238281 2.648438 -11.238281 C 2.433594 -11.238281 2.265625 -11.269531 2.136719 -11.332031 C 2.015625 -11.394531 1.921875 -11.484375 1.867188 -11.597656 C 1.804688 -11.722656 1.789062 -11.859375 1.824219 -12 L 3.636719 -19.058594 L 4.085938 -18.945312 L 3.621094 -18.945312 C 3.621094 -19.167969 3.722656 -19.328125 3.925781 -19.429688 C 4.019531 -19.476562 4.136719 -19.503906 4.273438 -19.503906 C 4.449219 -19.503906 4.617188 -19.457031 4.765625 -19.367188 C 4.871094 -19.304688 4.949219 -19.230469 5 -19.144531 C 5.058594 -19.042969 5.085938 -18.9375 5.070312 -18.824219 C 5.058594 -18.707031 5.011719 -18.609375 4.925781 -18.523438 L 4.597656 -18.851562 L 5.046875 -18.738281 C 5.027344 -18.652344 5.015625 -18.519531 5.015625 -18.339844 C 5.015625 -18.214844 5.03125 -18.136719 5.0625 -18.101562 C 5.085938 -18.074219 5.148438 -18.0625 5.246094 -18.0625 C 5.476562 -18.0625 5.890625 -18.164062 6.492188 -18.363281 C 7.8125 -18.78125 8.992188 -18.992188 10.03125 -18.992188 C 11.730469 -18.992188 13.082031 -18.523438 14.085938 -17.589844 C 15.097656 -16.648438 15.601562 -15.425781 15.601562 -13.929688 C 15.601562 -12.753906 15.230469 -11.589844 14.484375 -10.429688 C 13.765625 -9.3125 12.71875 -8.125 11.339844 -6.875 C 9.984375 -5.644531 8.09375 -4.097656 5.667969 -2.230469 C 5.65625 -2.222656 5.648438 -2.214844 5.644531 -2.210938 C 5.65625 -2.226562 5.667969 -2.242188 5.679688 -2.265625 C 5.746094 -2.398438 5.734375 -2.523438 5.640625 -2.648438 C 5.605469 -2.695312 5.5625 -2.726562 5.515625 -2.742188 C 5.523438 -2.742188 5.542969 -2.738281 5.570312 -2.738281 C 8.964844 -2.738281 11.324219 -2.785156 12.644531 -2.878906 C 13.890625 -2.964844 14.773438 -3.1875 15.292969 -3.539062 C 15.777344 -3.875 16.117188 -4.488281 16.308594 -5.390625 L 16.761719 -5.292969 L 16.296875 -5.292969 C 16.296875 -5.535156 16.414062 -5.699219 16.648438 -5.792969 C 16.742188 -5.832031 16.859375 -5.851562 16.996094 -5.851562 C 17.167969 -5.851562 17.308594 -5.828125 17.421875 -5.777344 C 17.664062 -5.675781 17.785156 -5.496094 17.785156 -5.246094 L 17.785156 -5.214844 L 17.082031 -0.441406 L 16.625 -0.511719 L 17.085938 -0.511719 C 17.085938 -0.289062 17.019531 -0.0820312 16.886719 0.105469 C 16.714844 0.34375 16.488281 0.464844 16.207031 0.464844 L 2.042969 0.464844 C 1.703125 0.464844 1.445312 0.296875 1.265625 -0.03125 C 1.171875 -0.203125 1.132812 -0.371094 1.152344 -0.542969 C 1.171875 -0.722656 1.25 -0.886719 1.390625 -1.023438 L 1.40625 -1.042969 Z M 2.011719 -0.335938 L 1.71875 -0.695312 L 2.046875 -0.367188 C 2.0625 -0.382812 2.070312 -0.410156 2.074219 -0.445312 C 2.078125 -0.460938 2.078125 -0.476562 2.074219 -0.488281 C 2.074219 -0.488281 2.074219 -0.484375 2.078125 -0.476562 C 2.085938 -0.464844 2.09375 -0.453125 2.101562 -0.445312 L 2.097656 -0.445312 C 2.078125 -0.457031 2.0625 -0.464844 2.042969 -0.464844 L 16.207031 -0.464844 C 16.167969 -0.464844 16.144531 -0.453125 16.128906 -0.433594 C 16.148438 -0.460938 16.160156 -0.484375 16.160156 -0.511719 L 16.160156 -0.542969 L 16.859375 -5.316406 L 17.320312 -5.246094 L 16.855469 -5.246094 C 16.855469 -5.089844 16.921875 -4.980469 17.054688 -4.925781 C 17.0625 -4.921875 17.070312 -4.917969 17.078125 -4.917969 C 17.078125 -4.917969 17.074219 -4.917969 17.070312 -4.917969 C 17.050781 -4.921875 17.027344 -4.921875 16.996094 -4.921875 L 16.992188 -4.933594 C 17.148438 -4.996094 17.226562 -5.113281 17.226562 -5.292969 L 17.226562 -5.246094 L 17.214844 -5.195312 C 16.972656 -4.054688 16.507812 -3.246094 15.816406 -2.773438 C 15.160156 -2.324219 14.125 -2.050781 12.707031 -1.953125 C 11.367188 -1.859375 8.988281 -1.8125 5.570312 -1.8125 C 5.261719 -1.8125 5.039062 -1.902344 4.898438 -2.089844 C 4.761719 -2.273438 4.742188 -2.46875 4.847656 -2.679688 C 4.902344 -2.785156 4.984375 -2.878906 5.101562 -2.96875 C 7.507812 -4.816406 9.378906 -6.351562 10.714844 -7.5625 C 12.03125 -8.757812 13.027344 -9.882812 13.703125 -10.929688 C 14.347656 -11.9375 14.671875 -12.9375 14.671875 -13.929688 C 14.671875 -15.15625 14.265625 -16.152344 13.449219 -16.910156 C 12.625 -17.679688 11.488281 -18.0625 10.03125 -18.0625 C 9.085938 -18.0625 8.007812 -17.871094 6.785156 -17.484375 C 6.089844 -17.25 5.574219 -17.132812 5.246094 -17.132812 C 4.878906 -17.132812 4.59375 -17.246094 4.386719 -17.464844 C 4.1875 -17.679688 4.085938 -17.972656 4.085938 -18.339844 C 4.085938 -18.597656 4.105469 -18.804688 4.144531 -18.964844 L 4.175781 -19.089844 L 4.269531 -19.179688 C 4.199219 -19.109375 4.160156 -19.027344 4.148438 -18.929688 C 4.136719 -18.832031 4.15625 -18.746094 4.203125 -18.664062 C 4.234375 -18.617188 4.261719 -18.585938 4.289062 -18.570312 C 4.285156 -18.570312 4.277344 -18.574219 4.273438 -18.574219 L 4.265625 -18.574219 C 4.289062 -18.578125 4.3125 -18.585938 4.339844 -18.597656 C 4.480469 -18.667969 4.550781 -18.785156 4.550781 -18.945312 L 4.550781 -18.886719 L 2.726562 -11.773438 C 2.746094 -11.855469 2.734375 -11.933594 2.695312 -12.011719 C 2.660156 -12.082031 2.613281 -12.132812 2.550781 -12.164062 C 2.542969 -12.167969 2.535156 -12.171875 2.527344 -12.171875 C 2.527344 -12.171875 2.53125 -12.171875 2.539062 -12.171875 C 2.5625 -12.167969 2.601562 -12.164062 2.648438 -12.164062 C 2.664062 -12.164062 2.679688 -12.164062 2.6875 -12.167969 C 2.6875 -12.167969 2.683594 -12.164062 2.671875 -12.164062 C 2.628906 -12.152344 2.585938 -12.128906 2.542969 -12.097656 C 2.425781 -12.011719 2.367188 -11.894531 2.367188 -11.746094 L 2.367188 -11.8125 L 2.386719 -11.875 C 3.53125 -15.9375 5.445312 -17.96875 8.125 -17.96875 C 9.464844 -17.96875 10.558594 -17.527344 11.410156 -16.644531 C 12.253906 -15.765625 12.675781 -14.644531 12.675781 -13.28125 C 12.675781 -12.082031 12.332031 -10.890625 11.636719 -9.703125 C 10.964844 -8.550781 9.871094 -7.253906 8.351562 -5.816406 C 6.859375 -4.398438 4.746094 -2.574219 2.011719 -0.335938 Z M 2.011719 -0.335938 "></path></g></g></g><g fill="#000000" fill-opacity="1"><g transform="translate(20.98108, 42.481018)"><g><path d="M 1.949219 0.464844 C 1.578125 0.464844 1.394531 0.214844 1.394531 -0.277344 C 1.394531 -0.773438 1.578125 -1.023438 1.949219 -1.023438 C 3.085938 -1.023438 3.910156 -1.09375 4.425781 -1.238281 C 4.84375 -1.351562 5.121094 -1.570312 5.265625 -1.886719 C 5.4375 -2.273438 5.527344 -2.898438 5.527344 -3.761719 L 5.527344 -25.257812 C 5.527344 -26.121094 5.4375 -26.734375 5.265625 -27.105469 C 5.125 -27.417969 4.847656 -27.636719 4.433594 -27.765625 C 3.9375 -27.921875 3.125 -28 1.996094 -28 C 1.625 -28 1.4375 -28.246094 1.4375 -28.742188 C 1.4375 -29.238281 1.625 -29.484375 1.996094 -29.484375 L 21.636719 -29.484375 C 21.910156 -29.484375 22.132812 -29.410156 22.296875 -29.261719 C 22.476562 -29.101562 22.566406 -28.878906 22.566406 -28.601562 L 22.660156 -22.527344 C 22.660156 -22.285156 22.550781 -22.109375 22.332031 -22 C 22.222656 -21.945312 22.082031 -21.917969 21.917969 -21.917969 C 21.75 -21.917969 21.613281 -21.945312 21.5 -22 C 21.28125 -22.109375 21.171875 -22.28125 21.171875 -22.519531 L 21.636719 -22.519531 L 21.175781 -22.488281 C 21.058594 -24.109375 20.574219 -25.367188 19.722656 -26.261719 C 18.886719 -27.140625 17.789062 -27.582031 16.4375 -27.582031 L 12.769531 -27.582031 C 11.761719 -27.582031 11.015625 -27.511719 10.53125 -27.367188 C 10.136719 -27.25 9.867188 -27.050781 9.726562 -26.769531 C 9.558594 -26.433594 9.472656 -25.914062 9.472656 -25.214844 L 9.472656 -3.945312 C 9.472656 -3.039062 9.582031 -2.398438 9.804688 -2.023438 C 10 -1.6875 10.421875 -1.441406 11.066406 -1.289062 C 11.804688 -1.109375 12.992188 -1.023438 14.625 -1.023438 C 14.863281 -1.023438 15.039062 -0.914062 15.144531 -0.695312 C 15.203125 -0.582031 15.230469 -0.445312 15.230469 -0.277344 C 15.230469 -0.113281 15.203125 0.0273438 15.144531 0.136719 C 15.039062 0.355469 14.863281 0.464844 14.625 0.464844 C 13.351562 0.464844 12.351562 0.449219 11.632812 0.417969 L 11.65625 -0.046875 L 11.648438 0.417969 L 7.46875 0.371094 L 7.476562 -0.09375 L 7.484375 0.371094 L 4.324219 0.417969 L 4.316406 -0.046875 L 4.34375 0.417969 C 3.777344 0.449219 2.980469 0.464844 1.949219 0.464844 Z M 1.949219 -0.464844 C 2.964844 -0.464844 3.742188 -0.480469 4.292969 -0.511719 L 4.300781 -0.511719 L 7.476562 -0.558594 L 11.667969 -0.511719 L 11.675781 -0.511719 C 12.378906 -0.480469 13.363281 -0.464844 14.625 -0.464844 C 14.480469 -0.464844 14.378906 -0.402344 14.316406 -0.277344 C 14.304688 -0.257812 14.300781 -0.246094 14.300781 -0.234375 C 14.300781 -0.242188 14.300781 -0.257812 14.300781 -0.277344 C 14.300781 -0.300781 14.300781 -0.316406 14.300781 -0.324219 C 14.300781 -0.3125 14.304688 -0.296875 14.316406 -0.28125 C 14.378906 -0.15625 14.480469 -0.09375 14.625 -0.09375 C 12.917969 -0.09375 11.660156 -0.191406 10.851562 -0.382812 C 9.949219 -0.601562 9.332031 -0.992188 9.003906 -1.554688 C 8.695312 -2.074219 8.542969 -2.871094 8.542969 -3.945312 L 8.542969 -25.214844 C 8.542969 -26.058594 8.660156 -26.71875 8.894531 -27.183594 C 9.15625 -27.707031 9.613281 -28.066406 10.269531 -28.257812 C 10.839844 -28.425781 11.671875 -28.511719 12.769531 -28.511719 L 16.4375 -28.511719 C 18.054688 -28.511719 19.375 -27.972656 20.394531 -26.902344 C 21.402344 -25.847656 21.96875 -24.398438 22.101562 -22.554688 L 22.101562 -22.519531 C 22.101562 -22.664062 22.039062 -22.769531 21.914062 -22.832031 C 21.898438 -22.839844 21.882812 -22.847656 21.871094 -22.847656 C 21.878906 -22.847656 21.894531 -22.84375 21.917969 -22.84375 C 21.9375 -22.84375 21.953125 -22.847656 21.960938 -22.847656 C 21.949219 -22.847656 21.9375 -22.839844 21.917969 -22.832031 C 21.792969 -22.769531 21.730469 -22.664062 21.730469 -22.511719 L 21.636719 -28.601562 C 21.636719 -28.617188 21.636719 -28.625 21.636719 -28.625 C 21.644531 -28.605469 21.65625 -28.585938 21.675781 -28.570312 C 21.6875 -28.558594 21.699219 -28.550781 21.707031 -28.550781 C 21.691406 -28.554688 21.667969 -28.554688 21.636719 -28.554688 L 1.996094 -28.554688 C 2.109375 -28.554688 2.207031 -28.597656 2.285156 -28.675781 C 2.324219 -28.714844 2.351562 -28.757812 2.367188 -28.804688 L 2.371094 -28.8125 C 2.367188 -28.796875 2.367188 -28.773438 2.367188 -28.742188 C 2.367188 -28.714844 2.367188 -28.6875 2.371094 -28.671875 L 2.367188 -28.679688 C 2.351562 -28.726562 2.324219 -28.769531 2.285156 -28.808594 C 2.207031 -28.886719 2.109375 -28.929688 1.996094 -28.929688 C 3.21875 -28.929688 4.125 -28.835938 4.714844 -28.652344 C 5.386719 -28.441406 5.851562 -28.054688 6.109375 -27.5 C 6.339844 -27.003906 6.453125 -26.257812 6.453125 -25.257812 L 6.453125 -3.761719 C 6.453125 -2.765625 6.339844 -2.015625 6.113281 -1.503906 C 5.851562 -0.921875 5.371094 -0.535156 4.675781 -0.34375 C 4.078125 -0.175781 3.167969 -0.09375 1.949219 -0.09375 C 2.0625 -0.09375 2.160156 -0.132812 2.238281 -0.210938 C 2.277344 -0.25 2.304688 -0.292969 2.320312 -0.339844 L 2.324219 -0.347656 C 2.324219 -0.332031 2.320312 -0.308594 2.320312 -0.277344 C 2.320312 -0.25 2.324219 -0.226562 2.324219 -0.207031 L 2.320312 -0.214844 C 2.304688 -0.261719 2.277344 -0.304688 2.238281 -0.347656 C 2.160156 -0.425781 2.0625 -0.464844 1.949219 -0.464844 Z M 1.949219 -0.464844 "></path></g></g></g><g fill="#000000" fill-opacity="1"><g transform="translate(44.795234, 42.481018)"><g><path d="M 22.472656 -1.023438 C 22.84375 -1.023438 23.03125 -0.773438 23.03125 -0.277344 C 23.03125 0.214844 22.84375 0.464844 22.472656 0.464844 C 21.6875 0.464844 21.074219 0.449219 20.628906 0.417969 L 20.664062 -0.046875 L 20.652344 0.417969 L 18.285156 0.371094 L 18.292969 -0.09375 L 18.304688 0.371094 L 15.796875 0.417969 L 15.789062 -0.046875 L 15.816406 0.417969 C 15.34375 0.449219 14.730469 0.464844 13.976562 0.464844 C 13.738281 0.464844 13.566406 0.355469 13.457031 0.136719 C 13.402344 0.0273438 13.371094 -0.113281 13.371094 -0.277344 C 13.371094 -0.445312 13.402344 -0.582031 13.457031 -0.695312 C 13.566406 -0.914062 13.738281 -1.023438 13.976562 -1.023438 C 14.785156 -1.023438 15.363281 -1.089844 15.714844 -1.222656 C 15.980469 -1.324219 16.167969 -1.535156 16.277344 -1.847656 C 16.414062 -2.246094 16.484375 -2.882812 16.484375 -3.761719 L 16.484375 -14.578125 L 16.949219 -14.578125 L 17.308594 -14.289062 L 5.316406 0.636719 L 5.296875 0.652344 C 5.113281 0.835938 4.894531 0.929688 4.644531 0.929688 C 4.445312 0.929688 4.269531 0.890625 4.109375 0.808594 C 3.847656 0.679688 3.714844 0.484375 3.714844 0.230469 L 3.714844 -14.164062 C 3.714844 -15.042969 3.652344 -15.6875 3.527344 -16.089844 C 3.433594 -16.394531 3.253906 -16.597656 2.992188 -16.699219 C 2.640625 -16.835938 2.0625 -16.902344 1.253906 -16.902344 C 0.882812 -16.902344 0.695312 -17.148438 0.695312 -17.644531 C 0.695312 -18.140625 0.882812 -18.386719 1.253906 -18.386719 C 2.007812 -18.386719 2.59375 -18.371094 3.007812 -18.339844 L 2.972656 -17.875 L 2.980469 -18.339844 L 5.441406 -18.292969 L 5.433594 -17.832031 L 5.425781 -18.292969 L 8.117188 -18.339844 L 8.125 -17.875 L 8.09375 -18.339844 C 8.539062 -18.371094 9.089844 -18.386719 9.75 -18.386719 C 9.988281 -18.386719 10.160156 -18.277344 10.269531 -18.0625 C 10.328125 -17.949219 10.355469 -17.8125 10.355469 -17.644531 C 10.355469 -17.480469 10.328125 -17.339844 10.269531 -17.226562 C 10.160156 -17.011719 9.988281 -16.902344 9.75 -16.902344 C 8.941406 -16.902344 8.363281 -16.835938 8.015625 -16.699219 C 7.746094 -16.597656 7.558594 -16.390625 7.449219 -16.078125 C 7.3125 -15.675781 7.242188 -15.039062 7.242188 -14.164062 L 7.242188 -3.34375 L 6.777344 -3.34375 L 6.417969 -3.632812 L 18.414062 -18.558594 L 18.429688 -18.578125 C 18.613281 -18.761719 18.832031 -18.851562 19.085938 -18.851562 C 19.28125 -18.851562 19.457031 -18.8125 19.617188 -18.734375 C 19.878906 -18.601562 20.011719 -18.410156 20.011719 -18.15625 L 20.011719 -3.761719 C 20.011719 -2.882812 20.082031 -2.246094 20.21875 -1.847656 C 20.328125 -1.53125 20.511719 -1.324219 20.765625 -1.21875 C 21.097656 -1.085938 21.667969 -1.023438 22.472656 -1.023438 Z M 22.472656 -0.09375 C 21.546875 -0.09375 20.863281 -0.179688 20.421875 -0.359375 C 19.902344 -0.566406 19.542969 -0.960938 19.339844 -1.542969 C 19.167969 -2.042969 19.085938 -2.78125 19.085938 -3.761719 L 19.085938 -18.15625 C 19.085938 -18.070312 19.109375 -18 19.160156 -17.941406 C 19.179688 -17.917969 19.191406 -17.90625 19.203125 -17.902344 C 19.175781 -17.917969 19.136719 -17.921875 19.085938 -17.921875 L 18.757812 -18.25 L 19.121094 -17.957031 L 6.316406 -2.023438 L 6.316406 -14.164062 C 6.316406 -15.144531 6.402344 -15.882812 6.574219 -16.378906 C 6.773438 -16.964844 7.144531 -17.359375 7.679688 -17.566406 C 8.136719 -17.742188 8.828125 -17.832031 9.75 -17.832031 C 9.605469 -17.832031 9.503906 -17.769531 9.441406 -17.644531 C 9.429688 -17.625 9.425781 -17.609375 9.421875 -17.597656 C 9.425781 -17.609375 9.425781 -17.625 9.425781 -17.644531 C 9.425781 -17.664062 9.425781 -17.679688 9.421875 -17.691406 C 9.425781 -17.679688 9.429688 -17.664062 9.441406 -17.644531 C 9.503906 -17.519531 9.605469 -17.457031 9.75 -17.457031 C 9.113281 -17.457031 8.582031 -17.445312 8.160156 -17.414062 L 8.144531 -17.414062 L 5.433594 -17.367188 L 2.949219 -17.414062 L 2.9375 -17.414062 C 2.546875 -17.445312 1.984375 -17.457031 1.253906 -17.457031 C 1.367188 -17.457031 1.460938 -17.5 1.542969 -17.578125 C 1.582031 -17.617188 1.609375 -17.660156 1.625 -17.707031 L 1.628906 -17.714844 C 1.625 -17.699219 1.625 -17.675781 1.625 -17.644531 C 1.625 -17.617188 1.625 -17.59375 1.628906 -17.574219 L 1.625 -17.582031 C 1.609375 -17.628906 1.582031 -17.671875 1.542969 -17.710938 C 1.460938 -17.789062 1.367188 -17.832031 1.253906 -17.832031 C 2.179688 -17.832031 2.867188 -17.742188 3.324219 -17.566406 C 3.867188 -17.359375 4.230469 -16.957031 4.414062 -16.367188 C 4.566406 -15.871094 4.644531 -15.136719 4.644531 -14.164062 L 4.644531 0.230469 C 4.644531 0.148438 4.617188 0.078125 4.566406 0.015625 C 4.550781 -0.00390625 4.535156 -0.015625 4.527344 -0.0195312 C 4.554688 -0.0078125 4.59375 0 4.644531 0 L 4.640625 -0.00390625 L 4.96875 0.324219 L 4.605469 0.0351562 L 17.414062 -15.898438 L 17.414062 -3.761719 C 17.414062 -2.78125 17.328125 -2.042969 17.15625 -1.542969 C 16.953125 -0.957031 16.582031 -0.5625 16.046875 -0.355469 C 15.589844 -0.179688 14.902344 -0.09375 13.976562 -0.09375 C 14.121094 -0.09375 14.226562 -0.15625 14.289062 -0.28125 C 14.296875 -0.296875 14.300781 -0.3125 14.304688 -0.324219 C 14.300781 -0.316406 14.300781 -0.300781 14.300781 -0.277344 C 14.300781 -0.257812 14.300781 -0.242188 14.304688 -0.234375 C 14.300781 -0.246094 14.296875 -0.257812 14.289062 -0.277344 C 14.226562 -0.402344 14.121094 -0.464844 13.976562 -0.464844 C 14.710938 -0.464844 15.300781 -0.480469 15.757812 -0.511719 L 15.769531 -0.511719 L 18.296875 -0.558594 L 20.683594 -0.511719 L 20.695312 -0.507812 C 21.117188 -0.480469 21.710938 -0.464844 22.472656 -0.464844 C 22.359375 -0.464844 22.265625 -0.425781 22.1875 -0.347656 C 22.144531 -0.304688 22.117188 -0.261719 22.101562 -0.214844 L 22.097656 -0.207031 C 22.101562 -0.226562 22.101562 -0.25 22.101562 -0.277344 C 22.101562 -0.308594 22.101562 -0.332031 22.097656 -0.347656 L 22.101562 -0.339844 C 22.117188 -0.292969 22.144531 -0.25 22.1875 -0.210938 C 22.265625 -0.132812 22.359375 -0.09375 22.472656 -0.09375 Z M 22.472656 -0.09375 "></path></g></g></g><g fill="#000000" fill-opacity="1"><g transform="translate(68.516568, 42.481018)"><g><path d="M 10.726562 1.023438 C 8.621094 1.023438 6.851562 0.554688 5.414062 -0.375 C 3.976562 -1.308594 2.914062 -2.507812 2.226562 -3.984375 C 1.546875 -5.4375 1.207031 -6.972656 1.207031 -8.589844 C 1.207031 -10.664062 1.730469 -12.476562 2.773438 -14.027344 C 3.808594 -15.5625 5.144531 -16.746094 6.777344 -17.570312 C 8.40625 -18.394531 10.078125 -18.804688 11.792969 -18.804688 C 13.226562 -18.804688 14.539062 -18.519531 15.734375 -17.949219 C 17.039062 -17.320312 17.691406 -16.507812 17.691406 -15.507812 C 17.691406 -14.976562 17.5 -14.519531 17.113281 -14.136719 C 16.730469 -13.75 16.226562 -13.558594 15.601562 -13.558594 C 14.578125 -13.558594 13.757812 -14.152344 13.144531 -15.34375 L 13.558594 -15.554688 L 13.167969 -15.300781 C 12.800781 -15.867188 12.410156 -16.289062 12 -16.5625 C 11.613281 -16.820312 11.035156 -16.949219 10.261719 -16.949219 C 8.6875 -16.949219 7.457031 -16.339844 6.574219 -15.121094 C 5.660156 -13.855469 5.199219 -12.144531 5.199219 -9.984375 C 5.199219 -7.488281 5.816406 -5.449219 7.054688 -3.859375 C 8.261719 -2.308594 10.089844 -1.53125 12.535156 -1.53125 C 14.316406 -1.53125 15.796875 -2.007812 16.980469 -2.960938 L 17.109375 -3.066406 L 17.320312 -3.066406 C 17.558594 -3.066406 17.761719 -2.960938 17.933594 -2.757812 C 18.03125 -2.640625 18.085938 -2.511719 18.101562 -2.378906 C 18.121094 -2.195312 18.0625 -2.035156 17.925781 -1.902344 L 17.917969 -1.890625 L 17.90625 -1.882812 C 16.785156 -0.886719 15.648438 -0.15625 14.5 0.3125 C 13.34375 0.785156 12.085938 1.023438 10.726562 1.023438 Z M 10.726562 0.09375 C 11.964844 0.09375 13.105469 -0.121094 14.148438 -0.546875 C 15.199219 -0.976562 16.246094 -1.652344 17.289062 -2.578125 L 17.597656 -2.230469 L 17.269531 -2.558594 C 17.195312 -2.484375 17.167969 -2.394531 17.175781 -2.285156 C 17.183594 -2.230469 17.195312 -2.191406 17.21875 -2.164062 C 17.234375 -2.144531 17.265625 -2.136719 17.320312 -2.136719 L 17.273438 -2.136719 L 17.273438 -2.601562 L 17.5625 -2.238281 C 16.210938 -1.148438 14.535156 -0.605469 12.535156 -0.605469 C 9.785156 -0.605469 7.714844 -1.5 6.320312 -3.289062 C 4.953125 -5.046875 4.273438 -7.277344 4.273438 -9.984375 C 4.273438 -12.34375 4.789062 -14.238281 5.824219 -15.664062 C 6.890625 -17.140625 8.371094 -17.875 10.261719 -17.875 C 11.222656 -17.875 11.972656 -17.695312 12.515625 -17.335938 C 13.035156 -16.988281 13.511719 -16.480469 13.949219 -15.808594 L 13.972656 -15.769531 C 14.410156 -14.914062 14.953125 -14.488281 15.601562 -14.488281 C 15.96875 -14.488281 16.253906 -14.589844 16.457031 -14.792969 C 16.660156 -14.996094 16.761719 -15.234375 16.761719 -15.507812 C 16.761719 -16.117188 16.285156 -16.652344 15.332031 -17.109375 C 14.265625 -17.621094 13.085938 -17.875 11.792969 -17.875 C 10.226562 -17.875 8.695312 -17.5 7.199219 -16.742188 C 5.707031 -15.988281 4.488281 -14.910156 3.542969 -13.507812 C 2.605469 -12.117188 2.136719 -10.476562 2.136719 -8.589844 C 2.136719 -7.109375 2.445312 -5.707031 3.066406 -4.375 C 3.679688 -3.0625 4.628906 -1.988281 5.917969 -1.15625 C 7.203125 -0.324219 8.804688 0.09375 10.726562 0.09375 Z M 10.726562 0.09375 "></path></g></g></g><g fill="#000000" fill-opacity="1"><g transform="translate(2.319688, 42.481018)"><g><path d="M 1.71875 -0.703125 C 4.445312 -2.929688 6.550781 -4.75 8.03125 -6.15625 C 9.519531 -7.5625 10.585938 -8.820312 11.234375 -9.9375 C 11.890625 -11.050781 12.21875 -12.164062 12.21875 -13.28125 C 12.21875 -14.519531 11.835938 -15.53125 11.078125 -16.3125 C 10.316406 -17.101562 9.332031 -17.5 8.125 -17.5 C 5.675781 -17.5 3.910156 -15.582031 2.828125 -11.75 C 2.828125 -11.71875 2.765625 -11.703125 2.640625 -11.703125 C 2.367188 -11.703125 2.25 -11.765625 2.28125 -11.890625 L 4.09375 -18.953125 C 4.09375 -19.015625 4.148438 -19.046875 4.265625 -19.046875 C 4.359375 -19.046875 4.441406 -19.019531 4.515625 -18.96875 C 4.597656 -18.925781 4.625 -18.890625 4.59375 -18.859375 C 4.5625 -18.734375 4.546875 -18.5625 4.546875 -18.34375 C 4.546875 -17.84375 4.78125 -17.59375 5.25 -17.59375 C 5.53125 -17.59375 5.992188 -17.703125 6.640625 -17.921875 C 7.910156 -18.328125 9.039062 -18.53125 10.03125 -18.53125 C 11.613281 -18.53125 12.859375 -18.101562 13.765625 -17.25 C 14.679688 -16.394531 15.140625 -15.289062 15.140625 -13.9375 C 15.140625 -12.851562 14.789062 -11.769531 14.09375 -10.6875 C 13.394531 -9.601562 12.375 -8.445312 11.03125 -7.21875 C 9.6875 -6 7.804688 -4.457031 5.390625 -2.59375 C 5.265625 -2.507812 5.222656 -2.4375 5.265625 -2.375 C 5.316406 -2.3125 5.421875 -2.28125 5.578125 -2.28125 C 8.984375 -2.28125 11.347656 -2.320312 12.671875 -2.40625 C 14.003906 -2.5 14.960938 -2.75 15.546875 -3.15625 C 16.140625 -3.5625 16.546875 -4.273438 16.765625 -5.296875 C 16.765625 -5.359375 16.84375 -5.390625 17 -5.390625 C 17.21875 -5.390625 17.328125 -5.34375 17.328125 -5.25 L 16.625 -0.515625 C 16.625 -0.390625 16.582031 -0.269531 16.5 -0.15625 C 16.425781 -0.0507812 16.328125 0 16.203125 0 L 2.046875 0 C 1.890625 0 1.765625 -0.0820312 1.671875 -0.25 C 1.578125 -0.425781 1.59375 -0.578125 1.71875 -0.703125 Z M 1.71875 -0.703125 "></path></g></g></g><g fill="#000000" fill-opacity="1"><g transform="translate(20.98108, 42.481018)"><g><path d="M 1.953125 0 C 1.890625 0 1.859375 -0.09375 1.859375 -0.28125 C 1.859375 -0.46875 1.890625 -0.5625 1.953125 -0.5625 C 3.128906 -0.5625 3.992188 -0.632812 4.546875 -0.78125 C 5.109375 -0.9375 5.488281 -1.238281 5.6875 -1.6875 C 5.882812 -2.144531 5.984375 -2.835938 5.984375 -3.765625 L 5.984375 -25.265625 C 5.984375 -26.191406 5.882812 -26.867188 5.6875 -27.296875 C 5.488281 -27.734375 5.117188 -28.035156 4.578125 -28.203125 C 4.035156 -28.378906 3.175781 -28.46875 2 -28.46875 C 1.9375 -28.46875 1.90625 -28.5625 1.90625 -28.75 C 1.90625 -28.9375 1.9375 -29.03125 2 -29.03125 L 21.640625 -29.03125 C 21.953125 -29.03125 22.109375 -28.890625 22.109375 -28.609375 L 22.203125 -22.515625 C 22.203125 -22.429688 22.109375 -22.390625 21.921875 -22.390625 C 21.734375 -22.390625 21.640625 -22.429688 21.640625 -22.515625 C 21.515625 -24.253906 20.988281 -25.609375 20.0625 -26.578125 C 19.132812 -27.554688 17.925781 -28.046875 16.4375 -28.046875 L 12.765625 -28.046875 C 11.710938 -28.046875 10.921875 -27.96875 10.390625 -27.8125 C 9.867188 -27.65625 9.507812 -27.375 9.3125 -26.96875 C 9.113281 -26.570312 9.015625 -25.988281 9.015625 -25.21875 L 9.015625 -3.953125 C 9.015625 -2.960938 9.144531 -2.238281 9.40625 -1.78125 C 9.664062 -1.332031 10.179688 -1.015625 10.953125 -0.828125 C 11.734375 -0.648438 12.957031 -0.5625 14.625 -0.5625 C 14.71875 -0.5625 14.765625 -0.46875 14.765625 -0.28125 C 14.765625 -0.09375 14.71875 0 14.625 0 C 13.351562 0 12.363281 -0.015625 11.65625 -0.046875 L 7.46875 -0.09375 L 4.3125 -0.046875 C 3.757812 -0.015625 2.972656 0 1.953125 0 Z M 1.953125 0 "></path></g></g></g><g fill="#000000" fill-opacity="1"><g transform="translate(44.795234, 42.481018)"><g><path d="M 22.46875 -0.5625 C 22.53125 -0.5625 22.5625 -0.46875 22.5625 -0.28125 C 22.5625 -0.09375 22.53125 0 22.46875 0 C 21.695312 0 21.097656 -0.015625 20.671875 -0.046875 L 18.296875 -0.09375 L 15.78125 -0.046875 C 15.320312 -0.015625 14.722656 0 13.984375 0 C 13.890625 0 13.84375 -0.09375 13.84375 -0.28125 C 13.84375 -0.46875 13.890625 -0.5625 13.984375 -0.5625 C 14.847656 -0.5625 15.476562 -0.632812 15.875 -0.78125 C 16.28125 -0.9375 16.5625 -1.238281 16.71875 -1.6875 C 16.875 -2.144531 16.953125 -2.835938 16.953125 -3.765625 L 16.953125 -14.578125 L 4.96875 0.328125 C 4.875 0.421875 4.765625 0.46875 4.640625 0.46875 C 4.515625 0.46875 4.40625 0.441406 4.3125 0.390625 C 4.21875 0.347656 4.171875 0.296875 4.171875 0.234375 L 4.171875 -14.15625 C 4.171875 -15.09375 4.101562 -15.785156 3.96875 -16.234375 C 3.832031 -16.679688 3.5625 -16.984375 3.15625 -17.140625 C 2.75 -17.296875 2.113281 -17.375 1.25 -17.375 C 1.1875 -17.375 1.15625 -17.460938 1.15625 -17.640625 C 1.15625 -17.828125 1.1875 -17.921875 1.25 -17.921875 C 2 -17.921875 2.570312 -17.90625 2.96875 -17.875 L 5.4375 -17.828125 L 8.125 -17.875 C 8.5625 -17.90625 9.101562 -17.921875 9.75 -17.921875 C 9.84375 -17.921875 9.890625 -17.828125 9.890625 -17.640625 C 9.890625 -17.460938 9.84375 -17.375 9.75 -17.375 C 8.882812 -17.375 8.25 -17.296875 7.84375 -17.140625 C 7.445312 -16.984375 7.171875 -16.679688 7.015625 -16.234375 C 6.859375 -15.785156 6.78125 -15.09375 6.78125 -14.15625 L 6.78125 -3.34375 L 18.765625 -18.25 C 18.859375 -18.34375 18.960938 -18.390625 19.078125 -18.390625 C 19.203125 -18.390625 19.3125 -18.363281 19.40625 -18.3125 C 19.5 -18.269531 19.546875 -18.21875 19.546875 -18.15625 L 19.546875 -3.765625 C 19.546875 -2.835938 19.625 -2.144531 19.78125 -1.6875 C 19.9375 -1.238281 20.207031 -0.9375 20.59375 -0.78125 C 20.976562 -0.632812 21.601562 -0.5625 22.46875 -0.5625 Z M 22.46875 -0.5625 "></path></g></g></g><g fill="#000000" fill-opacity="1"><g transform="translate(68.516568, 42.481018)"><g><path d="M 10.734375 0.5625 C 8.710938 0.5625 7.019531 0.117188 5.65625 -0.765625 C 4.300781 -1.648438 3.296875 -2.785156 2.640625 -4.171875 C 1.992188 -5.566406 1.671875 -7.039062 1.671875 -8.59375 C 1.671875 -10.570312 2.164062 -12.296875 3.15625 -13.765625 C 4.144531 -15.234375 5.421875 -16.363281 6.984375 -17.15625 C 8.546875 -17.945312 10.148438 -18.34375 11.796875 -18.34375 C 13.160156 -18.34375 14.40625 -18.070312 15.53125 -17.53125 C 16.664062 -16.988281 17.234375 -16.316406 17.234375 -15.515625 C 17.234375 -15.109375 17.082031 -14.757812 16.78125 -14.46875 C 16.488281 -14.175781 16.097656 -14.03125 15.609375 -14.03125 C 14.765625 -14.03125 14.082031 -14.539062 13.5625 -15.5625 C 13.15625 -16.175781 12.71875 -16.640625 12.25 -16.953125 C 11.789062 -17.265625 11.128906 -17.421875 10.265625 -17.421875 C 8.523438 -17.421875 7.164062 -16.742188 6.1875 -15.390625 C 5.21875 -14.046875 4.734375 -12.242188 4.734375 -9.984375 C 4.734375 -7.378906 5.382812 -5.238281 6.6875 -3.5625 C 7.988281 -1.894531 9.9375 -1.0625 12.53125 -1.0625 C 14.425781 -1.0625 16.007812 -1.570312 17.28125 -2.59375 L 17.328125 -2.59375 C 17.410156 -2.59375 17.488281 -2.546875 17.5625 -2.453125 C 17.644531 -2.367188 17.65625 -2.296875 17.59375 -2.234375 C 16.507812 -1.273438 15.414062 -0.566406 14.3125 -0.109375 C 13.21875 0.335938 12.023438 0.5625 10.734375 0.5625 Z M 10.734375 0.5625 "></path></g></g></g></g></g></svg> 