<?xml version="1.0" encoding="UTF-8"?> <svg xmlns="http://www.w3.org/2000/svg" xmlns:xlink="http://www.w3.org/1999/xlink" width="360" zoomAndPan="magnify" viewBox="0 0 270 359.999987" height="480" preserveAspectRatio="xMidYMid meet" version="1.0"><defs><clipPath id="c220d50d91"><path d="M 237 168 L 255.996094 168 L 255.996094 186 L 237 186 Z M 237 168 " clip-rule="nonzero"></path></clipPath><clipPath id="166e47a1d5"><path d="M 13.746094 174 L 33 174 L 33 192 L 13.746094 192 Z M 13.746094 174 " clip-rule="nonzero"></path></clipPath></defs><path fill="#5f0000" d="M 134.265625 74.167969 C 105.179688 74.808594 80.496094 85.078125 60.207031 104.96875 C 57.417969 107.84375 54.820312 110.796875 52.414062 113.828125 L 52.417969 113.828125 C 53.363281 114.3125 54.222656 115.019531 55.003906 115.949219 C 57.136719 113.277344 59.421875 110.660156 61.851562 108.101562 C 81.960938 88.269531 106.210938 77.988281 134.605469 77.261719 C 142.226562 77.285156 149.578125 78.023438 156.65625 79.472656 L 156.648438 79.472656 C 175.292969 83.558594 192.070312 92.675781 206.976562 106.824219 C 221.054688 121.101562 230.320312 137.46875 234.769531 155.921875 C 235.082031 155.832031 235.457031 155.75 235.898438 155.667969 C 236.496094 155.570312 237.023438 155.511719 237.472656 155.5 C 237.554688 155.496094 237.65625 155.492188 237.765625 155.492188 C 237.847656 155.492188 237.933594 155.496094 238.023438 155.496094 C 233.648438 136.472656 224.34375 119.699219 210.105469 105.179688 C 194.460938 90.011719 176.492188 80.457031 156.207031 76.511719 L 156.199219 76.511719 C 149.171875 75.050781 141.859375 74.269531 134.265625 74.167969 Z M 134.265625 74.167969 " fill-opacity="1" fill-rule="nonzero"></path><path fill="#5f0000" d="M 35.328125 204.128906 C 35.019531 204.214844 34.644531 204.300781 34.203125 204.378906 C 33.605469 204.480469 33.082031 204.535156 32.628906 204.546875 C 32.546875 204.554688 32.449219 204.554688 32.335938 204.554688 L 32.078125 204.554688 C 36.453125 223.582031 45.757812 240.351562 59.996094 254.875 C 75.675781 270.074219 93.691406 279.640625 114.039062 283.570312 L 114.035156 283.570312 C 121.023438 285.011719 128.289062 285.785156 135.835938 285.886719 C 164.921875 285.242188 189.605469 274.976562 209.894531 255.082031 C 212.683594 252.210938 215.28125 249.257812 217.6875 246.226562 L 217.691406 246.226562 C 216.746094 245.746094 215.882812 245.039062 215.101562 244.105469 L 215.097656 244.105469 C 212.964844 246.777344 210.679688 249.394531 208.25 251.953125 C 188.140625 271.785156 163.890625 282.0625 135.496094 282.792969 C 127.929688 282.765625 120.625 282.039062 113.59375 280.609375 L 113.589844 280.609375 C 94.890625 276.539062 78.070312 267.410156 63.128906 253.226562 C 49.046875 238.949219 39.78125 222.585938 35.332031 204.132812 Z M 35.328125 204.128906 " fill-opacity="1" fill-rule="nonzero"></path><path fill="#5f0000" d="M 223.679688 230.832031 C 224.039062 230.8125 224.277344 230.628906 224.390625 230.285156 C 224.433594 227.972656 224.738281 226.191406 225.308594 224.9375 L 227.308594 220.355469 C 229.1875 216.824219 230.566406 214.066406 231.453125 212.078125 C 231.960938 211.011719 232.351562 210.066406 232.617188 209.242188 C 234.933594 202.015625 236.511719 196.511719 237.355469 192.730469 C 238.382812 187.601562 238.992188 181.355469 239.179688 173.984375 C 239.136719 168.046875 238.648438 165.101562 237.714844 165.152344 C 237.316406 165.171875 237.074219 165.398438 236.992188 165.832031 C 237.335938 167.019531 237.558594 168.964844 237.664062 171.65625 L 237.703125 174.171875 L 237.382812 180.898438 C 237.136719 184.679688 236.644531 188.527344 235.914062 192.441406 C 234.941406 196.726562 233.265625 202.480469 230.882812 209.703125 C 230.757812 210.105469 230 211.75 228.609375 214.628906 C 227.121094 217.4375 226.210938 219.207031 225.878906 219.9375 L 223.988281 224.273438 C 223.824219 224.660156 223.6875 225.027344 223.578125 225.371094 C 223.367188 226.0625 223.1875 226.921875 223.042969 227.953125 L 222.945312 230.140625 C 223.023438 230.578125 223.265625 230.808594 223.667969 230.832031 " fill-opacity="1" fill-rule="nonzero"></path><path fill="#5f0000" d="M 46.421875 129.214844 C 46.0625 129.238281 45.824219 129.417969 45.710938 129.765625 C 45.667969 132.074219 45.363281 133.859375 44.796875 135.109375 L 42.792969 139.691406 C 40.914062 143.226562 39.535156 145.984375 38.652344 147.96875 C 38.140625 149.039062 37.753906 149.984375 37.484375 150.808594 C 35.167969 158.035156 33.589844 163.539062 32.746094 167.320312 C 31.71875 172.445312 31.109375 178.695312 30.921875 186.0625 C 30.964844 192.003906 31.453125 194.949219 32.386719 194.898438 C 32.785156 194.875 33.027344 194.648438 33.113281 194.21875 C 32.769531 193.027344 32.542969 191.085938 32.4375 188.390625 L 32.398438 185.875 L 32.71875 179.152344 C 32.96875 175.371094 33.457031 171.523438 34.191406 167.605469 C 35.160156 163.320312 36.839844 157.566406 39.21875 150.347656 C 39.34375 149.941406 40.105469 148.300781 41.492188 145.417969 C 42.980469 142.613281 43.890625 140.84375 44.222656 140.109375 L 46.113281 135.773438 C 46.277344 135.386719 46.414062 135.023438 46.523438 134.679688 C 46.738281 133.988281 46.914062 133.128906 47.058594 132.097656 L 47.15625 129.910156 C 47.078125 129.472656 46.835938 129.242188 46.433594 129.214844 " fill-opacity="1" fill-rule="nonzero"></path><path fill="#5f0000" d="M 245.476562 197.652344 L 244.355469 196.546875 L 242.167969 194.597656 L 241.550781 193.980469 C 240.984375 193.398438 240.496094 192.753906 240.082031 192.050781 C 239.679688 191.375 239.328125 190.410156 239.023438 189.152344 C 238.628906 187.386719 238.445312 186.210938 238.476562 185.628906 C 240.625 186.28125 242.460938 187.839844 243.992188 190.308594 C 245.425781 192.890625 245.921875 195.332031 245.480469 197.632812 M 246.144531 200.050781 C 246.355469 199.921875 246.496094 199.75 246.566406 199.542969 C 246.730469 198.921875 246.851562 198.375 246.925781 197.894531 C 247.101562 197.199219 247.140625 196.210938 247.042969 194.9375 C 246.839844 193.046875 246.277344 191.3125 245.355469 189.734375 C 244.191406 187.824219 242.925781 186.40625 241.558594 185.484375 C 241.175781 185.21875 240.691406 184.941406 240.109375 184.644531 C 240.054688 184.601562 239.675781 184.46875 238.972656 184.242188 C 238.246094 183.953125 237.667969 183.890625 237.242188 184.050781 C 237.007812 184.210938 236.886719 184.421875 236.886719 184.675781 C 236.886719 184.824219 236.925781 184.964844 237 185.09375 C 236.996094 186.027344 237.058594 186.808594 237.179688 187.441406 C 237.589844 189.785156 238.070312 191.457031 238.621094 192.457031 C 239.035156 193.230469 239.582031 194.003906 240.273438 194.769531 L 241.0625 195.578125 C 242.535156 196.84375 243.691406 197.914062 244.535156 198.789062 C 244.660156 198.910156 244.800781 199.070312 244.957031 199.269531 C 245.117188 199.640625 245.230469 199.84375 245.300781 199.886719 C 245.59375 200.164062 245.871094 200.222656 246.144531 200.050781 " fill-opacity="1" fill-rule="nonzero"></path><path fill="#5f0000" d="M 24.625 162.394531 L 25.746094 163.5 L 27.933594 165.453125 L 28.554688 166.066406 C 29.117188 166.652344 29.605469 167.296875 30.019531 168 C 30.421875 168.675781 30.773438 169.640625 31.078125 170.894531 C 31.472656 172.660156 31.65625 173.835938 31.625 174.421875 C 29.476562 173.769531 27.640625 172.207031 26.113281 169.742188 C 24.675781 167.160156 24.179688 164.71875 24.625 162.414062 M 23.960938 160 C 23.746094 160.128906 23.605469 160.296875 23.535156 160.507812 C 23.371094 161.125 23.25 161.675781 23.175781 162.152344 C 23.003906 162.851562 22.964844 163.835938 23.058594 165.109375 C 23.261719 167 23.824219 168.734375 24.746094 170.316406 C 25.910156 172.226562 27.179688 173.640625 28.546875 174.5625 C 28.929688 174.828125 29.410156 175.109375 29.992188 175.402344 C 30.046875 175.445312 30.425781 175.582031 31.128906 175.808594 C 31.855469 176.097656 32.433594 176.160156 32.859375 175.996094 C 33.097656 175.835938 33.214844 175.628906 33.21875 175.375 C 33.214844 175.226562 33.175781 175.085938 33.101562 174.957031 C 33.105469 174.023438 33.042969 173.242188 32.921875 172.609375 C 32.511719 170.261719 32.03125 168.589844 31.480469 167.589844 C 31.066406 166.816406 30.519531 166.046875 29.828125 165.28125 L 29.042969 164.472656 C 27.566406 163.207031 26.410156 162.136719 25.570312 161.257812 C 25.441406 161.136719 25.300781 160.980469 25.144531 160.777344 C 24.984375 160.410156 24.871094 160.207031 24.800781 160.164062 C 24.511719 159.882812 24.230469 159.828125 23.960938 160 " fill-opacity="1" fill-rule="nonzero"></path><path fill="#5f0000" d="M 242.996094 193.082031 C 243.296875 192.875 243.410156 192.597656 243.328125 192.246094 C 243.042969 191.46875 242.613281 190.632812 242.035156 189.734375 L 240.175781 186.894531 C 239.648438 186.15625 239.222656 185.605469 238.890625 185.238281 C 238.808594 185.140625 238.691406 185.015625 238.539062 184.863281 C 238.46875 184.804688 238.394531 184.761719 238.316406 184.730469 C 238.09375 184.652344 237.886719 184.667969 237.6875 184.777344 C 237.304688 185.054688 237.222656 185.398438 237.429688 185.808594 C 237.886719 186.292969 238.378906 186.902344 238.898438 187.636719 C 240.035156 189.386719 240.652344 190.332031 240.757812 190.46875 C 240.875 190.640625 241.109375 191.035156 241.453125 191.648438 C 241.628906 191.984375 241.796875 192.355469 241.953125 192.761719 C 241.976562 192.8125 242.003906 192.855469 242.03125 192.890625 C 242.308594 193.203125 242.625 193.265625 242.988281 193.085938 " fill-opacity="1" fill-rule="nonzero"></path><path fill="#5f0000" d="M 27.105469 166.964844 C 26.804688 167.171875 26.695312 167.453125 26.777344 167.800781 C 27.058594 168.578125 27.488281 169.417969 28.066406 170.3125 L 29.925781 173.152344 C 30.453125 173.890625 30.882812 174.441406 31.210938 174.8125 C 31.292969 174.90625 31.410156 175.03125 31.5625 175.183594 C 31.632812 175.246094 31.707031 175.289062 31.785156 175.316406 C 32.007812 175.398438 32.21875 175.378906 32.414062 175.269531 C 32.796875 174.992188 32.882812 174.648438 32.671875 174.238281 C 32.214844 173.753906 31.726562 173.144531 31.203125 172.410156 C 30.066406 170.660156 29.449219 169.71875 29.34375 169.582031 C 29.226562 169.40625 28.996094 169.011719 28.652344 168.402344 C 28.476562 168.066406 28.308594 167.691406 28.148438 167.285156 C 28.125 167.238281 28.101562 167.195312 28.070312 167.15625 C 27.792969 166.847656 27.476562 166.78125 27.113281 166.960938 " fill-opacity="1" fill-rule="nonzero"></path><path fill="#5f0000" d="M 225.511719 194.421875 C 225.558594 194.386719 225.988281 193.796875 226.808594 192.644531 L 228.265625 190.363281 L 229.214844 189.070312 C 230.136719 187.859375 230.964844 186.917969 231.703125 186.238281 C 232.859375 185.09375 234.34375 184.398438 236.15625 184.152344 C 236.28125 184.140625 236.515625 184.144531 236.859375 184.164062 C 236.742188 184.265625 236.667969 184.386719 236.628906 184.523438 C 236.5625 185.382812 236.378906 186.238281 236.078125 187.09375 C 235.382812 188.765625 234.457031 190.125 233.304688 191.179688 C 231.160156 193.105469 228.570312 194.1875 225.535156 194.421875 M 223.121094 195.773438 C 223.214844 195.84375 223.367188 195.886719 223.570312 195.898438 C 224.175781 195.945312 224.933594 195.9375 225.839844 195.875 C 226.917969 195.773438 227.917969 195.59375 228.839844 195.332031 C 231.039062 194.621094 232.773438 193.675781 234.046875 192.496094 C 235.5625 191.144531 236.703125 189.507812 237.464844 187.585938 C 237.757812 186.753906 237.957031 185.902344 238.0625 185.03125 C 238.128906 184.664062 238.046875 184.371094 237.816406 184.15625 C 238.0625 183.976562 238.175781 183.746094 238.152344 183.464844 C 238.132812 183.246094 238.023438 183.066406 237.832031 182.925781 C 237.566406 182.738281 237.066406 182.65625 236.332031 182.675781 C 235.835938 182.664062 235.277344 182.761719 234.660156 182.964844 C 233.28125 183.300781 232.046875 183.957031 230.953125 184.929688 C 230.042969 185.742188 229.097656 186.792969 228.121094 188.078125 L 227.152344 189.386719 C 226.132812 191.0625 225.203125 192.433594 224.367188 193.5 C 224.136719 193.769531 223.949219 193.964844 223.8125 194.078125 C 223.710938 194.183594 223.492188 194.332031 223.152344 194.53125 C 223.074219 194.59375 223.015625 194.652344 222.980469 194.707031 C 222.765625 195.125 222.808594 195.476562 223.105469 195.765625 " fill-opacity="1" fill-rule="nonzero"></path><path fill="#5f0000" d="M 44.59375 165.625 C 44.546875 165.660156 44.113281 166.253906 43.296875 167.402344 L 41.835938 169.6875 L 40.886719 170.980469 C 39.964844 172.1875 39.136719 173.132812 38.402344 173.808594 C 37.246094 174.953125 35.757812 175.648438 33.945312 175.894531 C 33.824219 175.910156 33.585938 175.90625 33.242188 175.882812 C 33.359375 175.78125 33.433594 175.664062 33.472656 175.523438 C 33.539062 174.664062 33.722656 173.808594 34.023438 172.957031 C 34.722656 171.285156 35.644531 169.921875 36.796875 168.867188 C 38.945312 166.941406 41.535156 165.863281 44.566406 165.628906 M 46.980469 164.273438 C 46.886719 164.203125 46.734375 164.164062 46.535156 164.152344 C 45.925781 164.105469 45.167969 164.113281 44.265625 164.171875 C 43.183594 164.273438 42.183594 164.457031 41.261719 164.71875 C 39.0625 165.425781 37.328125 166.371094 36.054688 167.554688 C 34.539062 168.90625 33.398438 170.539062 32.640625 172.460938 C 32.34375 173.292969 32.144531 174.144531 32.039062 175.015625 C 31.972656 175.386719 32.054688 175.679688 32.285156 175.894531 C 32.039062 176.070312 31.925781 176.300781 31.949219 176.582031 C 31.972656 176.800781 32.078125 176.980469 32.269531 177.121094 C 32.535156 177.308594 33.035156 177.394531 33.769531 177.375 C 34.265625 177.382812 34.824219 177.289062 35.445312 177.082031 C 36.820312 176.75 38.054688 176.09375 39.148438 175.121094 C 40.058594 174.308594 41.003906 173.257812 41.980469 171.972656 L 42.949219 170.660156 C 43.96875 168.984375 44.898438 167.613281 45.734375 166.550781 C 45.964844 166.277344 46.152344 166.085938 46.289062 165.96875 C 46.390625 165.867188 46.609375 165.714844 46.949219 165.519531 C 47.03125 165.457031 47.085938 165.394531 47.121094 165.34375 C 47.335938 164.925781 47.292969 164.570312 46.996094 164.285156 " fill-opacity="1" fill-rule="nonzero"></path><path fill="#5f0000" d="M 230.234375 190.804688 C 230.527344 190.980469 230.8125 190.96875 231.085938 190.777344 C 231.332031 190.546875 231.578125 190.292969 231.832031 190.011719 L 233.445312 188.101562 C 233.777344 187.730469 234.144531 187.375 234.550781 187.03125 C 235.050781 186.589844 235.601562 186.195312 236.199219 185.839844 C 236.273438 185.777344 236.675781 185.578125 237.40625 185.246094 L 237.816406 185.09375 C 237.871094 185.066406 237.925781 185.03125 237.984375 184.976562 C 238.15625 184.820312 238.234375 184.621094 238.226562 184.386719 C 238.207031 184.148438 238.097656 183.960938 237.90625 183.824219 C 237.726562 183.703125 237.527344 183.667969 237.3125 183.71875 C 237.203125 183.714844 236.703125 183.933594 235.800781 184.378906 C 234.898438 184.867188 234.050781 185.476562 233.261719 186.203125 C 233.027344 186.40625 232.695312 186.742188 232.261719 187.214844 L 230.761719 189.003906 L 230.023438 189.792969 C 229.816406 190.195312 229.886719 190.53125 230.230469 190.804688 " fill-opacity="1" fill-rule="nonzero"></path><path fill="#5f0000" d="M 39.867188 169.242188 C 39.574219 169.070312 39.292969 169.078125 39.015625 169.269531 C 38.769531 169.5 38.523438 169.753906 38.269531 170.035156 L 36.65625 171.949219 C 36.328125 172.316406 35.960938 172.671875 35.554688 173.015625 C 35.050781 173.457031 34.503906 173.855469 33.90625 174.210938 C 33.828125 174.273438 33.425781 174.46875 32.695312 174.804688 L 32.285156 174.957031 C 32.234375 174.984375 32.175781 175.019531 32.117188 175.070312 C 31.949219 175.230469 31.867188 175.429688 31.875 175.664062 C 31.894531 175.898438 32.003906 176.085938 32.199219 176.226562 C 32.375 176.34375 32.574219 176.378906 32.792969 176.332031 C 32.898438 176.335938 33.398438 176.117188 34.300781 175.671875 C 35.207031 175.179688 36.054688 174.570312 36.839844 173.84375 C 37.074219 173.644531 37.40625 173.304688 37.839844 172.835938 L 39.339844 171.046875 L 40.078125 170.257812 C 40.285156 169.855469 40.214844 169.519531 39.871094 169.242188 " fill-opacity="1" fill-rule="nonzero"></path><path fill="#5f0000" d="M 225.101562 205.308594 C 227.824219 205.230469 230.246094 203.640625 232.367188 200.539062 C 233.148438 199.425781 234.03125 197.824219 235.023438 195.734375 C 235.207031 195.351562 235.425781 194.859375 235.675781 194.257812 L 238.207031 188.15625 C 238.433594 187.589844 238.5 187.242188 238.410156 187.113281 C 238.304688 186.800781 238.078125 186.628906 237.722656 186.59375 C 237.433594 186.585938 237.207031 186.726562 237.042969 187.007812 C 236.921875 187.386719 236.828125 187.65625 236.761719 187.8125 L 234.125 194.148438 C 233.765625 194.988281 233.277344 196 232.652344 197.191406 C 231.675781 199 230.761719 200.378906 229.917969 201.328125 C 228.511719 202.78125 227.140625 203.597656 225.800781 203.78125 C 225.441406 203.863281 225.023438 203.859375 224.542969 203.765625 C 224.316406 203.699219 224.257812 203.601562 224.375 203.480469 C 224.722656 202.957031 225.191406 202.574219 225.789062 202.332031 C 225.972656 202.242188 226.160156 202.183594 226.34375 202.164062 C 226.519531 202.308594 226.710938 202.367188 226.925781 202.347656 C 227.09375 202.328125 227.242188 202.253906 227.375 202.125 C 227.738281 201.632812 227.617188 201.203125 227.011719 200.832031 C 226.617188 200.601562 226.019531 200.648438 225.222656 200.976562 C 224.414062 201.3125 223.75 201.828125 223.230469 202.515625 C 222.773438 203.230469 222.738281 203.890625 223.117188 204.5 C 223.609375 205.070312 224.265625 205.339844 225.089844 205.308594 " fill-opacity="1" fill-rule="nonzero"></path><path fill="#5f0000" d="M 45 154.742188 C 42.277344 154.816406 39.855469 156.40625 37.734375 159.511719 C 36.953125 160.621094 36.070312 162.222656 35.078125 164.3125 C 34.894531 164.699219 34.675781 165.191406 34.425781 165.792969 L 31.894531 171.894531 C 31.667969 172.457031 31.601562 172.804688 31.691406 172.9375 C 31.796875 173.25 32.027344 173.421875 32.378906 173.457031 C 32.671875 173.460938 32.898438 173.324219 33.058594 173.039062 C 33.179688 172.660156 33.273438 172.394531 33.34375 172.238281 L 35.976562 165.898438 C 36.335938 165.0625 36.828125 164.046875 37.449219 162.859375 C 38.425781 161.046875 39.339844 159.667969 40.1875 158.722656 C 41.589844 157.269531 42.964844 156.453125 44.304688 156.269531 C 44.660156 156.183594 45.082031 156.191406 45.5625 156.28125 C 45.789062 156.351562 45.84375 156.445312 45.726562 156.566406 C 45.378906 157.09375 44.910156 157.476562 44.316406 157.714844 C 44.128906 157.808594 43.941406 157.863281 43.757812 157.882812 C 43.582031 157.742188 43.390625 157.683594 43.179688 157.703125 C 43.007812 157.71875 42.859375 157.792969 42.730469 157.921875 C 42.363281 158.414062 42.484375 158.84375 43.089844 159.214844 C 43.488281 159.449219 44.085938 159.402344 44.878906 159.074219 C 45.6875 158.734375 46.351562 158.222656 46.871094 157.53125 C 47.328125 156.820312 47.363281 156.160156 46.984375 155.550781 C 46.496094 154.980469 45.835938 154.710938 45.011719 154.742188 " fill-opacity="1" fill-rule="nonzero"></path><path fill="#5f0000" d="M 235.367188 227.910156 L 233.164062 224.175781 C 232.828125 223.585938 232.609375 223.171875 232.5 222.929688 C 232.023438 221.929688 231.617188 220.742188 231.289062 219.375 C 231.042969 218.261719 230.953125 217.039062 231.019531 215.710938 C 231.078125 215.039062 231.179688 214.457031 231.320312 213.96875 C 231.371094 213.792969 231.421875 213.667969 231.460938 213.582031 C 231.703125 213.371094 231.832031 213.226562 231.847656 213.144531 C 231.914062 212.996094 231.929688 212.847656 231.902344 212.699219 C 232.574219 212.878906 233.492188 213.796875 234.652344 215.453125 C 235.519531 216.859375 236.0625 218.167969 236.289062 219.375 C 236.636719 220.722656 236.726562 222.355469 236.554688 224.277344 C 236.371094 225.675781 235.972656 226.882812 235.371094 227.898438 M 235.398438 230.183594 C 235.660156 230.257812 236.136719 229.621094 236.835938 228.273438 C 237.308594 227.417969 237.65625 226.425781 237.878906 225.296875 C 238.242188 223.046875 238.179688 220.925781 237.699219 218.9375 C 237.214844 216.808594 236.203125 214.84375 234.667969 213.050781 C 234.097656 212.371094 233.488281 211.863281 232.839844 211.515625 C 232.132812 211.097656 231.480469 210.929688 230.875 211.011719 C 230.554688 211.09375 230.351562 211.277344 230.265625 211.554688 C 230.183594 211.875 230.285156 212.152344 230.570312 212.386719 C 230.121094 212.679688 229.796875 213.613281 229.59375 215.183594 C 229.460938 216.925781 229.550781 218.460938 229.875 219.78125 C 230.285156 221.464844 230.800781 222.894531 231.421875 224.066406 L 231.988281 225.078125 L 233.933594 228.355469 L 234.265625 228.992188 C 234.464844 229.535156 234.574219 229.804688 234.597656 229.796875 C 234.851562 230.125 235.117188 230.257812 235.386719 230.1875 " fill-opacity="1" fill-rule="nonzero"></path><path fill="#5f0000" d="M 34.734375 132.140625 L 36.9375 135.875 C 37.273438 136.464844 37.492188 136.878906 37.601562 137.121094 C 38.078125 138.121094 38.484375 139.304688 38.8125 140.671875 C 39.058594 141.785156 39.148438 143.007812 39.082031 144.335938 C 39.023438 145.011719 38.921875 145.589844 38.78125 146.078125 C 38.730469 146.253906 38.683594 146.382812 38.640625 146.464844 C 38.398438 146.675781 38.269531 146.824219 38.253906 146.90625 C 38.191406 147.054688 38.171875 147.203125 38.199219 147.347656 C 37.527344 147.171875 36.609375 146.253906 35.449219 144.59375 C 34.585938 143.1875 34.039062 141.882812 33.8125 140.671875 C 33.464844 139.324219 33.375 137.691406 33.546875 135.769531 C 33.734375 134.371094 34.128906 133.164062 34.730469 132.148438 M 34.703125 129.863281 C 34.445312 129.789062 33.964844 130.429688 33.265625 131.773438 C 32.792969 132.632812 32.445312 133.625 32.222656 134.75 C 31.859375 137.003906 31.921875 139.121094 32.402344 141.109375 C 32.890625 143.242188 33.902344 145.203125 35.433594 146.996094 C 36.003906 147.675781 36.613281 148.1875 37.261719 148.53125 C 37.96875 148.953125 38.625 149.121094 39.226562 149.035156 C 39.550781 148.953125 39.75 148.773438 39.835938 148.496094 C 39.917969 148.171875 39.816406 147.894531 39.535156 147.660156 C 39.980469 147.367188 40.308594 146.4375 40.507812 144.863281 C 40.640625 143.121094 40.550781 141.589844 40.230469 140.265625 C 39.816406 138.582031 39.300781 137.15625 38.679688 135.984375 L 38.117188 134.972656 L 36.167969 131.695312 L 35.835938 131.058594 C 35.640625 130.515625 35.53125 130.246094 35.503906 130.25 C 35.25 129.921875 34.988281 129.792969 34.714844 129.863281 " fill-opacity="1" fill-rule="nonzero"></path><path fill="#5f0000" d="M 234.621094 221.804688 C 234.929688 221.707031 235.113281 221.492188 235.164062 221.15625 C 235.171875 221.0625 235.164062 220.976562 235.136719 220.894531 C 234.9375 220.257812 234.828125 219.917969 234.804688 219.875 C 234.675781 219.523438 234.546875 219.195312 234.421875 218.886719 L 233.632812 217.136719 L 233.367188 216.46875 C 233.210938 216.050781 233.0625 215.617188 232.921875 215.171875 L 232.40625 213.363281 C 232.3125 213.0625 232.21875 212.820312 232.125 212.632812 C 231.878906 212.078125 231.53125 211.847656 231.082031 211.949219 C 230.6875 212.09375 230.507812 212.375 230.550781 212.792969 C 230.5625 212.847656 230.582031 212.910156 230.609375 212.972656 C 230.617188 213 230.675781 213.089844 230.785156 213.238281 C 230.851562 213.375 230.902344 213.496094 230.933594 213.601562 C 231.015625 213.847656 231.074219 214.027344 231.105469 214.140625 L 231.507812 215.574219 C 231.632812 215.976562 231.753906 216.34375 231.875 216.671875 C 232.011719 217.058594 232.132812 217.371094 232.234375 217.609375 L 233.125 219.601562 C 233.324219 220.105469 233.425781 220.371094 233.429688 220.398438 L 233.730469 221.320312 C 233.746094 221.363281 233.761719 221.402344 233.78125 221.4375 C 233.976562 221.753906 234.257812 221.875 234.617188 221.804688 " fill-opacity="1" fill-rule="nonzero"></path><path fill="#5f0000" d="M 35.480469 138.246094 C 35.171875 138.339844 34.988281 138.554688 34.9375 138.890625 C 34.933594 138.984375 34.941406 139.074219 34.964844 139.15625 C 35.164062 139.792969 35.273438 140.132812 35.296875 140.175781 C 35.425781 140.523438 35.554688 140.851562 35.679688 141.164062 L 36.46875 142.910156 L 36.738281 143.578125 C 36.894531 144 37.039062 144.429688 37.179688 144.875 L 37.695312 146.683594 C 37.789062 146.988281 37.882812 147.230469 37.976562 147.414062 C 38.222656 147.972656 38.570312 148.199219 39.019531 148.097656 C 39.414062 147.953125 39.59375 147.675781 39.550781 147.257812 C 39.539062 147.199219 39.519531 147.140625 39.492188 147.078125 C 39.484375 147.046875 39.429688 146.957031 39.316406 146.8125 C 39.25 146.675781 39.199219 146.550781 39.167969 146.445312 C 39.085938 146.203125 39.027344 146.023438 38.996094 145.90625 L 38.597656 144.476562 C 38.46875 144.070312 38.347656 143.703125 38.230469 143.378906 C 38.089844 142.992188 37.972656 142.679688 37.867188 142.4375 L 36.976562 140.445312 C 36.777344 139.941406 36.675781 139.675781 36.671875 139.652344 L 36.371094 138.730469 C 36.359375 138.6875 36.339844 138.648438 36.320312 138.609375 C 36.125 138.292969 35.84375 138.171875 35.488281 138.246094 " fill-opacity="1" fill-rule="nonzero"></path><path fill="#5f0000" d="M 231.816406 234.507812 C 232.339844 234.371094 232.683594 233.996094 232.84375 233.378906 C 232.945312 232.828125 232.832031 232.230469 232.492188 231.585938 C 231.878906 230.648438 231.152344 230.277344 230.3125 230.46875 C 229.933594 230.703125 229.820312 231.019531 229.960938 231.425781 C 230.027344 231.570312 230.121094 231.679688 230.242188 231.753906 C 230.335938 231.824219 230.511719 231.871094 230.777344 231.894531 C 230.832031 231.90625 230.921875 231.976562 231.042969 232.109375 C 231.257812 232.308594 231.382812 232.605469 231.414062 233.003906 C 231.414062 233.066406 231.398438 233.097656 231.367188 233.101562 C 231.253906 233.109375 231.125 233.101562 230.984375 233.070312 C 230.660156 233.007812 230.378906 232.890625 230.136719 232.730469 C 229.09375 231.960938 228.480469 230.582031 228.289062 228.589844 C 228.140625 227.246094 228.289062 225.355469 228.742188 222.925781 C 228.894531 222.121094 229.085938 221.265625 229.316406 220.347656 C 229.578125 219.375 229.890625 218.332031 230.25 217.226562 C 230.410156 216.589844 230.542969 216.09375 230.652344 215.742188 L 230.757812 215.128906 C 230.785156 214.890625 230.703125 214.675781 230.511719 214.488281 C 230.320312 214.324219 230.097656 214.273438 229.839844 214.328125 C 229.585938 214.40625 229.414062 214.566406 229.328125 214.808594 C 229.292969 214.921875 229.261719 215.109375 229.226562 215.378906 C 229.128906 215.683594 228.996094 216.175781 228.824219 216.855469 C 228.492188 217.878906 228.1875 218.886719 227.917969 219.882812 C 227.746094 220.550781 227.578125 221.28125 227.410156 222.066406 C 226.839844 224.929688 226.644531 227.152344 226.824219 228.730469 C 226.988281 230.59375 227.527344 232.0625 228.449219 233.140625 C 229.363281 234.230469 230.484375 234.6875 231.808594 234.507812 " fill-opacity="1" fill-rule="nonzero"></path><path fill="#5f0000" d="M 38.285156 125.539062 C 37.761719 125.675781 37.421875 126.054688 37.261719 126.671875 C 37.15625 127.222656 37.269531 127.820312 37.609375 128.460938 C 38.222656 129.398438 38.949219 129.769531 39.792969 129.578125 C 40.167969 129.347656 40.285156 129.027344 40.140625 128.621094 C 40.074219 128.480469 39.980469 128.371094 39.859375 128.296875 C 39.765625 128.226562 39.589844 128.175781 39.324219 128.152344 C 39.269531 128.140625 39.183594 128.070312 39.058594 127.9375 C 38.84375 127.742188 38.71875 127.445312 38.6875 127.042969 C 38.6875 126.984375 38.707031 126.949219 38.734375 126.949219 C 38.851562 126.9375 38.976562 126.949219 39.117188 126.976562 C 39.441406 127.042969 39.722656 127.15625 39.964844 127.320312 C 41.007812 128.085938 41.621094 129.46875 41.8125 131.460938 C 41.960938 132.804688 41.8125 134.691406 41.359375 137.125 C 41.207031 137.925781 41.015625 138.785156 40.785156 139.699219 C 40.523438 140.675781 40.214844 141.714844 39.851562 142.824219 C 39.695312 143.457031 39.558594 143.953125 39.449219 144.304688 L 39.34375 144.921875 C 39.316406 145.160156 39.398438 145.375 39.589844 145.5625 C 39.78125 145.722656 40.003906 145.777344 40.261719 145.71875 C 40.519531 145.644531 40.6875 145.484375 40.773438 145.242188 C 40.808594 145.128906 40.839844 144.9375 40.875 144.667969 C 40.972656 144.363281 41.105469 143.871094 41.277344 143.195312 C 41.613281 142.171875 41.914062 141.164062 42.183594 140.164062 C 42.355469 139.496094 42.527344 138.769531 42.691406 137.984375 C 43.261719 135.117188 43.457031 132.894531 43.277344 131.316406 C 43.117188 129.457031 42.574219 127.984375 41.65625 126.90625 C 40.738281 125.820312 39.617188 125.363281 38.292969 125.539062 " fill-opacity="1" fill-rule="nonzero"></path><path fill="#5f0000" d="M 247.746094 208.875 C 248.445312 208.109375 248.722656 207.332031 248.574219 206.550781 C 248.4375 205.679688 247.90625 205.027344 246.984375 204.597656 C 245.695312 204.089844 244.691406 204.367188 243.957031 205.433594 C 243.496094 206.390625 243.546875 206.992188 244.109375 207.246094 C 244.390625 207.347656 244.644531 207.300781 244.871094 207.113281 C 244.96875 207.027344 245.035156 206.925781 245.074219 206.820312 C 245.160156 206.410156 245.222656 206.175781 245.265625 206.109375 C 245.339844 206.007812 245.480469 205.914062 245.679688 205.839844 C 246.351562 205.808594 246.820312 206.085938 247.089844 206.65625 C 247.238281 206.976562 247.109375 207.367188 246.703125 207.839844 C 246.113281 208.296875 245.535156 208.519531 244.96875 208.507812 C 242.917969 208.480469 241.117188 207.320312 239.566406 205.035156 C 239.007812 203.976562 238.617188 202.226562 238.394531 199.777344 C 238.3125 198.730469 238.257812 197.582031 238.234375 196.339844 C 238.226562 195.777344 238.226562 195.21875 238.238281 194.65625 L 238.355469 190.65625 C 238.371094 190.050781 238.328125 189.382812 238.234375 188.640625 C 238.171875 188.019531 238.046875 187.660156 237.855469 187.5625 C 237.53125 187.335938 237.210938 187.351562 236.890625 187.601562 C 236.742188 187.75 236.664062 187.921875 236.660156 188.117188 C 236.78125 188.738281 236.855469 189.410156 236.882812 190.140625 L 236.878906 191.488281 C 236.800781 193.234375 236.761719 194.632812 236.757812 195.683594 C 236.753906 196.765625 236.804688 198.074219 236.90625 199.609375 C 237.128906 202.367188 237.574219 204.390625 238.242188 205.675781 C 238.769531 206.613281 239.5 207.453125 240.429688 208.207031 C 241.082031 208.804688 241.941406 209.300781 243.011719 209.695312 C 245.007812 210.242188 246.585938 209.972656 247.742188 208.878906 " fill-opacity="1" fill-rule="nonzero"></path><path fill="#5f0000" d="M 22.355469 151.175781 C 21.65625 151.941406 21.378906 152.714844 21.527344 153.496094 C 21.664062 154.371094 22.195312 155.023438 23.117188 155.449219 C 24.40625 155.957031 25.414062 155.679688 26.144531 154.617188 C 26.605469 153.660156 26.554688 153.054688 25.996094 152.804688 C 25.710938 152.703125 25.457031 152.746094 25.230469 152.933594 C 25.132812 153.023438 25.066406 153.121094 25.027344 153.230469 C 24.941406 153.640625 24.878906 153.875 24.835938 153.941406 C 24.761719 154.042969 24.625 154.132812 24.421875 154.210938 C 23.75 154.238281 23.28125 153.964844 23.015625 153.390625 C 22.863281 153.074219 22.992188 152.679688 23.402344 152.210938 C 23.992188 151.753906 24.570312 151.527344 25.136719 151.539062 C 27.1875 151.570312 28.988281 152.730469 30.539062 155.015625 C 31.09375 156.074219 31.484375 157.824219 31.707031 160.269531 C 31.789062 161.320312 31.84375 162.464844 31.867188 163.710938 C 31.875 164.269531 31.875 164.832031 31.863281 165.394531 L 31.746094 169.394531 C 31.730469 169.996094 31.773438 170.667969 31.871094 171.40625 C 31.929688 172.027344 32.054688 172.390625 32.25 172.484375 C 32.570312 172.710938 32.890625 172.699219 33.210938 172.445312 C 33.359375 172.300781 33.4375 172.128906 33.445312 171.929688 C 33.320312 171.3125 33.246094 170.636719 33.21875 169.90625 L 33.222656 168.558594 C 33.304688 166.8125 33.34375 165.417969 33.34375 164.367188 C 33.347656 163.285156 33.296875 161.976562 33.195312 160.4375 C 32.972656 157.683594 32.53125 155.660156 31.859375 154.371094 C 31.332031 153.4375 30.605469 152.59375 29.671875 151.839844 C 29.019531 151.246094 28.160156 150.75 27.09375 150.355469 C 25.09375 149.804688 23.515625 150.078125 22.359375 151.167969 " fill-opacity="1" fill-rule="nonzero"></path><g clip-path="url(#c220d50d91)"><path fill="#5f0000" d="M 254.773438 183.492188 C 252.425781 182.890625 250.597656 182.316406 249.289062 181.777344 C 248.242188 181.382812 247.234375 180.726562 246.257812 179.808594 C 245.050781 178.65625 243.824219 177.101562 242.582031 175.152344 C 241.066406 172.664062 240.269531 170.972656 240.195312 170.070312 C 244.089844 169.792969 247.578125 171.027344 250.660156 173.773438 C 252.101562 175.160156 253.128906 176.667969 253.742188 178.289062 C 254.457031 180.023438 254.800781 181.75 254.773438 183.472656 M 256.050781 185.179688 C 256.269531 184.789062 256.304688 183.640625 256.152344 181.734375 C 256.039062 180.703125 255.808594 179.671875 255.460938 178.640625 C 254.675781 176.28125 253.355469 174.25 251.5 172.550781 C 249.667969 170.894531 247.53125 169.734375 245.09375 169.070312 C 243.734375 168.722656 242.425781 168.550781 241.164062 168.558594 C 240.078125 168.570312 239.160156 168.640625 238.414062 168.773438 C 238.195312 168.8125 238.023438 168.941406 237.894531 169.15625 C 237.78125 169.402344 237.78125 169.628906 237.894531 169.839844 C 238.078125 170.152344 238.355469 170.277344 238.730469 170.214844 C 238.832031 171.390625 239.722656 173.335938 241.40625 176.046875 C 242.871094 178.300781 244.230469 179.980469 245.480469 181.085938 C 246.40625 181.984375 247.640625 182.730469 249.179688 183.328125 C 250.65625 183.878906 252.320312 184.382812 254.179688 184.839844 C 254.28125 184.875 254.382812 184.925781 254.484375 184.988281 C 254.710938 185.132812 254.878906 185.261719 254.984375 185.378906 L 255.207031 185.484375 C 255.59375 185.589844 255.871094 185.5 256.035156 185.203125 " fill-opacity="1" fill-rule="nonzero"></path></g><g clip-path="url(#166e47a1d5)"><path fill="#5f0000" d="M 15.328125 176.558594 C 17.675781 177.160156 19.507812 177.730469 20.8125 178.269531 C 21.859375 178.667969 22.867188 179.324219 23.84375 180.242188 C 25.050781 181.394531 26.277344 182.945312 27.519531 184.898438 C 29.035156 187.386719 29.832031 189.078125 29.90625 189.980469 C 26.011719 190.253906 22.523438 189.019531 19.441406 186.273438 C 18 184.886719 16.972656 183.382812 16.359375 181.761719 C 15.644531 180.027344 15.300781 178.300781 15.328125 176.578125 M 14.054688 174.871094 C 13.835938 175.261719 13.800781 176.410156 13.949219 178.316406 C 14.0625 179.34375 14.296875 180.375 14.644531 181.410156 C 15.425781 183.769531 16.746094 185.800781 18.605469 187.5 C 20.4375 189.15625 22.570312 190.316406 25.007812 190.980469 C 26.367188 191.328125 27.675781 191.5 28.9375 191.492188 C 30.023438 191.480469 30.941406 191.40625 31.6875 191.273438 C 31.90625 191.234375 32.082031 191.109375 32.207031 190.894531 C 32.320312 190.648438 32.320312 190.417969 32.207031 190.210938 C 32.027344 189.894531 31.746094 189.773438 31.371094 189.832031 C 31.269531 188.65625 30.378906 186.714844 28.695312 184.003906 C 27.230469 181.75 25.875 180.070312 24.625 178.964844 C 23.695312 178.0625 22.460938 177.316406 20.921875 176.722656 C 19.449219 176.171875 17.78125 175.664062 15.921875 175.207031 C 15.820312 175.175781 15.71875 175.125 15.617188 175.0625 C 15.390625 174.917969 15.222656 174.785156 15.121094 174.667969 L 14.894531 174.566406 C 14.507812 174.457031 14.230469 174.550781 14.066406 174.84375 " fill-opacity="1" fill-rule="nonzero"></path></g><path fill="#5f0000" d="M 249.089844 176.59375 C 249.195312 176.382812 249.199219 176.167969 249.105469 175.949219 C 249.074219 175.863281 248.851562 175.589844 248.425781 175.132812 C 247.617188 174.285156 246.59375 173.449219 245.347656 172.621094 L 241.382812 170.050781 C 240.964844 169.796875 240.511719 169.542969 240.027344 169.296875 C 239.40625 169.023438 238.972656 169.101562 238.722656 169.53125 C 238.5625 169.882812 238.628906 170.1875 238.925781 170.457031 C 239.027344 170.542969 239.191406 170.605469 239.417969 170.636719 C 239.785156 170.824219 240.15625 171.03125 240.527344 171.253906 C 243.347656 173.046875 244.871094 174.042969 245.105469 174.242188 C 246.300781 175.089844 247.277344 175.964844 248.027344 176.871094 C 248.449219 177.097656 248.800781 177.007812 249.085938 176.605469 " fill-opacity="1" fill-rule="nonzero"></path><path fill="#5f0000" d="M 21.011719 183.453125 C 20.910156 183.667969 20.902344 183.882812 21 184.097656 C 21.027344 184.1875 21.253906 184.460938 21.675781 184.917969 C 22.484375 185.761719 23.507812 186.597656 24.753906 187.429688 L 28.71875 189.996094 C 29.140625 190.253906 29.589844 190.507812 30.074219 190.753906 C 30.695312 191.023438 31.132812 190.945312 31.382812 190.515625 C 31.539062 190.167969 31.472656 189.859375 31.179688 189.59375 C 31.074219 189.503906 30.910156 189.445312 30.683594 189.414062 C 30.316406 189.222656 29.945312 189.019531 29.574219 188.796875 C 26.753906 187 25.230469 186.003906 24.996094 185.808594 C 23.800781 184.960938 22.824219 184.082031 22.074219 183.175781 C 21.652344 182.953125 21.300781 183.039062 21.015625 183.445312 " fill-opacity="1" fill-rule="nonzero"></path><path fill="#5f0000" d="M 217.617188 181.050781 C 217.933594 180.816406 218.191406 180.582031 218.394531 180.34375 C 221.53125 176.632812 223.316406 174.632812 223.746094 174.335938 C 224.570312 173.476562 225.832031 172.539062 227.535156 171.519531 C 228.988281 170.734375 230.472656 170.277344 231.976562 170.152344 C 233.464844 170.027344 235.226562 170.195312 237.265625 170.65625 C 236.46875 172.632812 235.269531 174.601562 233.65625 176.574219 C 232.148438 178.300781 230.65625 179.515625 229.191406 180.214844 C 227.613281 181.03125 225.84375 181.539062 223.875 181.738281 C 221.832031 181.925781 219.746094 181.699219 217.621094 181.054688 M 216 181.976562 C 218.074219 182.933594 220.570312 183.351562 223.484375 183.234375 C 225.976562 183.074219 228.230469 182.433594 230.253906 181.308594 C 232.296875 180.230469 234.25 178.394531 236.113281 175.796875 C 237.058594 174.503906 238.015625 172.726562 238.988281 170.472656 C 239.171875 169.933594 239.070312 169.554688 238.683594 169.328125 C 238.453125 169.222656 238.222656 169.21875 237.996094 169.320312 C 237.644531 169.199219 236.503906 168.996094 234.574219 168.71875 C 233.628906 168.636719 232.753906 168.625 231.953125 168.675781 C 230.128906 168.820312 228.375 169.363281 226.691406 170.304688 C 224.96875 171.359375 223.738281 172.261719 223 173.019531 C 222.492188 173.484375 221.855469 174.128906 221.097656 174.957031 L 217.15625 179.515625 L 216.570312 179.996094 L 215.761719 180.476562 L 215.574219 180.636719 C 215.167969 181.109375 215.300781 181.550781 215.96875 181.957031 " fill-opacity="1" fill-rule="nonzero"></path><path fill="#5f0000" d="M 52.484375 178.996094 C 52.171875 179.230469 51.910156 179.46875 51.707031 179.703125 C 48.570312 183.414062 46.789062 185.417969 46.355469 185.710938 C 45.535156 186.570312 44.269531 187.511719 42.566406 188.53125 C 41.113281 189.316406 39.632812 189.773438 38.125 189.898438 C 36.636719 190.023438 34.875 189.855469 32.839844 189.394531 C 33.632812 187.417969 34.835938 185.445312 36.445312 183.476562 C 37.957031 181.75 39.445312 180.535156 40.910156 179.835938 C 42.488281 179.019531 44.261719 178.511719 46.226562 178.3125 C 48.273438 178.121094 50.355469 178.351562 52.480469 178.996094 M 54.101562 178.074219 C 52.027344 177.113281 49.535156 176.695312 46.621094 176.816406 C 44.128906 176.976562 41.871094 177.617188 39.847656 178.738281 C 37.804688 179.816406 35.851562 181.65625 33.988281 184.25 C 33.042969 185.546875 32.085938 187.320312 31.113281 189.578125 C 30.929688 190.117188 31.03125 190.496094 31.421875 190.71875 C 31.648438 190.828125 31.878906 190.832031 32.105469 190.726562 C 32.457031 190.851562 33.597656 191.050781 35.527344 191.328125 C 36.472656 191.410156 37.347656 191.425781 38.148438 191.371094 C 39.976562 191.226562 41.730469 190.683594 43.410156 189.746094 C 45.132812 188.691406 46.363281 187.785156 47.101562 187.027344 C 47.613281 186.5625 48.246094 185.917969 49.003906 185.09375 L 52.945312 180.53125 L 53.53125 180.054688 L 54.34375 179.570312 L 54.527344 179.414062 C 54.933594 178.9375 54.800781 178.496094 54.136719 178.089844 " fill-opacity="1" fill-rule="nonzero"></path><path fill="#5f0000" d="M 226.050781 177.492188 C 226.3125 177.664062 226.695312 177.59375 227.195312 177.285156 L 229.640625 175.878906 L 232.671875 173.933594 C 233.246094 173.601562 233.742188 173.339844 234.160156 173.148438 C 234.542969 172.960938 235.144531 172.730469 235.960938 172.460938 L 236.644531 172.265625 C 237.285156 172.128906 237.808594 172.003906 238.21875 171.890625 C 238.339844 171.863281 238.460938 171.816406 238.578125 171.75 C 238.882812 171.589844 239.050781 171.367188 239.078125 171.082031 C 239.09375 170.785156 238.972656 170.550781 238.703125 170.378906 C 238.523438 170.285156 238.347656 170.261719 238.179688 170.304688 C 238.078125 170.324219 237.96875 170.378906 237.851562 170.464844 C 237.511719 170.5625 236.976562 170.6875 236.25 170.851562 L 235.398438 171.09375 C 234.347656 171.421875 233.285156 171.890625 232.214844 172.5 C 232 172.621094 231.78125 172.75 231.5625 172.890625 C 230.304688 173.71875 229.355469 174.328125 228.714844 174.71875 L 226.652344 175.90625 L 225.945312 176.265625 C 225.75 176.425781 225.65625 176.640625 225.667969 176.902344 C 225.695312 177.160156 225.820312 177.355469 226.046875 177.488281 " fill-opacity="1" fill-rule="nonzero"></path><path fill="#5f0000" d="M 44.054688 182.558594 C 43.792969 182.386719 43.410156 182.453125 42.90625 182.761719 L 40.460938 184.171875 L 37.433594 186.113281 C 36.855469 186.449219 36.359375 186.710938 35.945312 186.898438 C 35.558594 187.085938 34.957031 187.316406 34.140625 187.589844 L 33.457031 187.78125 C 32.820312 187.921875 32.292969 188.046875 31.882812 188.160156 C 31.761719 188.1875 31.644531 188.234375 31.523438 188.300781 C 31.21875 188.460938 31.050781 188.683594 31.023438 188.964844 C 31.007812 189.265625 31.132812 189.5 31.398438 189.667969 C 31.578125 189.761719 31.753906 189.789062 31.925781 189.746094 C 32.023438 189.726562 32.132812 189.671875 32.253906 189.582031 C 32.59375 189.488281 33.125 189.359375 33.851562 189.199219 L 34.703125 188.953125 C 35.757812 188.625 36.820312 188.15625 37.890625 187.550781 C 38.101562 187.429688 38.320312 187.300781 38.542969 187.160156 C 39.796875 186.328125 40.746094 185.71875 41.386719 185.332031 L 43.453125 184.140625 L 44.160156 183.78125 C 44.351562 183.621094 44.445312 183.410156 44.433594 183.144531 C 44.40625 182.886719 44.28125 182.691406 44.054688 182.558594 " fill-opacity="1" fill-rule="nonzero"></path></svg> 