<?xml version="1.0" encoding="UTF-8"?> <svg xmlns="http://www.w3.org/2000/svg" xmlns:xlink="http://www.w3.org/1999/xlink" width="360" zoomAndPan="magnify" viewBox="0 0 270 359.999987" height="480" preserveAspectRatio="xMidYMid meet" version="1.0"><defs><g></g><clipPath id="e209d05969"><rect x="0" width="240" y="0" height="104"></rect></clipPath></defs><g transform="matrix(1, 0, 0, 1, -0, 126)"><g clip-path="url(#e209d05969)"><g fill="#000000" fill-opacity="1"><g transform="translate(0.000005025, 78.705189)"><g><path d="M 23.71875 -31.195312 C 30.546875 -31.195312 35.699219 -29.960938 39.171875 -27.492188 C 42.734375 -24.957031 44.515625 -21.179688 44.515625 -16.15625 C 44.515625 -12.792969 43.746094 -9.785156 42.210938 -7.132812 C 40.664062 -4.46875 38.5 -2.410156 35.71875 -0.957031 C 32.957031 0.484375 29.816406 1.203125 26.296875 1.203125 C 24.726562 1.203125 22.898438 1.117188 20.8125 0.941406 C 19.96875 0.886719 18.945312 0.828125 17.75 0.773438 C 16.558594 0.714844 15.285156 0.6875 13.921875 0.6875 L 8.089844 0.773438 L 8.078125 -0.0859375 L 8.125 0.773438 C 7.078125 0.832031 5.601562 0.859375 3.695312 0.859375 C 3.007812 0.859375 2.664062 0.402344 2.664062 -0.515625 C 2.664062 -1.433594 3.007812 -1.890625 3.695312 -1.890625 C 5.792969 -1.890625 7.320312 -2.023438 8.277344 -2.289062 C 9.050781 -2.503906 9.566406 -2.902344 9.828125 -3.488281 C 10.152344 -4.207031 10.3125 -5.363281 10.3125 -6.960938 L 10.3125 -46.75 C 10.3125 -48.351562 10.164062 -49.5 9.867188 -50.195312 C 9.625 -50.753906 9.128906 -51.152344 8.378906 -51.386719 C 7.460938 -51.675781 5.957031 -51.820312 3.867188 -51.820312 C 3.425781 -51.820312 3.105469 -52.023438 2.90625 -52.425781 C 2.800781 -52.632812 2.75 -52.890625 2.75 -53.195312 C 2.75 -53.503906 2.800781 -53.761719 2.90625 -53.96875 C 3.105469 -54.371094 3.425781 -54.570312 3.867188 -54.570312 L 37.726562 -54.570312 C 38.347656 -54.570312 38.800781 -54.390625 39.085938 -54.035156 C 39.296875 -53.769531 39.445312 -53.359375 39.523438 -52.800781 L 39.527344 -52.785156 L 40.648438 -41.722656 L 40.648438 -41.679688 C 40.648438 -41.269531 40.472656 -40.960938 40.125 -40.75 C 39.917969 -40.625 39.660156 -40.5625 39.359375 -40.5625 C 38.765625 -40.5625 38.328125 -40.777344 38.042969 -41.203125 L 37.945312 -41.351562 L 37.914062 -41.527344 C 37.371094 -44.5625 36.257812 -46.933594 34.578125 -48.640625 C 32.941406 -50.300781 30.925781 -51.132812 28.53125 -51.132812 L 23.632812 -51.132812 C 21.722656 -51.132812 20.335938 -50.992188 19.480469 -50.703125 C 18.773438 -50.46875 18.300781 -50.082031 18.058594 -49.539062 C 17.765625 -48.875 17.617188 -47.773438 17.617188 -46.234375 L 17.617188 -29.90625 L 16.757812 -29.90625 L 16.667969 -30.761719 C 19.390625 -31.050781 21.742188 -31.195312 23.71875 -31.195312 Z M 23.71875 -29.476562 C 21.800781 -29.476562 19.511719 -29.335938 16.847656 -29.050781 L 15.898438 -28.949219 L 15.898438 -46.234375 C 15.898438 -48.019531 16.09375 -49.351562 16.488281 -50.238281 C 16.933594 -51.242188 17.75 -51.941406 18.933594 -52.335938 C 19.96875 -52.679688 21.535156 -52.851562 23.632812 -52.851562 L 28.53125 -52.851562 C 31.40625 -52.851562 33.832031 -51.851562 35.804688 -49.847656 C 37.734375 -47.886719 39 -45.214844 39.605469 -41.832031 L 38.757812 -41.679688 L 39.472656 -42.15625 C 39.4375 -42.210938 39.390625 -42.253906 39.332031 -42.277344 C 39.324219 -42.28125 39.316406 -42.285156 39.3125 -42.285156 C 39.320312 -42.28125 39.339844 -42.28125 39.359375 -42.28125 L 39.378906 -42.28125 C 39.335938 -42.273438 39.289062 -42.253906 39.238281 -42.222656 C 39.035156 -42.101562 38.929688 -41.917969 38.929688 -41.679688 L 39.789062 -41.679688 L 38.933594 -41.59375 L 37.816406 -52.59375 L 38.671875 -52.679688 L 37.820312 -52.558594 C 37.800781 -52.710938 37.773438 -52.835938 37.746094 -52.925781 C 37.738281 -52.957031 37.726562 -52.976562 37.722656 -52.992188 C 37.722656 -52.984375 37.730469 -52.976562 37.742188 -52.960938 C 37.796875 -52.894531 37.847656 -52.855469 37.902344 -52.835938 C 37.871094 -52.847656 37.8125 -52.851562 37.726562 -52.851562 L 3.867188 -52.851562 C 4.136719 -52.851562 4.328125 -52.96875 4.441406 -53.199219 C 4.460938 -53.234375 4.46875 -53.261719 4.472656 -53.28125 C 4.46875 -53.261719 4.46875 -53.234375 4.46875 -53.195312 C 4.46875 -53.15625 4.46875 -53.128906 4.472656 -53.113281 C 4.46875 -53.132812 4.460938 -53.160156 4.441406 -53.195312 C 4.328125 -53.425781 4.136719 -53.539062 3.867188 -53.539062 C 6.132812 -53.539062 7.808594 -53.371094 8.894531 -53.027344 C 10.148438 -52.632812 11 -51.914062 11.445312 -50.871094 C 11.835938 -49.960938 12.03125 -48.585938 12.03125 -46.75 L 12.03125 -6.960938 C 12.03125 -5.121094 11.820312 -3.726562 11.398438 -2.785156 C 10.914062 -1.707031 10.027344 -0.992188 8.738281 -0.632812 C 7.632812 -0.324219 5.949219 -0.171875 3.695312 -0.171875 C 3.902344 -0.171875 4.082031 -0.246094 4.226562 -0.390625 C 4.300781 -0.464844 4.351562 -0.546875 4.382812 -0.628906 L 4.386719 -0.644531 C 4.386719 -0.613281 4.382812 -0.570312 4.382812 -0.515625 C 4.382812 -0.460938 4.386719 -0.417969 4.386719 -0.386719 L 4.382812 -0.402344 C 4.351562 -0.484375 4.300781 -0.566406 4.226562 -0.640625 C 4.082031 -0.785156 3.902344 -0.859375 3.695312 -0.859375 C 5.570312 -0.859375 7.015625 -0.886719 8.03125 -0.945312 L 8.046875 -0.945312 L 13.921875 -1.03125 C 15.3125 -1.03125 16.613281 -1.003906 17.832031 -0.945312 C 19.039062 -0.886719 20.082031 -0.828125 20.953125 -0.769531 C 22.992188 -0.601562 24.773438 -0.515625 26.296875 -0.515625 C 29.535156 -0.515625 32.414062 -1.171875 34.921875 -2.480469 C 37.410156 -3.777344 39.34375 -5.617188 40.722656 -7.992188 C 42.105469 -10.382812 42.796875 -13.101562 42.796875 -16.15625 C 42.796875 -20.585938 41.257812 -23.898438 38.175781 -26.089844 C 35 -28.347656 30.183594 -29.476562 23.71875 -29.476562 Z M 24.578125 -2.0625 C 28.921875 -2.0625 32.042969 -3.023438 33.933594 -4.945312 C 35.832031 -6.867188 36.78125 -9.859375 36.78125 -13.921875 C 36.78125 -18.921875 35.511719 -22.46875 32.96875 -24.558594 C 30.378906 -26.691406 26.636719 -27.757812 21.742188 -27.757812 C 20.007812 -27.757812 18.390625 -27.648438 16.882812 -27.421875 L 16.757812 -28.273438 L 17.617188 -28.273438 L 17.617188 -6.960938 C 17.617188 -5.214844 18.035156 -3.964844 18.875 -3.21875 C 19.746094 -2.449219 21.644531 -2.0625 24.578125 -2.0625 Z M 24.578125 -0.34375 C 21.210938 -0.34375 18.929688 -0.875 17.734375 -1.9375 C 16.511719 -3.023438 15.898438 -4.699219 15.898438 -6.960938 L 15.898438 -29.015625 L 16.632812 -29.125 C 18.222656 -29.359375 19.925781 -29.476562 21.742188 -29.476562 C 27.046875 -29.476562 31.152344 -28.28125 34.0625 -25.886719 C 37.019531 -23.453125 38.5 -19.464844 38.5 -13.921875 C 38.5 -9.390625 37.386719 -5.996094 35.160156 -3.738281 C 32.929688 -1.472656 29.402344 -0.34375 24.578125 -0.34375 Z M 24.578125 -0.34375 "></path></g></g></g><g fill="#000000" fill-opacity="1"><g transform="translate(47.941513, 78.705189)"><g><path d="M 35.664062 -5.5 C 36 -5.5 36.285156 -5.394531 36.519531 -5.183594 C 36.726562 -4.996094 36.863281 -4.75 36.933594 -4.441406 C 37.003906 -4.121094 36.976562 -3.828125 36.851562 -3.5625 C 36.726562 -3.285156 36.515625 -3.074219 36.222656 -2.925781 L 27.355469 1.292969 C 27.015625 1.460938 26.660156 1.546875 26.296875 1.546875 C 25.21875 1.546875 24.3125 0.902344 23.574219 -0.390625 C 22.941406 -1.5 22.53125 -2.972656 22.347656 -4.8125 L 23.203125 -4.898438 L 23.671875 -4.179688 L 19.203125 -1.257812 C 17.714844 -0.304688 16.398438 0.382812 15.25 0.804688 C 14.066406 1.242188 12.820312 1.460938 11.515625 1.460938 C 9.167969 1.460938 7.324219 0.824219 5.980469 -0.453125 C 4.628906 -1.738281 3.953125 -3.363281 3.953125 -5.328125 C 3.953125 -7.300781 4.734375 -9 6.292969 -10.429688 C 7.753906 -11.769531 10.113281 -13.03125 13.371094 -14.214844 L 22.816406 -17.734375 L 23.117188 -16.929688 L 22.257812 -16.929688 L 22.257812 -22.773438 C 22.257812 -28.617188 20.738281 -31.539062 17.703125 -31.539062 C 16.035156 -31.539062 14.785156 -31.003906 13.957031 -29.9375 C 13.035156 -28.753906 12.417969 -27.394531 12.101562 -25.867188 L 11.257812 -26.039062 L 12.105469 -25.898438 C 11.914062 -24.738281 11.550781 -23.777344 11.019531 -23.011719 C 10.390625 -22.109375 9.378906 -21.65625 7.992188 -21.65625 C 6.828125 -21.65625 5.917969 -22.003906 5.261719 -22.699219 C 4.617188 -23.378906 4.296875 -24.179688 4.296875 -25.09375 C 4.296875 -26.75 5.296875 -28.351562 7.292969 -29.898438 C 9.140625 -31.328125 11.335938 -32.515625 13.878906 -33.460938 C 16.441406 -34.414062 18.746094 -34.890625 20.796875 -34.890625 C 23.421875 -34.890625 25.417969 -34.039062 26.792969 -32.335938 C 28.125 -30.691406 28.789062 -28.363281 28.789062 -25.351562 L 28.789062 -9.28125 C 28.789062 -7.425781 29.011719 -6.105469 29.453125 -5.320312 C 29.804688 -4.695312 30.414062 -4.382812 31.28125 -4.382812 C 32.25 -4.382812 33.542969 -4.730469 35.152344 -5.429688 L 35.316406 -5.5 Z M 35.664062 -3.78125 L 35.492188 -3.78125 L 35.492188 -4.640625 L 35.835938 -3.851562 C 34.007812 -3.058594 32.488281 -2.664062 31.28125 -2.664062 C 29.742188 -2.664062 28.632812 -3.269531 27.953125 -4.476562 C 27.367188 -5.523438 27.070312 -7.125 27.070312 -9.28125 L 27.070312 -25.351562 C 27.070312 -27.957031 26.53125 -29.925781 25.457031 -31.257812 C 24.425781 -32.535156 22.871094 -33.171875 20.796875 -33.171875 C 18.953125 -33.171875 16.847656 -32.730469 14.480469 -31.851562 C 12.097656 -30.964844 10.054688 -29.859375 8.347656 -28.539062 C 6.792969 -27.335938 6.015625 -26.1875 6.015625 -25.09375 C 6.015625 -24.632812 6.179688 -24.230469 6.511719 -23.878906 C 6.828125 -23.542969 7.324219 -23.375 7.992188 -23.375 C 8.78125 -23.375 9.320312 -23.582031 9.605469 -23.996094 C 9.992188 -24.546875 10.257812 -25.277344 10.410156 -26.179688 L 10.414062 -26.195312 L 10.417969 -26.214844 C 10.785156 -28.003906 11.515625 -29.597656 12.597656 -30.992188 C 13.773438 -32.503906 15.476562 -33.257812 17.703125 -33.257812 C 19.84375 -33.257812 21.445312 -32.308594 22.511719 -30.414062 C 23.488281 -28.679688 23.976562 -26.132812 23.976562 -22.773438 L 23.976562 -16.332031 L 13.957031 -12.597656 C 10.914062 -11.492188 8.746094 -10.347656 7.457031 -9.164062 C 6.265625 -8.074219 5.671875 -6.796875 5.671875 -5.328125 C 5.671875 -3.855469 6.171875 -2.644531 7.167969 -1.695312 C 8.175781 -0.738281 9.625 -0.257812 11.515625 -0.257812 C 12.617188 -0.257812 13.664062 -0.441406 14.65625 -0.804688 C 15.6875 -1.1875 16.890625 -1.816406 18.265625 -2.695312 L 23.917969 -6.390625 L 24.058594 -4.984375 C 24.21875 -3.386719 24.554688 -2.140625 25.066406 -1.242188 C 25.476562 -0.527344 25.886719 -0.171875 26.296875 -0.171875 C 26.390625 -0.171875 26.496094 -0.203125 26.617188 -0.261719 L 35.453125 -4.464844 C 35.386719 -4.429688 35.332031 -4.371094 35.292969 -4.28125 C 35.253906 -4.199219 35.242188 -4.128906 35.253906 -4.066406 C 35.265625 -4.015625 35.304688 -3.964844 35.367188 -3.90625 C 35.460938 -3.824219 35.558594 -3.78125 35.664062 -3.78125 Z M 22.257812 -6.101562 L 22.257812 -15.726562 L 23.117188 -15.726562 L 23.429688 -14.925781 L 15.433594 -11.832031 C 13.964844 -11.253906 12.917969 -10.605469 12.296875 -9.878906 C 11.71875 -9.210938 11.429688 -8.410156 11.429688 -7.476562 C 11.429688 -6.328125 11.796875 -5.363281 12.527344 -4.585938 C 13.246094 -3.820312 14.199219 -3.4375 15.382812 -3.4375 C 16.375 -3.4375 17.609375 -3.859375 19.082031 -4.699219 L 22.679688 -6.839844 L 23.117188 -6.101562 Z M 23.976562 -5.613281 L 19.933594 -3.207031 C 18.199219 -2.214844 16.679688 -1.71875 15.382812 -1.71875 C 13.703125 -1.71875 12.332031 -2.28125 11.277344 -3.40625 C 10.234375 -4.519531 9.710938 -5.875 9.710938 -7.476562 C 9.710938 -8.835938 10.136719 -10.011719 10.992188 -11.003906 C 11.800781 -11.941406 13.078125 -12.75 14.816406 -13.433594 L 23.976562 -16.980469 Z M 23.976562 -5.613281 "></path></g></g></g><g fill="#000000" fill-opacity="1"><g transform="translate(83.940619, 78.705189)"><g><path d="M 41.679688 -1.890625 C 42.367188 -1.890625 42.710938 -1.433594 42.710938 -0.515625 C 42.710938 0.402344 42.367188 0.859375 41.679688 0.859375 C 40.171875 0.859375 38.976562 0.832031 38.101562 0.773438 L 38.15625 -0.0859375 L 38.140625 0.773438 L 33.84375 0.6875 L 33.859375 -0.171875 L 33.875 0.6875 L 29.234375 0.773438 L 29.21875 -0.0859375 L 29.28125 0.769531 C 28.457031 0.832031 27.320312 0.859375 25.867188 0.859375 C 25.425781 0.859375 25.105469 0.65625 24.90625 0.253906 C 24.800781 0.046875 24.75 -0.207031 24.75 -0.515625 C 24.75 -0.824219 24.800781 -1.078125 24.90625 -1.285156 C 25.105469 -1.6875 25.425781 -1.890625 25.867188 -1.890625 C 27.367188 -1.890625 28.4375 -2.015625 29.082031 -2.261719 C 29.578125 -2.453125 29.925781 -2.839844 30.125 -3.417969 C 30.378906 -4.15625 30.507812 -5.339844 30.507812 -6.960938 L 30.507812 -15.726562 L 31.367188 -15.726562 L 31.367188 -14.867188 L 13.0625 -14.867188 L 13.0625 -15.726562 L 13.921875 -15.726562 L 13.921875 -6.960938 C 13.921875 -5.328125 14.039062 -4.140625 14.269531 -3.390625 C 14.445312 -2.832031 14.785156 -2.457031 15.292969 -2.265625 C 15.972656 -2.015625 17.0625 -1.890625 18.5625 -1.890625 C 19.25 -1.890625 19.59375 -1.433594 19.59375 -0.515625 C 19.59375 0.402344 19.25 0.859375 18.5625 0.859375 C 17.054688 0.859375 15.859375 0.832031 14.980469 0.773438 L 15.039062 -0.0859375 L 15.023438 0.773438 L 10.726562 0.6875 L 10.742188 -0.171875 L 10.757812 0.6875 L 6.203125 0.773438 L 6.1875 -0.0859375 L 6.25 0.769531 C 5.425781 0.832031 4.261719 0.859375 2.75 0.859375 C 2.308594 0.859375 1.988281 0.65625 1.789062 0.253906 C 1.683594 0.046875 1.632812 -0.207031 1.632812 -0.515625 C 1.632812 -0.824219 1.683594 -1.078125 1.789062 -1.285156 C 1.988281 -1.6875 2.308594 -1.890625 2.75 -1.890625 C 4.25 -1.890625 5.339844 -2.015625 6.019531 -2.265625 C 6.527344 -2.457031 6.867188 -2.832031 7.042969 -3.390625 C 7.273438 -4.140625 7.390625 -5.328125 7.390625 -6.960938 L 7.390625 -26.210938 C 7.390625 -27.84375 7.273438 -29.03125 7.042969 -29.78125 C 6.867188 -30.347656 6.535156 -30.722656 6.050781 -30.910156 C 5.40625 -31.15625 4.332031 -31.28125 2.835938 -31.28125 C 2.394531 -31.28125 2.074219 -31.484375 1.875 -31.886719 C 1.769531 -32.09375 1.71875 -32.351562 1.71875 -32.65625 C 1.71875 -32.964844 1.769531 -33.222656 1.875 -33.429688 C 2.074219 -33.832031 2.394531 -34.03125 2.835938 -34.03125 C 4.289062 -34.03125 5.425781 -34.003906 6.25 -33.945312 L 6.1875 -33.085938 L 6.203125 -33.945312 L 10.757812 -33.859375 L 10.742188 -33 L 10.726562 -33.859375 L 15.109375 -33.945312 L 15.125 -33.085938 L 15.066406 -33.945312 C 15.945312 -34.003906 17.113281 -34.03125 18.5625 -34.03125 C 19.25 -34.03125 19.59375 -33.574219 19.59375 -32.65625 C 19.59375 -31.738281 19.25 -31.28125 18.5625 -31.28125 C 17.082031 -31.28125 16.007812 -31.132812 15.34375 -30.839844 C 14.808594 -30.601562 14.449219 -30.191406 14.269531 -29.609375 C 14.039062 -28.859375 13.921875 -27.671875 13.921875 -26.039062 L 13.921875 -17.445312 L 13.0625 -17.445312 L 13.0625 -18.304688 L 31.367188 -18.304688 L 31.367188 -17.445312 L 30.507812 -17.445312 L 30.507812 -26.210938 C 30.507812 -27.84375 30.390625 -29.03125 30.160156 -29.78125 C 29.984375 -30.347656 29.652344 -30.722656 29.167969 -30.910156 C 28.523438 -31.15625 27.453125 -31.28125 25.953125 -31.28125 C 25.511719 -31.28125 25.191406 -31.484375 24.992188 -31.886719 C 24.886719 -32.09375 24.835938 -32.351562 24.835938 -32.65625 C 24.835938 -32.964844 24.886719 -33.222656 24.992188 -33.429688 C 25.191406 -33.832031 25.511719 -34.03125 25.953125 -34.03125 C 27.40625 -34.03125 28.542969 -34.003906 29.367188 -33.945312 L 29.304688 -33.085938 L 29.320312 -33.945312 L 33.875 -33.859375 L 33.859375 -33 L 33.84375 -33.859375 L 38.226562 -33.945312 L 38.242188 -33.085938 L 38.1875 -33.945312 C 39.0625 -34.003906 40.230469 -34.03125 41.679688 -34.03125 C 42.367188 -34.03125 42.710938 -33.574219 42.710938 -32.65625 C 42.710938 -31.738281 42.367188 -31.28125 41.679688 -31.28125 C 40.199219 -31.28125 39.125 -31.132812 38.464844 -30.839844 C 37.925781 -30.601562 37.570312 -30.191406 37.386719 -29.609375 C 37.15625 -28.859375 37.039062 -27.671875 37.039062 -26.039062 L 37.039062 -6.960938 C 37.039062 -5.328125 37.15625 -4.140625 37.386719 -3.390625 C 37.5625 -2.832031 37.902344 -2.457031 38.414062 -2.265625 C 39.089844 -2.015625 40.179688 -1.890625 41.679688 -1.890625 Z M 41.679688 -0.171875 C 39.972656 -0.171875 38.683594 -0.332031 37.816406 -0.65625 C 36.777344 -1.039062 36.085938 -1.78125 35.746094 -2.882812 C 35.460938 -3.796875 35.320312 -5.15625 35.320312 -6.960938 L 35.320312 -26.039062 C 35.320312 -27.84375 35.460938 -29.203125 35.746094 -30.117188 C 36.082031 -31.199219 36.753906 -31.960938 37.765625 -32.410156 C 38.648438 -32.804688 39.953125 -33 41.679688 -33 C 41.472656 -33 41.292969 -32.925781 41.148438 -32.78125 C 41.074219 -32.707031 41.023438 -32.628906 40.992188 -32.542969 L 40.988281 -32.527344 C 40.992188 -32.558594 40.992188 -32.601562 40.992188 -32.65625 C 40.992188 -32.710938 40.992188 -32.753906 40.988281 -32.789062 L 40.992188 -32.773438 C 41.023438 -32.6875 41.074219 -32.605469 41.148438 -32.53125 C 41.292969 -32.386719 41.472656 -32.3125 41.679688 -32.3125 C 40.265625 -32.3125 39.140625 -32.285156 38.300781 -32.230469 L 38.28125 -32.226562 L 33.859375 -32.140625 L 29.265625 -32.226562 L 29.242188 -32.230469 C 28.460938 -32.285156 27.367188 -32.3125 25.953125 -32.3125 C 26.222656 -32.3125 26.414062 -32.429688 26.527344 -32.660156 C 26.546875 -32.691406 26.554688 -32.71875 26.558594 -32.742188 C 26.554688 -32.722656 26.554688 -32.695312 26.554688 -32.65625 C 26.554688 -32.617188 26.554688 -32.589844 26.558594 -32.574219 C 26.554688 -32.59375 26.546875 -32.621094 26.527344 -32.65625 C 26.414062 -32.886719 26.222656 -33 25.953125 -33 C 27.664062 -33 28.941406 -32.839844 29.785156 -32.511719 C 30.789062 -32.128906 31.460938 -31.386719 31.800781 -30.289062 C 32.085938 -29.375 32.226562 -28.015625 32.226562 -26.210938 L 32.226562 -16.585938 L 12.203125 -16.585938 L 12.203125 -26.039062 C 12.203125 -27.84375 12.34375 -29.203125 12.628906 -30.117188 C 12.964844 -31.199219 13.636719 -31.960938 14.648438 -32.410156 C 15.53125 -32.804688 16.835938 -33 18.5625 -33 C 18.355469 -33 18.175781 -32.925781 18.03125 -32.78125 C 17.957031 -32.707031 17.90625 -32.628906 17.875 -32.542969 L 17.871094 -32.527344 C 17.875 -32.558594 17.875 -32.601562 17.875 -32.65625 C 17.875 -32.710938 17.875 -32.753906 17.871094 -32.789062 L 17.875 -32.773438 C 17.90625 -32.6875 17.957031 -32.605469 18.03125 -32.53125 C 18.175781 -32.386719 18.355469 -32.3125 18.5625 -32.3125 C 17.148438 -32.3125 16.023438 -32.285156 15.183594 -32.230469 L 15.164062 -32.226562 L 10.742188 -32.140625 L 6.148438 -32.226562 L 6.125 -32.230469 C 5.34375 -32.285156 4.246094 -32.3125 2.835938 -32.3125 C 3.105469 -32.3125 3.296875 -32.429688 3.410156 -32.660156 C 3.429688 -32.691406 3.4375 -32.71875 3.441406 -32.742188 C 3.4375 -32.722656 3.4375 -32.695312 3.4375 -32.65625 C 3.4375 -32.617188 3.4375 -32.589844 3.441406 -32.574219 C 3.4375 -32.59375 3.429688 -32.621094 3.410156 -32.65625 C 3.296875 -32.886719 3.105469 -33 2.835938 -33 C 4.546875 -33 5.824219 -32.839844 6.667969 -32.511719 C 7.671875 -32.128906 8.34375 -31.386719 8.683594 -30.289062 C 8.96875 -29.375 9.109375 -28.015625 9.109375 -26.210938 L 9.109375 -6.960938 C 9.109375 -5.15625 8.96875 -3.796875 8.683594 -2.882812 C 8.34375 -1.78125 7.652344 -1.039062 6.613281 -0.65625 C 5.746094 -0.332031 4.457031 -0.171875 2.75 -0.171875 C 3.019531 -0.171875 3.210938 -0.289062 3.324219 -0.519531 C 3.34375 -0.550781 3.351562 -0.578125 3.355469 -0.601562 C 3.351562 -0.582031 3.351562 -0.554688 3.351562 -0.515625 C 3.351562 -0.476562 3.351562 -0.449219 3.355469 -0.429688 C 3.351562 -0.453125 3.34375 -0.480469 3.324219 -0.511719 C 3.210938 -0.742188 3.019531 -0.859375 2.75 -0.859375 C 4.21875 -0.859375 5.34375 -0.886719 6.125 -0.941406 L 6.148438 -0.945312 L 10.742188 -1.03125 L 15.078125 -0.945312 L 15.097656 -0.945312 C 15.9375 -0.886719 17.09375 -0.859375 18.5625 -0.859375 C 18.355469 -0.859375 18.175781 -0.785156 18.03125 -0.640625 C 17.957031 -0.566406 17.90625 -0.484375 17.875 -0.402344 L 17.871094 -0.386719 C 17.875 -0.417969 17.875 -0.460938 17.875 -0.515625 C 17.875 -0.570312 17.875 -0.613281 17.871094 -0.644531 L 17.875 -0.628906 C 17.90625 -0.546875 17.957031 -0.464844 18.03125 -0.390625 C 18.175781 -0.246094 18.355469 -0.171875 18.5625 -0.171875 C 16.855469 -0.171875 15.566406 -0.332031 14.699219 -0.65625 C 13.660156 -1.039062 12.96875 -1.78125 12.628906 -2.882812 C 12.34375 -3.796875 12.203125 -5.15625 12.203125 -6.960938 L 12.203125 -16.585938 L 32.226562 -16.585938 L 32.226562 -6.960938 C 32.226562 -5.144531 32.066406 -3.777344 31.75 -2.855469 C 31.378906 -1.773438 30.695312 -1.042969 29.699219 -0.660156 C 28.855469 -0.335938 27.578125 -0.171875 25.867188 -0.171875 C 26.136719 -0.171875 26.328125 -0.289062 26.441406 -0.519531 C 26.460938 -0.550781 26.46875 -0.578125 26.472656 -0.601562 C 26.46875 -0.582031 26.46875 -0.554688 26.46875 -0.515625 C 26.46875 -0.476562 26.46875 -0.449219 26.472656 -0.429688 C 26.46875 -0.453125 26.460938 -0.480469 26.441406 -0.511719 C 26.328125 -0.742188 26.136719 -0.859375 25.867188 -0.859375 C 27.28125 -0.859375 28.375 -0.886719 29.15625 -0.941406 L 29.179688 -0.945312 L 33.859375 -1.03125 L 38.195312 -0.945312 L 38.214844 -0.945312 C 39.054688 -0.886719 40.210938 -0.859375 41.679688 -0.859375 C 41.472656 -0.859375 41.292969 -0.785156 41.148438 -0.640625 C 41.074219 -0.566406 41.023438 -0.484375 40.992188 -0.402344 L 40.988281 -0.386719 C 40.992188 -0.417969 40.992188 -0.460938 40.992188 -0.515625 C 40.992188 -0.570312 40.992188 -0.613281 40.988281 -0.644531 L 40.992188 -0.628906 C 41.023438 -0.546875 41.074219 -0.464844 41.148438 -0.390625 C 41.292969 -0.246094 41.472656 -0.171875 41.679688 -0.171875 Z M 41.679688 -0.171875 "></path></g></g></g><g fill="#000000" fill-opacity="1"><g transform="translate(128.273649, 78.705189)"><g><path d="M 39.53125 -1.890625 C 40.21875 -1.890625 40.5625 -1.433594 40.5625 -0.515625 C 40.5625 0.402344 40.21875 0.859375 39.53125 0.859375 L 29.992188 0.859375 C 29.296875 0.859375 28.792969 0.640625 28.476562 0.199219 C 28.316406 -0.0273438 27.839844 -0.839844 27.050781 -2.242188 C 26.28125 -3.613281 25.210938 -5.472656 23.835938 -7.816406 C 22.429688 -10.121094 21.269531 -11.832031 20.347656 -12.945312 C 19.492188 -13.984375 18.625 -14.691406 17.75 -15.066406 C 16.855469 -15.449219 15.695312 -15.640625 14.265625 -15.640625 L 12.890625 -15.640625 L 12.890625 -16.5 L 13.75 -16.5 L 13.75 -6.960938 C 13.75 -5.328125 13.867188 -4.140625 14.097656 -3.390625 C 14.273438 -2.824219 14.605469 -2.449219 15.089844 -2.261719 C 15.734375 -2.015625 16.808594 -1.890625 18.304688 -1.890625 C 18.992188 -1.890625 19.335938 -1.433594 19.335938 -0.515625 C 19.335938 0.402344 18.992188 0.859375 18.304688 0.859375 C 16.855469 0.859375 15.6875 0.832031 14.808594 0.773438 L 14.867188 -0.0859375 L 14.851562 0.773438 L 10.554688 0.6875 L 10.570312 -0.171875 L 10.585938 0.6875 L 5.945312 0.773438 L 5.929688 -0.0859375 L 5.992188 0.769531 C 5.167969 0.832031 4.03125 0.859375 2.578125 0.859375 C 2.136719 0.859375 1.816406 0.65625 1.617188 0.253906 C 1.511719 0.046875 1.460938 -0.207031 1.460938 -0.515625 C 1.460938 -0.824219 1.511719 -1.078125 1.617188 -1.285156 C 1.816406 -1.6875 2.136719 -1.890625 2.578125 -1.890625 C 4.074219 -1.890625 5.148438 -2.015625 5.792969 -2.261719 C 6.277344 -2.449219 6.609375 -2.824219 6.785156 -3.390625 C 7.015625 -4.140625 7.132812 -5.328125 7.132812 -6.960938 L 7.132812 -26.210938 C 7.132812 -27.84375 7.015625 -29.03125 6.785156 -29.78125 C 6.609375 -30.347656 6.277344 -30.722656 5.792969 -30.910156 C 5.148438 -31.15625 4.105469 -31.28125 2.664062 -31.28125 C 2.222656 -31.28125 1.902344 -31.484375 1.703125 -31.886719 C 1.597656 -32.09375 1.546875 -32.351562 1.546875 -32.65625 C 1.546875 -32.964844 1.597656 -33.222656 1.703125 -33.429688 C 1.902344 -33.832031 2.222656 -34.03125 2.664062 -34.03125 C 4.058594 -34.03125 5.167969 -34.003906 5.992188 -33.945312 L 5.929688 -33.085938 L 5.945312 -33.945312 L 10.585938 -33.859375 L 10.570312 -33 L 10.554688 -33.859375 L 15.539062 -33.945312 L 15.554688 -33.085938 L 15.5 -33.945312 C 16.4375 -34.003906 17.683594 -34.03125 19.25 -34.03125 C 19.691406 -34.03125 20.011719 -33.832031 20.210938 -33.429688 C 20.316406 -33.222656 20.367188 -32.964844 20.367188 -32.65625 C 20.367188 -32.351562 20.316406 -32.09375 20.210938 -31.886719 C 20.011719 -31.484375 19.691406 -31.28125 19.25 -31.28125 C 17.515625 -31.28125 16.25 -31.140625 15.457031 -30.859375 C 14.820312 -30.632812 14.394531 -30.21875 14.171875 -29.609375 C 13.890625 -28.847656 13.75 -27.65625 13.75 -26.039062 L 13.75 -17.875 L 12.890625 -17.875 L 12.890625 -18.734375 C 13.546875 -18.734375 14.375 -18.789062 15.375 -18.902344 L 15.40625 -18.90625 L 18.207031 -18.992188 L 18.21875 -18.992188 C 19.304688 -18.992188 20.480469 -20.214844 21.753906 -22.65625 C 21.925781 -23 22.089844 -23.308594 22.238281 -23.578125 C 22.375 -23.824219 22.496094 -24.058594 22.605469 -24.273438 C 24.585938 -28.113281 26.179688 -30.785156 27.390625 -32.292969 C 28.734375 -33.96875 30.464844 -34.804688 32.570312 -34.804688 C 34.039062 -34.804688 35.195312 -34.453125 36.042969 -33.746094 C 36.9375 -33.003906 37.382812 -32.066406 37.382812 -30.9375 C 37.382812 -29.785156 36.984375 -28.808594 36.1875 -28.011719 C 35.386719 -27.210938 34.355469 -26.8125 33.085938 -26.8125 C 32.300781 -26.8125 31.5 -27.050781 30.675781 -27.53125 C 30.125 -27.855469 29.722656 -28.015625 29.476562 -28.015625 C 29.386719 -28.015625 29.230469 -27.929688 29.003906 -27.753906 C 28.675781 -27.503906 28.300781 -27.109375 27.871094 -26.574219 C 26.953125 -25.4375 25.847656 -23.714844 24.554688 -21.40625 C 23.605469 -19.625 22.667969 -18.273438 21.75 -17.351562 L 21.140625 -17.960938 L 21.257812 -18.8125 C 23.109375 -18.558594 24.632812 -17.832031 25.832031 -16.636719 C 26.9375 -15.527344 28.425781 -13.457031 30.292969 -10.417969 L 31.5 -8.4375 C 32.628906 -6.636719 33.527344 -5.300781 34.195312 -4.4375 C 34.808594 -3.644531 35.519531 -3.035156 36.324219 -2.605469 C 37.125 -2.179688 38.207031 -1.941406 39.566406 -1.890625 L 39.53125 -1.03125 Z M 39.53125 -0.171875 L 39.5 -0.171875 C 37.878906 -0.234375 36.550781 -0.539062 35.519531 -1.089844 C 34.492188 -1.632812 33.597656 -2.398438 32.835938 -3.382812 C 32.132812 -4.292969 31.195312 -5.683594 30.03125 -7.546875 L 28.832031 -9.519531 C 27.03125 -12.441406 25.628906 -14.40625 24.617188 -15.417969 C 23.691406 -16.34375 22.496094 -16.90625 21.023438 -17.109375 L 19.308594 -17.347656 L 20.535156 -18.570312 C 21.332031 -19.367188 22.171875 -20.59375 23.054688 -22.25 C 24.398438 -24.640625 25.554688 -26.441406 26.53125 -27.652344 C 27.648438 -29.039062 28.628906 -29.734375 29.476562 -29.734375 C 30.03125 -29.734375 30.722656 -29.496094 31.542969 -29.015625 C 32.097656 -28.691406 32.609375 -28.53125 33.085938 -28.53125 C 33.878906 -28.53125 34.507812 -28.761719 34.972656 -29.226562 C 35.433594 -29.6875 35.664062 -30.257812 35.664062 -30.9375 C 35.664062 -31.527344 35.425781 -32.023438 34.941406 -32.425781 C 34.414062 -32.867188 33.625 -33.085938 32.570312 -33.085938 C 31.011719 -33.085938 29.730469 -32.460938 28.730469 -31.214844 C 27.589844 -29.800781 26.0625 -27.230469 24.144531 -23.507812 C 24.023438 -23.265625 23.890625 -23.011719 23.738281 -22.742188 C 23.601562 -22.496094 23.449219 -22.203125 23.277344 -21.859375 C 21.683594 -18.804688 20 -17.273438 18.21875 -17.273438 L 18.21875 -18.132812 L 18.246094 -17.273438 L 15.496094 -17.1875 L 15.46875 -18.046875 L 15.5625 -17.191406 C 14.5 -17.074219 13.609375 -17.015625 12.890625 -17.015625 L 12.03125 -17.015625 L 12.03125 -26.039062 C 12.03125 -27.859375 12.207031 -29.246094 12.554688 -30.203125 C 12.964844 -31.316406 13.738281 -32.074219 14.878906 -32.476562 C 15.863281 -32.828125 17.316406 -33 19.25 -33 C 18.980469 -33 18.789062 -32.886719 18.675781 -32.65625 C 18.65625 -32.621094 18.648438 -32.59375 18.644531 -32.574219 C 18.648438 -32.589844 18.648438 -32.617188 18.648438 -32.65625 C 18.648438 -32.695312 18.648438 -32.722656 18.644531 -32.742188 C 18.648438 -32.71875 18.65625 -32.691406 18.675781 -32.660156 C 18.789062 -32.429688 18.980469 -32.3125 19.25 -32.3125 C 17.722656 -32.3125 16.507812 -32.285156 15.609375 -32.230469 L 15.589844 -32.226562 L 10.570312 -32.140625 L 5.890625 -32.226562 L 5.867188 -32.230469 C 5.085938 -32.285156 4.019531 -32.3125 2.664062 -32.3125 C 2.933594 -32.3125 3.125 -32.429688 3.238281 -32.660156 C 3.257812 -32.691406 3.265625 -32.71875 3.269531 -32.742188 C 3.265625 -32.722656 3.265625 -32.695312 3.265625 -32.65625 C 3.265625 -32.617188 3.265625 -32.589844 3.269531 -32.574219 C 3.265625 -32.59375 3.257812 -32.621094 3.238281 -32.65625 C 3.125 -32.886719 2.933594 -33 2.664062 -33 C 4.316406 -33 5.566406 -32.839844 6.410156 -32.511719 C 7.414062 -32.128906 8.085938 -31.386719 8.425781 -30.289062 C 8.710938 -29.375 8.851562 -28.015625 8.851562 -26.210938 L 8.851562 -6.960938 C 8.851562 -5.15625 8.710938 -3.796875 8.425781 -2.882812 C 8.085938 -1.785156 7.414062 -1.046875 6.410156 -0.660156 C 5.566406 -0.335938 4.289062 -0.171875 2.578125 -0.171875 C 2.847656 -0.171875 3.039062 -0.289062 3.152344 -0.519531 C 3.171875 -0.550781 3.179688 -0.578125 3.183594 -0.601562 C 3.179688 -0.582031 3.179688 -0.554688 3.179688 -0.515625 C 3.179688 -0.476562 3.179688 -0.449219 3.183594 -0.429688 C 3.179688 -0.453125 3.171875 -0.480469 3.152344 -0.511719 C 3.039062 -0.742188 2.847656 -0.859375 2.578125 -0.859375 C 3.988281 -0.859375 5.085938 -0.886719 5.867188 -0.941406 L 5.890625 -0.945312 L 10.570312 -1.03125 L 14.90625 -0.945312 L 14.925781 -0.945312 C 15.765625 -0.886719 16.890625 -0.859375 18.304688 -0.859375 C 18.097656 -0.859375 17.917969 -0.785156 17.773438 -0.640625 C 17.699219 -0.566406 17.648438 -0.484375 17.617188 -0.402344 L 17.613281 -0.386719 C 17.617188 -0.417969 17.617188 -0.460938 17.617188 -0.515625 C 17.617188 -0.570312 17.617188 -0.613281 17.613281 -0.644531 L 17.617188 -0.628906 C 17.648438 -0.546875 17.699219 -0.464844 17.773438 -0.390625 C 17.917969 -0.246094 18.097656 -0.171875 18.304688 -0.171875 C 16.59375 -0.171875 15.316406 -0.335938 14.472656 -0.660156 C 13.46875 -1.046875 12.796875 -1.785156 12.457031 -2.882812 C 12.171875 -3.796875 12.03125 -5.15625 12.03125 -6.960938 L 12.03125 -17.359375 L 14.265625 -17.359375 C 15.929688 -17.359375 17.316406 -17.121094 18.429688 -16.644531 C 19.558594 -16.160156 20.640625 -15.292969 21.675781 -14.039062 C 22.644531 -12.863281 23.863281 -11.078125 25.320312 -8.683594 C 26.699219 -6.332031 27.773438 -4.464844 28.550781 -3.085938 C 29.308594 -1.738281 29.75 -0.976562 29.875 -0.800781 C 29.84375 -0.84375 29.8125 -0.871094 29.785156 -0.882812 C 29.824219 -0.867188 29.894531 -0.859375 29.992188 -0.859375 L 39.53125 -0.859375 C 39.324219 -0.859375 39.144531 -0.785156 39 -0.640625 C 38.925781 -0.566406 38.875 -0.484375 38.84375 -0.402344 L 38.839844 -0.386719 C 38.84375 -0.417969 38.84375 -0.460938 38.84375 -0.515625 C 38.84375 -0.570312 38.84375 -0.613281 38.839844 -0.644531 L 38.84375 -0.628906 C 38.875 -0.546875 38.925781 -0.464844 39 -0.390625 C 39.144531 -0.246094 39.324219 -0.171875 39.53125 -0.171875 Z M 39.53125 -0.171875 "></path></g></g></g><g fill="#000000" fill-opacity="1"><g transform="translate(167.795338, 78.705189)"><g><path d="M 30.851562 -5.671875 C 31.320312 -5.671875 31.710938 -5.453125 32.023438 -5.011719 C 32.398438 -4.488281 32.417969 -3.976562 32.082031 -3.476562 L 32.019531 -3.382812 L 31.933594 -3.308594 C 27.992188 0.15625 23.621094 1.890625 18.820312 1.890625 C 15.324219 1.890625 12.332031 1.070312 9.839844 -0.570312 C 7.359375 -2.203125 5.46875 -4.351562 4.167969 -7.011719 C 2.878906 -9.652344 2.234375 -12.472656 2.234375 -15.46875 C 2.234375 -19 3.074219 -22.25 4.753906 -25.214844 C 6.433594 -28.1875 8.726562 -30.527344 11.640625 -32.238281 C 14.550781 -33.949219 17.746094 -34.804688 21.226562 -34.804688 C 24.671875 -34.804688 27.339844 -33.863281 29.226562 -31.976562 C 31.113281 -30.089844 32.054688 -27.480469 32.054688 -24.148438 C 32.054688 -23.230469 31.960938 -22.550781 31.773438 -22.097656 C 31.484375 -21.402344 30.976562 -21.054688 30.25 -21.054688 L 8.941406 -20.96875 L 8.9375 -21.828125 L 9.792969 -21.75 C 9.679688 -20.515625 9.625 -19.511719 9.625 -18.734375 C 9.625 -13.941406 10.742188 -10.078125 12.972656 -7.136719 C 15.152344 -4.269531 18.21875 -2.835938 22.171875 -2.835938 C 23.789062 -2.835938 25.164062 -3.046875 26.296875 -3.46875 C 27.476562 -3.90625 28.8125 -4.597656 30.308594 -5.539062 L 30.519531 -5.671875 Z M 30.851562 -3.953125 L 30.765625 -3.953125 L 30.765625 -4.8125 L 31.222656 -4.085938 C 29.628906 -3.078125 28.183594 -2.335938 26.898438 -1.859375 C 25.570312 -1.363281 23.992188 -1.117188 22.171875 -1.117188 C 17.648438 -1.117188 14.125 -2.777344 11.605469 -6.097656 C 9.140625 -9.34375 7.90625 -13.558594 7.90625 -18.734375 C 7.90625 -19.5625 7.964844 -20.621094 8.082031 -21.90625 L 8.152344 -22.683594 L 30.25 -22.773438 C 30.242188 -22.773438 30.222656 -22.765625 30.195312 -22.746094 L 30.1875 -22.761719 C 30.285156 -23 30.335938 -23.460938 30.335938 -24.148438 C 30.335938 -27.003906 29.5625 -29.207031 28.011719 -30.761719 C 26.457031 -32.3125 24.199219 -33.085938 21.226562 -33.085938 C 18.058594 -33.085938 15.152344 -32.308594 12.511719 -30.753906 C 9.863281 -29.199219 7.777344 -27.070312 6.25 -24.371094 C 4.71875 -21.664062 3.953125 -18.699219 3.953125 -15.46875 C 3.953125 -12.738281 4.539062 -10.167969 5.714844 -7.769531 C 6.875 -5.386719 8.566406 -3.46875 10.785156 -2.007812 C 12.992188 -0.554688 15.667969 0.171875 18.820312 0.171875 C 23.1875 0.171875 27.179688 -1.417969 30.800781 -4.597656 L 31.367188 -3.953125 L 30.652344 -4.429688 C 30.601562 -4.351562 30.578125 -4.261719 30.585938 -4.15625 C 30.589844 -4.089844 30.605469 -4.042969 30.625 -4.011719 L 30.636719 -4.011719 C 30.699219 -3.972656 30.769531 -3.953125 30.851562 -3.953125 Z M 18.390625 -31.367188 C 16.167969 -31.367188 14.339844 -30.636719 12.902344 -29.175781 C 11.421875 -27.667969 10.441406 -25.542969 9.957031 -22.796875 L 9.109375 -22.945312 L 9.089844 -23.804688 L 25.417969 -24.148438 L 25.4375 -23.289062 L 24.578125 -23.289062 C 24.578125 -26.003906 24.015625 -28.042969 22.886719 -29.402344 C 21.796875 -30.710938 20.300781 -31.367188 18.390625 -31.367188 Z M 18.390625 -33.085938 C 20.835938 -33.085938 22.777344 -32.222656 24.207031 -30.5 C 25.601562 -28.820312 26.296875 -26.417969 26.296875 -23.289062 L 26.296875 -22.449219 L 8.082031 -22.0625 L 8.261719 -23.09375 C 8.808594 -26.191406 9.949219 -28.621094 11.675781 -30.378906 C 13.449219 -32.183594 15.6875 -33.085938 18.390625 -33.085938 Z M 18.390625 -33.085938 "></path></g></g></g><g fill="#000000" fill-opacity="1"><g transform="translate(202.849322, 78.705189)"><g><path d="M 10.484375 0.859375 C 9.796875 0.859375 9.453125 0.402344 9.453125 -0.515625 C 9.453125 -1.433594 9.796875 -1.890625 10.484375 -1.890625 C 11.984375 -1.890625 13.074219 -2.015625 13.753906 -2.265625 C 14.261719 -2.457031 14.601562 -2.832031 14.777344 -3.390625 C 15.007812 -4.140625 15.125 -5.328125 15.125 -6.960938 L 15.125 -26.039062 C 15.125 -28.214844 14.914062 -29.617188 14.496094 -30.246094 C 14.152344 -30.765625 13.273438 -31.023438 11.859375 -31.023438 C 9.5625 -31.023438 7.898438 -30.359375 6.867188 -29.035156 C 5.777344 -27.636719 5.179688 -25.28125 5.070312 -21.972656 L 4.210938 -22 L 5.070312 -22 C 5.070312 -21.3125 4.625 -20.96875 3.738281 -20.96875 C 3.480469 -20.96875 3.265625 -21 3.089844 -21.0625 C 2.632812 -21.230469 2.40625 -21.542969 2.40625 -22 L 3.265625 -22 L 2.40625 -21.972656 L 2.234375 -27.128906 L 3.09375 -27.15625 L 2.238281 -27.078125 C 2.179688 -27.714844 2.121094 -28.484375 2.0625 -29.378906 C 2.003906 -30.285156 1.976562 -31.320312 1.976562 -32.484375 C 1.976562 -33.003906 2.054688 -33.375 2.207031 -33.605469 C 2.433594 -33.945312 2.875 -34.117188 3.523438 -34.117188 C 4.746094 -34.117188 5.824219 -34.089844 6.757812 -34.03125 L 6.703125 -33.171875 L 6.710938 -34.03125 L 18.226562 -33.945312 L 29.988281 -34.03125 L 29.992188 -33.171875 L 29.941406 -34.03125 C 30.933594 -34.089844 32.039062 -34.117188 33.257812 -34.117188 C 33.964844 -34.117188 34.433594 -33.945312 34.660156 -33.605469 C 34.816406 -33.375 34.890625 -33.003906 34.890625 -32.484375 L 34.890625 -32.441406 C 34.605469 -26.726562 34.460938 -23.246094 34.460938 -22 C 34.460938 -21.3125 34.015625 -20.96875 33.128906 -20.96875 C 32.460938 -20.96875 32.019531 -21.183594 31.800781 -21.617188 L 31.71875 -21.785156 L 31.710938 -21.972656 C 31.601562 -25.28125 31.003906 -27.636719 29.914062 -29.035156 C 28.882812 -30.359375 27.25 -31.023438 25.007812 -31.023438 C 23.597656 -31.023438 22.71875 -30.765625 22.371094 -30.246094 C 21.953125 -29.617188 21.742188 -28.214844 21.742188 -26.039062 L 21.742188 -6.960938 C 21.742188 -5.328125 21.859375 -4.140625 22.089844 -3.390625 C 22.265625 -2.824219 22.597656 -2.449219 23.082031 -2.261719 C 23.726562 -2.015625 24.800781 -1.890625 26.296875 -1.890625 C 26.738281 -1.890625 27.058594 -1.6875 27.257812 -1.285156 C 27.363281 -1.078125 27.414062 -0.824219 27.414062 -0.515625 C 27.414062 -0.207031 27.363281 0.046875 27.257812 0.253906 C 27.058594 0.65625 26.738281 0.859375 26.296875 0.859375 C 24.84375 0.859375 23.707031 0.832031 22.882812 0.769531 L 22.945312 -0.0859375 L 22.929688 0.773438 L 18.460938 0.6875 L 18.476562 -0.171875 L 18.492188 0.6875 L 14.109375 0.773438 L 14.09375 -0.0859375 L 14.152344 0.773438 C 13.273438 0.832031 12.050781 0.859375 10.484375 0.859375 Z M 10.484375 -0.859375 C 12.011719 -0.859375 13.195312 -0.886719 14.035156 -0.945312 L 14.058594 -0.945312 L 18.476562 -1.03125 L 22.984375 -0.945312 L 23.007812 -0.941406 C 23.789062 -0.886719 24.886719 -0.859375 26.296875 -0.859375 C 26.027344 -0.859375 25.835938 -0.742188 25.722656 -0.511719 C 25.703125 -0.480469 25.695312 -0.453125 25.691406 -0.429688 C 25.695312 -0.449219 25.695312 -0.476562 25.695312 -0.515625 C 25.695312 -0.554688 25.695312 -0.582031 25.691406 -0.601562 C 25.695312 -0.578125 25.703125 -0.550781 25.722656 -0.519531 C 25.835938 -0.289062 26.027344 -0.171875 26.296875 -0.171875 C 24.585938 -0.171875 23.308594 -0.335938 22.464844 -0.660156 C 21.460938 -1.046875 20.789062 -1.785156 20.449219 -2.882812 C 20.164062 -3.796875 20.023438 -5.15625 20.023438 -6.960938 L 20.023438 -26.039062 C 20.023438 -28.5625 20.328125 -30.28125 20.941406 -31.199219 C 21.628906 -32.226562 22.984375 -32.742188 25.007812 -32.742188 C 27.808594 -32.742188 29.898438 -31.859375 31.273438 -30.089844 C 32.589844 -28.398438 33.308594 -25.710938 33.429688 -22.027344 L 32.570312 -22 L 33.339844 -22.382812 C 33.257812 -22.546875 33.148438 -22.648438 33.007812 -22.691406 C 33.015625 -22.691406 33.058594 -22.6875 33.128906 -22.6875 C 33.171875 -22.6875 33.207031 -22.6875 33.234375 -22.691406 C 33.226562 -22.691406 33.210938 -22.6875 33.191406 -22.679688 C 33.097656 -22.644531 33.015625 -22.585938 32.9375 -22.507812 C 32.808594 -22.363281 32.742188 -22.195312 32.742188 -22 C 32.742188 -23.273438 32.886719 -26.785156 33.171875 -32.527344 L 34.03125 -32.484375 L 33.171875 -32.484375 C 33.171875 -32.617188 33.167969 -32.71875 33.160156 -32.789062 L 33.15625 -32.804688 C 33.171875 -32.757812 33.195312 -32.707031 33.230469 -32.652344 C 33.335938 -32.496094 33.449219 -32.40625 33.574219 -32.382812 C 33.511719 -32.394531 33.40625 -32.398438 33.257812 -32.398438 C 32.070312 -32.398438 31 -32.371094 30.042969 -32.3125 L 30.019531 -32.3125 L 18.210938 -32.226562 L 6.671875 -32.3125 L 6.648438 -32.316406 C 5.75 -32.371094 4.707031 -32.398438 3.523438 -32.398438 C 3.414062 -32.398438 3.335938 -32.394531 3.296875 -32.386719 C 3.421875 -32.414062 3.535156 -32.503906 3.636719 -32.652344 C 3.671875 -32.707031 3.695312 -32.757812 3.710938 -32.804688 L 3.710938 -32.789062 C 3.699219 -32.71875 3.695312 -32.617188 3.695312 -32.484375 C 3.695312 -31.359375 3.722656 -30.359375 3.78125 -29.488281 C 3.835938 -28.609375 3.894531 -27.855469 3.949219 -27.234375 L 3.953125 -27.210938 L 4.125 -22.015625 L 4.125 -22 C 4.125 -22.195312 4.058594 -22.363281 3.929688 -22.507812 C 3.855469 -22.585938 3.769531 -22.644531 3.675781 -22.679688 C 3.65625 -22.6875 3.640625 -22.691406 3.636719 -22.691406 C 3.660156 -22.6875 3.695312 -22.6875 3.738281 -22.6875 C 3.78125 -22.6875 3.816406 -22.6875 3.839844 -22.691406 C 3.835938 -22.691406 3.820312 -22.6875 3.800781 -22.679688 C 3.707031 -22.644531 3.621094 -22.585938 3.546875 -22.507812 C 3.417969 -22.363281 3.351562 -22.195312 3.351562 -22 L 3.351562 -22.027344 C 3.472656 -25.710938 4.191406 -28.398438 5.507812 -30.089844 C 6.882812 -31.859375 9 -32.742188 11.859375 -32.742188 C 13.886719 -32.742188 15.242188 -32.226562 15.925781 -31.199219 C 16.539062 -30.28125 16.84375 -28.5625 16.84375 -26.039062 L 16.84375 -6.960938 C 16.84375 -5.15625 16.703125 -3.796875 16.417969 -2.882812 C 16.078125 -1.78125 15.386719 -1.039062 14.347656 -0.65625 C 13.480469 -0.332031 12.191406 -0.171875 10.484375 -0.171875 C 10.691406 -0.171875 10.871094 -0.246094 11.015625 -0.390625 C 11.089844 -0.464844 11.140625 -0.546875 11.171875 -0.628906 L 11.175781 -0.644531 C 11.175781 -0.613281 11.171875 -0.570312 11.171875 -0.515625 C 11.171875 -0.460938 11.175781 -0.417969 11.175781 -0.386719 L 11.171875 -0.402344 C 11.140625 -0.484375 11.089844 -0.566406 11.015625 -0.640625 C 10.871094 -0.785156 10.691406 -0.859375 10.484375 -0.859375 Z M 10.484375 -0.859375 "></path></g></g></g><g fill="#000000" fill-opacity="1"><g transform="translate(0.000005025, 78.705189)"><g><path d="M 23.71875 -30.34375 C 37.007812 -30.34375 43.65625 -25.613281 43.65625 -16.15625 C 43.65625 -12.945312 42.925781 -10.082031 41.46875 -7.5625 C 40.007812 -5.039062 37.960938 -3.09375 35.328125 -1.71875 C 32.691406 -0.34375 29.679688 0.34375 26.296875 0.34375 C 24.753906 0.34375 22.953125 0.257812 20.890625 0.09375 C 20.023438 0.03125 18.988281 -0.0234375 17.78125 -0.078125 C 16.582031 -0.140625 15.296875 -0.171875 13.921875 -0.171875 L 8.078125 -0.09375 C 7.046875 -0.03125 5.585938 0 3.703125 0 C 3.585938 0 3.53125 -0.171875 3.53125 -0.515625 C 3.53125 -0.859375 3.585938 -1.03125 3.703125 -1.03125 C 5.878906 -1.03125 7.484375 -1.171875 8.515625 -1.453125 C 9.546875 -1.742188 10.242188 -2.304688 10.609375 -3.140625 C 10.984375 -3.972656 11.171875 -5.25 11.171875 -6.96875 L 11.171875 -46.75 C 11.171875 -48.46875 11 -49.726562 10.65625 -50.53125 C 10.3125 -51.332031 9.640625 -51.890625 8.640625 -52.203125 C 7.640625 -52.523438 6.050781 -52.6875 3.875 -52.6875 C 3.695312 -52.6875 3.609375 -52.859375 3.609375 -53.203125 C 3.609375 -53.546875 3.695312 -53.71875 3.875 -53.71875 L 37.734375 -53.71875 C 38.078125 -53.71875 38.304688 -53.644531 38.421875 -53.5 C 38.535156 -53.351562 38.617188 -53.082031 38.671875 -52.6875 L 39.796875 -41.6875 C 39.796875 -41.507812 39.648438 -41.421875 39.359375 -41.421875 C 39.078125 -41.421875 38.878906 -41.507812 38.765625 -41.6875 C 38.191406 -44.894531 37 -47.414062 35.1875 -49.25 C 33.382812 -51.082031 31.164062 -52 28.53125 -52 L 23.640625 -52 C 21.628906 -52 20.148438 -51.835938 19.203125 -51.515625 C 18.265625 -51.203125 17.625 -50.660156 17.28125 -49.890625 C 16.9375 -49.117188 16.765625 -47.898438 16.765625 -46.234375 L 16.765625 -29.90625 C 19.453125 -30.195312 21.769531 -30.34375 23.71875 -30.34375 Z M 24.578125 -1.203125 C 29.160156 -1.203125 32.484375 -2.25 34.546875 -4.34375 C 36.609375 -6.4375 37.640625 -9.628906 37.640625 -13.921875 C 37.640625 -19.191406 36.265625 -22.957031 33.515625 -25.21875 C 30.765625 -27.488281 26.84375 -28.625 21.75 -28.625 C 19.96875 -28.625 18.304688 -28.507812 16.765625 -28.28125 L 16.765625 -6.96875 C 16.765625 -4.957031 17.28125 -3.492188 18.3125 -2.578125 C 19.34375 -1.660156 21.429688 -1.203125 24.578125 -1.203125 Z M 24.578125 -1.203125 "></path></g></g></g><g fill="#000000" fill-opacity="1"><g transform="translate(47.941513, 78.705189)"><g><path d="M 35.671875 -4.640625 C 35.898438 -4.640625 36.039062 -4.507812 36.09375 -4.25 C 36.15625 -4 36.070312 -3.816406 35.84375 -3.703125 L 26.984375 0.515625 C 26.753906 0.628906 26.523438 0.6875 26.296875 0.6875 C 25.554688 0.6875 24.898438 0.1875 24.328125 -0.8125 C 23.753906 -1.820312 23.378906 -3.1875 23.203125 -4.90625 L 18.734375 -1.984375 C 17.304688 -1.066406 16.046875 -0.40625 14.953125 0 C 13.867188 0.40625 12.722656 0.609375 11.515625 0.609375 C 9.398438 0.609375 7.753906 0.0507812 6.578125 -1.0625 C 5.398438 -2.1875 4.8125 -3.609375 4.8125 -5.328125 C 4.8125 -7.046875 5.5 -8.535156 6.875 -9.796875 C 8.25 -11.054688 10.515625 -12.257812 13.671875 -13.40625 L 23.125 -16.9375 L 23.125 -22.78125 C 23.125 -29.195312 21.316406 -32.40625 17.703125 -32.40625 C 15.753906 -32.40625 14.28125 -31.757812 13.28125 -30.46875 C 12.28125 -29.175781 11.609375 -27.703125 11.265625 -26.046875 C 11.085938 -25.015625 10.769531 -24.164062 10.3125 -23.5 C 9.851562 -22.84375 9.082031 -22.515625 8 -22.515625 C 7.082031 -22.515625 6.378906 -22.769531 5.890625 -23.28125 C 5.398438 -23.800781 5.15625 -24.40625 5.15625 -25.09375 C 5.15625 -26.46875 6.039062 -27.84375 7.8125 -29.21875 C 9.59375 -30.59375 11.710938 -31.738281 14.171875 -32.65625 C 16.640625 -33.570312 18.847656 -34.03125 20.796875 -34.03125 C 23.148438 -34.03125 24.925781 -33.285156 26.125 -31.796875 C 27.332031 -30.304688 27.9375 -28.160156 27.9375 -25.359375 L 27.9375 -9.28125 C 27.9375 -7.28125 28.191406 -5.820312 28.703125 -4.90625 C 29.222656 -3.988281 30.082031 -3.53125 31.28125 -3.53125 C 32.375 -3.53125 33.78125 -3.898438 35.5 -4.640625 Z M 23.125 -6.109375 L 23.125 -15.734375 L 15.125 -12.640625 C 13.519531 -12.003906 12.359375 -11.269531 11.640625 -10.4375 C 10.929688 -9.613281 10.578125 -8.628906 10.578125 -7.484375 C 10.578125 -6.109375 11.019531 -4.945312 11.90625 -4 C 12.789062 -3.050781 13.953125 -2.578125 15.390625 -2.578125 C 16.535156 -2.578125 17.910156 -3.035156 19.515625 -3.953125 Z M 23.125 -6.109375 "></path></g></g></g><g fill="#000000" fill-opacity="1"><g transform="translate(83.940619, 78.705189)"><g><path d="M 41.6875 -1.03125 C 41.800781 -1.03125 41.859375 -0.859375 41.859375 -0.515625 C 41.859375 -0.171875 41.800781 0 41.6875 0 C 40.195312 0 39.019531 -0.03125 38.15625 -0.09375 L 33.859375 -0.171875 L 29.21875 -0.09375 C 28.414062 -0.03125 27.300781 0 25.875 0 C 25.695312 0 25.609375 -0.171875 25.609375 -0.515625 C 25.609375 -0.859375 25.695312 -1.03125 25.875 -1.03125 C 27.476562 -1.03125 28.648438 -1.171875 29.390625 -1.453125 C 30.140625 -1.742188 30.65625 -2.304688 30.9375 -3.140625 C 31.226562 -3.972656 31.375 -5.25 31.375 -6.96875 L 31.375 -15.734375 L 13.0625 -15.734375 L 13.0625 -6.96875 C 13.0625 -5.25 13.191406 -3.972656 13.453125 -3.140625 C 13.710938 -2.304688 14.226562 -1.742188 15 -1.453125 C 15.769531 -1.171875 16.957031 -1.03125 18.5625 -1.03125 C 18.675781 -1.03125 18.734375 -0.859375 18.734375 -0.515625 C 18.734375 -0.171875 18.675781 0 18.5625 0 C 17.070312 0 15.898438 -0.03125 15.046875 -0.09375 L 10.75 -0.171875 L 6.1875 -0.09375 C 5.382812 -0.03125 4.238281 0 2.75 0 C 2.582031 0 2.5 -0.171875 2.5 -0.515625 C 2.5 -0.859375 2.582031 -1.03125 2.75 -1.03125 C 4.351562 -1.03125 5.539062 -1.171875 6.3125 -1.453125 C 7.09375 -1.742188 7.609375 -2.304688 7.859375 -3.140625 C 8.117188 -3.972656 8.25 -5.25 8.25 -6.96875 L 8.25 -26.21875 C 8.25 -27.9375 8.117188 -29.207031 7.859375 -30.03125 C 7.609375 -30.863281 7.109375 -31.421875 6.359375 -31.703125 C 5.617188 -31.992188 4.445312 -32.140625 2.84375 -32.140625 C 2.664062 -32.140625 2.578125 -32.3125 2.578125 -32.65625 C 2.578125 -33 2.664062 -33.171875 2.84375 -33.171875 C 4.269531 -33.171875 5.382812 -33.144531 6.1875 -33.09375 L 10.75 -33 L 15.125 -33.09375 C 15.988281 -33.144531 17.132812 -33.171875 18.5625 -33.171875 C 18.675781 -33.171875 18.734375 -33 18.734375 -32.65625 C 18.734375 -32.3125 18.675781 -32.140625 18.5625 -32.140625 C 16.957031 -32.140625 15.769531 -31.96875 15 -31.625 C 14.226562 -31.28125 13.710938 -30.691406 13.453125 -29.859375 C 13.191406 -29.035156 13.0625 -27.765625 13.0625 -26.046875 L 13.0625 -17.453125 L 31.375 -17.453125 L 31.375 -26.21875 C 31.375 -27.9375 31.242188 -29.207031 30.984375 -30.03125 C 30.722656 -30.863281 30.21875 -31.421875 29.46875 -31.703125 C 28.726562 -31.992188 27.554688 -32.140625 25.953125 -32.140625 C 25.785156 -32.140625 25.703125 -32.3125 25.703125 -32.65625 C 25.703125 -33 25.785156 -33.171875 25.953125 -33.171875 C 27.390625 -33.171875 28.507812 -33.144531 29.3125 -33.09375 L 33.859375 -33 L 38.25 -33.09375 C 39.101562 -33.144531 40.25 -33.171875 41.6875 -33.171875 C 41.800781 -33.171875 41.859375 -33 41.859375 -32.65625 C 41.859375 -32.3125 41.800781 -32.140625 41.6875 -32.140625 C 40.082031 -32.140625 38.890625 -31.96875 38.109375 -31.625 C 37.335938 -31.28125 36.820312 -30.691406 36.5625 -29.859375 C 36.3125 -29.035156 36.1875 -27.765625 36.1875 -26.046875 L 36.1875 -6.96875 C 36.1875 -5.25 36.3125 -3.972656 36.5625 -3.140625 C 36.820312 -2.304688 37.335938 -1.742188 38.109375 -1.453125 C 38.890625 -1.171875 40.082031 -1.03125 41.6875 -1.03125 Z M 41.6875 -1.03125 "></path></g></g></g><g fill="#000000" fill-opacity="1"><g transform="translate(128.273649, 78.705189)"><g><path d="M 39.53125 -1.03125 C 39.644531 -1.03125 39.703125 -0.859375 39.703125 -0.515625 C 39.703125 -0.171875 39.644531 0 39.53125 0 L 30 0 C 29.59375 0 29.316406 -0.0976562 29.171875 -0.296875 C 29.035156 -0.503906 28.578125 -1.296875 27.796875 -2.671875 C 27.023438 -4.046875 25.953125 -5.90625 24.578125 -8.25 C 23.148438 -10.601562 21.960938 -12.351562 21.015625 -13.5 C 20.066406 -14.644531 19.09375 -15.429688 18.09375 -15.859375 C 17.09375 -16.285156 15.816406 -16.5 14.265625 -16.5 L 12.890625 -16.5 L 12.890625 -6.96875 C 12.890625 -5.25 13.019531 -3.972656 13.28125 -3.140625 C 13.539062 -2.304688 14.039062 -1.742188 14.78125 -1.453125 C 15.53125 -1.171875 16.707031 -1.03125 18.3125 -1.03125 C 18.425781 -1.03125 18.484375 -0.859375 18.484375 -0.515625 C 18.484375 -0.171875 18.425781 0 18.3125 0 C 16.875 0 15.726562 -0.03125 14.875 -0.09375 L 10.578125 -0.171875 L 5.9375 -0.09375 C 5.132812 -0.03125 4.015625 0 2.578125 0 C 2.410156 0 2.328125 -0.171875 2.328125 -0.515625 C 2.328125 -0.859375 2.410156 -1.03125 2.578125 -1.03125 C 4.179688 -1.03125 5.351562 -1.171875 6.09375 -1.453125 C 6.84375 -1.742188 7.347656 -2.304688 7.609375 -3.140625 C 7.867188 -3.972656 8 -5.25 8 -6.96875 L 8 -26.21875 C 8 -27.9375 7.867188 -29.207031 7.609375 -30.03125 C 7.347656 -30.863281 6.84375 -31.421875 6.09375 -31.703125 C 5.351562 -31.992188 4.210938 -32.140625 2.671875 -32.140625 C 2.492188 -32.140625 2.40625 -32.3125 2.40625 -32.65625 C 2.40625 -33 2.492188 -33.171875 2.671875 -33.171875 C 4.046875 -33.171875 5.132812 -33.144531 5.9375 -33.09375 L 10.578125 -33 L 15.5625 -33.09375 C 16.476562 -33.144531 17.707031 -33.171875 19.25 -33.171875 C 19.425781 -33.171875 19.515625 -33 19.515625 -32.65625 C 19.515625 -32.3125 19.425781 -32.140625 19.25 -32.140625 C 17.414062 -32.140625 16.054688 -31.984375 15.171875 -31.671875 C 14.285156 -31.359375 13.679688 -30.769531 13.359375 -29.90625 C 13.046875 -29.050781 12.890625 -27.765625 12.890625 -26.046875 L 12.890625 -17.875 C 13.578125 -17.875 14.4375 -17.929688 15.46875 -18.046875 L 18.21875 -18.140625 C 19.65625 -18.140625 21.085938 -19.515625 22.515625 -22.265625 C 22.691406 -22.609375 22.847656 -22.90625 22.984375 -23.15625 C 23.128906 -23.414062 23.257812 -23.660156 23.375 -23.890625 C 25.320312 -27.671875 26.882812 -30.289062 28.0625 -31.75 C 29.238281 -33.21875 30.742188 -33.953125 32.578125 -33.953125 C 33.835938 -33.953125 34.8125 -33.664062 35.5 -33.09375 C 36.1875 -32.519531 36.53125 -31.800781 36.53125 -30.9375 C 36.53125 -30.019531 36.210938 -29.242188 35.578125 -28.609375 C 34.953125 -27.984375 34.125 -27.671875 33.09375 -27.671875 C 32.457031 -27.671875 31.796875 -27.867188 31.109375 -28.265625 C 30.421875 -28.671875 29.878906 -28.875 29.484375 -28.875 C 28.335938 -28.875 26.445312 -26.523438 23.8125 -21.828125 C 22.894531 -20.109375 22.003906 -18.820312 21.140625 -17.96875 C 22.804688 -17.738281 24.164062 -17.09375 25.21875 -16.03125 C 26.28125 -14.96875 27.726562 -12.945312 29.5625 -9.96875 L 30.765625 -8 C 31.910156 -6.164062 32.828125 -4.800781 33.515625 -3.90625 C 34.203125 -3.019531 35.003906 -2.332031 35.921875 -1.84375 C 36.835938 -1.363281 38.039062 -1.09375 39.53125 -1.03125 Z M 39.53125 -1.03125 "></path></g></g></g><g fill="#000000" fill-opacity="1"><g transform="translate(167.795338, 78.705189)"><g><path d="M 30.859375 -4.8125 C 31.023438 -4.8125 31.179688 -4.710938 31.328125 -4.515625 C 31.472656 -4.316406 31.488281 -4.128906 31.375 -3.953125 C 27.59375 -0.628906 23.410156 1.03125 18.828125 1.03125 C 15.503906 1.03125 12.664062 0.257812 10.3125 -1.28125 C 7.96875 -2.832031 6.175781 -4.867188 4.9375 -7.390625 C 3.707031 -9.910156 3.09375 -12.601562 3.09375 -15.46875 C 3.09375 -18.851562 3.894531 -21.960938 5.5 -24.796875 C 7.101562 -27.628906 9.296875 -29.863281 12.078125 -31.5 C 14.859375 -33.132812 17.910156 -33.953125 21.234375 -33.953125 C 24.441406 -33.953125 26.90625 -33.09375 28.625 -31.375 C 30.34375 -29.65625 31.203125 -27.25 31.203125 -24.15625 C 31.203125 -23.351562 31.128906 -22.78125 30.984375 -22.4375 C 30.835938 -22.09375 30.59375 -21.921875 30.25 -21.921875 L 8.9375 -21.828125 C 8.820312 -20.566406 8.765625 -19.535156 8.765625 -18.734375 C 8.765625 -13.753906 9.9375 -9.71875 12.28125 -6.625 C 14.632812 -3.53125 17.929688 -1.984375 22.171875 -1.984375 C 23.890625 -1.984375 25.363281 -2.210938 26.59375 -2.671875 C 27.832031 -3.128906 29.222656 -3.84375 30.765625 -4.8125 Z M 18.390625 -32.234375 C 15.929688 -32.234375 13.898438 -31.414062 12.296875 -29.78125 C 10.691406 -28.144531 9.628906 -25.867188 9.109375 -22.953125 L 25.4375 -23.296875 C 25.4375 -26.210938 24.804688 -28.429688 23.546875 -29.953125 C 22.285156 -31.472656 20.566406 -32.234375 18.390625 -32.234375 Z M 18.390625 -32.234375 "></path></g></g></g><g fill="#000000" fill-opacity="1"><g transform="translate(202.849322, 78.705189)"><g><path d="M 10.484375 0 C 10.367188 0 10.3125 -0.171875 10.3125 -0.515625 C 10.3125 -0.859375 10.367188 -1.03125 10.484375 -1.03125 C 12.085938 -1.03125 13.273438 -1.171875 14.046875 -1.453125 C 14.828125 -1.742188 15.34375 -2.304688 15.59375 -3.140625 C 15.851562 -3.972656 15.984375 -5.25 15.984375 -6.96875 L 15.984375 -26.046875 C 15.984375 -28.390625 15.722656 -29.945312 15.203125 -30.71875 C 14.691406 -31.5 13.578125 -31.890625 11.859375 -31.890625 C 9.285156 -31.890625 7.394531 -31.113281 6.1875 -29.5625 C 4.988281 -28.019531 4.332031 -25.5 4.21875 -22 C 4.21875 -21.882812 4.054688 -21.828125 3.734375 -21.828125 C 3.421875 -21.828125 3.265625 -21.882812 3.265625 -22 L 3.09375 -27.15625 C 3.039062 -27.789062 2.984375 -28.550781 2.921875 -29.4375 C 2.867188 -30.320312 2.84375 -31.335938 2.84375 -32.484375 C 2.84375 -32.828125 2.867188 -33.039062 2.921875 -33.125 C 2.984375 -33.21875 3.1875 -33.265625 3.53125 -33.265625 C 4.726562 -33.265625 5.785156 -33.234375 6.703125 -33.171875 L 18.21875 -33.09375 L 30 -33.171875 C 30.96875 -33.234375 32.054688 -33.265625 33.265625 -33.265625 C 33.660156 -33.265625 33.882812 -33.21875 33.9375 -33.125 C 34 -33.039062 34.03125 -32.828125 34.03125 -32.484375 C 33.75 -26.753906 33.609375 -23.257812 33.609375 -22 C 33.609375 -21.882812 33.445312 -21.828125 33.125 -21.828125 C 32.8125 -21.828125 32.628906 -21.882812 32.578125 -22 C 32.460938 -25.5 31.800781 -28.019531 30.59375 -29.5625 C 29.394531 -31.113281 27.535156 -31.890625 25.015625 -31.890625 C 23.296875 -31.890625 22.175781 -31.5 21.65625 -30.71875 C 21.144531 -29.945312 20.890625 -28.390625 20.890625 -26.046875 L 20.890625 -6.96875 C 20.890625 -5.25 21.015625 -3.972656 21.265625 -3.140625 C 21.523438 -2.304688 22.023438 -1.742188 22.765625 -1.453125 C 23.515625 -1.171875 24.691406 -1.03125 26.296875 -1.03125 C 26.472656 -1.03125 26.5625 -0.859375 26.5625 -0.515625 C 26.5625 -0.171875 26.472656 0 26.296875 0 C 24.867188 0 23.753906 -0.03125 22.953125 -0.09375 L 18.484375 -0.171875 L 14.09375 -0.09375 C 13.238281 -0.03125 12.035156 0 10.484375 0 Z M 10.484375 0 "></path></g></g></g></g></g></svg> 