<?xml version="1.0" encoding="UTF-8"?> <svg xmlns="http://www.w3.org/2000/svg" xmlns:xlink="http://www.w3.org/1999/xlink" width="360" zoomAndPan="magnify" viewBox="0 0 270 359.999987" height="480" preserveAspectRatio="xMidYMid meet" version="1.0"><defs><g></g><clipPath id="cf95584a07"><rect x="0" width="270" y="0" height="144"></rect></clipPath></defs><g transform="matrix(1, 0, 0, 1, -0, 108)"><g clip-path="url(#cf95584a07)"><g fill="#000000" fill-opacity="1"><g transform="translate(0.700531, 108.921839)"><g><path d="M 13.40625 0 L 13.40625 -1.296875 C 15.476562 -1.296875 16.789062 -1.914062 17.34375 -3.15625 C 17.90625 -4.40625 18.1875 -5.890625 18.1875 -7.609375 L 18.1875 -69.390625 C 18.1875 -70.242188 17.753906 -70.671875 16.890625 -70.671875 C 16.546875 -70.671875 16.070312 -70.539062 15.46875 -70.28125 L 0.78125 -65.640625 L 0.78125 -70.28125 L 30.828125 -80.734375 L 30.828125 -77.25 C 29.453125 -76.644531 28.351562 -75.695312 27.53125 -74.40625 C 26.71875 -73.125 26.394531 -71.625 26.5625 -69.90625 L 26.5625 -8.125 C 26.5625 -6.320312 26.863281 -4.734375 27.46875 -3.359375 C 28.070312 -1.984375 29.445312 -1.296875 31.59375 -1.296875 L 31.59375 0 Z M 13.40625 0 "></path></g></g></g><g fill="#000000" fill-opacity="1"><g transform="translate(42.605343, 108.921839)"><g><path d="M 30.5625 -47.71875 C 27.46875 -47.71875 24.78125 -47.179688 22.5 -46.109375 C 20.226562 -45.035156 18.335938 -43.59375 16.828125 -41.78125 C 15.328125 -39.976562 14.207031 -37.914062 13.46875 -35.59375 C 12.738281 -33.269531 12.375 -30.863281 12.375 -28.375 C 12.375 -25.363281 12.828125 -22.351562 13.734375 -19.34375 C 14.640625 -16.332031 15.972656 -13.644531 17.734375 -11.28125 C 19.492188 -8.914062 21.617188 -6.976562 24.109375 -5.46875 C 26.609375 -3.96875 29.492188 -3.21875 32.765625 -3.21875 C 35.679688 -3.21875 38.253906 -3.796875 40.484375 -4.953125 C 42.722656 -6.117188 44.59375 -7.671875 46.09375 -9.609375 C 47.601562 -11.546875 48.722656 -13.757812 49.453125 -16.25 C 50.191406 -18.738281 50.5625 -21.273438 50.5625 -23.859375 C 50.5625 -26.785156 50.109375 -29.664062 49.203125 -32.5 C 48.296875 -35.332031 47.003906 -37.890625 45.328125 -40.171875 C 43.648438 -42.453125 41.566406 -44.28125 39.078125 -45.65625 C 36.585938 -47.03125 33.75 -47.71875 30.5625 -47.71875 Z M 48.875 -69 C 47.5 -70.71875 45.84375 -72.09375 43.90625 -73.125 C 41.976562 -74.15625 40.15625 -74.671875 38.4375 -74.671875 C 34.476562 -74.671875 31.035156 -73.703125 28.109375 -71.765625 C 25.191406 -69.835938 22.765625 -67.453125 20.828125 -64.609375 C 18.890625 -61.773438 17.363281 -58.703125 16.25 -55.390625 C 15.132812 -52.078125 14.40625 -49.003906 14.0625 -46.171875 C 16.550781 -48.410156 19.34375 -49.976562 22.4375 -50.875 C 25.53125 -51.78125 28.753906 -52.234375 32.109375 -52.234375 C 36.492188 -52.234375 40.34375 -51.476562 43.65625 -49.96875 C 46.96875 -48.46875 49.71875 -46.492188 51.90625 -44.046875 C 54.101562 -41.597656 55.738281 -38.78125 56.8125 -35.59375 C 57.882812 -32.414062 58.421875 -29.148438 58.421875 -25.796875 C 58.421875 -22.441406 57.859375 -19.128906 56.734375 -15.859375 C 55.617188 -12.597656 53.941406 -9.695312 51.703125 -7.15625 C 49.472656 -4.625 46.703125 -2.582031 43.390625 -1.03125 C 40.085938 0.519531 36.242188 1.296875 31.859375 1.296875 C 27.046875 1.296875 22.875 0.394531 19.34375 -1.40625 C 15.820312 -3.21875 12.941406 -5.648438 10.703125 -8.703125 C 8.460938 -11.753906 6.804688 -15.300781 5.734375 -19.34375 C 4.660156 -23.382812 4.125 -27.597656 4.125 -31.984375 C 4.125 -37.660156 4.921875 -43.3125 6.515625 -48.9375 C 8.109375 -54.570312 10.453125 -59.644531 13.546875 -64.15625 C 16.640625 -68.675781 20.421875 -72.351562 24.890625 -75.1875 C 29.359375 -78.019531 34.472656 -79.4375 40.234375 -79.4375 C 41.441406 -79.4375 42.710938 -79.347656 44.046875 -79.171875 C 45.378906 -79.003906 46.5625 -78.835938 47.59375 -78.671875 C 48.101562 -78.585938 48.640625 -78.5 49.203125 -78.40625 C 49.765625 -78.320312 50.085938 -78.28125 50.171875 -78.28125 L 50.171875 -69 Z M 48.875 -69 "></path></g></g></g><g fill="#000000" fill-opacity="1"><g transform="translate(105.913873, 108.921839)"><g><path d="M 6.703125 -43.71875 C 6.703125 -45.4375 7.28125 -46.894531 8.4375 -48.09375 C 9.601562 -49.300781 11.046875 -49.90625 12.765625 -49.90625 C 14.484375 -49.90625 15.941406 -49.300781 17.140625 -48.09375 C 18.347656 -46.894531 18.953125 -45.4375 18.953125 -43.71875 C 18.953125 -42 18.347656 -40.554688 17.140625 -39.390625 C 15.941406 -38.234375 14.484375 -37.65625 12.765625 -37.65625 C 11.046875 -37.65625 9.601562 -38.234375 8.4375 -39.390625 C 7.28125 -40.554688 6.703125 -42 6.703125 -43.71875 Z M 6.703125 -5.546875 C 6.703125 -7.265625 7.28125 -8.722656 8.4375 -9.921875 C 9.601562 -11.128906 11.046875 -11.734375 12.765625 -11.734375 C 14.484375 -11.734375 15.941406 -11.128906 17.140625 -9.921875 C 18.347656 -8.722656 18.953125 -7.265625 18.953125 -5.546875 C 18.953125 -3.828125 18.347656 -2.382812 17.140625 -1.21875 C 15.941406 -0.0625 14.484375 0.515625 12.765625 0.515625 C 11.046875 0.515625 9.601562 -0.0625 8.4375 -1.21875 C 7.28125 -2.382812 6.703125 -3.828125 6.703125 -5.546875 Z M 6.703125 -5.546875 "></path></g></g></g><g fill="#000000" fill-opacity="1"><g transform="translate(131.830405, 108.921839)"><g><path d="M 4.765625 -39.984375 C 4.765625 -46.597656 5.601562 -52.441406 7.28125 -57.515625 C 8.957031 -62.585938 11.171875 -66.820312 13.921875 -70.21875 C 16.679688 -73.613281 19.800781 -76.191406 23.28125 -77.953125 C 26.757812 -79.722656 30.304688 -80.609375 33.921875 -80.609375 C 37.523438 -80.609375 41.085938 -79.722656 44.609375 -77.953125 C 48.140625 -76.191406 51.257812 -73.613281 53.96875 -70.21875 C 56.675781 -66.820312 58.867188 -62.585938 60.546875 -57.515625 C 62.222656 -52.441406 63.0625 -46.597656 63.0625 -39.984375 C 63.0625 -33.273438 62.222656 -27.363281 60.546875 -22.25 C 58.867188 -17.132812 56.675781 -12.832031 53.96875 -9.34375 C 51.257812 -5.863281 48.140625 -3.21875 44.609375 -1.40625 C 41.085938 0.394531 37.523438 1.296875 33.921875 1.296875 C 30.304688 1.296875 26.757812 0.394531 23.28125 -1.40625 C 19.800781 -3.21875 16.679688 -5.863281 13.921875 -9.34375 C 11.171875 -12.832031 8.957031 -17.132812 7.28125 -22.25 C 5.601562 -27.363281 4.765625 -33.273438 4.765625 -39.984375 Z M 54.9375 -36.625 C 54.9375 -42.8125 54.25 -48.289062 52.875 -53.0625 C 51.5 -57.84375 49.710938 -61.84375 47.515625 -65.0625 C 45.328125 -68.289062 42.835938 -70.742188 40.046875 -72.421875 C 37.253906 -74.097656 34.394531 -74.9375 31.46875 -74.9375 C 28.539062 -74.9375 25.894531 -74.097656 23.53125 -72.421875 C 21.164062 -70.742188 19.164062 -68.523438 17.53125 -65.765625 C 15.90625 -63.015625 14.640625 -59.832031 13.734375 -56.21875 C 12.828125 -52.613281 12.375 -48.832031 12.375 -44.875 C 12.375 -40.144531 12.929688 -35.351562 14.046875 -30.5 C 15.171875 -25.644531 16.765625 -21.257812 18.828125 -17.34375 C 20.890625 -13.4375 23.359375 -10.234375 26.234375 -7.734375 C 29.117188 -5.242188 32.28125 -4 35.71875 -4 C 38.21875 -4 40.625 -4.707031 42.9375 -6.125 C 45.257812 -7.539062 47.300781 -9.625 49.0625 -12.375 C 50.832031 -15.132812 52.253906 -18.53125 53.328125 -22.5625 C 54.398438 -26.601562 54.9375 -31.289062 54.9375 -36.625 Z M 54.9375 -36.625 "></path></g></g></g><g fill="#000000" fill-opacity="1"><g transform="translate(200.554329, 108.921839)"><g><path d="M 4.765625 -39.984375 C 4.765625 -46.597656 5.601562 -52.441406 7.28125 -57.515625 C 8.957031 -62.585938 11.171875 -66.820312 13.921875 -70.21875 C 16.679688 -73.613281 19.800781 -76.191406 23.28125 -77.953125 C 26.757812 -79.722656 30.304688 -80.609375 33.921875 -80.609375 C 37.523438 -80.609375 41.085938 -79.722656 44.609375 -77.953125 C 48.140625 -76.191406 51.257812 -73.613281 53.96875 -70.21875 C 56.675781 -66.820312 58.867188 -62.585938 60.546875 -57.515625 C 62.222656 -52.441406 63.0625 -46.597656 63.0625 -39.984375 C 63.0625 -33.273438 62.222656 -27.363281 60.546875 -22.25 C 58.867188 -17.132812 56.675781 -12.832031 53.96875 -9.34375 C 51.257812 -5.863281 48.140625 -3.21875 44.609375 -1.40625 C 41.085938 0.394531 37.523438 1.296875 33.921875 1.296875 C 30.304688 1.296875 26.757812 0.394531 23.28125 -1.40625 C 19.800781 -3.21875 16.679688 -5.863281 13.921875 -9.34375 C 11.171875 -12.832031 8.957031 -17.132812 7.28125 -22.25 C 5.601562 -27.363281 4.765625 -33.273438 4.765625 -39.984375 Z M 54.9375 -36.625 C 54.9375 -42.8125 54.25 -48.289062 52.875 -53.0625 C 51.5 -57.84375 49.710938 -61.84375 47.515625 -65.0625 C 45.328125 -68.289062 42.835938 -70.742188 40.046875 -72.421875 C 37.253906 -74.097656 34.394531 -74.9375 31.46875 -74.9375 C 28.539062 -74.9375 25.894531 -74.097656 23.53125 -72.421875 C 21.164062 -70.742188 19.164062 -68.523438 17.53125 -65.765625 C 15.90625 -63.015625 14.640625 -59.832031 13.734375 -56.21875 C 12.828125 -52.613281 12.375 -48.832031 12.375 -44.875 C 12.375 -40.144531 12.929688 -35.351562 14.046875 -30.5 C 15.171875 -25.644531 16.765625 -21.257812 18.828125 -17.34375 C 20.890625 -13.4375 23.359375 -10.234375 26.234375 -7.734375 C 29.117188 -5.242188 32.28125 -4 35.71875 -4 C 38.21875 -4 40.625 -4.707031 42.9375 -6.125 C 45.257812 -7.539062 47.300781 -9.625 49.0625 -12.375 C 50.832031 -15.132812 52.253906 -18.53125 53.328125 -22.5625 C 54.398438 -26.601562 54.9375 -31.289062 54.9375 -36.625 Z M 54.9375 -36.625 "></path></g></g></g></g></g></svg> 