<?xml version="1.0" encoding="UTF-8"?> <svg xmlns="http://www.w3.org/2000/svg" xmlns:xlink="http://www.w3.org/1999/xlink" width="360" zoomAndPan="magnify" viewBox="0 0 270 359.999987" height="480" preserveAspectRatio="xMidYMid meet" version="1.0"><path stroke-linecap="butt" transform="matrix(0.739679, 0.123999, -0.123999, 0.739679, 19.381302, 27.029985)" fill="none" stroke-linejoin="miter" d="M 0.292786 12.949194 C 23.350332 -3.648654 76.081333 -3.647989 158.480652 12.952052 " stroke="#600202" stroke-width="1" stroke-opacity="1" stroke-miterlimit="4"></path><path stroke-linecap="butt" transform="matrix(0, -0.75, 0.75, 0, 113.041028, 168.735515)" fill="none" stroke-linejoin="miter" d="M 0.444228 35.138007 C 24.704647 -11.044288 48.959857 -11.044288 73.220275 35.138007 " stroke="#600202" stroke-width="1" stroke-opacity="1" stroke-miterlimit="4"></path><path stroke-linecap="butt" transform="matrix(0.0074475, -0.749963, 0.749963, 0.0074475, 112.909983, 283.42773)" fill="none" stroke-linejoin="miter" d="M 0.439655 34.570488 C 25.208503 -10.860001 49.975391 -10.855936 74.745424 34.572215 " stroke="#600202" stroke-width="1" stroke-opacity="1" stroke-miterlimit="4"></path><path stroke-linecap="butt" transform="matrix(0, -0.75, 0.75, 0, 139.213544, 227.966744)" fill="none" stroke-linejoin="miter" d="M 0.445243 0.230899 C 26.768161 50.381945 53.09108 50.381945 79.413999 0.230899 " stroke="#600202" stroke-width="1" stroke-opacity="1" stroke-miterlimit="4"></path><path stroke-linecap="butt" transform="matrix(-0.668386, -0.340235, 0.340235, -0.668386, 256.289721, 343.563225)" fill="none" stroke-linejoin="miter" d="M 0.102637 0.498202 C 43.058111 9.349839 101.681883 9.349059 175.980958 0.498142 " stroke="#600202" stroke-width="1" stroke-opacity="1" stroke-miterlimit="4"></path><path stroke-linecap="butt" transform="matrix(0.0570712, 0.747825, -0.747825, 0.0570712, 164.714903, 53.650899)" fill="none" stroke-linejoin="miter" d="M 0.450541 39.774689 C 26.108682 -12.591358 51.766463 -12.59206 77.429076 39.772981 " stroke="#600202" stroke-width="1" stroke-opacity="1" stroke-miterlimit="4"></path></svg> 