<?xml version="1.0" encoding="UTF-8"?> <svg xmlns="http://www.w3.org/2000/svg" xmlns:xlink="http://www.w3.org/1999/xlink" width="360" zoomAndPan="magnify" viewBox="0 0 270 359.999987" height="480" preserveAspectRatio="xMidYMid meet" version="1.0"><defs><g></g><clipPath id="2ee40f9c33"><rect x="0" width="234" y="0" height="68"></rect></clipPath></defs><g transform="matrix(1, 0, 0, 1, 18, 146)"><g clip-path="url(#2ee40f9c33)"><g fill="#000000" fill-opacity="1"><g transform="translate(27.376434, 23.418277)"><g><path d="M 4.875 -15.671875 C 3.789062 -15.671875 2.976562 -15.394531 2.4375 -14.84375 C 1.894531 -14.300781 1.503906 -13.363281 1.265625 -12.03125 C 1.265625 -12 1.21875 -11.984375 1.125 -11.984375 C 1.03125 -11.984375 0.984375 -12 0.984375 -12.03125 C 1.046875 -12.65625 1.117188 -13.46875 1.203125 -14.46875 C 1.296875 -15.46875 1.34375 -16.210938 1.34375 -16.703125 C 1.34375 -16.796875 1.390625 -16.84375 1.484375 -16.84375 C 1.578125 -16.84375 1.625 -16.796875 1.625 -16.703125 C 1.625 -16.328125 2.085938 -16.140625 3.015625 -16.140625 C 4.484375 -16.085938 6.21875 -16.0625 8.21875 -16.0625 C 9.226562 -16.0625 10.300781 -16.078125 11.4375 -16.109375 L 13.203125 -16.140625 C 13.816406 -16.140625 14.273438 -16.179688 14.578125 -16.265625 C 14.878906 -16.359375 15.070312 -16.53125 15.15625 -16.78125 C 15.175781 -16.851562 15.226562 -16.890625 15.3125 -16.890625 C 15.394531 -16.890625 15.4375 -16.851562 15.4375 -16.78125 C 15.394531 -16.289062 15.347656 -15.535156 15.296875 -14.515625 C 15.242188 -13.492188 15.21875 -12.664062 15.21875 -12.03125 C 15.21875 -12 15.164062 -11.984375 15.0625 -11.984375 C 14.957031 -11.984375 14.90625 -12 14.90625 -12.03125 C 14.851562 -13.375 14.578125 -14.316406 14.078125 -14.859375 C 13.578125 -15.398438 12.75 -15.671875 11.59375 -15.671875 C 10.820312 -15.671875 10.269531 -15.632812 9.9375 -15.5625 C 9.613281 -15.5 9.390625 -15.351562 9.265625 -15.125 C 9.148438 -14.90625 9.09375 -14.53125 9.09375 -14 L 9.09375 -2.09375 C 9.09375 -1.5625 9.148438 -1.171875 9.265625 -0.921875 C 9.390625 -0.679688 9.625 -0.519531 9.96875 -0.4375 C 10.3125 -0.351562 10.851562 -0.3125 11.59375 -0.3125 C 11.644531 -0.3125 11.671875 -0.257812 11.671875 -0.15625 C 11.671875 -0.0507812 11.644531 0 11.59375 0 C 11.03125 0 10.578125 -0.0078125 10.234375 -0.03125 L 8.21875 -0.046875 L 6.28125 -0.03125 C 5.9375 -0.0078125 5.460938 0 4.859375 0 C 4.816406 0 4.796875 -0.0507812 4.796875 -0.15625 C 4.796875 -0.257812 4.816406 -0.3125 4.859375 -0.3125 C 5.597656 -0.3125 6.140625 -0.351562 6.484375 -0.4375 C 6.828125 -0.519531 7.0625 -0.6875 7.1875 -0.9375 C 7.320312 -1.1875 7.390625 -1.570312 7.390625 -2.09375 L 7.390625 -14.046875 C 7.390625 -14.578125 7.328125 -14.953125 7.203125 -15.171875 C 7.085938 -15.390625 6.863281 -15.523438 6.53125 -15.578125 C 6.207031 -15.640625 5.65625 -15.671875 4.875 -15.671875 Z M 4.875 -15.671875 "></path></g></g></g><g fill="#000000" fill-opacity="1"><g transform="translate(41.634358, 23.418277)"><g><path d="M 5.96875 0.328125 C 4.96875 0.328125 4.082031 0.0820312 3.3125 -0.40625 C 2.550781 -0.894531 1.960938 -1.554688 1.546875 -2.390625 C 1.140625 -3.222656 0.9375 -4.128906 0.9375 -5.109375 C 0.9375 -6.234375 1.207031 -7.1875 1.75 -7.96875 C 2.289062 -8.75 2.984375 -9.332031 3.828125 -9.71875 C 4.679688 -10.113281 5.550781 -10.3125 6.4375 -10.3125 C 7.445312 -10.3125 8.332031 -10.0625 9.09375 -9.5625 C 9.851562 -9.0625 10.429688 -8.398438 10.828125 -7.578125 C 11.234375 -6.765625 11.4375 -5.898438 11.4375 -4.984375 C 11.4375 -3.921875 11.1875 -2.988281 10.6875 -2.1875 C 10.1875 -1.382812 9.519531 -0.765625 8.6875 -0.328125 C 7.851562 0.109375 6.945312 0.328125 5.96875 0.328125 Z M 6.71875 -0.15625 C 7.664062 -0.15625 8.394531 -0.488281 8.90625 -1.15625 C 9.425781 -1.832031 9.6875 -2.867188 9.6875 -4.265625 C 9.6875 -5.328125 9.507812 -6.28125 9.15625 -7.125 C 8.800781 -7.96875 8.3125 -8.625 7.6875 -9.09375 C 7.070312 -9.570312 6.367188 -9.8125 5.578125 -9.8125 C 4.648438 -9.8125 3.929688 -9.472656 3.421875 -8.796875 C 2.910156 -8.128906 2.65625 -7.171875 2.65625 -5.921875 C 2.65625 -4.867188 2.828125 -3.898438 3.171875 -3.015625 C 3.515625 -2.140625 3.992188 -1.441406 4.609375 -0.921875 C 5.234375 -0.410156 5.9375 -0.15625 6.71875 -0.15625 Z M 6.71875 -0.15625 "></path></g></g></g><g fill="#000000" fill-opacity="1"><g transform="translate(54.006812, 23.418277)"><g><path d="M 6.6875 -12.015625 C 6.101562 -12.015625 5.550781 -12.125 5.03125 -12.34375 C 4.519531 -12.570312 4.109375 -12.867188 3.796875 -13.234375 C 3.484375 -13.609375 3.328125 -13.992188 3.328125 -14.390625 C 3.328125 -14.890625 3.578125 -15.140625 4.078125 -15.140625 C 4.410156 -15.140625 4.632812 -15.039062 4.75 -14.84375 C 4.875 -14.65625 4.992188 -14.335938 5.109375 -13.890625 C 5.203125 -13.535156 5.285156 -13.257812 5.359375 -13.0625 C 5.429688 -12.875 5.570312 -12.707031 5.78125 -12.5625 C 5.988281 -12.414062 6.28125 -12.34375 6.65625 -12.34375 C 7.175781 -12.34375 7.546875 -12.476562 7.765625 -12.75 C 7.992188 -13.03125 8.160156 -13.410156 8.265625 -13.890625 C 8.367188 -14.304688 8.484375 -14.617188 8.609375 -14.828125 C 8.742188 -15.035156 8.960938 -15.140625 9.265625 -15.140625 C 9.785156 -15.140625 10.046875 -14.878906 10.046875 -14.359375 C 10.046875 -13.941406 9.882812 -13.550781 9.5625 -13.1875 C 9.25 -12.832031 8.832031 -12.546875 8.3125 -12.328125 C 7.800781 -12.117188 7.257812 -12.015625 6.6875 -12.015625 Z M 12.5 -0.3125 C 12.53125 -0.3125 12.546875 -0.257812 12.546875 -0.15625 C 12.546875 -0.0507812 12.53125 0 12.5 0 C 12.070312 0 11.738281 -0.0078125 11.5 -0.03125 L 10.171875 -0.046875 L 8.78125 -0.03125 C 8.519531 -0.0078125 8.1875 0 7.78125 0 C 7.726562 0 7.703125 -0.0507812 7.703125 -0.15625 C 7.703125 -0.257812 7.726562 -0.3125 7.78125 -0.3125 C 8.257812 -0.3125 8.609375 -0.351562 8.828125 -0.4375 C 9.054688 -0.519531 9.210938 -0.6875 9.296875 -0.9375 C 9.378906 -1.1875 9.421875 -1.570312 9.421875 -2.09375 L 9.421875 -8.109375 L 2.765625 0.1875 C 2.710938 0.238281 2.648438 0.265625 2.578125 0.265625 C 2.515625 0.265625 2.457031 0.25 2.40625 0.21875 C 2.351562 0.195312 2.328125 0.164062 2.328125 0.125 L 2.328125 -7.875 C 2.328125 -8.394531 2.285156 -8.78125 2.203125 -9.03125 C 2.128906 -9.28125 1.976562 -9.445312 1.75 -9.53125 C 1.53125 -9.613281 1.179688 -9.65625 0.703125 -9.65625 C 0.660156 -9.65625 0.640625 -9.707031 0.640625 -9.8125 C 0.640625 -9.914062 0.660156 -9.96875 0.703125 -9.96875 C 1.109375 -9.96875 1.425781 -9.957031 1.65625 -9.9375 L 3.015625 -9.921875 L 4.515625 -9.9375 C 4.753906 -9.957031 5.054688 -9.96875 5.421875 -9.96875 C 5.472656 -9.96875 5.5 -9.914062 5.5 -9.8125 C 5.5 -9.707031 5.472656 -9.65625 5.421875 -9.65625 C 4.941406 -9.65625 4.585938 -9.613281 4.359375 -9.53125 C 4.140625 -9.445312 3.984375 -9.28125 3.890625 -9.03125 C 3.804688 -8.78125 3.765625 -8.394531 3.765625 -7.875 L 3.765625 -1.859375 L 10.4375 -10.15625 C 10.488281 -10.207031 10.546875 -10.234375 10.609375 -10.234375 C 10.679688 -10.234375 10.742188 -10.21875 10.796875 -10.1875 C 10.847656 -10.164062 10.875 -10.132812 10.875 -10.09375 L 10.875 -2.09375 C 10.875 -1.570312 10.914062 -1.1875 11 -0.9375 C 11.082031 -0.6875 11.234375 -0.519531 11.453125 -0.4375 C 11.671875 -0.351562 12.019531 -0.3125 12.5 -0.3125 Z M 12.5 -0.3125 "></path></g></g></g><g fill="#000000" fill-opacity="1"><g transform="translate(67.205819, 23.418277)"><g><path d="M 8.546875 -9.96875 C 8.648438 -9.96875 8.707031 -9.953125 8.71875 -9.921875 C 8.738281 -9.898438 8.75 -9.835938 8.75 -9.734375 C 8.75 -9.390625 8.738281 -9.082031 8.71875 -8.8125 C 8.707031 -8.550781 8.691406 -8.328125 8.671875 -8.140625 L 8.625 -6.609375 C 8.625 -6.578125 8.578125 -6.5625 8.484375 -6.5625 C 8.390625 -6.5625 8.332031 -6.578125 8.3125 -6.609375 C 8.25 -7.710938 8.019531 -8.488281 7.625 -8.9375 C 7.226562 -9.382812 6.597656 -9.609375 5.734375 -9.609375 C 5.210938 -9.609375 4.828125 -9.554688 4.578125 -9.453125 C 4.328125 -9.347656 4.15625 -9.171875 4.0625 -8.921875 C 3.96875 -8.671875 3.921875 -8.304688 3.921875 -7.828125 L 3.921875 -2.09375 C 3.921875 -1.570312 3.957031 -1.1875 4.03125 -0.9375 C 4.113281 -0.6875 4.269531 -0.519531 4.5 -0.4375 C 4.738281 -0.351562 5.097656 -0.3125 5.578125 -0.3125 C 5.609375 -0.3125 5.625 -0.257812 5.625 -0.15625 C 5.625 -0.0507812 5.609375 0 5.578125 0 C 5.128906 0 4.773438 -0.0078125 4.515625 -0.03125 L 3.234375 -0.046875 L 1.859375 -0.03125 C 1.617188 -0.0078125 1.273438 0 0.828125 0 C 0.773438 0 0.75 -0.0507812 0.75 -0.15625 C 0.75 -0.257812 0.773438 -0.3125 0.828125 -0.3125 C 1.304688 -0.3125 1.660156 -0.351562 1.890625 -0.4375 C 2.128906 -0.519531 2.285156 -0.6875 2.359375 -0.9375 C 2.441406 -1.1875 2.484375 -1.570312 2.484375 -2.09375 L 2.484375 -7.875 C 2.484375 -8.394531 2.441406 -8.78125 2.359375 -9.03125 C 2.285156 -9.28125 2.132812 -9.445312 1.90625 -9.53125 C 1.6875 -9.613281 1.335938 -9.65625 0.859375 -9.65625 C 0.804688 -9.65625 0.78125 -9.707031 0.78125 -9.8125 C 0.78125 -9.914062 0.804688 -9.96875 0.859375 -9.96875 Z M 8.546875 -9.96875 "></path></g></g></g><g fill="#000000" fill-opacity="1"><g transform="translate(76.814492, 23.418277)"><g><path d="M 5.96875 0.328125 C 4.96875 0.328125 4.082031 0.0820312 3.3125 -0.40625 C 2.550781 -0.894531 1.960938 -1.554688 1.546875 -2.390625 C 1.140625 -3.222656 0.9375 -4.128906 0.9375 -5.109375 C 0.9375 -6.234375 1.207031 -7.1875 1.75 -7.96875 C 2.289062 -8.75 2.984375 -9.332031 3.828125 -9.71875 C 4.679688 -10.113281 5.550781 -10.3125 6.4375 -10.3125 C 7.445312 -10.3125 8.332031 -10.0625 9.09375 -9.5625 C 9.851562 -9.0625 10.429688 -8.398438 10.828125 -7.578125 C 11.234375 -6.765625 11.4375 -5.898438 11.4375 -4.984375 C 11.4375 -3.921875 11.1875 -2.988281 10.6875 -2.1875 C 10.1875 -1.382812 9.519531 -0.765625 8.6875 -0.328125 C 7.851562 0.109375 6.945312 0.328125 5.96875 0.328125 Z M 6.71875 -0.15625 C 7.664062 -0.15625 8.394531 -0.488281 8.90625 -1.15625 C 9.425781 -1.832031 9.6875 -2.867188 9.6875 -4.265625 C 9.6875 -5.328125 9.507812 -6.28125 9.15625 -7.125 C 8.800781 -7.96875 8.3125 -8.625 7.6875 -9.09375 C 7.070312 -9.570312 6.367188 -9.8125 5.578125 -9.8125 C 4.648438 -9.8125 3.929688 -9.472656 3.421875 -8.796875 C 2.910156 -8.128906 2.65625 -7.171875 2.65625 -5.921875 C 2.65625 -4.867188 2.828125 -3.898438 3.171875 -3.015625 C 3.515625 -2.140625 3.992188 -1.441406 4.609375 -0.921875 C 5.234375 -0.410156 5.9375 -0.15625 6.71875 -0.15625 Z M 6.71875 -0.15625 "></path></g></g></g><g fill="#000000" fill-opacity="1"><g transform="translate(89.186946, 23.418277)"><g></g></g></g><g fill="#000000" fill-opacity="1"><g transform="translate(95.231121, 23.418277)"><g><path d="M 11.875 -0.3125 C 11.914062 -0.3125 11.9375 -0.257812 11.9375 -0.15625 C 11.9375 -0.0507812 11.914062 0 11.875 0 L 9.015625 0 C 8.890625 0 8.804688 -0.03125 8.765625 -0.09375 C 8.722656 -0.15625 8.582031 -0.390625 8.34375 -0.796875 C 8.113281 -1.210938 7.796875 -1.773438 7.390625 -2.484375 C 6.953125 -3.179688 6.59375 -3.703125 6.3125 -4.046875 C 6.03125 -4.398438 5.738281 -4.640625 5.4375 -4.765625 C 5.132812 -4.890625 4.75 -4.953125 4.28125 -4.953125 L 3.875 -4.953125 L 3.875 -2.09375 C 3.875 -1.570312 3.910156 -1.1875 3.984375 -0.9375 C 4.066406 -0.6875 4.21875 -0.519531 4.4375 -0.4375 C 4.664062 -0.351562 5.019531 -0.3125 5.5 -0.3125 C 5.53125 -0.3125 5.546875 -0.257812 5.546875 -0.15625 C 5.546875 -0.0507812 5.53125 0 5.5 0 C 5.070312 0 4.726562 -0.0078125 4.46875 -0.03125 L 3.171875 -0.046875 L 1.78125 -0.03125 C 1.539062 -0.0078125 1.207031 0 0.78125 0 C 0.726562 0 0.703125 -0.0507812 0.703125 -0.15625 C 0.703125 -0.257812 0.726562 -0.3125 0.78125 -0.3125 C 1.257812 -0.3125 1.609375 -0.351562 1.828125 -0.4375 C 2.054688 -0.519531 2.207031 -0.6875 2.28125 -0.9375 C 2.363281 -1.1875 2.40625 -1.570312 2.40625 -2.09375 L 2.40625 -7.875 C 2.40625 -8.394531 2.363281 -8.78125 2.28125 -9.03125 C 2.207031 -9.28125 2.054688 -9.445312 1.828125 -9.53125 C 1.609375 -9.613281 1.265625 -9.65625 0.796875 -9.65625 C 0.742188 -9.65625 0.71875 -9.707031 0.71875 -9.8125 C 0.71875 -9.914062 0.742188 -9.96875 0.796875 -9.96875 C 1.210938 -9.96875 1.539062 -9.957031 1.78125 -9.9375 L 3.171875 -9.921875 L 4.671875 -9.9375 C 4.953125 -9.957031 5.320312 -9.96875 5.78125 -9.96875 C 5.832031 -9.96875 5.859375 -9.914062 5.859375 -9.8125 C 5.859375 -9.707031 5.832031 -9.65625 5.78125 -9.65625 C 5.226562 -9.65625 4.816406 -9.609375 4.546875 -9.515625 C 4.285156 -9.421875 4.109375 -9.242188 4.015625 -8.984375 C 3.921875 -8.722656 3.875 -8.335938 3.875 -7.828125 L 3.875 -5.375 C 4.082031 -5.375 4.34375 -5.390625 4.65625 -5.421875 L 5.46875 -5.453125 C 5.90625 -5.453125 6.335938 -5.863281 6.765625 -6.6875 C 6.816406 -6.789062 6.863281 -6.878906 6.90625 -6.953125 C 6.945312 -7.035156 6.988281 -7.113281 7.03125 -7.1875 C 7.613281 -8.320312 8.082031 -9.109375 8.4375 -9.546875 C 8.789062 -9.984375 9.238281 -10.203125 9.78125 -10.203125 C 10.164062 -10.203125 10.460938 -10.113281 10.671875 -9.9375 C 10.878906 -9.769531 10.984375 -9.554688 10.984375 -9.296875 C 10.984375 -9.023438 10.882812 -8.789062 10.6875 -8.59375 C 10.5 -8.40625 10.25 -8.3125 9.9375 -8.3125 C 9.75 -8.3125 9.550781 -8.367188 9.34375 -8.484375 C 9.144531 -8.609375 8.984375 -8.671875 8.859375 -8.671875 C 8.515625 -8.671875 7.945312 -7.96875 7.15625 -6.5625 C 6.875 -6.039062 6.609375 -5.648438 6.359375 -5.390625 C 6.859375 -5.328125 7.265625 -5.132812 7.578125 -4.8125 C 7.898438 -4.5 8.335938 -3.894531 8.890625 -3 L 9.25 -2.40625 C 9.59375 -1.851562 9.867188 -1.441406 10.078125 -1.171875 C 10.285156 -0.910156 10.523438 -0.703125 10.796875 -0.546875 C 11.066406 -0.398438 11.425781 -0.320312 11.875 -0.3125 Z M 11.875 -0.3125 "></path></g></g></g><g fill="#000000" fill-opacity="1"><g transform="translate(106.647851, 23.418277)"><g><path d="M 9.265625 -1.453125 C 9.316406 -1.453125 9.363281 -1.421875 9.40625 -1.359375 C 9.457031 -1.296875 9.460938 -1.238281 9.421875 -1.1875 C 8.285156 -0.1875 7.03125 0.3125 5.65625 0.3125 C 4.65625 0.3125 3.800781 0.0820312 3.09375 -0.375 C 2.394531 -0.84375 1.859375 -1.457031 1.484375 -2.21875 C 1.117188 -2.976562 0.9375 -3.789062 0.9375 -4.65625 C 0.9375 -5.664062 1.175781 -6.597656 1.65625 -7.453125 C 2.132812 -8.304688 2.789062 -8.976562 3.625 -9.46875 C 4.457031 -9.957031 5.375 -10.203125 6.375 -10.203125 C 7.34375 -10.203125 8.082031 -9.941406 8.59375 -9.421875 C 9.113281 -8.910156 9.375 -8.1875 9.375 -7.25 C 9.375 -7.007812 9.351562 -6.835938 9.3125 -6.734375 C 9.269531 -6.640625 9.195312 -6.59375 9.09375 -6.59375 L 2.6875 -6.5625 C 2.65625 -6.175781 2.640625 -5.863281 2.640625 -5.625 C 2.640625 -4.132812 2.988281 -2.921875 3.6875 -1.984375 C 4.394531 -1.054688 5.382812 -0.59375 6.65625 -0.59375 C 7.175781 -0.59375 7.617188 -0.660156 7.984375 -0.796875 C 8.359375 -0.929688 8.78125 -1.148438 9.25 -1.453125 Z M 5.53125 -9.6875 C 4.789062 -9.6875 4.175781 -9.441406 3.6875 -8.953125 C 3.207031 -8.460938 2.890625 -7.773438 2.734375 -6.890625 L 7.640625 -7 C 7.640625 -7.875 7.453125 -8.539062 7.078125 -9 C 6.703125 -9.457031 6.1875 -9.6875 5.53125 -9.6875 Z M 5.53125 -9.6875 "></path></g></g></g><g fill="#000000" fill-opacity="1"><g transform="translate(117.186396, 23.418277)"><g><path d="M 11.578125 -0.3125 C 11.660156 -0.3125 11.703125 -0.257812 11.703125 -0.15625 C 11.703125 -0.0507812 11.660156 0 11.578125 0 C 11.316406 0 10.910156 -0.015625 10.359375 -0.046875 C 9.804688 -0.0859375 9.394531 -0.109375 9.125 -0.109375 C 8.875 -0.109375 8.507812 -0.0859375 8.03125 -0.046875 C 7.550781 -0.015625 7.207031 0 7 0 C 6.925781 0 6.890625 -0.0507812 6.890625 -0.15625 C 6.890625 -0.257812 6.925781 -0.3125 7 -0.3125 C 7.320312 -0.3125 7.570312 -0.378906 7.75 -0.515625 C 7.9375 -0.648438 8.03125 -0.859375 8.03125 -1.140625 C 8.03125 -1.441406 7.9375 -1.785156 7.75 -2.171875 L 5.015625 -8 L 2.96875 -3.171875 C 2.65625 -2.453125 2.5 -1.867188 2.5 -1.421875 C 2.5 -0.679688 2.90625 -0.3125 3.71875 -0.3125 C 3.800781 -0.3125 3.84375 -0.257812 3.84375 -0.15625 C 3.84375 -0.0507812 3.800781 0 3.71875 0 C 3.53125 0 3.28125 -0.015625 2.96875 -0.046875 C 2.59375 -0.0859375 2.25 -0.109375 1.9375 -0.109375 C 1.59375 -0.109375 1.25 -0.0859375 0.90625 -0.046875 C 0.59375 -0.015625 0.316406 0 0.078125 0 C -0.00390625 0 -0.046875 -0.0507812 -0.046875 -0.15625 C -0.046875 -0.257812 -0.00390625 -0.3125 0.078125 -0.3125 C 0.390625 -0.3125 0.71875 -0.523438 1.0625 -0.953125 C 1.40625 -1.378906 1.84375 -2.195312 2.375 -3.40625 L 5.34375 -10.359375 C 5.375 -10.421875 5.425781 -10.453125 5.5 -10.453125 C 5.582031 -10.453125 5.632812 -10.421875 5.65625 -10.359375 L 8.859375 -3.53125 C 9.328125 -2.539062 9.679688 -1.835938 9.921875 -1.421875 C 10.160156 -1.003906 10.398438 -0.710938 10.640625 -0.546875 C 10.878906 -0.390625 11.191406 -0.3125 11.578125 -0.3125 Z M 11.578125 -0.3125 "></path></g></g></g><g fill="#000000" fill-opacity="1"><g transform="translate(127.750722, 23.418277)"><g><path d="M 11.125 -9.96875 C 11.164062 -9.96875 11.1875 -9.914062 11.1875 -9.8125 C 11.1875 -9.707031 11.164062 -9.65625 11.125 -9.65625 C 10.695312 -9.65625 10.328125 -9.515625 10.015625 -9.234375 C 9.710938 -8.953125 9.421875 -8.46875 9.140625 -7.78125 L 6.4375 -1 L 6.4375 5.015625 C 6.4375 5.523438 6.472656 5.898438 6.546875 6.140625 C 6.617188 6.390625 6.769531 6.5625 7 6.65625 C 7.238281 6.75 7.597656 6.796875 8.078125 6.796875 C 8.117188 6.796875 8.140625 6.847656 8.140625 6.953125 C 8.140625 7.054688 8.117188 7.109375 8.078125 7.109375 C 7.671875 7.109375 7.347656 7.097656 7.109375 7.078125 L 5.6875 7.046875 L 4.265625 7.078125 C 4.023438 7.097656 3.695312 7.109375 3.28125 7.109375 C 3.25 7.109375 3.234375 7.054688 3.234375 6.953125 C 3.234375 6.847656 3.25 6.796875 3.28125 6.796875 C 3.75 6.796875 4.09375 6.75 4.3125 6.65625 C 4.539062 6.5625 4.695312 6.390625 4.78125 6.140625 C 4.863281 5.898438 4.90625 5.523438 4.90625 5.015625 L 4.90625 -0.703125 L 1.734375 -7.828125 C 1.398438 -8.585938 1.113281 -9.082031 0.875 -9.3125 C 0.632812 -9.539062 0.34375 -9.65625 0 -9.65625 C -0.0507812 -9.65625 -0.078125 -9.707031 -0.078125 -9.8125 C -0.078125 -9.914062 -0.0507812 -9.96875 0 -9.96875 C 0.34375 -9.96875 0.609375 -9.957031 0.796875 -9.9375 L 1.78125 -9.921875 L 3.46875 -9.9375 C 3.71875 -9.957031 4.0625 -9.96875 4.5 -9.96875 C 4.550781 -9.96875 4.578125 -9.914062 4.578125 -9.8125 C 4.578125 -9.707031 4.550781 -9.65625 4.5 -9.65625 C 3.457031 -9.65625 2.9375 -9.453125 2.9375 -9.046875 C 2.9375 -8.921875 2.972656 -8.789062 3.046875 -8.65625 L 6.25 -1.546875 L 8.625 -7.90625 C 8.726562 -8.195312 8.78125 -8.445312 8.78125 -8.65625 C 8.78125 -9 8.617188 -9.25 8.296875 -9.40625 C 7.984375 -9.570312 7.472656 -9.65625 6.765625 -9.65625 C 6.734375 -9.65625 6.71875 -9.707031 6.71875 -9.8125 C 6.71875 -9.914062 6.734375 -9.96875 6.765625 -9.96875 C 7.234375 -9.96875 7.585938 -9.957031 7.828125 -9.9375 L 9.375 -9.921875 L 10.3125 -9.9375 C 10.476562 -9.957031 10.75 -9.96875 11.125 -9.96875 Z M 11.125 -9.96875 "></path></g></g></g><g fill="#000000" fill-opacity="1"><g transform="translate(139.322493, 23.418277)"><g><path d="M 11.125 -9.96875 C 11.164062 -9.96875 11.1875 -9.914062 11.1875 -9.8125 C 11.1875 -9.707031 11.164062 -9.65625 11.125 -9.65625 C 10.695312 -9.65625 10.328125 -9.515625 10.015625 -9.234375 C 9.710938 -8.953125 9.421875 -8.46875 9.140625 -7.78125 L 6.4375 -1 L 6.4375 5.015625 C 6.4375 5.523438 6.472656 5.898438 6.546875 6.140625 C 6.617188 6.390625 6.769531 6.5625 7 6.65625 C 7.238281 6.75 7.597656 6.796875 8.078125 6.796875 C 8.117188 6.796875 8.140625 6.847656 8.140625 6.953125 C 8.140625 7.054688 8.117188 7.109375 8.078125 7.109375 C 7.671875 7.109375 7.347656 7.097656 7.109375 7.078125 L 5.6875 7.046875 L 4.265625 7.078125 C 4.023438 7.097656 3.695312 7.109375 3.28125 7.109375 C 3.25 7.109375 3.234375 7.054688 3.234375 6.953125 C 3.234375 6.847656 3.25 6.796875 3.28125 6.796875 C 3.75 6.796875 4.09375 6.75 4.3125 6.65625 C 4.539062 6.5625 4.695312 6.390625 4.78125 6.140625 C 4.863281 5.898438 4.90625 5.523438 4.90625 5.015625 L 4.90625 -0.703125 L 1.734375 -7.828125 C 1.398438 -8.585938 1.113281 -9.082031 0.875 -9.3125 C 0.632812 -9.539062 0.34375 -9.65625 0 -9.65625 C -0.0507812 -9.65625 -0.078125 -9.707031 -0.078125 -9.8125 C -0.078125 -9.914062 -0.0507812 -9.96875 0 -9.96875 C 0.34375 -9.96875 0.609375 -9.957031 0.796875 -9.9375 L 1.78125 -9.921875 L 3.46875 -9.9375 C 3.71875 -9.957031 4.0625 -9.96875 4.5 -9.96875 C 4.550781 -9.96875 4.578125 -9.914062 4.578125 -9.8125 C 4.578125 -9.707031 4.550781 -9.65625 4.5 -9.65625 C 3.457031 -9.65625 2.9375 -9.453125 2.9375 -9.046875 C 2.9375 -8.921875 2.972656 -8.789062 3.046875 -8.65625 L 6.25 -1.546875 L 8.625 -7.90625 C 8.726562 -8.195312 8.78125 -8.445312 8.78125 -8.65625 C 8.78125 -9 8.617188 -9.25 8.296875 -9.40625 C 7.984375 -9.570312 7.472656 -9.65625 6.765625 -9.65625 C 6.734375 -9.65625 6.71875 -9.707031 6.71875 -9.8125 C 6.71875 -9.914062 6.734375 -9.96875 6.765625 -9.96875 C 7.234375 -9.96875 7.585938 -9.957031 7.828125 -9.9375 L 9.375 -9.921875 L 10.3125 -9.9375 C 10.476562 -9.957031 10.75 -9.96875 11.125 -9.96875 Z M 11.125 -9.96875 "></path></g></g></g><g fill="#000000" fill-opacity="1"><g transform="translate(150.532621, 23.418277)"><g><path d="M 12.390625 -0.3125 C 12.535156 -0.3125 12.613281 -0.296875 12.625 -0.265625 C 12.644531 -0.242188 12.65625 -0.15625 12.65625 0 L 12.625 0.5625 C 12.539062 1.394531 12.5 2.335938 12.5 3.390625 C 12.5 3.472656 12.453125 3.515625 12.359375 3.515625 C 12.265625 3.515625 12.21875 3.472656 12.21875 3.390625 C 12.21875 2.148438 11.945312 1.273438 11.40625 0.765625 C 10.875 0.253906 10.132812 0 9.1875 0 L 7.78125 0 C 7.726562 0 7.703125 -0.0507812 7.703125 -0.15625 C 7.703125 -0.257812 7.726562 -0.3125 7.78125 -0.3125 C 8.257812 -0.3125 8.609375 -0.351562 8.828125 -0.4375 C 9.054688 -0.519531 9.210938 -0.6875 9.296875 -0.9375 C 9.378906 -1.1875 9.421875 -1.570312 9.421875 -2.09375 L 9.421875 -4.71875 L 3.921875 -4.71875 L 3.921875 -2.09375 C 3.921875 -1.570312 3.957031 -1.1875 4.03125 -0.9375 C 4.113281 -0.6875 4.269531 -0.519531 4.5 -0.4375 C 4.738281 -0.351562 5.097656 -0.3125 5.578125 -0.3125 C 5.609375 -0.3125 5.625 -0.257812 5.625 -0.15625 C 5.625 -0.0507812 5.609375 0 5.578125 0 C 5.128906 0 4.773438 -0.0078125 4.515625 -0.03125 L 3.234375 -0.046875 L 1.859375 -0.03125 C 1.617188 -0.0078125 1.273438 0 0.828125 0 C 0.773438 0 0.75 -0.0507812 0.75 -0.15625 C 0.75 -0.257812 0.773438 -0.3125 0.828125 -0.3125 C 1.304688 -0.3125 1.660156 -0.351562 1.890625 -0.4375 C 2.128906 -0.519531 2.285156 -0.6875 2.359375 -0.9375 C 2.441406 -1.1875 2.484375 -1.570312 2.484375 -2.09375 L 2.484375 -7.875 C 2.484375 -8.394531 2.441406 -8.78125 2.359375 -9.03125 C 2.285156 -9.28125 2.132812 -9.445312 1.90625 -9.53125 C 1.6875 -9.613281 1.335938 -9.65625 0.859375 -9.65625 C 0.804688 -9.65625 0.78125 -9.707031 0.78125 -9.8125 C 0.78125 -9.914062 0.804688 -9.96875 0.859375 -9.96875 C 1.285156 -9.96875 1.617188 -9.957031 1.859375 -9.9375 L 3.234375 -9.921875 L 4.546875 -9.9375 C 4.804688 -9.957031 5.148438 -9.96875 5.578125 -9.96875 C 5.609375 -9.96875 5.625 -9.914062 5.625 -9.8125 C 5.625 -9.707031 5.609375 -9.65625 5.578125 -9.65625 C 5.097656 -9.65625 4.738281 -9.601562 4.5 -9.5 C 4.269531 -9.394531 4.113281 -9.21875 4.03125 -8.96875 C 3.957031 -8.71875 3.921875 -8.335938 3.921875 -7.828125 L 3.921875 -5.25 L 9.421875 -5.25 L 9.421875 -7.875 C 9.421875 -8.394531 9.378906 -8.78125 9.296875 -9.03125 C 9.222656 -9.28125 9.070312 -9.445312 8.84375 -9.53125 C 8.625 -9.613281 8.273438 -9.65625 7.796875 -9.65625 C 7.742188 -9.65625 7.71875 -9.707031 7.71875 -9.8125 C 7.71875 -9.914062 7.742188 -9.96875 7.796875 -9.96875 C 8.234375 -9.96875 8.570312 -9.957031 8.8125 -9.9375 L 10.171875 -9.921875 L 11.5 -9.9375 C 11.75 -9.957031 12.09375 -9.96875 12.53125 -9.96875 C 12.5625 -9.96875 12.578125 -9.914062 12.578125 -9.8125 C 12.578125 -9.707031 12.5625 -9.65625 12.53125 -9.65625 C 12.039062 -9.65625 11.679688 -9.601562 11.453125 -9.5 C 11.222656 -9.394531 11.066406 -9.21875 10.984375 -8.96875 C 10.910156 -8.71875 10.875 -8.335938 10.875 -7.828125 L 10.875 -2.09375 C 10.875 -1.40625 10.890625 -0.960938 10.921875 -0.765625 C 10.960938 -0.578125 11.070312 -0.453125 11.25 -0.390625 C 11.425781 -0.335938 11.804688 -0.3125 12.390625 -0.3125 Z M 12.390625 -0.3125 "></path></g></g></g><g fill="#000000" fill-opacity="1"><g transform="translate(163.860781, 23.418277)"><g><path d="M 11.125 -9.96875 C 11.164062 -9.96875 11.1875 -9.914062 11.1875 -9.8125 C 11.1875 -9.707031 11.164062 -9.65625 11.125 -9.65625 C 10.695312 -9.65625 10.328125 -9.515625 10.015625 -9.234375 C 9.710938 -8.953125 9.421875 -8.46875 9.140625 -7.78125 L 6.4375 -1 L 6.4375 5.015625 C 6.4375 5.523438 6.472656 5.898438 6.546875 6.140625 C 6.617188 6.390625 6.769531 6.5625 7 6.65625 C 7.238281 6.75 7.597656 6.796875 8.078125 6.796875 C 8.117188 6.796875 8.140625 6.847656 8.140625 6.953125 C 8.140625 7.054688 8.117188 7.109375 8.078125 7.109375 C 7.671875 7.109375 7.347656 7.097656 7.109375 7.078125 L 5.6875 7.046875 L 4.265625 7.078125 C 4.023438 7.097656 3.695312 7.109375 3.28125 7.109375 C 3.25 7.109375 3.234375 7.054688 3.234375 6.953125 C 3.234375 6.847656 3.25 6.796875 3.28125 6.796875 C 3.75 6.796875 4.09375 6.75 4.3125 6.65625 C 4.539062 6.5625 4.695312 6.390625 4.78125 6.140625 C 4.863281 5.898438 4.90625 5.523438 4.90625 5.015625 L 4.90625 -0.703125 L 1.734375 -7.828125 C 1.398438 -8.585938 1.113281 -9.082031 0.875 -9.3125 C 0.632812 -9.539062 0.34375 -9.65625 0 -9.65625 C -0.0507812 -9.65625 -0.078125 -9.707031 -0.078125 -9.8125 C -0.078125 -9.914062 -0.0507812 -9.96875 0 -9.96875 C 0.34375 -9.96875 0.609375 -9.957031 0.796875 -9.9375 L 1.78125 -9.921875 L 3.46875 -9.9375 C 3.71875 -9.957031 4.0625 -9.96875 4.5 -9.96875 C 4.550781 -9.96875 4.578125 -9.914062 4.578125 -9.8125 C 4.578125 -9.707031 4.550781 -9.65625 4.5 -9.65625 C 3.457031 -9.65625 2.9375 -9.453125 2.9375 -9.046875 C 2.9375 -8.921875 2.972656 -8.789062 3.046875 -8.65625 L 6.25 -1.546875 L 8.625 -7.90625 C 8.726562 -8.195312 8.78125 -8.445312 8.78125 -8.65625 C 8.78125 -9 8.617188 -9.25 8.296875 -9.40625 C 7.984375 -9.570312 7.472656 -9.65625 6.765625 -9.65625 C 6.734375 -9.65625 6.71875 -9.707031 6.71875 -9.8125 C 6.71875 -9.914062 6.734375 -9.96875 6.765625 -9.96875 C 7.234375 -9.96875 7.585938 -9.957031 7.828125 -9.9375 L 9.375 -9.921875 L 10.3125 -9.9375 C 10.476562 -9.957031 10.75 -9.96875 11.125 -9.96875 Z M 11.125 -9.96875 "></path></g></g></g><g fill="#000000" fill-opacity="1"><g transform="translate(174.760934, 23.418277)"><g><path d="M 5.703125 -5.578125 C 6.617188 -5.492188 7.328125 -5.179688 7.828125 -4.640625 C 8.335938 -4.097656 8.59375 -3.457031 8.59375 -2.71875 C 8.59375 -1.78125 8.207031 -1.039062 7.4375 -0.5 C 6.664062 0.0390625 5.691406 0.3125 4.515625 0.3125 C 3.960938 0.3125 3.425781 0.25 2.90625 0.125 C 2.382812 0.0078125 1.929688 -0.140625 1.546875 -0.328125 C 1.429688 -0.378906 1.351562 -0.429688 1.3125 -0.484375 C 1.28125 -0.535156 1.253906 -0.632812 1.234375 -0.78125 L 1.03125 -2.921875 C 1.03125 -2.972656 1.078125 -3.003906 1.171875 -3.015625 C 1.265625 -3.035156 1.320312 -3.007812 1.34375 -2.9375 C 1.582031 -2.039062 1.992188 -1.335938 2.578125 -0.828125 C 3.171875 -0.328125 3.863281 -0.078125 4.65625 -0.078125 C 5.394531 -0.078125 5.941406 -0.289062 6.296875 -0.71875 C 6.660156 -1.15625 6.84375 -1.742188 6.84375 -2.484375 C 6.84375 -3.359375 6.585938 -4.046875 6.078125 -4.546875 C 5.578125 -5.046875 4.773438 -5.296875 3.671875 -5.296875 C 3.578125 -5.296875 3.53125 -5.34375 3.53125 -5.4375 C 3.53125 -5.53125 3.578125 -5.578125 3.671875 -5.578125 C 4.671875 -5.578125 5.390625 -5.75 5.828125 -6.09375 C 6.265625 -6.4375 6.484375 -6.925781 6.484375 -7.5625 C 6.484375 -9.039062 5.820312 -9.78125 4.5 -9.78125 C 3.789062 -9.78125 3.210938 -9.566406 2.765625 -9.140625 C 2.316406 -8.722656 1.9375 -8.09375 1.625 -7.25 C 1.625 -7.238281 1.59375 -7.234375 1.53125 -7.234375 C 1.375 -7.234375 1.300781 -7.257812 1.3125 -7.3125 L 1.96875 -10.515625 C 1.96875 -10.546875 2 -10.5625 2.0625 -10.5625 C 2.113281 -10.5625 2.164062 -10.546875 2.21875 -10.515625 C 2.269531 -10.492188 2.285156 -10.472656 2.265625 -10.453125 C 2.253906 -10.410156 2.25 -10.335938 2.25 -10.234375 C 2.25 -9.929688 2.382812 -9.78125 2.65625 -9.78125 C 2.832031 -9.78125 3.066406 -9.84375 3.359375 -9.96875 C 3.753906 -10.09375 4.078125 -10.179688 4.328125 -10.234375 C 4.578125 -10.285156 4.882812 -10.3125 5.25 -10.3125 C 6.15625 -10.3125 6.859375 -10.097656 7.359375 -9.671875 C 7.859375 -9.253906 8.109375 -8.734375 8.109375 -8.109375 C 8.109375 -7.554688 7.890625 -7.050781 7.453125 -6.59375 C 7.023438 -6.144531 6.441406 -5.804688 5.703125 -5.578125 Z M 5.703125 -5.578125 "></path></g></g></g><g fill="#000000" fill-opacity="1"><g transform="translate(184.292122, 23.418277)"><g><path d="M 11.71875 -0.625 C 11.84375 -0.625 11.914062 -0.609375 11.9375 -0.578125 C 11.96875 -0.554688 11.984375 -0.46875 11.984375 -0.3125 C 11.984375 -0.207031 11.96875 0.0664062 11.9375 0.515625 C 11.863281 1.273438 11.828125 2.222656 11.828125 3.359375 C 11.828125 3.441406 11.78125 3.484375 11.6875 3.484375 C 11.59375 3.484375 11.546875 3.441406 11.546875 3.359375 C 11.546875 1.117188 10.5625 0 8.59375 0 L 3.359375 0 C 1.566406 0 0.671875 1.117188 0.671875 3.359375 C 0.671875 3.441406 0.617188 3.484375 0.515625 3.484375 C 0.410156 3.484375 0.359375 3.441406 0.359375 3.359375 C 0.359375 2.222656 0.328125 1.273438 0.265625 0.515625 C 0.222656 0.0976562 0.203125 -0.175781 0.203125 -0.3125 C 0.203125 -0.46875 0.210938 -0.554688 0.234375 -0.578125 C 0.265625 -0.609375 0.34375 -0.625 0.46875 -0.625 L 1.8125 -0.625 L 5.890625 -10.359375 C 5.921875 -10.421875 5.96875 -10.453125 6.03125 -10.453125 C 6.101562 -10.453125 6.160156 -10.421875 6.203125 -10.359375 L 10.453125 -0.625 Z M 2.5 -0.625 L 8.75 -0.625 L 5.546875 -7.953125 Z M 2.5 -0.625 "></path></g></g></g><g fill="#000000" fill-opacity="1"><g transform="translate(195.398877, 23.418277)"><g><path d="M 11.125 -9.96875 C 11.164062 -9.96875 11.1875 -9.914062 11.1875 -9.8125 C 11.1875 -9.707031 11.164062 -9.65625 11.125 -9.65625 C 10.695312 -9.65625 10.328125 -9.515625 10.015625 -9.234375 C 9.710938 -8.953125 9.421875 -8.46875 9.140625 -7.78125 L 6.4375 -1 L 6.4375 5.015625 C 6.4375 5.523438 6.472656 5.898438 6.546875 6.140625 C 6.617188 6.390625 6.769531 6.5625 7 6.65625 C 7.238281 6.75 7.597656 6.796875 8.078125 6.796875 C 8.117188 6.796875 8.140625 6.847656 8.140625 6.953125 C 8.140625 7.054688 8.117188 7.109375 8.078125 7.109375 C 7.671875 7.109375 7.347656 7.097656 7.109375 7.078125 L 5.6875 7.046875 L 4.265625 7.078125 C 4.023438 7.097656 3.695312 7.109375 3.28125 7.109375 C 3.25 7.109375 3.234375 7.054688 3.234375 6.953125 C 3.234375 6.847656 3.25 6.796875 3.28125 6.796875 C 3.75 6.796875 4.09375 6.75 4.3125 6.65625 C 4.539062 6.5625 4.695312 6.390625 4.78125 6.140625 C 4.863281 5.898438 4.90625 5.523438 4.90625 5.015625 L 4.90625 -0.703125 L 1.734375 -7.828125 C 1.398438 -8.585938 1.113281 -9.082031 0.875 -9.3125 C 0.632812 -9.539062 0.34375 -9.65625 0 -9.65625 C -0.0507812 -9.65625 -0.078125 -9.707031 -0.078125 -9.8125 C -0.078125 -9.914062 -0.0507812 -9.96875 0 -9.96875 C 0.34375 -9.96875 0.609375 -9.957031 0.796875 -9.9375 L 1.78125 -9.921875 L 3.46875 -9.9375 C 3.71875 -9.957031 4.0625 -9.96875 4.5 -9.96875 C 4.550781 -9.96875 4.578125 -9.914062 4.578125 -9.8125 C 4.578125 -9.707031 4.550781 -9.65625 4.5 -9.65625 C 3.457031 -9.65625 2.9375 -9.453125 2.9375 -9.046875 C 2.9375 -8.921875 2.972656 -8.789062 3.046875 -8.65625 L 6.25 -1.546875 L 8.625 -7.90625 C 8.726562 -8.195312 8.78125 -8.445312 8.78125 -8.65625 C 8.78125 -9 8.617188 -9.25 8.296875 -9.40625 C 7.984375 -9.570312 7.472656 -9.65625 6.765625 -9.65625 C 6.734375 -9.65625 6.71875 -9.707031 6.71875 -9.8125 C 6.71875 -9.914062 6.734375 -9.96875 6.765625 -9.96875 C 7.234375 -9.96875 7.585938 -9.957031 7.828125 -9.9375 L 9.375 -9.921875 L 10.3125 -9.9375 C 10.476562 -9.957031 10.75 -9.96875 11.125 -9.96875 Z M 11.125 -9.96875 "></path></g></g></g><g fill="#000000" fill-opacity="1"><g transform="translate(1.124241, 58.690643)"><g><path d="M 6.59375 -5.859375 C 8.863281 -5.859375 10 -4.960938 10 -3.171875 C 10 -2.222656 9.660156 -1.445312 8.984375 -0.84375 C 8.316406 -0.25 7.472656 0.046875 6.453125 0.046875 C 6.191406 0.046875 5.703125 0.03125 4.984375 0 C 4.160156 -0.03125 3.578125 -0.046875 3.234375 -0.046875 L 1.859375 -0.03125 C 1.617188 -0.0078125 1.273438 0 0.828125 0 C 0.773438 0 0.75 -0.0507812 0.75 -0.15625 C 0.75 -0.257812 0.773438 -0.3125 0.828125 -0.3125 C 1.304688 -0.3125 1.660156 -0.351562 1.890625 -0.4375 C 2.128906 -0.519531 2.285156 -0.6875 2.359375 -0.9375 C 2.441406 -1.1875 2.484375 -1.570312 2.484375 -2.09375 L 2.484375 -7.875 C 2.484375 -8.394531 2.441406 -8.78125 2.359375 -9.03125 C 2.285156 -9.28125 2.132812 -9.445312 1.90625 -9.53125 C 1.6875 -9.613281 1.335938 -9.65625 0.859375 -9.65625 C 0.804688 -9.65625 0.78125 -9.707031 0.78125 -9.8125 C 0.78125 -9.914062 0.804688 -9.96875 0.859375 -9.96875 C 1.285156 -9.96875 1.617188 -9.957031 1.859375 -9.9375 L 3.234375 -9.921875 L 4.71875 -9.9375 C 5 -9.957031 5.378906 -9.96875 5.859375 -9.96875 C 5.910156 -9.96875 5.9375 -9.914062 5.9375 -9.8125 C 5.9375 -9.707031 5.910156 -9.65625 5.859375 -9.65625 C 5.296875 -9.65625 4.878906 -9.601562 4.609375 -9.5 C 4.335938 -9.394531 4.15625 -9.21875 4.0625 -8.96875 C 3.96875 -8.71875 3.921875 -8.335938 3.921875 -7.828125 L 3.921875 -5.46875 C 4.679688 -5.726562 5.570312 -5.859375 6.59375 -5.859375 Z M 15.578125 -0.3125 C 15.609375 -0.3125 15.625 -0.257812 15.625 -0.15625 C 15.625 -0.0507812 15.609375 0 15.578125 0 C 15.140625 0 14.796875 -0.0078125 14.546875 -0.03125 L 13.25 -0.046875 L 11.859375 -0.03125 C 11.617188 -0.0078125 11.28125 0 10.84375 0 C 10.789062 0 10.765625 -0.0507812 10.765625 -0.15625 C 10.765625 -0.257812 10.789062 -0.3125 10.84375 -0.3125 C 11.332031 -0.3125 11.6875 -0.351562 11.90625 -0.4375 C 12.132812 -0.519531 12.285156 -0.6875 12.359375 -0.9375 C 12.429688 -1.1875 12.46875 -1.570312 12.46875 -2.09375 L 12.46875 -7.875 C 12.46875 -8.394531 12.429688 -8.78125 12.359375 -9.03125 C 12.285156 -9.28125 12.132812 -9.445312 11.90625 -9.53125 C 11.6875 -9.613281 11.34375 -9.65625 10.875 -9.65625 C 10.820312 -9.65625 10.796875 -9.707031 10.796875 -9.8125 C 10.796875 -9.914062 10.820312 -9.96875 10.875 -9.96875 C 11.289062 -9.96875 11.617188 -9.957031 11.859375 -9.9375 L 13.25 -9.921875 L 14.5625 -9.9375 C 14.820312 -9.957031 15.160156 -9.96875 15.578125 -9.96875 C 15.609375 -9.96875 15.625 -9.914062 15.625 -9.8125 C 15.625 -9.707031 15.609375 -9.65625 15.578125 -9.65625 C 15.085938 -9.65625 14.726562 -9.601562 14.5 -9.5 C 14.28125 -9.394531 14.132812 -9.21875 14.0625 -8.96875 C 13.988281 -8.71875 13.953125 -8.335938 13.953125 -7.828125 L 13.953125 -2.09375 C 13.953125 -1.570312 13.988281 -1.1875 14.0625 -0.9375 C 14.132812 -0.6875 14.28125 -0.519531 14.5 -0.4375 C 14.726562 -0.351562 15.085938 -0.3125 15.578125 -0.3125 Z M 5.96875 -0.328125 C 7.570312 -0.328125 8.375 -1.078125 8.375 -2.578125 C 8.375 -3.460938 8.148438 -4.148438 7.703125 -4.640625 C 7.265625 -5.140625 6.59375 -5.390625 5.6875 -5.390625 C 5.0625 -5.390625 4.472656 -5.296875 3.921875 -5.109375 L 3.921875 -2.09375 C 3.921875 -1.4375 4.054688 -0.976562 4.328125 -0.71875 C 4.609375 -0.457031 5.15625 -0.328125 5.96875 -0.328125 Z M 5.96875 -0.328125 "></path></g></g></g><g fill="#000000" fill-opacity="1"><g transform="translate(17.526139, 58.690643)"><g><path d="M 8.109375 -10.3125 C 8.816406 -10.3125 9.472656 -10.117188 10.078125 -9.734375 C 10.679688 -9.359375 11.160156 -8.804688 11.515625 -8.078125 C 11.878906 -7.359375 12.0625 -6.515625 12.0625 -5.546875 C 12.0625 -4.253906 11.769531 -3.164062 11.1875 -2.28125 C 10.601562 -1.394531 9.882812 -0.738281 9.03125 -0.3125 C 8.175781 0.113281 7.335938 0.328125 6.515625 0.328125 C 5.960938 0.328125 5.476562 0.28125 5.0625 0.1875 C 4.644531 0.09375 4.210938 -0.078125 3.765625 -0.328125 L 3.765625 5.015625 C 3.765625 5.523438 3.828125 5.898438 3.953125 6.140625 C 4.085938 6.390625 4.335938 6.5625 4.703125 6.65625 C 5.066406 6.75 5.617188 6.796875 6.359375 6.796875 C 6.410156 6.796875 6.4375 6.847656 6.4375 6.953125 C 6.4375 7.054688 6.410156 7.109375 6.359375 7.109375 C 5.753906 7.109375 5.28125 7.097656 4.9375 7.078125 L 3.046875 7.046875 L 1.53125 7.078125 C 1.269531 7.097656 0.90625 7.109375 0.4375 7.109375 C 0.382812 7.109375 0.359375 7.054688 0.359375 6.953125 C 0.359375 6.847656 0.382812 6.796875 0.4375 6.796875 C 0.988281 6.796875 1.394531 6.75 1.65625 6.65625 C 1.914062 6.5625 2.09375 6.390625 2.1875 6.140625 C 2.28125 5.898438 2.328125 5.523438 2.328125 5.015625 L 2.328125 -7.875 C 2.328125 -8.375 2.257812 -8.75 2.125 -9 C 2 -9.25 1.785156 -9.421875 1.484375 -9.515625 C 1.179688 -9.609375 0.738281 -9.65625 0.15625 -9.65625 C 0.101562 -9.65625 0.078125 -9.707031 0.078125 -9.8125 C 0.078125 -9.914062 0.101562 -9.96875 0.15625 -9.96875 L 3.28125 -9.96875 C 3.488281 -9.96875 3.617188 -9.925781 3.671875 -9.84375 C 3.734375 -9.757812 3.765625 -9.578125 3.765625 -9.296875 L 3.765625 -8.078125 C 4.503906 -8.835938 5.226562 -9.398438 5.9375 -9.765625 C 6.644531 -10.128906 7.367188 -10.3125 8.109375 -10.3125 Z M 7.28125 -0.203125 C 8.195312 -0.203125 8.945312 -0.609375 9.53125 -1.421875 C 10.113281 -2.234375 10.40625 -3.34375 10.40625 -4.75 C 10.40625 -6.195312 10.085938 -7.320312 9.453125 -8.125 C 8.816406 -8.925781 8 -9.328125 7 -9.328125 C 6.394531 -9.328125 5.832031 -9.179688 5.3125 -8.890625 C 4.800781 -8.597656 4.285156 -8.175781 3.765625 -7.625 L 3.765625 -1.859375 C 4.234375 -1.328125 4.738281 -0.914062 5.28125 -0.625 C 5.820312 -0.34375 6.488281 -0.203125 7.28125 -0.203125 Z M 7.28125 -0.203125 "></path></g></g></g><g fill="#000000" fill-opacity="1"><g transform="translate(30.570176, 58.690643)"><g><path d="M 10.71875 -1.390625 C 10.789062 -1.390625 10.832031 -1.347656 10.84375 -1.265625 C 10.863281 -1.191406 10.835938 -1.140625 10.765625 -1.109375 L 8.109375 0.15625 C 8.035156 0.1875 7.96875 0.203125 7.90625 0.203125 C 7.675781 0.203125 7.472656 0.0507812 7.296875 -0.25 C 7.128906 -0.550781 7.019531 -0.957031 6.96875 -1.46875 L 5.625 -0.59375 C 5.195312 -0.320312 4.816406 -0.125 4.484375 0 C 4.160156 0.125 3.820312 0.1875 3.46875 0.1875 C 2.820312 0.1875 2.320312 0.0195312 1.96875 -0.3125 C 1.625 -0.65625 1.453125 -1.082031 1.453125 -1.59375 C 1.453125 -2.113281 1.65625 -2.5625 2.0625 -2.9375 C 2.476562 -3.320312 3.160156 -3.6875 4.109375 -4.03125 L 6.953125 -5.09375 L 6.953125 -6.84375 C 6.953125 -8.769531 6.410156 -9.734375 5.328125 -9.734375 C 4.734375 -9.734375 4.285156 -9.539062 3.984375 -9.15625 C 3.679688 -8.769531 3.484375 -8.328125 3.390625 -7.828125 C 3.335938 -7.515625 3.238281 -7.257812 3.09375 -7.0625 C 2.957031 -6.863281 2.726562 -6.765625 2.40625 -6.765625 C 2.125 -6.765625 1.910156 -6.84375 1.765625 -7 C 1.617188 -7.15625 1.546875 -7.335938 1.546875 -7.546875 C 1.546875 -7.953125 1.8125 -8.363281 2.34375 -8.78125 C 2.882812 -9.195312 3.523438 -9.539062 4.265625 -9.8125 C 5.003906 -10.09375 5.664062 -10.234375 6.25 -10.234375 C 6.957031 -10.234375 7.488281 -10.007812 7.84375 -9.5625 C 8.207031 -9.113281 8.390625 -8.46875 8.390625 -7.625 L 8.390625 -2.796875 C 8.390625 -2.191406 8.46875 -1.75 8.625 -1.46875 C 8.78125 -1.195312 9.039062 -1.0625 9.40625 -1.0625 C 9.726562 -1.0625 10.148438 -1.171875 10.671875 -1.390625 Z M 6.953125 -1.828125 L 6.953125 -4.71875 L 4.546875 -3.796875 C 4.066406 -3.609375 3.71875 -3.390625 3.5 -3.140625 C 3.28125 -2.890625 3.171875 -2.59375 3.171875 -2.25 C 3.171875 -1.832031 3.304688 -1.484375 3.578125 -1.203125 C 3.847656 -0.921875 4.195312 -0.78125 4.625 -0.78125 C 4.96875 -0.78125 5.378906 -0.914062 5.859375 -1.1875 Z M 6.953125 -1.828125 "></path></g></g></g><g fill="#000000" fill-opacity="1"><g transform="translate(41.392844, 58.690643)"><g><path d="M 5.96875 0.3125 C 4.84375 0.3125 3.898438 0.0664062 3.140625 -0.421875 C 2.390625 -0.910156 1.832031 -1.539062 1.46875 -2.3125 C 1.113281 -3.09375 0.9375 -3.914062 0.9375 -4.78125 C 0.9375 -5.882812 1.207031 -6.84375 1.75 -7.65625 C 2.300781 -8.476562 3.007812 -9.109375 3.875 -9.546875 C 4.75 -9.984375 5.644531 -10.203125 6.5625 -10.203125 C 7.320312 -10.203125 8.015625 -10.050781 8.640625 -9.75 C 9.265625 -9.445312 9.578125 -9.070312 9.578125 -8.625 C 9.578125 -8.40625 9.492188 -8.210938 9.328125 -8.046875 C 9.171875 -7.878906 8.953125 -7.796875 8.671875 -7.796875 C 8.210938 -7.796875 7.835938 -8.082031 7.546875 -8.65625 C 7.316406 -9 7.070312 -9.253906 6.8125 -9.421875 C 6.5625 -9.597656 6.191406 -9.6875 5.703125 -9.6875 C 4.742188 -9.6875 3.992188 -9.3125 3.453125 -8.5625 C 2.910156 -7.8125 2.640625 -6.804688 2.640625 -5.546875 C 2.640625 -4.109375 3 -2.921875 3.71875 -1.984375 C 4.4375 -1.054688 5.519531 -0.59375 6.96875 -0.59375 C 8.019531 -0.59375 8.898438 -0.878906 9.609375 -1.453125 L 9.640625 -1.453125 C 9.691406 -1.453125 9.738281 -1.425781 9.78125 -1.375 C 9.820312 -1.320312 9.820312 -1.273438 9.78125 -1.234375 C 9.1875 -0.703125 8.582031 -0.3125 7.96875 -0.0625 C 7.351562 0.1875 6.6875 0.3125 5.96875 0.3125 Z M 5.96875 0.3125 "></path></g></g></g><g fill="#000000" fill-opacity="1"><g transform="translate(52.008874, 58.690643)"><g><path d="M 3.15625 0 C 3.113281 0 3.09375 -0.0507812 3.09375 -0.15625 C 3.09375 -0.257812 3.113281 -0.3125 3.15625 -0.3125 C 3.632812 -0.3125 3.988281 -0.351562 4.21875 -0.4375 C 4.457031 -0.519531 4.613281 -0.6875 4.6875 -0.9375 C 4.757812 -1.1875 4.796875 -1.570312 4.796875 -2.09375 L 4.796875 -7.828125 C 4.796875 -8.535156 4.71875 -9.003906 4.5625 -9.234375 C 4.414062 -9.460938 4.082031 -9.578125 3.5625 -9.578125 C 2.789062 -9.578125 2.222656 -9.34375 1.859375 -8.875 C 1.492188 -8.414062 1.296875 -7.660156 1.265625 -6.609375 C 1.265625 -6.578125 1.21875 -6.5625 1.125 -6.5625 C 1.03125 -6.5625 0.984375 -6.578125 0.984375 -6.609375 L 0.9375 -8.15625 C 0.914062 -8.351562 0.894531 -8.582031 0.875 -8.84375 C 0.863281 -9.113281 0.859375 -9.421875 0.859375 -9.765625 C 0.859375 -9.867188 0.863281 -9.929688 0.875 -9.953125 C 0.894531 -9.984375 0.957031 -10 1.0625 -10 C 1.414062 -10 1.734375 -9.988281 2.015625 -9.96875 L 5.46875 -9.9375 L 9.015625 -9.96875 C 9.304688 -9.988281 9.632812 -10 10 -10 C 10.113281 -10 10.179688 -9.984375 10.203125 -9.953125 C 10.222656 -9.929688 10.234375 -9.867188 10.234375 -9.765625 C 10.140625 -8.046875 10.09375 -6.992188 10.09375 -6.609375 C 10.09375 -6.578125 10.046875 -6.5625 9.953125 -6.5625 C 9.859375 -6.5625 9.800781 -6.578125 9.78125 -6.609375 C 9.75 -7.660156 9.550781 -8.414062 9.1875 -8.875 C 8.832031 -9.34375 8.273438 -9.578125 7.515625 -9.578125 C 6.992188 -9.578125 6.65625 -9.460938 6.5 -9.234375 C 6.351562 -9.003906 6.28125 -8.535156 6.28125 -7.828125 L 6.28125 -2.09375 C 6.28125 -1.570312 6.316406 -1.1875 6.390625 -0.9375 C 6.472656 -0.6875 6.625 -0.519531 6.84375 -0.4375 C 7.070312 -0.351562 7.425781 -0.3125 7.90625 -0.3125 C 7.957031 -0.3125 7.984375 -0.257812 7.984375 -0.15625 C 7.984375 -0.0507812 7.957031 0 7.90625 0 C 7.46875 0 7.128906 -0.0078125 6.890625 -0.03125 L 5.546875 -0.046875 L 4.234375 -0.03125 C 3.972656 -0.0078125 3.613281 0 3.15625 0 Z M 3.15625 0 "></path></g></g></g><g fill="#000000" fill-opacity="1"><g transform="translate(63.089848, 58.690643)"><g><path d="M 5.96875 0.328125 C 4.96875 0.328125 4.082031 0.0820312 3.3125 -0.40625 C 2.550781 -0.894531 1.960938 -1.554688 1.546875 -2.390625 C 1.140625 -3.222656 0.9375 -4.128906 0.9375 -5.109375 C 0.9375 -6.234375 1.207031 -7.1875 1.75 -7.96875 C 2.289062 -8.75 2.984375 -9.332031 3.828125 -9.71875 C 4.679688 -10.113281 5.550781 -10.3125 6.4375 -10.3125 C 7.445312 -10.3125 8.332031 -10.0625 9.09375 -9.5625 C 9.851562 -9.0625 10.429688 -8.398438 10.828125 -7.578125 C 11.234375 -6.765625 11.4375 -5.898438 11.4375 -4.984375 C 11.4375 -3.921875 11.1875 -2.988281 10.6875 -2.1875 C 10.1875 -1.382812 9.519531 -0.765625 8.6875 -0.328125 C 7.851562 0.109375 6.945312 0.328125 5.96875 0.328125 Z M 6.71875 -0.15625 C 7.664062 -0.15625 8.394531 -0.488281 8.90625 -1.15625 C 9.425781 -1.832031 9.6875 -2.867188 9.6875 -4.265625 C 9.6875 -5.328125 9.507812 -6.28125 9.15625 -7.125 C 8.800781 -7.96875 8.3125 -8.625 7.6875 -9.09375 C 7.070312 -9.570312 6.367188 -9.8125 5.578125 -9.8125 C 4.648438 -9.8125 3.929688 -9.472656 3.421875 -8.796875 C 2.910156 -8.128906 2.65625 -7.171875 2.65625 -5.921875 C 2.65625 -4.867188 2.828125 -3.898438 3.171875 -3.015625 C 3.515625 -2.140625 3.992188 -1.441406 4.609375 -0.921875 C 5.234375 -0.410156 5.9375 -0.15625 6.71875 -0.15625 Z M 6.71875 -0.15625 "></path></g></g></g><g fill="#000000" fill-opacity="1"><g transform="translate(75.462302, 58.690643)"><g><path d="M 5.96875 0.328125 C 4.96875 0.328125 4.082031 0.0820312 3.3125 -0.40625 C 2.550781 -0.894531 1.960938 -1.554688 1.546875 -2.390625 C 1.140625 -3.222656 0.9375 -4.128906 0.9375 -5.109375 C 0.9375 -6.234375 1.207031 -7.1875 1.75 -7.96875 C 2.289062 -8.75 2.984375 -9.332031 3.828125 -9.71875 C 4.679688 -10.113281 5.550781 -10.3125 6.4375 -10.3125 C 7.445312 -10.3125 8.332031 -10.0625 9.09375 -9.5625 C 9.851562 -9.0625 10.429688 -8.398438 10.828125 -7.578125 C 11.234375 -6.765625 11.4375 -5.898438 11.4375 -4.984375 C 11.4375 -3.921875 11.1875 -2.988281 10.6875 -2.1875 C 10.1875 -1.382812 9.519531 -0.765625 8.6875 -0.328125 C 7.851562 0.109375 6.945312 0.328125 5.96875 0.328125 Z M 6.71875 -0.15625 C 7.664062 -0.15625 8.394531 -0.488281 8.90625 -1.15625 C 9.425781 -1.832031 9.6875 -2.867188 9.6875 -4.265625 C 9.6875 -5.328125 9.507812 -6.28125 9.15625 -7.125 C 8.800781 -7.96875 8.3125 -8.625 7.6875 -9.09375 C 7.070312 -9.570312 6.367188 -9.8125 5.578125 -9.8125 C 4.648438 -9.8125 3.929688 -9.472656 3.421875 -8.796875 C 2.910156 -8.128906 2.65625 -7.171875 2.65625 -5.921875 C 2.65625 -4.867188 2.828125 -3.898438 3.171875 -3.015625 C 3.515625 -2.140625 3.992188 -1.441406 4.609375 -0.921875 C 5.234375 -0.410156 5.9375 -0.15625 6.71875 -0.15625 Z M 6.71875 -0.15625 "></path></g></g></g><g fill="#000000" fill-opacity="1"><g transform="translate(87.834756, 58.690643)"><g><path d="M 12.53125 -0.3125 C 12.5625 -0.3125 12.578125 -0.257812 12.578125 -0.15625 C 12.578125 -0.0507812 12.5625 0 12.53125 0 C 12.082031 0 11.726562 -0.0078125 11.46875 -0.03125 L 10.171875 -0.046875 L 8.78125 -0.03125 C 8.539062 -0.0078125 8.207031 0 7.78125 0 C 7.726562 0 7.703125 -0.0507812 7.703125 -0.15625 C 7.703125 -0.257812 7.726562 -0.3125 7.78125 -0.3125 C 8.257812 -0.3125 8.609375 -0.351562 8.828125 -0.4375 C 9.054688 -0.519531 9.210938 -0.6875 9.296875 -0.9375 C 9.378906 -1.1875 9.421875 -1.570312 9.421875 -2.09375 L 9.421875 -4.71875 L 3.921875 -4.71875 L 3.921875 -2.09375 C 3.921875 -1.570312 3.957031 -1.1875 4.03125 -0.9375 C 4.113281 -0.6875 4.269531 -0.519531 4.5 -0.4375 C 4.738281 -0.351562 5.097656 -0.3125 5.578125 -0.3125 C 5.609375 -0.3125 5.625 -0.257812 5.625 -0.15625 C 5.625 -0.0507812 5.609375 0 5.578125 0 C 5.128906 0 4.773438 -0.0078125 4.515625 -0.03125 L 3.234375 -0.046875 L 1.859375 -0.03125 C 1.617188 -0.0078125 1.273438 0 0.828125 0 C 0.773438 0 0.75 -0.0507812 0.75 -0.15625 C 0.75 -0.257812 0.773438 -0.3125 0.828125 -0.3125 C 1.304688 -0.3125 1.660156 -0.351562 1.890625 -0.4375 C 2.128906 -0.519531 2.285156 -0.6875 2.359375 -0.9375 C 2.441406 -1.1875 2.484375 -1.570312 2.484375 -2.09375 L 2.484375 -7.875 C 2.484375 -8.394531 2.441406 -8.78125 2.359375 -9.03125 C 2.285156 -9.28125 2.132812 -9.445312 1.90625 -9.53125 C 1.6875 -9.613281 1.335938 -9.65625 0.859375 -9.65625 C 0.804688 -9.65625 0.78125 -9.707031 0.78125 -9.8125 C 0.78125 -9.914062 0.804688 -9.96875 0.859375 -9.96875 C 1.285156 -9.96875 1.617188 -9.957031 1.859375 -9.9375 L 3.234375 -9.921875 L 4.546875 -9.9375 C 4.804688 -9.957031 5.148438 -9.96875 5.578125 -9.96875 C 5.609375 -9.96875 5.625 -9.914062 5.625 -9.8125 C 5.625 -9.707031 5.609375 -9.65625 5.578125 -9.65625 C 5.097656 -9.65625 4.738281 -9.601562 4.5 -9.5 C 4.269531 -9.394531 4.113281 -9.21875 4.03125 -8.96875 C 3.957031 -8.71875 3.921875 -8.335938 3.921875 -7.828125 L 3.921875 -5.25 L 9.421875 -5.25 L 9.421875 -7.875 C 9.421875 -8.394531 9.378906 -8.78125 9.296875 -9.03125 C 9.222656 -9.28125 9.070312 -9.445312 8.84375 -9.53125 C 8.625 -9.613281 8.273438 -9.65625 7.796875 -9.65625 C 7.742188 -9.65625 7.71875 -9.707031 7.71875 -9.8125 C 7.71875 -9.914062 7.742188 -9.96875 7.796875 -9.96875 C 8.234375 -9.96875 8.570312 -9.957031 8.8125 -9.9375 L 10.171875 -9.921875 L 11.5 -9.9375 C 11.75 -9.957031 12.09375 -9.96875 12.53125 -9.96875 C 12.5625 -9.96875 12.578125 -9.914062 12.578125 -9.8125 C 12.578125 -9.707031 12.5625 -9.65625 12.53125 -9.65625 C 12.039062 -9.65625 11.679688 -9.601562 11.453125 -9.5 C 11.222656 -9.394531 11.066406 -9.21875 10.984375 -8.96875 C 10.910156 -8.71875 10.875 -8.335938 10.875 -7.828125 L 10.875 -2.09375 C 10.875 -1.570312 10.910156 -1.1875 10.984375 -0.9375 C 11.066406 -0.6875 11.222656 -0.519531 11.453125 -0.4375 C 11.679688 -0.351562 12.039062 -0.3125 12.53125 -0.3125 Z M 12.53125 -0.3125 "></path></g></g></g><g fill="#000000" fill-opacity="1"><g transform="translate(101.162916, 58.690643)"><g><path d="M 11.125 -9.96875 C 11.175781 -9.96875 11.203125 -9.914062 11.203125 -9.8125 C 11.203125 -9.707031 11.175781 -9.65625 11.125 -9.65625 C 10.695312 -9.65625 10.328125 -9.503906 10.015625 -9.203125 C 9.710938 -8.898438 9.421875 -8.390625 9.140625 -7.671875 L 4.953125 3.09375 C 4.503906 4.226562 4.171875 5.296875 3.953125 6.296875 C 3.867188 6.660156 3.800781 6.882812 3.75 6.96875 C 3.695312 7.0625 3.566406 7.109375 3.359375 7.109375 L 0 7.109375 C -0.03125 7.109375 -0.046875 7.054688 -0.046875 6.953125 C -0.046875 6.847656 -0.03125 6.796875 0 6.796875 C 1 6.753906 1.851562 6.46875 2.5625 5.9375 C 3.28125 5.40625 3.941406 4.40625 4.546875 2.9375 L 5.703125 0.15625 L 1.78125 -7.828125 C 1.382812 -8.585938 1.082031 -9.082031 0.875 -9.3125 C 0.664062 -9.539062 0.398438 -9.65625 0.078125 -9.65625 C 0.046875 -9.65625 0.03125 -9.707031 0.03125 -9.8125 C 0.03125 -9.914062 0.046875 -9.96875 0.078125 -9.96875 L 0.953125 -9.9375 C 1.160156 -9.925781 1.445312 -9.921875 1.8125 -9.921875 L 3.46875 -9.9375 C 3.707031 -9.957031 4.039062 -9.96875 4.46875 -9.96875 C 4.5 -9.96875 4.515625 -9.914062 4.515625 -9.8125 C 4.515625 -9.707031 4.5 -9.65625 4.46875 -9.65625 C 3.46875 -9.65625 2.96875 -9.457031 2.96875 -9.0625 C 2.96875 -8.957031 3.007812 -8.820312 3.09375 -8.65625 L 6.484375 -1.734375 L 8.578125 -7.59375 C 8.710938 -8.007812 8.78125 -8.335938 8.78125 -8.578125 C 8.78125 -8.972656 8.625 -9.25 8.3125 -9.40625 C 8.007812 -9.570312 7.503906 -9.65625 6.796875 -9.65625 C 6.753906 -9.65625 6.734375 -9.707031 6.734375 -9.8125 C 6.734375 -9.914062 6.753906 -9.96875 6.796875 -9.96875 C 7.253906 -9.96875 7.609375 -9.957031 7.859375 -9.9375 L 9.40625 -9.921875 L 10.328125 -9.9375 C 10.503906 -9.957031 10.769531 -9.96875 11.125 -9.96875 Z M 11.125 -9.96875 "></path></g></g></g><g fill="#000000" fill-opacity="1"><g transform="translate(112.398861, 58.690643)"><g></g></g></g><g fill="#000000" fill-opacity="1"><g transform="translate(118.443035, 58.690643)"><g><path d="M 5.96875 0.3125 C 4.84375 0.3125 3.898438 0.0664062 3.140625 -0.421875 C 2.390625 -0.910156 1.832031 -1.539062 1.46875 -2.3125 C 1.113281 -3.09375 0.9375 -3.914062 0.9375 -4.78125 C 0.9375 -5.882812 1.207031 -6.84375 1.75 -7.65625 C 2.300781 -8.476562 3.007812 -9.109375 3.875 -9.546875 C 4.75 -9.984375 5.644531 -10.203125 6.5625 -10.203125 C 7.320312 -10.203125 8.015625 -10.050781 8.640625 -9.75 C 9.265625 -9.445312 9.578125 -9.070312 9.578125 -8.625 C 9.578125 -8.40625 9.492188 -8.210938 9.328125 -8.046875 C 9.171875 -7.878906 8.953125 -7.796875 8.671875 -7.796875 C 8.210938 -7.796875 7.835938 -8.082031 7.546875 -8.65625 C 7.316406 -9 7.070312 -9.253906 6.8125 -9.421875 C 6.5625 -9.597656 6.191406 -9.6875 5.703125 -9.6875 C 4.742188 -9.6875 3.992188 -9.3125 3.453125 -8.5625 C 2.910156 -7.8125 2.640625 -6.804688 2.640625 -5.546875 C 2.640625 -4.109375 3 -2.921875 3.71875 -1.984375 C 4.4375 -1.054688 5.519531 -0.59375 6.96875 -0.59375 C 8.019531 -0.59375 8.898438 -0.878906 9.609375 -1.453125 L 9.640625 -1.453125 C 9.691406 -1.453125 9.738281 -1.425781 9.78125 -1.375 C 9.820312 -1.320312 9.820312 -1.273438 9.78125 -1.234375 C 9.1875 -0.703125 8.582031 -0.3125 7.96875 -0.0625 C 7.351562 0.1875 6.6875 0.3125 5.96875 0.3125 Z M 5.96875 0.3125 "></path></g></g></g><g fill="#000000" fill-opacity="1"><g transform="translate(129.059065, 58.690643)"><g><path d="M 11.125 -9.96875 C 11.175781 -9.96875 11.203125 -9.914062 11.203125 -9.8125 C 11.203125 -9.707031 11.175781 -9.65625 11.125 -9.65625 C 10.695312 -9.65625 10.328125 -9.503906 10.015625 -9.203125 C 9.710938 -8.898438 9.421875 -8.390625 9.140625 -7.671875 L 4.953125 3.09375 C 4.503906 4.226562 4.171875 5.296875 3.953125 6.296875 C 3.867188 6.660156 3.800781 6.882812 3.75 6.96875 C 3.695312 7.0625 3.566406 7.109375 3.359375 7.109375 L 0 7.109375 C -0.03125 7.109375 -0.046875 7.054688 -0.046875 6.953125 C -0.046875 6.847656 -0.03125 6.796875 0 6.796875 C 1 6.753906 1.851562 6.46875 2.5625 5.9375 C 3.28125 5.40625 3.941406 4.40625 4.546875 2.9375 L 5.703125 0.15625 L 1.78125 -7.828125 C 1.382812 -8.585938 1.082031 -9.082031 0.875 -9.3125 C 0.664062 -9.539062 0.398438 -9.65625 0.078125 -9.65625 C 0.046875 -9.65625 0.03125 -9.707031 0.03125 -9.8125 C 0.03125 -9.914062 0.046875 -9.96875 0.078125 -9.96875 L 0.953125 -9.9375 C 1.160156 -9.925781 1.445312 -9.921875 1.8125 -9.921875 L 3.46875 -9.9375 C 3.707031 -9.957031 4.039062 -9.96875 4.46875 -9.96875 C 4.5 -9.96875 4.515625 -9.914062 4.515625 -9.8125 C 4.515625 -9.707031 4.5 -9.65625 4.46875 -9.65625 C 3.46875 -9.65625 2.96875 -9.457031 2.96875 -9.0625 C 2.96875 -8.957031 3.007812 -8.820312 3.09375 -8.65625 L 6.484375 -1.734375 L 8.578125 -7.59375 C 8.710938 -8.007812 8.78125 -8.335938 8.78125 -8.578125 C 8.78125 -8.972656 8.625 -9.25 8.3125 -9.40625 C 8.007812 -9.570312 7.503906 -9.65625 6.796875 -9.65625 C 6.753906 -9.65625 6.734375 -9.707031 6.734375 -9.8125 C 6.734375 -9.914062 6.753906 -9.96875 6.796875 -9.96875 C 7.253906 -9.96875 7.609375 -9.957031 7.859375 -9.9375 L 9.40625 -9.921875 L 10.328125 -9.9375 C 10.503906 -9.957031 10.769531 -9.96875 11.125 -9.96875 Z M 11.125 -9.96875 "></path></g></g></g><g fill="#000000" fill-opacity="1"><g transform="translate(140.295009, 58.690643)"><g><path d="M 8.109375 -10.3125 C 8.816406 -10.3125 9.472656 -10.117188 10.078125 -9.734375 C 10.679688 -9.359375 11.160156 -8.804688 11.515625 -8.078125 C 11.878906 -7.359375 12.0625 -6.515625 12.0625 -5.546875 C 12.0625 -4.253906 11.769531 -3.164062 11.1875 -2.28125 C 10.601562 -1.394531 9.882812 -0.738281 9.03125 -0.3125 C 8.175781 0.113281 7.335938 0.328125 6.515625 0.328125 C 5.960938 0.328125 5.476562 0.28125 5.0625 0.1875 C 4.644531 0.09375 4.210938 -0.078125 3.765625 -0.328125 L 3.765625 5.015625 C 3.765625 5.523438 3.828125 5.898438 3.953125 6.140625 C 4.085938 6.390625 4.335938 6.5625 4.703125 6.65625 C 5.066406 6.75 5.617188 6.796875 6.359375 6.796875 C 6.410156 6.796875 6.4375 6.847656 6.4375 6.953125 C 6.4375 7.054688 6.410156 7.109375 6.359375 7.109375 C 5.753906 7.109375 5.28125 7.097656 4.9375 7.078125 L 3.046875 7.046875 L 1.53125 7.078125 C 1.269531 7.097656 0.90625 7.109375 0.4375 7.109375 C 0.382812 7.109375 0.359375 7.054688 0.359375 6.953125 C 0.359375 6.847656 0.382812 6.796875 0.4375 6.796875 C 0.988281 6.796875 1.394531 6.75 1.65625 6.65625 C 1.914062 6.5625 2.09375 6.390625 2.1875 6.140625 C 2.28125 5.898438 2.328125 5.523438 2.328125 5.015625 L 2.328125 -7.875 C 2.328125 -8.375 2.257812 -8.75 2.125 -9 C 2 -9.25 1.785156 -9.421875 1.484375 -9.515625 C 1.179688 -9.609375 0.738281 -9.65625 0.15625 -9.65625 C 0.101562 -9.65625 0.078125 -9.707031 0.078125 -9.8125 C 0.078125 -9.914062 0.101562 -9.96875 0.15625 -9.96875 L 3.28125 -9.96875 C 3.488281 -9.96875 3.617188 -9.925781 3.671875 -9.84375 C 3.734375 -9.757812 3.765625 -9.578125 3.765625 -9.296875 L 3.765625 -8.078125 C 4.503906 -8.835938 5.226562 -9.398438 5.9375 -9.765625 C 6.644531 -10.128906 7.367188 -10.3125 8.109375 -10.3125 Z M 7.28125 -0.203125 C 8.195312 -0.203125 8.945312 -0.609375 9.53125 -1.421875 C 10.113281 -2.234375 10.40625 -3.34375 10.40625 -4.75 C 10.40625 -6.195312 10.085938 -7.320312 9.453125 -8.125 C 8.816406 -8.925781 8 -9.328125 7 -9.328125 C 6.394531 -9.328125 5.832031 -9.179688 5.3125 -8.890625 C 4.800781 -8.597656 4.285156 -8.175781 3.765625 -7.625 L 3.765625 -1.859375 C 4.234375 -1.328125 4.738281 -0.914062 5.28125 -0.625 C 5.820312 -0.34375 6.488281 -0.203125 7.28125 -0.203125 Z M 7.28125 -0.203125 "></path></g></g></g><g fill="#000000" fill-opacity="1"><g transform="translate(153.339046, 58.690643)"><g><path d="M 10.71875 -1.390625 C 10.789062 -1.390625 10.832031 -1.347656 10.84375 -1.265625 C 10.863281 -1.191406 10.835938 -1.140625 10.765625 -1.109375 L 8.109375 0.15625 C 8.035156 0.1875 7.96875 0.203125 7.90625 0.203125 C 7.675781 0.203125 7.472656 0.0507812 7.296875 -0.25 C 7.128906 -0.550781 7.019531 -0.957031 6.96875 -1.46875 L 5.625 -0.59375 C 5.195312 -0.320312 4.816406 -0.125 4.484375 0 C 4.160156 0.125 3.820312 0.1875 3.46875 0.1875 C 2.820312 0.1875 2.320312 0.0195312 1.96875 -0.3125 C 1.625 -0.65625 1.453125 -1.082031 1.453125 -1.59375 C 1.453125 -2.113281 1.65625 -2.5625 2.0625 -2.9375 C 2.476562 -3.320312 3.160156 -3.6875 4.109375 -4.03125 L 6.953125 -5.09375 L 6.953125 -6.84375 C 6.953125 -8.769531 6.410156 -9.734375 5.328125 -9.734375 C 4.734375 -9.734375 4.285156 -9.539062 3.984375 -9.15625 C 3.679688 -8.769531 3.484375 -8.328125 3.390625 -7.828125 C 3.335938 -7.515625 3.238281 -7.257812 3.09375 -7.0625 C 2.957031 -6.863281 2.726562 -6.765625 2.40625 -6.765625 C 2.125 -6.765625 1.910156 -6.84375 1.765625 -7 C 1.617188 -7.15625 1.546875 -7.335938 1.546875 -7.546875 C 1.546875 -7.953125 1.8125 -8.363281 2.34375 -8.78125 C 2.882812 -9.195312 3.523438 -9.539062 4.265625 -9.8125 C 5.003906 -10.09375 5.664062 -10.234375 6.25 -10.234375 C 6.957031 -10.234375 7.488281 -10.007812 7.84375 -9.5625 C 8.207031 -9.113281 8.390625 -8.46875 8.390625 -7.625 L 8.390625 -2.796875 C 8.390625 -2.191406 8.46875 -1.75 8.625 -1.46875 C 8.78125 -1.195312 9.039062 -1.0625 9.40625 -1.0625 C 9.726562 -1.0625 10.148438 -1.171875 10.671875 -1.390625 Z M 6.953125 -1.828125 L 6.953125 -4.71875 L 4.546875 -3.796875 C 4.066406 -3.609375 3.71875 -3.390625 3.5 -3.140625 C 3.28125 -2.890625 3.171875 -2.59375 3.171875 -2.25 C 3.171875 -1.832031 3.304688 -1.484375 3.578125 -1.203125 C 3.847656 -0.921875 4.195312 -0.78125 4.625 -0.78125 C 4.96875 -0.78125 5.378906 -0.914062 5.859375 -1.1875 Z M 6.953125 -1.828125 "></path></g></g></g><g fill="#000000" fill-opacity="1"><g transform="translate(164.161714, 58.690643)"><g><path d="M 12.53125 -0.3125 C 12.5625 -0.3125 12.578125 -0.257812 12.578125 -0.15625 C 12.578125 -0.0507812 12.5625 0 12.53125 0 C 12.082031 0 11.726562 -0.0078125 11.46875 -0.03125 L 10.171875 -0.046875 L 8.78125 -0.03125 C 8.539062 -0.0078125 8.207031 0 7.78125 0 C 7.726562 0 7.703125 -0.0507812 7.703125 -0.15625 C 7.703125 -0.257812 7.726562 -0.3125 7.78125 -0.3125 C 8.257812 -0.3125 8.609375 -0.351562 8.828125 -0.4375 C 9.054688 -0.519531 9.210938 -0.6875 9.296875 -0.9375 C 9.378906 -1.1875 9.421875 -1.570312 9.421875 -2.09375 L 9.421875 -4.71875 L 3.921875 -4.71875 L 3.921875 -2.09375 C 3.921875 -1.570312 3.957031 -1.1875 4.03125 -0.9375 C 4.113281 -0.6875 4.269531 -0.519531 4.5 -0.4375 C 4.738281 -0.351562 5.097656 -0.3125 5.578125 -0.3125 C 5.609375 -0.3125 5.625 -0.257812 5.625 -0.15625 C 5.625 -0.0507812 5.609375 0 5.578125 0 C 5.128906 0 4.773438 -0.0078125 4.515625 -0.03125 L 3.234375 -0.046875 L 1.859375 -0.03125 C 1.617188 -0.0078125 1.273438 0 0.828125 0 C 0.773438 0 0.75 -0.0507812 0.75 -0.15625 C 0.75 -0.257812 0.773438 -0.3125 0.828125 -0.3125 C 1.304688 -0.3125 1.660156 -0.351562 1.890625 -0.4375 C 2.128906 -0.519531 2.285156 -0.6875 2.359375 -0.9375 C 2.441406 -1.1875 2.484375 -1.570312 2.484375 -2.09375 L 2.484375 -7.875 C 2.484375 -8.394531 2.441406 -8.78125 2.359375 -9.03125 C 2.285156 -9.28125 2.132812 -9.445312 1.90625 -9.53125 C 1.6875 -9.613281 1.335938 -9.65625 0.859375 -9.65625 C 0.804688 -9.65625 0.78125 -9.707031 0.78125 -9.8125 C 0.78125 -9.914062 0.804688 -9.96875 0.859375 -9.96875 C 1.285156 -9.96875 1.617188 -9.957031 1.859375 -9.9375 L 3.234375 -9.921875 L 4.546875 -9.9375 C 4.804688 -9.957031 5.148438 -9.96875 5.578125 -9.96875 C 5.609375 -9.96875 5.625 -9.914062 5.625 -9.8125 C 5.625 -9.707031 5.609375 -9.65625 5.578125 -9.65625 C 5.097656 -9.65625 4.738281 -9.601562 4.5 -9.5 C 4.269531 -9.394531 4.113281 -9.21875 4.03125 -8.96875 C 3.957031 -8.71875 3.921875 -8.335938 3.921875 -7.828125 L 3.921875 -5.25 L 9.421875 -5.25 L 9.421875 -7.875 C 9.421875 -8.394531 9.378906 -8.78125 9.296875 -9.03125 C 9.222656 -9.28125 9.070312 -9.445312 8.84375 -9.53125 C 8.625 -9.613281 8.273438 -9.65625 7.796875 -9.65625 C 7.742188 -9.65625 7.71875 -9.707031 7.71875 -9.8125 C 7.71875 -9.914062 7.742188 -9.96875 7.796875 -9.96875 C 8.234375 -9.96875 8.570312 -9.957031 8.8125 -9.9375 L 10.171875 -9.921875 L 11.5 -9.9375 C 11.75 -9.957031 12.09375 -9.96875 12.53125 -9.96875 C 12.5625 -9.96875 12.578125 -9.914062 12.578125 -9.8125 C 12.578125 -9.707031 12.5625 -9.65625 12.53125 -9.65625 C 12.039062 -9.65625 11.679688 -9.601562 11.453125 -9.5 C 11.222656 -9.394531 11.066406 -9.21875 10.984375 -8.96875 C 10.910156 -8.71875 10.875 -8.335938 10.875 -7.828125 L 10.875 -2.09375 C 10.875 -1.570312 10.910156 -1.1875 10.984375 -0.9375 C 11.066406 -0.6875 11.222656 -0.519531 11.453125 -0.4375 C 11.679688 -0.351562 12.039062 -0.3125 12.53125 -0.3125 Z M 12.53125 -0.3125 "></path></g></g></g><g fill="#000000" fill-opacity="1"><g transform="translate(177.489874, 58.690643)"><g><path d="M 10.71875 -1.390625 C 10.789062 -1.390625 10.832031 -1.347656 10.84375 -1.265625 C 10.863281 -1.191406 10.835938 -1.140625 10.765625 -1.109375 L 8.109375 0.15625 C 8.035156 0.1875 7.96875 0.203125 7.90625 0.203125 C 7.675781 0.203125 7.472656 0.0507812 7.296875 -0.25 C 7.128906 -0.550781 7.019531 -0.957031 6.96875 -1.46875 L 5.625 -0.59375 C 5.195312 -0.320312 4.816406 -0.125 4.484375 0 C 4.160156 0.125 3.820312 0.1875 3.46875 0.1875 C 2.820312 0.1875 2.320312 0.0195312 1.96875 -0.3125 C 1.625 -0.65625 1.453125 -1.082031 1.453125 -1.59375 C 1.453125 -2.113281 1.65625 -2.5625 2.0625 -2.9375 C 2.476562 -3.320312 3.160156 -3.6875 4.109375 -4.03125 L 6.953125 -5.09375 L 6.953125 -6.84375 C 6.953125 -8.769531 6.410156 -9.734375 5.328125 -9.734375 C 4.734375 -9.734375 4.285156 -9.539062 3.984375 -9.15625 C 3.679688 -8.769531 3.484375 -8.328125 3.390625 -7.828125 C 3.335938 -7.515625 3.238281 -7.257812 3.09375 -7.0625 C 2.957031 -6.863281 2.726562 -6.765625 2.40625 -6.765625 C 2.125 -6.765625 1.910156 -6.84375 1.765625 -7 C 1.617188 -7.15625 1.546875 -7.335938 1.546875 -7.546875 C 1.546875 -7.953125 1.8125 -8.363281 2.34375 -8.78125 C 2.882812 -9.195312 3.523438 -9.539062 4.265625 -9.8125 C 5.003906 -10.09375 5.664062 -10.234375 6.25 -10.234375 C 6.957031 -10.234375 7.488281 -10.007812 7.84375 -9.5625 C 8.207031 -9.113281 8.390625 -8.46875 8.390625 -7.625 L 8.390625 -2.796875 C 8.390625 -2.191406 8.46875 -1.75 8.625 -1.46875 C 8.78125 -1.195312 9.039062 -1.0625 9.40625 -1.0625 C 9.726562 -1.0625 10.148438 -1.171875 10.671875 -1.390625 Z M 6.953125 -1.828125 L 6.953125 -4.71875 L 4.546875 -3.796875 C 4.066406 -3.609375 3.71875 -3.390625 3.5 -3.140625 C 3.28125 -2.890625 3.171875 -2.59375 3.171875 -2.25 C 3.171875 -1.832031 3.304688 -1.484375 3.578125 -1.203125 C 3.847656 -0.921875 4.195312 -0.78125 4.625 -0.78125 C 4.96875 -0.78125 5.378906 -0.914062 5.859375 -1.1875 Z M 6.953125 -1.828125 "></path></g></g></g><g fill="#000000" fill-opacity="1"><g transform="translate(188.312542, 58.690643)"><g><path d="M 7 -10 C 7.976562 -10 8.789062 -9.75 9.4375 -9.25 C 10.082031 -8.75 10.554688 -8.117188 10.859375 -7.359375 C 11.160156 -6.597656 11.3125 -5.804688 11.3125 -4.984375 C 11.3125 -3.929688 11.0625 -3 10.5625 -2.1875 C 10.0625 -1.382812 9.394531 -0.765625 8.5625 -0.328125 C 7.726562 0.109375 6.820312 0.328125 5.84375 0.328125 C 4.394531 0.328125 3.21875 -0.210938 2.3125 -1.296875 C 1.40625 -2.390625 0.953125 -4.175781 0.953125 -6.65625 C 0.953125 -9.4375 1.539062 -11.722656 2.71875 -13.515625 C 3.90625 -15.316406 5.597656 -16.414062 7.796875 -16.8125 C 8.585938 -16.945312 9.140625 -17.070312 9.453125 -17.1875 C 9.765625 -17.300781 9.992188 -17.460938 10.140625 -17.671875 C 10.285156 -17.890625 10.425781 -18.257812 10.5625 -18.78125 C 10.582031 -18.832031 10.632812 -18.847656 10.71875 -18.828125 C 10.800781 -18.804688 10.835938 -18.769531 10.828125 -18.71875 C 10.648438 -18.019531 10.5625 -17.648438 10.5625 -17.609375 C 10.34375 -16.660156 10.140625 -16.097656 9.953125 -15.921875 C 9.773438 -15.753906 9.367188 -15.625 8.734375 -15.53125 C 8.109375 -15.4375 7.570312 -15.347656 7.125 -15.265625 C 5.625 -15.003906 4.585938 -14.695312 4.015625 -14.34375 C 3.441406 -13.988281 3.054688 -13.34375 2.859375 -12.40625 C 2.671875 -11.46875 2.570312 -9.820312 2.5625 -7.46875 C 3.039062 -8.34375 3.6875 -8.984375 4.5 -9.390625 C 5.320312 -9.796875 6.15625 -10 7 -10 Z M 6.609375 -0.15625 C 7.535156 -0.15625 8.257812 -0.492188 8.78125 -1.171875 C 9.300781 -1.859375 9.5625 -2.878906 9.5625 -4.234375 C 9.5625 -5.253906 9.410156 -6.160156 9.109375 -6.953125 C 8.804688 -7.742188 8.394531 -8.351562 7.875 -8.78125 C 7.363281 -9.207031 6.785156 -9.421875 6.140625 -9.421875 C 5.546875 -9.421875 4.984375 -9.226562 4.453125 -8.84375 C 3.929688 -8.457031 3.515625 -7.945312 3.203125 -7.3125 C 2.890625 -6.675781 2.734375 -6.003906 2.734375 -5.296875 C 2.734375 -3.816406 3.078125 -2.585938 3.765625 -1.609375 C 4.453125 -0.640625 5.398438 -0.15625 6.609375 -0.15625 Z M 6.609375 -0.15625 "></path></g></g></g><g fill="#000000" fill-opacity="1"><g transform="translate(200.555861, 58.690643)"><g><path d="M 6.59375 -5.859375 C 8.863281 -5.859375 10 -4.960938 10 -3.171875 C 10 -2.222656 9.660156 -1.445312 8.984375 -0.84375 C 8.316406 -0.25 7.472656 0.046875 6.453125 0.046875 C 6.191406 0.046875 5.703125 0.03125 4.984375 0 C 4.160156 -0.03125 3.578125 -0.046875 3.234375 -0.046875 L 1.859375 -0.03125 C 1.617188 -0.0078125 1.273438 0 0.828125 0 C 0.773438 0 0.75 -0.0507812 0.75 -0.15625 C 0.75 -0.257812 0.773438 -0.3125 0.828125 -0.3125 C 1.304688 -0.3125 1.660156 -0.351562 1.890625 -0.4375 C 2.128906 -0.519531 2.285156 -0.6875 2.359375 -0.9375 C 2.441406 -1.1875 2.484375 -1.570312 2.484375 -2.09375 L 2.484375 -7.875 C 2.484375 -8.394531 2.441406 -8.78125 2.359375 -9.03125 C 2.285156 -9.28125 2.132812 -9.445312 1.90625 -9.53125 C 1.6875 -9.613281 1.335938 -9.65625 0.859375 -9.65625 C 0.804688 -9.65625 0.78125 -9.707031 0.78125 -9.8125 C 0.78125 -9.914062 0.804688 -9.96875 0.859375 -9.96875 C 1.285156 -9.96875 1.617188 -9.957031 1.859375 -9.9375 L 3.234375 -9.921875 L 4.71875 -9.9375 C 5 -9.957031 5.378906 -9.96875 5.859375 -9.96875 C 5.910156 -9.96875 5.9375 -9.914062 5.9375 -9.8125 C 5.9375 -9.707031 5.910156 -9.65625 5.859375 -9.65625 C 5.296875 -9.65625 4.878906 -9.601562 4.609375 -9.5 C 4.335938 -9.394531 4.15625 -9.21875 4.0625 -8.96875 C 3.96875 -8.71875 3.921875 -8.335938 3.921875 -7.828125 L 3.921875 -5.46875 C 4.679688 -5.726562 5.570312 -5.859375 6.59375 -5.859375 Z M 15.578125 -0.3125 C 15.609375 -0.3125 15.625 -0.257812 15.625 -0.15625 C 15.625 -0.0507812 15.609375 0 15.578125 0 C 15.140625 0 14.796875 -0.0078125 14.546875 -0.03125 L 13.25 -0.046875 L 11.859375 -0.03125 C 11.617188 -0.0078125 11.28125 0 10.84375 0 C 10.789062 0 10.765625 -0.0507812 10.765625 -0.15625 C 10.765625 -0.257812 10.789062 -0.3125 10.84375 -0.3125 C 11.332031 -0.3125 11.6875 -0.351562 11.90625 -0.4375 C 12.132812 -0.519531 12.285156 -0.6875 12.359375 -0.9375 C 12.429688 -1.1875 12.46875 -1.570312 12.46875 -2.09375 L 12.46875 -7.875 C 12.46875 -8.394531 12.429688 -8.78125 12.359375 -9.03125 C 12.285156 -9.28125 12.132812 -9.445312 11.90625 -9.53125 C 11.6875 -9.613281 11.34375 -9.65625 10.875 -9.65625 C 10.820312 -9.65625 10.796875 -9.707031 10.796875 -9.8125 C 10.796875 -9.914062 10.820312 -9.96875 10.875 -9.96875 C 11.289062 -9.96875 11.617188 -9.957031 11.859375 -9.9375 L 13.25 -9.921875 L 14.5625 -9.9375 C 14.820312 -9.957031 15.160156 -9.96875 15.578125 -9.96875 C 15.609375 -9.96875 15.625 -9.914062 15.625 -9.8125 C 15.625 -9.707031 15.609375 -9.65625 15.578125 -9.65625 C 15.085938 -9.65625 14.726562 -9.601562 14.5 -9.5 C 14.28125 -9.394531 14.132812 -9.21875 14.0625 -8.96875 C 13.988281 -8.71875 13.953125 -8.335938 13.953125 -7.828125 L 13.953125 -2.09375 C 13.953125 -1.570312 13.988281 -1.1875 14.0625 -0.9375 C 14.132812 -0.6875 14.28125 -0.519531 14.5 -0.4375 C 14.726562 -0.351562 15.085938 -0.3125 15.578125 -0.3125 Z M 5.96875 -0.328125 C 7.570312 -0.328125 8.375 -1.078125 8.375 -2.578125 C 8.375 -3.460938 8.148438 -4.148438 7.703125 -4.640625 C 7.265625 -5.140625 6.59375 -5.390625 5.6875 -5.390625 C 5.0625 -5.390625 4.472656 -5.296875 3.921875 -5.109375 L 3.921875 -2.09375 C 3.921875 -1.4375 4.054688 -0.976562 4.328125 -0.71875 C 4.609375 -0.457031 5.15625 -0.328125 5.96875 -0.328125 Z M 5.96875 -0.328125 "></path></g></g></g><g fill="#000000" fill-opacity="1"><g transform="translate(216.957759, 58.690643)"><g><path d="M 5.703125 -5.578125 C 6.617188 -5.492188 7.328125 -5.179688 7.828125 -4.640625 C 8.335938 -4.097656 8.59375 -3.457031 8.59375 -2.71875 C 8.59375 -1.78125 8.207031 -1.039062 7.4375 -0.5 C 6.664062 0.0390625 5.691406 0.3125 4.515625 0.3125 C 3.960938 0.3125 3.425781 0.25 2.90625 0.125 C 2.382812 0.0078125 1.929688 -0.140625 1.546875 -0.328125 C 1.429688 -0.378906 1.351562 -0.429688 1.3125 -0.484375 C 1.28125 -0.535156 1.253906 -0.632812 1.234375 -0.78125 L 1.03125 -2.921875 C 1.03125 -2.972656 1.078125 -3.003906 1.171875 -3.015625 C 1.265625 -3.035156 1.320312 -3.007812 1.34375 -2.9375 C 1.582031 -2.039062 1.992188 -1.335938 2.578125 -0.828125 C 3.171875 -0.328125 3.863281 -0.078125 4.65625 -0.078125 C 5.394531 -0.078125 5.941406 -0.289062 6.296875 -0.71875 C 6.660156 -1.15625 6.84375 -1.742188 6.84375 -2.484375 C 6.84375 -3.359375 6.585938 -4.046875 6.078125 -4.546875 C 5.578125 -5.046875 4.773438 -5.296875 3.671875 -5.296875 C 3.578125 -5.296875 3.53125 -5.34375 3.53125 -5.4375 C 3.53125 -5.53125 3.578125 -5.578125 3.671875 -5.578125 C 4.671875 -5.578125 5.390625 -5.75 5.828125 -6.09375 C 6.265625 -6.4375 6.484375 -6.925781 6.484375 -7.5625 C 6.484375 -9.039062 5.820312 -9.78125 4.5 -9.78125 C 3.789062 -9.78125 3.210938 -9.566406 2.765625 -9.140625 C 2.316406 -8.722656 1.9375 -8.09375 1.625 -7.25 C 1.625 -7.238281 1.59375 -7.234375 1.53125 -7.234375 C 1.375 -7.234375 1.300781 -7.257812 1.3125 -7.3125 L 1.96875 -10.515625 C 1.96875 -10.546875 2 -10.5625 2.0625 -10.5625 C 2.113281 -10.5625 2.164062 -10.546875 2.21875 -10.515625 C 2.269531 -10.492188 2.285156 -10.472656 2.265625 -10.453125 C 2.253906 -10.410156 2.25 -10.335938 2.25 -10.234375 C 2.25 -9.929688 2.382812 -9.78125 2.65625 -9.78125 C 2.832031 -9.78125 3.066406 -9.84375 3.359375 -9.96875 C 3.753906 -10.09375 4.078125 -10.179688 4.328125 -10.234375 C 4.578125 -10.285156 4.882812 -10.3125 5.25 -10.3125 C 6.15625 -10.3125 6.859375 -10.097656 7.359375 -9.671875 C 7.859375 -9.253906 8.109375 -8.734375 8.109375 -8.109375 C 8.109375 -7.554688 7.890625 -7.050781 7.453125 -6.59375 C 7.023438 -6.144531 6.441406 -5.804688 5.703125 -5.578125 Z M 5.703125 -5.578125 "></path></g></g></g><g fill="#000000" fill-opacity="1"><g transform="translate(226.488947, 58.690643)"><g><path d="M 2.015625 -16.015625 C 1.992188 -16.078125 2.113281 -16.128906 2.375 -16.171875 C 2.632812 -16.222656 2.910156 -16.25 3.203125 -16.25 C 3.492188 -16.25 3.769531 -16.222656 4.03125 -16.171875 C 4.289062 -16.128906 4.398438 -16.078125 4.359375 -16.015625 C 4.085938 -14.535156 3.878906 -12.953125 3.734375 -11.265625 C 3.597656 -9.578125 3.460938 -7.445312 3.328125 -4.875 C 3.328125 -4.820312 3.269531 -4.796875 3.15625 -4.796875 C 3.007812 -4.796875 2.9375 -4.820312 2.9375 -4.875 C 2.851562 -7.21875 2.742188 -9.285156 2.609375 -11.078125 C 2.484375 -12.867188 2.285156 -14.515625 2.015625 -16.015625 Z M 3.078125 0.28125 C 2.734375 0.28125 2.457031 0.179688 2.25 -0.015625 C 2.039062 -0.222656 1.9375 -0.503906 1.9375 -0.859375 C 1.9375 -1.179688 2.039062 -1.4375 2.25 -1.625 C 2.457031 -1.8125 2.734375 -1.90625 3.078125 -1.90625 C 3.429688 -1.90625 3.707031 -1.8125 3.90625 -1.625 C 4.101562 -1.4375 4.203125 -1.179688 4.203125 -0.859375 C 4.203125 -0.503906 4.101562 -0.222656 3.90625 -0.015625 C 3.707031 0.179688 3.429688 0.28125 3.078125 0.28125 Z M 3.078125 0.28125 "></path></g></g></g></g></g></svg> 