<?xml version="1.0" encoding="UTF-8"?> <svg xmlns="http://www.w3.org/2000/svg" xmlns:xlink="http://www.w3.org/1999/xlink" width="360" zoomAndPan="magnify" viewBox="0 0 270 359.999987" height="480" preserveAspectRatio="xMidYMid meet" version="1.0"><defs><g></g><clipPath id="dc6082b2d2"><rect x="0" width="270" y="0" height="146"></rect></clipPath></defs><g transform="matrix(1, 0, 0, 1, -0, 107)"><g clip-path="url(#dc6082b2d2)"><g fill="#000000" fill-opacity="1"><g transform="translate(0.000005025, 112.744425)"><g><path d="M 13.484375 0 L 13.484375 -1.296875 C 15.554688 -1.296875 16.867188 -1.921875 17.421875 -3.171875 C 17.984375 -4.421875 18.265625 -5.910156 18.265625 -7.640625 L 18.265625 -69.71875 C 18.265625 -70.582031 17.835938 -71.015625 16.984375 -71.015625 C 16.628906 -71.015625 16.148438 -70.882812 15.546875 -70.625 L 0.78125 -65.96875 L 0.78125 -70.625 L 30.96875 -81.125 L 30.96875 -77.625 C 29.59375 -77.019531 28.492188 -76.066406 27.671875 -74.765625 C 26.847656 -73.472656 26.523438 -71.960938 26.703125 -70.234375 L 26.703125 -8.171875 C 26.703125 -6.347656 27.003906 -4.742188 27.609375 -3.359375 C 28.210938 -1.984375 29.59375 -1.296875 31.75 -1.296875 L 31.75 0 Z M 13.484375 0 "></path></g></g></g><g fill="#000000" fill-opacity="1"><g transform="translate(42.114637, 112.744425)"><g><path d="M 30.71875 -47.953125 C 27.601562 -47.953125 24.898438 -47.410156 22.609375 -46.328125 C 20.328125 -45.242188 18.425781 -43.796875 16.90625 -41.984375 C 15.394531 -40.171875 14.269531 -38.097656 13.53125 -35.765625 C 12.800781 -33.429688 12.4375 -31.015625 12.4375 -28.515625 C 12.4375 -25.484375 12.890625 -22.457031 13.796875 -19.4375 C 14.703125 -16.414062 16.039062 -13.71875 17.8125 -11.34375 C 19.582031 -8.96875 21.722656 -7.019531 24.234375 -5.5 C 26.742188 -3.988281 29.640625 -3.234375 32.921875 -3.234375 C 35.859375 -3.234375 38.445312 -3.816406 40.6875 -4.984375 C 42.9375 -6.148438 44.816406 -7.707031 46.328125 -9.65625 C 47.835938 -11.601562 48.957031 -13.828125 49.6875 -16.328125 C 50.425781 -18.835938 50.796875 -21.382812 50.796875 -23.96875 C 50.796875 -26.90625 50.34375 -29.800781 49.4375 -32.65625 C 48.53125 -35.507812 47.234375 -38.078125 45.546875 -40.359375 C 43.867188 -42.648438 41.773438 -44.488281 39.265625 -45.875 C 36.765625 -47.257812 33.914062 -47.953125 30.71875 -47.953125 Z M 49.109375 -69.328125 C 47.734375 -71.054688 46.070312 -72.4375 44.125 -73.46875 C 42.175781 -74.507812 40.34375 -75.03125 38.625 -75.03125 C 34.644531 -75.03125 31.1875 -74.054688 28.25 -72.109375 C 25.3125 -70.171875 22.867188 -67.773438 20.921875 -64.921875 C 18.984375 -62.078125 17.453125 -58.988281 16.328125 -55.65625 C 15.203125 -52.332031 14.46875 -49.242188 14.125 -46.390625 C 16.632812 -48.640625 19.441406 -50.21875 22.546875 -51.125 C 25.660156 -52.03125 28.898438 -52.484375 32.265625 -52.484375 C 36.671875 -52.484375 40.535156 -51.726562 43.859375 -50.21875 C 47.191406 -48.707031 49.957031 -46.71875 52.15625 -44.25 C 54.363281 -41.789062 56.003906 -38.960938 57.078125 -35.765625 C 58.160156 -32.566406 58.703125 -29.285156 58.703125 -25.921875 C 58.703125 -22.546875 58.140625 -19.21875 57.015625 -15.9375 C 55.898438 -12.65625 54.21875 -9.738281 51.96875 -7.1875 C 49.71875 -4.644531 46.929688 -2.59375 43.609375 -1.03125 C 40.285156 0.519531 36.421875 1.296875 32.015625 1.296875 C 27.171875 1.296875 22.976562 0.390625 19.4375 -1.421875 C 15.894531 -3.234375 13 -5.671875 10.75 -8.734375 C 8.507812 -11.804688 6.847656 -15.375 5.765625 -19.4375 C 4.679688 -23.5 4.140625 -27.734375 4.140625 -32.140625 C 4.140625 -37.835938 4.9375 -43.515625 6.53125 -49.171875 C 8.132812 -54.835938 10.488281 -59.9375 13.59375 -64.46875 C 16.707031 -69.007812 20.507812 -72.703125 25 -75.546875 C 29.5 -78.398438 34.644531 -79.828125 40.4375 -79.828125 C 41.644531 -79.828125 42.914062 -79.738281 44.25 -79.5625 C 45.59375 -79.394531 46.78125 -79.222656 47.8125 -79.046875 C 48.332031 -78.960938 48.875 -78.875 49.4375 -78.78125 C 50 -78.695312 50.320312 -78.65625 50.40625 -78.65625 L 50.40625 -69.328125 Z M 49.109375 -69.328125 "></path></g></g></g><g fill="#000000" fill-opacity="1"><g transform="translate(105.740121, 112.744425)"><g><path d="M 6.734375 -43.9375 C 6.734375 -45.664062 7.316406 -47.132812 8.484375 -48.34375 C 9.648438 -49.550781 11.097656 -50.15625 12.828125 -50.15625 C 14.554688 -50.15625 16.023438 -49.550781 17.234375 -48.34375 C 18.441406 -47.132812 19.046875 -45.664062 19.046875 -43.9375 C 19.046875 -42.207031 18.441406 -40.757812 17.234375 -39.59375 C 16.023438 -38.425781 14.554688 -37.84375 12.828125 -37.84375 C 11.097656 -37.84375 9.648438 -38.425781 8.484375 -39.59375 C 7.316406 -40.757812 6.734375 -42.207031 6.734375 -43.9375 Z M 6.734375 -5.578125 C 6.734375 -7.304688 7.316406 -8.773438 8.484375 -9.984375 C 9.648438 -11.191406 11.097656 -11.796875 12.828125 -11.796875 C 14.554688 -11.796875 16.023438 -11.191406 17.234375 -9.984375 C 18.441406 -8.773438 19.046875 -7.304688 19.046875 -5.578125 C 19.046875 -3.847656 18.441406 -2.398438 17.234375 -1.234375 C 16.023438 -0.0664062 14.554688 0.515625 12.828125 0.515625 C 11.097656 0.515625 9.648438 -0.0664062 8.484375 -1.234375 C 7.316406 -2.398438 6.734375 -3.847656 6.734375 -5.578125 Z M 6.734375 -5.578125 "></path></g></g></g><g fill="#000000" fill-opacity="1"><g transform="translate(131.786381, 112.744425)"><g><path d="M 4.796875 -40.171875 C 4.796875 -46.828125 5.632812 -52.703125 7.3125 -57.796875 C 9 -62.890625 11.222656 -67.144531 13.984375 -70.5625 C 16.753906 -73.976562 19.890625 -76.570312 23.390625 -78.34375 C 26.890625 -80.113281 30.453125 -81 34.078125 -81 C 37.710938 -81 41.300781 -80.113281 44.84375 -78.34375 C 48.382812 -76.570312 51.515625 -73.976562 54.234375 -70.5625 C 56.953125 -67.144531 59.15625 -62.890625 60.84375 -57.796875 C 62.53125 -52.703125 63.375 -46.828125 63.375 -40.171875 C 63.375 -33.429688 62.53125 -27.488281 60.84375 -22.34375 C 59.15625 -17.207031 56.953125 -12.890625 54.234375 -9.390625 C 51.515625 -5.890625 48.382812 -3.234375 44.84375 -1.421875 C 41.300781 0.390625 37.710938 1.296875 34.078125 1.296875 C 30.453125 1.296875 26.890625 0.390625 23.390625 -1.421875 C 19.890625 -3.234375 16.753906 -5.890625 13.984375 -9.390625 C 11.222656 -12.890625 9 -17.207031 7.3125 -22.34375 C 5.632812 -27.488281 4.796875 -33.429688 4.796875 -40.171875 Z M 55.203125 -36.796875 C 55.203125 -43.023438 54.507812 -48.535156 53.125 -53.328125 C 51.75 -58.117188 49.957031 -62.132812 47.75 -65.375 C 45.550781 -68.613281 43.046875 -71.078125 40.234375 -72.765625 C 37.429688 -74.453125 34.5625 -75.296875 31.625 -75.296875 C 28.6875 -75.296875 26.03125 -74.453125 23.65625 -72.765625 C 21.28125 -71.078125 19.269531 -68.851562 17.625 -66.09375 C 15.976562 -63.332031 14.703125 -60.132812 13.796875 -56.5 C 12.890625 -52.875 12.4375 -49.070312 12.4375 -45.09375 C 12.4375 -40.34375 13 -35.523438 14.125 -30.640625 C 15.25 -25.765625 16.847656 -21.359375 18.921875 -17.421875 C 20.992188 -13.492188 23.476562 -10.273438 26.375 -7.765625 C 29.269531 -5.265625 32.441406 -4.015625 35.890625 -4.015625 C 38.398438 -4.015625 40.820312 -4.726562 43.15625 -6.15625 C 45.488281 -7.582031 47.539062 -9.675781 49.3125 -12.4375 C 51.082031 -15.207031 52.503906 -18.617188 53.578125 -22.671875 C 54.660156 -26.734375 55.203125 -31.441406 55.203125 -36.796875 Z M 55.203125 -36.796875 "></path></g></g></g><g fill="#000000" fill-opacity="1"><g transform="translate(200.854389, 112.744425)"><g><path d="M 4.796875 -40.171875 C 4.796875 -46.828125 5.632812 -52.703125 7.3125 -57.796875 C 9 -62.890625 11.222656 -67.144531 13.984375 -70.5625 C 16.753906 -73.976562 19.890625 -76.570312 23.390625 -78.34375 C 26.890625 -80.113281 30.453125 -81 34.078125 -81 C 37.710938 -81 41.300781 -80.113281 44.84375 -78.34375 C 48.382812 -76.570312 51.515625 -73.976562 54.234375 -70.5625 C 56.953125 -67.144531 59.15625 -62.890625 60.84375 -57.796875 C 62.53125 -52.703125 63.375 -46.828125 63.375 -40.171875 C 63.375 -33.429688 62.53125 -27.488281 60.84375 -22.34375 C 59.15625 -17.207031 56.953125 -12.890625 54.234375 -9.390625 C 51.515625 -5.890625 48.382812 -3.234375 44.84375 -1.421875 C 41.300781 0.390625 37.710938 1.296875 34.078125 1.296875 C 30.453125 1.296875 26.890625 0.390625 23.390625 -1.421875 C 19.890625 -3.234375 16.753906 -5.890625 13.984375 -9.390625 C 11.222656 -12.890625 9 -17.207031 7.3125 -22.34375 C 5.632812 -27.488281 4.796875 -33.429688 4.796875 -40.171875 Z M 55.203125 -36.796875 C 55.203125 -43.023438 54.507812 -48.535156 53.125 -53.328125 C 51.75 -58.117188 49.957031 -62.132812 47.75 -65.375 C 45.550781 -68.613281 43.046875 -71.078125 40.234375 -72.765625 C 37.429688 -74.453125 34.5625 -75.296875 31.625 -75.296875 C 28.6875 -75.296875 26.03125 -74.453125 23.65625 -72.765625 C 21.28125 -71.078125 19.269531 -68.851562 17.625 -66.09375 C 15.976562 -63.332031 14.703125 -60.132812 13.796875 -56.5 C 12.890625 -52.875 12.4375 -49.070312 12.4375 -45.09375 C 12.4375 -40.34375 13 -35.523438 14.125 -30.640625 C 15.25 -25.765625 16.847656 -21.359375 18.921875 -17.421875 C 20.992188 -13.492188 23.476562 -10.273438 26.375 -7.765625 C 29.269531 -5.265625 32.441406 -4.015625 35.890625 -4.015625 C 38.398438 -4.015625 40.820312 -4.726562 43.15625 -6.15625 C 45.488281 -7.582031 47.539062 -9.675781 49.3125 -12.4375 C 51.082031 -15.207031 52.503906 -18.617188 53.578125 -22.671875 C 54.660156 -26.734375 55.203125 -31.441406 55.203125 -36.796875 Z M 55.203125 -36.796875 "></path></g></g></g></g></g></svg> 