<?xml version="1.0" encoding="UTF-8"?> <svg xmlns="http://www.w3.org/2000/svg" xmlns:xlink="http://www.w3.org/1999/xlink" width="360" zoomAndPan="magnify" viewBox="0 0 270 359.999987" height="480" preserveAspectRatio="xMidYMid meet" version="1.0"><defs><g></g><clipPath id="224960cda1"><rect x="0" width="262" y="0" height="74"></rect></clipPath></defs><g transform="matrix(1, 0, 0, 1, 4, 143)"><g clip-path="url(#224960cda1)"><g fill="#000000" fill-opacity="1"><g transform="translate(12.926007, 25.73404)"><g><path d="M 11.65625 -17.875 C 12.550781 -17.875 13.457031 -17.785156 14.375 -17.609375 C 15.300781 -17.441406 16.035156 -17.203125 16.578125 -16.890625 C 16.742188 -16.804688 16.847656 -16.722656 16.890625 -16.640625 C 16.941406 -16.554688 16.976562 -16.410156 17 -16.203125 L 17.3125 -13.0625 C 17.3125 -13.007812 17.265625 -12.976562 17.171875 -12.96875 C 17.078125 -12.957031 17.019531 -12.976562 17 -13.03125 C 16.582031 -14.476562 15.816406 -15.539062 14.703125 -16.21875 C 13.585938 -16.90625 12.207031 -17.25 10.5625 -17.25 C 9.132812 -17.25 7.882812 -16.9375 6.8125 -16.3125 C 5.75 -15.6875 4.925781 -14.800781 4.34375 -13.65625 C 3.769531 -12.507812 3.484375 -11.1875 3.484375 -9.6875 C 3.484375 -7.945312 3.84375 -6.335938 4.5625 -4.859375 C 5.28125 -3.378906 6.253906 -2.207031 7.484375 -1.34375 C 8.710938 -0.488281 10.039062 -0.0625 11.46875 -0.0625 C 12.8125 -0.0625 13.976562 -0.429688 14.96875 -1.171875 C 15.96875 -1.910156 16.726562 -3.046875 17.25 -4.578125 C 17.25 -4.628906 17.285156 -4.65625 17.359375 -4.65625 C 17.421875 -4.65625 17.472656 -4.644531 17.515625 -4.625 C 17.566406 -4.613281 17.59375 -4.585938 17.59375 -4.546875 L 17.1875 -1.375 C 17.15625 -1.15625 17.113281 -1.007812 17.0625 -0.9375 C 17.019531 -0.875 16.914062 -0.804688 16.75 -0.734375 C 15.0625 -0.015625 13.28125 0.34375 11.40625 0.34375 C 9.15625 0.34375 7.273438 -0.109375 5.765625 -1.015625 C 4.265625 -1.929688 3.15625 -3.09375 2.4375 -4.5 C 1.726562 -5.90625 1.375 -7.382812 1.375 -8.9375 C 1.375 -10.65625 1.847656 -12.195312 2.796875 -13.5625 C 3.753906 -14.9375 5.019531 -16 6.59375 -16.75 C 8.175781 -17.5 9.863281 -17.875 11.65625 -17.875 Z M 11.65625 -17.875 "></path></g></g></g><g fill="#000000" fill-opacity="1"><g transform="translate(31.714, 25.73404)"><g><path d="M 20.5625 -0.34375 C 20.625 -0.34375 20.65625 -0.285156 20.65625 -0.171875 C 20.65625 -0.0546875 20.625 0 20.5625 0 C 19.976562 0 19.507812 -0.0078125 19.15625 -0.03125 L 17.21875 -0.0625 L 15.171875 -0.03125 C 14.835938 -0.0078125 14.394531 0 13.84375 0 C 13.789062 0 13.765625 -0.0546875 13.765625 -0.171875 C 13.765625 -0.285156 13.789062 -0.34375 13.84375 -0.34375 C 14.582031 -0.34375 15.117188 -0.390625 15.453125 -0.484375 C 15.785156 -0.578125 16.007812 -0.753906 16.125 -1.015625 C 16.238281 -1.273438 16.296875 -1.695312 16.296875 -2.28125 L 16.296875 -15.234375 L 4.21875 0.25 C 4.15625 0.320312 4.039062 0.359375 3.875 0.359375 C 3.59375 0.359375 3.453125 0.296875 3.453125 0.171875 L 3.453125 -15.28125 C 3.453125 -15.84375 3.390625 -16.253906 3.265625 -16.515625 C 3.148438 -16.773438 2.914062 -16.957031 2.5625 -17.0625 C 2.21875 -17.164062 1.691406 -17.21875 0.984375 -17.21875 C 0.941406 -17.21875 0.921875 -17.273438 0.921875 -17.390625 C 0.921875 -17.503906 0.941406 -17.5625 0.984375 -17.5625 L 2.4375 -17.53125 C 3.226562 -17.488281 3.867188 -17.46875 4.359375 -17.46875 C 4.898438 -17.46875 5.582031 -17.488281 6.40625 -17.53125 L 7.71875 -17.5625 C 7.78125 -17.5625 7.8125 -17.503906 7.8125 -17.390625 C 7.8125 -17.273438 7.78125 -17.21875 7.71875 -17.21875 C 6.988281 -17.21875 6.457031 -17.164062 6.125 -17.0625 C 5.789062 -16.957031 5.566406 -16.773438 5.453125 -16.515625 C 5.335938 -16.253906 5.28125 -15.84375 5.28125 -15.28125 L 5.28125 -2.15625 L 17.390625 -17.703125 C 17.441406 -17.753906 17.546875 -17.78125 17.703125 -17.78125 C 17.984375 -17.78125 18.125 -17.71875 18.125 -17.59375 L 18.125 -2.28125 C 18.125 -1.71875 18.179688 -1.300781 18.296875 -1.03125 C 18.421875 -0.757812 18.648438 -0.578125 18.984375 -0.484375 C 19.328125 -0.390625 19.851562 -0.34375 20.5625 -0.34375 Z M 20.5625 -0.34375 "></path></g></g></g><g fill="#000000" fill-opacity="1"><g transform="translate(53.310361, 25.73404)"><g><path d="M 8.3125 -9.4375 C 9.625 -9.34375 10.6875 -8.894531 11.5 -8.09375 C 12.3125 -7.289062 12.71875 -6.269531 12.71875 -5.03125 C 12.71875 -4 12.429688 -3.078125 11.859375 -2.265625 C 11.296875 -1.453125 10.523438 -0.8125 9.546875 -0.34375 C 8.578125 0.113281 7.503906 0.34375 6.328125 0.34375 C 5.554688 0.34375 4.800781 0.25 4.0625 0.0625 C 3.320312 -0.125 2.742188 -0.390625 2.328125 -0.734375 C 2.160156 -0.828125 2.054688 -0.90625 2.015625 -0.96875 C 1.984375 -1.03125 1.957031 -1.164062 1.9375 -1.375 L 1.59375 -4.5 C 1.59375 -4.550781 1.644531 -4.585938 1.75 -4.609375 C 1.851562 -4.628906 1.914062 -4.609375 1.9375 -4.546875 C 2.195312 -3.035156 2.804688 -1.914062 3.765625 -1.1875 C 4.722656 -0.46875 5.769531 -0.109375 6.90625 -0.109375 C 8.164062 -0.109375 9.097656 -0.53125 9.703125 -1.375 C 10.316406 -2.21875 10.625 -3.265625 10.625 -4.515625 C 10.625 -6.035156 10.195312 -7.179688 9.34375 -7.953125 C 8.488281 -8.734375 7.253906 -9.125 5.640625 -9.125 C 5.566406 -9.125 5.53125 -9.179688 5.53125 -9.296875 C 5.53125 -9.410156 5.566406 -9.46875 5.640625 -9.46875 C 7.109375 -9.46875 8.210938 -9.820312 8.953125 -10.53125 C 9.691406 -11.25 10.0625 -12.222656 10.0625 -13.453125 C 10.0625 -14.691406 9.75 -15.675781 9.125 -16.40625 C 8.507812 -17.132812 7.6875 -17.5 6.65625 -17.5 C 5.6875 -17.5 4.820312 -17.140625 4.0625 -16.421875 C 3.300781 -15.703125 2.734375 -14.640625 2.359375 -13.234375 C 2.359375 -13.191406 2.320312 -13.171875 2.25 -13.171875 C 2.207031 -13.171875 2.160156 -13.1875 2.109375 -13.21875 C 2.066406 -13.25 2.046875 -13.269531 2.046875 -13.28125 L 2.4375 -16.46875 C 2.476562 -16.6875 2.515625 -16.832031 2.546875 -16.90625 C 2.585938 -16.988281 2.691406 -17.054688 2.859375 -17.109375 C 4.304688 -17.617188 5.695312 -17.875 7.03125 -17.875 C 8.613281 -17.875 9.832031 -17.503906 10.6875 -16.765625 C 11.539062 -16.035156 11.96875 -15.128906 11.96875 -14.046875 C 11.96875 -13.015625 11.597656 -12.070312 10.859375 -11.21875 C 10.117188 -10.363281 9.269531 -9.769531 8.3125 -9.4375 Z M 8.3125 -9.4375 "></path></g></g></g><g fill="#000000" fill-opacity="1"><g transform="translate(67.408372, 25.73404)"><g><path d="M 18.875 -0.640625 C 19.03125 -0.640625 19.117188 -0.625 19.140625 -0.59375 C 19.171875 -0.570312 19.1875 -0.488281 19.1875 -0.34375 C 19.1875 -0.25 19.164062 0.00390625 19.125 0.421875 C 19 1.472656 18.9375 2.773438 18.9375 4.328125 C 18.9375 4.421875 18.878906 4.46875 18.765625 4.46875 C 18.648438 4.46875 18.59375 4.421875 18.59375 4.328125 C 18.59375 2.828125 18.226562 1.726562 17.5 1.03125 C 16.769531 0.34375 15.570312 0 13.90625 0 L 5.34375 0 C 2.695312 0 1.375 1.441406 1.375 4.328125 C 1.375 4.421875 1.320312 4.46875 1.21875 4.46875 C 1.113281 4.46875 1.0625 4.421875 1.0625 4.328125 C 1.0625 2.804688 0.988281 1.597656 0.84375 0.703125 C 0.789062 0.347656 0.765625 0 0.765625 -0.34375 C 0.765625 -0.488281 0.78125 -0.570312 0.8125 -0.59375 C 0.851562 -0.625 0.9375 -0.640625 1.0625 -0.640625 L 2.84375 -0.640625 L 9.859375 -17.8125 C 9.878906 -17.863281 9.941406 -17.890625 10.046875 -17.890625 C 10.148438 -17.890625 10.207031 -17.863281 10.21875 -17.8125 L 17.359375 -0.640625 Z M 3.5625 -0.640625 L 15.390625 -0.640625 L 9.4375 -15.03125 Z M 3.5625 -0.640625 "></path></g></g></g><g fill="#000000" fill-opacity="1"><g transform="translate(87.347797, 25.73404)"><g><path d="M 13.34375 -4.1875 C 13.34375 -4.21875 13.378906 -4.234375 13.453125 -4.234375 C 13.515625 -4.234375 13.566406 -4.222656 13.609375 -4.203125 C 13.660156 -4.191406 13.6875 -4.164062 13.6875 -4.125 C 13.507812 -2.945312 13.421875 -1.710938 13.421875 -0.421875 C 13.421875 -0.273438 13.390625 -0.164062 13.328125 -0.09375 C 13.265625 -0.03125 13.148438 0 12.984375 0 L 1.203125 0 C 1.171875 0 1.15625 -0.0546875 1.15625 -0.171875 C 1.15625 -0.285156 1.171875 -0.34375 1.203125 -0.34375 C 1.921875 -0.34375 2.441406 -0.390625 2.765625 -0.484375 C 3.097656 -0.578125 3.320312 -0.757812 3.4375 -1.03125 C 3.5625 -1.300781 3.625 -1.71875 3.625 -2.28125 L 3.625 -15.28125 C 3.625 -15.84375 3.5625 -16.253906 3.4375 -16.515625 C 3.320312 -16.773438 3.097656 -16.957031 2.765625 -17.0625 C 2.441406 -17.164062 1.921875 -17.21875 1.203125 -17.21875 C 1.171875 -17.21875 1.15625 -17.273438 1.15625 -17.390625 C 1.15625 -17.503906 1.171875 -17.5625 1.203125 -17.5625 L 12.5 -17.5625 C 12.664062 -17.5625 12.75 -17.476562 12.75 -17.3125 L 12.8125 -13.84375 C 12.8125 -13.789062 12.765625 -13.757812 12.671875 -13.75 C 12.578125 -13.738281 12.519531 -13.765625 12.5 -13.828125 C 12.445312 -14.816406 12.144531 -15.585938 11.59375 -16.140625 C 11.050781 -16.691406 10.332031 -16.96875 9.4375 -16.96875 L 7.71875 -16.96875 C 7.070312 -16.96875 6.59375 -16.914062 6.28125 -16.8125 C 5.96875 -16.707031 5.75 -16.53125 5.625 -16.28125 C 5.507812 -16.03125 5.453125 -15.648438 5.453125 -15.140625 L 5.453125 -9.4375 L 8.875 -9.4375 C 9.769531 -9.4375 10.410156 -9.585938 10.796875 -9.890625 C 11.179688 -10.191406 11.375 -10.695312 11.375 -11.40625 C 11.375 -11.445312 11.429688 -11.46875 11.546875 -11.46875 C 11.660156 -11.46875 11.71875 -11.445312 11.71875 -11.40625 L 11.6875 -9.125 C 11.6875 -8.582031 11.695312 -8.171875 11.71875 -7.890625 L 11.75 -6.546875 C 11.75 -6.503906 11.691406 -6.484375 11.578125 -6.484375 C 11.460938 -6.484375 11.40625 -6.503906 11.40625 -6.546875 C 11.40625 -7.367188 11.203125 -7.957031 10.796875 -8.3125 C 10.398438 -8.664062 9.734375 -8.84375 8.796875 -8.84375 L 5.453125 -8.84375 L 5.453125 -2.390625 C 5.453125 -1.859375 5.503906 -1.472656 5.609375 -1.234375 C 5.722656 -0.992188 5.929688 -0.828125 6.234375 -0.734375 C 6.535156 -0.640625 7.003906 -0.59375 7.640625 -0.59375 L 9.890625 -0.59375 C 10.785156 -0.59375 11.53125 -0.910156 12.125 -1.546875 C 12.726562 -2.179688 13.132812 -3.0625 13.34375 -4.1875 Z M 13.34375 -4.1875 "></path></g></g></g><g fill="#000000" fill-opacity="1"><g transform="translate(102.428745, 25.73404)"><g><path d="M 5.390625 -2.390625 C 5.390625 -1.785156 5.46875 -1.347656 5.625 -1.078125 C 5.789062 -0.804688 6.101562 -0.613281 6.5625 -0.5 C 7.019531 -0.394531 7.742188 -0.34375 8.734375 -0.34375 C 8.796875 -0.34375 8.828125 -0.285156 8.828125 -0.171875 C 8.828125 -0.0546875 8.796875 0 8.734375 0 C 7.960938 0 7.363281 -0.0078125 6.9375 -0.03125 L 4.5 -0.0625 L 2.609375 -0.03125 C 2.253906 -0.0078125 1.78125 0 1.1875 0 C 1.144531 0 1.125 -0.0546875 1.125 -0.171875 C 1.125 -0.285156 1.144531 -0.34375 1.1875 -0.34375 C 1.894531 -0.34375 2.410156 -0.390625 2.734375 -0.484375 C 3.066406 -0.578125 3.285156 -0.757812 3.390625 -1.03125 C 3.503906 -1.300781 3.5625 -1.71875 3.5625 -2.28125 L 3.5625 -15.28125 C 3.5625 -15.84375 3.503906 -16.253906 3.390625 -16.515625 C 3.285156 -16.773438 3.066406 -16.957031 2.734375 -17.0625 C 2.410156 -17.164062 1.894531 -17.21875 1.1875 -17.21875 C 1.144531 -17.21875 1.125 -17.273438 1.125 -17.390625 C 1.125 -17.503906 1.144531 -17.5625 1.1875 -17.5625 L 2.578125 -17.53125 C 3.367188 -17.488281 4 -17.46875 4.46875 -17.46875 C 4.9375 -17.46875 5.460938 -17.5 6.046875 -17.5625 C 6.265625 -17.5625 6.617188 -17.570312 7.109375 -17.59375 C 7.597656 -17.625 8.019531 -17.640625 8.375 -17.640625 C 10.09375 -17.640625 11.472656 -17.253906 12.515625 -16.484375 C 13.554688 -15.722656 14.078125 -14.554688 14.078125 -12.984375 C 14.078125 -11.742188 13.769531 -10.703125 13.15625 -9.859375 C 12.550781 -9.015625 11.773438 -8.382812 10.828125 -7.96875 C 9.878906 -7.5625 8.898438 -7.359375 7.890625 -7.359375 C 7.328125 -7.359375 6.867188 -7.40625 6.515625 -7.5 C 6.460938 -7.5 6.4375 -7.546875 6.4375 -7.640625 C 6.4375 -7.691406 6.445312 -7.742188 6.46875 -7.796875 C 6.5 -7.859375 6.535156 -7.878906 6.578125 -7.859375 C 6.878906 -7.785156 7.210938 -7.75 7.578125 -7.75 C 8.816406 -7.75 9.863281 -8.148438 10.71875 -8.953125 C 11.570312 -9.765625 12 -10.929688 12 -12.453125 C 12 -13.929688 11.59375 -15.09375 10.78125 -15.9375 C 9.976562 -16.789062 8.953125 -17.21875 7.703125 -17.21875 C 7.023438 -17.21875 6.535156 -17.179688 6.234375 -17.109375 C 5.929688 -17.035156 5.710938 -16.863281 5.578125 -16.59375 C 5.453125 -16.320312 5.390625 -15.867188 5.390625 -15.234375 Z M 5.390625 -2.390625 "></path></g></g></g><g fill="#000000" fill-opacity="1"><g transform="translate(116.413893, 25.73404)"><g><path d="M 18.875 -0.640625 C 19.03125 -0.640625 19.117188 -0.625 19.140625 -0.59375 C 19.171875 -0.570312 19.1875 -0.488281 19.1875 -0.34375 C 19.1875 -0.25 19.164062 0.00390625 19.125 0.421875 C 19 1.472656 18.9375 2.773438 18.9375 4.328125 C 18.9375 4.421875 18.878906 4.46875 18.765625 4.46875 C 18.648438 4.46875 18.59375 4.421875 18.59375 4.328125 C 18.59375 2.828125 18.226562 1.726562 17.5 1.03125 C 16.769531 0.34375 15.570312 0 13.90625 0 L 5.34375 0 C 2.695312 0 1.375 1.441406 1.375 4.328125 C 1.375 4.421875 1.320312 4.46875 1.21875 4.46875 C 1.113281 4.46875 1.0625 4.421875 1.0625 4.328125 C 1.0625 2.804688 0.988281 1.597656 0.84375 0.703125 C 0.789062 0.347656 0.765625 0 0.765625 -0.34375 C 0.765625 -0.488281 0.78125 -0.570312 0.8125 -0.59375 C 0.851562 -0.625 0.9375 -0.640625 1.0625 -0.640625 L 2.84375 -0.640625 L 9.859375 -17.8125 C 9.878906 -17.863281 9.941406 -17.890625 10.046875 -17.890625 C 10.148438 -17.890625 10.207031 -17.863281 10.21875 -17.8125 L 17.359375 -0.640625 Z M 3.5625 -0.640625 L 15.390625 -0.640625 L 9.4375 -15.03125 Z M 3.5625 -0.640625 "></path></g></g></g><g fill="#000000" fill-opacity="1"><g transform="translate(136.353318, 25.73404)"><g><path d="M 20.5625 -0.34375 C 20.625 -0.34375 20.65625 -0.285156 20.65625 -0.171875 C 20.65625 -0.0546875 20.625 0 20.5625 0 C 19.976562 0 19.507812 -0.0078125 19.15625 -0.03125 L 17.21875 -0.0625 L 15.171875 -0.03125 C 14.835938 -0.0078125 14.394531 0 13.84375 0 C 13.789062 0 13.765625 -0.0546875 13.765625 -0.171875 C 13.765625 -0.285156 13.789062 -0.34375 13.84375 -0.34375 C 14.582031 -0.34375 15.117188 -0.390625 15.453125 -0.484375 C 15.785156 -0.578125 16.007812 -0.753906 16.125 -1.015625 C 16.238281 -1.273438 16.296875 -1.695312 16.296875 -2.28125 L 16.296875 -15.234375 L 4.21875 0.25 C 4.15625 0.320312 4.039062 0.359375 3.875 0.359375 C 3.59375 0.359375 3.453125 0.296875 3.453125 0.171875 L 3.453125 -15.28125 C 3.453125 -15.84375 3.390625 -16.253906 3.265625 -16.515625 C 3.148438 -16.773438 2.914062 -16.957031 2.5625 -17.0625 C 2.21875 -17.164062 1.691406 -17.21875 0.984375 -17.21875 C 0.941406 -17.21875 0.921875 -17.273438 0.921875 -17.390625 C 0.921875 -17.503906 0.941406 -17.5625 0.984375 -17.5625 L 2.4375 -17.53125 C 3.226562 -17.488281 3.867188 -17.46875 4.359375 -17.46875 C 4.898438 -17.46875 5.582031 -17.488281 6.40625 -17.53125 L 7.71875 -17.5625 C 7.78125 -17.5625 7.8125 -17.503906 7.8125 -17.390625 C 7.8125 -17.273438 7.78125 -17.21875 7.71875 -17.21875 C 6.988281 -17.21875 6.457031 -17.164062 6.125 -17.0625 C 5.789062 -16.957031 5.566406 -16.773438 5.453125 -16.515625 C 5.335938 -16.253906 5.28125 -15.84375 5.28125 -15.28125 L 5.28125 -2.15625 L 17.390625 -17.703125 C 17.441406 -17.753906 17.546875 -17.78125 17.703125 -17.78125 C 17.984375 -17.78125 18.125 -17.71875 18.125 -17.59375 L 18.125 -2.28125 C 18.125 -1.71875 18.179688 -1.300781 18.296875 -1.03125 C 18.421875 -0.757812 18.648438 -0.578125 18.984375 -0.484375 C 19.328125 -0.390625 19.851562 -0.34375 20.5625 -0.34375 Z M 20.5625 -0.34375 "></path></g></g></g><g fill="#000000" fill-opacity="1"><g transform="translate(157.949679, 25.73404)"><g></g></g></g><g fill="#000000" fill-opacity="1"><g transform="translate(164.521265, 25.73404)"><g><path d="M 5.3125 -17.046875 C 4.132812 -17.046875 3.25 -16.742188 2.65625 -16.140625 C 2.0625 -15.546875 1.632812 -14.53125 1.375 -13.09375 C 1.375 -13.050781 1.320312 -13.03125 1.21875 -13.03125 C 1.113281 -13.03125 1.0625 -13.050781 1.0625 -13.09375 C 1.144531 -13.769531 1.226562 -14.648438 1.3125 -15.734375 C 1.40625 -16.816406 1.453125 -17.628906 1.453125 -18.171875 C 1.453125 -18.265625 1.503906 -18.3125 1.609375 -18.3125 C 1.710938 -18.3125 1.765625 -18.265625 1.765625 -18.171875 C 1.765625 -17.765625 2.269531 -17.5625 3.28125 -17.5625 C 4.875 -17.5 6.757812 -17.46875 8.9375 -17.46875 C 10.039062 -17.46875 11.210938 -17.488281 12.453125 -17.53125 L 14.359375 -17.5625 C 15.035156 -17.5625 15.535156 -17.609375 15.859375 -17.703125 C 16.179688 -17.796875 16.390625 -17.984375 16.484375 -18.265625 C 16.503906 -18.335938 16.5625 -18.375 16.65625 -18.375 C 16.75 -18.375 16.796875 -18.335938 16.796875 -18.265625 C 16.742188 -17.722656 16.6875 -16.894531 16.625 -15.78125 C 16.570312 -14.675781 16.546875 -13.78125 16.546875 -13.09375 C 16.546875 -13.050781 16.488281 -13.03125 16.375 -13.03125 C 16.257812 -13.03125 16.203125 -13.050781 16.203125 -13.09375 C 16.148438 -14.550781 15.851562 -15.570312 15.3125 -16.15625 C 14.769531 -16.75 13.867188 -17.046875 12.609375 -17.046875 C 11.765625 -17.046875 11.164062 -17.007812 10.8125 -16.9375 C 10.457031 -16.863281 10.210938 -16.703125 10.078125 -16.453125 C 9.953125 -16.210938 9.890625 -15.804688 9.890625 -15.234375 L 9.890625 -2.28125 C 9.890625 -1.695312 9.953125 -1.273438 10.078125 -1.015625 C 10.210938 -0.753906 10.46875 -0.578125 10.84375 -0.484375 C 11.21875 -0.390625 11.804688 -0.34375 12.609375 -0.34375 C 12.671875 -0.34375 12.703125 -0.285156 12.703125 -0.171875 C 12.703125 -0.0546875 12.671875 0 12.609375 0 C 11.992188 0 11.5 -0.0078125 11.125 -0.03125 L 8.9375 -0.0625 L 6.828125 -0.03125 C 6.453125 -0.0078125 5.9375 0 5.28125 0 C 5.238281 0 5.21875 -0.0546875 5.21875 -0.171875 C 5.21875 -0.285156 5.238281 -0.34375 5.28125 -0.34375 C 6.082031 -0.34375 6.671875 -0.390625 7.046875 -0.484375 C 7.421875 -0.578125 7.675781 -0.757812 7.8125 -1.03125 C 7.957031 -1.300781 8.03125 -1.71875 8.03125 -2.28125 L 8.03125 -15.28125 C 8.03125 -15.863281 7.960938 -16.269531 7.828125 -16.5 C 7.703125 -16.738281 7.460938 -16.890625 7.109375 -16.953125 C 6.753906 -17.015625 6.15625 -17.046875 5.3125 -17.046875 Z M 5.3125 -17.046875 "></path></g></g></g><g fill="#000000" fill-opacity="1"><g transform="translate(182.326321, 25.73404)"><g><path d="M 13.34375 -4.1875 C 13.34375 -4.21875 13.378906 -4.234375 13.453125 -4.234375 C 13.515625 -4.234375 13.566406 -4.222656 13.609375 -4.203125 C 13.660156 -4.191406 13.6875 -4.164062 13.6875 -4.125 C 13.507812 -2.945312 13.421875 -1.710938 13.421875 -0.421875 C 13.421875 -0.273438 13.390625 -0.164062 13.328125 -0.09375 C 13.265625 -0.03125 13.148438 0 12.984375 0 L 1.203125 0 C 1.171875 0 1.15625 -0.0546875 1.15625 -0.171875 C 1.15625 -0.285156 1.171875 -0.34375 1.203125 -0.34375 C 1.921875 -0.34375 2.441406 -0.390625 2.765625 -0.484375 C 3.097656 -0.578125 3.320312 -0.757812 3.4375 -1.03125 C 3.5625 -1.300781 3.625 -1.71875 3.625 -2.28125 L 3.625 -15.28125 C 3.625 -15.84375 3.5625 -16.253906 3.4375 -16.515625 C 3.320312 -16.773438 3.097656 -16.957031 2.765625 -17.0625 C 2.441406 -17.164062 1.921875 -17.21875 1.203125 -17.21875 C 1.171875 -17.21875 1.15625 -17.273438 1.15625 -17.390625 C 1.15625 -17.503906 1.171875 -17.5625 1.203125 -17.5625 L 12.5 -17.5625 C 12.664062 -17.5625 12.75 -17.476562 12.75 -17.3125 L 12.8125 -13.84375 C 12.8125 -13.789062 12.765625 -13.757812 12.671875 -13.75 C 12.578125 -13.738281 12.519531 -13.765625 12.5 -13.828125 C 12.445312 -14.816406 12.144531 -15.585938 11.59375 -16.140625 C 11.050781 -16.691406 10.332031 -16.96875 9.4375 -16.96875 L 7.71875 -16.96875 C 7.070312 -16.96875 6.59375 -16.914062 6.28125 -16.8125 C 5.96875 -16.707031 5.75 -16.53125 5.625 -16.28125 C 5.507812 -16.03125 5.453125 -15.648438 5.453125 -15.140625 L 5.453125 -9.4375 L 8.875 -9.4375 C 9.769531 -9.4375 10.410156 -9.585938 10.796875 -9.890625 C 11.179688 -10.191406 11.375 -10.695312 11.375 -11.40625 C 11.375 -11.445312 11.429688 -11.46875 11.546875 -11.46875 C 11.660156 -11.46875 11.71875 -11.445312 11.71875 -11.40625 L 11.6875 -9.125 C 11.6875 -8.582031 11.695312 -8.171875 11.71875 -7.890625 L 11.75 -6.546875 C 11.75 -6.503906 11.691406 -6.484375 11.578125 -6.484375 C 11.460938 -6.484375 11.40625 -6.503906 11.40625 -6.546875 C 11.40625 -7.367188 11.203125 -7.957031 10.796875 -8.3125 C 10.398438 -8.664062 9.734375 -8.84375 8.796875 -8.84375 L 5.453125 -8.84375 L 5.453125 -2.390625 C 5.453125 -1.859375 5.503906 -1.472656 5.609375 -1.234375 C 5.722656 -0.992188 5.929688 -0.828125 6.234375 -0.734375 C 6.535156 -0.640625 7.003906 -0.59375 7.640625 -0.59375 L 9.890625 -0.59375 C 10.785156 -0.59375 11.53125 -0.910156 12.125 -1.546875 C 12.726562 -2.179688 13.132812 -3.0625 13.34375 -4.1875 Z M 13.34375 -4.1875 "></path></g></g></g><g fill="#000000" fill-opacity="1"><g transform="translate(197.407269, 25.73404)"><g><path d="M 5.390625 -2.390625 C 5.390625 -1.785156 5.46875 -1.347656 5.625 -1.078125 C 5.789062 -0.804688 6.101562 -0.613281 6.5625 -0.5 C 7.019531 -0.394531 7.742188 -0.34375 8.734375 -0.34375 C 8.796875 -0.34375 8.828125 -0.285156 8.828125 -0.171875 C 8.828125 -0.0546875 8.796875 0 8.734375 0 C 7.960938 0 7.363281 -0.0078125 6.9375 -0.03125 L 4.5 -0.0625 L 2.609375 -0.03125 C 2.253906 -0.0078125 1.78125 0 1.1875 0 C 1.144531 0 1.125 -0.0546875 1.125 -0.171875 C 1.125 -0.285156 1.144531 -0.34375 1.1875 -0.34375 C 1.894531 -0.34375 2.410156 -0.390625 2.734375 -0.484375 C 3.066406 -0.578125 3.285156 -0.757812 3.390625 -1.03125 C 3.503906 -1.300781 3.5625 -1.71875 3.5625 -2.28125 L 3.5625 -15.28125 C 3.5625 -15.84375 3.503906 -16.253906 3.390625 -16.515625 C 3.285156 -16.773438 3.066406 -16.957031 2.734375 -17.0625 C 2.410156 -17.164062 1.894531 -17.21875 1.1875 -17.21875 C 1.144531 -17.21875 1.125 -17.273438 1.125 -17.390625 C 1.125 -17.503906 1.144531 -17.5625 1.1875 -17.5625 L 2.578125 -17.53125 C 3.367188 -17.488281 4 -17.46875 4.46875 -17.46875 C 4.9375 -17.46875 5.460938 -17.5 6.046875 -17.5625 C 6.265625 -17.5625 6.617188 -17.570312 7.109375 -17.59375 C 7.597656 -17.625 8.019531 -17.640625 8.375 -17.640625 C 10.09375 -17.640625 11.472656 -17.253906 12.515625 -16.484375 C 13.554688 -15.722656 14.078125 -14.554688 14.078125 -12.984375 C 14.078125 -11.742188 13.769531 -10.703125 13.15625 -9.859375 C 12.550781 -9.015625 11.773438 -8.382812 10.828125 -7.96875 C 9.878906 -7.5625 8.898438 -7.359375 7.890625 -7.359375 C 7.328125 -7.359375 6.867188 -7.40625 6.515625 -7.5 C 6.460938 -7.5 6.4375 -7.546875 6.4375 -7.640625 C 6.4375 -7.691406 6.445312 -7.742188 6.46875 -7.796875 C 6.5 -7.859375 6.535156 -7.878906 6.578125 -7.859375 C 6.878906 -7.785156 7.210938 -7.75 7.578125 -7.75 C 8.816406 -7.75 9.863281 -8.148438 10.71875 -8.953125 C 11.570312 -9.765625 12 -10.929688 12 -12.453125 C 12 -13.929688 11.59375 -15.09375 10.78125 -15.9375 C 9.976562 -16.789062 8.953125 -17.21875 7.703125 -17.21875 C 7.023438 -17.21875 6.535156 -17.179688 6.234375 -17.109375 C 5.929688 -17.035156 5.710938 -16.863281 5.578125 -16.59375 C 5.453125 -16.320312 5.390625 -15.867188 5.390625 -15.234375 Z M 5.390625 -2.390625 "></path></g></g></g><g fill="#000000" fill-opacity="1"><g transform="translate(212.656711, 25.73404)"><g><path d="M 13.34375 -4.1875 C 13.34375 -4.21875 13.378906 -4.234375 13.453125 -4.234375 C 13.515625 -4.234375 13.566406 -4.222656 13.609375 -4.203125 C 13.660156 -4.191406 13.6875 -4.164062 13.6875 -4.125 C 13.507812 -2.945312 13.421875 -1.710938 13.421875 -0.421875 C 13.421875 -0.273438 13.390625 -0.164062 13.328125 -0.09375 C 13.265625 -0.03125 13.148438 0 12.984375 0 L 1.203125 0 C 1.171875 0 1.15625 -0.0546875 1.15625 -0.171875 C 1.15625 -0.285156 1.171875 -0.34375 1.203125 -0.34375 C 1.921875 -0.34375 2.441406 -0.390625 2.765625 -0.484375 C 3.097656 -0.578125 3.320312 -0.757812 3.4375 -1.03125 C 3.5625 -1.300781 3.625 -1.71875 3.625 -2.28125 L 3.625 -15.28125 C 3.625 -15.84375 3.5625 -16.253906 3.4375 -16.515625 C 3.320312 -16.773438 3.097656 -16.957031 2.765625 -17.0625 C 2.441406 -17.164062 1.921875 -17.21875 1.203125 -17.21875 C 1.171875 -17.21875 1.15625 -17.273438 1.15625 -17.390625 C 1.15625 -17.503906 1.171875 -17.5625 1.203125 -17.5625 L 12.5 -17.5625 C 12.664062 -17.5625 12.75 -17.476562 12.75 -17.3125 L 12.8125 -13.84375 C 12.8125 -13.789062 12.765625 -13.757812 12.671875 -13.75 C 12.578125 -13.738281 12.519531 -13.765625 12.5 -13.828125 C 12.445312 -14.816406 12.144531 -15.585938 11.59375 -16.140625 C 11.050781 -16.691406 10.332031 -16.96875 9.4375 -16.96875 L 7.71875 -16.96875 C 7.070312 -16.96875 6.59375 -16.914062 6.28125 -16.8125 C 5.96875 -16.707031 5.75 -16.53125 5.625 -16.28125 C 5.507812 -16.03125 5.453125 -15.648438 5.453125 -15.140625 L 5.453125 -9.4375 L 8.875 -9.4375 C 9.769531 -9.4375 10.410156 -9.585938 10.796875 -9.890625 C 11.179688 -10.191406 11.375 -10.695312 11.375 -11.40625 C 11.375 -11.445312 11.429688 -11.46875 11.546875 -11.46875 C 11.660156 -11.46875 11.71875 -11.445312 11.71875 -11.40625 L 11.6875 -9.125 C 11.6875 -8.582031 11.695312 -8.171875 11.71875 -7.890625 L 11.75 -6.546875 C 11.75 -6.503906 11.691406 -6.484375 11.578125 -6.484375 C 11.460938 -6.484375 11.40625 -6.503906 11.40625 -6.546875 C 11.40625 -7.367188 11.203125 -7.957031 10.796875 -8.3125 C 10.398438 -8.664062 9.734375 -8.84375 8.796875 -8.84375 L 5.453125 -8.84375 L 5.453125 -2.390625 C 5.453125 -1.859375 5.503906 -1.472656 5.609375 -1.234375 C 5.722656 -0.992188 5.929688 -0.828125 6.234375 -0.734375 C 6.535156 -0.640625 7.003906 -0.59375 7.640625 -0.59375 L 9.890625 -0.59375 C 10.785156 -0.59375 11.53125 -0.910156 12.125 -1.546875 C 12.726562 -2.179688 13.132812 -3.0625 13.34375 -4.1875 Z M 13.34375 -4.1875 "></path></g></g></g><g fill="#000000" fill-opacity="1"><g transform="translate(227.737659, 25.73404)"><g><path d="M 20.28125 -17.5625 C 20.34375 -17.5625 20.375 -17.503906 20.375 -17.390625 C 20.375 -17.273438 20.34375 -17.21875 20.28125 -17.21875 C 19.570312 -17.21875 19.046875 -17.164062 18.703125 -17.0625 C 18.367188 -16.957031 18.140625 -16.773438 18.015625 -16.515625 C 17.898438 -16.253906 17.84375 -15.84375 17.84375 -15.28125 L 17.84375 -2.28125 C 17.84375 -1.582031 17.878906 -1.113281 17.953125 -0.875 C 18.023438 -0.644531 18.1875 -0.5 18.4375 -0.4375 C 18.695312 -0.375 19.207031 -0.34375 19.96875 -0.34375 C 20.101562 -0.34375 20.179688 -0.328125 20.203125 -0.296875 C 20.234375 -0.265625 20.25 -0.164062 20.25 0 L 20.25 0.8125 C 20.21875 1.75 20.203125 3.226562 20.203125 5.25 C 20.203125 5.34375 20.144531 5.390625 20.03125 5.390625 C 19.914062 5.390625 19.859375 5.34375 19.859375 5.25 C 19.859375 3.34375 19.550781 1.988281 18.9375 1.1875 C 18.320312 0.394531 17.269531 0 15.78125 0 L 13.5625 0 C 13.507812 0 13.484375 -0.0546875 13.484375 -0.171875 C 13.484375 -0.285156 13.507812 -0.34375 13.5625 -0.34375 C 14.300781 -0.34375 14.835938 -0.390625 15.171875 -0.484375 C 15.503906 -0.578125 15.734375 -0.757812 15.859375 -1.03125 C 15.984375 -1.300781 16.046875 -1.71875 16.046875 -2.28125 L 16.046875 -8.84375 L 5.25 -8.84375 L 5.25 -2.28125 C 5.25 -1.71875 5.3125 -1.300781 5.4375 -1.03125 C 5.5625 -0.757812 5.789062 -0.578125 6.125 -0.484375 C 6.457031 -0.390625 6.988281 -0.34375 7.71875 -0.34375 C 7.757812 -0.34375 7.78125 -0.285156 7.78125 -0.171875 C 7.78125 -0.0546875 7.757812 0 7.71875 0 C 7.144531 0 6.6875 -0.0078125 6.34375 -0.03125 L 4.328125 -0.0625 L 2.390625 -0.03125 C 2.046875 -0.0078125 1.578125 0 0.984375 0 C 0.941406 0 0.921875 -0.0546875 0.921875 -0.171875 C 0.921875 -0.285156 0.941406 -0.34375 0.984375 -0.34375 C 1.691406 -0.34375 2.21875 -0.390625 2.5625 -0.484375 C 2.914062 -0.578125 3.148438 -0.757812 3.265625 -1.03125 C 3.390625 -1.300781 3.453125 -1.71875 3.453125 -2.28125 L 3.453125 -15.28125 C 3.453125 -15.84375 3.390625 -16.253906 3.265625 -16.515625 C 3.148438 -16.773438 2.921875 -16.957031 2.578125 -17.0625 C 2.242188 -17.164062 1.722656 -17.21875 1.015625 -17.21875 C 0.972656 -17.21875 0.953125 -17.273438 0.953125 -17.390625 C 0.953125 -17.503906 0.972656 -17.5625 1.015625 -17.5625 L 2.4375 -17.53125 C 3.226562 -17.488281 3.859375 -17.46875 4.328125 -17.46875 C 4.867188 -17.46875 5.550781 -17.488281 6.375 -17.53125 L 7.71875 -17.5625 C 7.757812 -17.5625 7.78125 -17.503906 7.78125 -17.390625 C 7.78125 -17.273438 7.757812 -17.21875 7.71875 -17.21875 C 7.007812 -17.21875 6.484375 -17.160156 6.140625 -17.046875 C 5.796875 -16.941406 5.5625 -16.75 5.4375 -16.46875 C 5.3125 -16.195312 5.25 -15.785156 5.25 -15.234375 L 5.25 -9.4375 L 16.046875 -9.4375 L 16.046875 -15.234375 C 16.046875 -15.785156 15.984375 -16.195312 15.859375 -16.46875 C 15.734375 -16.75 15.503906 -16.941406 15.171875 -17.046875 C 14.835938 -17.160156 14.300781 -17.21875 13.5625 -17.21875 C 13.507812 -17.21875 13.484375 -17.273438 13.484375 -17.390625 C 13.484375 -17.503906 13.507812 -17.5625 13.5625 -17.5625 L 14.890625 -17.53125 C 15.710938 -17.488281 16.40625 -17.46875 16.96875 -17.46875 C 17.476562 -17.46875 18.125 -17.488281 18.90625 -17.53125 Z M 20.28125 -17.5625 "></path></g></g></g><g fill="#000000" fill-opacity="1"><g transform="translate(0.847612, 64.731547)"><g><path d="M 17.3125 -17.5625 C 17.34375 -17.5625 17.359375 -17.503906 17.359375 -17.390625 C 17.359375 -17.273438 17.34375 -17.21875 17.3125 -17.21875 C 16.820312 -17.21875 16.351562 -17.039062 15.90625 -16.6875 C 15.46875 -16.332031 15.09375 -15.816406 14.78125 -15.140625 L 9.546875 -3.984375 C 9.003906 -2.804688 8.671875 -2.050781 8.546875 -1.71875 C 8.296875 -1.132812 8.113281 -0.738281 8 -0.53125 C 7.894531 -0.320312 7.773438 -0.179688 7.640625 -0.109375 C 7.503906 -0.0351562 7.316406 0 7.078125 0 L 2.8125 0 C 2.75 0 2.71875 -0.0546875 2.71875 -0.171875 C 2.71875 -0.285156 2.75 -0.34375 2.8125 -0.34375 C 4.175781 -0.34375 5.359375 -0.628906 6.359375 -1.203125 C 7.359375 -1.785156 8.171875 -2.710938 8.796875 -3.984375 L 2.71875 -15.234375 C 2.332031 -15.972656 1.96875 -16.488281 1.625 -16.78125 C 1.289062 -17.070312 0.84375 -17.21875 0.28125 -17.21875 C 0.238281 -17.21875 0.21875 -17.273438 0.21875 -17.390625 C 0.21875 -17.503906 0.238281 -17.5625 0.28125 -17.5625 L 1.40625 -17.53125 C 1.96875 -17.488281 2.445312 -17.46875 2.84375 -17.46875 C 3.53125 -17.46875 4.269531 -17.488281 5.0625 -17.53125 L 6.203125 -17.5625 C 6.242188 -17.5625 6.265625 -17.503906 6.265625 -17.390625 C 6.265625 -17.273438 6.242188 -17.21875 6.203125 -17.21875 C 5.046875 -17.21875 4.46875 -16.921875 4.46875 -16.328125 C 4.46875 -16.117188 4.550781 -15.84375 4.71875 -15.5 L 9.8125 -6.125 L 14.125 -15.28125 C 14.300781 -15.613281 14.390625 -15.90625 14.390625 -16.15625 C 14.390625 -16.863281 13.648438 -17.21875 12.171875 -17.21875 C 12.109375 -17.21875 12.078125 -17.273438 12.078125 -17.390625 C 12.078125 -17.503906 12.109375 -17.5625 12.171875 -17.5625 L 13.3125 -17.53125 C 13.945312 -17.488281 14.53125 -17.46875 15.0625 -17.46875 C 15.375 -17.46875 15.753906 -17.488281 16.203125 -17.53125 Z M 17.3125 -17.5625 "></path></g></g></g><g fill="#000000" fill-opacity="1"><g transform="translate(18.006742, 64.731547)"><g><path d="M 5.390625 -2.390625 C 5.390625 -1.785156 5.46875 -1.347656 5.625 -1.078125 C 5.789062 -0.804688 6.101562 -0.613281 6.5625 -0.5 C 7.019531 -0.394531 7.742188 -0.34375 8.734375 -0.34375 C 8.796875 -0.34375 8.828125 -0.285156 8.828125 -0.171875 C 8.828125 -0.0546875 8.796875 0 8.734375 0 C 7.960938 0 7.363281 -0.0078125 6.9375 -0.03125 L 4.5 -0.0625 L 2.609375 -0.03125 C 2.253906 -0.0078125 1.78125 0 1.1875 0 C 1.144531 0 1.125 -0.0546875 1.125 -0.171875 C 1.125 -0.285156 1.144531 -0.34375 1.1875 -0.34375 C 1.894531 -0.34375 2.410156 -0.390625 2.734375 -0.484375 C 3.066406 -0.578125 3.285156 -0.757812 3.390625 -1.03125 C 3.503906 -1.300781 3.5625 -1.71875 3.5625 -2.28125 L 3.5625 -15.28125 C 3.5625 -15.84375 3.503906 -16.253906 3.390625 -16.515625 C 3.285156 -16.773438 3.066406 -16.957031 2.734375 -17.0625 C 2.410156 -17.164062 1.894531 -17.21875 1.1875 -17.21875 C 1.144531 -17.21875 1.125 -17.273438 1.125 -17.390625 C 1.125 -17.503906 1.144531 -17.5625 1.1875 -17.5625 L 2.578125 -17.53125 C 3.367188 -17.488281 4 -17.46875 4.46875 -17.46875 C 4.9375 -17.46875 5.460938 -17.5 6.046875 -17.5625 C 6.265625 -17.5625 6.617188 -17.570312 7.109375 -17.59375 C 7.597656 -17.625 8.019531 -17.640625 8.375 -17.640625 C 10.09375 -17.640625 11.472656 -17.253906 12.515625 -16.484375 C 13.554688 -15.722656 14.078125 -14.554688 14.078125 -12.984375 C 14.078125 -11.742188 13.769531 -10.703125 13.15625 -9.859375 C 12.550781 -9.015625 11.773438 -8.382812 10.828125 -7.96875 C 9.878906 -7.5625 8.898438 -7.359375 7.890625 -7.359375 C 7.328125 -7.359375 6.867188 -7.40625 6.515625 -7.5 C 6.460938 -7.5 6.4375 -7.546875 6.4375 -7.640625 C 6.4375 -7.691406 6.445312 -7.742188 6.46875 -7.796875 C 6.5 -7.859375 6.535156 -7.878906 6.578125 -7.859375 C 6.878906 -7.785156 7.210938 -7.75 7.578125 -7.75 C 8.816406 -7.75 9.863281 -8.148438 10.71875 -8.953125 C 11.570312 -9.765625 12 -10.929688 12 -12.453125 C 12 -13.929688 11.59375 -15.09375 10.78125 -15.9375 C 9.976562 -16.789062 8.953125 -17.21875 7.703125 -17.21875 C 7.023438 -17.21875 6.535156 -17.179688 6.234375 -17.109375 C 5.929688 -17.035156 5.710938 -16.863281 5.578125 -16.59375 C 5.453125 -16.320312 5.390625 -15.867188 5.390625 -15.234375 Z M 5.390625 -2.390625 "></path></g></g></g><g fill="#000000" fill-opacity="1"><g transform="translate(33.256184, 64.731547)"><g><path d="M 22.8125 -0.34375 C 22.863281 -0.34375 22.890625 -0.285156 22.890625 -0.171875 C 22.890625 -0.0546875 22.863281 0 22.8125 0 C 22.226562 0 21.769531 -0.0078125 21.4375 -0.03125 L 19.5 -0.0625 L 17.703125 -0.03125 C 17.398438 -0.0078125 16.976562 0 16.4375 0 C 16.394531 0 16.375 -0.0546875 16.375 -0.171875 C 16.375 -0.285156 16.394531 -0.34375 16.4375 -0.34375 C 17.070312 -0.34375 17.539062 -0.390625 17.84375 -0.484375 C 18.15625 -0.585938 18.363281 -0.769531 18.46875 -1.03125 C 18.570312 -1.300781 18.601562 -1.71875 18.5625 -2.28125 L 18.0625 -15.0625 L 11.65625 -0.203125 C 11.625 -0.117188 11.550781 -0.078125 11.4375 -0.078125 C 11.34375 -0.078125 11.257812 -0.117188 11.1875 -0.203125 L 4.265625 -14.890625 L 4.015625 -3.0625 C 3.992188 -2.070312 4.160156 -1.367188 4.515625 -0.953125 C 4.878906 -0.546875 5.507812 -0.34375 6.40625 -0.34375 C 6.445312 -0.34375 6.46875 -0.285156 6.46875 -0.171875 C 6.46875 -0.0546875 6.445312 0 6.40625 0 C 5.882812 0 5.484375 -0.0078125 5.203125 -0.03125 L 3.6875 -0.0625 L 2.21875 -0.03125 C 1.957031 -0.0078125 1.582031 0 1.09375 0 C 1.0625 0 1.046875 -0.0546875 1.046875 -0.171875 C 1.046875 -0.285156 1.0625 -0.34375 1.09375 -0.34375 C 1.882812 -0.34375 2.453125 -0.550781 2.796875 -0.96875 C 3.140625 -1.382812 3.320312 -2.082031 3.34375 -3.0625 L 3.59375 -16.09375 C 3.03125 -16.84375 2.265625 -17.21875 1.296875 -17.21875 C 1.253906 -17.21875 1.234375 -17.273438 1.234375 -17.390625 C 1.234375 -17.503906 1.253906 -17.5625 1.296875 -17.5625 L 2.328125 -17.53125 C 2.515625 -17.507812 2.78125 -17.5 3.125 -17.5 C 3.457031 -17.5 3.738281 -17.507812 3.96875 -17.53125 C 4.207031 -17.550781 4.390625 -17.5625 4.515625 -17.5625 C 4.765625 -17.5625 4.96875 -17.472656 5.125 -17.296875 C 5.28125 -17.117188 5.507812 -16.71875 5.8125 -16.09375 L 12.078125 -2.890625 L 18.203125 -16.859375 C 18.410156 -17.328125 18.691406 -17.5625 19.046875 -17.5625 C 19.140625 -17.5625 19.273438 -17.550781 19.453125 -17.53125 C 19.628906 -17.507812 19.867188 -17.5 20.171875 -17.5 L 21.484375 -17.53125 C 21.691406 -17.550781 22.003906 -17.5625 22.421875 -17.5625 C 22.472656 -17.5625 22.5 -17.503906 22.5 -17.390625 C 22.5 -17.273438 22.472656 -17.21875 22.421875 -17.21875 C 21.484375 -17.21875 20.8125 -17.082031 20.40625 -16.8125 C 20.007812 -16.539062 19.816406 -16.03125 19.828125 -15.28125 L 20.390625 -2.28125 C 20.410156 -1.695312 20.484375 -1.273438 20.609375 -1.015625 C 20.734375 -0.753906 20.953125 -0.578125 21.265625 -0.484375 C 21.585938 -0.390625 22.101562 -0.34375 22.8125 -0.34375 Z M 22.8125 -0.34375 "></path></g></g></g><g fill="#000000" fill-opacity="1"><g transform="translate(56.734148, 64.731547)"><g><path d="M 19.640625 -0.34375 C 19.710938 -0.34375 19.75 -0.285156 19.75 -0.171875 C 19.75 -0.0546875 19.710938 0 19.640625 0 C 19.285156 0 18.734375 -0.0195312 17.984375 -0.0625 C 17.234375 -0.09375 16.6875 -0.109375 16.34375 -0.109375 C 15.9375 -0.109375 15.414062 -0.09375 14.78125 -0.0625 C 14.175781 -0.0195312 13.71875 0 13.40625 0 C 13.320312 0 13.28125 -0.0546875 13.28125 -0.171875 C 13.28125 -0.285156 13.320312 -0.34375 13.40625 -0.34375 C 14.09375 -0.34375 14.59375 -0.40625 14.90625 -0.53125 C 15.226562 -0.664062 15.390625 -0.890625 15.390625 -1.203125 C 15.390625 -1.460938 15.269531 -1.867188 15.03125 -2.421875 L 12.53125 -7.71875 L 5.84375 -7.71875 L 4.078125 -3.5625 C 3.816406 -2.925781 3.6875 -2.410156 3.6875 -2.015625 C 3.6875 -1.441406 3.914062 -1.019531 4.375 -0.75 C 4.832031 -0.476562 5.519531 -0.34375 6.4375 -0.34375 C 6.53125 -0.34375 6.578125 -0.285156 6.578125 -0.171875 C 6.578125 -0.0546875 6.53125 0 6.4375 0 C 6.09375 0 5.601562 -0.0195312 4.96875 -0.0625 C 4.257812 -0.09375 3.644531 -0.109375 3.125 -0.109375 C 2.632812 -0.109375 2.070312 -0.09375 1.4375 -0.0625 C 0.875 -0.0195312 0.40625 0 0.03125 0 C -0.0625 0 -0.109375 -0.0546875 -0.109375 -0.171875 C -0.109375 -0.285156 -0.0625 -0.34375 0.03125 -0.34375 C 0.550781 -0.34375 0.992188 -0.4375 1.359375 -0.625 C 1.722656 -0.820312 2.066406 -1.171875 2.390625 -1.671875 C 2.722656 -2.171875 3.085938 -2.890625 3.484375 -3.828125 L 9.40625 -17.8125 C 9.445312 -17.863281 9.515625 -17.890625 9.609375 -17.890625 C 9.703125 -17.890625 9.757812 -17.863281 9.78125 -17.8125 L 16.40625 -3.84375 C 17.039062 -2.457031 17.582031 -1.523438 18.03125 -1.046875 C 18.476562 -0.578125 19.015625 -0.34375 19.640625 -0.34375 Z M 6.0625 -8.28125 L 12.28125 -8.28125 L 8.984375 -15.234375 Z M 6.0625 -8.28125 "></path></g></g></g><g fill="#000000" fill-opacity="1"><g transform="translate(74.48221, 64.731547)"><g><path d="M 5.3125 -17.046875 C 4.132812 -17.046875 3.25 -16.742188 2.65625 -16.140625 C 2.0625 -15.546875 1.632812 -14.53125 1.375 -13.09375 C 1.375 -13.050781 1.320312 -13.03125 1.21875 -13.03125 C 1.113281 -13.03125 1.0625 -13.050781 1.0625 -13.09375 C 1.144531 -13.769531 1.226562 -14.648438 1.3125 -15.734375 C 1.40625 -16.816406 1.453125 -17.628906 1.453125 -18.171875 C 1.453125 -18.265625 1.503906 -18.3125 1.609375 -18.3125 C 1.710938 -18.3125 1.765625 -18.265625 1.765625 -18.171875 C 1.765625 -17.765625 2.269531 -17.5625 3.28125 -17.5625 C 4.875 -17.5 6.757812 -17.46875 8.9375 -17.46875 C 10.039062 -17.46875 11.210938 -17.488281 12.453125 -17.53125 L 14.359375 -17.5625 C 15.035156 -17.5625 15.535156 -17.609375 15.859375 -17.703125 C 16.179688 -17.796875 16.390625 -17.984375 16.484375 -18.265625 C 16.503906 -18.335938 16.5625 -18.375 16.65625 -18.375 C 16.75 -18.375 16.796875 -18.335938 16.796875 -18.265625 C 16.742188 -17.722656 16.6875 -16.894531 16.625 -15.78125 C 16.570312 -14.675781 16.546875 -13.78125 16.546875 -13.09375 C 16.546875 -13.050781 16.488281 -13.03125 16.375 -13.03125 C 16.257812 -13.03125 16.203125 -13.050781 16.203125 -13.09375 C 16.148438 -14.550781 15.851562 -15.570312 15.3125 -16.15625 C 14.769531 -16.75 13.867188 -17.046875 12.609375 -17.046875 C 11.765625 -17.046875 11.164062 -17.007812 10.8125 -16.9375 C 10.457031 -16.863281 10.210938 -16.703125 10.078125 -16.453125 C 9.953125 -16.210938 9.890625 -15.804688 9.890625 -15.234375 L 9.890625 -2.28125 C 9.890625 -1.695312 9.953125 -1.273438 10.078125 -1.015625 C 10.210938 -0.753906 10.46875 -0.578125 10.84375 -0.484375 C 11.21875 -0.390625 11.804688 -0.34375 12.609375 -0.34375 C 12.671875 -0.34375 12.703125 -0.285156 12.703125 -0.171875 C 12.703125 -0.0546875 12.671875 0 12.609375 0 C 11.992188 0 11.5 -0.0078125 11.125 -0.03125 L 8.9375 -0.0625 L 6.828125 -0.03125 C 6.453125 -0.0078125 5.9375 0 5.28125 0 C 5.238281 0 5.21875 -0.0546875 5.21875 -0.171875 C 5.21875 -0.285156 5.238281 -0.34375 5.28125 -0.34375 C 6.082031 -0.34375 6.671875 -0.390625 7.046875 -0.484375 C 7.421875 -0.578125 7.675781 -0.757812 7.8125 -1.03125 C 7.957031 -1.300781 8.03125 -1.71875 8.03125 -2.28125 L 8.03125 -15.28125 C 8.03125 -15.863281 7.960938 -16.269531 7.828125 -16.5 C 7.703125 -16.738281 7.460938 -16.890625 7.109375 -16.953125 C 6.753906 -17.015625 6.15625 -17.046875 5.3125 -17.046875 Z M 5.3125 -17.046875 "></path></g></g></g><g fill="#000000" fill-opacity="1"><g transform="translate(92.287267, 64.731547)"><g><path d="M 5.3125 -17.046875 C 4.132812 -17.046875 3.25 -16.742188 2.65625 -16.140625 C 2.0625 -15.546875 1.632812 -14.53125 1.375 -13.09375 C 1.375 -13.050781 1.320312 -13.03125 1.21875 -13.03125 C 1.113281 -13.03125 1.0625 -13.050781 1.0625 -13.09375 C 1.144531 -13.769531 1.226562 -14.648438 1.3125 -15.734375 C 1.40625 -16.816406 1.453125 -17.628906 1.453125 -18.171875 C 1.453125 -18.265625 1.503906 -18.3125 1.609375 -18.3125 C 1.710938 -18.3125 1.765625 -18.265625 1.765625 -18.171875 C 1.765625 -17.765625 2.269531 -17.5625 3.28125 -17.5625 C 4.875 -17.5 6.757812 -17.46875 8.9375 -17.46875 C 10.039062 -17.46875 11.210938 -17.488281 12.453125 -17.53125 L 14.359375 -17.5625 C 15.035156 -17.5625 15.535156 -17.609375 15.859375 -17.703125 C 16.179688 -17.796875 16.390625 -17.984375 16.484375 -18.265625 C 16.503906 -18.335938 16.5625 -18.375 16.65625 -18.375 C 16.75 -18.375 16.796875 -18.335938 16.796875 -18.265625 C 16.742188 -17.722656 16.6875 -16.894531 16.625 -15.78125 C 16.570312 -14.675781 16.546875 -13.78125 16.546875 -13.09375 C 16.546875 -13.050781 16.488281 -13.03125 16.375 -13.03125 C 16.257812 -13.03125 16.203125 -13.050781 16.203125 -13.09375 C 16.148438 -14.550781 15.851562 -15.570312 15.3125 -16.15625 C 14.769531 -16.75 13.867188 -17.046875 12.609375 -17.046875 C 11.765625 -17.046875 11.164062 -17.007812 10.8125 -16.9375 C 10.457031 -16.863281 10.210938 -16.703125 10.078125 -16.453125 C 9.953125 -16.210938 9.890625 -15.804688 9.890625 -15.234375 L 9.890625 -2.28125 C 9.890625 -1.695312 9.953125 -1.273438 10.078125 -1.015625 C 10.210938 -0.753906 10.46875 -0.578125 10.84375 -0.484375 C 11.21875 -0.390625 11.804688 -0.34375 12.609375 -0.34375 C 12.671875 -0.34375 12.703125 -0.285156 12.703125 -0.171875 C 12.703125 -0.0546875 12.671875 0 12.609375 0 C 11.992188 0 11.5 -0.0078125 11.125 -0.03125 L 8.9375 -0.0625 L 6.828125 -0.03125 C 6.453125 -0.0078125 5.9375 0 5.28125 0 C 5.238281 0 5.21875 -0.0546875 5.21875 -0.171875 C 5.21875 -0.285156 5.238281 -0.34375 5.28125 -0.34375 C 6.082031 -0.34375 6.671875 -0.390625 7.046875 -0.484375 C 7.421875 -0.578125 7.675781 -0.757812 7.8125 -1.03125 C 7.957031 -1.300781 8.03125 -1.71875 8.03125 -2.28125 L 8.03125 -15.28125 C 8.03125 -15.863281 7.960938 -16.269531 7.828125 -16.5 C 7.703125 -16.738281 7.460938 -16.890625 7.109375 -16.953125 C 6.753906 -17.015625 6.15625 -17.046875 5.3125 -17.046875 Z M 5.3125 -17.046875 "></path></g></g></g><g fill="#000000" fill-opacity="1"><g transform="translate(109.727079, 64.731547)"><g><path d="M 10.28125 0.34375 C 8.539062 0.34375 6.988281 -0.0625 5.625 -0.875 C 4.269531 -1.695312 3.222656 -2.804688 2.484375 -4.203125 C 1.742188 -5.597656 1.375 -7.117188 1.375 -8.765625 C 1.375 -10.691406 1.859375 -12.34375 2.828125 -13.71875 C 3.804688 -15.09375 5.054688 -16.128906 6.578125 -16.828125 C 8.109375 -17.523438 9.671875 -17.875 11.265625 -17.875 C 13.046875 -17.875 14.609375 -17.457031 15.953125 -16.625 C 17.304688 -15.789062 18.34375 -14.6875 19.0625 -13.3125 C 19.78125 -11.945312 20.140625 -10.5 20.140625 -8.96875 C 20.140625 -7.257812 19.691406 -5.691406 18.796875 -4.265625 C 17.898438 -2.847656 16.695312 -1.722656 15.1875 -0.890625 C 13.675781 -0.0664062 12.039062 0.34375 10.28125 0.34375 Z M 11.265625 -0.25 C 12.535156 -0.25 13.679688 -0.554688 14.703125 -1.171875 C 15.722656 -1.796875 16.53125 -2.707031 17.125 -3.90625 C 17.71875 -5.101562 18.015625 -6.523438 18.015625 -8.171875 C 18.015625 -9.929688 17.6875 -11.492188 17.03125 -12.859375 C 16.375 -14.234375 15.445312 -15.300781 14.25 -16.0625 C 13.0625 -16.832031 11.671875 -17.21875 10.078125 -17.21875 C 8.023438 -17.21875 6.414062 -16.550781 5.25 -15.21875 C 4.09375 -13.894531 3.515625 -12.070312 3.515625 -9.75 C 3.515625 -7.988281 3.84375 -6.378906 4.5 -4.921875 C 5.15625 -3.472656 6.070312 -2.332031 7.25 -1.5 C 8.425781 -0.664062 9.765625 -0.25 11.265625 -0.25 Z M 11.265625 -0.25 "></path></g></g></g><g fill="#000000" fill-opacity="1"><g transform="translate(131.23918, 64.731547)"><g><path d="M 10.28125 0.34375 C 8.539062 0.34375 6.988281 -0.0625 5.625 -0.875 C 4.269531 -1.695312 3.222656 -2.804688 2.484375 -4.203125 C 1.742188 -5.597656 1.375 -7.117188 1.375 -8.765625 C 1.375 -10.691406 1.859375 -12.34375 2.828125 -13.71875 C 3.804688 -15.09375 5.054688 -16.128906 6.578125 -16.828125 C 8.109375 -17.523438 9.671875 -17.875 11.265625 -17.875 C 13.046875 -17.875 14.609375 -17.457031 15.953125 -16.625 C 17.304688 -15.789062 18.34375 -14.6875 19.0625 -13.3125 C 19.78125 -11.945312 20.140625 -10.5 20.140625 -8.96875 C 20.140625 -7.257812 19.691406 -5.691406 18.796875 -4.265625 C 17.898438 -2.847656 16.695312 -1.722656 15.1875 -0.890625 C 13.675781 -0.0664062 12.039062 0.34375 10.28125 0.34375 Z M 11.265625 -0.25 C 12.535156 -0.25 13.679688 -0.554688 14.703125 -1.171875 C 15.722656 -1.796875 16.53125 -2.707031 17.125 -3.90625 C 17.71875 -5.101562 18.015625 -6.523438 18.015625 -8.171875 C 18.015625 -9.929688 17.6875 -11.492188 17.03125 -12.859375 C 16.375 -14.234375 15.445312 -15.300781 14.25 -16.0625 C 13.0625 -16.832031 11.671875 -17.21875 10.078125 -17.21875 C 8.023438 -17.21875 6.414062 -16.550781 5.25 -15.21875 C 4.09375 -13.894531 3.515625 -12.070312 3.515625 -9.75 C 3.515625 -7.988281 3.84375 -6.378906 4.5 -4.921875 C 5.15625 -3.472656 6.070312 -2.332031 7.25 -1.5 C 8.425781 -0.664062 9.765625 -0.25 11.265625 -0.25 Z M 11.265625 -0.25 "></path></g></g></g><g fill="#000000" fill-opacity="1"><g transform="translate(152.751282, 64.731547)"><g></g></g></g><g fill="#000000" fill-opacity="1"><g transform="translate(159.322868, 64.731547)"><g><path d="M 22.8125 -0.34375 C 22.863281 -0.34375 22.890625 -0.285156 22.890625 -0.171875 C 22.890625 -0.0546875 22.863281 0 22.8125 0 C 22.226562 0 21.769531 -0.0078125 21.4375 -0.03125 L 19.5 -0.0625 L 17.703125 -0.03125 C 17.398438 -0.0078125 16.976562 0 16.4375 0 C 16.394531 0 16.375 -0.0546875 16.375 -0.171875 C 16.375 -0.285156 16.394531 -0.34375 16.4375 -0.34375 C 17.070312 -0.34375 17.539062 -0.390625 17.84375 -0.484375 C 18.15625 -0.585938 18.363281 -0.769531 18.46875 -1.03125 C 18.570312 -1.300781 18.601562 -1.71875 18.5625 -2.28125 L 18.0625 -15.0625 L 11.65625 -0.203125 C 11.625 -0.117188 11.550781 -0.078125 11.4375 -0.078125 C 11.34375 -0.078125 11.257812 -0.117188 11.1875 -0.203125 L 4.265625 -14.890625 L 4.015625 -3.0625 C 3.992188 -2.070312 4.160156 -1.367188 4.515625 -0.953125 C 4.878906 -0.546875 5.507812 -0.34375 6.40625 -0.34375 C 6.445312 -0.34375 6.46875 -0.285156 6.46875 -0.171875 C 6.46875 -0.0546875 6.445312 0 6.40625 0 C 5.882812 0 5.484375 -0.0078125 5.203125 -0.03125 L 3.6875 -0.0625 L 2.21875 -0.03125 C 1.957031 -0.0078125 1.582031 0 1.09375 0 C 1.0625 0 1.046875 -0.0546875 1.046875 -0.171875 C 1.046875 -0.285156 1.0625 -0.34375 1.09375 -0.34375 C 1.882812 -0.34375 2.453125 -0.550781 2.796875 -0.96875 C 3.140625 -1.382812 3.320312 -2.082031 3.34375 -3.0625 L 3.59375 -16.09375 C 3.03125 -16.84375 2.265625 -17.21875 1.296875 -17.21875 C 1.253906 -17.21875 1.234375 -17.273438 1.234375 -17.390625 C 1.234375 -17.503906 1.253906 -17.5625 1.296875 -17.5625 L 2.328125 -17.53125 C 2.515625 -17.507812 2.78125 -17.5 3.125 -17.5 C 3.457031 -17.5 3.738281 -17.507812 3.96875 -17.53125 C 4.207031 -17.550781 4.390625 -17.5625 4.515625 -17.5625 C 4.765625 -17.5625 4.96875 -17.472656 5.125 -17.296875 C 5.28125 -17.117188 5.507812 -16.71875 5.8125 -16.09375 L 12.078125 -2.890625 L 18.203125 -16.859375 C 18.410156 -17.328125 18.691406 -17.5625 19.046875 -17.5625 C 19.140625 -17.5625 19.273438 -17.550781 19.453125 -17.53125 C 19.628906 -17.507812 19.867188 -17.5 20.171875 -17.5 L 21.484375 -17.53125 C 21.691406 -17.550781 22.003906 -17.5625 22.421875 -17.5625 C 22.472656 -17.5625 22.5 -17.503906 22.5 -17.390625 C 22.5 -17.273438 22.472656 -17.21875 22.421875 -17.21875 C 21.484375 -17.21875 20.8125 -17.082031 20.40625 -16.8125 C 20.007812 -16.539062 19.816406 -16.03125 19.828125 -15.28125 L 20.390625 -2.28125 C 20.410156 -1.695312 20.484375 -1.273438 20.609375 -1.015625 C 20.734375 -0.753906 20.953125 -0.578125 21.265625 -0.484375 C 21.585938 -0.390625 22.101562 -0.34375 22.8125 -0.34375 Z M 22.8125 -0.34375 "></path></g></g></g><g fill="#000000" fill-opacity="1"><g transform="translate(182.800832, 64.731547)"><g><path d="M 13.34375 -4.1875 C 13.34375 -4.21875 13.378906 -4.234375 13.453125 -4.234375 C 13.515625 -4.234375 13.566406 -4.222656 13.609375 -4.203125 C 13.660156 -4.191406 13.6875 -4.164062 13.6875 -4.125 C 13.507812 -2.945312 13.421875 -1.710938 13.421875 -0.421875 C 13.421875 -0.273438 13.390625 -0.164062 13.328125 -0.09375 C 13.265625 -0.03125 13.148438 0 12.984375 0 L 1.203125 0 C 1.171875 0 1.15625 -0.0546875 1.15625 -0.171875 C 1.15625 -0.285156 1.171875 -0.34375 1.203125 -0.34375 C 1.921875 -0.34375 2.441406 -0.390625 2.765625 -0.484375 C 3.097656 -0.578125 3.320312 -0.757812 3.4375 -1.03125 C 3.5625 -1.300781 3.625 -1.71875 3.625 -2.28125 L 3.625 -15.28125 C 3.625 -15.84375 3.5625 -16.253906 3.4375 -16.515625 C 3.320312 -16.773438 3.097656 -16.957031 2.765625 -17.0625 C 2.441406 -17.164062 1.921875 -17.21875 1.203125 -17.21875 C 1.171875 -17.21875 1.15625 -17.273438 1.15625 -17.390625 C 1.15625 -17.503906 1.171875 -17.5625 1.203125 -17.5625 L 12.5 -17.5625 C 12.664062 -17.5625 12.75 -17.476562 12.75 -17.3125 L 12.8125 -13.84375 C 12.8125 -13.789062 12.765625 -13.757812 12.671875 -13.75 C 12.578125 -13.738281 12.519531 -13.765625 12.5 -13.828125 C 12.445312 -14.816406 12.144531 -15.585938 11.59375 -16.140625 C 11.050781 -16.691406 10.332031 -16.96875 9.4375 -16.96875 L 7.71875 -16.96875 C 7.070312 -16.96875 6.59375 -16.914062 6.28125 -16.8125 C 5.96875 -16.707031 5.75 -16.53125 5.625 -16.28125 C 5.507812 -16.03125 5.453125 -15.648438 5.453125 -15.140625 L 5.453125 -9.4375 L 8.875 -9.4375 C 9.769531 -9.4375 10.410156 -9.585938 10.796875 -9.890625 C 11.179688 -10.191406 11.375 -10.695312 11.375 -11.40625 C 11.375 -11.445312 11.429688 -11.46875 11.546875 -11.46875 C 11.660156 -11.46875 11.71875 -11.445312 11.71875 -11.40625 L 11.6875 -9.125 C 11.6875 -8.582031 11.695312 -8.171875 11.71875 -7.890625 L 11.75 -6.546875 C 11.75 -6.503906 11.691406 -6.484375 11.578125 -6.484375 C 11.460938 -6.484375 11.40625 -6.503906 11.40625 -6.546875 C 11.40625 -7.367188 11.203125 -7.957031 10.796875 -8.3125 C 10.398438 -8.664062 9.734375 -8.84375 8.796875 -8.84375 L 5.453125 -8.84375 L 5.453125 -2.390625 C 5.453125 -1.859375 5.503906 -1.472656 5.609375 -1.234375 C 5.722656 -0.992188 5.929688 -0.828125 6.234375 -0.734375 C 6.535156 -0.640625 7.003906 -0.59375 7.640625 -0.59375 L 9.890625 -0.59375 C 10.785156 -0.59375 11.53125 -0.910156 12.125 -1.546875 C 12.726562 -2.179688 13.132812 -3.0625 13.34375 -4.1875 Z M 13.34375 -4.1875 "></path></g></g></g><g fill="#000000" fill-opacity="1"><g transform="translate(197.88178, 64.731547)"><g><path d="M 20.28125 -0.34375 C 20.34375 -0.34375 20.375 -0.285156 20.375 -0.171875 C 20.375 -0.0546875 20.34375 0 20.28125 0 C 19.695312 0 19.238281 -0.0078125 18.90625 -0.03125 L 16.96875 -0.0625 L 14.890625 -0.03125 C 14.566406 -0.0078125 14.125 0 13.5625 0 C 13.507812 0 13.484375 -0.0546875 13.484375 -0.171875 C 13.484375 -0.285156 13.507812 -0.34375 13.5625 -0.34375 C 14.300781 -0.34375 14.835938 -0.390625 15.171875 -0.484375 C 15.503906 -0.578125 15.734375 -0.757812 15.859375 -1.03125 C 15.984375 -1.300781 16.046875 -1.71875 16.046875 -2.28125 L 16.046875 -8.84375 L 5.25 -8.84375 L 5.25 -2.28125 C 5.25 -1.71875 5.3125 -1.300781 5.4375 -1.03125 C 5.5625 -0.757812 5.789062 -0.578125 6.125 -0.484375 C 6.457031 -0.390625 6.988281 -0.34375 7.71875 -0.34375 C 7.757812 -0.34375 7.78125 -0.285156 7.78125 -0.171875 C 7.78125 -0.0546875 7.757812 0 7.71875 0 C 7.144531 0 6.6875 -0.0078125 6.34375 -0.03125 L 4.328125 -0.0625 L 2.390625 -0.03125 C 2.046875 -0.0078125 1.578125 0 0.984375 0 C 0.941406 0 0.921875 -0.0546875 0.921875 -0.171875 C 0.921875 -0.285156 0.941406 -0.34375 0.984375 -0.34375 C 1.691406 -0.34375 2.21875 -0.390625 2.5625 -0.484375 C 2.914062 -0.578125 3.148438 -0.757812 3.265625 -1.03125 C 3.390625 -1.300781 3.453125 -1.71875 3.453125 -2.28125 L 3.453125 -15.28125 C 3.453125 -15.84375 3.390625 -16.253906 3.265625 -16.515625 C 3.148438 -16.773438 2.921875 -16.957031 2.578125 -17.0625 C 2.242188 -17.164062 1.722656 -17.21875 1.015625 -17.21875 C 0.972656 -17.21875 0.953125 -17.273438 0.953125 -17.390625 C 0.953125 -17.503906 0.972656 -17.5625 1.015625 -17.5625 L 2.4375 -17.53125 C 3.226562 -17.488281 3.859375 -17.46875 4.328125 -17.46875 C 4.867188 -17.46875 5.550781 -17.488281 6.375 -17.53125 L 7.71875 -17.5625 C 7.757812 -17.5625 7.78125 -17.503906 7.78125 -17.390625 C 7.78125 -17.273438 7.757812 -17.21875 7.71875 -17.21875 C 7.007812 -17.21875 6.484375 -17.160156 6.140625 -17.046875 C 5.796875 -16.941406 5.5625 -16.75 5.4375 -16.46875 C 5.3125 -16.195312 5.25 -15.785156 5.25 -15.234375 L 5.25 -9.4375 L 16.046875 -9.4375 L 16.046875 -15.234375 C 16.046875 -15.785156 15.984375 -16.195312 15.859375 -16.46875 C 15.734375 -16.75 15.503906 -16.941406 15.171875 -17.046875 C 14.835938 -17.160156 14.300781 -17.21875 13.5625 -17.21875 C 13.507812 -17.21875 13.484375 -17.273438 13.484375 -17.390625 C 13.484375 -17.503906 13.507812 -17.5625 13.5625 -17.5625 L 14.890625 -17.53125 C 15.710938 -17.488281 16.40625 -17.46875 16.96875 -17.46875 C 17.476562 -17.46875 18.125 -17.488281 18.90625 -17.53125 L 20.28125 -17.5625 C 20.34375 -17.5625 20.375 -17.503906 20.375 -17.390625 C 20.375 -17.273438 20.34375 -17.21875 20.28125 -17.21875 C 19.570312 -17.21875 19.046875 -17.164062 18.703125 -17.0625 C 18.367188 -16.957031 18.140625 -16.773438 18.015625 -16.515625 C 17.898438 -16.253906 17.84375 -15.84375 17.84375 -15.28125 L 17.84375 -2.28125 C 17.84375 -1.71875 17.898438 -1.300781 18.015625 -1.03125 C 18.140625 -0.757812 18.367188 -0.578125 18.703125 -0.484375 C 19.046875 -0.390625 19.570312 -0.34375 20.28125 -0.34375 Z M 20.28125 -0.34375 "></path></g></g></g><g fill="#000000" fill-opacity="1"><g transform="translate(219.197302, 64.731547)"><g><path d="M 13.34375 -4.1875 C 13.34375 -4.21875 13.378906 -4.234375 13.453125 -4.234375 C 13.515625 -4.234375 13.566406 -4.222656 13.609375 -4.203125 C 13.660156 -4.191406 13.6875 -4.164062 13.6875 -4.125 C 13.507812 -2.945312 13.421875 -1.710938 13.421875 -0.421875 C 13.421875 -0.273438 13.390625 -0.164062 13.328125 -0.09375 C 13.265625 -0.03125 13.148438 0 12.984375 0 L 1.203125 0 C 1.171875 0 1.15625 -0.0546875 1.15625 -0.171875 C 1.15625 -0.285156 1.171875 -0.34375 1.203125 -0.34375 C 1.921875 -0.34375 2.441406 -0.390625 2.765625 -0.484375 C 3.097656 -0.578125 3.320312 -0.757812 3.4375 -1.03125 C 3.5625 -1.300781 3.625 -1.71875 3.625 -2.28125 L 3.625 -15.28125 C 3.625 -15.84375 3.5625 -16.253906 3.4375 -16.515625 C 3.320312 -16.773438 3.097656 -16.957031 2.765625 -17.0625 C 2.441406 -17.164062 1.921875 -17.21875 1.203125 -17.21875 C 1.171875 -17.21875 1.15625 -17.273438 1.15625 -17.390625 C 1.15625 -17.503906 1.171875 -17.5625 1.203125 -17.5625 L 12.5 -17.5625 C 12.664062 -17.5625 12.75 -17.476562 12.75 -17.3125 L 12.8125 -13.84375 C 12.8125 -13.789062 12.765625 -13.757812 12.671875 -13.75 C 12.578125 -13.738281 12.519531 -13.765625 12.5 -13.828125 C 12.445312 -14.816406 12.144531 -15.585938 11.59375 -16.140625 C 11.050781 -16.691406 10.332031 -16.96875 9.4375 -16.96875 L 7.71875 -16.96875 C 7.070312 -16.96875 6.59375 -16.914062 6.28125 -16.8125 C 5.96875 -16.707031 5.75 -16.53125 5.625 -16.28125 C 5.507812 -16.03125 5.453125 -15.648438 5.453125 -15.140625 L 5.453125 -9.4375 L 8.875 -9.4375 C 9.769531 -9.4375 10.410156 -9.585938 10.796875 -9.890625 C 11.179688 -10.191406 11.375 -10.695312 11.375 -11.40625 C 11.375 -11.445312 11.429688 -11.46875 11.546875 -11.46875 C 11.660156 -11.46875 11.71875 -11.445312 11.71875 -11.40625 L 11.6875 -9.125 C 11.6875 -8.582031 11.695312 -8.171875 11.71875 -7.890625 L 11.75 -6.546875 C 11.75 -6.503906 11.691406 -6.484375 11.578125 -6.484375 C 11.460938 -6.484375 11.40625 -6.503906 11.40625 -6.546875 C 11.40625 -7.367188 11.203125 -7.957031 10.796875 -8.3125 C 10.398438 -8.664062 9.734375 -8.84375 8.796875 -8.84375 L 5.453125 -8.84375 L 5.453125 -2.390625 C 5.453125 -1.859375 5.503906 -1.472656 5.609375 -1.234375 C 5.722656 -0.992188 5.929688 -0.828125 6.234375 -0.734375 C 6.535156 -0.640625 7.003906 -0.59375 7.640625 -0.59375 L 9.890625 -0.59375 C 10.785156 -0.59375 11.53125 -0.910156 12.125 -1.546875 C 12.726562 -2.179688 13.132812 -3.0625 13.34375 -4.1875 Z M 13.34375 -4.1875 "></path></g></g></g><g fill="#000000" fill-opacity="1"><g transform="translate(234.27825, 64.731547)"><g><path d="M 20.28125 -0.34375 C 20.34375 -0.34375 20.375 -0.285156 20.375 -0.171875 C 20.375 -0.0546875 20.34375 0 20.28125 0 C 19.695312 0 19.238281 -0.0078125 18.90625 -0.03125 L 16.96875 -0.0625 L 14.890625 -0.03125 C 14.566406 -0.0078125 14.125 0 13.5625 0 C 13.507812 0 13.484375 -0.0546875 13.484375 -0.171875 C 13.484375 -0.285156 13.507812 -0.34375 13.5625 -0.34375 C 14.300781 -0.34375 14.835938 -0.390625 15.171875 -0.484375 C 15.503906 -0.578125 15.734375 -0.757812 15.859375 -1.03125 C 15.984375 -1.300781 16.046875 -1.71875 16.046875 -2.28125 L 16.046875 -8.84375 L 5.25 -8.84375 L 5.25 -2.28125 C 5.25 -1.71875 5.3125 -1.300781 5.4375 -1.03125 C 5.5625 -0.757812 5.789062 -0.578125 6.125 -0.484375 C 6.457031 -0.390625 6.988281 -0.34375 7.71875 -0.34375 C 7.757812 -0.34375 7.78125 -0.285156 7.78125 -0.171875 C 7.78125 -0.0546875 7.757812 0 7.71875 0 C 7.144531 0 6.6875 -0.0078125 6.34375 -0.03125 L 4.328125 -0.0625 L 2.390625 -0.03125 C 2.046875 -0.0078125 1.578125 0 0.984375 0 C 0.941406 0 0.921875 -0.0546875 0.921875 -0.171875 C 0.921875 -0.285156 0.941406 -0.34375 0.984375 -0.34375 C 1.691406 -0.34375 2.21875 -0.390625 2.5625 -0.484375 C 2.914062 -0.578125 3.148438 -0.757812 3.265625 -1.03125 C 3.390625 -1.300781 3.453125 -1.71875 3.453125 -2.28125 L 3.453125 -15.28125 C 3.453125 -15.84375 3.390625 -16.253906 3.265625 -16.515625 C 3.148438 -16.773438 2.921875 -16.957031 2.578125 -17.0625 C 2.242188 -17.164062 1.722656 -17.21875 1.015625 -17.21875 C 0.972656 -17.21875 0.953125 -17.273438 0.953125 -17.390625 C 0.953125 -17.503906 0.972656 -17.5625 1.015625 -17.5625 L 2.4375 -17.53125 C 3.226562 -17.488281 3.859375 -17.46875 4.328125 -17.46875 C 4.867188 -17.46875 5.550781 -17.488281 6.375 -17.53125 L 7.71875 -17.5625 C 7.757812 -17.5625 7.78125 -17.503906 7.78125 -17.390625 C 7.78125 -17.273438 7.757812 -17.21875 7.71875 -17.21875 C 7.007812 -17.21875 6.484375 -17.160156 6.140625 -17.046875 C 5.796875 -16.941406 5.5625 -16.75 5.4375 -16.46875 C 5.3125 -16.195312 5.25 -15.785156 5.25 -15.234375 L 5.25 -9.4375 L 16.046875 -9.4375 L 16.046875 -15.234375 C 16.046875 -15.785156 15.984375 -16.195312 15.859375 -16.46875 C 15.734375 -16.75 15.503906 -16.941406 15.171875 -17.046875 C 14.835938 -17.160156 14.300781 -17.21875 13.5625 -17.21875 C 13.507812 -17.21875 13.484375 -17.273438 13.484375 -17.390625 C 13.484375 -17.503906 13.507812 -17.5625 13.5625 -17.5625 L 14.890625 -17.53125 C 15.710938 -17.488281 16.40625 -17.46875 16.96875 -17.46875 C 17.476562 -17.46875 18.125 -17.488281 18.90625 -17.53125 L 20.28125 -17.5625 C 20.34375 -17.5625 20.375 -17.503906 20.375 -17.390625 C 20.375 -17.273438 20.34375 -17.21875 20.28125 -17.21875 C 19.570312 -17.21875 19.046875 -17.164062 18.703125 -17.0625 C 18.367188 -16.957031 18.140625 -16.773438 18.015625 -16.515625 C 17.898438 -16.253906 17.84375 -15.84375 17.84375 -15.28125 L 17.84375 -2.28125 C 17.84375 -1.71875 17.898438 -1.300781 18.015625 -1.03125 C 18.140625 -0.757812 18.367188 -0.578125 18.703125 -0.484375 C 19.046875 -0.390625 19.570312 -0.34375 20.28125 -0.34375 Z M 20.28125 -0.34375 "></path></g></g></g><g fill="#000000" fill-opacity="1"><g transform="translate(255.593772, 64.731547)"><g><path d="M 2.78125 -7.578125 C 2.40625 -7.578125 2.101562 -7.691406 1.875 -7.921875 C 1.65625 -8.148438 1.546875 -8.453125 1.546875 -8.828125 C 1.546875 -9.179688 1.65625 -9.457031 1.875 -9.65625 C 2.101562 -9.863281 2.40625 -9.96875 2.78125 -9.96875 C 3.175781 -9.96875 3.476562 -9.863281 3.6875 -9.65625 C 3.90625 -9.457031 4.015625 -9.179688 4.015625 -8.828125 C 4.015625 -8.453125 3.90625 -8.148438 3.6875 -7.921875 C 3.476562 -7.691406 3.175781 -7.578125 2.78125 -7.578125 Z M 2.78125 0.3125 C 2.40625 0.3125 2.101562 0.203125 1.875 -0.015625 C 1.65625 -0.242188 1.546875 -0.546875 1.546875 -0.921875 C 1.546875 -1.273438 1.65625 -1.554688 1.875 -1.765625 C 2.101562 -1.972656 2.40625 -2.078125 2.78125 -2.078125 C 3.175781 -2.078125 3.476562 -1.972656 3.6875 -1.765625 C 3.90625 -1.554688 4.015625 -1.273438 4.015625 -0.921875 C 4.015625 -0.546875 3.90625 -0.242188 3.6875 -0.015625 C 3.476562 0.203125 3.175781 0.3125 2.78125 0.3125 Z M 2.78125 0.3125 "></path></g></g></g></g></g></svg> 