<?xml version="1.0" encoding="UTF-8"?> <svg xmlns="http://www.w3.org/2000/svg" xmlns:xlink="http://www.w3.org/1999/xlink" width="360" zoomAndPan="magnify" viewBox="0 0 270 359.999987" height="480" preserveAspectRatio="xMidYMid meet" version="1.0"><defs><clipPath id="b9a3a33ac0"><path d="M 17.953125 77 L 252.390625 77 L 252.390625 282.417969 L 17.953125 282.417969 Z M 17.953125 77 " clip-rule="nonzero"></path></clipPath><clipPath id="eafd7f5690"><path d="M 27.234375 110.289062 C 8.253906 141.558594 21.625 171.996094 38.429688 188.148438 L 136.683594 282.417969 L 232.863281 188.488281 C 248.496094 171.109375 254.484375 152.675781 251.15625 132.152344 C 246.5625 103.757812 223.164062 81.730469 194.261719 78.585938 C 176.535156 76.675781 159.410156 81.691406 146.046875 92.800781 C 142.449219 95.789062 139.234375 99.128906 136.429688 102.757812 C 133.105469 98.625 129.207031 94.84375 124.796875 91.492188 C 109.429688 79.8125 89.863281 75.171875 71.074219 78.78125 C 53.273438 82.21875 37.300781 93.699219 27.234375 110.289062 Z M 27.234375 110.289062 " clip-rule="nonzero"></path></clipPath><clipPath id="31d4afcf75"><path d="M 0.953125 0.519531 L 235.390625 0.519531 L 235.390625 205.417969 L 0.953125 205.417969 Z M 0.953125 0.519531 " clip-rule="nonzero"></path></clipPath><clipPath id="9dc92bfb41"><path d="M 10.234375 33.289062 C -8.746094 64.558594 4.625 94.996094 21.429688 111.148438 L 119.683594 205.417969 L 215.863281 111.488281 C 231.496094 94.109375 237.484375 75.675781 234.15625 55.152344 C 229.5625 26.757812 206.164062 4.730469 177.261719 1.585938 C 159.535156 -0.324219 142.410156 4.691406 129.046875 15.800781 C 125.449219 18.789062 122.234375 22.128906 119.429688 25.757812 C 116.105469 21.625 112.207031 17.84375 107.796875 14.492188 C 92.429688 2.8125 72.863281 -1.828125 54.074219 1.78125 C 36.273438 5.21875 20.300781 16.699219 10.234375 33.289062 Z M 10.234375 33.289062 " clip-rule="nonzero"></path></clipPath><clipPath id="294eb4894b"><rect x="0" width="236" y="0" height="206"></rect></clipPath></defs><g clip-path="url(#b9a3a33ac0)"><g clip-path="url(#eafd7f5690)"><g transform="matrix(1, 0, 0, 1, 17, 77)"><g clip-path="url(#294eb4894b)"><g clip-path="url(#31d4afcf75)"><g clip-path="url(#9dc92bfb41)"><path fill="#5f0000" d="M 0.953125 0.582031 L 235.390625 0.582031 L 235.390625 205.417969 L 0.953125 205.417969 Z M 0.953125 0.582031 " fill-opacity="1" fill-rule="nonzero"></path></g></g></g></g></g></g></svg> 