<?xml version="1.0" encoding="UTF-8"?> <svg xmlns="http://www.w3.org/2000/svg" xmlns:xlink="http://www.w3.org/1999/xlink" width="360" zoomAndPan="magnify" viewBox="0 0 270 359.999987" height="480" preserveAspectRatio="xMidYMid meet" version="1.0"><defs><clipPath id="b61394a176"><path d="M 38 45 L 243 45 L 243 321.773438 L 38 321.773438 Z M 38 45 " clip-rule="nonzero"></path></clipPath></defs><path fill="#000000" d="M 140.25 200.046875 C 141.949219 200.046875 143.640625 199.964844 145.328125 199.796875 C 147.019531 199.632812 148.695312 199.382812 150.359375 199.050781 C 152.027344 198.71875 153.671875 198.304688 155.292969 197.8125 C 156.917969 197.320312 158.515625 196.746094 160.082031 196.097656 C 161.652344 195.445312 163.183594 194.722656 164.679688 193.917969 C 166.179688 193.117188 167.632812 192.246094 169.042969 191.300781 C 170.457031 190.355469 171.816406 189.347656 173.128906 188.269531 C 174.441406 187.191406 175.699219 186.050781 176.898438 184.847656 C 178.097656 183.644531 179.238281 182.386719 180.3125 181.074219 C 181.390625 179.761719 182.402344 178.398438 183.34375 176.984375 C 184.285156 175.570312 185.15625 174.113281 185.957031 172.617188 C 186.757812 171.117188 187.484375 169.582031 188.132812 168.011719 C 188.78125 166.441406 189.355469 164.84375 189.847656 163.214844 C 190.339844 161.589844 190.75 159.941406 191.082031 158.277344 C 191.414062 156.609375 191.664062 154.929688 191.828125 153.238281 C 191.996094 151.546875 192.078125 149.851562 192.078125 148.152344 C 192.078125 146.453125 191.996094 144.757812 191.828125 143.066406 C 191.664062 141.375 191.414062 139.695312 191.082031 138.027344 C 190.75 136.359375 190.339844 134.714844 189.847656 133.085938 C 189.355469 131.460938 188.78125 129.863281 188.132812 128.292969 C 187.484375 126.722656 186.757812 125.1875 185.957031 123.6875 C 185.15625 122.1875 184.285156 120.734375 183.34375 119.320312 C 182.402344 117.90625 181.390625 116.542969 180.3125 115.230469 C 179.238281 113.914062 178.097656 112.65625 176.898438 111.457031 C 175.699219 110.253906 174.441406 109.113281 173.128906 108.035156 C 171.816406 106.957031 170.457031 105.945312 169.042969 105.003906 C 167.632812 104.058594 166.179688 103.183594 164.679688 102.382812 C 163.183594 101.582031 161.652344 100.855469 160.082031 100.207031 C 158.515625 99.554688 156.917969 98.984375 155.292969 98.492188 C 153.671875 97.996094 152.027344 97.585938 150.359375 97.253906 C 148.695312 96.921875 147.019531 96.671875 145.328125 96.507812 C 143.640625 96.339844 141.949219 96.257812 140.25 96.257812 C 138.550781 96.257812 136.859375 96.339844 135.171875 96.507812 C 133.480469 96.671875 131.804688 96.921875 130.140625 97.253906 C 128.472656 97.585938 126.828125 97.996094 125.203125 98.492188 C 123.582031 98.984375 121.984375 99.554688 120.417969 100.207031 C 118.847656 100.855469 117.316406 101.582031 115.820312 102.382812 C 114.320312 103.183594 112.867188 104.058594 111.457031 105.003906 C 110.042969 105.945312 108.683594 106.957031 107.371094 108.035156 C 106.058594 109.113281 104.800781 110.253906 103.601562 111.457031 C 102.402344 112.65625 101.261719 113.914062 100.1875 115.230469 C 99.109375 116.542969 98.097656 117.90625 97.15625 119.320312 C 96.214844 120.734375 95.34375 122.1875 94.542969 123.6875 C 93.742188 125.1875 93.015625 126.722656 92.367188 128.292969 C 91.71875 129.863281 91.144531 131.460938 90.652344 133.085938 C 90.160156 134.714844 89.75 136.359375 89.417969 138.027344 C 89.085938 139.695312 88.835938 141.375 88.671875 143.066406 C 88.503906 144.757812 88.421875 146.453125 88.421875 148.152344 C 88.425781 149.851562 88.511719 151.546875 88.679688 153.234375 C 88.847656 154.925781 89.101562 156.605469 89.433594 158.269531 C 89.765625 159.933594 90.179688 161.582031 90.675781 163.207031 C 91.167969 164.832031 91.742188 166.429688 92.390625 167.996094 C 93.042969 169.566406 93.769531 171.097656 94.570312 172.597656 C 95.371094 174.09375 96.242188 175.550781 97.1875 176.960938 C 98.128906 178.375 99.140625 179.734375 100.214844 181.046875 C 101.292969 182.363281 102.429688 183.617188 103.628906 184.820312 C 104.828125 186.019531 106.085938 187.160156 107.394531 188.238281 C 108.707031 189.316406 110.066406 190.328125 111.476562 191.273438 C 112.886719 192.21875 114.339844 193.089844 115.835938 193.890625 C 117.332031 194.695312 118.863281 195.421875 120.429688 196.070312 C 121.996094 196.722656 123.59375 197.296875 125.214844 197.792969 C 126.839844 198.285156 128.480469 198.699219 130.144531 199.035156 C 131.808594 199.367188 133.484375 199.621094 135.171875 199.789062 C 136.859375 199.957031 138.554688 200.042969 140.25 200.046875 Z M 140.25 105.484375 C 141.648438 105.484375 143.046875 105.554688 144.441406 105.691406 C 145.835938 105.828125 147.21875 106.035156 148.589844 106.308594 C 149.964844 106.582031 151.320312 106.921875 152.660156 107.328125 C 154 107.734375 155.316406 108.207031 156.613281 108.742188 C 157.90625 109.28125 159.167969 109.878906 160.40625 110.539062 C 161.640625 111.199219 162.839844 111.921875 164.003906 112.699219 C 165.167969 113.476562 166.289062 114.3125 167.375 115.203125 C 168.457031 116.089844 169.492188 117.03125 170.480469 118.023438 C 171.472656 119.015625 172.410156 120.050781 173.300781 121.136719 C 174.1875 122.21875 175.019531 123.34375 175.800781 124.511719 C 176.578125 125.675781 177.296875 126.878906 177.957031 128.113281 C 178.617188 129.351562 179.214844 130.617188 179.75 131.910156 C 180.285156 133.207031 180.757812 134.527344 181.164062 135.867188 C 181.570312 137.210938 181.910156 138.566406 182.183594 139.941406 C 182.457031 141.316406 182.660156 142.703125 182.796875 144.097656 C 182.9375 145.492188 183.003906 146.890625 183.003906 148.292969 C 183.003906 149.695312 182.9375 151.09375 182.796875 152.492188 C 182.660156 153.886719 182.457031 155.269531 182.183594 156.644531 C 181.910156 158.023438 181.570312 159.378906 181.164062 160.722656 C 180.757812 162.0625 180.285156 163.382812 179.75 164.675781 C 179.214844 165.972656 178.617188 167.238281 177.957031 168.476562 C 177.296875 169.710938 176.578125 170.914062 175.800781 172.078125 C 175.019531 173.246094 174.1875 174.371094 173.300781 175.453125 C 172.410156 176.535156 171.472656 177.574219 170.480469 178.566406 C 169.492188 179.558594 168.457031 180.496094 167.375 181.386719 C 166.289062 182.277344 165.167969 183.109375 164.003906 183.890625 C 162.839844 184.667969 161.640625 185.390625 160.40625 186.050781 C 159.167969 186.710938 157.90625 187.308594 156.613281 187.847656 C 155.316406 188.382812 154 188.855469 152.660156 189.261719 C 151.320312 189.667969 149.964844 190.007812 148.589844 190.28125 C 147.21875 190.554688 145.835938 190.761719 144.441406 190.898438 C 143.046875 191.035156 141.648438 191.105469 140.25 191.105469 C 138.851562 191.105469 137.453125 191.035156 136.058594 190.898438 C 134.664062 190.761719 133.28125 190.554688 131.910156 190.28125 C 130.535156 190.007812 129.179688 189.667969 127.839844 189.261719 C 126.5 188.855469 125.183594 188.382812 123.886719 187.847656 C 122.59375 187.308594 121.332031 186.710938 120.09375 186.050781 C 118.859375 185.390625 117.660156 184.667969 116.496094 183.890625 C 115.332031 183.109375 114.210938 182.277344 113.125 181.386719 C 112.042969 180.496094 111.007812 179.558594 110.019531 178.566406 C 109.027344 177.574219 108.089844 176.535156 107.199219 175.453125 C 106.3125 174.371094 105.480469 173.246094 104.699219 172.078125 C 103.921875 170.914062 103.203125 169.710938 102.542969 168.476562 C 101.882812 167.238281 101.285156 165.972656 100.75 164.675781 C 100.214844 163.382812 99.742188 162.0625 99.335938 160.722656 C 98.929688 159.378906 98.589844 158.023438 98.316406 156.644531 C 98.042969 155.269531 97.839844 153.886719 97.703125 152.492188 C 97.5625 151.09375 97.496094 149.695312 97.496094 148.292969 C 97.496094 146.890625 97.5625 145.492188 97.703125 144.097656 C 97.839844 142.703125 98.042969 141.316406 98.316406 139.941406 C 98.589844 138.566406 98.929688 137.210938 99.335938 135.867188 C 99.742188 134.527344 100.214844 133.207031 100.75 131.910156 C 101.285156 130.617188 101.882812 129.351562 102.542969 128.113281 C 103.203125 126.878906 103.921875 125.675781 104.699219 124.511719 C 105.480469 123.34375 106.3125 122.21875 107.199219 121.136719 C 108.089844 120.050781 109.027344 119.015625 110.019531 118.023438 C 111.007812 117.03125 112.042969 116.089844 113.125 115.203125 C 114.210938 114.3125 115.332031 113.476562 116.496094 112.699219 C 117.660156 111.921875 118.859375 111.199219 120.09375 110.539062 C 121.332031 109.878906 122.59375 109.28125 123.886719 108.742188 C 125.183594 108.207031 126.5 107.734375 127.839844 107.328125 C 129.179688 106.921875 130.535156 106.582031 131.910156 106.308594 C 133.28125 106.035156 134.664062 105.828125 136.058594 105.691406 C 137.453125 105.554688 138.851562 105.484375 140.25 105.484375 Z M 140.25 105.484375 " fill-opacity="1" fill-rule="nonzero"></path><g clip-path="url(#b61394a176)"><path fill="#000000" d="M 136.496094 319.820312 C 136.71875 320.109375 136.96875 320.367188 137.25 320.59375 C 137.53125 320.824219 137.835938 321.019531 138.160156 321.175781 C 138.484375 321.335938 138.824219 321.457031 139.175781 321.539062 C 139.53125 321.621094 139.886719 321.660156 140.25 321.660156 C 140.613281 321.660156 140.96875 321.621094 141.324219 321.539062 C 141.675781 321.457031 142.015625 321.335938 142.339844 321.175781 C 142.664062 321.019531 142.96875 320.824219 143.25 320.59375 C 143.53125 320.367188 143.78125 320.109375 144.003906 319.820312 L 229.371094 198.097656 L 229.65625 197.667969 C 230.722656 195.734375 231.726562 193.765625 232.667969 191.761719 C 233.609375 189.761719 234.480469 187.730469 235.292969 185.675781 C 236.101562 183.617188 236.839844 181.535156 237.515625 179.425781 C 238.191406 177.320312 238.792969 175.195312 239.332031 173.050781 C 239.867188 170.902344 240.332031 168.742188 240.730469 166.566406 C 241.125 164.390625 241.449219 162.207031 241.707031 160.007812 C 241.960938 157.8125 242.144531 155.609375 242.253906 153.398438 C 242.367188 151.191406 242.40625 148.980469 242.375 146.769531 C 242.34375 144.558594 242.242188 142.347656 242.066406 140.144531 C 241.890625 137.9375 241.648438 135.742188 241.328125 133.554688 C 241.011719 131.363281 240.625 129.1875 240.167969 127.023438 C 239.710938 124.859375 239.183594 122.714844 238.585938 120.585938 C 237.988281 118.457031 237.324219 116.347656 236.589844 114.261719 C 235.855469 112.175781 235.054688 110.113281 234.1875 108.082031 C 233.324219 106.046875 232.390625 104.042969 231.394531 102.070312 C 230.398438 100.09375 229.335938 98.15625 228.214844 96.25 C 227.09375 94.347656 225.910156 92.480469 224.664062 90.652344 C 223.421875 88.824219 222.121094 87.039062 220.761719 85.292969 C 219.402344 83.550781 217.988281 81.851562 216.519531 80.203125 C 215.050781 78.550781 213.527344 76.949219 211.957031 75.394531 C 210.382812 73.84375 208.761719 72.34375 207.089844 70.894531 C 205.421875 69.449219 203.707031 68.054688 201.945312 66.71875 C 200.183594 65.382812 198.382812 64.105469 196.539062 62.886719 C 194.695312 61.667969 192.816406 60.511719 190.898438 59.414062 C 188.980469 58.316406 187.027344 57.285156 185.042969 56.3125 C 183.058594 55.34375 181.042969 54.4375 179 53.601562 C 176.957031 52.761719 174.886719 51.988281 172.792969 51.285156 C 170.699219 50.578125 168.585938 49.941406 166.449219 49.375 C 164.316406 48.808594 162.164062 48.3125 159.996094 47.882812 C 157.832031 47.457031 155.652344 47.097656 153.460938 46.8125 C 151.269531 46.527344 149.074219 46.3125 146.871094 46.167969 C 144.664062 46.023438 142.457031 45.953125 140.25 45.953125 C 138.042969 45.953125 135.835938 46.023438 133.628906 46.167969 C 131.425781 46.3125 129.230469 46.527344 127.039062 46.8125 C 124.847656 47.097656 122.667969 47.457031 120.503906 47.882812 C 118.335938 48.3125 116.183594 48.808594 114.050781 49.375 C 111.914062 49.941406 109.800781 50.578125 107.707031 51.285156 C 105.613281 51.988281 103.542969 52.761719 101.5 53.601562 C 99.457031 54.4375 97.441406 55.34375 95.457031 56.3125 C 93.472656 57.285156 91.519531 58.316406 89.601562 59.414062 C 87.683594 60.511719 85.804688 61.667969 83.960938 62.886719 C 82.117188 64.105469 80.316406 65.382812 78.554688 66.71875 C 76.792969 68.054688 75.078125 69.449219 73.410156 70.894531 C 71.738281 72.34375 70.117188 73.84375 68.542969 75.394531 C 66.972656 76.949219 65.449219 78.550781 63.980469 80.203125 C 62.511719 81.851562 61.097656 83.550781 59.738281 85.292969 C 58.378906 87.039062 57.078125 88.824219 55.835938 90.652344 C 54.589844 92.480469 53.40625 94.347656 52.285156 96.25 C 51.164062 98.15625 50.101562 100.09375 49.105469 102.070312 C 48.109375 104.042969 47.175781 106.046875 46.3125 108.082031 C 45.445312 110.113281 44.644531 112.175781 43.910156 114.261719 C 43.175781 116.347656 42.511719 118.457031 41.914062 120.585938 C 41.316406 122.714844 40.789062 124.859375 40.332031 127.023438 C 39.875 129.1875 39.488281 131.363281 39.171875 133.554688 C 38.851562 135.742188 38.609375 137.9375 38.433594 140.144531 C 38.257812 142.347656 38.15625 144.558594 38.125 146.769531 C 38.09375 148.980469 38.132812 151.191406 38.246094 153.398438 C 38.355469 155.609375 38.539062 157.8125 38.792969 160.007812 C 39.050781 162.207031 39.375 164.390625 39.769531 166.566406 C 40.167969 168.742188 40.632812 170.902344 41.167969 173.050781 C 41.707031 175.195312 42.308594 177.320312 42.984375 179.425781 C 43.660156 181.535156 44.398438 183.617188 45.207031 185.675781 C 46.019531 187.730469 46.890625 189.761719 47.832031 191.761719 C 48.773438 193.765625 49.777344 195.734375 50.84375 197.667969 L 51.128906 198.097656 Z M 47.28125 148.152344 C 47.28125 146.382812 47.332031 144.617188 47.433594 142.855469 C 47.535156 141.089844 47.683594 139.332031 47.886719 137.574219 C 48.085938 135.820312 48.335938 134.070312 48.636719 132.328125 C 48.9375 130.585938 49.289062 128.855469 49.6875 127.132812 C 50.085938 125.414062 50.53125 123.703125 51.027344 122.007812 C 51.523438 120.3125 52.070312 118.632812 52.660156 116.964844 C 53.25 115.300781 53.890625 113.65625 54.574219 112.027344 C 55.261719 110.398438 55.992188 108.789062 56.769531 107.203125 C 57.542969 105.617188 58.367188 104.050781 59.230469 102.511719 C 60.097656 100.972656 61.007812 99.457031 61.957031 97.96875 C 62.910156 96.480469 63.902344 95.019531 64.9375 93.589844 C 65.972656 92.15625 67.046875 90.757812 68.160156 89.386719 C 69.277344 88.015625 70.429688 86.679688 71.617188 85.375 C 72.808594 84.070312 74.035156 82.800781 75.296875 81.566406 C 76.5625 80.332031 77.859375 79.132812 79.1875 77.972656 C 80.519531 76.8125 81.882812 75.691406 83.277344 74.605469 C 84.671875 73.523438 86.097656 72.480469 87.550781 71.480469 C 89.003906 70.476562 90.484375 69.519531 91.996094 68.601562 C 93.503906 67.683594 95.035156 66.808594 96.59375 65.980469 C 98.152344 65.152344 99.734375 64.367188 101.335938 63.625 C 102.9375 62.886719 104.5625 62.191406 106.203125 61.546875 C 107.847656 60.898438 109.503906 60.296875 111.183594 59.746094 C 112.859375 59.195312 114.550781 58.6875 116.253906 58.234375 C 117.960938 57.777344 119.675781 57.371094 121.40625 57.011719 C 123.132812 56.652344 124.871094 56.34375 126.617188 56.085938 C 128.363281 55.828125 130.113281 55.617188 131.871094 55.457031 C 133.628906 55.296875 135.390625 55.1875 137.152344 55.128906 C 138.917969 55.070312 140.683594 55.0625 142.445312 55.105469 C 144.210938 55.148438 145.972656 55.238281 147.730469 55.378906 C 149.492188 55.523438 151.246094 55.714844 152.992188 55.957031 C 154.742188 56.199219 156.480469 56.492188 158.210938 56.832031 C 159.945312 57.175781 161.664062 57.566406 163.375 58.003906 C 165.082031 58.445312 166.78125 58.933594 168.460938 59.46875 C 170.144531 60.003906 171.808594 60.589844 173.457031 61.21875 C 175.105469 61.851562 176.734375 62.527344 178.34375 63.253906 C 179.953125 63.976562 181.542969 64.746094 183.109375 65.5625 C 184.675781 66.375 186.214844 67.234375 187.734375 68.136719 C 189.25 69.039062 190.742188 69.984375 192.207031 70.972656 C 193.667969 71.960938 195.101562 72.988281 196.507812 74.058594 C 197.914062 75.128906 199.285156 76.234375 200.628906 77.382812 C 201.972656 78.53125 203.28125 79.714844 204.554688 80.9375 C 205.828125 82.160156 207.066406 83.417969 208.269531 84.710938 C 209.472656 86.003906 210.640625 87.332031 211.765625 88.691406 C 212.894531 90.050781 213.984375 91.441406 215.03125 92.863281 C 216.078125 94.285156 217.085938 95.734375 218.054688 97.210938 C 219.019531 98.691406 219.941406 100.195312 220.824219 101.726562 C 221.703125 103.261719 222.539062 104.816406 223.332031 106.394531 C 224.125 107.972656 224.871094 109.574219 225.570312 111.195312 C 226.273438 112.820312 226.925781 114.460938 227.535156 116.117188 C 228.140625 117.777344 228.703125 119.453125 229.214844 121.144531 C 229.726562 122.835938 230.191406 124.539062 230.605469 126.257812 C 231.019531 127.972656 231.386719 129.703125 231.703125 131.441406 C 232.023438 133.179688 232.289062 134.925781 232.507812 136.679688 C 232.726562 138.433594 232.890625 140.191406 233.011719 141.953125 C 233.128906 143.71875 233.195312 145.484375 233.214844 147.25 C 233.230469 149.015625 233.199219 150.785156 233.113281 152.550781 C 233.03125 154.3125 232.898438 156.074219 232.714844 157.832031 C 232.53125 159.589844 232.300781 161.34375 232.015625 163.085938 C 231.734375 164.832031 231.402344 166.566406 231.019531 168.292969 C 230.636719 170.015625 230.207031 171.730469 229.730469 173.429688 C 229.25 175.132812 228.722656 176.816406 228.148438 178.488281 C 227.574219 180.160156 226.949219 181.8125 226.28125 183.449219 C 225.613281 185.082031 224.898438 186.699219 224.136719 188.292969 C 223.378906 189.886719 222.570312 191.460938 221.722656 193.007812 L 140.25 309.167969 L 58.777344 193.007812 C 55.007812 186.132812 52.152344 178.902344 50.203125 171.304688 C 48.257812 163.710938 47.285156 155.992188 47.28125 148.152344 Z M 47.28125 148.152344 " fill-opacity="1" fill-rule="nonzero"></path></g></svg> 