<?xml version="1.0" encoding="UTF-8"?> <svg xmlns="http://www.w3.org/2000/svg" xmlns:xlink="http://www.w3.org/1999/xlink" width="360" zoomAndPan="magnify" viewBox="0 0 270 359.999987" height="480" preserveAspectRatio="xMidYMid meet" version="1.0"><path fill="#ffffff" d="M 90.242188 72.742188 C 78.757812 73.28125 70.914062 75.125 64.054688 77.808594 C 56.953125 80.578125 50.941406 84.28125 44.957031 90.292969 C 38.964844 96.304688 35.28125 102.328125 32.546875 109.441406 C 29.890625 116.320312 28.089844 124.164062 27.578125 135.660156 C 27.070312 147.167969 26.960938 150.839844 27.011719 180.164062 C 27.0625 209.476562 27.191406 213.15625 27.742188 224.675781 C 28.292969 236.160156 30.125 243.996094 32.808594 250.863281 C 35.578125 257.964844 39.28125 263.96875 45.292969 269.960938 C 51.304688 275.953125 57.328125 279.625 64.441406 282.375 C 71.308594 285.027344 79.164062 286.839844 90.648438 287.339844 C 102.167969 287.847656 105.839844 287.960938 135.152344 287.898438 C 164.476562 287.847656 168.148438 287.714844 179.664062 287.164062 C 191.152344 286.617188 198.984375 284.773438 205.855469 282.097656 C 212.957031 279.320312 218.96875 275.628906 224.949219 269.613281 C 230.933594 263.601562 234.617188 257.578125 237.363281 250.46875 C 240.019531 243.597656 241.828125 235.746094 242.328125 224.269531 C 242.828125 212.75 242.949219 209.066406 242.898438 179.753906 C 242.847656 150.445312 242.703125 146.769531 242.164062 135.253906 C 241.617188 123.757812 239.785156 115.921875 237.097656 109.054688 C 234.320312 101.953125 230.628906 95.949219 224.613281 89.957031 C 218.601562 83.976562 212.578125 80.28125 205.46875 77.546875 C 198.597656 74.890625 190.746094 73.078125 179.257812 72.578125 C 167.742188 72.070312 164.058594 71.960938 134.746094 72.011719 C 105.433594 72.0625 101.761719 72.191406 90.242188 72.742188 M 91.503906 267.894531 C 80.984375 267.4375 75.265625 265.6875 71.453125 264.222656 C 66.40625 262.269531 62.8125 259.929688 59.019531 256.175781 C 55.234375 252.398438 52.894531 248.808594 50.917969 243.78125 C 49.445312 239.976562 47.664062 234.269531 47.164062 223.738281 C 46.625 212.363281 46.503906 208.945312 46.453125 180.121094 C 46.402344 151.308594 46.503906 147.890625 47.003906 136.503906 C 47.449219 125.984375 49.210938 120.265625 50.675781 116.460938 C 52.628906 111.414062 54.957031 107.824219 58.722656 104.027344 C 62.5 100.242188 66.089844 97.902344 71.125 95.929688 C 74.929688 94.445312 80.640625 92.675781 91.160156 92.175781 C 102.542969 91.636719 105.953125 91.523438 134.777344 91.464844 C 163.601562 91.402344 167.019531 91.503906 178.402344 92.011719 C 188.921875 92.46875 194.640625 94.210938 198.445312 95.6875 C 203.492188 97.640625 207.09375 99.957031 210.878906 103.734375 C 214.664062 107.507812 217.015625 111.089844 218.980469 116.136719 C 220.464844 119.929688 222.234375 125.648438 222.734375 136.160156 C 223.273438 147.542969 223.394531 150.960938 223.445312 179.777344 C 223.496094 208.601562 223.394531 212.019531 222.894531 223.394531 C 222.4375 233.914062 220.6875 239.640625 219.222656 243.445312 C 217.269531 248.484375 214.9375 252.085938 211.164062 255.871094 C 207.390625 259.644531 203.808594 261.996094 198.761719 263.96875 C 194.96875 265.453125 189.25 267.222656 178.738281 267.722656 C 167.355469 268.261719 163.945312 268.382812 135.113281 268.433594 C 106.296875 268.484375 102.878906 268.382812 91.496094 267.886719 M 179.511719 122.25 C 179.523438 129.402344 185.34375 135.191406 192.484375 135.171875 C 199.636719 135.160156 205.425781 129.351562 205.417969 122.199219 C 205.40625 115.046875 199.585938 109.257812 192.433594 109.269531 C 185.28125 109.277344 179.492188 115.097656 179.503906 122.242188 M 79.519531 180.0625 C 79.582031 210.675781 104.445312 235.441406 135.050781 235.378906 C 165.664062 235.316406 190.441406 210.460938 190.378906 179.847656 C 190.316406 149.242188 165.453125 124.46875 134.835938 124.519531 C 104.234375 124.582031 79.457031 149.445312 79.519531 180.0625 M 98.960938 180.019531 C 98.933594 160.148438 115.007812 144.003906 134.878906 143.972656 C 154.75 143.933594 170.894531 160.007812 170.9375 179.886719 C 170.976562 199.757812 154.890625 215.90625 135.019531 215.933594 C 115.148438 215.976562 99.003906 199.890625 98.972656 180.019531 " fill-opacity="1" fill-rule="nonzero"></path></svg> 