<?xml version="1.0" encoding="UTF-8"?> <svg xmlns="http://www.w3.org/2000/svg" xmlns:xlink="http://www.w3.org/1999/xlink" width="360" zoomAndPan="magnify" viewBox="0 0 270 359.999987" height="480" preserveAspectRatio="xMidYMid meet" version="1.0"><defs><clipPath id="21b96d046c"><path d="M 171.886719 201.582031 L 172.296875 201.582031 L 172.296875 201.863281 L 171.886719 201.863281 Z M 171.886719 201.582031 " clip-rule="nonzero"></path></clipPath><clipPath id="ce0fa586a5"><path d="M 172.273438 201.75 C 171.523438 202.050781 172.125 201.601562 172.125 201.601562 " clip-rule="nonzero"></path></clipPath><clipPath id="33f6f39f42"><path d="M 0.886719 0.582031 L 1.296875 0.582031 L 1.296875 0.863281 L 0.886719 0.863281 Z M 0.886719 0.582031 " clip-rule="nonzero"></path></clipPath><clipPath id="81d93e8915"><path d="M 1.273438 0.75 C 0.523438 1.050781 1.125 0.601562 1.125 0.601562 " clip-rule="nonzero"></path></clipPath><clipPath id="de722d89e6"><rect x="0" width="2" y="0" height="1"></rect></clipPath><clipPath id="4caded8e39"><path d="M 37.9375 158.929688 L 41.804688 158.929688 L 41.804688 159.835938 L 37.9375 159.835938 Z M 37.9375 158.929688 " clip-rule="nonzero"></path></clipPath><clipPath id="a450abb925"><path d="M 37.949219 159.300781 C 40.273438 158.324219 41.851562 159.601562 41.773438 159.75 C 41.699219 160.050781 37.949219 159.300781 37.949219 159.300781 " clip-rule="nonzero"></path></clipPath><clipPath id="9b081f1e65"><path d="M 0.9375 0.929688 L 4.804688 0.929688 L 4.804688 1.835938 L 0.9375 1.835938 Z M 0.9375 0.929688 " clip-rule="nonzero"></path></clipPath><clipPath id="91980eae56"><path d="M 0.949219 1.300781 C 3.273438 0.324219 4.851562 1.601562 4.773438 1.75 C 4.699219 2.050781 0.949219 1.300781 0.949219 1.300781 " clip-rule="nonzero"></path></clipPath><clipPath id="0222995810"><rect x="0" width="5" y="0" height="2"></rect></clipPath><clipPath id="11c10eb4d3"><path d="M 78.0625 176.757812 L 78.472656 176.757812 L 78.472656 177 L 78.0625 177 Z M 78.0625 176.757812 " clip-rule="nonzero"></path></clipPath><clipPath id="a8b5039297"><path d="M 78.449219 176.925781 C 77.699219 177.148438 78.300781 176.773438 78.300781 176.773438 " clip-rule="nonzero"></path></clipPath><clipPath id="c78d8deb8e"><path d="M 0.0625 0.757812 L 0.472656 0.757812 L 0.472656 1 L 0.0625 1 Z M 0.0625 0.757812 " clip-rule="nonzero"></path></clipPath><clipPath id="c2a0fefe18"><path d="M 0.449219 0.925781 C -0.300781 1.148438 0.300781 0.773438 0.300781 0.773438 " clip-rule="nonzero"></path></clipPath><clipPath id="75da11d7cd"><rect x="0" width="1" y="0" height="1"></rect></clipPath><clipPath id="a93344482f"><path d="M 0.0625 0.757812 L 0.472656 0.757812 L 0.472656 1 L 0.0625 1 Z M 0.0625 0.757812 " clip-rule="nonzero"></path></clipPath><clipPath id="bfd1b4757b"><path d="M 0.449219 0.925781 C -0.300781 1.148438 0.300781 0.773438 0.300781 0.773438 " clip-rule="nonzero"></path></clipPath><clipPath id="159218fb79"><rect x="0" width="1" y="0" height="1"></rect></clipPath><clipPath id="d255e523b5"><path d="M 24.652344 53 L 245.152344 53 L 245.152344 348.71875 L 24.652344 348.71875 Z M 24.652344 53 " clip-rule="nonzero"></path></clipPath></defs><g clip-path="url(#21b96d046c)"><g clip-path="url(#ce0fa586a5)"><g transform="matrix(1, 0, 0, 1, 171, 201)"><g clip-path="url(#de722d89e6)"><g clip-path="url(#33f6f39f42)"><g clip-path="url(#81d93e8915)"><rect x="-230.4" width="388.8" fill="#492c01" height="518.399981" y="-280.199997" fill-opacity="1"></rect></g></g></g></g></g></g><g clip-path="url(#4caded8e39)"><g clip-path="url(#a450abb925)"><g transform="matrix(1, 0, 0, 1, 37, 158)"><g clip-path="url(#0222995810)"><g clip-path="url(#9b081f1e65)"><g clip-path="url(#91980eae56)"><rect x="-96.4" width="388.8" fill="#492c01" height="518.399981" y="-237.199997" fill-opacity="1"></rect></g></g></g></g></g></g><g clip-path="url(#11c10eb4d3)"><g clip-path="url(#a8b5039297)"><g transform="matrix(1, 0, 0, 1, 78, 176)"><g clip-path="url(#75da11d7cd)"><g clip-path="url(#c78d8deb8e)"><g clip-path="url(#c2a0fefe18)"><rect x="-137.4" width="388.8" fill="#492c01" height="518.399981" y="-255.199997" fill-opacity="1"></rect></g></g></g></g><g transform="matrix(1, 0, 0, 1, 78, 176)"><g clip-path="url(#159218fb79)"><g clip-path="url(#a93344482f)"><g clip-path="url(#bfd1b4757b)"><rect x="-137.4" width="388.8" fill="#492c01" height="518.399981" y="-255.199997" fill-opacity="1"></rect></g></g></g></g></g></g><g clip-path="url(#d255e523b5)"><path fill="#492c01" d="M 237.457031 320.859375 L 233.558594 320.859375 L 233.558594 257.058594 C 233.558594 247.417969 226.074219 239.574219 216.628906 238.8125 L 216.628906 187.984375 C 216.628906 177.84375 208.378906 169.59375 198.238281 169.59375 L 188.410156 169.59375 L 188.410156 130.421875 C 188.410156 120.28125 180.160156 112.03125 170.019531 112.03125 L 144.820312 112.03125 L 159.96875 102.113281 C 166.476562 97.855469 171.207031 91.628906 173.296875 84.585938 C 176.441406 73.957031 173.96875 64.773438 166.515625 59.390625 C 152.066406 48.953125 139.542969 55.832031 134.996094 59.097656 C 130.449219 55.832031 117.921875 48.953125 103.472656 59.390625 C 96.023438 64.773438 93.550781 73.957031 96.695312 84.589844 C 98.785156 91.628906 103.515625 97.855469 110.019531 102.113281 L 125.167969 112.03125 L 99.96875 112.03125 C 89.828125 112.03125 81.578125 120.28125 81.578125 130.421875 L 81.578125 169.59375 L 71.75 169.59375 C 61.613281 169.59375 53.359375 177.84375 53.359375 187.984375 L 53.359375 238.8125 C 43.914062 239.574219 36.433594 247.417969 36.433594 257.058594 L 36.433594 320.859375 L 32.53125 320.859375 C 28.1875 320.859375 24.652344 324.394531 24.652344 328.738281 L 24.652344 340.203125 C 24.652344 344.550781 28.1875 348.085938 32.53125 348.085938 L 237.457031 348.085938 C 241.804688 348.085938 245.339844 344.550781 245.339844 340.203125 L 245.339844 328.738281 C 245.339844 324.394531 241.804688 320.859375 237.457031 320.859375 Z M 101.734375 83.097656 C 100.28125 78.183594 98.972656 69.125 106.550781 63.648438 C 111.277344 60.234375 115.699219 59.074219 119.527344 59.074219 C 127.457031 59.074219 132.855469 64.039062 133.183594 64.351562 L 135.011719 66.070312 L 136.8125 64.347656 C 137.300781 63.882812 148.847656 53.109375 163.4375 63.648438 C 171.015625 69.125 169.707031 78.183594 168.257812 83.09375 C 166.523438 88.945312 162.558594 94.136719 157.09375 97.714844 L 136.492188 111.203125 C 135.578125 111.800781 134.410156 111.800781 133.496094 111.203125 L 112.894531 97.714844 C 107.429688 94.136719 103.46875 88.945312 101.734375 83.097656 Z M 41.6875 273.460938 C 45.816406 274.082031 48.339844 276.03125 51.074219 278.324219 C 54.625 281.308594 58.652344 284.695312 66.457031 284.695312 C 74.265625 284.695312 78.292969 281.308594 81.84375 278.320312 C 85.128906 275.5625 87.964844 273.183594 93.855469 273.183594 C 99.746094 273.183594 102.582031 275.566406 105.863281 278.324219 C 109.414062 281.308594 113.4375 284.695312 121.242188 284.695312 C 129.054688 284.695312 133.082031 281.308594 136.632812 278.320312 C 139.914062 275.5625 142.75 273.183594 148.640625 273.183594 C 154.539062 273.183594 157.378906 275.566406 160.660156 278.324219 C 164.21875 281.308594 168.246094 284.695312 176.054688 284.695312 C 183.871094 284.695312 187.910156 281.308594 191.464844 278.324219 C 194.753906 275.5625 197.589844 273.183594 203.492188 273.183594 C 209.398438 273.183594 212.238281 275.566406 215.527344 278.324219 C 218.660156 280.953125 222.167969 283.886719 228.300781 284.550781 L 228.300781 320.804688 L 41.6875 320.804688 Z M 58.617188 208.3125 C 60.996094 209.277344 63.511719 209.785156 66.429688 209.785156 C 74.238281 209.785156 78.273438 206.402344 81.828125 203.414062 C 85.117188 200.65625 87.957031 198.273438 93.855469 198.273438 C 99.761719 198.273438 102.597656 200.660156 105.878906 203.421875 C 109.425781 206.40625 113.449219 209.785156 121.226562 209.785156 C 129.039062 209.785156 133.070312 206.402344 136.625 203.414062 C 139.910156 200.65625 142.75 198.273438 148.648438 198.273438 C 154.550781 198.273438 157.386719 200.65625 160.675781 203.414062 C 164.234375 206.402344 168.265625 209.785156 176.074219 209.785156 C 183.890625 209.785156 187.925781 206.402344 191.480469 203.414062 C 194.769531 200.65625 197.605469 198.273438 203.503906 198.273438 C 207.21875 198.273438 209.578125 199.222656 211.375 200.3125 L 211.375 238.664062 L 58.617188 238.664062 Z M 99.96875 117.285156 L 170.019531 117.285156 C 177.265625 117.285156 183.15625 123.179688 183.15625 130.421875 L 183.15625 145.453125 C 180.824219 144.507812 179.027344 143.042969 177.0625 141.398438 C 173.5 138.425781 169.472656 135.054688 161.6875 135.054688 C 153.871094 135.054688 149.839844 138.4375 146.285156 141.425781 C 142.996094 144.1875 140.15625 146.566406 134.261719 146.566406 C 128.402344 146.566406 125.574219 144.1875 122.300781 141.4375 C 118.742188 138.445312 114.714844 135.054688 106.890625 135.054688 C 99.097656 135.054688 95.0625 138.429688 91.5 141.40625 C 89.949219 142.707031 88.5 143.863281 86.832031 144.765625 L 86.832031 130.421875 C 86.832031 123.179688 92.722656 117.285156 99.96875 117.285156 Z M 86.832031 150.492188 C 90.21875 149.234375 92.695312 147.257812 94.875 145.433594 C 98.164062 142.683594 101.003906 140.308594 106.890625 140.308594 C 112.796875 140.308594 115.632812 142.695312 118.917969 145.457031 C 122.464844 148.441406 126.480469 151.820312 134.261719 151.820312 C 142.070312 151.820312 146.105469 148.4375 149.660156 145.449219 C 152.949219 142.691406 155.785156 140.308594 161.6875 140.308594 C 167.5625 140.308594 170.402344 142.683594 173.691406 145.429688 C 176.171875 147.503906 179.019531 149.742188 183.15625 150.921875 L 183.15625 169.59375 L 86.832031 169.59375 Z M 71.75 174.847656 L 198.238281 174.847656 C 205.484375 174.847656 211.375 180.742188 211.375 187.984375 L 211.375 194.5 C 208.984375 193.53125 206.449219 193.019531 203.503906 193.019531 C 195.691406 193.019531 191.660156 196.402344 188.105469 199.390625 C 184.816406 202.148438 181.976562 204.53125 176.074219 204.53125 C 170.179688 204.53125 167.34375 202.152344 164.054688 199.394531 C 160.496094 196.402344 156.464844 193.019531 148.648438 193.019531 C 140.839844 193.019531 136.804688 196.402344 133.25 199.390625 C 129.964844 202.148438 127.128906 204.53125 121.226562 204.53125 C 115.363281 204.53125 112.535156 202.152344 109.261719 199.398438 C 105.707031 196.410156 101.675781 193.019531 93.855469 193.019531 C 86.042969 193.019531 82.007812 196.402344 78.453125 199.394531 C 75.164062 202.152344 72.324219 204.53125 66.429688 204.53125 C 62.757812 204.53125 60.410156 203.585938 58.617188 202.496094 L 58.617188 187.984375 C 58.617188 180.742188 64.507812 174.847656 71.75 174.847656 Z M 54.824219 243.921875 L 215.167969 243.921875 C 222.410156 243.921875 228.300781 249.8125 228.300781 257.058594 L 228.300781 279.160156 C 224.167969 278.542969 221.636719 276.59375 218.902344 274.296875 C 215.347656 271.3125 211.308594 267.925781 203.492188 267.925781 C 195.679688 267.925781 191.644531 271.3125 188.089844 274.296875 C 184.800781 277.054688 181.960938 279.441406 176.054688 279.441406 C 170.160156 279.441406 167.320312 277.058594 164.039062 274.300781 C 160.480469 271.3125 156.453125 267.925781 148.640625 267.925781 C 140.835938 267.925781 136.804688 271.3125 133.253906 274.296875 C 129.972656 277.054688 127.140625 279.441406 121.242188 279.441406 C 115.355469 279.441406 112.523438 277.058594 109.246094 274.300781 C 105.691406 271.3125 101.660156 267.925781 93.855469 267.925781 C 86.046875 267.925781 82.019531 271.3125 78.46875 274.300781 C 75.183594 277.058594 72.347656 279.441406 66.457031 279.441406 C 60.566406 279.441406 57.734375 277.058594 54.449219 274.300781 C 51.320312 271.667969 47.816406 268.734375 41.6875 268.070312 L 41.6875 257.058594 C 41.6875 249.8125 47.578125 243.921875 54.824219 243.921875 Z M 240.085938 340.203125 C 240.085938 341.652344 238.902344 342.832031 237.457031 342.832031 L 32.53125 342.832031 C 31.085938 342.832031 29.90625 341.652344 29.90625 340.203125 L 29.90625 328.738281 C 29.90625 327.289062 31.085938 326.113281 32.53125 326.113281 L 237.457031 326.113281 C 238.902344 326.113281 240.085938 327.289062 240.085938 328.738281 Z M 240.085938 340.203125 " fill-opacity="1" fill-rule="nonzero"></path></g></svg> 