<?xml version="1.0" encoding="UTF-8"?> <svg xmlns="http://www.w3.org/2000/svg" xmlns:xlink="http://www.w3.org/1999/xlink" width="360" zoomAndPan="magnify" viewBox="0 0 270 359.999987" height="480" preserveAspectRatio="xMidYMid meet" version="1.0"><defs><clipPath id="bb39406bd2"><path d="M 171.886719 201.582031 L 172.296875 201.582031 L 172.296875 201.863281 L 171.886719 201.863281 Z M 171.886719 201.582031 " clip-rule="nonzero"></path></clipPath><clipPath id="558f6d5dfd"><path d="M 172.273438 201.75 C 171.523438 202.050781 172.125 201.601562 172.125 201.601562 " clip-rule="nonzero"></path></clipPath><clipPath id="e74f6165e1"><path d="M 0.886719 0.582031 L 1.296875 0.582031 L 1.296875 0.863281 L 0.886719 0.863281 Z M 0.886719 0.582031 " clip-rule="nonzero"></path></clipPath><clipPath id="c12e3d3420"><path d="M 1.273438 0.75 C 0.523438 1.050781 1.125 0.601562 1.125 0.601562 " clip-rule="nonzero"></path></clipPath><clipPath id="bf0f418417"><rect x="0" width="2" y="0" height="1"></rect></clipPath><clipPath id="687bd48594"><path d="M 78.0625 176.757812 L 78.472656 176.757812 L 78.472656 177 L 78.0625 177 Z M 78.0625 176.757812 " clip-rule="nonzero"></path></clipPath><clipPath id="b95b50b8bd"><path d="M 78.449219 176.925781 C 77.699219 177.148438 78.300781 176.773438 78.300781 176.773438 " clip-rule="nonzero"></path></clipPath><clipPath id="150215c886"><path d="M 0.0625 0.757812 L 0.472656 0.757812 L 0.472656 1 L 0.0625 1 Z M 0.0625 0.757812 " clip-rule="nonzero"></path></clipPath><clipPath id="edff447508"><path d="M 0.449219 0.925781 C -0.300781 1.148438 0.300781 0.773438 0.300781 0.773438 " clip-rule="nonzero"></path></clipPath><clipPath id="0b3d131e65"><rect x="0" width="1" y="0" height="1"></rect></clipPath><clipPath id="3b75698651"><path d="M 0.0625 0.757812 L 0.472656 0.757812 L 0.472656 1 L 0.0625 1 Z M 0.0625 0.757812 " clip-rule="nonzero"></path></clipPath><clipPath id="ea2d2bf30d"><path d="M 0.449219 0.925781 C -0.300781 1.148438 0.300781 0.773438 0.300781 0.773438 " clip-rule="nonzero"></path></clipPath><clipPath id="c8607a2d1c"><rect x="0" width="1" y="0" height="1"></rect></clipPath><clipPath id="a70d5e61f8"><path d="M 52.664062 89.480469 L 233.414062 89.480469 L 233.414062 270.230469 L 52.664062 270.230469 Z M 52.664062 89.480469 " clip-rule="nonzero"></path></clipPath></defs><g clip-path="url(#bb39406bd2)"><g clip-path="url(#558f6d5dfd)"><g transform="matrix(1, 0, 0, 1, 171, 201)"><g clip-path="url(#bf0f418417)"><g clip-path="url(#e74f6165e1)"><g clip-path="url(#c12e3d3420)"><rect x="-230.4" width="388.8" fill="#492c01" height="518.399981" y="-280.199997" fill-opacity="1"></rect></g></g></g></g></g></g><g clip-path="url(#687bd48594)"><g clip-path="url(#b95b50b8bd)"><g transform="matrix(1, 0, 0, 1, 78, 176)"><g clip-path="url(#0b3d131e65)"><g clip-path="url(#150215c886)"><g clip-path="url(#edff447508)"><rect x="-137.4" width="388.8" fill="#492c01" height="518.399981" y="-255.199997" fill-opacity="1"></rect></g></g></g></g><g transform="matrix(1, 0, 0, 1, 78, 176)"><g clip-path="url(#c8607a2d1c)"><g clip-path="url(#3b75698651)"><g clip-path="url(#ea2d2bf30d)"><rect x="-137.4" width="388.8" fill="#492c01" height="518.399981" y="-255.199997" fill-opacity="1"></rect></g></g></g></g></g></g><g clip-path="url(#a70d5e61f8)"><path fill="#492c01" d="M 105.667969 90.105469 C 96.039062 90.554688 89.464844 92.097656 83.71875 94.351562 C 77.765625 96.667969 72.726562 99.773438 67.714844 104.8125 C 62.691406 109.851562 59.605469 114.902344 57.308594 120.859375 C 55.085938 126.625 53.574219 133.199219 53.148438 142.835938 C 52.722656 152.480469 52.628906 155.558594 52.671875 180.132812 C 52.714844 204.699219 52.824219 207.785156 53.285156 217.441406 C 53.746094 227.066406 55.28125 233.632812 57.53125 239.386719 C 59.851562 245.339844 62.953125 250.371094 67.996094 255.394531 C 73.035156 260.417969 78.082031 263.496094 84.042969 265.796875 C 89.796875 268.023438 96.382812 269.539062 106.007812 269.957031 C 115.660156 270.382812 118.738281 270.476562 143.304688 270.425781 C 167.882812 270.382812 170.960938 270.273438 180.613281 269.8125 C 190.238281 269.351562 196.804688 267.808594 202.5625 265.566406 C 208.511719 263.238281 213.554688 260.144531 218.566406 255.105469 C 223.582031 250.0625 226.667969 245.015625 228.96875 239.054688 C 231.195312 233.300781 232.714844 226.71875 233.132812 217.097656 C 233.550781 207.445312 233.652344 204.359375 233.609375 179.792969 C 233.566406 155.226562 233.445312 152.148438 232.996094 142.496094 C 232.535156 132.859375 231 126.292969 228.75 120.535156 C 226.421875 114.585938 223.324219 109.554688 218.285156 104.53125 C 213.246094 99.519531 208.199219 96.421875 202.238281 94.128906 C 196.480469 91.902344 189.898438 90.386719 180.273438 89.96875 C 170.617188 89.539062 167.53125 89.445312 142.964844 89.488281 C 118.398438 89.53125 115.320312 89.644531 105.667969 90.105469 M 106.726562 253.664062 C 97.90625 253.277344 93.117188 251.8125 89.917969 250.585938 C 85.6875 248.949219 82.679688 246.984375 79.496094 243.839844 C 76.324219 240.675781 74.363281 237.664062 72.710938 233.453125 C 71.472656 230.265625 69.980469 225.480469 69.5625 216.65625 C 69.113281 207.121094 69.007812 204.257812 68.964844 180.097656 C 68.925781 155.949219 69.007812 153.085938 69.425781 143.542969 C 69.800781 134.726562 71.277344 129.933594 72.503906 126.746094 C 74.144531 122.515625 76.09375 119.503906 79.25 116.324219 C 82.414062 113.152344 85.425781 111.191406 89.644531 109.535156 C 92.835938 108.292969 97.617188 106.808594 106.433594 106.390625 C 115.976562 105.9375 118.832031 105.84375 142.992188 105.792969 C 167.148438 105.742188 170.011719 105.828125 179.554688 106.253906 C 188.371094 106.636719 193.164062 108.097656 196.355469 109.332031 C 200.582031 110.96875 203.601562 112.914062 206.773438 116.078125 C 209.945312 119.242188 211.914062 122.242188 213.5625 126.472656 C 214.804688 129.652344 216.289062 134.445312 216.707031 143.253906 C 217.160156 152.796875 217.261719 155.660156 217.304688 179.808594 C 217.347656 203.964844 217.261719 206.832031 216.84375 216.363281 C 216.460938 225.183594 214.992188 229.984375 213.765625 233.171875 C 212.128906 237.394531 210.175781 240.410156 207.011719 243.582031 C 203.847656 246.746094 200.847656 248.71875 196.617188 250.371094 C 193.4375 251.617188 188.644531 253.101562 179.835938 253.519531 C 170.292969 253.96875 167.4375 254.070312 143.273438 254.113281 C 119.125 254.15625 116.257812 254.070312 106.714844 253.652344 M 180.484375 131.597656 C 180.492188 137.589844 185.371094 142.441406 191.355469 142.425781 C 197.351562 142.417969 202.203125 137.546875 202.195312 131.554688 C 202.1875 125.558594 197.308594 120.707031 191.3125 120.714844 C 185.320312 120.726562 180.46875 125.601562 180.476562 131.589844 M 96.679688 180.046875 C 96.730469 205.707031 117.570312 226.460938 143.222656 226.410156 C 168.878906 226.359375 189.644531 205.527344 189.589844 179.867188 C 189.539062 154.21875 168.699219 133.457031 143.042969 133.5 C 117.390625 133.550781 96.628906 154.390625 96.679688 180.046875 M 112.976562 180.015625 C 112.949219 163.359375 126.421875 149.828125 143.074219 149.800781 C 159.730469 149.769531 173.261719 163.242188 173.296875 179.902344 C 173.332031 196.554688 159.847656 210.089844 143.195312 210.113281 C 126.542969 210.148438 113.007812 196.667969 112.984375 180.015625 " fill-opacity="1" fill-rule="nonzero"></path></g></svg> 