<?xml version="1.0" encoding="UTF-8"?> <svg xmlns="http://www.w3.org/2000/svg" xmlns:xlink="http://www.w3.org/1999/xlink" width="360" zoomAndPan="magnify" viewBox="0 0 270 359.999987" height="480" preserveAspectRatio="xMidYMid meet" version="1.0"><defs><g></g><clipPath id="4b45044e47"><path d="M 171.886719 201.582031 L 172.296875 201.582031 L 172.296875 201.863281 L 171.886719 201.863281 Z M 171.886719 201.582031 " clip-rule="nonzero"></path></clipPath><clipPath id="fd7575e7a5"><path d="M 172.273438 201.75 C 171.523438 202.050781 172.125 201.601562 172.125 201.601562 " clip-rule="nonzero"></path></clipPath><clipPath id="3ba5e0e7d2"><path d="M 0.886719 0.582031 L 1.296875 0.582031 L 1.296875 0.863281 L 0.886719 0.863281 Z M 0.886719 0.582031 " clip-rule="nonzero"></path></clipPath><clipPath id="a640401c4d"><path d="M 1.273438 0.75 C 0.523438 1.050781 1.125 0.601562 1.125 0.601562 " clip-rule="nonzero"></path></clipPath><clipPath id="32f521a524"><rect x="0" width="2" y="0" height="1"></rect></clipPath><clipPath id="99cdeb0f31"><path d="M 78.0625 176.757812 L 78.472656 176.757812 L 78.472656 177 L 78.0625 177 Z M 78.0625 176.757812 " clip-rule="nonzero"></path></clipPath><clipPath id="dc06c9d1c1"><path d="M 78.449219 176.925781 C 77.699219 177.148438 78.300781 176.773438 78.300781 176.773438 " clip-rule="nonzero"></path></clipPath><clipPath id="4bd9685889"><path d="M 0.0625 0.757812 L 0.472656 0.757812 L 0.472656 1 L 0.0625 1 Z M 0.0625 0.757812 " clip-rule="nonzero"></path></clipPath><clipPath id="24f0b7e7c6"><path d="M 0.449219 0.925781 C -0.300781 1.148438 0.300781 0.773438 0.300781 0.773438 " clip-rule="nonzero"></path></clipPath><clipPath id="07e754ec61"><rect x="0" width="1" y="0" height="1"></rect></clipPath><clipPath id="2be7c831f4"><path d="M 0.0625 0.757812 L 0.472656 0.757812 L 0.472656 1 L 0.0625 1 Z M 0.0625 0.757812 " clip-rule="nonzero"></path></clipPath><clipPath id="f9824a474c"><path d="M 0.449219 0.925781 C -0.300781 1.148438 0.300781 0.773438 0.300781 0.773438 " clip-rule="nonzero"></path></clipPath><clipPath id="c047946ec0"><rect x="0" width="1" y="0" height="1"></rect></clipPath><clipPath id="ce0c1338f4"><rect x="0" width="201" y="0" height="101"></rect></clipPath></defs><g clip-path="url(#4b45044e47)"><g clip-path="url(#fd7575e7a5)"><g transform="matrix(1, 0, 0, 1, 171, 201)"><g clip-path="url(#32f521a524)"><g clip-path="url(#3ba5e0e7d2)"><g clip-path="url(#a640401c4d)"><rect x="-230.4" width="388.8" fill="#492c01" height="518.399981" y="-280.199997" fill-opacity="1"></rect></g></g></g></g></g></g><g clip-path="url(#99cdeb0f31)"><g clip-path="url(#dc06c9d1c1)"><g transform="matrix(1, 0, 0, 1, 78, 176)"><g clip-path="url(#07e754ec61)"><g clip-path="url(#4bd9685889)"><g clip-path="url(#24f0b7e7c6)"><rect x="-137.4" width="388.8" fill="#492c01" height="518.399981" y="-255.199997" fill-opacity="1"></rect></g></g></g></g><g transform="matrix(1, 0, 0, 1, 78, 176)"><g clip-path="url(#c047946ec0)"><g clip-path="url(#2be7c831f4)"><g clip-path="url(#f9824a474c)"><rect x="-137.4" width="388.8" fill="#492c01" height="518.399981" y="-255.199997" fill-opacity="1"></rect></g></g></g></g></g></g><g transform="matrix(1, 0, 0, 1, 33, 129)"><g clip-path="url(#ce0c1338f4)"><g fill="#492c01" fill-opacity="1"><g transform="translate(0.405599, 66.186671)"><g><path d="M 116.59375 -45.796875 C 116.707031 -45.460938 116.382812 -45.195312 115.625 -45 C 114.875 -44.8125 113.96875 -44.71875 112.90625 -44.71875 C 111.519531 -44.71875 109.613281 -44.882812 107.1875 -45.21875 C 104.757812 -45.550781 102.207031 -45.953125 99.53125 -46.421875 C 96.863281 -46.898438 94.390625 -47.363281 92.109375 -47.8125 C 89.097656 -45.132812 86.003906 -42.191406 82.828125 -38.984375 C 79.648438 -35.785156 76.554688 -32.609375 73.546875 -29.453125 C 70.535156 -26.304688 67.78125 -23.398438 65.28125 -20.734375 C 60.09375 -15.265625 54.796875 -10.441406 49.390625 -6.265625 C 43.984375 -2.085938 38.507812 1.125 32.96875 3.375 C 27.425781 5.632812 21.84375 6.65625 16.21875 6.4375 C 14.257812 6.320312 12.375 5.914062 10.5625 5.21875 C 8.757812 4.519531 7.285156 3.378906 6.140625 1.796875 C 4.992188 0.210938 4.421875 -1.945312 4.421875 -4.6875 C 4.421875 -6.851562 4.867188 -9.148438 5.765625 -11.578125 C 6.660156 -14.003906 8 -16.441406 9.78125 -18.890625 C 9.382812 -19.171875 8.738281 -19.992188 7.84375 -21.359375 C 6.957031 -22.722656 6.488281 -24.738281 6.4375 -27.40625 C 6.382812 -30.363281 7.148438 -33.441406 8.734375 -36.640625 C 10.316406 -39.847656 12.890625 -42.84375 16.453125 -45.625 C 20.023438 -48.414062 24.734375 -50.6875 30.578125 -52.4375 C 36.429688 -54.195312 43.59375 -55.078125 52.0625 -55.078125 C 55.96875 -55.078125 60.148438 -54.835938 64.609375 -54.359375 C 69.066406 -53.890625 73.609375 -53.265625 78.234375 -52.484375 C 82.859375 -51.703125 87.34375 -50.867188 91.6875 -49.984375 C 92.46875 -50.597656 93.625 -51.347656 95.15625 -52.234375 C 96.6875 -53.128906 98.203125 -53.769531 99.703125 -54.15625 C 100.265625 -54.320312 100.722656 -54.429688 101.078125 -54.484375 C 101.441406 -54.546875 101.625 -54.4375 101.625 -54.15625 C 101.625 -53.988281 101.484375 -53.863281 101.203125 -53.78125 C 100.929688 -53.695312 100.597656 -53.570312 100.203125 -53.40625 C 98.867188 -52.851562 97.613281 -52.226562 96.4375 -51.53125 C 95.269531 -50.832031 94.328125 -50.175781 93.609375 -49.5625 C 95.222656 -49.175781 97.003906 -48.757812 98.953125 -48.3125 C 100.898438 -47.863281 102.878906 -47.429688 104.890625 -47.015625 C 106.898438 -46.597656 108.722656 -46.265625 110.359375 -46.015625 C 112.003906 -45.765625 113.328125 -45.640625 114.328125 -45.640625 C 115.109375 -45.640625 115.664062 -45.691406 116 -45.796875 C 116.34375 -45.910156 116.539062 -45.910156 116.59375 -45.796875 Z M 89.671875 -48.21875 C 87.003906 -48.664062 84.050781 -49.125 80.8125 -49.59375 C 77.582031 -50.070312 74.238281 -50.503906 70.78125 -50.890625 C 67.332031 -51.285156 63.988281 -51.59375 60.75 -51.8125 C 57.519531 -52.039062 54.570312 -52.15625 51.90625 -52.15625 C 43.9375 -52.15625 37.132812 -51.414062 31.5 -49.9375 C 25.875 -48.457031 21.289062 -46.503906 17.75 -44.078125 C 14.21875 -41.660156 11.644531 -39.003906 10.03125 -36.109375 C 8.414062 -33.210938 7.632812 -30.34375 7.6875 -27.5 C 7.6875 -25.601562 7.953125 -23.972656 8.484375 -22.609375 C 9.015625 -21.242188 9.613281 -20.226562 10.28125 -19.5625 C 11.726562 -21.394531 13.382812 -23.1875 15.25 -24.9375 C 17.113281 -26.695312 19.160156 -28.359375 21.390625 -29.921875 C 23.679688 -31.484375 26.300781 -32.929688 29.25 -34.265625 C 32.207031 -35.597656 35.257812 -36.679688 38.40625 -37.515625 C 41.550781 -38.359375 44.601562 -38.78125 47.5625 -38.78125 C 50.507812 -38.78125 52.984375 -38.207031 54.984375 -37.0625 C 56.992188 -35.925781 57.945312 -33.878906 57.84375 -30.921875 C 57.84375 -29.972656 57.644531 -29.5 57.25 -29.5 C 57.03125 -29.5 56.921875 -29.640625 56.921875 -29.921875 C 56.921875 -30.203125 56.921875 -30.617188 56.921875 -31.171875 C 56.859375 -33.453125 56.003906 -35.09375 54.359375 -36.09375 C 52.722656 -37.101562 50.816406 -37.609375 48.640625 -37.609375 C 46.023438 -37.609375 43.179688 -37.0625 40.109375 -35.96875 C 37.046875 -34.882812 34.066406 -33.550781 31.171875 -31.96875 C 28.273438 -30.382812 25.710938 -28.78125 23.484375 -27.15625 C 18.191406 -23.425781 13.898438 -19.566406 10.609375 -15.578125 C 7.328125 -11.597656 5.6875 -7.742188 5.6875 -4.015625 C 5.6875 -1.617188 6.226562 0.21875 7.3125 1.5 C 8.394531 2.78125 9.769531 3.6875 11.4375 4.21875 C 13.113281 4.75 14.816406 5.039062 16.546875 5.09375 C 19.941406 5.15625 23.492188 4.429688 27.203125 2.921875 C 30.910156 1.421875 34.695312 -0.632812 38.5625 -3.25 C 42.4375 -5.875 46.296875 -8.828125 50.140625 -12.109375 C 53.984375 -15.398438 57.691406 -18.742188 61.265625 -22.140625 C 66.722656 -27.378906 71.765625 -32.210938 76.390625 -36.640625 C 81.015625 -41.078125 85.441406 -44.9375 89.671875 -48.21875 Z M 89.671875 -48.21875 "></path></g></g></g><g fill="#492c01" fill-opacity="1"><g transform="translate(64.578669, 66.186671)"><g><path d="M 32.09375 -24.40625 C 29.8125 -22.289062 27.429688 -19.960938 24.953125 -17.421875 C 22.472656 -14.890625 19.753906 -11.925781 16.796875 -8.53125 C 14.117188 -5.457031 11.007812 -2.070312 7.46875 1.625 C 3.9375 5.332031 0.25 8.691406 -3.59375 11.703125 C -8.882812 15.765625 -14.273438 18.84375 -19.765625 20.9375 C -25.253906 23.03125 -30.253906 24.046875 -34.765625 23.984375 C -37.390625 23.929688 -39.84375 23.523438 -42.125 22.765625 C -44.40625 22.015625 -46.3125 20.898438 -47.84375 19.421875 C -49.375 17.953125 -50.363281 16.160156 -50.8125 14.046875 C -51.09375 12.703125 -50.953125 11.976562 -50.390625 11.875 C -50.171875 11.757812 -50.019531 11.867188 -49.9375 12.203125 C -49.851562 12.535156 -49.785156 12.867188 -49.734375 13.203125 C -49.335938 15.210938 -48.414062 16.910156 -46.96875 18.296875 C -45.519531 19.691406 -43.75 20.738281 -41.65625 21.4375 C -39.570312 22.132812 -37.414062 22.507812 -35.1875 22.5625 C -31.789062 22.625 -28.445312 22.082031 -25.15625 20.9375 C -21.863281 19.789062 -18.695312 18.285156 -15.65625 16.421875 C -12.625 14.554688 -9.882812 12.648438 -7.4375 10.703125 C -5.769531 9.359375 -3.988281 7.835938 -2.09375 6.140625 C -0.195312 4.441406 1.664062 2.703125 3.5 0.921875 C 5.34375 -0.859375 7.015625 -2.53125 8.515625 -4.09375 C 10.023438 -5.65625 11.226562 -6.96875 12.125 -8.03125 C 12.226562 -8.132812 12.253906 -8.210938 12.203125 -8.265625 C 12.148438 -8.328125 12.066406 -8.300781 11.953125 -8.1875 C 11.117188 -7.46875 10.195312 -6.660156 9.1875 -5.765625 C 8.1875 -4.867188 7.519531 -4.285156 7.1875 -4.015625 C 5.738281 -2.898438 4.207031 -1.851562 2.59375 -0.875 C 0.976562 0.09375 -0.382812 0.578125 -1.5 0.578125 C -2.5625 0.578125 -3.300781 0.34375 -3.71875 -0.125 C -4.132812 -0.59375 -4.34375 -1.191406 -4.34375 -1.921875 C -4.34375 -3.316406 -3.785156 -4.914062 -2.671875 -6.71875 C -1.554688 -8.53125 -0.0507812 -10.46875 1.84375 -12.53125 C 2.957031 -13.707031 4.289062 -14.976562 5.84375 -16.34375 C 7.40625 -17.707031 8.976562 -18.988281 10.5625 -20.1875 C 12.15625 -21.382812 13.507812 -22.289062 14.625 -22.90625 C 15.238281 -23.289062 16.113281 -23.566406 17.25 -23.734375 C 18.394531 -23.898438 19.25 -23.957031 19.8125 -23.90625 C 17.351562 -21.894531 14.941406 -19.816406 12.578125 -17.671875 C 10.210938 -15.523438 8.125 -13.519531 6.3125 -11.65625 C 4.5 -9.789062 3.09375 -8.242188 2.09375 -7.015625 C 1.082031 -5.796875 0.234375 -4.695312 -0.453125 -3.71875 C -1.148438 -2.738281 -1.5 -2 -1.5 -1.5 C -1.5 -1 -1.25 -0.75 -0.75 -0.75 C 0.03125 -0.75 1.144531 -1.222656 2.59375 -2.171875 C 4.039062 -3.117188 5.378906 -4.039062 6.609375 -4.9375 C 7.328125 -5.488281 8.242188 -6.265625 9.359375 -7.265625 C 10.472656 -8.273438 11.628906 -9.335938 12.828125 -10.453125 C 14.023438 -11.566406 15.070312 -12.539062 15.96875 -13.375 C 17.132812 -14.539062 18.398438 -15.78125 19.765625 -17.09375 C 21.128906 -18.40625 22.492188 -19.644531 23.859375 -20.8125 C 25.222656 -21.976562 26.460938 -22.894531 27.578125 -23.5625 C 28.023438 -23.84375 28.75 -24.066406 29.75 -24.234375 C 30.757812 -24.398438 31.539062 -24.457031 32.09375 -24.40625 Z M 32.09375 -24.40625 "></path></g></g></g><g fill="#492c01" fill-opacity="1"><g transform="translate(88.643439, 66.186671)"><g><path d="M 13.375 0.75 C 11.425781 0.75 10.453125 -0.140625 10.453125 -1.921875 C 10.453125 -3.148438 10.8125 -4.390625 11.53125 -5.640625 C 12.257812 -6.890625 13.148438 -8.128906 14.203125 -9.359375 C 15.148438 -10.472656 16.164062 -11.515625 17.25 -12.484375 C 18.34375 -13.460938 19.332031 -14.375 20.21875 -15.21875 C 20.445312 -15.4375 20.519531 -15.554688 20.4375 -15.578125 C 20.351562 -15.609375 20.226562 -15.570312 20.0625 -15.46875 C 18.664062 -14.289062 17.203125 -13.0625 15.671875 -11.78125 C 14.140625 -10.5 12.648438 -9.25 11.203125 -8.03125 C 9.859375 -6.851562 8.265625 -5.582031 6.421875 -4.21875 C 4.585938 -2.851562 2.78125 -1.679688 1 -0.703125 C -0.78125 0.265625 -2.3125 0.75 -3.59375 0.75 C -5.65625 0.75 -6.6875 -0.195312 -6.6875 -2.09375 C -6.6875 -2.925781 -6.445312 -3.882812 -5.96875 -4.96875 C -5.5 -6.0625 -4.816406 -7.050781 -3.921875 -7.9375 C -3.421875 -8.4375 -2.90625 -8.851562 -2.375 -9.1875 C -1.851562 -9.519531 -1.3125 -9.6875 -0.75 -9.6875 C -0.195312 -9.6875 0.078125 -9.410156 0.078125 -8.859375 C 0.078125 -8.359375 -0.15625 -7.828125 -0.625 -7.265625 C -1.101562 -6.710938 -1.644531 -6.1875 -2.25 -5.6875 C -4.257812 -4.238281 -5.265625 -2.957031 -5.265625 -1.84375 C -5.265625 -0.78125 -4.707031 -0.25 -3.59375 -0.25 C -2.644531 -0.25 -1.421875 -0.664062 0.078125 -1.5 C 1.585938 -2.34375 3.191406 -3.390625 4.890625 -4.640625 C 6.585938 -5.890625 8.226562 -7.171875 9.8125 -8.484375 C 11.40625 -9.796875 12.734375 -10.894531 13.796875 -11.78125 C 15.742188 -13.394531 17.707031 -14.96875 19.6875 -16.5 C 21.664062 -18.039062 23.472656 -19.394531 25.109375 -20.5625 C 26.753906 -21.726562 28.050781 -22.59375 29 -23.15625 C 29.726562 -23.59375 30.550781 -23.894531 31.46875 -24.0625 C 32.382812 -24.238281 33.257812 -24.296875 34.09375 -24.234375 C 31.695312 -22.066406 29.359375 -19.878906 27.078125 -17.671875 C 24.796875 -15.472656 22.75 -13.425781 20.9375 -11.53125 C 19.125 -9.632812 17.71875 -8.101562 16.71875 -6.9375 C 15.71875 -5.707031 14.910156 -4.632812 14.296875 -3.71875 C 13.679688 -2.800781 13.375 -2.035156 13.375 -1.421875 C 13.375 -0.859375 13.679688 -0.578125 14.296875 -0.578125 C 14.910156 -0.578125 15.660156 -0.800781 16.546875 -1.25 C 17.441406 -1.695312 18.375 -2.226562 19.34375 -2.84375 C 20.320312 -3.457031 21.144531 -4.015625 21.8125 -4.515625 C 22.757812 -5.234375 23.789062 -6.050781 24.90625 -6.96875 C 26.019531 -7.894531 27.0625 -8.773438 28.03125 -9.609375 C 29.007812 -10.441406 29.78125 -11.113281 30.34375 -11.625 C 30.957031 -12.175781 31.375 -12.285156 31.59375 -11.953125 C 31.8125 -11.734375 31.726562 -11.425781 31.34375 -11.03125 C 30.613281 -10.414062 29.675781 -9.617188 28.53125 -8.640625 C 27.394531 -7.671875 26.28125 -6.722656 25.1875 -5.796875 C 24.101562 -4.878906 23.226562 -4.171875 22.5625 -3.671875 C 21.226562 -2.671875 19.710938 -1.679688 18.015625 -0.703125 C 16.316406 0.265625 14.769531 0.75 13.375 0.75 Z M 13.375 0.75 "></path></g></g></g><g fill="#492c01" fill-opacity="1"><g transform="translate(117.638301, 66.186671)"><g><path d="M 13.28125 -1.421875 C 13.28125 -0.859375 13.585938 -0.578125 14.203125 -0.578125 C 14.816406 -0.578125 15.566406 -0.800781 16.453125 -1.25 C 17.347656 -1.695312 18.285156 -2.226562 19.265625 -2.84375 C 20.242188 -3.457031 21.066406 -4.015625 21.734375 -4.515625 C 22.679688 -5.234375 23.710938 -6.050781 24.828125 -6.96875 C 25.941406 -7.894531 27 -8.773438 28 -9.609375 C 29 -10.441406 29.78125 -11.113281 30.34375 -11.625 C 30.894531 -12.175781 31.3125 -12.285156 31.59375 -11.953125 C 31.8125 -11.785156 31.703125 -11.476562 31.265625 -11.03125 C 30.535156 -10.414062 29.613281 -9.617188 28.5 -8.640625 C 27.382812 -7.671875 26.269531 -6.722656 25.15625 -5.796875 C 24.039062 -4.878906 23.148438 -4.171875 22.484375 -3.671875 C 21.148438 -2.671875 19.628906 -1.679688 17.921875 -0.703125 C 16.222656 0.265625 14.675781 0.75 13.28125 0.75 C 11.332031 0.75 10.359375 -0.140625 10.359375 -1.921875 C 10.359375 -2.816406 10.648438 -3.863281 11.234375 -5.0625 C 11.828125 -6.257812 12.566406 -7.46875 13.453125 -8.6875 C 14.117188 -9.582031 14.84375 -10.460938 15.625 -11.328125 C 16.40625 -12.191406 17.210938 -13.039062 18.046875 -13.875 C 17.441406 -13.476562 16.582031 -12.972656 15.46875 -12.359375 C 14.351562 -11.753906 13.320312 -11.453125 12.375 -11.453125 C 11.59375 -11.453125 10.992188 -11.644531 10.578125 -12.03125 C 10.160156 -12.425781 9.613281 -12.625 8.9375 -12.625 C 8.5 -12.625 7.957031 -12.398438 7.3125 -11.953125 C 6.675781 -11.503906 6.078125 -11.03125 5.515625 -10.53125 C 4.960938 -10.03125 4.570312 -9.664062 4.34375 -9.4375 C 2.726562 -7.820312 1.210938 -6.132812 -0.203125 -4.375 C -1.628906 -2.625 -3.066406 -0.800781 -4.515625 1.09375 C -4.847656 1.09375 -5.109375 0.894531 -5.296875 0.5 C -5.492188 0.113281 -5.59375 -0.328125 -5.59375 -0.828125 C -5.59375 -1.554688 -5.019531 -2.785156 -3.875 -4.515625 C -2.738281 -6.242188 -1.320312 -8.164062 0.375 -10.28125 C 2.070312 -12.394531 3.785156 -14.34375 5.515625 -16.125 C 6.847656 -17.570312 8.210938 -18.894531 9.609375 -20.09375 C 11.003906 -21.289062 12.203125 -22.226562 13.203125 -22.90625 C 13.929688 -23.34375 14.835938 -23.671875 15.921875 -23.890625 C 17.003906 -24.117188 18.078125 -24.234375 19.140625 -24.234375 C 18.078125 -23.515625 16.789062 -22.5 15.28125 -21.1875 C 13.78125 -19.875 12.25 -18.421875 10.6875 -16.828125 C 9.132812 -15.242188 7.691406 -13.675781 6.359375 -12.125 C 7.128906 -12.726562 7.945312 -13.296875 8.8125 -13.828125 C 9.675781 -14.359375 10.414062 -14.625 11.03125 -14.625 C 11.8125 -14.625 12.476562 -14.457031 13.03125 -14.125 C 13.59375 -13.789062 14.207031 -13.625 14.875 -13.625 C 15.820312 -13.625 16.863281 -13.929688 18 -14.546875 C 19.144531 -15.160156 20.222656 -15.9375 21.234375 -16.875 C 22.679688 -18.21875 24.15625 -19.5 25.65625 -20.71875 C 27.164062 -21.945312 28.421875 -22.84375 29.421875 -23.40625 C 30.035156 -23.738281 30.816406 -23.972656 31.765625 -24.109375 C 32.710938 -24.253906 33.460938 -24.296875 34.015625 -24.234375 C 31.617188 -22.066406 29.273438 -19.878906 26.984375 -17.671875 C 24.703125 -15.472656 22.65625 -13.425781 20.84375 -11.53125 C 19.039062 -9.632812 17.632812 -8.101562 16.625 -6.9375 C 15.6875 -5.769531 14.894531 -4.710938 14.25 -3.765625 C 13.601562 -2.816406 13.28125 -2.035156 13.28125 -1.421875 Z M 13.28125 -1.421875 "></path></g></g></g><g fill="#492c01" fill-opacity="1"><g transform="translate(146.549605, 66.186671)"><g><path d="M 32.09375 -24.40625 C 29.8125 -22.289062 27.429688 -19.960938 24.953125 -17.421875 C 22.472656 -14.890625 19.753906 -11.925781 16.796875 -8.53125 C 14.117188 -5.457031 11.007812 -2.070312 7.46875 1.625 C 3.9375 5.332031 0.25 8.691406 -3.59375 11.703125 C -8.882812 15.765625 -14.273438 18.84375 -19.765625 20.9375 C -25.253906 23.03125 -30.253906 24.046875 -34.765625 23.984375 C -37.390625 23.929688 -39.84375 23.523438 -42.125 22.765625 C -44.40625 22.015625 -46.3125 20.898438 -47.84375 19.421875 C -49.375 17.953125 -50.363281 16.160156 -50.8125 14.046875 C -51.09375 12.703125 -50.953125 11.976562 -50.390625 11.875 C -50.171875 11.757812 -50.019531 11.867188 -49.9375 12.203125 C -49.851562 12.535156 -49.785156 12.867188 -49.734375 13.203125 C -49.335938 15.210938 -48.414062 16.910156 -46.96875 18.296875 C -45.519531 19.691406 -43.75 20.738281 -41.65625 21.4375 C -39.570312 22.132812 -37.414062 22.507812 -35.1875 22.5625 C -31.789062 22.625 -28.445312 22.082031 -25.15625 20.9375 C -21.863281 19.789062 -18.695312 18.285156 -15.65625 16.421875 C -12.625 14.554688 -9.882812 12.648438 -7.4375 10.703125 C -5.769531 9.359375 -3.988281 7.835938 -2.09375 6.140625 C -0.195312 4.441406 1.664062 2.703125 3.5 0.921875 C 5.34375 -0.859375 7.015625 -2.53125 8.515625 -4.09375 C 10.023438 -5.65625 11.226562 -6.96875 12.125 -8.03125 C 12.226562 -8.132812 12.253906 -8.210938 12.203125 -8.265625 C 12.148438 -8.328125 12.066406 -8.300781 11.953125 -8.1875 C 11.117188 -7.46875 10.195312 -6.660156 9.1875 -5.765625 C 8.1875 -4.867188 7.519531 -4.285156 7.1875 -4.015625 C 5.738281 -2.898438 4.207031 -1.851562 2.59375 -0.875 C 0.976562 0.09375 -0.382812 0.578125 -1.5 0.578125 C -2.5625 0.578125 -3.300781 0.34375 -3.71875 -0.125 C -4.132812 -0.59375 -4.34375 -1.191406 -4.34375 -1.921875 C -4.34375 -3.316406 -3.785156 -4.914062 -2.671875 -6.71875 C -1.554688 -8.53125 -0.0507812 -10.46875 1.84375 -12.53125 C 2.957031 -13.707031 4.289062 -14.976562 5.84375 -16.34375 C 7.40625 -17.707031 8.976562 -18.988281 10.5625 -20.1875 C 12.15625 -21.382812 13.507812 -22.289062 14.625 -22.90625 C 15.238281 -23.289062 16.113281 -23.566406 17.25 -23.734375 C 18.394531 -23.898438 19.25 -23.957031 19.8125 -23.90625 C 17.351562 -21.894531 14.941406 -19.816406 12.578125 -17.671875 C 10.210938 -15.523438 8.125 -13.519531 6.3125 -11.65625 C 4.5 -9.789062 3.09375 -8.242188 2.09375 -7.015625 C 1.082031 -5.796875 0.234375 -4.695312 -0.453125 -3.71875 C -1.148438 -2.738281 -1.5 -2 -1.5 -1.5 C -1.5 -1 -1.25 -0.75 -0.75 -0.75 C 0.03125 -0.75 1.144531 -1.222656 2.59375 -2.171875 C 4.039062 -3.117188 5.378906 -4.039062 6.609375 -4.9375 C 7.328125 -5.488281 8.242188 -6.265625 9.359375 -7.265625 C 10.472656 -8.273438 11.628906 -9.335938 12.828125 -10.453125 C 14.023438 -11.566406 15.070312 -12.539062 15.96875 -13.375 C 17.132812 -14.539062 18.398438 -15.78125 19.765625 -17.09375 C 21.128906 -18.40625 22.492188 -19.644531 23.859375 -20.8125 C 25.222656 -21.976562 26.460938 -22.894531 27.578125 -23.5625 C 28.023438 -23.84375 28.75 -24.066406 29.75 -24.234375 C 30.757812 -24.398438 31.539062 -24.457031 32.09375 -24.40625 Z M 32.09375 -24.40625 "></path></g></g></g><g fill="#492c01" fill-opacity="1"><g transform="translate(172.118669, 66.186671)"><g><path d="M 27.25 -31.921875 C 25.851562 -31.304688 24.597656 -30.5 23.484375 -29.5 C 21.984375 -28.28125 20.226562 -26.734375 18.21875 -24.859375 C 16.21875 -22.992188 14.269531 -21.097656 12.375 -19.171875 C 10.476562 -17.253906 8.890625 -15.570312 7.609375 -14.125 C 7.546875 -14.070312 7.53125 -14.015625 7.5625 -13.953125 C 7.59375 -13.898438 7.632812 -13.898438 7.6875 -13.953125 C 8.519531 -14.734375 9.6875 -15.722656 11.1875 -16.921875 C 12.695312 -18.117188 14.316406 -19.316406 16.046875 -20.515625 C 17.773438 -21.710938 19.414062 -22.710938 20.96875 -23.515625 C 22.53125 -24.328125 23.816406 -24.734375 24.828125 -24.734375 C 25.660156 -24.734375 26.203125 -24.484375 26.453125 -23.984375 C 26.703125 -23.484375 26.828125 -22.867188 26.828125 -22.140625 C 26.828125 -20.421875 26.226562 -18.488281 25.03125 -16.34375 C 23.832031 -14.195312 22.34375 -12.234375 20.5625 -10.453125 C 16.882812 -6.710938 13.441406 -3.9375 10.234375 -2.125 C 7.035156 -0.320312 4.125 0.578125 1.5 0.578125 C 0.445312 0.578125 -0.382812 0.328125 -1 -0.171875 C -1.394531 -0.503906 -1.617188 -0.929688 -1.671875 -1.453125 C -1.722656 -1.984375 -1.613281 -2.28125 -1.34375 -2.34375 C -1.113281 -2.394531 -0.957031 -2.335938 -0.875 -2.171875 C -0.789062 -2.003906 -0.722656 -1.835938 -0.671875 -1.671875 C -0.554688 -1.453125 -0.375 -1.226562 -0.125 -1 C 0.125 -0.78125 0.53125 -0.671875 1.09375 -0.671875 C 2.144531 -0.671875 3.269531 -0.972656 4.46875 -1.578125 C 5.664062 -2.191406 7.210938 -3.375 9.109375 -5.125 C 11.003906 -6.882812 13.566406 -9.410156 16.796875 -12.703125 C 17.859375 -13.765625 19 -14.9375 20.21875 -16.21875 C 21.445312 -17.5 22.503906 -18.722656 23.390625 -19.890625 C 24.285156 -21.054688 24.734375 -21.921875 24.734375 -22.484375 C 24.734375 -22.929688 24.457031 -23.15625 23.90625 -23.15625 C 23.070312 -23.15625 21.773438 -22.664062 20.015625 -21.6875 C 18.265625 -20.707031 16.328125 -19.425781 14.203125 -17.84375 C 12.085938 -16.257812 9.984375 -14.546875 7.890625 -12.703125 C 5.804688 -10.867188 3.957031 -9.140625 2.34375 -7.515625 C -1.5625 -3.617188 -5.671875 0.722656 -9.984375 5.515625 C -14.304688 10.304688 -18.804688 15.9375 -23.484375 22.40625 C -23.984375 23.125 -24.425781 23.757812 -24.8125 24.3125 C -25.207031 24.875 -25.515625 25.15625 -25.734375 25.15625 C -26.078125 25.15625 -26.234375 24.804688 -26.203125 24.109375 C -26.171875 23.410156 -26.070312 22.785156 -25.90625 22.234375 C -25.457031 20.671875 -24.367188 18.578125 -22.640625 15.953125 C -20.921875 13.335938 -18.863281 10.554688 -16.46875 7.609375 C -13.675781 4.203125 -10.882812 0.96875 -8.09375 -2.09375 C -5.3125 -5.15625 -2.78125 -7.867188 -0.5 -10.234375 C 1.78125 -12.609375 3.5625 -14.4375 4.84375 -15.71875 C 6.1875 -17.050781 7.84375 -18.648438 9.8125 -20.515625 C 11.789062 -22.378906 13.796875 -24.175781 15.828125 -25.90625 C 17.867188 -27.632812 19.585938 -29 20.984375 -30 C 21.585938 -30.445312 22.207031 -30.835938 22.84375 -31.171875 C 23.488281 -31.503906 24.09375 -31.726562 24.65625 -31.84375 C 25.101562 -31.957031 25.5625 -32.015625 26.03125 -32.015625 C 26.507812 -32.015625 26.914062 -31.984375 27.25 -31.921875 Z M 27.25 -31.921875 "></path></g></g></g></g></g></svg> 