<?xml version="1.0" encoding="UTF-8"?> <svg xmlns="http://www.w3.org/2000/svg" xmlns:xlink="http://www.w3.org/1999/xlink" width="360" zoomAndPan="magnify" viewBox="0 0 270 359.999987" height="480" preserveAspectRatio="xMidYMid meet" version="1.0"><defs><g></g><clipPath id="50335a9143"><path d="M 171.886719 201.582031 L 172.296875 201.582031 L 172.296875 201.863281 L 171.886719 201.863281 Z M 171.886719 201.582031 " clip-rule="nonzero"></path></clipPath><clipPath id="f2d90e7fee"><path d="M 172.273438 201.75 C 171.523438 202.050781 172.125 201.601562 172.125 201.601562 " clip-rule="nonzero"></path></clipPath><clipPath id="bba98f6dec"><path d="M 0.886719 0.582031 L 1.296875 0.582031 L 1.296875 0.863281 L 0.886719 0.863281 Z M 0.886719 0.582031 " clip-rule="nonzero"></path></clipPath><clipPath id="06a71721b3"><path d="M 1.273438 0.75 C 0.523438 1.050781 1.125 0.601562 1.125 0.601562 " clip-rule="nonzero"></path></clipPath><clipPath id="d4a1ef2d51"><rect x="0" width="2" y="0" height="1"></rect></clipPath><clipPath id="aa83e225c8"><rect x="0" width="209" y="0" height="90"></rect></clipPath></defs><g clip-path="url(#50335a9143)"><g clip-path="url(#f2d90e7fee)"><g transform="matrix(1, 0, 0, 1, 171, 201)"><g clip-path="url(#d4a1ef2d51)"><g clip-path="url(#bba98f6dec)"><g clip-path="url(#06a71721b3)"><rect x="-230.4" width="388.8" fill="#492c01" height="518.399981" y="-280.199997" fill-opacity="1"></rect></g></g></g></g></g></g><g transform="matrix(1, 0, 0, 1, 34, 133)"><g clip-path="url(#aa83e225c8)"><g fill="#492c01" fill-opacity="1"><g transform="translate(3.457533, 59.247419)"><g><path d="M 75.71875 -47.671875 C 75.664062 -47.484375 75.441406 -47.390625 75.046875 -47.390625 C 74.660156 -47.390625 74.070312 -47.289062 73.28125 -47.09375 C 72.050781 -46.800781 70.703125 -46.210938 69.234375 -45.328125 C 67.765625 -44.441406 66.585938 -43.582031 65.703125 -42.75 C 68.160156 -40.632812 69.898438 -38.179688 70.921875 -35.390625 C 71.953125 -32.597656 72.46875 -29.898438 72.46875 -27.296875 C 72.46875 -24.109375 71.867188 -21.113281 70.671875 -18.3125 C 69.472656 -15.519531 67.941406 -13.03125 66.078125 -10.84375 C 64.210938 -8.664062 62.273438 -6.816406 60.265625 -5.296875 C 57.421875 -3.191406 53.8125 -1.453125 49.4375 -0.078125 C 45.070312 1.296875 39.925781 1.957031 34 1.90625 C 30.757812 1.863281 27.59375 1.65625 24.5 1.28125 C 21.40625 0.914062 18.5 0.507812 15.78125 0.0625 C 13.0625 -0.375 10.644531 -0.691406 8.53125 -0.890625 C 9.90625 2.597656 12.078125 5.347656 15.046875 7.359375 C 18.015625 9.367188 21.925781 10.375 26.78125 10.375 C 29.082031 10.375 31.054688 10.101562 32.703125 9.5625 C 34.347656 9.019531 35.5625 8.484375 36.34375 7.953125 C 36.6875 7.753906 36.96875 7.566406 37.1875 7.390625 C 37.414062 7.222656 37.601562 7.1875 37.75 7.28125 C 37.945312 7.476562 37.945312 7.6875 37.75 7.90625 C 37.550781 8.125 37.328125 8.3125 37.078125 8.46875 C 36.242188 9.101562 34.894531 9.722656 33.03125 10.328125 C 31.164062 10.941406 28.984375 11.25 26.484375 11.25 C 21.429688 11.25 17.347656 10.195312 14.234375 8.09375 C 11.117188 5.988281 8.773438 3.070312 7.203125 -0.65625 C 6.765625 -0.613281 5.941406 -0.347656 4.734375 0.140625 C 3.535156 0.640625 2.15625 0.890625 0.59375 0.890625 C -0.09375 0.890625 -0.679688 0.789062 -1.171875 0.59375 C -1.660156 0.394531 -1.90625 0.0703125 -1.90625 -0.375 C -1.90625 -1.007812 -1.609375 -1.484375 -1.015625 -1.796875 C -0.429688 -2.117188 0.285156 -2.351562 1.140625 -2.5 C 1.992188 -2.644531 2.816406 -2.71875 3.609375 -2.71875 C 4.191406 -2.71875 4.765625 -2.691406 5.328125 -2.640625 C 5.898438 -2.597656 6.359375 -2.523438 6.703125 -2.421875 C 6.398438 -3.554688 6.148438 -4.757812 5.953125 -6.03125 C 5.765625 -7.3125 5.671875 -8.734375 5.671875 -10.296875 C 5.671875 -15.890625 6.867188 -21.050781 9.265625 -25.78125 C 11.671875 -30.519531 15.054688 -34.679688 19.421875 -38.265625 C 23.054688 -41.203125 27.238281 -43.628906 31.96875 -45.546875 C 36.695312 -47.460938 41.8125 -48.421875 47.3125 -48.421875 C 51.726562 -48.421875 55.257812 -47.953125 57.90625 -47.015625 C 60.550781 -46.085938 62.757812 -44.984375 64.53125 -43.703125 C 65.414062 -44.390625 66.664062 -45.175781 68.28125 -46.0625 C 69.894531 -46.945312 71.390625 -47.535156 72.765625 -47.828125 C 73.453125 -47.972656 74.125 -48.046875 74.78125 -48.046875 C 75.445312 -48.046875 75.757812 -47.921875 75.71875 -47.671875 Z M 63.640625 -43.046875 C 62.222656 -44.171875 60.3125 -45.132812 57.90625 -45.9375 C 55.5 -46.75 52.457031 -47.15625 48.78125 -47.15625 C 45.050781 -47.15625 41.484375 -46.628906 38.078125 -45.578125 C 34.671875 -44.523438 31.53125 -43.1875 28.65625 -41.5625 C 25.789062 -39.945312 23.300781 -38.257812 21.1875 -36.5 C 17.070312 -33.0625 13.6875 -29.109375 11.03125 -24.640625 C 8.382812 -20.179688 7.0625 -15.398438 7.0625 -10.296875 C 7.0625 -8.773438 7.125 -7.351562 7.25 -6.03125 C 7.375 -4.707031 7.628906 -3.457031 8.015625 -2.28125 C 11.847656 -2.1875 15.492188 -2.800781 18.953125 -4.125 C 22.410156 -5.445312 25.953125 -7.578125 29.578125 -10.515625 C 33.203125 -13.460938 37.148438 -17.265625 41.421875 -21.921875 C 45.097656 -25.847656 48.828125 -29.710938 52.609375 -33.515625 C 56.390625 -37.316406 60.066406 -40.492188 63.640625 -43.046875 Z M 58.5625 -8.390625 C 60.382812 -10.109375 62.128906 -12.082031 63.796875 -14.3125 C 65.460938 -16.539062 66.832031 -18.988281 67.90625 -21.65625 C 68.988281 -24.332031 69.53125 -27.171875 69.53125 -30.171875 C 69.53125 -32.816406 69.085938 -35.15625 68.203125 -37.1875 C 67.316406 -39.226562 66.191406 -40.863281 64.828125 -42.09375 C 62.472656 -39.925781 60.175781 -37.578125 57.9375 -35.046875 C 55.707031 -32.523438 53.625 -30.0625 51.6875 -27.65625 C 49.75 -25.257812 47.992188 -23.15625 46.421875 -21.34375 C 42.847656 -17.3125 39.476562 -14.03125 36.3125 -11.5 C 33.144531 -8.976562 30.160156 -7.03125 27.359375 -5.65625 C 24.566406 -4.289062 21.921875 -3.3125 19.421875 -2.71875 C 16.921875 -2.132812 14.566406 -1.769531 12.359375 -1.625 C 14.171875 -1.28125 16.316406 -0.921875 18.796875 -0.546875 C 21.273438 -0.179688 23.863281 0.109375 26.5625 0.328125 C 29.257812 0.546875 31.757812 0.65625 34.0625 0.65625 C 38.476562 0.65625 42.269531 0.144531 45.4375 -0.875 C 48.601562 -1.90625 51.265625 -3.117188 53.421875 -4.515625 C 55.578125 -5.921875 57.289062 -7.210938 58.5625 -8.390625 Z M 58.5625 -8.390625 "></path></g></g></g><g fill="#492c01" fill-opacity="1"><g transform="translate(73.681162, 59.247419)"><g><path d="M 28.25 -21.046875 C 26.144531 -19.128906 24.109375 -17.210938 22.140625 -15.296875 C 20.179688 -13.390625 18.441406 -11.640625 16.921875 -10.046875 C 15.398438 -8.453125 14.195312 -7.140625 13.3125 -6.109375 C 12.382812 -5.023438 11.640625 -4.078125 11.078125 -3.265625 C 10.515625 -2.460938 10.234375 -1.816406 10.234375 -1.328125 C 10.234375 -0.878906 10.476562 -0.65625 10.96875 -0.65625 C 11.457031 -0.65625 12.101562 -0.890625 12.90625 -1.359375 C 13.71875 -1.828125 14.566406 -2.367188 15.453125 -2.984375 C 16.335938 -3.597656 17.097656 -4.148438 17.734375 -4.640625 C 18.910156 -5.566406 20.125 -6.582031 21.375 -7.6875 C 22.625 -8.789062 23.691406 -9.734375 24.578125 -10.515625 C 24.722656 -10.617188 24.894531 -10.71875 25.09375 -10.8125 C 25.289062 -10.914062 25.460938 -10.867188 25.609375 -10.671875 C 25.804688 -10.472656 25.679688 -10.175781 25.234375 -9.78125 C 24.160156 -8.75 22.984375 -7.691406 21.703125 -6.609375 C 20.429688 -5.535156 19.328125 -4.632812 18.390625 -3.90625 C 17.660156 -3.3125 16.816406 -2.671875 15.859375 -1.984375 C 14.898438 -1.296875 13.941406 -0.707031 12.984375 -0.21875 C 12.023438 0.269531 11.179688 0.515625 10.453125 0.515625 C 8.734375 0.515625 7.875 -0.316406 7.875 -1.984375 C 7.875 -2.523438 8.03125 -3.1875 8.34375 -3.96875 C 8.664062 -4.757812 9.21875 -5.617188 10 -6.546875 C 7.894531 -4.628906 5.785156 -2.972656 3.671875 -1.578125 C 1.566406 -0.179688 -0.0703125 0.515625 -1.25 0.515625 C -2.914062 0.515625 -3.75 -0.289062 -3.75 -1.90625 C -3.800781 -3.238281 -3.273438 -4.875 -2.171875 -6.8125 C -1.066406 -8.75 0.316406 -10.550781 1.984375 -12.21875 C 3.648438 -13.9375 5.550781 -15.515625 7.6875 -16.953125 C 9.820312 -18.398438 11.914062 -19.566406 13.96875 -20.453125 C 16.03125 -21.335938 17.75 -21.78125 19.125 -21.78125 C 19.8125 -21.78125 20.375 -21.664062 20.8125 -21.4375 C 21.257812 -21.21875 21.484375 -20.789062 21.484375 -20.15625 C 21.484375 -19.769531 21.335938 -19.269531 21.046875 -18.65625 C 20.753906 -18.039062 20.1875 -17.316406 19.34375 -16.484375 C 19.300781 -16.429688 19.289062 -16.390625 19.3125 -16.359375 C 19.332031 -16.335938 19.367188 -16.351562 19.421875 -16.40625 C 20.546875 -17.53125 21.671875 -18.484375 22.796875 -19.265625 C 23.929688 -20.054688 24.796875 -20.550781 25.390625 -20.75 C 25.773438 -20.894531 26.148438 -20.976562 26.515625 -21 C 26.890625 -21.03125 27.273438 -21.046875 27.671875 -21.046875 Z M 20.453125 -19.859375 C 20.453125 -20.398438 20.160156 -20.671875 19.578125 -20.671875 C 18.546875 -20.671875 16.789062 -19.800781 14.3125 -18.0625 C 11.832031 -16.320312 8.851562 -13.785156 5.375 -10.453125 C 3.5625 -8.628906 1.976562 -6.859375 0.625 -5.140625 C -0.71875 -3.429688 -1.390625 -2.160156 -1.390625 -1.328125 C -1.390625 -1.128906 -1.351562 -0.957031 -1.28125 -0.8125 C -1.207031 -0.664062 -1 -0.59375 -0.65625 -0.59375 C -0.0195312 -0.59375 1.003906 -1.03125 2.421875 -1.90625 C 3.847656 -2.789062 5.503906 -4.019531 7.390625 -5.59375 C 9.285156 -7.164062 11.1875 -8.929688 13.09375 -10.890625 C 13.976562 -11.773438 14.992188 -12.789062 16.140625 -13.9375 C 17.296875 -15.09375 18.300781 -16.222656 19.15625 -17.328125 C 20.019531 -18.429688 20.453125 -19.273438 20.453125 -19.859375 Z M 20.453125 -19.859375 "></path></g></g></g><g fill="#492c01" fill-opacity="1"><g transform="translate(96.770406, 59.247419)"><g><path d="M 19.796875 -19.859375 C 19.796875 -18.734375 19.398438 -17.582031 18.609375 -16.40625 C 17.828125 -15.226562 17.019531 -14.296875 16.1875 -13.609375 C 15.9375 -13.410156 15.628906 -13.1875 15.265625 -12.9375 C 14.898438 -12.695312 14.519531 -12.578125 14.125 -12.578125 C 13.4375 -12.578125 13.09375 -12.875 13.09375 -13.46875 C 13.09375 -13.957031 13.382812 -14.429688 13.96875 -14.890625 C 14.5625 -15.359375 15.101562 -15.742188 15.59375 -16.046875 C 17.800781 -17.515625 18.90625 -18.785156 18.90625 -19.859375 C 18.90625 -20.503906 18.613281 -20.828125 18.03125 -20.828125 C 17.539062 -20.828125 16.816406 -20.519531 15.859375 -19.90625 C 14.898438 -19.289062 13.84375 -18.515625 12.6875 -17.578125 C 11.539062 -16.648438 10.390625 -15.671875 9.234375 -14.640625 C 8.078125 -13.609375 7.0625 -12.648438 6.1875 -11.765625 C 3.726562 -9.410156 1.929688 -7.375 0.796875 -5.65625 C -0.328125 -3.945312 -0.863281 -2.648438 -0.8125 -1.765625 C -0.8125 -0.878906 -0.269531 -0.4375 0.8125 -0.4375 C 1.59375 -0.4375 2.445312 -0.617188 3.375 -0.984375 C 4.3125 -1.359375 5.179688 -1.773438 5.984375 -2.234375 C 6.796875 -2.703125 7.453125 -3.109375 7.953125 -3.453125 C 9.421875 -4.441406 10.972656 -5.609375 12.609375 -6.953125 C 14.253906 -8.296875 15.59375 -9.4375 16.625 -10.375 C 17.070312 -10.71875 17.414062 -10.816406 17.65625 -10.671875 C 17.90625 -10.472656 17.859375 -10.203125 17.515625 -9.859375 C 16.484375 -8.929688 15.265625 -7.890625 13.859375 -6.734375 C 12.460938 -5.578125 11.101562 -4.507812 9.78125 -3.53125 C 8.3125 -2.445312 6.726562 -1.476562 5.03125 -0.625 C 3.34375 0.226562 1.738281 0.65625 0.21875 0.65625 C -2.28125 0.65625 -3.53125 -0.46875 -3.53125 -2.71875 C -3.53125 -4.4375 -2.925781 -6.238281 -1.71875 -8.125 C -0.519531 -10.019531 0.984375 -11.800781 2.796875 -13.46875 C 4.460938 -14.988281 6.226562 -16.375 8.09375 -17.625 C 9.957031 -18.875 11.734375 -19.878906 13.421875 -20.640625 C 15.117188 -21.398438 16.503906 -21.78125 17.578125 -21.78125 C 18.421875 -21.78125 19 -21.59375 19.3125 -21.21875 C 19.632812 -20.851562 19.796875 -20.398438 19.796875 -19.859375 Z M 19.796875 -19.859375 "></path></g></g></g><g fill="#492c01" fill-opacity="1"><g transform="translate(113.241726, 59.247419)"><g><path d="M 23.765625 -21.625 C 25.085938 -21.625 25.75 -20.988281 25.75 -19.71875 C 25.75 -19.175781 25.625 -18.5625 25.375 -17.875 C 25.132812 -17.1875 24.742188 -16.550781 24.203125 -15.96875 C 25.628906 -16.894531 27.078125 -17.800781 28.546875 -18.6875 C 30.015625 -19.570312 31.398438 -20.296875 32.703125 -20.859375 C 34.003906 -21.421875 35.046875 -21.703125 35.828125 -21.703125 C 36.660156 -21.703125 37.25 -21.46875 37.59375 -21 C 37.9375 -20.539062 38.109375 -20.039062 38.109375 -19.5 C 38.109375 -18.664062 37.71875 -17.707031 36.9375 -16.625 C 36.15625 -15.550781 35.234375 -14.5 34.171875 -13.46875 C 33.117188 -12.4375 32.148438 -11.53125 31.265625 -10.75 C 30.085938 -9.664062 29.007812 -8.644531 28.03125 -7.6875 C 27.050781 -6.726562 26.171875 -5.832031 25.390625 -5 C 24.597656 -4.164062 23.957031 -3.429688 23.46875 -2.796875 C 22.976562 -2.160156 22.734375 -1.644531 22.734375 -1.25 C 22.734375 -0.757812 23.003906 -0.515625 23.546875 -0.515625 C 24.179688 -0.515625 25.050781 -0.796875 26.15625 -1.359375 C 27.257812 -1.921875 28.425781 -2.644531 29.65625 -3.53125 C 31.21875 -4.65625 32.613281 -5.734375 33.84375 -6.765625 C 35.070312 -7.796875 36.128906 -8.679688 37.015625 -9.421875 C 37.847656 -10.203125 38.382812 -10.472656 38.625 -10.234375 C 38.769531 -10.128906 38.804688 -9.976562 38.734375 -9.78125 C 38.660156 -9.582031 38.523438 -9.410156 38.328125 -9.265625 C 37.742188 -8.773438 36.960938 -8.113281 35.984375 -7.28125 C 35.003906 -6.445312 33.972656 -5.585938 32.890625 -4.703125 C 31.804688 -3.828125 30.800781 -3.066406 29.875 -2.421875 C 28.59375 -1.492188 27.328125 -0.75 26.078125 -0.1875 C 24.828125 0.375 23.738281 0.65625 22.8125 0.65625 C 22.175781 0.65625 21.585938 0.4375 21.046875 0 C 20.503906 -0.4375 20.234375 -1.125 20.234375 -2.0625 C 20.234375 -3.1875 20.75 -4.507812 21.78125 -6.03125 C 22.707031 -7.3125 23.613281 -8.40625 24.5 -9.3125 C 25.382812 -10.21875 26.585938 -11.359375 28.109375 -12.734375 C 28.890625 -13.460938 29.859375 -14.304688 31.015625 -15.265625 C 32.171875 -16.222656 33.210938 -17.15625 34.140625 -18.0625 C 35.066406 -18.96875 35.53125 -19.644531 35.53125 -20.09375 C 35.53125 -20.382812 35.382812 -20.53125 35.09375 -20.53125 C 34.601562 -20.53125 33.660156 -20.195312 32.265625 -19.53125 C 30.867188 -18.875 29.296875 -18.003906 27.546875 -16.921875 C 25.804688 -15.835938 24.082031 -14.6875 22.375 -13.46875 C 20.851562 -12.289062 19.316406 -11.023438 17.765625 -9.671875 C 16.222656 -8.328125 14.617188 -6.722656 12.953125 -4.859375 C 12.210938 -4.023438 11.390625 -3.054688 10.484375 -1.953125 C 9.578125 -0.847656 8.804688 0.117188 8.171875 0.953125 C 7.972656 0.953125 7.773438 0.78125 7.578125 0.4375 C 7.378906 0.09375 7.28125 -0.320312 7.28125 -0.8125 C 7.28125 -1.300781 7.671875 -2.179688 8.453125 -3.453125 C 9.242188 -4.734375 10.3125 -6.207031 11.65625 -7.875 C 13.007812 -9.539062 14.472656 -11.160156 16.046875 -12.734375 C 16.773438 -13.460938 17.726562 -14.316406 18.90625 -15.296875 C 20.082031 -16.285156 21.125 -17.234375 22.03125 -18.140625 C 22.9375 -19.046875 23.390625 -19.695312 23.390625 -20.09375 C 23.390625 -20.382812 23.242188 -20.53125 22.953125 -20.53125 C 22.316406 -20.53125 21.285156 -20.1875 19.859375 -19.5 C 18.441406 -18.8125 16.847656 -17.898438 15.078125 -16.765625 C 13.316406 -15.640625 11.5625 -14.4375 9.8125 -13.15625 C 8.070312 -11.882812 6.59375 -10.660156 5.375 -9.484375 C 3.019531 -7.234375 1.082031 -5.238281 -0.4375 -3.5 C -1.957031 -1.757812 -3.132812 -0.273438 -3.96875 0.953125 C -4.164062 0.953125 -4.375 0.78125 -4.59375 0.4375 C -4.820312 0.09375 -4.9375 -0.347656 -4.9375 -0.890625 C -4.9375 -1.421875 -4.476562 -2.382812 -3.5625 -3.78125 C -2.65625 -5.1875 -1.46875 -6.820312 0 -8.6875 C 1.46875 -10.550781 3.085938 -12.390625 4.859375 -14.203125 C 6.035156 -15.472656 7.25 -16.632812 8.5 -17.6875 C 9.75 -18.75 10.816406 -19.570312 11.703125 -20.15625 C 12.335938 -20.550781 13.109375 -20.847656 14.015625 -21.046875 C 14.921875 -21.242188 15.84375 -21.34375 16.78125 -21.34375 C 15.5 -20.457031 13.925781 -19.179688 12.0625 -17.515625 C 10.195312 -15.847656 8.457031 -14.082031 6.84375 -12.21875 C 6.75 -12.113281 6.710938 -12.035156 6.734375 -11.984375 C 6.753906 -11.941406 6.789062 -11.945312 6.84375 -12 C 7.769531 -12.78125 8.96875 -13.707031 10.4375 -14.78125 C 11.914062 -15.863281 13.488281 -16.929688 15.15625 -17.984375 C 16.820312 -19.046875 18.414062 -19.914062 19.9375 -20.59375 C 21.457031 -21.28125 22.734375 -21.625 23.765625 -21.625 Z M 23.765625 -21.625 "></path></g></g></g><g fill="#492c01" fill-opacity="1"><g transform="translate(149.93446, 59.247419)"><g><path d="M 28.25 -21.046875 C 26.144531 -19.128906 24.109375 -17.210938 22.140625 -15.296875 C 20.179688 -13.390625 18.441406 -11.640625 16.921875 -10.046875 C 15.398438 -8.453125 14.195312 -7.140625 13.3125 -6.109375 C 12.382812 -5.023438 11.640625 -4.078125 11.078125 -3.265625 C 10.515625 -2.460938 10.234375 -1.816406 10.234375 -1.328125 C 10.234375 -0.878906 10.476562 -0.65625 10.96875 -0.65625 C 11.457031 -0.65625 12.101562 -0.890625 12.90625 -1.359375 C 13.71875 -1.828125 14.566406 -2.367188 15.453125 -2.984375 C 16.335938 -3.597656 17.097656 -4.148438 17.734375 -4.640625 C 18.910156 -5.566406 20.125 -6.582031 21.375 -7.6875 C 22.625 -8.789062 23.691406 -9.734375 24.578125 -10.515625 C 24.722656 -10.617188 24.894531 -10.71875 25.09375 -10.8125 C 25.289062 -10.914062 25.460938 -10.867188 25.609375 -10.671875 C 25.804688 -10.472656 25.679688 -10.175781 25.234375 -9.78125 C 24.160156 -8.75 22.984375 -7.691406 21.703125 -6.609375 C 20.429688 -5.535156 19.328125 -4.632812 18.390625 -3.90625 C 17.660156 -3.3125 16.816406 -2.671875 15.859375 -1.984375 C 14.898438 -1.296875 13.941406 -0.707031 12.984375 -0.21875 C 12.023438 0.269531 11.179688 0.515625 10.453125 0.515625 C 8.734375 0.515625 7.875 -0.316406 7.875 -1.984375 C 7.875 -2.523438 8.03125 -3.1875 8.34375 -3.96875 C 8.664062 -4.757812 9.21875 -5.617188 10 -6.546875 C 7.894531 -4.628906 5.785156 -2.972656 3.671875 -1.578125 C 1.566406 -0.179688 -0.0703125 0.515625 -1.25 0.515625 C -2.914062 0.515625 -3.75 -0.289062 -3.75 -1.90625 C -3.800781 -3.238281 -3.273438 -4.875 -2.171875 -6.8125 C -1.066406 -8.75 0.316406 -10.550781 1.984375 -12.21875 C 3.648438 -13.9375 5.550781 -15.515625 7.6875 -16.953125 C 9.820312 -18.398438 11.914062 -19.566406 13.96875 -20.453125 C 16.03125 -21.335938 17.75 -21.78125 19.125 -21.78125 C 19.8125 -21.78125 20.375 -21.664062 20.8125 -21.4375 C 21.257812 -21.21875 21.484375 -20.789062 21.484375 -20.15625 C 21.484375 -19.769531 21.335938 -19.269531 21.046875 -18.65625 C 20.753906 -18.039062 20.1875 -17.316406 19.34375 -16.484375 C 19.300781 -16.429688 19.289062 -16.390625 19.3125 -16.359375 C 19.332031 -16.335938 19.367188 -16.351562 19.421875 -16.40625 C 20.546875 -17.53125 21.671875 -18.484375 22.796875 -19.265625 C 23.929688 -20.054688 24.796875 -20.550781 25.390625 -20.75 C 25.773438 -20.894531 26.148438 -20.976562 26.515625 -21 C 26.890625 -21.03125 27.273438 -21.046875 27.671875 -21.046875 Z M 20.453125 -19.859375 C 20.453125 -20.398438 20.160156 -20.671875 19.578125 -20.671875 C 18.546875 -20.671875 16.789062 -19.800781 14.3125 -18.0625 C 11.832031 -16.320312 8.851562 -13.785156 5.375 -10.453125 C 3.5625 -8.628906 1.976562 -6.859375 0.625 -5.140625 C -0.71875 -3.429688 -1.390625 -2.160156 -1.390625 -1.328125 C -1.390625 -1.128906 -1.351562 -0.957031 -1.28125 -0.8125 C -1.207031 -0.664062 -1 -0.59375 -0.65625 -0.59375 C -0.0195312 -0.59375 1.003906 -1.03125 2.421875 -1.90625 C 3.847656 -2.789062 5.503906 -4.019531 7.390625 -5.59375 C 9.285156 -7.164062 11.1875 -8.929688 13.09375 -10.890625 C 13.976562 -11.773438 14.992188 -12.789062 16.140625 -13.9375 C 17.296875 -15.09375 18.300781 -16.222656 19.15625 -17.328125 C 20.019531 -18.429688 20.453125 -19.273438 20.453125 -19.859375 Z M 20.453125 -19.859375 "></path></g></g></g><g fill="#492c01" fill-opacity="1"><g transform="translate(173.023705, 59.247419)"><g><path d="M 11.703125 -1.25 C 11.703125 -0.757812 11.972656 -0.515625 12.515625 -0.515625 C 13.046875 -0.515625 13.703125 -0.707031 14.484375 -1.09375 C 15.273438 -1.488281 16.097656 -1.957031 16.953125 -2.5 C 17.816406 -3.039062 18.539062 -3.53125 19.125 -3.96875 C 19.957031 -4.613281 20.863281 -5.335938 21.84375 -6.140625 C 22.832031 -6.953125 23.765625 -7.722656 24.640625 -8.453125 C 25.523438 -9.191406 26.210938 -9.785156 26.703125 -10.234375 C 27.191406 -10.722656 27.5625 -10.816406 27.8125 -10.515625 C 28.007812 -10.367188 27.910156 -10.101562 27.515625 -9.71875 C 26.878906 -9.175781 26.070312 -8.472656 25.09375 -7.609375 C 24.113281 -6.753906 23.128906 -5.921875 22.140625 -5.109375 C 21.160156 -4.304688 20.378906 -3.679688 19.796875 -3.234375 C 18.617188 -2.347656 17.28125 -1.476562 15.78125 -0.625 C 14.28125 0.226562 12.921875 0.65625 11.703125 0.65625 C 9.984375 0.65625 9.125 -0.125 9.125 -1.6875 C 9.125 -2.476562 9.378906 -3.398438 9.890625 -4.453125 C 10.410156 -5.503906 11.0625 -6.570312 11.84375 -7.65625 C 12.4375 -8.4375 13.078125 -9.207031 13.765625 -9.96875 C 14.453125 -10.726562 15.160156 -11.476562 15.890625 -12.21875 C 15.347656 -11.875 14.585938 -11.429688 13.609375 -10.890625 C 12.628906 -10.347656 11.722656 -10.078125 10.890625 -10.078125 C 10.203125 -10.078125 9.671875 -10.25 9.296875 -10.59375 C 8.929688 -10.9375 8.457031 -11.109375 7.875 -11.109375 C 7.476562 -11.109375 7 -10.910156 6.4375 -10.515625 C 5.875 -10.128906 5.347656 -9.710938 4.859375 -9.265625 C 4.367188 -8.828125 4.023438 -8.507812 3.828125 -8.3125 C 2.398438 -6.894531 1.0625 -5.410156 -0.1875 -3.859375 C -1.4375 -2.316406 -2.695312 -0.710938 -3.96875 0.953125 C -4.269531 0.953125 -4.503906 0.78125 -4.671875 0.4375 C -4.847656 0.09375 -4.9375 -0.296875 -4.9375 -0.734375 C -4.9375 -1.367188 -4.429688 -2.445312 -3.421875 -3.96875 C -2.410156 -5.488281 -1.160156 -7.179688 0.328125 -9.046875 C 1.828125 -10.910156 3.335938 -12.628906 4.859375 -14.203125 C 6.035156 -15.472656 7.234375 -16.632812 8.453125 -17.6875 C 9.679688 -18.75 10.738281 -19.570312 11.625 -20.15625 C 12.257812 -20.550781 13.054688 -20.847656 14.015625 -21.046875 C 14.972656 -21.242188 15.914062 -21.34375 16.84375 -21.34375 C 15.914062 -20.695312 14.789062 -19.796875 13.46875 -18.640625 C 12.144531 -17.492188 10.796875 -16.222656 9.421875 -14.828125 C 8.046875 -13.429688 6.769531 -12.046875 5.59375 -10.671875 C 6.28125 -11.210938 7.003906 -11.710938 7.765625 -12.171875 C 8.523438 -12.640625 9.175781 -12.875 9.71875 -12.875 C 10.40625 -12.875 10.992188 -12.726562 11.484375 -12.4375 C 11.972656 -12.144531 12.507812 -12 13.09375 -12 C 13.925781 -12 14.84375 -12.265625 15.84375 -12.796875 C 16.851562 -13.335938 17.800781 -14.023438 18.6875 -14.859375 C 19.96875 -16.035156 21.269531 -17.160156 22.59375 -18.234375 C 23.914062 -19.316406 25.019531 -20.109375 25.90625 -20.609375 C 26.4375 -20.898438 27.117188 -21.101562 27.953125 -21.21875 C 28.785156 -21.34375 29.453125 -21.382812 29.953125 -21.34375 C 27.835938 -19.425781 25.773438 -17.5 23.765625 -15.5625 C 21.753906 -13.625 19.953125 -11.820312 18.359375 -10.15625 C 16.765625 -8.488281 15.523438 -7.140625 14.640625 -6.109375 C 13.804688 -5.078125 13.109375 -4.144531 12.546875 -3.3125 C 11.984375 -2.476562 11.703125 -1.789062 11.703125 -1.25 Z M 11.703125 -1.25 "></path></g></g></g></g></g></svg> 