<?xml version="1.0" encoding="UTF-8"?> <svg xmlns="http://www.w3.org/2000/svg" xmlns:xlink="http://www.w3.org/1999/xlink" width="360" zoomAndPan="magnify" viewBox="0 0 270 359.999987" height="480" preserveAspectRatio="xMidYMid meet" version="1.0"><defs><g></g><clipPath id="4199159ebd"><path d="M 171.886719 201.582031 L 172.296875 201.582031 L 172.296875 201.863281 L 171.886719 201.863281 Z M 171.886719 201.582031 " clip-rule="nonzero"></path></clipPath><clipPath id="6705c87f5e"><path d="M 172.273438 201.75 C 171.523438 202.050781 172.125 201.601562 172.125 201.601562 " clip-rule="nonzero"></path></clipPath><clipPath id="04ffde9f2c"><path d="M 0.886719 0.582031 L 1.296875 0.582031 L 1.296875 0.863281 L 0.886719 0.863281 Z M 0.886719 0.582031 " clip-rule="nonzero"></path></clipPath><clipPath id="579665ad6e"><path d="M 1.273438 0.75 C 0.523438 1.050781 1.125 0.601562 1.125 0.601562 " clip-rule="nonzero"></path></clipPath><clipPath id="4ceec341ed"><rect x="0" width="2" y="0" height="1"></rect></clipPath><clipPath id="45400f67e1"><path d="M 78.0625 176.757812 L 78.472656 176.757812 L 78.472656 177 L 78.0625 177 Z M 78.0625 176.757812 " clip-rule="nonzero"></path></clipPath><clipPath id="980e130a47"><path d="M 78.449219 176.925781 C 77.699219 177.148438 78.300781 176.773438 78.300781 176.773438 " clip-rule="nonzero"></path></clipPath><clipPath id="58adc90894"><path d="M 0.0625 0.757812 L 0.472656 0.757812 L 0.472656 1 L 0.0625 1 Z M 0.0625 0.757812 " clip-rule="nonzero"></path></clipPath><clipPath id="eb01d5eeb2"><path d="M 0.449219 0.925781 C -0.300781 1.148438 0.300781 0.773438 0.300781 0.773438 " clip-rule="nonzero"></path></clipPath><clipPath id="6e89e7c68a"><rect x="0" width="1" y="0" height="1"></rect></clipPath><clipPath id="b1427d9dcf"><path d="M 0.0625 0.757812 L 0.472656 0.757812 L 0.472656 1 L 0.0625 1 Z M 0.0625 0.757812 " clip-rule="nonzero"></path></clipPath><clipPath id="0f447c21d3"><path d="M 0.449219 0.925781 C -0.300781 1.148438 0.300781 0.773438 0.300781 0.773438 " clip-rule="nonzero"></path></clipPath><clipPath id="ceaad0124f"><rect x="0" width="1" y="0" height="1"></rect></clipPath><clipPath id="0c8418c27f"><rect x="0" width="176" y="0" height="65"></rect></clipPath></defs><g clip-path="url(#4199159ebd)"><g clip-path="url(#6705c87f5e)"><g transform="matrix(1, 0, 0, 1, 171, 201)"><g clip-path="url(#4ceec341ed)"><g clip-path="url(#04ffde9f2c)"><g clip-path="url(#579665ad6e)"><rect x="-230.4" width="388.8" fill="#492c01" height="518.399981" y="-280.199997" fill-opacity="1"></rect></g></g></g></g></g></g><g clip-path="url(#45400f67e1)"><g clip-path="url(#980e130a47)"><g transform="matrix(1, 0, 0, 1, 78, 176)"><g clip-path="url(#6e89e7c68a)"><g clip-path="url(#58adc90894)"><g clip-path="url(#eb01d5eeb2)"><rect x="-137.4" width="388.8" fill="#492c01" height="518.399981" y="-255.199997" fill-opacity="1"></rect></g></g></g></g><g transform="matrix(1, 0, 0, 1, 78, 176)"><g clip-path="url(#ceaad0124f)"><g clip-path="url(#b1427d9dcf)"><g clip-path="url(#0f447c21d3)"><rect x="-137.4" width="388.8" fill="#492c01" height="518.399981" y="-255.199997" fill-opacity="1"></rect></g></g></g></g></g></g><g transform="matrix(1, 0, 0, 1, 16, 159)"><g clip-path="url(#0c8418c27f)"><g fill="#492c01" fill-opacity="1"><g transform="translate(0.954477, 26.448863)"><g><path d="M 9.0625 -0.296875 L 9.21875 -0.296875 L 9.21875 0 L 4.890625 0 L 4.890625 -0.296875 L 5.046875 -0.296875 C 5.210938 -0.296875 5.351562 -0.359375 5.46875 -0.484375 C 5.59375 -0.609375 5.703125 -0.75 5.796875 -0.90625 C 5.890625 -1.070312 5.953125 -1.25 5.984375 -1.4375 C 6.023438 -1.632812 6.046875 -1.816406 6.046875 -1.984375 L 6.046875 -18.953125 L 2.53125 -18.953125 C 2.195312 -18.953125 1.910156 -18.878906 1.671875 -18.734375 C 1.429688 -18.597656 1.226562 -18.421875 1.0625 -18.203125 C 0.90625 -17.992188 0.785156 -17.757812 0.703125 -17.5 C 0.617188 -17.25 0.578125 -17.003906 0.578125 -16.765625 L 0.28125 -16.765625 L 0.28125 -20.078125 L 13.9375 -20.078125 L 13.9375 -16.765625 L 13.625 -16.765625 C 13.625 -17.003906 13.582031 -17.25 13.5 -17.5 C 13.425781 -17.757812 13.304688 -17.992188 13.140625 -18.203125 C 12.984375 -18.421875 12.78125 -18.597656 12.53125 -18.734375 C 12.289062 -18.878906 12.007812 -18.953125 11.6875 -18.953125 L 8.09375 -18.953125 L 8.09375 -1.984375 C 8.09375 -1.816406 8.113281 -1.632812 8.15625 -1.4375 C 8.195312 -1.25 8.257812 -1.070312 8.34375 -0.90625 C 8.4375 -0.75 8.539062 -0.609375 8.65625 -0.484375 C 8.769531 -0.359375 8.90625 -0.296875 9.0625 -0.296875 Z M 9.0625 -0.296875 "></path></g></g></g><g fill="#492c01" fill-opacity="1"><g transform="translate(12.660772, 26.448863)"><g><path d="M 7.75 0.21875 C 6.738281 0.21875 5.828125 0.0507812 5.015625 -0.28125 C 4.203125 -0.625 3.503906 -1.082031 2.921875 -1.65625 C 2.347656 -2.238281 1.90625 -2.921875 1.59375 -3.703125 C 1.28125 -4.492188 1.125 -5.359375 1.125 -6.296875 C 1.125 -7.285156 1.296875 -8.191406 1.640625 -9.015625 C 1.984375 -9.835938 2.457031 -10.539062 3.0625 -11.125 C 3.675781 -11.71875 4.398438 -12.175781 5.234375 -12.5 C 6.066406 -12.820312 6.96875 -12.984375 7.9375 -12.984375 C 8.914062 -12.984375 9.804688 -12.828125 10.609375 -12.515625 C 11.421875 -12.203125 12.117188 -11.757812 12.703125 -11.1875 C 13.296875 -10.625 13.753906 -9.953125 14.078125 -9.171875 C 14.410156 -8.390625 14.578125 -7.535156 14.578125 -6.609375 C 14.578125 -5.734375 14.425781 -4.882812 14.125 -4.0625 C 13.832031 -3.238281 13.394531 -2.507812 12.8125 -1.875 C 12.238281 -1.25 11.53125 -0.742188 10.6875 -0.359375 C 9.851562 0.0234375 8.875 0.21875 7.75 0.21875 Z M 7.578125 -11.984375 C 6.847656 -11.941406 6.203125 -11.765625 5.640625 -11.453125 C 5.085938 -11.140625 4.625 -10.734375 4.25 -10.234375 C 3.875 -9.734375 3.585938 -9.171875 3.390625 -8.546875 C 3.203125 -7.921875 3.109375 -7.28125 3.109375 -6.625 C 3.109375 -5.875 3.222656 -5.148438 3.453125 -4.453125 C 3.679688 -3.753906 4.015625 -3.128906 4.453125 -2.578125 C 4.890625 -2.035156 5.410156 -1.601562 6.015625 -1.28125 C 6.628906 -0.957031 7.3125 -0.796875 8.0625 -0.796875 C 8.8125 -0.796875 9.472656 -0.957031 10.046875 -1.28125 C 10.628906 -1.601562 11.113281 -2.019531 11.5 -2.53125 C 11.882812 -3.050781 12.171875 -3.632812 12.359375 -4.28125 C 12.554688 -4.9375 12.65625 -5.585938 12.65625 -6.234375 C 12.65625 -6.898438 12.550781 -7.570312 12.34375 -8.25 C 12.144531 -8.9375 11.832031 -9.554688 11.40625 -10.109375 C 10.976562 -10.671875 10.445312 -11.125 9.8125 -11.46875 C 9.175781 -11.8125 8.429688 -11.984375 7.578125 -11.984375 Z M 7.578125 -11.984375 "></path></g></g></g><g fill="#492c01" fill-opacity="1"><g transform="translate(28.564419, 26.448863)"><g><path d="M 13.5625 -1.984375 C 13.5625 -1.816406 13.585938 -1.632812 13.640625 -1.4375 C 13.691406 -1.25 13.757812 -1.070312 13.84375 -0.90625 C 13.925781 -0.75 14.03125 -0.609375 14.15625 -0.484375 C 14.289062 -0.359375 14.421875 -0.296875 14.546875 -0.296875 L 14.546875 0 L 10.640625 0 L 10.640625 -0.296875 C 10.785156 -0.296875 10.914062 -0.351562 11.03125 -0.46875 C 11.15625 -0.582031 11.257812 -0.722656 11.34375 -0.890625 C 11.425781 -1.066406 11.488281 -1.25 11.53125 -1.4375 C 11.570312 -1.632812 11.59375 -1.816406 11.59375 -1.984375 L 11.59375 -9.28125 L 4.34375 -2.1875 L 4.34375 -1.984375 C 4.34375 -1.816406 4.363281 -1.632812 4.40625 -1.4375 C 4.445312 -1.25 4.507812 -1.070312 4.59375 -0.90625 C 4.675781 -0.75 4.769531 -0.609375 4.875 -0.484375 C 4.988281 -0.359375 5.117188 -0.296875 5.265625 -0.296875 L 5.265625 0 L 1.40625 0 L 1.40625 -0.296875 C 1.539062 -0.296875 1.671875 -0.351562 1.796875 -0.46875 C 1.921875 -0.582031 2.019531 -0.722656 2.09375 -0.890625 C 2.175781 -1.066406 2.238281 -1.25 2.28125 -1.4375 C 2.320312 -1.632812 2.34375 -1.816406 2.34375 -1.984375 L 2.34375 -10.890625 C 2.34375 -11.035156 2.320312 -11.195312 2.28125 -11.375 C 2.238281 -11.5625 2.175781 -11.734375 2.09375 -11.890625 C 2.019531 -12.054688 1.921875 -12.191406 1.796875 -12.296875 C 1.671875 -12.410156 1.539062 -12.46875 1.40625 -12.46875 L 1.40625 -12.78125 L 5.265625 -12.78125 L 5.265625 -12.46875 C 5.097656 -12.46875 4.957031 -12.410156 4.84375 -12.296875 C 4.738281 -12.191406 4.648438 -12.054688 4.578125 -11.890625 C 4.503906 -11.734375 4.445312 -11.5625 4.40625 -11.375 C 4.363281 -11.195312 4.34375 -11.035156 4.34375 -10.890625 L 4.34375 -3.625 L 11.59375 -10.703125 L 11.59375 -10.890625 C 11.59375 -11.035156 11.570312 -11.195312 11.53125 -11.375 C 11.488281 -11.5625 11.425781 -11.734375 11.34375 -11.890625 C 11.257812 -12.054688 11.15625 -12.191406 11.03125 -12.296875 C 10.914062 -12.410156 10.785156 -12.46875 10.640625 -12.46875 L 10.640625 -12.78125 L 14.546875 -12.78125 L 14.546875 -12.46875 C 14.378906 -12.46875 14.226562 -12.410156 14.09375 -12.296875 C 13.96875 -12.191406 13.867188 -12.054688 13.796875 -11.890625 C 13.722656 -11.734375 13.664062 -11.5625 13.625 -11.375 C 13.582031 -11.195312 13.5625 -11.035156 13.5625 -10.890625 Z M 11.21875 -16.890625 C 11.21875 -16.554688 11.132812 -16.203125 10.96875 -15.828125 C 10.8125 -15.453125 10.582031 -15.109375 10.28125 -14.796875 C 9.976562 -14.484375 9.617188 -14.222656 9.203125 -14.015625 C 8.785156 -13.816406 8.320312 -13.71875 7.8125 -13.71875 C 7.351562 -13.71875 6.914062 -13.8125 6.5 -14 C 6.082031 -14.195312 5.71875 -14.445312 5.40625 -14.75 C 5.101562 -15.0625 4.859375 -15.40625 4.671875 -15.78125 C 4.492188 -16.15625 4.40625 -16.523438 4.40625 -16.890625 L 4.59375 -16.890625 C 4.613281 -16.765625 4.675781 -16.59375 4.78125 -16.375 C 4.894531 -16.164062 5.070312 -15.945312 5.3125 -15.71875 C 5.5625 -15.5 5.882812 -15.304688 6.28125 -15.140625 C 6.675781 -14.984375 7.175781 -14.90625 7.78125 -14.90625 C 8.414062 -14.90625 8.9375 -14.984375 9.34375 -15.140625 C 9.75 -15.304688 10.070312 -15.5 10.3125 -15.71875 C 10.550781 -15.945312 10.722656 -16.164062 10.828125 -16.375 C 10.929688 -16.59375 11.003906 -16.765625 11.046875 -16.890625 Z M 11.21875 -16.890625 "></path></g></g></g><g fill="#492c01" fill-opacity="1"><g transform="translate(44.650525, 26.448863)"><g></g></g></g><g fill="#492c01" fill-opacity="1"><g transform="translate(52.556734, 26.448863)"><g><path d="M 7.9375 -12.984375 C 8.957031 -12.984375 9.875 -12.816406 10.6875 -12.484375 C 11.507812 -12.148438 12.207031 -11.691406 12.78125 -11.109375 C 13.363281 -10.535156 13.804688 -9.851562 14.109375 -9.0625 C 14.421875 -8.269531 14.578125 -7.410156 14.578125 -6.484375 C 14.578125 -5.484375 14.398438 -4.570312 14.046875 -3.75 C 13.703125 -2.9375 13.226562 -2.234375 12.625 -1.640625 C 12.019531 -1.054688 11.300781 -0.597656 10.46875 -0.265625 C 9.632812 0.0546875 8.726562 0.21875 7.75 0.21875 C 6.71875 0.21875 5.796875 0.0195312 4.984375 -0.375 C 4.171875 -0.769531 3.476562 -1.3125 2.90625 -2 C 2.34375 -2.695312 1.910156 -3.515625 1.609375 -4.453125 C 1.304688 -5.398438 1.15625 -6.421875 1.15625 -7.515625 C 1.15625 -8.140625 1.191406 -8.71875 1.265625 -9.25 C 1.335938 -9.78125 1.445312 -10.289062 1.59375 -10.78125 C 1.75 -11.28125 1.9375 -11.757812 2.15625 -12.21875 C 2.382812 -12.6875 2.648438 -13.175781 2.953125 -13.6875 C 3.804688 -15.03125 4.875 -16.085938 6.15625 -16.859375 C 7.445312 -17.628906 8.757812 -18.015625 10.09375 -18.015625 L 13.96875 -18.015625 L 12.78125 -16.0625 L 9.609375 -16.0625 C 8.960938 -16.0625 8.3125 -15.941406 7.65625 -15.703125 C 7.007812 -15.472656 6.394531 -15.128906 5.8125 -14.671875 C 5.238281 -14.222656 4.726562 -13.671875 4.28125 -13.015625 C 3.84375 -12.367188 3.488281 -11.628906 3.21875 -10.796875 C 3.769531 -11.460938 4.40625 -11.992188 5.125 -12.390625 C 5.84375 -12.785156 6.78125 -12.984375 7.9375 -12.984375 Z M 8.125 -0.828125 C 8.875 -0.859375 9.53125 -1.03125 10.09375 -1.34375 C 10.664062 -1.664062 11.144531 -2.070312 11.53125 -2.5625 C 11.914062 -3.0625 12.203125 -3.617188 12.390625 -4.234375 C 12.585938 -4.859375 12.6875 -5.492188 12.6875 -6.140625 C 12.6875 -6.890625 12.5625 -7.613281 12.3125 -8.3125 C 12.070312 -9.019531 11.726562 -9.632812 11.28125 -10.15625 C 10.84375 -10.6875 10.3125 -11.113281 9.6875 -11.4375 C 9.070312 -11.757812 8.390625 -11.921875 7.640625 -11.921875 C 6.910156 -11.921875 6.257812 -11.765625 5.6875 -11.453125 C 5.125 -11.140625 4.648438 -10.726562 4.265625 -10.21875 C 3.878906 -9.71875 3.585938 -9.140625 3.390625 -8.484375 C 3.203125 -7.835938 3.109375 -7.191406 3.109375 -6.546875 C 3.109375 -5.890625 3.222656 -5.222656 3.453125 -4.546875 C 3.679688 -3.867188 4.015625 -3.253906 4.453125 -2.703125 C 4.890625 -2.160156 5.414062 -1.710938 6.03125 -1.359375 C 6.65625 -1.003906 7.351562 -0.828125 8.125 -0.828125 Z M 8.125 -0.828125 "></path></g></g></g><g fill="#492c01" fill-opacity="1"><g transform="translate(68.460381, 26.448863)"><g><path d="M 9.40625 0 L 9.40625 -1.546875 L 9.25 -1.40625 C 8.738281 -0.894531 8.15625 -0.492188 7.5 -0.203125 C 6.84375 0.078125 6.046875 0.21875 5.109375 0.21875 C 4.398438 0.21875 3.789062 0.132812 3.28125 -0.03125 C 2.78125 -0.195312 2.363281 -0.425781 2.03125 -0.71875 C 1.707031 -1.007812 1.46875 -1.347656 1.3125 -1.734375 C 1.164062 -2.117188 1.09375 -2.523438 1.09375 -2.953125 C 1.09375 -3.640625 1.28125 -4.242188 1.65625 -4.765625 C 2.03125 -5.296875 2.570312 -5.765625 3.28125 -6.171875 C 3.988281 -6.578125 4.851562 -6.945312 5.875 -7.28125 C 6.90625 -7.613281 8.082031 -7.945312 9.40625 -8.28125 C 9.363281 -9.070312 9.195312 -9.707031 8.90625 -10.1875 C 8.625 -10.675781 8.289062 -11.054688 7.90625 -11.328125 C 7.519531 -11.609375 7.113281 -11.789062 6.6875 -11.875 C 6.257812 -11.96875 5.894531 -12.015625 5.59375 -12.015625 C 5.070312 -12.015625 4.609375 -11.9375 4.203125 -11.78125 C 3.796875 -11.632812 3.4375 -11.429688 3.125 -11.171875 C 2.820312 -10.921875 2.570312 -10.632812 2.375 -10.3125 C 2.1875 -9.988281 2.046875 -9.664062 1.953125 -9.34375 L 1.671875 -9.34375 L 1.671875 -11.71875 C 1.859375 -11.71875 2.070312 -11.78125 2.3125 -11.90625 C 2.550781 -12.039062 2.835938 -12.1875 3.171875 -12.34375 C 3.515625 -12.507812 3.921875 -12.65625 4.390625 -12.78125 C 4.867188 -12.914062 5.441406 -12.984375 6.109375 -12.984375 C 7.222656 -12.984375 8.125 -12.84375 8.8125 -12.5625 C 9.507812 -12.28125 10.046875 -11.90625 10.421875 -11.4375 C 10.796875 -10.96875 11.039062 -10.429688 11.15625 -9.828125 C 11.28125 -9.234375 11.34375 -8.625 11.34375 -8 L 11.34375 -1.984375 C 11.34375 -1.578125 11.441406 -1.191406 11.640625 -0.828125 C 11.847656 -0.472656 12.125 -0.296875 12.46875 -0.296875 L 12.46875 0 Z M 9.40625 -2.890625 L 9.40625 -7.234375 L 9.09375 -7.171875 C 8.601562 -7.054688 8.007812 -6.894531 7.3125 -6.6875 C 6.613281 -6.488281 5.945312 -6.226562 5.3125 -5.90625 C 4.6875 -5.582031 4.148438 -5.195312 3.703125 -4.75 C 3.265625 -4.300781 3.046875 -3.78125 3.046875 -3.1875 C 3.046875 -2.539062 3.304688 -2.003906 3.828125 -1.578125 C 4.359375 -1.148438 5.050781 -0.9375 5.90625 -0.9375 C 6.570312 -0.9375 7.15625 -1.082031 7.65625 -1.375 C 8.164062 -1.675781 8.632812 -2.0625 9.0625 -2.53125 Z M 9.40625 -2.890625 "></path></g></g></g><g fill="#492c01" fill-opacity="1"><g transform="translate(82.35708, 26.448863)"><g><path d="M 4.234375 -1 L 9.734375 -1 L 9.734375 -10.796875 C 9.734375 -10.941406 9.710938 -11.113281 9.671875 -11.3125 C 9.628906 -11.519531 9.570312 -11.703125 9.5 -11.859375 C 9.4375 -12.023438 9.34375 -12.164062 9.21875 -12.28125 C 9.09375 -12.40625 8.960938 -12.46875 8.828125 -12.46875 L 8.828125 -12.78125 L 12.59375 -12.78125 L 12.59375 -12.46875 C 12.425781 -12.46875 12.285156 -12.410156 12.171875 -12.296875 C 12.066406 -12.191406 11.976562 -12.054688 11.90625 -11.890625 C 11.832031 -11.734375 11.773438 -11.566406 11.734375 -11.390625 C 11.703125 -11.222656 11.6875 -11.078125 11.6875 -10.953125 L 11.6875 -1 L 17.21875 -1 L 17.21875 -10.796875 C 17.21875 -10.941406 17.203125 -11.113281 17.171875 -11.3125 C 17.140625 -11.519531 17.085938 -11.703125 17.015625 -11.859375 C 16.953125 -12.023438 16.859375 -12.164062 16.734375 -12.28125 C 16.609375 -12.40625 16.457031 -12.46875 16.28125 -12.46875 L 16.28125 -12.78125 L 20.109375 -12.78125 L 20.109375 -12.46875 C 19.941406 -12.46875 19.800781 -12.40625 19.6875 -12.28125 C 19.582031 -12.164062 19.488281 -12.023438 19.40625 -11.859375 C 19.320312 -11.703125 19.265625 -11.519531 19.234375 -11.3125 C 19.210938 -11.113281 19.203125 -10.941406 19.203125 -10.796875 L 19.203125 -1.890625 C 19.203125 -1.742188 19.21875 -1.578125 19.25 -1.390625 C 19.289062 -1.210938 19.347656 -1.039062 19.421875 -0.875 C 19.492188 -0.71875 19.582031 -0.582031 19.6875 -0.46875 C 19.800781 -0.351562 19.929688 -0.296875 20.078125 -0.296875 L 20.078125 0 L 1.375 0 L 1.375 -0.296875 C 1.507812 -0.296875 1.628906 -0.351562 1.734375 -0.46875 C 1.835938 -0.582031 1.925781 -0.71875 2 -0.875 C 2.082031 -1.039062 2.144531 -1.210938 2.1875 -1.390625 C 2.226562 -1.578125 2.25 -1.742188 2.25 -1.890625 L 2.25 -10.796875 C 2.25 -10.941406 2.234375 -11.113281 2.203125 -11.3125 C 2.171875 -11.519531 2.117188 -11.703125 2.046875 -11.859375 C 1.984375 -12.023438 1.894531 -12.164062 1.78125 -12.28125 C 1.664062 -12.40625 1.53125 -12.46875 1.375 -12.46875 L 1.375 -12.78125 L 5.140625 -12.78125 L 5.140625 -12.46875 C 4.972656 -12.46875 4.828125 -12.40625 4.703125 -12.28125 C 4.585938 -12.164062 4.492188 -12.023438 4.421875 -11.859375 C 4.347656 -11.703125 4.296875 -11.519531 4.265625 -11.3125 C 4.242188 -11.113281 4.234375 -10.941406 4.234375 -10.796875 Z M 4.234375 -1 "></path></g></g></g><g fill="#492c01" fill-opacity="1"><g transform="translate(103.855899, 26.448863)"><g><path d="M 11.65625 -9.578125 C 11.65625 -9.804688 11.613281 -10.050781 11.53125 -10.3125 C 11.445312 -10.570312 11.320312 -10.804688 11.15625 -11.015625 C 11 -11.234375 10.796875 -11.410156 10.546875 -11.546875 C 10.304688 -11.691406 10.023438 -11.765625 9.703125 -11.765625 L 7.03125 -11.765625 L 7.03125 -1.984375 C 7.03125 -1.816406 7.050781 -1.640625 7.09375 -1.453125 C 7.132812 -1.273438 7.195312 -1.097656 7.28125 -0.921875 C 7.375 -0.753906 7.472656 -0.609375 7.578125 -0.484375 C 7.691406 -0.359375 7.832031 -0.296875 8 -0.296875 L 8 0 L 4.046875 0 L 4.046875 -0.296875 C 4.210938 -0.296875 4.351562 -0.359375 4.46875 -0.484375 C 4.59375 -0.609375 4.695312 -0.75 4.78125 -0.90625 C 4.875 -1.070312 4.941406 -1.25 4.984375 -1.4375 C 5.023438 -1.632812 5.046875 -1.816406 5.046875 -1.984375 L 5.046875 -11.765625 L 2.4375 -11.765625 C 2.113281 -11.765625 1.828125 -11.691406 1.578125 -11.546875 C 1.335938 -11.410156 1.140625 -11.234375 0.984375 -11.015625 C 0.835938 -10.804688 0.722656 -10.570312 0.640625 -10.3125 C 0.554688 -10.050781 0.515625 -9.804688 0.515625 -9.578125 L 0.21875 -9.578125 L 0.21875 -12.78125 L 11.921875 -12.78125 L 11.921875 -9.578125 Z M 11.65625 -9.578125 "></path></g></g></g><g fill="#492c01" fill-opacity="1"><g transform="translate(116.140945, 26.448863)"><g><path d="M 9.40625 0 L 9.40625 -1.546875 L 9.25 -1.40625 C 8.738281 -0.894531 8.15625 -0.492188 7.5 -0.203125 C 6.84375 0.078125 6.046875 0.21875 5.109375 0.21875 C 4.398438 0.21875 3.789062 0.132812 3.28125 -0.03125 C 2.78125 -0.195312 2.363281 -0.425781 2.03125 -0.71875 C 1.707031 -1.007812 1.46875 -1.347656 1.3125 -1.734375 C 1.164062 -2.117188 1.09375 -2.523438 1.09375 -2.953125 C 1.09375 -3.640625 1.28125 -4.242188 1.65625 -4.765625 C 2.03125 -5.296875 2.570312 -5.765625 3.28125 -6.171875 C 3.988281 -6.578125 4.851562 -6.945312 5.875 -7.28125 C 6.90625 -7.613281 8.082031 -7.945312 9.40625 -8.28125 C 9.363281 -9.070312 9.195312 -9.707031 8.90625 -10.1875 C 8.625 -10.675781 8.289062 -11.054688 7.90625 -11.328125 C 7.519531 -11.609375 7.113281 -11.789062 6.6875 -11.875 C 6.257812 -11.96875 5.894531 -12.015625 5.59375 -12.015625 C 5.070312 -12.015625 4.609375 -11.9375 4.203125 -11.78125 C 3.796875 -11.632812 3.4375 -11.429688 3.125 -11.171875 C 2.820312 -10.921875 2.570312 -10.632812 2.375 -10.3125 C 2.1875 -9.988281 2.046875 -9.664062 1.953125 -9.34375 L 1.671875 -9.34375 L 1.671875 -11.71875 C 1.859375 -11.71875 2.070312 -11.78125 2.3125 -11.90625 C 2.550781 -12.039062 2.835938 -12.1875 3.171875 -12.34375 C 3.515625 -12.507812 3.921875 -12.65625 4.390625 -12.78125 C 4.867188 -12.914062 5.441406 -12.984375 6.109375 -12.984375 C 7.222656 -12.984375 8.125 -12.84375 8.8125 -12.5625 C 9.507812 -12.28125 10.046875 -11.90625 10.421875 -11.4375 C 10.796875 -10.96875 11.039062 -10.429688 11.15625 -9.828125 C 11.28125 -9.234375 11.34375 -8.625 11.34375 -8 L 11.34375 -1.984375 C 11.34375 -1.578125 11.441406 -1.191406 11.640625 -0.828125 C 11.847656 -0.472656 12.125 -0.296875 12.46875 -0.296875 L 12.46875 0 Z M 9.40625 -2.890625 L 9.40625 -7.234375 L 9.09375 -7.171875 C 8.601562 -7.054688 8.007812 -6.894531 7.3125 -6.6875 C 6.613281 -6.488281 5.945312 -6.226562 5.3125 -5.90625 C 4.6875 -5.582031 4.148438 -5.195312 3.703125 -4.75 C 3.265625 -4.300781 3.046875 -3.78125 3.046875 -3.1875 C 3.046875 -2.539062 3.304688 -2.003906 3.828125 -1.578125 C 4.359375 -1.148438 5.050781 -0.9375 5.90625 -0.9375 C 6.570312 -0.9375 7.15625 -1.082031 7.65625 -1.375 C 8.164062 -1.675781 8.632812 -2.0625 9.0625 -2.53125 Z M 9.40625 -2.890625 "></path></g></g></g><g fill="#492c01" fill-opacity="1"><g transform="translate(130.037645, 26.448863)"><g><path d="M 10.5 -0.296875 C 10.632812 -0.296875 10.789062 -0.359375 10.96875 -0.484375 C 11.15625 -0.609375 11.25 -0.78125 11.25 -1 C 11.25 -1.039062 11.234375 -1.125 11.203125 -1.25 C 11.179688 -1.382812 11.128906 -1.535156 11.046875 -1.703125 L 7.171875 -10.828125 L 3.15625 -1.25 C 2.8125 -0.414062 2.132812 0 1.125 0 L 0.453125 0 L 0.453125 -0.296875 C 0.734375 -0.296875 1.039062 -0.441406 1.375 -0.734375 C 1.71875 -1.035156 1.988281 -1.390625 2.1875 -1.796875 L 6.328125 -11.46875 C 6.429688 -11.726562 6.484375 -11.941406 6.484375 -12.109375 C 6.484375 -12.347656 6.320312 -12.46875 6 -12.46875 L 6 -12.78125 L 8.453125 -12.78125 L 13.140625 -1.828125 C 13.285156 -1.523438 13.492188 -1.191406 13.765625 -0.828125 C 14.035156 -0.472656 14.296875 -0.296875 14.546875 -0.296875 L 14.546875 0 L 10.5 0 Z M 10.5 -0.296875 "></path></g></g></g><g fill="#492c01" fill-opacity="1"><g transform="translate(145.029047, 26.448863)"><g><path d="M 6.234375 4.34375 C 5.953125 5.195312 5.59375 5.773438 5.15625 6.078125 C 4.71875 6.390625 4.265625 6.546875 3.796875 6.546875 C 3.492188 6.546875 3.21875 6.492188 2.96875 6.390625 C 2.726562 6.285156 2.515625 6.171875 2.328125 6.046875 C 2.148438 5.929688 2.015625 5.820312 1.921875 5.71875 C 1.835938 5.613281 1.796875 5.5625 1.796875 5.5625 L 2.796875 3.109375 C 2.878906 3.429688 2.984375 3.703125 3.109375 3.921875 C 3.203125 4.128906 3.335938 4.3125 3.515625 4.46875 C 3.703125 4.632812 3.929688 4.71875 4.203125 4.71875 C 4.679688 4.71875 5.066406 4.363281 5.359375 3.65625 L 6.8125 -0.09375 L 1.953125 -11.171875 C 1.785156 -11.515625 1.613281 -11.816406 1.4375 -12.078125 C 1.269531 -12.335938 0.984375 -12.46875 0.578125 -12.46875 L 0.578125 -12.78125 L 4.5 -12.78125 L 4.5 -12.46875 C 4.414062 -12.46875 4.3125 -12.394531 4.1875 -12.25 C 4.070312 -12.113281 4.015625 -11.9375 4.015625 -11.71875 C 4.015625 -11.550781 4.054688 -11.382812 4.140625 -11.21875 L 7.875 -2.609375 L 11.46875 -11.40625 C 11.53125 -11.550781 11.5625 -11.679688 11.5625 -11.796875 C 11.5625 -12.003906 11.492188 -12.164062 11.359375 -12.28125 C 11.234375 -12.40625 11.097656 -12.46875 10.953125 -12.46875 L 10.953125 -12.78125 L 13.90625 -12.78125 L 13.90625 -12.46875 C 13.582031 -12.46875 13.300781 -12.332031 13.0625 -12.0625 C 12.832031 -11.789062 12.644531 -11.484375 12.5 -11.140625 Z M 6.234375 4.34375 "></path></g></g></g><g fill="#492c01" fill-opacity="1"><g transform="translate(159.442672, 26.448863)"><g><path d="M 6.234375 4.34375 C 5.953125 5.195312 5.59375 5.773438 5.15625 6.078125 C 4.71875 6.390625 4.265625 6.546875 3.796875 6.546875 C 3.492188 6.546875 3.21875 6.492188 2.96875 6.390625 C 2.726562 6.285156 2.515625 6.171875 2.328125 6.046875 C 2.148438 5.929688 2.015625 5.820312 1.921875 5.71875 C 1.835938 5.613281 1.796875 5.5625 1.796875 5.5625 L 2.796875 3.109375 C 2.878906 3.429688 2.984375 3.703125 3.109375 3.921875 C 3.203125 4.128906 3.335938 4.3125 3.515625 4.46875 C 3.703125 4.632812 3.929688 4.71875 4.203125 4.71875 C 4.679688 4.71875 5.066406 4.363281 5.359375 3.65625 L 6.8125 -0.09375 L 1.953125 -11.171875 C 1.785156 -11.515625 1.613281 -11.816406 1.4375 -12.078125 C 1.269531 -12.335938 0.984375 -12.46875 0.578125 -12.46875 L 0.578125 -12.78125 L 4.5 -12.78125 L 4.5 -12.46875 C 4.414062 -12.46875 4.3125 -12.394531 4.1875 -12.25 C 4.070312 -12.113281 4.015625 -11.9375 4.015625 -11.71875 C 4.015625 -11.550781 4.054688 -11.382812 4.140625 -11.21875 L 7.875 -2.609375 L 11.46875 -11.40625 C 11.53125 -11.550781 11.5625 -11.679688 11.5625 -11.796875 C 11.5625 -12.003906 11.492188 -12.164062 11.359375 -12.28125 C 11.234375 -12.40625 11.097656 -12.46875 10.953125 -12.46875 L 10.953125 -12.78125 L 13.90625 -12.78125 L 13.90625 -12.46875 C 13.582031 -12.46875 13.300781 -12.332031 13.0625 -12.0625 C 12.832031 -11.789062 12.644531 -11.484375 12.5 -11.140625 Z M 6.234375 4.34375 "></path></g></g></g><g fill="#492c01" fill-opacity="1"><g transform="translate(0.954477, 56.75764)"><g><path d="M 6.234375 4.34375 C 5.953125 5.195312 5.59375 5.773438 5.15625 6.078125 C 4.71875 6.390625 4.265625 6.546875 3.796875 6.546875 C 3.492188 6.546875 3.21875 6.492188 2.96875 6.390625 C 2.726562 6.285156 2.515625 6.171875 2.328125 6.046875 C 2.148438 5.929688 2.015625 5.820312 1.921875 5.71875 C 1.835938 5.613281 1.796875 5.5625 1.796875 5.5625 L 2.796875 3.109375 C 2.878906 3.429688 2.984375 3.703125 3.109375 3.921875 C 3.203125 4.128906 3.335938 4.3125 3.515625 4.46875 C 3.703125 4.632812 3.929688 4.71875 4.203125 4.71875 C 4.679688 4.71875 5.066406 4.363281 5.359375 3.65625 L 6.8125 -0.09375 L 1.953125 -11.171875 C 1.785156 -11.515625 1.613281 -11.816406 1.4375 -12.078125 C 1.269531 -12.335938 0.984375 -12.46875 0.578125 -12.46875 L 0.578125 -12.78125 L 4.5 -12.78125 L 4.5 -12.46875 C 4.414062 -12.46875 4.3125 -12.394531 4.1875 -12.25 C 4.070312 -12.113281 4.015625 -11.9375 4.015625 -11.71875 C 4.015625 -11.550781 4.054688 -11.382812 4.140625 -11.21875 L 7.875 -2.609375 L 11.46875 -11.40625 C 11.53125 -11.550781 11.5625 -11.679688 11.5625 -11.796875 C 11.5625 -12.003906 11.492188 -12.164062 11.359375 -12.28125 C 11.234375 -12.40625 11.097656 -12.46875 10.953125 -12.46875 L 10.953125 -12.78125 L 13.90625 -12.78125 L 13.90625 -12.46875 C 13.582031 -12.46875 13.300781 -12.332031 13.0625 -12.0625 C 12.832031 -11.789062 12.644531 -11.484375 12.5 -11.140625 Z M 6.234375 4.34375 "></path></g></g></g><g fill="#492c01" fill-opacity="1"><g transform="translate(15.368102, 56.75764)"><g><path d="M 7.9375 -12.984375 C 8.957031 -12.984375 9.875 -12.816406 10.6875 -12.484375 C 11.507812 -12.148438 12.207031 -11.691406 12.78125 -11.109375 C 13.363281 -10.535156 13.804688 -9.851562 14.109375 -9.0625 C 14.421875 -8.269531 14.578125 -7.410156 14.578125 -6.484375 C 14.578125 -5.484375 14.398438 -4.570312 14.046875 -3.75 C 13.703125 -2.9375 13.226562 -2.234375 12.625 -1.640625 C 12.019531 -1.054688 11.300781 -0.597656 10.46875 -0.265625 C 9.632812 0.0546875 8.726562 0.21875 7.75 0.21875 C 6.71875 0.21875 5.796875 0.0195312 4.984375 -0.375 C 4.171875 -0.769531 3.476562 -1.3125 2.90625 -2 C 2.34375 -2.695312 1.910156 -3.515625 1.609375 -4.453125 C 1.304688 -5.398438 1.15625 -6.421875 1.15625 -7.515625 C 1.15625 -8.140625 1.191406 -8.71875 1.265625 -9.25 C 1.335938 -9.78125 1.445312 -10.289062 1.59375 -10.78125 C 1.75 -11.28125 1.9375 -11.757812 2.15625 -12.21875 C 2.382812 -12.6875 2.648438 -13.175781 2.953125 -13.6875 C 3.804688 -15.03125 4.875 -16.085938 6.15625 -16.859375 C 7.445312 -17.628906 8.757812 -18.015625 10.09375 -18.015625 L 13.96875 -18.015625 L 12.78125 -16.0625 L 9.609375 -16.0625 C 8.960938 -16.0625 8.3125 -15.941406 7.65625 -15.703125 C 7.007812 -15.472656 6.394531 -15.128906 5.8125 -14.671875 C 5.238281 -14.222656 4.726562 -13.671875 4.28125 -13.015625 C 3.84375 -12.367188 3.488281 -11.628906 3.21875 -10.796875 C 3.769531 -11.460938 4.40625 -11.992188 5.125 -12.390625 C 5.84375 -12.785156 6.78125 -12.984375 7.9375 -12.984375 Z M 8.125 -0.828125 C 8.875 -0.859375 9.53125 -1.03125 10.09375 -1.34375 C 10.664062 -1.664062 11.144531 -2.070312 11.53125 -2.5625 C 11.914062 -3.0625 12.203125 -3.617188 12.390625 -4.234375 C 12.585938 -4.859375 12.6875 -5.492188 12.6875 -6.140625 C 12.6875 -6.890625 12.5625 -7.613281 12.3125 -8.3125 C 12.070312 -9.019531 11.726562 -9.632812 11.28125 -10.15625 C 10.84375 -10.6875 10.3125 -11.113281 9.6875 -11.4375 C 9.070312 -11.757812 8.390625 -11.921875 7.640625 -11.921875 C 6.910156 -11.921875 6.257812 -11.765625 5.6875 -11.453125 C 5.125 -11.140625 4.648438 -10.726562 4.265625 -10.21875 C 3.878906 -9.71875 3.585938 -9.140625 3.390625 -8.484375 C 3.203125 -7.835938 3.109375 -7.191406 3.109375 -6.546875 C 3.109375 -5.890625 3.222656 -5.222656 3.453125 -4.546875 C 3.679688 -3.867188 4.015625 -3.253906 4.453125 -2.703125 C 4.890625 -2.160156 5.414062 -1.710938 6.03125 -1.359375 C 6.65625 -1.003906 7.351562 -0.828125 8.125 -0.828125 Z M 8.125 -0.828125 "></path></g></g></g><g fill="#492c01" fill-opacity="1"><g transform="translate(31.271749, 56.75764)"><g><path d="M 9.40625 0 L 9.40625 -1.546875 L 9.25 -1.40625 C 8.738281 -0.894531 8.15625 -0.492188 7.5 -0.203125 C 6.84375 0.078125 6.046875 0.21875 5.109375 0.21875 C 4.398438 0.21875 3.789062 0.132812 3.28125 -0.03125 C 2.78125 -0.195312 2.363281 -0.425781 2.03125 -0.71875 C 1.707031 -1.007812 1.46875 -1.347656 1.3125 -1.734375 C 1.164062 -2.117188 1.09375 -2.523438 1.09375 -2.953125 C 1.09375 -3.640625 1.28125 -4.242188 1.65625 -4.765625 C 2.03125 -5.296875 2.570312 -5.765625 3.28125 -6.171875 C 3.988281 -6.578125 4.851562 -6.945312 5.875 -7.28125 C 6.90625 -7.613281 8.082031 -7.945312 9.40625 -8.28125 C 9.363281 -9.070312 9.195312 -9.707031 8.90625 -10.1875 C 8.625 -10.675781 8.289062 -11.054688 7.90625 -11.328125 C 7.519531 -11.609375 7.113281 -11.789062 6.6875 -11.875 C 6.257812 -11.96875 5.894531 -12.015625 5.59375 -12.015625 C 5.070312 -12.015625 4.609375 -11.9375 4.203125 -11.78125 C 3.796875 -11.632812 3.4375 -11.429688 3.125 -11.171875 C 2.820312 -10.921875 2.570312 -10.632812 2.375 -10.3125 C 2.1875 -9.988281 2.046875 -9.664062 1.953125 -9.34375 L 1.671875 -9.34375 L 1.671875 -11.71875 C 1.859375 -11.71875 2.070312 -11.78125 2.3125 -11.90625 C 2.550781 -12.039062 2.835938 -12.1875 3.171875 -12.34375 C 3.515625 -12.507812 3.921875 -12.65625 4.390625 -12.78125 C 4.867188 -12.914062 5.441406 -12.984375 6.109375 -12.984375 C 7.222656 -12.984375 8.125 -12.84375 8.8125 -12.5625 C 9.507812 -12.28125 10.046875 -11.90625 10.421875 -11.4375 C 10.796875 -10.96875 11.039062 -10.429688 11.15625 -9.828125 C 11.28125 -9.234375 11.34375 -8.625 11.34375 -8 L 11.34375 -1.984375 C 11.34375 -1.578125 11.441406 -1.191406 11.640625 -0.828125 C 11.847656 -0.472656 12.125 -0.296875 12.46875 -0.296875 L 12.46875 0 Z M 9.40625 -2.890625 L 9.40625 -7.234375 L 9.09375 -7.171875 C 8.601562 -7.054688 8.007812 -6.894531 7.3125 -6.6875 C 6.613281 -6.488281 5.945312 -6.226562 5.3125 -5.90625 C 4.6875 -5.582031 4.148438 -5.195312 3.703125 -4.75 C 3.265625 -4.300781 3.046875 -3.78125 3.046875 -3.1875 C 3.046875 -2.539062 3.304688 -2.003906 3.828125 -1.578125 C 4.359375 -1.148438 5.050781 -0.9375 5.90625 -0.9375 C 6.570312 -0.9375 7.15625 -1.082031 7.65625 -1.375 C 8.164062 -1.675781 8.632812 -2.0625 9.0625 -2.53125 Z M 9.40625 -2.890625 "></path></g></g></g><g fill="#492c01" fill-opacity="1"><g transform="translate(45.168449, 56.75764)"><g><path d="M 10.59375 -2.375 C 10.707031 -2.144531 10.863281 -1.910156 11.0625 -1.671875 C 11.269531 -1.429688 11.5 -1.207031 11.75 -1 C 12.007812 -0.800781 12.269531 -0.632812 12.53125 -0.5 C 12.789062 -0.363281 13.046875 -0.296875 13.296875 -0.296875 L 13.296875 0 L 12.140625 0 C 11.203125 0 10.476562 -0.191406 9.96875 -0.578125 C 9.46875 -0.960938 9.078125 -1.421875 8.796875 -1.953125 L 7.359375 -4.65625 C 7.140625 -5.082031 6.765625 -5.453125 6.234375 -5.765625 C 5.710938 -6.078125 5.15625 -6.234375 4.5625 -6.234375 L 4.5625 -1.921875 C 4.5625 -1.753906 4.578125 -1.578125 4.609375 -1.390625 C 4.640625 -1.210938 4.691406 -1.039062 4.765625 -0.875 C 4.847656 -0.71875 4.953125 -0.582031 5.078125 -0.46875 C 5.203125 -0.351562 5.34375 -0.296875 5.5 -0.296875 L 5.5 0 L 1.578125 0 L 1.578125 -0.296875 C 1.722656 -0.296875 1.859375 -0.351562 1.984375 -0.46875 C 2.117188 -0.582031 2.226562 -0.71875 2.3125 -0.875 C 2.394531 -1.039062 2.457031 -1.210938 2.5 -1.390625 C 2.539062 -1.578125 2.5625 -1.753906 2.5625 -1.921875 L 2.5625 -10.859375 C 2.5625 -11.003906 2.539062 -11.171875 2.5 -11.359375 C 2.457031 -11.554688 2.398438 -11.734375 2.328125 -11.890625 C 2.253906 -12.054688 2.15625 -12.191406 2.03125 -12.296875 C 1.914062 -12.410156 1.765625 -12.46875 1.578125 -12.46875 L 1.578125 -12.78125 L 5.46875 -12.78125 L 5.46875 -12.46875 C 5.332031 -12.46875 5.207031 -12.410156 5.09375 -12.296875 C 4.976562 -12.191406 4.878906 -12.054688 4.796875 -11.890625 C 4.722656 -11.734375 4.664062 -11.554688 4.625 -11.359375 C 4.582031 -11.171875 4.5625 -11.003906 4.5625 -10.859375 L 4.5625 -7.734375 C 5.4375 -8.503906 6.296875 -9.25 7.140625 -9.96875 C 7.992188 -10.6875 8.859375 -11.429688 9.734375 -12.203125 C 9.734375 -12.222656 9.742188 -12.242188 9.765625 -12.265625 C 9.785156 -12.285156 9.796875 -12.304688 9.796875 -12.328125 C 9.796875 -12.421875 9.742188 -12.46875 9.640625 -12.46875 L 9.640625 -12.78125 L 12.296875 -12.78125 L 12.296875 -12.46875 C 12.191406 -12.46875 12.066406 -12.4375 11.921875 -12.375 C 11.785156 -12.320312 11.644531 -12.253906 11.5 -12.171875 C 11.332031 -12.085938 11.171875 -11.984375 11.015625 -11.859375 C 10.097656 -11.085938 9.179688 -10.300781 8.265625 -9.5 C 7.359375 -8.707031 6.445312 -7.925781 5.53125 -7.15625 C 6.40625 -7.15625 7.117188 -6.988281 7.671875 -6.65625 C 8.234375 -6.332031 8.707031 -5.816406 9.09375 -5.109375 Z M 10.59375 -2.375 "></path></g></g></g><g fill="#492c01" fill-opacity="1"><g transform="translate(58.882689, 56.75764)"><g><path d="M 11.65625 -9.578125 C 11.65625 -9.804688 11.613281 -10.050781 11.53125 -10.3125 C 11.445312 -10.570312 11.320312 -10.804688 11.15625 -11.015625 C 11 -11.234375 10.796875 -11.410156 10.546875 -11.546875 C 10.304688 -11.691406 10.023438 -11.765625 9.703125 -11.765625 L 7.03125 -11.765625 L 7.03125 -1.984375 C 7.03125 -1.816406 7.050781 -1.640625 7.09375 -1.453125 C 7.132812 -1.273438 7.195312 -1.097656 7.28125 -0.921875 C 7.375 -0.753906 7.472656 -0.609375 7.578125 -0.484375 C 7.691406 -0.359375 7.832031 -0.296875 8 -0.296875 L 8 0 L 4.046875 0 L 4.046875 -0.296875 C 4.210938 -0.296875 4.351562 -0.359375 4.46875 -0.484375 C 4.59375 -0.609375 4.695312 -0.75 4.78125 -0.90625 C 4.875 -1.070312 4.941406 -1.25 4.984375 -1.4375 C 5.023438 -1.632812 5.046875 -1.816406 5.046875 -1.984375 L 5.046875 -11.765625 L 2.4375 -11.765625 C 2.113281 -11.765625 1.828125 -11.691406 1.578125 -11.546875 C 1.335938 -11.410156 1.140625 -11.234375 0.984375 -11.015625 C 0.835938 -10.804688 0.722656 -10.570312 0.640625 -10.3125 C 0.554688 -10.050781 0.515625 -9.804688 0.515625 -9.578125 L 0.21875 -9.578125 L 0.21875 -12.78125 L 11.921875 -12.78125 L 11.921875 -9.578125 Z M 11.65625 -9.578125 "></path></g></g></g><g fill="#492c01" fill-opacity="1"><g transform="translate(71.167735, 56.75764)"><g><path d="M 13.96875 0 L 13.96875 -0.296875 C 14.101562 -0.296875 14.234375 -0.351562 14.359375 -0.46875 C 14.484375 -0.582031 14.585938 -0.722656 14.671875 -0.890625 C 14.765625 -1.066406 14.832031 -1.25 14.875 -1.4375 C 14.914062 -1.632812 14.9375 -1.816406 14.9375 -1.984375 L 14.9375 -10.890625 C 14.9375 -11.035156 14.914062 -11.195312 14.875 -11.375 C 14.832031 -11.5625 14.765625 -11.734375 14.671875 -11.890625 C 14.585938 -12.054688 14.484375 -12.191406 14.359375 -12.296875 C 14.234375 -12.410156 14.101562 -12.46875 13.96875 -12.46875 L 13.96875 -12.78125 L 17.921875 -12.78125 L 17.921875 -12.46875 C 17.617188 -12.46875 17.375 -12.28125 17.1875 -11.90625 C 17.007812 -11.53125 16.921875 -11.191406 16.921875 -10.890625 L 16.921875 -1.984375 C 16.921875 -1.816406 16.9375 -1.632812 16.96875 -1.4375 C 17.007812 -1.25 17.078125 -1.070312 17.171875 -0.90625 C 17.265625 -0.75 17.367188 -0.609375 17.484375 -0.484375 C 17.609375 -0.359375 17.753906 -0.296875 17.921875 -0.296875 L 17.921875 0 Z M 6.78125 -7.234375 C 8.644531 -7.234375 10.03125 -6.890625 10.9375 -6.203125 C 11.84375 -5.515625 12.296875 -4.664062 12.296875 -3.65625 C 12.296875 -3.144531 12.175781 -2.664062 11.9375 -2.21875 C 11.707031 -1.769531 11.359375 -1.382812 10.890625 -1.0625 C 10.421875 -0.738281 9.832031 -0.476562 9.125 -0.28125 C 8.414062 -0.09375 7.578125 0 6.609375 0 L 1.4375 0 L 1.4375 -0.296875 C 1.570312 -0.296875 1.703125 -0.351562 1.828125 -0.46875 C 1.953125 -0.582031 2.054688 -0.722656 2.140625 -0.890625 C 2.234375 -1.066406 2.300781 -1.25 2.34375 -1.4375 C 2.382812 -1.632812 2.40625 -1.816406 2.40625 -1.984375 L 2.40625 -10.890625 C 2.40625 -11.035156 2.382812 -11.195312 2.34375 -11.375 C 2.300781 -11.5625 2.234375 -11.734375 2.140625 -11.890625 C 2.054688 -12.054688 1.953125 -12.191406 1.828125 -12.296875 C 1.703125 -12.410156 1.570312 -12.46875 1.4375 -12.46875 L 1.4375 -12.78125 L 5.390625 -12.78125 L 5.390625 -12.46875 C 5.078125 -12.46875 4.828125 -12.28125 4.640625 -11.90625 C 4.460938 -11.53125 4.375 -11.191406 4.375 -10.890625 L 4.375 -7.234375 Z M 6.546875 -1 C 7.878906 -1 8.84375 -1.21875 9.4375 -1.65625 C 10.039062 -2.09375 10.34375 -2.632812 10.34375 -3.28125 C 10.34375 -3.644531 10.257812 -4.003906 10.09375 -4.359375 C 9.9375 -4.710938 9.691406 -5.023438 9.359375 -5.296875 C 9.023438 -5.578125 8.613281 -5.800781 8.125 -5.96875 C 7.632812 -6.144531 7.078125 -6.234375 6.453125 -6.234375 L 4.375 -6.234375 L 4.375 -1 Z M 6.546875 -1 "></path></g></g></g><g fill="#492c01" fill-opacity="1"><g transform="translate(90.72041, 56.75764)"><g><path d="M 12.59375 -1.09375 C 12.425781 -1.09375 12.269531 -1.054688 12.125 -0.984375 C 11.988281 -0.910156 11.832031 -0.828125 11.65625 -0.734375 C 11.3125 -0.523438 10.851562 -0.3125 10.28125 -0.09375 C 9.71875 0.113281 9.007812 0.21875 8.15625 0.21875 C 7.125 0.21875 6.175781 0.0507812 5.3125 -0.28125 C 4.445312 -0.625 3.695312 -1.09375 3.0625 -1.6875 C 2.4375 -2.28125 1.953125 -2.976562 1.609375 -3.78125 C 1.265625 -4.582031 1.09375 -5.453125 1.09375 -6.390625 C 1.09375 -7.265625 1.25 -8.09375 1.5625 -8.875 C 1.875 -9.664062 2.320312 -10.363281 2.90625 -10.96875 C 3.5 -11.582031 4.226562 -12.070312 5.09375 -12.4375 C 5.957031 -12.800781 6.9375 -12.984375 8.03125 -12.984375 C 8.78125 -12.984375 9.390625 -12.894531 9.859375 -12.71875 C 10.328125 -12.550781 10.722656 -12.390625 11.046875 -12.234375 C 11.222656 -12.128906 11.394531 -12.046875 11.5625 -11.984375 C 11.738281 -11.921875 11.921875 -11.890625 12.109375 -11.890625 L 12.109375 -9.578125 L 11.796875 -9.578125 C 11.703125 -9.960938 11.519531 -10.300781 11.25 -10.59375 C 10.988281 -10.894531 10.6875 -11.144531 10.34375 -11.34375 C 10 -11.550781 9.625 -11.703125 9.21875 -11.796875 C 8.8125 -11.898438 8.414062 -11.953125 8.03125 -11.953125 C 7.195312 -11.953125 6.460938 -11.804688 5.828125 -11.515625 C 5.203125 -11.222656 4.6875 -10.835938 4.28125 -10.359375 C 3.882812 -9.878906 3.582031 -9.332031 3.375 -8.71875 C 3.175781 -8.113281 3.078125 -7.488281 3.078125 -6.84375 C 3.078125 -6.09375 3.191406 -5.359375 3.421875 -4.640625 C 3.648438 -3.921875 3.984375 -3.273438 4.421875 -2.703125 C 4.859375 -2.140625 5.394531 -1.6875 6.03125 -1.34375 C 6.675781 -1 7.40625 -0.828125 8.21875 -0.828125 C 8.78125 -0.828125 9.304688 -0.90625 9.796875 -1.0625 C 10.285156 -1.226562 10.707031 -1.441406 11.0625 -1.703125 C 11.414062 -1.960938 11.695312 -2.25 11.90625 -2.5625 C 12.125 -2.882812 12.253906 -3.1875 12.296875 -3.46875 L 12.59375 -3.46875 Z M 12.59375 -1.09375 "></path></g></g></g><g fill="#492c01" fill-opacity="1"><g transform="translate(103.978528, 56.75764)"><g><path d="M 13.96875 0 L 13.96875 -0.296875 C 14.101562 -0.296875 14.234375 -0.351562 14.359375 -0.46875 C 14.484375 -0.582031 14.585938 -0.722656 14.671875 -0.890625 C 14.765625 -1.066406 14.832031 -1.25 14.875 -1.4375 C 14.914062 -1.632812 14.9375 -1.816406 14.9375 -1.984375 L 14.9375 -10.890625 C 14.9375 -11.035156 14.914062 -11.195312 14.875 -11.375 C 14.832031 -11.5625 14.765625 -11.734375 14.671875 -11.890625 C 14.585938 -12.054688 14.484375 -12.191406 14.359375 -12.296875 C 14.234375 -12.410156 14.101562 -12.46875 13.96875 -12.46875 L 13.96875 -12.78125 L 17.921875 -12.78125 L 17.921875 -12.46875 C 17.617188 -12.46875 17.375 -12.28125 17.1875 -11.90625 C 17.007812 -11.53125 16.921875 -11.191406 16.921875 -10.890625 L 16.921875 -1.984375 C 16.921875 -1.816406 16.9375 -1.632812 16.96875 -1.4375 C 17.007812 -1.25 17.078125 -1.070312 17.171875 -0.90625 C 17.265625 -0.75 17.367188 -0.609375 17.484375 -0.484375 C 17.609375 -0.359375 17.753906 -0.296875 17.921875 -0.296875 L 17.921875 0 Z M 6.78125 -7.234375 C 8.644531 -7.234375 10.03125 -6.890625 10.9375 -6.203125 C 11.84375 -5.515625 12.296875 -4.664062 12.296875 -3.65625 C 12.296875 -3.144531 12.175781 -2.664062 11.9375 -2.21875 C 11.707031 -1.769531 11.359375 -1.382812 10.890625 -1.0625 C 10.421875 -0.738281 9.832031 -0.476562 9.125 -0.28125 C 8.414062 -0.09375 7.578125 0 6.609375 0 L 1.4375 0 L 1.4375 -0.296875 C 1.570312 -0.296875 1.703125 -0.351562 1.828125 -0.46875 C 1.953125 -0.582031 2.054688 -0.722656 2.140625 -0.890625 C 2.234375 -1.066406 2.300781 -1.25 2.34375 -1.4375 C 2.382812 -1.632812 2.40625 -1.816406 2.40625 -1.984375 L 2.40625 -10.890625 C 2.40625 -11.035156 2.382812 -11.195312 2.34375 -11.375 C 2.300781 -11.5625 2.234375 -11.734375 2.140625 -11.890625 C 2.054688 -12.054688 1.953125 -12.191406 1.828125 -12.296875 C 1.703125 -12.410156 1.570312 -12.46875 1.4375 -12.46875 L 1.4375 -12.78125 L 5.390625 -12.78125 L 5.390625 -12.46875 C 5.078125 -12.46875 4.828125 -12.28125 4.640625 -11.90625 C 4.460938 -11.53125 4.375 -11.191406 4.375 -10.890625 L 4.375 -7.234375 Z M 6.546875 -1 C 7.878906 -1 8.84375 -1.21875 9.4375 -1.65625 C 10.039062 -2.09375 10.34375 -2.632812 10.34375 -3.28125 C 10.34375 -3.644531 10.257812 -4.003906 10.09375 -4.359375 C 9.9375 -4.710938 9.691406 -5.023438 9.359375 -5.296875 C 9.023438 -5.578125 8.613281 -5.800781 8.125 -5.96875 C 7.632812 -6.144531 7.078125 -6.234375 6.453125 -6.234375 L 4.375 -6.234375 L 4.375 -1 Z M 6.546875 -1 "></path></g></g></g></g></g></svg> 