<?xml version="1.0" encoding="UTF-8"?> <svg xmlns="http://www.w3.org/2000/svg" xmlns:xlink="http://www.w3.org/1999/xlink" width="360" zoomAndPan="magnify" viewBox="0 0 270 359.999987" height="480" preserveAspectRatio="xMidYMid meet" version="1.0"><defs><clipPath id="b32850dee3"><path d="M 171.886719 201.582031 L 172.296875 201.582031 L 172.296875 201.863281 L 171.886719 201.863281 Z M 171.886719 201.582031 " clip-rule="nonzero"></path></clipPath><clipPath id="cce77bdce5"><path d="M 172.273438 201.75 C 171.523438 202.050781 172.125 201.601562 172.125 201.601562 " clip-rule="nonzero"></path></clipPath><clipPath id="b3b0d6453f"><path d="M 0.886719 0.582031 L 1.296875 0.582031 L 1.296875 0.863281 L 0.886719 0.863281 Z M 0.886719 0.582031 " clip-rule="nonzero"></path></clipPath><clipPath id="b9f932689f"><path d="M 1.273438 0.75 C 0.523438 1.050781 1.125 0.601562 1.125 0.601562 " clip-rule="nonzero"></path></clipPath><clipPath id="7094a2e105"><rect x="0" width="2" y="0" height="1"></rect></clipPath><clipPath id="2c415e9bd2"><path d="M 37.9375 158.929688 L 41.804688 158.929688 L 41.804688 159.835938 L 37.9375 159.835938 Z M 37.9375 158.929688 " clip-rule="nonzero"></path></clipPath><clipPath id="dfa5465555"><path d="M 37.949219 159.300781 C 40.273438 158.324219 41.851562 159.601562 41.773438 159.75 C 41.699219 160.050781 37.949219 159.300781 37.949219 159.300781 " clip-rule="nonzero"></path></clipPath><clipPath id="887941f34e"><path d="M 0.9375 0.929688 L 4.804688 0.929688 L 4.804688 1.835938 L 0.9375 1.835938 Z M 0.9375 0.929688 " clip-rule="nonzero"></path></clipPath><clipPath id="943c21b00d"><path d="M 0.949219 1.300781 C 3.273438 0.324219 4.851562 1.601562 4.773438 1.75 C 4.699219 2.050781 0.949219 1.300781 0.949219 1.300781 " clip-rule="nonzero"></path></clipPath><clipPath id="e0090b1b14"><rect x="0" width="5" y="0" height="2"></rect></clipPath><clipPath id="c72c54f962"><path d="M 78.0625 176.757812 L 78.472656 176.757812 L 78.472656 177 L 78.0625 177 Z M 78.0625 176.757812 " clip-rule="nonzero"></path></clipPath><clipPath id="6a0146c3d7"><path d="M 78.449219 176.925781 C 77.699219 177.148438 78.300781 176.773438 78.300781 176.773438 " clip-rule="nonzero"></path></clipPath><clipPath id="521699de68"><path d="M 0.0625 0.757812 L 0.472656 0.757812 L 0.472656 1 L 0.0625 1 Z M 0.0625 0.757812 " clip-rule="nonzero"></path></clipPath><clipPath id="9c33c9d2a2"><path d="M 0.449219 0.925781 C -0.300781 1.148438 0.300781 0.773438 0.300781 0.773438 " clip-rule="nonzero"></path></clipPath><clipPath id="96a9ba58a6"><rect x="0" width="1" y="0" height="1"></rect></clipPath><clipPath id="a73856e4d2"><path d="M 0.0625 0.757812 L 0.472656 0.757812 L 0.472656 1 L 0.0625 1 Z M 0.0625 0.757812 " clip-rule="nonzero"></path></clipPath><clipPath id="cc5c5afdf6"><path d="M 0.449219 0.925781 C -0.300781 1.148438 0.300781 0.773438 0.300781 0.773438 " clip-rule="nonzero"></path></clipPath><clipPath id="0090fbf932"><rect x="0" width="1" y="0" height="1"></rect></clipPath><clipPath id="7032ba148f"><path d="M 6 180.300781 L 107 180.300781 L 107 203 L 6 203 Z M 6 180.300781 " clip-rule="nonzero"></path></clipPath></defs><g clip-path="url(#b32850dee3)"><g clip-path="url(#cce77bdce5)"><g transform="matrix(1, 0, 0, 1, 171, 201)"><g clip-path="url(#7094a2e105)"><g clip-path="url(#b3b0d6453f)"><g clip-path="url(#b9f932689f)"><rect x="-230.4" width="388.8" fill="#492c01" height="518.399981" y="-280.199997" fill-opacity="1"></rect></g></g></g></g></g></g><g clip-path="url(#2c415e9bd2)"><g clip-path="url(#dfa5465555)"><g transform="matrix(1, 0, 0, 1, 37, 158)"><g clip-path="url(#e0090b1b14)"><g clip-path="url(#887941f34e)"><g clip-path="url(#943c21b00d)"><rect x="-96.4" width="388.8" fill="#492c01" height="518.399981" y="-237.199997" fill-opacity="1"></rect></g></g></g></g></g></g><g clip-path="url(#c72c54f962)"><g clip-path="url(#6a0146c3d7)"><g transform="matrix(1, 0, 0, 1, 78, 176)"><g clip-path="url(#96a9ba58a6)"><g clip-path="url(#521699de68)"><g clip-path="url(#9c33c9d2a2)"><rect x="-137.4" width="388.8" fill="#492c01" height="518.399981" y="-255.199997" fill-opacity="1"></rect></g></g></g></g><g transform="matrix(1, 0, 0, 1, 78, 176)"><g clip-path="url(#0090fbf932)"><g clip-path="url(#a73856e4d2)"><g clip-path="url(#cc5c5afdf6)"><rect x="-137.4" width="388.8" fill="#492c01" height="518.399981" y="-255.199997" fill-opacity="1"></rect></g></g></g></g></g></g><g clip-path="url(#7032ba148f)"><path fill="#492c01" d="M 8.78125 197.902344 C 13.972656 192.507812 20.066406 187.753906 27.210938 185.289062 C 33.007812 183.285156 39.199219 182.90625 45.21875 183.777344 C 51.519531 184.6875 57.609375 186.722656 63.542969 188.980469 C 69.839844 191.378906 76.019531 194.066406 82.335938 196.402344 C 88.714844 198.757812 95.261719 200.761719 102.011719 201.691406 C 102.925781 201.8125 103.835938 201.929688 104.746094 202.015625 C 105.445312 202.082031 106.042969 201.375 106.042969 200.722656 C 106.042969 199.964844 105.445312 199.492188 104.746094 199.425781 C 97.925781 198.757812 91.285156 196.863281 84.847656 194.570312 C 78.425781 192.28125 72.171875 189.574219 65.820312 187.097656 C 59.789062 184.75 53.621094 182.582031 47.226562 181.488281 C 40.976562 180.425781 34.566406 180.441406 28.433594 182.1875 C 21.175781 184.257812 14.789062 188.53125 9.351562 193.683594 C 8.535156 194.460938 7.738281 195.257812 6.949219 196.078125 C 5.800781 197.277344 7.628906 199.109375 8.78125 197.902344 Z M 8.78125 197.902344 " fill-opacity="1" fill-rule="nonzero"></path></g><path fill="#492c01" d="M 261.886719 195.496094 C 246.183594 199.09375 230.222656 194.332031 215.023438 190.578125 C 200.902344 187.09375 185.929688 184.265625 171.714844 188.859375 C 164.964844 191.039062 158.777344 194.8125 154.445312 200.5 C 154.019531 201.050781 154.355469 201.949219 154.910156 202.269531 C 155.578125 202.65625 156.257812 202.363281 156.679688 201.804688 C 164.246094 191.875 177.96875 188.667969 189.851562 189.035156 C 205.652344 189.527344 220.582031 195.433594 236.042969 198.035156 C 244.820312 199.507812 253.839844 199.996094 262.578125 197.992188 C 264.199219 197.621094 263.507812 195.125 261.886719 195.496094 Z M 261.886719 195.496094 " fill-opacity="1" fill-rule="nonzero"></path><path fill="#492c01" d="M 130.808594 200.914062 C 128.042969 199.117188 125.546875 196.9375 123.398438 194.441406 C 123.21875 194.234375 123.035156 193.972656 122.867188 193.789062 C 122.851562 193.773438 122.871094 193.714844 122.855469 193.679688 C 122.871094 193.710938 122.796875 193.890625 122.855469 193.765625 C 122.933594 193.597656 122.789062 193.902344 122.785156 193.894531 C 122.730469 193.957031 122.726562 193.964844 122.777344 193.90625 C 122.796875 193.878906 122.824219 193.855469 122.851562 193.835938 C 123 193.71875 122.675781 193.9375 122.851562 193.84375 C 122.902344 193.820312 122.949219 193.789062 123 193.761719 C 122.796875 193.863281 123.121094 193.730469 123.199219 193.710938 C 123.257812 193.695312 123.550781 193.636719 123.460938 193.648438 C 123.3125 193.667969 123.582031 193.636719 123.613281 193.636719 C 123.699219 193.632812 123.789062 193.632812 123.871094 193.632812 C 124.019531 193.632812 124.171875 193.636719 124.320312 193.65625 C 124.097656 193.632812 124.441406 193.6875 124.503906 193.703125 C 124.894531 193.792969 125.289062 193.902344 125.671875 194.03125 C 126.335938 194.253906 126.9375 194.539062 127.558594 194.90625 C 128.902344 195.699219 130.058594 196.785156 130.882812 198.082031 C 131.261719 198.671875 132.03125 198.910156 132.652344 198.546875 C 133.238281 198.203125 133.496094 197.367188 133.121094 196.773438 C 132.105469 195.179688 130.742188 193.84375 129.136719 192.839844 C 127.636719 191.898438 125.730469 191.078125 123.933594 191.046875 C 122.28125 191.015625 120.230469 191.855469 120.265625 193.796875 C 120.289062 194.96875 121.199219 195.863281 121.921875 196.683594 C 122.582031 197.421875 123.269531 198.132812 123.984375 198.816406 C 125.683594 200.429688 127.542969 201.882812 129.503906 203.160156 C 130.089844 203.542969 130.933594 203.28125 131.277344 202.695312 C 131.644531 202.050781 131.398438 201.296875 130.808594 200.914062 Z M 130.808594 200.914062 " fill-opacity="1" fill-rule="nonzero"></path><path fill="#492c01" d="M 130.164062 204.707031 C 132.296875 203.433594 134.429688 202.160156 136.558594 200.886719 C 137.605469 200.261719 138.648438 199.644531 139.691406 199.011719 C 140.660156 198.421875 141.597656 197.769531 142.289062 196.863281 C 142.953125 195.992188 143.304688 194.910156 143.175781 193.8125 C 143.113281 193.316406 142.972656 192.835938 142.699219 192.40625 C 142.210938 191.636719 141.636719 191.453125 140.757812 191.582031 C 138.832031 191.859375 136.941406 192.582031 135.304688 193.636719 C 133.429688 194.84375 131.835938 196.476562 130.761719 198.4375 C 129.960938 199.898438 132.199219 201.207031 133 199.742188 C 134.683594 196.683594 137.902344 194.527344 141.375 194.085938 C 141.066406 193.964844 140.761719 193.835938 140.457031 193.710938 C 140.976562 194.308594 140.347656 195.253906 139.851562 195.722656 C 138.914062 196.621094 137.648438 197.210938 136.546875 197.867188 C 133.984375 199.402344 131.414062 200.933594 128.851562 202.464844 C 127.429688 203.324219 128.726562 205.566406 130.164062 204.707031 Z M 130.164062 204.707031 " fill-opacity="1" fill-rule="nonzero"></path><path fill="#492c01" d="M 132.867188 200.234375 C 135.589844 198.738281 138.308594 197.242188 141.03125 195.746094 C 141.628906 195.417969 141.871094 194.546875 141.496094 193.972656 C 141.109375 193.375 140.363281 193.160156 139.726562 193.507812 C 137.003906 195.003906 134.285156 196.5 131.558594 197.996094 C 130.964844 198.324219 130.722656 199.195312 131.09375 199.769531 C 131.484375 200.375 132.230469 200.582031 132.867188 200.234375 Z M 132.867188 200.234375 " fill-opacity="1" fill-rule="nonzero"></path><path fill="#492c01" d="M 132.269531 197.980469 C 130.070312 196.320312 127.863281 194.65625 125.664062 192.996094 C 125.117188 192.585938 124.191406 192.890625 123.890625 193.460938 C 123.527344 194.144531 123.777344 194.796875 124.359375 195.230469 C 126.558594 196.894531 128.765625 198.558594 130.964844 200.21875 C 131.507812 200.628906 132.4375 200.324219 132.734375 199.753906 C 133.097656 199.070312 132.851562 198.417969 132.269531 197.980469 Z M 132.269531 197.980469 " fill-opacity="1" fill-rule="nonzero"></path><path fill="#492c01" d="M 122.949219 193.640625 C 122.804688 195.714844 124.203125 197.484375 125.636719 198.816406 C 127.105469 200.175781 128.78125 201.316406 130.59375 202.167969 C 131.203125 202.449219 132.015625 202.359375 132.363281 201.699219 C 132.667969 201.125 132.554688 200.234375 131.898438 199.929688 C 131.101562 199.554688 130.328125 199.125 129.585938 198.644531 C 128.789062 198.121094 128.371094 197.796875 127.65625 197.160156 C 127.34375 196.878906 127.046875 196.589844 126.753906 196.289062 C 126.613281 196.144531 126.484375 195.988281 126.355469 195.832031 C 126.113281 195.542969 126.417969 195.9375 126.300781 195.761719 C 126.242188 195.675781 126.179688 195.601562 126.125 195.511719 C 126.015625 195.347656 125.910156 195.175781 125.816406 195 C 125.808594 194.976562 125.640625 194.632812 125.75 194.886719 C 125.714844 194.796875 125.683594 194.703125 125.652344 194.609375 C 125.621094 194.519531 125.59375 194.425781 125.574219 194.332031 C 125.5625 194.300781 125.511719 193.988281 125.53125 194.164062 C 125.558594 194.339844 125.527344 194.027344 125.527344 193.996094 C 125.523438 193.875 125.53125 193.761719 125.539062 193.640625 C 125.585938 192.964844 124.90625 192.316406 124.242188 192.347656 C 123.503906 192.382812 123 192.917969 122.949219 193.640625 Z M 122.949219 193.640625 " fill-opacity="1" fill-rule="nonzero"></path></svg> 