<?xml version="1.0" encoding="UTF-8"?> <svg xmlns="http://www.w3.org/2000/svg" xmlns:xlink="http://www.w3.org/1999/xlink" width="360" zoomAndPan="magnify" viewBox="0 0 270 359.999987" height="480" preserveAspectRatio="xMidYMid meet" version="1.0"><defs><g></g><clipPath id="c353c8f8c8"><rect x="0" width="264" y="0" height="76"></rect></clipPath></defs><g transform="matrix(1, 0, 0, 1, 3, 142)"><g clip-path="url(#c353c8f8c8)"><g fill="#000000" fill-opacity="1"><g transform="translate(3.15351, 56.339835)"><g><path d="M 43.75 -0.75 C 43.914062 -0.75 44 -0.625 44 -0.375 C 44 -0.125 43.914062 0 43.75 0 C 42.957031 0 41.726562 -0.0390625 40.0625 -0.125 C 38.394531 -0.207031 37.179688 -0.25 36.421875 -0.25 C 35.503906 -0.25 34.335938 -0.207031 32.921875 -0.125 C 31.585938 -0.0390625 30.566406 0 29.859375 0 C 29.691406 0 29.609375 -0.125 29.609375 -0.375 C 29.609375 -0.625 29.691406 -0.75 29.859375 -0.75 C 31.398438 -0.75 32.523438 -0.894531 33.234375 -1.1875 C 33.941406 -1.476562 34.296875 -1.976562 34.296875 -2.6875 C 34.296875 -3.269531 34.023438 -4.171875 33.484375 -5.390625 L 27.921875 -17.21875 L 13.015625 -17.21875 L 9.078125 -7.953125 C 8.492188 -6.535156 8.203125 -5.382812 8.203125 -4.5 C 8.203125 -3.207031 8.710938 -2.257812 9.734375 -1.65625 C 10.753906 -1.050781 12.285156 -0.75 14.328125 -0.75 C 14.535156 -0.75 14.640625 -0.625 14.640625 -0.375 C 14.640625 -0.125 14.535156 0 14.328125 0 C 13.578125 0 12.492188 -0.0390625 11.078125 -0.125 C 9.492188 -0.207031 8.117188 -0.25 6.953125 -0.25 C 5.867188 -0.25 4.613281 -0.207031 3.1875 -0.125 C 1.9375 -0.0390625 0.894531 0 0.0625 0 C -0.144531 0 -0.25 -0.125 -0.25 -0.375 C -0.25 -0.625 -0.144531 -0.75 0.0625 -0.75 C 1.226562 -0.75 2.21875 -0.96875 3.03125 -1.40625 C 3.84375 -1.84375 4.613281 -2.613281 5.34375 -3.71875 C 6.082031 -4.832031 6.890625 -6.429688 7.765625 -8.515625 L 20.96875 -39.6875 C 21.050781 -39.8125 21.195312 -39.875 21.40625 -39.875 C 21.613281 -39.875 21.738281 -39.8125 21.78125 -39.6875 L 36.5625 -8.578125 C 37.976562 -5.484375 39.1875 -3.40625 40.1875 -2.34375 C 41.1875 -1.28125 42.375 -0.75 43.75 -0.75 Z M 13.515625 -18.46875 L 27.359375 -18.46875 L 20.03125 -33.921875 Z M 13.515625 -18.46875 "></path></g></g></g><g fill="#000000" fill-opacity="1"><g transform="translate(47.071168, 56.339835)"><g><path d="M 45.1875 -0.75 C 45.3125 -0.75 45.375 -0.625 45.375 -0.375 C 45.375 -0.125 45.3125 0 45.1875 0 C 43.894531 0 42.875 -0.0195312 42.125 -0.0625 L 37.8125 -0.125 L 33.171875 -0.0625 C 32.460938 -0.0195312 31.484375 0 30.234375 0 C 30.109375 0 30.046875 -0.125 30.046875 -0.375 C 30.046875 -0.625 30.109375 -0.75 30.234375 -0.75 C 31.859375 -0.75 33.046875 -0.851562 33.796875 -1.0625 C 34.546875 -1.269531 35.054688 -1.675781 35.328125 -2.28125 C 35.597656 -2.882812 35.734375 -3.8125 35.734375 -5.0625 L 35.734375 -19.71875 L 11.703125 -19.71875 L 11.703125 -5.0625 C 11.703125 -3.8125 11.835938 -2.882812 12.109375 -2.28125 C 12.378906 -1.675781 12.890625 -1.269531 13.640625 -1.0625 C 14.390625 -0.851562 15.582031 -0.75 17.21875 -0.75 C 17.300781 -0.75 17.34375 -0.625 17.34375 -0.375 C 17.34375 -0.125 17.300781 0 17.21875 0 C 15.914062 0 14.890625 -0.0195312 14.140625 -0.0625 L 9.640625 -0.125 L 5.328125 -0.0625 C 4.566406 -0.0195312 3.519531 0 2.1875 0 C 2.101562 0 2.0625 -0.125 2.0625 -0.375 C 2.0625 -0.625 2.101562 -0.75 2.1875 -0.75 C 3.769531 -0.75 4.945312 -0.851562 5.71875 -1.0625 C 6.5 -1.269531 7.023438 -1.675781 7.296875 -2.28125 C 7.566406 -2.882812 7.703125 -3.8125 7.703125 -5.0625 L 7.703125 -34.046875 C 7.703125 -35.296875 7.566406 -36.210938 7.296875 -36.796875 C 7.023438 -37.390625 6.507812 -37.800781 5.75 -38.03125 C 5 -38.257812 3.832031 -38.375 2.25 -38.375 C 2.164062 -38.375 2.125 -38.5 2.125 -38.75 C 2.125 -39 2.164062 -39.125 2.25 -39.125 L 5.453125 -39.0625 C 7.203125 -38.976562 8.597656 -38.9375 9.640625 -38.9375 C 10.847656 -38.9375 12.367188 -38.976562 14.203125 -39.0625 L 17.21875 -39.125 C 17.300781 -39.125 17.34375 -39 17.34375 -38.75 C 17.34375 -38.5 17.300781 -38.375 17.21875 -38.375 C 15.625 -38.375 14.441406 -38.25 13.671875 -38 C 12.898438 -37.75 12.378906 -37.316406 12.109375 -36.703125 C 11.835938 -36.097656 11.703125 -35.171875 11.703125 -33.921875 L 11.703125 -21.03125 L 35.734375 -21.03125 L 35.734375 -33.921875 C 35.734375 -35.171875 35.597656 -36.097656 35.328125 -36.703125 C 35.054688 -37.316406 34.546875 -37.75 33.796875 -38 C 33.046875 -38.25 31.859375 -38.375 30.234375 -38.375 C 30.109375 -38.375 30.046875 -38.5 30.046875 -38.75 C 30.046875 -39 30.109375 -39.125 30.234375 -39.125 L 33.171875 -39.0625 C 35.003906 -38.976562 36.550781 -38.9375 37.8125 -38.9375 C 38.9375 -38.9375 40.375 -38.976562 42.125 -39.0625 L 45.1875 -39.125 C 45.3125 -39.125 45.375 -39 45.375 -38.75 C 45.375 -38.5 45.3125 -38.375 45.1875 -38.375 C 43.601562 -38.375 42.4375 -38.257812 41.6875 -38.03125 C 40.9375 -37.800781 40.425781 -37.390625 40.15625 -36.796875 C 39.882812 -36.210938 39.75 -35.296875 39.75 -34.046875 L 39.75 -5.0625 C 39.75 -3.8125 39.882812 -2.882812 40.15625 -2.28125 C 40.425781 -1.675781 40.9375 -1.269531 41.6875 -1.0625 C 42.4375 -0.851562 43.601562 -0.75 45.1875 -0.75 Z M 45.1875 -0.75 "></path></g></g></g><g fill="#000000" fill-opacity="1"><g transform="translate(94.554804, 56.339835)"><g><path d="M 40.5625 -0.75 C 40.644531 -0.75 40.6875 -0.625 40.6875 -0.375 C 40.6875 -0.125 40.644531 0 40.5625 0 L 32.671875 0 C 32.085938 0 31.578125 -0.15625 31.140625 -0.46875 C 30.703125 -0.78125 29.984375 -1.601562 28.984375 -2.9375 C 27.984375 -4.269531 26.1875 -6.796875 23.59375 -10.515625 C 21.550781 -13.429688 20.070312 -15.453125 19.15625 -16.578125 C 18.238281 -17.710938 17.296875 -18.519531 16.328125 -19 C 15.367188 -19.476562 14.078125 -19.71875 12.453125 -19.71875 C 12.078125 -19.71875 11.804688 -19.695312 11.640625 -19.65625 L 11.640625 -5.0625 C 11.640625 -3.8125 11.773438 -2.882812 12.046875 -2.28125 C 12.316406 -1.675781 12.816406 -1.269531 13.546875 -1.0625 C 14.273438 -0.851562 15.457031 -0.75 17.09375 -0.75 C 17.175781 -0.75 17.21875 -0.625 17.21875 -0.375 C 17.21875 -0.125 17.175781 0 17.09375 0 C 15.789062 0 14.765625 -0.0195312 14.015625 -0.0625 L 9.515625 -0.125 L 5.265625 -0.0625 C 4.503906 -0.0195312 3.457031 0 2.125 0 C 2.039062 0 2 -0.125 2 -0.375 C 2 -0.625 2.039062 -0.75 2.125 -0.75 C 3.707031 -0.75 4.875 -0.851562 5.625 -1.0625 C 6.382812 -1.269531 6.898438 -1.675781 7.171875 -2.28125 C 7.441406 -2.882812 7.578125 -3.8125 7.578125 -5.0625 L 7.578125 -34.046875 C 7.578125 -35.296875 7.441406 -36.210938 7.171875 -36.796875 C 6.898438 -37.390625 6.394531 -37.800781 5.65625 -38.03125 C 4.925781 -38.257812 3.769531 -38.375 2.1875 -38.375 C 2.101562 -38.375 2.0625 -38.5 2.0625 -38.75 C 2.0625 -39 2.101562 -39.125 2.1875 -39.125 L 5.265625 -39.0625 C 7.015625 -38.976562 8.429688 -38.9375 9.515625 -38.9375 C 10.722656 -38.9375 12.242188 -38.976562 14.078125 -39.0625 L 17.09375 -39.125 C 17.175781 -39.125 17.21875 -39 17.21875 -38.75 C 17.21875 -38.5 17.175781 -38.375 17.09375 -38.375 C 15.5 -38.375 14.328125 -38.25 13.578125 -38 C 12.828125 -37.75 12.316406 -37.316406 12.046875 -36.703125 C 11.773438 -36.097656 11.640625 -35.171875 11.640625 -33.921875 L 11.640625 -20.71875 C 13.890625 -20.800781 15.289062 -20.84375 15.84375 -20.84375 L 17.03125 -20.84375 L 24.59375 -31.421875 C 26.476562 -34.003906 27.421875 -35.800781 27.421875 -36.8125 C 27.421875 -37.351562 27.15625 -37.75 26.625 -38 C 26.101562 -38.25 25.300781 -38.375 24.21875 -38.375 C 24.132812 -38.375 24.09375 -38.5 24.09375 -38.75 C 24.09375 -39 24.132812 -39.125 24.21875 -39.125 L 26.921875 -39.0625 C 28.503906 -38.976562 29.984375 -38.9375 31.359375 -38.9375 C 32.773438 -38.9375 34.234375 -38.976562 35.734375 -39.0625 L 38 -39.125 C 38.125 -39.125 38.1875 -39 38.1875 -38.75 C 38.1875 -38.5 38.125 -38.375 38 -38.375 C 35.820312 -38.375 33.898438 -37.835938 32.234375 -36.765625 C 30.566406 -35.703125 28.773438 -33.898438 26.859375 -31.359375 L 18.46875 -20.65625 C 19.550781 -20.488281 20.488281 -20.113281 21.28125 -19.53125 C 22.070312 -18.945312 22.84375 -18.164062 23.59375 -17.1875 C 24.34375 -16.207031 25.660156 -14.398438 27.546875 -11.765625 C 29.503906 -9.015625 31.085938 -6.90625 32.296875 -5.4375 C 33.503906 -3.976562 34.773438 -2.84375 36.109375 -2.03125 C 37.453125 -1.21875 38.9375 -0.789062 40.5625 -0.75 Z M 40.5625 -0.75 "></path></g></g></g><g fill="#000000" fill-opacity="1"><g transform="translate(135.657232, 56.339835)"><g><path d="M 29.734375 -9.328125 C 29.734375 -9.410156 29.816406 -9.453125 29.984375 -9.453125 C 30.109375 -9.453125 30.222656 -9.429688 30.328125 -9.390625 C 30.429688 -9.347656 30.484375 -9.285156 30.484375 -9.203125 C 30.109375 -6.578125 29.921875 -3.820312 29.921875 -0.9375 C 29.921875 -0.601562 29.847656 -0.363281 29.703125 -0.21875 C 29.554688 -0.0703125 29.296875 0 28.921875 0 L 2.6875 0 C 2.601562 0 2.5625 -0.125 2.5625 -0.375 C 2.5625 -0.625 2.601562 -0.75 2.6875 -0.75 C 4.269531 -0.75 5.425781 -0.851562 6.15625 -1.0625 C 6.894531 -1.269531 7.398438 -1.675781 7.671875 -2.28125 C 7.941406 -2.882812 8.078125 -3.8125 8.078125 -5.0625 L 8.078125 -34.046875 C 8.078125 -35.296875 7.941406 -36.210938 7.671875 -36.796875 C 7.398438 -37.390625 6.894531 -37.800781 6.15625 -38.03125 C 5.425781 -38.257812 4.269531 -38.375 2.6875 -38.375 C 2.601562 -38.375 2.5625 -38.5 2.5625 -38.75 C 2.5625 -39 2.601562 -39.125 2.6875 -39.125 L 27.859375 -39.125 C 28.234375 -39.125 28.421875 -38.9375 28.421875 -38.5625 L 28.546875 -30.859375 C 28.546875 -30.734375 28.441406 -30.660156 28.234375 -30.640625 C 28.023438 -30.617188 27.898438 -30.671875 27.859375 -30.796875 C 27.734375 -33.003906 27.0625 -34.722656 25.84375 -35.953125 C 24.632812 -37.191406 23.03125 -37.8125 21.03125 -37.8125 L 17.21875 -37.8125 C 15.75 -37.8125 14.671875 -37.695312 13.984375 -37.46875 C 13.296875 -37.238281 12.816406 -36.835938 12.546875 -36.265625 C 12.273438 -35.703125 12.140625 -34.859375 12.140625 -33.734375 L 12.140625 -21.03125 L 19.78125 -21.03125 C 21.78125 -21.03125 23.207031 -21.363281 24.0625 -22.03125 C 24.914062 -22.695312 25.34375 -23.820312 25.34375 -25.40625 C 25.34375 -25.488281 25.46875 -25.53125 25.71875 -25.53125 C 25.976562 -25.53125 26.109375 -25.488281 26.109375 -25.40625 L 26.03125 -20.34375 C 26.03125 -19.132812 26.054688 -18.21875 26.109375 -17.59375 L 26.171875 -14.578125 C 26.171875 -14.492188 26.039062 -14.453125 25.78125 -14.453125 C 25.53125 -14.453125 25.40625 -14.492188 25.40625 -14.578125 C 25.40625 -16.421875 24.957031 -17.738281 24.0625 -18.53125 C 23.164062 -19.320312 21.675781 -19.71875 19.59375 -19.71875 L 12.140625 -19.71875 L 12.140625 -5.328125 C 12.140625 -4.148438 12.265625 -3.289062 12.515625 -2.75 C 12.765625 -2.207031 13.222656 -1.832031 13.890625 -1.625 C 14.554688 -1.414062 15.601562 -1.3125 17.03125 -1.3125 L 22.03125 -1.3125 C 24.03125 -1.3125 25.695312 -2.019531 27.03125 -3.4375 C 28.375 -4.863281 29.273438 -6.828125 29.734375 -9.328125 Z M 29.734375 -9.328125 "></path></g></g></g><g fill="#000000" fill-opacity="1"><g transform="translate(169.252387, 56.339835)"><g><path d="M 11.828125 -38 C 9.203125 -38 7.226562 -37.328125 5.90625 -35.984375 C 4.59375 -34.648438 3.644531 -32.378906 3.0625 -29.171875 C 3.0625 -29.085938 2.945312 -29.046875 2.71875 -29.046875 C 2.488281 -29.046875 2.375 -29.085938 2.375 -29.171875 C 2.539062 -30.671875 2.726562 -32.628906 2.9375 -35.046875 C 3.144531 -37.472656 3.25 -39.289062 3.25 -40.5 C 3.25 -40.707031 3.363281 -40.8125 3.59375 -40.8125 C 3.820312 -40.8125 3.9375 -40.707031 3.9375 -40.5 C 3.9375 -39.582031 5.066406 -39.125 7.328125 -39.125 C 10.867188 -39 15.0625 -38.9375 19.90625 -38.9375 C 22.363281 -38.9375 24.972656 -38.976562 27.734375 -39.0625 L 31.984375 -39.125 C 33.484375 -39.125 34.597656 -39.226562 35.328125 -39.4375 C 36.054688 -39.644531 36.53125 -40.0625 36.75 -40.6875 C 36.789062 -40.851562 36.914062 -40.9375 37.125 -40.9375 C 37.332031 -40.9375 37.4375 -40.851562 37.4375 -40.6875 C 37.3125 -39.476562 37.1875 -37.640625 37.0625 -35.171875 C 36.9375 -32.710938 36.875 -30.710938 36.875 -29.171875 C 36.875 -29.085938 36.742188 -29.046875 36.484375 -29.046875 C 36.234375 -29.046875 36.109375 -29.085938 36.109375 -29.171875 C 35.984375 -32.421875 35.316406 -34.703125 34.109375 -36.015625 C 32.898438 -37.335938 30.898438 -38 28.109375 -38 C 26.222656 -38 24.882812 -37.914062 24.09375 -37.75 C 23.300781 -37.582031 22.757812 -37.222656 22.46875 -36.671875 C 22.175781 -36.128906 22.03125 -35.210938 22.03125 -33.921875 L 22.03125 -5.0625 C 22.03125 -3.769531 22.175781 -2.832031 22.46875 -2.25 C 22.757812 -1.664062 23.320312 -1.269531 24.15625 -1.0625 C 24.988281 -0.851562 26.304688 -0.75 28.109375 -0.75 C 28.234375 -0.75 28.296875 -0.625 28.296875 -0.375 C 28.296875 -0.125 28.234375 0 28.109375 0 C 26.722656 0 25.613281 -0.0195312 24.78125 -0.0625 L 19.90625 -0.125 L 15.203125 -0.0625 C 14.367188 -0.0195312 13.222656 0 11.765625 0 C 11.679688 0 11.640625 -0.125 11.640625 -0.375 C 11.640625 -0.625 11.679688 -0.75 11.765625 -0.75 C 13.554688 -0.75 14.867188 -0.851562 15.703125 -1.0625 C 16.546875 -1.269531 17.125 -1.675781 17.4375 -2.28125 C 17.75 -2.882812 17.90625 -3.8125 17.90625 -5.0625 L 17.90625 -34.046875 C 17.90625 -35.335938 17.757812 -36.242188 17.46875 -36.765625 C 17.175781 -37.296875 16.628906 -37.632812 15.828125 -37.78125 C 15.035156 -37.925781 13.703125 -38 11.828125 -38 Z M 11.828125 -38 "></path></g></g></g><g fill="#000000" fill-opacity="1"><g transform="translate(204.534825, 56.339835)"><g><path d="M 43.75 -0.75 C 43.914062 -0.75 44 -0.625 44 -0.375 C 44 -0.125 43.914062 0 43.75 0 C 42.957031 0 41.726562 -0.0390625 40.0625 -0.125 C 38.394531 -0.207031 37.179688 -0.25 36.421875 -0.25 C 35.503906 -0.25 34.335938 -0.207031 32.921875 -0.125 C 31.585938 -0.0390625 30.566406 0 29.859375 0 C 29.691406 0 29.609375 -0.125 29.609375 -0.375 C 29.609375 -0.625 29.691406 -0.75 29.859375 -0.75 C 31.398438 -0.75 32.523438 -0.894531 33.234375 -1.1875 C 33.941406 -1.476562 34.296875 -1.976562 34.296875 -2.6875 C 34.296875 -3.269531 34.023438 -4.171875 33.484375 -5.390625 L 27.921875 -17.21875 L 13.015625 -17.21875 L 9.078125 -7.953125 C 8.492188 -6.535156 8.203125 -5.382812 8.203125 -4.5 C 8.203125 -3.207031 8.710938 -2.257812 9.734375 -1.65625 C 10.753906 -1.050781 12.285156 -0.75 14.328125 -0.75 C 14.535156 -0.75 14.640625 -0.625 14.640625 -0.375 C 14.640625 -0.125 14.535156 0 14.328125 0 C 13.578125 0 12.492188 -0.0390625 11.078125 -0.125 C 9.492188 -0.207031 8.117188 -0.25 6.953125 -0.25 C 5.867188 -0.25 4.613281 -0.207031 3.1875 -0.125 C 1.9375 -0.0390625 0.894531 0 0.0625 0 C -0.144531 0 -0.25 -0.125 -0.25 -0.375 C -0.25 -0.625 -0.144531 -0.75 0.0625 -0.75 C 1.226562 -0.75 2.21875 -0.96875 3.03125 -1.40625 C 3.84375 -1.84375 4.613281 -2.613281 5.34375 -3.71875 C 6.082031 -4.832031 6.890625 -6.429688 7.765625 -8.515625 L 20.96875 -39.6875 C 21.050781 -39.8125 21.195312 -39.875 21.40625 -39.875 C 21.613281 -39.875 21.738281 -39.8125 21.78125 -39.6875 L 36.5625 -8.578125 C 37.976562 -5.484375 39.1875 -3.40625 40.1875 -2.34375 C 41.1875 -1.28125 42.375 -0.75 43.75 -0.75 Z M 13.515625 -18.46875 L 27.359375 -18.46875 L 20.03125 -33.921875 Z M 13.515625 -18.46875 "></path></g></g></g><g fill="#000000" fill-opacity="1"><g transform="translate(248.452483, 56.339835)"><g><path d="M 6.203125 -16.90625 C 5.359375 -16.90625 4.6875 -17.15625 4.1875 -17.65625 C 3.6875 -18.15625 3.4375 -18.820312 3.4375 -19.65625 C 3.4375 -20.445312 3.6875 -21.070312 4.1875 -21.53125 C 4.6875 -21.988281 5.359375 -22.21875 6.203125 -22.21875 C 7.078125 -22.21875 7.753906 -21.988281 8.234375 -21.53125 C 8.710938 -21.070312 8.953125 -20.445312 8.953125 -19.65625 C 8.953125 -18.820312 8.710938 -18.15625 8.234375 -17.65625 C 7.753906 -17.15625 7.078125 -16.90625 6.203125 -16.90625 Z M 6.203125 0.6875 C 5.359375 0.6875 4.6875 0.4375 4.1875 -0.0625 C 3.6875 -0.5625 3.4375 -1.226562 3.4375 -2.0625 C 3.4375 -2.851562 3.6875 -3.476562 4.1875 -3.9375 C 4.6875 -4.394531 5.359375 -4.625 6.203125 -4.625 C 7.078125 -4.625 7.753906 -4.394531 8.234375 -3.9375 C 8.710938 -3.476562 8.953125 -2.851562 8.953125 -2.0625 C 8.953125 -1.226562 8.710938 -0.5625 8.234375 -0.0625 C 7.753906 0.4375 7.078125 0.6875 6.203125 0.6875 Z M 6.203125 0.6875 "></path></g></g></g></g></g></svg> 