<?xml version="1.0" encoding="UTF-8"?> <svg xmlns="http://www.w3.org/2000/svg" xmlns:xlink="http://www.w3.org/1999/xlink" width="360" zoomAndPan="magnify" viewBox="0 0 270 359.999987" height="480" preserveAspectRatio="xMidYMid meet" version="1.0"><defs><clipPath id="0c2cee9132"><path d="M 14.285156 74 L 256 74 L 256 285.625 L 14.285156 285.625 Z M 14.285156 74 " clip-rule="nonzero"></path></clipPath><clipPath id="afdcbf318a"><path d="M 23.855469 108.105469 C 4.28125 140.355469 18.070312 171.746094 35.402344 188.40625 L 136.738281 285.625 L 235.933594 188.753906 C 252.050781 170.832031 258.230469 151.820312 254.800781 130.652344 C 250.058594 101.367188 225.929688 78.648438 196.117188 75.40625 C 177.835938 73.4375 160.175781 78.613281 146.390625 90.066406 C 142.679688 93.148438 139.367188 96.59375 136.476562 100.339844 C 133.046875 96.074219 129.027344 92.171875 124.476562 88.71875 C 108.628906 76.671875 88.449219 71.886719 69.070312 75.605469 C 50.714844 79.152344 34.238281 90.992188 23.855469 108.105469 Z M 23.855469 108.105469 " clip-rule="nonzero"></path></clipPath><clipPath id="022a32c952"><path d="M 0.285156 0.160156 L 242 0.160156 L 242 211.625 L 0.285156 211.625 Z M 0.285156 0.160156 " clip-rule="nonzero"></path></clipPath><clipPath id="d667278d03"><path d="M 9.855469 34.105469 C -9.71875 66.355469 4.070312 97.746094 21.402344 114.40625 L 122.738281 211.625 L 221.933594 114.753906 C 238.050781 96.832031 244.230469 77.820312 240.800781 56.652344 C 236.058594 27.367188 211.929688 4.648438 182.117188 1.40625 C 163.835938 -0.5625 146.175781 4.613281 132.390625 16.066406 C 128.679688 19.148438 125.367188 22.59375 122.476562 26.339844 C 119.046875 22.074219 115.027344 18.171875 110.476562 14.71875 C 94.628906 2.671875 74.449219 -2.113281 55.070312 1.605469 C 36.714844 5.152344 20.238281 16.992188 9.855469 34.105469 Z M 9.855469 34.105469 " clip-rule="nonzero"></path></clipPath><clipPath id="7e935e702b"><rect x="0" width="242" y="0" height="212"></rect></clipPath></defs><g clip-path="url(#0c2cee9132)"><g clip-path="url(#afdcbf318a)"><g transform="matrix(1, 0, 0, 1, 14, 74)"><g clip-path="url(#7e935e702b)"><g clip-path="url(#022a32c952)"><g clip-path="url(#d667278d03)"><path fill="#5f0000" d="M 0.285156 0.375 L 242.070312 0.375 L 242.070312 211.625 L 0.285156 211.625 Z M 0.285156 0.375 " fill-opacity="1" fill-rule="nonzero"></path></g></g></g></g></g></g></svg> 