<?xml version="1.0" encoding="UTF-8"?> <svg xmlns="http://www.w3.org/2000/svg" xmlns:xlink="http://www.w3.org/1999/xlink" width="360" zoomAndPan="magnify" viewBox="0 0 270 359.999987" height="480" preserveAspectRatio="xMidYMid meet" version="1.0"><defs><clipPath id="c004b7638a"><path d="M 28.320312 71.695312 L 241.320312 71.695312 L 241.320312 251 L 28.320312 251 Z M 28.320312 71.695312 " clip-rule="nonzero"></path></clipPath><clipPath id="da730f5230"><path d="M 35.773438 136.105469 L 136.949219 136.105469 L 136.949219 288.433594 L 35.773438 288.433594 Z M 35.773438 136.105469 " clip-rule="nonzero"></path></clipPath><clipPath id="03d163d084"><path d="M 177.417969 202.292969 L 233.863281 202.292969 L 233.863281 288.433594 L 177.417969 288.433594 Z M 177.417969 202.292969 " clip-rule="nonzero"></path></clipPath></defs><path fill="#1e1e1e" d="M 54.171875 134.050781 C 53.785156 134.050781 53.390625 133.953125 53.03125 133.742188 C 51.941406 133.113281 51.570312 131.714844 52.203125 130.621094 C 62.65625 112.546875 78.980469 98.167969 98.160156 90.140625 C 99.320312 89.652344 100.65625 90.203125 101.140625 91.367188 C 101.628906 92.53125 101.078125 93.871094 99.917969 94.355469 C 81.648438 102.003906 66.105469 115.699219 56.148438 132.914062 C 55.722656 133.644531 54.957031 134.050781 54.171875 134.050781 " fill-opacity="1" fill-rule="nonzero"></path><path fill="#1e1e1e" d="M 154.132812 272.109375 C 153.078125 272.109375 152.128906 271.371094 151.90625 270.292969 C 151.644531 269.058594 152.433594 267.847656 153.667969 267.589844 C 164.609375 265.289062 174.929688 260.996094 184.347656 254.832031 C 185.402344 254.144531 186.8125 254.441406 187.5 255.496094 C 188.1875 256.554688 187.894531 257.96875 186.839844 258.660156 C 176.945312 265.136719 166.101562 269.644531 154.605469 272.0625 C 154.449219 272.09375 154.289062 272.109375 154.132812 272.109375 " fill-opacity="1" fill-rule="nonzero"></path><path fill="#1e1e1e" d="M 134.820312 274.101562 C 133.5625 274.101562 132.542969 273.078125 132.542969 271.816406 C 132.542969 270.554688 133.5625 269.53125 134.820312 269.53125 C 137.519531 269.53125 140.238281 269.414062 142.898438 269.183594 C 144.15625 269.054688 145.257812 270 145.367188 271.261719 C 145.476562 272.515625 144.546875 273.625 143.292969 273.734375 C 140.503906 273.976562 137.652344 274.101562 134.820312 274.101562 " fill-opacity="1" fill-rule="nonzero"></path><g clip-path="url(#c004b7638a)"><path fill="#1e1e1e" d="M 212.589844 250.28125 C 212.050781 250.28125 211.507812 250.089844 211.074219 249.699219 C 210.132812 248.859375 210.050781 247.414062 210.890625 246.472656 C 227.570312 227.742188 236.761719 203.585938 236.761719 178.453125 C 236.761719 122.109375 191.027344 76.269531 134.820312 76.269531 C 78.609375 76.269531 32.878906 122.109375 32.878906 178.453125 C 32.878906 203.585938 42.066406 227.742188 58.75 246.472656 C 59.585938 247.414062 59.503906 248.859375 58.566406 249.699219 C 57.625 250.539062 56.1875 250.457031 55.347656 249.515625 C 37.917969 229.945312 28.320312 204.710938 28.320312 178.453125 C 28.320312 119.589844 76.09375 71.699219 134.820312 71.699219 C 193.542969 71.699219 241.320312 119.589844 241.320312 178.453125 C 241.320312 204.710938 231.722656 229.945312 214.292969 249.515625 C 213.84375 250.023438 213.214844 250.28125 212.589844 250.28125 " fill-opacity="1" fill-rule="nonzero"></path></g><path fill="#1e1e1e" d="M 134.820312 285.203125 C 111.359375 285.203125 89.105469 277.703125 70.472656 263.519531 C 69.46875 262.753906 69.273438 261.320312 70.035156 260.320312 C 70.796875 259.3125 72.226562 259.117188 73.230469 259.878906 C 91.066406 273.457031 112.363281 280.632812 134.820312 280.632812 C 157.277344 280.632812 178.578125 273.453125 196.414062 259.878906 C 197.414062 259.113281 198.84375 259.3125 199.605469 260.316406 C 200.367188 261.320312 200.171875 262.753906 199.171875 263.519531 C 180.535156 277.703125 158.28125 285.203125 134.820312 285.203125 " fill-opacity="1" fill-rule="nonzero"></path><path fill="#1e1e1e" d="M 78.460938 214.015625 C 77.679688 214.015625 76.921875 213.609375 76.496094 212.886719 C 70.375 202.496094 67.140625 190.585938 67.140625 178.453125 C 67.140625 141.042969 97.5 110.613281 134.820312 110.613281 C 172.140625 110.613281 202.5 141.042969 202.5 178.453125 C 202.5 190.585938 199.265625 202.492188 193.148438 212.886719 C 192.507812 213.972656 191.109375 214.335938 190.023438 213.691406 C 188.9375 213.050781 188.582031 211.648438 189.21875 210.5625 C 194.925781 200.875 197.941406 189.769531 197.941406 178.453125 C 197.941406 143.5625 169.625 115.179688 134.820312 115.179688 C 100.015625 115.179688 71.699219 143.5625 71.699219 178.453125 C 71.699219 189.769531 74.714844 200.875 80.425781 210.566406 C 81.0625 211.652344 80.703125 213.054688 79.617188 213.695312 C 79.253906 213.910156 78.855469 214.015625 78.460938 214.015625 " fill-opacity="1" fill-rule="nonzero"></path><path fill="#1e1e1e" d="M 134.820312 246.289062 C 117.964844 246.289062 101.808594 240.042969 89.339844 228.691406 C 88.40625 227.839844 88.339844 226.398438 89.183594 225.464844 C 90.03125 224.527344 91.472656 224.460938 92.40625 225.304688 C 104.035156 235.890625 119.097656 241.71875 134.820312 241.71875 C 150.542969 241.71875 165.609375 235.890625 177.238281 225.304688 C 178.167969 224.457031 179.609375 224.527344 180.457031 225.460938 C 181.304688 226.394531 181.234375 227.839844 180.300781 228.691406 C 167.832031 240.042969 151.679688 246.289062 134.820312 246.289062 " fill-opacity="1" fill-rule="nonzero"></path><path fill="#1e1e1e" d="M 99.039062 176.726562 C 98.652344 176.726562 98.257812 176.628906 97.898438 176.421875 C 96.8125 175.789062 96.4375 174.390625 97.066406 173.300781 L 114.789062 142.53125 C 115.417969 141.4375 116.8125 141.0625 117.902344 141.695312 C 118.992188 142.328125 119.367188 143.722656 118.738281 144.816406 L 101.015625 175.582031 C 100.59375 176.316406 99.824219 176.726562 99.039062 176.726562 " fill-opacity="1" fill-rule="nonzero"></path><path fill="#1e1e1e" d="M 107.824219 181.8125 C 107.4375 181.8125 107.046875 181.714844 106.683594 181.507812 C 105.597656 180.875 105.222656 179.476562 105.851562 178.382812 L 123.574219 147.617188 C 124.203125 146.523438 125.597656 146.148438 126.6875 146.777344 C 127.78125 147.410156 128.152344 148.808594 127.523438 149.902344 L 109.800781 180.667969 C 109.378906 181.402344 108.613281 181.8125 107.824219 181.8125 " fill-opacity="1" fill-rule="nonzero"></path><g clip-path="url(#da730f5230)"><path fill="#1e1e1e" d="M 43.703125 288.429688 C 42.378906 288.429688 41.078125 288.074219 39.855469 287.363281 C 37.855469 286.207031 36.566406 284.40625 36.121094 282.15625 C 35.085938 276.898438 38.695312 268.867188 46.847656 258.28125 C 52.546875 250.878906 57.675781 243.234375 62.09375 235.5625 L 85.402344 195.097656 C 86.714844 192.824219 86.84375 190.058594 85.761719 187.511719 C 83.445312 182.046875 83.8125 175.96875 86.769531 170.835938 L 106.003906 137.445312 C 106.632812 136.355469 108.027344 135.980469 109.117188 136.613281 C 110.207031 137.242188 110.582031 138.640625 109.953125 139.734375 L 90.71875 173.121094 C 88.484375 177 88.207031 181.59375 89.960938 185.722656 C 91.605469 189.605469 91.386719 193.855469 89.355469 197.382812 L 66.046875 237.847656 C 61.523438 245.695312 56.28125 253.507812 50.457031 261.074219 C 43.453125 270.167969 39.859375 277.53125 40.597656 281.269531 C 40.785156 282.242188 41.261719 282.898438 42.136719 283.40625 C 43.007812 283.914062 43.816406 283.992188 44.75 283.675781 C 48.351562 282.441406 52.914062 275.644531 57.269531 265.015625 C 60.894531 256.175781 65.023438 247.71875 69.542969 239.875 L 92.847656 199.40625 C 94.882812 195.878906 98.441406 193.5625 102.617188 193.050781 C 107.0625 192.503906 110.890625 189.96875 113.128906 186.089844 L 132.359375 152.699219 C 132.988281 151.605469 134.382812 151.234375 135.472656 151.863281 C 136.5625 152.496094 136.9375 153.894531 136.308594 154.984375 L 117.074219 188.375 C 114.117188 193.507812 109.050781 196.867188 103.171875 197.585938 C 100.429688 197.921875 98.109375 199.417969 96.796875 201.691406 L 73.488281 242.160156 C 69.074219 249.828125 65.035156 258.101562 61.488281 266.753906 C 56.417969 279.121094 51.28125 286.269531 46.222656 288 C 45.382812 288.285156 44.539062 288.429688 43.703125 288.429688 " fill-opacity="1" fill-rule="nonzero"></path></g><g clip-path="url(#03d163d084)"><path fill="#1e1e1e" d="M 182.914062 210.035156 L 200.101562 239.875 C 204.617188 247.71875 208.746094 256.175781 212.371094 265.015625 C 217.207031 276.816406 222.28125 283.863281 225.945312 283.863281 C 226.464844 283.863281 226.972656 283.714844 227.503906 283.40625 C 228.378906 282.898438 228.851562 282.242188 229.046875 281.269531 C 229.78125 277.53125 226.1875 270.167969 219.183594 261.074219 C 213.359375 253.507812 208.117188 245.695312 203.59375 237.847656 L 186.410156 208.011719 Z M 225.945312 288.433594 C 220.035156 288.433594 214.050781 281.140625 208.152344 266.753906 C 204.605469 258.101562 200.570312 249.828125 196.148438 242.160156 L 177.824219 210.339844 C 177.195312 209.25 177.570312 207.851562 178.660156 207.21875 L 186.105469 202.910156 C 186.628906 202.609375 187.25 202.523438 187.835938 202.683594 C 188.417969 202.839844 188.917969 203.222656 189.21875 203.746094 L 207.542969 235.5625 C 211.964844 243.234375 217.09375 250.875 222.792969 258.28125 C 230.945312 268.867188 234.550781 276.898438 233.519531 282.15625 C 233.074219 284.40625 231.785156 286.207031 229.785156 287.363281 C 228.5625 288.074219 227.269531 288.433594 225.945312 288.433594 " fill-opacity="1" fill-rule="nonzero"></path></g><path fill="#1e1e1e" d="M 179.800781 211.484375 C 179.097656 211.484375 178.402344 211.15625 177.957031 210.542969 C 177.828125 210.367188 165.148438 192.871094 152.894531 174.636719 C 137.945312 152.386719 142.910156 132.390625 143.128906 131.550781 C 143.359375 130.652344 144.109375 129.988281 145.027344 129.863281 C 145.945312 129.742188 146.84375 130.179688 147.308594 130.984375 L 189.21875 203.746094 C 189.847656 204.839844 189.476562 206.238281 188.382812 206.867188 C 187.292969 207.5 185.898438 207.125 185.269531 206.03125 L 146.800781 139.246094 C 146.570312 146.503906 147.84375 158.9375 156.675781 172.082031 C 168.882812 190.25 181.519531 207.679688 181.644531 207.855469 C 182.382812 208.875 182.160156 210.304688 181.140625 211.046875 C 180.734375 211.34375 180.265625 211.484375 179.800781 211.484375 " fill-opacity="1" fill-rule="nonzero"></path></svg> 