<?xml version="1.0" encoding="UTF-8"?> <svg xmlns="http://www.w3.org/2000/svg" xmlns:xlink="http://www.w3.org/1999/xlink" width="360" zoomAndPan="magnify" viewBox="0 0 270 359.999987" height="480" preserveAspectRatio="xMidYMid meet" version="1.0"><defs><g></g><clipPath id="e0a6f73eb2"><rect x="0" width="270" y="0" height="144"></rect></clipPath></defs><g transform="matrix(1, 0, 0, 1, -0, 108)"><g clip-path="url(#e0a6f73eb2)"><g fill="#000000" fill-opacity="1"><g transform="translate(-2.022315, 108.921839)"><g><path d="M 2.96875 -72.09375 L 4.125 -72.09375 C 4.550781 -72.09375 5.085938 -72.304688 5.734375 -72.734375 C 6.378906 -73.171875 7.085938 -73.644531 7.859375 -74.15625 C 8.722656 -74.757812 9.734375 -75.445312 10.890625 -76.21875 C 12.054688 -76.988281 13.390625 -77.695312 14.890625 -78.34375 C 16.398438 -78.988281 18.097656 -79.523438 19.984375 -79.953125 C 21.878906 -80.390625 23.988281 -80.609375 26.3125 -80.609375 C 29.226562 -80.609375 32.0625 -80.195312 34.8125 -79.375 C 37.570312 -78.5625 40.023438 -77.316406 42.171875 -75.640625 C 44.316406 -73.960938 46.035156 -71.832031 47.328125 -69.25 C 48.617188 -66.675781 49.265625 -63.582031 49.265625 -59.96875 C 49.265625 -56.957031 48.75 -54.203125 47.71875 -51.703125 C 46.6875 -49.210938 45.289062 -46.894531 43.53125 -44.75 C 41.769531 -42.601562 39.789062 -40.5625 37.59375 -38.625 C 35.40625 -36.6875 33.148438 -34.773438 30.828125 -32.890625 C 28.585938 -31.078125 26.414062 -29.222656 24.3125 -27.328125 C 22.207031 -25.441406 20.316406 -23.46875 18.640625 -21.40625 C 16.960938 -19.34375 15.5625 -17.128906 14.4375 -14.765625 C 13.320312 -12.398438 12.679688 -9.882812 12.515625 -7.21875 L 39.328125 -7.21875 C 42.597656 -7.21875 45.175781 -7.796875 47.0625 -8.953125 C 48.957031 -10.117188 49.953125 -12.035156 50.046875 -14.703125 L 51.203125 -14.703125 L 51.203125 0 L 3.484375 0 C 3.484375 -3.863281 4.125 -7.453125 5.40625 -10.765625 C 6.695312 -14.078125 8.375 -17.128906 10.4375 -19.921875 C 12.507812 -22.710938 14.8125 -25.3125 17.34375 -27.71875 C 19.882812 -30.132812 22.398438 -32.457031 24.890625 -34.6875 C 26.953125 -36.5 28.953125 -38.304688 30.890625 -40.109375 C 32.828125 -41.910156 34.546875 -43.734375 36.046875 -45.578125 C 37.546875 -47.429688 38.75 -49.367188 39.65625 -51.390625 C 40.5625 -53.410156 41.015625 -55.539062 41.015625 -57.78125 C 41.015625 -60.613281 40.519531 -63.144531 39.53125 -65.375 C 38.539062 -67.613281 37.25 -69.507812 35.65625 -71.0625 C 34.070312 -72.613281 32.242188 -73.796875 30.171875 -74.609375 C 28.109375 -75.421875 26.046875 -75.828125 23.984375 -75.828125 C 19.597656 -75.828125 15.726562 -74.515625 12.375 -71.890625 C 9.019531 -69.273438 6.3125 -65.90625 4.25 -61.78125 L 2.96875 -61.78125 Z M 2.96875 -72.09375 "></path></g></g></g><g fill="#000000" fill-opacity="1"><g transform="translate(53.292053, 108.921839)"><g><path d="M 2.96875 -72.09375 L 4.125 -72.09375 C 4.550781 -72.09375 5.085938 -72.304688 5.734375 -72.734375 C 6.378906 -73.171875 7.085938 -73.644531 7.859375 -74.15625 C 8.722656 -74.757812 9.734375 -75.445312 10.890625 -76.21875 C 12.054688 -76.988281 13.390625 -77.695312 14.890625 -78.34375 C 16.398438 -78.988281 18.097656 -79.523438 19.984375 -79.953125 C 21.878906 -80.390625 23.988281 -80.609375 26.3125 -80.609375 C 29.226562 -80.609375 32.0625 -80.195312 34.8125 -79.375 C 37.570312 -78.5625 40.023438 -77.316406 42.171875 -75.640625 C 44.316406 -73.960938 46.035156 -71.832031 47.328125 -69.25 C 48.617188 -66.675781 49.265625 -63.582031 49.265625 -59.96875 C 49.265625 -56.957031 48.75 -54.203125 47.71875 -51.703125 C 46.6875 -49.210938 45.289062 -46.894531 43.53125 -44.75 C 41.769531 -42.601562 39.789062 -40.5625 37.59375 -38.625 C 35.40625 -36.6875 33.148438 -34.773438 30.828125 -32.890625 C 28.585938 -31.078125 26.414062 -29.222656 24.3125 -27.328125 C 22.207031 -25.441406 20.316406 -23.46875 18.640625 -21.40625 C 16.960938 -19.34375 15.5625 -17.128906 14.4375 -14.765625 C 13.320312 -12.398438 12.679688 -9.882812 12.515625 -7.21875 L 39.328125 -7.21875 C 42.597656 -7.21875 45.175781 -7.796875 47.0625 -8.953125 C 48.957031 -10.117188 49.953125 -12.035156 50.046875 -14.703125 L 51.203125 -14.703125 L 51.203125 0 L 3.484375 0 C 3.484375 -3.863281 4.125 -7.453125 5.40625 -10.765625 C 6.695312 -14.078125 8.375 -17.128906 10.4375 -19.921875 C 12.507812 -22.710938 14.8125 -25.3125 17.34375 -27.71875 C 19.882812 -30.132812 22.398438 -32.457031 24.890625 -34.6875 C 26.953125 -36.5 28.953125 -38.304688 30.890625 -40.109375 C 32.828125 -41.910156 34.546875 -43.734375 36.046875 -45.578125 C 37.546875 -47.429688 38.75 -49.367188 39.65625 -51.390625 C 40.5625 -53.410156 41.015625 -55.539062 41.015625 -57.78125 C 41.015625 -60.613281 40.519531 -63.144531 39.53125 -65.375 C 38.539062 -67.613281 37.25 -69.507812 35.65625 -71.0625 C 34.070312 -72.613281 32.242188 -73.796875 30.171875 -74.609375 C 28.109375 -75.421875 26.046875 -75.828125 23.984375 -75.828125 C 19.597656 -75.828125 15.726562 -74.515625 12.375 -71.890625 C 9.019531 -69.273438 6.3125 -65.90625 4.25 -61.78125 L 2.96875 -61.78125 Z M 2.96875 -72.09375 "></path></g></g></g><g fill="#000000" fill-opacity="1"><g transform="translate(108.606422, 108.921839)"><g><path d="M 6.703125 -43.71875 C 6.703125 -45.4375 7.28125 -46.894531 8.4375 -48.09375 C 9.601562 -49.300781 11.046875 -49.90625 12.765625 -49.90625 C 14.484375 -49.90625 15.941406 -49.300781 17.140625 -48.09375 C 18.347656 -46.894531 18.953125 -45.4375 18.953125 -43.71875 C 18.953125 -42 18.347656 -40.554688 17.140625 -39.390625 C 15.941406 -38.234375 14.484375 -37.65625 12.765625 -37.65625 C 11.046875 -37.65625 9.601562 -38.234375 8.4375 -39.390625 C 7.28125 -40.554688 6.703125 -42 6.703125 -43.71875 Z M 6.703125 -5.546875 C 6.703125 -7.265625 7.28125 -8.722656 8.4375 -9.921875 C 9.601562 -11.128906 11.046875 -11.734375 12.765625 -11.734375 C 14.484375 -11.734375 15.941406 -11.128906 17.140625 -9.921875 C 18.347656 -8.722656 18.953125 -7.265625 18.953125 -5.546875 C 18.953125 -3.828125 18.347656 -2.382812 17.140625 -1.21875 C 15.941406 -0.0625 14.484375 0.515625 12.765625 0.515625 C 11.046875 0.515625 9.601562 -0.0625 8.4375 -1.21875 C 7.28125 -2.382812 6.703125 -3.828125 6.703125 -5.546875 Z M 6.703125 -5.546875 "></path></g></g></g><g fill="#000000" fill-opacity="1"><g transform="translate(134.522954, 108.921839)"><g><path d="M 4.765625 -39.984375 C 4.765625 -46.597656 5.601562 -52.441406 7.28125 -57.515625 C 8.957031 -62.585938 11.171875 -66.820312 13.921875 -70.21875 C 16.679688 -73.613281 19.800781 -76.191406 23.28125 -77.953125 C 26.757812 -79.722656 30.304688 -80.609375 33.921875 -80.609375 C 37.523438 -80.609375 41.085938 -79.722656 44.609375 -77.953125 C 48.140625 -76.191406 51.257812 -73.613281 53.96875 -70.21875 C 56.675781 -66.820312 58.867188 -62.585938 60.546875 -57.515625 C 62.222656 -52.441406 63.0625 -46.597656 63.0625 -39.984375 C 63.0625 -33.273438 62.222656 -27.363281 60.546875 -22.25 C 58.867188 -17.132812 56.675781 -12.832031 53.96875 -9.34375 C 51.257812 -5.863281 48.140625 -3.21875 44.609375 -1.40625 C 41.085938 0.394531 37.523438 1.296875 33.921875 1.296875 C 30.304688 1.296875 26.757812 0.394531 23.28125 -1.40625 C 19.800781 -3.21875 16.679688 -5.863281 13.921875 -9.34375 C 11.171875 -12.832031 8.957031 -17.132812 7.28125 -22.25 C 5.601562 -27.363281 4.765625 -33.273438 4.765625 -39.984375 Z M 54.9375 -36.625 C 54.9375 -42.8125 54.25 -48.289062 52.875 -53.0625 C 51.5 -57.84375 49.710938 -61.84375 47.515625 -65.0625 C 45.328125 -68.289062 42.835938 -70.742188 40.046875 -72.421875 C 37.253906 -74.097656 34.394531 -74.9375 31.46875 -74.9375 C 28.539062 -74.9375 25.894531 -74.097656 23.53125 -72.421875 C 21.164062 -70.742188 19.164062 -68.523438 17.53125 -65.765625 C 15.90625 -63.015625 14.640625 -59.832031 13.734375 -56.21875 C 12.828125 -52.613281 12.375 -48.832031 12.375 -44.875 C 12.375 -40.144531 12.929688 -35.351562 14.046875 -30.5 C 15.171875 -25.644531 16.765625 -21.257812 18.828125 -17.34375 C 20.890625 -13.4375 23.359375 -10.234375 26.234375 -7.734375 C 29.117188 -5.242188 32.28125 -4 35.71875 -4 C 38.21875 -4 40.625 -4.707031 42.9375 -6.125 C 45.257812 -7.539062 47.300781 -9.625 49.0625 -12.375 C 50.832031 -15.132812 52.253906 -18.53125 53.328125 -22.5625 C 54.398438 -26.601562 54.9375 -31.289062 54.9375 -36.625 Z M 54.9375 -36.625 "></path></g></g></g><g fill="#000000" fill-opacity="1"><g transform="translate(203.246878, 108.921839)"><g><path d="M 4.765625 -39.984375 C 4.765625 -46.597656 5.601562 -52.441406 7.28125 -57.515625 C 8.957031 -62.585938 11.171875 -66.820312 13.921875 -70.21875 C 16.679688 -73.613281 19.800781 -76.191406 23.28125 -77.953125 C 26.757812 -79.722656 30.304688 -80.609375 33.921875 -80.609375 C 37.523438 -80.609375 41.085938 -79.722656 44.609375 -77.953125 C 48.140625 -76.191406 51.257812 -73.613281 53.96875 -70.21875 C 56.675781 -66.820312 58.867188 -62.585938 60.546875 -57.515625 C 62.222656 -52.441406 63.0625 -46.597656 63.0625 -39.984375 C 63.0625 -33.273438 62.222656 -27.363281 60.546875 -22.25 C 58.867188 -17.132812 56.675781 -12.832031 53.96875 -9.34375 C 51.257812 -5.863281 48.140625 -3.21875 44.609375 -1.40625 C 41.085938 0.394531 37.523438 1.296875 33.921875 1.296875 C 30.304688 1.296875 26.757812 0.394531 23.28125 -1.40625 C 19.800781 -3.21875 16.679688 -5.863281 13.921875 -9.34375 C 11.171875 -12.832031 8.957031 -17.132812 7.28125 -22.25 C 5.601562 -27.363281 4.765625 -33.273438 4.765625 -39.984375 Z M 54.9375 -36.625 C 54.9375 -42.8125 54.25 -48.289062 52.875 -53.0625 C 51.5 -57.84375 49.710938 -61.84375 47.515625 -65.0625 C 45.328125 -68.289062 42.835938 -70.742188 40.046875 -72.421875 C 37.253906 -74.097656 34.394531 -74.9375 31.46875 -74.9375 C 28.539062 -74.9375 25.894531 -74.097656 23.53125 -72.421875 C 21.164062 -70.742188 19.164062 -68.523438 17.53125 -65.765625 C 15.90625 -63.015625 14.640625 -59.832031 13.734375 -56.21875 C 12.828125 -52.613281 12.375 -48.832031 12.375 -44.875 C 12.375 -40.144531 12.929688 -35.351562 14.046875 -30.5 C 15.171875 -25.644531 16.765625 -21.257812 18.828125 -17.34375 C 20.890625 -13.4375 23.359375 -10.234375 26.234375 -7.734375 C 29.117188 -5.242188 32.28125 -4 35.71875 -4 C 38.21875 -4 40.625 -4.707031 42.9375 -6.125 C 45.257812 -7.539062 47.300781 -9.625 49.0625 -12.375 C 50.832031 -15.132812 52.253906 -18.53125 53.328125 -22.5625 C 54.398438 -26.601562 54.9375 -31.289062 54.9375 -36.625 Z M 54.9375 -36.625 "></path></g></g></g></g></g></svg> 