<?xml version="1.0" encoding="UTF-8"?> <svg xmlns="http://www.w3.org/2000/svg" xmlns:xlink="http://www.w3.org/1999/xlink" width="360" zoomAndPan="magnify" viewBox="0 0 270 359.999987" height="480" preserveAspectRatio="xMidYMid meet" version="1.0"><defs><g></g><clipPath id="a8e657ed95"><rect x="0" width="262" y="0" height="126"></rect></clipPath></defs><g transform="matrix(1, 0, 0, 1, 5, 117)"><g clip-path="url(#a8e657ed95)"><g fill="#ffffff" fill-opacity="1"><g transform="translate(5.471571, 79.014656)"><g><path d="M 98.3125 -60.203125 C 96.375 -59.972656 93.6875 -59.300781 90.25 -58.1875 C 86.582031 -57.0625 83.890625 -55.976562 82.171875 -54.9375 C 86.285156 -50.820312 88.34375 -45.363281 88.34375 -38.5625 C 88.34375 -28.625 84.082031 -19.617188 75.5625 -11.546875 C 66.363281 -2.953125 55.335938 1.34375 42.484375 1.34375 C 38.828125 1.34375 33.257812 0.410156 25.78125 -1.453125 C 17.707031 0.859375 11.054688 2.015625 5.828125 2.015625 C 0.441406 2.015625 -2.25 0.820312 -2.25 -1.5625 C -2.25 -2.914062 -1 -4.09375 1.5 -5.09375 C 4.007812 -6.101562 7.320312 -6.609375 11.4375 -6.609375 C 15.320312 -6.609375 21 -5.675781 28.46875 -3.8125 C 32.507812 -5.976562 40.359375 -15.242188 52.015625 -31.609375 C 58.816406 -41.109375 68.234375 -48.992188 80.265625 -55.265625 C 78.847656 -56.691406 76.609375 -58.039062 73.546875 -59.3125 C 69.429688 -60.945312 65.054688 -61.765625 60.421875 -61.765625 C 55.941406 -61.765625 52.207031 -61.359375 49.21875 -60.546875 C 51.90625 -58.453125 53.25 -54.972656 53.25 -50.109375 C 53.25 -40.691406 49.625 -32.285156 42.375 -24.890625 C 35.945312 -18.304688 29.816406 -15.015625 23.984375 -15.015625 C 18.234375 -15.015625 15.359375 -19.164062 15.359375 -27.46875 C 15.359375 -36.363281 19.804688 -44.359375 28.703125 -51.453125 C 35.503906 -56.765625 41.78125 -59.90625 47.53125 -60.875 C 45.507812 -62.519531 42.519531 -63.34375 38.5625 -63.34375 C 30.644531 -63.34375 23.019531 -59.625 15.6875 -52.1875 C 8.363281 -44.75 4.703125 -36.84375 4.703125 -28.46875 C 4.703125 -23.394531 5.972656 -19.175781 8.515625 -15.8125 C 8.515625 -15.207031 8.367188 -14.90625 8.078125 -14.90625 C 7.703125 -14.90625 7.4375 -15.09375 7.28125 -15.46875 C 4.894531 -19.351562 3.703125 -23.726562 3.703125 -28.59375 C 3.703125 -37.9375 7.472656 -46.269531 15.015625 -53.59375 C 22.265625 -60.613281 30.113281 -64.125 38.5625 -64.125 C 42.519531 -64.125 45.8125 -63.15625 48.4375 -61.21875 C 52.46875 -62.113281 56.460938 -62.5625 60.421875 -62.5625 C 65.503906 -62.5625 70.253906 -61.625 74.671875 -59.75 C 77.503906 -58.476562 79.707031 -57.132812 81.28125 -55.71875 C 87.257812 -58.78125 92.863281 -60.570312 98.09375 -61.09375 C 98.539062 -61.09375 98.765625 -60.945312 98.765625 -60.65625 C 98.765625 -60.351562 98.613281 -60.203125 98.3125 -60.203125 Z M 86.21875 -41.484375 C 86.21875 -47.085938 84.609375 -51.382812 81.390625 -54.375 C 77.503906 -52.28125 72.796875 -47.160156 67.265625 -39.015625 C 59.710938 -27.953125 55.453125 -21.859375 54.484375 -20.734375 C 47.535156 -12.742188 39.425781 -6.914062 30.15625 -3.25 C 38.375 -1.082031 43.789062 0 46.40625 0 C 52.6875 0 59.117188 -2.46875 65.703125 -7.40625 C 71.453125 -11.882812 76.304688 -17.429688 80.265625 -24.046875 C 84.234375 -30.660156 86.21875 -36.472656 86.21875 -41.484375 Z M 52.359375 -50.671875 C 52.359375 -55.160156 51.007812 -58.375 48.3125 -60.3125 C 41.59375 -58.894531 34.867188 -54.597656 28.140625 -47.421875 C 20.742188 -39.492188 17.046875 -31.570312 17.046875 -23.65625 C 17.046875 -21.5625 17.660156 -19.726562 18.890625 -18.15625 C 20.117188 -16.59375 21.78125 -15.8125 23.875 -15.8125 C 29.257812 -15.8125 35.351562 -19.828125 42.15625 -27.859375 C 48.957031 -35.890625 52.359375 -43.492188 52.359375 -50.671875 Z M 23.765625 -2.015625 C 16.960938 -3.960938 11.617188 -4.9375 7.734375 -4.9375 C 4.972656 -4.9375 2.785156 -4.578125 1.171875 -3.859375 C -0.429688 -3.148438 -1.234375 -2.347656 -1.234375 -1.453125 C -1.234375 0.265625 1.421875 1.125 6.734375 1.125 C 13.523438 1.125 19.203125 0.078125 23.765625 -2.015625 Z M 23.765625 -2.015625 "></path></g></g></g><g fill="#ffffff" fill-opacity="1"><g transform="translate(86.409691, 79.014656)"><g><path d="M 36.21875 -13.5625 C 32.925781 -9.375 29.578125 -6.007812 26.171875 -3.46875 C 22.773438 -0.925781 18.984375 1.015625 14.796875 2.359375 C 12.773438 5.117188 10.347656 8.367188 7.515625 12.109375 C 4.222656 16.515625 0.914062 20.117188 -2.40625 22.921875 C -5.738281 25.722656 -8.335938 27.125 -10.203125 27.125 C -12.066406 27.125 -13 26.117188 -13 24.109375 C -13 21.035156 -10.195312 17.109375 -4.59375 12.328125 C 0.707031 7.847656 5.863281 4.671875 10.875 2.796875 C 12.96875 -0.566406 15.394531 -4.226562 18.15625 -8.1875 C 13.226562 -2.726562 9.492188 0 6.953125 0 C 5.078125 0 4.140625 -1.15625 4.140625 -3.46875 C 4.140625 -6.457031 5.222656 -9.1875 7.390625 -11.65625 C 9.566406 -14.125 11.773438 -16.515625 14.015625 -18.828125 C 15.660156 -20.546875 16.484375 -21.96875 16.484375 -23.09375 C 16.484375 -23.988281 15.992188 -24.4375 15.015625 -24.4375 C 13.003906 -24.4375 9.304688 -20.8125 3.921875 -13.5625 L 3.25 -14.125 C 8.925781 -21.519531 12.890625 -25.21875 15.140625 -25.21875 C 17.453125 -25.21875 18.609375 -24.0625 18.609375 -21.75 C 18.609375 -19.351562 17.410156 -16.8125 15.015625 -14.125 C 14.347656 -13.375 12.070312 -10.984375 8.1875 -6.953125 C 6.394531 -5.078125 5.5 -3.582031 5.5 -2.46875 C 5.5 -1.34375 6.054688 -0.78125 7.171875 -0.78125 C 8.742188 -0.78125 11.0625 -2.238281 14.125 -5.15625 C 16.738281 -7.625 18.941406 -10.128906 20.734375 -12.671875 C 24.703125 -18.347656 27.65625 -22.382812 29.59375 -24.78125 L 34.3125 -24.78125 C 30.71875 -20.519531 24.4375 -11.882812 15.46875 1.125 C 18.976562 0.144531 22.378906 -1.609375 25.671875 -4.140625 C 29.410156 -6.984375 32.695312 -10.3125 35.53125 -14.125 Z M 10.203125 4.140625 C 5.421875 6.160156 0.640625 9.265625 -4.140625 13.453125 C -9.222656 17.941406 -11.765625 21.640625 -11.765625 24.546875 C -11.765625 25.597656 -11.242188 26.125 -10.203125 26.125 C -8.703125 26.125 -6.832031 25.148438 -4.59375 23.203125 C -1.007812 20.066406 3.921875 13.710938 10.203125 4.140625 Z M 10.203125 4.140625 "></path></g></g></g><g fill="#ffffff" fill-opacity="1"><g transform="translate(118.695275, 79.014656)"><g><path d="M 36.21875 -13.5625 C 32.925781 -9.375 29.578125 -6.007812 26.171875 -3.46875 C 22.773438 -0.925781 18.984375 1.015625 14.796875 2.359375 C 12.773438 5.117188 10.347656 8.367188 7.515625 12.109375 C 4.222656 16.515625 0.914062 20.117188 -2.40625 22.921875 C -5.738281 25.722656 -8.335938 27.125 -10.203125 27.125 C -12.066406 27.125 -13 26.117188 -13 24.109375 C -13 21.035156 -10.195312 17.109375 -4.59375 12.328125 C 0.707031 7.847656 5.863281 4.671875 10.875 2.796875 C 12.96875 -0.566406 15.394531 -4.226562 18.15625 -8.1875 C 13.226562 -2.726562 9.492188 0 6.953125 0 C 5.078125 0 4.140625 -1.15625 4.140625 -3.46875 C 4.140625 -6.457031 5.222656 -9.1875 7.390625 -11.65625 C 9.566406 -14.125 11.773438 -16.515625 14.015625 -18.828125 C 15.660156 -20.546875 16.484375 -21.96875 16.484375 -23.09375 C 16.484375 -23.988281 15.992188 -24.4375 15.015625 -24.4375 C 13.003906 -24.4375 9.304688 -20.8125 3.921875 -13.5625 L 3.25 -14.125 C 8.925781 -21.519531 12.890625 -25.21875 15.140625 -25.21875 C 17.453125 -25.21875 18.609375 -24.0625 18.609375 -21.75 C 18.609375 -19.351562 17.410156 -16.8125 15.015625 -14.125 C 14.347656 -13.375 12.070312 -10.984375 8.1875 -6.953125 C 6.394531 -5.078125 5.5 -3.582031 5.5 -2.46875 C 5.5 -1.34375 6.054688 -0.78125 7.171875 -0.78125 C 8.742188 -0.78125 11.0625 -2.238281 14.125 -5.15625 C 16.738281 -7.625 18.941406 -10.128906 20.734375 -12.671875 C 24.703125 -18.347656 27.65625 -22.382812 29.59375 -24.78125 L 34.3125 -24.78125 C 30.71875 -20.519531 24.4375 -11.882812 15.46875 1.125 C 18.976562 0.144531 22.378906 -1.609375 25.671875 -4.140625 C 29.410156 -6.984375 32.695312 -10.3125 35.53125 -14.125 Z M 10.203125 4.140625 C 5.421875 6.160156 0.640625 9.265625 -4.140625 13.453125 C -9.222656 17.941406 -11.765625 21.640625 -11.765625 24.546875 C -11.765625 25.597656 -11.242188 26.125 -10.203125 26.125 C -8.703125 26.125 -6.832031 25.148438 -4.59375 23.203125 C -1.007812 20.066406 3.921875 13.710938 10.203125 4.140625 Z M 10.203125 4.140625 "></path></g></g></g><g fill="#ffffff" fill-opacity="1"><g transform="translate(150.980858, 79.014656)"><g><path d="M 20.515625 -16.8125 C 19.171875 -15.46875 17.785156 -14.03125 16.359375 -12.5 C 14.941406 -10.96875 13.523438 -9.492188 12.109375 -8.078125 C 10.460938 -6.429688 9.113281 -5.082031 8.0625 -4.03125 C 7.019531 -2.988281 6.160156 -2.1875 5.484375 -1.625 C 4.816406 -1.0625 4.273438 -0.664062 3.859375 -0.4375 C 3.453125 -0.21875 3.0625 -0.109375 2.6875 -0.109375 C 0.96875 -0.109375 -0.164062 -0.664062 -0.71875 -1.78125 C -1.28125 -2.90625 -1.488281 -4.195312 -1.34375 -5.65625 C -1.195312 -7.113281 -0.804688 -8.535156 -0.171875 -9.921875 C 0.460938 -11.304688 1.117188 -12.332031 1.796875 -13 C 2.910156 -14.125 3.785156 -14.757812 4.421875 -14.90625 C 5.054688 -15.0625 5.484375 -14.96875 5.703125 -14.625 C 5.929688 -14.289062 5.894531 -13.820312 5.59375 -13.21875 C 5.300781 -12.625 4.78125 -12.101562 4.03125 -11.65625 C 2.914062 -10.757812 1.984375 -9.65625 1.234375 -8.34375 C 0.484375 -7.039062 0 -5.8125 -0.21875 -4.65625 C -0.445312 -3.5 -0.375 -2.523438 0 -1.734375 C 0.375 -0.953125 1.082031 -0.632812 2.125 -0.78125 C 2.65625 -0.851562 3.570312 -1.46875 4.875 -2.625 C 6.1875 -3.789062 7.703125 -5.210938 9.421875 -6.890625 C 11.140625 -8.578125 12.96875 -10.410156 14.90625 -12.390625 C 16.851562 -14.367188 18.6875 -16.21875 20.40625 -17.9375 C 22.195312 -19.800781 23.96875 -21.347656 25.71875 -22.578125 C 27.476562 -23.816406 28.847656 -24.515625 29.828125 -24.671875 C 29.671875 -24.296875 29.59375 -24.125 29.59375 -24.15625 C 29.59375 -24.195312 29.609375 -24.269531 29.640625 -24.375 C 29.679688 -24.488281 29.679688 -24.566406 29.640625 -24.609375 C 29.609375 -24.648438 29.554688 -24.484375 29.484375 -24.109375 C 27.992188 -23.054688 26.476562 -21.953125 24.9375 -20.796875 C 23.40625 -19.640625 21.929688 -18.3125 20.515625 -16.8125 Z M 34.421875 -13.5625 C 27.097656 -4.519531 21.863281 0 18.71875 0 C 17 0 16.140625 -1.082031 16.140625 -3.25 C 16.140625 -6.613281 17.597656 -10.085938 20.515625 -13.671875 L 29.703125 -24.546875 C 30.003906 -24.472656 30.679688 -24.4375 31.734375 -24.4375 C 32.847656 -24.4375 33.664062 -24.550781 34.1875 -24.78125 C 28.957031 -18.800781 24.101562 -12.820312 19.625 -6.84375 C 18.125 -4.820312 17.375 -3.328125 17.375 -2.359375 C 17.375 -1.304688 17.898438 -0.78125 18.953125 -0.78125 C 21.859375 -0.78125 26.789062 -5.226562 33.75 -14.125 Z M 34.421875 -13.5625 "></path></g></g></g><g fill="#ffffff" fill-opacity="1"><g transform="translate(181.921186, 79.014656)"><g><path d="M 31.28125 -13.5625 C 24.550781 -4.519531 19.503906 0 16.140625 0 C 14.203125 0 13.234375 -1.15625 13.234375 -3.46875 C 13.234375 -4.96875 13.53125 -6.390625 14.125 -7.734375 C 12.707031 -6.316406 11.285156 -4.894531 9.859375 -3.46875 C 7.242188 -1.15625 5.113281 0 3.46875 0 C 1.15625 0 0 -1.457031 0 -4.375 C -0.0703125 -9.53125 2.503906 -14.390625 7.734375 -18.953125 C 12.441406 -23.128906 16.925781 -25.21875 21.1875 -25.21875 C 23.050781 -25.21875 23.984375 -24.132812 23.984375 -21.96875 L 26.125 -24.78125 C 26.71875 -24.550781 27.425781 -24.4375 28.25 -24.4375 C 29.144531 -24.4375 29.96875 -24.550781 30.71875 -24.78125 C 27.800781 -21.34375 22.832031 -14.875 15.8125 -5.375 C 15.0625 -4.40625 14.6875 -3.398438 14.6875 -2.359375 C 14.6875 -1.304688 15.25 -0.78125 16.375 -0.78125 C 19.4375 -0.78125 24.179688 -5.226562 30.609375 -14.125 Z M 23.203125 -22.53125 C 23.203125 -23.800781 22.566406 -24.4375 21.296875 -24.4375 C 18.679688 -24.4375 14.757812 -21.613281 9.53125 -15.96875 C 4.300781 -10.332031 1.6875 -5.90625 1.6875 -2.6875 C 1.757812 -1.488281 2.394531 -0.890625 3.59375 -0.890625 C 5.976562 -0.890625 9.378906 -3.546875 13.796875 -8.859375 C 17.378906 -13.191406 19.914062 -16.367188 21.40625 -18.390625 C 22.601562 -20.035156 23.203125 -21.414062 23.203125 -22.53125 Z M 23.203125 -22.53125 "></path></g></g></g><g fill="#ffffff" fill-opacity="1"><g transform="translate(209.16214, 79.014656)"><g><path d="M 49.21875 -13.5625 C 42.269531 -4.519531 37.078125 0 33.640625 0 C 31.691406 0 30.71875 -1.15625 30.71875 -3.46875 C 30.71875 -6.382812 31.875 -9.148438 34.1875 -11.765625 C 36.132812 -13.929688 38.304688 -16.285156 40.703125 -18.828125 C 42.421875 -20.628906 43.28125 -22.015625 43.28125 -22.984375 C 43.28125 -23.878906 42.789062 -24.328125 41.8125 -24.328125 C 38.894531 -24.328125 34.972656 -21.300781 30.046875 -15.25 C 27.578125 -12.257812 23.726562 -7.328125 18.5 -0.453125 C 18.050781 -0.671875 17.378906 -0.78125 16.484375 -0.78125 C 15.359375 -0.78125 14.382812 -0.671875 13.5625 -0.453125 C 16.03125 -3.585938 19.429688 -7.921875 23.765625 -13.453125 C 27.878906 -18.679688 29.9375 -21.820312 29.9375 -22.875 C 29.9375 -23.914062 29.445312 -24.4375 28.46875 -24.4375 C 25.707031 -24.4375 21.820312 -21.375 16.8125 -15.25 C 13.082031 -10.613281 9.085938 -5.679688 4.828125 -0.453125 C 4.367188 -0.671875 3.769531 -0.78125 3.03125 -0.78125 C 1.90625 -0.78125 0.894531 -0.671875 0 -0.453125 C 2.613281 -3.660156 6.164062 -8.066406 10.65625 -13.671875 C 14.539062 -18.535156 16.484375 -21.640625 16.484375 -22.984375 C 16.484375 -23.953125 15.992188 -24.4375 15.015625 -24.4375 C 13.378906 -24.4375 9.679688 -20.8125 3.921875 -13.5625 L 3.25 -14.125 C 6.3125 -17.9375 8.332031 -20.40625 9.3125 -21.53125 C 11.695312 -23.988281 13.640625 -25.21875 15.140625 -25.21875 C 17.003906 -25.21875 17.9375 -24.023438 17.9375 -21.640625 C 17.9375 -19.921875 17.488281 -18.238281 16.59375 -16.59375 C 21.976562 -22.34375 25.9375 -25.21875 28.46875 -25.21875 C 30.414062 -25.21875 31.390625 -24.023438 31.390625 -21.640625 C 31.390625 -20.066406 30.90625 -18.382812 29.9375 -16.59375 C 34.9375 -22.34375 38.894531 -25.21875 41.8125 -25.21875 C 44.0625 -25.21875 45.1875 -24.097656 45.1875 -21.859375 C 45.1875 -19.472656 44.023438 -16.894531 41.703125 -14.125 C 41.328125 -13.675781 39.046875 -11.285156 34.859375 -6.953125 C 33.066406 -5.078125 32.171875 -3.546875 32.171875 -2.359375 C 32.171875 -1.304688 32.695312 -0.78125 33.75 -0.78125 C 36.882812 -0.78125 41.816406 -5.226562 48.546875 -14.125 Z M 49.21875 -13.5625 "></path></g></g></g></g></g></svg> 