<?xml version="1.0" encoding="UTF-8"?> <svg xmlns="http://www.w3.org/2000/svg" xmlns:xlink="http://www.w3.org/1999/xlink" width="360" zoomAndPan="magnify" viewBox="0 0 270 359.999987" height="480" preserveAspectRatio="xMidYMid meet" version="1.0"><path fill="#5f0000" d="M 205.570312 148.8125 C 172.445312 119.199219 138.9375 104.296875 129.257812 114.929688 L 105.242188 138.941406 C 103.535156 140.839844 102.773438 143.308594 102.773438 146.441406 C 102.773438 149.574219 103.722656 153.558594 105.429688 157.925781 C 101.445312 157.925781 97.363281 158.117188 93.28125 158.304688 C 72.210938 159.539062 52.5625 163.242188 37.851562 168.746094 C 22.949219 174.441406 14.976562 181.371094 15.257812 188.394531 L 15.257812 221.425781 C 15.449219 224.9375 17.726562 228.164062 21.902344 231.109375 C 26.082031 233.957031 32.15625 236.519531 39.9375 238.511719 C 51.613281 241.453125 66.230469 242.972656 81.890625 242.972656 C 97.554688 242.972656 91.289062 242.878906 96.128906 242.59375 C 125.460938 240.882812 151.75 234.335938 165.136719 225.414062 C 206.328125 255.691406 220.28125 249.046875 223.984375 244.964844 L 247.902344 221.046875 C 249.613281 219.148438 250.464844 216.585938 250.464844 213.453125 C 250.464844 199.121094 233 173.300781 205.664062 148.910156 L 205.570312 148.910156 Z M 38.417969 170.457031 C 52.941406 165.042969 72.398438 161.4375 93.28125 160.203125 C 97.648438 159.917969 101.917969 159.824219 106.097656 159.824219 C 106.097656 160.015625 106.285156 160.300781 106.378906 160.488281 C 106.570312 160.773438 106.664062 161.152344 106.855469 161.4375 C 107.046875 161.722656 107.140625 162.101562 107.328125 162.386719 C 107.519531 162.671875 107.613281 163.050781 107.804688 163.335938 C 107.996094 163.621094 108.183594 164 108.375 164.285156 C 108.5625 164.570312 108.753906 164.949219 108.945312 165.234375 C 109.132812 165.613281 109.324219 165.898438 109.511719 166.277344 C 109.703125 166.660156 109.894531 166.941406 110.082031 167.324219 C 110.273438 167.703125 110.460938 167.988281 110.652344 168.367188 C 110.84375 168.746094 111.03125 169.03125 111.316406 169.410156 C 111.507812 169.789062 111.792969 170.074219 111.980469 170.457031 C 112.171875 170.835938 112.457031 171.121094 112.644531 171.5 C 112.835938 171.878906 113.121094 172.257812 113.308594 172.542969 C 113.5 172.921875 113.785156 173.207031 113.972656 173.585938 C 114.257812 173.96875 114.449219 174.347656 114.734375 174.726562 C 115.019531 175.105469 115.207031 175.390625 115.492188 175.769531 C 115.777344 176.148438 116.0625 176.53125 116.253906 176.910156 C 116.535156 177.289062 116.726562 177.574219 117.011719 177.953125 C 117.296875 178.332031 117.582031 178.714844 117.867188 179.09375 C 118.152344 179.472656 118.433594 179.851562 118.625 180.136719 C 118.910156 180.515625 119.195312 180.894531 119.480469 181.277344 C 119.765625 181.65625 120.050781 182.035156 120.332031 182.320312 C 120.617188 182.699219 121 183.078125 121.28125 183.457031 C 121.566406 183.839844 121.851562 184.21875 122.136719 184.503906 C 122.421875 184.882812 122.800781 185.261719 123.085938 185.738281 C 123.371094 186.117188 123.65625 186.402344 123.941406 186.78125 C 124.320312 187.160156 124.699219 187.636719 124.984375 188.109375 C 125.269531 188.394531 125.554688 188.773438 125.839844 189.058594 C 126.21875 189.535156 126.691406 190.007812 127.074219 190.484375 C 127.359375 190.765625 127.546875 191.050781 127.832031 191.335938 C 127.832031 191.527344 128.117188 191.621094 128.210938 191.8125 C 117.296875 190.765625 105.242188 190.578125 93.09375 191.242188 C 71.167969 192.476562 50.949219 196.367188 36.140625 202.253906 C 24.085938 198.644531 17.253906 193.613281 16.96875 188.203125 C 16.589844 182.128906 24.464844 175.675781 38.324219 170.457031 Z M 130.394531 194.089844 C 130.964844 194.660156 131.535156 195.324219 132.007812 195.894531 L 132.671875 196.558594 C 133.148438 197.03125 133.527344 197.507812 134 197.980469 C 134.476562 198.457031 134.570312 198.550781 134.761719 198.835938 L 136.847656 200.921875 C 137.132812 201.207031 137.230469 201.304688 137.417969 201.492188 C 125.175781 204.625 110.9375 206.808594 96.128906 207.566406 C 74.867188 208.800781 54.367188 207.1875 39.464844 203.296875 C 53.703125 198.078125 73.160156 194.46875 93.472656 193.332031 C 106.285156 192.570312 119.101562 192.855469 130.394531 194.089844 Z M 96.320312 240.597656 L 96.128906 240.597656 C 75.246094 241.738281 55.503906 240.316406 40.507812 236.613281 C 26.082031 233.007812 17.539062 227.40625 17.253906 221.425781 L 17.253906 193.613281 C 20.195312 197.886719 26.648438 201.492188 36.238281 204.339844 C 42.3125 206.144531 49.429688 207.566406 57.214844 208.421875 C 64.996094 209.371094 73.445312 209.847656 82.175781 209.847656 C 99.738281 209.847656 91.574219 209.847656 96.320312 209.464844 C 111.695312 208.613281 126.503906 206.335938 139.128906 203.011719 C 141.878906 205.667969 144.726562 208.421875 147.765625 211.078125 C 152.984375 215.730469 158.394531 220.191406 163.804688 224.179688 C 150.515625 232.722656 124.890625 238.984375 96.320312 240.597656 Z M 222.75 243.542969 L 222.65625 243.542969 C 215.726562 251.421875 192.375 243.066406 165.800781 223.417969 C 160.105469 219.148438 154.410156 214.496094 148.808594 209.5625 C 145.675781 206.808594 142.734375 203.960938 139.886719 201.207031 C 136.945312 198.265625 134.097656 195.324219 131.4375 192.476562 C 130.015625 190.957031 128.6875 189.4375 127.359375 187.921875 C 124.890625 185.074219 122.613281 182.226562 120.523438 179.472656 C 120.238281 178.996094 119.859375 178.617188 119.574219 178.144531 C 114.257812 171.023438 110.175781 164.285156 107.613281 158.402344 C 105.527344 153.65625 104.578125 149.667969 104.578125 146.347656 C 104.578125 143.023438 105.242188 141.601562 106.570312 140.175781 L 126.882812 119.863281 C 125.933594 125.273438 128.117188 132.867188 133.242188 142.074219 C 137.132812 148.910156 142.355469 156.3125 148.902344 164 C 149.664062 164.949219 150.515625 165.898438 151.371094 166.847656 C 157.160156 173.398438 163.519531 179.851562 170.546875 186.210938 L 171.496094 187.066406 C 171.683594 187.253906 171.96875 187.445312 172.160156 187.730469 L 172.539062 188.015625 C 188.199219 201.777344 204.527344 212.882812 218.574219 219.148438 C 226.453125 222.660156 233.191406 224.464844 238.410156 224.464844 C 243.632812 224.464844 241.164062 224.464844 241.734375 224.464844 Z M 167.792969 169.980469 C 163.710938 167.132812 157.824219 164.664062 150.328125 162.765625 C 144.824219 156.21875 140.171875 149.859375 136.566406 143.972656 C 150.136719 150.523438 165.609375 161.152344 180.417969 174.441406 C 195.792969 188.109375 208.796875 203.203125 216.675781 216.300781 C 203.480469 210.035156 188.578125 199.691406 174.152344 187.066406 L 174.152344 180.421875 C 174.246094 180.421875 174.152344 180.136719 174.152344 180.136719 L 174.152344 179.472656 C 173.960938 175.960938 171.777344 172.828125 167.699219 169.980469 Z M 172.347656 179.566406 L 172.347656 180.136719 C 172.347656 181.464844 171.875 182.792969 171.113281 184.125 C 170.640625 183.648438 170.164062 183.269531 169.691406 182.792969 C 169.214844 182.320312 169.121094 182.226562 168.835938 182.035156 C 167.03125 180.328125 165.230469 178.617188 163.519531 176.910156 L 160.957031 174.347656 C 160.671875 173.96875 160.292969 173.683594 160.007812 173.300781 C 159.535156 172.734375 158.964844 172.257812 158.492188 171.6875 L 157.445312 170.644531 C 156.972656 170.171875 156.496094 169.601562 156.023438 169.125 C 155.738281 168.746094 155.359375 168.460938 155.074219 168.082031 C 154.597656 167.511719 154.125 166.941406 153.554688 166.46875 C 153.269531 166.183594 152.984375 165.804688 152.699219 165.519531 C 152.699219 165.519531 152.699219 165.519531 152.511719 165.328125 C 164.753906 168.9375 171.96875 174.0625 172.347656 179.566406 Z M 246.667969 219.621094 L 246.097656 220.191406 C 241.828125 224.082031 232.429688 223.039062 219.710938 217.4375 C 211.929688 203.675781 198.070312 187.445312 181.652344 172.828125 C 165.800781 158.683594 149.1875 147.390625 134.855469 140.9375 C 128.308594 129.261719 126.882812 120.433594 130.585938 116.257812 C 132.292969 114.359375 135.046875 113.410156 138.558594 113.410156 C 152.605469 113.410156 179.183594 127.835938 204.335938 150.238281 C 235.753906 178.238281 255.023438 209.941406 246.574219 219.621094 Z M 246.667969 219.621094 " fill-opacity="1" fill-rule="nonzero"></path><path fill="#5f0000" d="M 81.226562 227.40625 C 48.386719 228.925781 29.117188 218.386719 28.929688 218.292969 C 28.453125 218.007812 27.882812 218.292969 27.597656 218.671875 C 27.3125 219.148438 27.597656 219.71875 27.980469 220.003906 C 28.167969 220.003906 33.007812 222.753906 42.027344 225.316406 C 49.242188 227.3125 60.441406 229.492188 74.679688 229.492188 C 88.914062 229.492188 79.042969 229.492188 81.324219 229.304688 C 81.890625 229.304688 82.273438 228.828125 82.273438 228.355469 C 82.273438 227.878906 81.796875 227.40625 81.324219 227.40625 C 81.324219 227.40625 81.324219 227.40625 81.226562 227.40625 Z M 81.226562 227.40625 " fill-opacity="1" fill-rule="nonzero"></path><path fill="#5f0000" d="M 37.46875 188.871094 C 37.660156 188.871094 37.945312 188.871094 38.039062 188.679688 C 38.136719 188.679688 50.757812 178.238281 72.019531 179.945312 C 72.589844 179.945312 72.96875 179.566406 73.066406 179.09375 C 73.066406 178.523438 72.683594 178.144531 72.210938 178.046875 C 50.191406 176.246094 37.46875 186.78125 36.902344 187.253906 C 36.519531 187.636719 36.425781 188.203125 36.804688 188.585938 C 36.996094 188.773438 37.28125 188.964844 37.566406 188.964844 Z M 37.46875 188.871094 " fill-opacity="1" fill-rule="nonzero"></path><path fill="#5f0000" d="M 241.164062 216.585938 C 241.164062 217.058594 241.636719 217.4375 242.113281 217.4375 C 242.585938 217.4375 242.113281 217.4375 242.207031 217.4375 C 242.683594 217.4375 243.0625 216.871094 243.0625 216.394531 C 243.0625 215.921875 241.070312 199.308594 223.890625 185.355469 C 223.507812 185.074219 222.84375 185.074219 222.558594 185.355469 C 222.273438 185.738281 222.273438 186.402344 222.65625 186.6875 C 239.171875 200.164062 241.164062 216.300781 241.164062 216.492188 Z M 241.164062 216.585938 " fill-opacity="1" fill-rule="nonzero"></path><path fill="#5f0000" d="M 113.308594 143.59375 C 113.308594 143.023438 112.835938 142.644531 112.265625 142.738281 C 111.695312 142.738281 111.316406 143.214844 111.410156 143.6875 C 111.410156 144.351562 112.457031 160.300781 128.308594 173.777344 C 128.496094 173.96875 128.6875 173.96875 128.875 173.96875 C 129.066406 173.96875 129.445312 173.96875 129.636719 173.585938 C 130.015625 173.207031 129.921875 172.542969 129.636719 172.257812 C 114.355469 159.351562 113.40625 143.6875 113.40625 143.5 L 113.308594 143.5 Z M 113.308594 143.59375 " fill-opacity="1" fill-rule="nonzero"></path></svg> 