<?xml version="1.0" encoding="UTF-8"?> <svg xmlns="http://www.w3.org/2000/svg" xmlns:xlink="http://www.w3.org/1999/xlink" width="360" zoomAndPan="magnify" viewBox="0 0 270 359.999987" height="480" preserveAspectRatio="xMidYMid meet" version="1.0"><defs><g></g><clipPath id="e233c66394"><rect x="0" width="260" y="0" height="50"></rect></clipPath></defs><g transform="matrix(1, 0, 0, 1, 5, 155)"><g clip-path="url(#e233c66394)"><g fill="#000000" fill-opacity="1"><g transform="translate(1.376015, 17.278231)"><g><path d="M 7.984375 -12.25 C 8.597656 -12.25 9.21875 -12.1875 9.84375 -12.0625 C 10.476562 -11.945312 10.984375 -11.78125 11.359375 -11.5625 C 11.472656 -11.519531 11.546875 -11.46875 11.578125 -11.40625 C 11.609375 -11.34375 11.628906 -11.242188 11.640625 -11.109375 L 11.859375 -8.953125 C 11.859375 -8.910156 11.828125 -8.882812 11.765625 -8.875 C 11.703125 -8.875 11.660156 -8.894531 11.640625 -8.9375 C 11.359375 -9.925781 10.835938 -10.648438 10.078125 -11.109375 C 9.316406 -11.578125 8.367188 -11.8125 7.234375 -11.8125 C 6.265625 -11.8125 5.410156 -11.597656 4.671875 -11.171875 C 3.941406 -10.742188 3.378906 -10.140625 2.984375 -9.359375 C 2.585938 -8.578125 2.390625 -7.671875 2.390625 -6.640625 C 2.390625 -5.441406 2.632812 -4.335938 3.125 -3.328125 C 3.625 -2.316406 4.289062 -1.515625 5.125 -0.921875 C 5.96875 -0.328125 6.878906 -0.03125 7.859375 -0.03125 C 8.773438 -0.03125 9.570312 -0.285156 10.25 -0.796875 C 10.9375 -1.304688 11.457031 -2.085938 11.8125 -3.140625 C 11.8125 -3.179688 11.835938 -3.203125 11.890625 -3.203125 C 11.929688 -3.203125 11.96875 -3.191406 12 -3.171875 C 12.03125 -3.160156 12.046875 -3.144531 12.046875 -3.125 L 11.78125 -0.9375 C 11.757812 -0.789062 11.726562 -0.691406 11.6875 -0.640625 C 11.65625 -0.597656 11.582031 -0.550781 11.46875 -0.5 C 10.3125 -0.0078125 9.09375 0.234375 7.8125 0.234375 C 6.269531 0.234375 4.984375 -0.078125 3.953125 -0.703125 C 2.921875 -1.328125 2.160156 -2.117188 1.671875 -3.078125 C 1.179688 -4.046875 0.9375 -5.0625 0.9375 -6.125 C 0.9375 -7.300781 1.265625 -8.359375 1.921875 -9.296875 C 2.578125 -10.234375 3.441406 -10.957031 4.515625 -11.46875 C 5.597656 -11.988281 6.753906 -12.25 7.984375 -12.25 Z M 7.984375 -12.25 "></path></g></g></g><g fill="#000000" fill-opacity="1"><g transform="translate(14.253419, 17.278231)"><g><path d="M 14.09375 -0.234375 C 14.132812 -0.234375 14.15625 -0.191406 14.15625 -0.109375 C 14.15625 -0.0351562 14.132812 0 14.09375 0 C 13.695312 0 13.375 -0.00390625 13.125 -0.015625 L 11.796875 -0.03125 L 10.390625 -0.015625 C 10.160156 -0.00390625 9.859375 0 9.484375 0 C 9.453125 0 9.4375 -0.0351562 9.4375 -0.109375 C 9.4375 -0.191406 9.453125 -0.234375 9.484375 -0.234375 C 9.984375 -0.234375 10.347656 -0.265625 10.578125 -0.328125 C 10.816406 -0.390625 10.972656 -0.507812 11.046875 -0.6875 C 11.128906 -0.875 11.171875 -1.164062 11.171875 -1.5625 L 11.171875 -10.4375 L 2.890625 0.171875 C 2.847656 0.222656 2.769531 0.25 2.65625 0.25 C 2.46875 0.25 2.375 0.203125 2.375 0.109375 L 2.375 -10.46875 C 2.375 -10.851562 2.332031 -11.132812 2.25 -11.3125 C 2.164062 -11.5 2.003906 -11.625 1.765625 -11.6875 C 1.523438 -11.757812 1.160156 -11.796875 0.671875 -11.796875 C 0.648438 -11.796875 0.640625 -11.832031 0.640625 -11.90625 C 0.640625 -11.988281 0.648438 -12.03125 0.671875 -12.03125 L 1.671875 -12.015625 C 2.210938 -11.984375 2.648438 -11.96875 2.984375 -11.96875 C 3.359375 -11.96875 3.828125 -11.984375 4.390625 -12.015625 L 5.296875 -12.03125 C 5.328125 -12.03125 5.34375 -11.988281 5.34375 -11.90625 C 5.34375 -11.832031 5.328125 -11.796875 5.296875 -11.796875 C 4.796875 -11.796875 4.425781 -11.757812 4.1875 -11.6875 C 3.957031 -11.625 3.804688 -11.5 3.734375 -11.3125 C 3.660156 -11.132812 3.625 -10.851562 3.625 -10.46875 L 3.625 -1.484375 L 11.921875 -12.125 C 11.953125 -12.164062 12.019531 -12.1875 12.125 -12.1875 C 12.320312 -12.1875 12.421875 -12.140625 12.421875 -12.046875 L 12.421875 -1.5625 C 12.421875 -1.175781 12.460938 -0.890625 12.546875 -0.703125 C 12.628906 -0.515625 12.785156 -0.390625 13.015625 -0.328125 C 13.242188 -0.265625 13.601562 -0.234375 14.09375 -0.234375 Z M 14.09375 -0.234375 "></path></g></g></g><g fill="#000000" fill-opacity="1"><g transform="translate(29.055695, 17.278231)"><g><path d="M 5.703125 -6.46875 C 6.597656 -6.40625 7.320312 -6.097656 7.875 -5.546875 C 8.4375 -4.992188 8.71875 -4.296875 8.71875 -3.453125 C 8.71875 -2.742188 8.519531 -2.109375 8.125 -1.546875 C 7.738281 -0.992188 7.210938 -0.554688 6.546875 -0.234375 C 5.878906 0.078125 5.140625 0.234375 4.328125 0.234375 C 3.804688 0.234375 3.289062 0.164062 2.78125 0.03125 C 2.269531 -0.09375 1.875 -0.269531 1.59375 -0.5 C 1.476562 -0.5625 1.40625 -0.613281 1.375 -0.65625 C 1.351562 -0.707031 1.335938 -0.800781 1.328125 -0.9375 L 1.09375 -3.078125 C 1.09375 -3.117188 1.128906 -3.144531 1.203125 -3.15625 C 1.273438 -3.164062 1.316406 -3.15625 1.328125 -3.125 C 1.503906 -2.082031 1.921875 -1.3125 2.578125 -0.8125 C 3.234375 -0.320312 3.953125 -0.078125 4.734375 -0.078125 C 5.597656 -0.078125 6.238281 -0.363281 6.65625 -0.9375 C 7.070312 -1.519531 7.28125 -2.238281 7.28125 -3.09375 C 7.28125 -4.132812 6.988281 -4.921875 6.40625 -5.453125 C 5.820312 -5.984375 4.976562 -6.25 3.875 -6.25 C 3.820312 -6.25 3.796875 -6.285156 3.796875 -6.359375 C 3.796875 -6.441406 3.820312 -6.484375 3.875 -6.484375 C 4.875 -6.484375 5.625 -6.726562 6.125 -7.21875 C 6.632812 -7.707031 6.890625 -8.375 6.890625 -9.21875 C 6.890625 -10.0625 6.675781 -10.734375 6.25 -11.234375 C 5.832031 -11.742188 5.269531 -12 4.5625 -12 C 3.894531 -12 3.300781 -11.75 2.78125 -11.25 C 2.257812 -10.757812 1.867188 -10.03125 1.609375 -9.0625 C 1.609375 -9.039062 1.585938 -9.03125 1.546875 -9.03125 C 1.515625 -9.03125 1.484375 -9.039062 1.453125 -9.0625 C 1.421875 -9.082031 1.40625 -9.097656 1.40625 -9.109375 L 1.671875 -11.28125 C 1.703125 -11.4375 1.726562 -11.539062 1.75 -11.59375 C 1.78125 -11.644531 1.851562 -11.6875 1.96875 -11.71875 C 2.957031 -12.070312 3.90625 -12.25 4.8125 -12.25 C 5.90625 -12.25 6.742188 -11.992188 7.328125 -11.484375 C 7.910156 -10.984375 8.203125 -10.363281 8.203125 -9.625 C 8.203125 -8.914062 7.945312 -8.269531 7.4375 -7.6875 C 6.9375 -7.101562 6.359375 -6.695312 5.703125 -6.46875 Z M 5.703125 -6.46875 "></path></g></g></g><g fill="#000000" fill-opacity="1"><g transform="translate(38.718557, 17.278231)"><g><path d="M 12.9375 -0.4375 C 13.039062 -0.4375 13.097656 -0.425781 13.109375 -0.40625 C 13.128906 -0.394531 13.140625 -0.335938 13.140625 -0.234375 C 13.140625 -0.171875 13.128906 0 13.109375 0.28125 C 13.015625 1 12.96875 1.894531 12.96875 2.96875 C 12.96875 3.03125 12.929688 3.0625 12.859375 3.0625 C 12.785156 3.0625 12.75 3.03125 12.75 2.96875 C 12.75 1.9375 12.492188 1.179688 11.984375 0.703125 C 11.484375 0.234375 10.664062 0 9.53125 0 L 3.65625 0 C 1.84375 0 0.9375 0.988281 0.9375 2.96875 C 0.9375 3.03125 0.898438 3.0625 0.828125 3.0625 C 0.765625 3.0625 0.734375 3.03125 0.734375 2.96875 C 0.734375 1.925781 0.679688 1.097656 0.578125 0.484375 C 0.535156 0.234375 0.515625 -0.00390625 0.515625 -0.234375 C 0.515625 -0.335938 0.523438 -0.394531 0.546875 -0.40625 C 0.578125 -0.425781 0.640625 -0.4375 0.734375 -0.4375 L 1.9375 -0.4375 L 6.75 -12.203125 C 6.769531 -12.242188 6.8125 -12.265625 6.875 -12.265625 C 6.945312 -12.265625 6.988281 -12.242188 7 -12.203125 L 11.890625 -0.4375 Z M 2.4375 -0.4375 L 10.546875 -0.4375 L 6.46875 -10.296875 Z M 2.4375 -0.4375 "></path></g></g></g><g fill="#000000" fill-opacity="1"><g transform="translate(52.385158, 17.278231)"><g><path d="M 9.140625 -2.875 C 9.140625 -2.894531 9.164062 -2.90625 9.21875 -2.90625 C 9.257812 -2.90625 9.296875 -2.898438 9.328125 -2.890625 C 9.359375 -2.878906 9.375 -2.859375 9.375 -2.828125 C 9.257812 -2.015625 9.203125 -1.164062 9.203125 -0.28125 C 9.203125 -0.1875 9.175781 -0.113281 9.125 -0.0625 C 9.082031 -0.0195312 9.003906 0 8.890625 0 L 0.828125 0 C 0.804688 0 0.796875 -0.0351562 0.796875 -0.109375 C 0.796875 -0.191406 0.804688 -0.234375 0.828125 -0.234375 C 1.316406 -0.234375 1.671875 -0.265625 1.890625 -0.328125 C 2.117188 -0.390625 2.273438 -0.515625 2.359375 -0.703125 C 2.441406 -0.890625 2.484375 -1.175781 2.484375 -1.5625 L 2.484375 -10.46875 C 2.484375 -10.851562 2.441406 -11.132812 2.359375 -11.3125 C 2.273438 -11.5 2.117188 -11.625 1.890625 -11.6875 C 1.671875 -11.757812 1.316406 -11.796875 0.828125 -11.796875 C 0.804688 -11.796875 0.796875 -11.832031 0.796875 -11.90625 C 0.796875 -11.988281 0.804688 -12.03125 0.828125 -12.03125 L 8.5625 -12.03125 C 8.675781 -12.03125 8.734375 -11.972656 8.734375 -11.859375 L 8.78125 -9.484375 C 8.78125 -9.453125 8.742188 -9.429688 8.671875 -9.421875 C 8.609375 -9.410156 8.570312 -9.425781 8.5625 -9.46875 C 8.53125 -10.144531 8.328125 -10.671875 7.953125 -11.046875 C 7.578125 -11.429688 7.082031 -11.625 6.46875 -11.625 L 5.296875 -11.625 C 4.847656 -11.625 4.515625 -11.585938 4.296875 -11.515625 C 4.085938 -11.453125 3.941406 -11.332031 3.859375 -11.15625 C 3.773438 -10.976562 3.734375 -10.71875 3.734375 -10.375 L 3.734375 -6.46875 L 6.078125 -6.46875 C 6.691406 -6.46875 7.128906 -6.566406 7.390625 -6.765625 C 7.660156 -6.972656 7.796875 -7.320312 7.796875 -7.8125 C 7.796875 -7.84375 7.832031 -7.859375 7.90625 -7.859375 C 7.988281 -7.859375 8.03125 -7.84375 8.03125 -7.8125 L 8.015625 -6.25 C 8.015625 -5.882812 8.019531 -5.601562 8.03125 -5.40625 L 8.046875 -4.484375 C 8.046875 -4.460938 8.003906 -4.453125 7.921875 -4.453125 C 7.847656 -4.453125 7.8125 -4.460938 7.8125 -4.484375 C 7.8125 -5.046875 7.671875 -5.445312 7.390625 -5.6875 C 7.117188 -5.9375 6.664062 -6.0625 6.03125 -6.0625 L 3.734375 -6.0625 L 3.734375 -1.640625 C 3.734375 -1.273438 3.769531 -1.007812 3.84375 -0.84375 C 3.925781 -0.675781 4.066406 -0.5625 4.265625 -0.5 C 4.472656 -0.4375 4.796875 -0.40625 5.234375 -0.40625 L 6.78125 -0.40625 C 7.394531 -0.40625 7.90625 -0.625 8.3125 -1.0625 C 8.726562 -1.5 9.003906 -2.101562 9.140625 -2.875 Z M 9.140625 -2.875 "></path></g></g></g><g fill="#000000" fill-opacity="1"><g transform="translate(62.721731, 17.278231)"><g><path d="M 3.703125 -1.640625 C 3.703125 -1.222656 3.753906 -0.921875 3.859375 -0.734375 C 3.960938 -0.554688 4.171875 -0.425781 4.484375 -0.34375 C 4.804688 -0.269531 5.304688 -0.234375 5.984375 -0.234375 C 6.023438 -0.234375 6.046875 -0.191406 6.046875 -0.109375 C 6.046875 -0.0351562 6.023438 0 5.984375 0 C 5.460938 0 5.050781 -0.00390625 4.75 -0.015625 L 3.078125 -0.03125 L 1.796875 -0.015625 C 1.546875 -0.00390625 1.21875 0 0.8125 0 C 0.78125 0 0.765625 -0.0351562 0.765625 -0.109375 C 0.765625 -0.191406 0.78125 -0.234375 0.8125 -0.234375 C 1.300781 -0.234375 1.65625 -0.265625 1.875 -0.328125 C 2.101562 -0.390625 2.253906 -0.515625 2.328125 -0.703125 C 2.398438 -0.890625 2.4375 -1.175781 2.4375 -1.5625 L 2.4375 -10.46875 C 2.4375 -10.851562 2.398438 -11.132812 2.328125 -11.3125 C 2.253906 -11.5 2.101562 -11.625 1.875 -11.6875 C 1.65625 -11.757812 1.300781 -11.796875 0.8125 -11.796875 C 0.78125 -11.796875 0.765625 -11.832031 0.765625 -11.90625 C 0.765625 -11.988281 0.78125 -12.03125 0.8125 -12.03125 L 1.765625 -12.015625 C 2.304688 -11.984375 2.738281 -11.96875 3.0625 -11.96875 C 3.382812 -11.96875 3.742188 -11.988281 4.140625 -12.03125 C 4.296875 -12.03125 4.539062 -12.039062 4.875 -12.0625 C 5.207031 -12.082031 5.492188 -12.09375 5.734375 -12.09375 C 6.910156 -12.09375 7.851562 -11.828125 8.5625 -11.296875 C 9.28125 -10.773438 9.640625 -9.972656 9.640625 -8.890625 C 9.640625 -8.046875 9.429688 -7.332031 9.015625 -6.75 C 8.597656 -6.175781 8.066406 -5.75 7.421875 -5.46875 C 6.773438 -5.1875 6.101562 -5.046875 5.40625 -5.046875 C 5.019531 -5.046875 4.707031 -5.078125 4.46875 -5.140625 C 4.425781 -5.140625 4.40625 -5.171875 4.40625 -5.234375 C 4.40625 -5.273438 4.414062 -5.3125 4.4375 -5.34375 C 4.457031 -5.382812 4.476562 -5.398438 4.5 -5.390625 C 4.707031 -5.335938 4.941406 -5.3125 5.203125 -5.3125 C 6.046875 -5.3125 6.757812 -5.585938 7.34375 -6.140625 C 7.925781 -6.691406 8.21875 -7.488281 8.21875 -8.53125 C 8.21875 -9.539062 7.941406 -10.335938 7.390625 -10.921875 C 6.835938 -11.503906 6.132812 -11.796875 5.28125 -11.796875 C 4.8125 -11.796875 4.472656 -11.769531 4.265625 -11.71875 C 4.066406 -11.664062 3.921875 -11.546875 3.828125 -11.359375 C 3.742188 -11.179688 3.703125 -10.875 3.703125 -10.4375 Z M 3.703125 -1.640625 "></path></g></g></g><g fill="#000000" fill-opacity="1"><g transform="translate(72.307236, 17.278231)"><g><path d="M 12.9375 -0.4375 C 13.039062 -0.4375 13.097656 -0.425781 13.109375 -0.40625 C 13.128906 -0.394531 13.140625 -0.335938 13.140625 -0.234375 C 13.140625 -0.171875 13.128906 0 13.109375 0.28125 C 13.015625 1 12.96875 1.894531 12.96875 2.96875 C 12.96875 3.03125 12.929688 3.0625 12.859375 3.0625 C 12.785156 3.0625 12.75 3.03125 12.75 2.96875 C 12.75 1.9375 12.492188 1.179688 11.984375 0.703125 C 11.484375 0.234375 10.664062 0 9.53125 0 L 3.65625 0 C 1.84375 0 0.9375 0.988281 0.9375 2.96875 C 0.9375 3.03125 0.898438 3.0625 0.828125 3.0625 C 0.765625 3.0625 0.734375 3.03125 0.734375 2.96875 C 0.734375 1.925781 0.679688 1.097656 0.578125 0.484375 C 0.535156 0.234375 0.515625 -0.00390625 0.515625 -0.234375 C 0.515625 -0.335938 0.523438 -0.394531 0.546875 -0.40625 C 0.578125 -0.425781 0.640625 -0.4375 0.734375 -0.4375 L 1.9375 -0.4375 L 6.75 -12.203125 C 6.769531 -12.242188 6.8125 -12.265625 6.875 -12.265625 C 6.945312 -12.265625 6.988281 -12.242188 7 -12.203125 L 11.890625 -0.4375 Z M 2.4375 -0.4375 L 10.546875 -0.4375 L 6.46875 -10.296875 Z M 2.4375 -0.4375 "></path></g></g></g><g fill="#000000" fill-opacity="1"><g transform="translate(85.973837, 17.278231)"><g><path d="M 14.09375 -0.234375 C 14.132812 -0.234375 14.15625 -0.191406 14.15625 -0.109375 C 14.15625 -0.0351562 14.132812 0 14.09375 0 C 13.695312 0 13.375 -0.00390625 13.125 -0.015625 L 11.796875 -0.03125 L 10.390625 -0.015625 C 10.160156 -0.00390625 9.859375 0 9.484375 0 C 9.453125 0 9.4375 -0.0351562 9.4375 -0.109375 C 9.4375 -0.191406 9.453125 -0.234375 9.484375 -0.234375 C 9.984375 -0.234375 10.347656 -0.265625 10.578125 -0.328125 C 10.816406 -0.390625 10.972656 -0.507812 11.046875 -0.6875 C 11.128906 -0.875 11.171875 -1.164062 11.171875 -1.5625 L 11.171875 -10.4375 L 2.890625 0.171875 C 2.847656 0.222656 2.769531 0.25 2.65625 0.25 C 2.46875 0.25 2.375 0.203125 2.375 0.109375 L 2.375 -10.46875 C 2.375 -10.851562 2.332031 -11.132812 2.25 -11.3125 C 2.164062 -11.5 2.003906 -11.625 1.765625 -11.6875 C 1.523438 -11.757812 1.160156 -11.796875 0.671875 -11.796875 C 0.648438 -11.796875 0.640625 -11.832031 0.640625 -11.90625 C 0.640625 -11.988281 0.648438 -12.03125 0.671875 -12.03125 L 1.671875 -12.015625 C 2.210938 -11.984375 2.648438 -11.96875 2.984375 -11.96875 C 3.359375 -11.96875 3.828125 -11.984375 4.390625 -12.015625 L 5.296875 -12.03125 C 5.328125 -12.03125 5.34375 -11.988281 5.34375 -11.90625 C 5.34375 -11.832031 5.328125 -11.796875 5.296875 -11.796875 C 4.796875 -11.796875 4.425781 -11.757812 4.1875 -11.6875 C 3.957031 -11.625 3.804688 -11.5 3.734375 -11.3125 C 3.660156 -11.132812 3.625 -10.851562 3.625 -10.46875 L 3.625 -1.484375 L 11.921875 -12.125 C 11.953125 -12.164062 12.019531 -12.1875 12.125 -12.1875 C 12.320312 -12.1875 12.421875 -12.140625 12.421875 -12.046875 L 12.421875 -1.5625 C 12.421875 -1.175781 12.460938 -0.890625 12.546875 -0.703125 C 12.628906 -0.515625 12.785156 -0.390625 13.015625 -0.328125 C 13.242188 -0.265625 13.601562 -0.234375 14.09375 -0.234375 Z M 14.09375 -0.234375 "></path></g></g></g><g fill="#000000" fill-opacity="1"><g transform="translate(100.776113, 17.278231)"><g></g></g></g><g fill="#000000" fill-opacity="1"><g transform="translate(105.280318, 17.278231)"><g><path d="M 11.375 -0.234375 C 11.414062 -0.234375 11.4375 -0.191406 11.4375 -0.109375 C 11.4375 -0.0351562 11.414062 0 11.375 0 C 10.976562 0 10.660156 -0.00390625 10.421875 -0.015625 L 9.09375 -0.03125 L 7.71875 -0.015625 C 7.5 -0.00390625 7.191406 0 6.796875 0 C 6.753906 0 6.734375 -0.0351562 6.734375 -0.109375 C 6.734375 -0.191406 6.753906 -0.234375 6.796875 -0.234375 C 7.285156 -0.234375 7.640625 -0.265625 7.859375 -0.328125 C 8.085938 -0.390625 8.238281 -0.507812 8.3125 -0.6875 C 8.394531 -0.875 8.4375 -1.164062 8.4375 -1.5625 L 8.4375 -5.875 C 7.363281 -5.113281 6.257812 -4.734375 5.125 -4.734375 C 4.070312 -4.734375 3.222656 -5.015625 2.578125 -5.578125 C 1.929688 -6.140625 1.609375 -6.898438 1.609375 -7.859375 L 1.609375 -10.46875 C 1.609375 -10.851562 1.566406 -11.132812 1.484375 -11.3125 C 1.398438 -11.5 1.242188 -11.625 1.015625 -11.6875 C 0.796875 -11.757812 0.453125 -11.796875 -0.015625 -11.796875 C -0.0546875 -11.796875 -0.078125 -11.832031 -0.078125 -11.90625 C -0.078125 -11.988281 -0.0546875 -12.03125 -0.015625 -12.03125 L 0.796875 -12.015625 C 1.304688 -11.984375 1.765625 -11.96875 2.171875 -11.96875 C 2.554688 -11.96875 3.003906 -11.984375 3.515625 -12.015625 L 4.28125 -12.03125 C 4.3125 -12.03125 4.328125 -11.988281 4.328125 -11.90625 C 4.328125 -11.832031 4.3125 -11.796875 4.28125 -11.796875 C 3.863281 -11.796875 3.554688 -11.753906 3.359375 -11.671875 C 3.160156 -11.597656 3.023438 -11.46875 2.953125 -11.28125 C 2.878906 -11.101562 2.84375 -10.820312 2.84375 -10.4375 L 2.84375 -8.53125 C 2.84375 -7.4375 3.082031 -6.609375 3.5625 -6.046875 C 4.039062 -5.484375 4.722656 -5.203125 5.609375 -5.203125 C 6.566406 -5.203125 7.507812 -5.519531 8.4375 -6.15625 L 8.4375 -10.4375 C 8.4375 -10.820312 8.398438 -11.101562 8.328125 -11.28125 C 8.253906 -11.46875 8.117188 -11.597656 7.921875 -11.671875 C 7.734375 -11.753906 7.425781 -11.796875 7 -11.796875 C 6.976562 -11.796875 6.96875 -11.832031 6.96875 -11.90625 C 6.96875 -11.988281 6.976562 -12.03125 7 -12.03125 L 7.859375 -12.015625 C 8.367188 -11.984375 8.78125 -11.96875 9.09375 -11.96875 C 9.4375 -11.96875 9.878906 -11.984375 10.421875 -12.015625 L 11.375 -12.03125 C 11.414062 -12.03125 11.4375 -11.988281 11.4375 -11.90625 C 11.4375 -11.832031 11.414062 -11.796875 11.375 -11.796875 C 10.882812 -11.796875 10.519531 -11.757812 10.28125 -11.6875 C 10.050781 -11.625 9.894531 -11.5 9.8125 -11.3125 C 9.726562 -11.132812 9.6875 -10.851562 9.6875 -10.46875 L 9.6875 -1.5625 C 9.6875 -1.175781 9.726562 -0.890625 9.8125 -0.703125 C 9.894531 -0.515625 10.050781 -0.390625 10.28125 -0.328125 C 10.519531 -0.265625 10.882812 -0.234375 11.375 -0.234375 Z M 11.375 -0.234375 "></path></g></g></g><g fill="#000000" fill-opacity="1"><g transform="translate(117.349274, 17.278231)"><g><path d="M 5.90625 -6.796875 C 7.125 -6.796875 8.070312 -6.550781 8.75 -6.0625 C 9.4375 -5.570312 9.78125 -4.765625 9.78125 -3.640625 C 9.78125 -2.910156 9.613281 -2.257812 9.28125 -1.6875 C 8.957031 -1.125 8.5 -0.6875 7.90625 -0.375 C 7.320312 -0.0703125 6.648438 0.078125 5.890625 0.078125 C 5.554688 0.078125 5.160156 0.0546875 4.703125 0.015625 C 4.515625 0.00390625 4.28125 -0.00390625 4 -0.015625 C 3.726562 -0.0234375 3.425781 -0.03125 3.09375 -0.03125 L 1.828125 -0.015625 C 1.585938 -0.00390625 1.253906 0 0.828125 0 C 0.804688 0 0.796875 -0.0351562 0.796875 -0.109375 C 0.796875 -0.191406 0.804688 -0.234375 0.828125 -0.234375 C 1.316406 -0.242188 1.675781 -0.28125 1.90625 -0.34375 C 2.132812 -0.40625 2.289062 -0.523438 2.375 -0.703125 C 2.457031 -0.890625 2.5 -1.175781 2.5 -1.5625 L 2.5 -10.46875 C 2.5 -10.851562 2.457031 -11.132812 2.375 -11.3125 C 2.300781 -11.5 2.148438 -11.625 1.921875 -11.6875 C 1.703125 -11.75 1.347656 -11.785156 0.859375 -11.796875 C 0.828125 -11.796875 0.8125 -11.832031 0.8125 -11.90625 C 0.8125 -11.988281 0.828125 -12.03125 0.859375 -12.03125 L 1.796875 -12.015625 C 2.304688 -11.984375 2.738281 -11.96875 3.09375 -11.96875 C 3.46875 -11.96875 3.9375 -11.984375 4.5 -12.015625 L 5.453125 -12.03125 C 5.472656 -12.03125 5.484375 -11.988281 5.484375 -11.90625 C 5.484375 -11.832031 5.472656 -11.796875 5.453125 -11.796875 C 4.953125 -11.785156 4.582031 -11.75 4.34375 -11.6875 C 4.113281 -11.625 3.957031 -11.5 3.875 -11.3125 C 3.789062 -11.125 3.75 -10.832031 3.75 -10.4375 L 3.75 -6.578125 C 4.476562 -6.722656 5.195312 -6.796875 5.90625 -6.796875 Z M 15.453125 -0.234375 C 15.492188 -0.234375 15.515625 -0.191406 15.515625 -0.109375 C 15.515625 -0.0351562 15.492188 0 15.453125 0 C 15.066406 0 14.757812 -0.00390625 14.53125 -0.015625 L 13.171875 -0.03125 L 11.84375 -0.015625 C 11.613281 -0.00390625 11.296875 0 10.890625 0 C 10.859375 0 10.84375 -0.0351562 10.84375 -0.109375 C 10.84375 -0.191406 10.859375 -0.234375 10.890625 -0.234375 C 11.378906 -0.234375 11.734375 -0.265625 11.953125 -0.328125 C 12.179688 -0.390625 12.335938 -0.515625 12.421875 -0.703125 C 12.503906 -0.890625 12.546875 -1.175781 12.546875 -1.5625 L 12.546875 -10.46875 C 12.546875 -10.851562 12.503906 -11.132812 12.421875 -11.3125 C 12.335938 -11.5 12.179688 -11.625 11.953125 -11.6875 C 11.734375 -11.757812 11.378906 -11.796875 10.890625 -11.796875 C 10.859375 -11.796875 10.84375 -11.832031 10.84375 -11.90625 C 10.84375 -11.988281 10.859375 -12.03125 10.890625 -12.03125 L 11.84375 -12.015625 C 12.375 -11.984375 12.816406 -11.96875 13.171875 -11.96875 C 13.554688 -11.96875 14.015625 -11.984375 14.546875 -12.015625 L 15.453125 -12.03125 C 15.492188 -12.03125 15.515625 -11.988281 15.515625 -11.90625 C 15.515625 -11.832031 15.492188 -11.796875 15.453125 -11.796875 C 14.984375 -11.796875 14.632812 -11.753906 14.40625 -11.671875 C 14.1875 -11.597656 14.035156 -11.46875 13.953125 -11.28125 C 13.867188 -11.101562 13.828125 -10.820312 13.828125 -10.4375 L 13.828125 -1.5625 C 13.828125 -1.175781 13.863281 -0.890625 13.9375 -0.703125 C 14.007812 -0.515625 14.15625 -0.390625 14.375 -0.328125 C 14.601562 -0.265625 14.960938 -0.234375 15.453125 -0.234375 Z M 5.5 -0.265625 C 6.539062 -0.265625 7.289062 -0.5 7.75 -0.96875 C 8.207031 -1.4375 8.4375 -2.171875 8.4375 -3.171875 C 8.4375 -4.328125 8.175781 -5.15625 7.65625 -5.65625 C 7.144531 -6.15625 6.398438 -6.40625 5.421875 -6.40625 C 4.921875 -6.40625 4.363281 -6.34375 3.75 -6.21875 L 3.75 -1.5625 C 3.75 -1.113281 3.863281 -0.785156 4.09375 -0.578125 C 4.332031 -0.367188 4.800781 -0.265625 5.5 -0.265625 Z M 5.5 -0.265625 "></path></g></g></g><g fill="#000000" fill-opacity="1"><g transform="translate(133.729945, 17.278231)"><g><path d="M 12.9375 -0.4375 C 13.039062 -0.4375 13.097656 -0.425781 13.109375 -0.40625 C 13.128906 -0.394531 13.140625 -0.335938 13.140625 -0.234375 C 13.140625 -0.171875 13.128906 0 13.109375 0.28125 C 13.015625 1 12.96875 1.894531 12.96875 2.96875 C 12.96875 3.03125 12.929688 3.0625 12.859375 3.0625 C 12.785156 3.0625 12.75 3.03125 12.75 2.96875 C 12.75 1.9375 12.492188 1.179688 11.984375 0.703125 C 11.484375 0.234375 10.664062 0 9.53125 0 L 3.65625 0 C 1.84375 0 0.9375 0.988281 0.9375 2.96875 C 0.9375 3.03125 0.898438 3.0625 0.828125 3.0625 C 0.765625 3.0625 0.734375 3.03125 0.734375 2.96875 C 0.734375 1.925781 0.679688 1.097656 0.578125 0.484375 C 0.535156 0.234375 0.515625 -0.00390625 0.515625 -0.234375 C 0.515625 -0.335938 0.523438 -0.394531 0.546875 -0.40625 C 0.578125 -0.425781 0.640625 -0.4375 0.734375 -0.4375 L 1.9375 -0.4375 L 6.75 -12.203125 C 6.769531 -12.242188 6.8125 -12.265625 6.875 -12.265625 C 6.945312 -12.265625 6.988281 -12.242188 7 -12.203125 L 11.890625 -0.4375 Z M 2.4375 -0.4375 L 10.546875 -0.4375 L 6.46875 -10.296875 Z M 2.4375 -0.4375 "></path></g></g></g><g fill="#000000" fill-opacity="1"><g transform="translate(147.396547, 17.278231)"><g><path d="M 13.453125 -0.234375 C 13.503906 -0.234375 13.53125 -0.191406 13.53125 -0.109375 C 13.53125 -0.0351562 13.503906 0 13.453125 0 C 13.210938 0 12.832031 -0.0078125 12.3125 -0.03125 C 11.800781 -0.0625 11.429688 -0.078125 11.203125 -0.078125 C 10.921875 -0.078125 10.5625 -0.0625 10.125 -0.03125 C 9.71875 -0.0078125 9.40625 0 9.1875 0 C 9.132812 0 9.109375 -0.0351562 9.109375 -0.109375 C 9.109375 -0.191406 9.132812 -0.234375 9.1875 -0.234375 C 9.65625 -0.234375 10 -0.273438 10.21875 -0.359375 C 10.4375 -0.453125 10.546875 -0.609375 10.546875 -0.828125 C 10.546875 -1.003906 10.460938 -1.28125 10.296875 -1.65625 L 8.578125 -5.296875 L 4 -5.296875 L 2.796875 -2.4375 C 2.609375 -2.007812 2.515625 -1.660156 2.515625 -1.390625 C 2.515625 -0.992188 2.671875 -0.703125 2.984375 -0.515625 C 3.304688 -0.328125 3.78125 -0.234375 4.40625 -0.234375 C 4.46875 -0.234375 4.5 -0.191406 4.5 -0.109375 C 4.5 -0.0351562 4.46875 0 4.40625 0 C 4.175781 0 3.84375 -0.0078125 3.40625 -0.03125 C 2.914062 -0.0625 2.492188 -0.078125 2.140625 -0.078125 C 1.804688 -0.078125 1.421875 -0.0625 0.984375 -0.03125 C 0.597656 -0.0078125 0.273438 0 0.015625 0 C -0.046875 0 -0.078125 -0.0351562 -0.078125 -0.109375 C -0.078125 -0.191406 -0.046875 -0.234375 0.015625 -0.234375 C 0.378906 -0.234375 0.6875 -0.300781 0.9375 -0.4375 C 1.1875 -0.570312 1.421875 -0.804688 1.640625 -1.140625 C 1.867188 -1.484375 2.117188 -1.976562 2.390625 -2.625 L 6.453125 -12.203125 C 6.472656 -12.242188 6.515625 -12.265625 6.578125 -12.265625 C 6.648438 -12.265625 6.691406 -12.242188 6.703125 -12.203125 L 11.234375 -2.640625 C 11.671875 -1.691406 12.046875 -1.050781 12.359375 -0.71875 C 12.671875 -0.394531 13.035156 -0.234375 13.453125 -0.234375 Z M 4.15625 -5.671875 L 8.40625 -5.671875 L 6.15625 -10.4375 Z M 4.15625 -5.671875 "></path></g></g></g><g fill="#000000" fill-opacity="1"><g transform="translate(160.909143, 17.278231)"><g><path d="M 15.625 -0.234375 C 15.664062 -0.234375 15.6875 -0.191406 15.6875 -0.109375 C 15.6875 -0.0351562 15.664062 0 15.625 0 C 15.226562 0 14.914062 -0.00390625 14.6875 -0.015625 L 13.359375 -0.03125 L 12.125 -0.015625 C 11.914062 -0.00390625 11.628906 0 11.265625 0 C 11.234375 0 11.21875 -0.0351562 11.21875 -0.109375 C 11.21875 -0.191406 11.234375 -0.234375 11.265625 -0.234375 C 11.703125 -0.234375 12.023438 -0.265625 12.234375 -0.328125 C 12.441406 -0.398438 12.582031 -0.523438 12.65625 -0.703125 C 12.726562 -0.890625 12.75 -1.175781 12.71875 -1.5625 L 12.375 -10.3125 L 7.984375 -0.140625 C 7.960938 -0.0859375 7.910156 -0.0625 7.828125 -0.0625 C 7.765625 -0.0625 7.707031 -0.0859375 7.65625 -0.140625 L 2.921875 -10.203125 L 2.75 -2.09375 C 2.738281 -1.414062 2.851562 -0.9375 3.09375 -0.65625 C 3.34375 -0.375 3.773438 -0.234375 4.390625 -0.234375 C 4.410156 -0.234375 4.421875 -0.191406 4.421875 -0.109375 C 4.421875 -0.0351562 4.410156 0 4.390625 0 C 4.023438 0 3.75 -0.00390625 3.5625 -0.015625 L 2.515625 -0.03125 L 1.515625 -0.015625 C 1.335938 -0.00390625 1.082031 0 0.75 0 C 0.726562 0 0.71875 -0.0351562 0.71875 -0.109375 C 0.71875 -0.191406 0.726562 -0.234375 0.75 -0.234375 C 1.289062 -0.234375 1.675781 -0.375 1.90625 -0.65625 C 2.144531 -0.945312 2.273438 -1.425781 2.296875 -2.09375 L 2.46875 -11.03125 C 2.082031 -11.539062 1.554688 -11.796875 0.890625 -11.796875 C 0.859375 -11.796875 0.84375 -11.832031 0.84375 -11.90625 C 0.84375 -11.988281 0.859375 -12.03125 0.890625 -12.03125 L 1.59375 -12.015625 C 1.726562 -12.003906 1.910156 -12 2.140625 -12 C 2.367188 -12 2.5625 -12.003906 2.71875 -12.015625 C 2.882812 -12.023438 3.007812 -12.03125 3.09375 -12.03125 C 3.257812 -12.03125 3.394531 -11.96875 3.5 -11.84375 C 3.613281 -11.726562 3.773438 -11.457031 3.984375 -11.03125 L 8.28125 -1.984375 L 12.46875 -11.546875 C 12.613281 -11.867188 12.804688 -12.03125 13.046875 -12.03125 C 13.109375 -12.03125 13.203125 -12.023438 13.328125 -12.015625 C 13.453125 -12.003906 13.617188 -12 13.828125 -12 L 14.71875 -12.015625 C 14.863281 -12.023438 15.078125 -12.03125 15.359375 -12.03125 C 15.398438 -12.03125 15.421875 -11.988281 15.421875 -11.90625 C 15.421875 -11.832031 15.398438 -11.796875 15.359375 -11.796875 C 14.722656 -11.796875 14.265625 -11.703125 13.984375 -11.515625 C 13.710938 -11.328125 13.582031 -10.976562 13.59375 -10.46875 L 13.96875 -1.5625 C 13.988281 -1.164062 14.039062 -0.875 14.125 -0.6875 C 14.207031 -0.507812 14.359375 -0.390625 14.578125 -0.328125 C 14.796875 -0.265625 15.144531 -0.234375 15.625 -0.234375 Z M 15.625 -0.234375 "></path></g></g></g><g fill="#000000" fill-opacity="1"><g transform="translate(177.00109, 17.278231)"><g><path d="M 7.984375 -12.25 C 8.597656 -12.25 9.21875 -12.1875 9.84375 -12.0625 C 10.476562 -11.945312 10.984375 -11.78125 11.359375 -11.5625 C 11.472656 -11.519531 11.546875 -11.46875 11.578125 -11.40625 C 11.609375 -11.34375 11.628906 -11.242188 11.640625 -11.109375 L 11.859375 -8.953125 C 11.859375 -8.910156 11.828125 -8.882812 11.765625 -8.875 C 11.703125 -8.875 11.660156 -8.894531 11.640625 -8.9375 C 11.359375 -9.925781 10.835938 -10.648438 10.078125 -11.109375 C 9.316406 -11.578125 8.367188 -11.8125 7.234375 -11.8125 C 6.265625 -11.8125 5.410156 -11.597656 4.671875 -11.171875 C 3.941406 -10.742188 3.378906 -10.140625 2.984375 -9.359375 C 2.585938 -8.578125 2.390625 -7.671875 2.390625 -6.640625 C 2.390625 -5.441406 2.632812 -4.335938 3.125 -3.328125 C 3.625 -2.316406 4.289062 -1.515625 5.125 -0.921875 C 5.96875 -0.328125 6.878906 -0.03125 7.859375 -0.03125 C 8.773438 -0.03125 9.570312 -0.285156 10.25 -0.796875 C 10.9375 -1.304688 11.457031 -2.085938 11.8125 -3.140625 C 11.8125 -3.179688 11.835938 -3.203125 11.890625 -3.203125 C 11.929688 -3.203125 11.96875 -3.191406 12 -3.171875 C 12.03125 -3.160156 12.046875 -3.144531 12.046875 -3.125 L 11.78125 -0.9375 C 11.757812 -0.789062 11.726562 -0.691406 11.6875 -0.640625 C 11.65625 -0.597656 11.582031 -0.550781 11.46875 -0.5 C 10.3125 -0.0078125 9.09375 0.234375 7.8125 0.234375 C 6.269531 0.234375 4.984375 -0.078125 3.953125 -0.703125 C 2.921875 -1.328125 2.160156 -2.117188 1.671875 -3.078125 C 1.179688 -4.046875 0.9375 -5.0625 0.9375 -6.125 C 0.9375 -7.300781 1.265625 -8.359375 1.921875 -9.296875 C 2.578125 -10.234375 3.441406 -10.957031 4.515625 -11.46875 C 5.597656 -11.988281 6.753906 -12.25 7.984375 -12.25 Z M 7.984375 -12.25 "></path></g></g></g><g fill="#000000" fill-opacity="1"><g transform="translate(189.878494, 17.278231)"><g><path d="M 5.90625 -6.796875 C 7.125 -6.796875 8.070312 -6.550781 8.75 -6.0625 C 9.4375 -5.570312 9.78125 -4.765625 9.78125 -3.640625 C 9.78125 -2.910156 9.613281 -2.257812 9.28125 -1.6875 C 8.957031 -1.125 8.5 -0.6875 7.90625 -0.375 C 7.320312 -0.0703125 6.648438 0.078125 5.890625 0.078125 C 5.554688 0.078125 5.160156 0.0546875 4.703125 0.015625 C 4.515625 0.00390625 4.28125 -0.00390625 4 -0.015625 C 3.726562 -0.0234375 3.425781 -0.03125 3.09375 -0.03125 L 1.828125 -0.015625 C 1.585938 -0.00390625 1.253906 0 0.828125 0 C 0.804688 0 0.796875 -0.0351562 0.796875 -0.109375 C 0.796875 -0.191406 0.804688 -0.234375 0.828125 -0.234375 C 1.316406 -0.242188 1.675781 -0.28125 1.90625 -0.34375 C 2.132812 -0.40625 2.289062 -0.523438 2.375 -0.703125 C 2.457031 -0.890625 2.5 -1.175781 2.5 -1.5625 L 2.5 -10.46875 C 2.5 -10.851562 2.457031 -11.132812 2.375 -11.3125 C 2.300781 -11.5 2.148438 -11.625 1.921875 -11.6875 C 1.703125 -11.75 1.347656 -11.785156 0.859375 -11.796875 C 0.828125 -11.796875 0.8125 -11.832031 0.8125 -11.90625 C 0.8125 -11.988281 0.828125 -12.03125 0.859375 -12.03125 L 1.796875 -12.015625 C 2.304688 -11.984375 2.738281 -11.96875 3.09375 -11.96875 C 3.46875 -11.96875 3.9375 -11.984375 4.5 -12.015625 L 5.453125 -12.03125 C 5.472656 -12.03125 5.484375 -11.988281 5.484375 -11.90625 C 5.484375 -11.832031 5.472656 -11.796875 5.453125 -11.796875 C 4.953125 -11.785156 4.582031 -11.75 4.34375 -11.6875 C 4.113281 -11.625 3.957031 -11.5 3.875 -11.3125 C 3.789062 -11.125 3.75 -10.832031 3.75 -10.4375 L 3.75 -6.578125 C 4.476562 -6.722656 5.195312 -6.796875 5.90625 -6.796875 Z M 15.453125 -0.234375 C 15.492188 -0.234375 15.515625 -0.191406 15.515625 -0.109375 C 15.515625 -0.0351562 15.492188 0 15.453125 0 C 15.066406 0 14.757812 -0.00390625 14.53125 -0.015625 L 13.171875 -0.03125 L 11.84375 -0.015625 C 11.613281 -0.00390625 11.296875 0 10.890625 0 C 10.859375 0 10.84375 -0.0351562 10.84375 -0.109375 C 10.84375 -0.191406 10.859375 -0.234375 10.890625 -0.234375 C 11.378906 -0.234375 11.734375 -0.265625 11.953125 -0.328125 C 12.179688 -0.390625 12.335938 -0.515625 12.421875 -0.703125 C 12.503906 -0.890625 12.546875 -1.175781 12.546875 -1.5625 L 12.546875 -10.46875 C 12.546875 -10.851562 12.503906 -11.132812 12.421875 -11.3125 C 12.335938 -11.5 12.179688 -11.625 11.953125 -11.6875 C 11.734375 -11.757812 11.378906 -11.796875 10.890625 -11.796875 C 10.859375 -11.796875 10.84375 -11.832031 10.84375 -11.90625 C 10.84375 -11.988281 10.859375 -12.03125 10.890625 -12.03125 L 11.84375 -12.015625 C 12.375 -11.984375 12.816406 -11.96875 13.171875 -11.96875 C 13.554688 -11.96875 14.015625 -11.984375 14.546875 -12.015625 L 15.453125 -12.03125 C 15.492188 -12.03125 15.515625 -11.988281 15.515625 -11.90625 C 15.515625 -11.832031 15.492188 -11.796875 15.453125 -11.796875 C 14.984375 -11.796875 14.632812 -11.753906 14.40625 -11.671875 C 14.1875 -11.597656 14.035156 -11.46875 13.953125 -11.28125 C 13.867188 -11.101562 13.828125 -10.820312 13.828125 -10.4375 L 13.828125 -1.5625 C 13.828125 -1.175781 13.863281 -0.890625 13.9375 -0.703125 C 14.007812 -0.515625 14.15625 -0.390625 14.375 -0.328125 C 14.601562 -0.265625 14.960938 -0.234375 15.453125 -0.234375 Z M 5.5 -0.265625 C 6.539062 -0.265625 7.289062 -0.5 7.75 -0.96875 C 8.207031 -1.4375 8.4375 -2.171875 8.4375 -3.171875 C 8.4375 -4.328125 8.175781 -5.15625 7.65625 -5.65625 C 7.144531 -6.15625 6.398438 -6.40625 5.421875 -6.40625 C 4.921875 -6.40625 4.363281 -6.34375 3.75 -6.21875 L 3.75 -1.5625 C 3.75 -1.113281 3.863281 -0.785156 4.09375 -0.578125 C 4.332031 -0.367188 4.800781 -0.265625 5.5 -0.265625 Z M 5.5 -0.265625 "></path></g></g></g><g fill="#000000" fill-opacity="1"><g transform="translate(206.259165, 17.278231)"><g><path d="M 5.703125 -6.46875 C 6.597656 -6.40625 7.320312 -6.097656 7.875 -5.546875 C 8.4375 -4.992188 8.71875 -4.296875 8.71875 -3.453125 C 8.71875 -2.742188 8.519531 -2.109375 8.125 -1.546875 C 7.738281 -0.992188 7.210938 -0.554688 6.546875 -0.234375 C 5.878906 0.078125 5.140625 0.234375 4.328125 0.234375 C 3.804688 0.234375 3.289062 0.164062 2.78125 0.03125 C 2.269531 -0.09375 1.875 -0.269531 1.59375 -0.5 C 1.476562 -0.5625 1.40625 -0.613281 1.375 -0.65625 C 1.351562 -0.707031 1.335938 -0.800781 1.328125 -0.9375 L 1.09375 -3.078125 C 1.09375 -3.117188 1.128906 -3.144531 1.203125 -3.15625 C 1.273438 -3.164062 1.316406 -3.15625 1.328125 -3.125 C 1.503906 -2.082031 1.921875 -1.3125 2.578125 -0.8125 C 3.234375 -0.320312 3.953125 -0.078125 4.734375 -0.078125 C 5.597656 -0.078125 6.238281 -0.363281 6.65625 -0.9375 C 7.070312 -1.519531 7.28125 -2.238281 7.28125 -3.09375 C 7.28125 -4.132812 6.988281 -4.921875 6.40625 -5.453125 C 5.820312 -5.984375 4.976562 -6.25 3.875 -6.25 C 3.820312 -6.25 3.796875 -6.285156 3.796875 -6.359375 C 3.796875 -6.441406 3.820312 -6.484375 3.875 -6.484375 C 4.875 -6.484375 5.625 -6.726562 6.125 -7.21875 C 6.632812 -7.707031 6.890625 -8.375 6.890625 -9.21875 C 6.890625 -10.0625 6.675781 -10.734375 6.25 -11.234375 C 5.832031 -11.742188 5.269531 -12 4.5625 -12 C 3.894531 -12 3.300781 -11.75 2.78125 -11.25 C 2.257812 -10.757812 1.867188 -10.03125 1.609375 -9.0625 C 1.609375 -9.039062 1.585938 -9.03125 1.546875 -9.03125 C 1.515625 -9.03125 1.484375 -9.039062 1.453125 -9.0625 C 1.421875 -9.082031 1.40625 -9.097656 1.40625 -9.109375 L 1.671875 -11.28125 C 1.703125 -11.4375 1.726562 -11.539062 1.75 -11.59375 C 1.78125 -11.644531 1.851562 -11.6875 1.96875 -11.71875 C 2.957031 -12.070312 3.90625 -12.25 4.8125 -12.25 C 5.90625 -12.25 6.742188 -11.992188 7.328125 -11.484375 C 7.910156 -10.984375 8.203125 -10.363281 8.203125 -9.625 C 8.203125 -8.914062 7.945312 -8.269531 7.4375 -7.6875 C 6.9375 -7.101562 6.359375 -6.695312 5.703125 -6.46875 Z M 5.703125 -6.46875 "></path></g></g></g><g fill="#000000" fill-opacity="1"><g transform="translate(215.922026, 17.278231)"><g><path d="M 12.9375 -0.4375 C 13.039062 -0.4375 13.097656 -0.425781 13.109375 -0.40625 C 13.128906 -0.394531 13.140625 -0.335938 13.140625 -0.234375 C 13.140625 -0.171875 13.128906 0 13.109375 0.28125 C 13.015625 1 12.96875 1.894531 12.96875 2.96875 C 12.96875 3.03125 12.929688 3.0625 12.859375 3.0625 C 12.785156 3.0625 12.75 3.03125 12.75 2.96875 C 12.75 1.9375 12.492188 1.179688 11.984375 0.703125 C 11.484375 0.234375 10.664062 0 9.53125 0 L 3.65625 0 C 1.84375 0 0.9375 0.988281 0.9375 2.96875 C 0.9375 3.03125 0.898438 3.0625 0.828125 3.0625 C 0.765625 3.0625 0.734375 3.03125 0.734375 2.96875 C 0.734375 1.925781 0.679688 1.097656 0.578125 0.484375 C 0.535156 0.234375 0.515625 -0.00390625 0.515625 -0.234375 C 0.515625 -0.335938 0.523438 -0.394531 0.546875 -0.40625 C 0.578125 -0.425781 0.640625 -0.4375 0.734375 -0.4375 L 1.9375 -0.4375 L 6.75 -12.203125 C 6.769531 -12.242188 6.8125 -12.265625 6.875 -12.265625 C 6.945312 -12.265625 6.988281 -12.242188 7 -12.203125 L 11.890625 -0.4375 Z M 2.4375 -0.4375 L 10.546875 -0.4375 L 6.46875 -10.296875 Z M 2.4375 -0.4375 "></path></g></g></g><g fill="#000000" fill-opacity="1"><g transform="translate(229.588619, 17.278231)"><g><path d="M 5.90625 -6.796875 C 7.125 -6.796875 8.070312 -6.550781 8.75 -6.0625 C 9.4375 -5.570312 9.78125 -4.765625 9.78125 -3.640625 C 9.78125 -2.910156 9.613281 -2.257812 9.28125 -1.6875 C 8.957031 -1.125 8.5 -0.6875 7.90625 -0.375 C 7.320312 -0.0703125 6.648438 0.078125 5.890625 0.078125 C 5.554688 0.078125 5.160156 0.0546875 4.703125 0.015625 C 4.515625 0.00390625 4.28125 -0.00390625 4 -0.015625 C 3.726562 -0.0234375 3.425781 -0.03125 3.09375 -0.03125 L 1.828125 -0.015625 C 1.585938 -0.00390625 1.253906 0 0.828125 0 C 0.804688 0 0.796875 -0.0351562 0.796875 -0.109375 C 0.796875 -0.191406 0.804688 -0.234375 0.828125 -0.234375 C 1.316406 -0.242188 1.675781 -0.28125 1.90625 -0.34375 C 2.132812 -0.40625 2.289062 -0.523438 2.375 -0.703125 C 2.457031 -0.890625 2.5 -1.175781 2.5 -1.5625 L 2.5 -10.46875 C 2.5 -10.851562 2.457031 -11.132812 2.375 -11.3125 C 2.300781 -11.5 2.148438 -11.625 1.921875 -11.6875 C 1.703125 -11.75 1.347656 -11.785156 0.859375 -11.796875 C 0.828125 -11.796875 0.8125 -11.832031 0.8125 -11.90625 C 0.8125 -11.988281 0.828125 -12.03125 0.859375 -12.03125 L 1.796875 -12.015625 C 2.304688 -11.984375 2.738281 -11.96875 3.09375 -11.96875 C 3.46875 -11.96875 3.9375 -11.984375 4.5 -12.015625 L 5.453125 -12.03125 C 5.472656 -12.03125 5.484375 -11.988281 5.484375 -11.90625 C 5.484375 -11.832031 5.472656 -11.796875 5.453125 -11.796875 C 4.953125 -11.785156 4.582031 -11.75 4.34375 -11.6875 C 4.113281 -11.625 3.957031 -11.5 3.875 -11.3125 C 3.789062 -11.125 3.75 -10.832031 3.75 -10.4375 L 3.75 -6.578125 C 4.476562 -6.722656 5.195312 -6.796875 5.90625 -6.796875 Z M 15.453125 -0.234375 C 15.492188 -0.234375 15.515625 -0.191406 15.515625 -0.109375 C 15.515625 -0.0351562 15.492188 0 15.453125 0 C 15.066406 0 14.757812 -0.00390625 14.53125 -0.015625 L 13.171875 -0.03125 L 11.84375 -0.015625 C 11.613281 -0.00390625 11.296875 0 10.890625 0 C 10.859375 0 10.84375 -0.0351562 10.84375 -0.109375 C 10.84375 -0.191406 10.859375 -0.234375 10.890625 -0.234375 C 11.378906 -0.234375 11.734375 -0.265625 11.953125 -0.328125 C 12.179688 -0.390625 12.335938 -0.515625 12.421875 -0.703125 C 12.503906 -0.890625 12.546875 -1.175781 12.546875 -1.5625 L 12.546875 -10.46875 C 12.546875 -10.851562 12.503906 -11.132812 12.421875 -11.3125 C 12.335938 -11.5 12.179688 -11.625 11.953125 -11.6875 C 11.734375 -11.757812 11.378906 -11.796875 10.890625 -11.796875 C 10.859375 -11.796875 10.84375 -11.832031 10.84375 -11.90625 C 10.84375 -11.988281 10.859375 -12.03125 10.890625 -12.03125 L 11.84375 -12.015625 C 12.375 -11.984375 12.816406 -11.96875 13.171875 -11.96875 C 13.554688 -11.96875 14.015625 -11.984375 14.546875 -12.015625 L 15.453125 -12.03125 C 15.492188 -12.03125 15.515625 -11.988281 15.515625 -11.90625 C 15.515625 -11.832031 15.492188 -11.796875 15.453125 -11.796875 C 14.984375 -11.796875 14.632812 -11.753906 14.40625 -11.671875 C 14.1875 -11.597656 14.035156 -11.46875 13.953125 -11.28125 C 13.867188 -11.101562 13.828125 -10.820312 13.828125 -10.4375 L 13.828125 -1.5625 C 13.828125 -1.175781 13.863281 -0.890625 13.9375 -0.703125 C 14.007812 -0.515625 14.15625 -0.390625 14.375 -0.328125 C 14.601562 -0.265625 14.960938 -0.234375 15.453125 -0.234375 Z M 5.5 -0.265625 C 6.539062 -0.265625 7.289062 -0.5 7.75 -0.96875 C 8.207031 -1.4375 8.4375 -2.171875 8.4375 -3.171875 C 8.4375 -4.328125 8.175781 -5.15625 7.65625 -5.65625 C 7.144531 -6.15625 6.398438 -6.40625 5.421875 -6.40625 C 4.921875 -6.40625 4.363281 -6.34375 3.75 -6.21875 L 3.75 -1.5625 C 3.75 -1.113281 3.863281 -0.785156 4.09375 -0.578125 C 4.332031 -0.367188 4.800781 -0.265625 5.5 -0.265625 Z M 5.5 -0.265625 "></path></g></g></g><g fill="#000000" fill-opacity="1"><g transform="translate(245.969309, 17.278231)"><g><path d="M 12.46875 -0.234375 C 12.5 -0.234375 12.515625 -0.191406 12.515625 -0.109375 C 12.515625 -0.0351562 12.5 0 12.46875 0 L 10.046875 0 C 9.867188 0 9.710938 -0.046875 9.578125 -0.140625 C 9.441406 -0.234375 9.21875 -0.484375 8.90625 -0.890625 C 8.601562 -1.304688 8.050781 -2.085938 7.25 -3.234375 C 6.625 -4.128906 6.171875 -4.75 5.890625 -5.09375 C 5.609375 -5.445312 5.316406 -5.695312 5.015625 -5.84375 C 4.722656 -5.988281 4.328125 -6.0625 3.828125 -6.0625 C 3.710938 -6.0625 3.628906 -6.054688 3.578125 -6.046875 L 3.578125 -1.5625 C 3.578125 -1.175781 3.617188 -0.890625 3.703125 -0.703125 C 3.785156 -0.515625 3.9375 -0.390625 4.15625 -0.328125 C 4.382812 -0.265625 4.75 -0.234375 5.25 -0.234375 C 5.28125 -0.234375 5.296875 -0.191406 5.296875 -0.109375 C 5.296875 -0.0351562 5.28125 0 5.25 0 C 4.851562 0 4.539062 -0.00390625 4.3125 -0.015625 L 2.921875 -0.03125 L 1.609375 -0.015625 C 1.378906 -0.00390625 1.0625 0 0.65625 0 C 0.625 0 0.609375 -0.0351562 0.609375 -0.109375 C 0.609375 -0.191406 0.625 -0.234375 0.65625 -0.234375 C 1.144531 -0.234375 1.503906 -0.265625 1.734375 -0.328125 C 1.960938 -0.390625 2.117188 -0.515625 2.203125 -0.703125 C 2.285156 -0.890625 2.328125 -1.175781 2.328125 -1.5625 L 2.328125 -10.46875 C 2.328125 -10.851562 2.285156 -11.132812 2.203125 -11.3125 C 2.117188 -11.5 1.960938 -11.625 1.734375 -11.6875 C 1.515625 -11.757812 1.160156 -11.796875 0.671875 -11.796875 C 0.648438 -11.796875 0.640625 -11.832031 0.640625 -11.90625 C 0.640625 -11.988281 0.648438 -12.03125 0.671875 -12.03125 L 1.609375 -12.015625 C 2.148438 -11.984375 2.585938 -11.96875 2.921875 -11.96875 C 3.296875 -11.96875 3.765625 -11.984375 4.328125 -12.015625 L 5.25 -12.03125 C 5.28125 -12.03125 5.296875 -11.988281 5.296875 -11.90625 C 5.296875 -11.832031 5.28125 -11.796875 5.25 -11.796875 C 4.769531 -11.796875 4.410156 -11.753906 4.171875 -11.671875 C 3.941406 -11.597656 3.785156 -11.46875 3.703125 -11.28125 C 3.617188 -11.101562 3.578125 -10.820312 3.578125 -10.4375 L 3.578125 -6.375 C 4.273438 -6.394531 4.707031 -6.40625 4.875 -6.40625 L 5.234375 -6.40625 L 7.5625 -9.65625 C 8.144531 -10.457031 8.4375 -11.007812 8.4375 -11.3125 C 8.4375 -11.476562 8.351562 -11.597656 8.1875 -11.671875 C 8.03125 -11.753906 7.785156 -11.796875 7.453125 -11.796875 C 7.421875 -11.796875 7.40625 -11.832031 7.40625 -11.90625 C 7.40625 -11.988281 7.421875 -12.03125 7.453125 -12.03125 L 8.28125 -12.015625 C 8.769531 -11.984375 9.222656 -11.96875 9.640625 -11.96875 C 10.078125 -11.96875 10.523438 -11.984375 10.984375 -12.015625 L 11.6875 -12.03125 C 11.726562 -12.03125 11.75 -11.988281 11.75 -11.90625 C 11.75 -11.832031 11.726562 -11.796875 11.6875 -11.796875 C 11.019531 -11.796875 10.425781 -11.628906 9.90625 -11.296875 C 9.394531 -10.972656 8.847656 -10.421875 8.265625 -9.640625 L 5.671875 -6.359375 C 6.003906 -6.304688 6.289062 -6.1875 6.53125 -6 C 6.78125 -5.820312 7.019531 -5.582031 7.25 -5.28125 C 7.488281 -4.976562 7.894531 -4.425781 8.46875 -3.625 C 9.070312 -2.769531 9.554688 -2.117188 9.921875 -1.671875 C 10.296875 -1.222656 10.6875 -0.875 11.09375 -0.625 C 11.507812 -0.375 11.96875 -0.242188 12.46875 -0.234375 Z M 12.46875 -0.234375 "></path></g></g></g><g fill="#000000" fill-opacity="1"><g transform="translate(50.769213, 44.007357)"><g><path d="M 15.625 -0.234375 C 15.664062 -0.234375 15.6875 -0.191406 15.6875 -0.109375 C 15.6875 -0.0351562 15.664062 0 15.625 0 C 15.226562 0 14.914062 -0.00390625 14.6875 -0.015625 L 13.359375 -0.03125 L 12.125 -0.015625 C 11.914062 -0.00390625 11.628906 0 11.265625 0 C 11.234375 0 11.21875 -0.0351562 11.21875 -0.109375 C 11.21875 -0.191406 11.234375 -0.234375 11.265625 -0.234375 C 11.703125 -0.234375 12.023438 -0.265625 12.234375 -0.328125 C 12.441406 -0.398438 12.582031 -0.523438 12.65625 -0.703125 C 12.726562 -0.890625 12.75 -1.175781 12.71875 -1.5625 L 12.375 -10.3125 L 7.984375 -0.140625 C 7.960938 -0.0859375 7.910156 -0.0625 7.828125 -0.0625 C 7.765625 -0.0625 7.707031 -0.0859375 7.65625 -0.140625 L 2.921875 -10.203125 L 2.75 -2.09375 C 2.738281 -1.414062 2.851562 -0.9375 3.09375 -0.65625 C 3.34375 -0.375 3.773438 -0.234375 4.390625 -0.234375 C 4.410156 -0.234375 4.421875 -0.191406 4.421875 -0.109375 C 4.421875 -0.0351562 4.410156 0 4.390625 0 C 4.023438 0 3.75 -0.00390625 3.5625 -0.015625 L 2.515625 -0.03125 L 1.515625 -0.015625 C 1.335938 -0.00390625 1.082031 0 0.75 0 C 0.726562 0 0.71875 -0.0351562 0.71875 -0.109375 C 0.71875 -0.191406 0.726562 -0.234375 0.75 -0.234375 C 1.289062 -0.234375 1.675781 -0.375 1.90625 -0.65625 C 2.144531 -0.945312 2.273438 -1.425781 2.296875 -2.09375 L 2.46875 -11.03125 C 2.082031 -11.539062 1.554688 -11.796875 0.890625 -11.796875 C 0.859375 -11.796875 0.84375 -11.832031 0.84375 -11.90625 C 0.84375 -11.988281 0.859375 -12.03125 0.890625 -12.03125 L 1.59375 -12.015625 C 1.726562 -12.003906 1.910156 -12 2.140625 -12 C 2.367188 -12 2.5625 -12.003906 2.71875 -12.015625 C 2.882812 -12.023438 3.007812 -12.03125 3.09375 -12.03125 C 3.257812 -12.03125 3.394531 -11.96875 3.5 -11.84375 C 3.613281 -11.726562 3.773438 -11.457031 3.984375 -11.03125 L 8.28125 -1.984375 L 12.46875 -11.546875 C 12.613281 -11.867188 12.804688 -12.03125 13.046875 -12.03125 C 13.109375 -12.03125 13.203125 -12.023438 13.328125 -12.015625 C 13.453125 -12.003906 13.617188 -12 13.828125 -12 L 14.71875 -12.015625 C 14.863281 -12.023438 15.078125 -12.03125 15.359375 -12.03125 C 15.398438 -12.03125 15.421875 -11.988281 15.421875 -11.90625 C 15.421875 -11.832031 15.398438 -11.796875 15.359375 -11.796875 C 14.722656 -11.796875 14.265625 -11.703125 13.984375 -11.515625 C 13.710938 -11.328125 13.582031 -10.976562 13.59375 -10.46875 L 13.96875 -1.5625 C 13.988281 -1.164062 14.039062 -0.875 14.125 -0.6875 C 14.207031 -0.507812 14.359375 -0.390625 14.578125 -0.328125 C 14.796875 -0.265625 15.144531 -0.234375 15.625 -0.234375 Z M 15.625 -0.234375 "></path></g></g></g><g fill="#000000" fill-opacity="1"><g transform="translate(66.861151, 44.007357)"><g><path d="M 9.140625 -2.875 C 9.140625 -2.894531 9.164062 -2.90625 9.21875 -2.90625 C 9.257812 -2.90625 9.296875 -2.898438 9.328125 -2.890625 C 9.359375 -2.878906 9.375 -2.859375 9.375 -2.828125 C 9.257812 -2.015625 9.203125 -1.164062 9.203125 -0.28125 C 9.203125 -0.1875 9.175781 -0.113281 9.125 -0.0625 C 9.082031 -0.0195312 9.003906 0 8.890625 0 L 0.828125 0 C 0.804688 0 0.796875 -0.0351562 0.796875 -0.109375 C 0.796875 -0.191406 0.804688 -0.234375 0.828125 -0.234375 C 1.316406 -0.234375 1.671875 -0.265625 1.890625 -0.328125 C 2.117188 -0.390625 2.273438 -0.515625 2.359375 -0.703125 C 2.441406 -0.890625 2.484375 -1.175781 2.484375 -1.5625 L 2.484375 -10.46875 C 2.484375 -10.851562 2.441406 -11.132812 2.359375 -11.3125 C 2.273438 -11.5 2.117188 -11.625 1.890625 -11.6875 C 1.671875 -11.757812 1.316406 -11.796875 0.828125 -11.796875 C 0.804688 -11.796875 0.796875 -11.832031 0.796875 -11.90625 C 0.796875 -11.988281 0.804688 -12.03125 0.828125 -12.03125 L 8.5625 -12.03125 C 8.675781 -12.03125 8.734375 -11.972656 8.734375 -11.859375 L 8.78125 -9.484375 C 8.78125 -9.453125 8.742188 -9.429688 8.671875 -9.421875 C 8.609375 -9.410156 8.570312 -9.425781 8.5625 -9.46875 C 8.53125 -10.144531 8.328125 -10.671875 7.953125 -11.046875 C 7.578125 -11.429688 7.082031 -11.625 6.46875 -11.625 L 5.296875 -11.625 C 4.847656 -11.625 4.515625 -11.585938 4.296875 -11.515625 C 4.085938 -11.453125 3.941406 -11.332031 3.859375 -11.15625 C 3.773438 -10.976562 3.734375 -10.71875 3.734375 -10.375 L 3.734375 -6.46875 L 6.078125 -6.46875 C 6.691406 -6.46875 7.128906 -6.566406 7.390625 -6.765625 C 7.660156 -6.972656 7.796875 -7.320312 7.796875 -7.8125 C 7.796875 -7.84375 7.832031 -7.859375 7.90625 -7.859375 C 7.988281 -7.859375 8.03125 -7.84375 8.03125 -7.8125 L 8.015625 -6.25 C 8.015625 -5.882812 8.019531 -5.601562 8.03125 -5.40625 L 8.046875 -4.484375 C 8.046875 -4.460938 8.003906 -4.453125 7.921875 -4.453125 C 7.847656 -4.453125 7.8125 -4.460938 7.8125 -4.484375 C 7.8125 -5.046875 7.671875 -5.445312 7.390625 -5.6875 C 7.117188 -5.9375 6.664062 -6.0625 6.03125 -6.0625 L 3.734375 -6.0625 L 3.734375 -1.640625 C 3.734375 -1.273438 3.769531 -1.007812 3.84375 -0.84375 C 3.925781 -0.675781 4.066406 -0.5625 4.265625 -0.5 C 4.472656 -0.4375 4.796875 -0.40625 5.234375 -0.40625 L 6.78125 -0.40625 C 7.394531 -0.40625 7.90625 -0.625 8.3125 -1.0625 C 8.726562 -1.5 9.003906 -2.101562 9.140625 -2.875 Z M 9.140625 -2.875 "></path></g></g></g><g fill="#000000" fill-opacity="1"><g transform="translate(77.197724, 44.007357)"><g><path d="M 13.90625 -0.234375 C 13.9375 -0.234375 13.953125 -0.191406 13.953125 -0.109375 C 13.953125 -0.0351562 13.9375 0 13.90625 0 C 13.5 0 13.179688 -0.00390625 12.953125 -0.015625 L 11.625 -0.03125 L 10.203125 -0.015625 C 9.984375 -0.00390625 9.679688 0 9.296875 0 C 9.253906 0 9.234375 -0.0351562 9.234375 -0.109375 C 9.234375 -0.191406 9.253906 -0.234375 9.296875 -0.234375 C 9.796875 -0.234375 10.160156 -0.265625 10.390625 -0.328125 C 10.617188 -0.390625 10.773438 -0.515625 10.859375 -0.703125 C 10.941406 -0.890625 10.984375 -1.175781 10.984375 -1.5625 L 10.984375 -6.0625 L 3.59375 -6.0625 L 3.59375 -1.5625 C 3.59375 -1.175781 3.632812 -0.890625 3.71875 -0.703125 C 3.800781 -0.515625 3.957031 -0.390625 4.1875 -0.328125 C 4.425781 -0.265625 4.796875 -0.234375 5.296875 -0.234375 C 5.316406 -0.234375 5.328125 -0.191406 5.328125 -0.109375 C 5.328125 -0.0351562 5.316406 0 5.296875 0 C 4.898438 0 4.582031 -0.00390625 4.34375 -0.015625 L 2.96875 -0.03125 L 1.640625 -0.015625 C 1.410156 -0.00390625 1.085938 0 0.671875 0 C 0.648438 0 0.640625 -0.0351562 0.640625 -0.109375 C 0.640625 -0.191406 0.648438 -0.234375 0.671875 -0.234375 C 1.160156 -0.234375 1.523438 -0.265625 1.765625 -0.328125 C 2.003906 -0.390625 2.164062 -0.515625 2.25 -0.703125 C 2.332031 -0.890625 2.375 -1.175781 2.375 -1.5625 L 2.375 -10.46875 C 2.375 -10.851562 2.332031 -11.132812 2.25 -11.3125 C 2.164062 -11.5 2.003906 -11.625 1.765625 -11.6875 C 1.535156 -11.757812 1.175781 -11.796875 0.6875 -11.796875 C 0.664062 -11.796875 0.65625 -11.832031 0.65625 -11.90625 C 0.65625 -11.988281 0.664062 -12.03125 0.6875 -12.03125 L 1.671875 -12.015625 C 2.210938 -11.984375 2.644531 -11.96875 2.96875 -11.96875 C 3.332031 -11.96875 3.800781 -11.984375 4.375 -12.015625 L 5.296875 -12.03125 C 5.316406 -12.03125 5.328125 -11.988281 5.328125 -11.90625 C 5.328125 -11.832031 5.316406 -11.796875 5.296875 -11.796875 C 4.804688 -11.796875 4.441406 -11.753906 4.203125 -11.671875 C 3.960938 -11.597656 3.800781 -11.46875 3.71875 -11.28125 C 3.632812 -11.101562 3.59375 -10.820312 3.59375 -10.4375 L 3.59375 -6.46875 L 10.984375 -6.46875 L 10.984375 -10.4375 C 10.984375 -10.820312 10.941406 -11.101562 10.859375 -11.28125 C 10.773438 -11.46875 10.617188 -11.597656 10.390625 -11.671875 C 10.160156 -11.753906 9.796875 -11.796875 9.296875 -11.796875 C 9.253906 -11.796875 9.234375 -11.832031 9.234375 -11.90625 C 9.234375 -11.988281 9.253906 -12.03125 9.296875 -12.03125 L 10.203125 -12.015625 C 10.765625 -11.984375 11.238281 -11.96875 11.625 -11.96875 C 11.96875 -11.96875 12.410156 -11.984375 12.953125 -12.015625 L 13.90625 -12.03125 C 13.9375 -12.03125 13.953125 -11.988281 13.953125 -11.90625 C 13.953125 -11.832031 13.9375 -11.796875 13.90625 -11.796875 C 13.414062 -11.796875 13.050781 -11.757812 12.8125 -11.6875 C 12.582031 -11.625 12.425781 -11.5 12.34375 -11.3125 C 12.257812 -11.132812 12.21875 -10.851562 12.21875 -10.46875 L 12.21875 -1.5625 C 12.21875 -1.175781 12.257812 -0.890625 12.34375 -0.703125 C 12.425781 -0.515625 12.582031 -0.390625 12.8125 -0.328125 C 13.050781 -0.265625 13.414062 -0.234375 13.90625 -0.234375 Z M 13.90625 -0.234375 "></path></g></g></g><g fill="#000000" fill-opacity="1"><g transform="translate(91.807511, 44.007357)"><g><path d="M 9.140625 -2.875 C 9.140625 -2.894531 9.164062 -2.90625 9.21875 -2.90625 C 9.257812 -2.90625 9.296875 -2.898438 9.328125 -2.890625 C 9.359375 -2.878906 9.375 -2.859375 9.375 -2.828125 C 9.257812 -2.015625 9.203125 -1.164062 9.203125 -0.28125 C 9.203125 -0.1875 9.175781 -0.113281 9.125 -0.0625 C 9.082031 -0.0195312 9.003906 0 8.890625 0 L 0.828125 0 C 0.804688 0 0.796875 -0.0351562 0.796875 -0.109375 C 0.796875 -0.191406 0.804688 -0.234375 0.828125 -0.234375 C 1.316406 -0.234375 1.671875 -0.265625 1.890625 -0.328125 C 2.117188 -0.390625 2.273438 -0.515625 2.359375 -0.703125 C 2.441406 -0.890625 2.484375 -1.175781 2.484375 -1.5625 L 2.484375 -10.46875 C 2.484375 -10.851562 2.441406 -11.132812 2.359375 -11.3125 C 2.273438 -11.5 2.117188 -11.625 1.890625 -11.6875 C 1.671875 -11.757812 1.316406 -11.796875 0.828125 -11.796875 C 0.804688 -11.796875 0.796875 -11.832031 0.796875 -11.90625 C 0.796875 -11.988281 0.804688 -12.03125 0.828125 -12.03125 L 8.5625 -12.03125 C 8.675781 -12.03125 8.734375 -11.972656 8.734375 -11.859375 L 8.78125 -9.484375 C 8.78125 -9.453125 8.742188 -9.429688 8.671875 -9.421875 C 8.609375 -9.410156 8.570312 -9.425781 8.5625 -9.46875 C 8.53125 -10.144531 8.328125 -10.671875 7.953125 -11.046875 C 7.578125 -11.429688 7.082031 -11.625 6.46875 -11.625 L 5.296875 -11.625 C 4.847656 -11.625 4.515625 -11.585938 4.296875 -11.515625 C 4.085938 -11.453125 3.941406 -11.332031 3.859375 -11.15625 C 3.773438 -10.976562 3.734375 -10.71875 3.734375 -10.375 L 3.734375 -6.46875 L 6.078125 -6.46875 C 6.691406 -6.46875 7.128906 -6.566406 7.390625 -6.765625 C 7.660156 -6.972656 7.796875 -7.320312 7.796875 -7.8125 C 7.796875 -7.84375 7.832031 -7.859375 7.90625 -7.859375 C 7.988281 -7.859375 8.03125 -7.84375 8.03125 -7.8125 L 8.015625 -6.25 C 8.015625 -5.882812 8.019531 -5.601562 8.03125 -5.40625 L 8.046875 -4.484375 C 8.046875 -4.460938 8.003906 -4.453125 7.921875 -4.453125 C 7.847656 -4.453125 7.8125 -4.460938 7.8125 -4.484375 C 7.8125 -5.046875 7.671875 -5.445312 7.390625 -5.6875 C 7.117188 -5.9375 6.664062 -6.0625 6.03125 -6.0625 L 3.734375 -6.0625 L 3.734375 -1.640625 C 3.734375 -1.273438 3.769531 -1.007812 3.84375 -0.84375 C 3.925781 -0.675781 4.066406 -0.5625 4.265625 -0.5 C 4.472656 -0.4375 4.796875 -0.40625 5.234375 -0.40625 L 6.78125 -0.40625 C 7.394531 -0.40625 7.90625 -0.625 8.3125 -1.0625 C 8.726562 -1.5 9.003906 -2.101562 9.140625 -2.875 Z M 9.140625 -2.875 "></path></g></g></g><g fill="#000000" fill-opacity="1"><g transform="translate(102.144083, 44.007357)"><g><path d="M 13.90625 -0.234375 C 13.9375 -0.234375 13.953125 -0.191406 13.953125 -0.109375 C 13.953125 -0.0351562 13.9375 0 13.90625 0 C 13.5 0 13.179688 -0.00390625 12.953125 -0.015625 L 11.625 -0.03125 L 10.203125 -0.015625 C 9.984375 -0.00390625 9.679688 0 9.296875 0 C 9.253906 0 9.234375 -0.0351562 9.234375 -0.109375 C 9.234375 -0.191406 9.253906 -0.234375 9.296875 -0.234375 C 9.796875 -0.234375 10.160156 -0.265625 10.390625 -0.328125 C 10.617188 -0.390625 10.773438 -0.515625 10.859375 -0.703125 C 10.941406 -0.890625 10.984375 -1.175781 10.984375 -1.5625 L 10.984375 -6.0625 L 3.59375 -6.0625 L 3.59375 -1.5625 C 3.59375 -1.175781 3.632812 -0.890625 3.71875 -0.703125 C 3.800781 -0.515625 3.957031 -0.390625 4.1875 -0.328125 C 4.425781 -0.265625 4.796875 -0.234375 5.296875 -0.234375 C 5.316406 -0.234375 5.328125 -0.191406 5.328125 -0.109375 C 5.328125 -0.0351562 5.316406 0 5.296875 0 C 4.898438 0 4.582031 -0.00390625 4.34375 -0.015625 L 2.96875 -0.03125 L 1.640625 -0.015625 C 1.410156 -0.00390625 1.085938 0 0.671875 0 C 0.648438 0 0.640625 -0.0351562 0.640625 -0.109375 C 0.640625 -0.191406 0.648438 -0.234375 0.671875 -0.234375 C 1.160156 -0.234375 1.523438 -0.265625 1.765625 -0.328125 C 2.003906 -0.390625 2.164062 -0.515625 2.25 -0.703125 C 2.332031 -0.890625 2.375 -1.175781 2.375 -1.5625 L 2.375 -10.46875 C 2.375 -10.851562 2.332031 -11.132812 2.25 -11.3125 C 2.164062 -11.5 2.003906 -11.625 1.765625 -11.6875 C 1.535156 -11.757812 1.175781 -11.796875 0.6875 -11.796875 C 0.664062 -11.796875 0.65625 -11.832031 0.65625 -11.90625 C 0.65625 -11.988281 0.664062 -12.03125 0.6875 -12.03125 L 1.671875 -12.015625 C 2.210938 -11.984375 2.644531 -11.96875 2.96875 -11.96875 C 3.332031 -11.96875 3.800781 -11.984375 4.375 -12.015625 L 5.296875 -12.03125 C 5.316406 -12.03125 5.328125 -11.988281 5.328125 -11.90625 C 5.328125 -11.832031 5.316406 -11.796875 5.296875 -11.796875 C 4.804688 -11.796875 4.441406 -11.753906 4.203125 -11.671875 C 3.960938 -11.597656 3.800781 -11.46875 3.71875 -11.28125 C 3.632812 -11.101562 3.59375 -10.820312 3.59375 -10.4375 L 3.59375 -6.46875 L 10.984375 -6.46875 L 10.984375 -10.4375 C 10.984375 -10.820312 10.941406 -11.101562 10.859375 -11.28125 C 10.773438 -11.46875 10.617188 -11.597656 10.390625 -11.671875 C 10.160156 -11.753906 9.796875 -11.796875 9.296875 -11.796875 C 9.253906 -11.796875 9.234375 -11.832031 9.234375 -11.90625 C 9.234375 -11.988281 9.253906 -12.03125 9.296875 -12.03125 L 10.203125 -12.015625 C 10.765625 -11.984375 11.238281 -11.96875 11.625 -11.96875 C 11.96875 -11.96875 12.410156 -11.984375 12.953125 -12.015625 L 13.90625 -12.03125 C 13.9375 -12.03125 13.953125 -11.988281 13.953125 -11.90625 C 13.953125 -11.832031 13.9375 -11.796875 13.90625 -11.796875 C 13.414062 -11.796875 13.050781 -11.757812 12.8125 -11.6875 C 12.582031 -11.625 12.425781 -11.5 12.34375 -11.3125 C 12.257812 -11.132812 12.21875 -10.851562 12.21875 -10.46875 L 12.21875 -1.5625 C 12.21875 -1.175781 12.257812 -0.890625 12.34375 -0.703125 C 12.425781 -0.515625 12.582031 -0.390625 12.8125 -0.328125 C 13.050781 -0.265625 13.414062 -0.234375 13.90625 -0.234375 Z M 13.90625 -0.234375 "></path></g></g></g><g fill="#000000" fill-opacity="1"><g transform="translate(116.75387, 44.007357)"><g></g></g></g><g fill="#000000" fill-opacity="1"><g transform="translate(121.258075, 44.007357)"><g><path d="M 12.46875 -0.234375 C 12.5 -0.234375 12.515625 -0.191406 12.515625 -0.109375 C 12.515625 -0.0351562 12.5 0 12.46875 0 L 10.046875 0 C 9.867188 0 9.710938 -0.046875 9.578125 -0.140625 C 9.441406 -0.234375 9.21875 -0.484375 8.90625 -0.890625 C 8.601562 -1.304688 8.050781 -2.085938 7.25 -3.234375 C 6.625 -4.128906 6.171875 -4.75 5.890625 -5.09375 C 5.609375 -5.445312 5.316406 -5.695312 5.015625 -5.84375 C 4.722656 -5.988281 4.328125 -6.0625 3.828125 -6.0625 C 3.710938 -6.0625 3.628906 -6.054688 3.578125 -6.046875 L 3.578125 -1.5625 C 3.578125 -1.175781 3.617188 -0.890625 3.703125 -0.703125 C 3.785156 -0.515625 3.9375 -0.390625 4.15625 -0.328125 C 4.382812 -0.265625 4.75 -0.234375 5.25 -0.234375 C 5.28125 -0.234375 5.296875 -0.191406 5.296875 -0.109375 C 5.296875 -0.0351562 5.28125 0 5.25 0 C 4.851562 0 4.539062 -0.00390625 4.3125 -0.015625 L 2.921875 -0.03125 L 1.609375 -0.015625 C 1.378906 -0.00390625 1.0625 0 0.65625 0 C 0.625 0 0.609375 -0.0351562 0.609375 -0.109375 C 0.609375 -0.191406 0.625 -0.234375 0.65625 -0.234375 C 1.144531 -0.234375 1.503906 -0.265625 1.734375 -0.328125 C 1.960938 -0.390625 2.117188 -0.515625 2.203125 -0.703125 C 2.285156 -0.890625 2.328125 -1.175781 2.328125 -1.5625 L 2.328125 -10.46875 C 2.328125 -10.851562 2.285156 -11.132812 2.203125 -11.3125 C 2.117188 -11.5 1.960938 -11.625 1.734375 -11.6875 C 1.515625 -11.757812 1.160156 -11.796875 0.671875 -11.796875 C 0.648438 -11.796875 0.640625 -11.832031 0.640625 -11.90625 C 0.640625 -11.988281 0.648438 -12.03125 0.671875 -12.03125 L 1.609375 -12.015625 C 2.148438 -11.984375 2.585938 -11.96875 2.921875 -11.96875 C 3.296875 -11.96875 3.765625 -11.984375 4.328125 -12.015625 L 5.25 -12.03125 C 5.28125 -12.03125 5.296875 -11.988281 5.296875 -11.90625 C 5.296875 -11.832031 5.28125 -11.796875 5.25 -11.796875 C 4.769531 -11.796875 4.410156 -11.753906 4.171875 -11.671875 C 3.941406 -11.597656 3.785156 -11.46875 3.703125 -11.28125 C 3.617188 -11.101562 3.578125 -10.820312 3.578125 -10.4375 L 3.578125 -6.375 C 4.273438 -6.394531 4.707031 -6.40625 4.875 -6.40625 L 5.234375 -6.40625 L 7.5625 -9.65625 C 8.144531 -10.457031 8.4375 -11.007812 8.4375 -11.3125 C 8.4375 -11.476562 8.351562 -11.597656 8.1875 -11.671875 C 8.03125 -11.753906 7.785156 -11.796875 7.453125 -11.796875 C 7.421875 -11.796875 7.40625 -11.832031 7.40625 -11.90625 C 7.40625 -11.988281 7.421875 -12.03125 7.453125 -12.03125 L 8.28125 -12.015625 C 8.769531 -11.984375 9.222656 -11.96875 9.640625 -11.96875 C 10.078125 -11.96875 10.523438 -11.984375 10.984375 -12.015625 L 11.6875 -12.03125 C 11.726562 -12.03125 11.75 -11.988281 11.75 -11.90625 C 11.75 -11.832031 11.726562 -11.796875 11.6875 -11.796875 C 11.019531 -11.796875 10.425781 -11.628906 9.90625 -11.296875 C 9.394531 -10.972656 8.847656 -10.421875 8.265625 -9.640625 L 5.671875 -6.359375 C 6.003906 -6.304688 6.289062 -6.1875 6.53125 -6 C 6.78125 -5.820312 7.019531 -5.582031 7.25 -5.28125 C 7.488281 -4.976562 7.894531 -4.425781 8.46875 -3.625 C 9.070312 -2.769531 9.554688 -2.117188 9.921875 -1.671875 C 10.296875 -1.222656 10.6875 -0.875 11.09375 -0.625 C 11.507812 -0.375 11.96875 -0.242188 12.46875 -0.234375 Z M 12.46875 -0.234375 "></path></g></g></g><g fill="#000000" fill-opacity="1"><g transform="translate(133.904489, 44.007357)"><g><path d="M 11.8125 -12.03125 C 11.84375 -12.03125 11.859375 -11.988281 11.859375 -11.90625 C 11.859375 -11.832031 11.84375 -11.796875 11.8125 -11.796875 C 11.351562 -11.796875 10.882812 -11.625 10.40625 -11.28125 C 9.9375 -10.945312 9.515625 -10.484375 9.140625 -9.890625 L 6.5625 -5.921875 L 6.5625 -1.5625 C 6.5625 -1.164062 6.597656 -0.875 6.671875 -0.6875 C 6.753906 -0.507812 6.90625 -0.390625 7.125 -0.328125 C 7.351562 -0.265625 7.710938 -0.234375 8.203125 -0.234375 C 8.242188 -0.234375 8.265625 -0.191406 8.265625 -0.109375 C 8.265625 -0.0351562 8.242188 0 8.203125 0 C 7.804688 0 7.5 -0.00390625 7.28125 -0.015625 L 5.921875 -0.03125 L 4.59375 -0.015625 C 4.363281 -0.00390625 4.050781 0 3.65625 0 C 3.613281 0 3.59375 -0.0351562 3.59375 -0.109375 C 3.59375 -0.191406 3.613281 -0.234375 3.65625 -0.234375 C 4.144531 -0.234375 4.5 -0.265625 4.71875 -0.328125 C 4.945312 -0.390625 5.101562 -0.515625 5.1875 -0.703125 C 5.269531 -0.890625 5.3125 -1.175781 5.3125 -1.5625 L 5.3125 -5.625 L 2.125 -10.296875 C 1.757812 -10.859375 1.414062 -11.25 1.09375 -11.46875 C 0.769531 -11.6875 0.398438 -11.796875 -0.015625 -11.796875 C -0.0546875 -11.796875 -0.078125 -11.832031 -0.078125 -11.90625 C -0.078125 -11.988281 -0.0546875 -12.03125 -0.015625 -12.03125 C 0.140625 -12.03125 0.367188 -12.019531 0.671875 -12 L 1.34375 -11.96875 C 1.78125 -11.96875 2.332031 -11.984375 3 -12.015625 L 4.046875 -12.03125 C 4.066406 -12.03125 4.078125 -11.988281 4.078125 -11.90625 C 4.078125 -11.832031 4.066406 -11.796875 4.046875 -11.796875 C 3.378906 -11.796875 3.046875 -11.660156 3.046875 -11.390625 C 3.046875 -11.253906 3.109375 -11.097656 3.234375 -10.921875 L 6.328125 -6.375 L 8.6875 -9.96875 C 8.96875 -10.414062 9.109375 -10.796875 9.109375 -11.109375 C 9.109375 -11.566406 8.757812 -11.796875 8.0625 -11.796875 C 8.039062 -11.796875 8.03125 -11.832031 8.03125 -11.90625 C 8.03125 -11.988281 8.039062 -12.03125 8.0625 -12.03125 L 8.96875 -12.015625 C 9.457031 -11.984375 9.90625 -11.96875 10.3125 -11.96875 C 10.53125 -11.96875 10.796875 -11.984375 11.109375 -12.015625 Z M 11.8125 -12.03125 "></path></g></g></g><g fill="#000000" fill-opacity="1"><g transform="translate(145.626968, 44.007357)"><g><path d="M 3.640625 -11.6875 C 2.828125 -11.6875 2.21875 -11.476562 1.8125 -11.0625 C 1.414062 -10.65625 1.125 -9.957031 0.9375 -8.96875 C 0.9375 -8.945312 0.898438 -8.9375 0.828125 -8.9375 C 0.765625 -8.9375 0.734375 -8.945312 0.734375 -8.96875 C 0.785156 -9.425781 0.84375 -10.023438 0.90625 -10.765625 C 0.96875 -11.515625 1 -12.078125 1 -12.453125 C 1 -12.515625 1.035156 -12.546875 1.109375 -12.546875 C 1.179688 -12.546875 1.21875 -12.515625 1.21875 -12.453125 C 1.21875 -12.171875 1.5625 -12.03125 2.25 -12.03125 C 3.34375 -11.988281 4.632812 -11.96875 6.125 -11.96875 C 6.875 -11.96875 7.675781 -11.984375 8.53125 -12.015625 L 9.84375 -12.03125 C 10.300781 -12.03125 10.640625 -12.0625 10.859375 -12.125 C 11.085938 -12.1875 11.234375 -12.316406 11.296875 -12.515625 C 11.304688 -12.566406 11.34375 -12.59375 11.40625 -12.59375 C 11.476562 -12.59375 11.515625 -12.566406 11.515625 -12.515625 C 11.472656 -12.140625 11.429688 -11.570312 11.390625 -10.8125 C 11.359375 -10.0625 11.34375 -9.445312 11.34375 -8.96875 C 11.34375 -8.945312 11.300781 -8.9375 11.21875 -8.9375 C 11.144531 -8.9375 11.109375 -8.945312 11.109375 -8.96875 C 11.066406 -9.96875 10.859375 -10.671875 10.484375 -11.078125 C 10.117188 -11.484375 9.503906 -11.6875 8.640625 -11.6875 C 8.066406 -11.6875 7.65625 -11.660156 7.40625 -11.609375 C 7.164062 -11.554688 7 -11.445312 6.90625 -11.28125 C 6.820312 -11.113281 6.78125 -10.832031 6.78125 -10.4375 L 6.78125 -1.5625 C 6.78125 -1.164062 6.820312 -0.875 6.90625 -0.6875 C 7 -0.507812 7.171875 -0.390625 7.421875 -0.328125 C 7.679688 -0.265625 8.085938 -0.234375 8.640625 -0.234375 C 8.679688 -0.234375 8.703125 -0.191406 8.703125 -0.109375 C 8.703125 -0.0351562 8.679688 0 8.640625 0 C 8.222656 0 7.882812 -0.00390625 7.625 -0.015625 L 6.125 -0.03125 L 4.671875 -0.015625 C 4.421875 -0.00390625 4.070312 0 3.625 0 C 3.59375 0 3.578125 -0.0351562 3.578125 -0.109375 C 3.578125 -0.191406 3.59375 -0.234375 3.625 -0.234375 C 4.175781 -0.234375 4.578125 -0.265625 4.828125 -0.328125 C 5.085938 -0.390625 5.265625 -0.515625 5.359375 -0.703125 C 5.453125 -0.890625 5.5 -1.175781 5.5 -1.5625 L 5.5 -10.46875 C 5.5 -10.863281 5.453125 -11.140625 5.359375 -11.296875 C 5.273438 -11.460938 5.109375 -11.566406 4.859375 -11.609375 C 4.617188 -11.660156 4.210938 -11.6875 3.640625 -11.6875 Z M 3.640625 -11.6875 "></path></g></g></g><g fill="#000000" fill-opacity="1"><g transform="translate(157.58032, 44.007357)"><g><path d="M 7.71875 -12.25 C 8.9375 -12.25 10.003906 -11.960938 10.921875 -11.390625 C 11.847656 -10.816406 12.554688 -10.0625 13.046875 -9.125 C 13.546875 -8.1875 13.796875 -7.191406 13.796875 -6.140625 C 13.796875 -4.972656 13.488281 -3.898438 12.875 -2.921875 C 12.257812 -1.953125 11.4375 -1.179688 10.40625 -0.609375 C 9.375 -0.046875 8.253906 0.234375 7.046875 0.234375 C 5.847656 0.234375 4.785156 -0.0390625 3.859375 -0.59375 C 2.929688 -1.15625 2.210938 -1.914062 1.703125 -2.875 C 1.191406 -3.832031 0.9375 -4.875 0.9375 -6 C 0.9375 -7.320312 1.269531 -8.453125 1.9375 -9.390625 C 2.601562 -10.335938 3.457031 -11.050781 4.5 -11.53125 C 5.550781 -12.007812 6.625 -12.25 7.71875 -12.25 Z M 6.90625 -11.796875 C 5.5 -11.796875 4.394531 -11.335938 3.59375 -10.421875 C 2.800781 -9.515625 2.40625 -8.269531 2.40625 -6.6875 L 2.40625 -6.453125 L 12.296875 -6.453125 C 12.191406 -7.503906 11.90625 -8.429688 11.4375 -9.234375 C 10.96875 -10.046875 10.34375 -10.675781 9.5625 -11.125 C 8.789062 -11.570312 7.90625 -11.796875 6.90625 -11.796875 Z M 7.71875 -0.171875 C 8.59375 -0.171875 9.378906 -0.378906 10.078125 -0.796875 C 10.773438 -1.222656 11.328125 -1.847656 11.734375 -2.671875 C 12.140625 -3.492188 12.34375 -4.472656 12.34375 -5.609375 C 12.34375 -5.796875 12.332031 -5.941406 12.3125 -6.046875 L 2.421875 -6.046875 C 2.503906 -4.941406 2.78125 -3.941406 3.25 -3.046875 C 3.71875 -2.160156 4.335938 -1.457031 5.109375 -0.9375 C 5.890625 -0.425781 6.757812 -0.171875 7.71875 -0.171875 Z M 7.71875 -0.171875 "></path></g></g></g><g fill="#000000" fill-opacity="1"><g transform="translate(172.324844, 44.007357)"><g><path d="M 5.3125 -6.796875 C 8.289062 -6.796875 9.78125 -5.738281 9.78125 -3.625 C 9.78125 -2.90625 9.613281 -2.257812 9.28125 -1.6875 C 8.957031 -1.125 8.5 -0.6875 7.90625 -0.375 C 7.320312 -0.0703125 6.648438 0.078125 5.890625 0.078125 C 5.546875 0.078125 5.140625 0.0546875 4.671875 0.015625 C 4.484375 0.00390625 4.253906 -0.00390625 3.984375 -0.015625 C 3.710938 -0.0234375 3.425781 -0.03125 3.125 -0.03125 L 1.8125 -0.015625 C 1.582031 -0.00390625 1.253906 0 0.828125 0 C 0.804688 0 0.796875 -0.0351562 0.796875 -0.109375 C 0.796875 -0.191406 0.804688 -0.234375 0.828125 -0.234375 C 1.316406 -0.234375 1.675781 -0.265625 1.90625 -0.328125 C 2.132812 -0.390625 2.289062 -0.515625 2.375 -0.703125 C 2.457031 -0.890625 2.5 -1.175781 2.5 -1.5625 L 2.5 -10.46875 C 2.5 -10.851562 2.457031 -11.132812 2.375 -11.3125 C 2.300781 -11.5 2.148438 -11.625 1.921875 -11.6875 C 1.703125 -11.757812 1.347656 -11.796875 0.859375 -11.796875 C 0.828125 -11.796875 0.8125 -11.832031 0.8125 -11.90625 C 0.8125 -11.988281 0.828125 -12.03125 0.859375 -12.03125 L 8.453125 -12.03125 C 8.523438 -12.03125 8.570312 -12.015625 8.59375 -11.984375 C 8.625 -11.953125 8.644531 -11.890625 8.65625 -11.796875 L 8.90625 -9.34375 C 8.90625 -9.300781 8.875 -9.28125 8.8125 -9.28125 C 8.75 -9.28125 8.707031 -9.300781 8.6875 -9.34375 C 8.550781 -10.0625 8.28125 -10.625 7.875 -11.03125 C 7.476562 -11.4375 6.984375 -11.640625 6.390625 -11.640625 L 5.296875 -11.640625 C 4.847656 -11.640625 4.515625 -11.601562 4.296875 -11.53125 C 4.085938 -11.46875 3.941406 -11.347656 3.859375 -11.171875 C 3.785156 -11.003906 3.75 -10.734375 3.75 -10.359375 L 3.75 -6.703125 C 4.351562 -6.765625 4.875 -6.796875 5.3125 -6.796875 Z M 5.5 -0.265625 C 6.53125 -0.265625 7.273438 -0.5 7.734375 -0.96875 C 8.203125 -1.4375 8.4375 -2.15625 8.4375 -3.125 C 8.4375 -4.300781 8.125 -5.140625 7.5 -5.640625 C 6.882812 -6.148438 6.007812 -6.40625 4.875 -6.40625 C 4.476562 -6.40625 4.101562 -6.378906 3.75 -6.328125 L 3.75 -1.5625 C 3.75 -1.113281 3.863281 -0.785156 4.09375 -0.578125 C 4.332031 -0.367188 4.800781 -0.265625 5.5 -0.265625 Z M 5.5 -0.265625 "></path></g></g></g><g fill="#000000" fill-opacity="1"><g transform="translate(183.065636, 44.007357)"><g><path d="M 11.8125 -12.03125 C 11.84375 -12.03125 11.859375 -11.988281 11.859375 -11.90625 C 11.859375 -11.832031 11.84375 -11.796875 11.8125 -11.796875 C 11.351562 -11.796875 10.882812 -11.625 10.40625 -11.28125 C 9.9375 -10.945312 9.515625 -10.484375 9.140625 -9.890625 L 6.5625 -5.921875 L 6.5625 -1.5625 C 6.5625 -1.164062 6.597656 -0.875 6.671875 -0.6875 C 6.753906 -0.507812 6.90625 -0.390625 7.125 -0.328125 C 7.351562 -0.265625 7.710938 -0.234375 8.203125 -0.234375 C 8.242188 -0.234375 8.265625 -0.191406 8.265625 -0.109375 C 8.265625 -0.0351562 8.242188 0 8.203125 0 C 7.804688 0 7.5 -0.00390625 7.28125 -0.015625 L 5.921875 -0.03125 L 4.59375 -0.015625 C 4.363281 -0.00390625 4.050781 0 3.65625 0 C 3.613281 0 3.59375 -0.0351562 3.59375 -0.109375 C 3.59375 -0.191406 3.613281 -0.234375 3.65625 -0.234375 C 4.144531 -0.234375 4.5 -0.265625 4.71875 -0.328125 C 4.945312 -0.390625 5.101562 -0.515625 5.1875 -0.703125 C 5.269531 -0.890625 5.3125 -1.175781 5.3125 -1.5625 L 5.3125 -5.625 L 2.125 -10.296875 C 1.757812 -10.859375 1.414062 -11.25 1.09375 -11.46875 C 0.769531 -11.6875 0.398438 -11.796875 -0.015625 -11.796875 C -0.0546875 -11.796875 -0.078125 -11.832031 -0.078125 -11.90625 C -0.078125 -11.988281 -0.0546875 -12.03125 -0.015625 -12.03125 C 0.140625 -12.03125 0.367188 -12.019531 0.671875 -12 L 1.34375 -11.96875 C 1.78125 -11.96875 2.332031 -11.984375 3 -12.015625 L 4.046875 -12.03125 C 4.066406 -12.03125 4.078125 -11.988281 4.078125 -11.90625 C 4.078125 -11.832031 4.066406 -11.796875 4.046875 -11.796875 C 3.378906 -11.796875 3.046875 -11.660156 3.046875 -11.390625 C 3.046875 -11.253906 3.109375 -11.097656 3.234375 -10.921875 L 6.328125 -6.375 L 8.6875 -9.96875 C 8.96875 -10.414062 9.109375 -10.796875 9.109375 -11.109375 C 9.109375 -11.566406 8.757812 -11.796875 8.0625 -11.796875 C 8.039062 -11.796875 8.03125 -11.832031 8.03125 -11.90625 C 8.03125 -11.988281 8.039062 -12.03125 8.0625 -12.03125 L 8.96875 -12.015625 C 9.457031 -11.984375 9.90625 -11.96875 10.3125 -11.96875 C 10.53125 -11.96875 10.796875 -11.984375 11.109375 -12.015625 Z M 11.8125 -12.03125 "></path></g></g></g><g fill="#000000" fill-opacity="1"><g transform="translate(194.788115, 44.007357)"><g><path d="M 5.703125 -6.46875 C 6.597656 -6.40625 7.320312 -6.097656 7.875 -5.546875 C 8.4375 -4.992188 8.71875 -4.296875 8.71875 -3.453125 C 8.71875 -2.742188 8.519531 -2.109375 8.125 -1.546875 C 7.738281 -0.992188 7.210938 -0.554688 6.546875 -0.234375 C 5.878906 0.078125 5.140625 0.234375 4.328125 0.234375 C 3.804688 0.234375 3.289062 0.164062 2.78125 0.03125 C 2.269531 -0.09375 1.875 -0.269531 1.59375 -0.5 C 1.476562 -0.5625 1.40625 -0.613281 1.375 -0.65625 C 1.351562 -0.707031 1.335938 -0.800781 1.328125 -0.9375 L 1.09375 -3.078125 C 1.09375 -3.117188 1.128906 -3.144531 1.203125 -3.15625 C 1.273438 -3.164062 1.316406 -3.15625 1.328125 -3.125 C 1.503906 -2.082031 1.921875 -1.3125 2.578125 -0.8125 C 3.234375 -0.320312 3.953125 -0.078125 4.734375 -0.078125 C 5.597656 -0.078125 6.238281 -0.363281 6.65625 -0.9375 C 7.070312 -1.519531 7.28125 -2.238281 7.28125 -3.09375 C 7.28125 -4.132812 6.988281 -4.921875 6.40625 -5.453125 C 5.820312 -5.984375 4.976562 -6.25 3.875 -6.25 C 3.820312 -6.25 3.796875 -6.285156 3.796875 -6.359375 C 3.796875 -6.441406 3.820312 -6.484375 3.875 -6.484375 C 4.875 -6.484375 5.625 -6.726562 6.125 -7.21875 C 6.632812 -7.707031 6.890625 -8.375 6.890625 -9.21875 C 6.890625 -10.0625 6.675781 -10.734375 6.25 -11.234375 C 5.832031 -11.742188 5.269531 -12 4.5625 -12 C 3.894531 -12 3.300781 -11.75 2.78125 -11.25 C 2.257812 -10.757812 1.867188 -10.03125 1.609375 -9.0625 C 1.609375 -9.039062 1.585938 -9.03125 1.546875 -9.03125 C 1.515625 -9.03125 1.484375 -9.039062 1.453125 -9.0625 C 1.421875 -9.082031 1.40625 -9.097656 1.40625 -9.109375 L 1.671875 -11.28125 C 1.703125 -11.4375 1.726562 -11.539062 1.75 -11.59375 C 1.78125 -11.644531 1.851562 -11.6875 1.96875 -11.71875 C 2.957031 -12.070312 3.90625 -12.25 4.8125 -12.25 C 5.90625 -12.25 6.742188 -11.992188 7.328125 -11.484375 C 7.910156 -10.984375 8.203125 -10.363281 8.203125 -9.625 C 8.203125 -8.914062 7.945312 -8.269531 7.4375 -7.6875 C 6.9375 -7.101562 6.359375 -6.695312 5.703125 -6.46875 Z M 5.703125 -6.46875 "></path></g></g></g><g fill="#000000" fill-opacity="1"><g transform="translate(204.450976, 44.007357)"><g><path d="M 1.5 -11.9375 C 1.488281 -11.988281 1.578125 -12.03125 1.765625 -12.0625 C 1.960938 -12.09375 2.171875 -12.109375 2.390625 -12.109375 C 2.609375 -12.109375 2.8125 -12.09375 3 -12.0625 C 3.195312 -12.03125 3.28125 -11.988281 3.25 -11.9375 C 3.039062 -10.832031 2.882812 -9.648438 2.78125 -8.390625 C 2.6875 -7.128906 2.585938 -5.546875 2.484375 -3.640625 C 2.484375 -3.597656 2.4375 -3.578125 2.34375 -3.578125 C 2.238281 -3.578125 2.1875 -3.597656 2.1875 -3.640625 C 2.125 -5.378906 2.046875 -6.914062 1.953125 -8.25 C 1.859375 -9.59375 1.707031 -10.820312 1.5 -11.9375 Z M 2.296875 0.21875 C 2.035156 0.21875 1.828125 0.140625 1.671875 -0.015625 C 1.515625 -0.171875 1.4375 -0.378906 1.4375 -0.640625 C 1.4375 -0.878906 1.515625 -1.066406 1.671875 -1.203125 C 1.828125 -1.347656 2.035156 -1.421875 2.296875 -1.421875 C 2.554688 -1.421875 2.757812 -1.347656 2.90625 -1.203125 C 3.0625 -1.066406 3.140625 -0.878906 3.140625 -0.640625 C 3.140625 -0.378906 3.0625 -0.171875 2.90625 -0.015625 C 2.757812 0.140625 2.554688 0.21875 2.296875 0.21875 Z M 2.296875 0.21875 "></path></g></g></g></g></g></svg> 