<svg xmlns="http://www.w3.org/2000/svg" viewBox="0 0 180 64" fill="none">
  <g stroke="#C39A54" stroke-width="1.6" stroke-linecap="round" stroke-linejoin="round">
    <path d="M90 54c0-23-4-35-22-45m22 45c1-20 10-32 29-42"/>
    <path d="M76 21c-9-1-14 2-17 8 8 1 14-2 17-8Zm10 15c-9 0-14 4-16 10 8 0 14-4 16-10Zm18-13c8-2 14 0 18 6-8 2-14 0-18-6Zm-4 15c8-1 14 2 17 8-8 1-14-2-17-8Z"/>
    <circle cx="68" cy="9" r="2.5" fill="#C39A54"/><circle cx="119" cy="12" r="2.5" fill="#C39A54"/>
  </g>
</svg>
