<?xml version="1.0" encoding="UTF-8"?> <svg xmlns="http://www.w3.org/2000/svg" xmlns:xlink="http://www.w3.org/1999/xlink" width="360" zoomAndPan="magnify" viewBox="0 0 270 359.999987" height="480" preserveAspectRatio="xMidYMid meet" version="1.0"><defs><g></g><clipPath id="1e7a627be1"><path d="M 171.886719 201.582031 L 172.296875 201.582031 L 172.296875 201.863281 L 171.886719 201.863281 Z M 171.886719 201.582031 " clip-rule="nonzero"></path></clipPath><clipPath id="8e4691f4c4"><path d="M 172.273438 201.75 C 171.523438 202.050781 172.125 201.601562 172.125 201.601562 " clip-rule="nonzero"></path></clipPath><clipPath id="06edfedcf7"><path d="M 0.886719 0.582031 L 1.296875 0.582031 L 1.296875 0.863281 L 0.886719 0.863281 Z M 0.886719 0.582031 " clip-rule="nonzero"></path></clipPath><clipPath id="b8955d1985"><path d="M 1.273438 0.75 C 0.523438 1.050781 1.125 0.601562 1.125 0.601562 " clip-rule="nonzero"></path></clipPath><clipPath id="88cfc19b6b"><rect x="0" width="2" y="0" height="1"></rect></clipPath><clipPath id="7398fbaea3"><path d="M 78.0625 176.757812 L 78.472656 176.757812 L 78.472656 177 L 78.0625 177 Z M 78.0625 176.757812 " clip-rule="nonzero"></path></clipPath><clipPath id="389da9f027"><path d="M 78.449219 176.925781 C 77.699219 177.148438 78.300781 176.773438 78.300781 176.773438 " clip-rule="nonzero"></path></clipPath><clipPath id="d752e1ee09"><path d="M 0.0625 0.757812 L 0.472656 0.757812 L 0.472656 1 L 0.0625 1 Z M 0.0625 0.757812 " clip-rule="nonzero"></path></clipPath><clipPath id="a4455221de"><path d="M 0.449219 0.925781 C -0.300781 1.148438 0.300781 0.773438 0.300781 0.773438 " clip-rule="nonzero"></path></clipPath><clipPath id="e11e5719bd"><rect x="0" width="1" y="0" height="1"></rect></clipPath><clipPath id="9a35d3bb76"><path d="M 0.0625 0.757812 L 0.472656 0.757812 L 0.472656 1 L 0.0625 1 Z M 0.0625 0.757812 " clip-rule="nonzero"></path></clipPath><clipPath id="d6101d009f"><path d="M 0.449219 0.925781 C -0.300781 1.148438 0.300781 0.773438 0.300781 0.773438 " clip-rule="nonzero"></path></clipPath><clipPath id="e55ade5c7e"><rect x="0" width="1" y="0" height="1"></rect></clipPath><clipPath id="8ee5340bbe"><rect x="0" width="270" y="0" height="43"></rect></clipPath></defs><g clip-path="url(#1e7a627be1)"><g clip-path="url(#8e4691f4c4)"><g transform="matrix(1, 0, 0, 1, 171, 201)"><g clip-path="url(#88cfc19b6b)"><g clip-path="url(#06edfedcf7)"><g clip-path="url(#b8955d1985)"><rect x="-230.4" width="388.8" fill="#492c01" height="518.399981" y="-280.199997" fill-opacity="1"></rect></g></g></g></g></g></g><g clip-path="url(#7398fbaea3)"><g clip-path="url(#389da9f027)"><g transform="matrix(1, 0, 0, 1, 78, 176)"><g clip-path="url(#e11e5719bd)"><g clip-path="url(#d752e1ee09)"><g clip-path="url(#a4455221de)"><rect x="-137.4" width="388.8" fill="#492c01" height="518.399981" y="-255.199997" fill-opacity="1"></rect></g></g></g></g><g transform="matrix(1, 0, 0, 1, 78, 176)"><g clip-path="url(#e55ade5c7e)"><g clip-path="url(#9a35d3bb76)"><g clip-path="url(#d6101d009f)"><rect x="-137.4" width="388.8" fill="#492c01" height="518.399981" y="-255.199997" fill-opacity="1"></rect></g></g></g></g></g></g><g transform="matrix(1, 0, 0, 1, -0, 173)"><g clip-path="url(#8ee5340bbe)"><g fill="#492c01" fill-opacity="1"><g transform="translate(0.0269476, 26.311125)"><g><path d="M 41.65625 -11.125 C 43.226562 -12.789062 44.734375 -14.285156 46.171875 -15.609375 C 47.617188 -16.941406 48.941406 -18.035156 50.140625 -18.890625 C 49.429688 -18.910156 48.554688 -18.960938 47.515625 -19.046875 C 46.472656 -19.128906 45.441406 -19.226562 44.421875 -19.34375 C 43.359375 -18.34375 42.421875 -17.4375 41.609375 -16.625 C 40.804688 -15.820312 40.039062 -15.03125 39.3125 -14.25 C 38.582031 -13.476562 37.835938 -12.664062 37.078125 -11.8125 C 36.316406 -10.957031 35.460938 -9.988281 34.515625 -8.90625 C 33.984375 -8.28125 33.347656 -7.535156 32.609375 -6.671875 C 31.867188 -5.804688 31.117188 -4.882812 30.359375 -3.90625 C 29.597656 -2.9375 28.914062 -2.003906 28.3125 -1.109375 C 28.125 -0.804688 27.921875 -0.460938 27.703125 -0.078125 C 27.484375 0.296875 27.28125 0.679688 27.09375 1.078125 C 26.613281 1.078125 26.375 0.753906 26.375 0.109375 C 26.375 -0.515625 26.628906 -1.269531 27.140625 -2.15625 C 27.410156 -2.613281 27.773438 -3.15625 28.234375 -3.78125 C 28.703125 -4.40625 29.210938 -5.050781 29.765625 -5.71875 C 30.316406 -6.382812 30.851562 -7.019531 31.375 -7.625 C 31.894531 -8.226562 32.34375 -8.722656 32.71875 -9.109375 C 33.269531 -9.734375 33.957031 -10.476562 34.78125 -11.34375 C 35.601562 -12.21875 36.484375 -13.140625 37.421875 -14.109375 C 38.367188 -15.078125 39.320312 -16.03125 40.28125 -16.96875 C 41.238281 -17.90625 42.132812 -18.753906 42.96875 -19.515625 C 42 -19.628906 41.085938 -19.75 40.234375 -19.875 C 39.378906 -20 38.695312 -20.097656 38.1875 -20.171875 C 36.9375 -18.992188 35.644531 -17.695312 34.3125 -16.28125 C 32.988281 -14.875 31.703125 -13.5 30.453125 -12.15625 C 29.210938 -10.820312 28.082031 -9.632812 27.0625 -8.59375 C 24.800781 -6.28125 22.585938 -4.28125 20.421875 -2.59375 C 18.265625 -0.90625 16.101562 0.390625 13.9375 1.296875 C 11.78125 2.210938 9.535156 2.671875 7.203125 2.671875 C 6.253906 2.671875 5.363281 2.535156 4.53125 2.265625 C 3.707031 2.003906 3.039062 1.550781 2.53125 0.90625 C 2.019531 0.257812 1.765625 -0.628906 1.765625 -1.765625 C 1.765625 -2.828125 1.984375 -3.875 2.421875 -4.90625 C 2.859375 -5.9375 3.40625 -6.910156 4.0625 -7.828125 C 3.851562 -8.015625 3.566406 -8.351562 3.203125 -8.84375 C 2.847656 -9.34375 2.671875 -10.1875 2.671875 -11.375 C 2.671875 -12.59375 3 -13.863281 3.65625 -15.1875 C 4.3125 -16.519531 5.375 -17.765625 6.84375 -18.921875 C 8.3125 -20.078125 10.238281 -21.019531 12.625 -21.75 C 15.019531 -22.476562 17.960938 -22.84375 21.453125 -22.84375 C 24.128906 -22.84375 26.820312 -22.679688 29.53125 -22.359375 C 32.25 -22.035156 35.085938 -21.609375 38.046875 -21.078125 C 38.367188 -21.328125 38.742188 -21.578125 39.171875 -21.828125 C 39.597656 -22.085938 40.066406 -22.304688 40.578125 -22.484375 C 40.671875 -22.535156 40.796875 -22.578125 40.953125 -22.609375 C 41.117188 -22.648438 41.25 -22.671875 41.34375 -22.671875 C 41.457031 -22.671875 41.515625 -22.632812 41.515625 -22.5625 C 41.515625 -22.46875 41.460938 -22.398438 41.359375 -22.359375 C 41.253906 -22.328125 41.109375 -22.28125 40.921875 -22.21875 C 40.554688 -22.070312 40.195312 -21.878906 39.84375 -21.640625 C 39.5 -21.398438 39.191406 -21.148438 38.921875 -20.890625 C 39.398438 -20.804688 40.070312 -20.695312 40.9375 -20.5625 C 41.8125 -20.4375 42.742188 -20.304688 43.734375 -20.171875 C 44.222656 -20.535156 44.582031 -20.71875 44.8125 -20.71875 C 45 -20.71875 45.09375 -20.613281 45.09375 -20.40625 C 45.09375 -20.25 45.035156 -20.113281 44.921875 -20 C 45.953125 -19.851562 46.992188 -19.726562 48.046875 -19.625 C 49.097656 -19.53125 50.03125 -19.457031 50.84375 -19.40625 C 51.71875 -19.9375 52.675781 -20.378906 53.71875 -20.734375 C 54.757812 -21.097656 55.785156 -21.28125 56.796875 -21.28125 C 57.910156 -21.28125 58.679688 -21.132812 59.109375 -20.84375 C 59.535156 -20.550781 59.75 -20.234375 59.75 -19.890625 C 59.75 -19.566406 59.550781 -19.269531 59.15625 -19 C 58.757812 -18.738281 57.988281 -18.609375 56.84375 -18.609375 C 55.863281 -18.609375 54.90625 -18.628906 53.96875 -18.671875 C 53.039062 -18.722656 52.21875 -18.769531 51.5 -18.8125 C 50.59375 -18.164062 49.59375 -17.316406 48.5 -16.265625 C 47.40625 -15.210938 46.300781 -14.082031 45.1875 -12.875 C 44.082031 -11.664062 43.054688 -10.503906 42.109375 -9.390625 C 40.554688 -7.566406 39.253906 -5.992188 38.203125 -4.671875 C 37.148438 -3.359375 36.289062 -2.253906 35.625 -1.359375 C 35.1875 -0.753906 34.835938 -0.269531 34.578125 0.09375 C 34.328125 0.46875 34.078125 0.65625 33.828125 0.65625 C 33.523438 0.65625 33.378906 0.472656 33.390625 0.109375 C 33.398438 -0.242188 33.488281 -0.59375 33.65625 -0.9375 C 34.132812 -1.925781 34.8125 -3.007812 35.6875 -4.1875 C 36.570312 -5.363281 37.539062 -6.550781 38.59375 -7.75 C 39.644531 -8.957031 40.664062 -10.082031 41.65625 -11.125 Z M 37.1875 -20.34375 C 34.6875 -20.6875 32.132812 -20.984375 29.53125 -21.234375 C 26.9375 -21.492188 24.234375 -21.625 21.421875 -21.625 C 18.160156 -21.625 15.375 -21.316406 13.0625 -20.703125 C 10.75 -20.085938 8.863281 -19.285156 7.40625 -18.296875 C 5.957031 -17.304688 4.890625 -16.210938 4.203125 -15.015625 C 3.523438 -13.828125 3.1875 -12.65625 3.1875 -11.5 C 3.1875 -10.644531 3.296875 -9.9375 3.515625 -9.375 C 3.734375 -8.8125 3.984375 -8.390625 4.265625 -8.109375 C 4.859375 -8.867188 5.539062 -9.613281 6.3125 -10.34375 C 7.09375 -11.070312 7.945312 -11.757812 8.875 -12.40625 C 9.820312 -13.050781 10.894531 -13.648438 12.09375 -14.203125 C 13.289062 -14.765625 14.546875 -15.21875 15.859375 -15.5625 C 17.179688 -15.90625 18.457031 -16.078125 19.6875 -16.078125 C 20.445312 -16.078125 21.15625 -15.984375 21.8125 -15.796875 C 22.46875 -15.617188 23 -15.304688 23.40625 -14.859375 C 23.8125 -14.421875 24.015625 -13.8125 24.015625 -13.03125 C 24.015625 -12.707031 23.976562 -12.492188 23.90625 -12.390625 C 23.84375 -12.285156 23.785156 -12.234375 23.734375 -12.234375 C 23.640625 -12.234375 23.597656 -12.304688 23.609375 -12.453125 C 23.628906 -12.609375 23.625 -12.800781 23.59375 -13.03125 C 23.550781 -13.769531 23.238281 -14.378906 22.65625 -14.859375 C 22.082031 -15.347656 21.265625 -15.59375 20.203125 -15.59375 C 19.117188 -15.59375 17.9375 -15.367188 16.65625 -14.921875 C 15.375 -14.472656 14.128906 -13.914062 12.921875 -13.25 C 11.722656 -12.59375 10.660156 -11.929688 9.734375 -11.265625 C 9.046875 -10.753906 8.273438 -10.144531 7.421875 -9.4375 C 6.566406 -8.738281 5.753906 -7.96875 4.984375 -7.125 C 4.222656 -6.28125 3.59375 -5.394531 3.09375 -4.46875 C 2.601562 -3.539062 2.359375 -2.601562 2.359375 -1.65625 C 2.359375 -0.664062 2.582031 0.0976562 3.03125 0.640625 C 3.476562 1.179688 4.066406 1.5625 4.796875 1.78125 C 5.523438 2 6.28125 2.109375 7.0625 2.109375 C 8.5 2.109375 9.972656 1.796875 11.484375 1.171875 C 13.003906 0.554688 14.539062 -0.28125 16.09375 -1.34375 C 17.65625 -2.414062 19.210938 -3.625 20.765625 -4.96875 C 22.328125 -6.320312 23.875 -7.726562 25.40625 -9.1875 C 27.53125 -11.144531 29.582031 -13.117188 31.5625 -15.109375 C 33.550781 -17.097656 35.425781 -18.84375 37.1875 -20.34375 Z M 57.046875 -19.0625 C 58.566406 -19.0625 59.328125 -19.335938 59.328125 -19.890625 C 59.328125 -20.554688 58.484375 -20.890625 56.796875 -20.890625 C 56.054688 -20.890625 55.269531 -20.738281 54.4375 -20.4375 C 53.613281 -20.144531 52.832031 -19.765625 52.09375 -19.296875 C 52.800781 -19.234375 53.585938 -19.175781 54.453125 -19.125 C 55.328125 -19.082031 56.191406 -19.0625 57.046875 -19.0625 Z M 57.046875 -19.0625 "></path></g></g></g><g fill="#492c01" fill-opacity="1"><g transform="translate(40.495886, 26.311125)"><g><path d="M 8.59375 -10.265625 C 9.46875 -10.265625 9.90625 -9.925781 9.90625 -9.25 C 9.90625 -8.738281 9.648438 -8.050781 9.140625 -7.1875 C 8.640625 -6.320312 7.847656 -5.347656 6.765625 -4.265625 C 5.367188 -2.859375 4.054688 -1.742188 2.828125 -0.921875 C 1.609375 -0.0976562 0.65625 0.3125 -0.03125 0.3125 C -1.03125 0.3125 -1.53125 -0.226562 -1.53125 -1.3125 C -1.53125 -1.9375 -1.289062 -2.691406 -0.8125 -3.578125 C -0.34375 -4.472656 0.316406 -5.359375 1.171875 -6.234375 C 1.984375 -7.046875 2.835938 -7.75 3.734375 -8.34375 C 4.640625 -8.945312 5.519531 -9.414062 6.375 -9.75 C 7.226562 -10.09375 7.96875 -10.265625 8.59375 -10.265625 Z M 9.359375 -9.390625 C 9.359375 -9.640625 9.21875 -9.765625 8.9375 -9.765625 C 8.40625 -9.765625 7.550781 -9.320312 6.375 -8.4375 C 5.195312 -7.550781 3.890625 -6.378906 2.453125 -4.921875 C 1.671875 -4.066406 0.972656 -3.257812 0.359375 -2.5 C -0.242188 -1.738281 -0.546875 -1.132812 -0.546875 -0.6875 C -0.546875 -0.300781 -0.363281 -0.109375 0 -0.109375 C 0.53125 -0.109375 1.375 -0.582031 2.53125 -1.53125 C 3.6875 -2.476562 4.96875 -3.675781 6.375 -5.125 C 6.769531 -5.539062 7.195312 -6.019531 7.65625 -6.5625 C 8.125 -7.101562 8.523438 -7.632812 8.859375 -8.15625 C 9.191406 -8.675781 9.359375 -9.085938 9.359375 -9.390625 Z M 9.359375 -9.390625 "></path></g></g></g><g fill="#492c01" fill-opacity="1"><g transform="translate(49.435172, 26.311125)"><g><path d="M 15.25 -13.96875 C 15.34375 -13.96875 15.390625 -13.921875 15.390625 -13.828125 C 15.390625 -13.804688 15.351562 -13.738281 15.28125 -13.625 C 14.632812 -13.019531 13.867188 -12.457031 12.984375 -11.9375 C 12.109375 -11.414062 11.15625 -11.15625 10.125 -11.15625 C 8.800781 -11.15625 8.140625 -11.640625 8.140625 -12.609375 C 8.140625 -12.984375 8.269531 -13.300781 8.53125 -13.5625 C 8.800781 -13.832031 9.050781 -13.96875 9.28125 -13.96875 C 9.375 -13.96875 9.421875 -13.929688 9.421875 -13.859375 C 9.421875 -13.835938 9.390625 -13.769531 9.328125 -13.65625 C 9.273438 -13.539062 9.25 -13.390625 9.25 -13.203125 C 9.25 -12.835938 9.394531 -12.5625 9.6875 -12.375 C 9.976562 -12.1875 10.351562 -12.09375 10.8125 -12.09375 C 11.625 -12.09375 12.421875 -12.304688 13.203125 -12.734375 C 13.984375 -13.160156 14.597656 -13.546875 15.046875 -13.890625 C 15.128906 -13.941406 15.195312 -13.96875 15.25 -13.96875 Z M 13.3125 -10.125 C 12.3125 -9.21875 11.351562 -8.300781 10.4375 -7.375 C 9.53125 -6.457031 8.71875 -5.609375 8 -4.828125 C 7.289062 -4.054688 6.726562 -3.414062 6.3125 -2.90625 C 5.894531 -2.40625 5.535156 -1.953125 5.234375 -1.546875 C 4.929688 -1.140625 4.78125 -0.832031 4.78125 -0.625 C 4.78125 -0.414062 4.894531 -0.3125 5.125 -0.3125 C 5.351562 -0.3125 5.660156 -0.414062 6.046875 -0.625 C 6.429688 -0.832031 6.816406 -1.078125 7.203125 -1.359375 C 7.597656 -1.648438 7.921875 -1.890625 8.171875 -2.078125 C 8.734375 -2.535156 9.316406 -3.023438 9.921875 -3.546875 C 10.535156 -4.066406 11.078125 -4.523438 11.546875 -4.921875 C 11.628906 -4.960938 11.707031 -5 11.78125 -5.03125 C 11.851562 -5.070312 11.921875 -5.054688 11.984375 -4.984375 C 12.109375 -4.867188 12.078125 -4.742188 11.890625 -4.609375 C 11.566406 -4.328125 11.191406 -4 10.765625 -3.625 C 10.335938 -3.257812 9.921875 -2.910156 9.515625 -2.578125 C 9.109375 -2.242188 8.78125 -1.972656 8.53125 -1.765625 C 7.96875 -1.347656 7.351562 -0.90625 6.6875 -0.4375 C 6.019531 0.0195312 5.421875 0.25 4.890625 0.25 C 4.421875 0.25 4.097656 0.140625 3.921875 -0.078125 C 3.753906 -0.304688 3.671875 -0.59375 3.671875 -0.9375 C 3.671875 -1.445312 3.890625 -2.070312 4.328125 -2.8125 C 4.097656 -2.570312 3.875 -2.363281 3.65625 -2.1875 C 3.4375 -2.019531 3.257812 -1.878906 3.125 -1.765625 C 2.59375 -1.328125 1.96875 -0.878906 1.25 -0.421875 C 0.53125 0.0234375 -0.09375 0.25 -0.625 0.25 C -1.0625 0.25 -1.363281 0.148438 -1.53125 -0.046875 C -1.707031 -0.242188 -1.796875 -0.492188 -1.796875 -0.796875 C -1.796875 -1.367188 -1.566406 -2.03125 -1.109375 -2.78125 C -0.648438 -3.539062 -0.0234375 -4.347656 0.765625 -5.203125 C 1.222656 -5.679688 1.773438 -6.203125 2.421875 -6.765625 C 3.066406 -7.335938 3.71875 -7.867188 4.375 -8.359375 C 5.039062 -8.859375 5.601562 -9.238281 6.0625 -9.5 C 6.320312 -9.65625 6.6875 -9.769531 7.15625 -9.84375 C 7.625 -9.914062 7.976562 -9.9375 8.21875 -9.90625 C 7.195312 -9.082031 6.195312 -8.222656 5.21875 -7.328125 C 4.238281 -6.441406 3.367188 -5.609375 2.609375 -4.828125 C 1.859375 -4.054688 1.273438 -3.414062 0.859375 -2.90625 C 0.453125 -2.40625 0.101562 -1.953125 -0.1875 -1.546875 C -0.476562 -1.140625 -0.625 -0.832031 -0.625 -0.625 C -0.625 -0.414062 -0.519531 -0.3125 -0.3125 -0.3125 C -0.0820312 -0.3125 0.226562 -0.414062 0.625 -0.625 C 1.019531 -0.832031 1.421875 -1.078125 1.828125 -1.359375 C 2.242188 -1.648438 2.59375 -1.914062 2.875 -2.15625 C 3.175781 -2.382812 3.550781 -2.695312 4 -3.09375 C 4.445312 -3.5 4.875 -3.90625 5.28125 -4.3125 C 5.6875 -4.71875 5.984375 -5.015625 6.171875 -5.203125 C 6.628906 -5.679688 7.179688 -6.222656 7.828125 -6.828125 C 8.472656 -7.429688 9.117188 -8.003906 9.765625 -8.546875 C 10.421875 -9.085938 10.976562 -9.492188 11.4375 -9.765625 C 11.625 -9.890625 11.925781 -9.984375 12.34375 -10.046875 C 12.757812 -10.117188 13.082031 -10.144531 13.3125 -10.125 Z M 13.3125 -10.125 "></path></g></g></g><g fill="#492c01" fill-opacity="1"><g transform="translate(60.280015, 26.311125)"><g></g></g></g><g fill="#492c01" fill-opacity="1"><g transform="translate(67.486818, 26.311125)"><g><path d="M 9.328125 -9.359375 C 9.328125 -8.828125 9.140625 -8.28125 8.765625 -7.71875 C 8.398438 -7.164062 8.019531 -6.726562 7.625 -6.40625 C 7.507812 -6.3125 7.363281 -6.207031 7.1875 -6.09375 C 7.019531 -5.976562 6.84375 -5.921875 6.65625 -5.921875 C 6.332031 -5.921875 6.171875 -6.0625 6.171875 -6.34375 C 6.171875 -6.570312 6.304688 -6.796875 6.578125 -7.015625 C 6.859375 -7.234375 7.113281 -7.414062 7.34375 -7.5625 C 8.382812 -8.25 8.90625 -8.847656 8.90625 -9.359375 C 8.90625 -9.660156 8.765625 -9.8125 8.484375 -9.8125 C 8.253906 -9.8125 7.914062 -9.664062 7.46875 -9.375 C 7.019531 -9.082031 6.519531 -8.71875 5.96875 -8.28125 C 5.425781 -7.84375 4.882812 -7.378906 4.34375 -6.890625 C 3.800781 -6.410156 3.320312 -5.960938 2.90625 -5.546875 C 1.75 -4.429688 0.90625 -3.46875 0.375 -2.65625 C -0.15625 -1.851562 -0.40625 -1.242188 -0.375 -0.828125 C -0.375 -0.410156 -0.125 -0.203125 0.375 -0.203125 C 0.75 -0.203125 1.15625 -0.289062 1.59375 -0.46875 C 2.03125 -0.644531 2.4375 -0.84375 2.8125 -1.0625 C 3.195312 -1.28125 3.507812 -1.46875 3.75 -1.625 C 4.4375 -2.09375 5.164062 -2.644531 5.9375 -3.28125 C 6.71875 -3.914062 7.347656 -4.453125 7.828125 -4.890625 C 8.035156 -5.046875 8.195312 -5.09375 8.3125 -5.03125 C 8.425781 -4.9375 8.40625 -4.804688 8.25 -4.640625 C 7.757812 -4.203125 7.1875 -3.710938 6.53125 -3.171875 C 5.875 -2.628906 5.234375 -2.125 4.609375 -1.65625 C 3.910156 -1.15625 3.160156 -0.703125 2.359375 -0.296875 C 1.566406 0.109375 0.816406 0.3125 0.109375 0.3125 C -1.066406 0.3125 -1.65625 -0.21875 -1.65625 -1.28125 C -1.65625 -2.09375 -1.375 -2.941406 -0.8125 -3.828125 C -0.25 -4.710938 0.457031 -5.550781 1.3125 -6.34375 C 2.101562 -7.0625 2.9375 -7.710938 3.8125 -8.296875 C 4.6875 -8.890625 5.519531 -9.363281 6.3125 -9.71875 C 7.113281 -10.082031 7.769531 -10.265625 8.28125 -10.265625 C 8.675781 -10.265625 8.945312 -10.175781 9.09375 -10 C 9.25 -9.820312 9.328125 -9.609375 9.328125 -9.359375 Z M 9.328125 -9.359375 "></path></g></g></g><g fill="#492c01" fill-opacity="1"><g transform="translate(75.247996, 26.311125)"><g><path d="M 13.3125 -9.90625 C 12.3125 -9.007812 11.347656 -8.109375 10.421875 -7.203125 C 9.503906 -6.304688 8.6875 -5.484375 7.96875 -4.734375 C 7.25 -3.984375 6.679688 -3.363281 6.265625 -2.875 C 5.828125 -2.363281 5.472656 -1.914062 5.203125 -1.53125 C 4.941406 -1.15625 4.8125 -0.851562 4.8125 -0.625 C 4.8125 -0.414062 4.925781 -0.3125 5.15625 -0.3125 C 5.394531 -0.3125 5.703125 -0.421875 6.078125 -0.640625 C 6.460938 -0.859375 6.863281 -1.113281 7.28125 -1.40625 C 7.695312 -1.695312 8.054688 -1.957031 8.359375 -2.1875 C 8.910156 -2.625 9.476562 -3.101562 10.0625 -3.625 C 10.65625 -4.144531 11.160156 -4.585938 11.578125 -4.953125 C 11.640625 -5.003906 11.71875 -5.050781 11.8125 -5.09375 C 11.90625 -5.132812 11.988281 -5.113281 12.0625 -5.03125 C 12.15625 -4.9375 12.097656 -4.796875 11.890625 -4.609375 C 11.378906 -4.117188 10.820312 -3.617188 10.21875 -3.109375 C 9.625 -2.609375 9.109375 -2.1875 8.671875 -1.84375 C 8.316406 -1.5625 7.914062 -1.257812 7.46875 -0.9375 C 7.019531 -0.613281 6.566406 -0.332031 6.109375 -0.09375 C 5.660156 0.132812 5.265625 0.25 4.921875 0.25 C 4.109375 0.25 3.703125 -0.144531 3.703125 -0.9375 C 3.703125 -1.1875 3.773438 -1.492188 3.921875 -1.859375 C 4.078125 -2.234375 4.34375 -2.640625 4.71875 -3.078125 C 3.71875 -2.179688 2.722656 -1.398438 1.734375 -0.734375 C 0.742188 -0.078125 -0.03125 0.25 -0.59375 0.25 C -1.375 0.25 -1.765625 -0.132812 -1.765625 -0.90625 C -1.785156 -1.53125 -1.535156 -2.296875 -1.015625 -3.203125 C -0.503906 -4.117188 0.144531 -4.96875 0.9375 -5.75 C 1.71875 -6.5625 2.609375 -7.304688 3.609375 -7.984375 C 4.617188 -8.671875 5.609375 -9.222656 6.578125 -9.640625 C 7.554688 -10.054688 8.367188 -10.265625 9.015625 -10.265625 C 9.335938 -10.265625 9.601562 -10.210938 9.8125 -10.109375 C 10.019531 -10.003906 10.125 -9.800781 10.125 -9.5 C 10.125 -9.3125 10.050781 -9.070312 9.90625 -8.78125 C 9.769531 -8.5 9.503906 -8.160156 9.109375 -7.765625 C 9.085938 -7.742188 9.082031 -7.722656 9.09375 -7.703125 C 9.101562 -7.691406 9.125 -7.703125 9.15625 -7.734375 C 9.6875 -8.265625 10.21875 -8.710938 10.75 -9.078125 C 11.28125 -9.453125 11.679688 -9.679688 11.953125 -9.765625 C 12.140625 -9.835938 12.316406 -9.878906 12.484375 -9.890625 C 12.660156 -9.898438 12.84375 -9.90625 13.03125 -9.90625 Z M 9.640625 -9.359375 C 9.640625 -9.609375 9.5 -9.734375 9.21875 -9.734375 C 8.726562 -9.734375 7.898438 -9.320312 6.734375 -8.5 C 5.566406 -7.6875 4.164062 -6.492188 2.53125 -4.921875 C 1.675781 -4.066406 0.929688 -3.234375 0.296875 -2.421875 C -0.335938 -1.617188 -0.65625 -1.019531 -0.65625 -0.625 C -0.65625 -0.53125 -0.632812 -0.445312 -0.59375 -0.375 C -0.5625 -0.3125 -0.46875 -0.28125 -0.3125 -0.28125 C -0.0078125 -0.28125 0.472656 -0.488281 1.140625 -0.90625 C 1.816406 -1.320312 2.597656 -1.898438 3.484375 -2.640625 C 4.367188 -3.378906 5.265625 -4.207031 6.171875 -5.125 C 6.585938 -5.539062 7.066406 -6.019531 7.609375 -6.5625 C 8.148438 -7.101562 8.625 -7.632812 9.03125 -8.15625 C 9.4375 -8.675781 9.640625 -9.078125 9.640625 -9.359375 Z M 9.640625 -9.359375 "></path></g></g></g><g fill="#492c01" fill-opacity="1"><g transform="translate(86.127491, 26.311125)"><g><path d="M 5.546875 0.3125 C 4.734375 0.3125 4.328125 -0.0546875 4.328125 -0.796875 C 4.328125 -1.304688 4.476562 -1.820312 4.78125 -2.34375 C 5.082031 -2.863281 5.453125 -3.375 5.890625 -3.875 C 6.285156 -4.34375 6.707031 -4.773438 7.15625 -5.171875 C 7.601562 -5.578125 8.015625 -5.957031 8.390625 -6.3125 C 8.484375 -6.40625 8.507812 -6.457031 8.46875 -6.46875 C 8.4375 -6.476562 8.382812 -6.457031 8.3125 -6.40625 C 7.738281 -5.925781 7.132812 -5.421875 6.5 -4.890625 C 5.863281 -4.359375 5.242188 -3.835938 4.640625 -3.328125 C 4.085938 -2.835938 3.429688 -2.3125 2.671875 -1.75 C 1.910156 -1.1875 1.160156 -0.703125 0.421875 -0.296875 C -0.316406 0.109375 -0.953125 0.3125 -1.484375 0.3125 C -2.335938 0.3125 -2.765625 -0.078125 -2.765625 -0.859375 C -2.765625 -1.210938 -2.664062 -1.613281 -2.46875 -2.0625 C -2.28125 -2.507812 -2 -2.921875 -1.625 -3.296875 C -1.414062 -3.503906 -1.203125 -3.675781 -0.984375 -3.8125 C -0.765625 -3.945312 -0.539062 -4.015625 -0.3125 -4.015625 C -0.0820312 -4.015625 0.03125 -3.898438 0.03125 -3.671875 C 0.03125 -3.460938 -0.0625 -3.242188 -0.25 -3.015625 C -0.445312 -2.785156 -0.675781 -2.566406 -0.9375 -2.359375 C -1.769531 -1.753906 -2.1875 -1.222656 -2.1875 -0.765625 C -2.1875 -0.328125 -1.953125 -0.109375 -1.484375 -0.109375 C -1.097656 -0.109375 -0.59375 -0.28125 0.03125 -0.625 C 0.65625 -0.96875 1.316406 -1.398438 2.015625 -1.921875 C 2.722656 -2.441406 3.40625 -2.972656 4.0625 -3.515625 C 4.726562 -4.054688 5.28125 -4.515625 5.71875 -4.890625 C 6.53125 -5.554688 7.34375 -6.207031 8.15625 -6.84375 C 8.976562 -7.476562 9.726562 -8.035156 10.40625 -8.515625 C 11.09375 -9.003906 11.632812 -9.363281 12.03125 -9.59375 C 12.320312 -9.78125 12.660156 -9.90625 13.046875 -9.96875 C 13.429688 -10.039062 13.796875 -10.066406 14.140625 -10.046875 C 13.148438 -9.148438 12.179688 -8.242188 11.234375 -7.328125 C 10.285156 -6.410156 9.4375 -5.5625 8.6875 -4.78125 C 7.9375 -4 7.351562 -3.363281 6.9375 -2.875 C 6.519531 -2.363281 6.179688 -1.914062 5.921875 -1.53125 C 5.671875 -1.15625 5.546875 -0.84375 5.546875 -0.59375 C 5.546875 -0.363281 5.671875 -0.25 5.921875 -0.25 C 6.179688 -0.25 6.492188 -0.335938 6.859375 -0.515625 C 7.234375 -0.703125 7.617188 -0.921875 8.015625 -1.171875 C 8.421875 -1.429688 8.765625 -1.664062 9.046875 -1.875 C 9.441406 -2.175781 9.867188 -2.515625 10.328125 -2.890625 C 10.785156 -3.273438 11.21875 -3.640625 11.625 -3.984375 C 12.03125 -4.328125 12.347656 -4.601562 12.578125 -4.8125 C 12.835938 -5.039062 13.007812 -5.085938 13.09375 -4.953125 C 13.1875 -4.859375 13.15625 -4.734375 13 -4.578125 C 12.695312 -4.316406 12.304688 -3.984375 11.828125 -3.578125 C 11.359375 -3.179688 10.894531 -2.789062 10.4375 -2.40625 C 9.988281 -2.03125 9.628906 -1.738281 9.359375 -1.53125 C 8.804688 -1.113281 8.175781 -0.703125 7.46875 -0.296875 C 6.757812 0.109375 6.117188 0.3125 5.546875 0.3125 Z M 5.546875 0.3125 "></path></g></g></g><g fill="#492c01" fill-opacity="1"><g transform="translate(98.150362, 26.311125)"><g><path d="M 11.1875 -10.1875 C 11.8125 -10.1875 12.125 -9.882812 12.125 -9.28125 C 12.125 -9.03125 12.066406 -8.742188 11.953125 -8.421875 C 11.835938 -8.097656 11.65625 -7.796875 11.40625 -7.515625 C 12.070312 -7.953125 12.75 -8.378906 13.4375 -8.796875 C 14.132812 -9.210938 14.789062 -9.550781 15.40625 -9.8125 C 16.019531 -10.082031 16.507812 -10.21875 16.875 -10.21875 C 17.269531 -10.21875 17.546875 -10.109375 17.703125 -9.890625 C 17.867188 -9.671875 17.953125 -9.4375 17.953125 -9.1875 C 17.953125 -8.789062 17.765625 -8.335938 17.390625 -7.828125 C 17.023438 -7.316406 16.59375 -6.816406 16.09375 -6.328125 C 15.601562 -5.847656 15.148438 -5.425781 14.734375 -5.0625 C 14.171875 -4.550781 13.660156 -4.070312 13.203125 -3.625 C 12.742188 -3.175781 12.328125 -2.753906 11.953125 -2.359375 C 11.585938 -1.960938 11.285156 -1.613281 11.046875 -1.3125 C 10.816406 -1.007812 10.703125 -0.769531 10.703125 -0.59375 C 10.703125 -0.363281 10.832031 -0.25 11.09375 -0.25 C 11.394531 -0.25 11.800781 -0.378906 12.3125 -0.640625 C 12.832031 -0.910156 13.382812 -1.25 13.96875 -1.65625 C 14.707031 -2.1875 15.363281 -2.695312 15.9375 -3.1875 C 16.519531 -3.675781 17.019531 -4.09375 17.4375 -4.4375 C 17.820312 -4.800781 18.070312 -4.925781 18.1875 -4.8125 C 18.257812 -4.769531 18.273438 -4.703125 18.234375 -4.609375 C 18.203125 -4.515625 18.144531 -4.429688 18.0625 -4.359375 C 17.78125 -4.128906 17.40625 -3.816406 16.9375 -3.421875 C 16.476562 -3.035156 15.992188 -2.632812 15.484375 -2.21875 C 14.984375 -1.800781 14.515625 -1.441406 14.078125 -1.140625 C 13.472656 -0.703125 12.875 -0.347656 12.28125 -0.078125 C 11.695312 0.179688 11.1875 0.3125 10.75 0.3125 C 10.445312 0.3125 10.164062 0.207031 9.90625 0 C 9.65625 -0.207031 9.53125 -0.53125 9.53125 -0.96875 C 9.53125 -1.5 9.773438 -2.125 10.265625 -2.84375 C 10.703125 -3.445312 11.128906 -3.960938 11.546875 -4.390625 C 11.960938 -4.816406 12.523438 -5.351562 13.234375 -6 C 13.609375 -6.34375 14.066406 -6.738281 14.609375 -7.1875 C 15.148438 -7.632812 15.640625 -8.070312 16.078125 -8.5 C 16.515625 -8.9375 16.734375 -9.257812 16.734375 -9.46875 C 16.734375 -9.601562 16.664062 -9.671875 16.53125 -9.671875 C 16.300781 -9.671875 15.851562 -9.515625 15.1875 -9.203125 C 14.53125 -8.890625 13.789062 -8.476562 12.96875 -7.96875 C 12.15625 -7.457031 11.34375 -6.914062 10.53125 -6.34375 C 9.820312 -5.789062 9.101562 -5.195312 8.375 -4.5625 C 7.644531 -3.925781 6.882812 -3.164062 6.09375 -2.28125 C 5.75 -1.894531 5.363281 -1.441406 4.9375 -0.921875 C 4.507812 -0.398438 4.144531 0.0546875 3.84375 0.453125 C 3.75 0.453125 3.65625 0.367188 3.5625 0.203125 C 3.476562 0.046875 3.4375 -0.144531 3.4375 -0.375 C 3.4375 -0.613281 3.617188 -1.03125 3.984375 -1.625 C 4.359375 -2.226562 4.863281 -2.921875 5.5 -3.703125 C 6.132812 -4.492188 6.820312 -5.257812 7.5625 -6 C 7.90625 -6.34375 8.351562 -6.742188 8.90625 -7.203125 C 9.457031 -7.671875 9.945312 -8.117188 10.375 -8.546875 C 10.800781 -8.972656 11.015625 -9.28125 11.015625 -9.46875 C 11.015625 -9.601562 10.945312 -9.671875 10.8125 -9.671875 C 10.507812 -9.671875 10.023438 -9.507812 9.359375 -9.1875 C 8.691406 -8.863281 7.941406 -8.4375 7.109375 -7.90625 C 6.273438 -7.375 5.445312 -6.804688 4.625 -6.203125 C 3.800781 -5.597656 3.101562 -5.019531 2.53125 -4.46875 C 1.414062 -3.40625 0.503906 -2.460938 -0.203125 -1.640625 C -0.921875 -0.828125 -1.476562 -0.128906 -1.875 0.453125 C -1.96875 0.453125 -2.066406 0.367188 -2.171875 0.203125 C -2.273438 0.046875 -2.328125 -0.160156 -2.328125 -0.421875 C -2.328125 -0.671875 -2.113281 -1.125 -1.6875 -1.78125 C -1.257812 -2.4375 -0.695312 -3.203125 0 -4.078125 C 0.695312 -4.960938 1.457031 -5.832031 2.28125 -6.6875 C 2.84375 -7.289062 3.414062 -7.835938 4 -8.328125 C 4.59375 -8.828125 5.097656 -9.21875 5.515625 -9.5 C 5.804688 -9.675781 6.164062 -9.8125 6.59375 -9.90625 C 7.03125 -10 7.46875 -10.046875 7.90625 -10.046875 C 7.300781 -9.628906 6.554688 -9.023438 5.671875 -8.234375 C 4.796875 -7.453125 3.976562 -6.625 3.21875 -5.75 C 3.175781 -5.707031 3.160156 -5.671875 3.171875 -5.640625 C 3.179688 -5.617188 3.195312 -5.625 3.21875 -5.65625 C 3.65625 -6.019531 4.21875 -6.457031 4.90625 -6.96875 C 5.601562 -7.476562 6.34375 -7.976562 7.125 -8.46875 C 7.914062 -8.96875 8.671875 -9.378906 9.390625 -9.703125 C 10.109375 -10.023438 10.707031 -10.1875 11.1875 -10.1875 Z M 11.1875 -10.1875 "></path></g></g></g><g fill="#492c01" fill-opacity="1"><g transform="translate(115.439748, 26.311125)"><g><path d="M 13.3125 -9.90625 C 12.3125 -9.007812 11.347656 -8.109375 10.421875 -7.203125 C 9.503906 -6.304688 8.6875 -5.484375 7.96875 -4.734375 C 7.25 -3.984375 6.679688 -3.363281 6.265625 -2.875 C 5.828125 -2.363281 5.472656 -1.914062 5.203125 -1.53125 C 4.941406 -1.15625 4.8125 -0.851562 4.8125 -0.625 C 4.8125 -0.414062 4.925781 -0.3125 5.15625 -0.3125 C 5.394531 -0.3125 5.703125 -0.421875 6.078125 -0.640625 C 6.460938 -0.859375 6.863281 -1.113281 7.28125 -1.40625 C 7.695312 -1.695312 8.054688 -1.957031 8.359375 -2.1875 C 8.910156 -2.625 9.476562 -3.101562 10.0625 -3.625 C 10.65625 -4.144531 11.160156 -4.585938 11.578125 -4.953125 C 11.640625 -5.003906 11.71875 -5.050781 11.8125 -5.09375 C 11.90625 -5.132812 11.988281 -5.113281 12.0625 -5.03125 C 12.15625 -4.9375 12.097656 -4.796875 11.890625 -4.609375 C 11.378906 -4.117188 10.820312 -3.617188 10.21875 -3.109375 C 9.625 -2.609375 9.109375 -2.1875 8.671875 -1.84375 C 8.316406 -1.5625 7.914062 -1.257812 7.46875 -0.9375 C 7.019531 -0.613281 6.566406 -0.332031 6.109375 -0.09375 C 5.660156 0.132812 5.265625 0.25 4.921875 0.25 C 4.109375 0.25 3.703125 -0.144531 3.703125 -0.9375 C 3.703125 -1.1875 3.773438 -1.492188 3.921875 -1.859375 C 4.078125 -2.234375 4.34375 -2.640625 4.71875 -3.078125 C 3.71875 -2.179688 2.722656 -1.398438 1.734375 -0.734375 C 0.742188 -0.078125 -0.03125 0.25 -0.59375 0.25 C -1.375 0.25 -1.765625 -0.132812 -1.765625 -0.90625 C -1.785156 -1.53125 -1.535156 -2.296875 -1.015625 -3.203125 C -0.503906 -4.117188 0.144531 -4.96875 0.9375 -5.75 C 1.71875 -6.5625 2.609375 -7.304688 3.609375 -7.984375 C 4.617188 -8.671875 5.609375 -9.222656 6.578125 -9.640625 C 7.554688 -10.054688 8.367188 -10.265625 9.015625 -10.265625 C 9.335938 -10.265625 9.601562 -10.210938 9.8125 -10.109375 C 10.019531 -10.003906 10.125 -9.800781 10.125 -9.5 C 10.125 -9.3125 10.050781 -9.070312 9.90625 -8.78125 C 9.769531 -8.5 9.503906 -8.160156 9.109375 -7.765625 C 9.085938 -7.742188 9.082031 -7.722656 9.09375 -7.703125 C 9.101562 -7.691406 9.125 -7.703125 9.15625 -7.734375 C 9.6875 -8.265625 10.21875 -8.710938 10.75 -9.078125 C 11.28125 -9.453125 11.679688 -9.679688 11.953125 -9.765625 C 12.140625 -9.835938 12.316406 -9.878906 12.484375 -9.890625 C 12.660156 -9.898438 12.84375 -9.90625 13.03125 -9.90625 Z M 9.640625 -9.359375 C 9.640625 -9.609375 9.5 -9.734375 9.21875 -9.734375 C 8.726562 -9.734375 7.898438 -9.320312 6.734375 -8.5 C 5.566406 -7.6875 4.164062 -6.492188 2.53125 -4.921875 C 1.675781 -4.066406 0.929688 -3.234375 0.296875 -2.421875 C -0.335938 -1.617188 -0.65625 -1.019531 -0.65625 -0.625 C -0.65625 -0.53125 -0.632812 -0.445312 -0.59375 -0.375 C -0.5625 -0.3125 -0.46875 -0.28125 -0.3125 -0.28125 C -0.0078125 -0.28125 0.472656 -0.488281 1.140625 -0.90625 C 1.816406 -1.320312 2.597656 -1.898438 3.484375 -2.640625 C 4.367188 -3.378906 5.265625 -4.207031 6.171875 -5.125 C 6.585938 -5.539062 7.066406 -6.019531 7.609375 -6.5625 C 8.148438 -7.101562 8.625 -7.632812 9.03125 -8.15625 C 9.4375 -8.675781 9.640625 -9.078125 9.640625 -9.359375 Z M 9.640625 -9.359375 "></path></g></g></g><g fill="#492c01" fill-opacity="1"><g transform="translate(126.319243, 26.311125)"><g><path d="M 5.515625 -0.59375 C 5.515625 -0.363281 5.640625 -0.25 5.890625 -0.25 C 6.140625 -0.25 6.445312 -0.335938 6.8125 -0.515625 C 7.1875 -0.703125 7.578125 -0.921875 7.984375 -1.171875 C 8.390625 -1.429688 8.734375 -1.664062 9.015625 -1.875 C 9.398438 -2.175781 9.820312 -2.515625 10.28125 -2.890625 C 10.75 -3.273438 11.191406 -3.640625 11.609375 -3.984375 C 12.023438 -4.328125 12.347656 -4.601562 12.578125 -4.8125 C 12.804688 -5.039062 12.976562 -5.085938 13.09375 -4.953125 C 13.1875 -4.890625 13.144531 -4.765625 12.96875 -4.578125 C 12.664062 -4.316406 12.28125 -3.984375 11.8125 -3.578125 C 11.351562 -3.179688 10.890625 -2.789062 10.421875 -2.40625 C 9.960938 -2.03125 9.597656 -1.738281 9.328125 -1.53125 C 8.765625 -1.113281 8.128906 -0.703125 7.421875 -0.296875 C 6.722656 0.109375 6.085938 0.3125 5.515625 0.3125 C 4.703125 0.3125 4.296875 -0.0546875 4.296875 -0.796875 C 4.296875 -1.171875 4.414062 -1.601562 4.65625 -2.09375 C 4.90625 -2.59375 5.210938 -3.097656 5.578125 -3.609375 C 5.859375 -3.972656 6.160156 -4.332031 6.484375 -4.6875 C 6.804688 -5.050781 7.140625 -5.40625 7.484375 -5.75 C 7.234375 -5.59375 6.875 -5.382812 6.40625 -5.125 C 5.945312 -4.875 5.519531 -4.75 5.125 -4.75 C 4.800781 -4.75 4.550781 -4.828125 4.375 -4.984375 C 4.207031 -5.148438 3.984375 -5.234375 3.703125 -5.234375 C 3.523438 -5.234375 3.300781 -5.140625 3.03125 -4.953125 C 2.769531 -4.765625 2.519531 -4.566406 2.28125 -4.359375 C 2.050781 -4.160156 1.890625 -4.015625 1.796875 -3.921875 C 1.128906 -3.242188 0.503906 -2.539062 -0.078125 -1.8125 C -0.671875 -1.09375 -1.269531 -0.335938 -1.875 0.453125 C -2.007812 0.453125 -2.117188 0.367188 -2.203125 0.203125 C -2.285156 0.046875 -2.328125 -0.132812 -2.328125 -0.34375 C -2.328125 -0.644531 -2.085938 -1.15625 -1.609375 -1.875 C -1.140625 -2.59375 -0.550781 -3.390625 0.15625 -4.265625 C 0.863281 -5.140625 1.570312 -5.945312 2.28125 -6.6875 C 2.84375 -7.289062 3.410156 -7.835938 3.984375 -8.328125 C 4.566406 -8.828125 5.0625 -9.21875 5.46875 -9.5 C 5.769531 -9.675781 6.144531 -9.8125 6.59375 -9.90625 C 7.050781 -10 7.5 -10.046875 7.9375 -10.046875 C 7.5 -9.742188 6.96875 -9.320312 6.34375 -8.78125 C 5.71875 -8.238281 5.082031 -7.640625 4.4375 -6.984375 C 3.789062 -6.328125 3.191406 -5.675781 2.640625 -5.03125 C 2.960938 -5.28125 3.300781 -5.515625 3.65625 -5.734375 C 4.007812 -5.953125 4.316406 -6.0625 4.578125 -6.0625 C 4.898438 -6.0625 5.175781 -5.992188 5.40625 -5.859375 C 5.632812 -5.722656 5.890625 -5.65625 6.171875 -5.65625 C 6.566406 -5.65625 7 -5.78125 7.46875 -6.03125 C 7.9375 -6.28125 8.378906 -6.601562 8.796875 -7 C 9.398438 -7.550781 10.015625 -8.082031 10.640625 -8.59375 C 11.265625 -9.101562 11.785156 -9.472656 12.203125 -9.703125 C 12.453125 -9.835938 12.773438 -9.929688 13.171875 -9.984375 C 13.566406 -10.046875 13.878906 -10.066406 14.109375 -10.046875 C 13.109375 -9.148438 12.132812 -8.242188 11.1875 -7.328125 C 10.238281 -6.410156 9.390625 -5.5625 8.640625 -4.78125 C 7.890625 -4 7.304688 -3.363281 6.890625 -2.875 C 6.503906 -2.394531 6.175781 -1.957031 5.90625 -1.5625 C 5.644531 -1.164062 5.515625 -0.84375 5.515625 -0.59375 Z M 5.515625 -0.59375 "></path></g></g></g><g fill="#492c01" fill-opacity="1"><g transform="translate(138.307462, 26.311125)"><g><path d="M 13.3125 -9.90625 C 12.3125 -9.007812 11.347656 -8.109375 10.421875 -7.203125 C 9.503906 -6.304688 8.6875 -5.484375 7.96875 -4.734375 C 7.25 -3.984375 6.679688 -3.363281 6.265625 -2.875 C 5.828125 -2.363281 5.472656 -1.914062 5.203125 -1.53125 C 4.941406 -1.15625 4.8125 -0.851562 4.8125 -0.625 C 4.8125 -0.414062 4.925781 -0.3125 5.15625 -0.3125 C 5.394531 -0.3125 5.703125 -0.421875 6.078125 -0.640625 C 6.460938 -0.859375 6.863281 -1.113281 7.28125 -1.40625 C 7.695312 -1.695312 8.054688 -1.957031 8.359375 -2.1875 C 8.910156 -2.625 9.476562 -3.101562 10.0625 -3.625 C 10.65625 -4.144531 11.160156 -4.585938 11.578125 -4.953125 C 11.640625 -5.003906 11.71875 -5.050781 11.8125 -5.09375 C 11.90625 -5.132812 11.988281 -5.113281 12.0625 -5.03125 C 12.15625 -4.9375 12.097656 -4.796875 11.890625 -4.609375 C 11.378906 -4.117188 10.820312 -3.617188 10.21875 -3.109375 C 9.625 -2.609375 9.109375 -2.1875 8.671875 -1.84375 C 8.316406 -1.5625 7.914062 -1.257812 7.46875 -0.9375 C 7.019531 -0.613281 6.566406 -0.332031 6.109375 -0.09375 C 5.660156 0.132812 5.265625 0.25 4.921875 0.25 C 4.109375 0.25 3.703125 -0.144531 3.703125 -0.9375 C 3.703125 -1.1875 3.773438 -1.492188 3.921875 -1.859375 C 4.078125 -2.234375 4.34375 -2.640625 4.71875 -3.078125 C 3.71875 -2.179688 2.722656 -1.398438 1.734375 -0.734375 C 0.742188 -0.078125 -0.03125 0.25 -0.59375 0.25 C -1.375 0.25 -1.765625 -0.132812 -1.765625 -0.90625 C -1.785156 -1.53125 -1.535156 -2.296875 -1.015625 -3.203125 C -0.503906 -4.117188 0.144531 -4.96875 0.9375 -5.75 C 1.71875 -6.5625 2.609375 -7.304688 3.609375 -7.984375 C 4.617188 -8.671875 5.609375 -9.222656 6.578125 -9.640625 C 7.554688 -10.054688 8.367188 -10.265625 9.015625 -10.265625 C 9.335938 -10.265625 9.601562 -10.210938 9.8125 -10.109375 C 10.019531 -10.003906 10.125 -9.800781 10.125 -9.5 C 10.125 -9.3125 10.050781 -9.070312 9.90625 -8.78125 C 9.769531 -8.5 9.503906 -8.160156 9.109375 -7.765625 C 9.085938 -7.742188 9.082031 -7.722656 9.09375 -7.703125 C 9.101562 -7.691406 9.125 -7.703125 9.15625 -7.734375 C 9.6875 -8.265625 10.21875 -8.710938 10.75 -9.078125 C 11.28125 -9.453125 11.679688 -9.679688 11.953125 -9.765625 C 12.140625 -9.835938 12.316406 -9.878906 12.484375 -9.890625 C 12.660156 -9.898438 12.84375 -9.90625 13.03125 -9.90625 Z M 9.640625 -9.359375 C 9.640625 -9.609375 9.5 -9.734375 9.21875 -9.734375 C 8.726562 -9.734375 7.898438 -9.320312 6.734375 -8.5 C 5.566406 -7.6875 4.164062 -6.492188 2.53125 -4.921875 C 1.675781 -4.066406 0.929688 -3.234375 0.296875 -2.421875 C -0.335938 -1.617188 -0.65625 -1.019531 -0.65625 -0.625 C -0.65625 -0.53125 -0.632812 -0.445312 -0.59375 -0.375 C -0.5625 -0.3125 -0.46875 -0.28125 -0.3125 -0.28125 C -0.0078125 -0.28125 0.472656 -0.488281 1.140625 -0.90625 C 1.816406 -1.320312 2.597656 -1.898438 3.484375 -2.640625 C 4.367188 -3.378906 5.265625 -4.207031 6.171875 -5.125 C 6.585938 -5.539062 7.066406 -6.019531 7.609375 -6.5625 C 8.148438 -7.101562 8.625 -7.632812 9.03125 -8.15625 C 9.4375 -8.675781 9.640625 -9.078125 9.640625 -9.359375 Z M 9.640625 -9.359375 "></path></g></g></g><g fill="#492c01" fill-opacity="1"><g transform="translate(149.186956, 26.311125)"><g><path d="M 11.1875 -10.1875 C 11.8125 -10.1875 12.125 -9.882812 12.125 -9.28125 C 12.125 -9.03125 12.066406 -8.742188 11.953125 -8.421875 C 11.835938 -8.097656 11.65625 -7.796875 11.40625 -7.515625 C 12.070312 -7.953125 12.75 -8.378906 13.4375 -8.796875 C 14.132812 -9.210938 14.789062 -9.550781 15.40625 -9.8125 C 16.019531 -10.082031 16.507812 -10.21875 16.875 -10.21875 C 17.269531 -10.21875 17.546875 -10.109375 17.703125 -9.890625 C 17.867188 -9.671875 17.953125 -9.4375 17.953125 -9.1875 C 17.953125 -8.789062 17.765625 -8.335938 17.390625 -7.828125 C 17.023438 -7.316406 16.59375 -6.816406 16.09375 -6.328125 C 15.601562 -5.847656 15.148438 -5.425781 14.734375 -5.0625 C 14.171875 -4.550781 13.660156 -4.070312 13.203125 -3.625 C 12.742188 -3.175781 12.328125 -2.753906 11.953125 -2.359375 C 11.585938 -1.960938 11.285156 -1.613281 11.046875 -1.3125 C 10.816406 -1.007812 10.703125 -0.769531 10.703125 -0.59375 C 10.703125 -0.363281 10.832031 -0.25 11.09375 -0.25 C 11.394531 -0.25 11.800781 -0.378906 12.3125 -0.640625 C 12.832031 -0.910156 13.382812 -1.25 13.96875 -1.65625 C 14.707031 -2.1875 15.363281 -2.695312 15.9375 -3.1875 C 16.519531 -3.675781 17.019531 -4.09375 17.4375 -4.4375 C 17.820312 -4.800781 18.070312 -4.925781 18.1875 -4.8125 C 18.257812 -4.769531 18.273438 -4.703125 18.234375 -4.609375 C 18.203125 -4.515625 18.144531 -4.429688 18.0625 -4.359375 C 17.78125 -4.128906 17.40625 -3.816406 16.9375 -3.421875 C 16.476562 -3.035156 15.992188 -2.632812 15.484375 -2.21875 C 14.984375 -1.800781 14.515625 -1.441406 14.078125 -1.140625 C 13.472656 -0.703125 12.875 -0.347656 12.28125 -0.078125 C 11.695312 0.179688 11.1875 0.3125 10.75 0.3125 C 10.445312 0.3125 10.164062 0.207031 9.90625 0 C 9.65625 -0.207031 9.53125 -0.53125 9.53125 -0.96875 C 9.53125 -1.5 9.773438 -2.125 10.265625 -2.84375 C 10.703125 -3.445312 11.128906 -3.960938 11.546875 -4.390625 C 11.960938 -4.816406 12.523438 -5.351562 13.234375 -6 C 13.609375 -6.34375 14.066406 -6.738281 14.609375 -7.1875 C 15.148438 -7.632812 15.640625 -8.070312 16.078125 -8.5 C 16.515625 -8.9375 16.734375 -9.257812 16.734375 -9.46875 C 16.734375 -9.601562 16.664062 -9.671875 16.53125 -9.671875 C 16.300781 -9.671875 15.851562 -9.515625 15.1875 -9.203125 C 14.53125 -8.890625 13.789062 -8.476562 12.96875 -7.96875 C 12.15625 -7.457031 11.34375 -6.914062 10.53125 -6.34375 C 9.820312 -5.789062 9.101562 -5.195312 8.375 -4.5625 C 7.644531 -3.925781 6.882812 -3.164062 6.09375 -2.28125 C 5.75 -1.894531 5.363281 -1.441406 4.9375 -0.921875 C 4.507812 -0.398438 4.144531 0.0546875 3.84375 0.453125 C 3.75 0.453125 3.65625 0.367188 3.5625 0.203125 C 3.476562 0.046875 3.4375 -0.144531 3.4375 -0.375 C 3.4375 -0.613281 3.617188 -1.03125 3.984375 -1.625 C 4.359375 -2.226562 4.863281 -2.921875 5.5 -3.703125 C 6.132812 -4.492188 6.820312 -5.257812 7.5625 -6 C 7.90625 -6.34375 8.351562 -6.742188 8.90625 -7.203125 C 9.457031 -7.671875 9.945312 -8.117188 10.375 -8.546875 C 10.800781 -8.972656 11.015625 -9.28125 11.015625 -9.46875 C 11.015625 -9.601562 10.945312 -9.671875 10.8125 -9.671875 C 10.507812 -9.671875 10.023438 -9.507812 9.359375 -9.1875 C 8.691406 -8.863281 7.941406 -8.4375 7.109375 -7.90625 C 6.273438 -7.375 5.445312 -6.804688 4.625 -6.203125 C 3.800781 -5.597656 3.101562 -5.019531 2.53125 -4.46875 C 1.414062 -3.40625 0.503906 -2.460938 -0.203125 -1.640625 C -0.921875 -0.828125 -1.476562 -0.128906 -1.875 0.453125 C -1.96875 0.453125 -2.066406 0.367188 -2.171875 0.203125 C -2.273438 0.046875 -2.328125 -0.160156 -2.328125 -0.421875 C -2.328125 -0.671875 -2.113281 -1.125 -1.6875 -1.78125 C -1.257812 -2.4375 -0.695312 -3.203125 0 -4.078125 C 0.695312 -4.960938 1.457031 -5.832031 2.28125 -6.6875 C 2.84375 -7.289062 3.414062 -7.835938 4 -8.328125 C 4.59375 -8.828125 5.097656 -9.21875 5.515625 -9.5 C 5.804688 -9.675781 6.164062 -9.8125 6.59375 -9.90625 C 7.03125 -10 7.46875 -10.046875 7.90625 -10.046875 C 7.300781 -9.628906 6.554688 -9.023438 5.671875 -8.234375 C 4.796875 -7.453125 3.976562 -6.625 3.21875 -5.75 C 3.175781 -5.707031 3.160156 -5.671875 3.171875 -5.640625 C 3.179688 -5.617188 3.195312 -5.625 3.21875 -5.65625 C 3.65625 -6.019531 4.21875 -6.457031 4.90625 -6.96875 C 5.601562 -7.476562 6.34375 -7.976562 7.125 -8.46875 C 7.914062 -8.96875 8.671875 -9.378906 9.390625 -9.703125 C 10.109375 -10.023438 10.707031 -10.1875 11.1875 -10.1875 Z M 11.1875 -10.1875 "></path></g></g></g><g fill="#492c01" fill-opacity="1"><g transform="translate(166.476343, 26.311125)"><g><path d="M 9.875 -5.125 C 10.289062 -5.5625 10.769531 -6.035156 11.3125 -6.546875 C 11.851562 -7.054688 12.414062 -7.554688 13 -8.046875 C 12.46875 -7.804688 11.96875 -7.585938 11.5 -7.390625 C 11.039062 -7.203125 10.582031 -7.015625 10.125 -6.828125 C 9.6875 -6.660156 9.21875 -6.519531 8.71875 -6.40625 C 8.21875 -6.289062 7.664062 -6.164062 7.0625 -6.03125 C 7.394531 -5.78125 7.5625 -5.363281 7.5625 -4.78125 C 7.5625 -4.15625 7.351562 -3.570312 6.9375 -3.03125 C 6.519531 -2.488281 6.046875 -2.019531 5.515625 -1.625 C 4.628906 -0.9375 3.753906 -0.441406 2.890625 -0.140625 C 2.023438 0.160156 1.15625 0.3125 0.28125 0.3125 C -0.363281 0.3125 -0.84375 0.175781 -1.15625 -0.09375 C -1.46875 -0.375 -1.625 -0.734375 -1.625 -1.171875 C -1.625 -1.773438 -1.4375 -2.359375 -1.0625 -2.921875 C -0.695312 -3.492188 -0.132812 -4.207031 0.625 -5.0625 C 1.757812 -6.3125 2.8125 -7.320312 3.78125 -8.09375 C 4.75 -8.863281 5.488281 -9.390625 6 -9.671875 C 6.226562 -9.785156 6.5625 -9.878906 7 -9.953125 C 7.4375 -10.035156 7.816406 -10.078125 8.140625 -10.078125 C 7.265625 -9.367188 6.28125 -8.523438 5.1875 -7.546875 C 4.101562 -6.578125 3.101562 -5.578125 2.1875 -4.546875 C 1.351562 -3.617188 0.753906 -2.894531 0.390625 -2.375 C 0.0351562 -1.851562 -0.1875 -1.46875 -0.28125 -1.21875 C -0.375 -0.976562 -0.421875 -0.789062 -0.421875 -0.65625 C -0.421875 -0.445312 -0.34375 -0.300781 -0.1875 -0.21875 C -0.0390625 -0.144531 0.113281 -0.109375 0.28125 -0.109375 C 0.664062 -0.109375 1.238281 -0.316406 2 -0.734375 C 2.769531 -1.148438 3.753906 -1.945312 4.953125 -3.125 C 5.691406 -3.832031 6.160156 -4.347656 6.359375 -4.671875 C 6.554688 -4.992188 6.65625 -5.273438 6.65625 -5.515625 C 6.65625 -5.691406 6.5625 -5.804688 6.375 -5.859375 C 6.21875 -5.804688 6.023438 -5.757812 5.796875 -5.71875 C 5.578125 -5.675781 5.363281 -5.65625 5.15625 -5.65625 C 4.71875 -5.65625 4.5 -5.742188 4.5 -5.921875 C 4.5 -6.128906 4.664062 -6.269531 5 -6.34375 C 5.34375 -6.414062 5.617188 -6.453125 5.828125 -6.453125 C 5.941406 -6.453125 6.070312 -6.441406 6.21875 -6.421875 C 6.375 -6.410156 6.492188 -6.382812 6.578125 -6.34375 C 8.148438 -6.6875 9.515625 -7.066406 10.671875 -7.484375 C 11.367188 -7.734375 12.070312 -8.035156 12.78125 -8.390625 C 13.5 -8.753906 14.3125 -9.191406 15.21875 -9.703125 C 15.46875 -9.835938 15.789062 -9.929688 16.1875 -9.984375 C 16.582031 -10.046875 16.894531 -10.066406 17.125 -10.046875 C 16.125 -9.148438 15.148438 -8.242188 14.203125 -7.328125 C 13.253906 -6.410156 12.410156 -5.5625 11.671875 -4.78125 C 10.929688 -4 10.359375 -3.363281 9.953125 -2.875 C 9.535156 -2.363281 9.195312 -1.914062 8.9375 -1.53125 C 8.6875 -1.15625 8.5625 -0.84375 8.5625 -0.59375 C 8.5625 -0.363281 8.6875 -0.25 8.9375 -0.25 C 9.164062 -0.25 9.472656 -0.335938 9.859375 -0.515625 C 10.242188 -0.703125 10.632812 -0.921875 11.03125 -1.171875 C 11.4375 -1.429688 11.78125 -1.664062 12.0625 -1.875 C 12.457031 -2.175781 12.878906 -2.515625 13.328125 -2.890625 C 13.773438 -3.273438 14.207031 -3.640625 14.625 -3.984375 C 15.039062 -4.328125 15.363281 -4.601562 15.59375 -4.8125 C 15.84375 -5.019531 16.015625 -5.066406 16.109375 -4.953125 C 16.203125 -4.859375 16.171875 -4.734375 16.015625 -4.578125 C 15.710938 -4.316406 15.320312 -3.984375 14.84375 -3.578125 C 14.375 -3.179688 13.910156 -2.789062 13.453125 -2.40625 C 13.003906 -2.03125 12.644531 -1.738281 12.375 -1.53125 C 11.789062 -1.113281 11.144531 -0.703125 10.4375 -0.296875 C 9.738281 0.109375 9.113281 0.3125 8.5625 0.3125 C 7.75 0.3125 7.34375 -0.0546875 7.34375 -0.796875 C 7.34375 -1.328125 7.566406 -1.972656 8.015625 -2.734375 C 8.472656 -3.492188 9.09375 -4.289062 9.875 -5.125 Z M 9.875 -5.125 "></path></g></g></g><g fill="#492c01" fill-opacity="1"><g transform="translate(181.478949, 26.311125)"><g><path d="M 5.515625 -0.59375 C 5.515625 -0.363281 5.640625 -0.25 5.890625 -0.25 C 6.140625 -0.25 6.445312 -0.335938 6.8125 -0.515625 C 7.1875 -0.703125 7.578125 -0.921875 7.984375 -1.171875 C 8.390625 -1.429688 8.734375 -1.664062 9.015625 -1.875 C 9.398438 -2.175781 9.820312 -2.515625 10.28125 -2.890625 C 10.75 -3.273438 11.191406 -3.640625 11.609375 -3.984375 C 12.023438 -4.328125 12.347656 -4.601562 12.578125 -4.8125 C 12.804688 -5.039062 12.976562 -5.085938 13.09375 -4.953125 C 13.1875 -4.890625 13.144531 -4.765625 12.96875 -4.578125 C 12.664062 -4.316406 12.28125 -3.984375 11.8125 -3.578125 C 11.351562 -3.179688 10.890625 -2.789062 10.421875 -2.40625 C 9.960938 -2.03125 9.597656 -1.738281 9.328125 -1.53125 C 8.765625 -1.113281 8.128906 -0.703125 7.421875 -0.296875 C 6.722656 0.109375 6.085938 0.3125 5.515625 0.3125 C 4.703125 0.3125 4.296875 -0.0546875 4.296875 -0.796875 C 4.296875 -1.171875 4.414062 -1.601562 4.65625 -2.09375 C 4.90625 -2.59375 5.210938 -3.097656 5.578125 -3.609375 C 5.859375 -3.972656 6.160156 -4.332031 6.484375 -4.6875 C 6.804688 -5.050781 7.140625 -5.40625 7.484375 -5.75 C 7.234375 -5.59375 6.875 -5.382812 6.40625 -5.125 C 5.945312 -4.875 5.519531 -4.75 5.125 -4.75 C 4.800781 -4.75 4.550781 -4.828125 4.375 -4.984375 C 4.207031 -5.148438 3.984375 -5.234375 3.703125 -5.234375 C 3.523438 -5.234375 3.300781 -5.140625 3.03125 -4.953125 C 2.769531 -4.765625 2.519531 -4.566406 2.28125 -4.359375 C 2.050781 -4.160156 1.890625 -4.015625 1.796875 -3.921875 C 1.128906 -3.242188 0.503906 -2.539062 -0.078125 -1.8125 C -0.671875 -1.09375 -1.269531 -0.335938 -1.875 0.453125 C -2.007812 0.453125 -2.117188 0.367188 -2.203125 0.203125 C -2.285156 0.046875 -2.328125 -0.132812 -2.328125 -0.34375 C -2.328125 -0.644531 -2.085938 -1.15625 -1.609375 -1.875 C -1.140625 -2.59375 -0.550781 -3.390625 0.15625 -4.265625 C 0.863281 -5.140625 1.570312 -5.945312 2.28125 -6.6875 C 2.84375 -7.289062 3.410156 -7.835938 3.984375 -8.328125 C 4.566406 -8.828125 5.0625 -9.21875 5.46875 -9.5 C 5.769531 -9.675781 6.144531 -9.8125 6.59375 -9.90625 C 7.050781 -10 7.5 -10.046875 7.9375 -10.046875 C 7.5 -9.742188 6.96875 -9.320312 6.34375 -8.78125 C 5.71875 -8.238281 5.082031 -7.640625 4.4375 -6.984375 C 3.789062 -6.328125 3.191406 -5.675781 2.640625 -5.03125 C 2.960938 -5.28125 3.300781 -5.515625 3.65625 -5.734375 C 4.007812 -5.953125 4.316406 -6.0625 4.578125 -6.0625 C 4.898438 -6.0625 5.175781 -5.992188 5.40625 -5.859375 C 5.632812 -5.722656 5.890625 -5.65625 6.171875 -5.65625 C 6.566406 -5.65625 7 -5.78125 7.46875 -6.03125 C 7.9375 -6.28125 8.378906 -6.601562 8.796875 -7 C 9.398438 -7.550781 10.015625 -8.082031 10.640625 -8.59375 C 11.265625 -9.101562 11.785156 -9.472656 12.203125 -9.703125 C 12.453125 -9.835938 12.773438 -9.929688 13.171875 -9.984375 C 13.566406 -10.046875 13.878906 -10.066406 14.109375 -10.046875 C 13.109375 -9.148438 12.132812 -8.242188 11.1875 -7.328125 C 10.238281 -6.410156 9.390625 -5.5625 8.640625 -4.78125 C 7.890625 -4 7.304688 -3.363281 6.890625 -2.875 C 6.503906 -2.394531 6.175781 -1.957031 5.90625 -1.5625 C 5.644531 -1.164062 5.515625 -0.84375 5.515625 -0.59375 Z M 5.515625 -0.59375 "></path></g></g></g><g fill="#492c01" fill-opacity="1"><g transform="translate(193.467168, 26.311125)"><g><path d="M 13.3125 -9.90625 C 12.3125 -9.007812 11.347656 -8.109375 10.421875 -7.203125 C 9.503906 -6.304688 8.6875 -5.484375 7.96875 -4.734375 C 7.25 -3.984375 6.679688 -3.363281 6.265625 -2.875 C 5.828125 -2.363281 5.472656 -1.914062 5.203125 -1.53125 C 4.941406 -1.15625 4.8125 -0.851562 4.8125 -0.625 C 4.8125 -0.414062 4.925781 -0.3125 5.15625 -0.3125 C 5.394531 -0.3125 5.703125 -0.421875 6.078125 -0.640625 C 6.460938 -0.859375 6.863281 -1.113281 7.28125 -1.40625 C 7.695312 -1.695312 8.054688 -1.957031 8.359375 -2.1875 C 8.910156 -2.625 9.476562 -3.101562 10.0625 -3.625 C 10.65625 -4.144531 11.160156 -4.585938 11.578125 -4.953125 C 11.640625 -5.003906 11.71875 -5.050781 11.8125 -5.09375 C 11.90625 -5.132812 11.988281 -5.113281 12.0625 -5.03125 C 12.15625 -4.9375 12.097656 -4.796875 11.890625 -4.609375 C 11.378906 -4.117188 10.820312 -3.617188 10.21875 -3.109375 C 9.625 -2.609375 9.109375 -2.1875 8.671875 -1.84375 C 8.316406 -1.5625 7.914062 -1.257812 7.46875 -0.9375 C 7.019531 -0.613281 6.566406 -0.332031 6.109375 -0.09375 C 5.660156 0.132812 5.265625 0.25 4.921875 0.25 C 4.109375 0.25 3.703125 -0.144531 3.703125 -0.9375 C 3.703125 -1.1875 3.773438 -1.492188 3.921875 -1.859375 C 4.078125 -2.234375 4.34375 -2.640625 4.71875 -3.078125 C 3.71875 -2.179688 2.722656 -1.398438 1.734375 -0.734375 C 0.742188 -0.078125 -0.03125 0.25 -0.59375 0.25 C -1.375 0.25 -1.765625 -0.132812 -1.765625 -0.90625 C -1.785156 -1.53125 -1.535156 -2.296875 -1.015625 -3.203125 C -0.503906 -4.117188 0.144531 -4.96875 0.9375 -5.75 C 1.71875 -6.5625 2.609375 -7.304688 3.609375 -7.984375 C 4.617188 -8.671875 5.609375 -9.222656 6.578125 -9.640625 C 7.554688 -10.054688 8.367188 -10.265625 9.015625 -10.265625 C 9.335938 -10.265625 9.601562 -10.210938 9.8125 -10.109375 C 10.019531 -10.003906 10.125 -9.800781 10.125 -9.5 C 10.125 -9.3125 10.050781 -9.070312 9.90625 -8.78125 C 9.769531 -8.5 9.503906 -8.160156 9.109375 -7.765625 C 9.085938 -7.742188 9.082031 -7.722656 9.09375 -7.703125 C 9.101562 -7.691406 9.125 -7.703125 9.15625 -7.734375 C 9.6875 -8.265625 10.21875 -8.710938 10.75 -9.078125 C 11.28125 -9.453125 11.679688 -9.679688 11.953125 -9.765625 C 12.140625 -9.835938 12.316406 -9.878906 12.484375 -9.890625 C 12.660156 -9.898438 12.84375 -9.90625 13.03125 -9.90625 Z M 9.640625 -9.359375 C 9.640625 -9.609375 9.5 -9.734375 9.21875 -9.734375 C 8.726562 -9.734375 7.898438 -9.320312 6.734375 -8.5 C 5.566406 -7.6875 4.164062 -6.492188 2.53125 -4.921875 C 1.675781 -4.066406 0.929688 -3.234375 0.296875 -2.421875 C -0.335938 -1.617188 -0.65625 -1.019531 -0.65625 -0.625 C -0.65625 -0.53125 -0.632812 -0.445312 -0.59375 -0.375 C -0.5625 -0.3125 -0.46875 -0.28125 -0.3125 -0.28125 C -0.0078125 -0.28125 0.472656 -0.488281 1.140625 -0.90625 C 1.816406 -1.320312 2.597656 -1.898438 3.484375 -2.640625 C 4.367188 -3.378906 5.265625 -4.207031 6.171875 -5.125 C 6.585938 -5.539062 7.066406 -6.019531 7.609375 -6.5625 C 8.148438 -7.101562 8.625 -7.632812 9.03125 -8.15625 C 9.4375 -8.675781 9.640625 -9.078125 9.640625 -9.359375 Z M 9.640625 -9.359375 "></path></g></g></g><g fill="#492c01" fill-opacity="1"><g transform="translate(204.346663, 26.311125)"><g></g></g></g><g fill="#492c01" fill-opacity="1"><g transform="translate(211.553466, 26.311125)"><g><path d="M 0.171875 -3.875 C 0.0976562 -3.8125 0.0195312 -3.765625 -0.0625 -3.734375 C -0.15625 -3.710938 -0.226562 -3.738281 -0.28125 -3.8125 C -0.320312 -3.882812 -0.316406 -3.957031 -0.265625 -4.03125 C -0.222656 -4.113281 -0.171875 -4.179688 -0.109375 -4.234375 C 0.453125 -4.710938 1.078125 -5.265625 1.765625 -5.890625 C 2.460938 -6.515625 3.109375 -7.113281 3.703125 -7.6875 C 4.285156 -8.21875 4.796875 -8.707031 5.234375 -9.15625 C 5.671875 -9.613281 6.078125 -10.0625 6.453125 -10.5 C 6.453125 -10.75 6.578125 -11.046875 6.828125 -11.390625 C 7.078125 -11.742188 7.398438 -12.070312 7.796875 -12.375 C 8.117188 -12.601562 8.414062 -12.78125 8.6875 -12.90625 C 8.96875 -13.03125 9.203125 -13.109375 9.390625 -13.140625 C 9.460938 -13.160156 9.582031 -13.179688 9.75 -13.203125 C 9.925781 -13.222656 10.097656 -13.234375 10.265625 -13.234375 C 10.609375 -13.234375 10.78125 -13.1875 10.78125 -13.09375 C 10.78125 -13.03125 10.632812 -12.894531 10.34375 -12.6875 C 10.050781 -12.476562 9.734375 -12.273438 9.390625 -12.078125 C 9.046875 -11.878906 8.789062 -11.734375 8.625 -11.640625 C 8.257812 -11.410156 7.914062 -11.179688 7.59375 -10.953125 C 7.269531 -10.722656 7.109375 -10.515625 7.109375 -10.328125 C 7.109375 -10.234375 7.222656 -10.132812 7.453125 -10.03125 C 7.679688 -9.925781 7.851562 -9.851562 7.96875 -9.8125 C 8.613281 -9.601562 8.9375 -9.28125 8.9375 -8.84375 C 8.9375 -8.375 8.765625 -7.878906 8.421875 -7.359375 C 8.078125 -6.835938 7.660156 -6.328125 7.171875 -5.828125 C 6.691406 -5.335938 6.253906 -4.910156 5.859375 -4.546875 C 5.210938 -3.941406 4.644531 -3.40625 4.15625 -2.9375 C 3.675781 -2.476562 3.273438 -2.050781 2.953125 -1.65625 C 2.578125 -1.21875 2.390625 -0.875 2.390625 -0.625 C 2.390625 -0.394531 2.53125 -0.28125 2.8125 -0.28125 C 3.039062 -0.28125 3.335938 -0.367188 3.703125 -0.546875 C 4.078125 -0.734375 4.453125 -0.953125 4.828125 -1.203125 C 5.210938 -1.460938 5.519531 -1.675781 5.75 -1.84375 C 6.070312 -2.070312 6.460938 -2.367188 6.921875 -2.734375 C 7.390625 -3.109375 7.851562 -3.488281 8.3125 -3.875 C 8.78125 -4.269531 9.164062 -4.609375 9.46875 -4.890625 C 9.550781 -4.929688 9.617188 -4.96875 9.671875 -5 C 9.734375 -5.039062 9.800781 -5.023438 9.875 -4.953125 C 9.988281 -4.859375 9.96875 -4.734375 9.8125 -4.578125 C 9.457031 -4.253906 9.039062 -3.890625 8.5625 -3.484375 C 8.09375 -3.078125 7.628906 -2.691406 7.171875 -2.328125 C 6.710938 -1.972656 6.304688 -1.671875 5.953125 -1.421875 C 5.378906 -1.003906 4.78125 -0.617188 4.15625 -0.265625 C 3.53125 0.078125 3.023438 0.25 2.640625 0.25 C 1.828125 0.25 1.421875 -0.164062 1.421875 -1 C 1.421875 -1.71875 1.738281 -2.492188 2.375 -3.328125 C 3.007812 -4.160156 3.867188 -5.050781 4.953125 -6 C 5.390625 -6.382812 5.84375 -6.789062 6.3125 -7.21875 C 6.789062 -7.644531 7.195312 -8.023438 7.53125 -8.359375 C 7.875 -8.703125 8.03125 -8.929688 8 -9.046875 C 7.976562 -9.179688 7.910156 -9.269531 7.796875 -9.3125 C 7.679688 -9.363281 7.5 -9.445312 7.25 -9.5625 C 6.945312 -9.726562 6.738281 -9.878906 6.625 -10.015625 C 6.25 -9.597656 5.84375 -9.171875 5.40625 -8.734375 C 4.96875 -8.296875 4.519531 -7.84375 4.0625 -7.375 C 3.4375 -6.800781 2.753906 -6.171875 2.015625 -5.484375 C 1.273438 -4.804688 0.660156 -4.269531 0.171875 -3.875 Z M 0.171875 -3.875 "></path></g></g></g><g fill="#492c01" fill-opacity="1"><g transform="translate(220.354065, 26.311125)"><g><path d="M 0.109375 0.3125 C -0.304688 0.3125 -0.703125 0.207031 -1.078125 0 C -1.460938 -0.207031 -1.65625 -0.644531 -1.65625 -1.3125 C -1.65625 -1.78125 -1.484375 -2.425781 -1.140625 -3.25 C -0.796875 -4.082031 -0.0664062 -5.03125 1.046875 -6.09375 C 1.828125 -6.832031 2.675781 -7.515625 3.59375 -8.140625 C 4.519531 -8.765625 5.414062 -9.273438 6.28125 -9.671875 C 7.15625 -10.066406 7.867188 -10.265625 8.421875 -10.265625 C 8.765625 -10.265625 9.023438 -10.179688 9.203125 -10.015625 C 9.378906 -9.847656 9.46875 -9.640625 9.46875 -9.390625 C 9.46875 -9.023438 9.28125 -8.628906 8.90625 -8.203125 C 8.539062 -7.773438 8.113281 -7.394531 7.625 -7.0625 C 7.070312 -6.695312 6.445312 -6.378906 5.75 -6.109375 C 5.0625 -5.847656 4.453125 -5.71875 3.921875 -5.71875 C 3.660156 -5.71875 3.4375 -5.765625 3.25 -5.859375 C 2.675781 -5.328125 2.113281 -4.75 1.5625 -4.125 C 1.007812 -3.5 0.546875 -2.894531 0.171875 -2.3125 C -0.191406 -1.738281 -0.375 -1.269531 -0.375 -0.90625 C -0.375 -0.4375 -0.109375 -0.203125 0.421875 -0.203125 C 0.765625 -0.203125 1.203125 -0.304688 1.734375 -0.515625 C 2.265625 -0.722656 2.816406 -1.015625 3.390625 -1.390625 C 4.222656 -1.921875 5.035156 -2.515625 5.828125 -3.171875 C 6.628906 -3.828125 7.25 -4.351562 7.6875 -4.75 C 7.800781 -4.863281 7.914062 -4.953125 8.03125 -5.015625 C 8.15625 -5.085938 8.25 -5.09375 8.3125 -5.03125 C 8.382812 -4.957031 8.390625 -4.875 8.328125 -4.78125 C 8.273438 -4.6875 8.210938 -4.609375 8.140625 -4.546875 C 7.566406 -4.015625 6.941406 -3.472656 6.265625 -2.921875 C 5.597656 -2.378906 4.882812 -1.84375 4.125 -1.3125 C 3.539062 -0.925781 2.890625 -0.554688 2.171875 -0.203125 C 1.460938 0.140625 0.773438 0.3125 0.109375 0.3125 Z M 8.875 -9.640625 C 8.875 -9.773438 8.789062 -9.84375 8.625 -9.84375 C 8.394531 -9.84375 7.96875 -9.640625 7.34375 -9.234375 C 6.71875 -8.828125 6.050781 -8.332031 5.34375 -7.75 C 4.644531 -7.175781 4.03125 -6.625 3.5 -6.09375 C 3.59375 -6.050781 3.6875 -6.03125 3.78125 -6.03125 C 4.125 -6.03125 4.625 -6.164062 5.28125 -6.4375 C 5.9375 -6.71875 6.59375 -7.125 7.25 -7.65625 C 7.726562 -8.050781 8.117188 -8.425781 8.421875 -8.78125 C 8.722656 -9.144531 8.875 -9.429688 8.875 -9.640625 Z M 8.875 -9.640625 "></path></g></g></g><g fill="#492c01" fill-opacity="1"><g transform="translate(227.560868, 26.311125)"><g><path d="M 15.25 -13.96875 C 15.34375 -13.96875 15.390625 -13.921875 15.390625 -13.828125 C 15.390625 -13.804688 15.351562 -13.738281 15.28125 -13.625 C 14.632812 -13.019531 13.867188 -12.457031 12.984375 -11.9375 C 12.109375 -11.414062 11.15625 -11.15625 10.125 -11.15625 C 8.800781 -11.15625 8.140625 -11.640625 8.140625 -12.609375 C 8.140625 -12.984375 8.269531 -13.300781 8.53125 -13.5625 C 8.800781 -13.832031 9.050781 -13.96875 9.28125 -13.96875 C 9.375 -13.96875 9.421875 -13.929688 9.421875 -13.859375 C 9.421875 -13.835938 9.390625 -13.769531 9.328125 -13.65625 C 9.273438 -13.539062 9.25 -13.390625 9.25 -13.203125 C 9.25 -12.835938 9.394531 -12.5625 9.6875 -12.375 C 9.976562 -12.1875 10.351562 -12.09375 10.8125 -12.09375 C 11.625 -12.09375 12.421875 -12.304688 13.203125 -12.734375 C 13.984375 -13.160156 14.597656 -13.546875 15.046875 -13.890625 C 15.128906 -13.941406 15.195312 -13.96875 15.25 -13.96875 Z M 13.3125 -10.125 C 12.3125 -9.21875 11.351562 -8.300781 10.4375 -7.375 C 9.53125 -6.457031 8.71875 -5.609375 8 -4.828125 C 7.289062 -4.054688 6.726562 -3.414062 6.3125 -2.90625 C 5.894531 -2.40625 5.535156 -1.953125 5.234375 -1.546875 C 4.929688 -1.140625 4.78125 -0.832031 4.78125 -0.625 C 4.78125 -0.414062 4.894531 -0.3125 5.125 -0.3125 C 5.351562 -0.3125 5.660156 -0.414062 6.046875 -0.625 C 6.429688 -0.832031 6.816406 -1.078125 7.203125 -1.359375 C 7.597656 -1.648438 7.921875 -1.890625 8.171875 -2.078125 C 8.734375 -2.535156 9.316406 -3.023438 9.921875 -3.546875 C 10.535156 -4.066406 11.078125 -4.523438 11.546875 -4.921875 C 11.628906 -4.960938 11.707031 -5 11.78125 -5.03125 C 11.851562 -5.070312 11.921875 -5.054688 11.984375 -4.984375 C 12.109375 -4.867188 12.078125 -4.742188 11.890625 -4.609375 C 11.566406 -4.328125 11.191406 -4 10.765625 -3.625 C 10.335938 -3.257812 9.921875 -2.910156 9.515625 -2.578125 C 9.109375 -2.242188 8.78125 -1.972656 8.53125 -1.765625 C 7.96875 -1.347656 7.351562 -0.90625 6.6875 -0.4375 C 6.019531 0.0195312 5.421875 0.25 4.890625 0.25 C 4.421875 0.25 4.097656 0.140625 3.921875 -0.078125 C 3.753906 -0.304688 3.671875 -0.59375 3.671875 -0.9375 C 3.671875 -1.445312 3.890625 -2.070312 4.328125 -2.8125 C 4.097656 -2.570312 3.875 -2.363281 3.65625 -2.1875 C 3.4375 -2.019531 3.257812 -1.878906 3.125 -1.765625 C 2.59375 -1.328125 1.96875 -0.878906 1.25 -0.421875 C 0.53125 0.0234375 -0.09375 0.25 -0.625 0.25 C -1.0625 0.25 -1.363281 0.148438 -1.53125 -0.046875 C -1.707031 -0.242188 -1.796875 -0.492188 -1.796875 -0.796875 C -1.796875 -1.367188 -1.566406 -2.03125 -1.109375 -2.78125 C -0.648438 -3.539062 -0.0234375 -4.347656 0.765625 -5.203125 C 1.222656 -5.679688 1.773438 -6.203125 2.421875 -6.765625 C 3.066406 -7.335938 3.71875 -7.867188 4.375 -8.359375 C 5.039062 -8.859375 5.601562 -9.238281 6.0625 -9.5 C 6.320312 -9.65625 6.6875 -9.769531 7.15625 -9.84375 C 7.625 -9.914062 7.976562 -9.9375 8.21875 -9.90625 C 7.195312 -9.082031 6.195312 -8.222656 5.21875 -7.328125 C 4.238281 -6.441406 3.367188 -5.609375 2.609375 -4.828125 C 1.859375 -4.054688 1.273438 -3.414062 0.859375 -2.90625 C 0.453125 -2.40625 0.101562 -1.953125 -0.1875 -1.546875 C -0.476562 -1.140625 -0.625 -0.832031 -0.625 -0.625 C -0.625 -0.414062 -0.519531 -0.3125 -0.3125 -0.3125 C -0.0820312 -0.3125 0.226562 -0.414062 0.625 -0.625 C 1.019531 -0.832031 1.421875 -1.078125 1.828125 -1.359375 C 2.242188 -1.648438 2.59375 -1.914062 2.875 -2.15625 C 3.175781 -2.382812 3.550781 -2.695312 4 -3.09375 C 4.445312 -3.5 4.875 -3.90625 5.28125 -4.3125 C 5.6875 -4.71875 5.984375 -5.015625 6.171875 -5.203125 C 6.628906 -5.679688 7.179688 -6.222656 7.828125 -6.828125 C 8.472656 -7.429688 9.117188 -8.003906 9.765625 -8.546875 C 10.421875 -9.085938 10.976562 -9.492188 11.4375 -9.765625 C 11.625 -9.890625 11.925781 -9.984375 12.34375 -10.046875 C 12.757812 -10.117188 13.082031 -10.144531 13.3125 -10.125 Z M 13.3125 -10.125 "></path></g></g></g><g fill="#492c01" fill-opacity="1"><g transform="translate(238.405711, 26.311125)"><g><path d="M 13.3125 -10.125 C 12.3125 -9.21875 11.351562 -8.300781 10.4375 -7.375 C 9.53125 -6.457031 8.71875 -5.609375 8 -4.828125 C 7.289062 -4.054688 6.726562 -3.414062 6.3125 -2.90625 C 5.894531 -2.40625 5.535156 -1.953125 5.234375 -1.546875 C 4.929688 -1.140625 4.78125 -0.832031 4.78125 -0.625 C 4.78125 -0.414062 4.894531 -0.3125 5.125 -0.3125 C 5.351562 -0.3125 5.660156 -0.414062 6.046875 -0.625 C 6.429688 -0.832031 6.816406 -1.078125 7.203125 -1.359375 C 7.597656 -1.648438 7.921875 -1.890625 8.171875 -2.078125 C 8.734375 -2.535156 9.316406 -3.023438 9.921875 -3.546875 C 10.535156 -4.066406 11.078125 -4.523438 11.546875 -4.921875 C 11.628906 -4.960938 11.707031 -5 11.78125 -5.03125 C 11.851562 -5.070312 11.921875 -5.054688 11.984375 -4.984375 C 12.109375 -4.867188 12.078125 -4.742188 11.890625 -4.609375 C 11.566406 -4.328125 11.191406 -4 10.765625 -3.625 C 10.335938 -3.257812 9.921875 -2.910156 9.515625 -2.578125 C 9.109375 -2.242188 8.78125 -1.972656 8.53125 -1.765625 C 7.96875 -1.347656 7.351562 -0.90625 6.6875 -0.4375 C 6.019531 0.0195312 5.421875 0.25 4.890625 0.25 C 4.421875 0.25 4.097656 0.140625 3.921875 -0.078125 C 3.753906 -0.304688 3.671875 -0.59375 3.671875 -0.9375 C 3.671875 -1.445312 3.890625 -2.070312 4.328125 -2.8125 C 4.097656 -2.570312 3.875 -2.363281 3.65625 -2.1875 C 3.4375 -2.019531 3.257812 -1.878906 3.125 -1.765625 C 2.59375 -1.328125 1.96875 -0.878906 1.25 -0.421875 C 0.53125 0.0234375 -0.09375 0.25 -0.625 0.25 C -1.0625 0.25 -1.363281 0.148438 -1.53125 -0.046875 C -1.707031 -0.242188 -1.796875 -0.492188 -1.796875 -0.796875 C -1.796875 -1.367188 -1.566406 -2.03125 -1.109375 -2.78125 C -0.648438 -3.539062 -0.0234375 -4.347656 0.765625 -5.203125 C 1.222656 -5.679688 1.773438 -6.203125 2.421875 -6.765625 C 3.066406 -7.335938 3.71875 -7.867188 4.375 -8.359375 C 5.039062 -8.859375 5.601562 -9.238281 6.0625 -9.5 C 6.320312 -9.65625 6.6875 -9.769531 7.15625 -9.84375 C 7.625 -9.914062 7.976562 -9.9375 8.21875 -9.90625 C 7.195312 -9.082031 6.195312 -8.222656 5.21875 -7.328125 C 4.238281 -6.441406 3.367188 -5.609375 2.609375 -4.828125 C 1.859375 -4.054688 1.273438 -3.414062 0.859375 -2.90625 C 0.453125 -2.40625 0.101562 -1.953125 -0.1875 -1.546875 C -0.476562 -1.140625 -0.625 -0.832031 -0.625 -0.625 C -0.625 -0.414062 -0.519531 -0.3125 -0.3125 -0.3125 C -0.0820312 -0.3125 0.226562 -0.414062 0.625 -0.625 C 1.019531 -0.832031 1.421875 -1.078125 1.828125 -1.359375 C 2.242188 -1.648438 2.59375 -1.914062 2.875 -2.15625 C 3.175781 -2.382812 3.550781 -2.695312 4 -3.09375 C 4.445312 -3.5 4.875 -3.90625 5.28125 -4.3125 C 5.6875 -4.71875 5.984375 -5.015625 6.171875 -5.203125 C 6.628906 -5.679688 7.179688 -6.222656 7.828125 -6.828125 C 8.472656 -7.429688 9.117188 -8.003906 9.765625 -8.546875 C 10.421875 -9.085938 10.976562 -9.492188 11.4375 -9.765625 C 11.625 -9.890625 11.925781 -9.984375 12.34375 -10.046875 C 12.757812 -10.117188 13.082031 -10.144531 13.3125 -10.125 Z M 13.3125 -10.125 "></path></g></g></g><g fill="#492c01" fill-opacity="1"><g transform="translate(249.250554, 26.311125)"><g><path d="M 5.515625 -0.59375 C 5.515625 -0.363281 5.640625 -0.25 5.890625 -0.25 C 6.140625 -0.25 6.445312 -0.335938 6.8125 -0.515625 C 7.1875 -0.703125 7.578125 -0.921875 7.984375 -1.171875 C 8.390625 -1.429688 8.734375 -1.664062 9.015625 -1.875 C 9.398438 -2.175781 9.820312 -2.515625 10.28125 -2.890625 C 10.75 -3.273438 11.191406 -3.640625 11.609375 -3.984375 C 12.023438 -4.328125 12.347656 -4.601562 12.578125 -4.8125 C 12.804688 -5.039062 12.976562 -5.085938 13.09375 -4.953125 C 13.1875 -4.890625 13.144531 -4.765625 12.96875 -4.578125 C 12.664062 -4.316406 12.28125 -3.984375 11.8125 -3.578125 C 11.351562 -3.179688 10.890625 -2.789062 10.421875 -2.40625 C 9.960938 -2.03125 9.597656 -1.738281 9.328125 -1.53125 C 8.765625 -1.113281 8.128906 -0.703125 7.421875 -0.296875 C 6.722656 0.109375 6.085938 0.3125 5.515625 0.3125 C 4.703125 0.3125 4.296875 -0.0546875 4.296875 -0.796875 C 4.296875 -1.171875 4.414062 -1.601562 4.65625 -2.09375 C 4.90625 -2.59375 5.210938 -3.097656 5.578125 -3.609375 C 5.859375 -3.972656 6.160156 -4.332031 6.484375 -4.6875 C 6.804688 -5.050781 7.140625 -5.40625 7.484375 -5.75 C 7.234375 -5.59375 6.875 -5.382812 6.40625 -5.125 C 5.945312 -4.875 5.519531 -4.75 5.125 -4.75 C 4.800781 -4.75 4.550781 -4.828125 4.375 -4.984375 C 4.207031 -5.148438 3.984375 -5.234375 3.703125 -5.234375 C 3.523438 -5.234375 3.300781 -5.140625 3.03125 -4.953125 C 2.769531 -4.765625 2.519531 -4.566406 2.28125 -4.359375 C 2.050781 -4.160156 1.890625 -4.015625 1.796875 -3.921875 C 1.128906 -3.242188 0.503906 -2.539062 -0.078125 -1.8125 C -0.671875 -1.09375 -1.269531 -0.335938 -1.875 0.453125 C -2.007812 0.453125 -2.117188 0.367188 -2.203125 0.203125 C -2.285156 0.046875 -2.328125 -0.132812 -2.328125 -0.34375 C -2.328125 -0.644531 -2.085938 -1.15625 -1.609375 -1.875 C -1.140625 -2.59375 -0.550781 -3.390625 0.15625 -4.265625 C 0.863281 -5.140625 1.570312 -5.945312 2.28125 -6.6875 C 2.84375 -7.289062 3.410156 -7.835938 3.984375 -8.328125 C 4.566406 -8.828125 5.0625 -9.21875 5.46875 -9.5 C 5.769531 -9.675781 6.144531 -9.8125 6.59375 -9.90625 C 7.050781 -10 7.5 -10.046875 7.9375 -10.046875 C 7.5 -9.742188 6.96875 -9.320312 6.34375 -8.78125 C 5.71875 -8.238281 5.082031 -7.640625 4.4375 -6.984375 C 3.789062 -6.328125 3.191406 -5.675781 2.640625 -5.03125 C 2.960938 -5.28125 3.300781 -5.515625 3.65625 -5.734375 C 4.007812 -5.953125 4.316406 -6.0625 4.578125 -6.0625 C 4.898438 -6.0625 5.175781 -5.992188 5.40625 -5.859375 C 5.632812 -5.722656 5.890625 -5.65625 6.171875 -5.65625 C 6.566406 -5.65625 7 -5.78125 7.46875 -6.03125 C 7.9375 -6.28125 8.378906 -6.601562 8.796875 -7 C 9.398438 -7.550781 10.015625 -8.082031 10.640625 -8.59375 C 11.265625 -9.101562 11.785156 -9.472656 12.203125 -9.703125 C 12.453125 -9.835938 12.773438 -9.929688 13.171875 -9.984375 C 13.566406 -10.046875 13.878906 -10.066406 14.109375 -10.046875 C 13.109375 -9.148438 12.132812 -8.242188 11.1875 -7.328125 C 10.238281 -6.410156 9.390625 -5.5625 8.640625 -4.78125 C 7.890625 -4 7.304688 -3.363281 6.890625 -2.875 C 6.503906 -2.394531 6.175781 -1.957031 5.90625 -1.5625 C 5.644531 -1.164062 5.515625 -0.84375 5.515625 -0.59375 Z M 5.515625 -0.59375 "></path></g></g></g><g fill="#492c01" fill-opacity="1"><g transform="translate(262.659785, 26.311125)"><g><path d="M 3.046875 -5.75 C 2.796875 -5.75 2.578125 -5.84375 2.390625 -6.03125 C 2.203125 -6.21875 2.109375 -6.4375 2.109375 -6.6875 C 2.109375 -6.9375 2.203125 -7.148438 2.390625 -7.328125 C 2.578125 -7.503906 2.796875 -7.59375 3.046875 -7.59375 C 3.304688 -7.59375 3.519531 -7.503906 3.6875 -7.328125 C 3.863281 -7.148438 3.953125 -6.9375 3.953125 -6.6875 C 3.953125 -6.4375 3.863281 -6.21875 3.6875 -6.03125 C 3.519531 -5.84375 3.304688 -5.75 3.046875 -5.75 Z M -1.046875 0.203125 C -1.273438 0.203125 -1.484375 0.113281 -1.671875 -0.0625 C -1.867188 -0.25 -1.96875 -0.472656 -1.96875 -0.734375 C -1.96875 -0.984375 -1.867188 -1.195312 -1.671875 -1.375 C -1.484375 -1.5625 -1.273438 -1.65625 -1.046875 -1.65625 C -0.785156 -1.65625 -0.5625 -1.5625 -0.375 -1.375 C -0.195312 -1.195312 -0.109375 -0.984375 -0.109375 -0.734375 C -0.109375 -0.472656 -0.195312 -0.25 -0.375 -0.0625 C -0.5625 0.113281 -0.785156 0.203125 -1.046875 0.203125 Z M -1.046875 0.203125 "></path></g></g></g></g></g></svg> 