<?xml version="1.0" encoding="UTF-8"?> <svg xmlns="http://www.w3.org/2000/svg" xmlns:xlink="http://www.w3.org/1999/xlink" width="360" zoomAndPan="magnify" viewBox="0 0 270 359.999987" height="480" preserveAspectRatio="xMidYMid meet" version="1.0"><defs><g></g><clipPath id="f87e47b1e9"><path d="M 171.886719 201.582031 L 172.296875 201.582031 L 172.296875 201.863281 L 171.886719 201.863281 Z M 171.886719 201.582031 " clip-rule="nonzero"></path></clipPath><clipPath id="1d7d69b44f"><path d="M 172.273438 201.75 C 171.523438 202.050781 172.125 201.601562 172.125 201.601562 " clip-rule="nonzero"></path></clipPath><clipPath id="d1b4747618"><path d="M 0.886719 0.582031 L 1.296875 0.582031 L 1.296875 0.863281 L 0.886719 0.863281 Z M 0.886719 0.582031 " clip-rule="nonzero"></path></clipPath><clipPath id="fbe3c0d6d8"><path d="M 1.273438 0.75 C 0.523438 1.050781 1.125 0.601562 1.125 0.601562 " clip-rule="nonzero"></path></clipPath><clipPath id="3c28392819"><rect x="0" width="2" y="0" height="1"></rect></clipPath><clipPath id="a417031858"><path d="M 78.0625 176.757812 L 78.472656 176.757812 L 78.472656 177 L 78.0625 177 Z M 78.0625 176.757812 " clip-rule="nonzero"></path></clipPath><clipPath id="1173fc018e"><path d="M 78.449219 176.925781 C 77.699219 177.148438 78.300781 176.773438 78.300781 176.773438 " clip-rule="nonzero"></path></clipPath><clipPath id="26a7fc00b7"><path d="M 0.0625 0.757812 L 0.472656 0.757812 L 0.472656 1 L 0.0625 1 Z M 0.0625 0.757812 " clip-rule="nonzero"></path></clipPath><clipPath id="79b64242fd"><path d="M 0.449219 0.925781 C -0.300781 1.148438 0.300781 0.773438 0.300781 0.773438 " clip-rule="nonzero"></path></clipPath><clipPath id="19b21b5c63"><rect x="0" width="1" y="0" height="1"></rect></clipPath><clipPath id="e3585fd893"><path d="M 0.0625 0.757812 L 0.472656 0.757812 L 0.472656 1 L 0.0625 1 Z M 0.0625 0.757812 " clip-rule="nonzero"></path></clipPath><clipPath id="bcc3c5237d"><path d="M 0.449219 0.925781 C -0.300781 1.148438 0.300781 0.773438 0.300781 0.773438 " clip-rule="nonzero"></path></clipPath><clipPath id="f1e4198200"><rect x="0" width="1" y="0" height="1"></rect></clipPath><clipPath id="4806af8185"><rect x="0" width="259" y="0" height="258"></rect></clipPath></defs><g clip-path="url(#f87e47b1e9)"><g clip-path="url(#1d7d69b44f)"><g transform="matrix(1, 0, 0, 1, 171, 201)"><g clip-path="url(#3c28392819)"><g clip-path="url(#d1b4747618)"><g clip-path="url(#fbe3c0d6d8)"><rect x="-230.4" width="388.8" fill="#492c01" height="518.399981" y="-280.199997" fill-opacity="1"></rect></g></g></g></g></g></g><g clip-path="url(#a417031858)"><g clip-path="url(#1173fc018e)"><g transform="matrix(1, 0, 0, 1, 78, 176)"><g clip-path="url(#19b21b5c63)"><g clip-path="url(#26a7fc00b7)"><g clip-path="url(#79b64242fd)"><rect x="-137.4" width="388.8" fill="#492c01" height="518.399981" y="-255.199997" fill-opacity="1"></rect></g></g></g></g><g transform="matrix(1, 0, 0, 1, 78, 176)"><g clip-path="url(#f1e4198200)"><g clip-path="url(#e3585fd893)"><g clip-path="url(#bcc3c5237d)"><rect x="-137.4" width="388.8" fill="#492c01" height="518.399981" y="-255.199997" fill-opacity="1"></rect></g></g></g></g></g></g><g transform="matrix(1, 0, 0, 1, 5, 51)"><g clip-path="url(#4806af8185)"><g fill="#000000" fill-opacity="1"><g transform="translate(121.097553, 236.695175)"><g><path d="M -11.921875 -1.6875 L -10.8125 -1.53125 L -12.703125 11.78125 L -4.375 12.953125 L -2.484375 -0.359375 L -1.390625 -0.203125 L -3.4375 14.21875 L -13.96875 12.734375 Z M -11.921875 -1.6875 "></path></g></g></g><g fill="#000000" fill-opacity="1"><g transform="translate(108.55626, 234.97844)"><g><path d="M -13.265625 5.15625 L -13.484375 5.96875 C -13.691406 6.757812 -13.691406 7.535156 -13.484375 8.296875 C -13.273438 9.054688 -12.890625 9.71875 -12.328125 10.28125 C -11.773438 10.851562 -11.101562 11.242188 -10.3125 11.453125 C -9.507812 11.671875 -8.726562 11.671875 -7.96875 11.453125 C -7.207031 11.242188 -6.546875 10.859375 -5.984375 10.296875 C -5.421875 9.742188 -5.035156 9.070312 -4.828125 8.28125 L -4.609375 7.46875 Z M -12.46875 2.171875 L -13.5625 1.890625 C -13.300781 0.898438 -12.8125 0.0625 -12.09375 -0.625 C -11.382812 -1.320312 -10.550781 -1.800781 -9.59375 -2.0625 C -8.644531 -2.332031 -7.675781 -2.335938 -6.6875 -2.078125 C -5.695312 -1.804688 -4.851562 -1.316406 -4.15625 -0.609375 C -3.46875 0.0859375 -2.992188 0.910156 -2.734375 1.859375 C -2.472656 2.816406 -2.472656 3.789062 -2.734375 4.78125 L -3.75 8.578125 C -4.007812 9.566406 -4.488281 10.40625 -5.1875 11.09375 C -5.894531 11.78125 -6.722656 12.257812 -7.671875 12.53125 C -8.628906 12.800781 -9.601562 12.800781 -10.59375 12.53125 C -11.582031 12.269531 -12.421875 11.785156 -13.109375 11.078125 C -13.804688 10.367188 -14.289062 9.539062 -14.5625 8.59375 C -14.832031 7.644531 -14.835938 6.675781 -14.578125 5.6875 L -14.0625 3.78125 L -4.3125 6.375 L -3.8125 4.484375 C -3.601562 3.691406 -3.601562 2.914062 -3.8125 2.15625 C -4.019531 1.40625 -4.398438 0.742188 -4.953125 0.171875 C -5.503906 -0.390625 -6.179688 -0.78125 -6.984375 -1 C -7.773438 -1.207031 -8.550781 -1.203125 -9.3125 -0.984375 C -10.082031 -0.773438 -10.75 -0.394531 -11.3125 0.15625 C -11.875 0.707031 -12.257812 1.378906 -12.46875 2.171875 Z M -12.46875 2.171875 "></path></g></g></g><g fill="#000000" fill-opacity="1"><g transform="translate(95.766378, 231.610622)"><g><path d="M -12.640625 0.640625 L -13.6875 0.21875 C -13.300781 -0.738281 -12.710938 -1.515625 -11.921875 -2.109375 C -11.140625 -2.710938 -10.257812 -3.085938 -9.28125 -3.234375 C -8.300781 -3.390625 -7.332031 -3.273438 -6.375 -2.890625 C -5.4375 -2.503906 -4.664062 -1.914062 -4.0625 -1.125 C -3.457031 -0.34375 -3.082031 0.53125 -2.9375 1.5 C -2.789062 2.476562 -2.910156 3.445312 -3.296875 4.40625 L -4.765625 8.046875 C -5.140625 8.992188 -5.71875 9.765625 -6.5 10.359375 C -7.289062 10.960938 -8.175781 11.335938 -9.15625 11.484375 C -10.144531 11.640625 -11.109375 11.523438 -12.046875 11.140625 C -13.003906 10.753906 -13.78125 10.164062 -14.375 9.375 C -14.976562 8.59375 -15.351562 7.710938 -15.5 6.734375 C -15.644531 5.765625 -15.53125 4.804688 -15.15625 3.859375 L -14.109375 4.28125 C -14.410156 5.039062 -14.503906 5.8125 -14.390625 6.59375 C -14.273438 7.375 -13.976562 8.078125 -13.5 8.703125 C -13.019531 9.335938 -12.394531 9.804688 -11.625 10.109375 C -10.863281 10.421875 -10.09375 10.515625 -9.3125 10.390625 C -8.53125 10.273438 -7.820312 9.976562 -7.1875 9.5 C -6.5625 9.019531 -6.097656 8.398438 -5.796875 7.640625 L -4.328125 4 C -4.015625 3.238281 -3.914062 2.460938 -4.03125 1.671875 C -4.15625 0.890625 -4.457031 0.1875 -4.9375 -0.4375 C -5.414062 -1.0625 -6.035156 -1.53125 -6.796875 -1.84375 C -7.566406 -2.144531 -8.34375 -2.238281 -9.125 -2.125 C -9.90625 -2.007812 -10.609375 -1.707031 -11.234375 -1.21875 C -11.859375 -0.738281 -12.328125 -0.117188 -12.640625 0.640625 Z M -12.640625 0.640625 "></path></g></g></g><g fill="#000000" fill-opacity="1"><g transform="translate(83.456945, 226.674901)"><g><path d="M -10.546875 -5.8125 L -9.5625 -5.28125 L -12.8125 0.59375 L -5.453125 4.65625 L -2.203125 -1.21875 L -1.234375 -0.671875 L -8.265625 12.078125 L -9.234375 11.53125 L -6 5.65625 L -13.359375 1.59375 L -16.59375 7.46875 L -17.578125 6.9375 Z M -10.546875 -5.8125 "></path></g></g></g><g fill="#000000" fill-opacity="1"><g transform="translate(72.343873, 220.61159)"><g><path d="M -10.234375 -7.375 L -9.3125 -6.71875 L -13.765625 -0.53125 L -3.125 -2.25 L -2.71875 -1.96875 L -3.375 -1.0625 L -7.015625 -0.46875 C -6.421875 0.175781 -5.992188 0.910156 -5.734375 1.734375 C -5.484375 2.554688 -5.421875 3.398438 -5.546875 4.265625 C -5.679688 5.128906 -6.015625 5.929688 -6.546875 6.671875 C -7.140625 7.503906 -7.890625 8.117188 -8.796875 8.515625 C -9.703125 8.910156 -10.644531 9.0625 -11.625 8.96875 C -12.613281 8.882812 -13.519531 8.546875 -14.34375 7.953125 C -15.1875 7.347656 -15.804688 6.59375 -16.203125 5.6875 C -16.597656 4.78125 -16.75 3.832031 -16.65625 2.84375 C -16.570312 1.863281 -16.234375 0.957031 -15.640625 0.125 Z M -8.453125 -0.234375 L -14.71875 0.78125 C -15.195312 1.445312 -15.472656 2.171875 -15.546875 2.953125 C -15.617188 3.742188 -15.5 4.503906 -15.1875 5.234375 C -14.875 5.960938 -14.378906 6.566406 -13.703125 7.046875 C -13.035156 7.523438 -12.304688 7.800781 -11.515625 7.875 C -10.722656 7.945312 -9.96875 7.820312 -9.25 7.5 C -8.53125 7.1875 -7.929688 6.695312 -7.453125 6.03125 C -6.972656 5.363281 -6.691406 4.632812 -6.609375 3.84375 C -6.535156 3.0625 -6.65625 2.304688 -6.96875 1.578125 C -7.289062 0.847656 -7.785156 0.242188 -8.453125 -0.234375 Z M -8.453125 -0.234375 "></path></g></g></g><g fill="#000000" fill-opacity="1"><g transform="translate(61.543461, 212.74862)"><g></g></g></g><g fill="#000000" fill-opacity="1"><g transform="translate(54.63341, 206.748504)"><g><path d="M -8.125 -8.890625 L -7.359375 -8.0625 L -17.296875 1.015625 L -11.640625 7.21875 L -1.703125 -1.859375 L -0.953125 -1.03125 L -11.703125 8.796875 L -18.875 0.9375 Z M -8.125 -8.890625 "></path></g></g></g><g fill="#000000" fill-opacity="1"><g transform="translate(46.050916, 197.439119)"><g><path d="M -13.515625 -4.453125 L -14.203125 -3.96875 C -14.867188 -3.488281 -15.359375 -2.890625 -15.671875 -2.171875 C -15.992188 -1.453125 -16.117188 -0.695312 -16.046875 0.09375 C -15.984375 0.882812 -15.710938 1.613281 -15.234375 2.28125 C -14.753906 2.957031 -14.148438 3.453125 -13.421875 3.765625 C -12.703125 4.078125 -11.953125 4.203125 -11.171875 4.140625 C -10.390625 4.078125 -9.664062 3.804688 -9 3.328125 L -8.3125 2.84375 Z M -11.015625 -6.25 L -11.671875 -7.171875 C -10.828125 -7.765625 -9.910156 -8.101562 -8.921875 -8.1875 C -7.941406 -8.269531 -7 -8.109375 -6.09375 -7.703125 C -5.1875 -7.304688 -4.429688 -6.691406 -3.828125 -5.859375 C -3.234375 -5.023438 -2.894531 -4.113281 -2.8125 -3.125 C -2.726562 -2.132812 -2.882812 -1.1875 -3.28125 -0.28125 C -3.6875 0.613281 -4.3125 1.359375 -5.15625 1.953125 L -8.34375 4.234375 C -9.175781 4.828125 -10.082031 5.164062 -11.0625 5.25 C -12.039062 5.34375 -12.984375 5.1875 -13.890625 4.78125 C -14.796875 4.375 -15.546875 3.753906 -16.140625 2.921875 C -16.742188 2.085938 -17.085938 1.175781 -17.171875 0.1875 C -17.253906 -0.789062 -17.097656 -1.734375 -16.703125 -2.640625 C -16.304688 -3.546875 -15.691406 -4.296875 -14.859375 -4.890625 L -13.25 -6.03125 L -7.390625 2.1875 L -5.8125 1.046875 C -5.132812 0.566406 -4.632812 -0.03125 -4.3125 -0.75 C -3.988281 -1.476562 -3.859375 -2.234375 -3.921875 -3.015625 C -3.992188 -3.804688 -4.269531 -4.539062 -4.75 -5.21875 C -5.226562 -5.882812 -5.828125 -6.375 -6.546875 -6.6875 C -7.273438 -7.007812 -8.03125 -7.132812 -8.8125 -7.0625 C -9.601562 -7 -10.335938 -6.726562 -11.015625 -6.25 Z M -11.015625 -6.25 "></path></g></g></g><g fill="#000000" fill-opacity="1"><g transform="translate(38.32418, 186.705044)"><g><path d="M -10.171875 -7.546875 L -10.703125 -8.53125 C -9.796875 -9.03125 -8.847656 -9.257812 -7.859375 -9.21875 C -6.867188 -9.175781 -5.945312 -8.90625 -5.09375 -8.40625 C -4.25 -7.90625 -3.582031 -7.203125 -3.09375 -6.296875 C -2.601562 -5.398438 -2.375 -4.453125 -2.40625 -3.453125 C -2.445312 -2.453125 -2.722656 -1.53125 -3.234375 -0.6875 C -3.742188 0.144531 -4.453125 0.8125 -5.359375 1.3125 L -8.796875 3.171875 C -9.691406 3.660156 -10.632812 3.890625 -11.625 3.859375 C -12.613281 3.828125 -13.53125 3.550781 -14.375 3.03125 C -15.226562 2.519531 -15.898438 1.816406 -16.390625 0.921875 C -16.878906 0.015625 -17.101562 -0.925781 -17.0625 -1.90625 C -17.03125 -2.894531 -16.757812 -3.8125 -16.25 -4.65625 C -15.738281 -5.507812 -15.035156 -6.179688 -14.140625 -6.671875 L -13.609375 -5.6875 C -14.335938 -5.289062 -14.898438 -4.753906 -15.296875 -4.078125 C -15.703125 -3.398438 -15.914062 -2.664062 -15.9375 -1.875 C -15.96875 -1.082031 -15.789062 -0.328125 -15.40625 0.390625 C -15.007812 1.117188 -14.472656 1.6875 -13.796875 2.09375 C -13.117188 2.5 -12.382812 2.71875 -11.59375 2.75 C -10.8125 2.78125 -10.054688 2.597656 -9.328125 2.203125 L -5.890625 0.34375 C -5.160156 -0.0507812 -4.59375 -0.585938 -4.1875 -1.265625 C -3.78125 -1.941406 -3.5625 -2.675781 -3.53125 -3.46875 C -3.5 -4.257812 -3.679688 -5.019531 -4.078125 -5.75 C -4.460938 -6.46875 -4.992188 -7.03125 -5.671875 -7.4375 C -6.359375 -7.84375 -7.097656 -8.0625 -7.890625 -8.09375 C -8.679688 -8.125 -9.441406 -7.941406 -10.171875 -7.546875 Z M -10.171875 -7.546875 "></path></g></g></g><g fill="#000000" fill-opacity="1"><g transform="translate(31.962814, 175.074125)"><g><path d="M -4.4375 -11.203125 L -4.015625 -10.15625 L -10.265625 -7.6875 L -7.171875 0.125 L -0.921875 -2.34375 L -0.515625 -1.3125 L -14.046875 4.046875 L -14.453125 3.015625 L -8.21875 0.546875 L -11.3125 -7.265625 L -17.546875 -4.796875 L -17.96875 -5.84375 Z M -4.4375 -11.203125 "></path></g></g></g><g fill="#000000" fill-opacity="1"><g transform="translate(27.247168, 163.31929)"><g><path d="M -3.203125 -12.1875 L -2.921875 -11.109375 L -10.296875 -9.171875 L -0.984375 -3.734375 L -0.859375 -3.25 L -1.953125 -2.96875 L -5.109375 -4.828125 C -5.066406 -3.941406 -5.207031 -3.101562 -5.53125 -2.3125 C -5.851562 -1.519531 -6.335938 -0.828125 -6.984375 -0.234375 C -7.640625 0.347656 -8.414062 0.753906 -9.3125 0.984375 C -10.289062 1.242188 -11.253906 1.238281 -12.203125 0.96875 C -13.148438 0.707031 -13.976562 0.226562 -14.6875 -0.46875 C -15.394531 -1.175781 -15.878906 -2.019531 -16.140625 -3 C -16.398438 -4 -16.390625 -4.972656 -16.109375 -5.921875 C -15.835938 -6.867188 -15.351562 -7.691406 -14.65625 -8.390625 C -13.96875 -9.097656 -13.132812 -9.582031 -12.15625 -9.84375 Z M -6.390625 -5.546875 L -11.875 -8.765625 C -12.664062 -8.546875 -13.335938 -8.15625 -13.890625 -7.59375 C -14.441406 -7.03125 -14.828125 -6.367188 -15.046875 -5.609375 C -15.265625 -4.859375 -15.269531 -4.082031 -15.0625 -3.28125 C -14.851562 -2.488281 -14.460938 -1.8125 -13.890625 -1.25 C -13.328125 -0.6875 -12.664062 -0.296875 -11.90625 -0.078125 C -11.15625 0.128906 -10.382812 0.125 -9.59375 -0.09375 C -8.789062 -0.300781 -8.109375 -0.679688 -7.546875 -1.234375 C -6.984375 -1.796875 -6.597656 -2.457031 -6.390625 -3.21875 C -6.179688 -3.976562 -6.179688 -4.753906 -6.390625 -5.546875 Z M -6.390625 -5.546875 "></path></g></g></g><g fill="#000000" fill-opacity="1"><g transform="translate(23.911501, 150.391371)"><g></g></g></g><g fill="#000000" fill-opacity="1"><g transform="translate(22.396794, 141.364332)"><g><path d="M -0.609375 -12.03125 L -0.5625 -10.90625 L -14 -10.21875 L -13.5625 -1.828125 L -0.125 -2.515625 L -0.078125 -1.40625 L -14.625 -0.671875 L -15.15625 -11.296875 Z M -0.609375 -12.03125 "></path></g></g></g><g fill="#000000" fill-opacity="1"><g transform="translate(21.698542, 128.714451)"><g><path d="M -7.59375 -12.03125 L -8.4375 -12.09375 C -9.25 -12.144531 -10.003906 -11.992188 -10.703125 -11.640625 C -11.410156 -11.285156 -11.992188 -10.785156 -12.453125 -10.140625 C -12.910156 -9.492188 -13.164062 -8.757812 -13.21875 -7.9375 C -13.269531 -7.113281 -13.117188 -6.34375 -12.765625 -5.625 C -12.410156 -4.914062 -11.90625 -4.335938 -11.25 -3.890625 C -10.601562 -3.453125 -9.875 -3.207031 -9.0625 -3.15625 L -8.21875 -3.09375 Z M -4.515625 -11.828125 L -4.4375 -12.953125 C -3.40625 -12.878906 -2.484375 -12.554688 -1.671875 -11.984375 C -0.867188 -11.421875 -0.242188 -10.703125 0.203125 -9.828125 C 0.648438 -8.953125 0.835938 -8 0.765625 -6.96875 C 0.691406 -5.945312 0.375 -5.023438 -0.1875 -4.203125 C -0.75 -3.390625 -1.46875 -2.765625 -2.34375 -2.328125 C -3.226562 -1.890625 -4.1875 -1.707031 -5.21875 -1.78125 L -9.140625 -2.046875 C -10.148438 -2.117188 -11.0625 -2.429688 -11.875 -2.984375 C -12.6875 -3.546875 -13.316406 -4.269531 -13.765625 -5.15625 C -14.210938 -6.039062 -14.398438 -6.992188 -14.328125 -8.015625 C -14.253906 -9.046875 -13.9375 -9.960938 -13.375 -10.765625 C -12.8125 -11.578125 -12.085938 -12.207031 -11.203125 -12.65625 C -10.316406 -13.101562 -9.367188 -13.289062 -8.359375 -13.21875 L -6.390625 -13.078125 L -7.09375 -3.015625 L -5.140625 -2.890625 C -4.316406 -2.828125 -3.550781 -2.96875 -2.84375 -3.3125 C -2.144531 -3.664062 -1.566406 -4.171875 -1.109375 -4.828125 C -0.660156 -5.484375 -0.410156 -6.222656 -0.359375 -7.046875 C -0.304688 -7.867188 -0.453125 -8.628906 -0.796875 -9.328125 C -1.148438 -10.035156 -1.648438 -10.613281 -2.296875 -11.0625 C -2.953125 -11.507812 -3.691406 -11.765625 -4.515625 -11.828125 Z M -4.515625 -11.828125 "></path></g></g></g><g fill="#000000" fill-opacity="1"><g transform="translate(22.56419, 115.516957)"><g><path d="M -3.046875 -12.28125 L -2.828125 -13.390625 C -1.816406 -13.191406 -0.941406 -12.765625 -0.203125 -12.109375 C 0.523438 -11.453125 1.054688 -10.660156 1.390625 -9.734375 C 1.734375 -8.804688 1.804688 -7.835938 1.609375 -6.828125 C 1.421875 -5.828125 0.992188 -4.953125 0.328125 -4.203125 C -0.335938 -3.460938 -1.132812 -2.925781 -2.0625 -2.59375 C -2.988281 -2.257812 -3.957031 -2.191406 -4.96875 -2.390625 L -8.8125 -3.140625 C -9.8125 -3.335938 -10.679688 -3.765625 -11.421875 -4.421875 C -12.160156 -5.078125 -12.695312 -5.867188 -13.03125 -6.796875 C -13.363281 -7.734375 -13.4375 -8.703125 -13.25 -9.703125 C -13.050781 -10.710938 -12.617188 -11.585938 -11.953125 -12.328125 C -11.296875 -13.066406 -10.5 -13.601562 -9.5625 -13.9375 C -8.632812 -14.269531 -7.671875 -14.335938 -6.671875 -14.140625 L -6.890625 -13.03125 C -7.703125 -13.1875 -8.472656 -13.132812 -9.203125 -12.875 C -9.941406 -12.613281 -10.578125 -12.1875 -11.109375 -11.59375 C -11.640625 -11 -11.988281 -10.300781 -12.15625 -9.5 C -12.3125 -8.6875 -12.253906 -7.90625 -11.984375 -7.15625 C -11.710938 -6.414062 -11.28125 -5.78125 -10.6875 -5.25 C -10.101562 -4.726562 -9.40625 -4.390625 -8.59375 -4.234375 L -4.75 -3.484375 C -3.9375 -3.328125 -3.160156 -3.378906 -2.421875 -3.640625 C -1.679688 -3.910156 -1.046875 -4.335938 -0.515625 -4.921875 C 0.00390625 -5.515625 0.34375 -6.21875 0.5 -7.03125 C 0.664062 -7.832031 0.613281 -8.609375 0.34375 -9.359375 C 0.0820312 -10.109375 -0.34375 -10.742188 -0.9375 -11.265625 C -1.53125 -11.785156 -2.234375 -12.125 -3.046875 -12.28125 Z M -3.046875 -12.28125 "></path></g></g></g><g fill="#000000" fill-opacity="1"><g transform="translate(25.05116, 102.503376)"><g><path d="M 3.703125 -11.46875 L 3.359375 -10.390625 L -3.03125 -12.453125 L -5.625 -4.453125 L 0.765625 -2.390625 L 0.4375 -1.34375 L -13.421875 -5.8125 L -13.09375 -6.859375 L -6.703125 -4.796875 L -4.109375 -12.796875 L -10.5 -14.859375 L -10.15625 -15.9375 Z M 3.703125 -11.46875 "></path></g></g></g><g fill="#000000" fill-opacity="1"><g transform="translate(28.892172, 90.426139)"><g><path d="M 5.28125 -11.453125 L 4.8125 -10.421875 L -2.109375 -13.609375 L 1.625 -3.5 L 1.40625 -3.046875 L 0.390625 -3.515625 L -0.875 -6.984375 C -1.40625 -6.265625 -2.046875 -5.703125 -2.796875 -5.296875 C -3.554688 -4.898438 -4.375 -4.679688 -5.25 -4.640625 C -6.125 -4.597656 -6.976562 -4.769531 -7.8125 -5.15625 C -8.726562 -5.582031 -9.46875 -6.195312 -10.03125 -7 C -10.59375 -7.8125 -10.925781 -8.710938 -11.03125 -9.703125 C -11.132812 -10.691406 -10.972656 -11.648438 -10.546875 -12.578125 C -10.117188 -13.515625 -9.492188 -14.257812 -8.671875 -14.8125 C -7.847656 -15.375 -6.945312 -15.707031 -5.96875 -15.8125 C -4.988281 -15.914062 -4.039062 -15.753906 -3.125 -15.328125 Z M -1.390625 -8.359375 L -3.59375 -14.296875 C -4.332031 -14.640625 -5.09375 -14.769531 -5.875 -14.6875 C -6.65625 -14.613281 -7.375 -14.347656 -8.03125 -13.890625 C -8.6875 -13.441406 -9.1875 -12.847656 -9.53125 -12.109375 C -9.875 -11.359375 -10.003906 -10.585938 -9.921875 -9.796875 C -9.835938 -9.015625 -9.570312 -8.296875 -9.125 -7.640625 C -8.6875 -6.992188 -8.097656 -6.5 -7.359375 -6.15625 C -6.609375 -5.8125 -5.835938 -5.675781 -5.046875 -5.75 C -4.253906 -5.832031 -3.53125 -6.097656 -2.875 -6.546875 C -2.226562 -7.003906 -1.734375 -7.609375 -1.390625 -8.359375 Z M -1.390625 -8.359375 "></path></g></g></g><g fill="#000000" fill-opacity="1"><g transform="translate(34.538181, 78.338189)"><g></g></g></g><g fill="#000000" fill-opacity="1"><g transform="translate(39.111989, 70.40741)"><g><path d="M 7.171875 -9.671875 L 6.515625 -8.765625 L -4.28125 -16.78125 L -9.296875 -10.03125 L 1.5 -2.015625 L 0.84375 -1.125 L -10.84375 -9.796875 L -4.515625 -18.34375 Z M 7.171875 -9.671875 "></path></g></g></g><g fill="#000000" fill-opacity="1"><g transform="translate(46.622242, 60.194911)"><g><path d="M 1.8125 -14.109375 L 1.1875 -14.6875 C 0.59375 -15.257812 -0.0820312 -15.632812 -0.84375 -15.8125 C -1.613281 -15.988281 -2.378906 -15.96875 -3.140625 -15.75 C -3.910156 -15.53125 -4.582031 -15.125 -5.15625 -14.53125 C -5.71875 -13.9375 -6.082031 -13.25 -6.25 -12.46875 C -6.425781 -11.695312 -6.40625 -10.929688 -6.1875 -10.171875 C -5.976562 -9.421875 -5.578125 -8.757812 -4.984375 -8.1875 L -4.359375 -7.609375 Z M 4.046875 -12 L 4.8125 -12.828125 C 5.550781 -12.109375 6.054688 -11.269531 6.328125 -10.3125 C 6.597656 -9.363281 6.625 -8.410156 6.40625 -7.453125 C 6.1875 -6.492188 5.722656 -5.640625 5.015625 -4.890625 C 4.316406 -4.148438 3.488281 -3.640625 2.53125 -3.359375 C 1.582031 -3.085938 0.628906 -3.0625 -0.328125 -3.28125 C -1.296875 -3.5 -2.148438 -3.96875 -2.890625 -4.6875 L -5.75 -7.375 C -6.488281 -8.082031 -6.992188 -8.910156 -7.265625 -9.859375 C -7.535156 -10.804688 -7.554688 -11.765625 -7.328125 -12.734375 C -7.109375 -13.703125 -6.648438 -14.554688 -5.953125 -15.296875 C -5.242188 -16.046875 -4.414062 -16.550781 -3.46875 -16.8125 C -2.519531 -17.082031 -1.5625 -17.109375 -0.59375 -16.890625 C 0.363281 -16.679688 1.210938 -16.222656 1.953125 -15.515625 L 3.390625 -14.171875 L -3.546875 -6.84375 L -2.125 -5.5 C -1.53125 -4.925781 -0.847656 -4.550781 -0.078125 -4.375 C 0.691406 -4.195312 1.457031 -4.21875 2.21875 -4.4375 C 2.976562 -4.65625 3.640625 -5.0625 4.203125 -5.65625 C 4.773438 -6.25 5.148438 -6.929688 5.328125 -7.703125 C 5.503906 -8.484375 5.484375 -9.25 5.265625 -10 C 5.046875 -10.757812 4.640625 -11.425781 4.046875 -12 Z M 4.046875 -12 "></path></g></g></g><g fill="#000000" fill-opacity="1"><g transform="translate(55.684889, 50.56206)"><g><path d="M 5.46875 -11.421875 L 6.34375 -12.125 C 7 -11.332031 7.398438 -10.445312 7.546875 -9.46875 C 7.703125 -8.5 7.609375 -7.546875 7.265625 -6.609375 C 6.929688 -5.679688 6.367188 -4.890625 5.578125 -4.234375 C 4.785156 -3.585938 3.898438 -3.1875 2.921875 -3.03125 C 1.953125 -2.875 1 -2.960938 0.0625 -3.296875 C -0.863281 -3.640625 -1.65625 -4.207031 -2.3125 -5 L -4.8125 -8.03125 C -5.457031 -8.8125 -5.851562 -9.6875 -6 -10.65625 C -6.15625 -11.632812 -6.0625 -12.59375 -5.71875 -13.53125 C -5.382812 -14.46875 -4.820312 -15.257812 -4.03125 -15.90625 C -3.238281 -16.5625 -2.351562 -16.960938 -1.375 -17.109375 C -0.40625 -17.265625 0.539062 -17.171875 1.46875 -16.828125 C 2.40625 -16.492188 3.195312 -15.9375 3.84375 -15.15625 L 2.96875 -14.453125 C 2.445312 -15.085938 1.816406 -15.535156 1.078125 -15.796875 C 0.347656 -16.066406 -0.40625 -16.140625 -1.1875 -16.015625 C -1.976562 -15.890625 -2.691406 -15.566406 -3.328125 -15.046875 C -3.960938 -14.523438 -4.410156 -13.890625 -4.671875 -13.140625 C -4.941406 -12.390625 -5.019531 -11.625 -4.90625 -10.84375 C -4.789062 -10.070312 -4.472656 -9.367188 -3.953125 -8.734375 L -1.453125 -5.703125 C -0.929688 -5.066406 -0.296875 -4.613281 0.453125 -4.34375 C 1.203125 -4.070312 1.96875 -4 2.75 -4.125 C 3.53125 -4.257812 4.238281 -4.585938 4.875 -5.109375 C 5.507812 -5.628906 5.960938 -6.257812 6.234375 -7 C 6.503906 -7.75 6.570312 -8.515625 6.4375 -9.296875 C 6.3125 -10.078125 5.988281 -10.785156 5.46875 -11.421875 Z M 5.46875 -11.421875 "></path></g></g></g><g fill="#000000" fill-opacity="1"><g transform="translate(65.878921, 42.109837)"><g><path d="M 10.140625 -6.5 L 9.203125 -5.890625 L 5.578125 -11.546875 L -1.5 -7.015625 L 2.125 -1.359375 L 1.1875 -0.765625 L -6.65625 -13.03125 L -5.71875 -13.625 L -2.109375 -7.96875 L 4.96875 -12.5 L 1.359375 -18.15625 L 2.296875 -18.765625 Z M 10.140625 -6.5 "></path></g></g></g><g fill="#000000" fill-opacity="1"><g transform="translate(76.52752, 35.226546)"><g><path d="M 11.359375 -5.46875 L 10.34375 -4.984375 L 7.03125 -11.859375 L 3.484375 -1.671875 L 3.03125 -1.453125 L 2.546875 -2.46875 L 3.765625 -5.9375 C 2.898438 -5.726562 2.046875 -5.707031 1.203125 -5.875 C 0.359375 -6.039062 -0.410156 -6.382812 -1.109375 -6.90625 C -1.804688 -7.4375 -2.351562 -8.113281 -2.75 -8.9375 C -3.1875 -9.863281 -3.363281 -10.816406 -3.28125 -11.796875 C -3.195312 -12.773438 -2.878906 -13.675781 -2.328125 -14.5 C -1.785156 -15.332031 -1.050781 -15.96875 -0.125 -16.40625 C 0.800781 -16.851562 1.753906 -17.03125 2.734375 -16.9375 C 3.722656 -16.851562 4.628906 -16.539062 5.453125 -16 C 6.273438 -15.457031 6.90625 -14.722656 7.34375 -13.796875 Z M 4.25 -7.328125 L 6.328125 -13.3125 C 5.972656 -14.050781 5.46875 -14.640625 4.8125 -15.078125 C 4.15625 -15.523438 3.429688 -15.78125 2.640625 -15.84375 C 1.847656 -15.914062 1.082031 -15.769531 0.34375 -15.40625 C -0.40625 -15.050781 -1 -14.539062 -1.4375 -13.875 C -1.875 -13.21875 -2.125 -12.492188 -2.1875 -11.703125 C -2.25 -10.921875 -2.101562 -10.160156 -1.75 -9.421875 C -1.394531 -8.679688 -0.890625 -8.085938 -0.234375 -7.640625 C 0.421875 -7.203125 1.144531 -6.953125 1.9375 -6.890625 C 2.726562 -6.828125 3.5 -6.972656 4.25 -7.328125 Z M 4.25 -7.328125 "></path></g></g></g><g fill="#000000" fill-opacity="1"><g transform="translate(88.569696, 29.499823)"><g></g></g></g><g fill="#000000" fill-opacity="1"><g transform="translate(97.144232, 26.287735)"><g><path d="M 11.6875 -2.890625 L 10.59375 -2.625 L 7.359375 -15.6875 L -0.796875 -13.671875 L 2.4375 -0.609375 L 1.359375 -0.34375 L -2.140625 -14.484375 L 8.1875 -17.03125 Z M 11.6875 -2.890625 "></path></g></g></g><g fill="#000000" fill-opacity="1"><g transform="translate(109.437952, 23.177258)"><g><path d="M 10.359375 -9.75 L 10.265625 -10.59375 C 10.160156 -11.40625 9.867188 -12.125 9.390625 -12.75 C 8.910156 -13.375 8.304688 -13.84375 7.578125 -14.15625 C 6.847656 -14.46875 6.078125 -14.578125 5.265625 -14.484375 C 4.441406 -14.378906 3.71875 -14.082031 3.09375 -13.59375 C 2.46875 -13.113281 2 -12.515625 1.6875 -11.796875 C 1.375 -11.078125 1.269531 -10.3125 1.375 -9.5 L 1.46875 -8.65625 Z M 10.734375 -6.6875 L 11.859375 -6.828125 C 11.984375 -5.804688 11.847656 -4.84375 11.453125 -3.9375 C 11.054688 -3.03125 10.46875 -2.273438 9.6875 -1.671875 C 8.90625 -1.066406 8.003906 -0.703125 6.984375 -0.578125 C 5.960938 -0.453125 5 -0.585938 4.09375 -0.984375 C 3.1875 -1.378906 2.429688 -1.96875 1.828125 -2.75 C 1.222656 -3.53125 0.859375 -4.429688 0.734375 -5.453125 L 0.265625 -9.359375 C 0.140625 -10.367188 0.273438 -11.328125 0.671875 -12.234375 C 1.066406 -13.140625 1.65625 -13.894531 2.4375 -14.5 C 3.21875 -15.101562 4.117188 -15.46875 5.140625 -15.59375 C 6.160156 -15.71875 7.125 -15.582031 8.03125 -15.1875 C 8.9375 -14.789062 9.691406 -14.203125 10.296875 -13.421875 C 10.898438 -12.640625 11.265625 -11.742188 11.390625 -10.734375 L 11.625 -8.765625 L 1.609375 -7.53125 L 1.84375 -5.59375 C 1.945312 -4.78125 2.238281 -4.054688 2.71875 -3.421875 C 3.195312 -2.796875 3.796875 -2.328125 4.515625 -2.015625 C 5.242188 -1.703125 6.019531 -1.597656 6.84375 -1.703125 C 7.65625 -1.796875 8.375 -2.082031 9 -2.5625 C 9.632812 -3.050781 10.109375 -3.65625 10.421875 -4.375 C 10.734375 -5.101562 10.835938 -5.875 10.734375 -6.6875 Z M 10.734375 -6.6875 "></path></g></g></g><g fill="#000000" fill-opacity="1"><g transform="translate(122.959472, 21.508933)"><g><path d="M 11.484375 -5.328125 L 12.609375 -5.328125 C 12.609375 -4.296875 12.351562 -3.351562 11.84375 -2.5 C 11.34375 -1.65625 10.664062 -0.976562 9.8125 -0.46875 C 8.96875 0.03125 8.03125 0.28125 7 0.28125 C 5.976562 0.28125 5.039062 0.03125 4.1875 -0.46875 C 3.332031 -0.976562 2.65625 -1.65625 2.15625 -2.5 C 1.65625 -3.351562 1.40625 -4.296875 1.40625 -5.328125 L 1.40625 -9.25 C 1.40625 -10.269531 1.65625 -11.203125 2.15625 -12.046875 C 2.65625 -12.898438 3.332031 -13.578125 4.1875 -14.078125 C 5.039062 -14.585938 5.976562 -14.84375 7 -14.84375 C 8.03125 -14.84375 8.96875 -14.585938 9.8125 -14.078125 C 10.664062 -13.578125 11.34375 -12.898438 11.84375 -12.046875 C 12.351562 -11.203125 12.609375 -10.269531 12.609375 -9.25 L 11.484375 -9.25 C 11.484375 -10.070312 11.28125 -10.820312 10.875 -11.5 C 10.476562 -12.175781 9.9375 -12.71875 9.25 -13.125 C 8.570312 -13.53125 7.820312 -13.734375 7 -13.734375 C 6.175781 -13.734375 5.421875 -13.53125 4.734375 -13.125 C 4.054688 -12.71875 3.515625 -12.175781 3.109375 -11.5 C 2.710938 -10.820312 2.515625 -10.070312 2.515625 -9.25 L 2.515625 -5.328125 C 2.515625 -4.503906 2.710938 -3.75 3.109375 -3.0625 C 3.515625 -2.382812 4.054688 -1.84375 4.734375 -1.4375 C 5.421875 -1.039062 6.175781 -0.84375 7 -0.84375 C 7.820312 -0.84375 8.570312 -1.039062 9.25 -1.4375 C 9.9375 -1.84375 10.476562 -2.382812 10.875 -3.0625 C 11.28125 -3.75 11.484375 -4.503906 11.484375 -5.328125 Z M 11.484375 -5.328125 "></path></g></g></g><g fill="#000000" fill-opacity="1"><g transform="translate(135.797731, 21.478677)"><g><path d="M 11.953125 1.4375 L 10.84375 1.3125 L 11.65625 -5.359375 L 3.3125 -6.375 L 2.5 0.296875 L 1.390625 0.171875 L 3.140625 -14.28125 L 4.25 -14.15625 L 3.4375 -7.484375 L 11.78125 -6.46875 L 12.59375 -13.140625 L 13.703125 -13.015625 Z M 11.953125 1.4375 "></path></g></g></g><g fill="#000000" fill-opacity="1"><g transform="translate(148.395405, 22.933341)"><g><path d="M 12.25 3 L 11.15625 2.734375 L 12.96875 -4.671875 L 3.75 0.921875 L 3.265625 0.796875 L 3.53125 -0.296875 L 6.6875 -2.1875 C 5.882812 -2.570312 5.210938 -3.097656 4.671875 -3.765625 C 4.128906 -4.429688 3.753906 -5.1875 3.546875 -6.03125 C 3.335938 -6.882812 3.34375 -7.757812 3.5625 -8.65625 C 3.800781 -9.644531 4.265625 -10.488281 4.953125 -11.1875 C 5.648438 -11.894531 6.472656 -12.394531 7.421875 -12.6875 C 8.367188 -12.976562 9.335938 -13 10.328125 -12.75 C 11.328125 -12.507812 12.179688 -12.039062 12.890625 -11.34375 C 13.597656 -10.644531 14.09375 -9.820312 14.375 -8.875 C 14.664062 -7.9375 14.691406 -6.972656 14.453125 -5.984375 Z M 7.9375 -2.953125 L 13.359375 -6.25 C 13.554688 -7.050781 13.539062 -7.828125 13.3125 -8.578125 C 13.082031 -9.328125 12.679688 -9.984375 12.109375 -10.546875 C 11.546875 -11.109375 10.863281 -11.484375 10.0625 -11.671875 C 9.257812 -11.867188 8.476562 -11.847656 7.71875 -11.609375 C 6.96875 -11.378906 6.316406 -10.984375 5.765625 -10.421875 C 5.210938 -9.867188 4.835938 -9.191406 4.640625 -8.390625 C 4.441406 -7.585938 4.457031 -6.804688 4.6875 -6.046875 C 4.914062 -5.285156 5.3125 -4.628906 5.875 -4.078125 C 6.445312 -3.523438 7.132812 -3.148438 7.9375 -2.953125 Z M 7.9375 -2.953125 "></path></g></g></g><g fill="#000000" fill-opacity="1"><g transform="translate(161.326761, 26.183553)"><g></g></g></g><g fill="#000000" fill-opacity="1"><g transform="translate(169.986879, 29.157299)"><g><path d="M 10.859375 5.203125 L 9.84375 4.71875 L 15.65625 -7.421875 L 8.078125 -11.046875 L 2.265625 1.09375 L 1.265625 0.609375 L 7.546875 -12.53125 L 17.140625 -7.9375 Z M 10.859375 5.203125 "></path></g></g></g><g fill="#000000" fill-opacity="1"><g transform="translate(181.454146, 34.56958)"><g><path d="M 14.203125 -0.921875 L 14.65625 -1.625 C 15.09375 -2.320312 15.320312 -3.066406 15.34375 -3.859375 C 15.375 -4.648438 15.210938 -5.398438 14.859375 -6.109375 C 14.503906 -6.816406 13.976562 -7.390625 13.28125 -7.828125 C 12.582031 -8.273438 11.835938 -8.507812 11.046875 -8.53125 C 10.253906 -8.550781 9.503906 -8.382812 8.796875 -8.03125 C 8.097656 -7.675781 7.53125 -7.148438 7.09375 -6.453125 L 6.640625 -5.75 Z M 12.546875 1.671875 L 13.5 2.265625 C 12.945312 3.140625 12.226562 3.796875 11.34375 4.234375 C 10.457031 4.679688 9.519531 4.890625 8.53125 4.859375 C 7.539062 4.835938 6.613281 4.550781 5.75 4 C 4.882812 3.445312 4.226562 2.726562 3.78125 1.84375 C 3.332031 0.957031 3.125 0.0234375 3.15625 -0.953125 C 3.195312 -1.941406 3.492188 -2.875 4.046875 -3.75 L 6.15625 -7.046875 C 6.695312 -7.910156 7.40625 -8.566406 8.28125 -9.015625 C 9.164062 -9.460938 10.101562 -9.664062 11.09375 -9.625 C 12.082031 -9.59375 13.007812 -9.300781 13.875 -8.75 C 14.738281 -8.195312 15.394531 -7.484375 15.84375 -6.609375 C 16.289062 -5.734375 16.5 -4.800781 16.46875 -3.8125 C 16.4375 -2.820312 16.148438 -1.894531 15.609375 -1.03125 L 14.546875 0.625 L 6.03125 -4.796875 L 4.984375 -3.15625 C 4.546875 -2.457031 4.3125 -1.710938 4.28125 -0.921875 C 4.25 -0.128906 4.410156 0.613281 4.765625 1.3125 C 5.128906 2.019531 5.660156 2.597656 6.359375 3.046875 C 7.054688 3.484375 7.796875 3.710938 8.578125 3.734375 C 9.367188 3.765625 10.117188 3.601562 10.828125 3.25 C 11.535156 2.894531 12.109375 2.367188 12.546875 1.671875 Z M 12.546875 1.671875 "></path></g></g></g><g fill="#000000" fill-opacity="1"><g transform="translate(192.639187, 41.627788)"><g><path d="M 12.25 3.203125 L 13.125 3.90625 C 12.46875 4.695312 11.671875 5.257812 10.734375 5.59375 C 9.804688 5.9375 8.851562 6.03125 7.875 5.875 C 6.90625 5.726562 6.023438 5.328125 5.234375 4.671875 C 4.441406 4.023438 3.875 3.234375 3.53125 2.296875 C 3.195312 1.359375 3.101562 0.40625 3.25 -0.5625 C 3.40625 -1.539062 3.8125 -2.425781 4.46875 -3.21875 L 6.96875 -6.25 C 7.613281 -7.03125 8.398438 -7.585938 9.328125 -7.921875 C 10.265625 -8.265625 11.21875 -8.359375 12.1875 -8.203125 C 13.164062 -8.046875 14.050781 -7.644531 14.84375 -7 C 15.632812 -6.34375 16.195312 -5.546875 16.53125 -4.609375 C 16.875 -3.679688 16.96875 -2.726562 16.8125 -1.75 C 16.664062 -0.78125 16.269531 0.09375 15.625 0.875 L 14.75 0.171875 C 15.269531 -0.460938 15.585938 -1.164062 15.703125 -1.9375 C 15.828125 -2.71875 15.753906 -3.484375 15.484375 -4.234375 C 15.222656 -4.984375 14.773438 -5.617188 14.140625 -6.140625 C 13.503906 -6.660156 12.789062 -6.984375 12 -7.109375 C 11.21875 -7.234375 10.457031 -7.160156 9.71875 -6.890625 C 8.976562 -6.628906 8.347656 -6.179688 7.828125 -5.546875 L 5.328125 -2.515625 C 4.804688 -1.878906 4.484375 -1.171875 4.359375 -0.390625 C 4.234375 0.390625 4.304688 1.148438 4.578125 1.890625 C 4.847656 2.640625 5.300781 3.273438 5.9375 3.796875 C 6.570312 4.316406 7.28125 4.640625 8.0625 4.765625 C 8.84375 4.898438 9.601562 4.832031 10.34375 4.5625 C 11.09375 4.289062 11.726562 3.835938 12.25 3.203125 Z M 12.25 3.203125 "></path></g></g></g><g fill="#000000" fill-opacity="1"><g transform="translate(202.871696, 50.033323)"><g><path d="M 8.3125 8.71875 L 7.53125 7.90625 L 12.390625 3.265625 L 6.59375 -2.8125 L 1.734375 1.828125 L 0.96875 1.015625 L 11.515625 -9.03125 L 12.28125 -8.21875 L 7.40625 -3.578125 L 13.203125 2.5 L 18.078125 -2.140625 L 18.859375 -1.328125 Z M 8.3125 8.71875 "></path></g></g></g><g fill="#000000" fill-opacity="1"><g transform="translate(211.669736, 59.161513)"><g><path d="M 7.546875 10.109375 L 6.859375 9.203125 L 12.96875 4.640625 L 2.3125 3.09375 L 2.015625 2.6875 L 2.921875 2.015625 L 6.546875 2.5625 C 6.171875 1.769531 5.988281 0.941406 6 0.078125 C 6.007812 -0.785156 6.203125 -1.609375 6.578125 -2.390625 C 6.960938 -3.179688 7.519531 -3.851562 8.25 -4.40625 C 9.070312 -5.019531 9.972656 -5.378906 10.953125 -5.484375 C 11.929688 -5.585938 12.875 -5.445312 13.78125 -5.0625 C 14.695312 -4.675781 15.460938 -4.078125 16.078125 -3.265625 C 16.691406 -2.441406 17.050781 -1.535156 17.15625 -0.546875 C 17.269531 0.429688 17.132812 1.375 16.75 2.28125 C 16.375 3.195312 15.773438 3.960938 14.953125 4.578125 Z M 8 2.765625 L 14.265625 3.671875 C 14.929688 3.179688 15.414062 2.570312 15.71875 1.84375 C 16.019531 1.113281 16.128906 0.351562 16.046875 -0.4375 C 15.972656 -1.226562 15.691406 -1.953125 15.203125 -2.609375 C 14.710938 -3.265625 14.097656 -3.742188 13.359375 -4.046875 C 12.617188 -4.347656 11.859375 -4.457031 11.078125 -4.375 C 10.296875 -4.289062 9.570312 -4.003906 8.90625 -3.515625 C 8.25 -3.023438 7.765625 -2.410156 7.453125 -1.671875 C 7.148438 -0.941406 7.039062 -0.1875 7.125 0.59375 C 7.21875 1.382812 7.507812 2.109375 8 2.765625 Z M 8 2.765625 "></path></g></g></g><g fill="#000000" fill-opacity="1"><g transform="translate(219.577101, 69.904105)"><g></g></g></g><g fill="#000000" fill-opacity="1"><g transform="translate(224.36857, 77.705409)"><g><path d="M 5.078125 10.921875 L 4.59375 9.90625 L 16.796875 4.234375 L 13.265625 -3.390625 L 1.0625 2.28125 L 0.59375 1.28125 L 13.796875 -4.859375 L 18.28125 4.78125 Z M 5.078125 10.921875 "></path></g></g></g><g fill="#000000" fill-opacity="1"><g transform="translate(229.776954, 89.16835)"><g><path d="M 11.546875 8.328125 L 12.34375 8.0625 C 13.125 7.800781 13.773438 7.375 14.296875 6.78125 C 14.828125 6.195312 15.175781 5.515625 15.34375 4.734375 C 15.519531 3.960938 15.484375 3.1875 15.234375 2.40625 C 14.972656 1.625 14.546875 0.96875 13.953125 0.4375 C 13.359375 -0.0820312 12.675781 -0.425781 11.90625 -0.59375 C 11.132812 -0.769531 10.359375 -0.726562 9.578125 -0.46875 L 8.78125 -0.203125 Z M 8.609375 9.265625 L 8.96875 10.328125 C 7.988281 10.648438 7.015625 10.703125 6.046875 10.484375 C 5.085938 10.273438 4.234375 9.84375 3.484375 9.1875 C 2.742188 8.539062 2.21875 7.726562 1.90625 6.75 C 1.582031 5.78125 1.53125 4.8125 1.75 3.84375 C 1.96875 2.875 2.398438 2.019531 3.046875 1.28125 C 3.703125 0.539062 4.519531 0.0078125 5.5 -0.3125 L 9.234375 -1.515625 C 10.203125 -1.835938 11.164062 -1.890625 12.125 -1.671875 C 13.09375 -1.460938 13.945312 -1.03125 14.6875 -0.375 C 15.425781 0.28125 15.957031 1.09375 16.28125 2.0625 C 16.59375 3.039062 16.640625 4.007812 16.421875 4.96875 C 16.210938 5.9375 15.78125 6.789062 15.125 7.53125 C 14.476562 8.269531 13.671875 8.800781 12.703125 9.125 L 10.828125 9.734375 L 7.703125 0.140625 L 5.84375 0.734375 C 5.0625 0.992188 4.410156 1.414062 3.890625 2 C 3.367188 2.59375 3.019531 3.273438 2.84375 4.046875 C 2.664062 4.828125 2.707031 5.609375 2.96875 6.390625 C 3.21875 7.171875 3.640625 7.820312 4.234375 8.34375 C 4.835938 8.875 5.519531 9.222656 6.28125 9.390625 C 7.050781 9.566406 7.828125 9.523438 8.609375 9.265625 Z M 8.609375 9.265625 "></path></g></g></g><g fill="#000000" fill-opacity="1"><g transform="translate(233.917986, 101.729205)"><g><path d="M 7.421875 10.25 L 7.640625 11.359375 C 6.628906 11.554688 5.65625 11.488281 4.71875 11.15625 C 3.789062 10.820312 2.992188 10.285156 2.328125 9.546875 C 1.671875 8.804688 1.242188 7.929688 1.046875 6.921875 C 0.859375 5.921875 0.929688 4.953125 1.265625 4.015625 C 1.597656 3.085938 2.132812 2.296875 2.875 1.640625 C 3.613281 0.984375 4.488281 0.554688 5.5 0.359375 L 9.34375 -0.390625 C 10.34375 -0.585938 11.304688 -0.519531 12.234375 -0.1875 C 13.160156 0.144531 13.957031 0.679688 14.625 1.421875 C 15.289062 2.171875 15.71875 3.046875 15.90625 4.046875 C 16.101562 5.054688 16.03125 6.023438 15.6875 6.953125 C 15.351562 7.878906 14.816406 8.671875 14.078125 9.328125 C 13.347656 9.984375 12.484375 10.410156 11.484375 10.609375 L 11.265625 9.5 C 12.078125 9.34375 12.773438 9.003906 13.359375 8.484375 C 13.953125 7.960938 14.382812 7.328125 14.65625 6.578125 C 14.925781 5.828125 14.976562 5.050781 14.8125 4.25 C 14.65625 3.4375 14.3125 2.734375 13.78125 2.140625 C 13.25 1.554688 12.613281 1.128906 11.875 0.859375 C 11.144531 0.597656 10.375 0.546875 9.5625 0.703125 L 5.71875 1.453125 C 4.90625 1.609375 4.203125 1.945312 3.609375 2.46875 C 3.015625 3 2.582031 3.632812 2.3125 4.375 C 2.050781 5.125 2 5.90625 2.15625 6.71875 C 2.320312 7.519531 2.664062 8.21875 3.1875 8.8125 C 3.71875 9.40625 4.351562 9.832031 5.09375 10.09375 C 5.832031 10.351562 6.609375 10.40625 7.421875 10.25 Z M 7.421875 10.25 "></path></g></g></g><g fill="#000000" fill-opacity="1"><g transform="translate(236.464349, 114.731245)"><g><path d="M 0.859375 12.015625 L 0.78125 10.890625 L 7.484375 10.40625 L 6.890625 2.03125 L 0.1875 2.515625 L 0.09375 1.40625 L 14.625 0.359375 L 14.71875 1.46875 L 8.015625 1.953125 L 8.609375 10.328125 L 15.3125 9.84375 L 15.390625 10.96875 Z M 0.859375 12.015625 "></path></g></g></g><g fill="#000000" fill-opacity="1"><g transform="translate(237.449499, 127.363591)"><g><path d="M -0.609375 12.59375 L -0.5625 11.46875 L 7.046875 11.84375 L -0.1875 3.859375 L -0.15625 3.359375 L 0.96875 3.40625 L 3.421875 6.15625 C 3.648438 5.289062 4.039062 4.523438 4.59375 3.859375 C 5.144531 3.203125 5.816406 2.691406 6.609375 2.328125 C 7.398438 1.960938 8.253906 1.804688 9.171875 1.859375 C 10.191406 1.898438 11.113281 2.191406 11.9375 2.734375 C 12.757812 3.273438 13.398438 3.984375 13.859375 4.859375 C 14.328125 5.742188 14.535156 6.691406 14.484375 7.703125 C 14.441406 8.734375 14.144531 9.660156 13.59375 10.484375 C 13.050781 11.304688 12.34375 11.945312 11.46875 12.40625 C 10.59375 12.875 9.644531 13.085938 8.625 13.046875 Z M 4.421875 7.21875 L 8.671875 11.921875 C 9.492188 11.953125 10.253906 11.785156 10.953125 11.421875 C 11.648438 11.054688 12.21875 10.539062 12.65625 9.875 C 13.09375 9.21875 13.332031 8.476562 13.375 7.65625 C 13.414062 6.84375 13.25 6.082031 12.875 5.375 C 12.5 4.675781 11.984375 4.109375 11.328125 3.671875 C 10.671875 3.234375 9.929688 3 9.109375 2.96875 C 8.285156 2.925781 7.523438 3.085938 6.828125 3.453125 C 6.128906 3.828125 5.5625 4.34375 5.125 5 C 4.695312 5.664062 4.460938 6.40625 4.421875 7.21875 Z M 4.421875 7.21875 "></path></g></g></g><g fill="#000000" fill-opacity="1"><g transform="translate(236.714485, 140.69182)"><g></g></g></g><g fill="#000000" fill-opacity="1"><g transform="translate(235.45006, 149.75738)"><g><path d="M -3.03125 11.65625 L -2.75 10.5625 L 10.265625 13.953125 L 12.375 5.828125 L -0.640625 2.4375 L -0.359375 1.359375 L 13.734375 5.03125 L 11.0625 15.328125 Z M -3.03125 11.65625 "></path></g></g></g><g fill="#000000" fill-opacity="1"><g transform="translate(232.334606, 162.035193)"><g><path d="M 3.625 13.765625 L 4.40625 14.078125 C 5.164062 14.378906 5.929688 14.460938 6.703125 14.328125 C 7.484375 14.203125 8.1875 13.894531 8.8125 13.40625 C 9.445312 12.925781 9.914062 12.304688 10.21875 11.546875 C 10.519531 10.773438 10.601562 9.992188 10.46875 9.203125 C 10.34375 8.421875 10.035156 7.722656 9.546875 7.109375 C 9.066406 6.492188 8.445312 6.035156 7.6875 5.734375 L 6.90625 5.421875 Z M 0.75 12.640625 L 0.34375 13.6875 C -0.613281 13.3125 -1.394531 12.734375 -2 11.953125 C -2.601562 11.171875 -2.984375 10.289062 -3.140625 9.3125 C -3.304688 8.332031 -3.203125 7.363281 -2.828125 6.40625 C -2.453125 5.457031 -1.867188 4.675781 -1.078125 4.0625 C -0.296875 3.457031 0.578125 3.078125 1.546875 2.921875 C 2.515625 2.773438 3.476562 2.890625 4.4375 3.265625 L 8.09375 4.703125 C 9.039062 5.078125 9.816406 5.648438 10.421875 6.421875 C 11.035156 7.191406 11.421875 8.066406 11.578125 9.046875 C 11.734375 10.035156 11.625 11.003906 11.25 11.953125 C 10.875 12.910156 10.296875 13.691406 9.515625 14.296875 C 8.734375 14.898438 7.851562 15.28125 6.875 15.4375 C 5.90625 15.601562 4.945312 15.5 4 15.125 L 2.171875 14.40625 L 5.859375 5.015625 L 4.03125 4.296875 C 3.269531 3.992188 2.5 3.898438 1.71875 4.015625 C 0.9375 4.140625 0.234375 4.445312 -0.390625 4.9375 C -1.015625 5.425781 -1.476562 6.054688 -1.78125 6.828125 C -2.082031 7.585938 -2.171875 8.359375 -2.046875 9.140625 C -1.921875 9.921875 -1.613281 10.625 -1.125 11.25 C -0.632812 11.875 -0.0078125 12.335938 0.75 12.640625 Z M 0.75 12.640625 "></path></g></g></g><g fill="#000000" fill-opacity="1"><g transform="translate(227.540166, 174.361452)"><g><path d="M -0.796875 12.640625 L -1.328125 13.625 C -2.234375 13.125 -2.941406 12.453125 -3.453125 11.609375 C -3.960938 10.765625 -4.234375 9.847656 -4.265625 8.859375 C -4.304688 7.867188 -4.082031 6.921875 -3.59375 6.015625 C -3.101562 5.117188 -2.429688 4.414062 -1.578125 3.90625 C -0.734375 3.394531 0.179688 3.117188 1.171875 3.078125 C 2.160156 3.046875 3.109375 3.28125 4.015625 3.78125 L 7.453125 5.640625 C 8.347656 6.128906 9.050781 6.796875 9.5625 7.640625 C 10.070312 8.484375 10.34375 9.398438 10.375 10.390625 C 10.414062 11.390625 10.191406 12.335938 9.703125 13.234375 C 9.210938 14.140625 8.539062 14.84375 7.6875 15.34375 C 6.84375 15.851562 5.925781 16.125 4.9375 16.15625 C 3.945312 16.195312 3.003906 15.972656 2.109375 15.484375 L 2.640625 14.5 C 3.367188 14.894531 4.125 15.078125 4.90625 15.046875 C 5.695312 15.015625 6.429688 14.796875 7.109375 14.390625 C 7.796875 13.984375 8.332031 13.421875 8.71875 12.703125 C 9.113281 11.972656 9.296875 11.210938 9.265625 10.421875 C 9.234375 9.628906 9.015625 8.894531 8.609375 8.21875 C 8.210938 7.539062 7.648438 7.003906 6.921875 6.609375 L 3.484375 4.75 C 2.753906 4.351562 1.992188 4.171875 1.203125 4.203125 C 0.410156 4.234375 -0.320312 4.453125 -1 4.859375 C -1.675781 5.265625 -2.210938 5.832031 -2.609375 6.5625 C -2.992188 7.28125 -3.171875 8.035156 -3.140625 8.828125 C -3.117188 9.617188 -2.90625 10.351562 -2.5 11.03125 C -2.09375 11.707031 -1.523438 12.242188 -0.796875 12.640625 Z M -0.796875 12.640625 "></path></g></g></g><g fill="#000000" fill-opacity="1"><g transform="translate(221.231957, 186.021211)"><g><path d="M -6.96875 9.828125 L -6.328125 8.90625 L -0.84375 12.796875 L 4.03125 5.9375 L -1.453125 2.046875 L -0.8125 1.140625 L 11.0625 9.578125 L 10.421875 10.484375 L 4.9375 6.59375 L 0.0625 13.453125 L 5.546875 17.34375 L 4.90625 18.265625 Z M -6.96875 9.828125 "></path></g></g></g><g fill="#000000" fill-opacity="1"><g transform="translate(213.959563, 196.387817)"><g><path d="M -8.484375 9.328125 L -7.71875 8.5 L -2.078125 13.625 L -2.59375 2.859375 L -2.265625 2.484375 L -1.4375 3.234375 L -1.265625 6.921875 C -0.546875 6.398438 0.234375 6.0625 1.078125 5.90625 C 1.929688 5.75 2.773438 5.78125 3.609375 6 C 4.453125 6.226562 5.210938 6.648438 5.890625 7.265625 C 6.648438 7.953125 7.175781 8.765625 7.46875 9.703125 C 7.757812 10.648438 7.804688 11.609375 7.609375 12.578125 C 7.410156 13.546875 6.96875 14.40625 6.28125 15.15625 C 5.582031 15.925781 4.757812 16.453125 3.8125 16.734375 C 2.863281 17.023438 1.90625 17.070312 0.9375 16.875 C -0.0195312 16.675781 -0.878906 16.234375 -1.640625 15.546875 Z M -1.171875 8.375 L -0.875 14.71875 C -0.269531 15.269531 0.414062 15.625 1.1875 15.78125 C 1.957031 15.945312 2.71875 15.910156 3.46875 15.671875 C 4.226562 15.441406 4.890625 15.019531 5.453125 14.40625 C 6.003906 13.800781 6.359375 13.109375 6.515625 12.328125 C 6.679688 11.554688 6.644531 10.789062 6.40625 10.03125 C 6.175781 9.28125 5.757812 8.628906 5.15625 8.078125 C 4.550781 7.523438 3.859375 7.164062 3.078125 7 C 2.304688 6.84375 1.539062 6.878906 0.78125 7.109375 C 0.03125 7.347656 -0.617188 7.769531 -1.171875 8.375 Z M -1.171875 8.375 "></path></g></g></g><g fill="#000000" fill-opacity="1"><g transform="translate(204.911257, 206.213893)"><g></g></g></g><g fill="#000000" fill-opacity="1"><g transform="translate(198.169833, 212.402961)"><g><path d="M -9.75 7.0625 L -8.84375 6.40625 L -0.953125 17.296875 L 5.859375 12.359375 L -2.03125 1.46875 L -1.140625 0.828125 L 7.40625 12.625 L -1.203125 18.859375 Z M -9.75 7.0625 "></path></g></g></g><g fill="#000000" fill-opacity="1"><g transform="translate(187.958846, 219.887684)"><g><path d="M -5.96875 12.921875 L -5.5625 13.671875 C -5.15625 14.390625 -4.609375 14.941406 -3.921875 15.328125 C -3.242188 15.722656 -2.507812 15.9375 -1.71875 15.96875 C -0.925781 16 -0.171875 15.8125 0.546875 15.40625 C 1.265625 15.007812 1.820312 14.460938 2.21875 13.765625 C 2.625 13.078125 2.835938 12.34375 2.859375 11.5625 C 2.878906 10.78125 2.6875 10.03125 2.28125 9.3125 L 1.875 8.5625 Z M -7.46875 10.234375 L -8.453125 10.78125 C -8.953125 9.882812 -9.1875 8.941406 -9.15625 7.953125 C -9.125 6.960938 -8.859375 6.035156 -8.359375 5.171875 C -7.859375 4.316406 -7.160156 3.640625 -6.265625 3.140625 C -5.367188 2.648438 -4.425781 2.414062 -3.4375 2.4375 C -2.445312 2.46875 -1.523438 2.734375 -0.671875 3.234375 C 0.171875 3.742188 0.84375 4.445312 1.34375 5.34375 L 3.25 8.78125 C 3.75 9.664062 3.984375 10.597656 3.953125 11.578125 C 3.929688 12.566406 3.671875 13.488281 3.171875 14.34375 C 2.671875 15.207031 1.972656 15.882812 1.078125 16.375 C 0.179688 16.875 -0.757812 17.109375 -1.75 17.078125 C -2.738281 17.054688 -3.660156 16.796875 -4.515625 16.296875 C -5.367188 15.796875 -6.046875 15.101562 -6.546875 14.21875 L -7.5 12.484375 L 1.328125 7.578125 L 0.375 5.875 C -0.0195312 5.15625 -0.554688 4.59375 -1.234375 4.1875 C -1.910156 3.789062 -2.644531 3.582031 -3.4375 3.5625 C -4.238281 3.539062 -5 3.726562 -5.71875 4.125 C -6.4375 4.53125 -6.992188 5.070312 -7.390625 5.75 C -7.785156 6.4375 -7.992188 7.175781 -8.015625 7.96875 C -8.046875 8.757812 -7.863281 9.515625 -7.46875 10.234375 Z M -7.46875 10.234375 "></path></g></g></g><g fill="#000000" fill-opacity="1"><g transform="translate(176.418825, 226.349228)"><g><path d="M -8.640625 9.234375 L -9.6875 9.65625 C -10.070312 8.695312 -10.1875 7.726562 -10.03125 6.75 C -9.882812 5.78125 -9.515625 4.898438 -8.921875 4.109375 C -8.328125 3.328125 -7.550781 2.742188 -6.59375 2.359375 C -5.65625 1.972656 -4.691406 1.851562 -3.703125 2 C -2.710938 2.15625 -1.828125 2.53125 -1.046875 3.125 C -0.265625 3.726562 0.316406 4.507812 0.703125 5.46875 L 2.171875 9.109375 C 2.546875 10.054688 2.660156 11.015625 2.515625 11.984375 C 2.378906 12.960938 2.003906 13.84375 1.390625 14.625 C 0.785156 15.414062 0.015625 16.003906 -0.921875 16.390625 C -1.878906 16.773438 -2.84375 16.890625 -3.8125 16.734375 C -4.789062 16.585938 -5.675781 16.210938 -6.46875 15.609375 C -7.257812 15.015625 -7.84375 14.242188 -8.21875 13.296875 L -7.171875 12.875 C -6.867188 13.632812 -6.40625 14.253906 -5.78125 14.734375 C -5.15625 15.210938 -4.453125 15.507812 -3.671875 15.625 C -2.890625 15.75 -2.113281 15.660156 -1.34375 15.359375 C -0.582031 15.046875 0.0351562 14.570312 0.515625 13.9375 C 0.992188 13.3125 1.289062 12.609375 1.40625 11.828125 C 1.53125 11.046875 1.441406 10.273438 1.140625 9.515625 L -0.328125 5.875 C -0.640625 5.113281 -1.109375 4.488281 -1.734375 4 C -2.367188 3.519531 -3.078125 3.222656 -3.859375 3.109375 C -4.640625 2.992188 -5.410156 3.09375 -6.171875 3.40625 C -6.941406 3.707031 -7.566406 4.171875 -8.046875 4.796875 C -8.523438 5.421875 -8.820312 6.125 -8.9375 6.90625 C -9.050781 7.695312 -8.953125 8.472656 -8.640625 9.234375 Z M -8.640625 9.234375 "></path></g></g></g><g fill="#000000" fill-opacity="1"><g transform="translate(164.132055, 231.341041)"><g><path d="M -11.625 3.140625 L -10.546875 2.84375 L -8.796875 9.328125 L -0.671875 7.140625 L -2.421875 0.65625 L -1.359375 0.359375 L 2.4375 14.421875 L 1.375 14.71875 L -0.375 8.234375 L -8.5 10.421875 L -6.75 16.90625 L -7.828125 17.203125 Z M -11.625 3.140625 "></path></g></g></g><g fill="#000000" fill-opacity="1"><g transform="translate(151.929191, 234.706892)"><g><path d="M -12.484375 1.796875 L -11.359375 1.640625 L -10.265625 9.1875 L -3.8125 0.546875 L -3.328125 0.484375 L -3.171875 1.59375 L -5.375 4.546875 C -4.5 4.585938 -3.679688 4.816406 -2.921875 5.234375 C -2.160156 5.648438 -1.523438 6.210938 -1.015625 6.921875 C -0.515625 7.640625 -0.195312 8.453125 -0.0625 9.359375 C 0.0820312 10.367188 -0.03125 11.328125 -0.40625 12.234375 C -0.78125 13.148438 -1.351562 13.914062 -2.125 14.53125 C -2.894531 15.15625 -3.785156 15.539062 -4.796875 15.6875 C -5.816406 15.832031 -6.785156 15.71875 -7.703125 15.34375 C -8.617188 14.96875 -9.382812 14.394531 -10 13.625 C -10.625 12.851562 -11.007812 11.960938 -11.15625 10.953125 Z M -6.234375 5.71875 L -10.03125 10.796875 C -9.914062 11.609375 -9.609375 12.320312 -9.109375 12.9375 C -8.617188 13.550781 -8.007812 14.007812 -7.28125 14.3125 C -6.550781 14.613281 -5.773438 14.707031 -4.953125 14.59375 C -4.140625 14.476562 -3.425781 14.171875 -2.8125 13.671875 C -2.195312 13.171875 -1.738281 12.554688 -1.4375 11.828125 C -1.132812 11.097656 -1.039062 10.328125 -1.15625 9.515625 C -1.28125 8.703125 -1.585938 7.984375 -2.078125 7.359375 C -2.578125 6.742188 -3.191406 6.285156 -3.921875 5.984375 C -4.648438 5.691406 -5.421875 5.601562 -6.234375 5.71875 Z M -6.234375 5.71875 "></path></g></g></g></g></g></svg> 