<?xml version="1.0" encoding="UTF-8"?> <svg xmlns="http://www.w3.org/2000/svg" xmlns:xlink="http://www.w3.org/1999/xlink" width="360" zoomAndPan="magnify" viewBox="0 0 270 359.999987" height="480" preserveAspectRatio="xMidYMid meet" version="1.0"><defs><clipPath id="d1d2292048"><path d="M 171.886719 201.582031 L 172.296875 201.582031 L 172.296875 201.863281 L 171.886719 201.863281 Z M 171.886719 201.582031 " clip-rule="nonzero"></path></clipPath><clipPath id="1fd1212cf1"><path d="M 172.273438 201.75 C 171.523438 202.050781 172.125 201.601562 172.125 201.601562 " clip-rule="nonzero"></path></clipPath><clipPath id="be9860fb39"><path d="M 0.886719 0.582031 L 1.296875 0.582031 L 1.296875 0.863281 L 0.886719 0.863281 Z M 0.886719 0.582031 " clip-rule="nonzero"></path></clipPath><clipPath id="44f5e8b088"><path d="M 1.273438 0.75 C 0.523438 1.050781 1.125 0.601562 1.125 0.601562 " clip-rule="nonzero"></path></clipPath><clipPath id="373bbbbc7f"><rect x="0" width="2" y="0" height="1"></rect></clipPath><clipPath id="131f40b774"><path d="M 78.0625 176.757812 L 78.472656 176.757812 L 78.472656 177 L 78.0625 177 Z M 78.0625 176.757812 " clip-rule="nonzero"></path></clipPath><clipPath id="e976fbdd5d"><path d="M 78.449219 176.925781 C 77.699219 177.148438 78.300781 176.773438 78.300781 176.773438 " clip-rule="nonzero"></path></clipPath><clipPath id="b1b7edb263"><path d="M 0.0625 0.757812 L 0.472656 0.757812 L 0.472656 1 L 0.0625 1 Z M 0.0625 0.757812 " clip-rule="nonzero"></path></clipPath><clipPath id="6405c9cc42"><path d="M 0.449219 0.925781 C -0.300781 1.148438 0.300781 0.773438 0.300781 0.773438 " clip-rule="nonzero"></path></clipPath><clipPath id="13c7f053f3"><rect x="0" width="1" y="0" height="1"></rect></clipPath><clipPath id="925f725279"><path d="M 0.0625 0.757812 L 0.472656 0.757812 L 0.472656 1 L 0.0625 1 Z M 0.0625 0.757812 " clip-rule="nonzero"></path></clipPath><clipPath id="000a975cd7"><path d="M 0.449219 0.925781 C -0.300781 1.148438 0.300781 0.773438 0.300781 0.773438 " clip-rule="nonzero"></path></clipPath><clipPath id="62acc2e928"><rect x="0" width="1" y="0" height="1"></rect></clipPath><clipPath id="84ba56be56"><path d="M 5.511719 37 L 259 37 L 259 303.660156 L 5.511719 303.660156 Z M 5.511719 37 " clip-rule="nonzero"></path></clipPath></defs><g clip-path="url(#d1d2292048)"><g clip-path="url(#1fd1212cf1)"><g transform="matrix(1, 0, 0, 1, 171, 201)"><g clip-path="url(#373bbbbc7f)"><g clip-path="url(#be9860fb39)"><g clip-path="url(#44f5e8b088)"><rect x="-230.4" width="388.8" fill="#492c01" height="518.399981" y="-280.199997" fill-opacity="1"></rect></g></g></g></g></g></g><g clip-path="url(#131f40b774)"><g clip-path="url(#e976fbdd5d)"><g transform="matrix(1, 0, 0, 1, 78, 176)"><g clip-path="url(#13c7f053f3)"><g clip-path="url(#b1b7edb263)"><g clip-path="url(#6405c9cc42)"><rect x="-137.4" width="388.8" fill="#492c01" height="518.399981" y="-255.199997" fill-opacity="1"></rect></g></g></g></g><g transform="matrix(1, 0, 0, 1, 78, 176)"><g clip-path="url(#62acc2e928)"><g clip-path="url(#925f725279)"><g clip-path="url(#000a975cd7)"><rect x="-137.4" width="388.8" fill="#492c01" height="518.399981" y="-255.199997" fill-opacity="1"></rect></g></g></g></g></g></g><g clip-path="url(#84ba56be56)"><path fill="#492c01" d="M 95.667969 74.972656 C 96.363281 73.304688 97.246094 71.773438 97.339844 70.199219 C 97.570312 67.464844 93.214844 64.40625 90.804688 65.65625 C 86.863281 70.617188 83.386719 76.363281 78.011719 80.117188 C 77.128906 81.183594 74.582031 80.90625 75.738281 79.191406 C 80.1875 74.742188 85.101562 70.800781 87.929688 65.054688 C 91.3125 60.328125 88.53125 53.003906 82.089844 53.976562 C 80.234375 53.839844 77.917969 54.71875 76.574219 53.097656 C 80.144531 49.945312 87.417969 50.917969 90.386719 55.183594 C 92.609375 57.546875 90.386719 62.457031 94.046875 63.292969 C 100.351562 64.5 101.230469 71.730469 98.035156 76.316406 C 89.367188 88.554688 75 95.597656 60.769531 99.167969 C 58.082031 99.722656 54.09375 99.351562 52.566406 101.992188 C 49.691406 109.78125 49.089844 117.9375 49.785156 126.050781 C 53.445312 161.273438 72.679688 193.347656 95.253906 219.8125 C 113.144531 238.164062 131.035156 256.613281 150.730469 273.019531 C 156.015625 277.699219 161.253906 282.476562 166.398438 287.296875 C 167.925781 288.777344 168.484375 288.777344 169.875 286.878906 C 182.851562 269.449219 197.265625 252.996094 213.441406 238.488281 C 226.417969 224.355469 241.898438 211.285156 248.945312 192.976562 C 258.863281 172.074219 261.179688 135.085938 231.980469 129.988281 C 208.34375 127.347656 189.246094 145.609375 176.453125 163.359375 C 173.765625 166.511719 182.203125 178.238281 180.441406 186.488281 C 179.050781 200.160156 166.257812 197.890625 165.980469 185.097656 C 164.589844 172.859375 174.648438 166.28125 170.335938 161.503906 C 158.148438 143.382812 139.609375 125.214844 116.0625 127.300781 C 104.152344 128.414062 95.53125 136.199219 92.285156 148.25 C 90.246094 153.949219 92.054688 160.207031 90.015625 165.675781 C 85.9375 156.777344 89.597656 143.753906 95.207031 135.78125 C 111.101562 115.109375 141.878906 125.816406 157.542969 141.574219 C 189.386719 175.503906 156.246094 162.570312 204.773438 132.953125 C 252.699219 109.59375 269.847656 157.75 250.84375 195.570312 C 232.164062 232.835938 193.464844 254.664062 171.820312 290.03125 C 170.289062 294.851562 177.195312 298.1875 176.871094 302.867188 C 173.164062 301.292969 172.003906 296.75 169.132812 294.0625 C 167.183594 296.933594 167.09375 301.015625 164.402344 303.332031 C 162.96875 299.253906 168.855469 293.875 165.980469 290.539062 C 154.71875 280.433594 143.316406 270.515625 132.144531 260.367188 C 107.257812 236.265625 80.746094 212.582031 65.125 181.066406 C 54.558594 196.636719 65.914062 189.222656 69.160156 204.054688 C 73.191406 217.910156 63.875 230.195312 59.65625 242.613281 C 59.285156 242.246094 58.636719 241.964844 58.542969 241.550781 C 57.570312 236.960938 55.484375 232.835938 52.890625 229.035156 C 46.539062 221.574219 39.867188 212.859375 44.871094 202.664062 C 47.097656 197.332031 50.804688 193.855469 56.179688 191.769531 C 63.179688 182.824219 68.230469 172.816406 52.84375 169.894531 C 51.730469 169.710938 50.804688 169.800781 49.878906 171.144531 C 38.429688 185.605469 18.546875 174.066406 5.660156 167.714844 C 18.824219 161.828125 38.476562 149.128906 49.785156 164.609375 C 51.359375 168.085938 55.761719 167.808594 58.960938 169.152344 C 51.917969 153.023438 46.585938 135.78125 46.863281 118.03125 C 47.003906 112.839844 47.652344 107.789062 49.644531 102.96875 C 50.433594 100.882812 50.015625 99.492188 48.347656 97.636719 C 35.648438 83.917969 24.339844 66.628906 24.664062 47.257812 C 25.082031 36.457031 35.136719 35.160156 42.277344 39.886719 C 44.59375 41.324219 47.1875 42.527344 47.746094 45.496094 C 44.039062 45.355469 41.535156 42.066406 38.199219 40.953125 C 21.742188 35.34375 27.90625 59.308594 31.570312 67.324219 C 35.371094 75.621094 39.542969 84.566406 45.753906 91.054688 C 41.859375 75.855469 40.050781 58.007812 50.203125 44.613281 C 53.398438 40.675781 58.824219 38.730469 63.96875 42.160156 C 65.914062 43.875 68.925781 45.773438 68.601562 48.738281 C 62.625 45.773438 58.082031 39.054688 51.730469 46.652344 C 43.433594 56.292969 43.621094 86.558594 50.710938 96.152344 C 51.035156 92.261719 50.292969 83.316406 53.261719 81 C 54.929688 85.632812 51.636719 90.546875 52.796875 95.226562 C 56.875 91.613281 58.128906 84.9375 62.855469 82.25 C 61.929688 87.578125 56.738281 91.425781 55.023438 96.617188 C 61 94.53125 64.800781 88.042969 70.917969 86.558594 C 68.183594 90.871094 62.902344 93.140625 59.5625 96.988281 C 73.191406 93.511719 87.328125 86.699219 95.714844 74.972656 M 55.253906 194.644531 C 49.183594 199.1875 44.546875 205.628906 46.308594 213.554688 C 48.207031 222.640625 57.292969 227.460938 59.007812 236.589844 C 63.503906 226.441406 70.039062 216.519531 66.792969 204.839844 C 65.914062 201.273438 64.476562 197.933594 61.558594 195.433594 C 57.015625 191.214844 57.476562 206.277344 56.738281 208.6875 C 56.089844 212.488281 58.082031 216.753906 56.367188 220.320312 C 52.519531 213 54.417969 203.40625 56.550781 195.664062 C 56.921875 194.644531 56.503906 194.273438 55.253906 194.644531 M 31.152344 166.371094 C 36.851562 164.84375 42.324219 165.628906 47.976562 166.234375 C 39.171875 153.488281 21.742188 163.035156 10.804688 167.808594 C 13.449219 168.457031 16.136719 169.570312 18.546875 170.820312 C 27.398438 176.382812 42.230469 178.5625 48.765625 168.691406 C 43.15625 167.253906 35.878906 170.035156 31.152344 166.371094 M 169.734375 190.007812 C 171.171875 195.015625 176.824219 194.089844 177.519531 189.316406 C 179.234375 181.945312 176.640625 174.113281 173.441406 167.53125 C 169.316406 174.34375 166.8125 181.804688 169.734375 190.007812 " fill-opacity="1" fill-rule="nonzero"></path></g></svg> 