<?xml version="1.0" encoding="UTF-8"?> <svg xmlns="http://www.w3.org/2000/svg" xmlns:xlink="http://www.w3.org/1999/xlink" width="360" zoomAndPan="magnify" viewBox="0 0 270 359.999987" height="480" preserveAspectRatio="xMidYMid meet" version="1.0"><defs><clipPath id="ba68fbe443"><path d="M 171.886719 201.582031 L 172.296875 201.582031 L 172.296875 201.863281 L 171.886719 201.863281 Z M 171.886719 201.582031 " clip-rule="nonzero"></path></clipPath><clipPath id="248a2ed8f8"><path d="M 172.273438 201.75 C 171.523438 202.050781 172.125 201.601562 172.125 201.601562 " clip-rule="nonzero"></path></clipPath><clipPath id="bf26be4528"><path d="M 0.886719 0.582031 L 1.296875 0.582031 L 1.296875 0.863281 L 0.886719 0.863281 Z M 0.886719 0.582031 " clip-rule="nonzero"></path></clipPath><clipPath id="9b6e20dad1"><path d="M 1.273438 0.75 C 0.523438 1.050781 1.125 0.601562 1.125 0.601562 " clip-rule="nonzero"></path></clipPath><clipPath id="cb11c0d33e"><rect x="0" width="2" y="0" height="1"></rect></clipPath><clipPath id="3ae04e8b5c"><path d="M 78.0625 176.757812 L 78.472656 176.757812 L 78.472656 177 L 78.0625 177 Z M 78.0625 176.757812 " clip-rule="nonzero"></path></clipPath><clipPath id="9554ff4288"><path d="M 78.449219 176.925781 C 77.699219 177.148438 78.300781 176.773438 78.300781 176.773438 " clip-rule="nonzero"></path></clipPath><clipPath id="1fcbd12e26"><path d="M 0.0625 0.757812 L 0.472656 0.757812 L 0.472656 1 L 0.0625 1 Z M 0.0625 0.757812 " clip-rule="nonzero"></path></clipPath><clipPath id="c74329436d"><path d="M 0.449219 0.925781 C -0.300781 1.148438 0.300781 0.773438 0.300781 0.773438 " clip-rule="nonzero"></path></clipPath><clipPath id="7b6363aad4"><rect x="0" width="1" y="0" height="1"></rect></clipPath><clipPath id="a0c244bb3d"><path d="M 0.0625 0.757812 L 0.472656 0.757812 L 0.472656 1 L 0.0625 1 Z M 0.0625 0.757812 " clip-rule="nonzero"></path></clipPath><clipPath id="089285f679"><path d="M 0.449219 0.925781 C -0.300781 1.148438 0.300781 0.773438 0.300781 0.773438 " clip-rule="nonzero"></path></clipPath><clipPath id="7b9691953e"><rect x="0" width="1" y="0" height="1"></rect></clipPath><clipPath id="22ee1dad62"><path d="M 27 78.289062 L 243 78.289062 L 243 325.789062 L 27 325.789062 Z M 27 78.289062 " clip-rule="nonzero"></path></clipPath></defs><g clip-path="url(#ba68fbe443)"><g clip-path="url(#248a2ed8f8)"><g transform="matrix(1, 0, 0, 1, 171, 201)"><g clip-path="url(#cb11c0d33e)"><g clip-path="url(#bf26be4528)"><g clip-path="url(#9b6e20dad1)"><rect x="-230.4" width="388.8" fill="#492c01" height="518.399981" y="-280.199997" fill-opacity="1"></rect></g></g></g></g></g></g><g clip-path="url(#3ae04e8b5c)"><g clip-path="url(#9554ff4288)"><g transform="matrix(1, 0, 0, 1, 78, 176)"><g clip-path="url(#7b6363aad4)"><g clip-path="url(#1fcbd12e26)"><g clip-path="url(#c74329436d)"><rect x="-137.4" width="388.8" fill="#492c01" height="518.399981" y="-255.199997" fill-opacity="1"></rect></g></g></g></g><g transform="matrix(1, 0, 0, 1, 78, 176)"><g clip-path="url(#7b9691953e)"><g clip-path="url(#a0c244bb3d)"><g clip-path="url(#089285f679)"><rect x="-137.4" width="388.8" fill="#492c01" height="518.399981" y="-255.199997" fill-opacity="1"></rect></g></g></g></g></g></g><g clip-path="url(#22ee1dad62)"><path fill="#492c01" d="M 70.574219 278.484375 C 70.117188 277.902344 69.648438 277.324219 69.207031 276.734375 C 66.953125 273.703125 65.089844 270.421875 63.203125 267.148438 C 60.515625 262.472656 57.652344 257.886719 54.886719 253.253906 C 51.371094 247.351562 47.875 241.441406 44.390625 235.511719 C 43.089844 233.300781 41.871094 231.042969 40.578125 228.832031 C 38.386719 225.101562 36.132812 221.410156 33.980469 217.660156 C 33.203125 216.308594 32.6875 214.8125 31.992188 213.410156 C 31.167969 211.730469 30.257812 210.105469 29.414062 208.433594 C 28.878906 207.375 28.042969 206.445312 28 205.152344 C 27.992188 204.859375 27.609375 204.585938 27.441406 204.285156 C 27 203.484375 27.042969 203.039062 27.734375 202.40625 C 31.292969 199.175781 34.832031 195.910156 38.457031 192.761719 C 41.554688 190.074219 44.710938 187.460938 47.933594 184.921875 C 50.195312 183.144531 52.566406 181.492188 54.960938 179.894531 C 58.910156 177.257812 62.96875 174.769531 66.894531 172.097656 C 71.019531 169.285156 75.335938 166.8125 79.734375 164.464844 C 82.179688 163.15625 84.550781 161.710938 86.964844 160.339844 C 90.265625 158.464844 93.554688 156.59375 96.867188 154.738281 C 99.03125 153.527344 101.210938 152.351562 103.378906 151.164062 C 104.046875 150.804688 104.714844 150.449219 105.417969 150.15625 C 106.386719 149.746094 106.8125 149.101562 106.679688 148.027344 C 106.503906 146.625 106.277344 145.203125 106.351562 143.808594 C 106.460938 141.914062 105.625 140.0625 106.210938 138.164062 C 106.269531 137.964844 106.050781 137.699219 106.042969 137.457031 C 106.019531 136.921875 106.027344 136.378906 106.042969 135.835938 C 106.042969 135.585938 106.160156 135.328125 106.09375 135.101562 C 105.566406 133.15625 105.636719 131.152344 105.535156 129.164062 C 105.507812 128.671875 105.617188 128.171875 105.675781 127.671875 C 105.703125 127.429688 105.867188 127.128906 105.777344 126.960938 C 105 125.589844 105.402344 124.070312 105.234375 122.636719 C 105.09375 121.40625 105.367188 120.164062 105.074219 118.886719 C 104.800781 117.667969 104.851562 116.375 104.816406 115.113281 C 104.699219 110.605469 104.507812 106.105469 104.542969 101.59375 C 104.558594 98.773438 104.933594 95.960938 105.152344 93.136719 C 105.152344 93.085938 105.183594 93.035156 105.175781 92.988281 C 104.816406 91.226562 105.984375 90.65625 107.296875 89.996094 C 109.542969 88.871094 111.996094 88.496094 114.367188 87.886719 C 118.074219 86.933594 121.859375 86.265625 125.605469 85.464844 C 128.277344 84.894531 130.933594 84.277344 133.605469 83.742188 C 136.335938 83.199219 139.074219 82.71875 141.820312 82.257812 C 145.90625 81.574219 149.996094 80.914062 154.09375 80.289062 C 155.339844 80.09375 156.609375 80.046875 157.867188 79.960938 C 161.390625 79.71875 164.917969 79.453125 168.441406 79.269531 C 173.425781 79.007812 178.398438 78.777344 183.386719 78.609375 C 187.761719 78.457031 192.125 78.359375 196.5 78.324219 C 198.554688 78.308594 200.617188 78.542969 202.679688 78.582031 C 204.082031 78.609375 205.484375 78.417969 206.878906 78.476562 C 208.382812 78.542969 209.886719 78.808594 211.390625 78.960938 C 213.535156 79.167969 215.679688 79.300781 217.828125 79.535156 C 219.53125 79.71875 221.226562 80.003906 222.929688 80.246094 C 223.863281 80.378906 224.804688 80.503906 225.910156 80.664062 C 225.910156 82.089844 225.875 83.394531 225.917969 84.695312 C 225.976562 86.257812 226.085938 87.828125 226.191406 89.386719 C 226.394531 92.394531 226.683594 95.398438 226.785156 98.414062 C 226.886719 101.234375 227.21875 104.015625 227.585938 106.804688 C 228.003906 109.960938 228.253906 113.140625 228.613281 116.316406 C 228.929688 119.078125 229.273438 121.84375 229.648438 124.597656 C 230.285156 129.214844 230.945312 133.824219 231.613281 138.433594 C 232.128906 141.980469 232.671875 145.53125 233.199219 149.078125 C 233.933594 154.085938 234.683594 159.089844 235.378906 164.097656 C 235.96875 168.355469 236.488281 172.632812 237.023438 176.898438 C 237.089844 177.417969 237.390625 178 236.847656 178.46875 C 236.847656 178.46875 236.886719 178.433594 236.886719 178.433594 C 236.644531 178.402344 236.394531 178.367188 236.011719 178.316406 C 236.070312 177.175781 236.121094 176.089844 236.179688 174.894531 C 236.121094 174.851562 235.6875 174.609375 235.703125 174.550781 C 235.953125 173.917969 235.492188 173.441406 235.402344 172.898438 C 234.976562 170.3125 234.542969 167.722656 234.148438 165.132812 C 233.046875 157.894531 231.960938 150.648438 230.886719 143.402344 C 230.535156 141.0625 230.257812 138.714844 229.925781 136.378906 C 229.714844 134.933594 229.421875 133.5 229.230469 132.046875 C 229.125 131.261719 229.199219 130.449219 229.082031 129.664062 C 228.890625 128.320312 228.554688 126.992188 228.386719 125.648438 C 228.019531 122.742188 227.703125 119.832031 227.386719 116.917969 C 226.945312 112.875 226.492188 108.832031 226.101562 104.792969 C 225.84375 102.15625 225.65625 99.5 225.5 96.851562 C 225.25 92.519531 225.039062 88.1875 224.824219 83.851562 C 224.78125 83.066406 224.765625 82.28125 224.730469 81.4375 C 221.609375 81.097656 218.652344 80.714844 215.679688 80.460938 C 212.25 80.179688 208.808594 80.054688 205.367188 79.785156 C 197.328125 79.160156 189.289062 79.460938 181.257812 79.820312 C 175.996094 80.054688 170.742188 80.429688 165.492188 80.761719 C 162.410156 80.964844 159.320312 81.15625 156.25 81.4375 C 151.507812 81.875 146.824219 82.71875 142.164062 83.683594 C 138.890625 84.363281 135.625 85.054688 132.34375 85.6875 C 127.277344 86.667969 122.175781 87.484375 117.132812 88.578125 C 113.441406 89.378906 109.828125 90.53125 106.152344 91.535156 C 106.085938 91.976562 106.003906 92.308594 105.992188 92.660156 C 105.894531 95.941406 105.71875 99.222656 105.726562 102.503906 C 105.726562 105.886719 105.917969 109.269531 106.011719 112.65625 C 106.085938 115.328125 106.078125 118.011719 106.203125 120.671875 C 106.363281 124.046875 106.636719 127.417969 106.84375 130.792969 C 106.953125 132.597656 107.15625 134.417969 107.054688 136.210938 C 107.003906 137.171875 107.003906 138.058594 107.261719 138.96875 C 107.363281 139.300781 107.464844 139.652344 107.496094 139.992188 C 107.804688 143.066406 108.140625 146.128906 108.390625 149.203125 C 108.742188 153.386719 109.035156 157.578125 109.332031 161.769531 C 109.667969 166.3125 109.992188 170.851562 110.320312 175.402344 C 110.660156 180.15625 110.878906 184.914062 111.378906 189.648438 C 112.15625 196.996094 113.117188 204.316406 114.019531 211.648438 C 114.285156 213.851562 114.519531 216.074219 114.96875 218.246094 C 116.089844 223.648438 117.300781 229.023438 118.511719 234.402344 C 118.636719 234.953125 118.984375 235.453125 119.21875 235.953125 C 119.769531 235.863281 120.121094 235.753906 120.472656 235.761719 C 122.71875 235.804688 124.820312 235.195312 126.894531 234.382812 C 127.117188 234.292969 127.378906 234.265625 127.617188 234.226562 C 129.339844 233.925781 131.152344 233.859375 132.769531 233.273438 C 135.710938 232.222656 138.765625 231.722656 141.761719 230.976562 C 144.234375 230.359375 146.746094 229.875 149.234375 229.300781 C 149.761719 229.183594 150.28125 228.738281 150.753906 228.796875 C 151.480469 228.882812 152.015625 228.65625 152.601562 228.332031 C 152.941406 228.140625 153.386719 227.929688 153.746094 227.980469 C 155.054688 228.164062 156.214844 227.570312 157.453125 227.363281 C 158.621094 227.171875 159.78125 226.703125 160.941406 226.71875 C 162.796875 226.746094 164.449219 225.828125 166.269531 225.851562 C 166.769531 225.167969 167.363281 225.851562 167.886719 225.734375 C 170.226562 225.234375 172.554688 224.691406 174.894531 224.179688 C 175.710938 224.007812 176.589844 223.980469 177.363281 223.695312 C 178.574219 223.253906 179.8125 223.238281 181.054688 223.128906 C 182.148438 223.027344 183.234375 222.902344 184.328125 222.769531 C 186.65625 222.46875 188.996094 222.160156 191.324219 221.835938 C 192.921875 221.609375 194.507812 221.359375 196.09375 221.109375 C 197.121094 220.941406 198.128906 220.648438 199.164062 220.574219 C 202.414062 220.347656 205.660156 220.207031 208.910156 220.015625 C 209.984375 219.957031 211.070312 219.839844 212.148438 219.765625 C 213.542969 219.664062 214.929688 219.582031 216.324219 219.488281 C 218.460938 219.347656 220.597656 219.214844 222.734375 219.054688 C 224.964844 218.886719 227.1875 218.671875 229.40625 218.519531 C 230.757812 218.429688 232.113281 218.453125 233.464844 218.371094 C 234.417969 218.3125 235.359375 218.136719 236.3125 218.054688 C 238.15625 217.894531 239.996094 217.683594 241.863281 217.125 C 241.78125 216.707031 241.714844 216.375 241.648438 216.039062 C 241.1875 213.917969 240.664062 211.816406 240.269531 209.6875 C 239.851562 207.40625 239.550781 205.09375 239.226562 202.796875 C 238.816406 199.941406 238.40625 197.085938 238.058594 194.222656 C 237.789062 192.042969 237.648438 189.847656 237.414062 187.660156 C 237.238281 186 237.003906 184.355469 236.8125 182.691406 C 236.8125 182.667969 237.054688 182.609375 237.179688 182.566406 C 237.253906 182.632812 237.304688 182.691406 237.332031 182.742188 C 238.175781 182.933594 237.949219 183.71875 238.039062 184.222656 C 238.40625 186.257812 238.675781 188.304688 238.957031 190.359375 C 239.792969 196.570312 240.585938 202.789062 241.464844 209.003906 C 241.839844 211.640625 242.390625 214.253906 242.867188 216.875 C 243 217.617188 242.707031 218.027344 241.773438 218.179688 C 239.683594 218.511719 237.589844 218.90625 235.484375 219.097656 C 230.089844 219.597656 224.699219 220.015625 219.296875 220.433594 C 215.164062 220.757812 211.011719 220.984375 206.878906 221.351562 C 202.296875 221.761719 197.722656 222.269531 193.144531 222.738281 C 191.992188 222.855469 190.839844 222.960938 189.695312 223.097656 C 189.15625 223.164062 188.628906 223.296875 187.828125 223.445312 C 188.660156 224.507812 189.355469 225.382812 190.054688 226.261719 C 190.214844 226.453125 190.433594 226.609375 190.546875 226.820312 C 191.683594 228.855469 193.328125 230.527344 194.523438 232.53125 C 195.566406 234.285156 196.820312 235.902344 197.980469 237.574219 C 199.851562 240.253906 201.71875 242.933594 203.597656 245.605469 C 203.765625 245.847656 204.066406 246.03125 204.160156 246.289062 C 204.625 247.578125 205.425781 248.621094 206.296875 249.664062 C 207.855469 251.542969 207.664062 252.460938 205.4375 253.453125 C 201.453125 255.234375 197.597656 257.253906 193.957031 259.65625 C 188.136719 263.515625 182.339844 267.414062 176.582031 271.355469 C 173.492188 273.46875 170.46875 275.679688 167.4375 277.886719 C 164.007812 280.375 160.625 282.945312 157.167969 285.398438 C 154.988281 286.953125 152.699219 288.363281 150.472656 289.839844 C 145.570312 293.097656 141.019531 296.804688 136.535156 300.59375 C 131.46875 304.878906 126.257812 308.96875 120.957031 312.960938 C 118.535156 314.78125 116.28125 316.835938 113.976562 318.804688 C 111.753906 320.710938 109.585938 322.664062 107.371094 324.566406 C 106.394531 325.410156 106.085938 325.367188 105.226562 324.433594 C 102.0625 320.96875 98.914062 317.484375 96.109375 313.703125 C 94.640625 311.71875 93.035156 309.820312 91.566406 307.96875 C 91.765625 307.390625 91.933594 306.941406 92.09375 306.488281 C 92.09375 306.488281 92.042969 306.539062 92.042969 306.539062 C 92.601562 307.125 93.203125 307.675781 93.695312 308.300781 C 95.039062 310.023438 96.332031 311.785156 97.660156 313.519531 C 98.027344 313.996094 98.445312 314.421875 98.820312 314.898438 C 100.785156 317.386719 102.738281 319.882812 104.699219 322.378906 C 105.125 322.914062 105.558594 323.441406 106.070312 324.066406 C 106.972656 323.207031 107.738281 322.394531 108.582031 321.695312 C 114.410156 316.835938 120.171875 311.902344 126.226562 307.308594 C 131.425781 303.367188 136.4375 299.167969 141.414062 294.941406 C 144.9375 291.945312 148.726562 289.367188 152.527344 286.761719 C 156.199219 284.246094 159.832031 281.667969 163.480469 279.113281 C 164.683594 278.269531 165.835938 277.367188 167.035156 276.523438 C 170.09375 274.371094 173.164062 272.230469 176.210938 270.078125 C 180.546875 267.023438 184.847656 263.925781 189.195312 260.902344 C 190.847656 259.75 192.621094 258.757812 194.355469 257.738281 C 196.425781 256.527344 198.496094 255.300781 200.636719 254.199219 C 202.105469 253.4375 203.683594 252.894531 205.203125 252.21875 C 205.535156 252.070312 205.792969 251.75 206.1875 251.433594 C 205.027344 249.863281 203.992188 248.386719 202.871094 246.96875 C 201.59375 245.339844 200.210938 243.8125 198.964844 242.167969 C 196.902344 239.445312 194.90625 236.664062 192.902344 233.890625 C 192.109375 232.796875 191.332031 231.679688 190.574219 230.558594 C 189.011719 228.273438 187.46875 225.984375 185.863281 223.621094 C 181.507812 224.324219 177.140625 225.023438 172.730469 225.734375 C 172.804688 226.070312 172.804688 226.226562 172.875 226.351562 C 173.707031 228.089844 173.691406 228.265625 172.039062 229.222656 C 170.335938 230.210938 168.546875 231.070312 166.84375 232.054688 C 163.988281 233.691406 161.101562 235.277344 158.351562 237.082031 C 153.660156 240.164062 149.136719 243.476562 144.425781 246.53125 C 138.148438 250.605469 132.195312 255.125 126.316406 259.742188 C 122.617188 262.648438 118.84375 265.445312 115.035156 268.207031 C 109.585938 272.164062 104.222656 276.230469 99.40625 280.972656 C 98.511719 281.851562 97.527344 282.660156 96.492188 283.363281 C 95.097656 284.304688 94.605469 284.171875 93.59375 282.828125 C 92.742188 281.699219 92.007812 280.472656 91.074219 279.414062 C 88.144531 276.113281 85.65625 272.5 83.183594 268.859375 C 78.890625 262.539062 74.449219 256.328125 70.109375 250.039062 C 68.414062 247.59375 66.785156 245.097656 65.199219 242.574219 C 63.9375 240.578125 62.8125 238.5 61.589844 236.480469 C 60.003906 233.859375 58.386719 231.261719 56.800781 228.632812 C 56.390625 227.945312 56.105469 227.179688 55.707031 226.484375 C 54.394531 224.214844 53.035156 221.96875 51.738281 219.6875 C 51.0625 218.503906 50.488281 217.257812 49.859375 216.039062 C 48.589844 213.578125 47.339844 211.097656 46.019531 208.652344 C 45.652344 207.976562 45.804688 207.472656 46.253906 207.015625 C 47.148438 206.121094 48.015625 205.179688 49.015625 204.410156 C 54.175781 200.425781 59.355469 196.460938 64.582031 192.5625 C 66.644531 191.027344 68.839844 189.679688 70.984375 188.253906 C 72.570312 187.203125 74.132812 186.125 75.742188 185.105469 C 78.089844 183.628906 80.476562 182.207031 82.832031 180.738281 C 85.105469 179.328125 87.351562 177.882812 89.605469 176.4375 C 90.332031 175.972656 91.007812 175.445312 91.742188 174.996094 C 94.746094 173.140625 97.804688 171.363281 100.757812 169.441406 C 102.828125 168.089844 105.042969 167.03125 107.222656 165.886719 C 107.679688 165.644531 108.113281 165.394531 108.054688 164.773438 C 107.921875 163.230469 107.753906 161.6875 107.648438 160.140625 C 107.472656 157.828125 107.347656 155.515625 107.171875 153.203125 C 107.105469 152.324219 106.972656 151.464844 106.863281 150.507812 C 103.113281 152.542969 99.546875 154.421875 96.03125 156.402344 C 91.449219 158.980469 86.933594 161.695312 82.332031 164.257812 C 76.671875 167.414062 71.011719 170.542969 65.65625 174.21875 C 61.699219 176.941406 57.617188 179.488281 53.59375 182.117188 C 49.308594 184.914062 45.410156 188.210938 41.535156 191.542969 C 38.621094 194.058594 35.707031 196.5625 32.828125 199.109375 C 31.316406 200.445312 29.863281 201.855469 28.320312 203.300781 C 28.585938 203.859375 28.8125 204.417969 29.105469 204.945312 C 30.113281 206.816406 31.140625 208.667969 32.152344 210.53125 C 32.378906 210.9375 32.851562 211.382812 32.109375 211.800781 C 32.085938 211.816406 32.269531 212.207031 32.359375 212.425781 C 32.542969 212.324219 32.726562 212.234375 32.996094 212.089844 C 33.402344 212.882812 33.839844 213.6875 34.238281 214.496094 C 34.890625 215.808594 35.457031 217.160156 36.175781 218.429688 C 37.972656 221.625 39.824219 224.78125 41.652344 227.957031 C 42.5625 229.535156 43.433594 231.128906 44.367188 232.679688 C 46.980469 237.007812 49.628906 241.304688 52.25 245.632812 C 52.984375 246.84375 53.652344 248.09375 54.378906 249.304688 C 56.257812 252.425781 58.195312 255.507812 60.023438 258.65625 C 61.308594 260.859375 62.417969 263.171875 63.664062 265.402344 C 64.539062 266.972656 65.515625 268.492188 66.402344 270.054688 C 66.625 270.453125 66.691406 270.945312 66.828125 271.371094 C 67.152344 271.621094 67.59375 271.824219 67.84375 272.164062 C 68.804688 273.460938 69.742188 274.777344 70.625 276.125 C 70.953125 276.617188 70.558594 277.417969 71.269531 277.792969 C 71.144531 277.945312 71.019531 278.09375 70.882812 278.234375 C 70.785156 278.3125 70.683594 278.394531 70.585938 278.46875 Z M 95.640625 282.585938 C 96.617188 281.683594 97.367188 280.941406 98.171875 280.257812 C 99.933594 278.753906 101.710938 277.257812 103.515625 275.789062 C 105.945312 273.808594 108.367188 271.832031 110.84375 269.917969 C 112.683594 268.5 114.617188 267.199219 116.480469 265.796875 C 120.640625 262.664062 124.773438 259.492188 128.9375 256.351562 C 132.644531 253.554688 136.3125 250.683594 140.117188 248.027344 C 145.011719 244.613281 150.003906 241.347656 154.996094 238.074219 C 157.902344 236.164062 160.859375 234.316406 163.832031 232.503906 C 165.023438 231.78125 166.320312 231.21875 167.5625 230.578125 C 169.164062 229.75 170.761719 228.914062 172.390625 228.0625 C 171.996094 227.3125 171.664062 226.660156 171.328125 226.019531 C 170.8125 226.078125 170.351562 226.09375 169.910156 226.183594 C 165.449219 227.078125 160.984375 227.972656 156.53125 228.882812 C 152.375 229.734375 148.199219 230.535156 144.074219 231.496094 C 137.289062 233.074219 130.523438 234.808594 123.738281 236.386719 C 122.175781 236.746094 120.53125 236.753906 118.917969 236.863281 C 118.484375 236.898438 118.027344 236.730469 117.589844 236.613281 C 117.046875 236.472656 116.804688 236.121094 116.699219 235.535156 C 116.023438 231.820312 115.296875 228.121094 114.59375 224.414062 C 113.925781 220.898438 113.183594 217.394531 112.640625 213.851562 C 111.929688 209.277344 111.347656 204.675781 110.777344 200.078125 C 110.269531 195.910156 109.757812 191.742188 109.425781 187.570312 C 109.042969 182.683594 108.875 177.785156 108.566406 172.898438 C 108.433594 170.796875 108.207031 168.691406 108.007812 166.46875 C 107.65625 166.5625 107.40625 166.578125 107.214844 166.695312 C 104.125 168.523438 101 170.3125 97.953125 172.207031 C 93.835938 174.777344 89.78125 177.441406 85.679688 180.046875 C 80.21875 183.519531 74.660156 186.859375 69.289062 190.484375 C 64.847656 193.480469 60.613281 196.777344 56.304688 199.96875 C 54.601562 201.230469 52.925781 202.539062 51.28125 203.875 C 49.878906 205.019531 48.535156 206.230469 47.179688 207.398438 C 60.554688 234.34375 77.089844 258.980469 95.65625 282.578125 Z M 73.355469 282.9375 C 73.972656 283.90625 74.609375 284.875 75.277344 285.808594 C 77.4375 288.847656 79.601562 291.886719 81.8125 294.882812 C 84.195312 298.125 86.625 301.332031 89.035156 304.554688 C 89.664062 305.386719 90.296875 306.222656 90.882812 307.007812 C 91.367188 306.800781 91.726562 306.648438 92.074219 306.488281 C 92.074219 306.488281 92.027344 306.539062 92.027344 306.539062 C 91.824219 306.214844 91.601562 305.890625 91.425781 305.554688 C 91.132812 304.988281 90.949219 304.351562 90.574219 303.84375 C 88.9375 301.613281 87.257812 299.417969 85.578125 297.214844 C 84.300781 295.535156 82.976562 293.898438 81.730469 292.195312 C 80.621094 290.675781 79.609375 289.089844 78.523438 287.5625 C 77.164062 285.632812 75.761719 283.722656 74.390625 281.792969 C 73.839844 281.015625 73.363281 280.1875 72.8125 279.414062 C 72.347656 278.753906 72.019531 277.785156 70.859375 278.253906 C 70.757812 278.328125 70.660156 278.410156 70.558594 278.484375 C 71.484375 279.972656 72.402344 281.46875 73.347656 282.9375 Z M 237.097656 178.519531 C 237.082031 178.476562 236.921875 178.476562 236.820312 178.453125 C 236.820312 178.453125 236.863281 178.417969 236.863281 178.417969 C 235.996094 179.871094 236.203125 181.238281 237.164062 182.558594 C 237.238281 182.625 237.289062 182.683594 237.3125 182.734375 C 237.980469 181.289062 237.515625 179.902344 237.097656 178.519531 Z M 118.945312 111.6875 C 119.019531 109.46875 119.085938 107.238281 119.152344 105.019531 C 119.1875 104.042969 119.394531 103.304688 120.582031 103.0625 C 122.859375 102.605469 125.089844 101.953125 127.359375 101.46875 C 130.726562 100.75 134.105469 100.152344 137.464844 99.414062 C 142.105469 98.40625 146.773438 97.554688 151.5 97.054688 C 154.460938 96.734375 157.417969 96.367188 160.382812 96.144531 C 164.839844 95.792969 169.308594 95.558594 173.773438 95.25 C 178.214844 94.941406 182.660156 94.757812 187.109375 94.964844 C 188.320312 95.023438 189.539062 94.921875 190.75 94.964844 C 193.253906 95.03125 195.757812 95.175781 198.265625 95.234375 C 199.675781 95.265625 201.09375 95.125 202.496094 95.207031 C 205.660156 95.398438 208.816406 95.648438 211.972656 95.949219 C 213.269531 96.074219 213.382812 96.269531 213.542969 97.546875 C 213.601562 98.046875 213.585938 98.554688 213.585938 99.058594 C 213.585938 104.609375 213.5 110.167969 213.625 115.722656 C 213.695312 118.792969 214.09375 121.867188 214.402344 124.941406 C 214.679688 127.703125 214.980469 130.46875 215.355469 133.222656 C 215.707031 135.769531 216.15625 138.300781 216.566406 140.835938 C 216.992188 143.433594 217.417969 146.03125 217.867188 148.628906 C 218.378906 151.515625 218.878906 154.40625 219.445312 157.277344 C 220.03125 160.25 220.648438 163.214844 221.324219 166.160156 C 222.101562 169.542969 222.96875 172.898438 223.753906 176.28125 C 223.921875 177.007812 224.039062 177.792969 223.9375 178.519531 C 223.78125 179.695312 222.601562 180.304688 220.992188 180.347656 C 216.691406 180.457031 212.390625 180.472656 208.109375 180.773438 C 202.804688 181.148438 197.511719 181.675781 192.242188 182.308594 C 186.164062 183.042969 180.09375 183.871094 174.066406 184.871094 C 167.6875 185.933594 161.351562 187.25 154.996094 188.453125 C 151.816406 189.054688 148.617188 189.582031 145.453125 190.257812 C 141.546875 191.085938 137.664062 192.019531 133.765625 192.914062 C 133.472656 192.980469 133.179688 193.078125 132.886719 193.15625 C 131.566406 193.503906 131.394531 193.464844 130.949219 192.21875 C 130.390625 190.648438 129.847656 189.070312 129.449219 187.453125 C 128.304688 182.851562 127.191406 178.242188 126.148438 173.617188 C 125.40625 170.3125 124.753906 166.988281 124.128906 163.65625 C 123.460938 160.082031 122.75 156.507812 122.277344 152.910156 C 121.441406 146.597656 120.664062 140.269531 120.054688 133.933594 C 119.554688 128.796875 119.277344 123.644531 118.992188 118.496094 C 118.867188 116.222656 118.96875 113.945312 118.96875 111.671875 C 118.953125 111.671875 118.9375 111.671875 118.925781 111.671875 Z M 120.371094 105.136719 C 120.328125 105.710938 120.261719 106.121094 120.273438 106.511719 C 120.386719 111.261719 120.457031 116.023438 120.664062 120.773438 C 120.8125 124.261719 121.082031 127.753906 121.390625 131.234375 C 121.78125 135.675781 122.167969 140.121094 122.75 144.535156 C 123.601562 151.007812 124.464844 157.484375 125.632812 163.90625 C 126.734375 169.917969 128.21875 175.863281 129.597656 181.824219 C 130.125 184.085938 130.683594 186.324219 131.074219 188.621094 C 131.285156 189.855469 131.601562 191.191406 132.59375 192.179688 C 132.972656 192.09375 133.320312 192.027344 133.664062 191.945312 C 136.804688 191.167969 139.910156 190.273438 143.074219 189.632812 C 147.824219 188.65625 152.601562 187.84375 157.367188 186.960938 C 158.855469 186.683594 160.332031 186.367188 161.820312 186.089844 C 164.941406 185.507812 168.0625 184.9375 171.1875 184.371094 C 172.773438 184.078125 174.351562 183.753906 175.9375 183.511719 C 178.183594 183.175781 180.429688 182.910156 182.675781 182.609375 C 185.378906 182.25 188.078125 181.839844 190.78125 181.523438 C 193.386719 181.214844 196.007812 181.015625 198.621094 180.746094 C 203.089844 180.296875 207.546875 179.777344 212.015625 179.386719 C 215.171875 179.109375 218.335938 179.011719 221.5 178.84375 C 222.988281 178.761719 223.210938 178.417969 222.777344 176.914062 C 222.191406 174.871094 221.558594 172.839844 221.082031 170.769531 C 219.988281 166.003906 218.9375 161.21875 217.941406 156.425781 C 217.167969 152.667969 216.347656 148.902344 215.8125 145.105469 C 214.660156 136.886719 213.644531 128.648438 212.648438 120.414062 C 212.023438 115.230469 212.164062 110.003906 212.25 104.792969 C 212.289062 102.28125 212.472656 99.765625 212.601562 97.136719 C 210.285156 96.96875 208.023438 96.710938 205.769531 96.660156 C 200.558594 96.550781 195.339844 96.484375 190.121094 96.511719 C 184.160156 96.542969 178.199219 96.683594 172.238281 96.835938 C 169.257812 96.910156 166.277344 97.070312 163.296875 97.246094 C 161.125 97.378906 158.960938 97.570312 156.800781 97.796875 C 154.554688 98.03125 152.292969 98.246094 150.0625 98.613281 C 146.824219 99.148438 143.589844 99.765625 140.367188 100.410156 C 136.402344 101.203125 132.4375 101.996094 128.503906 102.90625 C 125.800781 103.53125 123.144531 104.367188 120.378906 105.125 Z M 167.421875 126.46875 C 167.839844 125.785156 168.03125 125.507812 168.1875 125.207031 C 169.492188 122.695312 171.4375 120.925781 174.015625 119.695312 C 176.097656 118.703125 178.257812 118.261719 180.496094 118.144531 C 181.523438 118.085938 182.574219 118.378906 183.609375 118.535156 C 184.144531 118.621094 184.664062 118.785156 185.195312 118.871094 C 186.675781 119.105469 187.425781 120.347656 188.445312 121.199219 C 191.050781 123.378906 191.410156 126.359375 191.257812 129.464844 C 191.03125 134.132812 189.582031 138.472656 187.691406 142.714844 C 185.90625 146.722656 183.335938 150.238281 180.945312 153.871094 C 179.335938 156.324219 177.597656 158.6875 175.914062 161.09375 C 175.117188 162.21875 174.84375 162.285156 173.667969 161.6875 C 171.011719 160.324219 168.296875 159.074219 165.726562 157.578125 C 163.628906 156.367188 161.632812 154.964844 159.714844 153.488281 C 157.601562 151.859375 155.613281 150.046875 153.59375 148.300781 C 151.289062 146.304688 149.144531 144.152344 147.566406 141.53125 C 146.6875 140.070312 145.828125 138.523438 145.394531 136.894531 C 144.835938 134.792969 145.1875 132.589844 145.855469 130.507812 C 146.203125 129.421875 146.707031 128.355469 147.289062 127.371094 C 148.816406 124.796875 150.78125 122.675781 153.753906 121.765625 C 155.773438 121.148438 157.828125 121.132812 159.882812 121.609375 C 160.707031 121.800781 161.535156 122.019531 162.34375 122.269531 C 164.140625 122.835938 165.507812 124.03125 166.761719 125.367188 C 166.996094 125.617188 167.121094 125.976562 167.402344 126.460938 Z M 174.933594 160.765625 C 175.050781 160.542969 175.152344 160.300781 175.292969 160.082031 C 178.324219 155.605469 181.480469 151.207031 184.363281 146.632812 C 187.441406 141.738281 189.339844 136.363281 189.855469 130.566406 C 190.222656 126.460938 188.835938 123.09375 185.332031 120.78125 C 183.328125 119.460938 181.082031 119.277344 178.757812 119.628906 C 175.359375 120.140625 172.253906 121.222656 170.167969 124.1875 C 169.558594 125.046875 169.074219 126 168.523438 126.894531 C 168.273438 127.292969 167.980469 127.671875 167.679688 128.105469 C 167.253906 127.753906 166.945312 127.5625 166.710938 127.3125 C 165.117188 125.566406 163.269531 124.222656 161.042969 123.363281 C 157.144531 121.859375 153.550781 121.941406 150.339844 124.964844 C 148.867188 126.351562 147.667969 127.945312 147.089844 129.839844 C 145.996094 133.414062 146.429688 136.871094 148.734375 139.910156 C 150.039062 141.628906 151.441406 143.300781 152.933594 144.863281 C 154.421875 146.414062 156.089844 147.800781 157.667969 149.269531 C 158.6875 150.222656 159.664062 151.222656 160.726562 152.125 C 161.609375 152.886719 162.5625 153.585938 163.546875 154.222656 C 164.78125 155.023438 166.183594 155.605469 167.328125 156.515625 C 169.574219 158.289062 172.253906 159.1875 174.925781 160.765625 Z M 174.933594 160.765625 " fill-opacity="1" fill-rule="nonzero"></path></g></svg> 