<?xml version="1.0" encoding="UTF-8"?> <svg xmlns="http://www.w3.org/2000/svg" xmlns:xlink="http://www.w3.org/1999/xlink" width="360" zoomAndPan="magnify" viewBox="0 0 270 359.999987" height="480" preserveAspectRatio="xMidYMid meet" version="1.0"><defs><clipPath id="401d0b3386"><path d="M 171.886719 201.582031 L 172.296875 201.582031 L 172.296875 201.863281 L 171.886719 201.863281 Z M 171.886719 201.582031 " clip-rule="nonzero"></path></clipPath><clipPath id="e340c0a1a4"><path d="M 172.273438 201.75 C 171.523438 202.050781 172.125 201.601562 172.125 201.601562 " clip-rule="nonzero"></path></clipPath><clipPath id="500fa5ec9b"><path d="M 0.886719 0.582031 L 1.296875 0.582031 L 1.296875 0.863281 L 0.886719 0.863281 Z M 0.886719 0.582031 " clip-rule="nonzero"></path></clipPath><clipPath id="e94b2e502f"><path d="M 1.273438 0.75 C 0.523438 1.050781 1.125 0.601562 1.125 0.601562 " clip-rule="nonzero"></path></clipPath><clipPath id="d57aec6a1f"><rect x="0" width="2" y="0" height="1"></rect></clipPath><clipPath id="e028691d0b"><path d="M 78.0625 176.757812 L 78.472656 176.757812 L 78.472656 177 L 78.0625 177 Z M 78.0625 176.757812 " clip-rule="nonzero"></path></clipPath><clipPath id="6189a79a3f"><path d="M 78.449219 176.925781 C 77.699219 177.148438 78.300781 176.773438 78.300781 176.773438 " clip-rule="nonzero"></path></clipPath><clipPath id="86cf50880d"><path d="M 0.0625 0.757812 L 0.472656 0.757812 L 0.472656 1 L 0.0625 1 Z M 0.0625 0.757812 " clip-rule="nonzero"></path></clipPath><clipPath id="28be480abb"><path d="M 0.449219 0.925781 C -0.300781 1.148438 0.300781 0.773438 0.300781 0.773438 " clip-rule="nonzero"></path></clipPath><clipPath id="63add0e732"><rect x="0" width="1" y="0" height="1"></rect></clipPath><clipPath id="4a436c4c86"><path d="M 0.0625 0.757812 L 0.472656 0.757812 L 0.472656 1 L 0.0625 1 Z M 0.0625 0.757812 " clip-rule="nonzero"></path></clipPath><clipPath id="50f4858270"><path d="M 0.449219 0.925781 C -0.300781 1.148438 0.300781 0.773438 0.300781 0.773438 " clip-rule="nonzero"></path></clipPath><clipPath id="9d6dcca0c9"><rect x="0" width="1" y="0" height="1"></rect></clipPath><clipPath id="e763e8a525"><path d="M 45.15625 60.222656 L 225 60.222656 L 225 333.222656 L 45.15625 333.222656 Z M 45.15625 60.222656 " clip-rule="nonzero"></path></clipPath></defs><g clip-path="url(#401d0b3386)"><g clip-path="url(#e340c0a1a4)"><g transform="matrix(1, 0, 0, 1, 171, 201)"><g clip-path="url(#d57aec6a1f)"><g clip-path="url(#500fa5ec9b)"><g clip-path="url(#e94b2e502f)"><rect x="-230.4" width="388.8" fill="#492c01" height="518.399981" y="-280.199997" fill-opacity="1"></rect></g></g></g></g></g></g><g clip-path="url(#e028691d0b)"><g clip-path="url(#6189a79a3f)"><g transform="matrix(1, 0, 0, 1, 78, 176)"><g clip-path="url(#63add0e732)"><g clip-path="url(#86cf50880d)"><g clip-path="url(#28be480abb)"><rect x="-137.4" width="388.8" fill="#492c01" height="518.399981" y="-255.199997" fill-opacity="1"></rect></g></g></g></g><g transform="matrix(1, 0, 0, 1, 78, 176)"><g clip-path="url(#9d6dcca0c9)"><g clip-path="url(#4a436c4c86)"><g clip-path="url(#50f4858270)"><rect x="-137.4" width="388.8" fill="#492c01" height="518.399981" y="-255.199997" fill-opacity="1"></rect></g></g></g></g></g></g><g clip-path="url(#e763e8a525)"><path fill="#492c01" d="M 97.714844 333.023438 C 99.742188 329.066406 102.3125 325.453125 104.824219 321.824219 C 108.46875 316.5625 112.269531 311.410156 115.964844 306.191406 C 121.675781 298.132812 127.386719 290.074219 133.039062 281.96875 C 138.636719 273.949219 144.140625 265.867188 149.742188 257.847656 C 150.363281 256.957031 149.902344 256.882812 149.265625 256.632812 C 144.828125 254.90625 140.542969 252.847656 136.296875 250.699219 C 131.898438 248.46875 127.609375 246.046875 123.386719 243.492188 C 116.785156 239.5 110.476562 235.074219 104.4375 230.292969 C 97.613281 224.890625 91.140625 219.070312 85.0625 212.820312 C 78.179688 205.742188 71.820312 198.222656 66.253906 190.070312 C 60.476562 181.621094 55.527344 172.71875 51.847656 163.101562 C 49.765625 157.671875 47.960938 152.148438 47.019531 146.46875 C 45.945312 140.023438 45.265625 133.515625 46.363281 126.875 C 47.257812 121.441406 48.632812 116.339844 51.910156 111.910156 C 56.601562 105.574219 62.902344 102.941406 70.761719 103.964844 C 78.320312 104.945312 84.554688 108.632812 90.40625 113.222656 C 99.074219 120.027344 105.949219 128.425781 112.417969 137.253906 C 115.949219 142.078125 119.203125 147.109375 123.160156 151.613281 C 123.972656 152.542969 124.871094 153.410156 125.839844 154.167969 C 127.226562 155.253906 128.160156 155.132812 129.316406 153.65625 C 131.40625 150.972656 132.566406 147.792969 133.8125 144.675781 C 137.375 135.78125 140.558594 126.742188 144.414062 117.957031 C 147.828125 110.171875 151.558594 102.550781 156.023438 95.34375 C 162.523438 84.839844 170.097656 75.175781 180.332031 67.976562 C 185.078125 64.632812 190.277344 62.039062 196.117188 61.246094 C 203.609375 60.234375 210.292969 62.191406 215.433594 67.878906 C 218.71875 71.511719 220.738281 75.945312 222.097656 80.699219 C 224.164062 87.90625 224.703125 95.269531 224.382812 102.675781 C 224.15625 107.914062 223.722656 113.152344 222.84375 118.359375 C 222.0625 122.960938 221.300781 127.574219 220.191406 132.09375 C 218.9375 137.203125 217.566406 142.292969 215.8125 147.261719 C 214.210938 151.808594 212.453125 156.285156 210.613281 160.746094 C 207.710938 167.816406 204.324219 174.648438 200.925781 181.472656 C 195.59375 192.164062 189.75 202.5625 183.394531 212.691406 C 177.101562 222.734375 170.597656 232.636719 163.921875 242.429688 C 161.078125 246.605469 158.15625 250.734375 155.386719 254.960938 C 154.628906 256.113281 154.957031 256.433594 155.9375 256.722656 C 161.214844 258.28125 166.636719 258.957031 172.117188 259.195312 C 173.039062 259.234375 174.433594 258.898438 174.507812 260.101562 C 174.550781 260.8125 173.105469 260.914062 172.230469 260.960938 C 168.421875 261.152344 164.671875 260.71875 160.925781 260.027344 C 158.648438 259.609375 156.472656 258.910156 154.246094 258.34375 C 153.378906 258.121094 152.992188 258.242188 152.460938 258.992188 C 146.804688 267.035156 141.117188 275.058594 135.378906 283.042969 C 130.21875 290.210938 125.003906 297.339844 119.765625 304.449219 C 115.761719 309.894531 111.679688 315.269531 107.65625 320.699219 C 104.519531 324.949219 101.355469 329.167969 97.714844 333.023438 Z M 221.382812 98.683594 C 221.613281 92.964844 220.972656 86.714844 219.027344 80.605469 C 217.535156 75.914062 215.402344 71.574219 211.640625 68.367188 C 205.945312 63.515625 199.332031 63.191406 192.535156 65.492188 C 184.550781 68.1875 178.175781 73.382812 172.542969 79.429688 C 166.789062 85.617188 161.984375 92.539062 157.738281 99.882812 C 153.90625 106.507812 150.460938 113.320312 147.492188 120.34375 C 143.503906 129.785156 139.949219 139.414062 136.121094 148.929688 C 135.035156 151.632812 133.773438 154.292969 131.707031 156.453125 C 129.855469 158.394531 127.886719 158.855469 125.4375 157.859375 C 123.207031 156.953125 121.621094 155.175781 120.261719 153.359375 C 115.75 147.34375 111.429688 141.1875 107.039062 135.085938 C 100.695312 126.269531 93.519531 118.234375 84.425781 112.183594 C 79.398438 108.832031 73.964844 106.359375 67.652344 106.40625 C 61.039062 106.449219 56.3125 109.554688 52.972656 115 C 49.5625 120.5625 48.605469 126.792969 48.609375 133.164062 C 48.617188 140.296875 49.8125 147.242188 51.835938 154.128906 C 53.984375 161.425781 56.949219 168.335938 60.433594 175.027344 C 63.859375 181.59375 67.914062 187.785156 72.332031 193.742188 C 77.085938 200.136719 82.25 206.191406 87.808594 211.886719 C 92.652344 216.855469 97.726562 221.578125 103.097656 226 C 109.136719 230.964844 115.378906 235.609375 121.957031 239.859375 C 130.996094 245.699219 140.433594 250.710938 150.402344 254.769531 C 151.472656 255.203125 151.78125 254.828125 152.242188 254.140625 C 157.5625 246.136719 162.960938 238.179688 168.199219 230.121094 C 174.261719 220.796875 180.238281 211.417969 185.800781 201.777344 C 189.15625 195.953125 192.394531 190.078125 195.492188 184.117188 C 199.871094 175.699219 204.046875 167.191406 207.816406 158.472656 C 210.824219 151.511719 213.4375 144.402344 215.476562 137.128906 C 217.28125 130.707031 218.730469 124.179688 219.816406 117.5625 C 220.808594 111.507812 221.484375 105.46875 221.382812 98.683594 Z M 221.382812 98.683594 " fill-opacity="1" fill-rule="nonzero"></path></g></svg> 