<?xml version="1.0" encoding="UTF-8"?> <svg xmlns="http://www.w3.org/2000/svg" xmlns:xlink="http://www.w3.org/1999/xlink" width="360" zoomAndPan="magnify" viewBox="0 0 270 359.999987" height="480" preserveAspectRatio="xMidYMid meet" version="1.0"><defs><g></g><clipPath id="ce783ddab2"><path d="M 171.886719 201.582031 L 172.296875 201.582031 L 172.296875 201.863281 L 171.886719 201.863281 Z M 171.886719 201.582031 " clip-rule="nonzero"></path></clipPath><clipPath id="437a6fd7db"><path d="M 172.273438 201.75 C 171.523438 202.050781 172.125 201.601562 172.125 201.601562 " clip-rule="nonzero"></path></clipPath><clipPath id="41ad15a3fd"><path d="M 0.886719 0.582031 L 1.296875 0.582031 L 1.296875 0.863281 L 0.886719 0.863281 Z M 0.886719 0.582031 " clip-rule="nonzero"></path></clipPath><clipPath id="aa8b8f1f7e"><path d="M 1.273438 0.75 C 0.523438 1.050781 1.125 0.601562 1.125 0.601562 " clip-rule="nonzero"></path></clipPath><clipPath id="c552a68a19"><rect x="0" width="2" y="0" height="1"></rect></clipPath><clipPath id="d2430a29f1"><path d="M 37.9375 158.929688 L 41.804688 158.929688 L 41.804688 159.835938 L 37.9375 159.835938 Z M 37.9375 158.929688 " clip-rule="nonzero"></path></clipPath><clipPath id="a9aa927b19"><path d="M 37.949219 159.300781 C 40.273438 158.324219 41.851562 159.601562 41.773438 159.75 C 41.699219 160.050781 37.949219 159.300781 37.949219 159.300781 " clip-rule="nonzero"></path></clipPath><clipPath id="de7dc05a38"><path d="M 0.9375 0.929688 L 4.804688 0.929688 L 4.804688 1.835938 L 0.9375 1.835938 Z M 0.9375 0.929688 " clip-rule="nonzero"></path></clipPath><clipPath id="2c8195dc59"><path d="M 0.949219 1.300781 C 3.273438 0.324219 4.851562 1.601562 4.773438 1.75 C 4.699219 2.050781 0.949219 1.300781 0.949219 1.300781 " clip-rule="nonzero"></path></clipPath><clipPath id="469bed7173"><rect x="0" width="5" y="0" height="2"></rect></clipPath><clipPath id="abdf6e4360"><path d="M 78.0625 176.757812 L 78.472656 176.757812 L 78.472656 177 L 78.0625 177 Z M 78.0625 176.757812 " clip-rule="nonzero"></path></clipPath><clipPath id="cfcf484c41"><path d="M 78.449219 176.925781 C 77.699219 177.148438 78.300781 176.773438 78.300781 176.773438 " clip-rule="nonzero"></path></clipPath><clipPath id="ed772c5c91"><path d="M 0.0625 0.757812 L 0.472656 0.757812 L 0.472656 1 L 0.0625 1 Z M 0.0625 0.757812 " clip-rule="nonzero"></path></clipPath><clipPath id="ee9f5f3481"><path d="M 0.449219 0.925781 C -0.300781 1.148438 0.300781 0.773438 0.300781 0.773438 " clip-rule="nonzero"></path></clipPath><clipPath id="14f7ec5148"><rect x="0" width="1" y="0" height="1"></rect></clipPath><clipPath id="15c5db9d05"><path d="M 0.0625 0.757812 L 0.472656 0.757812 L 0.472656 1 L 0.0625 1 Z M 0.0625 0.757812 " clip-rule="nonzero"></path></clipPath><clipPath id="fceb48a67f"><path d="M 0.449219 0.925781 C -0.300781 1.148438 0.300781 0.773438 0.300781 0.773438 " clip-rule="nonzero"></path></clipPath><clipPath id="04acf74c29"><rect x="0" width="1" y="0" height="1"></rect></clipPath><clipPath id="b9a14a3677"><rect x="0" width="231" y="0" height="106"></rect></clipPath></defs><g clip-path="url(#ce783ddab2)"><g clip-path="url(#437a6fd7db)"><g transform="matrix(1, 0, 0, 1, 171, 201)"><g clip-path="url(#c552a68a19)"><g clip-path="url(#41ad15a3fd)"><g clip-path="url(#aa8b8f1f7e)"><rect x="-230.4" width="388.8" fill="#492c01" height="518.399981" y="-280.199997" fill-opacity="1"></rect></g></g></g></g></g></g><g clip-path="url(#d2430a29f1)"><g clip-path="url(#a9aa927b19)"><g transform="matrix(1, 0, 0, 1, 37, 158)"><g clip-path="url(#469bed7173)"><g clip-path="url(#de7dc05a38)"><g clip-path="url(#2c8195dc59)"><rect x="-96.4" width="388.8" fill="#492c01" height="518.399981" y="-237.199997" fill-opacity="1"></rect></g></g></g></g></g></g><g clip-path="url(#abdf6e4360)"><g clip-path="url(#cfcf484c41)"><g transform="matrix(1, 0, 0, 1, 78, 176)"><g clip-path="url(#14f7ec5148)"><g clip-path="url(#ed772c5c91)"><g clip-path="url(#ee9f5f3481)"><rect x="-137.4" width="388.8" fill="#492c01" height="518.399981" y="-255.199997" fill-opacity="1"></rect></g></g></g></g><g transform="matrix(1, 0, 0, 1, 78, 176)"><g clip-path="url(#04acf74c29)"><g clip-path="url(#15c5db9d05)"><g clip-path="url(#fceb48a67f)"><rect x="-137.4" width="388.8" fill="#492c01" height="518.399981" y="-255.199997" fill-opacity="1"></rect></g></g></g></g></g></g><g transform="matrix(1, 0, 0, 1, 24, 119)"><g clip-path="url(#b9a14a3677)"><g fill="#492c01" fill-opacity="1"><g transform="translate(2.829564, 69.326729)"><g><path d="M 26.140625 -32.78125 C 25.085938 -33.71875 24.34375 -34.78125 23.90625 -35.96875 C 23.46875 -37.164062 23.222656 -38.347656 23.171875 -39.515625 C 23.109375 -42.597656 23.953125 -45.304688 25.703125 -47.640625 C 27.453125 -49.972656 29.851562 -51.941406 32.90625 -53.546875 C 35.96875 -55.148438 39.492188 -56.34375 43.484375 -57.125 C 47.484375 -57.914062 51.726562 -58.3125 56.21875 -58.3125 C 60.988281 -58.3125 65.53125 -58.0625 69.84375 -57.5625 C 74.15625 -57.070312 78.085938 -56.488281 81.640625 -55.8125 C 85.203125 -55.144531 88.25 -54.488281 90.78125 -53.84375 C 93.320312 -53.207031 95.203125 -52.710938 96.421875 -52.359375 C 97.066406 -52.191406 98.117188 -51.890625 99.578125 -51.453125 C 101.035156 -51.015625 102.203125 -50.59375 103.078125 -50.1875 C 103.484375 -50.007812 103.914062 -49.785156 104.375 -49.515625 C 104.84375 -49.253906 104.960938 -49.007812 104.734375 -48.78125 C 104.617188 -48.664062 104.34375 -48.722656 103.90625 -48.953125 C 103.46875 -49.191406 103.015625 -49.3125 102.546875 -49.3125 C 100.910156 -49.3125 99.039062 -48.785156 96.9375 -47.734375 C 94.84375 -46.679688 92.75 -45.3125 90.65625 -43.625 C 87.976562 -41.582031 85.28125 -39.234375 82.5625 -36.578125 C 79.851562 -33.929688 77.453125 -31.441406 75.359375 -29.109375 C 76.054688 -28.054688 76.609375 -26.929688 77.015625 -25.734375 C 77.421875 -24.546875 77.625 -23.222656 77.625 -21.765625 C 77.625 -21.066406 77.582031 -20.351562 77.5 -19.625 C 77.414062 -18.894531 77.226562 -18.125 76.9375 -17.3125 C 78.625 -19.175781 80.3125 -21.007812 82 -22.8125 C 83.6875 -24.625 85.347656 -26.285156 86.984375 -27.796875 C 91.765625 -32.222656 96.570312 -36.257812 101.40625 -39.90625 C 106.25 -43.550781 111.128906 -46.460938 116.046875 -48.640625 C 120.972656 -50.828125 125.882812 -51.921875 130.78125 -51.921875 C 132.644531 -51.921875 134.507812 -51.628906 136.375 -51.046875 C 138.238281 -50.472656 139.519531 -49.660156 140.21875 -48.609375 C 140.457031 -48.316406 140.585938 -48.007812 140.609375 -47.6875 C 140.640625 -47.363281 140.507812 -47.144531 140.21875 -47.03125 C 140.050781 -47.03125 139.644531 -47.320312 139 -47.90625 C 138.007812 -48.78125 136.859375 -49.507812 135.546875 -50.09375 C 134.234375 -50.675781 132.734375 -50.96875 131.046875 -50.96875 C 127.367188 -50.96875 123.578125 -50.109375 119.671875 -48.390625 C 115.773438 -46.671875 111.914062 -44.410156 108.09375 -41.609375 C 104.28125 -38.816406 100.65625 -35.84375 97.21875 -32.6875 C 93.78125 -29.539062 90.691406 -26.515625 87.953125 -23.609375 C 83.867188 -19.347656 80.457031 -15.484375 77.71875 -12.015625 C 74.976562 -8.546875 72.765625 -5.675781 71.078125 -3.40625 C 69.960938 -1.894531 69.082031 -0.6875 68.4375 0.21875 C 67.800781 1.125 67.164062 1.601562 66.53125 1.65625 C 65.707031 1.71875 65.3125 1.296875 65.34375 0.390625 C 65.375 -0.515625 65.625 -1.460938 66.09375 -2.453125 C 66.726562 -3.785156 67.800781 -5.515625 69.3125 -7.640625 C 70.832031 -9.773438 72.585938 -12.035156 74.578125 -14.421875 C 75.210938 -15.765625 75.675781 -17.019531 75.96875 -18.1875 C 76.257812 -19.351562 76.40625 -20.457031 76.40625 -21.5 C 76.40625 -23.894531 75.734375 -26.082031 74.390625 -28.0625 C 72.816406 -26.257812 71.1875 -24.378906 69.5 -22.421875 C 67.8125 -20.472656 66.035156 -18.535156 64.171875 -16.609375 C 59.210938 -11.484375 54.445312 -7.332031 49.875 -4.15625 C 45.300781 -0.976562 40.988281 1.4375 36.9375 3.09375 C 32.882812 4.757812 29.195312 5.898438 25.875 6.515625 C 22.550781 7.128906 19.640625 7.4375 17.140625 7.4375 C 14.859375 7.4375 12.597656 7.128906 10.359375 6.515625 C 8.117188 5.898438 6.238281 4.703125 4.71875 2.921875 C 3.207031 1.148438 2.453125 -1.425781 2.453125 -4.8125 C 2.453125 -7.84375 3.351562 -11.0625 5.15625 -14.46875 C 6.96875 -17.875 9.632812 -21.179688 13.15625 -24.390625 C 16.6875 -27.597656 21.015625 -30.394531 26.140625 -32.78125 Z M 100.359375 -50.09375 C 98.429688 -50.613281 95.34375 -51.28125 91.09375 -52.09375 C 86.84375 -52.914062 81.726562 -53.660156 75.75 -54.328125 C 69.78125 -55.003906 63.269531 -55.34375 56.21875 -55.34375 C 52.070312 -55.34375 48.085938 -54.988281 44.265625 -54.28125 C 40.453125 -53.582031 37.046875 -52.546875 34.046875 -51.171875 C 31.046875 -49.804688 28.6875 -48.148438 26.96875 -46.203125 C 25.25 -44.253906 24.390625 -42.023438 24.390625 -39.515625 C 24.390625 -38.460938 24.625 -37.382812 25.09375 -36.28125 C 25.5625 -35.175781 26.316406 -34.1875 27.359375 -33.3125 C 31.441406 -35.0625 35.59375 -36.328125 39.8125 -37.109375 C 44.039062 -37.898438 47.929688 -38.296875 51.484375 -38.296875 C 56.085938 -38.296875 60.269531 -37.753906 64.03125 -36.671875 C 67.789062 -35.597656 70.867188 -33.894531 73.265625 -31.5625 C 75.472656 -33.601562 77.816406 -35.671875 80.296875 -37.765625 C 82.773438 -39.859375 85.207031 -41.78125 87.59375 -43.53125 C 89.988281 -45.28125 92.273438 -46.753906 94.453125 -47.953125 C 96.640625 -49.148438 98.609375 -49.863281 100.359375 -50.09375 Z M 72.296875 -30.6875 C 69.960938 -32.894531 67.101562 -34.492188 63.71875 -35.484375 C 60.34375 -36.484375 56.847656 -36.984375 53.234375 -36.984375 C 50.085938 -36.984375 46.675781 -36.515625 43 -35.578125 C 39.332031 -34.648438 35.707031 -33.425781 32.125 -31.90625 C 28.539062 -30.394531 25.320312 -28.734375 22.46875 -26.921875 C 16.632812 -23.253906 12.070312 -19.566406 8.78125 -15.859375 C 5.488281 -12.160156 3.84375 -8.273438 3.84375 -4.203125 C 3.84375 -1.398438 4.5 0.738281 5.8125 2.21875 C 7.125 3.707031 8.769531 4.726562 10.75 5.28125 C 12.726562 5.84375 14.679688 6.125 16.609375 6.125 C 19.753906 6.125 23.265625 5.550781 27.140625 4.40625 C 31.015625 3.269531 35.296875 1.265625 39.984375 -1.609375 C 44.679688 -4.492188 49.800781 -8.53125 55.34375 -13.71875 C 58.132812 -16.40625 60.882812 -19.160156 63.59375 -21.984375 C 66.3125 -24.816406 69.210938 -27.71875 72.296875 -30.6875 Z M 72.296875 -30.6875 "></path></g></g></g><g fill="#492c01" fill-opacity="1"><g transform="translate(87.663297, 69.326729)"><g><path d="M 33.5625 -25.53125 C 31.175781 -23.3125 28.6875 -20.875 26.09375 -18.21875 C 23.5 -15.570312 20.660156 -12.472656 17.578125 -8.921875 C 14.773438 -5.710938 11.519531 -2.171875 7.8125 1.703125 C 4.113281 5.578125 0.253906 9.085938 -3.765625 12.234375 C -9.296875 16.492188 -14.929688 19.710938 -20.671875 21.890625 C -26.410156 24.078125 -31.644531 25.144531 -36.375 25.09375 C -39.101562 25.03125 -41.660156 24.601562 -44.046875 23.8125 C -46.441406 23.03125 -48.441406 21.867188 -50.046875 20.328125 C -51.648438 18.785156 -52.6875 16.90625 -53.15625 14.6875 C -53.445312 13.289062 -53.300781 12.53125 -52.71875 12.40625 C -52.476562 12.289062 -52.316406 12.40625 -52.234375 12.75 C -52.148438 13.101562 -52.078125 13.457031 -52.015625 13.8125 C -51.609375 15.90625 -50.644531 17.679688 -49.125 19.140625 C -47.613281 20.597656 -45.765625 21.691406 -43.578125 22.421875 C -41.390625 23.148438 -39.128906 23.546875 -36.796875 23.609375 C -33.242188 23.660156 -29.75 23.085938 -26.3125 21.890625 C -22.875 20.703125 -19.566406 19.128906 -16.390625 17.171875 C -13.210938 15.222656 -10.34375 13.226562 -7.78125 11.1875 C -6.03125 9.789062 -4.164062 8.203125 -2.1875 6.421875 C -0.207031 4.648438 1.742188 2.832031 3.671875 0.96875 C 5.597656 -0.894531 7.347656 -2.644531 8.921875 -4.28125 C 10.492188 -5.914062 11.742188 -7.285156 12.671875 -8.390625 C 12.785156 -8.503906 12.8125 -8.59375 12.75 -8.65625 C 12.695312 -8.71875 12.613281 -8.6875 12.5 -8.5625 C 11.625 -7.8125 10.660156 -6.96875 9.609375 -6.03125 C 8.566406 -5.101562 7.867188 -4.492188 7.515625 -4.203125 C 6.003906 -3.035156 4.398438 -1.941406 2.703125 -0.921875 C 1.015625 0.0976562 -0.410156 0.609375 -1.578125 0.609375 C -2.679688 0.609375 -3.453125 0.363281 -3.890625 -0.125 C -4.328125 -0.625 -4.546875 -1.253906 -4.546875 -2.015625 C -4.546875 -3.472656 -3.960938 -5.144531 -2.796875 -7.03125 C -1.628906 -8.925781 -0.0546875 -10.953125 1.921875 -13.109375 C 3.085938 -14.335938 4.484375 -15.664062 6.109375 -17.09375 C 7.742188 -18.519531 9.390625 -19.859375 11.046875 -21.109375 C 12.710938 -22.359375 14.128906 -23.304688 15.296875 -23.953125 C 15.941406 -24.359375 16.859375 -24.648438 18.046875 -24.828125 C 19.242188 -25.003906 20.132812 -25.0625 20.71875 -25 C 18.15625 -22.90625 15.632812 -20.734375 13.15625 -18.484375 C 10.675781 -16.242188 8.488281 -14.144531 6.59375 -12.1875 C 4.707031 -10.238281 3.238281 -8.625 2.1875 -7.34375 C 1.132812 -6.0625 0.242188 -4.910156 -0.484375 -3.890625 C -1.210938 -2.867188 -1.578125 -2.097656 -1.578125 -1.578125 C -1.578125 -1.046875 -1.3125 -0.78125 -0.78125 -0.78125 C 0.03125 -0.78125 1.191406 -1.273438 2.703125 -2.265625 C 4.222656 -3.265625 5.625 -4.226562 6.90625 -5.15625 C 7.664062 -5.738281 8.628906 -6.550781 9.796875 -7.59375 C 10.960938 -8.644531 12.171875 -9.753906 13.421875 -10.921875 C 14.671875 -12.085938 15.765625 -13.109375 16.703125 -13.984375 C 17.921875 -15.210938 19.242188 -16.507812 20.671875 -17.875 C 22.097656 -19.25 23.523438 -20.546875 24.953125 -21.765625 C 26.378906 -22.992188 27.675781 -23.957031 28.84375 -24.65625 C 29.3125 -24.945312 30.070312 -25.175781 31.125 -25.34375 C 32.175781 -25.519531 32.988281 -25.582031 33.5625 -25.53125 Z M 33.5625 -25.53125 "></path></g></g></g><g fill="#492c01" fill-opacity="1"><g transform="translate(113.698752, 69.326729)"><g><path d="M 28.5 -33.390625 C 27.039062 -32.753906 25.726562 -31.910156 24.5625 -30.859375 C 22.988281 -29.578125 21.148438 -27.957031 19.046875 -26 C 16.953125 -24.050781 14.914062 -22.070312 12.9375 -20.0625 C 10.957031 -18.050781 9.296875 -16.289062 7.953125 -14.78125 C 7.898438 -14.71875 7.882812 -14.65625 7.90625 -14.59375 C 7.9375 -14.539062 7.984375 -14.539062 8.046875 -14.59375 C 8.921875 -15.414062 10.144531 -16.453125 11.71875 -17.703125 C 13.289062 -18.953125 14.976562 -20.203125 16.78125 -21.453125 C 18.59375 -22.710938 20.3125 -23.765625 21.9375 -24.609375 C 23.570312 -25.453125 24.914062 -25.875 25.96875 -25.875 C 26.84375 -25.875 27.410156 -25.609375 27.671875 -25.078125 C 27.929688 -24.554688 28.0625 -23.921875 28.0625 -23.171875 C 28.0625 -21.359375 27.429688 -19.328125 26.171875 -17.078125 C 24.921875 -14.835938 23.363281 -12.785156 21.5 -10.921875 C 17.65625 -7.023438 14.054688 -4.128906 10.703125 -2.234375 C 7.359375 -0.335938 4.316406 0.609375 1.578125 0.609375 C 0.460938 0.609375 -0.410156 0.347656 -1.046875 -0.171875 C -1.453125 -0.523438 -1.679688 -0.976562 -1.734375 -1.53125 C -1.796875 -2.082031 -1.6875 -2.390625 -1.40625 -2.453125 C -1.164062 -2.503906 -1 -2.441406 -0.90625 -2.265625 C -0.820312 -2.097656 -0.753906 -1.925781 -0.703125 -1.75 C -0.585938 -1.519531 -0.394531 -1.285156 -0.125 -1.046875 C 0.132812 -0.816406 0.554688 -0.703125 1.140625 -0.703125 C 2.242188 -0.703125 3.421875 -1.019531 4.671875 -1.65625 C 5.929688 -2.300781 7.550781 -3.539062 9.53125 -5.375 C 11.507812 -7.207031 14.191406 -9.84375 17.578125 -13.28125 C 18.679688 -14.394531 19.875 -15.617188 21.15625 -16.953125 C 22.4375 -18.296875 23.539062 -19.578125 24.46875 -20.796875 C 25.40625 -22.023438 25.875 -22.929688 25.875 -23.515625 C 25.875 -23.984375 25.582031 -24.21875 25 -24.21875 C 24.125 -24.21875 22.769531 -23.707031 20.9375 -22.6875 C 19.101562 -21.664062 17.078125 -20.320312 14.859375 -18.65625 C 12.648438 -17 10.453125 -15.207031 8.265625 -13.28125 C 6.078125 -11.363281 4.140625 -9.5625 2.453125 -7.875 C -1.628906 -3.789062 -5.925781 0.753906 -10.4375 5.765625 C -14.957031 10.773438 -19.664062 16.660156 -24.5625 23.421875 C -25.09375 24.179688 -25.5625 24.851562 -25.96875 25.4375 C -26.375 26.019531 -26.691406 26.3125 -26.921875 26.3125 C -27.273438 26.3125 -27.4375 25.945312 -27.40625 25.21875 C -27.375 24.488281 -27.269531 23.832031 -27.09375 23.25 C -26.632812 21.625 -25.5 19.441406 -23.6875 16.703125 C -21.882812 13.960938 -19.726562 11.046875 -17.21875 7.953125 C -14.300781 4.398438 -11.382812 1.019531 -8.46875 -2.1875 C -5.5625 -5.394531 -2.910156 -8.234375 -0.515625 -10.703125 C 1.867188 -13.179688 3.734375 -15.09375 5.078125 -16.4375 C 6.472656 -17.832031 8.203125 -19.503906 10.265625 -21.453125 C 12.335938 -23.410156 14.4375 -25.289062 16.5625 -27.09375 C 18.6875 -28.90625 20.476562 -30.335938 21.9375 -31.390625 C 22.582031 -31.847656 23.238281 -32.253906 23.90625 -32.609375 C 24.582031 -32.960938 25.210938 -33.195312 25.796875 -33.3125 C 26.253906 -33.425781 26.726562 -33.484375 27.21875 -33.484375 C 27.71875 -33.484375 28.144531 -33.453125 28.5 -33.390625 Z M 28.5 -33.390625 "></path></g></g></g><g fill="#492c01" fill-opacity="1"><g transform="translate(140.345821, 69.326729)"><g><path d="M 33.5625 -25.53125 C 31.0625 -23.257812 28.660156 -20.957031 26.359375 -18.625 C 24.054688 -16.289062 22 -14.144531 20.1875 -12.1875 C 18.382812 -10.238281 16.957031 -8.625 15.90625 -7.34375 C 14.863281 -6.0625 13.960938 -4.910156 13.203125 -3.890625 C 12.441406 -2.867188 12.0625 -2.097656 12.0625 -1.578125 C 12.0625 -1.046875 12.351562 -0.78125 12.9375 -0.78125 C 13.519531 -0.78125 14.289062 -1.039062 15.25 -1.5625 C 16.21875 -2.09375 17.195312 -2.722656 18.1875 -3.453125 C 19.175781 -4.179688 19.988281 -4.78125 20.625 -5.25 C 22.03125 -6.414062 23.503906 -7.648438 25.046875 -8.953125 C 26.585938 -10.265625 27.941406 -11.414062 29.109375 -12.40625 C 29.347656 -12.53125 29.550781 -12.632812 29.71875 -12.71875 C 29.894531 -12.800781 30.070312 -12.757812 30.25 -12.59375 C 30.539062 -12.300781 30.453125 -11.976562 29.984375 -11.625 C 29.171875 -10.925781 28.222656 -10.109375 27.140625 -9.171875 C 26.066406 -8.242188 25.019531 -7.359375 24 -6.515625 C 22.976562 -5.671875 22.144531 -4.984375 21.5 -4.453125 C 20.101562 -3.410156 18.5625 -2.304688 16.875 -1.140625 C 15.1875 0.0234375 13.671875 0.609375 12.328125 0.609375 C 11.160156 0.609375 10.359375 0.332031 9.921875 -0.21875 C 9.484375 -0.769531 9.265625 -1.484375 9.265625 -2.359375 C 9.265625 -3.640625 9.816406 -5.210938 10.921875 -7.078125 C 10.335938 -6.492188 9.769531 -5.984375 9.21875 -5.546875 C 8.664062 -5.109375 8.21875 -4.742188 7.875 -4.453125 C 6.53125 -3.347656 4.953125 -2.226562 3.140625 -1.09375 C 1.335938 0.0390625 -0.234375 0.609375 -1.578125 0.609375 C -2.679688 0.609375 -3.453125 0.363281 -3.890625 -0.125 C -4.328125 -0.625 -4.546875 -1.253906 -4.546875 -2.015625 C -4.546875 -3.472656 -3.960938 -5.144531 -2.796875 -7.03125 C -1.628906 -8.925781 -0.0546875 -10.953125 1.921875 -13.109375 C 3.085938 -14.335938 4.484375 -15.664062 6.109375 -17.09375 C 7.742188 -18.519531 9.390625 -19.859375 11.046875 -21.109375 C 12.710938 -22.359375 14.128906 -23.304688 15.296875 -23.953125 C 15.941406 -24.359375 16.859375 -24.648438 18.046875 -24.828125 C 19.242188 -25.003906 20.132812 -25.0625 20.71875 -25 C 18.15625 -22.90625 15.632812 -20.734375 13.15625 -18.484375 C 10.675781 -16.242188 8.488281 -14.144531 6.59375 -12.1875 C 4.707031 -10.238281 3.238281 -8.625 2.1875 -7.34375 C 1.132812 -6.0625 0.242188 -4.910156 -0.484375 -3.890625 C -1.210938 -2.867188 -1.578125 -2.097656 -1.578125 -1.578125 C -1.578125 -1.046875 -1.3125 -0.78125 -0.78125 -0.78125 C -0.195312 -0.78125 0.585938 -1.039062 1.578125 -1.5625 C 2.566406 -2.09375 3.582031 -2.722656 4.625 -3.453125 C 5.675781 -4.179688 6.550781 -4.835938 7.25 -5.421875 C 8.007812 -6.003906 8.957031 -6.804688 10.09375 -7.828125 C 11.226562 -8.847656 12.304688 -9.863281 13.328125 -10.875 C 14.347656 -11.894531 15.09375 -12.640625 15.5625 -13.109375 C 16.726562 -14.335938 18.125 -15.707031 19.75 -17.21875 C 21.382812 -18.738281 23.015625 -20.179688 24.640625 -21.546875 C 26.273438 -22.921875 27.675781 -23.957031 28.84375 -24.65625 C 29.3125 -24.945312 30.070312 -25.175781 31.125 -25.34375 C 32.175781 -25.519531 32.988281 -25.582031 33.5625 -25.53125 Z M 33.5625 -25.53125 "></path></g></g></g><g fill="#492c01" fill-opacity="1"><g transform="translate(167.691822, 69.326729)"><g><path d="M -30.515625 25.09375 C -33.253906 25.09375 -35.816406 24.679688 -38.203125 23.859375 C -40.585938 23.046875 -42.582031 21.867188 -44.1875 20.328125 C -45.789062 18.785156 -46.828125 16.90625 -47.296875 14.6875 C -47.585938 13.289062 -47.441406 12.53125 -46.859375 12.40625 C -46.628906 12.289062 -46.46875 12.40625 -46.375 12.75 C -46.289062 13.101562 -46.21875 13.457031 -46.15625 13.8125 C -45.6875 15.96875 -44.664062 17.773438 -43.09375 19.234375 C -41.519531 20.691406 -39.65625 21.785156 -37.5 22.515625 C -35.34375 23.242188 -33.160156 23.609375 -30.953125 23.609375 C -27.453125 23.609375 -24.171875 23.15625 -21.109375 22.25 C -18.046875 21.34375 -15.320312 20.234375 -12.9375 18.921875 C -10.550781 17.609375 -8.570312 16.375 -7 15.21875 C -4.3125 13.175781 -2.164062 10.988281 -0.5625 8.65625 C 1.03125 6.320312 1.828125 4.335938 1.828125 2.703125 C 1.828125 1.890625 1.640625 1.25 1.265625 0.78125 C 0.890625 0.320312 0.46875 0.03125 0 -0.09375 C -0.757812 0.0820312 -1.691406 0.242188 -2.796875 0.390625 C -3.898438 0.535156 -4.742188 0.609375 -5.328125 0.609375 C -5.796875 0.609375 -6.21875 0.5625 -6.59375 0.46875 C -6.976562 0.382812 -7.171875 0.195312 -7.171875 -0.09375 C -7.171875 -0.5 -6.90625 -0.800781 -6.375 -1 C -5.851562 -1.207031 -5.269531 -1.351562 -4.625 -1.4375 C -3.988281 -1.53125 -3.492188 -1.578125 -3.140625 -1.578125 C -1.691406 -1.578125 -0.46875 -1.375 0.53125 -0.96875 C 1.925781 -1.132812 3.523438 -1.84375 5.328125 -3.09375 C 7.140625 -4.351562 9.050781 -5.972656 11.0625 -7.953125 C 13.070312 -9.929688 15.035156 -12.0625 16.953125 -14.34375 C 18.117188 -15.675781 19.210938 -17.1875 20.234375 -18.875 C 21.253906 -20.570312 21.765625 -21.882812 21.765625 -22.8125 C 21.765625 -23.75 21.300781 -24.21875 20.375 -24.21875 C 19.550781 -24.21875 18.539062 -23.910156 17.34375 -23.296875 C 16.15625 -22.679688 14.890625 -21.878906 13.546875 -20.890625 C 11.390625 -19.265625 9.203125 -17.472656 6.984375 -15.515625 C 4.773438 -13.566406 2.914062 -11.921875 1.40625 -10.578125 C 1.164062 -10.398438 0.898438 -10.222656 0.609375 -10.046875 C 0.316406 -9.878906 0.113281 -9.851562 0 -9.96875 C -0.351562 -10.3125 -0.296875 -10.660156 0.171875 -11.015625 C 2.390625 -12.941406 4.546875 -14.835938 6.640625 -16.703125 C 8.742188 -18.566406 10.550781 -20.109375 12.0625 -21.328125 C 14.625 -23.367188 16.617188 -24.625 18.046875 -25.09375 C 19.472656 -25.5625 20.597656 -25.796875 21.421875 -25.796875 C 22.296875 -25.796875 23.066406 -25.503906 23.734375 -24.921875 C 24.398438 -24.335938 24.734375 -23.375 24.734375 -22.03125 C 24.734375 -20.75 24.472656 -19.4375 23.953125 -18.09375 C 23.429688 -16.75 22.832031 -15.523438 22.15625 -14.421875 C 21.488281 -13.316406 20.863281 -12.441406 20.28125 -11.796875 C 18.007812 -9.117188 15.34375 -6.757812 12.28125 -4.71875 C 9.21875 -2.675781 5.707031 -1.25 1.75 -0.4375 C 4.25 0.375 5.5 1.976562 5.5 4.375 C 5.5 6.46875 4.640625 8.59375 2.921875 10.75 C 1.203125 12.90625 -0.847656 14.914062 -3.234375 16.78125 C -6.492188 19.289062 -10.554688 21.300781 -15.421875 22.8125 C -20.296875 24.332031 -25.328125 25.09375 -30.515625 25.09375 Z M -30.515625 25.09375 "></path></g></g></g><g fill="#492c01" fill-opacity="1"><g transform="translate(191.630481, 69.326729)"><g><path d="M 33.5625 -25 C 31.0625 -22.726562 28.644531 -20.457031 26.3125 -18.1875 C 23.976562 -15.914062 21.90625 -13.832031 20.09375 -11.9375 C 18.289062 -10.039062 16.867188 -8.476562 15.828125 -7.25 C 14.710938 -5.96875 13.820312 -4.847656 13.15625 -3.890625 C 12.488281 -2.929688 12.15625 -2.160156 12.15625 -1.578125 C 12.15625 -1.046875 12.445312 -0.78125 13.03125 -0.78125 C 13.613281 -0.78125 14.382812 -1.054688 15.34375 -1.609375 C 16.300781 -2.171875 17.304688 -2.816406 18.359375 -3.546875 C 19.410156 -4.273438 20.3125 -4.925781 21.0625 -5.5 C 22.46875 -6.613281 23.910156 -7.828125 25.390625 -9.140625 C 26.878906 -10.453125 28.148438 -11.570312 29.203125 -12.5 C 29.378906 -12.613281 29.582031 -12.726562 29.8125 -12.84375 C 30.039062 -12.96875 30.242188 -12.910156 30.421875 -12.671875 C 30.648438 -12.441406 30.503906 -12.09375 29.984375 -11.625 C 28.703125 -10.40625 27.300781 -9.148438 25.78125 -7.859375 C 24.269531 -6.578125 22.960938 -5.503906 21.859375 -4.640625 C 20.984375 -3.929688 19.976562 -3.171875 18.84375 -2.359375 C 17.707031 -1.546875 16.566406 -0.847656 15.421875 -0.265625 C 14.285156 0.316406 13.28125 0.609375 12.40625 0.609375 C 10.375 0.609375 9.359375 -0.378906 9.359375 -2.359375 C 9.359375 -3.003906 9.546875 -3.789062 9.921875 -4.71875 C 10.296875 -5.65625 10.953125 -6.675781 11.890625 -7.78125 C 9.378906 -5.507812 6.867188 -3.539062 4.359375 -1.875 C 1.859375 -0.21875 -0.0859375 0.609375 -1.484375 0.609375 C -3.460938 0.609375 -4.453125 -0.347656 -4.453125 -2.265625 C -4.515625 -3.847656 -3.890625 -5.789062 -2.578125 -8.09375 C -1.265625 -10.394531 0.378906 -12.535156 2.359375 -14.515625 C 4.335938 -16.554688 6.59375 -18.4375 9.125 -20.15625 C 11.664062 -21.875 14.160156 -23.253906 16.609375 -24.296875 C 19.054688 -25.347656 21.097656 -25.875 22.734375 -25.875 C 23.546875 -25.875 24.210938 -25.742188 24.734375 -25.484375 C 25.265625 -25.222656 25.53125 -24.710938 25.53125 -23.953125 C 25.53125 -23.484375 25.351562 -22.882812 25 -22.15625 C 24.65625 -21.425781 23.984375 -20.566406 22.984375 -19.578125 C 22.929688 -19.523438 22.914062 -19.484375 22.9375 -19.453125 C 22.96875 -19.421875 23.015625 -19.4375 23.078125 -19.5 C 24.421875 -20.832031 25.757812 -21.960938 27.09375 -22.890625 C 28.4375 -23.828125 29.457031 -24.414062 30.15625 -24.65625 C 30.625 -24.832031 31.078125 -24.929688 31.515625 -24.953125 C 31.953125 -24.984375 32.40625 -25 32.875 -25 Z M 24.296875 -23.609375 C 24.296875 -24.242188 23.945312 -24.5625 23.25 -24.5625 C 22.03125 -24.5625 19.945312 -23.523438 17 -21.453125 C 14.0625 -19.390625 10.519531 -16.375 6.375 -12.40625 C 4.21875 -10.25 2.335938 -8.148438 0.734375 -6.109375 C -0.859375 -4.078125 -1.65625 -2.566406 -1.65625 -1.578125 C -1.65625 -1.335938 -1.613281 -1.128906 -1.53125 -0.953125 C -1.445312 -0.785156 -1.195312 -0.703125 -0.78125 -0.703125 C -0.03125 -0.703125 1.1875 -1.222656 2.875 -2.265625 C 4.570312 -3.316406 6.539062 -4.773438 8.78125 -6.640625 C 11.03125 -8.503906 13.289062 -10.601562 15.5625 -12.9375 C 16.613281 -13.988281 17.820312 -15.195312 19.1875 -16.5625 C 20.5625 -17.9375 21.753906 -19.28125 22.765625 -20.59375 C 23.785156 -21.90625 24.296875 -22.910156 24.296875 -23.609375 Z M 24.296875 -23.609375 "></path></g></g></g></g></g></svg> 