<?xml version="1.0" encoding="UTF-8"?> <svg xmlns="http://www.w3.org/2000/svg" xmlns:xlink="http://www.w3.org/1999/xlink" width="360" zoomAndPan="magnify" viewBox="0 0 270 359.999987" height="480" preserveAspectRatio="xMidYMid meet" version="1.0"><defs><clipPath id="fe28f49a60"><path d="M 102.816406 182.839844 L 112.671875 182.839844 L 112.671875 184.742188 L 102.816406 184.742188 Z M 102.816406 182.839844 " clip-rule="nonzero"></path></clipPath><clipPath id="2ff09c2412"><path d="M 102.824219 184.199219 C 107.324219 182.023438 108.601562 183.449219 109.726562 183.675781 C 110.699219 183.898438 112.5 183.976562 112.648438 183.675781 C 112.648438 183.601562 112.199219 183.148438 112.199219 183.226562 C 112.125 183.226562 112.648438 183.601562 112.574219 183.75 C 112.5 184.125 110.851562 184.574219 109.949219 184.5 C 108.824219 184.425781 107.324219 182.773438 106.199219 182.851562 C 105.148438 182.925781 103.875 184.800781 103.351562 184.726562 C 103.050781 184.726562 102.824219 184.199219 102.824219 184.199219 " clip-rule="nonzero"></path></clipPath><clipPath id="a67dc33ec4"><path d="M 0.816406 0.839844 L 10.671875 0.839844 L 10.671875 2.742188 L 0.816406 2.742188 Z M 0.816406 0.839844 " clip-rule="nonzero"></path></clipPath><clipPath id="42aba5562c"><path d="M 0.824219 2.199219 C 5.324219 0.0234375 6.601562 1.449219 7.726562 1.675781 C 8.699219 1.898438 10.5 1.976562 10.648438 1.675781 C 10.648438 1.601562 10.199219 1.148438 10.199219 1.226562 C 10.125 1.226562 10.648438 1.601562 10.574219 1.75 C 10.5 2.125 8.851562 2.574219 7.949219 2.5 C 6.824219 2.425781 5.324219 0.773438 4.199219 0.851562 C 3.148438 0.925781 1.875 2.800781 1.351562 2.726562 C 1.050781 2.726562 0.824219 2.199219 0.824219 2.199219 " clip-rule="nonzero"></path></clipPath><clipPath id="31fe83314a"><rect x="0" width="11" y="0" height="3"></rect></clipPath><clipPath id="6ef6011301"><path d="M 171.886719 201.582031 L 172.296875 201.582031 L 172.296875 201.863281 L 171.886719 201.863281 Z M 171.886719 201.582031 " clip-rule="nonzero"></path></clipPath><clipPath id="6402e3c0b0"><path d="M 172.273438 201.75 C 171.523438 202.050781 172.125 201.601562 172.125 201.601562 " clip-rule="nonzero"></path></clipPath><clipPath id="f3de2ecbc0"><path d="M 0.886719 0.582031 L 1.296875 0.582031 L 1.296875 0.863281 L 0.886719 0.863281 Z M 0.886719 0.582031 " clip-rule="nonzero"></path></clipPath><clipPath id="619a719f7e"><path d="M 1.273438 0.75 C 0.523438 1.050781 1.125 0.601562 1.125 0.601562 " clip-rule="nonzero"></path></clipPath><clipPath id="b74463b8da"><rect x="0" width="2" y="0" height="1"></rect></clipPath><clipPath id="105ab77719"><path d="M 25 58 L 245 58 L 245 304.90625 L 25 304.90625 Z M 25 58 " clip-rule="nonzero"></path></clipPath></defs><g clip-path="url(#fe28f49a60)"><g clip-path="url(#2ff09c2412)"><g transform="matrix(1, 0, 0, 1, 102, 182)"><g clip-path="url(#31fe83314a)"><g clip-path="url(#a67dc33ec4)"><g clip-path="url(#42aba5562c)"><rect x="-161.4" width="388.8" fill="#492c01" height="518.399981" y="-261.199997" fill-opacity="1"></rect></g></g></g></g></g></g><g clip-path="url(#6ef6011301)"><g clip-path="url(#6402e3c0b0)"><g transform="matrix(1, 0, 0, 1, 171, 201)"><g clip-path="url(#b74463b8da)"><g clip-path="url(#f3de2ecbc0)"><g clip-path="url(#619a719f7e)"><rect x="-230.4" width="388.8" fill="#492c01" height="518.399981" y="-280.199997" fill-opacity="1"></rect></g></g></g></g></g></g><g clip-path="url(#105ab77719)"><path fill="#492c01" d="M 131.136719 165.746094 C 132.292969 160.46875 133.394531 155.175781 134.609375 149.914062 C 137.390625 137.835938 140.945312 126 147.023438 115.125 C 158.476562 94.644531 175.652344 81.890625 198.828125 77.539062 C 205.347656 76.316406 211.886719 76.605469 218.335938 78.1875 C 231.996094 81.53125 241.414062 91.875 243.703125 105.851562 C 245.320312 115.722656 243.652344 125.242188 240.765625 134.632812 C 237.113281 146.523438 231.476562 157.5 225.054688 168.09375 C 215.230469 184.304688 203.9375 199.453125 191.726562 213.933594 C 168.972656 240.90625 144.1875 265.859375 117.011719 288.378906 C 111.121094 293.257812 104.660156 297.46875 98.285156 301.726562 C 96.164062 303.140625 93.558594 304.097656 91.042969 304.554688 C 89.753906 304.789062 87.648438 303.84375 86.851562 302.746094 C 85.617188 301.050781 87.203125 299.695312 88.644531 298.679688 C 104.625 287.433594 118.921875 274.210938 133.046875 260.800781 C 154.804688 240.144531 175.347656 218.355469 193.8125 194.675781 C 204.191406 181.371094 213.804688 167.539062 221.71875 152.601562 C 226.730469 143.136719 231.078125 133.371094 232.789062 122.722656 C 233.496094 118.328125 233.761719 113.753906 233.433594 109.320312 C 232.585938 97.859375 225.054688 90.019531 213.726562 88.03125 C 206.535156 86.769531 199.519531 87.546875 192.683594 89.832031 C 175.476562 95.582031 162.917969 106.722656 154.890625 122.964844 C 149.371094 134.132812 146.054688 146.035156 143.722656 158.1875 C 141.21875 171.234375 139.160156 184.367188 136.863281 197.453125 C 136.511719 199.46875 136.128906 201.519531 135.40625 203.421875 C 134.605469 205.515625 132.796875 206.589844 130.523438 206.542969 C 128.265625 206.5 126.488281 205.402344 125.730469 203.273438 C 125.113281 201.535156 124.777344 199.65625 124.578125 197.8125 C 121.246094 166.511719 113.464844 136.3125 101.449219 107.28125 C 98.042969 99.054688 93.324219 91.261719 88.375 83.824219 C 85.441406 79.414062 81.273438 75.550781 76.964844 72.378906 C 68.378906 66.0625 58.589844 67.058594 50.898438 74.453125 C 42.398438 82.621094 38.769531 93.148438 36.867188 104.429688 C 33.574219 123.980469 36.898438 142.855469 43.101562 161.339844 C 50.050781 182.050781 59.671875 201.476562 72.382812 219.269531 C 79.453125 229.167969 86.941406 238.769531 94.242188 248.507812 C 96.488281 251.5 98.910156 254.382812 100.929688 257.523438 C 102.113281 259.359375 103.058594 261.535156 103.410156 263.671875 C 103.992188 267.207031 101.980469 268.59375 98.738281 267.195312 C 97.71875 266.753906 96.734375 266.152344 95.859375 265.464844 C 94.539062 264.421875 93.183594 263.371094 92.101562 262.101562 C 65.867188 231.414062 43.289062 198.550781 31.628906 159.296875 C 27.230469 144.488281 24.667969 129.402344 25.605469 113.875 C 26.230469 103.527344 28.128906 93.453125 32.347656 83.910156 C 35.175781 77.507812 38.964844 71.742188 44.082031 66.925781 C 55.238281 56.429688 69.976562 55.214844 82.710938 63.769531 C 89.019531 68.003906 93.964844 73.609375 98.324219 79.761719 C 104.644531 88.679688 109.324219 98.464844 113.21875 108.628906 C 119.789062 125.78125 125.191406 143.289062 129.144531 161.234375 C 129.464844 162.6875 129.894531 164.113281 130.273438 165.550781 C 130.5625 165.617188 130.851562 165.679688 131.140625 165.746094 Z M 131.136719 165.746094 " fill-opacity="1" fill-rule="nonzero"></path></g></svg> 