<?xml version="1.0" encoding="UTF-8"?> <svg xmlns="http://www.w3.org/2000/svg" xmlns:xlink="http://www.w3.org/1999/xlink" width="360" zoomAndPan="magnify" viewBox="0 0 270 359.999987" height="480" preserveAspectRatio="xMidYMid meet" version="1.0"><defs><clipPath id="694c7d8b20"><path d="M 32.046875 77.046875 L 238 77.046875 L 238 283 L 32.046875 283 Z M 32.046875 77.046875 " clip-rule="nonzero"></path></clipPath></defs><g clip-path="url(#694c7d8b20)"><path fill="#5f0000" d="M 92.332031 77.753906 C 81.382812 78.269531 73.90625 80.023438 67.371094 82.585938 C 60.601562 85.222656 54.867188 88.753906 49.164062 94.484375 C 43.453125 100.21875 39.941406 105.957031 37.332031 112.738281 C 34.800781 119.292969 33.085938 126.769531 32.601562 137.730469 C 32.117188 148.699219 32.007812 152.199219 32.058594 180.152344 C 32.105469 208.09375 32.230469 211.605469 32.753906 222.582031 C 33.277344 233.53125 35.023438 241 37.585938 247.546875 C 40.222656 254.316406 43.753906 260.039062 49.484375 265.75 C 55.21875 271.460938 60.957031 274.964844 67.738281 277.582031 C 74.285156 280.113281 81.769531 281.839844 92.722656 282.316406 C 103.699219 282.800781 107.199219 282.90625 135.140625 282.847656 C 163.09375 282.800781 166.59375 282.675781 177.574219 282.152344 C 188.523438 281.625 195.992188 279.871094 202.535156 277.320312 C 209.304688 274.671875 215.039062 271.152344 220.742188 265.421875 C 226.445312 259.6875 229.953125 253.949219 232.574219 247.167969 C 235.105469 240.621094 236.832031 233.132812 237.304688 222.195312 C 237.78125 211.214844 237.898438 207.707031 237.847656 179.765625 C 237.800781 151.824219 237.664062 148.320312 237.152344 137.34375 C 236.625 126.382812 234.882812 118.914062 232.320312 112.371094 C 229.671875 105.601562 226.152344 99.878906 220.421875 94.164062 C 214.6875 88.460938 208.949219 84.941406 202.167969 82.332031 C 195.621094 79.800781 188.132812 78.074219 177.183594 77.601562 C 166.207031 77.117188 162.695312 77.007812 134.753906 77.058594 C 106.8125 77.105469 103.3125 77.230469 92.332031 77.753906 M 93.535156 263.78125 C 83.507812 263.34375 78.058594 261.675781 74.421875 260.28125 C 69.609375 258.417969 66.1875 256.1875 62.570312 252.609375 C 58.960938 249.011719 56.730469 245.585938 54.847656 240.796875 C 53.441406 237.167969 51.746094 231.726562 51.269531 221.691406 C 50.753906 210.847656 50.640625 207.589844 50.589844 180.113281 C 50.542969 152.648438 50.640625 149.386719 51.113281 138.535156 C 51.542969 128.507812 53.21875 123.058594 54.617188 119.429688 C 56.476562 114.621094 58.699219 111.195312 62.289062 107.578125 C 65.886719 103.96875 69.308594 101.738281 74.109375 99.859375 C 77.738281 98.441406 83.179688 96.753906 93.207031 96.28125 C 104.058594 95.765625 107.308594 95.660156 134.785156 95.601562 C 162.257812 95.542969 165.519531 95.640625 176.371094 96.125 C 186.398438 96.5625 191.847656 98.21875 195.476562 99.625 C 200.285156 101.488281 203.71875 103.699219 207.328125 107.296875 C 210.9375 110.894531 213.175781 114.308594 215.046875 119.121094 C 216.464844 122.738281 218.152344 128.1875 218.625 138.207031 C 219.140625 149.058594 219.257812 152.316406 219.304688 179.785156 C 219.355469 207.257812 219.257812 210.519531 218.78125 221.359375 C 218.34375 231.390625 216.675781 236.847656 215.28125 240.476562 C 213.417969 245.277344 211.199219 248.710938 207.597656 252.316406 C 204 255.917969 200.585938 258.15625 195.777344 260.039062 C 192.160156 261.453125 186.707031 263.140625 176.691406 263.617188 C 165.835938 264.128906 162.589844 264.246094 135.101562 264.296875 C 107.636719 264.34375 104.378906 264.246094 93.527344 263.773438 M 177.425781 124.949219 C 177.4375 131.765625 182.984375 137.285156 189.792969 137.265625 C 196.609375 137.253906 202.128906 131.71875 202.121094 124.898438 C 202.109375 118.082031 196.5625 112.5625 189.746094 112.574219 C 182.925781 112.582031 177.40625 118.128906 177.417969 124.9375 M 82.109375 180.054688 C 82.167969 209.238281 105.871094 232.84375 135.046875 232.785156 C 164.226562 232.726562 187.84375 209.035156 187.785156 179.851562 C 187.726562 150.679688 164.023438 127.0625 134.839844 127.109375 C 105.667969 127.167969 82.050781 150.871094 82.109375 180.054688 M 100.644531 180.015625 C 100.617188 161.074219 115.9375 145.683594 134.878906 145.65625 C 153.820312 145.617188 169.210938 160.9375 169.25 179.890625 C 169.289062 198.832031 153.957031 214.222656 135.015625 214.25 C 116.074219 214.289062 100.683594 198.957031 100.65625 180.015625 " fill-opacity="1" fill-rule="nonzero"></path></g></svg> 