<?xml version="1.0" encoding="UTF-8"?> <svg xmlns="http://www.w3.org/2000/svg" xmlns:xlink="http://www.w3.org/1999/xlink" width="360" zoomAndPan="magnify" viewBox="0 0 270 359.999987" height="480" preserveAspectRatio="xMidYMid meet" version="1.0"><defs><g></g><clipPath id="e3cd2ba624"><rect x="0" width="151" y="0" height="254"></rect></clipPath></defs><g transform="matrix(1, 0, 0, 1, 61, 53)"><g clip-path="url(#e3cd2ba624)"><g fill="#666666" fill-opacity="1"><g transform="translate(1.458062, 191.154628)"><g><path d="M 144.625 -2.515625 C 145.1875 -2.378906 145.429688 -1.925781 145.359375 -1.15625 C 145.296875 -0.382812 145.050781 0 144.625 0 L 124.921875 0 C 117.941406 0 107.601562 -5.445312 93.90625 -16.34375 C 82.582031 -3.769531 68.328125 2.515625 51.140625 2.515625 C 42.753906 2.515625 35.734375 1.050781 30.078125 -1.875 C 24.421875 -4.8125 20.226562 -8.691406 17.5 -13.515625 C 14.78125 -18.335938 13.421875 -23.546875 13.421875 -29.140625 C 13.421875 -37.378906 15.929688 -44.570312 20.953125 -50.71875 C 25.984375 -56.875 33.179688 -63.304688 42.546875 -70.015625 C 40.035156 -73.921875 38.007812 -77.484375 36.46875 -80.703125 C 32.5625 -89.640625 30.609375 -97.253906 30.609375 -103.546875 C 30.609375 -109.140625 32.039062 -114.378906 34.90625 -119.265625 C 37.769531 -124.160156 41.710938 -128.070312 46.734375 -131 C 51.765625 -133.9375 57.5 -135.40625 63.9375 -135.40625 C 70.21875 -135.40625 75.734375 -133.867188 80.484375 -130.796875 C 85.234375 -127.722656 87.609375 -122.34375 87.609375 -114.65625 C 87.609375 -109.207031 86.242188 -104.28125 83.515625 -99.875 C 80.796875 -95.476562 77.445312 -91.671875 73.46875 -88.453125 C 69.488281 -85.242188 64.003906 -81.257812 57.015625 -76.5 L 52.609375 -73.578125 C 62.953125 -57.367188 78.046875 -41.71875 97.890625 -26.625 C 103.898438 -36.40625 106.90625 -46.742188 106.90625 -57.640625 C 106.90625 -61.972656 105.957031 -65.222656 104.0625 -67.390625 C 102.175781 -69.554688 98.300781 -70.640625 92.4375 -70.640625 C 92.019531 -70.640625 91.773438 -71.054688 91.703125 -71.890625 C 91.628906 -72.734375 91.875 -73.15625 92.4375 -73.15625 L 134.78125 -73.359375 C 135.34375 -73.359375 135.625 -72.9375 135.625 -72.09375 C 135.625 -71.257812 135.34375 -70.84375 134.78125 -70.84375 C 129.882812 -70.84375 126.210938 -70.421875 123.765625 -69.578125 C 121.328125 -68.742188 119.617188 -67.554688 118.640625 -66.015625 C 117.660156 -64.484375 116.75 -62.25 115.90625 -59.3125 C 112.132812 -45.90625 107.035156 -34.378906 100.609375 -24.734375 C 108.859375 -18.722656 116.820312 -13.796875 124.5 -9.953125 C 132.1875 -6.109375 138.894531 -3.628906 144.625 -2.515625 Z M 40.671875 -110.046875 C 40.671875 -99.566406 44.160156 -88.25 51.140625 -76.09375 C 59.671875 -82.09375 66.207031 -87.75 70.75 -93.0625 C 75.289062 -98.375 77.5625 -104.523438 77.5625 -111.515625 C 77.5625 -117.796875 75.882812 -122.679688 72.53125 -126.171875 C 69.175781 -129.671875 64.5625 -131.421875 58.6875 -131.421875 C 52.957031 -131.421875 48.519531 -129.671875 45.375 -126.171875 C 42.238281 -122.679688 40.671875 -117.304688 40.671875 -110.046875 Z M 58.90625 -2.71875 C 65.1875 -2.71875 71.117188 -4.082031 76.703125 -6.8125 C 82.296875 -9.539062 87.257812 -13.347656 91.59375 -18.234375 L 89.296875 -20.125 C 80.628906 -26.96875 72.347656 -34.507812 64.453125 -42.75 C 56.554688 -51 49.816406 -59.25 44.234375 -67.5 C 38.078125 -62.882812 33.285156 -58.023438 29.859375 -52.921875 C 26.441406 -47.828125 24.734375 -41.925781 24.734375 -35.21875 C 24.734375 -29.207031 26.234375 -23.71875 29.234375 -18.75 C 32.242188 -13.789062 36.332031 -9.878906 41.5 -7.015625 C 46.675781 -4.148438 52.476562 -2.71875 58.90625 -2.71875 Z M 58.90625 -2.71875 "></path></g></g></g></g></g></svg> 