<?xml version="1.0" encoding="UTF-8"?> <svg xmlns="http://www.w3.org/2000/svg" xmlns:xlink="http://www.w3.org/1999/xlink" width="360" zoomAndPan="magnify" viewBox="0 0 270 359.999987" height="480" preserveAspectRatio="xMidYMid meet" version="1.0"><defs><g></g><clipPath id="64fb183fd6"><rect x="0" width="270" y="0" height="74"></rect></clipPath></defs><g transform="matrix(1, 0, 0, 1, -0, 143)"><g clip-path="url(#64fb183fd6)"><g fill="#000000" fill-opacity="1"><g transform="translate(0.0235027, 57.30196)"><g><path d="M 1.515625 -37 L 2.125 -37 C 2.34375 -37 2.613281 -37.109375 2.9375 -37.328125 C 3.269531 -37.554688 3.632812 -37.800781 4.03125 -38.0625 C 4.476562 -38.375 5 -38.726562 5.59375 -39.125 C 6.1875 -39.519531 6.867188 -39.882812 7.640625 -40.21875 C 8.421875 -40.550781 9.296875 -40.828125 10.265625 -41.046875 C 11.234375 -41.265625 12.3125 -41.375 13.5 -41.375 C 15 -41.375 16.457031 -41.164062 17.875 -40.75 C 19.289062 -40.332031 20.546875 -39.691406 21.640625 -38.828125 C 22.742188 -37.960938 23.628906 -36.867188 24.296875 -35.546875 C 24.960938 -34.222656 25.296875 -32.632812 25.296875 -30.78125 C 25.296875 -29.238281 25.03125 -27.828125 24.5 -26.546875 C 23.96875 -25.265625 23.25 -24.070312 22.34375 -22.96875 C 21.4375 -21.863281 20.421875 -20.816406 19.296875 -19.828125 C 18.171875 -18.835938 17.015625 -17.851562 15.828125 -16.875 C 14.671875 -15.945312 13.550781 -15 12.46875 -14.03125 C 11.394531 -13.0625 10.425781 -12.046875 9.5625 -10.984375 C 8.707031 -9.929688 7.988281 -8.796875 7.40625 -7.578125 C 6.832031 -6.367188 6.503906 -5.078125 6.421875 -3.703125 L 20.1875 -3.703125 C 21.863281 -3.703125 23.1875 -4 24.15625 -4.59375 C 25.132812 -5.195312 25.644531 -6.179688 25.6875 -7.546875 L 26.28125 -7.546875 L 26.28125 0 L 1.78125 0 C 1.78125 -1.988281 2.113281 -3.832031 2.78125 -5.53125 C 3.445312 -7.226562 4.304688 -8.789062 5.359375 -10.21875 C 6.421875 -11.65625 7.601562 -12.992188 8.90625 -14.234375 C 10.207031 -15.472656 11.5 -16.664062 12.78125 -17.8125 C 13.832031 -18.738281 14.851562 -19.664062 15.84375 -20.59375 C 16.84375 -21.519531 17.726562 -22.457031 18.5 -23.40625 C 19.269531 -24.351562 19.882812 -25.34375 20.34375 -26.375 C 20.8125 -27.414062 21.046875 -28.507812 21.046875 -29.65625 C 21.046875 -31.113281 20.789062 -32.414062 20.28125 -33.5625 C 19.78125 -34.707031 19.117188 -35.675781 18.296875 -36.46875 C 17.484375 -37.269531 16.546875 -37.878906 15.484375 -38.296875 C 14.429688 -38.710938 13.375 -38.921875 12.3125 -38.921875 C 10.0625 -38.921875 8.078125 -38.25 6.359375 -36.90625 C 4.640625 -35.5625 3.25 -33.832031 2.1875 -31.71875 L 1.515625 -31.71875 Z M 1.515625 -37 "></path></g></g></g><g fill="#000000" fill-opacity="1"><g transform="translate(28.420276, 57.30196)"><g><path d="M 30.1875 -10.796875 C 30.1875 -8.847656 29.800781 -7.15625 29.03125 -5.71875 C 28.257812 -4.289062 27.222656 -3.101562 25.921875 -2.15625 C 24.617188 -1.207031 23.101562 -0.5 21.375 -0.03125 C 19.65625 0.425781 17.828125 0.65625 15.890625 0.65625 C 14.078125 0.65625 12.3125 0.425781 10.59375 -0.03125 C 8.875 -0.5 7.328125 -1.207031 5.953125 -2.15625 C 4.585938 -3.101562 3.492188 -4.28125 2.671875 -5.6875 C 1.859375 -7.101562 1.453125 -8.757812 1.453125 -10.65625 C 1.453125 -13.175781 2.203125 -15.4375 3.703125 -17.4375 C 5.203125 -19.445312 7.585938 -20.9375 10.859375 -21.90625 C 8.335938 -23.0625 6.492188 -24.398438 5.328125 -25.921875 C 4.160156 -27.441406 3.578125 -29.304688 3.578125 -31.515625 C 3.578125 -33.148438 3.914062 -34.570312 4.59375 -35.78125 C 5.28125 -37 6.1875 -38.023438 7.3125 -38.859375 C 8.4375 -39.703125 9.726562 -40.332031 11.1875 -40.75 C 12.644531 -41.164062 14.125 -41.375 15.625 -41.375 C 17.125 -41.375 18.613281 -41.164062 20.09375 -40.75 C 21.570312 -40.332031 22.882812 -39.703125 24.03125 -38.859375 C 25.175781 -38.023438 26.113281 -36.976562 26.84375 -35.71875 C 27.570312 -34.457031 27.9375 -32.988281 27.9375 -31.3125 C 27.9375 -29.320312 27.273438 -27.46875 25.953125 -25.75 C 24.628906 -24.03125 22.90625 -22.726562 20.78125 -21.84375 C 23.519531 -21.050781 25.769531 -19.738281 27.53125 -17.90625 C 29.300781 -16.070312 30.1875 -13.703125 30.1875 -10.796875 Z M 24.09375 -30.328125 C 24.09375 -31.648438 23.816406 -32.863281 23.265625 -33.96875 C 22.710938 -35.070312 21.992188 -36.007812 21.109375 -36.78125 C 20.234375 -37.550781 19.234375 -38.144531 18.109375 -38.5625 C 16.984375 -38.976562 15.847656 -39.1875 14.703125 -39.1875 C 13.816406 -39.1875 12.953125 -39.050781 12.109375 -38.78125 C 11.273438 -38.519531 10.523438 -38.125 9.859375 -37.59375 C 9.203125 -37.070312 8.660156 -36.410156 8.234375 -35.609375 C 7.816406 -34.816406 7.609375 -33.894531 7.609375 -32.84375 C 7.609375 -31.644531 7.894531 -30.535156 8.46875 -29.515625 C 9.039062 -28.503906 9.800781 -27.601562 10.75 -26.8125 C 11.707031 -26.019531 12.789062 -25.320312 14 -24.71875 C 15.21875 -24.125 16.441406 -23.628906 17.671875 -23.234375 C 19.660156 -24.023438 21.226562 -25.015625 22.375 -26.203125 C 23.519531 -27.398438 24.09375 -28.773438 24.09375 -30.328125 Z M 26.875 -9.40625 C 26.875 -10.632812 26.539062 -11.800781 25.875 -12.90625 C 25.21875 -14.007812 24.289062 -15.015625 23.09375 -15.921875 C 21.90625 -16.828125 20.523438 -17.644531 18.953125 -18.375 C 17.390625 -19.101562 15.75 -19.734375 14.03125 -20.265625 C 12.882812 -19.859375 11.800781 -19.367188 10.78125 -18.796875 C 9.769531 -18.222656 8.890625 -17.5625 8.140625 -16.8125 C 7.390625 -16.0625 6.789062 -15.242188 6.34375 -14.359375 C 5.90625 -13.484375 5.6875 -12.535156 5.6875 -11.515625 C 5.6875 -10.191406 5.992188 -8.929688 6.609375 -7.734375 C 7.234375 -6.546875 8.050781 -5.5 9.0625 -4.59375 C 10.082031 -3.695312 11.253906 -3.003906 12.578125 -2.515625 C 13.898438 -2.023438 15.269531 -1.78125 16.6875 -1.78125 C 17.875 -1.78125 19.070312 -1.96875 20.28125 -2.34375 C 21.5 -2.71875 22.582031 -3.222656 23.53125 -3.859375 C 24.476562 -4.503906 25.269531 -5.289062 25.90625 -6.21875 C 26.550781 -7.144531 26.875 -8.207031 26.875 -9.40625 Z M 26.875 -9.40625 "></path></g></g></g><g fill="#000000" fill-opacity="1"><g transform="translate(61.715348, 57.30196)"><g><path d="M 2.78125 4.03125 L 0.328125 3.25 L 19 -47.265625 L 21.453125 -46.609375 Z M 2.78125 4.03125 "></path></g></g></g><g fill="#000000" fill-opacity="1"><g transform="translate(83.757607, 57.30196)"><g><path d="M 6.890625 0 L 6.890625 -0.65625 C 7.941406 -0.65625 8.609375 -0.972656 8.890625 -1.609375 C 9.179688 -2.253906 9.328125 -3.019531 9.328125 -3.90625 L 9.328125 -35.625 C 9.328125 -36.0625 9.109375 -36.28125 8.671875 -36.28125 C 8.492188 -36.28125 8.25 -36.210938 7.9375 -36.078125 L 0.390625 -33.703125 L 0.390625 -36.078125 L 15.828125 -41.4375 L 15.828125 -39.65625 C 15.117188 -39.34375 14.550781 -38.851562 14.125 -38.1875 C 13.707031 -37.53125 13.546875 -36.757812 13.640625 -35.875 L 13.640625 -4.171875 C 13.640625 -3.242188 13.789062 -2.425781 14.09375 -1.71875 C 14.40625 -1.007812 15.113281 -0.65625 16.21875 -0.65625 L 16.21875 0 Z M 6.890625 0 "></path></g></g></g><g fill="#000000" fill-opacity="1"><g transform="translate(105.27032, 57.30196)"><g><path d="M 6.890625 0 L 6.890625 -0.65625 C 7.941406 -0.65625 8.609375 -0.972656 8.890625 -1.609375 C 9.179688 -2.253906 9.328125 -3.019531 9.328125 -3.90625 L 9.328125 -35.625 C 9.328125 -36.0625 9.109375 -36.28125 8.671875 -36.28125 C 8.492188 -36.28125 8.25 -36.210938 7.9375 -36.078125 L 0.390625 -33.703125 L 0.390625 -36.078125 L 15.828125 -41.4375 L 15.828125 -39.65625 C 15.117188 -39.34375 14.550781 -38.851562 14.125 -38.1875 C 13.707031 -37.53125 13.546875 -36.757812 13.640625 -35.875 L 13.640625 -4.171875 C 13.640625 -3.242188 13.789062 -2.425781 14.09375 -1.71875 C 14.40625 -1.007812 15.113281 -0.65625 16.21875 -0.65625 L 16.21875 0 Z M 6.890625 0 "></path></g></g></g><g fill="#000000" fill-opacity="1"><g transform="translate(126.783033, 57.30196)"><g><path d="M 2.78125 4.03125 L 0.328125 3.25 L 19 -47.265625 L 21.453125 -46.609375 Z M 2.78125 4.03125 "></path></g></g></g><g fill="#000000" fill-opacity="1"><g transform="translate(148.825292, 57.30196)"><g><path d="M 1.515625 -37 L 2.125 -37 C 2.34375 -37 2.613281 -37.109375 2.9375 -37.328125 C 3.269531 -37.554688 3.632812 -37.800781 4.03125 -38.0625 C 4.476562 -38.375 5 -38.726562 5.59375 -39.125 C 6.1875 -39.519531 6.867188 -39.882812 7.640625 -40.21875 C 8.421875 -40.550781 9.296875 -40.828125 10.265625 -41.046875 C 11.234375 -41.265625 12.3125 -41.375 13.5 -41.375 C 15 -41.375 16.457031 -41.164062 17.875 -40.75 C 19.289062 -40.332031 20.546875 -39.691406 21.640625 -38.828125 C 22.742188 -37.960938 23.628906 -36.867188 24.296875 -35.546875 C 24.960938 -34.222656 25.296875 -32.632812 25.296875 -30.78125 C 25.296875 -29.238281 25.03125 -27.828125 24.5 -26.546875 C 23.96875 -25.265625 23.25 -24.070312 22.34375 -22.96875 C 21.4375 -21.863281 20.421875 -20.816406 19.296875 -19.828125 C 18.171875 -18.835938 17.015625 -17.851562 15.828125 -16.875 C 14.671875 -15.945312 13.550781 -15 12.46875 -14.03125 C 11.394531 -13.0625 10.425781 -12.046875 9.5625 -10.984375 C 8.707031 -9.929688 7.988281 -8.796875 7.40625 -7.578125 C 6.832031 -6.367188 6.503906 -5.078125 6.421875 -3.703125 L 20.1875 -3.703125 C 21.863281 -3.703125 23.1875 -4 24.15625 -4.59375 C 25.132812 -5.195312 25.644531 -6.179688 25.6875 -7.546875 L 26.28125 -7.546875 L 26.28125 0 L 1.78125 0 C 1.78125 -1.988281 2.113281 -3.832031 2.78125 -5.53125 C 3.445312 -7.226562 4.304688 -8.789062 5.359375 -10.21875 C 6.421875 -11.65625 7.601562 -12.992188 8.90625 -14.234375 C 10.207031 -15.472656 11.5 -16.664062 12.78125 -17.8125 C 13.832031 -18.738281 14.851562 -19.664062 15.84375 -20.59375 C 16.84375 -21.519531 17.726562 -22.457031 18.5 -23.40625 C 19.269531 -24.351562 19.882812 -25.34375 20.34375 -26.375 C 20.8125 -27.414062 21.046875 -28.507812 21.046875 -29.65625 C 21.046875 -31.113281 20.789062 -32.414062 20.28125 -33.5625 C 19.78125 -34.707031 19.117188 -35.675781 18.296875 -36.46875 C 17.484375 -37.269531 16.546875 -37.878906 15.484375 -38.296875 C 14.429688 -38.710938 13.375 -38.921875 12.3125 -38.921875 C 10.0625 -38.921875 8.078125 -38.25 6.359375 -36.90625 C 4.640625 -35.5625 3.25 -33.832031 2.1875 -31.71875 L 1.515625 -31.71875 Z M 1.515625 -37 "></path></g></g></g><g fill="#000000" fill-opacity="1"><g transform="translate(177.222065, 57.30196)"><g><path d="M 2.453125 -20.515625 C 2.453125 -23.921875 2.878906 -26.925781 3.734375 -29.53125 C 4.597656 -32.132812 5.734375 -34.304688 7.140625 -36.046875 C 8.554688 -37.785156 10.15625 -39.109375 11.9375 -40.015625 C 13.726562 -40.921875 15.550781 -41.375 17.40625 -41.375 C 19.257812 -41.375 21.09375 -40.921875 22.90625 -40.015625 C 24.71875 -39.109375 26.316406 -37.785156 27.703125 -36.046875 C 29.097656 -34.304688 30.222656 -32.132812 31.078125 -29.53125 C 31.941406 -26.925781 32.375 -23.921875 32.375 -20.515625 C 32.375 -17.078125 31.941406 -14.046875 31.078125 -11.421875 C 30.222656 -8.796875 29.097656 -6.585938 27.703125 -4.796875 C 26.316406 -3.015625 24.71875 -1.660156 22.90625 -0.734375 C 21.09375 0.191406 19.257812 0.65625 17.40625 0.65625 C 15.550781 0.65625 13.726562 0.191406 11.9375 -0.734375 C 10.15625 -1.660156 8.554688 -3.015625 7.140625 -4.796875 C 5.734375 -6.585938 4.597656 -8.796875 3.734375 -11.421875 C 2.878906 -14.046875 2.453125 -17.078125 2.453125 -20.515625 Z M 28.203125 -18.796875 C 28.203125 -21.972656 27.847656 -24.785156 27.140625 -27.234375 C 26.429688 -29.691406 25.515625 -31.742188 24.390625 -33.390625 C 23.265625 -35.046875 21.984375 -36.304688 20.546875 -37.171875 C 19.117188 -38.035156 17.65625 -38.46875 16.15625 -38.46875 C 14.65625 -38.46875 13.296875 -38.035156 12.078125 -37.171875 C 10.867188 -36.304688 9.84375 -35.164062 9 -33.75 C 8.164062 -32.34375 7.515625 -30.710938 7.046875 -28.859375 C 6.585938 -27.003906 6.359375 -25.0625 6.359375 -23.03125 C 6.359375 -20.601562 6.644531 -18.144531 7.21875 -15.65625 C 7.789062 -13.164062 8.601562 -10.914062 9.65625 -8.90625 C 10.71875 -6.894531 11.988281 -5.25 13.46875 -3.96875 C 14.945312 -2.6875 16.570312 -2.046875 18.34375 -2.046875 C 19.625 -2.046875 20.859375 -2.410156 22.046875 -3.140625 C 23.234375 -3.867188 24.28125 -4.9375 25.1875 -6.34375 C 26.09375 -7.757812 26.820312 -9.503906 27.375 -11.578125 C 27.925781 -13.660156 28.203125 -16.066406 28.203125 -18.796875 Z M 28.203125 -18.796875 "></path></g></g></g><g fill="#000000" fill-opacity="1"><g transform="translate(212.50292, 57.30196)"><g><path d="M 1.515625 -37 L 2.125 -37 C 2.34375 -37 2.613281 -37.109375 2.9375 -37.328125 C 3.269531 -37.554688 3.632812 -37.800781 4.03125 -38.0625 C 4.476562 -38.375 5 -38.726562 5.59375 -39.125 C 6.1875 -39.519531 6.867188 -39.882812 7.640625 -40.21875 C 8.421875 -40.550781 9.296875 -40.828125 10.265625 -41.046875 C 11.234375 -41.265625 12.3125 -41.375 13.5 -41.375 C 15 -41.375 16.457031 -41.164062 17.875 -40.75 C 19.289062 -40.332031 20.546875 -39.691406 21.640625 -38.828125 C 22.742188 -37.960938 23.628906 -36.867188 24.296875 -35.546875 C 24.960938 -34.222656 25.296875 -32.632812 25.296875 -30.78125 C 25.296875 -29.238281 25.03125 -27.828125 24.5 -26.546875 C 23.96875 -25.265625 23.25 -24.070312 22.34375 -22.96875 C 21.4375 -21.863281 20.421875 -20.816406 19.296875 -19.828125 C 18.171875 -18.835938 17.015625 -17.851562 15.828125 -16.875 C 14.671875 -15.945312 13.550781 -15 12.46875 -14.03125 C 11.394531 -13.0625 10.425781 -12.046875 9.5625 -10.984375 C 8.707031 -9.929688 7.988281 -8.796875 7.40625 -7.578125 C 6.832031 -6.367188 6.503906 -5.078125 6.421875 -3.703125 L 20.1875 -3.703125 C 21.863281 -3.703125 23.1875 -4 24.15625 -4.59375 C 25.132812 -5.195312 25.644531 -6.179688 25.6875 -7.546875 L 26.28125 -7.546875 L 26.28125 0 L 1.78125 0 C 1.78125 -1.988281 2.113281 -3.832031 2.78125 -5.53125 C 3.445312 -7.226562 4.304688 -8.789062 5.359375 -10.21875 C 6.421875 -11.65625 7.601562 -12.992188 8.90625 -14.234375 C 10.207031 -15.472656 11.5 -16.664062 12.78125 -17.8125 C 13.832031 -18.738281 14.851562 -19.664062 15.84375 -20.59375 C 16.84375 -21.519531 17.726562 -22.457031 18.5 -23.40625 C 19.269531 -24.351562 19.882812 -25.34375 20.34375 -26.375 C 20.8125 -27.414062 21.046875 -28.507812 21.046875 -29.65625 C 21.046875 -31.113281 20.789062 -32.414062 20.28125 -33.5625 C 19.78125 -34.707031 19.117188 -35.675781 18.296875 -36.46875 C 17.484375 -37.269531 16.546875 -37.878906 15.484375 -38.296875 C 14.429688 -38.710938 13.375 -38.921875 12.3125 -38.921875 C 10.0625 -38.921875 8.078125 -38.25 6.359375 -36.90625 C 4.640625 -35.5625 3.25 -33.832031 2.1875 -31.71875 L 1.515625 -31.71875 Z M 1.515625 -37 "></path></g></g></g><g fill="#000000" fill-opacity="1"><g transform="translate(240.899693, 57.30196)"><g><path d="M 26.078125 -12.375 C 26.078125 -10.832031 25.78125 -9.273438 25.1875 -7.703125 C 24.59375 -6.140625 23.695312 -4.738281 22.5 -3.5 C 21.3125 -2.269531 19.800781 -1.269531 17.96875 -0.5 C 16.144531 0.269531 14.015625 0.65625 11.578125 0.65625 C 10.390625 0.65625 9.222656 0.523438 8.078125 0.265625 C 6.929688 0.00390625 5.847656 -0.257812 4.828125 -0.53125 C 4.078125 -0.75 3.394531 -0.9375 2.78125 -1.09375 C 2.164062 -1.25 1.613281 -1.328125 1.125 -1.328125 L 1.125 -6.546875 C 2.269531 -5.003906 3.78125 -3.789062 5.65625 -2.90625 C 7.53125 -2.03125 9.421875 -1.59375 11.328125 -1.59375 C 13.046875 -1.59375 14.546875 -1.851562 15.828125 -2.375 C 17.109375 -2.90625 18.175781 -3.625 19.03125 -4.53125 C 19.894531 -5.4375 20.535156 -6.519531 20.953125 -7.78125 C 21.367188 -9.039062 21.578125 -10.394531 21.578125 -11.84375 C 21.578125 -13.613281 21.28125 -15.160156 20.6875 -16.484375 C 20.09375 -17.804688 19.304688 -18.921875 18.328125 -19.828125 C 17.359375 -20.734375 16.242188 -21.40625 14.984375 -21.84375 C 13.734375 -22.289062 12.46875 -22.515625 11.1875 -22.515625 C 9.769531 -22.515625 8.222656 -22.191406 6.546875 -21.546875 C 4.867188 -20.910156 3.148438 -19.90625 1.390625 -18.53125 L 9.859375 -40.71875 L 26.421875 -40.71875 L 25.09375 -37 L 11.25 -37 C 10.5 -35.019531 9.691406 -32.96875 8.828125 -30.84375 C 7.972656 -28.726562 7.171875 -26.65625 6.421875 -24.625 C 7.484375 -25.113281 8.476562 -25.445312 9.40625 -25.625 C 10.332031 -25.800781 11.320312 -25.890625 12.375 -25.890625 C 14.144531 -25.890625 15.84375 -25.578125 17.46875 -24.953125 C 19.101562 -24.335938 20.5625 -23.457031 21.84375 -22.3125 C 23.125 -21.164062 24.148438 -19.753906 24.921875 -18.078125 C 25.691406 -16.398438 26.078125 -14.5 26.078125 -12.375 Z M 26.078125 -12.375 "></path></g></g></g></g></g></svg> 