<?xml version="1.0" encoding="UTF-8"?> <svg xmlns="http://www.w3.org/2000/svg" xmlns:xlink="http://www.w3.org/1999/xlink" width="360" zoomAndPan="magnify" viewBox="0 0 270 359.999987" height="480" preserveAspectRatio="xMidYMid meet" version="1.0"><defs><g></g><clipPath id="f793b58ecb"><rect x="0" width="268" y="0" height="144"></rect></clipPath></defs><g transform="matrix(1, 0, 0, 1, 2, 108)"><g clip-path="url(#f793b58ecb)"><g fill="#000000" fill-opacity="1"><g transform="translate(2.491614, 108.921839)"><g><path d="M 13.40625 0 L 13.40625 -1.296875 C 15.476562 -1.296875 16.789062 -1.914062 17.34375 -3.15625 C 17.90625 -4.40625 18.1875 -5.890625 18.1875 -7.609375 L 18.1875 -69.390625 C 18.1875 -70.242188 17.753906 -70.671875 16.890625 -70.671875 C 16.546875 -70.671875 16.070312 -70.539062 15.46875 -70.28125 L 0.78125 -65.640625 L 0.78125 -70.28125 L 30.828125 -80.734375 L 30.828125 -77.25 C 29.453125 -76.644531 28.351562 -75.695312 27.53125 -74.40625 C 26.71875 -73.125 26.394531 -71.625 26.5625 -69.90625 L 26.5625 -8.125 C 26.5625 -6.320312 26.863281 -4.734375 27.46875 -3.359375 C 28.070312 -1.984375 29.445312 -1.296875 31.59375 -1.296875 L 31.59375 0 Z M 13.40625 0 "></path></g></g></g><g fill="#000000" fill-opacity="1"><g transform="translate(44.396427, 108.921839)"><g><path d="M 58.8125 -21.015625 C 58.8125 -17.234375 58.054688 -13.945312 56.546875 -11.15625 C 55.046875 -8.363281 53.023438 -6.039062 50.484375 -4.1875 C 47.953125 -2.34375 45.007812 -0.96875 41.65625 -0.0625 C 38.300781 0.84375 34.734375 1.296875 30.953125 1.296875 C 27.429688 1.296875 23.992188 0.84375 20.640625 -0.0625 C 17.285156 -0.96875 14.273438 -2.34375 11.609375 -4.1875 C 8.941406 -6.039062 6.8125 -8.34375 5.21875 -11.09375 C 3.632812 -13.84375 2.84375 -17.066406 2.84375 -20.765625 C 2.84375 -25.660156 4.300781 -30.0625 7.21875 -33.96875 C 10.144531 -37.882812 14.789062 -40.789062 21.15625 -42.6875 C 16.25 -44.925781 12.65625 -47.523438 10.375 -50.484375 C 8.101562 -53.453125 6.96875 -57.085938 6.96875 -61.390625 C 6.96875 -64.566406 7.632812 -67.335938 8.96875 -69.703125 C 10.300781 -72.066406 12.0625 -74.066406 14.25 -75.703125 C 16.445312 -77.335938 18.960938 -78.5625 21.796875 -79.375 C 24.628906 -80.195312 27.507812 -80.609375 30.4375 -80.609375 C 33.363281 -80.609375 36.265625 -80.195312 39.140625 -79.375 C 42.023438 -78.5625 44.582031 -77.335938 46.8125 -75.703125 C 49.050781 -74.066406 50.878906 -72.023438 52.296875 -69.578125 C 53.710938 -67.128906 54.421875 -64.269531 54.421875 -61 C 54.421875 -57.132812 53.128906 -53.523438 50.546875 -50.171875 C 47.972656 -46.816406 44.625 -44.28125 40.5 -42.5625 C 45.832031 -41.007812 50.21875 -38.445312 53.65625 -34.875 C 57.09375 -31.3125 58.8125 -26.691406 58.8125 -21.015625 Z M 46.9375 -59.0625 C 46.9375 -61.644531 46.398438 -64.007812 45.328125 -66.15625 C 44.253906 -68.3125 42.859375 -70.140625 41.140625 -71.640625 C 39.421875 -73.148438 37.460938 -74.3125 35.265625 -75.125 C 33.078125 -75.9375 30.863281 -76.34375 28.625 -76.34375 C 26.90625 -76.34375 25.226562 -76.082031 23.59375 -75.5625 C 21.96875 -75.050781 20.507812 -74.28125 19.21875 -73.25 C 17.925781 -72.21875 16.867188 -70.925781 16.046875 -69.375 C 15.234375 -67.832031 14.828125 -66.03125 14.828125 -63.96875 C 14.828125 -61.644531 15.382812 -59.492188 16.5 -57.515625 C 17.625 -55.535156 19.109375 -53.769531 20.953125 -52.21875 C 22.804688 -50.675781 24.914062 -49.320312 27.28125 -48.15625 C 29.644531 -47 32.03125 -46.035156 34.4375 -45.265625 C 38.300781 -46.816406 41.347656 -48.75 43.578125 -51.0625 C 45.816406 -53.382812 46.9375 -56.050781 46.9375 -59.0625 Z M 52.359375 -18.3125 C 52.359375 -20.71875 51.710938 -22.992188 50.421875 -25.140625 C 49.140625 -27.296875 47.335938 -29.253906 45.015625 -31.015625 C 42.691406 -32.773438 40.003906 -34.363281 36.953125 -35.78125 C 33.898438 -37.207031 30.695312 -38.4375 27.34375 -39.46875 C 25.101562 -38.6875 22.992188 -37.738281 21.015625 -36.625 C 19.046875 -35.507812 17.328125 -34.21875 15.859375 -32.75 C 14.398438 -31.289062 13.238281 -29.703125 12.375 -27.984375 C 11.519531 -26.265625 11.09375 -24.414062 11.09375 -22.4375 C 11.09375 -19.863281 11.691406 -17.414062 12.890625 -15.09375 C 14.097656 -12.769531 15.691406 -10.722656 17.671875 -8.953125 C 19.648438 -7.191406 21.925781 -5.835938 24.5 -4.890625 C 27.082031 -3.953125 29.75 -3.484375 32.5 -3.484375 C 34.820312 -3.484375 37.164062 -3.847656 39.53125 -4.578125 C 41.894531 -5.304688 44 -6.296875 45.84375 -7.546875 C 47.695312 -8.796875 49.242188 -10.320312 50.484375 -12.125 C 51.734375 -13.925781 52.359375 -15.988281 52.359375 -18.3125 Z M 52.359375 -18.3125 "></path></g></g></g><g fill="#000000" fill-opacity="1"><g transform="translate(109.252206, 108.921839)"><g><path d="M 6.703125 -43.71875 C 6.703125 -45.4375 7.28125 -46.894531 8.4375 -48.09375 C 9.601562 -49.300781 11.046875 -49.90625 12.765625 -49.90625 C 14.484375 -49.90625 15.941406 -49.300781 17.140625 -48.09375 C 18.347656 -46.894531 18.953125 -45.4375 18.953125 -43.71875 C 18.953125 -42 18.347656 -40.554688 17.140625 -39.390625 C 15.941406 -38.234375 14.484375 -37.65625 12.765625 -37.65625 C 11.046875 -37.65625 9.601562 -38.234375 8.4375 -39.390625 C 7.28125 -40.554688 6.703125 -42 6.703125 -43.71875 Z M 6.703125 -5.546875 C 6.703125 -7.265625 7.28125 -8.722656 8.4375 -9.921875 C 9.601562 -11.128906 11.046875 -11.734375 12.765625 -11.734375 C 14.484375 -11.734375 15.941406 -11.128906 17.140625 -9.921875 C 18.347656 -8.722656 18.953125 -7.265625 18.953125 -5.546875 C 18.953125 -3.828125 18.347656 -2.382812 17.140625 -1.21875 C 15.941406 -0.0625 14.484375 0.515625 12.765625 0.515625 C 11.046875 0.515625 9.601562 -0.0625 8.4375 -1.21875 C 7.28125 -2.382812 6.703125 -3.828125 6.703125 -5.546875 Z M 6.703125 -5.546875 "></path></g></g></g><g fill="#000000" fill-opacity="1"><g transform="translate(135.168738, 108.921839)"><g><path d="M 4.765625 -39.984375 C 4.765625 -46.597656 5.601562 -52.441406 7.28125 -57.515625 C 8.957031 -62.585938 11.171875 -66.820312 13.921875 -70.21875 C 16.679688 -73.613281 19.800781 -76.191406 23.28125 -77.953125 C 26.757812 -79.722656 30.304688 -80.609375 33.921875 -80.609375 C 37.523438 -80.609375 41.085938 -79.722656 44.609375 -77.953125 C 48.140625 -76.191406 51.257812 -73.613281 53.96875 -70.21875 C 56.675781 -66.820312 58.867188 -62.585938 60.546875 -57.515625 C 62.222656 -52.441406 63.0625 -46.597656 63.0625 -39.984375 C 63.0625 -33.273438 62.222656 -27.363281 60.546875 -22.25 C 58.867188 -17.132812 56.675781 -12.832031 53.96875 -9.34375 C 51.257812 -5.863281 48.140625 -3.21875 44.609375 -1.40625 C 41.085938 0.394531 37.523438 1.296875 33.921875 1.296875 C 30.304688 1.296875 26.757812 0.394531 23.28125 -1.40625 C 19.800781 -3.21875 16.679688 -5.863281 13.921875 -9.34375 C 11.171875 -12.832031 8.957031 -17.132812 7.28125 -22.25 C 5.601562 -27.363281 4.765625 -33.273438 4.765625 -39.984375 Z M 54.9375 -36.625 C 54.9375 -42.8125 54.25 -48.289062 52.875 -53.0625 C 51.5 -57.84375 49.710938 -61.84375 47.515625 -65.0625 C 45.328125 -68.289062 42.835938 -70.742188 40.046875 -72.421875 C 37.253906 -74.097656 34.394531 -74.9375 31.46875 -74.9375 C 28.539062 -74.9375 25.894531 -74.097656 23.53125 -72.421875 C 21.164062 -70.742188 19.164062 -68.523438 17.53125 -65.765625 C 15.90625 -63.015625 14.640625 -59.832031 13.734375 -56.21875 C 12.828125 -52.613281 12.375 -48.832031 12.375 -44.875 C 12.375 -40.144531 12.929688 -35.351562 14.046875 -30.5 C 15.171875 -25.644531 16.765625 -21.257812 18.828125 -17.34375 C 20.890625 -13.4375 23.359375 -10.234375 26.234375 -7.734375 C 29.117188 -5.242188 32.28125 -4 35.71875 -4 C 38.21875 -4 40.625 -4.707031 42.9375 -6.125 C 45.257812 -7.539062 47.300781 -9.625 49.0625 -12.375 C 50.832031 -15.132812 52.253906 -18.53125 53.328125 -22.5625 C 54.398438 -26.601562 54.9375 -31.289062 54.9375 -36.625 Z M 54.9375 -36.625 "></path></g></g></g><g fill="#000000" fill-opacity="1"><g transform="translate(203.892662, 108.921839)"><g><path d="M 4.765625 -39.984375 C 4.765625 -46.597656 5.601562 -52.441406 7.28125 -57.515625 C 8.957031 -62.585938 11.171875 -66.820312 13.921875 -70.21875 C 16.679688 -73.613281 19.800781 -76.191406 23.28125 -77.953125 C 26.757812 -79.722656 30.304688 -80.609375 33.921875 -80.609375 C 37.523438 -80.609375 41.085938 -79.722656 44.609375 -77.953125 C 48.140625 -76.191406 51.257812 -73.613281 53.96875 -70.21875 C 56.675781 -66.820312 58.867188 -62.585938 60.546875 -57.515625 C 62.222656 -52.441406 63.0625 -46.597656 63.0625 -39.984375 C 63.0625 -33.273438 62.222656 -27.363281 60.546875 -22.25 C 58.867188 -17.132812 56.675781 -12.832031 53.96875 -9.34375 C 51.257812 -5.863281 48.140625 -3.21875 44.609375 -1.40625 C 41.085938 0.394531 37.523438 1.296875 33.921875 1.296875 C 30.304688 1.296875 26.757812 0.394531 23.28125 -1.40625 C 19.800781 -3.21875 16.679688 -5.863281 13.921875 -9.34375 C 11.171875 -12.832031 8.957031 -17.132812 7.28125 -22.25 C 5.601562 -27.363281 4.765625 -33.273438 4.765625 -39.984375 Z M 54.9375 -36.625 C 54.9375 -42.8125 54.25 -48.289062 52.875 -53.0625 C 51.5 -57.84375 49.710938 -61.84375 47.515625 -65.0625 C 45.328125 -68.289062 42.835938 -70.742188 40.046875 -72.421875 C 37.253906 -74.097656 34.394531 -74.9375 31.46875 -74.9375 C 28.539062 -74.9375 25.894531 -74.097656 23.53125 -72.421875 C 21.164062 -70.742188 19.164062 -68.523438 17.53125 -65.765625 C 15.90625 -63.015625 14.640625 -59.832031 13.734375 -56.21875 C 12.828125 -52.613281 12.375 -48.832031 12.375 -44.875 C 12.375 -40.144531 12.929688 -35.351562 14.046875 -30.5 C 15.171875 -25.644531 16.765625 -21.257812 18.828125 -17.34375 C 20.890625 -13.4375 23.359375 -10.234375 26.234375 -7.734375 C 29.117188 -5.242188 32.28125 -4 35.71875 -4 C 38.21875 -4 40.625 -4.707031 42.9375 -6.125 C 45.257812 -7.539062 47.300781 -9.625 49.0625 -12.375 C 50.832031 -15.132812 52.253906 -18.53125 53.328125 -22.5625 C 54.398438 -26.601562 54.9375 -31.289062 54.9375 -36.625 Z M 54.9375 -36.625 "></path></g></g></g></g></g></svg> 