<?xml version="1.0" encoding="UTF-8"?> <svg xmlns="http://www.w3.org/2000/svg" xmlns:xlink="http://www.w3.org/1999/xlink" width="360" zoomAndPan="magnify" viewBox="0 0 270 359.999987" height="480" preserveAspectRatio="xMidYMid meet" version="1.0"><defs><g></g><clipPath id="ce14c40dad"><rect x="0" width="172" y="0" height="288"></rect></clipPath></defs><g transform="matrix(1, 0, 0, 1, 51, 36)"><g clip-path="url(#ce14c40dad)"><g fill="#666666" fill-opacity="1"><g transform="translate(1.717962, 216.719731)"><g><path d="M 163.9375 -2.84375 C 164.570312 -2.6875 164.847656 -2.171875 164.765625 -1.296875 C 164.691406 -0.429688 164.414062 0 163.9375 0 L 141.609375 0 C 133.679688 0 121.957031 -6.175781 106.4375 -18.53125 C 93.613281 -4.28125 77.457031 2.84375 57.96875 2.84375 C 48.46875 2.84375 40.507812 1.179688 34.09375 -2.140625 C 27.675781 -5.460938 22.921875 -9.851562 19.828125 -15.3125 C 16.742188 -20.78125 15.203125 -26.6875 15.203125 -33.03125 C 15.203125 -42.375 18.050781 -50.53125 23.75 -57.5 C 29.457031 -64.46875 37.617188 -71.753906 48.234375 -79.359375 C 45.378906 -83.796875 43.082031 -87.832031 41.34375 -91.46875 C 36.90625 -101.601562 34.6875 -110.238281 34.6875 -117.375 C 34.6875 -123.707031 36.3125 -129.644531 39.5625 -135.1875 C 42.8125 -140.726562 47.285156 -145.160156 52.984375 -148.484375 C 58.679688 -151.816406 65.175781 -153.484375 72.46875 -153.484375 C 79.59375 -153.484375 85.847656 -151.738281 91.234375 -148.25 C 96.617188 -144.769531 99.3125 -138.675781 99.3125 -129.96875 C 99.3125 -123.789062 97.765625 -118.207031 94.671875 -113.21875 C 91.585938 -108.226562 87.785156 -103.910156 83.265625 -100.265625 C 78.753906 -96.617188 72.539062 -92.101562 64.625 -86.71875 L 59.640625 -83.390625 C 71.359375 -65.015625 88.460938 -47.273438 110.953125 -30.171875 C 117.765625 -41.265625 121.171875 -52.988281 121.171875 -65.34375 C 121.171875 -70.25 120.097656 -73.925781 117.953125 -76.375 C 115.816406 -78.832031 111.425781 -80.0625 104.78125 -80.0625 C 104.300781 -80.0625 104.019531 -80.535156 103.9375 -81.484375 C 103.863281 -82.441406 104.144531 -82.921875 104.78125 -82.921875 L 152.765625 -83.15625 C 153.398438 -83.15625 153.71875 -82.679688 153.71875 -81.734375 C 153.71875 -80.785156 153.398438 -80.3125 152.765625 -80.3125 C 147.222656 -80.3125 143.066406 -79.832031 140.296875 -78.875 C 137.523438 -77.925781 135.582031 -76.582031 134.46875 -74.84375 C 133.363281 -73.101562 132.335938 -70.566406 131.390625 -67.234375 C 127.109375 -52.035156 121.328125 -38.96875 114.046875 -28.03125 C 123.390625 -21.21875 132.414062 -15.632812 141.125 -11.28125 C 149.84375 -6.925781 157.445312 -4.113281 163.9375 -2.84375 Z M 46.09375 -124.734375 C 46.09375 -112.859375 50.050781 -100.03125 57.96875 -86.25 C 67.632812 -93.0625 75.039062 -99.472656 80.1875 -105.484375 C 85.332031 -111.503906 87.90625 -118.476562 87.90625 -126.40625 C 87.90625 -133.53125 86.003906 -139.070312 82.203125 -143.03125 C 78.398438 -146.988281 73.175781 -148.96875 66.53125 -148.96875 C 60.03125 -148.96875 55 -146.988281 51.4375 -143.03125 C 47.875 -139.070312 46.09375 -132.972656 46.09375 -124.734375 Z M 66.765625 -3.09375 C 73.890625 -3.09375 80.617188 -4.632812 86.953125 -7.71875 C 93.296875 -10.8125 98.921875 -15.128906 103.828125 -20.671875 L 101.21875 -22.8125 C 91.394531 -30.570312 82.007812 -39.125 73.0625 -48.46875 C 64.113281 -57.8125 56.46875 -67.15625 50.125 -76.5 C 43.15625 -71.28125 37.726562 -65.773438 33.84375 -59.984375 C 29.96875 -54.203125 28.03125 -47.515625 28.03125 -39.921875 C 28.03125 -33.109375 29.734375 -26.890625 33.140625 -21.265625 C 36.546875 -15.640625 41.175781 -11.203125 47.03125 -7.953125 C 52.894531 -4.710938 59.472656 -3.09375 66.765625 -3.09375 Z M 66.765625 -3.09375 "></path></g></g></g></g></g></svg> 