<?xml version="1.0" encoding="UTF-8"?> <svg xmlns="http://www.w3.org/2000/svg" xmlns:xlink="http://www.w3.org/1999/xlink" width="360" zoomAndPan="magnify" viewBox="0 0 270 359.999987" height="480" preserveAspectRatio="xMidYMid meet" version="1.0"><defs><g></g><clipPath id="cf297eb717"><rect x="0" width="257" y="0" height="88"></rect></clipPath><clipPath id="6189f3aa91"><path d="M 89.835938 181.34375 L 92.503906 181.34375 L 92.503906 186.160156 L 89.835938 186.160156 Z M 89.835938 181.34375 " clip-rule="nonzero"></path></clipPath><clipPath id="650abacbb7"><path d="M 90.0625 181.609375 C 91.671875 182.027344 91.84375 182.238281 92.019531 182.589844 C 92.265625 183.21875 92.578125 184.863281 92.40625 185.457031 C 92.300781 185.808594 92.054688 186.121094 91.808594 186.15625 C 91.601562 186.191406 91.214844 185.984375 91.074219 185.703125 C 90.796875 185.28125 90.9375 184.09375 91.074219 183.359375 C 91.214844 182.660156 91.496094 181.574219 91.84375 181.398438 C 92.019531 181.292969 92.441406 181.398438 92.476562 181.46875 C 92.511719 181.574219 92.195312 181.960938 92.089844 181.925781 C 91.984375 181.925781 91.773438 181.503906 91.808594 181.433594 C 91.878906 181.328125 92.371094 181.328125 92.476562 181.433594 C 92.613281 181.714844 91.914062 182.765625 91.773438 183.464844 C 91.671875 184.128906 91.773438 185.457031 91.707031 185.457031 C 91.636719 185.457031 91.636719 183.429688 91.355469 182.902344 C 91.25 182.625 91.074219 182.449219 90.867188 182.34375 C 90.585938 182.203125 89.957031 182.378906 89.851562 182.203125 C 89.78125 182.097656 90.0625 181.609375 90.0625 181.609375 " clip-rule="nonzero"></path></clipPath><clipPath id="ed804f494c"><path d="M 0.835938 0.34375 L 3.503906 0.34375 L 3.503906 5.160156 L 0.835938 5.160156 Z M 0.835938 0.34375 " clip-rule="nonzero"></path></clipPath><clipPath id="801a3c9910"><path d="M 1.0625 0.609375 C 2.671875 1.027344 2.84375 1.238281 3.019531 1.589844 C 3.265625 2.21875 3.578125 3.863281 3.40625 4.457031 C 3.300781 4.808594 3.054688 5.121094 2.808594 5.15625 C 2.601562 5.191406 2.214844 4.984375 2.074219 4.703125 C 1.796875 4.28125 1.9375 3.09375 2.074219 2.359375 C 2.214844 1.660156 2.496094 0.574219 2.84375 0.398438 C 3.019531 0.292969 3.441406 0.398438 3.476562 0.46875 C 3.511719 0.574219 3.195312 0.960938 3.089844 0.925781 C 2.984375 0.925781 2.773438 0.503906 2.808594 0.433594 C 2.878906 0.328125 3.371094 0.328125 3.476562 0.433594 C 3.613281 0.714844 2.914062 1.765625 2.773438 2.464844 C 2.671875 3.128906 2.773438 4.457031 2.707031 4.457031 C 2.636719 4.457031 2.636719 2.429688 2.355469 1.902344 C 2.25 1.625 2.074219 1.449219 1.867188 1.34375 C 1.585938 1.203125 0.957031 1.378906 0.851562 1.203125 C 0.78125 1.097656 1.0625 0.609375 1.0625 0.609375 " clip-rule="nonzero"></path></clipPath><clipPath id="e0c1df5a6a"><rect x="0" width="4" y="0" height="6"></rect></clipPath></defs><g transform="matrix(1, 0, 0, 1, -0, 136)"><g clip-path="url(#cf297eb717)"><g fill="#000000" fill-opacity="1"><g transform="translate(14.837953, 50.872291)"><g><path d="M 53.890625 -38.765625 C 54.117188 -38.953125 54.304688 -38.910156 54.453125 -38.640625 C 54.609375 -38.378906 54.570312 -38.15625 54.34375 -37.96875 C 52.570312 -36.644531 50.828125 -35.253906 49.109375 -33.796875 C 47.390625 -32.347656 45.773438 -30.789062 44.265625 -29.125 C 41.804688 -26.40625 39.675781 -23.421875 37.875 -20.171875 C 36.082031 -16.921875 34.625 -13.5625 33.5 -10.09375 C 32.8125 -7.96875 32.257812 -5.800781 31.84375 -3.59375 C 31.425781 -1.382812 31.203125 0.832031 31.171875 3.0625 C 31.097656 5.21875 31.265625 7.351562 31.671875 9.46875 C 31.753906 9.957031 31.859375 10.460938 31.984375 10.984375 C 32.117188 11.515625 32.265625 12.046875 32.421875 12.578125 C 32.566406 13.066406 32.710938 13.566406 32.859375 14.078125 C 33.015625 14.585938 33.207031 15.109375 33.4375 15.640625 C 33.507812 15.828125 33.453125 15.976562 33.265625 16.09375 C 33.078125 16.207031 32.945312 16.171875 32.875 15.984375 C 32.601562 15.410156 32.351562 14.84375 32.125 14.28125 C 31.90625 13.71875 31.703125 13.132812 31.515625 12.53125 C 31.171875 11.320312 30.882812 10.128906 30.65625 8.953125 C 30.28125 6.492188 30.164062 4.054688 30.3125 1.640625 C 30.425781 -0.660156 30.726562 -2.941406 31.21875 -5.203125 C 31.71875 -7.472656 32.363281 -9.6875 33.15625 -11.84375 C 33.789062 -13.65625 34.523438 -15.445312 35.359375 -17.21875 C 36.191406 -19 37.097656 -20.703125 38.078125 -22.328125 C 38.722656 -23.304688 39.375 -24.273438 40.03125 -25.234375 C 40.695312 -26.203125 41.390625 -27.125 42.109375 -28 C 40.179688 -26.257812 38.289062 -24.472656 36.4375 -22.640625 C 34.582031 -20.804688 32.769531 -18.945312 31 -17.0625 C 28.65625 -14.601562 26.335938 -12.097656 24.046875 -9.546875 C 21.765625 -6.992188 19.566406 -4.378906 17.453125 -1.703125 C 17.265625 -1.472656 17.066406 -1.460938 16.859375 -1.671875 C 16.648438 -1.878906 16.625 -2.097656 16.78125 -2.328125 C 17.082031 -2.660156 17.351562 -3.003906 17.59375 -3.359375 C 17.84375 -3.722656 18.097656 -4.078125 18.359375 -4.421875 C 22.472656 -10.085938 25.476562 -16.285156 27.375 -23.015625 C 27.601562 -23.835938 27.828125 -24.675781 28.046875 -25.53125 C 28.273438 -26.382812 28.425781 -27.222656 28.5 -28.046875 C 28.582031 -28.734375 28.519531 -29.382812 28.3125 -30 C 28.101562 -30.625 27.675781 -31.109375 27.03125 -31.453125 C 26.539062 -31.753906 25.984375 -31.90625 25.359375 -31.90625 C 24.734375 -31.90625 24.15625 -31.847656 23.625 -31.734375 C 23.019531 -31.660156 22.414062 -31.507812 21.8125 -31.28125 C 21.207031 -31.050781 20.625 -30.785156 20.0625 -30.484375 C 19.570312 -30.222656 19.082031 -29.929688 18.59375 -29.609375 C 18.101562 -29.285156 17.628906 -28.957031 17.171875 -28.625 C 17.054688 -28.28125 16.953125 -27.9375 16.859375 -27.59375 C 16.765625 -27.257812 16.660156 -26.921875 16.546875 -26.578125 C 15.296875 -22.648438 13.726562 -18.816406 11.84375 -15.078125 C 11.007812 -13.378906 10.101562 -11.707031 9.125 -10.0625 C 8.144531 -8.414062 7.101562 -6.816406 6 -5.265625 C 5.09375 -4.054688 4.054688 -2.835938 2.890625 -1.609375 C 1.722656 -0.378906 0.363281 0.382812 -1.1875 0.6875 C -1.375 0.757812 -1.546875 0.71875 -1.703125 0.5625 C -1.773438 0.445312 -1.847656 0.332031 -1.921875 0.21875 C -2.003906 0.113281 -2.082031 -0.015625 -2.15625 -0.171875 C -2.488281 -0.847656 -2.632812 -1.5625 -2.59375 -2.3125 C -2.5625 -3.070312 -2.472656 -3.8125 -2.328125 -4.53125 C -2.054688 -5.507812 -1.710938 -6.476562 -1.296875 -7.4375 C -0.890625 -8.40625 -0.4375 -9.363281 0.0625 -10.3125 C 1.300781 -12.65625 2.742188 -14.898438 4.390625 -17.046875 C 6.035156 -19.203125 7.785156 -21.242188 9.640625 -23.171875 C 10.578125 -24.160156 11.546875 -25.113281 12.546875 -26.03125 C 13.546875 -26.957031 14.597656 -27.835938 15.703125 -28.671875 C 15.816406 -28.785156 15.9375 -28.890625 16.0625 -28.984375 C 16.195312 -29.078125 16.320312 -29.164062 16.4375 -29.25 C 16.882812 -30.863281 17.28125 -32.46875 17.625 -34.0625 C 17.738281 -34.78125 17.8125 -35.5 17.84375 -36.21875 C 17.882812 -36.9375 17.8125 -37.648438 17.625 -38.359375 C 17.46875 -39.117188 17.125 -39.753906 16.59375 -40.265625 C 16.070312 -40.773438 15.429688 -41.066406 14.671875 -41.140625 C 13.734375 -41.210938 12.828125 -41.070312 11.953125 -40.71875 C 11.085938 -40.363281 10.257812 -39.976562 9.46875 -39.5625 C 6.40625 -38.050781 3.492188 -36.179688 0.734375 -33.953125 C -1.984375 -31.722656 -4.421875 -29.265625 -6.578125 -26.578125 C -7.710938 -25.179688 -8.78125 -23.707031 -9.78125 -22.15625 C -10.78125 -20.601562 -11.617188 -19 -12.296875 -17.34375 C -12.671875 -16.46875 -12.972656 -15.554688 -13.203125 -14.609375 C -13.429688 -13.671875 -13.523438 -12.710938 -13.484375 -11.734375 C -13.410156 -10.066406 -12.882812 -8.59375 -11.90625 -7.3125 C -11.300781 -6.550781 -10.570312 -5.914062 -9.71875 -5.40625 C -8.863281 -4.894531 -7.960938 -4.613281 -7.015625 -4.5625 C -6.078125 -4.507812 -5.191406 -4.765625 -4.359375 -5.328125 C -4.285156 -5.367188 -4.226562 -5.359375 -4.1875 -5.296875 C -4.15625 -5.242188 -4.175781 -5.195312 -4.25 -5.15625 C -4.738281 -4.78125 -5.34375 -4.535156 -6.0625 -4.421875 C -7.457031 -4.191406 -8.828125 -4.460938 -10.171875 -5.234375 C -11.515625 -6.015625 -12.503906 -6.988281 -13.140625 -8.15625 C -13.742188 -9.289062 -14.066406 -10.488281 -14.109375 -11.75 C -14.148438 -13.019531 -13.988281 -14.285156 -13.625 -15.546875 C -13.269531 -16.816406 -12.828125 -18 -12.296875 -19.09375 C -11.503906 -20.757812 -10.566406 -22.375 -9.484375 -23.9375 C -8.410156 -25.507812 -7.269531 -26.992188 -6.0625 -28.390625 C -3.601562 -31.265625 -0.921875 -33.757812 1.984375 -35.875 C 3.453125 -37.007812 4.984375 -38.03125 6.578125 -38.9375 C 7.410156 -39.425781 8.238281 -39.882812 9.0625 -40.3125 C 9.894531 -40.75 10.75 -41.140625 11.625 -41.484375 C 12.488281 -41.785156 13.382812 -41.953125 14.3125 -41.984375 C 15.238281 -42.023438 16.078125 -41.742188 16.828125 -41.140625 C 17.429688 -40.691406 17.875 -40.132812 18.15625 -39.46875 C 18.445312 -38.8125 18.609375 -38.125 18.640625 -37.40625 C 18.722656 -36.613281 18.710938 -35.816406 18.609375 -35.015625 C 18.515625 -34.222656 18.375 -33.429688 18.1875 -32.640625 C 18.070312 -32.222656 17.96875 -31.785156 17.875 -31.328125 C 17.78125 -30.878906 17.675781 -30.445312 17.5625 -30.03125 C 18.28125 -30.519531 19.015625 -30.960938 19.765625 -31.359375 C 20.523438 -31.765625 21.320312 -32.097656 22.15625 -32.359375 C 22.914062 -32.585938 23.726562 -32.738281 24.59375 -32.8125 C 25.46875 -32.882812 26.300781 -32.789062 27.09375 -32.53125 C 27.882812 -32.269531 28.503906 -31.738281 28.953125 -30.9375 C 29.410156 -30.1875 29.597656 -29.382812 29.515625 -28.53125 C 29.441406 -27.6875 29.3125 -26.847656 29.125 -26.015625 C 28.9375 -25.109375 28.71875 -24.207031 28.46875 -23.3125 C 28.226562 -22.425781 27.957031 -21.550781 27.65625 -20.6875 C 26.332031 -16.601562 24.632812 -12.769531 22.5625 -9.1875 C 22.863281 -9.488281 23.144531 -9.796875 23.40625 -10.109375 C 23.664062 -10.429688 23.929688 -10.742188 24.203125 -11.046875 C 26.503906 -13.617188 28.84375 -16.140625 31.21875 -18.609375 C 33.601562 -21.085938 36.039062 -23.519531 38.53125 -25.90625 C 40.945312 -28.207031 43.429688 -30.429688 45.984375 -32.578125 C 48.535156 -34.734375 51.171875 -36.796875 53.890625 -38.765625 Z M 12.078125 -17.5625 C 13.660156 -20.851562 14.960938 -24.253906 15.984375 -27.765625 C 14.660156 -26.742188 13.394531 -25.640625 12.1875 -24.453125 C 10.976562 -23.265625 9.828125 -22.066406 8.734375 -20.859375 C 7.109375 -19.003906 5.554688 -17.046875 4.078125 -14.984375 C 2.609375 -12.929688 1.328125 -10.789062 0.234375 -8.5625 C -0.148438 -7.726562 -0.5 -6.882812 -0.8125 -6.03125 C -1.132812 -5.1875 -1.375 -4.3125 -1.53125 -3.40625 C -1.570312 -3.101562 -1.597656 -2.78125 -1.609375 -2.4375 C -1.628906 -2.09375 -1.625 -1.769531 -1.59375 -1.46875 C -1.550781 -1.050781 -1.398438 -0.65625 -1.140625 -0.28125 C -0.867188 -0.351562 -0.617188 -0.4375 -0.390625 -0.53125 C -0.171875 -0.632812 0.0507812 -0.757812 0.28125 -0.90625 C 0.957031 -1.28125 1.570312 -1.722656 2.125 -2.234375 C 2.675781 -2.742188 3.195312 -3.285156 3.6875 -3.859375 C 4.25 -4.492188 4.773438 -5.148438 5.265625 -5.828125 C 5.753906 -6.515625 6.226562 -7.21875 6.6875 -7.9375 C 7.664062 -9.476562 8.609375 -11.050781 9.515625 -12.65625 C 10.421875 -14.269531 11.273438 -15.90625 12.078125 -17.5625 Z M 12.078125 -17.5625 "></path></g></g></g><g fill="#000000" fill-opacity="1"><g transform="translate(59.782842, 50.872291)"><g><path d="M 21.1875 -10.03125 C 21.382812 -10.101562 21.507812 -10.0625 21.5625 -9.90625 C 21.625 -9.757812 21.578125 -9.628906 21.421875 -9.515625 C 21.078125 -9.296875 20.707031 -9.085938 20.3125 -8.890625 C 19.914062 -8.703125 19.507812 -8.515625 19.09375 -8.328125 C 18.71875 -8.179688 18.347656 -8.019531 17.984375 -7.84375 C 17.628906 -7.675781 17.265625 -7.519531 16.890625 -7.375 C 16.171875 -7.101562 15.460938 -6.875 14.765625 -6.6875 C 14.066406 -6.5 13.335938 -6.367188 12.578125 -6.296875 C 11.972656 -6.210938 11.320312 -6.171875 10.625 -6.171875 C 9.925781 -6.171875 9.273438 -6.304688 8.671875 -6.578125 C 8.023438 -6.878906 7.65625 -7.320312 7.5625 -7.90625 C 7.46875 -8.488281 7.554688 -9.082031 7.828125 -9.6875 C 7.410156 -9.351562 6.984375 -9.035156 6.546875 -8.734375 C 6.109375 -8.429688 5.664062 -8.128906 5.21875 -7.828125 C 4.3125 -7.328125 3.421875 -6.945312 2.546875 -6.6875 C 2.097656 -6.570312 1.625 -6.46875 1.125 -6.375 C 0.632812 -6.28125 0.144531 -6.289062 -0.34375 -6.40625 C -1.0625 -6.59375 -1.472656 -6.941406 -1.578125 -7.453125 C -1.691406 -7.960938 -1.625 -8.507812 -1.375 -9.09375 C -1.132812 -9.675781 -0.847656 -10.160156 -0.515625 -10.546875 C 0.734375 -11.785156 2.191406 -12.597656 3.859375 -12.984375 C 4.722656 -13.171875 5.644531 -13.265625 6.625 -13.265625 C 7.613281 -13.265625 8.351562 -12.8125 8.84375 -11.90625 C 8.84375 -11.863281 8.84375 -11.832031 8.84375 -11.8125 C 8.84375 -11.789062 8.84375 -11.765625 8.84375 -11.734375 C 8.988281 -11.878906 9.144531 -12.019531 9.3125 -12.15625 C 9.488281 -12.289062 9.648438 -12.429688 9.796875 -12.578125 C 9.835938 -12.617188 9.867188 -12.644531 9.890625 -12.65625 C 9.910156 -12.675781 9.921875 -12.6875 9.921875 -12.6875 C 10.140625 -12.882812 10.34375 -12.882812 10.53125 -12.6875 C 10.726562 -12.5 10.734375 -12.3125 10.546875 -12.125 C 10.503906 -12.007812 10.425781 -11.9375 10.3125 -11.90625 C 9.820312 -11.488281 9.382812 -10.957031 9 -10.3125 C 8.625 -9.664062 8.421875 -9.023438 8.390625 -8.390625 C 8.390625 -7.859375 8.601562 -7.5 9.03125 -7.3125 C 9.46875 -7.125 9.957031 -7.035156 10.5 -7.046875 C 11.050781 -7.066406 11.5 -7.097656 11.84375 -7.140625 C 12.675781 -7.210938 13.488281 -7.351562 14.28125 -7.5625 C 15.070312 -7.769531 15.847656 -8.007812 16.609375 -8.28125 C 17.023438 -8.425781 17.421875 -8.570312 17.796875 -8.71875 C 18.171875 -8.875 18.546875 -9.03125 18.921875 -9.1875 C 19.304688 -9.332031 19.6875 -9.488281 20.0625 -9.65625 C 20.4375 -9.832031 20.8125 -9.957031 21.1875 -10.03125 Z M 1.59375 -7.3125 C 3.019531 -7.613281 4.300781 -8.175781 5.4375 -9 C 6.570312 -9.832031 7.671875 -10.722656 8.734375 -11.671875 C 8.648438 -11.597656 8.59375 -11.617188 8.5625 -11.734375 C 8.257812 -12.148438 7.867188 -12.410156 7.390625 -12.515625 C 6.921875 -12.628906 6.457031 -12.671875 6 -12.640625 C 5.507812 -12.597656 5.03125 -12.53125 4.5625 -12.4375 C 4.09375 -12.34375 3.648438 -12.222656 3.234375 -12.078125 C 2.585938 -11.847656 1.953125 -11.523438 1.328125 -11.109375 C 0.703125 -10.691406 0.179688 -10.203125 -0.234375 -9.640625 C -0.421875 -9.367188 -0.609375 -9.023438 -0.796875 -8.609375 C -0.984375 -8.191406 -0.960938 -7.832031 -0.734375 -7.53125 C -0.503906 -7.195312 -0.144531 -7.054688 0.34375 -7.109375 C 0.832031 -7.171875 1.25 -7.238281 1.59375 -7.3125 Z M 1.59375 -7.3125 "></path></g></g></g><g fill="#000000" fill-opacity="1"><g transform="translate(81.093402, 50.872291)"><g><path d="M 20.859375 -9.796875 C 21.003906 -9.878906 21.132812 -9.851562 21.25 -9.71875 C 21.363281 -9.582031 21.34375 -9.457031 21.1875 -9.34375 C 19.570312 -7.988281 17.78125 -6.914062 15.8125 -6.125 C 14.976562 -5.78125 14.097656 -5.503906 13.171875 -5.296875 C 12.242188 -5.085938 11.328125 -5.003906 10.421875 -5.046875 C 9.703125 -5.078125 9.015625 -5.269531 8.359375 -5.625 C 7.703125 -5.988281 7.273438 -6.550781 7.078125 -7.3125 C 6.929688 -7.914062 6.941406 -8.519531 7.109375 -9.125 C 7.285156 -9.726562 7.503906 -10.296875 7.765625 -10.828125 C 7.273438 -10.640625 6.742188 -10.46875 6.171875 -10.3125 C 5.609375 -10.164062 5.0625 -10.035156 4.53125 -9.921875 C 3.8125 -9.765625 3.09375 -9.59375 2.375 -9.40625 C 1.65625 -9.21875 0.976562 -8.9375 0.34375 -8.5625 C 0.1875 -8.476562 0.046875 -8.378906 -0.078125 -8.265625 C -0.210938 -8.160156 -0.359375 -8.050781 -0.515625 -7.9375 C -0.773438 -7.5625 -1.019531 -7.15625 -1.25 -6.71875 C -1.476562 -6.28125 -1.703125 -5.851562 -1.921875 -5.4375 C -2.035156 -5.289062 -2.210938 -5.234375 -2.453125 -5.265625 C -2.703125 -5.304688 -2.8125 -5.441406 -2.78125 -5.671875 C -2.695312 -6.347656 -2.492188 -6.941406 -2.171875 -7.453125 C -1.859375 -7.960938 -1.457031 -8.40625 -0.96875 -8.78125 C -0.78125 -9.050781 -0.597656 -9.316406 -0.421875 -9.578125 C -0.253906 -9.835938 -0.09375 -10.101562 0.0625 -10.375 C 0.28125 -10.75 0.503906 -11.125 0.734375 -11.5 C 0.960938 -11.882812 1.207031 -12.265625 1.46875 -12.640625 C 1.582031 -12.828125 1.695312 -13.015625 1.8125 -13.203125 C 1.925781 -13.390625 2.039062 -13.578125 2.15625 -13.765625 C 2.269531 -13.921875 2.375 -14.082031 2.46875 -14.25 C 2.5625 -14.425781 2.679688 -14.566406 2.828125 -14.671875 C 2.910156 -14.753906 3 -14.773438 3.09375 -14.734375 C 3.1875 -14.691406 3.210938 -14.617188 3.171875 -14.515625 C 3.128906 -14.316406 3.0625 -14.125 2.96875 -13.9375 C 2.875 -13.75 2.769531 -13.5625 2.65625 -13.375 C 2.550781 -13.1875 2.445312 -12.988281 2.34375 -12.78125 C 2.25 -12.570312 2.148438 -12.375 2.046875 -12.1875 C 1.816406 -11.8125 1.585938 -11.441406 1.359375 -11.078125 C 1.128906 -10.722656 0.90625 -10.351562 0.6875 -9.96875 C 0.601562 -9.820312 0.546875 -9.726562 0.515625 -9.6875 C 0.929688 -9.875 1.363281 -10.039062 1.8125 -10.1875 C 2.269531 -10.34375 2.6875 -10.460938 3.0625 -10.546875 C 3.851562 -10.734375 4.664062 -10.910156 5.5 -11.078125 C 6.332031 -11.242188 7.109375 -11.5 7.828125 -11.84375 C 7.972656 -11.914062 8.109375 -11.988281 8.234375 -12.0625 C 8.367188 -12.144531 8.515625 -12.222656 8.671875 -12.296875 C 8.785156 -12.523438 8.90625 -12.742188 9.03125 -12.953125 C 9.164062 -13.160156 9.289062 -13.359375 9.40625 -13.546875 C 9.632812 -13.878906 9.898438 -14.175781 10.203125 -14.4375 C 10.503906 -14.707031 10.84375 -14.921875 11.21875 -15.078125 C 11.40625 -15.148438 11.554688 -15.097656 11.671875 -14.921875 C 11.785156 -14.753906 11.804688 -14.578125 11.734375 -14.390625 C 11.128906 -13.253906 10.316406 -12.347656 9.296875 -11.671875 C 9.179688 -11.523438 9.078125 -11.363281 8.984375 -11.1875 C 8.890625 -11.019531 8.785156 -10.84375 8.671875 -10.65625 C 8.410156 -10.125 8.164062 -9.519531 7.9375 -8.84375 C 7.707031 -8.164062 7.78125 -7.519531 8.15625 -6.90625 C 8.539062 -6.34375 9.097656 -6.023438 9.828125 -5.953125 C 10.566406 -5.878906 11.238281 -5.878906 11.84375 -5.953125 C 13.507812 -6.140625 15.078125 -6.617188 16.546875 -7.390625 C 18.023438 -8.171875 19.460938 -8.972656 20.859375 -9.796875 Z M 20.859375 -9.796875 "></path></g></g></g><g fill="#000000" fill-opacity="1"><g transform="translate(103.537514, 50.872291)"><g><path d="M 22.21875 -11.109375 C 22.40625 -11.148438 22.507812 -11.082031 22.53125 -10.90625 C 22.550781 -10.738281 22.484375 -10.632812 22.328125 -10.59375 C 21.796875 -10.445312 21.265625 -10.285156 20.734375 -10.109375 C 20.210938 -9.941406 19.6875 -9.765625 19.15625 -9.578125 C 18.664062 -9.390625 18.179688 -9.179688 17.703125 -8.953125 C 17.234375 -8.722656 16.773438 -8.457031 16.328125 -8.15625 C 15.566406 -7.738281 14.835938 -7.265625 14.140625 -6.734375 C 13.441406 -6.210938 12.695312 -5.765625 11.90625 -5.390625 C 11.300781 -5.117188 10.546875 -4.914062 9.640625 -4.78125 C 8.734375 -4.65625 8.015625 -4.894531 7.484375 -5.5 C 7.253906 -5.800781 7.148438 -6.160156 7.171875 -6.578125 C 7.191406 -6.992188 7.21875 -7.390625 7.25 -7.765625 C 7.332031 -8.179688 7.445312 -8.585938 7.59375 -8.984375 C 7.75 -9.378906 7.898438 -9.765625 8.046875 -10.140625 C 8.234375 -10.523438 8.441406 -10.882812 8.671875 -11.21875 C 8.898438 -11.5625 9.125 -11.898438 9.34375 -12.234375 C 8.476562 -11.710938 7.613281 -11.335938 6.75 -11.109375 C 5.875 -10.878906 4.984375 -10.742188 4.078125 -10.703125 C 3.171875 -10.671875 2.265625 -10.710938 1.359375 -10.828125 C 1.617188 -10.441406 1.796875 -10.015625 1.890625 -9.546875 C 1.992188 -9.078125 1.96875 -8.613281 1.8125 -8.15625 C 1.664062 -7.550781 1.363281 -7.015625 0.90625 -6.546875 C 0.457031 -6.078125 -0.0703125 -5.742188 -0.6875 -5.546875 C -1.394531 -5.359375 -1.863281 -5.566406 -2.09375 -6.171875 C -2.25 -6.472656 -2.296875 -6.785156 -2.234375 -7.109375 C -2.179688 -7.429688 -2.132812 -7.742188 -2.09375 -8.046875 C -1.757812 -9.597656 -1.035156 -10.9375 0.078125 -12.0625 C 1.191406 -13.195312 2.359375 -14.203125 3.578125 -15.078125 C 3.679688 -15.148438 3.769531 -15.128906 3.84375 -15.015625 C 3.925781 -14.898438 3.929688 -14.785156 3.859375 -14.671875 C 3.328125 -14.222656 2.773438 -13.753906 2.203125 -13.265625 C 1.640625 -12.773438 1.113281 -12.265625 0.625 -11.734375 C 1.601562 -11.546875 2.617188 -11.457031 3.671875 -11.46875 C 4.734375 -11.488281 5.738281 -11.632812 6.6875 -11.90625 C 7.550781 -12.125 8.351562 -12.476562 9.09375 -12.96875 C 9.832031 -13.46875 10.5625 -13.984375 11.28125 -14.515625 C 11.46875 -14.660156 11.625 -14.640625 11.75 -14.453125 C 11.882812 -14.265625 11.878906 -14.09375 11.734375 -13.9375 C 11.128906 -13.257812 10.539062 -12.550781 9.96875 -11.8125 C 9.40625 -11.082031 8.914062 -10.300781 8.5 -9.46875 C 8.125 -8.675781 7.914062 -7.921875 7.875 -7.203125 C 7.84375 -6.972656 7.828125 -6.753906 7.828125 -6.546875 C 7.828125 -6.335938 7.898438 -6.140625 8.046875 -5.953125 C 8.304688 -5.648438 8.664062 -5.5 9.125 -5.5 C 9.914062 -5.457031 10.671875 -5.613281 11.390625 -5.96875 C 12.109375 -6.332031 12.769531 -6.722656 13.375 -7.140625 C 14.050781 -7.597656 14.726562 -8.050781 15.40625 -8.5 C 16.09375 -8.957031 16.796875 -9.351562 17.515625 -9.6875 C 18.265625 -10.03125 19.023438 -10.34375 19.796875 -10.625 C 20.578125 -10.90625 21.382812 -11.066406 22.21875 -11.109375 Z M 0.90625 -7.703125 C 1.25 -8.304688 1.34375 -8.929688 1.1875 -9.578125 C 1.039062 -10.222656 0.664062 -10.734375 0.0625 -11.109375 C -0.351562 -10.578125 -0.710938 -10.007812 -1.015625 -9.40625 C -1.316406 -8.800781 -1.507812 -8.125 -1.59375 -7.375 C -1.59375 -7.21875 -1.59375 -7.0625 -1.59375 -6.90625 C -1.59375 -6.757812 -1.570312 -6.59375 -1.53125 -6.40625 C -1.414062 -6.21875 -1.253906 -6.140625 -1.046875 -6.171875 C -0.835938 -6.210938 -0.660156 -6.269531 -0.515625 -6.34375 C 0.171875 -6.644531 0.644531 -7.097656 0.90625 -7.703125 Z M 0.90625 -7.703125 "></path></g></g></g><g fill="#000000" fill-opacity="1"><g transform="translate(126.094974, 50.872291)"><g><path d="M 25.453125 -10.875 C 25.597656 -10.957031 25.695312 -10.929688 25.75 -10.796875 C 25.8125 -10.660156 25.785156 -10.554688 25.671875 -10.484375 C 23.671875 -9.046875 21.5 -7.835938 19.15625 -6.859375 C 18.4375 -6.554688 17.6875 -6.28125 16.90625 -6.03125 C 16.132812 -5.789062 15.375 -5.613281 14.625 -5.5 C 13.9375 -5.382812 13.242188 -5.328125 12.546875 -5.328125 C 11.847656 -5.328125 11.195312 -5.5 10.59375 -5.84375 C 9.84375 -6.21875 9.34375 -6.78125 9.09375 -7.53125 C 8.851562 -8.289062 8.769531 -9.066406 8.84375 -9.859375 C 8.914062 -10.460938 9.03125 -11.007812 9.1875 -11.5 C 9.03125 -11.351562 8.894531 -11.210938 8.78125 -11.078125 C 8.664062 -10.941406 8.535156 -10.800781 8.390625 -10.65625 C 7.296875 -9.445312 6.125 -8.40625 4.875 -7.53125 C 4.34375 -7.15625 3.773438 -6.804688 3.171875 -6.484375 C 2.566406 -6.160156 1.941406 -5.925781 1.296875 -5.78125 C 0.691406 -5.664062 0.109375 -5.691406 -0.453125 -5.859375 C -1.015625 -6.035156 -1.410156 -6.425781 -1.640625 -7.03125 C -1.867188 -7.78125 -1.773438 -8.476562 -1.359375 -9.125 C -1.210938 -9.5 -1.003906 -9.765625 -0.734375 -9.921875 C -0.617188 -10.035156 -0.484375 -10.128906 -0.328125 -10.203125 C -0.179688 -10.273438 -0.0507812 -10.347656 0.0625 -10.421875 C 0.132812 -10.460938 0.179688 -10.460938 0.203125 -10.421875 C 0.222656 -10.390625 0.210938 -10.351562 0.171875 -10.3125 C -0.0976562 -10.050781 -0.34375 -9.769531 -0.5625 -9.46875 C -0.789062 -9.164062 -0.941406 -8.820312 -1.015625 -8.4375 C -1.097656 -8.0625 -1.082031 -7.691406 -0.96875 -7.328125 C -0.851562 -6.972656 -0.609375 -6.722656 -0.234375 -6.578125 C 0.222656 -6.421875 0.707031 -6.425781 1.21875 -6.59375 C 1.726562 -6.769531 2.171875 -6.929688 2.546875 -7.078125 C 3.117188 -7.378906 3.660156 -7.707031 4.171875 -8.0625 C 4.679688 -8.425781 5.179688 -8.816406 5.671875 -9.234375 C 6.691406 -10.109375 7.644531 -11.070312 8.53125 -12.125 C 9.414062 -13.1875 10.253906 -14.242188 11.046875 -15.296875 C 11.085938 -15.335938 11.109375 -15.378906 11.109375 -15.421875 C 11.296875 -15.609375 11.503906 -15.601562 11.734375 -15.40625 C 11.960938 -15.21875 12 -15.03125 11.84375 -14.84375 C 11.65625 -14.65625 11.503906 -14.445312 11.390625 -14.21875 C 10.859375 -13.46875 10.429688 -12.640625 10.109375 -11.734375 C 9.796875 -10.828125 9.640625 -9.898438 9.640625 -8.953125 C 9.640625 -8.234375 9.84375 -7.632812 10.25 -7.15625 C 10.664062 -6.6875 11.21875 -6.378906 11.90625 -6.234375 C 12.507812 -6.117188 13.113281 -6.109375 13.71875 -6.203125 C 14.320312 -6.296875 14.925781 -6.421875 15.53125 -6.578125 C 17.300781 -7.023438 18.976562 -7.671875 20.5625 -8.515625 C 22.15625 -9.367188 23.785156 -10.15625 25.453125 -10.875 Z M 25.453125 -10.875 "></path></g></g></g><g fill="#000000" fill-opacity="1"><g transform="translate(152.449796, 50.872291)"><g><path d="M 32.984375 -9.96875 C 33.097656 -10.007812 33.160156 -9.960938 33.171875 -9.828125 C 33.191406 -9.703125 33.148438 -9.617188 33.046875 -9.578125 C 31.910156 -9.316406 30.8125 -8.910156 29.75 -8.359375 C 28.695312 -7.804688 27.660156 -7.269531 26.640625 -6.75 C 25.734375 -6.25 24.816406 -5.800781 23.890625 -5.40625 C 22.960938 -5.007812 22.007812 -4.703125 21.03125 -4.484375 C 20.269531 -4.328125 19.445312 -4.25 18.5625 -4.25 C 17.675781 -4.25 16.96875 -4.628906 16.4375 -5.390625 C 16.019531 -6.023438 15.820312 -6.765625 15.84375 -7.609375 C 15.863281 -8.460938 15.984375 -9.25 16.203125 -9.96875 C 15.597656 -9.40625 14.945312 -8.859375 14.25 -8.328125 C 13.550781 -7.796875 12.828125 -7.320312 12.078125 -6.90625 C 11.429688 -6.570312 10.710938 -6.257812 9.921875 -5.96875 C 9.128906 -5.6875 8.351562 -5.71875 7.59375 -6.0625 C 6.757812 -6.476562 6.351562 -7.109375 6.375 -7.953125 C 6.394531 -8.804688 6.535156 -9.59375 6.796875 -10.3125 C 6.867188 -10.46875 6.929688 -10.609375 6.984375 -10.734375 C 7.046875 -10.867188 7.097656 -11.015625 7.140625 -11.171875 C 6.984375 -11.015625 6.820312 -10.84375 6.65625 -10.65625 C 6.488281 -10.46875 6.3125 -10.28125 6.125 -10.09375 C 5.476562 -9.40625 4.804688 -8.738281 4.109375 -8.09375 C 3.410156 -7.457031 2.679688 -6.875 1.921875 -6.34375 C 1.316406 -5.925781 0.582031 -5.625 -0.28125 -5.4375 C -1.15625 -5.25 -1.929688 -5.363281 -2.609375 -5.78125 C -3.253906 -6.195312 -3.578125 -6.789062 -3.578125 -7.5625 C -3.578125 -8.34375 -3.382812 -8.976562 -3 -9.46875 C -2.695312 -9.84375 -2.414062 -10.050781 -2.15625 -10.09375 C -2.039062 -10.125 -1.941406 -10.101562 -1.859375 -10.03125 C -1.785156 -9.957031 -1.789062 -9.878906 -1.875 -9.796875 C -2.207031 -9.460938 -2.476562 -8.984375 -2.6875 -8.359375 C -2.894531 -7.734375 -2.8125 -7.210938 -2.4375 -6.796875 C -2.25 -6.566406 -2.003906 -6.40625 -1.703125 -6.3125 C -1.398438 -6.21875 -1.113281 -6.171875 -0.84375 -6.171875 C -0.0507812 -6.171875 0.671875 -6.394531 1.328125 -6.84375 C 1.992188 -7.300781 2.609375 -7.78125 3.171875 -8.28125 C 5.328125 -10.207031 7.21875 -12.285156 8.84375 -14.515625 C 8.957031 -14.703125 9.078125 -14.878906 9.203125 -15.046875 C 9.335938 -15.210938 9.460938 -15.375 9.578125 -15.53125 C 9.722656 -15.71875 9.898438 -15.753906 10.109375 -15.640625 C 10.316406 -15.523438 10.363281 -15.375 10.25 -15.1875 C 10.144531 -15.039062 10.035156 -14.878906 9.921875 -14.703125 C 9.804688 -14.535156 9.691406 -14.375 9.578125 -14.21875 C 8.628906 -12.820312 7.910156 -11.367188 7.421875 -9.859375 C 7.304688 -9.515625 7.210938 -9.144531 7.140625 -8.75 C 7.066406 -8.351562 7.085938 -7.96875 7.203125 -7.59375 C 7.316406 -7.25 7.523438 -6.992188 7.828125 -6.828125 C 8.128906 -6.660156 8.445312 -6.578125 8.78125 -6.578125 C 9.539062 -6.578125 10.257812 -6.773438 10.9375 -7.171875 C 11.613281 -7.566406 12.253906 -7.953125 12.859375 -8.328125 C 14.367188 -9.390625 15.710938 -10.523438 16.890625 -11.734375 C 17.535156 -13.085938 18.476562 -14.296875 19.71875 -15.359375 C 19.875 -15.503906 20.035156 -15.507812 20.203125 -15.375 C 20.367188 -15.25 20.394531 -15.09375 20.28125 -14.90625 C 19.53125 -13.582031 18.585938 -12.335938 17.453125 -11.171875 C 17.335938 -10.941406 17.234375 -10.703125 17.140625 -10.453125 C 17.046875 -10.210938 16.960938 -9.941406 16.890625 -9.640625 C 16.773438 -9.222656 16.6875 -8.703125 16.625 -8.078125 C 16.570312 -7.453125 16.617188 -6.875 16.765625 -6.34375 C 16.921875 -5.8125 17.242188 -5.4375 17.734375 -5.21875 C 18.117188 -5.0625 18.523438 -4.992188 18.953125 -5.015625 C 19.390625 -5.035156 19.796875 -5.0625 20.171875 -5.09375 C 20.960938 -5.25 21.773438 -5.476562 22.609375 -5.78125 C 23.515625 -6.125 24.398438 -6.519531 25.265625 -6.96875 C 26.140625 -7.425781 26.992188 -7.863281 27.828125 -8.28125 C 28.660156 -8.6875 29.5 -9.039062 30.34375 -9.34375 C 31.195312 -9.644531 32.078125 -9.851562 32.984375 -9.96875 Z M 32.984375 -9.96875 "></path></g></g></g><g fill="#000000" fill-opacity="1"><g transform="translate(186.796087, 50.872291)"><g><path d="M 22.21875 -11.109375 C 22.40625 -11.148438 22.507812 -11.082031 22.53125 -10.90625 C 22.550781 -10.738281 22.484375 -10.632812 22.328125 -10.59375 C 21.796875 -10.445312 21.265625 -10.285156 20.734375 -10.109375 C 20.210938 -9.941406 19.6875 -9.765625 19.15625 -9.578125 C 18.664062 -9.390625 18.179688 -9.179688 17.703125 -8.953125 C 17.234375 -8.722656 16.773438 -8.457031 16.328125 -8.15625 C 15.566406 -7.738281 14.835938 -7.265625 14.140625 -6.734375 C 13.441406 -6.210938 12.695312 -5.765625 11.90625 -5.390625 C 11.300781 -5.117188 10.546875 -4.914062 9.640625 -4.78125 C 8.734375 -4.65625 8.015625 -4.894531 7.484375 -5.5 C 7.253906 -5.800781 7.148438 -6.160156 7.171875 -6.578125 C 7.191406 -6.992188 7.21875 -7.390625 7.25 -7.765625 C 7.332031 -8.179688 7.445312 -8.585938 7.59375 -8.984375 C 7.75 -9.378906 7.898438 -9.765625 8.046875 -10.140625 C 8.234375 -10.523438 8.441406 -10.882812 8.671875 -11.21875 C 8.898438 -11.5625 9.125 -11.898438 9.34375 -12.234375 C 8.476562 -11.710938 7.613281 -11.335938 6.75 -11.109375 C 5.875 -10.878906 4.984375 -10.742188 4.078125 -10.703125 C 3.171875 -10.671875 2.265625 -10.710938 1.359375 -10.828125 C 1.617188 -10.441406 1.796875 -10.015625 1.890625 -9.546875 C 1.992188 -9.078125 1.96875 -8.613281 1.8125 -8.15625 C 1.664062 -7.550781 1.363281 -7.015625 0.90625 -6.546875 C 0.457031 -6.078125 -0.0703125 -5.742188 -0.6875 -5.546875 C -1.394531 -5.359375 -1.863281 -5.566406 -2.09375 -6.171875 C -2.25 -6.472656 -2.296875 -6.785156 -2.234375 -7.109375 C -2.179688 -7.429688 -2.132812 -7.742188 -2.09375 -8.046875 C -1.757812 -9.597656 -1.035156 -10.9375 0.078125 -12.0625 C 1.191406 -13.195312 2.359375 -14.203125 3.578125 -15.078125 C 3.679688 -15.148438 3.769531 -15.128906 3.84375 -15.015625 C 3.925781 -14.898438 3.929688 -14.785156 3.859375 -14.671875 C 3.328125 -14.222656 2.773438 -13.753906 2.203125 -13.265625 C 1.640625 -12.773438 1.113281 -12.265625 0.625 -11.734375 C 1.601562 -11.546875 2.617188 -11.457031 3.671875 -11.46875 C 4.734375 -11.488281 5.738281 -11.632812 6.6875 -11.90625 C 7.550781 -12.125 8.351562 -12.476562 9.09375 -12.96875 C 9.832031 -13.46875 10.5625 -13.984375 11.28125 -14.515625 C 11.46875 -14.660156 11.625 -14.640625 11.75 -14.453125 C 11.882812 -14.265625 11.878906 -14.09375 11.734375 -13.9375 C 11.128906 -13.257812 10.539062 -12.550781 9.96875 -11.8125 C 9.40625 -11.082031 8.914062 -10.300781 8.5 -9.46875 C 8.125 -8.675781 7.914062 -7.921875 7.875 -7.203125 C 7.84375 -6.972656 7.828125 -6.753906 7.828125 -6.546875 C 7.828125 -6.335938 7.898438 -6.140625 8.046875 -5.953125 C 8.304688 -5.648438 8.664062 -5.5 9.125 -5.5 C 9.914062 -5.457031 10.671875 -5.613281 11.390625 -5.96875 C 12.109375 -6.332031 12.769531 -6.722656 13.375 -7.140625 C 14.050781 -7.597656 14.726562 -8.050781 15.40625 -8.5 C 16.09375 -8.957031 16.796875 -9.351562 17.515625 -9.6875 C 18.265625 -10.03125 19.023438 -10.34375 19.796875 -10.625 C 20.578125 -10.90625 21.382812 -11.066406 22.21875 -11.109375 Z M 0.90625 -7.703125 C 1.25 -8.304688 1.34375 -8.929688 1.1875 -9.578125 C 1.039062 -10.222656 0.664062 -10.734375 0.0625 -11.109375 C -0.351562 -10.578125 -0.710938 -10.007812 -1.015625 -9.40625 C -1.316406 -8.800781 -1.507812 -8.125 -1.59375 -7.375 C -1.59375 -7.21875 -1.59375 -7.0625 -1.59375 -6.90625 C -1.59375 -6.757812 -1.570312 -6.59375 -1.53125 -6.40625 C -1.414062 -6.21875 -1.253906 -6.140625 -1.046875 -6.171875 C -0.835938 -6.210938 -0.660156 -6.269531 -0.515625 -6.34375 C 0.171875 -6.644531 0.644531 -7.097656 0.90625 -7.703125 Z M 0.90625 -7.703125 "></path></g></g></g><g fill="#000000" fill-opacity="1"><g transform="translate(207.6532, 50.872291)"><g><path d="M 12.53125 -13.65625 C 12.75 -13.28125 12.707031 -12.882812 12.40625 -12.46875 C 12.101562 -12.050781 11.859375 -11.710938 11.671875 -11.453125 C 11.410156 -11.066406 11.128906 -10.710938 10.828125 -10.390625 C 10.523438 -10.078125 10.203125 -9.769531 9.859375 -9.46875 C 9.210938 -8.9375 8.507812 -8.429688 7.75 -7.953125 C 7 -7.484375 6.226562 -7.132812 5.4375 -6.90625 C 4.832031 -6.757812 4.171875 -6.722656 3.453125 -6.796875 C 2.734375 -6.867188 2.28125 -7.265625 2.09375 -7.984375 C 2.0625 -8.140625 2.117188 -8.242188 2.265625 -8.296875 C 2.421875 -8.359375 2.515625 -8.332031 2.546875 -8.21875 C 2.773438 -7.6875 3.15625 -7.398438 3.6875 -7.359375 C 4.21875 -7.328125 4.753906 -7.414062 5.296875 -7.625 C 5.847656 -7.832031 6.289062 -8.007812 6.625 -8.15625 C 8.289062 -8.945312 9.726562 -10.046875 10.9375 -11.453125 C 11.050781 -11.640625 11.171875 -11.816406 11.296875 -11.984375 C 11.429688 -12.148438 11.554688 -12.3125 11.671875 -12.46875 C 11.742188 -12.539062 11.816406 -12.644531 11.890625 -12.78125 C 11.972656 -12.914062 12.015625 -13.035156 12.015625 -13.140625 C 12.015625 -13.367188 11.863281 -13.484375 11.5625 -13.484375 C 11.1875 -13.484375 10.789062 -13.414062 10.375 -13.28125 C 9.957031 -13.15625 9.5625 -13.035156 9.1875 -12.921875 C 8.425781 -12.660156 7.6875 -12.335938 6.96875 -11.953125 C 6.25 -11.578125 5.570312 -11.164062 4.9375 -10.71875 C 3.53125 -9.726562 2.28125 -8.582031 1.1875 -7.28125 C 0.09375 -5.976562 -0.882812 -4.585938 -1.75 -3.109375 C -1.976562 -2.734375 -2.195312 -2.359375 -2.40625 -1.984375 C -2.613281 -1.609375 -2.8125 -1.226562 -3 -0.84375 C -3.226562 -0.351562 -3.445312 0.148438 -3.65625 0.671875 C -3.863281 1.203125 -4.082031 1.734375 -4.3125 2.265625 C -5.25 4.679688 -6.148438 7.144531 -7.015625 9.65625 C -7.890625 12.175781 -8.722656 14.703125 -9.515625 17.234375 C -9.554688 17.378906 -9.679688 17.429688 -9.890625 17.390625 C -10.097656 17.359375 -10.179688 17.25 -10.140625 17.0625 C -10.066406 16.832031 -9.988281 16.601562 -9.90625 16.375 C -9.832031 16.144531 -9.78125 15.9375 -9.75 15.75 C -9.101562 13.789062 -8.476562 11.835938 -7.875 9.890625 C -7.269531 7.941406 -6.609375 6.003906 -5.890625 4.078125 C -5.585938 3.328125 -5.265625 2.550781 -4.921875 1.75 C -4.585938 0.957031 -4.234375 0.1875 -3.859375 -0.5625 C -3.441406 -1.550781 -3.003906 -2.515625 -2.546875 -3.453125 C -2.097656 -4.398438 -1.644531 -5.347656 -1.1875 -6.296875 C 0.0195312 -8.628906 1.300781 -10.929688 2.65625 -13.203125 C 4.019531 -15.472656 5.550781 -17.609375 7.25 -19.609375 C 7.332031 -19.679688 7.421875 -19.679688 7.515625 -19.609375 C 7.609375 -19.535156 7.613281 -19.457031 7.53125 -19.375 C 6.664062 -18.207031 5.816406 -17.007812 4.984375 -15.78125 C 4.148438 -14.550781 3.359375 -13.296875 2.609375 -12.015625 C 1.472656 -10.046875 0.394531 -8.0625 -0.625 -6.0625 C 0.507812 -7.613281 1.785156 -9.007812 3.203125 -10.25 C 4.617188 -11.5 6.253906 -12.484375 8.109375 -13.203125 C 8.523438 -13.390625 8.9375 -13.539062 9.34375 -13.65625 C 9.757812 -13.769531 10.175781 -13.863281 10.59375 -13.9375 C 10.894531 -14.007812 11.242188 -14.066406 11.640625 -14.109375 C 12.035156 -14.148438 12.332031 -14 12.53125 -13.65625 Z M 12.53125 -13.65625 "></path></g></g></g><g fill="#000000" fill-opacity="1"><g transform="translate(224.316263, 50.872291)"><g><path d="M 5.78125 -1.421875 C 6.007812 -1.421875 6.125 -1.285156 6.125 -1.015625 C 6.125 -0.753906 6.007812 -0.625 5.78125 -0.625 C 5.0625 -0.695312 4.328125 -0.640625 3.578125 -0.453125 C 3.304688 -0.410156 3.03125 -0.34375 2.75 -0.25 C 2.46875 -0.15625 2.175781 -0.0703125 1.875 0 C 1.832031 0.34375 1.789062 0.691406 1.75 1.046875 C 1.71875 1.410156 1.664062 1.757812 1.59375 2.09375 C 1.320312 3.71875 0.988281 5.34375 0.59375 6.96875 C 0.195312 8.59375 -0.28125 10.179688 -0.84375 11.734375 C -1.414062 13.242188 -2.066406 14.734375 -2.796875 16.203125 C -3.535156 17.679688 -4.398438 19.082031 -5.390625 20.40625 C -5.953125 21.15625 -6.617188 21.9375 -7.390625 22.75 C -8.171875 23.5625 -9.019531 24.164062 -9.9375 24.5625 C -10.863281 24.957031 -11.859375 24.929688 -12.921875 24.484375 C -13.566406 24.179688 -14.125 23.734375 -14.59375 23.140625 C -15.0625 22.554688 -15.390625 21.925781 -15.578125 21.25 C -15.847656 20.382812 -15.925781 19.503906 -15.8125 18.609375 C -15.695312 17.722656 -15.507812 16.863281 -15.25 16.03125 C -14.789062 14.488281 -14.144531 13.046875 -13.3125 11.703125 C -12.488281 10.359375 -11.546875 9.101562 -10.484375 7.9375 C -9.953125 7.332031 -9.382812 6.753906 -8.78125 6.203125 C -8.175781 5.660156 -7.570312 5.125 -6.96875 4.59375 C -5.71875 3.5 -4.453125 2.515625 -3.171875 1.640625 C -2.492188 1.191406 -1.796875 0.765625 -1.078125 0.359375 C -0.359375 -0.0351562 0.359375 -0.363281 1.078125 -0.625 C 1.222656 -2.132812 1.28125 -3.644531 1.25 -5.15625 C 1.207031 -5.570312 1.175781 -5.992188 1.15625 -6.421875 C 1.144531 -6.859375 1.097656 -7.285156 1.015625 -7.703125 C 0.984375 -8.046875 0.96875 -8.378906 0.96875 -8.703125 C 0.96875 -9.023438 1.003906 -9.335938 1.078125 -9.640625 C 1.191406 -10.128906 1.398438 -10.550781 1.703125 -10.90625 C 2.003906 -11.269531 2.304688 -11.640625 2.609375 -12.015625 C 2.867188 -12.316406 3.117188 -12.609375 3.359375 -12.890625 C 3.609375 -13.171875 3.847656 -13.460938 4.078125 -13.765625 C 3.960938 -13.765625 3.890625 -13.75 3.859375 -13.71875 C 3.515625 -13.675781 3.171875 -13.609375 2.828125 -13.515625 C 2.492188 -13.421875 2.175781 -13.28125 1.875 -13.09375 C 0.46875 -12.414062 -0.585938 -11.46875 -1.296875 -10.25 C -1.378906 -10.144531 -1.484375 -10.128906 -1.609375 -10.203125 C -1.742188 -10.273438 -1.773438 -10.367188 -1.703125 -10.484375 C -1.398438 -11.046875 -0.960938 -11.613281 -0.390625 -12.1875 C 0.734375 -13.238281 2 -13.9375 3.40625 -14.28125 C 3.59375 -14.320312 3.851562 -14.378906 4.1875 -14.453125 C 4.53125 -14.523438 4.757812 -14.46875 4.875 -14.28125 C 4.945312 -14.125 4.945312 -13.96875 4.875 -13.8125 C 4.800781 -13.664062 4.722656 -13.539062 4.640625 -13.4375 C 4.191406 -12.75 3.679688 -12.066406 3.109375 -11.390625 C 2.734375 -10.972656 2.410156 -10.566406 2.140625 -10.171875 C 1.878906 -9.773438 1.769531 -9.273438 1.8125 -8.671875 C 1.851562 -8.210938 1.898438 -7.753906 1.953125 -7.296875 C 2.015625 -6.847656 2.0625 -6.398438 2.09375 -5.953125 C 2.132812 -5.535156 2.15625 -5.097656 2.15625 -4.640625 C 2.15625 -4.191406 2.15625 -3.757812 2.15625 -3.34375 C 2.113281 -2.925781 2.082031 -2.519531 2.0625 -2.125 C 2.050781 -1.726562 2.023438 -1.320312 1.984375 -0.90625 C 3.191406 -1.320312 4.457031 -1.492188 5.78125 -1.421875 Z M -0.90625 9.015625 C -0.0390625 6.179688 0.582031 3.289062 0.96875 0.34375 C 0.0195312 0.757812 -0.894531 1.257812 -1.78125 1.84375 C -2.664062 2.425781 -3.523438 3.039062 -4.359375 3.6875 C -5.535156 4.59375 -6.671875 5.535156 -7.765625 6.515625 C -8.859375 7.492188 -9.878906 8.550781 -10.828125 9.6875 C -11.765625 10.863281 -12.582031 12.128906 -13.28125 13.484375 C -13.988281 14.847656 -14.492188 16.265625 -14.796875 17.734375 C -14.941406 18.492188 -14.976562 19.285156 -14.90625 20.109375 C -14.832031 20.941406 -14.566406 21.679688 -14.109375 22.328125 C -13.691406 22.890625 -13.171875 23.3125 -12.546875 23.59375 C -11.929688 23.882812 -11.28125 23.953125 -10.59375 23.796875 C -9.875 23.609375 -9.234375 23.257812 -8.671875 22.75 C -8.109375 22.238281 -7.597656 21.703125 -7.140625 21.140625 C -6.609375 20.535156 -6.125 19.921875 -5.6875 19.296875 C -5.257812 18.671875 -4.859375 18.035156 -4.484375 17.390625 C -3.679688 16.078125 -2.988281 14.710938 -2.40625 13.296875 C -1.820312 11.878906 -1.320312 10.453125 -0.90625 9.015625 Z M -0.90625 9.015625 "></path></g></g></g><g fill="#000000" fill-opacity="1"><g transform="translate(232.137683, 50.872291)"><g><path d="M 21.1875 -10.03125 C 21.382812 -10.101562 21.507812 -10.0625 21.5625 -9.90625 C 21.625 -9.757812 21.578125 -9.628906 21.421875 -9.515625 C 21.078125 -9.296875 20.707031 -9.085938 20.3125 -8.890625 C 19.914062 -8.703125 19.507812 -8.515625 19.09375 -8.328125 C 18.71875 -8.179688 18.347656 -8.019531 17.984375 -7.84375 C 17.628906 -7.675781 17.265625 -7.519531 16.890625 -7.375 C 16.171875 -7.101562 15.460938 -6.875 14.765625 -6.6875 C 14.066406 -6.5 13.335938 -6.367188 12.578125 -6.296875 C 11.972656 -6.210938 11.320312 -6.171875 10.625 -6.171875 C 9.925781 -6.171875 9.273438 -6.304688 8.671875 -6.578125 C 8.023438 -6.878906 7.65625 -7.320312 7.5625 -7.90625 C 7.46875 -8.488281 7.554688 -9.082031 7.828125 -9.6875 C 7.410156 -9.351562 6.984375 -9.035156 6.546875 -8.734375 C 6.109375 -8.429688 5.664062 -8.128906 5.21875 -7.828125 C 4.3125 -7.328125 3.421875 -6.945312 2.546875 -6.6875 C 2.097656 -6.570312 1.625 -6.46875 1.125 -6.375 C 0.632812 -6.28125 0.144531 -6.289062 -0.34375 -6.40625 C -1.0625 -6.59375 -1.472656 -6.941406 -1.578125 -7.453125 C -1.691406 -7.960938 -1.625 -8.507812 -1.375 -9.09375 C -1.132812 -9.675781 -0.847656 -10.160156 -0.515625 -10.546875 C 0.734375 -11.785156 2.191406 -12.597656 3.859375 -12.984375 C 4.722656 -13.171875 5.644531 -13.265625 6.625 -13.265625 C 7.613281 -13.265625 8.351562 -12.8125 8.84375 -11.90625 C 8.84375 -11.863281 8.84375 -11.832031 8.84375 -11.8125 C 8.84375 -11.789062 8.84375 -11.765625 8.84375 -11.734375 C 8.988281 -11.878906 9.144531 -12.019531 9.3125 -12.15625 C 9.488281 -12.289062 9.648438 -12.429688 9.796875 -12.578125 C 9.835938 -12.617188 9.867188 -12.644531 9.890625 -12.65625 C 9.910156 -12.675781 9.921875 -12.6875 9.921875 -12.6875 C 10.140625 -12.882812 10.34375 -12.882812 10.53125 -12.6875 C 10.726562 -12.5 10.734375 -12.3125 10.546875 -12.125 C 10.503906 -12.007812 10.425781 -11.9375 10.3125 -11.90625 C 9.820312 -11.488281 9.382812 -10.957031 9 -10.3125 C 8.625 -9.664062 8.421875 -9.023438 8.390625 -8.390625 C 8.390625 -7.859375 8.601562 -7.5 9.03125 -7.3125 C 9.46875 -7.125 9.957031 -7.035156 10.5 -7.046875 C 11.050781 -7.066406 11.5 -7.097656 11.84375 -7.140625 C 12.675781 -7.210938 13.488281 -7.351562 14.28125 -7.5625 C 15.070312 -7.769531 15.847656 -8.007812 16.609375 -8.28125 C 17.023438 -8.425781 17.421875 -8.570312 17.796875 -8.71875 C 18.171875 -8.875 18.546875 -9.03125 18.921875 -9.1875 C 19.304688 -9.332031 19.6875 -9.488281 20.0625 -9.65625 C 20.4375 -9.832031 20.8125 -9.957031 21.1875 -10.03125 Z M 1.59375 -7.3125 C 3.019531 -7.613281 4.300781 -8.175781 5.4375 -9 C 6.570312 -9.832031 7.671875 -10.722656 8.734375 -11.671875 C 8.648438 -11.597656 8.59375 -11.617188 8.5625 -11.734375 C 8.257812 -12.148438 7.867188 -12.410156 7.390625 -12.515625 C 6.921875 -12.628906 6.457031 -12.671875 6 -12.640625 C 5.507812 -12.597656 5.03125 -12.53125 4.5625 -12.4375 C 4.09375 -12.34375 3.648438 -12.222656 3.234375 -12.078125 C 2.585938 -11.847656 1.953125 -11.523438 1.328125 -11.109375 C 0.703125 -10.691406 0.179688 -10.203125 -0.234375 -9.640625 C -0.421875 -9.367188 -0.609375 -9.023438 -0.796875 -8.609375 C -0.984375 -8.191406 -0.960938 -7.832031 -0.734375 -7.53125 C -0.503906 -7.195312 -0.144531 -7.054688 0.34375 -7.109375 C 0.832031 -7.171875 1.25 -7.238281 1.59375 -7.3125 Z M 1.59375 -7.3125 "></path></g></g></g></g></g><g clip-path="url(#6189f3aa91)"><g clip-path="url(#650abacbb7)"><g transform="matrix(1, 0, 0, 1, 89, 181)"><g clip-path="url(#e0c1df5a6a)"><g clip-path="url(#ed804f494c)"><g clip-path="url(#801a3c9910)"><rect x="-148.4" width="388.8" fill="#000000" height="518.399981" y="-260.199997" fill-opacity="1"></rect></g></g></g></g></g></g></svg> 