<?xml version="1.0" encoding="UTF-8"?> <svg xmlns="http://www.w3.org/2000/svg" xmlns:xlink="http://www.w3.org/1999/xlink" width="360" zoomAndPan="magnify" viewBox="0 0 270 359.999987" height="480" preserveAspectRatio="xMidYMid meet" version="1.0"><defs><g></g><clipPath id="e727c9cd7f"><rect x="0" width="258" y="0" height="120"></rect></clipPath></defs><g transform="matrix(1, 0, 0, 1, 6, 115)"><g clip-path="url(#e727c9cd7f)"><g fill="#5f0000" fill-opacity="1"><g transform="translate(0.984504, 92.398315)"><g><path d="M 169.5 -59.359375 C 166.914062 -58.691406 164.359375 -58.359375 161.828125 -58.359375 C 154.265625 -58.359375 145.613281 -61.382812 135.875 -67.4375 C 130.132812 -71.039062 123.351562 -72.84375 115.53125 -72.84375 C 113.488281 -63.59375 108.109375 -55.628906 99.390625 -48.953125 C 90.671875 -42.285156 81.53125 -38.953125 71.96875 -38.953125 C 64.894531 -38.953125 61.359375 -40.753906 61.359375 -44.359375 C 61.359375 -47.203125 63.492188 -51.132812 67.765625 -56.15625 C 66.566406 -58.519531 65.96875 -60.898438 65.96875 -63.296875 C 65.96875 -67.484375 67.992188 -71.820312 72.046875 -76.3125 C 75.691406 -80.351562 80.210938 -83.773438 85.609375 -86.578125 C 91.015625 -89.378906 95.765625 -90.78125 99.859375 -90.78125 C 101.941406 -90.78125 104.097656 -90.40625 106.328125 -89.65625 C 108.773438 -88.800781 110.640625 -87.6875 111.921875 -86.3125 C 113.617188 -84.445312 114.820312 -82 115.53125 -78.96875 C 115.664062 -78.488281 115.734375 -77.132812 115.734375 -74.90625 L 116.46875 -74.90625 C 122.507812 -75 128.867188 -73.285156 135.546875 -69.765625 C 142.078125 -66.296875 148.367188 -63.519531 154.421875 -61.4375 C 156.992188 -60.5 159.347656 -60.03125 161.484375 -60.03125 C 162.460938 -60.03125 163.796875 -59.921875 165.484375 -59.703125 C 167.398438 -59.472656 168.738281 -59.359375 169.5 -59.359375 Z M 147.953125 -53.625 C 145.859375 -52.15625 142.878906 -49.15625 139.015625 -44.625 C 135.898438 -40.976562 131.316406 -35.175781 125.265625 -27.21875 C 114.054688 -12.5 108.5 -3.09375 108.59375 1 L 108.59375 1.53125 L 108.859375 1.734375 C 109.210938 1.734375 109.878906 1.441406 110.859375 0.859375 C 111.566406 0.421875 114.171875 -1.6875 118.671875 -5.46875 C 120.492188 -7.019531 121.46875 -7.796875 121.59375 -7.796875 C 121.769531 -7.796875 121.925781 -7.707031 122.0625 -7.53125 C 119.3125 -4.957031 117.800781 -3.40625 117.53125 -2.875 C 113.4375 0.644531 110.390625 2.40625 108.390625 2.40625 C 106.921875 2.40625 106.1875 1.691406 106.1875 0.265625 C 106.1875 -2.617188 109.097656 -8.664062 114.921875 -17.875 C 120.441406 -26.632812 126.3125 -34.707031 132.53125 -42.09375 C 139.34375 -50.1875 143.925781 -54.234375 146.28125 -54.234375 C 146.632812 -54.234375 147.191406 -54.03125 147.953125 -53.625 Z M 131.671875 -56.5625 C 131.671875 -55.851562 131.023438 -54.65625 129.734375 -52.96875 C 126.671875 -49.050781 122.113281 -43.179688 116.0625 -35.359375 C 110.238281 -27.566406 101.546875 -15.914062 89.984375 -0.40625 C 89.535156 0.21875 89.179688 0.53125 88.921875 0.53125 C 88.734375 0.53125 88.59375 0.507812 88.5 0.46875 C 88.414062 0.425781 88.375 0.269531 88.375 0 C 88.375 -0.882812 98.269531 -14.757812 118.0625 -41.625 C 125.707031 -51.9375 130.132812 -57.09375 131.34375 -57.09375 C 131.5625 -57.09375 131.671875 -56.914062 131.671875 -56.5625 Z M 129.9375 -64.703125 L 129.46875 -63.90625 C 128.800781 -63.550781 127.753906 -63.015625 126.328125 -62.296875 C 126.378906 -62.253906 126.40625 -62.253906 126.40625 -62.296875 L 126.265625 -62.296875 C 126.304688 -62.296875 126.351562 -62.296875 126.40625 -62.296875 C 125.6875 -62.078125 124.660156 -61.703125 123.328125 -61.171875 C 123.066406 -61.035156 122.445312 -60.519531 121.46875 -59.625 C 121.238281 -59.40625 120.640625 -58.851562 119.671875 -57.96875 C 119.179688 -57.5625 118.332031 -56.625 117.125 -55.15625 C 113.394531 -50.625 110.617188 -47.113281 108.796875 -44.625 C 106.566406 -41.78125 103.34375 -37.398438 99.125 -31.484375 C 95.207031 -25.429688 90.957031 -19.847656 86.375 -14.734375 C 80.769531 -8.554688 75.476562 -4.066406 70.5 -1.265625 C 66.457031 1.003906 62.679688 2.628906 59.171875 3.609375 C 55.472656 4.671875 51.398438 5.203125 46.953125 5.203125 C 42.023438 5.203125 38.066406 4.867188 35.078125 4.203125 C 30.722656 3.265625 27.210938 1.507812 24.546875 -1.0625 C 18.054688 -1.644531 12.960938 -3.78125 9.265625 -7.46875 C 8.023438 -8.71875 7.023438 -10.316406 6.265625 -12.265625 C 5.773438 -13.609375 5.53125 -14.703125 5.53125 -15.546875 C 5.53125 -20.210938 7.664062 -23.632812 11.9375 -25.8125 C 15.40625 -27.632812 19.609375 -28.367188 24.546875 -28.015625 C 27.210938 -31.753906 31.367188 -34.800781 37.015625 -37.15625 C 42.171875 -39.289062 47.242188 -40.359375 52.234375 -40.359375 C 53.609375 -40.359375 55.363281 -40.203125 57.5 -39.890625 C 57.8125 -42.597656 58.566406 -44.195312 59.765625 -44.6875 L 60.03125 -44.6875 C 58.789062 -43.800781 58.171875 -42.132812 58.171875 -39.6875 C 63.328125 -38.625 67.148438 -36.554688 69.640625 -33.484375 C 72.085938 -33.484375 75.800781 -34.484375 80.78125 -36.484375 C 81.976562 -36.890625 83.734375 -37.578125 86.046875 -38.546875 C 88.847656 -39.929688 93.804688 -43.046875 100.921875 -47.890625 C 103.585938 -49.710938 107.546875 -52.46875 112.796875 -56.15625 C 117.328125 -59.445312 121.0625 -61.738281 124 -63.03125 C 124.582031 -63.519531 125.515625 -64.050781 126.796875 -64.625 C 128.085938 -65.207031 129.066406 -65.5 129.734375 -65.5 C 129.867188 -65.1875 129.9375 -64.921875 129.9375 -64.703125 Z M 115.0625 -74.90625 C 115.0625 -79.132812 113.347656 -82.582031 109.921875 -85.25 C 106.765625 -87.738281 103.007812 -88.984375 98.65625 -88.984375 C 94.738281 -88.984375 90.222656 -87.722656 85.109375 -85.203125 C 79.992188 -82.691406 75.726562 -79.570312 72.3125 -75.84375 C 68.476562 -71.664062 66.5625 -67.570312 66.5625 -63.5625 C 66.5625 -61.25 67.117188 -58.9375 68.234375 -56.625 C 82.378906 -69.570312 97.988281 -75.664062 115.0625 -74.90625 Z M 114.65625 -72.578125 L 113.59375 -72.640625 C 102.207031 -72.679688 89.910156 -68.945312 76.703125 -61.4375 C 73.328125 -59.519531 70.660156 -57.671875 68.703125 -55.890625 C 69.722656 -53.890625 72.171875 -52.445312 76.046875 -51.5625 C 76.753906 -51.382812 77.640625 -51.296875 78.703125 -51.296875 C 78.878906 -51.296875 79.191406 -51.316406 79.640625 -51.359375 C 80.046875 -51.359375 80.359375 -51.359375 80.578125 -51.359375 C 83.515625 -51.359375 87.582031 -52.914062 92.78125 -56.03125 C 95.625 -57.71875 97.738281 -59.960938 99.125 -62.765625 C 99.257812 -62.679688 99.328125 -62.523438 99.328125 -62.296875 C 99.328125 -61.410156 98.523438 -60.097656 96.921875 -58.359375 C 95.628906 -57.023438 94.40625 -55.9375 93.25 -55.09375 C 88.71875 -51.851562 84.5625 -50.234375 80.78125 -50.234375 C 74.59375 -50.234375 70.410156 -52.054688 68.234375 -55.703125 C 67.035156 -54.585938 65.859375 -53.050781 64.703125 -51.09375 C 63.410156 -48.914062 62.765625 -47.160156 62.765625 -45.828125 C 62.765625 -43.828125 64.125 -42.25 66.84375 -41.09375 C 68.96875 -40.195312 71.1875 -39.75 73.5 -39.75 C 76.082031 -39.75 78.910156 -40.265625 81.984375 -41.296875 C 95.097656 -45.734375 104.347656 -52.398438 109.734375 -61.296875 C 112.347656 -65.609375 113.988281 -69.367188 114.65625 -72.578125 Z M 123.328125 -61.828125 L 123.328125 -62.09375 C 118.929688 -59.78125 111.617188 -54.820312 101.390625 -47.21875 C 95.785156 -43.082031 90.914062 -39.90625 86.78125 -37.6875 C 81.3125 -34.707031 75.882812 -32.707031 70.5 -31.6875 C 71.300781 -29.726562 71.703125 -27.859375 71.703125 -26.078125 C 71.703125 -20.160156 69.191406 -14.957031 64.171875 -10.46875 C 59.941406 -6.6875 54.671875 -3.929688 48.359375 -2.203125 C 43.910156 -1.003906 38.507812 -0.40625 32.15625 -0.40625 C 32.507812 -0.40625 30.726562 -0.554688 26.8125 -0.859375 L 26.875 -0.734375 C 32.125 2.734375 38.570312 4.46875 46.21875 4.46875 C 53.113281 4.46875 60.453125 2.175781 68.234375 -2.40625 C 75.128906 -6.488281 81.378906 -12.359375 86.984375 -20.015625 C 88.046875 -21.484375 89.269531 -23.082031 90.65625 -24.8125 C 92.5625 -27.4375 95.515625 -31.328125 99.515625 -36.484375 C 100.179688 -37.242188 100.914062 -38.242188 101.71875 -39.484375 C 103.457031 -42.066406 105.703125 -44.867188 108.453125 -47.890625 C 111.566406 -51.359375 113.90625 -53.847656 115.46875 -55.359375 C 118.09375 -57.941406 120.710938 -60.097656 123.328125 -61.828125 Z M 68.234375 -33.484375 C 65.921875 -36.148438 62.566406 -37.90625 58.171875 -38.75 C 58.171875 -37.375 58.945312 -36.128906 60.5 -35.015625 C 61.925781 -33.992188 63.367188 -33.484375 64.828125 -33.484375 Z M 70.578125 -26.140625 C 70.578125 -27.960938 70.175781 -29.742188 69.375 -31.484375 C 65.375 -31.484375 62.859375 -31.75 61.828125 -32.28125 C 61.160156 -32.414062 60.414062 -32.9375 59.59375 -33.84375 C 58.769531 -34.757812 58.296875 -35.570312 58.171875 -36.28125 C 57.722656 -36.90625 57.5 -37.773438 57.5 -38.890625 C 54.78125 -39.421875 53.023438 -39.6875 52.234375 -39.6875 C 47.734375 -39.6875 43.019531 -38.617188 38.09375 -36.484375 C 32.75 -34.128906 28.921875 -31.238281 26.609375 -27.8125 C 28.742188 -27.363281 30.769531 -26.585938 32.6875 -25.484375 C 35.082031 -24.015625 36.28125 -22.390625 36.28125 -20.609375 C 36.28125 -20.390625 36.257812 -20.191406 36.21875 -20.015625 C 36.132812 -20.546875 35.867188 -21.34375 35.421875 -22.40625 C 35.015625 -22.945312 34.59375 -23.460938 34.15625 -23.953125 C 34.0625 -23.992188 33.726562 -24.210938 33.15625 -24.609375 C 31.019531 -25.898438 28.679688 -26.742188 26.140625 -27.140625 C 24.722656 -25.367188 23.734375 -23.878906 23.171875 -22.671875 C 22.617188 -21.472656 22.144531 -19.765625 21.75 -17.546875 C 21.4375 -15.765625 21.28125 -14.296875 21.28125 -13.140625 C 21.28125 -8.421875 22.992188 -4.617188 26.421875 -1.734375 C 27.929688 -1.421875 29.796875 -1.265625 32.015625 -1.265625 C 38.503906 -1.265625 43.726562 -1.800781 47.6875 -2.875 C 53.78125 -4.519531 58.914062 -7.207031 63.09375 -10.9375 C 68.082031 -15.382812 70.578125 -20.453125 70.578125 -26.140625 Z M 24.140625 -27.34375 C 23.648438 -27.394531 23.117188 -27.421875 22.546875 -27.421875 C 16.585938 -27.421875 12.226562 -25.640625 9.46875 -22.078125 C 8.09375 -20.296875 7.40625 -18.296875 7.40625 -16.078125 C 7.40625 -13.765625 8.003906 -11.695312 9.203125 -9.875 C 9.472656 -9.5625 9.851562 -9.113281 10.34375 -8.53125 C 10.601562 -8.175781 11.023438 -7.664062 11.609375 -7 C 13.878906 -5.039062 17.96875 -3.375 23.875 -2 L 23.875 -2.203125 C 20.71875 -5.085938 19.140625 -8.664062 19.140625 -12.9375 C 19.140625 -13.914062 19.316406 -15.519531 19.671875 -17.75 C 20.429688 -21.925781 21.921875 -25.125 24.140625 -27.34375 Z M 24.140625 -27.34375 "></path></g></g></g><g fill="#5f0000" fill-opacity="1"><g transform="translate(120.393521, 92.398315)"><g><path d="M 20.140625 -6.609375 C 20.140625 -6.160156 18.609375 -4.710938 15.546875 -2.265625 C 13.316406 -0.484375 11.40625 0.40625 9.8125 0.40625 C 8.519531 0.40625 7.875 -0.128906 7.875 -1.203125 C 7.875 -2.003906 8.1875 -2.738281 8.8125 -3.40625 L 8.734375 -3.40625 C 5.929688 -0.863281 3.421875 0.40625 1.203125 0.40625 C -0.484375 0.40625 -1.328125 -0.328125 -1.328125 -1.796875 C -1.328125 -3.085938 -0.707031 -4.445312 0.53125 -5.875 L 0.46875 -5.875 C -0.195312 -5.15625 -0.617188 -4.796875 -0.796875 -4.796875 C -0.890625 -4.796875 -0.957031 -4.820312 -1 -4.875 L -1 -5 C -1 -5 -0.976562 -5.085938 -0.9375 -5.265625 C 0.175781 -6.597656 2.03125 -7.960938 4.625 -9.359375 C 7.226562 -10.765625 9.3125 -11.46875 10.875 -11.46875 C 12.425781 -11.46875 13.203125 -10.890625 13.203125 -9.734375 C 13.203125 -9.472656 13.160156 -9.1875 13.078125 -8.875 L 13.140625 -8.875 C 14.648438 -10.5625 16.03125 -11.40625 17.28125 -11.40625 C 17.851562 -11.40625 18.140625 -11.335938 18.140625 -11.203125 C 18.140625 -11.066406 17.003906 -9.628906 14.734375 -6.890625 C 12.472656 -4.160156 11.34375 -2.351562 11.34375 -1.46875 L 11.46875 -1.140625 C 11.601562 -1.085938 11.757812 -1.0625 11.9375 -1.0625 C 12.875 -1.0625 14.421875 -1.984375 16.578125 -3.828125 C 18.734375 -5.679688 19.898438 -6.628906 20.078125 -6.671875 C 20.117188 -6.628906 20.140625 -6.609375 20.140625 -6.609375 Z M 12.609375 -9.53125 C 12.609375 -10.332031 12.1875 -10.734375 11.34375 -10.734375 C 10.1875 -10.734375 8.257812 -9.441406 5.5625 -6.859375 C 2.875 -4.285156 1.53125 -2.46875 1.53125 -1.40625 C 1.53125 -0.863281 1.820312 -0.59375 2.40625 -0.59375 C 3.6875 -0.59375 5.707031 -1.789062 8.46875 -4.1875 C 11.226562 -6.59375 12.609375 -8.375 12.609375 -9.53125 Z M 12.609375 -9.53125 "></path></g></g></g><g fill="#5f0000" fill-opacity="1"><g transform="translate(139.605708, 92.398315)"><g><path d="M 19.28125 -17.75 C 19.1875 -16.988281 18.40625 -16.195312 16.9375 -15.375 C 15.46875 -14.550781 14.3125 -14.140625 13.46875 -14.140625 C 13.03125 -14.140625 12.550781 -14.285156 12.03125 -14.578125 C 11.519531 -14.867188 11.265625 -15.210938 11.265625 -15.609375 L 11.265625 -17.28125 C 11.492188 -17.769531 11.804688 -18.015625 12.203125 -18.015625 C 12.921875 -18.015625 13.28125 -17.722656 13.28125 -17.140625 C 13.28125 -16.515625 12.878906 -15.984375 12.078125 -15.546875 C 12.296875 -15.003906 12.785156 -14.734375 13.546875 -14.734375 C 14.390625 -14.734375 15.53125 -15.242188 16.96875 -16.265625 C 18.414062 -17.296875 19.148438 -17.8125 19.171875 -17.8125 C 19.191406 -17.8125 19.226562 -17.789062 19.28125 -17.75 Z M 22.21875 -6.609375 C 22.125 -5.941406 20.609375 -4.492188 17.671875 -2.265625 C 15.316406 -0.484375 13.40625 0.40625 11.9375 0.40625 C 10.5625 0.40625 9.875 -0.128906 9.875 -1.203125 C 9.875 -2.535156 11.097656 -4.425781 13.546875 -6.875 L 13.40625 -7 C 7.445312 -2.0625 3.488281 0.40625 1.53125 0.40625 C 0.0625 0.40625 -0.671875 -0.128906 -0.671875 -1.203125 C -0.671875 -2.929688 1.332031 -5.707031 5.34375 -9.53125 L 5.34375 -9.609375 C 4.625 -9.117188 3.554688 -8.316406 2.140625 -7.203125 C 1.597656 -6.710938 0.796875 -6.023438 -0.265625 -5.140625 C -0.535156 -4.960938 -0.757812 -4.875 -0.9375 -4.875 C -0.976562 -4.914062 -1 -4.976562 -1 -5.0625 C -1 -5.644531 0.3125 -6.820312 2.9375 -8.59375 C 5.5625 -10.375 7.492188 -11.265625 8.734375 -11.265625 C 9.222656 -11.265625 9.515625 -11.203125 9.609375 -11.078125 C 9.554688 -10.984375 8.332031 -9.40625 5.9375 -6.34375 C 3.9375 -3.800781 2.9375 -2.21875 2.9375 -1.59375 C 2.976562 -1.550781 3.039062 -1.460938 3.125 -1.328125 C 3.21875 -1.203125 3.351562 -1.140625 3.53125 -1.140625 C 4.644531 -1.140625 9.09375 -4.316406 16.875 -10.671875 C 17.457031 -11.160156 18.101562 -11.40625 18.8125 -11.40625 C 19.75 -11.40625 20.21875 -11.296875 20.21875 -11.078125 C 20.21875 -10.804688 19.09375 -9.359375 16.84375 -6.734375 C 14.59375 -4.109375 13.46875 -2.441406 13.46875 -1.734375 C 13.46875 -1.554688 13.507812 -1.410156 13.59375 -1.296875 C 13.6875 -1.191406 13.820312 -1.140625 14 -1.140625 C 15.519531 -1.140625 17.96875 -2.828125 21.34375 -6.203125 Z M 22.21875 -6.609375 "></path></g></g></g><g fill="#5f0000" fill-opacity="1"><g transform="translate(160.952571, 92.398315)"><g><path d="M 30.078125 -6.53125 C 30.078125 -6 28.546875 -4.578125 25.484375 -2.265625 C 23.128906 -0.484375 21.21875 0.40625 19.75 0.40625 C 18.363281 0.40625 17.671875 -0.128906 17.671875 -1.203125 C 17.671875 -2.535156 18.894531 -4.425781 21.34375 -6.875 L 21.21875 -7 C 15.65625 -2.15625 11.828125 0.265625 9.734375 0.265625 C 8.492188 0.265625 7.875 -0.289062 7.875 -1.40625 C 7.875 -2.019531 8.160156 -2.753906 8.734375 -3.609375 C 9.222656 -4.316406 9.710938 -5.023438 10.203125 -5.734375 C 8.734375 -4.492188 7.242188 -3.226562 5.734375 -1.9375 C 3.773438 -0.46875 2.109375 0.265625 0.734375 0.265625 C -0.554688 0.265625 -1.203125 -0.242188 -1.203125 -1.265625 C -1.203125 -1.535156 -1.179688 -1.800781 -1.140625 -2.0625 L -1.0625 -2.0625 C -0.707031 -3.21875 0.0859375 -3.796875 1.328125 -3.796875 C 2.085938 -3.796875 2.46875 -3.578125 2.46875 -3.140625 C 2.46875 -3.003906 2.421875 -2.78125 2.328125 -2.46875 C 2.242188 -2.15625 2.203125 -1.910156 2.203125 -1.734375 C 2.203125 -1.691406 2.242188 -1.535156 2.328125 -1.265625 C 2.421875 -1.222656 2.554688 -1.203125 2.734375 -1.203125 C 3.535156 -1.203125 5.757812 -2.734375 9.40625 -5.796875 C 11.40625 -7.492188 13.382812 -9.207031 15.34375 -10.9375 C 15.65625 -11.207031 16.363281 -11.34375 17.46875 -11.34375 C 17.695312 -11.34375 17.878906 -11.273438 18.015625 -11.140625 C 17.960938 -10.867188 16.820312 -9.421875 14.59375 -6.796875 C 12.375 -4.179688 11.265625 -2.492188 11.265625 -1.734375 C 11.398438 -1.335938 11.554688 -1.140625 11.734375 -1.140625 C 12.628906 -1.140625 14.941406 -2.671875 18.671875 -5.734375 C 23.210938 -9.472656 25.59375 -11.40625 25.8125 -11.53125 C 26.03125 -11.664062 26.410156 -11.734375 26.953125 -11.734375 C 27.878906 -11.734375 28.34375 -11.625 28.34375 -11.40625 C 28.34375 -11.269531 27.164062 -9.8125 24.8125 -7.03125 C 22.457031 -4.257812 21.28125 -2.492188 21.28125 -1.734375 C 21.28125 -1.554688 21.320312 -1.410156 21.40625 -1.296875 C 21.5 -1.191406 21.632812 -1.140625 21.8125 -1.140625 C 22.570312 -1.140625 23.882812 -1.847656 25.75 -3.265625 C 27.125 -4.335938 28.257812 -5.316406 29.15625 -6.203125 L 30.015625 -6.609375 C 30.054688 -6.554688 30.078125 -6.53125 30.078125 -6.53125 Z M 30.078125 -6.53125 "></path></g></g><g transform="translate(190.104384, 92.398315)"><g><path d="M 22.21875 -6.53125 C 22.21875 -6 20.703125 -4.578125 17.671875 -2.265625 C 15.316406 -0.484375 13.40625 0.40625 11.9375 0.40625 C 10.5625 0.40625 9.875 -0.128906 9.875 -1.203125 C 9.875 -2.535156 11.097656 -4.425781 13.546875 -6.875 L 13.40625 -7 C 7.445312 -2.0625 3.488281 0.40625 1.53125 0.40625 C 0.0625 0.40625 -0.671875 -0.128906 -0.671875 -1.203125 C -0.671875 -2.929688 1.332031 -5.707031 5.34375 -9.53125 L 5.34375 -9.609375 C 4.625 -9.117188 3.554688 -8.316406 2.140625 -7.203125 C 1.597656 -6.710938 0.796875 -6.023438 -0.265625 -5.140625 C -0.535156 -4.960938 -0.757812 -4.875 -0.9375 -4.875 L -1 -5 C -0.238281 -6.195312 1.203125 -7.507812 3.328125 -8.9375 C 5.640625 -10.488281 7.46875 -11.265625 8.8125 -11.265625 C 9.25 -11.265625 9.515625 -11.203125 9.609375 -11.078125 C 9.554688 -10.984375 8.332031 -9.40625 5.9375 -6.34375 C 3.9375 -3.800781 2.9375 -2.21875 2.9375 -1.59375 C 2.976562 -1.550781 3.039062 -1.460938 3.125 -1.328125 C 3.21875 -1.203125 3.378906 -1.140625 3.609375 -1.140625 C 4.671875 -1.140625 9.09375 -4.316406 16.875 -10.671875 C 17.457031 -11.160156 18.101562 -11.40625 18.8125 -11.40625 C 19.75 -11.40625 20.21875 -11.296875 20.21875 -11.078125 C 20.21875 -10.847656 19.09375 -9.398438 16.84375 -6.734375 C 14.59375 -4.066406 13.46875 -2.398438 13.46875 -1.734375 C 13.46875 -1.554688 13.507812 -1.410156 13.59375 -1.296875 C 13.6875 -1.191406 13.820312 -1.140625 14 -1.140625 C 15.519531 -1.140625 17.96875 -2.828125 21.34375 -6.203125 L 22.21875 -6.609375 Z M 22.21875 -6.53125 "></path></g></g><g transform="translate(211.45125, 92.398315)"><g><path d="M 21.671875 -6.140625 C 20.785156 -4.222656 19.273438 -2.597656 17.140625 -1.265625 C 15.359375 -0.109375 13.890625 0.46875 12.734375 0.46875 C 11.222656 0.46875 10.46875 -0.175781 10.46875 -1.46875 C 10.46875 -2.445312 10.914062 -3.535156 11.8125 -4.734375 C 10.425781 -3.753906 8.957031 -3.265625 7.40625 -3.265625 C 6.25 -3.265625 5.425781 -3.644531 4.9375 -4.40625 C 4.3125 -3.425781 3.289062 -2.046875 1.875 -0.265625 C 1.070312 0.0859375 0.3125 0.265625 -0.40625 0.265625 C -1.382812 0.265625 -1.875 0.0859375 -1.875 -0.265625 C -1.875 -0.890625 -0.867188 -2.425781 1.140625 -4.875 C 2.828125 -7.007812 4.160156 -8.539062 5.140625 -9.46875 L 5.140625 -9.53125 C 2.203125 -7.132812 0.554688 -5.9375 0.203125 -5.9375 C 0.109375 -5.9375 0.0625 -5.976562 0.0625 -6.0625 C 0.46875 -6.957031 1.671875 -8.015625 3.671875 -9.234375 C 5.671875 -10.460938 7.160156 -11.078125 8.140625 -11.078125 C 8.984375 -11.078125 9.40625 -10.960938 9.40625 -10.734375 C 9.40625 -10.554688 8.359375 -9.113281 6.265625 -6.40625 C 6.617188 -6.175781 6.796875 -5.882812 6.796875 -5.53125 C 6.796875 -5.3125 6.695312 -5.078125 6.5 -4.828125 C 6.300781 -4.585938 6.203125 -4.421875 6.203125 -4.328125 C 6.203125 -3.929688 6.492188 -3.734375 7.078125 -3.734375 C 8.804688 -3.734375 10.425781 -4.359375 11.9375 -5.609375 C 12.03125 -5.648438 13.1875 -6.828125 15.40625 -9.140625 C 16.65625 -10.429688 17.769531 -11.078125 18.75 -11.078125 C 19.675781 -11.078125 20.140625 -10.941406 20.140625 -10.671875 C 20.140625 -10.585938 19.128906 -9.285156 17.109375 -6.765625 C 15.085938 -4.253906 14.078125 -2.664062 14.078125 -2 C 14.078125 -1.6875 14.140625 -1.453125 14.265625 -1.296875 C 14.398438 -1.140625 14.554688 -1.0625 14.734375 -1.0625 C 15.535156 -1.0625 17.71875 -2.773438 21.28125 -6.203125 L 21.484375 -6.203125 C 21.566406 -6.203125 21.628906 -6.179688 21.671875 -6.140625 Z M 21.671875 -6.140625 "></path></g></g><g transform="translate(232.46457, 92.398315)"><g><path d="M 14.46875 -6.671875 C 14.25 -6.003906 13.179688 -4.9375 11.265625 -3.46875 C 9.753906 -2.269531 8.410156 -1.320312 7.234375 -0.625 C 6.054688 0.0625 4.910156 0.40625 3.796875 0.40625 C 2.460938 0.40625 1.796875 -0.0625 1.796875 -1 C 1.796875 -2.0625 2.785156 -3.796875 4.765625 -6.203125 C 6.742188 -8.609375 7.734375 -9.832031 7.734375 -9.875 C 7.734375 -10.1875 7.578125 -10.34375 7.265625 -10.34375 C 6.515625 -10.34375 5.101562 -9.570312 3.03125 -8.03125 C 0.96875 -6.5 -0.109375 -5.734375 -0.203125 -5.734375 C -0.242188 -5.734375 -0.3125 -5.78125 -0.40625 -5.875 C -0.40625 -6.050781 -0.378906 -6.160156 -0.328125 -6.203125 C 3.753906 -9.710938 6.734375 -11.46875 8.609375 -11.46875 C 9.984375 -11.46875 10.671875 -10.976562 10.671875 -10 C 10.671875 -9.25 9.800781 -7.804688 8.0625 -5.671875 C 6.332031 -3.535156 5.46875 -2.15625 5.46875 -1.53125 L 5.53125 -1.265625 C 5.707031 -1.179688 5.882812 -1.140625 6.0625 -1.140625 C 6.863281 -1.140625 8.242188 -1.894531 10.203125 -3.40625 C 11.492188 -4.507812 12.785156 -5.597656 14.078125 -6.671875 Z M 14.46875 -6.671875 "></path></g></g></g><g fill="#5f0000" fill-opacity="1"><g transform="translate(246.139898, 92.398315)"><g><path d="M 8.34375 -8.8125 C 8.34375 -8.1875 7.90625 -7.5625 7.03125 -6.9375 C 6.164062 -6.3125 5.398438 -6 4.734375 -6 C 4.554688 -6.175781 4.46875 -6.507812 4.46875 -7 C 4.46875 -8.6875 5.398438 -9.53125 7.265625 -9.53125 C 7.984375 -9.53125 8.34375 -9.289062 8.34375 -8.8125 Z M 5.140625 -2.203125 C 5.140625 -1.578125 4.703125 -0.953125 3.828125 -0.328125 C 2.960938 0.285156 2.195312 0.59375 1.53125 0.59375 C 1.351562 0.414062 1.265625 0.0820312 1.265625 -0.40625 C 1.265625 -2.09375 2.195312 -2.9375 4.0625 -2.9375 C 4.78125 -2.9375 5.140625 -2.691406 5.140625 -2.203125 Z M 5.140625 -2.203125 "></path></g></g></g></g></g></svg> 