<?xml version="1.0" encoding="UTF-8"?> <svg xmlns="http://www.w3.org/2000/svg" xmlns:xlink="http://www.w3.org/1999/xlink" width="360" zoomAndPan="magnify" viewBox="0 0 270 359.999987" height="480" preserveAspectRatio="xMidYMid meet" version="1.0"><defs><g></g><clipPath id="5107ad8ade"><rect x="0" width="265" y="0" height="144"></rect></clipPath></defs><g transform="matrix(1, 0, 0, 1, 2, 108)"><g clip-path="url(#5107ad8ade)"><g fill="#000000" fill-opacity="1"><g transform="translate(1.91471, 108.921839)"><g><path d="M 13.40625 0 L 13.40625 -1.296875 C 15.476562 -1.296875 16.789062 -1.914062 17.34375 -3.15625 C 17.90625 -4.40625 18.1875 -5.890625 18.1875 -7.609375 L 18.1875 -69.390625 C 18.1875 -70.242188 17.753906 -70.671875 16.890625 -70.671875 C 16.546875 -70.671875 16.070312 -70.539062 15.46875 -70.28125 L 0.78125 -65.640625 L 0.78125 -70.28125 L 30.828125 -80.734375 L 30.828125 -77.25 C 29.453125 -76.644531 28.351562 -75.695312 27.53125 -74.40625 C 26.71875 -73.125 26.394531 -71.625 26.5625 -69.90625 L 26.5625 -8.125 C 26.5625 -6.320312 26.863281 -4.734375 27.46875 -3.359375 C 28.070312 -1.984375 29.445312 -1.296875 31.59375 -1.296875 L 31.59375 0 Z M 13.40625 0 "></path></g></g></g><g fill="#000000" fill-opacity="1"><g transform="translate(43.819523, 108.921839)"><g><path d="M 23.34375 0 L 17.28125 0 L 45.015625 -72.09375 L 11.34375 -72.09375 C 10.3125 -72.09375 9.257812 -72.023438 8.1875 -71.890625 C 7.113281 -71.765625 6.125 -71.460938 5.21875 -70.984375 C 4.320312 -70.515625 3.59375 -69.785156 3.03125 -68.796875 C 2.46875 -67.816406 2.1875 -66.507812 2.1875 -64.875 L 0.90625 -64.875 L 0.90625 -79.3125 L 53.78125 -79.3125 Z M 23.34375 0 "></path></g></g></g><g fill="#000000" fill-opacity="1"><g transform="translate(100.681141, 108.921839)"><g><path d="M 6.703125 -43.71875 C 6.703125 -45.4375 7.28125 -46.894531 8.4375 -48.09375 C 9.601562 -49.300781 11.046875 -49.90625 12.765625 -49.90625 C 14.484375 -49.90625 15.941406 -49.300781 17.140625 -48.09375 C 18.347656 -46.894531 18.953125 -45.4375 18.953125 -43.71875 C 18.953125 -42 18.347656 -40.554688 17.140625 -39.390625 C 15.941406 -38.234375 14.484375 -37.65625 12.765625 -37.65625 C 11.046875 -37.65625 9.601562 -38.234375 8.4375 -39.390625 C 7.28125 -40.554688 6.703125 -42 6.703125 -43.71875 Z M 6.703125 -5.546875 C 6.703125 -7.265625 7.28125 -8.722656 8.4375 -9.921875 C 9.601562 -11.128906 11.046875 -11.734375 12.765625 -11.734375 C 14.484375 -11.734375 15.941406 -11.128906 17.140625 -9.921875 C 18.347656 -8.722656 18.953125 -7.265625 18.953125 -5.546875 C 18.953125 -3.828125 18.347656 -2.382812 17.140625 -1.21875 C 15.941406 -0.0625 14.484375 0.515625 12.765625 0.515625 C 11.046875 0.515625 9.601562 -0.0625 8.4375 -1.21875 C 7.28125 -2.382812 6.703125 -3.828125 6.703125 -5.546875 Z M 6.703125 -5.546875 "></path></g></g></g><g fill="#000000" fill-opacity="1"><g transform="translate(126.597673, 108.921839)"><g><path d="M 4.765625 -39.984375 C 4.765625 -46.597656 5.601562 -52.441406 7.28125 -57.515625 C 8.957031 -62.585938 11.171875 -66.820312 13.921875 -70.21875 C 16.679688 -73.613281 19.800781 -76.191406 23.28125 -77.953125 C 26.757812 -79.722656 30.304688 -80.609375 33.921875 -80.609375 C 37.523438 -80.609375 41.085938 -79.722656 44.609375 -77.953125 C 48.140625 -76.191406 51.257812 -73.613281 53.96875 -70.21875 C 56.675781 -66.820312 58.867188 -62.585938 60.546875 -57.515625 C 62.222656 -52.441406 63.0625 -46.597656 63.0625 -39.984375 C 63.0625 -33.273438 62.222656 -27.363281 60.546875 -22.25 C 58.867188 -17.132812 56.675781 -12.832031 53.96875 -9.34375 C 51.257812 -5.863281 48.140625 -3.21875 44.609375 -1.40625 C 41.085938 0.394531 37.523438 1.296875 33.921875 1.296875 C 30.304688 1.296875 26.757812 0.394531 23.28125 -1.40625 C 19.800781 -3.21875 16.679688 -5.863281 13.921875 -9.34375 C 11.171875 -12.832031 8.957031 -17.132812 7.28125 -22.25 C 5.601562 -27.363281 4.765625 -33.273438 4.765625 -39.984375 Z M 54.9375 -36.625 C 54.9375 -42.8125 54.25 -48.289062 52.875 -53.0625 C 51.5 -57.84375 49.710938 -61.84375 47.515625 -65.0625 C 45.328125 -68.289062 42.835938 -70.742188 40.046875 -72.421875 C 37.253906 -74.097656 34.394531 -74.9375 31.46875 -74.9375 C 28.539062 -74.9375 25.894531 -74.097656 23.53125 -72.421875 C 21.164062 -70.742188 19.164062 -68.523438 17.53125 -65.765625 C 15.90625 -63.015625 14.640625 -59.832031 13.734375 -56.21875 C 12.828125 -52.613281 12.375 -48.832031 12.375 -44.875 C 12.375 -40.144531 12.929688 -35.351562 14.046875 -30.5 C 15.171875 -25.644531 16.765625 -21.257812 18.828125 -17.34375 C 20.890625 -13.4375 23.359375 -10.234375 26.234375 -7.734375 C 29.117188 -5.242188 32.28125 -4 35.71875 -4 C 38.21875 -4 40.625 -4.707031 42.9375 -6.125 C 45.257812 -7.539062 47.300781 -9.625 49.0625 -12.375 C 50.832031 -15.132812 52.253906 -18.53125 53.328125 -22.5625 C 54.398438 -26.601562 54.9375 -31.289062 54.9375 -36.625 Z M 54.9375 -36.625 "></path></g></g></g><g fill="#000000" fill-opacity="1"><g transform="translate(195.321597, 108.921839)"><g><path d="M 4.765625 -39.984375 C 4.765625 -46.597656 5.601562 -52.441406 7.28125 -57.515625 C 8.957031 -62.585938 11.171875 -66.820312 13.921875 -70.21875 C 16.679688 -73.613281 19.800781 -76.191406 23.28125 -77.953125 C 26.757812 -79.722656 30.304688 -80.609375 33.921875 -80.609375 C 37.523438 -80.609375 41.085938 -79.722656 44.609375 -77.953125 C 48.140625 -76.191406 51.257812 -73.613281 53.96875 -70.21875 C 56.675781 -66.820312 58.867188 -62.585938 60.546875 -57.515625 C 62.222656 -52.441406 63.0625 -46.597656 63.0625 -39.984375 C 63.0625 -33.273438 62.222656 -27.363281 60.546875 -22.25 C 58.867188 -17.132812 56.675781 -12.832031 53.96875 -9.34375 C 51.257812 -5.863281 48.140625 -3.21875 44.609375 -1.40625 C 41.085938 0.394531 37.523438 1.296875 33.921875 1.296875 C 30.304688 1.296875 26.757812 0.394531 23.28125 -1.40625 C 19.800781 -3.21875 16.679688 -5.863281 13.921875 -9.34375 C 11.171875 -12.832031 8.957031 -17.132812 7.28125 -22.25 C 5.601562 -27.363281 4.765625 -33.273438 4.765625 -39.984375 Z M 54.9375 -36.625 C 54.9375 -42.8125 54.25 -48.289062 52.875 -53.0625 C 51.5 -57.84375 49.710938 -61.84375 47.515625 -65.0625 C 45.328125 -68.289062 42.835938 -70.742188 40.046875 -72.421875 C 37.253906 -74.097656 34.394531 -74.9375 31.46875 -74.9375 C 28.539062 -74.9375 25.894531 -74.097656 23.53125 -72.421875 C 21.164062 -70.742188 19.164062 -68.523438 17.53125 -65.765625 C 15.90625 -63.015625 14.640625 -59.832031 13.734375 -56.21875 C 12.828125 -52.613281 12.375 -48.832031 12.375 -44.875 C 12.375 -40.144531 12.929688 -35.351562 14.046875 -30.5 C 15.171875 -25.644531 16.765625 -21.257812 18.828125 -17.34375 C 20.890625 -13.4375 23.359375 -10.234375 26.234375 -7.734375 C 29.117188 -5.242188 32.28125 -4 35.71875 -4 C 38.21875 -4 40.625 -4.707031 42.9375 -6.125 C 45.257812 -7.539062 47.300781 -9.625 49.0625 -12.375 C 50.832031 -15.132812 52.253906 -18.53125 53.328125 -22.5625 C 54.398438 -26.601562 54.9375 -31.289062 54.9375 -36.625 Z M 54.9375 -36.625 "></path></g></g></g></g></g></svg> 