<?xml version="1.0" encoding="UTF-8"?> <svg xmlns="http://www.w3.org/2000/svg" xmlns:xlink="http://www.w3.org/1999/xlink" width="360" zoomAndPan="magnify" viewBox="0 0 270 359.999987" height="480" preserveAspectRatio="xMidYMid meet" version="1.0"><defs><clipPath id="54ad780890"><path d="M 72.007812 50.683594 L 197.957031 50.683594 L 197.957031 309.316406 L 72.007812 309.316406 Z M 72.007812 50.683594 " clip-rule="nonzero"></path></clipPath><clipPath id="af3c36359a"><path d="M 197.980469 301.660156 C 196.523438 299.199219 195.089844 296.722656 193.679688 294.234375 C 189.183594 286.003906 166.011719 220.039062 166.011719 220.039062 C 164 207.515625 163.132812 195.433594 164.222656 187.042969 C 165.238281 179.203125 166.453125 173.160156 167.738281 166.46875 C 167.84375 165.714844 167.988281 164.96875 168.167969 164.230469 C 168.609375 161.910156 169.058594 159.488281 169.507812 156.867188 C 169.699219 155.753906 169.875 154.800781 170.035156 153.972656 C 170.984375 146.300781 170.714844 140.191406 170.207031 136.003906 C 168.316406 123.238281 163.183594 112.425781 158.609375 100.332031 C 154.871094 90.445312 162.035156 78.753906 168.070312 61.703125 C 168.136719 61.503906 168.21875 61.265625 168.320312 60.996094 L 168.5 60.476562 C 169.128906 58.550781 169.082031 57.136719 168.699219 56.101562 C 168.398438 55.304688 167.894531 54.667969 167.183594 54.195312 C 157.636719 44.253906 141.910156 63.652344 141.910156 63.652344 C 135.570312 49.78125 127.207031 49.503906 121.3125 51.703125 C 118.015625 52.59375 116.027344 54.046875 115.121094 54.851562 C 112.8125 56.605469 113.828125 60.789062 113.828125 60.789062 C 117.460938 69.195312 123.351562 90.195312 123.015625 92.382812 C 122.617188 94.96875 116.058594 114.351562 111.1875 127.675781 C 106.316406 141 110.289062 152.234375 113.871094 167.742188 C 117.453125 183.253906 123.84375 195.011719 120.859375 209.921875 C 117.875 224.835938 72.007812 298.269531 72.007812 298.269531 C 72.007812 298.269531 84.769531 306.332031 88.238281 307.152344 C 88.265625 307.246094 88.289062 307.335938 88.320312 307.425781 C 88.328125 307.453125 88.335938 307.476562 88.34375 307.503906 L 88.332031 307.414062 C 88.332031 307.414062 88.46875 307.359375 88.730469 307.261719 C 97.070312 309.175781 112.175781 311.367188 122.902344 305.597656 C 133.1875 300.066406 147.289062 301.003906 155.65625 302.265625 C 172.898438 306.203125 196.164062 306.949219 197.984375 301.660156 Z M 197.980469 301.660156 " clip-rule="nonzero"></path></clipPath></defs><g clip-path="url(#54ad780890)"><g clip-path="url(#af3c36359a)"><path fill="#5f0000" d="M 197.980469 301.660156 C 196.523438 299.199219 195.089844 296.722656 193.679688 294.234375 C 189.183594 286.003906 166.011719 220.039062 166.011719 220.039062 C 164 207.515625 163.132812 195.433594 164.222656 187.042969 C 165.238281 179.203125 166.453125 173.160156 167.738281 166.46875 C 167.84375 165.714844 167.988281 164.96875 168.167969 164.230469 C 168.609375 161.910156 169.058594 159.488281 169.507812 156.867188 C 169.699219 155.753906 169.875 154.800781 170.035156 153.972656 C 170.984375 146.300781 170.714844 140.191406 170.207031 136.003906 C 168.316406 123.238281 163.183594 112.425781 158.609375 100.332031 C 154.871094 90.445312 162.035156 78.753906 168.070312 61.703125 C 168.136719 61.503906 168.21875 61.265625 168.320312 60.996094 L 168.5 60.476562 C 169.128906 58.550781 169.082031 57.136719 168.699219 56.101562 C 168.398438 55.304688 167.894531 54.667969 167.183594 54.195312 C 157.636719 44.253906 141.910156 63.652344 141.910156 63.652344 C 135.570312 49.78125 127.207031 49.503906 121.3125 51.703125 C 118.015625 52.59375 116.027344 54.046875 115.121094 54.851562 C 112.8125 56.605469 113.828125 60.789062 113.828125 60.789062 C 117.460938 69.195312 123.351562 90.195312 123.015625 92.382812 C 122.617188 94.96875 116.058594 114.351562 111.1875 127.675781 C 106.316406 141 110.289062 152.234375 113.871094 167.742188 C 117.453125 183.253906 123.84375 195.011719 120.859375 209.921875 C 117.875 224.835938 72.007812 298.269531 72.007812 298.269531 C 72.007812 298.269531 84.769531 306.332031 88.238281 307.152344 C 88.265625 307.246094 88.289062 307.335938 88.320312 307.425781 C 88.328125 307.453125 88.335938 307.476562 88.34375 307.503906 L 88.332031 307.414062 C 88.332031 307.414062 88.46875 307.359375 88.730469 307.261719 C 97.070312 309.175781 112.175781 311.367188 122.902344 305.597656 C 133.1875 300.066406 147.289062 301.003906 155.65625 302.265625 C 172.898438 306.203125 196.164062 306.949219 197.984375 301.660156 Z M 197.980469 301.660156 " fill-opacity="1" fill-rule="nonzero"></path></g></g></svg> 